ISO-10303-21;
HEADER;
FILE_DESCRIPTION(('STEP AP214'),'1');
FILE_NAME('SMAStripDeformed_09.stp','2026-07-10T18:09:41',(' '),(' '),'Spatial InterOp 3D',' ',' ');
FILE_SCHEMA(('AUTOMOTIVE_DESIGN { 1 0 10303 214 1 1 1 1 }'));
ENDSEC;
DATA;
#1=PRODUCT_DEFINITION_CONTEXT('',#9,'design');
#2=APPLICATION_PROTOCOL_DEFINITION('INTERNATIONAL STANDARD','automotive_design',1994,#9);
#3=PRODUCT_CATEGORY_RELATIONSHIP('NONE','NONE',#10,#11);
#4=SHAPE_DEFINITION_REPRESENTATION(#12,#13);
#5= (GEOMETRIC_REPRESENTATION_CONTEXT(3)GLOBAL_UNCERTAINTY_ASSIGNED_CONTEXT((#16))GLOBAL_UNIT_ASSIGNED_CONTEXT((#18,#19,#20))REPRESENTATION_CONTEXT('NONE','WORKSPACE'));
#9=APPLICATION_CONTEXT(' ');
#10=PRODUCT_CATEGORY('part','NONE');
#11=PRODUCT_RELATED_PRODUCT_CATEGORY('detail',' ',(#22));
#12=PRODUCT_DEFINITION_SHAPE('NONE','NONE',#23);
#13=MANIFOLD_SURFACE_SHAPE_REPRESENTATION('1',(#24,#25),#5);
#16=UNCERTAINTY_MEASURE_WITH_UNIT(LENGTH_MEASURE(1.0E-06),#18,'','');
#18= (CONVERSION_BASED_UNIT('MILLIMETRE',#28)LENGTH_UNIT()NAMED_UNIT(#31));
#19= (NAMED_UNIT(#33)PLANE_ANGLE_UNIT()SI_UNIT($,.RADIAN.));
#20= (NAMED_UNIT(#33)SOLID_ANGLE_UNIT()SI_UNIT($,.STERADIAN.));
#22=PRODUCT('1','','PART--DESC',(#39));
#23=PRODUCT_DEFINITION('','NONE',#40,#1);
#24=SHELL_BASED_SURFACE_MODEL('1',(#41));
#25=AXIS2_PLACEMENT_3D('',#42,#43,#44);
#28=LENGTH_MEASURE_WITH_UNIT(LENGTH_MEASURE(1.0),#45);
#31=DIMENSIONAL_EXPONENTS(1.0,0.0,0.0,0.0,0.0,0.0,0.0);
#33=DIMENSIONAL_EXPONENTS(0.0,0.0,0.0,0.0,0.0,0.0,0.0);
#39=PRODUCT_CONTEXT('',#9,'mechanical');
#40=PRODUCT_DEFINITION_FORMATION_WITH_SPECIFIED_SOURCE(' ','NONE',#22,.NOT_KNOWN.);
#41=CLOSED_SHELL('',(#46));
#42=CARTESIAN_POINT('',(0.0,0.0,0.0));
#43=DIRECTION('',(0.0,0.0,1.0));
#44=DIRECTION('',(1.0,0.0,0.0));
#45= (NAMED_UNIT(#31)LENGTH_UNIT()SI_UNIT(.MILLI.,.METRE.));
#46=FACE_SURFACE('',(#48),#49,.F.);
#48=FACE_BOUND('',#50,.T.);
#49=CYLINDRICAL_SURFACE('',#51,0.102371328170456);
#50=EDGE_LOOP('',(#52,#53,#54,#55,#56,#57,#58,#59));
#51=AXIS2_PLACEMENT_3D('',#60,#61,#62);
#52=ORIENTED_EDGE('',*,*,#63,.T.);
#53=ORIENTED_EDGE('',*,*,#64,.T.);
#54=ORIENTED_EDGE('',*,*,#65,.T.);
#55=ORIENTED_EDGE('',*,*,#66,.T.);
#56=ORIENTED_EDGE('',*,*,#67,.T.);
#57=ORIENTED_EDGE('',*,*,#68,.T.);
#58=ORIENTED_EDGE('',*,*,#69,.T.);
#59=ORIENTED_EDGE('',*,*,#70,.T.);
#60=CARTESIAN_POINT('',(0.00965976389150718,0.0500054152462593,0.101291135106794));
#61=DIRECTION('',(0.995663781848466,-0.00033905821778842,-0.0930242901329314));
#62=DIRECTION('',(-0.000340534831446499,-0.999999942018013,0.0));
#63=EDGE_CURVE('',#71,#72,#73,.T.);
#64=EDGE_CURVE('',#72,#74,#75,.T.);
#65=EDGE_CURVE('',#74,#76,#77,.T.);
#66=EDGE_CURVE('',#76,#78,#79,.T.);
#67=EDGE_CURVE('',#78,#80,#81,.T.);
#68=EDGE_CURVE('',#80,#82,#83,.T.);
#69=EDGE_CURVE('',#82,#84,#85,.T.);
#70=EDGE_CURVE('',#84,#71,#86,.T.);
#71=VERTEX_POINT('',#87);
#72=VERTEX_POINT('',#88);
#73=LINE('',#89,#90);
#74=VERTEX_POINT('',#91);
#75=LINE('',#92,#93);
#76=VERTEX_POINT('',#94);
#77=LINE('',#95,#96);
#78=VERTEX_POINT('',#97);
#79=LINE('',#98,#99);
#80=VERTEX_POINT('',#100);
#81=CIRCLE('',#101,6.81594087219341);
#82=VERTEX_POINT('',#102);
#83=LINE('',#103,#104);
#84=VERTEX_POINT('',#105);
#85=CIRCLE('',#106,6.84918232608307);
#86=LINE('',#107,#108);
#87=CARTESIAN_POINT('',(1.5265996466951E-08,0.0901734605431557,1.22747326258832E-06));
#88=CARTESIAN_POINT('',(-1.23861100291833E-05,0.040043517947197,-0.000898175989277661));
#89=CARTESIAN_POINT('',(-6.18542201635819E-06,0.0651084892451763,-0.000448474258007536));
#90=VECTOR('',#109,1.0);
#91=CARTESIAN_POINT('',(-1.44824134622468E-05,0.0300145167857409,-0.00114161905366927));
#92=CARTESIAN_POINT('',(-1.3434261745715E-05,0.0350290173664689,-0.00101989752147347));
#93=VECTOR('',#110,1.0);
#94=CARTESIAN_POINT('',(-1.80791801085434E-06,0.00988882128149271,-0.000187597383046523));
#95=CARTESIAN_POINT('',(-8.14516573655055E-06,0.0199516690336168,-0.000664608218357898));
#96=VECTOR('',#111,1.0);
#97=CARTESIAN_POINT('',(3.50941581928055E-06,-0.00021417293464765,0.000233483951888047));
#98=CARTESIAN_POINT('',(8.50748904213106E-07,0.00483732417342253,2.29432844207622E-05));
#99=VECTOR('',#112,1.0);
#100=CARTESIAN_POINT('',(0.995941877365112,-0.000216189335333183,-0.0928056463599205));
#101=AXIS2_PLACEMENT_3D('',#113,#114,#115);
#102=CARTESIAN_POINT('',(0.995992660522461,0.100217513740063,-0.0925002619624138));
#103=CARTESIAN_POINT('',(0.995967268943787,0.0500006622023648,-0.0926529541611671));
#104=VECTOR('',#116,1.0);
#105=CARTESIAN_POINT('',(4.58644626633031E-06,0.100197412073612,0.000294779048999771));
#106=AXIS2_PLACEMENT_3D('',#117,#118,#119);
#107=CARTESIAN_POINT('',(2.30085613139863E-06,0.0951854363083839,0.00014800326113118));
#108=VECTOR('',#120,1.0);
#109=DIRECTION('',(-0.000247344784033275,-0.99983906059334,-0.0179385543560639));
#110=DIRECTION('',(-0.000208962590751306,-0.999705496967673,-0.0242667605430425));
#111=DIRECTION('',(0.000629060333415271,-0.998878162264509,0.0473499866333079));
#112=DIRECTION('',(0.000525856052781061,-0.99913242792106,0.0416427058676614));
#113=CARTESIAN_POINT('',(-0.133059505704681,0.00841681709703489,-6.81436392807454));
#114=DIRECTION('',(0.000121114829969946,0.999999187740625,0.00126879836391339));
#115=DIRECTION('',(0.0,-0.00126879837321927,0.99999919507502));
#116=DIRECTION('',(0.000409529620600836,0.999996340429157,0.00267421274100829));
#117=CARTESIAN_POINT('',(-0.135435347345831,0.0866210285684115,-6.84751928208995));
#118=DIRECTION('',(0.000203159297305793,-0.999998010947189,0.00198414413946947));
#119=DIRECTION('',(-5.14550767698509E-23,0.00198414418041595,0.999998031583998));
#120=DIRECTION('',(-0.000455830307173688,-0.999571365703052,-0.0292724629176788));
ENDSEC;
END-ISO-10303-21;
