ISO-10303-21;
HEADER;
FILE_DESCRIPTION(('STEP AP214'),'1');
FILE_NAME('SMAStripDeformed_07.stp','2026-07-10T18:08:55',(' '),(' '),'Spatial InterOp 3D',' ',' ');
FILE_SCHEMA(('AUTOMOTIVE_DESIGN { 1 0 10303 214 1 1 1 1 }'));
ENDSEC;
DATA;
#1=PRODUCT_DEFINITION_CONTEXT('',#9,'design');
#2=APPLICATION_PROTOCOL_DEFINITION('INTERNATIONAL STANDARD','automotive_design',1994,#9);
#3=PRODUCT_CATEGORY_RELATIONSHIP('NONE','NONE',#10,#11);
#4=SHAPE_DEFINITION_REPRESENTATION(#12,#13);
#5= (GEOMETRIC_REPRESENTATION_CONTEXT(3)GLOBAL_UNCERTAINTY_ASSIGNED_CONTEXT((#16))GLOBAL_UNIT_ASSIGNED_CONTEXT((#18,#19,#20))REPRESENTATION_CONTEXT('NONE','WORKSPACE'));
#9=APPLICATION_CONTEXT(' ');
#10=PRODUCT_CATEGORY('part','NONE');
#11=PRODUCT_RELATED_PRODUCT_CATEGORY('detail',' ',(#22));
#12=PRODUCT_DEFINITION_SHAPE('NONE','NONE',#23);
#13=MANIFOLD_SURFACE_SHAPE_REPRESENTATION('1',(#24,#25),#5);
#16=UNCERTAINTY_MEASURE_WITH_UNIT(LENGTH_MEASURE(1.0E-06),#18,'','');
#18= (CONVERSION_BASED_UNIT('MILLIMETRE',#28)LENGTH_UNIT()NAMED_UNIT(#31));
#19= (NAMED_UNIT(#33)PLANE_ANGLE_UNIT()SI_UNIT($,.RADIAN.));
#20= (NAMED_UNIT(#33)SOLID_ANGLE_UNIT()SI_UNIT($,.STERADIAN.));
#22=PRODUCT('1','','PART--DESC',(#39));
#23=PRODUCT_DEFINITION('','NONE',#40,#1);
#24=SHELL_BASED_SURFACE_MODEL('1',(#41));
#25=AXIS2_PLACEMENT_3D('',#42,#43,#44);
#28=LENGTH_MEASURE_WITH_UNIT(LENGTH_MEASURE(1.0),#45);
#31=DIMENSIONAL_EXPONENTS(1.0,0.0,0.0,0.0,0.0,0.0,0.0);
#33=DIMENSIONAL_EXPONENTS(0.0,0.0,0.0,0.0,0.0,0.0,0.0);
#39=PRODUCT_CONTEXT('',#9,'mechanical');
#40=PRODUCT_DEFINITION_FORMATION_WITH_SPECIFIED_SOURCE(' ','NONE',#22,.NOT_KNOWN.);
#41=CLOSED_SHELL('',(#46));
#42=CARTESIAN_POINT('',(0.0,0.0,0.0));
#43=DIRECTION('',(0.0,0.0,1.0));
#44=DIRECTION('',(1.0,0.0,0.0));
#45= (NAMED_UNIT(#31)LENGTH_UNIT()SI_UNIT(.MILLI.,.METRE.));
#46=FACE_SURFACE('',(#48),#49,.F.);
#48=FACE_BOUND('',#50,.T.);
#49=CYLINDRICAL_SURFACE('',#51,0.10478934670491);
#50=EDGE_LOOP('',(#52,#53,#54,#55,#56,#57));
#51=AXIS2_PLACEMENT_3D('',#58,#59,#60);
#52=ORIENTED_EDGE('',*,*,#61,.T.);
#53=ORIENTED_EDGE('',*,*,#62,.T.);
#54=ORIENTED_EDGE('',*,*,#63,.T.);
#55=ORIENTED_EDGE('',*,*,#64,.T.);
#56=ORIENTED_EDGE('',*,*,#65,.T.);
#57=ORIENTED_EDGE('',*,*,#66,.T.);
#58=CARTESIAN_POINT('',(0.00922990026616725,0.0506932983814882,0.104020956297841));
#59=DIRECTION('',(0.996145745159884,-0.00140974089686512,-0.0877021495201992));
#60=DIRECTION('',(-0.00141519400350588,-0.999998998612465,0.0));
#61=EDGE_CURVE('',#67,#68,#69,.T.);
#62=EDGE_CURVE('',#68,#70,#71,.T.);
#63=EDGE_CURVE('',#70,#72,#73,.T.);
#64=EDGE_CURVE('',#72,#74,#75,.T.);
#65=EDGE_CURVE('',#74,#76,#77,.T.);
#66=EDGE_CURVE('',#76,#67,#78,.T.);
#67=VERTEX_POINT('',#79);
#68=VERTEX_POINT('',#80);
#69=CIRCLE('',#81,7.13241044655264);
#70=VERTEX_POINT('',#82);
#71=LINE('',#83,#84);
#72=VERTEX_POINT('',#85);
#73=LINE('',#86,#87);
#74=VERTEX_POINT('',#88);
#75=LINE('',#89,#90);
#76=VERTEX_POINT('',#91);
#77=CIRCLE('',#92,7.10205180468652);
#78=LINE('',#93,#94);
#79=CARTESIAN_POINT('',(0.996399164199829,0.100165084004402,-0.0868691429495811));
#80=CARTESIAN_POINT('',(2.48265268965042E-06,0.100147351622581,0.000180173417902552));
#81=AXIS2_PLACEMENT_3D('',#95,#96,#97);
#82=CARTESIAN_POINT('',(3.7238967465214E-09,0.0901268050074577,3.90373372738395E-07));
#83=CARTESIAN_POINT('',(1.24318829319847E-06,0.0951370783150196,9.0281895637645E-05));
#84=VECTOR('',#98,1.0);
#85=CARTESIAN_POINT('',(-3.29683075506182E-06,0.0199785009026527,-0.00034560210769996));
#86=CARTESIAN_POINT('',(-1.64655342915765E-06,0.0550526529550552,-0.000172605867163611));
#87=VECTOR('',#99,1.0);
#88=CARTESIAN_POINT('',(4.7984817683755E-06,-0.000113472306111362,0.000218420740566216));
#89=CARTESIAN_POINT('',(7.50825506656838E-07,0.00993251429827069,-6.3590683566872E-05));
#90=VECTOR('',#100,1.0);
#91=CARTESIAN_POINT('',(0.996383547782898,-0.000129808933706954,-0.0869837254285812));
#92=AXIS2_PLACEMENT_3D('',#101,#102,#103);
#93=CARTESIAN_POINT('',(0.996382057666779,0.0500176375353476,-0.0869887359440327));
#94=VECTOR('',#104,1.0);
#95=CARTESIAN_POINT('',(-0.121367923794857,0.0850673670578783,-7.13107849397681));
#96=DIRECTION('',(0.00022466490380639,-0.99999773909895,0.00211455022860494));
#97=DIRECTION('',(-1.092846480952E-22,0.00211455028197019,0.999997764336053));
#98=DIRECTION('',(-0.000247344773774859,-0.999839060610847,-0.0179385533804262));
#99=DIRECTION('',(-4.70505206297153E-05,-0.999987835324998,-0.00493223968130862));
#100=DIRECTION('',(0.000402754072600826,-0.999606131695144,0.0280609919038266));
#101=CARTESIAN_POINT('',(-0.119084572289229,0.0175991497026097,-7.10080516832763));
#102=DIRECTION('',(0.000196023790657589,0.99999685570812,0.00250002970916263));
#103=DIRECTION('',(0.0,0.00250002975719486,-0.999996874920724));
#104=DIRECTION('',(0.000307570024387239,0.999997751940425,0.00209797873588448));
ENDSEC;
END-ISO-10303-21;
