ISO-10303-21;
HEADER;
FILE_DESCRIPTION(('STEP AP214'),'1');
FILE_NAME('SMAStripDeformed_02.stp','2026-07-10T18:02:02',(' '),(' '),'Spatial InterOp 3D',' ',' ');
FILE_SCHEMA(('AUTOMOTIVE_DESIGN { 1 0 10303 214 1 1 1 1 }'));
ENDSEC;
DATA;
#1=PRODUCT_DEFINITION_CONTEXT('',#9,'design');
#2=APPLICATION_PROTOCOL_DEFINITION('INTERNATIONAL STANDARD','automotive_design',1994,#9);
#3=PRODUCT_CATEGORY_RELATIONSHIP('NONE','NONE',#10,#11);
#4=SHAPE_DEFINITION_REPRESENTATION(#12,#13);
#5= (GEOMETRIC_REPRESENTATION_CONTEXT(3)GLOBAL_UNCERTAINTY_ASSIGNED_CONTEXT((#16))GLOBAL_UNIT_ASSIGNED_CONTEXT((#18,#19,#20))REPRESENTATION_CONTEXT('NONE','WORKSPACE'));
#9=APPLICATION_CONTEXT(' ');
#10=PRODUCT_CATEGORY('part','NONE');
#11=PRODUCT_RELATED_PRODUCT_CATEGORY('detail',' ',(#22));
#12=PRODUCT_DEFINITION_SHAPE('NONE','NONE',#23);
#13=MANIFOLD_SURFACE_SHAPE_REPRESENTATION('1',(#24,#25),#5);
#16=UNCERTAINTY_MEASURE_WITH_UNIT(LENGTH_MEASURE(1.0E-06),#18,'','');
#18= (CONVERSION_BASED_UNIT('MILLIMETRE',#28)LENGTH_UNIT()NAMED_UNIT(#31));
#19= (NAMED_UNIT(#33)PLANE_ANGLE_UNIT()SI_UNIT($,.RADIAN.));
#20= (NAMED_UNIT(#33)SOLID_ANGLE_UNIT()SI_UNIT($,.STERADIAN.));
#22=PRODUCT('1','','PART--DESC',(#39));
#23=PRODUCT_DEFINITION('','NONE',#40,#1);
#24=SHELL_BASED_SURFACE_MODEL('1',(#41));
#25=AXIS2_PLACEMENT_3D('',#42,#43,#44);
#28=LENGTH_MEASURE_WITH_UNIT(LENGTH_MEASURE(1.0),#45);
#31=DIMENSIONAL_EXPONENTS(1.0,0.0,0.0,0.0,0.0,0.0,0.0);
#33=DIMENSIONAL_EXPONENTS(0.0,0.0,0.0,0.0,0.0,0.0,0.0);
#39=PRODUCT_CONTEXT('',#9,'mechanical');
#40=PRODUCT_DEFINITION_FORMATION_WITH_SPECIFIED_SOURCE(' ','NONE',#22,.NOT_KNOWN.);
#41=CLOSED_SHELL('',(#46));
#42=CARTESIAN_POINT('',(0.0,0.0,0.0));
#43=DIRECTION('',(0.0,0.0,1.0));
#44=DIRECTION('',(1.0,0.0,0.0));
#45= (NAMED_UNIT(#31)LENGTH_UNIT()SI_UNIT(.MILLI.,.METRE.));
#46=FACE_SURFACE('',(#48),#49,.F.);
#48=FACE_BOUND('',#50,.T.);
#49=CYLINDRICAL_SURFACE('',#51,0.157697336891702);
#50=EDGE_LOOP('',(#52,#53,#54,#55,#56));
#51=AXIS2_PLACEMENT_3D('',#57,#58,#59);
#52=ORIENTED_EDGE('',*,*,#60,.T.);
#53=ORIENTED_EDGE('',*,*,#61,.T.);
#54=ORIENTED_EDGE('',*,*,#62,.T.);
#55=ORIENTED_EDGE('',*,*,#63,.T.);
#56=ORIENTED_EDGE('',*,*,#64,.T.);
#57=CARTESIAN_POINT('',(0.0101428787197847,0.0501533313058797,0.157028609908357));
#58=DIRECTION('',(0.997926644178376,-0.000306140948092073,-0.064360850807031));
#59=DIRECTION('',(-0.000306776991547651,-0.999999952943938,-2.76558943715389E-21));
#60=EDGE_CURVE('',#65,#66,#67,.T.);
#61=EDGE_CURVE('',#66,#68,#69,.T.);
#62=EDGE_CURVE('',#68,#70,#71,.T.);
#63=EDGE_CURVE('',#70,#72,#73,.T.);
#64=EDGE_CURVE('',#72,#65,#74,.T.);
#65=VERTEX_POINT('',#75);
#66=VERTEX_POINT('',#76);
#67=CIRCLE('',#77,8.76176207019213);
#68=VERTEX_POINT('',#78);
#69=LINE('',#79,#80);
#70=VERTEX_POINT('',#81);
#71=LINE('',#82,#83);
#72=VERTEX_POINT('',#84);
#73=CIRCLE('',#85,8.76081615056692);
#74=LINE('',#86,#87);
#75=CARTESIAN_POINT('',(0.99778801202774,0.10001066327095,-0.0644601359963417));
#76=CARTESIAN_POINT('',(-2.80248258269495E-38,0.10000366717577,-0.0));
#77=AXIS2_PLACEMENT_3D('',#88,#89,#90);
#78=CARTESIAN_POINT('',(-1.02625191204409E-34,0.010000366717577,1.87200474371371E-35));
#79=CARTESIAN_POINT('',(3.00931662159979E-35,0.0550020169466734,-9.5914714102959E-37));
#80=VECTOR('',#91,1.0);
#81=CARTESIAN_POINT('',(-2.04034602546699E-08,-3.66849280908355E-06,-1.78030677489005E-05));
#82=CARTESIAN_POINT('',(-1.02017301273349E-08,0.00499834911238395,-8.90153387445025E-06));
#83=VECTOR('',#92,1.0);
#84=CARTESIAN_POINT('',(0.997787714004517,-1.07615442175302E-05,-0.064463883638382));
#85=AXIS2_PLACEMENT_3D('',#93,#94,#95);
#86=CARTESIAN_POINT('',(0.997795075178146,0.0499999508633664,-0.0643942020833492));
#87=VECTOR('',#96,1.0);
#88=CARTESIAN_POINT('',(-0.0661356089945829,0.0872845482303257,-8.761205156045));
#89=DIRECTION('',(9.60608774396744E-05,-0.999998938066352,0.00145417965724982));
#90=DIRECTION('',(0.0,-0.00145417966395918,-0.999998942680194));
#91=DIRECTION('',(-0.0,-1.0,-0.0));
#92=DIRECTION('',(-2.03951980549776E-06,-0.999998416533758,-0.00177958585550167));
#93=CARTESIAN_POINT('',(-0.0626930097655976,0.012717363152065,-8.76047909197495));
#94=DIRECTION('',(9.62084935008716E-05,0.999998937509847,0.00145455254416105));
#95=DIRECTION('',(-1.90501808731055E-23,-0.00145455255089278,0.999998942137879));
#96=DIRECTION('',(8.18169824133574E-07,0.99999999985795,1.68354214779565E-05));
ENDSEC;
END-ISO-10303-21;
