ISO-10303-21;
HEADER;
FILE_DESCRIPTION(('STEP AP214'),'1');
FILE_NAME('SMAStripDeformed_04.stp','2026-07-10T18:02:47',(' '),(' '),'Spatial InterOp 3D',' ',' ');
FILE_SCHEMA(('AUTOMOTIVE_DESIGN { 1 0 10303 214 1 1 1 1 }'));
ENDSEC;
DATA;
#1=PRODUCT_DEFINITION_CONTEXT('',#9,'design');
#2=APPLICATION_PROTOCOL_DEFINITION('INTERNATIONAL STANDARD','automotive_design',1994,#9);
#3=PRODUCT_CATEGORY_RELATIONSHIP('NONE','NONE',#10,#11);
#4=SHAPE_DEFINITION_REPRESENTATION(#12,#13);
#5= (GEOMETRIC_REPRESENTATION_CONTEXT(3)GLOBAL_UNCERTAINTY_ASSIGNED_CONTEXT((#16))GLOBAL_UNIT_ASSIGNED_CONTEXT((#18,#19,#20))REPRESENTATION_CONTEXT('NONE','WORKSPACE'));
#9=APPLICATION_CONTEXT(' ');
#10=PRODUCT_CATEGORY('part','NONE');
#11=PRODUCT_RELATED_PRODUCT_CATEGORY('detail',' ',(#22));
#12=PRODUCT_DEFINITION_SHAPE('NONE','NONE',#23);
#13=MANIFOLD_SURFACE_SHAPE_REPRESENTATION('1',(#24,#25),#5);
#16=UNCERTAINTY_MEASURE_WITH_UNIT(LENGTH_MEASURE(1.0E-06),#18,'','');
#18= (CONVERSION_BASED_UNIT('MILLIMETRE',#28)LENGTH_UNIT()NAMED_UNIT(#31));
#19= (NAMED_UNIT(#33)PLANE_ANGLE_UNIT()SI_UNIT($,.RADIAN.));
#20= (NAMED_UNIT(#33)SOLID_ANGLE_UNIT()SI_UNIT($,.STERADIAN.));
#22=PRODUCT('1','','PART--DESC',(#39));
#23=PRODUCT_DEFINITION('','NONE',#40,#1);
#24=SHELL_BASED_SURFACE_MODEL('1',(#41));
#25=AXIS2_PLACEMENT_3D('',#42,#43,#44);
#28=LENGTH_MEASURE_WITH_UNIT(LENGTH_MEASURE(1.0),#45);
#31=DIMENSIONAL_EXPONENTS(1.0,0.0,0.0,0.0,0.0,0.0,0.0);
#33=DIMENSIONAL_EXPONENTS(0.0,0.0,0.0,0.0,0.0,0.0,0.0);
#39=PRODUCT_CONTEXT('',#9,'mechanical');
#40=PRODUCT_DEFINITION_FORMATION_WITH_SPECIFIED_SOURCE(' ','NONE',#22,.NOT_KNOWN.);
#41=CLOSED_SHELL('',(#46));
#42=CARTESIAN_POINT('',(0.0,0.0,0.0));
#43=DIRECTION('',(0.0,0.0,1.0));
#44=DIRECTION('',(1.0,0.0,0.0));
#45= (NAMED_UNIT(#31)LENGTH_UNIT()SI_UNIT(.MILLI.,.METRE.));
#46=FACE_SURFACE('',(#48),#49,.F.);
#48=FACE_BOUND('',#50,.T.);
#49=CONICAL_SURFACE('',#51,0.118743466888086,0.00367376566964522);
#50=EDGE_LOOP('',(#52,#53,#54,#55,#56,#57));
#51=AXIS2_PLACEMENT_3D('',#58,#59,#60);
#52=ORIENTED_EDGE('',*,*,#61,.T.);
#53=ORIENTED_EDGE('',*,*,#62,.T.);
#54=ORIENTED_EDGE('',*,*,#63,.T.);
#55=ORIENTED_EDGE('',*,*,#64,.T.);
#56=ORIENTED_EDGE('',*,*,#65,.T.);
#57=ORIENTED_EDGE('',*,*,#66,.T.);
#58=CARTESIAN_POINT('',(0.00988328425453688,0.0499503735187697,0.118273301925007));
#59=DIRECTION('',(0.997414313469848,8.91099137355048E-05,-0.0718657035371831));
#60=DIRECTION('',(8.93409209958864E-05,-0.9999999960091,1.02527945779072E-21));
#61=EDGE_CURVE('',#67,#68,#69,.T.);
#62=EDGE_CURVE('',#68,#70,#71,.T.);
#63=EDGE_CURVE('',#70,#72,#73,.T.);
#64=EDGE_CURVE('',#72,#74,#75,.T.);
#65=EDGE_CURVE('',#74,#76,#77,.T.);
#66=EDGE_CURVE('',#76,#67,#78,.T.);
#67=VERTEX_POINT('',#79);
#68=VERTEX_POINT('',#80);
#69=LINE('',#81,#82);
#70=VERTEX_POINT('',#83);
#71=LINE('',#84,#85);
#72=VERTEX_POINT('',#86);
#73=CIRCLE('',#87,7.83957872125815);
#74=VERTEX_POINT('',#88);
#75=LINE('',#89,#90);
#76=VERTEX_POINT('',#91);
#77=CIRCLE('',#92,7.85367654703414);
#78=LINE('',#93,#94);
#79=CARTESIAN_POINT('',(2.29635411481111E-36,0.0900476649403572,1.93992383729179E-35));
#80=CARTESIAN_POINT('',(-6.89119673050772E-35,0.00997737608850002,-3.26579450828391E-35));
#81=CARTESIAN_POINT('',(8.81821538470191E-35,0.0500125205144286,3.13019667184034E-35));
#82=VECTOR('',#95,1.0);
#83=CARTESIAN_POINT('',(-6.15050552710272E-08,-6.33398158242926E-05,8.82011045177933E-06));
#84=CARTESIAN_POINT('',(-3.07525276355136E-08,0.00495701813633787,4.41005522588966E-06));
#85=VECTOR('',#96,1.0);
#86=CARTESIAN_POINT('',(0.997119724750519,-6.23165469733067E-05,-0.0757828950881958));
#87=AXIS2_PLACEMENT_3D('',#97,#98,#99);
#88=CARTESIAN_POINT('',(0.997181296348572,0.100071504712105,-0.0753441229462624));
#89=CARTESIAN_POINT('',(0.997150510549545,0.0500045940825657,-0.0755635090172291));
#90=VECTOR('',#100,1.0);
#91=CARTESIAN_POINT('',(4.70924135242967E-07,0.100056447088718,4.93663137604017E-05));
#92=AXIS2_PLACEMENT_3D('',#101,#102,#103);
#93=CARTESIAN_POINT('',(2.35462067621484E-07,0.0950520560145378,2.46831568802008E-05));
#94=VECTOR('',#104,1.0);
#95=DIRECTION('',(-0.0,-1.0,-0.0));
#96=DIRECTION('',(-6.12556237282857E-06,-0.999999614157947,0.000878434081061011));
#97=CARTESIAN_POINT('',(-0.0904175633098868,0.0115988418387393,-7.83902336298065));
#98=DIRECTION('',(0.00010961816217092,0.999998882504081,0.00149096426767617));
#99=DIRECTION('',(2.42560481975502E-23,0.00149096427663399,-0.999998888512145));
#100=DIRECTION('',(0.000279972387200213,0.999997912929748,0.00202379633639316));
#101=CARTESIAN_POINT('',(-0.0912205049424135,0.0846442480566221,-7.85309310417061));
#102=DIRECTION('',(0.000162836440558225,-0.999998055914347,0.00196510860261933));
#103=DIRECTION('',(0.0,0.00196510862867245,0.999998069172175));
#104=DIRECTION('',(-4.70505201954906E-05,-0.999987835324623,-0.00493223975739177));
ENDSEC;
END-ISO-10303-21;
