ISO-10303-21;
HEADER;
FILE_DESCRIPTION(('STEP AP214'),'1');
FILE_NAME('SMAStripDeformed_06.stp','2026-07-10T18:08:32',(' '),(' '),'Spatial InterOp 3D',' ',' ');
FILE_SCHEMA(('AUTOMOTIVE_DESIGN { 1 0 10303 214 1 1 1 1 }'));
ENDSEC;
DATA;
#1=PRODUCT_DEFINITION_CONTEXT('',#9,'design');
#2=APPLICATION_PROTOCOL_DEFINITION('INTERNATIONAL STANDARD','automotive_design',1994,#9);
#3=PRODUCT_CATEGORY_RELATIONSHIP('NONE','NONE',#10,#11);
#4=SHAPE_DEFINITION_REPRESENTATION(#12,#13);
#5= (GEOMETRIC_REPRESENTATION_CONTEXT(3)GLOBAL_UNCERTAINTY_ASSIGNED_CONTEXT((#16))GLOBAL_UNIT_ASSIGNED_CONTEXT((#18,#19,#20))REPRESENTATION_CONTEXT('NONE','WORKSPACE'));
#9=APPLICATION_CONTEXT(' ');
#10=PRODUCT_CATEGORY('part','NONE');
#11=PRODUCT_RELATED_PRODUCT_CATEGORY('detail',' ',(#22));
#12=PRODUCT_DEFINITION_SHAPE('NONE','NONE',#23);
#13=MANIFOLD_SURFACE_SHAPE_REPRESENTATION('1',(#24,#25),#5);
#16=UNCERTAINTY_MEASURE_WITH_UNIT(LENGTH_MEASURE(1.0E-06),#18,'','');
#18= (CONVERSION_BASED_UNIT('MILLIMETRE',#28)LENGTH_UNIT()NAMED_UNIT(#31));
#19= (NAMED_UNIT(#33)PLANE_ANGLE_UNIT()SI_UNIT($,.RADIAN.));
#20= (NAMED_UNIT(#33)SOLID_ANGLE_UNIT()SI_UNIT($,.STERADIAN.));
#22=PRODUCT('1','','PART--DESC',(#39));
#23=PRODUCT_DEFINITION('','NONE',#40,#1);
#24=SHELL_BASED_SURFACE_MODEL('1',(#41));
#25=AXIS2_PLACEMENT_3D('',#42,#43,#44);
#28=LENGTH_MEASURE_WITH_UNIT(LENGTH_MEASURE(1.0),#45);
#31=DIMENSIONAL_EXPONENTS(1.0,0.0,0.0,0.0,0.0,0.0,0.0);
#33=DIMENSIONAL_EXPONENTS(0.0,0.0,0.0,0.0,0.0,0.0,0.0);
#39=PRODUCT_CONTEXT('',#9,'mechanical');
#40=PRODUCT_DEFINITION_FORMATION_WITH_SPECIFIED_SOURCE(' ','NONE',#22,.NOT_KNOWN.);
#41=CLOSED_SHELL('',(#46));
#42=CARTESIAN_POINT('',(0.0,0.0,0.0));
#43=DIRECTION('',(0.0,0.0,1.0));
#44=DIRECTION('',(1.0,0.0,0.0));
#45= (NAMED_UNIT(#31)LENGTH_UNIT()SI_UNIT(.MILLI.,.METRE.));
#46=FACE_SURFACE('',(#48),#49,.F.);
#48=FACE_BOUND('',#50,.T.);
#49=CYLINDRICAL_SURFACE('',#51,0.108417488082264);
#50=EDGE_LOOP('',(#52,#53,#54,#55,#56));
#51=AXIS2_PLACEMENT_3D('',#57,#58,#59);
#52=ORIENTED_EDGE('',*,*,#60,.T.);
#53=ORIENTED_EDGE('',*,*,#61,.T.);
#54=ORIENTED_EDGE('',*,*,#62,.T.);
#55=ORIENTED_EDGE('',*,*,#63,.T.);
#56=ORIENTED_EDGE('',*,*,#64,.T.);
#57=CARTESIAN_POINT('',(0.00902043024963614,0.0500305636310385,0.107432212616669));
#58=DIRECTION('',(-0.996497179460073,9.33815715154478E-05,0.0836263272420879));
#59=DIRECTION('',(9.37098197869739E-05,0.999999995609235,1.30669425541701E-21));
#60=EDGE_CURVE('',#65,#66,#67,.T.);
#61=EDGE_CURVE('',#66,#68,#69,.T.);
#62=EDGE_CURVE('',#68,#70,#71,.T.);
#63=EDGE_CURVE('',#70,#72,#73,.T.);
#64=EDGE_CURVE('',#72,#65,#74,.T.);
#65=VERTEX_POINT('',#75);
#66=VERTEX_POINT('',#76);
#67=CIRCLE('',#77,7.31382742465537);
#68=VERTEX_POINT('',#78);
#69=LINE('',#79,#80);
#70=VERTEX_POINT('',#81);
#71=LINE('',#82,#83);
#72=VERTEX_POINT('',#84);
#73=CIRCLE('',#85,7.2784155129162);
#74=LINE('',#86,#87);
#75=CARTESIAN_POINT('',(0.996627390384674,0.100161395967007,-0.0836459472775459));
#76=CARTESIAN_POINT('',(4.74058992949722E-07,0.100123070180416,4.96949323860463E-05));
#77=AXIS2_PLACEMENT_3D('',#88,#89,#90);
#78=CARTESIAN_POINT('',(-3.76833850168623E-06,0.00995731353759766,-0.000395029608625919));
#79=CARTESIAN_POINT('',(-1.64713975436825E-06,0.0550401918590069,-0.000172667338119936));
#80=VECTOR('',#91,1.0);
#81=CARTESIAN_POINT('',(4.7984817683755E-06,-0.000113472306111362,0.000218420740566216));
#82=CARTESIAN_POINT('',(5.15071633344633E-07,0.00492192061574315,-8.83044340298511E-05));
#83=VECTOR('',#92,1.0);
#84=CARTESIAN_POINT('',(0.996594190597534,-9.38775483518839E-05,-0.0838749408721924));
#85=AXIS2_PLACEMENT_3D('',#93,#94,#95);
#86=CARTESIAN_POINT('',(0.996603310108185,0.0500337592093274,-0.083811029791832));
#87=VECTOR('',#96,1.0);
#88=CARTESIAN_POINT('',(-0.112810138536825,0.0855703342832048,-7.3127626282705));
#89=DIRECTION('',(0.000206531452857874,-0.999997998366477,0.00199012758365207));
#90=DIRECTION('',(0.0,0.00199012762609676,0.999998019694055));
#91=DIRECTION('',(-4.70505206952315E-05,-0.999987835324317,-0.00493223981925998));
#92=DIRECTION('',(0.000849086439957973,-0.998149538574647,0.0608011323532497));
#93=CARTESIAN_POINT('',(-0.111460361048205,0.0151081012943624,-7.27733387044653));
#94=DIRECTION('',(0.000153465988554861,0.999997794367356,0.00209468580326289));
#95=DIRECTION('',(7.31535737792582E-23,0.00209468582792971,-0.999997806143235));
#96=DIRECTION('',(0.00041132502893841,0.999995996394743,0.00279964394274448));
ENDSEC;
END-ISO-10303-21;
