ISO-10303-21;
HEADER;
FILE_DESCRIPTION(('STEP AP214'),'1');
FILE_NAME('SMAStripDeformed_03.stp','2026-07-10T18:02:25',(' '),(' '),'Spatial InterOp 3D',' ',' ');
FILE_SCHEMA(('AUTOMOTIVE_DESIGN { 1 0 10303 214 1 1 1 1 }'));
ENDSEC;
DATA;
#1=PRODUCT_DEFINITION_CONTEXT('',#9,'design');
#2=APPLICATION_PROTOCOL_DEFINITION('INTERNATIONAL STANDARD','automotive_design',1994,#9);
#3=PRODUCT_CATEGORY_RELATIONSHIP('NONE','NONE',#10,#11);
#4=SHAPE_DEFINITION_REPRESENTATION(#12,#13);
#5= (GEOMETRIC_REPRESENTATION_CONTEXT(3)GLOBAL_UNCERTAINTY_ASSIGNED_CONTEXT((#16))GLOBAL_UNIT_ASSIGNED_CONTEXT((#18,#19,#20))REPRESENTATION_CONTEXT('NONE','WORKSPACE'));
#9=APPLICATION_CONTEXT(' ');
#10=PRODUCT_CATEGORY('part','NONE');
#11=PRODUCT_RELATED_PRODUCT_CATEGORY('detail',' ',(#22));
#12=PRODUCT_DEFINITION_SHAPE('NONE','NONE',#23);
#13=MANIFOLD_SURFACE_SHAPE_REPRESENTATION('1',(#24,#25),#5);
#16=UNCERTAINTY_MEASURE_WITH_UNIT(LENGTH_MEASURE(1.0E-06),#18,'','');
#18= (CONVERSION_BASED_UNIT('MILLIMETRE',#28)LENGTH_UNIT()NAMED_UNIT(#31));
#19= (NAMED_UNIT(#33)PLANE_ANGLE_UNIT()SI_UNIT($,.RADIAN.));
#20= (NAMED_UNIT(#33)SOLID_ANGLE_UNIT()SI_UNIT($,.STERADIAN.));
#22=PRODUCT('1','','PART--DESC',(#39));
#23=PRODUCT_DEFINITION('','NONE',#40,#1);
#24=SHELL_BASED_SURFACE_MODEL('1',(#41));
#25=AXIS2_PLACEMENT_3D('',#42,#43,#44);
#28=LENGTH_MEASURE_WITH_UNIT(LENGTH_MEASURE(1.0),#45);
#31=DIMENSIONAL_EXPONENTS(1.0,0.0,0.0,0.0,0.0,0.0,0.0);
#33=DIMENSIONAL_EXPONENTS(0.0,0.0,0.0,0.0,0.0,0.0,0.0);
#39=PRODUCT_CONTEXT('',#9,'mechanical');
#40=PRODUCT_DEFINITION_FORMATION_WITH_SPECIFIED_SOURCE(' ','NONE',#22,.NOT_KNOWN.);
#41=CLOSED_SHELL('',(#46));
#42=CARTESIAN_POINT('',(0.0,0.0,0.0));
#43=DIRECTION('',(0.0,0.0,1.0));
#44=DIRECTION('',(1.0,0.0,0.0));
#45= (NAMED_UNIT(#31)LENGTH_UNIT()SI_UNIT(.MILLI.,.METRE.));
#46=FACE_SURFACE('',(#48),#49,.F.);
#48=FACE_BOUND('',#50,.T.);
#49=CYLINDRICAL_SURFACE('',#51,0.125173776280521);
#50=EDGE_LOOP('',(#52,#53,#54,#55,#56));
#51=AXIS2_PLACEMENT_3D('',#57,#58,#59);
#52=ORIENTED_EDGE('',*,*,#60,.T.);
#53=ORIENTED_EDGE('',*,*,#61,.T.);
#54=ORIENTED_EDGE('',*,*,#62,.T.);
#55=ORIENTED_EDGE('',*,*,#63,.T.);
#56=ORIENTED_EDGE('',*,*,#64,.T.);
#57=CARTESIAN_POINT('',(0.0088212084575637,0.0496091934014286,0.124384231044655));
#58=DIRECTION('',(0.997472268264105,0.000784148837414358,-0.0710525098406933));
#59=DIRECTION('',(0.000786135735355626,-0.999999690995255,-7.69283389649316E-21));
#60=EDGE_CURVE('',#65,#66,#67,.T.);
#61=EDGE_CURVE('',#66,#68,#69,.T.);
#62=EDGE_CURVE('',#68,#70,#71,.T.);
#63=EDGE_CURVE('',#70,#72,#73,.T.);
#64=EDGE_CURVE('',#72,#65,#74,.T.);
#65=VERTEX_POINT('',#75);
#66=VERTEX_POINT('',#76);
#67=LINE('',#77,#78);
#68=VERTEX_POINT('',#79);
#69=LINE('',#80,#81);
#70=VERTEX_POINT('',#82);
#71=CIRCLE('',#83,8.19152510463386);
#72=VERTEX_POINT('',#84);
#73=LINE('',#85,#86);
#74=CIRCLE('',#87,8.1883377118805);
#75=CARTESIAN_POINT('',(-0.0,0.100031711161137,-0.0));
#76=CARTESIAN_POINT('',(-5.51173115094373E-35,0.00999986939132214,-3.06343499249977E-35));
#77=CARTESIAN_POINT('',(9.67300726857385E-35,0.0550157902762294,3.07919152426012E-35));
#78=VECTOR('',#88,1.0);
#79=CARTESIAN_POINT('',(8.45002034566278E-07,-3.14097087539267E-05,0.00010345563350711));
#80=CARTESIAN_POINT('',(4.22501017283139E-07,0.0049842298412841,5.17278167535551E-05));
#81=VECTOR('',#89,1.0);
#82=CARTESIAN_POINT('',(0.997403502464294,-3.94812050217297E-05,-0.0710753947496414));
#83=AXIS2_PLACEMENT_3D('',#90,#91,#92);
#84=CARTESIAN_POINT('',(0.997403740882874,0.100012391805649,-0.0710753425955772));
#85=CARTESIAN_POINT('',(0.997410267591476,0.0499864553003135,-0.0710334368050098));
#86=VECTOR('',#93,1.0);
#87=AXIS2_PLACEMENT_3D('',#94,#95,#96);
#88=DIRECTION('',(-0.0,-1.0,-0.0));
#89=DIRECTION('',(8.42322387526159E-05,-0.999946818572373,0.0103127557868507));
#90=CARTESIAN_POINT('',(-0.0781667817298743,0.0132959826278407,-8.19113243323111));
#91=DIRECTION('',(0.000122015295017398,0.999998664462052,0.00162978108331628));
#92=DIRECTION('',(0.0,-0.00162978109544815,0.999998671905909));
#93=DIRECTION('',(2.05785333926879E-06,0.99999999999786,2.10954214388548E-07));
#94=CARTESIAN_POINT('',(-0.0786964167258604,0.0807947547553684,-8.18788750879719));
#95=DIRECTION('',(0.000166832597058854,-0.999997222860442,0.0023508377841125));
#96=DIRECTION('',(-7.06879547130229E-23,-0.00235083781682807,-0.999997236776962));
ENDSEC;
END-ISO-10303-21;
