ISO-10303-21;
HEADER;
FILE_DESCRIPTION(('STEP AP214'),'1');
FILE_NAME('SMAStripDeformed_08.stp','2026-07-10T18:09:18',(' '),(' '),'Spatial InterOp 3D',' ',' ');
FILE_SCHEMA(('AUTOMOTIVE_DESIGN { 1 0 10303 214 1 1 1 1 }'));
ENDSEC;
DATA;
#1=PRODUCT_DEFINITION_CONTEXT('',#9,'design');
#2=APPLICATION_PROTOCOL_DEFINITION('INTERNATIONAL STANDARD','automotive_design',1994,#9);
#3=PRODUCT_CATEGORY_RELATIONSHIP('NONE','NONE',#10,#11);
#4=SHAPE_DEFINITION_REPRESENTATION(#12,#13);
#5= (GEOMETRIC_REPRESENTATION_CONTEXT(3)GLOBAL_UNCERTAINTY_ASSIGNED_CONTEXT((#16))GLOBAL_UNIT_ASSIGNED_CONTEXT((#18,#19,#20))REPRESENTATION_CONTEXT('NONE','WORKSPACE'));
#9=APPLICATION_CONTEXT(' ');
#10=PRODUCT_CATEGORY('part','NONE');
#11=PRODUCT_RELATED_PRODUCT_CATEGORY('detail',' ',(#22));
#12=PRODUCT_DEFINITION_SHAPE('NONE','NONE',#23);
#13=MANIFOLD_SURFACE_SHAPE_REPRESENTATION('1',(#24,#25),#5);
#16=UNCERTAINTY_MEASURE_WITH_UNIT(LENGTH_MEASURE(1.0E-06),#18,'','');
#18= (CONVERSION_BASED_UNIT('MILLIMETRE',#28)LENGTH_UNIT()NAMED_UNIT(#31));
#19= (NAMED_UNIT(#33)PLANE_ANGLE_UNIT()SI_UNIT($,.RADIAN.));
#20= (NAMED_UNIT(#33)SOLID_ANGLE_UNIT()SI_UNIT($,.STERADIAN.));
#22=PRODUCT('1','','PART--DESC',(#39));
#23=PRODUCT_DEFINITION('','NONE',#40,#1);
#24=SHELL_BASED_SURFACE_MODEL('1',(#41));
#25=AXIS2_PLACEMENT_3D('',#42,#43,#44);
#28=LENGTH_MEASURE_WITH_UNIT(LENGTH_MEASURE(1.0),#45);
#31=DIMENSIONAL_EXPONENTS(1.0,0.0,0.0,0.0,0.0,0.0,0.0);
#33=DIMENSIONAL_EXPONENTS(0.0,0.0,0.0,0.0,0.0,0.0,0.0);
#39=PRODUCT_CONTEXT('',#9,'mechanical');
#40=PRODUCT_DEFINITION_FORMATION_WITH_SPECIFIED_SOURCE(' ','NONE',#22,.NOT_KNOWN.);
#41=CLOSED_SHELL('',(#46));
#42=CARTESIAN_POINT('',(0.0,0.0,0.0));
#43=DIRECTION('',(0.0,0.0,1.0));
#44=DIRECTION('',(1.0,0.0,0.0));
#45= (NAMED_UNIT(#31)LENGTH_UNIT()SI_UNIT(.MILLI.,.METRE.));
#46=FACE_SURFACE('',(#48),#49,.F.);
#48=FACE_BOUND('',#50,.T.);
#49=CYLINDRICAL_SURFACE('',#51,0.104247304707735);
#50=EDGE_LOOP('',(#52,#53,#54,#55,#56));
#51=AXIS2_PLACEMENT_3D('',#57,#58,#59);
#52=ORIENTED_EDGE('',*,*,#60,.T.);
#53=ORIENTED_EDGE('',*,*,#61,.T.);
#54=ORIENTED_EDGE('',*,*,#62,.T.);
#55=ORIENTED_EDGE('',*,*,#63,.T.);
#56=ORIENTED_EDGE('',*,*,#64,.T.);
#57=CARTESIAN_POINT('',(0.008982525757033,0.0502744411371866,0.103366391631208));
#58=DIRECTION('',(0.995904085356104,-0.000782803212732347,-0.0904126096855505));
#59=DIRECTION('',(-0.000786022451782837,-0.999999691084305,0.0));
#60=EDGE_CURVE('',#65,#66,#67,.T.);
#61=EDGE_CURVE('',#66,#68,#69,.T.);
#62=EDGE_CURVE('',#68,#70,#71,.T.);
#63=EDGE_CURVE('',#70,#72,#73,.T.);
#64=EDGE_CURVE('',#72,#65,#74,.T.);
#65=VERTEX_POINT('',#75);
#66=VERTEX_POINT('',#76);
#67=LINE('',#77,#78);
#68=VERTEX_POINT('',#79);
#69=LINE('',#80,#81);
#70=VERTEX_POINT('',#82);
#71=CIRCLE('',#83,6.95337182764242);
#72=VERTEX_POINT('',#84);
#73=LINE('',#85,#86);
#74=CIRCLE('',#87,6.98236141959988);
#75=CARTESIAN_POINT('',(2.4897722141759E-06,0.100176133215427,0.0001806897635106));
#76=CARTESIAN_POINT('',(-1.4866384844936E-05,0.0300175286829472,-0.00107805663719773));
#77=CARTESIAN_POINT('',(-6.18830631538003E-06,0.0650968309491873,-0.000448683436843567));
#78=VECTOR('',#88,1.0);
#79=CARTESIAN_POINT('',(4.91330092700082E-06,-0.000177039080881514,0.000225851035793312));
#80=CARTESIAN_POINT('',(-4.97654195896757E-06,0.0149202448010328,-0.000426102800702211));
#81=VECTOR('',#89,1.0);
#82=CARTESIAN_POINT('',(0.996152639389038,-0.000172645261045545,-0.0900186896324158));
#83=AXIS2_PLACEMENT_3D('',#90,#91,#92);
#84=CARTESIAN_POINT('',(0.99618524312973,0.100151345133781,-0.0898154005408287));
#85=CARTESIAN_POINT('',(0.996169358491898,0.0499893499363679,-0.0899169892072678));
#86=VECTOR('',#93,1.0);
#87=AXIS2_PLACEMENT_3D('',#94,#95,#96);
#88=DIRECTION('',(-0.000247344771728652,-0.999839060615778,-0.0179385531055901));
#89=DIRECTION('',(0.000629060373992048,-0.998878162246272,0.047349987017492));
#90=CARTESIAN_POINT('',(-0.126205500429282,0.0110015298132689,-6.95198380747776));
#91=DIRECTION('',(0.000143134070703714,0.99999869265076,0.00161065496255999));
#92=DIRECTION('',(-3.57090112274412E-23,0.00161065497905903,-0.999998702894428));
#93=DIRECTION('',(0.000324054080151561,0.999997897646948,0.00202476928022509));
#94=CARTESIAN_POINT('',(-0.128568665649895,0.0811862771937502,-6.98085688021562));
#95=DIRECTION('',(0.000266143194485653,-0.999996270006917,0.00271829727108428));
#96=DIRECTION('',(-1.32243182413831E-22,0.00271829736735578,0.999996305422886));
ENDSEC;
END-ISO-10303-21;
