ISO-10303-21;
HEADER;
FILE_DESCRIPTION(('STEP AP214'),'1');
FILE_NAME('SMAStripDeformed_08.stp','2026-07-03T17:57:17',(' '),(' '),'Spatial InterOp 3D',' ',' ');
FILE_SCHEMA(('AUTOMOTIVE_DESIGN { 1 0 10303 214 1 1 1 1 }'));
ENDSEC;
DATA;
#1=PRODUCT_DEFINITION_CONTEXT('',#9,'design');
#2=APPLICATION_PROTOCOL_DEFINITION('INTERNATIONAL STANDARD','automotive_design',1994,#9);
#3=PRODUCT_CATEGORY_RELATIONSHIP('NONE','NONE',#10,#11);
#4=SHAPE_DEFINITION_REPRESENTATION(#12,#13);
#5= (GEOMETRIC_REPRESENTATION_CONTEXT(3)GLOBAL_UNCERTAINTY_ASSIGNED_CONTEXT((#16))GLOBAL_UNIT_ASSIGNED_CONTEXT((#18,#19,#20))REPRESENTATION_CONTEXT('NONE','WORKSPACE'));
#9=APPLICATION_CONTEXT(' ');
#10=PRODUCT_CATEGORY('part','NONE');
#11=PRODUCT_RELATED_PRODUCT_CATEGORY('detail',' ',(#22));
#12=PRODUCT_DEFINITION_SHAPE('NONE','NONE',#23);
#13=MANIFOLD_SURFACE_SHAPE_REPRESENTATION('1',(#24,#25),#5);
#16=UNCERTAINTY_MEASURE_WITH_UNIT(LENGTH_MEASURE(1.0E-06),#18,'','');
#18= (CONVERSION_BASED_UNIT('MILLIMETRE',#28)LENGTH_UNIT()NAMED_UNIT(#31));
#19= (NAMED_UNIT(#33)PLANE_ANGLE_UNIT()SI_UNIT($,.RADIAN.));
#20= (NAMED_UNIT(#33)SOLID_ANGLE_UNIT()SI_UNIT($,.STERADIAN.));
#22=PRODUCT('1','','PART--DESC',(#39));
#23=PRODUCT_DEFINITION('','NONE',#40,#1);
#24=SHELL_BASED_SURFACE_MODEL('1',(#41));
#25=AXIS2_PLACEMENT_3D('',#42,#43,#44);
#28=LENGTH_MEASURE_WITH_UNIT(LENGTH_MEASURE(1.0),#45);
#31=DIMENSIONAL_EXPONENTS(1.0,0.0,0.0,0.0,0.0,0.0,0.0);
#33=DIMENSIONAL_EXPONENTS(0.0,0.0,0.0,0.0,0.0,0.0,0.0);
#39=PRODUCT_CONTEXT('',#9,'mechanical');
#40=PRODUCT_DEFINITION_FORMATION_WITH_SPECIFIED_SOURCE(' ','NONE',#22,.NOT_KNOWN.);
#41=CLOSED_SHELL('',(#46));
#42=CARTESIAN_POINT('',(0.0,0.0,0.0));
#43=DIRECTION('',(0.0,0.0,1.0));
#44=DIRECTION('',(1.0,0.0,0.0));
#45= (NAMED_UNIT(#31)LENGTH_UNIT()SI_UNIT(.MILLI.,.METRE.));
#46=FACE_SURFACE('',(#48),#49,.T.);
#48=FACE_BOUND('',#50,.T.);
#49=CYLINDRICAL_SURFACE('',#51,1.16664902251535);
#50=EDGE_LOOP('',(#52,#53,#54,#55,#56,#57,#58));
#51=AXIS2_PLACEMENT_3D('',#59,#60,#61);
#52=ORIENTED_EDGE('',*,*,#62,.T.);
#53=ORIENTED_EDGE('',*,*,#63,.T.);
#54=ORIENTED_EDGE('',*,*,#64,.T.);
#55=ORIENTED_EDGE('',*,*,#65,.T.);
#56=ORIENTED_EDGE('',*,*,#66,.T.);
#57=ORIENTED_EDGE('',*,*,#67,.T.);
#58=ORIENTED_EDGE('',*,*,#68,.T.);
#59=CARTESIAN_POINT('',(-0.252923302903659,-0.00556574701115528,-1.12467106780766));
#60=DIRECTION('',(0.00770977820236683,0.99994795143933,-0.00668234482485596));
#61=DIRECTION('',(-5.73194379119451E-21,-0.00668254343527011,-0.999977671557338));
#62=EDGE_CURVE('',#69,#70,#71,.T.);
#63=EDGE_CURVE('',#70,#72,#73,.T.);
#64=EDGE_CURVE('',#72,#74,#75,.T.);
#65=EDGE_CURVE('',#74,#76,#77,.T.);
#66=EDGE_CURVE('',#76,#78,#79,.T.);
#67=EDGE_CURVE('',#78,#80,#81,.T.);
#68=EDGE_CURVE('',#80,#69,#82,.T.);
#69=VERTEX_POINT('',#83);
#70=VERTEX_POINT('',#84);
#71=LINE('',#85,#86);
#72=VERTEX_POINT('',#87);
#73=LINE('',#88,#89);
#74=VERTEX_POINT('',#90);
#75=B_SPLINE_CURVE_WITH_KNOTS('',3,(#91,#92,#93,#94,#95,#96,#97,#98,#99,#100,#101),.UNSPECIFIED.,.F.,.F.,(4,1,1,1,1,1,1,1,4),(0.0,0.12512795210839,0.25025590421678,0.375383856325171,0.500511808433561,0.625639760541951,0.750767712650341,0.875895664758732,1.00102361686712),.UNSPECIFIED.);
#76=VERTEX_POINT('',#102);
#77=LINE('',#103,#104);
#78=VERTEX_POINT('',#105);
#79=B_SPLINE_CURVE_WITH_KNOTS('',3,(#106,#107,#108,#109,#110,#111,#112,#113,#114,#115,#116),.UNSPECIFIED.,.F.,.F.,(4,1,1,1,1,1,1,1,4),(0.0,0.123850440575391,0.247700881150782,0.371551321726172,0.495401762301563,0.619252202876954,0.743102643452345,0.866953084027736,0.990803524603126),.UNSPECIFIED.);
#80=VERTEX_POINT('',#117);
#81=LINE('',#118,#119);
#82=LINE('',#120,#121);
#83=CARTESIAN_POINT('',(-2.90260366026984E-34,0.0811180844902992,1.8211120085205E-34));
#84=CARTESIAN_POINT('',(2.0693211993221E-34,0.00999103579670191,-1.56739440986497E-34));
#85=CARTESIAN_POINT('',(1.37035549834512E-35,0.0455545601435006,7.87270294499253E-35));
#86=VECTOR('',#122,1.0);
#87=CARTESIAN_POINT('',(0.00140479207038879,-2.69919746642699E-06,0.0121973771601915));
#88=CARTESIAN_POINT('',(0.000702396035194397,0.00499416829961774,0.00609868858009577));
#89=VECTOR('',#123,1.0);
#90=CARTESIAN_POINT('',(0.778097569942474,0.000545763818081468,-0.570989727973938));
#91=CARTESIAN_POINT('',(0.00140479207038879,-2.69919746642699E-06,0.0121973771601915));
#92=CARTESIAN_POINT('',(0.0423360285514191,-0.000555762201650709,0.00419767986129323));
#93=CARTESIAN_POINT('',(0.12319441239978,6.13916998837767E-05,-0.0169700186746982));
#94=CARTESIAN_POINT('',(0.23967216706201,-0.000135811342811025,-0.0632940859732531));
#95=CARTESIAN_POINT('',(0.350018039663988,-5.76214015016261E-06,-0.122696270333849));
#96=CARTESIAN_POINT('',(0.453377509941299,5.0403778620889E-05,-0.193531460409187));
#97=CARTESIAN_POINT('',(0.548689478303458,0.000144655154590447,-0.274877128063845));
#98=CARTESIAN_POINT('',(0.634753176525032,0.000214117949149513,-0.365955004115307));
#99=CARTESIAN_POINT('',(0.711007258057366,0.000416368973563022,-0.465332175191072));
#100=CARTESIAN_POINT('',(0.756536815507145,0.000443541645648417,-0.535285518498955));
#101=CARTESIAN_POINT('',(0.778097569942474,0.000545763818081468,-0.570989727973938));
#102=CARTESIAN_POINT('',(0.778056979179382,0.100499592721462,-0.570436477661133));
#103=CARTESIAN_POINT('',(0.777953326702118,0.0505226782697719,-0.570713102817535));
#104=VECTOR('',#124,1.0);
#105=CARTESIAN_POINT('',(0.0108593534678221,0.1000991538167,0.0100152464583516));
#106=CARTESIAN_POINT('',(0.778056979179382,0.100499592721462,-0.570436477661133));
#107=CARTESIAN_POINT('',(0.756687000274933,0.100445839217199,-0.535114432860037));
#108=CARTESIAN_POINT('',(0.711604972475789,0.100384431986083,-0.465886525422173));
#109=CARTESIAN_POINT('',(0.636108640826551,0.100319129669277,-0.367543156580411));
#110=CARTESIAN_POINT('',(0.551162467330353,0.100237953376348,-0.277181515681658));
#111=CARTESIAN_POINT('',(0.457039582666152,0.100179691128801,-0.19641352209091));
#112=CARTESIAN_POINT('',(0.355019880900861,0.100158122494854,-0.125896477386174));
#113=CARTESIAN_POINT('',(0.246114045870197,0.100152295049059,-0.0665361200017867));
#114=CARTESIAN_POINT('',(0.131156168516187,0.100032278569894,-0.0198652449732376));
#115=CARTESIAN_POINT('',(0.0512971195419073,0.100321522688454,0.00170480941996867));
#116=CARTESIAN_POINT('',(0.0108593534678221,0.1000991538167,0.0100152464583516));
#117=CARTESIAN_POINT('',(0.000176596877281554,0.100013136863708,0.00348326587118208));
#118=CARTESIAN_POINT('',(0.00551797517255181,0.100056145340204,0.00674925616476685));
#119=VECTOR('',#125,1.0);
#120=CARTESIAN_POINT('',(8.8298438640777E-05,0.0905656106770039,0.00174163293559104));
#121=VECTOR('',#126,1.0);
#122=DIRECTION('',(-0.0,-1.0,-0.0));
#123=DIRECTION('',(0.0887361443506121,-0.631271723222962,0.770468628916778));
#124=DIRECTION('',(-4.51382461092125E-05,0.99998769104757,0.00496142276865584));
#125=DIRECTION('',(-0.853132711649631,-0.00686937643215091,-0.521648720865662));
#126=DIRECTION('',(-0.00919093351705644,-0.9833875481752,-0.181285567089754));
ENDSEC;
END-ISO-10303-21;
