ISO-10303-21;
HEADER;
FILE_DESCRIPTION(('STEP AP214'),'1');
FILE_NAME('SMAStripDeformed_04.stp','2026-07-17T15:55:23',(' '),(' '),'Spatial InterOp 3D',' ',' ');
FILE_SCHEMA(('AUTOMOTIVE_DESIGN { 1 0 10303 214 1 1 1 1 }'));
ENDSEC;
DATA;
#1=PRODUCT_DEFINITION_CONTEXT('',#9,'design');
#2=APPLICATION_PROTOCOL_DEFINITION('INTERNATIONAL STANDARD','automotive_design',1994,#9);
#3=PRODUCT_CATEGORY_RELATIONSHIP('NONE','NONE',#10,#11);
#4=SHAPE_DEFINITION_REPRESENTATION(#12,#13);
#5= (GEOMETRIC_REPRESENTATION_CONTEXT(3)GLOBAL_UNCERTAINTY_ASSIGNED_CONTEXT((#16))GLOBAL_UNIT_ASSIGNED_CONTEXT((#18,#19,#20))REPRESENTATION_CONTEXT('NONE','WORKSPACE'));
#9=APPLICATION_CONTEXT(' ');
#10=PRODUCT_CATEGORY('part','NONE');
#11=PRODUCT_RELATED_PRODUCT_CATEGORY('detail',' ',(#22));
#12=PRODUCT_DEFINITION_SHAPE('NONE','NONE',#23);
#13=MANIFOLD_SURFACE_SHAPE_REPRESENTATION('1',(#24,#25),#5);
#16=UNCERTAINTY_MEASURE_WITH_UNIT(LENGTH_MEASURE(1.0E-06),#18,'','');
#18= (CONVERSION_BASED_UNIT('MILLIMETRE',#28)LENGTH_UNIT()NAMED_UNIT(#31));
#19= (NAMED_UNIT(#33)PLANE_ANGLE_UNIT()SI_UNIT($,.RADIAN.));
#20= (NAMED_UNIT(#33)SOLID_ANGLE_UNIT()SI_UNIT($,.STERADIAN.));
#22=PRODUCT('1','','PART--DESC',(#39));
#23=PRODUCT_DEFINITION('','NONE',#40,#1);
#24=SHELL_BASED_SURFACE_MODEL('1',(#41));
#25=AXIS2_PLACEMENT_3D('',#42,#43,#44);
#28=LENGTH_MEASURE_WITH_UNIT(LENGTH_MEASURE(1.0),#45);
#31=DIMENSIONAL_EXPONENTS(1.0,0.0,0.0,0.0,0.0,0.0,0.0);
#33=DIMENSIONAL_EXPONENTS(0.0,0.0,0.0,0.0,0.0,0.0,0.0);
#39=PRODUCT_CONTEXT('',#9,'mechanical');
#40=PRODUCT_DEFINITION_FORMATION_WITH_SPECIFIED_SOURCE(' ','NONE',#22,.NOT_KNOWN.);
#41=CLOSED_SHELL('',(#46));
#42=CARTESIAN_POINT('',(0.0,0.0,0.0));
#43=DIRECTION('',(0.0,0.0,1.0));
#44=DIRECTION('',(1.0,0.0,0.0));
#45= (NAMED_UNIT(#31)LENGTH_UNIT()SI_UNIT(.MILLI.,.METRE.));
#46=FACE_SURFACE('',(#48),#49,.T.);
#48=FACE_BOUND('',#50,.T.);
#49=CYLINDRICAL_SURFACE('',#51,1.37537781536486);
#50=EDGE_LOOP('',(#52,#53,#54,#55,#56,#57,#58,#59,#60));
#51=AXIS2_PLACEMENT_3D('',#61,#62,#63);
#52=ORIENTED_EDGE('',*,*,#64,.T.);
#53=ORIENTED_EDGE('',*,*,#65,.T.);
#54=ORIENTED_EDGE('',*,*,#66,.T.);
#55=ORIENTED_EDGE('',*,*,#67,.T.);
#56=ORIENTED_EDGE('',*,*,#68,.T.);
#57=ORIENTED_EDGE('',*,*,#69,.T.);
#58=ORIENTED_EDGE('',*,*,#70,.T.);
#59=ORIENTED_EDGE('',*,*,#71,.T.);
#60=ORIENTED_EDGE('',*,*,#72,.T.);
#61=CARTESIAN_POINT('',(-0.120005566544125,-5.11711845417826E-05,-1.36389279512458));
#62=DIRECTION('',(0.00142248075203887,-0.999998984433168,-8.76421317797728E-05));
#63=DIRECTION('',(-1.40166642253699E-23,-8.76422204497084E-05,0.999999996159421));
#64=EDGE_CURVE('',#73,#74,#75,.T.);
#65=EDGE_CURVE('',#74,#76,#77,.T.);
#66=EDGE_CURVE('',#76,#78,#79,.T.);
#67=EDGE_CURVE('',#78,#80,#81,.T.);
#68=EDGE_CURVE('',#80,#82,#83,.T.);
#69=EDGE_CURVE('',#82,#84,#85,.T.);
#70=EDGE_CURVE('',#84,#86,#87,.T.);
#71=EDGE_CURVE('',#86,#88,#89,.T.);
#72=EDGE_CURVE('',#88,#73,#90,.T.);
#73=VERTEX_POINT('',#91);
#74=VERTEX_POINT('',#92);
#75=LINE('',#93,#94);
#76=VERTEX_POINT('',#95);
#77=LINE('',#96,#97);
#78=VERTEX_POINT('',#98);
#79=B_SPLINE_CURVE_WITH_KNOTS('',3,(#99,#100,#101,#102,#103,#104,#105,#106,#107,#108,#109,#110,#111,#112,#113,#114,#115,#116,#117,#118,#119,#120),.UNSPECIFIED.,.F.,.F.,(4,1,1,1,1,1,1,1,1,1,1,1,1,1,1,1,1,1,1,4),(0.0,0.125235328846796,0.250470657693591,0.375705986540387,0.500941315387183,0.563558979810581,0.626176644233978,0.688794308657376,0.751411973080774,0.814029637504172,0.845338469715871,0.87664730192757,0.907956134139269,0.939264966350968,0.954919382456817,0.970573798562667,0.978401006615591,0.986228214668516,0.994055422721441,1.00188263077437),.UNSPECIFIED.);
#80=VERTEX_POINT('',#121);
#81=LINE('',#122,#123);
#82=VERTEX_POINT('',#124);
#83=LINE('',#125,#126);
#84=VERTEX_POINT('',#127);
#85=LINE('',#128,#129);
#86=VERTEX_POINT('',#130);
#87=LINE('',#131,#132);
#88=VERTEX_POINT('',#133);
#89=B_SPLINE_CURVE_WITH_KNOTS('',3,(#134,#135,#136,#137,#138,#139,#140,#141,#142,#143,#144),.UNSPECIFIED.,.F.,.F.,(4,1,1,1,1,1,1,1,4),(0.0,0.125075884511585,0.25015176902317,0.375227653534755,0.50030353804634,0.625379422557925,0.75045530706951,0.875531191581094,1.00060707609268),.UNSPECIFIED.);
#90=LINE('',#145,#146);
#91=CARTESIAN_POINT('',(-5.68846879288852E-34,0.0900089666247368,-1.14898052472651E-34));
#92=CARTESIAN_POINT('',(-1.20812938581869E-35,0.00999103579670191,-1.17382937327694E-34));
#93=CARTESIAN_POINT('',(-7.27943473434674E-35,0.0500000012107193,2.68299583118605E-35));
#94=VECTOR('',#147,1.0);
#95=CARTESIAN_POINT('',(0.000141546755912714,-9.96638846118003E-06,0.00354013498872519));
#96=CARTESIAN_POINT('',(7.07733779563569E-05,0.00499053470412036,0.00177006749436259));
#97=VECTOR('',#148,1.0);
#98=CARTESIAN_POINT('',(0.885242760181427,-2.67039613390807E-05,-0.417861610651016));
#99=CARTESIAN_POINT('',(0.000141546755912714,-9.96638846118003E-06,0.00354013498872519));
#100=CARTESIAN_POINT('',(0.0418223745763622,-0.00023562196434162,0.00123539019125717));
#101=CARTESIAN_POINT('',(0.124928625792913,-4.26078793312302E-06,-0.00796276193117143));
#102=CARTESIAN_POINT('',(0.24739236359975,-9.61173729474195E-05,-0.0349727639980692));
#103=CARTESIAN_POINT('',(0.366455412502417,-6.9034350228463E-05,-0.0743002665293884));
#104=CARTESIAN_POINT('',(0.462045658662808,-7.10673922882975E-05,-0.11646498859918));
#105=CARTESIAN_POINT('',(0.535982504716687,-6.66632323655072E-05,-0.155289964371111));
#106=CARTESIAN_POINT('',(0.590100949112986,-6.26487518759061E-05,-0.186818227427717));
#107=CARTESIAN_POINT('',(0.642827842010514,-5.8422292022481E-05,-0.220620198648102));
#108=CARTESIAN_POINT('',(0.69411905949509,-5.34411561337451E-05,-0.256561887017559));
#109=CARTESIAN_POINT('',(0.735629764619819,-4.97080892660443E-05,-0.288197907407243));
#110=CARTESIAN_POINT('',(0.768069657724427,-4.66960711275883E-05,-0.314474880447408));
#111=CARTESIAN_POINT('',(0.792005599781658,-4.58740856259782E-05,-0.334659562024215));
#112=CARTESIAN_POINT('',(0.815541657212514,-4.39706925793322E-05,-0.355307896268575));
#113=CARTESIAN_POINT('',(0.834784485667492,-4.22616687083849E-05,-0.37293334771958));
#114=CARTESIAN_POINT('',(0.850019237881027,-4.01388818719295E-05,-0.38719163872937));
#115=CARTESIAN_POINT('',(0.859336894522847,-3.90486018925747E-05,-0.396348270796065));
#116=CARTESIAN_POINT('',(0.86697895001615,-3.70003905622189E-05,-0.403409586531715));
#117=CARTESIAN_POINT('',(0.872239088883756,-3.70013279505983E-05,-0.409323177069143));
#118=CARTESIAN_POINT('',(0.878055859049152,-3.45321482993165E-05,-0.414464214317373));
#119=CARTESIAN_POINT('',(0.882894316050957,-2.92204563559792E-05,-0.416724928324457));
#120=CARTESIAN_POINT('',(0.885242760181427,-2.67039613390807E-05,-0.417861610651016));
#121=CARTESIAN_POINT('',(0.88531368970871,0.049987405538559,-0.417193114757538));
#122=CARTESIAN_POINT('',(0.885278224945068,0.0249803507886099,-0.417527362704277));
#123=VECTOR('',#149,1.0);
#124=CARTESIAN_POINT('',(0.88534140586853,0.0699930489063263,-0.416926443576813));
#125=CARTESIAN_POINT('',(0.88532754778862,0.0599902272224426,-0.417059779167175));
#126=VECTOR('',#150,1.0);
#127=CARTESIAN_POINT('',(0.885368645191193,0.089998759329319,-0.416660308837891));
#128=CARTESIAN_POINT('',(0.885355025529861,0.0799959041178226,-0.416793376207352));
#129=VECTOR('',#151,1.0);
#130=CARTESIAN_POINT('',(0.882682800292969,0.100011900067329,-0.419204950332642));
#131=CARTESIAN_POINT('',(0.884025722742081,0.0950053296983242,-0.417932629585266));
#132=VECTOR('',#152,1.0);
#133=CARTESIAN_POINT('',(0.000176576257217675,0.100013136863708,0.00348298810422421));
#134=CARTESIAN_POINT('',(0.882682800292969,0.100011900067329,-0.419204950332642));
#135=CARTESIAN_POINT('',(0.853268393237059,0.100012161840518,-0.389658168587074));
#136=CARTESIAN_POINT('',(0.792248189970505,0.100020855163351,-0.332739686735114));
#137=CARTESIAN_POINT('',(0.694127381315194,0.100028341346501,-0.25501002514916));
#138=CARTESIAN_POINT('',(0.590164706807379,0.100039908819665,-0.185286146911258));
#139=CARTESIAN_POINT('',(0.480633650035766,0.100051641012924,-0.124643913832537));
#140=CARTESIAN_POINT('',(0.366046604045588,0.10005409048414,-0.0741662874404719));
#141=CARTESIAN_POINT('',(0.247120549158827,0.100085532044977,-0.0349344122067718));
#142=CARTESIAN_POINT('',(0.124805837578972,0.100001638047922,-0.00799244678203719));
#143=CARTESIAN_POINT('',(0.0418045978915069,0.100231737125577,0.00118523207275683));
#144=CARTESIAN_POINT('',(0.000176576257217675,0.100013136863708,0.00348298810422421));
#145=CARTESIAN_POINT('',(8.82881286088377E-05,0.0950110517442226,0.0017414940521121));
#146=VECTOR('',#153,1.0);
#147=DIRECTION('',(-0.0,-1.0,-0.0));
#148=DIRECTION('',(0.0133408500450495,-0.942599281715428,0.333659430901684));
#149=DIRECTION('',(0.00141806204226254,0.999909691289815,0.0133640699171784));
#150=DIRECTION('',(0.00138529267387895,0.999910210649796,0.0133286009201513));
#151=DIRECTION('',(0.00136145564918462,0.999910600564149,0.0133017787516414));
#152=DIRECTION('',(-0.251605452057696,0.938014255242533,-0.238377753694927));
#153=DIRECTION('',(-0.0166666088416673,-0.944269602185796,-0.328750882185278));
ENDSEC;
END-ISO-10303-21;
