ISO-10303-21;
HEADER;
FILE_DESCRIPTION(('STEP AP214'),'1');
FILE_NAME('SMAStripDeformed_Comparison.stp','2026-07-03T17:59:07',(' '),(' '),'Spatial InterOp 3D',' ',' ');
FILE_SCHEMA(('AUTOMOTIVE_DESIGN { 1 0 10303 214 1 1 1 1 }'));
ENDSEC;
DATA;
#1=PRODUCT_DEFINITION_CONTEXT('',#9,'design');
#2=APPLICATION_PROTOCOL_DEFINITION('INTERNATIONAL STANDARD','automotive_design',1994,#9);
#3=PRODUCT_CATEGORY_RELATIONSHIP('NONE','NONE',#10,#11);
#4=SHAPE_DEFINITION_REPRESENTATION(#12,#13);
#5= (GEOMETRIC_REPRESENTATION_CONTEXT(3)GLOBAL_UNCERTAINTY_ASSIGNED_CONTEXT((#16))GLOBAL_UNIT_ASSIGNED_CONTEXT((#18,#19,#20))REPRESENTATION_CONTEXT('NONE','WORKSPACE'));
#9=APPLICATION_CONTEXT(' ');
#10=PRODUCT_CATEGORY('part','NONE');
#11=PRODUCT_RELATED_PRODUCT_CATEGORY('detail',' ',(#22));
#12=PRODUCT_DEFINITION_SHAPE('NONE','NONE',#23);
#13=MANIFOLD_SURFACE_SHAPE_REPRESENTATION('1',(#24,#25),#5);
#16=UNCERTAINTY_MEASURE_WITH_UNIT(LENGTH_MEASURE(1.0E-06),#18,'','');
#18= (CONVERSION_BASED_UNIT('MILLIMETRE',#28)LENGTH_UNIT()NAMED_UNIT(#31));
#19= (NAMED_UNIT(#33)PLANE_ANGLE_UNIT()SI_UNIT($,.RADIAN.));
#20= (NAMED_UNIT(#33)SOLID_ANGLE_UNIT()SI_UNIT($,.STERADIAN.));
#22=PRODUCT('1','','PART--DESC',(#39));
#23=PRODUCT_DEFINITION('','NONE',#40,#1);
#24=SHELL_BASED_SURFACE_MODEL('1',(#41));
#25=AXIS2_PLACEMENT_3D('',#42,#43,#44);
#28=LENGTH_MEASURE_WITH_UNIT(LENGTH_MEASURE(1.0),#45);
#31=DIMENSIONAL_EXPONENTS(1.0,0.0,0.0,0.0,0.0,0.0,0.0);
#33=DIMENSIONAL_EXPONENTS(0.0,0.0,0.0,0.0,0.0,0.0,0.0);
#39=PRODUCT_CONTEXT('',#9,'mechanical');
#40=PRODUCT_DEFINITION_FORMATION_WITH_SPECIFIED_SOURCE(' ','NONE',#22,.NOT_KNOWN.);
#41=CLOSED_SHELL('',(#46));
#42=CARTESIAN_POINT('',(0.0,0.0,0.0));
#43=DIRECTION('',(0.0,0.0,1.0));
#44=DIRECTION('',(1.0,0.0,0.0));
#45= (NAMED_UNIT(#31)LENGTH_UNIT()SI_UNIT(.MILLI.,.METRE.));
#46=FACE_SURFACE('',(#48),#49,.T.);
#48=FACE_BOUND('',#50,.T.);
#49=CYLINDRICAL_SURFACE('',#51,0.455812134626645);
#50=EDGE_LOOP('',(#52,#53,#54,#55));
#51=AXIS2_PLACEMENT_3D('',#56,#57,#58);
#52=ORIENTED_EDGE('',*,*,#59,.T.);
#53=ORIENTED_EDGE('',*,*,#60,.T.);
#54=ORIENTED_EDGE('',*,*,#61,.T.);
#55=ORIENTED_EDGE('',*,*,#62,.T.);
#56=CARTESIAN_POINT('',(-0.0223652639544296,8.47193165165608E-05,-0.454003482847952));
#57=DIRECTION('',(-5.58918279928038E-06,0.999999982522252,0.000186880325528826));
#58=DIRECTION('',(0.0,0.000186880325531745,-0.999999982537872));
#59=EDGE_CURVE('',#63,#64,#65,.T.);
#60=EDGE_CURVE('',#64,#66,#67,.T.);
#61=EDGE_CURVE('',#66,#68,#69,.T.);
#62=EDGE_CURVE('',#68,#63,#70,.T.);
#63=VERTEX_POINT('',#71);
#64=VERTEX_POINT('',#72);
#65=CIRCLE('',#73,0.454146342358721);
#66=VERTEX_POINT('',#74);
#67=CIRCLE('',#75,0.454961371272141);
#68=VERTEX_POINT('',#76);
#69=LINE('',#77,#78);
#70=CIRCLE('',#79,0.454961371271683);
#71=CARTESIAN_POINT('',(0.330645620822906,-3.3198553865077E-05,-0.740076005458832));
#72=CARTESIAN_POINT('',(0.330645620822906,0.100033201277256,-0.740076005458832));
#73=AXIS2_PLACEMENT_3D('',#80,#81,#82);
#74=CARTESIAN_POINT('',(-2.57708015980501E-36,0.100000001490116,3.07921638441591E-37));
#75=AXIS2_PLACEMENT_3D('',#83,#84,#85);
#76=CARTESIAN_POINT('',(-2.5770798010726E-36,-1.46688102611725E-37,3.07921638441591E-37));
#77=CARTESIAN_POINT('',(1.06546023224217E-32,0.0500000007450581,2.18099392029306E-33));
#78=VECTOR('',#86,1.0);
#79=AXIS2_PLACEMENT_3D('',#87,#88,#89);
#80=CARTESIAN_POINT('',(0.0669127196637336,0.0500721398194223,-0.373758936553258));
#81=DIRECTION('',(0.810950954333698,3.89948928219774E-10,0.58511413387925));
#82=DIRECTION('',(4.80853898914476E-10,-1.0,-3.33039032887728E-26));
#83=CARTESIAN_POINT('',(-0.0229567589211648,0.100027121593717,-0.454022515732102));
#84=DIRECTION('',(0.000237008100100479,-0.999999963256418,0.000131583901499807));
#85=DIRECTION('',(3.53003454319496E-24,-0.000131583905195528,-0.999999991342838));
#86=DIRECTION('',(-0.0,-1.0,-0.0));
#87=CARTESIAN_POINT('',(-0.022956758920762,-2.71199254212645E-05,-0.454022515731914));
#88=DIRECTION('',(0.000237007552154226,0.999999963256577,0.000131583683232075));
#89=DIRECTION('',(0.0,-0.000131583686927772,0.999999991342867));
ENDSEC;
END-ISO-10303-21;
