ISO-10303-21;
HEADER;
FILE_DESCRIPTION(('STEP AP214'),'1');
FILE_NAME('SMAStripDeformed_07.stp','2026-07-03T17:54:37',(' '),(' '),'Spatial InterOp 3D',' ',' ');
FILE_SCHEMA(('AUTOMOTIVE_DESIGN { 1 0 10303 214 1 1 1 1 }'));
ENDSEC;
DATA;
#1=PRODUCT_DEFINITION_CONTEXT('',#9,'design');
#2=APPLICATION_PROTOCOL_DEFINITION('INTERNATIONAL STANDARD','automotive_design',1994,#9);
#3=PRODUCT_CATEGORY_RELATIONSHIP('NONE','NONE',#10,#11);
#4=SHAPE_DEFINITION_REPRESENTATION(#12,#13);
#5= (GEOMETRIC_REPRESENTATION_CONTEXT(3)GLOBAL_UNCERTAINTY_ASSIGNED_CONTEXT((#16))GLOBAL_UNIT_ASSIGNED_CONTEXT((#18,#19,#20))REPRESENTATION_CONTEXT('NONE','WORKSPACE'));
#9=APPLICATION_CONTEXT(' ');
#10=PRODUCT_CATEGORY('part','NONE');
#11=PRODUCT_RELATED_PRODUCT_CATEGORY('detail',' ',(#22));
#12=PRODUCT_DEFINITION_SHAPE('NONE','NONE',#23);
#13=MANIFOLD_SURFACE_SHAPE_REPRESENTATION('1',(#24,#25),#5);
#16=UNCERTAINTY_MEASURE_WITH_UNIT(LENGTH_MEASURE(1.0E-06),#18,'','');
#18= (CONVERSION_BASED_UNIT('MILLIMETRE',#28)LENGTH_UNIT()NAMED_UNIT(#31));
#19= (NAMED_UNIT(#33)PLANE_ANGLE_UNIT()SI_UNIT($,.RADIAN.));
#20= (NAMED_UNIT(#33)SOLID_ANGLE_UNIT()SI_UNIT($,.STERADIAN.));
#22=PRODUCT('1','','PART--DESC',(#39));
#23=PRODUCT_DEFINITION('','NONE',#40,#1);
#24=SHELL_BASED_SURFACE_MODEL('1',(#41));
#25=AXIS2_PLACEMENT_3D('',#42,#43,#44);
#28=LENGTH_MEASURE_WITH_UNIT(LENGTH_MEASURE(1.0),#45);
#31=DIMENSIONAL_EXPONENTS(1.0,0.0,0.0,0.0,0.0,0.0,0.0);
#33=DIMENSIONAL_EXPONENTS(0.0,0.0,0.0,0.0,0.0,0.0,0.0);
#39=PRODUCT_CONTEXT('',#9,'mechanical');
#40=PRODUCT_DEFINITION_FORMATION_WITH_SPECIFIED_SOURCE(' ','NONE',#22,.NOT_KNOWN.);
#41=CLOSED_SHELL('',(#46));
#42=CARTESIAN_POINT('',(0.0,0.0,0.0));
#43=DIRECTION('',(0.0,0.0,1.0));
#44=DIRECTION('',(1.0,0.0,0.0));
#45= (NAMED_UNIT(#31)LENGTH_UNIT()SI_UNIT(.MILLI.,.METRE.));
#46=FACE_SURFACE('',(#48),#49,.T.);
#48=FACE_BOUND('',#50,.T.);
#49=CYLINDRICAL_SURFACE('',#51,1.17588894722741);
#50=EDGE_LOOP('',(#52,#53,#54,#55,#56,#57,#58));
#51=AXIS2_PLACEMENT_3D('',#59,#60,#61);
#52=ORIENTED_EDGE('',*,*,#62,.T.);
#53=ORIENTED_EDGE('',*,*,#63,.T.);
#54=ORIENTED_EDGE('',*,*,#64,.T.);
#55=ORIENTED_EDGE('',*,*,#65,.T.);
#56=ORIENTED_EDGE('',*,*,#66,.T.);
#57=ORIENTED_EDGE('',*,*,#67,.T.);
#58=ORIENTED_EDGE('',*,*,#68,.T.);
#59=CARTESIAN_POINT('',(-0.220085929850714,-0.00379234408172233,-1.14263694696629));
#60=DIRECTION('',(-0.00484443162819864,-0.999979225906388,0.00425196870411176));
#61=DIRECTION('',(-3.57336009196091E-21,0.00425201859869159,0.999990960128059));
#62=EDGE_CURVE('',#69,#70,#71,.T.);
#63=EDGE_CURVE('',#70,#72,#73,.T.);
#64=EDGE_CURVE('',#72,#74,#75,.T.);
#65=EDGE_CURVE('',#74,#76,#77,.T.);
#66=EDGE_CURVE('',#76,#78,#79,.T.);
#67=EDGE_CURVE('',#78,#80,#81,.T.);
#68=EDGE_CURVE('',#80,#69,#82,.T.);
#69=VERTEX_POINT('',#83);
#70=VERTEX_POINT('',#84);
#71=LINE('',#85,#86);
#72=VERTEX_POINT('',#87);
#73=LINE('',#88,#89);
#74=VERTEX_POINT('',#90);
#75=LINE('',#91,#92);
#76=VERTEX_POINT('',#93);
#77=LINE('',#94,#95);
#78=VERTEX_POINT('',#96);
#79=B_SPLINE_CURVE_WITH_KNOTS('',3,(#97,#98,#99,#100,#101,#102,#103,#104,#105,#106,#107,#108,#109,#110,#111,#112,#113,#114,#115),.UNSPECIFIED.,.F.,.F.,(4,1,1,1,1,1,1,1,1,1,1,1,1,1,1,1,4),(0.0,0.125162084315208,0.250324168630416,0.375486252945624,0.500648337260832,0.62581042157604,0.688391463733644,0.750972505891248,0.813553548048852,0.876134590206456,0.907425111285258,0.93871563236406,0.970006153442862,0.977828783712563,0.985651413982263,0.993474044251964,1.00129667452166),.UNSPECIFIED.);
#80=VERTEX_POINT('',#116);
#81=B_SPLINE_CURVE_WITH_KNOTS('',3,(#117,#118,#119,#120,#121,#122,#123,#124,#125,#126,#127,#128,#129),.UNSPECIFIED.,.F.,.F.,(4,1,1,1,1,1,1,1,1,1,4),(0.0,0.0101984858990507,0.0201959661290644,0.0301927074601805,0.0407828279610415,0.0508145011907048,0.0608464092284076,0.0708781871332746,0.080908974222665,0.0909358811360091,0.100756707369404),.UNSPECIFIED.);
#82=B_SPLINE_CURVE_WITH_KNOTS('',3,(#130,#131,#132,#133,#134,#135,#136,#137,#138,#139,#140,#141,#142,#143,#144,#145,#146,#147,#148),.UNSPECIFIED.,.F.,.F.,(4,1,1,1,1,1,1,1,1,1,1,1,1,1,1,1,4),(0.0,0.123891465747488,0.247782931494975,0.371674397242463,0.49556586298995,0.619457328737438,0.681403061611182,0.743348794484926,0.805294527358669,0.867240260232413,0.898213126669285,0.929185993106157,0.960158859543029,0.967902076152247,0.975645292761465,0.983388509370683,0.991131725979901),.UNSPECIFIED.);
#83=CARTESIAN_POINT('',(0.0103138657286763,0.100090190768242,0.00728596886619925));
#84=CARTESIAN_POINT('',(0.000176596877281554,0.100013136863708,0.00348326587118208));
#85=CARTESIAN_POINT('',(0.00524523130297894,0.100051663815975,0.00538461736869067));
#86=VECTOR('',#149,1.0);
#87=CARTESIAN_POINT('',(-2.42208452852773E-34,0.0900089666247368,7.29572233356221E-35));
#88=CARTESIAN_POINT('',(8.8298438640777E-05,0.0950110517442226,0.00174163293559104));
#89=VECTOR('',#150,1.0);
#90=CARTESIAN_POINT('',(1.84930458748604E-34,0.00999103579670191,-1.59446682536613E-34));
#91=CARTESIAN_POINT('',(6.92594957814131E-35,0.0500000012107193,8.32506049224905E-35));
#92=VECTOR('',#151,1.0);
#93=CARTESIAN_POINT('',(0.0010839638998732,-8.25764618639369E-06,0.010524608194828));
#94=CARTESIAN_POINT('',(0.000541981949936599,0.00499138907525776,0.00526230409741402));
#95=VECTOR('',#152,1.0);
#96=CARTESIAN_POINT('',(0.798038721084595,0.000189912199857645,-0.546079993247986));
#97=CARTESIAN_POINT('',(0.0010839638998732,-8.25764618639369E-06,0.010524608194828));
#98=CARTESIAN_POINT('',(0.042253736418529,-0.000490980049885379,0.00378419410669821));
#99=CARTESIAN_POINT('',(0.123748280564152,4.27449889781608E-05,-0.0148764793283632));
#100=CARTESIAN_POINT('',(0.241670079332667,-0.000145963662260225,-0.057481496915706));
#101=CARTESIAN_POINT('',(0.353908224224001,-5.76815202802261E-05,-0.113304184716265));
#102=CARTESIAN_POINT('',(0.459528679802067,-3.12473885621314E-05,-0.180777563745927));
#103=CARTESIAN_POINT('',(0.541298947828032,5.92659503618833E-06,-0.245748261143443));
#104=CARTESIAN_POINT('',(0.602421666843395,3.49549688531772E-05,-0.302592631704821));
#105=CARTESIAN_POINT('',(0.645996305719624,5.9438924712481E-05,-0.347539483840499));
#106=CARTESIAN_POINT('',(0.687203541383289,7.66190847943915E-05,-0.394667797091413));
#107=CARTESIAN_POINT('',(0.719473866139471,0.000115566680321985,-0.435654303516063));
#108=CARTESIAN_POINT('',(0.744208978698016,0.000142689860215447,-0.469254361401938));
#109=CARTESIAN_POINT('',(0.76232886014767,0.000160991574242301,-0.494764289772529));
#110=CARTESIAN_POINT('',(0.775391192200138,0.00017041638631558,-0.514272260208304));
#111=CARTESIAN_POINT('',(0.784196287503019,0.000179168666526698,-0.527191471562894));
#112=CARTESIAN_POINT('',(0.788292728191626,0.000177488917873383,-0.533879547986185));
#113=CARTESIAN_POINT('',(0.792664961593445,0.000177174079999462,-0.540350657288665));
#114=CARTESIAN_POINT('',(0.796264695804075,0.000185839621692516,-0.54416894630397));
#115=CARTESIAN_POINT('',(0.798038721084595,0.000189912199857645,-0.546079993247986));
#116=CARTESIAN_POINT('',(0.796581447124481,0.100192531943321,-0.546427190303802));
#117=CARTESIAN_POINT('',(0.798038721084595,0.000189912199857645,-0.546079993247986));
#118=CARTESIAN_POINT('',(0.798733992534429,0.00351817835298676,-0.545609873605179));
#119=CARTESIAN_POINT('',(0.800110832076137,0.0101091126507303,-0.544678900078647));
#120=CARTESIAN_POINT('',(0.799132830566591,0.0201671904195261,-0.545251984220718));
#121=CARTESIAN_POINT('',(0.800450988755603,0.0305956069835769,-0.544348815280401));
#122=CARTESIAN_POINT('',(0.795501892183587,0.0398359399107683,-0.547451719187781));
#123=CARTESIAN_POINT('',(0.79672956178913,0.0503039226890514,-0.54660554182232));
#124=CARTESIAN_POINT('',(0.796377438503449,0.0602697596698137,-0.546770310623519));
#125=CARTESIAN_POINT('',(0.796467233061596,0.0703187161830392,-0.546653057184792));
#126=CARTESIAN_POINT('',(0.796463031162106,0.0803435345697856,-0.546594691324332));
#127=CARTESIAN_POINT('',(0.796502774167621,0.0903038319244769,-0.546499431325355));
#128=CARTESIAN_POINT('',(0.796555404962181,0.0969191945589565,-0.546451103379948));
#129=CARTESIAN_POINT('',(0.796581447124481,0.100192531943321,-0.546427190303802));
#130=CARTESIAN_POINT('',(0.796581447124481,0.100192531943321,-0.546427190303802));
#131=CARTESIAN_POINT('',(0.774245693282568,0.10017248210104,-0.511691492095896));
#132=CARTESIAN_POINT('',(0.727393415883431,0.100158323393561,-0.44360108366777));
#133=CARTESIAN_POINT('',(0.648498117546154,0.100145884881013,-0.347890031185682));
#134=CARTESIAN_POINT('',(0.559998680082769,0.100109305711626,-0.260939117558173));
#135=CARTESIAN_POINT('',(0.4631299807972,0.100094156974809,-0.183452661594777));
#136=CARTESIAN_POINT('',(0.376233390407911,0.100107564756841,-0.127443234577794));
#137=CARTESIAN_POINT('',(0.30346926770756,0.100112027579192,-0.0882999128181785));
#138=CARTESIAN_POINT('',(0.247367849011726,0.100104849080072,-0.0619774195618914));
#139=CARTESIAN_POINT('',(0.189867792628304,0.100081732587081,-0.038861983259386));
#140=CARTESIAN_POINT('',(0.140906972245051,0.100090061062653,-0.0224385180250184));
#141=CARTESIAN_POINT('',(0.101202367888682,0.100139692083735,-0.0110488628097323));
#142=CARTESIAN_POINT('',(0.0711713111676208,0.100169950413062,-0.00349414220255484));
#143=CARTESIAN_POINT('',(0.0485063842489706,0.100176324165882,0.00171307433771706));
#144=CARTESIAN_POINT('',(0.0333026501581871,0.10015376304524,0.00454131699347794));
#145=CARTESIAN_POINT('',(0.0257271149809115,0.100143438584977,0.00630118970330269));
#146=CARTESIAN_POINT('',(0.0181004159579742,0.10012587528924,0.00751408519421199));
#147=CARTESIAN_POINT('',(0.012894202275154,0.100101833699365,0.00734647891942079));
#148=CARTESIAN_POINT('',(0.0103138657286763,0.100090190768242,0.00728596886619925));
#149=DIRECTION('',(-0.936268198469981,-0.00711662297213568,-0.351213915173145));
#150=DIRECTION('',(-0.016668410907276,-0.944261432571437,-0.328774255433669));
#151=DIRECTION('',(-0.0,-1.0,-0.0));
#152=DIRECTION('',(0.0744595519667512,-0.686870577358372,0.7229554516568));
ENDSEC;
END-ISO-10303-21;
