ISO-10303-21;
HEADER;
FILE_DESCRIPTION(('STEP AP214'),'1');
FILE_NAME('SMAStripDeformed_03.stp','2026-07-17T15:54:45',(' '),(' '),'Spatial InterOp 3D',' ',' ');
FILE_SCHEMA(('AUTOMOTIVE_DESIGN { 1 0 10303 214 1 1 1 1 }'));
ENDSEC;
DATA;
#1=PRODUCT_DEFINITION_CONTEXT('',#9,'design');
#2=APPLICATION_PROTOCOL_DEFINITION('INTERNATIONAL STANDARD','automotive_design',1994,#9);
#3=PRODUCT_CATEGORY_RELATIONSHIP('NONE','NONE',#10,#11);
#4=SHAPE_DEFINITION_REPRESENTATION(#12,#13);
#5= (GEOMETRIC_REPRESENTATION_CONTEXT(3)GLOBAL_UNCERTAINTY_ASSIGNED_CONTEXT((#16))GLOBAL_UNIT_ASSIGNED_CONTEXT((#18,#19,#20))REPRESENTATION_CONTEXT('NONE','WORKSPACE'));
#9=APPLICATION_CONTEXT(' ');
#10=PRODUCT_CATEGORY('part','NONE');
#11=PRODUCT_RELATED_PRODUCT_CATEGORY('detail',' ',(#22));
#12=PRODUCT_DEFINITION_SHAPE('NONE','NONE',#23);
#13=MANIFOLD_SURFACE_SHAPE_REPRESENTATION('1',(#24,#25),#5);
#16=UNCERTAINTY_MEASURE_WITH_UNIT(LENGTH_MEASURE(1.0E-06),#18,'','');
#18= (CONVERSION_BASED_UNIT('MILLIMETRE',#28)LENGTH_UNIT()NAMED_UNIT(#31));
#19= (NAMED_UNIT(#33)PLANE_ANGLE_UNIT()SI_UNIT($,.RADIAN.));
#20= (NAMED_UNIT(#33)SOLID_ANGLE_UNIT()SI_UNIT($,.STERADIAN.));
#22=PRODUCT('1','','PART--DESC',(#39));
#23=PRODUCT_DEFINITION('','NONE',#40,#1);
#24=SHELL_BASED_SURFACE_MODEL('1',(#41));
#25=AXIS2_PLACEMENT_3D('',#42,#43,#44);
#28=LENGTH_MEASURE_WITH_UNIT(LENGTH_MEASURE(1.0),#45);
#31=DIMENSIONAL_EXPONENTS(1.0,0.0,0.0,0.0,0.0,0.0,0.0);
#33=DIMENSIONAL_EXPONENTS(0.0,0.0,0.0,0.0,0.0,0.0,0.0);
#39=PRODUCT_CONTEXT('',#9,'mechanical');
#40=PRODUCT_DEFINITION_FORMATION_WITH_SPECIFIED_SOURCE(' ','NONE',#22,.NOT_KNOWN.);
#41=CLOSED_SHELL('',(#46));
#42=CARTESIAN_POINT('',(0.0,0.0,0.0));
#43=DIRECTION('',(0.0,0.0,1.0));
#44=DIRECTION('',(1.0,0.0,0.0));
#45= (NAMED_UNIT(#31)LENGTH_UNIT()SI_UNIT(.MILLI.,.METRE.));
#46=FACE_SURFACE('',(#48),#49,.T.);
#48=FACE_BOUND('',#50,.T.);
#49=CYLINDRICAL_SURFACE('',#51,1.56932511004652);
#50=EDGE_LOOP('',(#52,#53,#54,#55,#56));
#51=AXIS2_PLACEMENT_3D('',#57,#58,#59);
#52=ORIENTED_EDGE('',*,*,#60,.T.);
#53=ORIENTED_EDGE('',*,*,#61,.T.);
#54=ORIENTED_EDGE('',*,*,#62,.T.);
#55=ORIENTED_EDGE('',*,*,#63,.T.);
#56=ORIENTED_EDGE('',*,*,#64,.T.);
#57=CARTESIAN_POINT('',(-0.0794294538001688,-0.000865512088174154,-1.5637661609768));
#58=DIRECTION('',(0.00148348064543243,0.999998701928182,-0.000628829965977757));
#59=DIRECTION('',(0.0,-0.000628830657916613,-0.999999802285982));
#60=EDGE_CURVE('',#65,#66,#67,.T.);
#61=EDGE_CURVE('',#66,#68,#69,.T.);
#62=EDGE_CURVE('',#68,#70,#71,.T.);
#63=EDGE_CURVE('',#70,#72,#73,.T.);
#64=EDGE_CURVE('',#72,#65,#74,.T.);
#65=VERTEX_POINT('',#75);
#66=VERTEX_POINT('',#76);
#67=LINE('',#77,#78);
#68=VERTEX_POINT('',#79);
#69=LINE('',#80,#81);
#70=VERTEX_POINT('',#82);
#71=B_SPLINE_CURVE_WITH_KNOTS('',3,(#83,#84,#85,#86,#87,#88,#89,#90,#91,#92,#93,#94,#95,#96,#97,#98,#99,#100,#101),.UNSPECIFIED.,.F.,.F.,(4,1,1,1,1,1,1,1,1,1,1,1,1,1,1,1,4),(0.0,0.125131096407204,0.250262192814408,0.375393289221611,0.500524385628815,0.625655482036019,0.688221030239621,0.750786578443223,0.813352126646825,0.875917674850427,0.907200448952228,0.938483223054029,0.96976599715583,0.97758669068128,0.98540738420673,0.99322807773218,1.00104877125763),.UNSPECIFIED.);
#72=VERTEX_POINT('',#102);
#73=LINE('',#103,#104);
#74=B_SPLINE_CURVE_WITH_KNOTS('',3,(#105,#106,#107,#108,#109,#110,#111,#112,#113,#114,#115,#116,#117,#118,#119,#120,#121,#122,#123,#124,#125,#126,#127,#128,#129,#130,#131),.UNSPECIFIED.,.F.,.F.,(4,1,1,1,1,1,1,1,1,1,1,1,1,1,1,1,1,1,1,1,1,1,1,1,4),(0.0,0.00782131421986731,0.0156426284397346,0.0234639426596019,0.0312852568794692,0.0625705137589385,0.0938557706384077,0.125141027517877,0.187711541276815,0.250282055035754,0.312852568794692,0.375423082553631,0.500564110071508,0.625705137589385,0.688275651348323,0.750846165107262,0.8134166788662,0.875987192625139,0.907272449504608,0.938557706384077,0.969842963263546,0.977664277483414,0.985485591703281,0.993306905923148,1.00112822014302),.UNSPECIFIED.);
#75=CARTESIAN_POINT('',(-1.23930450547549E-36,0.100011207163334,1.5540258718477E-37));
#76=CARTESIAN_POINT('',(-2.7079732494311E-34,0.00999103579670191,-3.32238463156298E-34));
#77=CARTESIAN_POINT('',(2.45337609631112E-35,0.0550011214800179,6.52447119164372E-35));
#78=VECTOR('',#132,1.0);
#79=CARTESIAN_POINT('',(2.91506948997267E-05,-1.11917934191297E-05,0.00132627552375197));
#80=CARTESIAN_POINT('',(1.45753474498633E-05,0.00498992200164139,0.000663137761875987));
#81=VECTOR('',#133,1.0);
#82=CARTESIAN_POINT('',(0.919860005378723,-1.10460359792341E-05,-0.349423617124557));
#83=CARTESIAN_POINT('',(2.91506948997267E-05,-1.11917934191297E-05,0.00132627552375197));
#84=CARTESIAN_POINT('',(0.041725412037214,-0.000155360946027221,0.000251290457772904));
#85=CARTESIAN_POINT('',(0.125015376984895,-1.30125615997309E-05,-0.00582125492077498));
#86=CARTESIAN_POINT('',(0.248585678405387,-7.03887615217737E-05,-0.0263143712854431));
#87=CARTESIAN_POINT('',(0.369859265968293,-5.32498842833692E-05,-0.0576142738082997));
#88=CARTESIAN_POINT('',(0.488068821023662,-5.30944820631312E-05,-0.0989740512165161));
#89=CARTESIAN_POINT('',(0.583506784202037,-4.65147592227814E-05,-0.141180940021864));
#90=CARTESIAN_POINT('',(0.657780177896132,-4.1144285133372E-05,-0.179192068631234));
#91=CARTESIAN_POINT('',(0.712402926858133,-3.63706178435435E-05,-0.20972249938988));
#92=CARTESIAN_POINT('',(0.765902639763822,-3.05441242417913E-05,-0.242178972006873));
#93=CARTESIAN_POINT('',(0.809531654139838,-2.57222173995715E-05,-0.270739052271615));
#94=CARTESIAN_POINT('',(0.843835877414095,-2.24221468177907E-05,-0.294468860814353));
#95=CARTESIAN_POINT('',(0.869301223223999,-1.96688778151986E-05,-0.312638431560315));
#96=CARTESIAN_POINT('',(0.888083243355875,-1.68230975082664E-05,-0.326709455895826));
#97=CARTESIAN_POINT('',(0.900652848950002,-1.46153443709377E-05,-0.336006697258044));
#98=CARTESIAN_POINT('',(0.906761513070661,-1.31393519899254E-05,-0.340911185746157));
#99=CARTESIAN_POINT('',(0.913022038013096,-1.17388630680155E-05,-0.345584457906269));
#100=CARTESIAN_POINT('',(0.917592244041987,-1.1284902347564E-05,-0.348137858663486));
#101=CARTESIAN_POINT('',(0.919860005378723,-1.10460359792341E-05,-0.349423617124557));
#102=CARTESIAN_POINT('',(0.919860363006592,0.10003425180912,-0.349416494369507));
#103=CARTESIAN_POINT('',(0.919866114854813,0.0500116028865705,-0.349413275718689));
#104=VECTOR('',#134,1.0);
#105=CARTESIAN_POINT('',(0.919860363006592,0.10003425180912,-0.349416494369507));
#106=CARTESIAN_POINT('',(0.917592436386322,0.100034374894683,-0.348130607922335));
#107=CARTESIAN_POINT('',(0.913021908629883,0.100034602428209,-0.345576953870783));
#108=CARTESIAN_POINT('',(0.906761160037461,0.100035501498626,-0.340902895888839));
#109=CARTESIAN_POINT('',(0.900651818426175,0.100036469250118,-0.335998290437107));
#110=CARTESIAN_POINT('',(0.888081292562866,0.10003786238995,-0.326700206062531));
#111=CARTESIAN_POINT('',(0.869297889010198,0.100039380419077,-0.312627919586987));
#112=CARTESIAN_POINT('',(0.843830462537477,0.10004035130891,-0.294456987928063));
#113=CARTESIAN_POINT('',(0.80952334514159,0.100041396864531,-0.270725543100294));
#114=CARTESIAN_POINT('',(0.765890631437925,0.10004354797056,-0.242163554323142));
#115=CARTESIAN_POINT('',(0.712386263070541,0.100046417968341,-0.209705181460558));
#116=CARTESIAN_POINT('',(0.657758770395669,0.10004857957159,-0.179173062911649));
#117=CARTESIAN_POINT('',(0.583478756514095,0.100050813060384,-0.141160280124815));
#118=CARTESIAN_POINT('',(0.48803236439945,0.100053175071628,-0.0989523399766781));
#119=CARTESIAN_POINT('',(0.389514990119729,0.100054873356851,-0.0644859371337565));
#120=CARTESIAN_POINT('',(0.309170394124538,0.10005501541854,-0.0419444265301995));
#121=CARTESIAN_POINT('',(0.248240005269089,0.100055382941893,-0.0276477655871914));
#122=CARTESIAN_POINT('',(0.18673802968924,0.100056956742388,-0.0160451287965039));
#123=CARTESIAN_POINT('',(0.135102941259611,0.100056552636811,-0.00870570479640858));
#124=CARTESIAN_POINT('',(0.0936240903422871,0.100055136636337,-0.00423366335664831));
#125=CARTESIAN_POINT('',(0.062449112438605,0.100055637678599,-0.0016659631327247));
#126=CARTESIAN_POINT('',(0.03902111266845,0.100065061474316,-7.7197782001348E-05));
#127=CARTESIAN_POINT('',(0.0234032832594069,0.100053055488431,0.000457374214383306));
#128=CARTESIAN_POINT('',(0.0155783126083601,0.100047526092369,0.00101290433342091));
#129=CARTESIAN_POINT('',(0.00777157437573424,0.10003669324863,0.00114434427266809));
#130=CARTESIAN_POINT('',(0.00258117735305604,0.100019518255822,0.000366673591784488));
#131=CARTESIAN_POINT('',(-1.23930450547549E-36,0.100011207163334,1.5540258718477E-37));
#132=DIRECTION('',(-0.0,-1.0,-0.0));
#133=DIRECTION('',(0.00288912019040725,-0.991318998708952,0.13144693143321));
#134=DIRECTION('',(2.221337560488E-06,0.99991012046061,0.0134071248041898));
ENDSEC;
END-ISO-10303-21;
