ISO-10303-21;
HEADER;
FILE_DESCRIPTION(('STEP AP214'),'1');
FILE_NAME('SMAStripDeformed_05.stp','2026-07-03T17:52:02',(' '),(' '),'Spatial InterOp 3D',' ',' ');
FILE_SCHEMA(('AUTOMOTIVE_DESIGN { 1 0 10303 214 1 1 1 1 }'));
ENDSEC;
DATA;
#1=PRODUCT_DEFINITION_CONTEXT('',#9,'design');
#2=APPLICATION_PROTOCOL_DEFINITION('INTERNATIONAL STANDARD','automotive_design',1994,#9);
#3=PRODUCT_CATEGORY_RELATIONSHIP('NONE','NONE',#10,#11);
#4=SHAPE_DEFINITION_REPRESENTATION(#12,#13);
#5= (GEOMETRIC_REPRESENTATION_CONTEXT(3)GLOBAL_UNCERTAINTY_ASSIGNED_CONTEXT((#16))GLOBAL_UNIT_ASSIGNED_CONTEXT((#18,#19,#20))REPRESENTATION_CONTEXT('NONE','WORKSPACE'));
#9=APPLICATION_CONTEXT(' ');
#10=PRODUCT_CATEGORY('part','NONE');
#11=PRODUCT_RELATED_PRODUCT_CATEGORY('detail',' ',(#22));
#12=PRODUCT_DEFINITION_SHAPE('NONE','NONE',#23);
#13=MANIFOLD_SURFACE_SHAPE_REPRESENTATION('1',(#24,#25),#5);
#16=UNCERTAINTY_MEASURE_WITH_UNIT(LENGTH_MEASURE(1.0E-06),#18,'','');
#18= (CONVERSION_BASED_UNIT('MILLIMETRE',#28)LENGTH_UNIT()NAMED_UNIT(#31));
#19= (NAMED_UNIT(#33)PLANE_ANGLE_UNIT()SI_UNIT($,.RADIAN.));
#20= (NAMED_UNIT(#33)SOLID_ANGLE_UNIT()SI_UNIT($,.STERADIAN.));
#22=PRODUCT('1','','PART--DESC',(#39));
#23=PRODUCT_DEFINITION('','NONE',#40,#1);
#24=SHELL_BASED_SURFACE_MODEL('1',(#41));
#25=AXIS2_PLACEMENT_3D('',#42,#43,#44);
#28=LENGTH_MEASURE_WITH_UNIT(LENGTH_MEASURE(1.0),#45);
#31=DIMENSIONAL_EXPONENTS(1.0,0.0,0.0,0.0,0.0,0.0,0.0);
#33=DIMENSIONAL_EXPONENTS(0.0,0.0,0.0,0.0,0.0,0.0,0.0);
#39=PRODUCT_CONTEXT('',#9,'mechanical');
#40=PRODUCT_DEFINITION_FORMATION_WITH_SPECIFIED_SOURCE(' ','NONE',#22,.NOT_KNOWN.);
#41=CLOSED_SHELL('',(#46));
#42=CARTESIAN_POINT('',(0.0,0.0,0.0));
#43=DIRECTION('',(0.0,0.0,1.0));
#44=DIRECTION('',(1.0,0.0,0.0));
#45= (NAMED_UNIT(#31)LENGTH_UNIT()SI_UNIT(.MILLI.,.METRE.));
#46=FACE_SURFACE('',(#48),#49,.T.);
#48=FACE_BOUND('',#50,.T.);
#49=CYLINDRICAL_SURFACE('',#51,1.27159399722077);
#50=EDGE_LOOP('',(#52,#53,#54,#55,#56,#57));
#51=AXIS2_PLACEMENT_3D('',#58,#59,#60);
#52=ORIENTED_EDGE('',*,*,#61,.T.);
#53=ORIENTED_EDGE('',*,*,#62,.T.);
#54=ORIENTED_EDGE('',*,*,#63,.T.);
#55=ORIENTED_EDGE('',*,*,#64,.T.);
#56=ORIENTED_EDGE('',*,*,#65,.T.);
#57=ORIENTED_EDGE('',*,*,#66,.T.);
#58=CARTESIAN_POINT('',(-0.156849482732581,0.000288647477103413,-1.25326482134163));
#59=DIRECTION('',(0.00167429565073983,-0.999998501628071,-0.00043985871314359));
#60=DIRECTION('',(0.0,-0.000439859329665358,0.99999990326188));
#61=EDGE_CURVE('',#67,#68,#69,.T.);
#62=EDGE_CURVE('',#68,#70,#71,.T.);
#63=EDGE_CURVE('',#70,#72,#73,.T.);
#64=EDGE_CURVE('',#72,#74,#75,.T.);
#65=EDGE_CURVE('',#74,#76,#77,.T.);
#66=EDGE_CURVE('',#76,#67,#78,.T.);
#67=VERTEX_POINT('',#79);
#68=VERTEX_POINT('',#80);
#69=LINE('',#81,#82);
#70=VERTEX_POINT('',#83);
#71=B_SPLINE_CURVE_WITH_KNOTS('',3,(#84,#85,#86,#87,#88,#89,#90,#91,#92,#93,#94,#95,#96,#97,#98,#99,#100,#101,#102,#103,#104,#105),.UNSPECIFIED.,.F.,.F.,(4,1,1,1,1,1,1,1,1,1,1,1,1,1,1,1,1,1,1,4),(0.0,0.125146688253877,0.250293376507753,0.37544006476163,0.500586753015506,0.563160097142445,0.625733441269383,0.688306785396321,0.750880129523259,0.813453473650198,0.844740145713667,0.876026817777136,0.907313489840605,0.938600161904074,0.954243497935809,0.969886833967543,0.977708501983411,0.985530169999278,0.993351838015145,1.00117350603101),.UNSPECIFIED.);
#72=VERTEX_POINT('',#106);
#73=LINE('',#107,#108);
#74=VERTEX_POINT('',#109);
#75=LINE('',#110,#111);
#76=VERTEX_POINT('',#112);
#77=LINE('',#113,#114);
#78=B_SPLINE_CURVE_WITH_KNOTS('',3,(#115,#116,#117,#118,#119,#120,#121,#122,#123,#124,#125,#126,#127,#128,#129,#130,#131,#132,#133,#134,#135,#136),.UNSPECIFIED.,.F.,.F.,(4,1,1,1,1,1,1,1,1,1,1,1,1,1,1,1,1,1,1,4),(0.0,0.00782536959718741,0.0156507391943748,0.0234761087915622,0.0313014783887496,0.0469522175831245,0.0626029567774993,0.0939044351662489,0.125205913554999,0.156507391943748,0.187808870332498,0.250411827109997,0.313014783887496,0.375617740664996,0.438220697442495,0.500823654219994,0.626029567774993,0.751235481329991,0.87644139488499,1.00164730843999),.UNSPECIFIED.);
#79=CARTESIAN_POINT('',(0.849898099899292,-5.72067401662935E-05,-0.473190695047379));
#80=CARTESIAN_POINT('',(0.849567472934723,0.0999908596277237,-0.472937881946564));
#81=CARTESIAN_POINT('',(0.849723726511002,0.0499668264437787,-0.47304505109787));
#82=VECTOR('',#137,1.0);
#83=CARTESIAN_POINT('',(0.000176596877281554,0.100013136863708,0.00348326587118208));
#84=CARTESIAN_POINT('',(0.849567472934723,0.0999908596277237,-0.472937881946564));
#85=CARTESIAN_POINT('',(0.823310140891389,0.0999935643845867,-0.440522751493218));
#86=CARTESIAN_POINT('',(0.768065758906632,0.100006574901304,-0.377893950488491));
#87=CARTESIAN_POINT('',(0.676826042002247,0.100019218660917,-0.292037197554781));
#88=CARTESIAN_POINT('',(0.578216436290586,0.100033056885587,-0.214778763950802));
#89=CARTESIAN_POINT('',(0.490551426542517,0.100047725448052,-0.158080119365832));
#90=CARTESIAN_POINT('',(0.417393950879454,0.100054871865005,-0.117917482755839));
#91=CARTESIAN_POINT('',(0.361095107318006,0.100062633866736,-0.0905611001264333));
#92=CARTESIAN_POINT('',(0.303465143764393,0.10007760883228,-0.0661295238755946));
#93=CARTESIAN_POINT('',(0.244621678625949,0.100081549186286,-0.0447820941667194));
#94=CARTESIAN_POINT('',(0.194687597884942,0.100060781991723,-0.0296907108084625));
#95=CARTESIAN_POINT('',(0.15427955757212,0.100063975125631,-0.0193119119172588));
#96=CARTESIAN_POINT('',(0.123764539951346,0.1000849798133,-0.0123880635440756));
#97=CARTESIAN_POINT('',(0.0930638247392189,0.100132698753604,-0.00635633391932863));
#98=CARTESIAN_POINT('',(0.0673432639913073,0.100163049305224,-0.00203185014160185));
#99=CARTESIAN_POINT('',(0.0467024337413542,0.100160199125016,0.000889019246407643));
#100=CARTESIAN_POINT('',(0.0337681877555443,0.10014831207533,0.00272230345937584));
#101=CARTESIAN_POINT('',(0.0234239724588136,0.100117577132674,0.00366590934523527));
#102=CARTESIAN_POINT('',(0.0156265990864689,0.100097311613261,0.00503524881379352));
#103=CARTESIAN_POINT('',(0.00787845469854553,0.100067920235543,0.00547124255307248));
#104=CARTESIAN_POINT('',(0.00270719230304404,0.100030854960895,0.00411046832757249));
#105=CARTESIAN_POINT('',(0.000176596877281554,0.100013136863708,0.00348326587118208));
#106=CARTESIAN_POINT('',(-2.66077393700322E-34,0.0900089666247368,-1.67989404060221E-34));
#107=CARTESIAN_POINT('',(8.8298438640777E-05,0.0950110517442226,0.00174163293559104));
#108=VECTOR('',#138,1.0);
#109=CARTESIAN_POINT('',(-1.00726825225016E-33,0.00999103579670191,-3.23443515442491E-34));
#110=CARTESIAN_POINT('',(-7.67021084171082E-35,0.0500000012107193,5.77643204535101E-35));
#111=VECTOR('',#139,1.0);
#112=CARTESIAN_POINT('',(0.000141562530188821,-9.96656217466807E-06,0.00354039506055415));
#113=CARTESIAN_POINT('',(7.07812650944106E-05,0.00499053461726362,0.00177019753027707));
#114=VECTOR('',#140,1.0);
#115=CARTESIAN_POINT('',(0.000141562530188821,-9.96656217466807E-06,0.00354039506055415));
#116=CARTESIAN_POINT('',(0.00267690700683618,-2.80041033793009E-05,0.00415337835008117));
#117=CARTESIAN_POINT('',(0.00785427629314545,-6.56898123608946E-05,0.00548283597478402));
#118=CARTESIAN_POINT('',(0.0156078874530244,-9.60976138625973E-05,0.00503967839592659));
#119=CARTESIAN_POINT('',(0.023407468163294,-0.000117321895796763,0.00367944184049281));
#120=CARTESIAN_POINT('',(0.0337575693345406,-0.000149094438447096,0.00273175540389114));
#121=CARTESIAN_POINT('',(0.0466976707944448,-0.000162053623980103,0.000901666321570793));
#122=CARTESIAN_POINT('',(0.0673487769541206,-0.000166131771596642,-0.00201948907796846));
#123=CARTESIAN_POINT('',(0.0930818347742971,-0.000136656891604754,-0.00634301286793365));
#124=CARTESIAN_POINT('',(0.123797616772582,-8.98072226535583E-05,-0.0123752082849262));
#125=CARTESIAN_POINT('',(0.154327555884153,-7.03023959392263E-05,-0.0193001541494937));
#126=CARTESIAN_POINT('',(0.194755321109911,-6.97423038401584E-05,-0.029681562156352));
#127=CARTESIAN_POINT('',(0.24471363539154,-9.44986631948684E-05,-0.044778141280455));
#128=CARTESIAN_POINT('',(0.303585282032528,-9.46596314721665E-05,-0.0661348041824716));
#129=CARTESIAN_POINT('',(0.361242386509843,-8.34342816855541E-05,-0.0905783255502951));
#130=CARTESIAN_POINT('',(0.417567041838833,-7.95641223202952E-05,-0.117949343799993));
#131=CARTESIAN_POINT('',(0.490757706759362,-7.73086166039385E-05,-0.158133826067032));
#132=CARTESIAN_POINT('',(0.578457127690248,-6.69542250071445E-05,-0.214869821898779));
#133=CARTESIAN_POINT('',(0.677105657018903,-6.21390051840645E-05,-0.292175798094749));
#134=CARTESIAN_POINT('',(0.768377058617426,-6.45030733735198E-05,-0.378084927337272));
#135=CARTESIAN_POINT('',(0.823638594768108,-5.04072122198228E-05,-0.440751922147194));
#136=CARTESIAN_POINT('',(0.849898099899292,-5.72067401662935E-05,-0.473190695047379));
#137=DIRECTION('',(-0.00361635948895518,0.999988910064163,0.00301690118067308));
#138=DIRECTION('',(-0.016668410907276,-0.944261432571437,-0.328774255433669));
#139=DIRECTION('',(-0.0,-1.0,-0.0));
#140=DIRECTION('',(0.0133422271829965,-0.942591555490239,0.333681201886304));
ENDSEC;
END-ISO-10303-21;
