ISO-10303-21;
HEADER;
FILE_DESCRIPTION(('STEP AP214'),'1');
FILE_NAME('SMAStripDeformed_06.stp','2026-07-17T15:57:03',(' '),(' '),'Spatial InterOp 3D',' ',' ');
FILE_SCHEMA(('AUTOMOTIVE_DESIGN { 1 0 10303 214 1 1 1 1 }'));
ENDSEC;
DATA;
#1=PRODUCT_DEFINITION_CONTEXT('',#9,'design');
#2=APPLICATION_PROTOCOL_DEFINITION('INTERNATIONAL STANDARD','automotive_design',1994,#9);
#3=PRODUCT_CATEGORY_RELATIONSHIP('NONE','NONE',#10,#11);
#4=SHAPE_DEFINITION_REPRESENTATION(#12,#13);
#5= (GEOMETRIC_REPRESENTATION_CONTEXT(3)GLOBAL_UNCERTAINTY_ASSIGNED_CONTEXT((#16))GLOBAL_UNIT_ASSIGNED_CONTEXT((#18,#19,#20))REPRESENTATION_CONTEXT('NONE','WORKSPACE'));
#9=APPLICATION_CONTEXT(' ');
#10=PRODUCT_CATEGORY('part','NONE');
#11=PRODUCT_RELATED_PRODUCT_CATEGORY('detail',' ',(#22));
#12=PRODUCT_DEFINITION_SHAPE('NONE','NONE',#23);
#13=MANIFOLD_SURFACE_SHAPE_REPRESENTATION('1',(#24,#25),#5);
#16=UNCERTAINTY_MEASURE_WITH_UNIT(LENGTH_MEASURE(1.0E-06),#18,'','');
#18= (CONVERSION_BASED_UNIT('MILLIMETRE',#28)LENGTH_UNIT()NAMED_UNIT(#31));
#19= (NAMED_UNIT(#33)PLANE_ANGLE_UNIT()SI_UNIT($,.RADIAN.));
#20= (NAMED_UNIT(#33)SOLID_ANGLE_UNIT()SI_UNIT($,.STERADIAN.));
#22=PRODUCT('1','','PART--DESC',(#39));
#23=PRODUCT_DEFINITION('','NONE',#40,#1);
#24=SHELL_BASED_SURFACE_MODEL('1',(#41));
#25=AXIS2_PLACEMENT_3D('',#42,#43,#44);
#28=LENGTH_MEASURE_WITH_UNIT(LENGTH_MEASURE(1.0),#45);
#31=DIMENSIONAL_EXPONENTS(1.0,0.0,0.0,0.0,0.0,0.0,0.0);
#33=DIMENSIONAL_EXPONENTS(0.0,0.0,0.0,0.0,0.0,0.0,0.0);
#39=PRODUCT_CONTEXT('',#9,'mechanical');
#40=PRODUCT_DEFINITION_FORMATION_WITH_SPECIFIED_SOURCE(' ','NONE',#22,.NOT_KNOWN.);
#41=CLOSED_SHELL('',(#46));
#42=CARTESIAN_POINT('',(0.0,0.0,0.0));
#43=DIRECTION('',(0.0,0.0,1.0));
#44=DIRECTION('',(1.0,0.0,0.0));
#45= (NAMED_UNIT(#31)LENGTH_UNIT()SI_UNIT(.MILLI.,.METRE.));
#46=FACE_SURFACE('',(#48),#49,.T.);
#48=FACE_BOUND('',#50,.T.);
#49=CYLINDRICAL_SURFACE('',#51,1.21948732378157);
#50=EDGE_LOOP('',(#52,#53,#54,#55,#56,#57,#58,#59,#60,#61,#62));
#51=AXIS2_PLACEMENT_3D('',#63,#64,#65);
#52=ORIENTED_EDGE('',*,*,#66,.T.);
#53=ORIENTED_EDGE('',*,*,#67,.T.);
#54=ORIENTED_EDGE('',*,*,#68,.T.);
#55=ORIENTED_EDGE('',*,*,#69,.T.);
#56=ORIENTED_EDGE('',*,*,#70,.T.);
#57=ORIENTED_EDGE('',*,*,#71,.T.);
#58=ORIENTED_EDGE('',*,*,#72,.T.);
#59=ORIENTED_EDGE('',*,*,#73,.T.);
#60=ORIENTED_EDGE('',*,*,#74,.T.);
#61=ORIENTED_EDGE('',*,*,#75,.T.);
#62=ORIENTED_EDGE('',*,*,#76,.T.);
#63=CARTESIAN_POINT('',(-0.193780064439318,-0.00138788369676488,-1.19304022802582));
#64=DIRECTION('',(0.00251085603145486,-0.999996562415606,0.000755485909755319));
#65=DIRECTION('',(-2.23231148943808E-22,0.000755488291208513,0.99999971461868));
#66=EDGE_CURVE('',#77,#78,#79,.T.);
#67=EDGE_CURVE('',#78,#80,#81,.T.);
#68=EDGE_CURVE('',#80,#82,#83,.T.);
#69=EDGE_CURVE('',#82,#84,#85,.T.);
#70=EDGE_CURVE('',#84,#86,#87,.T.);
#71=EDGE_CURVE('',#86,#88,#89,.T.);
#72=EDGE_CURVE('',#88,#90,#91,.T.);
#73=EDGE_CURVE('',#90,#92,#93,.T.);
#74=EDGE_CURVE('',#92,#94,#95,.T.);
#75=EDGE_CURVE('',#94,#96,#97,.T.);
#76=EDGE_CURVE('',#96,#77,#98,.T.);
#77=VERTEX_POINT('',#99);
#78=VERTEX_POINT('',#100);
#79=LINE('',#101,#102);
#80=VERTEX_POINT('',#103);
#81=LINE('',#104,#105);
#82=VERTEX_POINT('',#106);
#83=LINE('',#107,#108);
#84=VERTEX_POINT('',#109);
#85=B_SPLINE_CURVE_WITH_KNOTS('',3,(#110,#111,#112,#113,#114,#115,#116,#117),.UNSPECIFIED.,.F.,.F.,(4,1,1,1,1,4),(0.0,0.247749792273282,0.495499584546564,0.743249376819845,0.867124272956486,0.990999169093127),.UNSPECIFIED.);
#86=VERTEX_POINT('',#118);
#87=LINE('',#119,#120);
#88=VERTEX_POINT('',#121);
#89=LINE('',#122,#123);
#90=VERTEX_POINT('',#124);
#91=LINE('',#125,#126);
#92=VERTEX_POINT('',#127);
#93=LINE('',#128,#129);
#94=VERTEX_POINT('',#130);
#95=B_SPLINE_CURVE_WITH_KNOTS('',3,(#131,#132,#133,#134,#135,#136,#137,#138,#139,#140),.UNSPECIFIED.,.F.,.F.,(4,1,1,1,1,1,1,4),(0.0,0.123988563853132,0.247977127706263,0.371965691559395,0.495954255412527,0.74393138311879,0.867919946971922,0.991908510825053),.UNSPECIFIED.);
#96=VERTEX_POINT('',#141);
#97=LINE('',#142,#143);
#98=LINE('',#144,#145);
#99=CARTESIAN_POINT('',(0.826484382152557,0.0498783029615879,-0.510565936565399));
#100=CARTESIAN_POINT('',(0.826551258563995,0.0698843002319336,-0.510306894779205));
#101=CARTESIAN_POINT('',(0.826517820358276,0.0598813015967607,-0.510436415672302));
#102=VECTOR('',#146,1.0);
#103=CARTESIAN_POINT('',(0.826613306999207,0.0898903608322144,-0.510051548480988));
#104=CARTESIAN_POINT('',(0.826582282781601,0.079887330532074,-0.510179221630096));
#105=VECTOR('',#147,1.0);
#106=CARTESIAN_POINT('',(0.820392727851868,0.0998983532190323,-0.514463007450104));
#107=CARTESIAN_POINT('',(0.823503017425537,0.0948943570256233,-0.512257277965546));
#108=VECTOR('',#148,1.0);
#109=CARTESIAN_POINT('',(0.0103289764374495,0.100090742111206,0.00741156516596675));
#110=CARTESIAN_POINT('',(0.820392727851868,0.0998983532190323,-0.514463007450104));
#111=CARTESIAN_POINT('',(0.773519781913715,0.099917343797701,-0.446470933747529));
#112=CARTESIAN_POINT('',(0.66701567609959,0.0999649965712838,-0.319238428289888));
#113=CARTESIAN_POINT('',(0.473153533435601,0.0999958602586004,-0.163104050142939));
#114=CARTESIAN_POINT('',(0.289468856371374,0.100099020328333,-0.0665058766190949));
#115=CARTESIAN_POINT('',(0.132297372240614,0.100033473653753,-0.014759531728887));
#116=CARTESIAN_POINT('',(0.0512039468875368,0.100214360494961,0.00156174583674584));
#117=CARTESIAN_POINT('',(0.0103289764374495,0.100090742111206,0.00741156516596675));
#118=CARTESIAN_POINT('',(0.000176576257217675,0.100013136863708,0.00348298810422421));
#119=CARTESIAN_POINT('',(0.00525277634733357,0.100051939487457,0.00544727663509548));
#120=VECTOR('',#149,1.0);
#121=CARTESIAN_POINT('',(-2.71602469696801E-34,0.0900089666247368,-1.60940409840496E-34));
#122=CARTESIAN_POINT('',(8.82881286088377E-05,0.0950110517442226,0.0017414940521121));
#123=VECTOR('',#150,1.0);
#124=CARTESIAN_POINT('',(-1.26808923469801E-33,0.00999103579670191,-6.53861431722953E-34));
#125=CARTESIAN_POINT('',(-2.43315575676705E-34,0.0500000012107193,-7.33501128073415E-35));
#126=VECTOR('',#151,1.0);
#127=CARTESIAN_POINT('',(0.000790502468589693,-9.82721030595712E-06,0.00868499558418989));
#128=CARTESIAN_POINT('',(0.000395251234294847,0.00499060429319798,0.00434249779209495));
#129=VECTOR('',#152,1.0);
#130=CARTESIAN_POINT('',(0.815520882606506,-0.000146943697473034,-0.507156133651733));
#131=CARTESIAN_POINT('',(0.000790502468589693,-9.82721030595712E-06,0.00868499558418989));
#132=CARTESIAN_POINT('',(0.0417734642782731,-0.000414492931673507,0.00335935791760261));
#133=CARTESIAN_POINT('',(0.123078555141924,2.04268732804204E-05,-0.012365595945171));
#134=CARTESIAN_POINT('',(0.241397998528503,-0.000150433783981186,-0.0501037239240161));
#135=CARTESIAN_POINT('',(0.35475829298423,-0.000107858640336338,-0.100779644861719));
#136=CARTESIAN_POINT('',(0.497979518265854,-0.000118419083764956,-0.183768808200399));
#137=CARTESIAN_POINT('',(0.628022925920558,-0.000118309257499971,-0.287083825718585));
#138=CARTESIAN_POINT('',(0.7413955005095,-0.00013300378474533,-0.407685087139145));
#139=CARTESIAN_POINT('',(0.791824764939125,-0.000147437242797814,-0.473294306517838));
#140=CARTESIAN_POINT('',(0.815520882606506,-0.000146943697473034,-0.507156133651733));
#141=CARTESIAN_POINT('',(0.826316237449646,-0.00013661639241036,-0.511214554309845));
#142=CARTESIAN_POINT('',(0.820918560028076,-0.000141780044941697,-0.509185343980789));
#143=VECTOR('',#153,1.0);
#144=CARTESIAN_POINT('',(0.826400309801102,0.0248708432845888,-0.510890245437622));
#145=VECTOR('',#154,1.0);
#146=DIRECTION('',(0.0033425193238613,0.999910596746869,0.0129470490031207));
#147=DIRECTION('',(0.00310121442234569,0.999913661558979,0.0127691776094717));
#148=DIRECTION('',(-0.494387803575307,0.795396900694376,-0.350605861391057));
#149=DIRECTION('',(-0.932587204068569,-0.00712872419329178,-0.360874338376873));
#150=DIRECTION('',(-0.0166666088416673,-0.944269602185796,-0.328750882185278));
#151=DIRECTION('',(-0.0,-1.0,-0.0));
#152=DIRECTION('',(0.0595742990262218,-0.753690756162599,0.654523603066065));
#153=DIRECTION('',(0.936038782614536,0.00089545533231807,-0.351895716940752));
#154=DIRECTION('',(0.00336192925728469,0.999910279727813,0.0129664924446355));
ENDSEC;
END-ISO-10303-21;
