ISO-10303-21;
HEADER;
FILE_DESCRIPTION(('STEP AP214'),'1');
FILE_NAME('SMAStripDeformed_02.stp','2026-07-17T15:54:17',(' '),(' '),'Spatial InterOp 3D',' ',' ');
FILE_SCHEMA(('AUTOMOTIVE_DESIGN { 1 0 10303 214 1 1 1 1 }'));
ENDSEC;
DATA;
#1=PRODUCT_DEFINITION_CONTEXT('',#9,'design');
#2=APPLICATION_PROTOCOL_DEFINITION('INTERNATIONAL STANDARD','automotive_design',1994,#9);
#3=PRODUCT_CATEGORY_RELATIONSHIP('NONE','NONE',#10,#11);
#4=SHAPE_DEFINITION_REPRESENTATION(#12,#13);
#5= (GEOMETRIC_REPRESENTATION_CONTEXT(3)GLOBAL_UNCERTAINTY_ASSIGNED_CONTEXT((#16))GLOBAL_UNIT_ASSIGNED_CONTEXT((#18,#19,#20))REPRESENTATION_CONTEXT('NONE','WORKSPACE'));
#9=APPLICATION_CONTEXT(' ');
#10=PRODUCT_CATEGORY('part','NONE');
#11=PRODUCT_RELATED_PRODUCT_CATEGORY('detail',' ',(#22));
#12=PRODUCT_DEFINITION_SHAPE('NONE','NONE',#23);
#13=MANIFOLD_SURFACE_SHAPE_REPRESENTATION('1',(#24,#25),#5);
#16=UNCERTAINTY_MEASURE_WITH_UNIT(LENGTH_MEASURE(1.0E-06),#18,'','');
#18= (CONVERSION_BASED_UNIT('MILLIMETRE',#28)LENGTH_UNIT()NAMED_UNIT(#31));
#19= (NAMED_UNIT(#33)PLANE_ANGLE_UNIT()SI_UNIT($,.RADIAN.));
#20= (NAMED_UNIT(#33)SOLID_ANGLE_UNIT()SI_UNIT($,.STERADIAN.));
#22=PRODUCT('1','','PART--DESC',(#39));
#23=PRODUCT_DEFINITION('','NONE',#40,#1);
#24=SHELL_BASED_SURFACE_MODEL('1',(#41));
#25=AXIS2_PLACEMENT_3D('',#42,#43,#44);
#28=LENGTH_MEASURE_WITH_UNIT(LENGTH_MEASURE(1.0),#45);
#31=DIMENSIONAL_EXPONENTS(1.0,0.0,0.0,0.0,0.0,0.0,0.0);
#33=DIMENSIONAL_EXPONENTS(0.0,0.0,0.0,0.0,0.0,0.0,0.0);
#39=PRODUCT_CONTEXT('',#9,'mechanical');
#40=PRODUCT_DEFINITION_FORMATION_WITH_SPECIFIED_SOURCE(' ','NONE',#22,.NOT_KNOWN.);
#41=CLOSED_SHELL('',(#46));
#42=CARTESIAN_POINT('',(0.0,0.0,0.0));
#43=DIRECTION('',(0.0,0.0,1.0));
#44=DIRECTION('',(1.0,0.0,0.0));
#45= (NAMED_UNIT(#31)LENGTH_UNIT()SI_UNIT(.MILLI.,.METRE.));
#46=FACE_SURFACE('',(#48),#49,.T.);
#48=FACE_BOUND('',#50,.T.);
#49=CYLINDRICAL_SURFACE('',#51,2.02689493432227);
#50=EDGE_LOOP('',(#52,#53,#54,#55,#56));
#51=AXIS2_PLACEMENT_3D('',#57,#58,#59);
#52=ORIENTED_EDGE('',*,*,#60,.T.);
#53=ORIENTED_EDGE('',*,*,#61,.T.);
#54=ORIENTED_EDGE('',*,*,#62,.T.);
#55=ORIENTED_EDGE('',*,*,#63,.T.);
#56=ORIENTED_EDGE('',*,*,#64,.T.);
#57=CARTESIAN_POINT('',(-0.0430078283012394,-2.05440534802666E-05,-2.02511170607528));
#58=DIRECTION('',(-2.44404673215002E-05,-0.999999999644475,1.06636836570138E-05));
#59=DIRECTION('',(0.0,1.06636836601987E-05,0.999999999943143));
#60=EDGE_CURVE('',#65,#66,#67,.T.);
#61=EDGE_CURVE('',#66,#68,#69,.T.);
#62=EDGE_CURVE('',#68,#70,#71,.T.);
#63=EDGE_CURVE('',#70,#72,#73,.T.);
#64=EDGE_CURVE('',#72,#65,#74,.T.);
#65=VERTEX_POINT('',#75);
#66=VERTEX_POINT('',#76);
#67=B_SPLINE_CURVE_WITH_KNOTS('',3,(#77,#78,#79,#80,#81,#82,#83,#84,#85,#86,#87,#88),.UNSPECIFIED.,.F.,.F.,(4,1,1,1,1,1,1,1,1,4),(0.0,0.125083927565738,0.250167855131475,0.375251782697213,0.50033571026295,0.625419637828688,0.750503565394426,0.875587492960163,0.938129456743032,1.0006714205259),.UNSPECIFIED.);
#68=VERTEX_POINT('',#89);
#69=LINE('',#90,#91);
#70=VERTEX_POINT('',#92);
#71=LINE('',#93,#94);
#72=VERTEX_POINT('',#95);
#73=B_SPLINE_CURVE_WITH_KNOTS('',3,(#96,#97,#98,#99,#100,#101,#102,#103,#104,#105,#106),.UNSPECIFIED.,.F.,.F.,(4,1,1,1,1,1,1,1,4),(0.0,0.125084093840522,0.250168187681043,0.375252281521565,0.500336375362086,0.625420469202608,0.75050456304313,0.875588656883651,1.00067275072417),.UNSPECIFIED.);
#74=LINE('',#107,#108);
#75=CARTESIAN_POINT('',(0.955785095691681,0.100021809339523,-0.260273098945618));
#76=CARTESIAN_POINT('',(-1.65895335203586E-36,0.100011207163334,5.85921395616006E-38));
#77=CARTESIAN_POINT('',(0.955785095691681,0.100021809339523,-0.260273098945618));
#78=CARTESIAN_POINT('',(0.919164685021379,0.100027940267808,-0.240338488345453));
#79=CARTESIAN_POINT('',(0.844960571500718,0.100029087393017,-0.202230846529227));
#80=CARTESIAN_POINT('',(0.730638349025641,0.100035784068592,-0.151346754508253));
#81=CARTESIAN_POINT('',(0.613617102653967,0.100039012472085,-0.107018534790777));
#82=CARTESIAN_POINT('',(0.494164764687618,0.100040958020387,-0.0697138627413847));
#83=CARTESIAN_POINT('',(0.372636953951617,0.100041514841557,-0.039842964147357));
#84=CARTESIAN_POINT('',(0.249443007199289,0.100039048154399,-0.0177906357162666));
#85=CARTESIAN_POINT('',(0.145785711798653,0.100040166498991,-0.00629370571689322));
#86=CARTESIAN_POINT('',(0.0625330180360817,0.100031359177938,-0.00126188752986608));
#87=CARTESIAN_POINT('',(0.0208449958537618,0.100046735394178,-0.000309336966731336));
#88=CARTESIAN_POINT('',(-1.65895335203586E-36,0.100011207163334,5.85921395616006E-38));
#89=CARTESIAN_POINT('',(-2.00492261374952E-33,0.0100011210888624,2.98347744201767E-34));
#90=CARTESIAN_POINT('',(4.04662828244619E-34,0.0550061641260982,8.11677471710347E-35));
#91=VECTOR('',#109,1.0);
#92=CARTESIAN_POINT('',(-2.01215641482122E-07,-1.12058141894522E-05,-5.57877283426933E-05));
#93=CARTESIAN_POINT('',(-1.00607820741061E-07,0.00499495763733648,-2.78938641713466E-05));
#94=VECTOR('',#110,1.0);
#95=CARTESIAN_POINT('',(0.955786764621735,-2.14497013075743E-05,-0.260273456573486));
#96=CARTESIAN_POINT('',(-2.01215641482122E-07,-1.12058141894522E-05,-5.57877283426933E-05));
#97=CARTESIAN_POINT('',(0.0416931735328427,-8.19400089528352E-05,-0.000380342245217754));
#98=CARTESIAN_POINT('',(0.125054895193394,-1.5360728204069E-05,-0.00398042583049652));
#99=CARTESIAN_POINT('',(0.249443828681768,-4.5425682875472E-05,-0.0177941138705165));
#100=CARTESIAN_POINT('',(0.372637932941826,-3.93147517615055E-05,-0.0398418378815441));
#101=CARTESIAN_POINT('',(0.494165899675328,-4.09315035915359E-05,-0.06971404891481));
#102=CARTESIAN_POINT('',(0.613618390766344,-3.83278993180769E-05,-0.107018453713343));
#103=CARTESIAN_POINT('',(0.730639775455233,-3.52593278034448E-05,-0.151346880592537));
#104=CARTESIAN_POINT('',(0.844962084237608,-2.85715181463847E-05,-0.20223113331136));
#105=CARTESIAN_POINT('',(0.919166444634734,-2.7552845916722E-05,-0.240338563454144));
#106=CARTESIAN_POINT('',(0.955786764621735,-2.14497013075743E-05,-0.260273456573486));
#107=CARTESIAN_POINT('',(0.955864727497101,0.0500001798191079,-0.260123834013939));
#108=VECTOR('',#111,1.0);
#109=DIRECTION('',(-0.0,-1.0,-0.0));
#110=DIRECTION('',(-2.00964790682718E-05,-0.999984477100177,-0.00557181790961803));
#111=DIRECTION('',(-9.05579856066623E-06,0.999999999958979,-1.87230019184618E-07));
ENDSEC;
END-ISO-10303-21;
