ISO-10303-21;
HEADER;
FILE_DESCRIPTION(('STEP AP214'),'1');
FILE_NAME('shade-3_3_(Blocker).stp','2026-09-23T19:56:15',(' '),(' '),'Spatial InterOp 3D',' ',' ');
FILE_SCHEMA(('AUTOMOTIVE_DESIGN { 1 0 10303 214 1 1 1 1 }'));
ENDSEC;
DATA;
#1=PRODUCT_DEFINITION_CONTEXT('',#9,'design');
#2=APPLICATION_PROTOCOL_DEFINITION('INTERNATIONAL STANDARD','automotive_design',1994,#9);
#3=PRODUCT_CATEGORY_RELATIONSHIP('NONE','NONE',#10,#11);
#4=SHAPE_DEFINITION_REPRESENTATION(#12,#13);
#5= (GEOMETRIC_REPRESENTATION_CONTEXT(3)GLOBAL_UNCERTAINTY_ASSIGNED_CONTEXT((#16))GLOBAL_UNIT_ASSIGNED_CONTEXT((#18,#19,#20))REPRESENTATION_CONTEXT('NONE','WORKSPACE'));
#9=APPLICATION_CONTEXT(' ');
#10=PRODUCT_CATEGORY('part','NONE');
#11=PRODUCT_RELATED_PRODUCT_CATEGORY('detail',' ',(#22));
#12=PRODUCT_DEFINITION_SHAPE('NONE','NONE',#23);
#13=MANIFOLD_SURFACE_SHAPE_REPRESENTATION('1',(#24,#25),#5);
#16=UNCERTAINTY_MEASURE_WITH_UNIT(LENGTH_MEASURE(1.0E-06),#18,'','');
#18= (CONVERSION_BASED_UNIT('MILLIMETRE',#28)LENGTH_UNIT()NAMED_UNIT(#31));
#19= (NAMED_UNIT(#33)PLANE_ANGLE_UNIT()SI_UNIT($,.RADIAN.));
#20= (NAMED_UNIT(#33)SOLID_ANGLE_UNIT()SI_UNIT($,.STERADIAN.));
#22=PRODUCT('1','','PART--DESC',(#39));
#23=PRODUCT_DEFINITION('','NONE',#40,#1);
#24=SHELL_BASED_SURFACE_MODEL('1',(#41));
#25=AXIS2_PLACEMENT_3D('',#42,#43,#44);
#28=LENGTH_MEASURE_WITH_UNIT(LENGTH_MEASURE(1.0),#45);
#31=DIMENSIONAL_EXPONENTS(1.0,0.0,0.0,0.0,0.0,0.0,0.0);
#33=DIMENSIONAL_EXPONENTS(0.0,0.0,0.0,0.0,0.0,0.0,0.0);
#39=PRODUCT_CONTEXT('',#9,'mechanical');
#40=PRODUCT_DEFINITION_FORMATION_WITH_SPECIFIED_SOURCE(' ','NONE',#22,.NOT_KNOWN.);
#41=CLOSED_SHELL('',(#46));
#42=CARTESIAN_POINT('',(0.0,0.0,0.0));
#43=DIRECTION('',(0.0,0.0,1.0));
#44=DIRECTION('',(1.0,0.0,0.0));
#45= (NAMED_UNIT(#31)LENGTH_UNIT()SI_UNIT(.MILLI.,.METRE.));
#46=FACE_SURFACE('',(#48),#49,.T.);
#48=FACE_BOUND('',#50,.T.);
#49=PLANE('',#51);
#50=EDGE_LOOP('',(#52,#53,#54,#55));
#51=AXIS2_PLACEMENT_3D('',#56,#57,#58);
#52=ORIENTED_EDGE('',*,*,#59,.T.);
#53=ORIENTED_EDGE('',*,*,#60,.T.);
#54=ORIENTED_EDGE('',*,*,#61,.T.);
#55=ORIENTED_EDGE('',*,*,#62,.T.);
#56=CARTESIAN_POINT('',(0.0516426078975201,0.793310701847076,-0.0558178783394396));
#57=DIRECTION('',(-0.151010269678085,-0.985305055882662,0.0798113106258571));
#58=DIRECTION('',(0.0,-0.0807371890519003,-0.996735424425157));
#59=EDGE_CURVE('',#63,#64,#65,.T.);
#60=EDGE_CURVE('',#64,#66,#67,.T.);
#61=EDGE_CURVE('',#66,#68,#69,.T.);
#62=EDGE_CURVE('',#68,#63,#70,.T.);
#63=VERTEX_POINT('',#71);
#64=VERTEX_POINT('',#72);
#65=LINE('',#73,#74);
#66=VERTEX_POINT('',#75);
#67=LINE('',#76,#77);
#68=VERTEX_POINT('',#78);
#69=LINE('',#79,#80);
#70=LINE('',#81,#82);
#71=CARTESIAN_POINT('',(0.110978737473488,0.789117693901062,0.00469365250319242));
#72=CARTESIAN_POINT('',(-0.00764500349760056,0.807184398174286,0.00327938236296177));
#73=CARTESIAN_POINT('',(0.0516668669879436,0.798151046037674,0.0039865174330771));
#74=VECTOR('',#83,1.0);
#75=CARTESIAN_POINT('',(-0.00769352167844772,0.797502815723419,-0.116329409182072));
#76=CARTESIAN_POINT('',(-0.00766926258802414,0.802343606948853,-0.056525013409555));
#77=VECTOR('',#84,1.0);
#78=CARTESIAN_POINT('',(0.110930360853672,0.779437005519867,-0.11491521447897));
#79=CARTESIAN_POINT('',(0.0516184195876122,0.788469910621643,-0.115622311830521));
#80=VECTOR('',#85,1.0);
#81=CARTESIAN_POINT('',(0.11095454916358,0.784277349710464,-0.0551107809878886));
#82=VECTOR('',#86,1.0);
#83=DIRECTION('',(-0.988531247343981,0.150555879998435,-0.0117855853673066));
#84=DIRECTION('',(-0.00040431819607456,-0.0806798945266986,-0.996739981713364));
#85=DIRECTION('',(0.988532390407176,-0.150548423841513,0.011784956288066));
#86=DIRECTION('',(0.000403138510497462,0.0806725324477953,0.996740578078269));
ENDSEC;
END-ISO-10303-21;
