ISO-10303-21;
HEADER;
FILE_DESCRIPTION(('STEP AP214'),'1');
FILE_NAME('SMAStripDeformed_06.stp','2026-04-22T20:40:56',(' '),(' '),'Spatial InterOp 3D',' ',' ');
FILE_SCHEMA(('AUTOMOTIVE_DESIGN { 1 0 10303 214 1 1 1 1 }'));
ENDSEC;
DATA;
#1=PRODUCT_DEFINITION_CONTEXT('',#9,'design');
#2=APPLICATION_PROTOCOL_DEFINITION('INTERNATIONAL STANDARD','automotive_design',1994,#9);
#3=PRODUCT_CATEGORY_RELATIONSHIP('NONE','NONE',#10,#11);
#4=SHAPE_DEFINITION_REPRESENTATION(#12,#13);
#5= (GEOMETRIC_REPRESENTATION_CONTEXT(3)GLOBAL_UNCERTAINTY_ASSIGNED_CONTEXT((#16))GLOBAL_UNIT_ASSIGNED_CONTEXT((#18,#19,#20))REPRESENTATION_CONTEXT('NONE','WORKSPACE'));
#9=APPLICATION_CONTEXT(' ');
#10=PRODUCT_CATEGORY('part','NONE');
#11=PRODUCT_RELATED_PRODUCT_CATEGORY('detail',' ',(#22));
#12=PRODUCT_DEFINITION_SHAPE('NONE','NONE',#23);
#13=MANIFOLD_SURFACE_SHAPE_REPRESENTATION('1',(#24,#25),#5);
#16=UNCERTAINTY_MEASURE_WITH_UNIT(LENGTH_MEASURE(1.0E-06),#18,'','');
#18= (CONVERSION_BASED_UNIT('MILLIMETRE',#28)LENGTH_UNIT()NAMED_UNIT(#31));
#19= (NAMED_UNIT(#33)PLANE_ANGLE_UNIT()SI_UNIT($,.RADIAN.));
#20= (NAMED_UNIT(#33)SOLID_ANGLE_UNIT()SI_UNIT($,.STERADIAN.));
#22=PRODUCT('1','','PART--DESC',(#39));
#23=PRODUCT_DEFINITION('','NONE',#40,#1);
#24=SHELL_BASED_SURFACE_MODEL('1',(#41));
#25=AXIS2_PLACEMENT_3D('',#42,#43,#44);
#28=LENGTH_MEASURE_WITH_UNIT(LENGTH_MEASURE(1.0),#45);
#31=DIMENSIONAL_EXPONENTS(1.0,0.0,0.0,0.0,0.0,0.0,0.0);
#33=DIMENSIONAL_EXPONENTS(0.0,0.0,0.0,0.0,0.0,0.0,0.0);
#39=PRODUCT_CONTEXT('',#9,'mechanical');
#40=PRODUCT_DEFINITION_FORMATION_WITH_SPECIFIED_SOURCE(' ','NONE',#22,.NOT_KNOWN.);
#41=CLOSED_SHELL('',(#46));
#42=CARTESIAN_POINT('',(0.0,0.0,0.0));
#43=DIRECTION('',(0.0,0.0,1.0));
#44=DIRECTION('',(1.0,0.0,0.0));
#45= (NAMED_UNIT(#31)LENGTH_UNIT()SI_UNIT(.MILLI.,.METRE.));
#46=FACE_SURFACE('',(#48),#49,.T.);
#48=FACE_BOUND('',#50,.T.);
#49=B_SPLINE_SURFACE_WITH_KNOTS('',3,3,((#51,#52,#53,#54,#55,#56,#57,#58,#59,#60,#61,#62,#63,#64,#65,#66,#67,#68,#69),(#70,#71,#72,#73,#74,#75,#76,#77,#78,#79,#80,#81,#82,#83,#84,#85,#86,#87,#88),(#89,#90,#91,#92,#93,#94,#95,#96,#97,#98,#99,#100,#101,#102,#103,#104,#105,#106,#107),(#108,#109,#110,#111,#112,#113,#114,#115,#116,#117,#118,#119,#120,#121,#122,#123,#124,#125,#126),(#127,#128,#129,#130,#131,#132,#133,#134,#135,#136,#137,#138,#139,#140,#141,#142,#143,#144,#145),(#146,#147,#148,#149,#150,#151,#152,#153,#154,#155,#156,#157,#158,#159,#160,#161,#162,#163,#164),(#165,#166,#167,#168,#169,#170,#171,#172,#173,#174,#175,#176,#177,#178,#179,#180,#181,#182,#183),(#184,#185,#186,#187,#188,#189,#190,#191,#192,#193,#194,#195,#196,#197,#198,#199,#200,#201,#202),(#203,#204,#205,#206,#207,#208,#209,#210,#211,#212,#213,#214,#215,#216,#217,#218,#219,#220,#221),(#222,#223,#224,#225,#226,#227,#228,#229,#230,#231,#232,#233,#234,#235,#236,#237,#238,#239,#240),(#241,#242,#243,#244,#245,#246,#247,#248,#249,#250,#251,#252,#253,#254,#255,#256,#257,#258,#259),(#260,#261,#262,#263,#264,#265,#266,#267,#268,#269,#270,#271,#272,#273,#274,#275,#276,#277,#278),(#279,#280,#281,#282,#283,#284,#285,#286,#287,#288,#289,#290,#291,#292,#293,#294,#295,#296,#297),(#298,#299,#300,#301,#302,#303,#304,#305,#306,#307,#308,#309,#310,#311,#312,#313,#314,#315,#316),(#317,#318,#319,#320,#321,#322,#323,#324,#325,#326,#327,#328,#329,#330,#331,#332,#333,#334,#335),(#336,#337,#338,#339,#340,#341,#342,#343,#344,#345,#346,#347,#348,#349,#350,#351,#352,#353,#354),(#355,#356,#357,#358,#359,#360,#361,#362,#363,#364,#365,#366,#367,#368,#369,#370,#371,#372,#373),(#374,#375,#376,#377,#378,#379,#380,#381,#382,#383,#384,#385,#386,#387,#388,#389,#390,#391,#392),(#393,#394,#395,#396,#397,#398,#399,#400,#401,#402,#403,#404,#405,#406,#407,#408,#409,#410,#411)),.UNSPECIFIED.,.F.,.F.,.F.,(4,1,1,1,1,1,1,1,1,1,1,1,1,1,1,1,4),(4,1,1,1,1,1,1,1,1,1,1,1,1,1,1,1,4),(0.0,1.0,2.0,3.0,4.0,5.0,6.0,7.0,8.0,9.0,10.0,11.0,12.0,13.0,14.0,15.0,16.0),(0.0,1.0,2.0,3.0,4.0,5.0,6.0,7.0,8.0,9.0,10.0,11.0,12.0,13.0,14.0,15.0,16.0),.UNSPECIFIED.);
#50=EDGE_LOOP('',(#412,#413,#414,#415,#416,#417,#418,#419));
#51=CARTESIAN_POINT('',(-0.0209627689772517,0.0120677569965611,0.0212733973923386));
#52=CARTESIAN_POINT('',(-0.0210725287493174,0.0186868290617039,0.0155590367268681));
#53=CARTESIAN_POINT('',(-0.0174441940313342,0.0368190197675494,0.0100964426456128));
#54=CARTESIAN_POINT('',(-0.00772606438831402,0.0694554329024906,0.00853194452918962));
#55=CARTESIAN_POINT('',(0.00171724386846983,0.101742303520335,0.00654133376672253));
#56=CARTESIAN_POINT('',(0.00813131707094522,0.130176320980494,-0.000146128948053548));
#57=CARTESIAN_POINT('',(0.0112318639522314,0.154395898121301,-0.0119712393830252));
#58=CARTESIAN_POINT('',(0.0134070603432679,0.177438531415095,-0.0252311127791997));
#59=CARTESIAN_POINT('',(0.0152525931397501,0.200061868946599,-0.0390021320818252));
#60=CARTESIAN_POINT('',(0.0166598539332127,0.222127772789239,-0.0534526954528772));
#61=CARTESIAN_POINT('',(0.0175307645401986,0.243511498302186,-0.0687348738605013));
#62=CARTESIAN_POINT('',(0.0179567637214601,0.264329345512275,-0.0847068908118682));
#63=CARTESIAN_POINT('',(0.0180292902377491,0.284697614446338,-0.101226969814149));
#64=CARTESIAN_POINT('',(0.0179076974440553,0.304818985010671,-0.118048032280481));
#65=CARTESIAN_POINT('',(0.0177513386953685,0.324896137111573,-0.134922999624004));
#66=CARTESIAN_POINT('',(0.017569754815685,0.344941205625737,-0.151837078724668));
#67=CARTESIAN_POINT('',(0.0173724866290007,0.364966325429857,-0.168775476462426));
#68=CARTESIAN_POINT('',(0.0172368788492083,0.378311196077036,-0.180074091965628));
#69=CARTESIAN_POINT('',(0.0171696411828108,0.384984351574517,-0.185722521783395));
#70=CARTESIAN_POINT('',(-0.00345388602792651,0.0053471049465042,0.0130805318949531));
#71=CARTESIAN_POINT('',(-0.00350029282922493,0.012046755008763,0.00746440049168864));
#72=CARTESIAN_POINT('',(0.000778527581271171,0.0310062918298804,0.00301038941573115));
#73=CARTESIAN_POINT('',(0.0116144834359409,0.0650644567180151,0.00317908932798547));
#74=CARTESIAN_POINT('',(0.0218874819703332,0.0984066019344547,0.00247491964068508));
#75=CARTESIAN_POINT('',(0.0282243201762651,0.126742384990554,-0.00433229652266737));
#76=CARTESIAN_POINT('',(0.030805559090332,0.150301459626457,-0.0169625979038532));
#77=CARTESIAN_POINT('',(0.0327004747332179,0.172987606696439,-0.030657048728172));
#78=CARTESIAN_POINT('',(0.034358027015092,0.195371853729415,-0.0447195332460099));
#79=CARTESIAN_POINT('',(0.0356302328535092,0.217265982552725,-0.0593795003503152));
#80=CARTESIAN_POINT('',(0.0363884383899891,0.238506359636449,-0.0748364288255144));
#81=CARTESIAN_POINT('',(0.0367120524110434,0.259193984205927,-0.0909671947451802));
#82=CARTESIAN_POINT('',(0.0366804837031837,0.279429855486499,-0.107648674182885));
#83=CARTESIAN_POINT('',(0.0364633435377791,0.299429700323642,-0.124617883574535));
#84=CARTESIAN_POINT('',(0.0362302431861988,0.319409245562833,-0.141611839356033));
#85=CARTESIAN_POINT('',(0.0359878382612346,0.339376956410074,-0.158620221949212));
#86=CARTESIAN_POINT('',(0.0357427843756788,0.359341298071366,-0.175632711775901));
#87=CARTESIAN_POINT('',(0.0355820862201084,0.372654256525596,-0.186970230097255));
#88=CARTESIAN_POINT('',(0.0355035141864886,0.379312995957053,-0.19263623393746));
#89=CARTESIAN_POINT('',(0.0356359973534008,-0.00291491447601892,0.00300864997615263));
#90=CARTESIAN_POINT('',(0.0361268138373007,0.00446802440128727,-0.00177451264434278));
#91=CARTESIAN_POINT('',(0.0418984656842776,0.025326278294808,-0.00391387724315395));
#92=CARTESIAN_POINT('',(0.0540643299313291,0.0610759400978928,-0.00168314427068322));
#93=CARTESIAN_POINT('',(0.0650391485277614,0.095310723090431,-0.00129913662295869));
#94=CARTESIAN_POINT('',(0.0700704927322859,0.121986061646355,-0.0101305311479462));
#95=CARTESIAN_POINT('',(0.0707346256269341,0.143106788696775,-0.0257333199685873));
#96=CARTESIAN_POINT('',(0.0717988382677047,0.164736373094194,-0.0407157821051102));
#97=CARTESIAN_POINT('',(0.0729121159700714,0.186428362842837,-0.0556221684910832));
#98=CARTESIAN_POINT('',(0.0738079133130251,0.207843741541338,-0.0708657598256274));
#99=CARTESIAN_POINT('',(0.0742724934828598,0.228710659517144,-0.0867779566612708));
#100=CARTESIAN_POINT('',(0.0743457114908807,0.249079807952485,-0.103296963500371));
#101=CARTESIAN_POINT('',(0.074067422348393,0.269001878029591,-0.120360984845284));
#102=CARTESIAN_POINT('',(0.0736283732824415,0.28871947920031,-0.137674265672158));
#103=CARTESIAN_POINT('',(0.0732193115200708,0.308475220916486,-0.15494105095714));
#104=CARTESIAN_POINT('',(0.0728395340691178,0.328268209049561,-0.172162430694916));
#105=CARTESIAN_POINT('',(0.0724883379374195,0.348097549470975,-0.189339494880174));
#106=CARTESIAN_POINT('',(0.0722727927343483,0.361340748525104,-0.200762053965125));
#107=CARTESIAN_POINT('',(0.0721695493553008,0.367968108724038,-0.206466310913743));
#108=CARTESIAN_POINT('',(0.099140811733791,-0.00911385389792208,-0.00454821750215442));
#109=CARTESIAN_POINT('',(0.100042677683785,-0.0012081053987099,-0.00869404480442307));
#110=CARTESIAN_POINT('',(0.105127939381753,0.018777135867662,-0.0118976625409471));
#111=CARTESIAN_POINT('',(0.116521833771941,0.0535449370863632,-0.0108638746930154));
#112=CARTESIAN_POINT('',(0.127106400466833,0.087283362667151,-0.011084955581762));
#113=CARTESIAN_POINT('',(0.13316064175362,0.115259713585182,-0.0183303404139723));
#114=CARTESIAN_POINT('',(0.131746521759088,0.133737131990681,-0.0371554761192023));
#115=CARTESIAN_POINT('',(0.131435750029928,0.153617887797226,-0.0542698619613863));
#116=CARTESIAN_POINT('',(0.131537442619194,0.17402325276192,-0.0707447187460623));
#117=CARTESIAN_POINT('',(0.13158175000548,0.194355630072458,-0.0873085517236759));
#118=CARTESIAN_POINT('',(0.131440256926925,0.214451689667522,-0.104160469732787));
#119=CARTESIAN_POINT('',(0.13104469949038,0.234224607397929,-0.121406316458039));
#120=CARTESIAN_POINT('',(0.130326813802699,0.253587559114495,-0.139151935584077));
#121=CARTESIAN_POINT('',(0.129500491757379,0.272812591734179,-0.157065686105976));
#122=CARTESIAN_POINT('',(0.12877962524792,0.29217175217394,-0.174815927018813));
#123=CARTESIAN_POINT('',(0.128152977879513,0.311650748977867,-0.192420080438055));
#124=CARTESIAN_POINT('',(0.127609313257346,0.331235290690048,-0.209895568479174));
#125=CARTESIAN_POINT('',(0.127294724478523,0.34435251723074,-0.221471695380353));
#126=CARTESIAN_POINT('',(0.127147526782716,0.350923972382663,-0.227244103830846));
#127=CARTESIAN_POINT('',(0.160593416938195,-0.0179229772316633,-0.0152870508899966));
#128=CARTESIAN_POINT('',(0.161302722564304,-0.0102621442436694,-0.0197314444365357));
#129=CARTESIAN_POINT('',(0.164575689748467,0.00741805812179551,-0.0257450385772411));
#130=CARTESIAN_POINT('',(0.17449742998617,0.0403134414946345,-0.0269938369206185));
#131=CARTESIAN_POINT('',(0.184943905400871,0.0738762301851202,-0.0274290293878112));
#132=CARTESIAN_POINT('',(0.193169472885008,0.104614268739086,-0.0313077564644215));
#133=CARTESIAN_POINT('',(0.1928877907271,0.124532023274499,-0.0483770387055071));
#134=CARTESIAN_POINT('',(0.191544864118818,0.14309999182157,-0.0670917885247932));
#135=CARTESIAN_POINT('',(0.190721492088735,0.162328776535534,-0.0850009650256686));
#136=CARTESIAN_POINT('',(0.189659450847529,0.18125400031506,-0.103280199950576));
#137=CARTESIAN_POINT('',(0.188785259800639,0.200418148840062,-0.121268171722875));
#138=CARTESIAN_POINT('',(0.187871441147354,0.21953189541682,-0.139317586399775));
#139=CARTESIAN_POINT('',(0.186690517086967,0.238305913351614,-0.157781150038486));
#140=CARTESIAN_POINT('',(0.185460545276561,0.257017547953603,-0.176320762586015));
#141=CARTESIAN_POINT('',(0.184399583373219,0.275944144531945,-0.194598323989369));
#142=CARTESIAN_POINT('',(0.183491635136697,0.295065357631886,-0.212638636540506));
#143=CARTESIAN_POINT('',(0.182720704326749,0.314360841798671,-0.230466502531383));
#144=CARTESIAN_POINT('',(0.18228752485101,0.32732723404196,-0.242226505208574));
#145=CARTESIAN_POINT('',(0.182088486074158,0.333832753051846,-0.24807929364885));
#146=CARTESIAN_POINT('',(0.220806609053783,-0.0283084974270897,-0.0279476036827554));
#147=CARTESIAN_POINT('',(0.221109643338359,-0.021164396813124,-0.0330219240291089));
#148=CARTESIAN_POINT('',(0.222283379056738,-0.00615418553011361,-0.0422903924967157));
#149=CARTESIAN_POINT('',(0.229880813184306,0.0237849366166032,-0.0471430451120234));
#150=CARTESIAN_POINT('',(0.240117744760152,0.0570812086364666,-0.0479031368924012));
#151=CARTESIAN_POINT('',(0.249796007303931,0.0896669152146544,-0.0495294492489044));
#152=CARTESIAN_POINT('',(0.253590160629518,0.114768683314963,-0.0602791176255207));
#153=CARTESIAN_POINT('',(0.251518694474019,0.132410029845363,-0.0801234735444769));
#154=CARTESIAN_POINT('',(0.249907086372912,0.15063626514312,-0.099254816058454));
#155=CARTESIAN_POINT('',(0.247922699972086,0.168388367524996,-0.118964154156605));
#156=CARTESIAN_POINT('',(0.246289633998441,0.186587310773612,-0.138128767264878));
#157=CARTESIAN_POINT('',(0.24476303337951,0.204921666220602,-0.157128305032289));
#158=CARTESIAN_POINT('',(0.243100866409983,0.223083596209478,-0.176338039455639));
#159=CARTESIAN_POINT('',(0.241476219003931,0.241293246948318,-0.195489599510939));
#160=CARTESIAN_POINT('',(0.240062177075426,0.259770764645201,-0.214314614174201));
#161=CARTESIAN_POINT('',(0.238844833691152,0.278498461213536,-0.232834646251126));
#162=CARTESIAN_POINT('',(0.23781028191779,0.297458648566733,-0.251071258547417));
#163=CARTESIAN_POINT('',(0.237236190507304,0.310245816357969,-0.263049746249361));
#164=CARTESIAN_POINT('',(0.236976484419453,0.316674173233997,-0.26899659981598));
#165=CARTESIAN_POINT('',(0.279941534606606,-0.0400654538619297,-0.0422800169682265));
#166=CARTESIAN_POINT('',(0.280078041478997,-0.0331331577644094,-0.0476125393315942));
#167=CARTESIAN_POINT('',(0.280283362985367,-0.0193546626367296,-0.0583825413879686));
#168=CARTESIAN_POINT('',(0.2835992006896,0.0051387407051284,-0.0698738417672851));
#169=CARTESIAN_POINT('',(0.292868771932949,0.0372046369882591,-0.0721338330882457));
#170=CARTESIAN_POINT('',(0.302930368912021,0.0702779027234587,-0.0731657824922162));
#171=CARTESIAN_POINT('',(0.310925211984697,0.100722485252615,-0.0774022495206584));
#172=CARTESIAN_POINT('',(0.311524037134104,0.121760148048211,-0.0931062984961685));
#173=CARTESIAN_POINT('',(0.308670803563215,0.138407172579505,-0.114162790728549));
#174=CARTESIAN_POINT('',(0.306253365968014,0.155608481565763,-0.134543577991682));
#175=CARTESIAN_POINT('',(0.303935511414771,0.172936449207022,-0.154769960992137));
#176=CARTESIAN_POINT('',(0.301656573104555,0.190313914020717,-0.174936004062293));
#177=CARTESIAN_POINT('',(0.299500195980531,0.207847263156613,-0.194912015082666));
#178=CARTESIAN_POINT('',(0.297515198103435,0.225598587808061,-0.214622301279415));
#179=CARTESIAN_POINT('',(0.295750397534003,0.243629979168409,-0.233991169878701));
#180=CARTESIAN_POINT('',(0.29420190139336,0.261936485924737,-0.253024656818777));
#181=CARTESIAN_POINT('',(0.292865816802632,0.280513156764124,-0.271728798037897));
#182=CARTESIAN_POINT('',(0.292125718102903,0.293089181577978,-0.283964681302283));
#183=CARTESIAN_POINT('',(0.291795579008432,0.299427955431528,-0.290020741780456));
#184=CARTESIAN_POINT('',(0.338178154942784,-0.0529649555362327,-0.0580052593128243));
#185=CARTESIAN_POINT('',(0.338380036772862,-0.0459495096970643,-0.0632364173079147));
#186=CARTESIAN_POINT('',(0.338804119289013,-0.031892774673106,-0.0736672287575984));
#187=CARTESIAN_POINT('',(0.338280464739783,-0.0122827823533221,-0.0911116910286934));
#188=CARTESIAN_POINT('',(0.344224705622463,0.0155536601730813,-0.0985276323226905));
#189=CARTESIAN_POINT('',(0.353751624971959,0.0479468748866456,-0.100388603451059));
#190=CARTESIAN_POINT('',(0.363549287320263,0.0806844448579492,-0.101829785504058));
#191=CARTESIAN_POINT('',(0.369736608569969,0.108830058822976,-0.108868828843302));
#192=CARTESIAN_POINT('',(0.367332038728685,0.126047734174149,-0.129229664556283));
#193=CARTESIAN_POINT('',(0.36424375411564,0.142395799683197,-0.150650605214241));
#194=CARTESIAN_POINT('',(0.36153647979904,0.159228468300769,-0.171480786514596));
#195=CARTESIAN_POINT('',(0.358534208698634,0.17568593351893,-0.192768362568116));
#196=CARTESIAN_POINT('',(0.35582758415924,0.192519428581502,-0.21359753638398));
#197=CARTESIAN_POINT('',(0.353411398237603,0.209722329558595,-0.233976382917748));
#198=CARTESIAN_POINT('',(0.351280458687969,0.227288032485813,-0.253912952785885));
#199=CARTESIAN_POINT('',(0.34940946173527,0.245184353749827,-0.273446479683762));
#200=CARTESIAN_POINT('',(0.347773103604439,0.263379109737308,-0.292616197306751));
#201=CARTESIAN_POINT('',(0.346867001051399,0.275743995943906,-0.305109470806144));
#202=CARTESIAN_POINT('',(0.346467244738325,0.281994224367432,-0.311273473310355));
#203=CARTESIAN_POINT('',(0.395697060713266,-0.0667773110436597,-0.0748433235410507));
#204=CARTESIAN_POINT('',(0.395899265980035,-0.0597614538286644,-0.0800739800450963));
#205=CARTESIAN_POINT('',(0.396311792073966,-0.0457194173002144,-0.0905227098151776));
#206=CARTESIAN_POINT('',(0.396117932938508,-0.0256899615586227,-0.107455821793124));
#207=CARTESIAN_POINT('',(0.396135002933448,-0.00539222720823136,-0.124061886552832));
#208=CARTESIAN_POINT('',(0.402959258564952,0.0235634970982357,-0.130113358296935));
#209=CARTESIAN_POINT('',(0.412743308523721,0.0562837536101801,-0.131575646463265));
#210=CARTESIAN_POINT('',(0.422080930351518,0.0884362027373355,-0.13373012483634));
#211=CARTESIAN_POINT('',(0.425683863746253,0.113294760158649,-0.144776281167651));
#212=CARTESIAN_POINT('',(0.422329230014934,0.129304058941778,-0.166610198155847));
#213=CARTESIAN_POINT('',(0.418940141742738,0.145269535345912,-0.188497537171282));
#214=CARTESIAN_POINT('',(0.41537809042755,0.16101502182044,-0.210653056698165));
#215=CARTESIAN_POINT('',(0.412022109306741,0.177022606872624,-0.232489062823996));
#216=CARTESIAN_POINT('',(0.408998735068963,0.193453231225682,-0.253809359452244));
#217=CARTESIAN_POINT('',(0.406468574476342,0.210511168981656,-0.274364924578769));
#218=CARTESIAN_POINT('',(0.404314138208829,0.228046986673145,-0.294337926286385));
#219=CARTESIAN_POINT('',(0.402417936946376,0.245911250832749,-0.313910532657909));
#220=CARTESIAN_POINT('',(0.401370932766382,0.258096925697671,-0.326622275199742));
#221=CARTESIAN_POINT('',(0.400912956506362,0.264273104764707,-0.33287654817375));
#222=CARTESIAN_POINT('',(0.452539530519994,-0.0814500185515744,-0.0927302068671715));
#223=CARTESIAN_POINT('',(0.452718275646391,-0.0744640000497491,-0.097997238496993));
#224=CARTESIAN_POINT('',(0.453010819715297,-0.0605745674347286,-0.108632001307885));
#225=CARTESIAN_POINT('',(0.453394251896603,-0.0398108607575641,-0.124670018715889));
#226=CARTESIAN_POINT('',(0.45186211027637,-0.0214835528535956,-0.143678147847892));
#227=CARTESIAN_POINT('',(0.45229737836193,-0.000653916618701907,-0.159635793292767));
#228=CARTESIAN_POINT('',(0.460123411438474,0.0295759581987775,-0.164134001501963));
#229=CARTESIAN_POINT('',(0.46989816888334,0.0622843956571011,-0.165610697781657));
#230=CARTESIAN_POINT('',(0.478558764007542,0.0935757414277928,-0.168814911199236));
#231=CARTESIAN_POINT('',(0.480711572108236,0.116589899283532,-0.182109497809578));
#232=CARTESIAN_POINT('',(0.475916918444068,0.130767651406882,-0.206176176637547));
#233=CARTESIAN_POINT('',(0.471851194003698,0.145872521172568,-0.229112645169351));
#234=CARTESIAN_POINT('',(0.468107758149598,0.161387306502757,-0.251549402801046));
#235=CARTESIAN_POINT('',(0.464442170210836,0.177001105802167,-0.273865456648919));
#236=CARTESIAN_POINT('',(0.461404345326479,0.193413350525283,-0.295208159114411));
#237=CARTESIAN_POINT('',(0.458870913495233,0.210467127626228,-0.315768796321261));
#238=CARTESIAN_POINT('',(0.456718505152356,0.228005524614371,-0.335738653716331));
#239=CARTESIAN_POINT('',(0.455565003144126,0.240055745978178,-0.34861552194947));
#240=CARTESIAN_POINT('',(0.455065466668793,0.246179065031405,-0.354934234352882));
#241=CARTESIAN_POINT('',(0.508696467861669,-0.0969946478071657,-0.111680013485519));
#242=CARTESIAN_POINT('',(0.508886750864472,-0.0899939543980633,-0.116929155550368));
#243=CARTESIAN_POINT('',(0.50921071353766,-0.0760645607808272,-0.127515203576764));
#244=CARTESIAN_POINT('',(0.509427154318396,-0.0555132487621999,-0.143812142419295));
#245=CARTESIAN_POINT('',(0.508829573002261,-0.0359972831429536,-0.161371228703794));
#246=CARTESIAN_POINT('',(0.50618034756119,-0.0190907827528805,-0.182111404781885));
#247=CARTESIAN_POINT('',(0.507546343599397,0.002922636868583,-0.196625949469278));
#248=CARTESIAN_POINT('',(0.515263089368252,0.0330135102744914,-0.201293608478853));
#249=CARTESIAN_POINT('',(0.524928622397416,0.0655830263129228,-0.202939658044419));
#250=CARTESIAN_POINT('',(0.533177897343663,0.096351218146055,-0.20678162652102));
#251=CARTESIAN_POINT('',(0.53370206091562,0.117293919643079,-0.222601438839263));
#252=CARTESIAN_POINT('',(0.528458615796446,0.130900858493913,-0.247363972225839));
#253=CARTESIAN_POINT('',(0.524143359100286,0.145688350729488,-0.270687342414912));
#254=CARTESIAN_POINT('',(0.519906668219452,0.160575770023954,-0.293888895710781));
#255=CARTESIAN_POINT('',(0.516177371665737,0.176108538986037,-0.31630373024987));
#256=CARTESIAN_POINT('',(0.51303477027568,0.192387519540608,-0.337808889483006));
#257=CARTESIAN_POINT('',(0.510592996546291,0.209557875646099,-0.358227410106978));
#258=CARTESIAN_POINT('',(0.509376702080902,0.221528231924331,-0.371201638521716));
#259=CARTESIAN_POINT('',(0.508857527581865,0.227626573575579,-0.37755079982999));
#260=CARTESIAN_POINT('',(0.564260009193623,-0.113294011392983,-0.131549885122521));
#261=CARTESIAN_POINT('',(0.564459507604347,-0.106281597000573,-0.136784738627418));
#262=CARTESIAN_POINT('',(0.564844671873517,-0.0922743616978593,-0.147275893114547));
#263=CARTESIAN_POINT('',(0.564971619440095,-0.0718368751852027,-0.163711591865141));
#264=CARTESIAN_POINT('',(0.564223179161311,-0.0525127855413057,-0.181504586116681));
#265=CARTESIAN_POINT('',(0.562926831666216,-0.033885573495429,-0.200147114667303));
#266=CARTESIAN_POINT('',(0.559705113144166,-0.0177072212137915,-0.221774945614319));
#267=CARTESIAN_POINT('',(0.560798641215086,0.00395964918012402,-0.236711953953807));
#268=CARTESIAN_POINT('',(0.568766571046613,0.034370001032464,-0.240990150166999));
#269=CARTESIAN_POINT('',(0.578430100428212,0.0669369686520012,-0.242639306403329));
#270=CARTESIAN_POINT('',(0.586209060432605,0.0971069717093073,-0.247210501768315));
#271=CARTESIAN_POINT('',(0.586480122621932,0.117727756140208,-0.263422749702093));
#272=CARTESIAN_POINT('',(0.58005567792639,0.129832593679834,-0.29001643189901));
#273=CARTESIAN_POINT('',(0.575113609179752,0.143822850063894,-0.314311678931654));
#274=CARTESIAN_POINT('',(0.570983082623416,0.158845298679472,-0.337348623636298));
#275=CARTESIAN_POINT('',(0.567221075619896,0.1743364635542,-0.359814175976176));
#276=CARTESIAN_POINT('',(0.564359755314721,0.190973202650667,-0.380883206751469));
#277=CARTESIAN_POINT('',(0.562991814140323,0.20275068102699,-0.394092564539961));
#278=CARTESIAN_POINT('',(0.562427536236784,0.208791656118251,-0.400511659019381));
#279=CARTESIAN_POINT('',(0.619310906341264,-0.130245401886218,-0.152214615459744));
#280=CARTESIAN_POINT('',(0.619468594217746,-0.123286165885709,-0.157514296515445));
#281=CARTESIAN_POINT('',(0.619777595124842,-0.109375801986106,-0.168123542873768));
#282=CARTESIAN_POINT('',(0.619867063474994,-0.0889859849064149,-0.184617353434007));
#283=CARTESIAN_POINT('',(0.619227590083088,-0.0695233013909089,-0.20224139370007));
#284=CARTESIAN_POINT('',(0.618177911756595,-0.050582353346302,-0.220501459831846));
#285=CARTESIAN_POINT('',(0.616292999950114,-0.0327037302428375,-0.240056561816167));
#286=CARTESIAN_POINT('',(0.612261831352493,-0.0175549092533379,-0.262939451251409));
#287=CARTESIAN_POINT('',(0.613084379430427,0.00376730445236114,-0.278296616127539));
#288=CARTESIAN_POINT('',(0.62033338459082,0.0332632633508183,-0.283689510502029));
#289=CARTESIAN_POINT('',(0.629699207928097,0.0654515816901362,-0.285800262220525));
#290=CARTESIAN_POINT('',(0.637603522677382,0.0957810221684503,-0.290177094101755));
#291=CARTESIAN_POINT('',(0.637759010553623,0.116254808809765,-0.306568540885514));
#292=CARTESIAN_POINT('',(0.63129749276095,0.128312493455414,-0.333219705201024));
#293=CARTESIAN_POINT('',(0.626131672702769,0.142018162829302,-0.357861880341131));
#294=CARTESIAN_POINT('',(0.621845573029301,0.156842739584544,-0.381140042345135));
#295=CARTESIAN_POINT('',(0.61833712564419,0.172656404350807,-0.403212448571423));
#296=CARTESIAN_POINT('',(0.616596123886,0.183959390777017,-0.417000239627686));
#297=CARTESIAN_POINT('',(0.615913889624752,0.18985033838044,-0.423602226335361));
#298=CARTESIAN_POINT('',(0.674045588906215,-0.147598982480776,-0.173369638908407));
#299=CARTESIAN_POINT('',(0.674139255526521,-0.140721174462776,-0.178768585407914));
#300=CARTESIAN_POINT('',(0.674309095845598,-0.126987807495191,-0.189593601314588));
#301=CARTESIAN_POINT('',(0.674349483682169,-0.106660415419946,-0.206163511583798));
#302=CARTESIAN_POINT('',(0.67401360499925,-0.0868115928917164,-0.22331682594842));
#303=CARTESIAN_POINT('',(0.673062845779498,-0.0677448306445354,-0.241423517254112));
#304=CARTESIAN_POINT('',(0.671230299743803,-0.049799604051507,-0.260897425713222));
#305=CARTESIAN_POINT('',(0.668712644046064,-0.032725761447321,-0.281433601905283));
#306=CARTESIAN_POINT('',(0.664041155390229,-0.0183913570065511,-0.305309312452656));
#307=CARTESIAN_POINT('',(0.663269846946833,0.000903646852103986,-0.323137763967062));
#308=CARTESIAN_POINT('',(0.670070445340115,0.0298292817586558,-0.329225916438655));
#309=CARTESIAN_POINT('',(0.679508480086977,0.0621094450530373,-0.331224703818297));
#310=CARTESIAN_POINT('',(0.68769338693228,0.0927957677553398,-0.33516647552415));
#311=CARTESIAN_POINT('',(0.689221322694626,0.115015156859631,-0.349429931439679));
#312=CARTESIAN_POINT('',(0.682018424161698,0.126129886906206,-0.377230612222165));
#313=CARTESIAN_POINT('',(0.675776190577489,0.138466476899202,-0.403541774707451));
#314=CARTESIAN_POINT('',(0.671917376832259,0.153834514266886,-0.426157426635393));
#315=CARTESIAN_POINT('',(0.669979914019732,0.164887623882616,-0.440249832048111));
#316=CARTESIAN_POINT('',(0.669232310028836,0.17069542839388,-0.44695317501795));
#317=CARTESIAN_POINT('',(0.728660486490097,-0.165104916370565,-0.194710389879727));
#318=CARTESIAN_POINT('',(0.72869673635252,-0.158300136141082,-0.200198361498291));
#319=CARTESIAN_POINT('',(0.728738786589746,-0.144729304074736,-0.21122151689717));
#320=CARTESIAN_POINT('',(0.728649373857626,-0.124567004018427,-0.227992683933693));
#321=CARTESIAN_POINT('',(0.728346333412447,-0.104676414870672,-0.245095082361364));
#322=CARTESIAN_POINT('',(0.727519000012985,-0.0854526685820025,-0.26301040099554));
#323=CARTESIAN_POINT('',(0.725856708153294,-0.0672908974396512,-0.282220329062036));
#324=CARTESIAN_POINT('',(0.723709293511637,-0.0497461490138782,-0.302182443685448));
#325=CARTESIAN_POINT('',(0.720782434712352,-0.0331927676593689,-0.323353092393485));
#326=CARTESIAN_POINT('',(0.715346964592258,-0.0198300634479343,-0.348413362002007));
#327=CARTESIAN_POINT('',(0.712895476363289,-0.00267206311534032,-0.36884694503134));
#328=CARTESIAN_POINT('',(0.718050290712318,0.0241603158575887,-0.377486898159779));
#329=CARTESIAN_POINT('',(0.726904994484077,0.0556985464365796,-0.380390144645477));
#330=CARTESIAN_POINT('',(0.735331623164746,0.0866923126749469,-0.383957124810233));
#331=CARTESIAN_POINT('',(0.737731018316714,0.110020102085226,-0.396869376325269));
#332=CARTESIAN_POINT('',(0.731410513792698,0.122257140068494,-0.423301898497029));
#333=CARTESIAN_POINT('',(0.725094414744266,0.134499781331208,-0.449727589945446));
#334=CARTESIAN_POINT('',(0.723146740339864,0.145539902927423,-0.463835828508901));
#335=CARTESIAN_POINT('',(0.722411520380525,0.151363458562068,-0.47051996994378));
#336=CARTESIAN_POINT('',(0.783198221971709,-0.182708991950932,-0.216170781276501));
#337=CARTESIAN_POINT('',(0.783187170158449,-0.175964374240121,-0.221732094502366));
#338=CARTESIAN_POINT('',(0.783124153703436,-0.162527175427618,-0.23291815660532));
#339=CARTESIAN_POINT('',(0.78288186109977,-0.142559321720065,-0.249926365043474));
#340=CARTESIAN_POINT('',(0.782466771139291,-0.122811247207554,-0.267202497095394));
#341=CARTESIAN_POINT('',(0.781715511589588,-0.103490743365575,-0.2849998626479));
#342=CARTESIAN_POINT('',(0.780464710218245,-0.0848056016696124,-0.303571771587817));
#343=CARTESIAN_POINT('',(0.778495599621743,-0.0670340701480786,-0.323257424435375));
#344=CARTESIAN_POINT('',(0.775576735746628,-0.0504705201310911,-0.344415676952782));
#345=CARTESIAN_POINT('',(0.771980455983262,-0.0347685684705601,-0.366624267948455));
#346=CARTESIAN_POINT('',(0.766039840642093,-0.0220483533117143,-0.39246776905776));
#347=CARTESIAN_POINT('',(0.76108686976929,-0.00807196323068675,-0.416779919919803));
#348=CARTESIAN_POINT('',(0.764113022790878,0.0160529931190261,-0.428720378599099));
#349=CARTESIAN_POINT('',(0.772000423323764,0.0463609205780813,-0.433123436101283));
#350=CARTESIAN_POINT('',(0.780061509369658,0.076889756868984,-0.437257192896775));
#351=CARTESIAN_POINT('',(0.784004444751626,0.102180759348751,-0.447776173565289));
#352=CARTESIAN_POINT('',(0.780254124057003,0.117686787920525,-0.470223606194491));
#353=CARTESIAN_POINT('',(0.777076176172926,0.127162137230668,-0.486239393129495));
#354=CARTESIAN_POINT('',(0.776009400870602,0.132563991007496,-0.49343761364113));
#355=CARTESIAN_POINT('',(0.837701418229846,-0.200356997617226,-0.237684726001525));
#356=CARTESIAN_POINT('',(0.837656690407013,-0.193655212079388,-0.24329825413593));
#357=CARTESIAN_POINT('',(0.837522683532819,-0.180308305256711,-0.254594387422846));
#358=CARTESIAN_POINT('',(0.837162072507002,-0.160490939543065,-0.271786049472922));
#359=CARTESIAN_POINT('',(0.836615913737716,-0.140909570111156,-0.289265404708086));
#360=CARTESIAN_POINT('',(0.835796688779936,-0.121675510778244,-0.307168151141868));
#361=CARTESIAN_POINT('',(0.834616879188634,-0.102900075361592,-0.325629986787801));
#362=CARTESIAN_POINT('',(0.832799911900635,-0.084935034318321,-0.345079740280319));
#363=CARTESIAN_POINT('',(0.830069213852766,-0.0681321581055527,-0.365946240253861));
#364=CARTESIAN_POINT('',(0.826664841130336,-0.0521861218377218,-0.387857277925438));
#365=CARTESIAN_POINT('',(0.8225703414961,-0.0371178509475131,-0.410838362613816));
#366=CARTESIAN_POINT('',(0.816759772549901,-0.0242322311057944,-0.436480225800294));
#367=CARTESIAN_POINT('',(0.809728549811905,-0.0128991483672879,-0.464014721959225));
#368=CARTESIAN_POINT('',(0.808423340776156,0.00571679277544838,-0.482670990395914));
#369=CARTESIAN_POINT('',(0.814452373353018,0.0336610809925348,-0.489955461524269));
#370=CARTESIAN_POINT('',(0.822601174201674,0.0643014808460987,-0.493953215852072));
#371=CARTESIAN_POINT('',(0.828118715003627,0.091595207893532,-0.502030758861116));
#372=CARTESIAN_POINT('',(0.828831543435371,0.1060191959014,-0.512013867576262));
#373=CARTESIAN_POINT('',(0.828683030124019,0.112588977735335,-0.517788315898646));
#374=CARTESIAN_POINT('',(0.874032001323645,-0.212128542921766,-0.252034923967161));
#375=CARTESIAN_POINT('',(0.873971315965848,-0.20544705360983,-0.257673194380691));
#376=CARTESIAN_POINT('',(0.873805577195253,-0.192140506262419,-0.269018528213913));
#377=CARTESIAN_POINT('',(0.87338890465163,-0.172394444621264,-0.286297114073015));
#378=CARTESIAN_POINT('',(0.87276920749755,-0.152906607910647,-0.30389049113217));
#379=CARTESIAN_POINT('',(0.871879904071088,-0.133761680667027,-0.321901894763741));
#380=CARTESIAN_POINT('',(0.870654412710318,-0.115044347426862,-0.340434560340089));
#381=CARTESIAN_POINT('',(0.868926456528035,-0.0969660940664294,-0.359746301437347));
#382=CARTESIAN_POINT('',(0.866529758637034,-0.0797384064620095,-0.380094931631642));
#383=CARTESIAN_POINT('',(0.863400894523206,-0.0634419536059666,-0.401578791113678));
#384=CARTESIAN_POINT('',(0.8593906050739,-0.0482665766407601,-0.424429307270926));
#385=CARTESIAN_POINT('',(0.854335467039172,-0.0344201319305527,-0.448899869093275));
#386=CARTESIAN_POINT('',(0.847871118303354,-0.0223660479326047,-0.475555422807626));
#387=CARTESIAN_POINT('',(0.841596234383341,-0.0100709855685808,-0.501917209886487));
#388=CARTESIAN_POINT('',(0.841421599840203,0.00998292173582955,-0.518820513988072));
#389=CARTESIAN_POINT('',(0.849963355604652,0.0411231169373937,-0.52220898873528));
#390=CARTESIAN_POINT('',(0.858290174804241,0.0719899365151518,-0.52593072425829));
#391=CARTESIAN_POINT('',(0.861471236530287,0.0895532452661681,-0.532086818509632));
#392=CARTESIAN_POINT('',(0.862177318026985,0.0972099775168599,-0.536536211093304));
#393=CARTESIAN_POINT('',(0.892200608868644,-0.218010097989886,-0.259204881469747));
#394=CARTESIAN_POINT('',(0.892132920368056,-0.211337515903812,-0.264854010309349));
#395=CARTESIAN_POINT('',(0.891953433795277,-0.198048454245728,-0.276220660214243));
#396=CARTESIAN_POINT('',(0.891514378966333,-0.178330860404902,-0.293533949976681));
#397=CARTESIAN_POINT('',(0.890868002912646,-0.158876956314485,-0.311168692872246));
#398=CARTESIAN_POINT('',(0.8899552826965,-0.139761812646737,-0.329216404414022));
#399=CARTESIAN_POINT('',(0.888717195380179,-0.121060500073918,-0.347768600115092));
#400=CARTESIAN_POINT('',(0.887028082334302,-0.102932842524616,-0.367020114634421));
#401=CARTESIAN_POINT('',(0.884762284929489,-0.0855386639274176,-0.387165782630972));
#402=CARTESIAN_POINT('',(0.881776952678222,-0.0690596543598678,-0.408427094870288));
#403=CARTESIAN_POINT('',(0.877886151881534,-0.0537323009965624,-0.431092342964389));
#404=CARTESIAN_POINT('',(0.873116599866916,-0.0395226223412682,-0.455120101494138));
#405=CARTESIAN_POINT('',(0.867036040007203,-0.0269804011876764,-0.481180587642027));
#406=CARTESIAN_POINT('',(0.860260936998324,-0.0153215623789463,-0.508317968216276));
#407=CARTESIAN_POINT('',(0.858733226304847,0.00301138117555343,-0.5273192271627));
#408=CARTESIAN_POINT('',(0.866628242073652,0.033328994375475,-0.53171047718377));
#409=CARTESIAN_POINT('',(0.87485036631155,0.0640626534996829,-0.535594543039817));
#410=CARTESIAN_POINT('',(0.878349612926989,0.0820306583650135,-0.541257289204217));
#411=CARTESIAN_POINT('',(0.879237732725219,0.0899189232740512,-0.545424430019169));
#412=ORIENTED_EDGE('',*,*,#420,.T.);
#413=ORIENTED_EDGE('',*,*,#421,.T.);
#414=ORIENTED_EDGE('',*,*,#422,.T.);
#415=ORIENTED_EDGE('',*,*,#423,.T.);
#416=ORIENTED_EDGE('',*,*,#424,.T.);
#417=ORIENTED_EDGE('',*,*,#425,.T.);
#418=ORIENTED_EDGE('',*,*,#426,.T.);
#419=ORIENTED_EDGE('',*,*,#427,.T.);
#420=EDGE_CURVE('',#428,#429,#430,.T.);
#421=EDGE_CURVE('',#429,#431,#432,.T.);
#422=EDGE_CURVE('',#431,#433,#434,.T.);
#423=EDGE_CURVE('',#433,#435,#436,.T.);
#424=EDGE_CURVE('',#435,#437,#438,.T.);
#425=EDGE_CURVE('',#437,#439,#440,.T.);
#426=EDGE_CURVE('',#439,#441,#442,.T.);
#427=EDGE_CURVE('',#441,#428,#443,.T.);
#428=VERTEX_POINT('',#444);
#429=VERTEX_POINT('',#445);
#430=LINE('',#446,#447);
#431=VERTEX_POINT('',#448);
#432=B_SPLINE_CURVE_WITH_KNOTS('',3,(#449,#450,#451,#452,#453,#454,#455,#456,#457,#458,#459,#460,#461,#462,#463,#464,#465,#466,#467,#468,#469,#470,#471,#472,#473,#474,#475,#476),.UNSPECIFIED.,.F.,.F.,(4,1,1,1,1,1,1,1,1,1,1,1,1,1,1,1,1,1,1,1,1,1,1,1,1,4),(0.0,0.0322529013881335,0.064505802776267,0.0967587041644005,0.112885154858467,0.129011605552534,0.161264506940667,0.193517408328801,0.225770309716934,0.258023211105068,0.290276112493202,0.322529013881335,0.387034816657602,0.451540619433869,0.516046422210136,0.548299323598269,0.580552224986403,0.612805126374536,0.64505802776267,0.677310929150803,0.709563830538937,0.774069633315204,0.838575436091471,0.903081238867738,0.967587041644005,1.03209284442027),.UNSPECIFIED.);
#433=VERTEX_POINT('',#477);
#434=LINE('',#478,#479);
#435=VERTEX_POINT('',#480);
#436=LINE('',#481,#482);
#437=VERTEX_POINT('',#483);
#438=LINE('',#484,#485);
#439=VERTEX_POINT('',#486);
#440=LINE('',#487,#488);
#441=VERTEX_POINT('',#489);
#442=B_SPLINE_CURVE_WITH_KNOTS('',3,(#490,#491,#492,#493,#494,#495,#496,#497,#498,#499,#500,#501,#502,#503,#504,#505,#506,#507,#508,#509,#510,#511,#512,#513,#514,#515,#516,#517,#518,#519,#520,#521),.UNSPECIFIED.,.F.,.F.,(4,1,1,1,1,1,1,1,1,1,1,1,1,1,1,1,1,1,1,1,1,1,1,1,1,1,1,1,1,4),(0.0,0.00809807492773227,0.0161961498554645,0.0323922997109291,0.0647845994218581,0.0971768991327872,0.129569198843716,0.161961498554645,0.194353798265574,0.259138397687433,0.323922997109291,0.388707596531149,0.453492195953007,0.518276795374865,0.583061394796723,0.647845994218581,0.680238293929511,0.71263059364044,0.745022893351369,0.777415193062298,0.809807492773227,0.842199792484156,0.874592092195085,0.906984391906014,0.939376691616943,0.971768991327872,0.987965141183337,1.0041612910388,1.02035744089427,1.03655359074973),.UNSPECIFIED.);
#443=CIRCLE('',#522,0.662047045904219);
#444=CARTESIAN_POINT('',(0.856904864311218,0.0904070883989334,-0.529415905475616));
#445=CARTESIAN_POINT('',(0.853134870529175,0.101257614791393,-0.531601905822754));
#446=CARTESIAN_POINT('',(0.855019867420197,0.0958323515951633,-0.530508905649185));
#447=VECTOR('',#523,1.0);
#448=CARTESIAN_POINT('',(0.0046498030424118,0.100093260407448,0.00643621664494276));
#449=CARTESIAN_POINT('',(0.853134870529175,0.101257614791393,-0.531601905822754));
#450=CARTESIAN_POINT('',(0.845239716614233,0.100338577519593,-0.524362761579863));
#451=CARTESIAN_POINT('',(0.829934355470573,0.0988786247697854,-0.509305210895231));
#452=CARTESIAN_POINT('',(0.808960238094636,0.0982614569160782,-0.484749780028058));
#453=CARTESIAN_POINT('',(0.793079330902254,0.0986370142252039,-0.463062586201428));
#454=CARTESIAN_POINT('',(0.779986919587129,0.0991592120599456,-0.446009765256135));
#455=CARTESIAN_POINT('',(0.766197559634839,0.0992219284979176,-0.429507979313224));
#456=CARTESIAN_POINT('',(0.749037526158433,0.0995166058811566,-0.408819233810992));
#457=CARTESIAN_POINT('',(0.727401879763624,0.0997343290685409,-0.384897156180479));
#458=CARTESIAN_POINT('',(0.705331288606725,0.099901593215064,-0.3613726841116));
#459=CARTESIAN_POINT('',(0.682398380692643,0.0999334300166558,-0.338687667620026));
#460=CARTESIAN_POINT('',(0.658751145870492,0.0998053455653293,-0.316750414548709));
#461=CARTESIAN_POINT('',(0.626861234124518,0.099796180423726,-0.287900030436598));
#462=CARTESIAN_POINT('',(0.585947368016511,0.0999341824220868,-0.253006758059434));
#463=CARTESIAN_POINT('',(0.534661490067771,0.0998081778628989,-0.213859512164413));
#464=CARTESIAN_POINT('',(0.490924983855573,0.100016837681164,-0.182579161231673));
#465=CARTESIAN_POINT('',(0.454692221438782,0.0998948745022816,-0.159405798609335));
#466=CARTESIAN_POINT('',(0.427297062642118,0.0999436352759769,-0.142379200985301));
#467=CARTESIAN_POINT('',(0.399303941716806,0.0998729333394926,-0.12635232963048));
#468=CARTESIAN_POINT('',(0.371156272780708,0.0999168757498931,-0.110604210623039));
#469=CARTESIAN_POINT('',(0.342540190669421,0.100000980510888,-0.0957119813964956));
#470=CARTESIAN_POINT('',(0.303667456126031,0.0999482908959439,-0.0773153687870993));
#471=CARTESIAN_POINT('',(0.254408595826169,0.100028878906612,-0.0557235395489738));
#472=CARTESIAN_POINT('',(0.193603014913327,0.0999569864370153,-0.0341151488615035));
#473=CARTESIAN_POINT('',(0.131780752461436,0.100091645088156,-0.0155458868774875));
#474=CARTESIAN_POINT('',(0.0685082295646393,0.100083874308515,-0.00267084265836983));
#475=CARTESIAN_POINT('',(0.0257083886438324,0.10010247676182,0.0020923630108632));
#476=CARTESIAN_POINT('',(0.0046498030424118,0.100093260407448,0.00643621664494276));
#477=CARTESIAN_POINT('',(0.000225515745114535,0.100041307508945,0.0040673571638763));
#478=CARTESIAN_POINT('',(0.00243765939376317,0.100067283958197,0.00525178690440953));
#479=VECTOR('',#524,1.0);
#480=CARTESIAN_POINT('',(-2.07633995670472E-34,0.0900195613503456,-9.79322251591799E-35));
#481=CARTESIAN_POINT('',(0.000112757872557268,0.0950304344296455,0.00203367858193815));
#482=VECTOR('',#525,1.0);
#483=CARTESIAN_POINT('',(-5.79634886858028E-34,0.00999244768172503,-4.80201886020634E-34));
#484=CARTESIAN_POINT('',(-5.05963763073866E-35,0.0500060045160353,-1.51223445224701E-35));
#485=VECTOR('',#526,1.0);
#486=CARTESIAN_POINT('',(0.0025807220954448,0.00378868170082569,0.0103006418794394));
#487=CARTESIAN_POINT('',(0.0012903610477224,0.00689056469127536,0.00515032093971968));
#488=VECTOR('',#527,1.0);
#489=CARTESIAN_POINT('',(0.858243823051453,0.00124947133008391,-0.527143359184265));
#490=CARTESIAN_POINT('',(0.0025807220954448,0.00378868170082569,0.0103006418794394));
#491=CARTESIAN_POINT('',(0.00512487308743276,0.00302375997036781,0.00982238906143918));
#492=CARTESIAN_POINT('',(0.0102368366397461,0.00152576428751763,0.00884606514570343));
#493=CARTESIAN_POINT('',(0.020692534706625,0.000520312553562492,0.00614948324758604));
#494=CARTESIAN_POINT('',(0.0390912552676953,-0.000367358032946155,0.00201265139766529));
#495=CARTESIAN_POINT('',(0.065701525468393,-0.000370554476646207,-0.00266540816736924));
#496=CARTESIAN_POINT('',(0.0976462531683881,-0.000117570311530753,-0.00799666956765835));
#497=CARTESIAN_POINT('',(0.129353763401902,1.30247987359171E-05,-0.0146767371348818));
#498=CARTESIAN_POINT('',(0.160702902542005,5.84722601622357E-05,-0.022862933666991));
#499=CARTESIAN_POINT('',(0.202050503065967,7.97051119588774E-05,-0.0353581423724197));
#500=CARTESIAN_POINT('',(0.252958841802565,8.14263904133914E-05,-0.0534453381108699));
#501=CARTESIAN_POINT('',(0.312307363968105,3.12068409099656E-05,-0.0794748104342501));
#502=CARTESIAN_POINT('',(0.370558524646133,0.000131113731905063,-0.10787345062738));
#503=CARTESIAN_POINT('',(0.427055969258095,0.00020996661279106,-0.139640601647249));
#504=CARTESIAN_POINT('',(0.481785416389208,0.000228933491792563,-0.174331940993676));
#505=CARTESIAN_POINT('',(0.535086838159207,0.000344567979714454,-0.211176854431867));
#506=CARTESIAN_POINT('',(0.57800202817244,0.000468872317470402,-0.243965251552769));
#507=CARTESIAN_POINT('',(0.611371785040109,0.000467324385217321,-0.271385162811758));
#508=CARTESIAN_POINT('',(0.636176033021478,0.00066448085130748,-0.29222398282089));
#509=CARTESIAN_POINT('',(0.66008826352399,0.000611549815013814,-0.314081219872051));
#510=CARTESIAN_POINT('',(0.683891303506281,0.000809674769187364,-0.336052661807657));
#511=CARTESIAN_POINT('',(0.706968459479869,0.000809418472769114,-0.358787682372421));
#512=CARTESIAN_POINT('',(0.729792320195029,0.0010338683854886,-0.381776619919053));
#513=CARTESIAN_POINT('',(0.751757729054108,0.00107689919044823,-0.405588889654545));
#514=CARTESIAN_POINT('',(0.773369564901479,0.00117031949693188,-0.429716138321057));
#515=CARTESIAN_POINT('',(0.794701674885756,0.00155018046804358,-0.454097593578037));
#516=CARTESIAN_POINT('',(0.811397297649682,0.00146418639099275,-0.475315562707867));
#517=CARTESIAN_POINT('',(0.824732005019037,0.00161543354694549,-0.492305828348271));
#518=CARTESIAN_POINT('',(0.834674085649877,0.00159500712940921,-0.505073511278282));
#519=CARTESIAN_POINT('',(0.845234941033184,0.00202812957539884,-0.517437684617619));
#520=CARTESIAN_POINT('',(0.853857444142817,0.00145295428118542,-0.52400259241718));
#521=CARTESIAN_POINT('',(0.858243823051453,0.00124947133008391,-0.527143359184265));
#522=AXIS2_PLACEMENT_3D('',#528,#529,#530);
#523=DIRECTION('',(-0.322415620503828,0.92795357283636,-0.186950085090558));
#524=DIRECTION('',(-0.88154007609141,-0.0103516247977178,-0.471995697129539));
#525=DIRECTION('',(-0.0208462969599993,-0.926393393835096,-0.375979669346293));
#526=DIRECTION('',(-0.0,-1.0,-0.0));
#527=DIRECTION('',(0.209842503765325,-0.504437803862678,0.837561117559607));
#528=CARTESIAN_POINT('',(1.18203200981683,0.0552612171170467,0.0467066164239077));
#529=DIRECTION('',(0.870905581903741,0.000534883588974504,-0.491450080179516));
#530=DIRECTION('',(0.000614169318934865,-0.999999811398006,-4.02411919134138E-20));
ENDSEC;
END-ISO-10303-21;
