ISO-10303-21;
HEADER;
FILE_DESCRIPTION(('STEP AP214'),'1');
FILE_NAME('SMAStripDeformed_08.stp','2026-04-22T20:42:58',(' '),(' '),'Spatial InterOp 3D',' ',' ');
FILE_SCHEMA(('AUTOMOTIVE_DESIGN { 1 0 10303 214 1 1 1 1 }'));
ENDSEC;
DATA;
#1=PRODUCT_DEFINITION_CONTEXT('',#9,'design');
#2=APPLICATION_PROTOCOL_DEFINITION('INTERNATIONAL STANDARD','automotive_design',1994,#9);
#3=PRODUCT_CATEGORY_RELATIONSHIP('NONE','NONE',#10,#11);
#4=SHAPE_DEFINITION_REPRESENTATION(#12,#13);
#5= (GEOMETRIC_REPRESENTATION_CONTEXT(3)GLOBAL_UNCERTAINTY_ASSIGNED_CONTEXT((#16))GLOBAL_UNIT_ASSIGNED_CONTEXT((#18,#19,#20))REPRESENTATION_CONTEXT('NONE','WORKSPACE'));
#9=APPLICATION_CONTEXT(' ');
#10=PRODUCT_CATEGORY('part','NONE');
#11=PRODUCT_RELATED_PRODUCT_CATEGORY('detail',' ',(#22));
#12=PRODUCT_DEFINITION_SHAPE('NONE','NONE',#23);
#13=MANIFOLD_SURFACE_SHAPE_REPRESENTATION('1',(#24,#25),#5);
#16=UNCERTAINTY_MEASURE_WITH_UNIT(LENGTH_MEASURE(1.0E-06),#18,'','');
#18= (CONVERSION_BASED_UNIT('MILLIMETRE',#28)LENGTH_UNIT()NAMED_UNIT(#31));
#19= (NAMED_UNIT(#33)PLANE_ANGLE_UNIT()SI_UNIT($,.RADIAN.));
#20= (NAMED_UNIT(#33)SOLID_ANGLE_UNIT()SI_UNIT($,.STERADIAN.));
#22=PRODUCT('1','','PART--DESC',(#39));
#23=PRODUCT_DEFINITION('','NONE',#40,#1);
#24=SHELL_BASED_SURFACE_MODEL('1',(#41));
#25=AXIS2_PLACEMENT_3D('',#42,#43,#44);
#28=LENGTH_MEASURE_WITH_UNIT(LENGTH_MEASURE(1.0),#45);
#31=DIMENSIONAL_EXPONENTS(1.0,0.0,0.0,0.0,0.0,0.0,0.0);
#33=DIMENSIONAL_EXPONENTS(0.0,0.0,0.0,0.0,0.0,0.0,0.0);
#39=PRODUCT_CONTEXT('',#9,'mechanical');
#40=PRODUCT_DEFINITION_FORMATION_WITH_SPECIFIED_SOURCE(' ','NONE',#22,.NOT_KNOWN.);
#41=CLOSED_SHELL('',(#46));
#42=CARTESIAN_POINT('',(0.0,0.0,0.0));
#43=DIRECTION('',(0.0,0.0,1.0));
#44=DIRECTION('',(1.0,0.0,0.0));
#45= (NAMED_UNIT(#31)LENGTH_UNIT()SI_UNIT(.MILLI.,.METRE.));
#46=FACE_SURFACE('',(#48),#49,.T.);
#48=FACE_BOUND('',#50,.T.);
#49=B_SPLINE_SURFACE_WITH_KNOTS('',3,3,((#51,#52,#53,#54,#55,#56,#57,#58,#59,#60,#61,#62,#63,#64,#65,#66,#67,#68,#69),(#70,#71,#72,#73,#74,#75,#76,#77,#78,#79,#80,#81,#82,#83,#84,#85,#86,#87,#88),(#89,#90,#91,#92,#93,#94,#95,#96,#97,#98,#99,#100,#101,#102,#103,#104,#105,#106,#107),(#108,#109,#110,#111,#112,#113,#114,#115,#116,#117,#118,#119,#120,#121,#122,#123,#124,#125,#126),(#127,#128,#129,#130,#131,#132,#133,#134,#135,#136,#137,#138,#139,#140,#141,#142,#143,#144,#145),(#146,#147,#148,#149,#150,#151,#152,#153,#154,#155,#156,#157,#158,#159,#160,#161,#162,#163,#164),(#165,#166,#167,#168,#169,#170,#171,#172,#173,#174,#175,#176,#177,#178,#179,#180,#181,#182,#183),(#184,#185,#186,#187,#188,#189,#190,#191,#192,#193,#194,#195,#196,#197,#198,#199,#200,#201,#202),(#203,#204,#205,#206,#207,#208,#209,#210,#211,#212,#213,#214,#215,#216,#217,#218,#219,#220,#221),(#222,#223,#224,#225,#226,#227,#228,#229,#230,#231,#232,#233,#234,#235,#236,#237,#238,#239,#240),(#241,#242,#243,#244,#245,#246,#247,#248,#249,#250,#251,#252,#253,#254,#255,#256,#257,#258,#259),(#260,#261,#262,#263,#264,#265,#266,#267,#268,#269,#270,#271,#272,#273,#274,#275,#276,#277,#278),(#279,#280,#281,#282,#283,#284,#285,#286,#287,#288,#289,#290,#291,#292,#293,#294,#295,#296,#297),(#298,#299,#300,#301,#302,#303,#304,#305,#306,#307,#308,#309,#310,#311,#312,#313,#314,#315,#316),(#317,#318,#319,#320,#321,#322,#323,#324,#325,#326,#327,#328,#329,#330,#331,#332,#333,#334,#335),(#336,#337,#338,#339,#340,#341,#342,#343,#344,#345,#346,#347,#348,#349,#350,#351,#352,#353,#354),(#355,#356,#357,#358,#359,#360,#361,#362,#363,#364,#365,#366,#367,#368,#369,#370,#371,#372,#373),(#374,#375,#376,#377,#378,#379,#380,#381,#382,#383,#384,#385,#386,#387,#388,#389,#390,#391,#392),(#393,#394,#395,#396,#397,#398,#399,#400,#401,#402,#403,#404,#405,#406,#407,#408,#409,#410,#411)),.UNSPECIFIED.,.F.,.F.,.F.,(4,1,1,1,1,1,1,1,1,1,1,1,1,1,1,1,4),(4,1,1,1,1,1,1,1,1,1,1,1,1,1,1,1,4),(0.0,1.0,2.0,3.0,4.0,5.0,6.0,7.0,8.0,9.0,10.0,11.0,12.0,13.0,14.0,15.0,16.0),(0.0,1.0,2.0,3.0,4.0,5.0,6.0,7.0,8.0,9.0,10.0,11.0,12.0,13.0,14.0,15.0,16.0),.UNSPECIFIED.);
#50=EDGE_LOOP('',(#412,#413,#414,#415,#416,#417,#418));
#51=CARTESIAN_POINT('',(-0.022872222129927,0.0173283978998452,0.0215061763221818));
#52=CARTESIAN_POINT('',(-0.0227910949391926,0.0245891569605546,0.0154234642315967));
#53=CARTESIAN_POINT('',(-0.0175426436316007,0.0449916750671813,0.0100657970269543));
#54=CARTESIAN_POINT('',(-0.0056235953983822,0.0802741364651536,0.00744527060233202));
#55=CARTESIAN_POINT('',(0.00550688022179352,0.114644797633406,0.00376925796946487));
#56=CARTESIAN_POINT('',(0.0109486874754694,0.142437841170023,-0.00752090573181363));
#57=CARTESIAN_POINT('',(0.0142542443673297,0.167760809613458,-0.0216703911454635));
#58=CARTESIAN_POINT('',(0.0163605516212069,0.191697125670899,-0.0374250444690788));
#59=CARTESIAN_POINT('',(0.0182411909468359,0.21537250942431,-0.0534817490964923));
#60=CARTESIAN_POINT('',(0.0197125305425069,0.238574633541731,-0.0700862919481399));
#61=CARTESIAN_POINT('',(0.020591584869305,0.261091917943334,-0.0874835949366503));
#62=CARTESIAN_POINT('',(0.0209914564133782,0.283055139264201,-0.105522272999604));
#63=CARTESIAN_POINT('',(0.0210252476608745,0.304595074139414,-0.124050941074583));
#64=CARTESIAN_POINT('',(0.0208560680163595,0.325900320537116,-0.142851280995185));
#65=CARTESIAN_POINT('',(0.0206470268843985,0.347159476425448,-0.161704974595008));
#66=CARTESIAN_POINT('',(0.0204110604356113,0.368387499467342,-0.180594707108804));
#67=CARTESIAN_POINT('',(0.0201611048406176,0.389599347325728,-0.199503163771324));
#68=CARTESIAN_POINT('',(0.019993765793564,0.403739767550935,-0.21210974113532));
#69=CARTESIAN_POINT('',(0.0199120768025428,0.410812267687265,-0.218410378920356));
#70=CARTESIAN_POINT('',(-0.00641331263961714,0.00960139990471884,0.0125615198621835));
#71=CARTESIAN_POINT('',(-0.00622499413393274,0.0169861007102707,0.00662228086805428));
#72=CARTESIAN_POINT('',(1.66550703849522E-05,0.0385370204420787,0.00259398608227746));
#73=CARTESIAN_POINT('',(0.0133814543303592,0.0754911555661104,0.00190856397659492));
#74=CARTESIAN_POINT('',(0.0254836665544776,0.110985403381994,-0.000466801681543227));
#75=CARTESIAN_POINT('',(0.0303568575272086,0.138120974864658,-0.0125180451266453));
#76=CARTESIAN_POINT('',(0.0332426929527808,0.162958633365736,-0.0272293180176234));
#77=CARTESIAN_POINT('',(0.0350058999949756,0.186498234083772,-0.0434432030410048));
#78=CARTESIAN_POINT('',(0.0366751616010115,0.209929208825134,-0.0597828318583668));
#79=CARTESIAN_POINT('',(0.0380090847429986,0.232972442877184,-0.076571303455764));
#80=CARTESIAN_POINT('',(0.0387675685838617,0.255350315644456,-0.0941299872517243));
#81=CARTESIAN_POINT('',(0.0390554793261278,0.277184080421792,-0.112318522259006));
#82=CARTESIAN_POINT('',(0.038977683172324,0.298594990504036,-0.130996547490369));
#83=CARTESIAN_POINT('',(0.0387070023831416,0.319782874511143,-0.149932744346078));
#84=CARTESIAN_POINT('',(0.0384162592192719,0.340947561063068,-0.1688957942264));
#85=CARTESIAN_POINT('',(0.0381154299552012,0.362100585393495,-0.187872344118618));
#86=CARTESIAN_POINT('',(0.0378144908654156,0.383253482736109,-0.206849041010016));
#87=CARTESIAN_POINT('',(0.0376204424380724,0.397363019795098,-0.219491368261924));
#88=CARTESIAN_POINT('',(0.0375267253449437,0.404421612237851,-0.225808105383502));
#89=CARTESIAN_POINT('',(0.0313512724436714,-0.000248441981373665,0.00115949129792514));
#90=CARTESIAN_POINT('',(0.0322112994651198,0.00791293299323811,-0.00388068137989642));
#91=CARTESIAN_POINT('',(0.0404723643080334,0.0317988357218141,-0.00520603502874012));
#92=CARTESIAN_POINT('',(0.0556694156596624,0.0708715428713556,-0.00343903007725249));
#93=CARTESIAN_POINT('',(0.0683562865116681,0.107041811972277,-0.00503184368113493));
#94=CARTESIAN_POINT('',(0.0706474619399597,0.131191884938228,-0.0205390552280381));
#95=CARTESIAN_POINT('',(0.0720537005332404,0.15431873493637,-0.0372307342660425));
#96=CARTESIAN_POINT('',(0.0728274283346621,0.176714233787162,-0.0547690143732841));
#97=CARTESIAN_POINT('',(0.0738912604879396,0.199445170630968,-0.0719189965137043));
#98=CARTESIAN_POINT('',(0.0748450823771498,0.222048906273022,-0.0892162248487904));
#99=CARTESIAN_POINT('',(0.0752926549544894,0.244067282708803,-0.107191056181717));
#100=CARTESIAN_POINT('',(0.0753084974968918,0.265586464094537,-0.125743748183433));
#101=CARTESIAN_POINT('',(0.0749671292812902,0.286692614586453,-0.144774558524885));
#102=CARTESIAN_POINT('',(0.0744613241985629,0.307608632209512,-0.164025463810681));
#103=CARTESIAN_POINT('',(0.0739838561395881,0.328557414988677,-0.183238440645426));
#104=CARTESIAN_POINT('',(0.0735371006744555,0.349541709716466,-0.202410309383486));
#105=CARTESIAN_POINT('',(0.0731234333732544,0.370564263185396,-0.221537890379228));
#106=CARTESIAN_POINT('',(0.0728712976618009,0.384606635853789,-0.234257966117755));
#107=CARTESIAN_POINT('',(0.0727515363567592,0.391635114242349,-0.240609562814753));
#108=CARTESIAN_POINT('',(0.0947724924096239,-0.00719025854712506,-0.00687625096939956));
#109=CARTESIAN_POINT('',(0.0961390444770316,0.0015567944558962,-0.0112384515856785));
#110=CARTESIAN_POINT('',(0.103357063866281,0.0242366584905975,-0.0139598974557156));
#111=CARTESIAN_POINT('',(0.117848363193949,0.0624933280972044,-0.0131375252690631));
#112=CARTESIAN_POINT('',(0.130262054661293,0.0983477289805773,-0.0150959831625373));
#113=CARTESIAN_POINT('',(0.13322676748068,0.123276590783178,-0.0297016804857911));
#114=CARTESIAN_POINT('',(0.131356638557141,0.142615086221356,-0.0507787016849962));
#115=CARTESIAN_POINT('',(0.130626333417965,0.163271521911622,-0.0703300951051905));
#116=CARTESIAN_POINT('',(0.130551415206547,0.184685759662726,-0.0890042682772167));
#117=CARTESIAN_POINT('',(0.130614074226768,0.206259073381392,-0.107494297505919));
#118=CARTESIAN_POINT('',(0.13041810566944,0.227533344652069,-0.126330493766876));
#119=CARTESIAN_POINT('',(0.129932487400148,0.248472703614688,-0.145554379469671));
#120=CARTESIAN_POINT('',(0.129126197284479,0.269041280409176,-0.165207477023887));
#121=CARTESIAN_POINT('',(0.128213131919217,0.289486396541327,-0.185003490780699));
#122=CARTESIAN_POINT('',(0.127407187901149,0.310055373516936,-0.204656125091279));
#123=CARTESIAN_POINT('',(0.126700026818882,0.330738569908825,-0.224176540726466));
#124=CARTESIAN_POINT('',(0.126083310261024,0.351526344289815,-0.243575898457098));
#125=CARTESIAN_POINT('',(0.12572692836018,0.365448180563891,-0.256435505309619));
#126=CARTESIAN_POINT('',(0.125561044557887,0.37242332904612,-0.262848835902689));
#127=CARTESIAN_POINT('',(0.15536959905013,-0.0173975032247669,-0.0186920036203304));
#128=CARTESIAN_POINT('',(0.156391145026972,-0.00904936926538185,-0.0235159869111909));
#129=CARTESIAN_POINT('',(0.160929620566881,0.0105322275242191,-0.0298239402639746));
#130=CARTESIAN_POINT('',(0.173552420744702,0.0466284138400253,-0.0315025109837349));
#131=CARTESIAN_POINT('',(0.185754839169134,0.0822385267455071,-0.0337437529598403));
#132=CARTESIAN_POINT('',(0.193654294433819,0.112873266765042,-0.0417444116270396));
#133=CARTESIAN_POINT('',(0.190818557435033,0.131095261769059,-0.0641138769070261));
#134=CARTESIAN_POINT('',(0.1889759619101,0.150465593158371,-0.0851540452888563));
#135=CARTESIAN_POINT('',(0.187839109965856,0.170651952327943,-0.105249592206977));
#136=CARTESIAN_POINT('',(0.186684389173664,0.190817650344193,-0.125369056164891));
#137=CARTESIAN_POINT('',(0.185699841877863,0.21118011430252,-0.145260746832839));
#138=CARTESIAN_POINT('',(0.184670485561831,0.231490767084217,-0.16521241333824));
#139=CARTESIAN_POINT('',(0.183381337708945,0.251501031570574,-0.185511804808511));
#140=CARTESIAN_POINT('',(0.182048230389346,0.271460467190719,-0.205870035008494));
#141=CARTESIAN_POINT('',(0.180886995673176,0.291618633373779,-0.22599821770303));
#142=CARTESIAN_POINT('',(0.179884998054175,0.311960920105001,-0.245913265225074));
#143=CARTESIAN_POINT('',(0.179029602026086,0.332472717369634,-0.26563208990758));
#144=CARTESIAN_POINT('',(0.178548748979996,0.346250631807024,-0.278658298509843));
#145=CARTESIAN_POINT('',(0.178328594344784,0.353163028733968,-0.285144269357861));
#146=CARTESIAN_POINT('',(0.214285813164129,-0.0295483079074802,-0.0327575920503982));
#147=CARTESIAN_POINT('',(0.214691300334569,-0.0219125022129975,-0.0384061558083842));
#148=CARTESIAN_POINT('',(0.216130736048356,-0.0059142218848512,-0.0488621023087503));
#149=CARTESIAN_POINT('',(0.225576303315855,0.0265082359123774,-0.0547933258112215));
#150=CARTESIAN_POINT('',(0.237660464272596,0.0619816116494318,-0.0571928526733417));
#151=CARTESIAN_POINT('',(0.248626661429538,0.0961623231059677,-0.0610887482306059));
#152=CARTESIAN_POINT('',(0.250567218515329,0.119906987768423,-0.0770652543215326));
#153=CARTESIAN_POINT('',(0.247112769420229,0.137413586596846,-0.100262851435839));
#154=CARTESIAN_POINT('',(0.245167872220807,0.156665629969612,-0.121439948243432));
#155=CARTESIAN_POINT('',(0.242957682266402,0.175610924171868,-0.142972133269156));
#156=CARTESIAN_POINT('',(0.241141590746748,0.195011901259118,-0.163976826652778));
#157=CARTESIAN_POINT('',(0.239465211578516,0.214574423081773,-0.184794518284617));
#158=CARTESIAN_POINT('',(0.237675296667667,0.23400566730933,-0.205764174882641));
#159=CARTESIAN_POINT('',(0.235935112727726,0.25349441380104,-0.226667267726042));
#160=CARTESIAN_POINT('',(0.23440792647222,0.273229442416152,-0.247285268094013));
#161=CARTESIAN_POINT('',(0.233083666252451,0.293199107642961,-0.267631656655446));
#162=CARTESIAN_POINT('',(0.231952260419722,0.313391763969762,-0.287719914079235));
#163=CARTESIAN_POINT('',(0.231323601579899,0.326998775494154,-0.300943957318669));
#164=CARTESIAN_POINT('',(0.231039935619812,0.333837736392947,-0.307514936606448));
#165=CARTESIAN_POINT('',(0.271801668488032,-0.0433183007859035,-0.0486975283402488));
#166=CARTESIAN_POINT('',(0.271992922432564,-0.0359302058302489,-0.0546328383173573));
#167=CARTESIAN_POINT('',(0.272207805731245,-0.0213478346459538,-0.0667278199097873));
#168=CARTESIAN_POINT('',(0.275292327052431,0.00371955773411866,-0.0811731563237371));
#169=CARTESIAN_POINT('',(0.286476605386663,0.038152429187416,-0.0847771552679302));
#170=CARTESIAN_POINT('',(0.298059046494153,0.07304568298486,-0.0878482225469102));
#171=CARTESIAN_POINT('',(0.306760242103669,0.104607448643507,-0.0947757703013464));
#172=CARTESIAN_POINT('',(0.305644789575227,0.124818551244339,-0.114842674596239));
#173=CARTESIAN_POINT('',(0.302093791163614,0.14221351331602,-0.138169500738169));
#174=CARTESIAN_POINT('',(0.299335746216235,0.16052534104964,-0.160434977003836));
#175=CARTESIAN_POINT('',(0.296747079443081,0.179033015120826,-0.182473744499865));
#176=CARTESIAN_POINT('',(0.294259385046779,0.197657440186005,-0.20437736280428));
#177=CARTESIAN_POINT('',(0.291950820273624,0.216488986864125,-0.226041220250162));
#178=CARTESIAN_POINT('',(0.289842272053136,0.23555180601564,-0.24743736016532));
#179=CARTESIAN_POINT('',(0.287954627314834,0.254870048501001,-0.268537825877564));
#180=CARTESIAN_POINT('',(0.286287683285825,0.274443479860671,-0.289342888793723));
#181=CARTESIAN_POINT('',(0.284841237193216,0.294271865635111,-0.309852820320626));
#182=CARTESIAN_POINT('',(0.284038328218542,0.307677397536247,-0.323310093336339));
#183=CARTESIAN_POINT('',(0.283680818285338,0.314430975110108,-0.329979911074628));
#184=CARTESIAN_POINT('',(0.328149603470053,-0.058438721029428,-0.0662006990016664));
#185=CARTESIAN_POINT('',(0.328429353882261,-0.0509483005577435,-0.0720175585031106));
#186=CARTESIAN_POINT('',(0.329004662256252,-0.03594918187166,-0.0836301194664152));
#187=CARTESIAN_POINT('',(0.327747147969743,-0.0159023405468315,-0.103887170139559));
#188=CARTESIAN_POINT('',(0.333489281513126,0.012237960268844,-0.114775354046567));
#189=CARTESIAN_POINT('',(0.344825822103536,0.0468468874941338,-0.118175553481653));
#190=CARTESIAN_POINT('',(0.356012173993056,0.0812821565302996,-0.121776777020041));
#191=CARTESIAN_POINT('',(0.363079657546821,0.110954915389709,-0.13089101058447));
#192=CARTESIAN_POINT('',(0.359117827426062,0.127874846448925,-0.154767725469354));
#193=CARTESIAN_POINT('',(0.355329502073374,0.144995395288632,-0.178412208234158));
#194=CARTESIAN_POINT('',(0.352324292621399,0.163021434943461,-0.201008508473994));
#195=CARTESIAN_POINT('',(0.349076625893415,0.180767129331025,-0.223929332171382));
#196=CARTESIAN_POINT('',(0.346177702218666,0.198916063687607,-0.246383371356068));
#197=CARTESIAN_POINT('',(0.343603227716393,0.21744014780859,-0.268403142825694));
#198=CARTESIAN_POINT('',(0.341328939938933,0.236311327834397,-0.290021121305431));
#199=CARTESIAN_POINT('',(0.339326633382219,0.255496990680752,-0.311275059210273));
#200=CARTESIAN_POINT('',(0.337568102542184,0.274964523263376,-0.332202708955211));
#201=CARTESIAN_POINT('',(0.336592956292873,0.288170902944433,-0.345890517580351));
#202=CARTESIAN_POINT('',(0.336163357704127,0.294841126808571,-0.352656824317163));
#203=CARTESIAN_POINT('',(0.38366538066255,-0.0745213375895653,-0.0848176936222213));
#204=CARTESIAN_POINT('',(0.383934571428179,-0.0670431268852723,-0.0906486869664389));
#205=CARTESIAN_POINT('',(0.3844795966775,-0.0520790235669229,-0.102301781191872));
#206=CARTESIAN_POINT('',(0.384593134899716,-0.0304468799227692,-0.120723709785193));
#207=CARTESIAN_POINT('',(0.383033375154675,-0.010749514947948,-0.141385309015704));
#208=CARTESIAN_POINT('',(0.389820724496884,0.0185993340593774,-0.150874495744703));
#209=CARTESIAN_POINT('',(0.40105099719896,0.0530853872672427,-0.154416932291074));
#210=CARTESIAN_POINT('',(0.411957931568838,0.087197575138297,-0.158392149718478));
#211=CARTESIAN_POINT('',(0.416281821959999,0.113698008666413,-0.171178619290431));
#212=CARTESIAN_POINT('',(0.411727026423408,0.129932313578551,-0.195849004673155));
#213=CARTESIAN_POINT('',(0.407742772024826,0.14682631619271,-0.219755733935384));
#214=CARTESIAN_POINT('',(0.403940565334374,0.163930814504219,-0.243418796549804));
#215=CARTESIAN_POINT('',(0.400325736194643,0.181251971232424,-0.266831058645351));
#216=CARTESIAN_POINT('',(0.397051499068316,0.198966943153961,-0.28978744620653));
#217=CARTESIAN_POINT('',(0.394332706082433,0.217324156622411,-0.312000384629364));
#218=CARTESIAN_POINT('',(0.392030100769556,0.236162594025825,-0.333656265475466));
#219=CARTESIAN_POINT('',(0.390004426662245,0.255321237752253,-0.354941480306449));
#220=CARTESIAN_POINT('',(0.388887513199842,0.268363696729845,-0.368819041068203));
#221=CARTESIAN_POINT('',(0.388399669238948,0.274966573411458,-0.375663307888816));
#222=CARTESIAN_POINT('',(0.438452958015525,-0.0914459473535963,-0.104409366889675));
#223=CARTESIAN_POINT('',(0.438699551952718,-0.0839938646088823,-0.110270605566243));
#224=CARTESIAN_POINT('',(0.439135127058679,-0.0691563148433803,-0.122070196277728));
#225=CARTESIAN_POINT('',(0.439699157127903,-0.047003282491205,-0.139889151950636));
#226=CARTESIAN_POINT('',(0.438329902698051,-0.0270856425698787,-0.160295764221855));
#227=CARTESIAN_POINT('',(0.436476246151506,-0.00772810067119963,-0.181350737525349));
#228=CARTESIAN_POINT('',(0.444420478990527,0.0229584141651257,-0.189291462444699));
#229=CARTESIAN_POINT('',(0.455299169205624,0.0570379442613697,-0.193304484020184));
#230=CARTESIAN_POINT('',(0.465519439052949,0.0903561648311906,-0.198198786033152));
#231=CARTESIAN_POINT('',(0.469078463359311,0.115972209198068,-0.212009011173467));
#232=CARTESIAN_POINT('',(0.463002592516374,0.130447745430178,-0.238715320681624));
#233=CARTESIAN_POINT('',(0.458336774772589,0.146553679064453,-0.26353430672149));
#234=CARTESIAN_POINT('',(0.454334891985124,0.163427298560093,-0.287464631174614));
#235=CARTESIAN_POINT('',(0.45037614757892,0.180350797528204,-0.311337215901918));
#236=CARTESIAN_POINT('',(0.447093224682548,0.198055726383331,-0.33430522916546));
#237=CARTESIAN_POINT('',(0.444364019484784,0.216400900558217,-0.356532104093132));
#238=CARTESIAN_POINT('',(0.442066445913921,0.235245155997215,-0.378181250068899));
#239=CARTESIAN_POINT('',(0.44084506541629,0.248166823223809,-0.392198637541694));
#240=CARTESIAN_POINT('',(0.440317604171131,0.254723891760051,-0.399095931181218));
#241=CARTESIAN_POINT('',(0.492480629964018,-0.109249210409552,-0.125018155969592));
#242=CARTESIAN_POINT('',(0.492733541981929,-0.101789822278683,-0.130870938041214));
#243=CARTESIAN_POINT('',(0.493197343354318,-0.0869196354220768,-0.142632748547765));
#244=CARTESIAN_POINT('',(0.493545716142034,-0.0650159603967566,-0.160740356505287));
#245=CARTESIAN_POINT('',(0.493110341333338,-0.0440185065952423,-0.179896992497864));
#246=CARTESIAN_POINT('',(0.490708292455712,-0.0252950524713413,-0.201685976255929));
#247=CARTESIAN_POINT('',(0.48914423230283,-0.0056026599147756,-0.222353331482896));
#248=CARTESIAN_POINT('',(0.496735194626336,0.0246753799987925,-0.230766900818525));
#249=CARTESIAN_POINT('',(0.507306963873009,0.0584000276087762,-0.235190729013252));
#250=CARTESIAN_POINT('',(0.51736473524659,0.0915303566094013,-0.240302531475844));
#251=CARTESIAN_POINT('',(0.519516230428337,0.115518921961746,-0.255996701802895));
#252=CARTESIAN_POINT('',(0.513215373975821,0.129734314832161,-0.28300414934709));
#253=CARTESIAN_POINT('',(0.508229053147399,0.145469661431883,-0.308252121354689));
#254=CARTESIAN_POINT('',(0.503766306307562,0.161810399184139,-0.332799301685268));
#255=CARTESIAN_POINT('',(0.499737794676491,0.178653228635444,-0.356765268229815));
#256=CARTESIAN_POINT('',(0.496294323564853,0.196172520940252,-0.379948171567104));
#257=CARTESIAN_POINT('',(0.493670396657732,0.214639424893735,-0.40203413393712));
#258=CARTESIAN_POINT('',(0.492388679419059,0.227491326757655,-0.416132280742624));
#259=CARTESIAN_POINT('',(0.491845013782006,0.234029658695635,-0.423051263586));
#260=CARTESIAN_POINT('',(0.545864557995136,-0.127796813101496,-0.146488581397503));
#261=CARTESIAN_POINT('',(0.54611536462672,-0.120339859358666,-0.152344181480041));
#262=CARTESIAN_POINT('',(0.546617501508456,-0.105425346430306,-0.16405468079377));
#263=CARTESIAN_POINT('',(0.546929004769938,-0.083564302409327,-0.182211637759616));
#264=CARTESIAN_POINT('',(0.546353255312584,-0.0627291591354364,-0.201556161973512));
#265=CARTESIAN_POINT('',(0.545351027114027,-0.0423871390156708,-0.221471518120961));
#266=CARTESIAN_POINT('',(0.542144241780261,-0.0245941748345302,-0.244337623017497));
#267=CARTESIAN_POINT('',(0.539746198054488,-0.00586608968703182,-0.266121245972419));
#268=CARTESIAN_POINT('',(0.547333080704318,0.0244072330358393,-0.274540275856927));
#269=CARTESIAN_POINT('',(0.557657129389768,0.0578454496172858,-0.279295672294762));
#270=CARTESIAN_POINT('',(0.567279729924422,0.0904726050808919,-0.284989940862722));
#271=CARTESIAN_POINT('',(0.569831642597579,0.114924159832835,-0.300148161636449));
#272=CARTESIAN_POINT('',(0.562558830805553,0.128015713138972,-0.328456548927872));
#273=CARTESIAN_POINT('',(0.556768871526875,0.142821839383541,-0.354780172418456));
#274=CARTESIAN_POINT('',(0.552331786329702,0.159192248837921,-0.379293005233707));
#275=CARTESIAN_POINT('',(0.548254488101208,0.175978667972658,-0.403324271510804));
#276=CARTESIAN_POINT('',(0.545190123407203,0.193936308392744,-0.425999749674239));
#277=CARTESIAN_POINT('',(0.543748121426505,0.206602878351672,-0.440312433900649));
#278=CARTESIAN_POINT('',(0.543158809986014,0.213088431568489,-0.44729251259645));
#279=CARTESIAN_POINT('',(0.598713235671353,-0.146963307939178,-0.168675427048754));
#280=CARTESIAN_POINT('',(0.598908507206984,-0.139570567576841,-0.174605359573077));
#281=CARTESIAN_POINT('',(0.599300850266829,-0.12478300558536,-0.186462815378624));
#282=CARTESIAN_POINT('',(0.59955496062107,-0.102988323070145,-0.204696591423705));
#283=CARTESIAN_POINT('',(0.599134862538512,-0.0819732052993635,-0.223832779871593));
#284=CARTESIAN_POINT('',(0.598173902067875,-0.0615834686812372,-0.243692900119463));
#285=CARTESIAN_POINT('',(0.59651813478288,-0.041997114024979,-0.2644830032222));
#286=CARTESIAN_POINT('',(0.592829779574521,-0.0247609730393417,-0.28799367826045));
#287=CARTESIAN_POINT('',(0.589944661550168,-0.00659607566934187,-0.31042923890131));
#288=CARTESIAN_POINT('',(0.596148914425637,0.0220785583278138,-0.320698886767992));
#289=CARTESIAN_POINT('',(0.60590097736383,0.054855406853713,-0.326219872902397));
#290=CARTESIAN_POINT('',(0.615417169607683,0.087359525957203,-0.332056566507094));
#291=CARTESIAN_POINT('',(0.618401739383283,0.11231134769645,-0.346635685753613));
#292=CARTESIAN_POINT('',(0.61142591824577,0.125746301397847,-0.374546557921342));
#293=CARTESIAN_POINT('',(0.60519573938234,0.140043416408872,-0.401459405146836));
#294=CARTESIAN_POINT('',(0.600680129111491,0.156323029937762,-0.426077341957452));
#295=CARTESIAN_POINT('',(0.596999470675858,0.173568070445174,-0.44957771504338));
#296=CARTESIAN_POINT('',(0.595153157656985,0.185767149026151,-0.464431560245426));
#297=CARTESIAN_POINT('',(0.594435904697595,0.192104767728894,-0.471582885705858));
#298=CARTESIAN_POINT('',(0.651237696399029,-0.166504684028466,-0.191296229588699));
#299=CARTESIAN_POINT('',(0.651356872573334,-0.159199930196208,-0.197328013994588));
#300=CARTESIAN_POINT('',(0.651579108937455,-0.144609056907419,-0.209413153678954));
#301=CARTESIAN_POINT('',(0.651732318513326,-0.122931042599261,-0.227781983082735));
#302=CARTESIAN_POINT('',(0.651573586102048,-0.101613716413969,-0.246568339623223));
#303=CARTESIAN_POINT('',(0.6508077170299,-0.0809984021140699,-0.266167334545349));
#304=CARTESIAN_POINT('',(0.6491369463817,-0.0614293953466319,-0.286977519302812));
#305=CARTESIAN_POINT('',(0.647021580493766,-0.0423744592367549,-0.308382784508199));
#306=CARTESIAN_POINT('',(0.642878785108346,-0.0256637722815829,-0.332501717215339));
#307=CARTESIAN_POINT('',(0.638356611535491,-0.00939174768005058,-0.357128438853925));
#308=CARTESIAN_POINT('',(0.643281917888856,0.0178040830802602,-0.369109927067123));
#309=CARTESIAN_POINT('',(0.652825544715324,0.0503399238772463,-0.374909900117365));
#310=CARTESIAN_POINT('',(0.66239242057367,0.0829026467549144,-0.38067875487603));
#311=CARTESIAN_POINT('',(0.66694047844266,0.109662277666251,-0.393165181462375));
#312=CARTESIAN_POINT('',(0.65995657693847,0.123087888308974,-0.421086869014057));
#313=CARTESIAN_POINT('',(0.652464778431152,0.135926234574941,-0.449688364960226));
#314=CARTESIAN_POINT('',(0.648357230124216,0.152677676552196,-0.473760120267839));
#315=CARTESIAN_POINT('',(0.646366778105447,0.164710092011677,-0.488806892188293));
#316=CARTESIAN_POINT('',(0.6455997059322,0.170990106417887,-0.496024899514493));
#317=CARTESIAN_POINT('',(0.703648973584523,-0.186176930475227,-0.21406852568269));
#318=CARTESIAN_POINT('',(0.703704363576382,-0.178945930479768,-0.220185686418843));
#319=CARTESIAN_POINT('',(0.703783996828353,-0.164519944416666,-0.232461697071382));
#320=CARTESIAN_POINT('',(0.703769034867309,-0.143036381251567,-0.251055620188663));
#321=CARTESIAN_POINT('',(0.703578689423508,-0.121755608162134,-0.269884290042188));
#322=CARTESIAN_POINT('',(0.702919910605417,-0.101016468970735,-0.289339947135527));
#323=CARTESIAN_POINT('',(0.701499648521503,-0.0811578074997423,-0.30981483197225));
#324=CARTESIAN_POINT('',(0.699477785150412,-0.061994757546033,-0.33109494622092));
#325=CARTESIAN_POINT('',(0.696827730618465,-0.0435580640943155,-0.353215879812612));
#326=CARTESIAN_POINT('',(0.692605224269432,-0.0269395442696417,-0.377441503801376));
#327=CARTESIAN_POINT('',(0.687020403603044,-0.0118962230848517,-0.403490554002868));
#328=CARTESIAN_POINT('',(0.689327585633431,0.0122723577816096,-0.418976341082991));
#329=CARTESIAN_POINT('',(0.697898460722058,0.0436834381654724,-0.426078319841211));
#330=CARTESIAN_POINT('',(0.706664689608096,0.0753203996342351,-0.432918822058799));
#331=CARTESIAN_POINT('',(0.71194532829408,0.1029270893277,-0.444424706161202));
#332=CARTESIAN_POINT('',(0.706580367877274,0.118224627591246,-0.470179478502499));
#333=CARTESIAN_POINT('',(0.699483260458168,0.13151934200765,-0.498252689553614));
#334=CARTESIAN_POINT('',(0.697501954094922,0.143562332283792,-0.513287220225627));
#335=CARTESIAN_POINT('',(0.696763430966446,0.149875356998945,-0.520467015315546));
#336=CARTESIAN_POINT('',(0.755986983207551,-0.205933893762495,-0.236938888714863));
#337=CARTESIAN_POINT('',(0.755991913979692,-0.198761238081015,-0.24312358794983));
#338=CARTESIAN_POINT('',(0.755960556025908,-0.184463587449844,-0.255548157764802));
#339=CARTESIAN_POINT('',(0.755768954914271,-0.163184266247279,-0.27437850830069));
#340=CARTESIAN_POINT('',(0.755411883934911,-0.142096272337732,-0.293430336428336));
#341=CARTESIAN_POINT('',(0.754764529834627,-0.121343923125913,-0.312870701801066));
#342=CARTESIAN_POINT('',(0.753702079360219,-0.101071536016534,-0.332866664072209));
#343=CARTESIAN_POINT('',(0.751981063853222,-0.0815606257046868,-0.353744100411351));
#344=CARTESIAN_POINT('',(0.749357625423391,-0.0630931569411945,-0.375829408965811));
#345=CARTESIAN_POINT('',(0.746183801089413,-0.0452620810545739,-0.398651396326295));
#346=CARTESIAN_POINT('',(0.741528903273361,-0.0291435210718166,-0.423455766295394));
#347=CARTESIAN_POINT('',(0.734546044504355,-0.0157167047491533,-0.451376058170142));
#348=CARTESIAN_POINT('',(0.733703555161167,0.00481001608505754,-0.471077607553351));
#349=CARTESIAN_POINT('',(0.740470038655417,0.0341347386078358,-0.480594722737359));
#350=CARTESIAN_POINT('',(0.748294348188635,0.0646825901226461,-0.488695962228518));
#351=CARTESIAN_POINT('',(0.754573177842895,0.0934434547635088,-0.498865790801242));
#352=CARTESIAN_POINT('',(0.75290577754257,0.113016358551863,-0.519671464426007));
#353=CARTESIAN_POINT('',(0.749888501776838,0.123861491936267,-0.536092616188331));
#354=CARTESIAN_POINT('',(0.748801313840724,0.129771367155175,-0.543739091061034));
#355=CARTESIAN_POINT('',(0.808291641247828,-0.225729420373304,-0.259853892069351));
#356=CARTESIAN_POINT('',(0.808260457546826,-0.218598522653444,-0.26608692969154));
#357=CARTESIAN_POINT('',(0.808153828616502,-0.2043879053437,-0.278612247968104));
#358=CARTESIAN_POINT('',(0.807835923885465,-0.183254624806609,-0.297611652978018));
#359=CARTESIAN_POINT('',(0.807334881068273,-0.162333100734636,-0.316856184081514));
#360=CARTESIAN_POINT('',(0.806592670411099,-0.141690430998027,-0.336423512762256));
#361=CARTESIAN_POINT('',(0.805551262160116,-0.121393713467028,-0.356391310503908));
#362=CARTESIAN_POINT('',(0.803960536728985,-0.101732153082962,-0.377094356589225));
#363=CARTESIAN_POINT('',(0.801570374531364,-0.0829949547871481,-0.398867430300961));
#364=CARTESIAN_POINT('',(0.798420241715784,-0.0651364851874299,-0.421657707111892));
#365=CARTESIAN_POINT('',(0.794503690377343,-0.04816419978134,-0.445473817393634));
#366=CARTESIAN_POINT('',(0.789835481739466,-0.0320610306582157,-0.470296003589957));
#367=CARTESIAN_POINT('',(0.782717317047732,-0.0187906640643232,-0.498397399313573));
#368=CARTESIAN_POINT('',(0.777384803707554,-0.00345560832751713,-0.524108741993084));
#369=CARTESIAN_POINT('',(0.781530509836408,0.0228387966768886,-0.537133707079946));
#370=CARTESIAN_POINT('',(0.789464178844958,0.0535130969081271,-0.545088571442113));
#371=CARTESIAN_POINT('',(0.796901273409864,0.0836132246607637,-0.553708089214715));
#372=CARTESIAN_POINT('',(0.800079358576136,0.101621847402479,-0.561836893626047));
#373=CARTESIAN_POINT('',(0.800360501643876,0.109113878155337,-0.567651889090266));
#374=CARTESIAN_POINT('',(0.843158412609881,-0.23892990768254,-0.275134577292791));
#375=CARTESIAN_POINT('',(0.84310979696393,-0.231819165939626,-0.281390947170213));
#376=CARTESIAN_POINT('',(0.842968793375332,-0.217648294901554,-0.293962275132025));
#377=CARTESIAN_POINT('',(0.842593402523076,-0.196581483650444,-0.313038623985928));
#378=CARTESIAN_POINT('',(0.842021557622178,-0.175741825668061,-0.332377922041294));
#379=CARTESIAN_POINT('',(0.841204115050463,-0.155186144086792,-0.352045946900046));
#380=CARTESIAN_POINT('',(0.840091931185757,-0.134971262039025,-0.37210847616411));
#381=CARTESIAN_POINT('',(0.838533628320431,-0.115272212522746,-0.392768125394809));
#382=CARTESIAN_POINT('',(0.836377828746857,-0.0962640285359401,-0.414227510153471));
#383=CARTESIAN_POINT('',(0.83350534360824,-0.078084524181212,-0.436646161968887));
#384=CARTESIAN_POINT('',(0.829781679357568,-0.0608892098643666,-0.460204097343813));
#385=CARTESIAN_POINT('',(0.825295764575094,-0.0445752604320052,-0.484782287429894));
#386=CARTESIAN_POINT('',(0.819332223058956,-0.0299698415431992,-0.511338246731544));
#387=CARTESIAN_POINT('',(0.812990364910904,-0.0158018575667664,-0.538400574097124));
#388=CARTESIAN_POINT('',(0.808938165217812,0.0010135821679346,-0.562398246564943));
#389=CARTESIAN_POINT('',(0.816286182269496,0.0310107125609431,-0.571136992529236));
#390=CARTESIAN_POINT('',(0.825940960431701,0.0636750739428214,-0.576788192086767));
#391=CARTESIAN_POINT('',(0.831003016964496,0.083862069983798,-0.582395344387433));
#392=CARTESIAN_POINT('',(0.83205534889341,0.0922458007134836,-0.587178121393314));
#393=CARTESIAN_POINT('',(0.860595856555633,-0.245525458900916,-0.282769488011016));
#394=CARTESIAN_POINT('',(0.860539456331352,-0.238423718206468,-0.289036277366528));
#395=CARTESIAN_POINT('',(0.860383215038457,-0.224270466018009,-0.301628000643197));
#396=CARTESIAN_POINT('',(0.859984050016251,-0.203231144047232,-0.320736170673845));
#397=CARTESIAN_POINT('',(0.859385601361303,-0.182422247098966,-0.340111077238842));
#398=CARTESIAN_POINT('',(0.858542259273128,-0.161896512265363,-0.359813768001498));
#399=CARTESIAN_POINT('',(0.857408413951237,-0.141706676638573,-0.379905290625122));
#400=CARTESIAN_POINT('',(0.855867303705534,-0.121987747869245,-0.400541927932004));
#401=CARTESIAN_POINT('',(0.853802166845921,-0.102874733608029,-0.421879962744439));
#402=CARTESIAN_POINT('',(0.851056696635974,-0.0845483661246253,-0.444128608014819));
#403=CARTESIAN_POINT('',(0.84746693399129,-0.0671982258436531,-0.467507319186364));
#404=CARTESIAN_POINT('',(0.843113504440874,-0.0507310881531307,-0.491908180852816));
#405=CARTESIAN_POINT('',(0.837558088256838,-0.0356537675454342,-0.517917873834606));
#406=CARTESIAN_POINT('',(0.831440324639383,-0.021226670532234,-0.544680255852762));
#407=CARTESIAN_POINT('',(0.826065785934976,-0.00594020732340039,-0.570447848510532));
#408=CARTESIAN_POINT('',(0.832529092890833,0.0230339622727605,-0.580370758480772));
#409=CARTESIAN_POINT('',(0.841866298531528,0.0553311251325551,-0.586447021515055));
#410=CARTESIAN_POINT('',(0.846902623075929,0.0754883681329852,-0.592088615487182));
#411=CARTESIAN_POINT('',(0.84808728782301,0.0840251108897295,-0.596694268075902));
#412=ORIENTED_EDGE('',*,*,#419,.T.);
#413=ORIENTED_EDGE('',*,*,#420,.T.);
#414=ORIENTED_EDGE('',*,*,#421,.T.);
#415=ORIENTED_EDGE('',*,*,#422,.T.);
#416=ORIENTED_EDGE('',*,*,#423,.T.);
#417=ORIENTED_EDGE('',*,*,#424,.T.);
#418=ORIENTED_EDGE('',*,*,#425,.T.);
#419=EDGE_CURVE('',#426,#427,#428,.T.);
#420=EDGE_CURVE('',#427,#429,#430,.T.);
#421=EDGE_CURVE('',#429,#431,#432,.T.);
#422=EDGE_CURVE('',#431,#433,#434,.T.);
#423=EDGE_CURVE('',#433,#435,#436,.T.);
#424=EDGE_CURVE('',#435,#437,#438,.T.);
#425=EDGE_CURVE('',#437,#426,#439,.T.);
#426=VERTEX_POINT('',#440);
#427=VERTEX_POINT('',#441);
#428=B_SPLINE_CURVE_WITH_KNOTS('',3,(#442,#443,#444,#445,#446,#447,#448,#449,#450,#451,#452,#453,#454,#455,#456,#457,#458,#459,#460,#461,#462,#463,#464,#465,#466,#467,#468,#469,#470,#471,#472,#473,#474,#475,#476,#477,#478,#479,#480,#481,#482,#483,#484,#485,#486,#487,#488,#489,#490,#491,#492,#493,#494),.UNSPECIFIED.,.F.,.F.,(4,1,1,1,1,1,1,1,1,1,1,1,1,1,1,1,1,1,1,1,1,1,1,1,1,1,1,1,1,1,1,1,1,1,1,1,1,1,1,1,1,1,1,1,1,1,1,1,1,1,4),(0.0,0.00806923142450346,0.0161384628490069,0.0322769256980138,0.0484153885470207,0.0645538513960277,0.0968307770940415,0.112969239943048,0.129107702792055,0.145246165641062,0.161384628490069,0.177523091339076,0.193661554188083,0.225938479886097,0.242076942735104,0.258215405584111,0.290492331282124,0.322769256980138,0.355046182678152,0.387323108376166,0.41960003407418,0.435738496923187,0.451876959772194,0.484153885470207,0.500292348319214,0.516430811168221,0.532569274017228,0.548707736866235,0.564846199715242,0.580984662564249,0.613261588262263,0.645538513960277,0.661676976809283,0.67781543965829,0.693953902507297,0.710092365356304,0.742369291054318,0.758507753903325,0.774646216752332,0.790784679601339,0.806923142450346,0.839200068148359,0.871476993846373,0.903753919544387,0.936030845242401,0.968307770940415,1.00058469663843,1.00865392806293,1.01672315948744,1.02479239091194,1.03286162233644),.UNSPECIFIED.);
#429=VERTEX_POINT('',#495);
#430=LINE('',#496,#497);
#431=VERTEX_POINT('',#498);
#432=LINE('',#499,#500);
#433=VERTEX_POINT('',#501);
#434=LINE('',#502,#503);
#435=VERTEX_POINT('',#504);
#436=LINE('',#505,#506);
#437=VERTEX_POINT('',#507);
#438=B_SPLINE_CURVE_WITH_KNOTS('',3,(#508,#509,#510,#511,#512,#513,#514,#515,#516,#517,#518,#519,#520,#521,#522,#523,#524,#525,#526,#527,#528,#529,#530,#531,#532,#533,#534,#535,#536,#537,#538,#539,#540,#541,#542,#543,#544,#545,#546,#547,#548,#549,#550,#551,#552,#553,#554,#555,#556,#557),.UNSPECIFIED.,.F.,.F.,(4,1,1,1,1,1,1,1,1,1,1,1,1,1,1,1,1,1,1,1,1,1,1,1,1,1,1,1,1,1,1,1,1,1,1,1,1,1,1,1,1,1,1,1,1,1,1,4),(0.0,0.0162108236494494,0.0324216472988989,0.0648432945977978,0.0972649418966967,0.129686589195596,0.162108236494494,0.194529883793393,0.226951531092292,0.243162354741742,0.259373178391191,0.275584002040641,0.29179482569009,0.324216472988989,0.340427296638438,0.356638120287888,0.389059767586787,0.405270591236236,0.421481414885686,0.437692238535135,0.453903062184585,0.470113885834034,0.486324709483483,0.502535533132933,0.518746356782382,0.551168004081281,0.58358965138018,0.616011298679079,0.648432945977978,0.680854593276877,0.713276240575776,0.745697887874675,0.778119535173574,0.810541182472472,0.842962829771371,0.859173653420821,0.87538447707027,0.89159530071972,0.907806124369169,0.924016948018619,0.940227771668068,0.972649418966967,0.988860242616416,1.00507106626587,1.01317647809059,1.02128188991532,1.02938730174004,1.03749271356476),.UNSPECIFIED.);
#439=CIRCLE('',#558,0.788701861433952);
#440=CARTESIAN_POINT('',(0.821980893611908,0.100172877311707,-0.578001856803894));
#441=CARTESIAN_POINT('',(0.00467091705650091,0.10013484954834,0.00636676838621497));
#442=CARTESIAN_POINT('',(0.821980893611908,0.100172877311707,-0.578001856803894));
#443=CARTESIAN_POINT('',(0.819687685801511,0.100059178257853,-0.576600788562493));
#444=CARTESIAN_POINT('',(0.815072422466667,0.0998348972848621,-0.57379441825166));
#445=CARTESIAN_POINT('',(0.807181432725187,0.0988383355331321,-0.566504748121407));
#446=CARTESIAN_POINT('',(0.79771928719973,0.0978396892995622,-0.556989556883588));
#447=CARTESIAN_POINT('',(0.78746940777734,0.0962549540659392,-0.544606721111197));
#448=CARTESIAN_POINT('',(0.774388990466231,0.095408168705573,-0.527526294416995));
#449=CARTESIAN_POINT('',(0.762367805367283,0.0954898008368589,-0.509659371788218));
#450=CARTESIAN_POINT('',(0.749271135529449,0.0960414798853931,-0.492590330813691));
#451=CARTESIAN_POINT('',(0.740057447865977,0.096114978119372,-0.479328489240098));
#452=CARTESIAN_POINT('',(0.729819464412879,0.0967786630865522,-0.466852690175448));
#453=CARTESIAN_POINT('',(0.720339662407876,0.096951452938483,-0.453788858991346));
#454=CARTESIAN_POINT('',(0.710478728641955,0.0973059820048492,-0.441017861369518));
#455=CARTESIAN_POINT('',(0.696869826765522,0.0977652058307256,-0.424350897338565));
#456=CARTESIAN_POINT('',(0.682551390733339,0.0982407981729198,-0.408290119405235));
#457=CARTESIAN_POINT('',(0.668965814424092,0.0981689683170934,-0.391594991344367));
#458=CARTESIAN_POINT('',(0.654361674546656,0.0982727710638167,-0.375776319112107));
#459=CARTESIAN_POINT('',(0.635148254453941,0.0984705693957154,-0.356951802185332));
#460=CARTESIAN_POINT('',(0.612852499485308,0.0985345505634829,-0.333606009014754));
#461=CARTESIAN_POINT('',(0.589713302032259,0.0987849885886528,-0.311102294193028));
#462=CARTESIAN_POINT('',(0.566642821704588,0.0988418593173846,-0.28852629972068));
#463=CARTESIAN_POINT('',(0.546559102305789,0.098968886829976,-0.270625054819583));
#464=CARTESIAN_POINT('',(0.530467431145909,0.0988972253687038,-0.256343276884351));
#465=CARTESIAN_POINT('',(0.514701370333776,0.0988756020784084,-0.241694433720683));
#466=CARTESIAN_POINT('',(0.498108958047066,0.0990789272428146,-0.227974106209661));
#467=CARTESIAN_POINT('',(0.481166301241354,0.0991918143779484,-0.214711343357299));
#468=CARTESIAN_POINT('',(0.468571168469561,0.0992647846846032,-0.204618976070284));
#469=CARTESIAN_POINT('',(0.455585111767731,0.0993237492164789,-0.195033319970382));
#470=CARTESIAN_POINT('',(0.442811700856023,0.0992621369774128,-0.185168399601862));
#471=CARTESIAN_POINT('',(0.429750230556625,0.0992970896622712,-0.175686893588055));
#472=CARTESIAN_POINT('',(0.412813394054116,0.0990367005030922,-0.162405142543617));
#473=CARTESIAN_POINT('',(0.390521219652927,0.0993243351532163,-0.147325433308513));
#474=CARTESIAN_POINT('',(0.367858061138818,0.099534736683531,-0.132848381591305));
#475=CARTESIAN_POINT('',(0.349752771433969,0.0994102004965221,-0.12121580712993));
#476=CARTESIAN_POINT('',(0.335902362049882,0.0995228370743756,-0.112929814879991));
#477=CARTESIAN_POINT('',(0.321873139030276,0.0995380697453367,-0.104952239213862));
#478=CARTESIAN_POINT('',(0.30339680644612,0.0995552927775481,-0.0939174619167006));
#479=CARTESIAN_POINT('',(0.284442642398919,0.0995247942063811,-0.0837237307152704));
#480=CARTESIAN_POINT('',(0.265563423667507,0.0995052265469227,-0.073393332874398));
#481=CARTESIAN_POINT('',(0.25103655217997,0.0996584368225232,-0.066355369421722));
#482=CARTESIAN_POINT('',(0.236404280985741,0.0996854060061686,-0.0595504921872547));
#483=CARTESIAN_POINT('',(0.216904128685681,0.0998136128530021,-0.0504452639027458));
#484=CARTESIAN_POINT('',(0.191964147039583,0.100020864421857,-0.0403631121335237));
#485=CARTESIAN_POINT('',(0.161917043041344,0.099973253117972,-0.0285354403070855));
#486=CARTESIAN_POINT('',(0.131013143920052,0.100049176042117,-0.0191694277646693));
#487=CARTESIAN_POINT('',(0.0998331230299279,0.0997697736108268,-0.0107658167103633));
#488=CARTESIAN_POINT('',(0.0680781392155365,0.0997888524645612,-0.00490273205648317));
#489=CARTESIAN_POINT('',(0.0440889519988135,0.0997958974957719,-0.00152369097471676));
#490=CARTESIAN_POINT('',(0.0281307863715076,0.0999381184876407,0.000719990274825443));
#491=CARTESIAN_POINT('',(0.0201015922320487,0.0999705755824436,0.00175819282238135));
#492=CARTESIAN_POINT('',(0.0122019523063654,0.100007090747367,0.00337262717136145));
#493=CARTESIAN_POINT('',(0.00717465407497578,0.10009345111191,0.00538477609227533));
#494=CARTESIAN_POINT('',(0.00467091705650091,0.10013484954834,0.00636676838621497));
#495=CARTESIAN_POINT('',(0.00022163575340528,0.100059121847153,0.00401594582945108));
#496=CARTESIAN_POINT('',(0.0024462764049531,0.100096985697746,0.00519135710783303));
#497=VECTOR('',#559,1.0);
#498=CARTESIAN_POINT('',(-1.20707643445806E-35,0.0900195613503456,-2.27874501715523E-36));
#499=CARTESIAN_POINT('',(0.00011081787670264,0.0950393415987492,0.00200797291472554));
#500=VECTOR('',#560,1.0);
#501=CARTESIAN_POINT('',(-5.38310520708114E-34,0.00999244768172503,-3.50957453050299E-34));
#502=CARTESIAN_POINT('',(-9.1701117868238E-35,0.0500060045160353,-5.62521571737726E-35));
#503=VECTOR('',#561,1.0);
#504=CARTESIAN_POINT('',(0.00179487781133503,0.00373428128659725,0.00576983159407973));
#505=CARTESIAN_POINT('',(0.000897438905667514,0.00686336448416114,0.00288491579703987));
#506=VECTOR('',#562,1.0);
#507=CARTESIAN_POINT('',(0.825766503810883,0.00130370794795454,-0.577405154705048));
#508=CARTESIAN_POINT('',(0.00179487781133503,0.00373428128659725,0.00576983159407973));
#509=CARTESIAN_POINT('',(0.00708471242125046,0.00306953997494486,0.00488963448935694));
#510=CARTESIAN_POINT('',(0.0176653334841496,0.00155775646196544,0.00327631345160734));
#511=CARTESIAN_POINT('',(0.0390275975655567,-0.000296595735354482,0.000423359728334729));
#512=CARTESIAN_POINT('',(0.0654575752490206,-0.000451883589726316,-0.00536311344451298));
#513=CARTESIAN_POINT('',(0.0973415843160907,-0.000120012272469226,-0.0111993614359892));
#514=CARTESIAN_POINT('',(0.128894915321169,0.000214284337720276,-0.0187555689302523));
#515=CARTESIAN_POINT('',(0.159755628472764,0.000417354158832475,-0.0287295789805526));
#516=CARTESIAN_POINT('',(0.190417197337501,0.000401223869535088,-0.0392961343962833));
#517=CARTESIAN_POINT('',(0.215289496383267,0.000484283705895663,-0.0498776827040032));
#518=CARTESIAN_POINT('',(0.235083886547499,0.000439427938610072,-0.0585621709731646));
#519=CARTESIAN_POINT('',(0.24964203823981,0.000542751316423919,-0.0657024403998359));
#520=CARTESIAN_POINT('',(0.263938709432875,0.000562599098575411,-0.0733454395430501));
#521=CARTESIAN_POINT('',(0.283136510761999,0.000455278131971788,-0.0832807156092167));
#522=CARTESIAN_POINT('',(0.301898746410411,0.000518645816378025,-0.0940181044710064));
#523=CARTESIAN_POINT('',(0.320744766935937,0.000496864403926521,-0.104605891748625));
#524=CARTESIAN_POINT('',(0.339190437936362,0.000708800938929754,-0.115872940440008));
#525=CARTESIAN_POINT('',(0.357830251534813,0.000564360729866851,-0.126829025544193));
#526=CARTESIAN_POINT('',(0.375870016003528,0.000633077786816387,-0.13873889391547));
#527=CARTESIAN_POINT('',(0.389426092070115,0.000591123443352352,-0.147631644932902));
#528=CARTESIAN_POINT('',(0.402596399605227,0.000839106633937324,-0.157085692671569));
#529=CARTESIAN_POINT('',(0.41584939446219,0.000765630066343278,-0.16642000646633));
#530=CARTESIAN_POINT('',(0.429134587876135,0.000749151498016582,-0.17571144630296));
#531=CARTESIAN_POINT('',(0.442164315509732,0.00069933600469587,-0.185356120561264));
#532=CARTESIAN_POINT('',(0.455316833704586,0.000687917783589773,-0.194838146389902));
#533=CARTESIAN_POINT('',(0.472243512243003,0.000907320743744684,-0.20828188101331));
#534=CARTESIAN_POINT('',(0.493283405823862,0.000942067427199001,-0.225230339502882));
#535=CARTESIAN_POINT('',(0.518197705746211,0.00107095540144587,-0.245980251015364));
#536=CARTESIAN_POINT('',(0.542403504561671,0.00115285843036513,-0.267550972747648));
#537=CARTESIAN_POINT('',(0.566916006643115,0.00108959920296595,-0.288782187961593));
#538=CARTESIAN_POINT('',(0.590160651276255,0.0014228148977562,-0.311393781351514));
#539=CARTESIAN_POINT('',(0.613715749384185,0.00139348496507664,-0.333678027877866));
#540=CARTESIAN_POINT('',(0.636078917084025,0.00154072701022059,-0.35716221163694));
#541=CARTESIAN_POINT('',(0.658821315682689,0.00165388773608336,-0.380274028256997));
#542=CARTESIAN_POINT('',(0.680535768358161,0.00197714291505084,-0.404353367322881));
#543=CARTESIAN_POINT('',(0.698562024623619,0.0021204827369947,-0.424476503659267));
#544=CARTESIAN_POINT('',(0.712659344998037,0.00226346070071787,-0.440862016745862));
#545=CARTESIAN_POINT('',(0.722632152611601,0.00254364616718428,-0.453643792844538));
#546=CARTESIAN_POINT('',(0.732721314298569,0.00281150607492415,-0.466328981458345));
#547=CARTESIAN_POINT('',(0.742512922295572,0.00325733164272065,-0.479242852532598));
#548=CARTESIAN_POINT('',(0.752672505469411,0.00335223127311864,-0.491880890408137));
#549=CARTESIAN_POINT('',(0.765382970429779,0.00379588052370149,-0.50936075417937));
#550=CARTESIAN_POINT('',(0.778394212939154,0.00333025097419032,-0.52663114156913));
#551=CARTESIAN_POINT('',(0.791352920220635,0.00396891386137214,-0.543905721988147));
#552=CARTESIAN_POINT('',(0.800073082009527,0.00428831511408281,-0.554277648282921));
#553=CARTESIAN_POINT('',(0.807554385835062,0.00413069997117193,-0.562011801963586));
#554=CARTESIAN_POINT('',(0.813484407494532,0.0044071885845079,-0.567628258442672));
#555=CARTESIAN_POINT('',(0.819643352473573,0.00463791687841812,-0.572956057413221));
#556=CARTESIAN_POINT('',(0.823761248528491,0.00237404340924009,-0.575944648699766));
#557=CARTESIAN_POINT('',(0.825766503810883,0.00130370794795454,-0.577405154705048));
#558=AXIS2_PLACEMENT_3D('',#563,#564,#565);
#559=DIRECTION('',(-0.884072036897648,-0.0150470915362232,-0.467108358533589));
#560=DIRECTION('',(-0.0204928847871933,-0.928277831595662,-0.371322378858526));
#561=DIRECTION('',(-0.0,-1.0,-0.0));
#562=DIRECTION('',(0.206325255224611,-0.719390351008024,0.663255163517821));
#563=CARTESIAN_POINT('',(0.038002136595007,0.0241958851397758,-0.550832569243169));
#564=DIRECTION('',(0.0335958024076348,0.0236217300689164,0.999156312059899));
#565=DIRECTION('',(-0.999435186454,0.0,0.0336051793278701));
ENDSEC;
END-ISO-10303-21;
