ISO-10303-21;
HEADER;
FILE_DESCRIPTION(('STEP AP214'),'1');
FILE_NAME('SMAStripDeformed_01.stp','2026-04-22T20:37:58',(' '),(' '),'Spatial InterOp 3D',' ',' ');
FILE_SCHEMA(('AUTOMOTIVE_DESIGN { 1 0 10303 214 1 1 1 1 }'));
ENDSEC;
DATA;
#1=PRODUCT_DEFINITION_CONTEXT('',#9,'design');
#2=APPLICATION_PROTOCOL_DEFINITION('INTERNATIONAL STANDARD','automotive_design',1994,#9);
#3=PRODUCT_CATEGORY_RELATIONSHIP('NONE','NONE',#10,#11);
#4=SHAPE_DEFINITION_REPRESENTATION(#12,#13);
#5= (GEOMETRIC_REPRESENTATION_CONTEXT(3)GLOBAL_UNCERTAINTY_ASSIGNED_CONTEXT((#16))GLOBAL_UNIT_ASSIGNED_CONTEXT((#18,#19,#20))REPRESENTATION_CONTEXT('NONE','WORKSPACE'));
#9=APPLICATION_CONTEXT(' ');
#10=PRODUCT_CATEGORY('part','NONE');
#11=PRODUCT_RELATED_PRODUCT_CATEGORY('detail',' ',(#22));
#12=PRODUCT_DEFINITION_SHAPE('NONE','NONE',#23);
#13=MANIFOLD_SURFACE_SHAPE_REPRESENTATION('1',(#24,#25),#5);
#16=UNCERTAINTY_MEASURE_WITH_UNIT(LENGTH_MEASURE(1.0E-06),#18,'','');
#18= (CONVERSION_BASED_UNIT('MILLIMETRE',#28)LENGTH_UNIT()NAMED_UNIT(#31));
#19= (NAMED_UNIT(#33)PLANE_ANGLE_UNIT()SI_UNIT($,.RADIAN.));
#20= (NAMED_UNIT(#33)SOLID_ANGLE_UNIT()SI_UNIT($,.STERADIAN.));
#22=PRODUCT('1','','PART--DESC',(#39));
#23=PRODUCT_DEFINITION('','NONE',#40,#1);
#24=SHELL_BASED_SURFACE_MODEL('1',(#41));
#25=AXIS2_PLACEMENT_3D('',#42,#43,#44);
#28=LENGTH_MEASURE_WITH_UNIT(LENGTH_MEASURE(1.0),#45);
#31=DIMENSIONAL_EXPONENTS(1.0,0.0,0.0,0.0,0.0,0.0,0.0);
#33=DIMENSIONAL_EXPONENTS(0.0,0.0,0.0,0.0,0.0,0.0,0.0);
#39=PRODUCT_CONTEXT('',#9,'mechanical');
#40=PRODUCT_DEFINITION_FORMATION_WITH_SPECIFIED_SOURCE(' ','NONE',#22,.NOT_KNOWN.);
#41=CLOSED_SHELL('',(#46));
#42=CARTESIAN_POINT('',(0.0,0.0,0.0));
#43=DIRECTION('',(0.0,0.0,1.0));
#44=DIRECTION('',(1.0,0.0,0.0));
#45= (NAMED_UNIT(#31)LENGTH_UNIT()SI_UNIT(.MILLI.,.METRE.));
#46=FACE_SURFACE('',(#48),#49,.T.);
#48=FACE_BOUND('',#50,.T.);
#49=CYLINDRICAL_SURFACE('',#51,3.63365121240064);
#50=EDGE_LOOP('',(#52,#53,#54,#55));
#51=AXIS2_PLACEMENT_3D('',#56,#57,#58);
#52=ORIENTED_EDGE('',*,*,#59,.T.);
#53=ORIENTED_EDGE('',*,*,#60,.T.);
#54=ORIENTED_EDGE('',*,*,#61,.T.);
#55=ORIENTED_EDGE('',*,*,#62,.T.);
#56=CARTESIAN_POINT('',(-0.0200542436589911,-0.000665823606095791,-3.63327414239993));
#57=DIRECTION('',(0.00020486801063596,-0.999999962429537,0.000182126390041236));
#58=DIRECTION('',(-6.11281406003591E-24,0.000182126393863241,0.999999983414988));
#59=EDGE_CURVE('',#63,#64,#65,.T.);
#60=EDGE_CURVE('',#64,#66,#67,.T.);
#61=EDGE_CURVE('',#66,#68,#69,.T.);
#62=EDGE_CURVE('',#68,#63,#70,.T.);
#63=VERTEX_POINT('',#71);
#64=VERTEX_POINT('',#72);
#65=LINE('',#73,#74);
#66=VERTEX_POINT('',#75);
#67=CIRCLE('',#76,3.64036596286624);
#68=VERTEX_POINT('',#77);
#69=LINE('',#78,#79);
#70=CIRCLE('',#80,3.63981540280281);
#71=CARTESIAN_POINT('',(1.0004870891571,-4.90033016831148E-05,-0.145760372281075));
#72=CARTESIAN_POINT('',(1.00048959255219,0.099999725818634,-0.145783051848412));
#73=CARTESIAN_POINT('',(1.00048834085464,0.0499753612584755,-0.145599067211151));
#74=VECTOR('',#81,1.0);
#75=CARTESIAN_POINT('',(-9.02080000955551E-38,0.100000001490116,0.0));
#76=AXIS2_PLACEMENT_3D('',#82,#83,#84);
#77=CARTESIAN_POINT('',(-3.44896882661427E-37,-4.75866115931374E-37,-1.01668665321076E-37));
#78=CARTESIAN_POINT('',(1.04033867359413E-34,0.0500000007450581,1.32350102820531E-35));
#79=VECTOR('',#85,1.0);
#80=AXIS2_PLACEMENT_3D('',#86,#87,#88);
#81=DIRECTION('',(2.53457870961426E-05,0.99999997396943,-0.000226756987781649));
#82=CARTESIAN_POINT('',(-0.0212634804559204,0.0999657434655259,-3.64014105472804));
#83=DIRECTION('',(-2.01899986520455E-05,-0.999999999670853,1.58321520487531E-05));
#84=DIRECTION('',(3.75821425378618E-26,1.58321520519799E-05,0.999999999874671));
#85=DIRECTION('',(-0.0,-1.0,-0.0));
#86=CARTESIAN_POINT('',(-0.0211687984146321,0.00153441126443224,-3.63957462098512));
#87=DIRECTION('',(8.90406803917492E-05,0.999999906123215,0.000424058154342342));
#88=DIRECTION('',(-5.30456017335295E-24,-0.00042405815602336,0.999999910087336));
ENDSEC;
END-ISO-10303-21;
