ISO-10303-21;
HEADER;
FILE_DESCRIPTION(('STEP AP214'),'1');
FILE_NAME('SMAStripDeformed_04.stp','2026-04-22T20:39:38',(' '),(' '),'Spatial InterOp 3D',' ',' ');
FILE_SCHEMA(('AUTOMOTIVE_DESIGN { 1 0 10303 214 1 1 1 1 }'));
ENDSEC;
DATA;
#1=PRODUCT_DEFINITION_CONTEXT('',#9,'design');
#2=APPLICATION_PROTOCOL_DEFINITION('INTERNATIONAL STANDARD','automotive_design',1994,#9);
#3=PRODUCT_CATEGORY_RELATIONSHIP('NONE','NONE',#10,#11);
#4=SHAPE_DEFINITION_REPRESENTATION(#12,#13);
#5= (GEOMETRIC_REPRESENTATION_CONTEXT(3)GLOBAL_UNCERTAINTY_ASSIGNED_CONTEXT((#16))GLOBAL_UNIT_ASSIGNED_CONTEXT((#18,#19,#20))REPRESENTATION_CONTEXT('NONE','WORKSPACE'));
#9=APPLICATION_CONTEXT(' ');
#10=PRODUCT_CATEGORY('part','NONE');
#11=PRODUCT_RELATED_PRODUCT_CATEGORY('detail',' ',(#22));
#12=PRODUCT_DEFINITION_SHAPE('NONE','NONE',#23);
#13=MANIFOLD_SURFACE_SHAPE_REPRESENTATION('1',(#24,#25),#5);
#16=UNCERTAINTY_MEASURE_WITH_UNIT(LENGTH_MEASURE(1.0E-06),#18,'','');
#18= (CONVERSION_BASED_UNIT('MILLIMETRE',#28)LENGTH_UNIT()NAMED_UNIT(#31));
#19= (NAMED_UNIT(#33)PLANE_ANGLE_UNIT()SI_UNIT($,.RADIAN.));
#20= (NAMED_UNIT(#33)SOLID_ANGLE_UNIT()SI_UNIT($,.STERADIAN.));
#22=PRODUCT('1','','PART--DESC',(#39));
#23=PRODUCT_DEFINITION('','NONE',#40,#1);
#24=SHELL_BASED_SURFACE_MODEL('1',(#41));
#25=AXIS2_PLACEMENT_3D('',#42,#43,#44);
#28=LENGTH_MEASURE_WITH_UNIT(LENGTH_MEASURE(1.0),#45);
#31=DIMENSIONAL_EXPONENTS(1.0,0.0,0.0,0.0,0.0,0.0,0.0);
#33=DIMENSIONAL_EXPONENTS(0.0,0.0,0.0,0.0,0.0,0.0,0.0);
#39=PRODUCT_CONTEXT('',#9,'mechanical');
#40=PRODUCT_DEFINITION_FORMATION_WITH_SPECIFIED_SOURCE(' ','NONE',#22,.NOT_KNOWN.);
#41=CLOSED_SHELL('',(#46));
#42=CARTESIAN_POINT('',(0.0,0.0,0.0));
#43=DIRECTION('',(0.0,0.0,1.0));
#44=DIRECTION('',(1.0,0.0,0.0));
#45= (NAMED_UNIT(#31)LENGTH_UNIT()SI_UNIT(.MILLI.,.METRE.));
#46=FACE_SURFACE('',(#48),#49,.T.);
#48=FACE_BOUND('',#50,.T.);
#49=CYLINDRICAL_SURFACE('',#51,1.43338532416917);
#50=EDGE_LOOP('',(#52,#53,#54,#55,#56,#57,#58,#59));
#51=AXIS2_PLACEMENT_3D('',#60,#61,#62);
#52=ORIENTED_EDGE('',*,*,#63,.T.);
#53=ORIENTED_EDGE('',*,*,#64,.T.);
#54=ORIENTED_EDGE('',*,*,#65,.T.);
#55=ORIENTED_EDGE('',*,*,#66,.T.);
#56=ORIENTED_EDGE('',*,*,#67,.T.);
#57=ORIENTED_EDGE('',*,*,#68,.T.);
#58=ORIENTED_EDGE('',*,*,#69,.T.);
#59=ORIENTED_EDGE('',*,*,#70,.T.);
#60=CARTESIAN_POINT('',(-0.13629029929858,-0.000193784255985488,-1.41978778478882));
#61=DIRECTION('',(0.00118010494281078,-0.999999303406665,2.32057665031564E-05));
#62=DIRECTION('',(0.0,2.32057826619017E-05,0.999999999730746));
#63=EDGE_CURVE('',#71,#72,#73,.T.);
#64=EDGE_CURVE('',#72,#74,#75,.T.);
#65=EDGE_CURVE('',#74,#76,#77,.T.);
#66=EDGE_CURVE('',#76,#78,#79,.T.);
#67=EDGE_CURVE('',#78,#80,#81,.T.);
#68=EDGE_CURVE('',#80,#82,#83,.T.);
#69=EDGE_CURVE('',#82,#84,#85,.T.);
#70=EDGE_CURVE('',#84,#71,#86,.T.);
#71=VERTEX_POINT('',#87);
#72=VERTEX_POINT('',#88);
#73=LINE('',#89,#90);
#74=VERTEX_POINT('',#91);
#75=LINE('',#92,#93);
#76=VERTEX_POINT('',#94);
#77=B_SPLINE_CURVE_WITH_KNOTS('',3,(#95,#96,#97,#98,#99,#100,#101,#102,#103,#104,#105),.UNSPECIFIED.,.F.,.F.,(4,1,1,1,1,1,1,1,4),(0.0,0.127986391817302,0.255972783634604,0.383959175451905,0.511945567269207,0.639931959086509,0.767918350903811,0.895904742721112,1.02389113453841),.UNSPECIFIED.);
#78=VERTEX_POINT('',#106);
#79=LINE('',#107,#108);
#80=VERTEX_POINT('',#109);
#81=LINE('',#110,#111);
#82=VERTEX_POINT('',#112);
#83=LINE('',#113,#114);
#84=VERTEX_POINT('',#115);
#85=B_SPLINE_CURVE_WITH_KNOTS('',3,(#116,#117,#118,#119,#120,#121,#122,#123,#124,#125,#126),.UNSPECIFIED.,.F.,.F.,(4,1,1,1,1,1,1,1,4),(0.0,0.129211491325307,0.258422982650613,0.38763447397592,0.516845965301226,0.646057456626533,0.775268947951839,0.904480439277146,1.03369193060245),.UNSPECIFIED.);
#86=LINE('',#127,#128);
#87=CARTESIAN_POINT('',(-5.72809535030321E-34,0.0900195613503456,-1.26196711318213E-34));
#88=CARTESIAN_POINT('',(-1.85153309059469E-34,0.00999244768172503,-9.7748060551072E-35));
#89=CARTESIAN_POINT('',(5.14149979201389E-35,0.0500060045160353,1.02920511201179E-34));
#90=VECTOR('',#129,1.0);
#91=CARTESIAN_POINT('',(0.000178974849404767,-2.30537261813879E-05,0.00417432328686118));
#92=CARTESIAN_POINT('',(8.94874247023836E-05,0.00498469697777182,0.00208716164343059));
#93=VECTOR('',#130,1.0);
#94=CARTESIAN_POINT('',(0.903232991695404,-2.32679740292951E-05,-0.429920256137848));
#95=CARTESIAN_POINT('',(0.000178974849404767,-2.30537261813879E-05,0.00417432328686118));
#96=CARTESIAN_POINT('',(0.0427585003262369,-0.00022337776094573,0.00152833230568951));
#97=CARTESIAN_POINT('',(0.127636504315942,-1.75128715846901E-05,-0.00830537545736234));
#98=CARTESIAN_POINT('',(0.252653988832206,-9.99348670190406E-05,-0.0365190215054368));
#99=CARTESIAN_POINT('',(0.374184881334865,-7.59413519322537E-05,-0.077135763345405));
#100=CARTESIAN_POINT('',(0.491301760977337,-7.33985002709823E-05,-0.129089463542802));
#101=CARTESIAN_POINT('',(0.603295675893854,-6.3906076649566E-05,-0.191287660616755));
#102=CARTESIAN_POINT('',(0.709734780976719,-5.91117142898285E-05,-0.262538092067609));
#103=CARTESIAN_POINT('',(0.810343678800027,-4.51566866813835E-05,-0.341812074870805));
#104=CARTESIAN_POINT('',(0.872996335660775,-3.43844313162648E-05,-0.399823713211933));
#105=CARTESIAN_POINT('',(0.903232991695404,-2.32679740292951E-05,-0.429920256137848));
#106=CARTESIAN_POINT('',(0.912991166114807,-2.4368375306949E-05,-0.43415567278862));
#107=CARTESIAN_POINT('',(0.908112078905106,-2.38181746681221E-05,-0.432037964463234));
#108=VECTOR('',#131,1.0);
#109=CARTESIAN_POINT('',(0.912983894348145,0.090027317404747,-0.434153854846954));
#110=CARTESIAN_POINT('',(0.912987530231476,0.04500147451472,-0.434154272079468));
#111=VECTOR('',#132,1.0);
#112=CARTESIAN_POINT('',(0.910242974758148,0.100035667419434,-0.436851531267166));
#113=CARTESIAN_POINT('',(0.911613434553146,0.0950314924120903,-0.43550269305706));
#114=VECTOR('',#133,1.0);
#115=CARTESIAN_POINT('',(0.000234285878832452,0.100026644766331,0.00411093607544899));
#116=CARTESIAN_POINT('',(0.910242974758148,0.100035667419434,-0.436851531267166));
#117=CARTESIAN_POINT('',(0.879899137443272,0.100027129435288,-0.406284896102678));
#118=CARTESIAN_POINT('',(0.816967143617803,0.100033189135042,-0.347371439048447));
#119=CARTESIAN_POINT('',(0.715772228353326,0.100025505031988,-0.266860356400524));
#120=CARTESIAN_POINT('',(0.608616410811438,0.100041239793516,-0.194475407443033));
#121=CARTESIAN_POINT('',(0.495768639082686,0.100051104623914,-0.131287201870227));
#122=CARTESIAN_POINT('',(0.377690509007807,0.100052514223804,-0.0784749363813912));
#123=CARTESIAN_POINT('',(0.255086564165526,0.10008700278619,-0.0371863890655405));
#124=CARTESIAN_POINT('',(0.128908483100364,0.100005293931332,-0.00854672108497421));
#125=CARTESIAN_POINT('',(0.0432235999586525,0.100247843711649,0.00147699090879704));
#126=CARTESIAN_POINT('',(0.000234285878832452,0.100026644766331,0.00411093607544899));
#127=CARTESIAN_POINT('',(0.000117142939416226,0.0950231030583382,0.00205546803772449));
#128=VECTOR('',#134,1.0);
#129=DIRECTION('',(-0.0,-1.0,-0.0));
#130=DIRECTION('',(0.0164922417395222,-0.922912190797003,0.384657112297018));
#131=DIRECTION('',(0.917319696997507,-0.000103443505230455,-0.39815143199522));
#132=DIRECTION('',(-7.8994040260027E-05,0.999999996850602,7.66409331000463E-06));
#133=DIRECTION('',(-0.25563968056306,0.933457300263653,-0.251606483036722));
#134=DIRECTION('',(-0.021650819249385,-0.924774277189601,-0.379899695017357));
ENDSEC;
END-ISO-10303-21;
