ISO-10303-21;
HEADER;
FILE_DESCRIPTION(('STEP AP214'),'1');
FILE_NAME('SMAStripDeformed_03.stp','2026-04-22T20:39:04',(' '),(' '),'Spatial InterOp 3D',' ',' ');
FILE_SCHEMA(('AUTOMOTIVE_DESIGN { 1 0 10303 214 1 1 1 1 }'));
ENDSEC;
DATA;
#1=PRODUCT_DEFINITION_CONTEXT('',#9,'design');
#2=APPLICATION_PROTOCOL_DEFINITION('INTERNATIONAL STANDARD','automotive_design',1994,#9);
#3=PRODUCT_CATEGORY_RELATIONSHIP('NONE','NONE',#10,#11);
#4=SHAPE_DEFINITION_REPRESENTATION(#12,#13);
#5= (GEOMETRIC_REPRESENTATION_CONTEXT(3)GLOBAL_UNCERTAINTY_ASSIGNED_CONTEXT((#16))GLOBAL_UNIT_ASSIGNED_CONTEXT((#18,#19,#20))REPRESENTATION_CONTEXT('NONE','WORKSPACE'));
#9=APPLICATION_CONTEXT(' ');
#10=PRODUCT_CATEGORY('part','NONE');
#11=PRODUCT_RELATED_PRODUCT_CATEGORY('detail',' ',(#22));
#12=PRODUCT_DEFINITION_SHAPE('NONE','NONE',#23);
#13=MANIFOLD_SURFACE_SHAPE_REPRESENTATION('1',(#24,#25),#5);
#16=UNCERTAINTY_MEASURE_WITH_UNIT(LENGTH_MEASURE(1.0E-06),#18,'','');
#18= (CONVERSION_BASED_UNIT('MILLIMETRE',#28)LENGTH_UNIT()NAMED_UNIT(#31));
#19= (NAMED_UNIT(#33)PLANE_ANGLE_UNIT()SI_UNIT($,.RADIAN.));
#20= (NAMED_UNIT(#33)SOLID_ANGLE_UNIT()SI_UNIT($,.STERADIAN.));
#22=PRODUCT('1','','PART--DESC',(#39));
#23=PRODUCT_DEFINITION('','NONE',#40,#1);
#24=SHELL_BASED_SURFACE_MODEL('1',(#41));
#25=AXIS2_PLACEMENT_3D('',#42,#43,#44);
#28=LENGTH_MEASURE_WITH_UNIT(LENGTH_MEASURE(1.0),#45);
#31=DIMENSIONAL_EXPONENTS(1.0,0.0,0.0,0.0,0.0,0.0,0.0);
#33=DIMENSIONAL_EXPONENTS(0.0,0.0,0.0,0.0,0.0,0.0,0.0);
#39=PRODUCT_CONTEXT('',#9,'mechanical');
#40=PRODUCT_DEFINITION_FORMATION_WITH_SPECIFIED_SOURCE(' ','NONE',#22,.NOT_KNOWN.);
#41=CLOSED_SHELL('',(#46));
#42=CARTESIAN_POINT('',(0.0,0.0,0.0));
#43=DIRECTION('',(0.0,0.0,1.0));
#44=DIRECTION('',(1.0,0.0,0.0));
#45= (NAMED_UNIT(#31)LENGTH_UNIT()SI_UNIT(.MILLI.,.METRE.));
#46=FACE_SURFACE('',(#48),#49,.T.);
#48=FACE_BOUND('',#50,.T.);
#49=CYLINDRICAL_SURFACE('',#51,1.62911506155861);
#50=EDGE_LOOP('',(#52,#53,#54,#55,#56));
#51=AXIS2_PLACEMENT_3D('',#57,#58,#59);
#52=ORIENTED_EDGE('',*,*,#60,.T.);
#53=ORIENTED_EDGE('',*,*,#61,.T.);
#54=ORIENTED_EDGE('',*,*,#62,.T.);
#55=ORIENTED_EDGE('',*,*,#63,.T.);
#56=ORIENTED_EDGE('',*,*,#64,.T.);
#57=CARTESIAN_POINT('',(-0.09267502779,-0.00145687483944089,-1.62226213684557));
#58=DIRECTION('',(0.00215007456489553,0.999997167491483,-0.00102087627844509));
#59=DIRECTION('',(0.0,-0.00102087863811724,-0.999999478903267));
#60=EDGE_CURVE('',#65,#66,#67,.T.);
#61=EDGE_CURVE('',#66,#68,#69,.T.);
#62=EDGE_CURVE('',#68,#70,#71,.T.);
#63=EDGE_CURVE('',#70,#72,#73,.T.);
#64=EDGE_CURVE('',#72,#65,#74,.T.);
#65=VERTEX_POINT('',#75);
#66=VERTEX_POINT('',#76);
#67=LINE('',#77,#78);
#68=VERTEX_POINT('',#79);
#69=LINE('',#80,#81);
#70=VERTEX_POINT('',#82);
#71=B_SPLINE_CURVE_WITH_KNOTS('',3,(#83,#84,#85,#86,#87,#88,#89,#90,#91,#92,#93,#94,#95,#96,#97,#98,#99,#100,#101),.UNSPECIFIED.,.F.,.F.,(4,1,1,1,1,1,1,1,1,1,1,1,1,1,1,1,4),(0.0,0.128782671202807,0.257565342405614,0.386348013608422,0.515130684811229,0.643913356014036,0.70830469161544,0.772696027216843,0.837087362818247,0.90147869841965,0.933674366220352,0.965870034021054,0.998065701821756,1.00611461877193,1.01416353572211,1.02221245267228,1.03026136962246),.UNSPECIFIED.);
#72=VERTEX_POINT('',#102);
#73=LINE('',#103,#104);
#74=B_SPLINE_CURVE_WITH_KNOTS('',3,(#105,#106,#107,#108,#109,#110,#111,#112,#113,#114,#115,#116,#117,#118,#119,#120,#121,#122,#123,#124,#125,#126,#127,#128,#129,#130,#131,#132),.UNSPECIFIED.,.F.,.F.,(4,1,1,1,1,1,1,1,1,1,1,1,1,1,1,1,1,1,1,1,1,1,1,1,1,4),(0.0,0.00804981021096803,0.0160996204219361,0.0241494306329041,0.0321992408438721,0.0643984816877442,0.0965977225316163,0.128796963375488,0.193195445063233,0.257593926750977,0.321992408438721,0.386390890126465,0.515187853501954,0.643984816877442,0.708383298565186,0.772781780252931,0.837180261940675,0.869379502784547,0.901578743628419,0.933777984472291,0.965977225316163,0.998176466160035,1.006226276371,1.01427608658197,1.02232589679294,1.03037570700391),.UNSPECIFIED.);
#75=CARTESIAN_POINT('',(4.25474599190756E-38,0.100022949278355,0.0));
#76=CARTESIAN_POINT('',(-5.74825461924234E-35,0.00999244768172503,-1.14116899742332E-34));
#77=CARTESIAN_POINT('',(1.79463089882023E-35,0.0550076984800398,2.49436973988049E-35));
#78=VECTOR('',#133,1.0);
#79=CARTESIAN_POINT('',(4.21676086261868E-05,-1.05971212178702E-05,0.00178041867911816));
#80=CARTESIAN_POINT('',(2.10838043130934E-05,0.00499092528025358,0.000890209339559078));
#81=VECTOR('',#134,1.0);
#82=CARTESIAN_POINT('',(0.94595593214035,-5.73482102481648E-05,-0.36212432384491));
#83=CARTESIAN_POINT('',(4.21676086261868E-05,-1.05971212178702E-05,0.00178041867911816));
#84=CARTESIAN_POINT('',(0.0429498694769664,-0.00017305530236397,0.000485087250767847));
#85=CARTESIAN_POINT('',(0.128640826106424,-1.08465054237148E-05,-0.00617070623460598));
#86=CARTESIAN_POINT('',(0.255713572611177,-8.26482208433953E-05,-0.0278767068237478));
#87=CARTESIAN_POINT('',(0.380368097746828,-6.77062455992097E-05,-0.0606939555393391));
#88=CARTESIAN_POINT('',(0.501839150350382,-7.13912108698799E-05,-0.103790103006871));
#89=CARTESIAN_POINT('',(0.599896105877489,-7.35407679466194E-05,-0.147598691577277));
#90=CARTESIAN_POINT('',(0.676215482395069,-7.55815201392464E-05,-0.186954422595312));
#91=CARTESIAN_POINT('',(0.732356973806831,-7.56357236354634E-05,-0.218509162734295));
#92=CARTESIAN_POINT('',(0.787363438973292,-7.19410897491996E-05,-0.252001578791424));
#93=CARTESIAN_POINT('',(0.832241567045082,-6.91949550936222E-05,-0.281431028794784));
#94=CARTESIAN_POINT('',(0.867534843259403,-6.72687811168424E-05,-0.305871297711603));
#95=CARTESIAN_POINT('',(0.893747738286001,-6.55205180760953E-05,-0.324562387904729));
#96=CARTESIAN_POINT('',(0.91306111137125,-6.2379566860628E-05,-0.339074380841362));
#97=CARTESIAN_POINT('',(0.926023767232073,-6.0379902277512E-05,-0.348598041068656));
#98=CARTESIAN_POINT('',(0.93229338659412,-5.89251107005149E-05,-0.353679956476143));
#99=CARTESIAN_POINT('',(0.938732903382139,-5.75971751688656E-05,-0.358487973602451));
#100=CARTESIAN_POINT('',(0.943566258009678,-5.74431560307193E-05,-0.360904570594249));
#101=CARTESIAN_POINT('',(0.94595593214035,-5.73482102481648E-05,-0.36212432384491));
#102=CARTESIAN_POINT('',(0.945940732955933,0.0999984741210938,-0.362110793590546));
#103=CARTESIAN_POINT('',(0.945951282978058,0.0499705629554228,-0.362110033631325));
#104=VECTOR('',#135,1.0);
#105=CARTESIAN_POINT('',(0.945940732955933,0.0999984741210938,-0.362110793590546));
#106=CARTESIAN_POINT('',(0.943552442615209,0.0999984911160547,-0.360887679728959));
#107=CARTESIAN_POINT('',(0.938722444279758,0.0999984952863628,-0.358464267117396));
#108=CARTESIAN_POINT('',(0.932277676179928,0.099999379099439,-0.353662233597182));
#109=CARTESIAN_POINT('',(0.926007329082597,0.100000366717447,-0.348579951613541));
#110=CARTESIAN_POINT('',(0.913042538192694,0.100001667915393,-0.339055851313555));
#111=CARTESIAN_POINT('',(0.893724610346278,0.100003533319987,-0.32454576898281));
#112=CARTESIAN_POINT('',(0.867508176510208,0.10000479942572,-0.305853412617497));
#113=CARTESIAN_POINT('',(0.832210311243209,0.100005465349746,-0.281411428079696));
#114=CARTESIAN_POINT('',(0.78732687790434,0.100008035581788,-0.251979171720607));
#115=CARTESIAN_POINT('',(0.732309769870111,0.100011633984992,-0.218490494409519));
#116=CARTESIAN_POINT('',(0.676163870790606,0.100017826199571,-0.186929057109867));
#117=CARTESIAN_POINT('',(0.59983682040912,0.100026806339572,-0.147567264304003));
#118=CARTESIAN_POINT('',(0.501764049493882,0.100036461782313,-0.103765211104464));
#119=CARTESIAN_POINT('',(0.400525898129501,0.100042980622584,-0.0678488839355962));
#120=CARTESIAN_POINT('',(0.317943512847745,0.100048207233658,-0.0442630451714134));
#121=CARTESIAN_POINT('',(0.255304271613975,0.100052384084885,-0.0292475652268023));
#122=CARTESIAN_POINT('',(0.202603921505633,0.100055813315762,-0.0190458746979201));
#123=CARTESIAN_POINT('',(0.160199406756267,0.100058635117106,-0.0123138906781299));
#124=CARTESIAN_POINT('',(0.128289606312956,0.100060864219439,-0.00799750850891916));
#125=CARTESIAN_POINT('',(0.0962874267659672,0.100064294899495,-0.00439080378330892));
#126=CARTESIAN_POINT('',(0.0642163194188832,0.100065591126532,-0.00161717556836268));
#127=CARTESIAN_POINT('',(0.0401054105829597,0.100069088140456,0.000170608808494598));
#128=CARTESIAN_POINT('',(0.0240413369341827,0.100060293054199,0.00074218700087378));
#129=CARTESIAN_POINT('',(0.0159821358184263,0.100056864867245,0.00138979722089558));
#130=CARTESIAN_POINT('',(0.00795323386276719,0.100048677925431,0.00158405371593921));
#131=CARTESIAN_POINT('',(0.00263508465467456,0.100031288200221,0.000506159654032483));
#132=CARTESIAN_POINT('',(4.25474599190756E-38,0.100022949278355,0.0));
#133=DIRECTION('',(-0.0,-1.0,-0.0));
#134=DIRECTION('',(0.0041502149840629,-0.984518396465212,0.175232139566787));
#135=DIRECTION('',(-0.000149361763443529,0.999999961970846,-0.000231839103290763));
ENDSEC;
END-ISO-10303-21;
