ISO-10303-21;
HEADER;
FILE_DESCRIPTION(('STEP AP214'),'1');
FILE_NAME('SMAStripDeformed_02.stp','2026-04-22T20:38:31',(' '),(' '),'Spatial InterOp 3D',' ',' ');
FILE_SCHEMA(('AUTOMOTIVE_DESIGN { 1 0 10303 214 1 1 1 1 }'));
ENDSEC;
DATA;
#1=PRODUCT_DEFINITION_CONTEXT('',#9,'design');
#2=APPLICATION_PROTOCOL_DEFINITION('INTERNATIONAL STANDARD','automotive_design',1994,#9);
#3=PRODUCT_CATEGORY_RELATIONSHIP('NONE','NONE',#10,#11);
#4=SHAPE_DEFINITION_REPRESENTATION(#12,#13);
#5= (GEOMETRIC_REPRESENTATION_CONTEXT(3)GLOBAL_UNCERTAINTY_ASSIGNED_CONTEXT((#16))GLOBAL_UNIT_ASSIGNED_CONTEXT((#18,#19,#20))REPRESENTATION_CONTEXT('NONE','WORKSPACE'));
#9=APPLICATION_CONTEXT(' ');
#10=PRODUCT_CATEGORY('part','NONE');
#11=PRODUCT_RELATED_PRODUCT_CATEGORY('detail',' ',(#22));
#12=PRODUCT_DEFINITION_SHAPE('NONE','NONE',#23);
#13=MANIFOLD_SURFACE_SHAPE_REPRESENTATION('1',(#24,#25),#5);
#16=UNCERTAINTY_MEASURE_WITH_UNIT(LENGTH_MEASURE(1.0E-06),#18,'','');
#18= (CONVERSION_BASED_UNIT('MILLIMETRE',#28)LENGTH_UNIT()NAMED_UNIT(#31));
#19= (NAMED_UNIT(#33)PLANE_ANGLE_UNIT()SI_UNIT($,.RADIAN.));
#20= (NAMED_UNIT(#33)SOLID_ANGLE_UNIT()SI_UNIT($,.STERADIAN.));
#22=PRODUCT('1','','PART--DESC',(#39));
#23=PRODUCT_DEFINITION('','NONE',#40,#1);
#24=SHELL_BASED_SURFACE_MODEL('1',(#41));
#25=AXIS2_PLACEMENT_3D('',#42,#43,#44);
#28=LENGTH_MEASURE_WITH_UNIT(LENGTH_MEASURE(1.0),#45);
#31=DIMENSIONAL_EXPONENTS(1.0,0.0,0.0,0.0,0.0,0.0,0.0);
#33=DIMENSIONAL_EXPONENTS(0.0,0.0,0.0,0.0,0.0,0.0,0.0);
#39=PRODUCT_CONTEXT('',#9,'mechanical');
#40=PRODUCT_DEFINITION_FORMATION_WITH_SPECIFIED_SOURCE(' ','NONE',#22,.NOT_KNOWN.);
#41=CLOSED_SHELL('',(#46));
#42=CARTESIAN_POINT('',(0.0,0.0,0.0));
#43=DIRECTION('',(0.0,0.0,1.0));
#44=DIRECTION('',(1.0,0.0,0.0));
#45= (NAMED_UNIT(#31)LENGTH_UNIT()SI_UNIT(.MILLI.,.METRE.));
#46=FACE_SURFACE('',(#48),#49,.T.);
#48=FACE_BOUND('',#50,.T.);
#49=CYLINDRICAL_SURFACE('',#51,2.09906481386867);
#50=EDGE_LOOP('',(#52,#53,#54,#55,#56));
#51=AXIS2_PLACEMENT_3D('',#57,#58,#59);
#52=ORIENTED_EDGE('',*,*,#60,.T.);
#53=ORIENTED_EDGE('',*,*,#61,.T.);
#54=ORIENTED_EDGE('',*,*,#62,.T.);
#55=ORIENTED_EDGE('',*,*,#63,.T.);
#56=ORIENTED_EDGE('',*,*,#64,.T.);
#57=CARTESIAN_POINT('',(-0.0538451024701624,-0.000450194581129457,-2.09659253716331));
#58=DIRECTION('',(-0.000323129728940423,-0.99999992292341,0.000223025452503955));
#59=DIRECTION('',(0.0,0.000223025464147315,0.999999975129821));
#60=EDGE_CURVE('',#65,#66,#67,.T.);
#61=EDGE_CURVE('',#66,#68,#69,.T.);
#62=EDGE_CURVE('',#68,#70,#71,.T.);
#63=EDGE_CURVE('',#70,#72,#73,.T.);
#64=EDGE_CURVE('',#72,#65,#74,.T.);
#65=VERTEX_POINT('',#75);
#66=VERTEX_POINT('',#76);
#67=B_SPLINE_CURVE_WITH_KNOTS('',3,(#77,#78,#79,#80,#81,#82,#83,#84,#85,#86,#87,#88,#89,#90),.UNSPECIFIED.,.F.,.F.,(4,1,1,1,1,1,1,1,1,1,1,4),(0.0,0.127988364862956,0.255976729725911,0.383965094588867,0.511953459451823,0.639941824314779,0.767930189177734,0.831924371609212,0.89591855404069,0.959912736472168,0.991909827687907,1.02390691890365),.UNSPECIFIED.);
#68=VERTEX_POINT('',#91);
#69=LINE('',#92,#93);
#70=VERTEX_POINT('',#94);
#71=LINE('',#95,#96);
#72=VERTEX_POINT('',#97);
#73=B_SPLINE_CURVE_WITH_KNOTS('',3,(#98,#99,#100,#101,#102,#103,#104,#105,#106,#107,#108),.UNSPECIFIED.,.F.,.F.,(4,1,1,1,1,1,1,1,4),(0.0,0.127993133910568,0.255986267821136,0.383979401731704,0.511972535642272,0.63996566955284,0.767958803463407,0.895951937373975,1.02394507128454),.UNSPECIFIED.);
#74=LINE('',#109,#110);
#75=CARTESIAN_POINT('',(0.977908492088318,0.0999707207083702,-0.267262130975723));
#76=CARTESIAN_POINT('',(7.59902184843428E-38,0.100022949278355,0.0));
#77=CARTESIAN_POINT('',(0.977908492088318,0.0999707207083702,-0.267262130975723));
#78=CARTESIAN_POINT('',(0.940358768026705,0.09998314282901,-0.247010425539769));
#79=CARTESIAN_POINT('',(0.864341291567234,0.0999894231698454,-0.208199570219729));
#80=CARTESIAN_POINT('',(0.74732441876558,0.100003436937992,-0.156229785080963));
#81=CARTESIAN_POINT('',(0.627606201381947,0.100016446669151,-0.110824549251963));
#82=CARTESIAN_POINT('',(0.505441027247263,0.100027951156407,-0.0724681603287218));
#83=CARTESIAN_POINT('',(0.381176306311403,0.100032233156321,-0.0415637947950215));
#84=CARTESIAN_POINT('',(0.276185652317468,0.100036259063693,-0.0224633938947834));
#85=CARTESIAN_POINT('',(0.191569712429176,0.100039295133656,-0.0113855438418865));
#86=CARTESIAN_POINT('',(0.127863202779256,0.100041325175369,-0.00523142020339231));
#87=CARTESIAN_POINT('',(0.0746292732668824,0.100044570590598,-0.00191000303092355));
#88=CARTESIAN_POINT('',(0.0319943853069106,0.100044572515123,-0.000370104974535743));
#89=CARTESIAN_POINT('',(0.0106650865059264,0.100040541019047,0.000112758066583083));
#90=CARTESIAN_POINT('',(7.59902184843428E-38,0.100022949278355,0.0));
#91=CARTESIAN_POINT('',(-4.22730543758742E-34,0.0100022945553064,6.74613395474841E-35));
#92=CARTESIAN_POINT('',(7.6425339190562E-35,0.0550126219168305,2.48576877169345E-35));
#93=VECTOR('',#111,1.0);
#94=CARTESIAN_POINT('',(1.03953084362729E-06,-1.09410129880416E-05,0.000178889400558546));
#95=CARTESIAN_POINT('',(5.19765421813645E-07,0.0049956767711592,8.94447002792731E-05));
#96=VECTOR('',#112,1.0);
#97=CARTESIAN_POINT('',(0.977941691875458,-8.03869625087827E-05,-0.267272680997849));
#98=CARTESIAN_POINT('',(1.03953084362729E-06,-1.09410129880416E-05,0.000178889400558546));
#99=CARTESIAN_POINT('',(0.0426631423335882,-9.23533665736633E-05,-0.00025412798928651));
#100=CARTESIAN_POINT('',(0.127955190172741,-1.57255590418103E-05,-0.00414154432456049));
#101=CARTESIAN_POINT('',(0.255197807353366,-5.46108434304093E-05,-0.0186281681431525));
#102=CARTESIAN_POINT('',(0.381192066898449,-5.15318382135489E-05,-0.0415517638096953));
#103=CARTESIAN_POINT('',(0.505456313158374,-5.51777819846356E-05,-0.0724757640316849));
#104=CARTESIAN_POINT('',(0.627628978651999,-6.34640726100131E-05,-0.110823164309782));
#105=CARTESIAN_POINT('',(0.747353854321156,-7.29343589538946E-05,-0.156225650998085));
#106=CARTESIAN_POINT('',(0.864367441984719,-7.54779389777867E-05,-0.208213494291545));
#107=CARTESIAN_POINT('',(0.940393312274634,-8.47404894445458E-05,-0.247015131343895));
#108=CARTESIAN_POINT('',(0.977941691875458,-8.03869625087827E-05,-0.267272680997849));
#109=CARTESIAN_POINT('',(0.978041172027588,0.0499451668729307,-0.266973778605461));
#110=VECTOR('',#113,1.0);
#111=DIRECTION('',(-0.0,-1.0,-0.0));
#112=DIRECTION('',(0.000103799114458465,-0.999840448433697,0.0178624438878508));
#113=DIRECTION('',(-0.000105063453576727,0.999999993504139,-4.41971965726186E-05));
ENDSEC;
END-ISO-10303-21;
