ISO-10303-21;
HEADER;
FILE_DESCRIPTION(('STEP AP214'),'1');
FILE_NAME('SMAStripDeformed_05.stp','2026-04-22T20:40:13',(' '),(' '),'Spatial InterOp 3D',' ',' ');
FILE_SCHEMA(('AUTOMOTIVE_DESIGN { 1 0 10303 214 1 1 1 1 }'));
ENDSEC;
DATA;
#1=PRODUCT_DEFINITION_CONTEXT('',#9,'design');
#2=APPLICATION_PROTOCOL_DEFINITION('INTERNATIONAL STANDARD','automotive_design',1994,#9);
#3=PRODUCT_CATEGORY_RELATIONSHIP('NONE','NONE',#10,#11);
#4=SHAPE_DEFINITION_REPRESENTATION(#12,#13);
#5= (GEOMETRIC_REPRESENTATION_CONTEXT(3)GLOBAL_UNCERTAINTY_ASSIGNED_CONTEXT((#16))GLOBAL_UNIT_ASSIGNED_CONTEXT((#18,#19,#20))REPRESENTATION_CONTEXT('NONE','WORKSPACE'));
#9=APPLICATION_CONTEXT(' ');
#10=PRODUCT_CATEGORY('part','NONE');
#11=PRODUCT_RELATED_PRODUCT_CATEGORY('detail',' ',(#22));
#12=PRODUCT_DEFINITION_SHAPE('NONE','NONE',#23);
#13=MANIFOLD_SURFACE_SHAPE_REPRESENTATION('1',(#24,#25),#5);
#16=UNCERTAINTY_MEASURE_WITH_UNIT(LENGTH_MEASURE(1.0E-06),#18,'','');
#18= (CONVERSION_BASED_UNIT('MILLIMETRE',#28)LENGTH_UNIT()NAMED_UNIT(#31));
#19= (NAMED_UNIT(#33)PLANE_ANGLE_UNIT()SI_UNIT($,.RADIAN.));
#20= (NAMED_UNIT(#33)SOLID_ANGLE_UNIT()SI_UNIT($,.STERADIAN.));
#22=PRODUCT('1','','PART--DESC',(#39));
#23=PRODUCT_DEFINITION('','NONE',#40,#1);
#24=SHELL_BASED_SURFACE_MODEL('1',(#41));
#25=AXIS2_PLACEMENT_3D('',#42,#43,#44);
#28=LENGTH_MEASURE_WITH_UNIT(LENGTH_MEASURE(1.0),#45);
#31=DIMENSIONAL_EXPONENTS(1.0,0.0,0.0,0.0,0.0,0.0,0.0);
#33=DIMENSIONAL_EXPONENTS(0.0,0.0,0.0,0.0,0.0,0.0,0.0);
#39=PRODUCT_CONTEXT('',#9,'mechanical');
#40=PRODUCT_DEFINITION_FORMATION_WITH_SPECIFIED_SOURCE(' ','NONE',#22,.NOT_KNOWN.);
#41=CLOSED_SHELL('',(#46));
#42=CARTESIAN_POINT('',(0.0,0.0,0.0));
#43=DIRECTION('',(0.0,0.0,1.0));
#44=DIRECTION('',(1.0,0.0,0.0));
#45= (NAMED_UNIT(#31)LENGTH_UNIT()SI_UNIT(.MILLI.,.METRE.));
#46=FACE_SURFACE('',(#48),#49,.T.);
#48=FACE_BOUND('',#50,.T.);
#49=B_SPLINE_SURFACE_WITH_KNOTS('',3,3,((#51,#52,#53,#54,#55,#56,#57,#58,#59,#60,#61,#62,#63,#64,#65,#66,#67,#68,#69),(#70,#71,#72,#73,#74,#75,#76,#77,#78,#79,#80,#81,#82,#83,#84,#85,#86,#87,#88),(#89,#90,#91,#92,#93,#94,#95,#96,#97,#98,#99,#100,#101,#102,#103,#104,#105,#106,#107),(#108,#109,#110,#111,#112,#113,#114,#115,#116,#117,#118,#119,#120,#121,#122,#123,#124,#125,#126),(#127,#128,#129,#130,#131,#132,#133,#134,#135,#136,#137,#138,#139,#140,#141,#142,#143,#144,#145),(#146,#147,#148,#149,#150,#151,#152,#153,#154,#155,#156,#157,#158,#159,#160,#161,#162,#163,#164),(#165,#166,#167,#168,#169,#170,#171,#172,#173,#174,#175,#176,#177,#178,#179,#180,#181,#182,#183),(#184,#185,#186,#187,#188,#189,#190,#191,#192,#193,#194,#195,#196,#197,#198,#199,#200,#201,#202),(#203,#204,#205,#206,#207,#208,#209,#210,#211,#212,#213,#214,#215,#216,#217,#218,#219,#220,#221),(#222,#223,#224,#225,#226,#227,#228,#229,#230,#231,#232,#233,#234,#235,#236,#237,#238,#239,#240),(#241,#242,#243,#244,#245,#246,#247,#248,#249,#250,#251,#252,#253,#254,#255,#256,#257,#258,#259),(#260,#261,#262,#263,#264,#265,#266,#267,#268,#269,#270,#271,#272,#273,#274,#275,#276,#277,#278),(#279,#280,#281,#282,#283,#284,#285,#286,#287,#288,#289,#290,#291,#292,#293,#294,#295,#296,#297),(#298,#299,#300,#301,#302,#303,#304,#305,#306,#307,#308,#309,#310,#311,#312,#313,#314,#315,#316),(#317,#318,#319,#320,#321,#322,#323,#324,#325,#326,#327,#328,#329,#330,#331,#332,#333,#334,#335),(#336,#337,#338,#339,#340,#341,#342,#343,#344,#345,#346,#347,#348,#349,#350,#351,#352,#353,#354),(#355,#356,#357,#358,#359,#360,#361,#362,#363,#364,#365,#366,#367,#368,#369,#370,#371,#372,#373),(#374,#375,#376,#377,#378,#379,#380,#381,#382,#383,#384,#385,#386,#387,#388,#389,#390,#391,#392),(#393,#394,#395,#396,#397,#398,#399,#400,#401,#402,#403,#404,#405,#406,#407,#408,#409,#410,#411)),.UNSPECIFIED.,.F.,.F.,.F.,(4,1,1,1,1,1,1,1,1,1,1,1,1,1,1,1,4),(4,1,1,1,1,1,1,1,1,1,1,1,1,1,1,1,4),(0.0,1.0,2.0,3.0,4.0,5.0,6.0,7.0,8.0,9.0,10.0,11.0,12.0,13.0,14.0,15.0,16.0),(0.0,1.0,2.0,3.0,4.0,5.0,6.0,7.0,8.0,9.0,10.0,11.0,12.0,13.0,14.0,15.0,16.0),.UNSPECIFIED.);
#50=EDGE_LOOP('',(#412,#413,#414,#415,#416,#417,#418,#419,#420));
#51=CARTESIAN_POINT('',(-0.0191426655095717,0.00835553808659859,0.0181368290079267));
#52=CARTESIAN_POINT('',(-0.0192849686771974,0.0144615380200411,0.0135200256066711));
#53=CARTESIAN_POINT('',(-0.0159339941792188,0.0310540680463955,0.0105782438610292));
#54=CARTESIAN_POINT('',(-0.00911260953992515,0.0581055749673102,0.00927190867450028));
#55=CARTESIAN_POINT('',(-0.00232324909897369,0.0851184957659225,0.00791015162753186));
#56=CARTESIAN_POINT('',(0.00456261800046243,0.112247697936749,0.00671541136271242));
#57=CARTESIAN_POINT('',(0.00967002531962136,0.137234024715093,0.00244282513008909));
#58=CARTESIAN_POINT('',(0.012734079586586,0.159758304826845,-0.00536603784167766));
#59=CARTESIAN_POINT('',(0.0149619255542436,0.181275033231526,-0.0146220633362116));
#60=CARTESIAN_POINT('',(0.0164836209768895,0.201940917190314,-0.0251001702248427));
#61=CARTESIAN_POINT('',(0.0174613896484583,0.221951420992002,-0.0365196100444455));
#62=CARTESIAN_POINT('',(0.0179814528459537,0.24141043309943,-0.048731166145474));
#63=CARTESIAN_POINT('',(0.0181300318463796,0.260421841975443,-0.0615856218783823));
#64=CARTESIAN_POINT('',(0.0180735520411373,0.279186174435361,-0.0747949573927667));
#65=CARTESIAN_POINT('',(0.0179784388216278,0.297903957294507,-0.0880711528382237));
#66=CARTESIAN_POINT('',(0.0178525232738126,0.316584626268882,-0.101400655545968));
#67=CARTESIAN_POINT('',(0.0177036364836531,0.335237617074483,-0.114769912847214));
#68=CARTESIAN_POINT('',(0.0175942851860741,0.347660782643174,-0.123700218997656));
#69=CARTESIAN_POINT('',(0.017538391358939,0.353870897638128,-0.128167480282098));
#70=CARTESIAN_POINT('',(-0.000739975264748061,0.00288223092850463,0.010275430988147));
#71=CARTESIAN_POINT('',(-0.000785902647437109,0.00910435454394554,0.00582541787607915));
#72=CARTESIAN_POINT('',(0.00314012197134816,0.0263897654366462,0.00387883192583177));
#73=CARTESIAN_POINT('',(0.0105922933205451,0.054201310528537,0.00366415163819384));
#74=CARTESIAN_POINT('',(0.0178295898614294,0.0817539518519513,0.00307760375496438));
#75=CARTESIAN_POINT('',(0.0250480153372311,0.109283855331393,0.00245839714522508));
#76=CARTESIAN_POINT('',(0.0297021509875088,0.133724032730299,-0.00259863211718006));
#77=CARTESIAN_POINT('',(0.0325265533136249,0.155959554978364,-0.0108222425957483));
#78=CARTESIAN_POINT('',(0.0345871874738045,0.177274809010923,-0.0203676489315714));
#79=CARTESIAN_POINT('',(0.0359536370433512,0.197753636437941,-0.031114428088352));
#80=CARTESIAN_POINT('',(0.0368134150010928,0.217621972617956,-0.0427380655214284));
#81=CARTESIAN_POINT('',(0.0372321166456986,0.23695885366578,-0.0551250404035343));
#82=CARTESIAN_POINT('',(0.0372753372758385,0.255843315696223,-0.0681618319074033));
#83=CARTESIAN_POINT('',(0.0371213950388525,0.274490215167782,-0.0815398382885013));
#84=CARTESIAN_POINT('',(0.0369486080820809,0.293114408538953,-0.094950457802294));
#85=CARTESIAN_POINT('',(0.0367616342332239,0.311721508050435,-0.108385629498309));
#86=CARTESIAN_POINT('',(0.0365651313199816,0.330317125942929,-0.121837292426075));
#87=CARTESIAN_POINT('',(0.0364308818868704,0.342710291619274,-0.13081068789847));
#88=CARTESIAN_POINT('',(0.0363637216022376,0.348906831601286,-0.135297447189651));
#89=CARTESIAN_POINT('',(0.0405476335392659,-0.00266372329693618,0.0023096888314704));
#90=CARTESIAN_POINT('',(0.0410979460256089,0.00427681282214106,-0.00110845698896928));
#91=CARTESIAN_POINT('',(0.0460150349133077,0.0227563621810441,-0.00133988289020248));
#92=CARTESIAN_POINT('',(0.0541445660777394,0.0513840616195327,-0.000382307724445946));
#93=CARTESIAN_POINT('',(0.0616142975650857,0.0792167650127503,-0.000566598007768704));
#94=CARTESIAN_POINT('',(0.0686283213120491,0.106500383791371,-0.00153954724576066));
#95=CARTESIAN_POINT('',(0.0707726389968282,0.127916468535767,-0.0109401288283807));
#96=CARTESIAN_POINT('',(0.0727080826321607,0.149080879857098,-0.0207021929466182));
#97=CARTESIAN_POINT('',(0.0742424110106605,0.169761985329768,-0.031158436933053));
#98=CARTESIAN_POINT('',(0.0751618785945316,0.189702241849191,-0.0426787740401169));
#99=CARTESIAN_POINT('',(0.0757045504866194,0.20918849528973,-0.0548512029816448));
#100=CARTESIAN_POINT('',(0.0758709305243183,0.22822135272767,-0.067674851804326));
#101=CARTESIAN_POINT('',(0.0756615225450229,0.246801421239294,-0.0811488485548501));
#102=CARTESIAN_POINT('',(0.0752791178051433,0.265173045058862,-0.0949222377279142));
#103=CARTESIAN_POINT('',(0.0749265075610898,0.283580568420632,-0.108644063818215));
#104=CARTESIAN_POINT('',(0.0746002774104236,0.302019877293437,-0.122320235874074));
#105=CARTESIAN_POINT('',(0.0742970129507061,0.32048685764611,-0.135956662943812));
#106=CARTESIAN_POINT('',(0.0741078708369153,0.332813882847444,-0.145025057031169));
#107=CARTESIAN_POINT('',(0.0740159892612056,0.338980636017909,-0.149554599592967));
#108=CARTESIAN_POINT('',(0.105067173061753,-0.00786420784327527,-0.00515984973700309));
#109=CARTESIAN_POINT('',(0.105919035644864,-0.000560332452131926,-0.00805612558898963));
#110=CARTESIAN_POINT('',(0.109839492392086,0.0167183696833091,-0.010012347433864));
#111=CARTESIAN_POINT('',(0.117493208780114,0.0447727574354496,-0.00987822895080212));
#112=CARTESIAN_POINT('',(0.124621843274043,0.0721944712961795,-0.0106528300285905));
#113=CARTESIAN_POINT('',(0.131697116934767,0.0995518904128483,-0.0115197786686562));
#114=CARTESIAN_POINT('',(0.133589746699395,0.120664715079812,-0.0213559375180631));
#115=CARTESIAN_POINT('',(0.133984299945389,0.139972499597184,-0.0337847042090824));
#116=CARTESIAN_POINT('',(0.134528467837793,0.159460555576246,-0.0459545441358941));
#117=CARTESIAN_POINT('',(0.134533059615895,0.178298473502971,-0.0590581876753301));
#118=CARTESIAN_POINT('',(0.134432030057401,0.197009127734658,-0.0723446220816517));
#119=CARTESIAN_POINT('',(0.134107409430254,0.215450375930681,-0.0860180086567658));
#120=CARTESIAN_POINT('',(0.133441228002399,0.233480075750411,-0.100282508702579));
#121=CARTESIAN_POINT('',(0.13265896347604,0.251369906444044,-0.114747904996158));
#122=CARTESIAN_POINT('',(0.131986093553383,0.269391547261775,-0.129023980314569));
#123=CARTESIAN_POINT('',(0.131407659247028,0.287526974042278,-0.143136623047053));
#124=CARTESIAN_POINT('',(0.130908701569579,0.305758162624227,-0.157111721582855));
#125=CARTESIAN_POINT('',(0.130619160179124,0.317964216217559,-0.166353869112532));
#126=CARTESIAN_POINT('',(0.130482691909669,0.324077246650002,-0.170960574496387));
#127=CARTESIAN_POINT('',(0.167073979689838,-0.0160922972570426,-0.0169779852729021));
#128=CARTESIAN_POINT('',(0.167810473855594,-0.00892742986898259,-0.0200739205279896));
#129=CARTESIAN_POINT('',(0.170673635755146,0.00707733223318022,-0.0238599226803917));
#130=CARTESIAN_POINT('',(0.177810552729926,0.0345090256979491,-0.0246201898943636));
#131=CARTESIAN_POINT('',(0.184806064305738,0.0617703390657513,-0.0256251767482561));
#132=CARTESIAN_POINT('',(0.191895256221879,0.0891445283603962,-0.0264680381152846));
#133=CARTESIAN_POINT('',(0.195971638029457,0.112888567164456,-0.0325249423002799));
#134=CARTESIAN_POINT('',(0.195600004780373,0.131273169609024,-0.0462796900680792));
#135=CARTESIAN_POINT('',(0.195207164487908,0.14963221957728,-0.0600711392635301));
#136=CARTESIAN_POINT('',(0.194217249771675,0.167271851482579,-0.074895900051436));
#137=CARTESIAN_POINT('',(0.193379807972392,0.185095198794532,-0.0894567874822721));
#138=CARTESIAN_POINT('',(0.192487945674812,0.202852974566471,-0.104111856357697));
#139=CARTESIAN_POINT('',(0.191335065336173,0.220296248350014,-0.119218649435213));
#140=CARTESIAN_POINT('',(0.190139221877278,0.237687755647634,-0.13439979553882));
#141=CARTESIAN_POINT('',(0.189118470218927,0.255290231961799,-0.149277923492522));
#142=CARTESIAN_POINT('',(0.188252611450111,0.273079339520109,-0.163887990025447));
#143=CARTESIAN_POINT('',(0.18752144665982,0.291030740550162,-0.178264951866724));
#144=CARTESIAN_POINT('',(0.187110674710259,0.30309072281548,-0.187716903965307));
#145=CARTESIAN_POINT('',(0.186921175361041,0.309139855825491,-0.192415386232073));
#146=CARTESIAN_POINT('',(0.228098194143339,-0.025504317066714,-0.030496618844281));
#147=CARTESIAN_POINT('',(0.228551522951509,-0.0186806370833417,-0.0340826069888028));
#148=CARTESIAN_POINT('',(0.230077050006837,-0.00428759812701519,-0.040183552699301));
#149=CARTESIAN_POINT('',(0.236231744909577,0.0219606108803196,-0.0426436774402443));
#150=CARTESIAN_POINT('',(0.243165897643752,0.0491479926623126,-0.043754853405307));
#151=CARTESIAN_POINT('',(0.250022564274259,0.0762420110370187,-0.0450001287154211));
#152=CARTESIAN_POINT('',(0.256160916935121,0.102470529192547,-0.0474885357396219));
#153=CARTESIAN_POINT('',(0.257015389890925,0.122332473348275,-0.0591213541387244));
#154=CARTESIAN_POINT('',(0.25570999774764,0.139591984869178,-0.0744920878733067));
#155=CARTESIAN_POINT('',(0.25403433608887,0.15640535673479,-0.0905036190821287));
#156=CARTESIAN_POINT('',(0.252485366681086,0.173371380749227,-0.106295893584571));
#157=CARTESIAN_POINT('',(0.250934258972041,0.190334828313409,-0.122091868683445));
#158=CARTESIAN_POINT('',(0.249280000913079,0.207173989487191,-0.138066358299256));
#159=CARTESIAN_POINT('',(0.247683043733005,0.224082192786467,-0.15394168161342));
#160=CARTESIAN_POINT('',(0.246303838660623,0.241252766727132,-0.169440157807355));
#161=CARTESIAN_POINT('',(0.245123324116203,0.258662743913126,-0.184594775316878));
#162=CARTESIAN_POINT('',(0.244122438520012,0.276289156948392,-0.199438522577807));
#163=CARTESIAN_POINT('',(0.243566833702104,0.288174629341153,-0.209141125978597));
#164=CARTESIAN_POINT('',(0.243314919258221,0.294148558080613,-0.213947625333843));
#165=CARTESIAN_POINT('',(0.288163978371172,-0.0360711544150057,-0.0456739351917383));
#166=CARTESIAN_POINT('',(0.288441886195049,-0.0294588400833809,-0.0495635111796064));
#167=CARTESIAN_POINT('',(0.289097120828245,-0.0161144209700975,-0.0571706062289754));
#168=CARTESIAN_POINT('',(0.29281565155832,0.00719844121886076,-0.0638468162358857));
#169=CARTESIAN_POINT('',(0.29972505910226,0.0343560073930869,-0.0650008168320328));
#170=CARTESIAN_POINT('',(0.306411720224981,0.0612451852517127,-0.0665403078294764));
#171=CARTESIAN_POINT('',(0.31320360074066,0.0882611425014049,-0.0678977035735221));
#172=CARTESIAN_POINT('',(0.317340014916781,0.112077514616978,-0.0738507142741082));
#173=CARTESIAN_POINT('',(0.315723275217403,0.128961881856374,-0.0897602736997377));
#174=CARTESIAN_POINT('',(0.313808329743841,0.145486939415291,-0.106185915327408));
#175=CARTESIAN_POINT('',(0.311686188632975,0.161762345878619,-0.122970134789615));
#176=CARTESIAN_POINT('',(0.309368069035987,0.177801616849863,-0.140093519410336));
#177=CARTESIAN_POINT('',(0.307213001099847,0.194037349611027,-0.156934722841216));
#178=CARTESIAN_POINT('',(0.305253579767369,0.210508817977382,-0.173437335477478));
#179=CARTESIAN_POINT('',(0.303522399981372,0.227255295764202,-0.189544947714344));
#180=CARTESIAN_POINT('',(0.302007987341835,0.244262957407525,-0.205277417428965));
#181=CARTESIAN_POINT('',(0.300698867448739,0.261517977343389,-0.220654602498491));
#182=CARTESIAN_POINT('',(0.299972056426444,0.273197162494521,-0.230653499541499));
#183=CARTESIAN_POINT('',(0.299647403244107,0.279083447951608,-0.235585882335514));
#184=CARTESIAN_POINT('',(0.347470200862014,-0.0475531916307995,-0.0621657676476955));
#185=CARTESIAN_POINT('',(0.347747171373555,-0.0409420066716594,-0.0660569657712046));
#186=CARTESIAN_POINT('',(0.348374326726887,-0.0276314204279894,-0.0737126555086662));
#187=CARTESIAN_POINT('',(0.349124002603578,-0.00789574681519128,-0.0855268382945055));
#188=CARTESIAN_POINT('',(0.354660597190258,0.0176077099227606,-0.0890566625510507));
#189=CARTESIAN_POINT('',(0.361321589208065,0.0444659589440407,-0.0906405771289075));
#190=CARTESIAN_POINT('',(0.36801598370505,0.0713644547853364,-0.0921666845598175));
#191=CARTESIAN_POINT('',(0.374546629347254,0.0980656487841327,-0.0939761797614337));
#192=CARTESIAN_POINT('',(0.375562309374912,0.118121832174956,-0.105330009261497));
#193=CARTESIAN_POINT('',(0.373149176110056,0.134046620686107,-0.122617826858311));
#194=CARTESIAN_POINT('',(0.370701101258763,0.149929307898943,-0.139966115218713));
#195=CARTESIAN_POINT('',(0.367755885089219,0.165212986964796,-0.158174768496431));
#196=CARTESIAN_POINT('',(0.365081291831086,0.180822740977036,-0.175915075148649));
#197=CARTESIAN_POINT('',(0.362689012153041,0.196772656082848,-0.193166803018391));
#198=CARTESIAN_POINT('',(0.360591279375447,0.213077472273244,-0.209908780822408));
#199=CARTESIAN_POINT('',(0.358752354758168,0.229694127755292,-0.226202858897968));
#200=CARTESIAN_POINT('',(0.357136499561067,0.246579560736057,-0.242110887582338));
#201=CARTESIAN_POINT('',(0.35623821280617,0.25805213388962,-0.25240654471968));
#202=CARTESIAN_POINT('',(0.35584136621361,0.263851433133141,-0.257463867194097));
#203=CARTESIAN_POINT('',(0.406153820080842,-0.0597854067509091,-0.0797350925449003));
#204=CARTESIAN_POINT('',(0.406403322053307,-0.0532073187766462,-0.083673828393565));
#205=CARTESIAN_POINT('',(0.406941762984555,-0.0400036249992266,-0.0914830494783889));
#206=CARTESIAN_POINT('',(0.407094692601685,-0.0209869740426341,-0.104329975927684));
#207=CARTESIAN_POINT('',(0.408595214591895,-0.000346602062156878,-0.114844726076046));
#208=CARTESIAN_POINT('',(0.414668621270135,0.0258036623428262,-0.117445530205288));
#209=CARTESIAN_POINT('',(0.421293470491946,0.052618362722178,-0.119091994389358));
#210=CARTESIAN_POINT('',(0.427977202953471,0.0795040118217729,-0.120636553799455));
#211=CARTESIAN_POINT('',(0.433340020266343,0.104798083423246,-0.124467121253804));
#212=CARTESIAN_POINT('',(0.432463674454199,0.122574555088781,-0.139095336920254));
#213=CARTESIAN_POINT('',(0.429325007774496,0.13762514463387,-0.157638780379491));
#214=CARTESIAN_POINT('',(0.426064305008641,0.15252869226724,-0.17639342247243));
#215=CARTESIAN_POINT('',(0.422832099041406,0.167466575840732,-0.195098747309112));
#216=CARTESIAN_POINT('',(0.419827523062688,0.182678731965335,-0.213410130123557));
#217=CARTESIAN_POINT('',(0.417327602037123,0.198498949454495,-0.230848144740464));
#218=CARTESIAN_POINT('',(0.415202179996364,0.214770402708416,-0.247638042260143));
#219=CARTESIAN_POINT('',(0.413321100972062,0.231336266127299,-0.264005073782905));
#220=CARTESIAN_POINT('',(0.412277172764173,0.242633355140482,-0.274552781578804));
#221=CARTESIAN_POINT('',(0.411819547061642,0.248359421319877,-0.279715289866602));
#222=CARTESIAN_POINT('',(0.464207196360341,-0.072777004850016,-0.0983951312783484));
#223=CARTESIAN_POINT('',(0.464405764866621,-0.066260286872731,-0.102422013828592));
#224=CARTESIAN_POINT('',(0.464761921367975,-0.0532762285481825,-0.11054670080349));
#225=CARTESIAN_POINT('',(0.465245204856075,-0.0338615325029329,-0.122821908768628));
#226=CARTESIAN_POINT('',(0.464355249291165,-0.016101459298933,-0.137473677805887));
#227=CARTESIAN_POINT('',(0.466582504460767,0.0054145572501138,-0.146730725749978));
#228=CARTESIAN_POINT('',(0.473155205973337,0.0321664245847465,-0.148467438034339));
#229=CARTESIAN_POINT('',(0.479642064294141,0.0588148590133967,-0.150352712644691));
#230=CARTESIAN_POINT('',(0.486283295267505,0.0856492978499683,-0.151970826169092));
#231=CARTESIAN_POINT('',(0.490519191013857,0.109585535824314,-0.157751671632542));
#232=CARTESIAN_POINT('',(0.487654909734024,0.124966733757604,-0.175820257011783));
#233=CARTESIAN_POINT('',(0.483933798042407,0.139315532293785,-0.195371694045722));
#234=CARTESIAN_POINT('',(0.480405115437653,0.153896189632514,-0.214590108598267));
#235=CARTESIAN_POINT('',(0.476807858614135,0.168394221540196,-0.233927199370008));
#236=CARTESIAN_POINT('',(0.473816078213405,0.18362179512293,-0.252216437844418));
#237=CARTESIAN_POINT('',(0.471310259127661,0.19943490600886,-0.26966465978844));
#238=CARTESIAN_POINT('',(0.469170918090276,0.215689588191718,-0.286478645863911));
#239=CARTESIAN_POINT('',(0.468017424861721,0.22685466174452,-0.297215969562744));
#240=CARTESIAN_POINT('',(0.467515965637568,0.232527912686882,-0.302454337214512));
#241=CARTESIAN_POINT('',(0.521639546367818,-0.0865168807179862,-0.118129933258308));
#242=CARTESIAN_POINT('',(0.521824382087925,-0.0800167094458268,-0.122180582103984));
#243=CARTESIAN_POINT('',(0.522142884698154,-0.0670780204895473,-0.130370433823261));
#244=CARTESIAN_POINT('',(0.522422064116373,-0.0479092504943009,-0.142998869280785));
#245=CARTESIAN_POINT('',(0.521892418544948,-0.029715037914608,-0.157027077036025));
#246=CARTESIAN_POINT('',(0.520196271970546,-0.0129263484298462,-0.173074059940565));
#247=CARTESIAN_POINT('',(0.523443565325476,0.00981871740722585,-0.180565804867666));
#248=CARTESIAN_POINT('',(0.529820211694894,0.0363343568853231,-0.18264181497507));
#249=CARTESIAN_POINT('',(0.536273986778728,0.0629429291505481,-0.184584344243998));
#250=CARTESIAN_POINT('',(0.542910696652166,0.0897719204904223,-0.186210282094443));
#251=CARTESIAN_POINT('',(0.545682340748227,0.111943874074079,-0.194525197255549));
#252=CARTESIAN_POINT('',(0.541903327020227,0.126222906146989,-0.214176840968991));
#253=CARTESIAN_POINT('',(0.537792790175147,0.140102484300554,-0.234402226692486));
#254=CARTESIAN_POINT('',(0.533768798089223,0.15408634068228,-0.254477835940317));
#255=CARTESIAN_POINT('',(0.530141418151296,0.168548077093528,-0.273867058510175));
#256=CARTESIAN_POINT('',(0.5270293882233,0.183630761398589,-0.292364403755808));
#257=CARTESIAN_POINT('',(0.52460419732426,0.199541021603915,-0.309673088589074));
#258=CARTESIAN_POINT('',(0.523387457660081,0.210629889199144,-0.320519868115372));
#259=CARTESIAN_POINT('',(0.522864641790756,0.216277407409221,-0.325795196099309));
#260=CARTESIAN_POINT('',(0.578530914723543,-0.100908588177641,-0.138800971308359));
#261=CARTESIAN_POINT('',(0.5787083767854,-0.0944173014644649,-0.142864381187242));
#262=CARTESIAN_POINT('',(0.57903877333471,-0.0814642814394369,-0.151033648964814));
#263=CARTESIAN_POINT('',(0.579120726621059,-0.0625331502310925,-0.164003408787079));
#264=CARTESIAN_POINT('',(0.578412670649406,-0.0445539052658778,-0.178340377941956));
#265=CARTESIAN_POINT('',(0.57703768841038,-0.0273782432114501,-0.193831545997264));
#266=CARTESIAN_POINT('',(0.575134317053098,-0.010839239939933,-0.210237157176387));
#267=CARTESIAN_POINT('',(0.578496708042291,0.0120445076322732,-0.217529711324225));
#268=CARTESIAN_POINT('',(0.585043801309365,0.0387655194593886,-0.219310741864202));
#269=CARTESIAN_POINT('',(0.591481278352755,0.0653544541313426,-0.221281476920307));
#270=CARTESIAN_POINT('',(0.597927493840884,0.0919539178005825,-0.223237089010347));
#271=CARTESIAN_POINT('',(0.600115435172517,0.113422564902819,-0.232562174443399));
#272=CARTESIAN_POINT('',(0.595079194955436,0.126186758273103,-0.254389605050053));
#273=CARTESIAN_POINT('',(0.59041419720828,0.139398263616515,-0.275574554363734));
#274=CARTESIAN_POINT('',(0.586435642830643,0.153436868128088,-0.29557152800294));
#275=CARTESIAN_POINT('',(0.582739235667894,0.167815433278943,-0.315080210775352));
#276=CARTESIAN_POINT('',(0.579917327979084,0.183247687371334,-0.333075463382201));
#277=CARTESIAN_POINT('',(0.578555163004192,0.194161331257134,-0.344173919505945));
#278=CARTESIAN_POINT('',(0.577987894404175,0.199755288141965,-0.349526178472205));
#279=CARTESIAN_POINT('',(0.634949732760493,-0.115869673961756,-0.160289816490941));
#280=CARTESIAN_POINT('',(0.635083732915321,-0.109430754725265,-0.164428442608493));
#281=CARTESIAN_POINT('',(0.635334072689584,-0.0965741955227725,-0.172736258597842));
#282=CARTESIAN_POINT('',(0.635329677811448,-0.0777471056646529,-0.18585545466423));
#283=CARTESIAN_POINT('',(0.634618397371905,-0.0597717458774851,-0.200198004162056));
#284=CARTESIAN_POINT('',(0.633578547614287,-0.0421922809619554,-0.215109183753176));
#285=CARTESIAN_POINT('',(0.631536417553305,-0.0258204687705796,-0.231754934136692));
#286=CARTESIAN_POINT('',(0.628872337369971,-0.0101980475001117,-0.249477046604686));
#287=CARTESIAN_POINT('',(0.632287091501736,0.0127487926935504,-0.256678979818042));
#288=CARTESIAN_POINT('',(0.638523638372608,0.0390956255608585,-0.258997449542173));
#289=CARTESIAN_POINT('',(0.644880884033956,0.0655878890254063,-0.261107034989188));
#290=CARTESIAN_POINT('',(0.651361548211354,0.0922288600986127,-0.263003029335527));
#291=CARTESIAN_POINT('',(0.653021297859646,0.113061086308289,-0.273242216206706));
#292=CARTESIAN_POINT('',(0.647811822343071,0.125616547569749,-0.295369452057168));
#293=CARTESIAN_POINT('',(0.642943670382161,0.138583271349721,-0.316905985019002));
#294=CARTESIAN_POINT('',(0.638819986110023,0.152447008100388,-0.337154124001136));
#295=CARTESIAN_POINT('',(0.635406699359818,0.167166706501417,-0.356172831667102));
#296=CARTESIAN_POINT('',(0.633688432738994,0.177651281671268,-0.367887566003722));
#297=CARTESIAN_POINT('',(0.633008042360796,0.183108937540183,-0.373435596284411));
#298=CARTESIAN_POINT('',(0.691078509494497,-0.131180232012704,-0.182280614242068));
#299=CARTESIAN_POINT('',(0.691152678030992,-0.124813404202762,-0.186522786420812));
#300=CARTESIAN_POINT('',(0.691277837766597,-0.112107675076632,-0.195047242044919));
#301=CARTESIAN_POINT('',(0.691216309288035,-0.0933494257893228,-0.208265314916758));
#302=CARTESIAN_POINT('',(0.690725776657691,-0.0751080858245185,-0.2222258328601));
#303=CARTESIAN_POINT('',(0.689652857864062,-0.0575684659616057,-0.23719424253327));
#304=CARTESIAN_POINT('',(0.687757358638501,-0.0410199775178413,-0.253586230008813));
#305=CARTESIAN_POINT('',(0.684872291474041,-0.0256638246045015,-0.271690787948072));
#306=CARTESIAN_POINT('',(0.681510262956805,-0.0108823648933156,-0.290620786863124));
#307=CARTESIAN_POINT('',(0.684020214674824,0.0109742741898263,-0.299388593250386));
#308=CARTESIAN_POINT('',(0.690479492036217,0.0375894761777553,-0.301321600143274));
#309=CARTESIAN_POINT('',(0.69690385932369,0.0641626148369638,-0.30331502326342));
#310=CARTESIAN_POINT('',(0.703353861692086,0.090766641337834,-0.305264081685904));
#311=CARTESIAN_POINT('',(0.705700026378834,0.112425932579427,-0.314315341913038));
#312=CARTESIAN_POINT('',(0.699921020417757,0.124295163661083,-0.337428221072163));
#313=CARTESIAN_POINT('',(0.694241688515909,0.136284492532501,-0.360368601867986));
#314=CARTESIAN_POINT('',(0.690507452258926,0.150617477211955,-0.379942752595559));
#315=CARTESIAN_POINT('',(0.688568729843799,0.160836424054429,-0.392039013118546));
#316=CARTESIAN_POINT('',(0.687815238581628,0.16620600028996,-0.397713553575892));
#317=CARTESIAN_POINT('',(0.747099753941387,-0.146620356272857,-0.204457509997757));
#318=CARTESIAN_POINT('',(0.747117439685713,-0.140321584871487,-0.208797432677275));
#319=CARTESIAN_POINT('',(0.747119123569571,-0.127764632438095,-0.217535578628617));
#320=CARTESIAN_POINT('',(0.746935604562316,-0.109153370170088,-0.230964771291306));
#321=CARTESIAN_POINT('',(0.746481058703366,-0.0908686695582052,-0.244863009648425));
#322=CARTESIAN_POINT('',(0.745467687518051,-0.0732573004738871,-0.259728364775087));
#323=CARTESIAN_POINT('',(0.743607480271375,-0.056666288542133,-0.276059275089305));
#324=CARTESIAN_POINT('',(0.741321321741356,-0.0405885075159057,-0.293127347106285));
#325=CARTESIAN_POINT('',(0.737892458990624,-0.0258875767185145,-0.312173010979497));
#326=CARTESIAN_POINT('',(0.733203389132827,-0.0127050759857817,-0.333399620076262));
#327=CARTESIAN_POINT('',(0.734583119791554,0.00778975389431737,-0.344123414655469));
#328=CARTESIAN_POINT('',(0.740594269795987,0.0338650049108618,-0.346831961706184));
#329=CARTESIAN_POINT('',(0.746893385031357,0.0602872267243336,-0.349042149089316));
#330=CARTESIAN_POINT('',(0.753351332786508,0.0869008266628211,-0.350977457031268));
#331=CARTESIAN_POINT('',(0.756277136146361,0.10925852754117,-0.359025580402238));
#332=CARTESIAN_POINT('',(0.750891310012852,0.121601503031701,-0.381458012941022));
#333=CARTESIAN_POINT('',(0.74511854651513,0.133478255689758,-0.404560088740474));
#334=CARTESIAN_POINT('',(0.743140133045899,0.143649378575748,-0.416725039571886));
#335=CARTESIAN_POINT('',(0.742384948571621,0.14901691465125,-0.422402510343492));
#336=CARTESIAN_POINT('',(0.803056160836014,-0.162138603635253,-0.226746615206258));
#337=CARTESIAN_POINT('',(0.803025643750562,-0.155897912072926,-0.231169958881244));
#338=CARTESIAN_POINT('',(0.802920869388656,-0.143469231730758,-0.240092344074934));
#339=CARTESIAN_POINT('',(0.802594225137388,-0.125030421809911,-0.253769232783417));
#340=CARTESIAN_POINT('',(0.80205983604231,-0.106841924726415,-0.26780564979664));
#341=CARTESIAN_POINT('',(0.80111875225446,-0.0891434561828151,-0.282545902586279));
#342=CARTESIAN_POINT('',(0.799572023924875,-0.0721747318816585,-0.29833429862401));
#343=CARTESIAN_POINT('',(0.797293870463144,-0.0560873055072263,-0.315388516874138));
#344=CARTESIAN_POINT('',(0.794089739102115,-0.0411155946954351,-0.334045255111073));
#345=CARTESIAN_POINT('',(0.789887284284312,-0.027346768982864,-0.354429716324975));
#346=CARTESIAN_POINT('',(0.784161662800654,-0.0154132146681093,-0.377450207002565));
#347=CARTESIAN_POINT('',(0.783312527926152,0.00239604359700298,-0.392031330755197));
#348=CARTESIAN_POINT('',(0.788852742782449,0.0279038624165493,-0.395554889684652));
#349=CARTESIAN_POINT('',(0.795105913627193,0.0542707255960025,-0.397844589553249));
#350=CARTESIAN_POINT('',(0.801257926076112,0.0805157025008473,-0.400309356614344));
#351=CARTESIAN_POINT('',(0.805280873213814,0.104195357594658,-0.406458736145166));
#352=CARTESIAN_POINT('',(0.801477409889616,0.118444930222587,-0.426152692927424));
#353=CARTESIAN_POINT('',(0.798211049077129,0.12706419868978,-0.440546596913215));
#354=CARTESIAN_POINT('',(0.797129599860719,0.132038616689121,-0.44678870942266));
#355=CARTESIAN_POINT('',(0.858990424913232,-0.177683530992933,-0.24907404131582));
#356=CARTESIAN_POINT('',(0.858924916096616,-0.171485001148561,-0.253557942536084));
#357=CARTESIAN_POINT('',(0.858746014514003,-0.159145637078219,-0.26260861410987));
#358=CARTESIAN_POINT('',(0.858298832516347,-0.140852063711756,-0.276494108388633));
#359=CARTESIAN_POINT('',(0.857637643119365,-0.122816348968194,-0.290749969103795));
#360=CARTESIAN_POINT('',(0.856636961778646,-0.105189689824454,-0.305593362875212));
#361=CARTESIAN_POINT('',(0.855171303949778,-0.0881232832574571,-0.321241456322742));
#362=CARTESIAN_POINT('',(0.853011365082327,-0.0718934195066363,-0.338091089506412));
#363=CARTESIAN_POINT('',(0.849927821424621,-0.056776411947091,-0.356539135716373));
#364=CARTESIAN_POINT('',(0.846296582904223,-0.0423193247618292,-0.375935036043371));
#365=CARTESIAN_POINT('',(0.84180952825289,-0.0288934148614345,-0.39681203268584));
#366=CARTESIAN_POINT('',(0.83516441301422,-0.0180677633303186,-0.421423821731644));
#367=CARTESIAN_POINT('',(0.831405672649623,-0.00376430377693299,-0.441040379866824));
#368=CARTESIAN_POINT('',(0.834528403139327,0.0188306756192367,-0.448747696333257));
#369=CARTESIAN_POINT('',(0.840481307275896,0.0448357458881802,-0.451557045106638));
#370=CARTESIAN_POINT('',(0.84632066622259,0.0707040049702662,-0.454562897961077));
#371=CARTESIAN_POINT('',(0.850709212735708,0.0948241726434295,-0.46007956227622));
#372=CARTESIAN_POINT('',(0.850256779957013,0.106833957560137,-0.469603613624045));
#373=CARTESIAN_POINT('',(0.849959620118836,0.112753369889875,-0.47448841576462));
#374=CARTESIAN_POINT('',(0.896282694416165,-0.188043490217445,-0.26395421532764));
#375=CARTESIAN_POINT('',(0.896200766276834,-0.18186474409998,-0.268466532229143));
#376=CARTESIAN_POINT('',(0.895988792661801,-0.169565228692642,-0.277574439070635));
#377=CARTESIAN_POINT('',(0.895482809691075,-0.151342504922917,-0.291561695750706));
#378=CARTESIAN_POINT('',(0.894745133633103,-0.133398949352987,-0.305949926150989));
#379=CARTESIAN_POINT('',(0.893684524013142,-0.115844498103024,-0.320897033267328));
#380=CARTESIAN_POINT('',(0.892209740356447,-0.0987890872932012,-0.336560920095565));
#381=CARTESIAN_POINT('',(0.890181940716408,-0.0824000083034739,-0.353181869902311));
#382=CARTESIAN_POINT('',(0.887462276746001,-0.0668445602256856,-0.371000177030881));
#383=CARTESIAN_POINT('',(0.884038209930222,-0.0521378507814519,-0.390037540941835));
#384=CARTESIAN_POINT('',(0.879660124572525,-0.0385806432152573,-0.410725952661129));
#385=CARTESIAN_POINT('',(0.874111007803485,-0.0264344174564771,-0.43344097996518));
#386=CARTESIAN_POINT('',(0.867964649230884,-0.0150078114374334,-0.457189608533248));
#387=CARTESIAN_POINT('',(0.863832938255928,-0.00115374610252972,-0.477451638723482));
#388=CARTESIAN_POINT('',(0.86902280436673,0.0239319357005758,-0.481581519755693));
#389=CARTESIAN_POINT('',(0.875694760226772,0.0508033951121023,-0.48314646004018));
#390=CARTESIAN_POINT('',(0.881924155792033,0.0771416113342724,-0.485477305988606));
#391=CARTESIAN_POINT('',(0.88379510249626,0.0919508482130435,-0.490980460011403));
#392=CARTESIAN_POINT('',(0.884321581755272,0.098862667553177,-0.494439852197633));
#393=CARTESIAN_POINT('',(0.914933899696261,-0.193217360323517,-0.271385527152763));
#394=CARTESIAN_POINT('',(0.914845014294833,-0.187046997047155,-0.275909884462111));
#395=CARTESIAN_POINT('',(0.914619289216774,-0.174764050848778,-0.285041589921652));
#396=CARTESIAN_POINT('',(0.914090919938835,-0.15656830045646,-0.299067588892189));
#397=CARTESIAN_POINT('',(0.913326850164804,-0.138656546811592,-0.313501496902642));
#398=CARTESIAN_POINT('',(0.912248158941614,-0.121123882178929,-0.32847989648351));
#399=CARTESIAN_POINT('',(0.910775925316194,-0.104065398823227,-0.34413937016529));
#400=CARTESIAN_POINT('',(0.908807883076949,-0.0876043178320479,-0.360656902353532));
#401=CARTESIAN_POINT('',(0.906241762812077,-0.0718638641488989,-0.378209482992136));
#402=CARTESIAN_POINT('',(0.902957514322146,-0.0569886868803138,-0.397004873890704));
#403=CARTESIAN_POINT('',(0.89871201542549,-0.0432717252010996,-0.417463828239624));
#404=CARTESIAN_POINT('',(0.893578608862019,-0.0306246080644001,-0.439459417300441));
#405=CARTESIAN_POINT('',(0.887321036319635,-0.0193320043330613,-0.463400515483092));
#406=CARTESIAN_POINT('',(0.881916404939295,-0.00701168738174985,-0.485865492841708));
#407=CARTESIAN_POINT('',(0.886494187021124,0.0173364912074156,-0.491054661456031));
#408=CARTESIAN_POINT('',(0.892924517988576,0.0439168155354919,-0.49303776368583));
#409=CARTESIAN_POINT('',(0.899100395071521,0.0701905470613702,-0.49546123002794));
#410=CARTESIAN_POINT('',(0.901395786561892,0.085511199659397,-0.500229829528853));
#411=CARTESIAN_POINT('',(0.902103266752267,0.0926411079583789,-0.503375977078941));
#412=ORIENTED_EDGE('',*,*,#421,.T.);
#413=ORIENTED_EDGE('',*,*,#422,.T.);
#414=ORIENTED_EDGE('',*,*,#423,.T.);
#415=ORIENTED_EDGE('',*,*,#424,.T.);
#416=ORIENTED_EDGE('',*,*,#425,.T.);
#417=ORIENTED_EDGE('',*,*,#426,.T.);
#418=ORIENTED_EDGE('',*,*,#427,.T.);
#419=ORIENTED_EDGE('',*,*,#428,.T.);
#420=ORIENTED_EDGE('',*,*,#429,.T.);
#421=EDGE_CURVE('',#430,#431,#432,.T.);
#422=EDGE_CURVE('',#431,#433,#434,.T.);
#423=EDGE_CURVE('',#433,#435,#436,.T.);
#424=EDGE_CURVE('',#435,#437,#438,.T.);
#425=EDGE_CURVE('',#437,#439,#440,.T.);
#426=EDGE_CURVE('',#439,#441,#442,.T.);
#427=EDGE_CURVE('',#441,#443,#444,.T.);
#428=EDGE_CURVE('',#443,#445,#446,.T.);
#429=EDGE_CURVE('',#445,#430,#447,.T.);
#430=VERTEX_POINT('',#448);
#431=VERTEX_POINT('',#449);
#432=LINE('',#450,#451);
#433=VERTEX_POINT('',#452);
#434=LINE('',#453,#454);
#435=VERTEX_POINT('',#455);
#436=LINE('',#456,#457);
#437=VERTEX_POINT('',#458);
#438=LINE('',#459,#460);
#439=VERTEX_POINT('',#461);
#440=B_SPLINE_CURVE_WITH_KNOTS('',3,(#462,#463,#464,#465,#466,#467,#468,#469,#470,#471,#472,#473,#474,#475,#476,#477,#478,#479,#480,#481,#482,#483),.UNSPECIFIED.,.F.,.F.,(4,1,1,1,1,1,1,1,1,1,1,1,1,1,1,1,1,1,1,4),(0.0,0.129535218625179,0.259070437250359,0.388605655875538,0.518140874500717,0.582908483813307,0.647676093125896,0.712443702438486,0.777211311751076,0.841978921063665,0.87436272571996,0.906746530376255,0.93913033503255,0.971514139688844,0.987706042016992,1.00389794434514,1.01199389550921,1.02008984667329,1.02818579783736,1.03628174900143),.UNSPECIFIED.);
#441=VERTEX_POINT('',#484);
#442=LINE('',#485,#486);
#443=VERTEX_POINT('',#487);
#444=LINE('',#488,#489);
#445=VERTEX_POINT('',#490);
#446=LINE('',#491,#492);
#447=B_SPLINE_CURVE_WITH_KNOTS('',3,(#493,#494,#495,#496,#497,#498,#499,#500,#501,#502,#503,#504,#505,#506,#507,#508,#509,#510,#511,#512,#513,#514,#515,#516,#517,#518,#519,#520,#521,#522,#523),.UNSPECIFIED.,.F.,.F.,(4,1,1,1,1,1,1,1,1,1,1,1,1,1,1,1,1,1,1,1,1,1,1,1,1,1,1,1,4),(0.0,0.00810455463171721,0.0162091092634344,0.0243136638951516,0.0324182185268688,0.0486273277903033,0.0648364370537377,0.0972546555806065,0.129672874107475,0.162091092634344,0.194509311161213,0.259345748214951,0.324182185268688,0.389018622322426,0.453855059376164,0.518691496429901,0.583527933483639,0.648364370537377,0.713200807591114,0.778037244644852,0.84287368169859,0.875291900225458,0.907710118752327,0.940128337279196,0.972546555806065,0.9887556650695,1.00496477433293,1.02117388359637,1.0373829928598),.UNSPECIFIED.);
#448=CARTESIAN_POINT('',(0.882712066173553,-3.94574817619286E-06,-0.48870000243187));
#449=CARTESIAN_POINT('',(0.882711589336395,0.0400194339454174,-0.488694548606873));
#450=CARTESIAN_POINT('',(0.882711827754974,0.0200077440986206,-0.488697275519371));
#451=VECTOR('',#524,1.0);
#452=CARTESIAN_POINT('',(0.882710754871368,0.0600311942398548,-0.488692373037338));
#453=CARTESIAN_POINT('',(0.882711172103882,0.0500253140926361,-0.488693460822105));
#454=VECTOR('',#525,1.0);
#455=CARTESIAN_POINT('',(0.882708549499512,0.0900488644838333,-0.488689810037613));
#456=CARTESIAN_POINT('',(0.88270965218544,0.0750400293618441,-0.488691091537476));
#457=VECTOR('',#526,1.0);
#458=CARTESIAN_POINT('',(0.877844214439392,0.100055232644081,-0.49272695183754));
#459=CARTESIAN_POINT('',(0.880276381969452,0.0950520485639572,-0.490708380937576));
#460=VECTOR('',#527,1.0);
#461=CARTESIAN_POINT('',(0.00023180506832432,0.100035391747952,0.00408986350521445));
#462=CARTESIAN_POINT('',(0.877844214439392,0.100055232644081,-0.49272695183754));
#463=CARTESIAN_POINT('',(0.850677023421028,0.100046619807773,-0.459166284074699));
#464=CARTESIAN_POINT('',(0.793532927155756,0.10004874311699,-0.394310492464416));
#465=CARTESIAN_POINT('',(0.699246527315668,0.100038640646609,-0.305285071873985));
#466=CARTESIAN_POINT('',(0.597358415925649,0.100047757422173,-0.225089715647224));
#467=CARTESIAN_POINT('',(0.506778905013165,0.100054944428701,-0.166163244620225));
#468=CARTESIAN_POINT('',(0.43125140314364,0.100062817914172,-0.124241472687951));
#469=CARTESIAN_POINT('',(0.373128789302467,0.10006865905147,-0.0956190209259458));
#470=CARTESIAN_POINT('',(0.313629864871122,0.100082876020495,-0.0699766000635011));
#471=CARTESIAN_POINT('',(0.252864952102067,0.100086913342956,-0.0474938072328902));
#472=CARTESIAN_POINT('',(0.201285568301113,0.100066160630333,-0.0315282666897003));
#473=CARTESIAN_POINT('',(0.159535234630669,0.100070306089801,-0.0204989769140495));
#474=CARTESIAN_POINT('',(0.128000745434985,0.10009284618916,-0.0131128024400667));
#475=CARTESIAN_POINT('',(0.0962682926882266,0.100143087941801,-0.00664636418573985));
#476=CARTESIAN_POINT('',(0.0696778375204087,0.100175878922712,-0.00198101682471146));
#477=CARTESIAN_POINT('',(0.0483359990612888,0.100174352779324,0.00119271035225201));
#478=CARTESIAN_POINT('',(0.0349598530459042,0.100162365557337,0.00319447848882322));
#479=CARTESIAN_POINT('',(0.0242636680210942,0.10013246332013,0.00423927294781453));
#480=CARTESIAN_POINT('',(0.0161983966579378,0.100113012059161,0.00568247968997898));
#481=CARTESIAN_POINT('',(0.00818414211560598,0.10008777977109,0.00630355696154027));
#482=CARTESIAN_POINT('',(0.0028392730955175,0.100052256032472,0.00478523391000493));
#483=CARTESIAN_POINT('',(0.00023180506832432,0.100035391747952,0.00408986350521445));
#484=CARTESIAN_POINT('',(-2.57505743995424E-34,0.0900195613503456,-9.99607564749397E-35));
#485=CARTESIAN_POINT('',(0.00011590253416216,0.0950274765491486,0.00204493175260723));
#486=VECTOR('',#528,1.0);
#487=CARTESIAN_POINT('',(-7.1459683710704E-34,0.00999244768172503,-5.15492017224494E-34));
#488=CARTESIAN_POINT('',(-5.63865125046518E-35,0.0500060045160353,-6.45644175197728E-35));
#489=VECTOR('',#529,1.0);
#490=CARTESIAN_POINT('',(0.000177186884684488,-3.29782196786255E-05,0.00415062997490168));
#491=CARTESIAN_POINT('',(8.85934423422441E-05,0.0049797347310232,0.00207531498745084));
#492=VECTOR('',#530,1.0);
#493=CARTESIAN_POINT('',(0.000177186884684488,-3.29782196786255E-05,0.00415062997490168));
#494=CARTESIAN_POINT('',(0.00279087123444479,-4.87752386327115E-05,0.00483371504724957));
#495=CARTESIAN_POINT('',(0.00814514324684979,-8.21025984283543E-05,0.00632487235946716));
#496=CARTESIAN_POINT('',(0.0161694231011377,-0.000104059460498625,0.00569084115416637));
#497=CARTESIAN_POINT('',(0.024241599515466,-0.000121023303334779,0.00425492463683423));
#498=CARTESIAN_POINT('',(0.0349496812651867,-0.000148328462969309,0.00320151256689625));
#499=CARTESIAN_POINT('',(0.04833924619345,-0.000158429782871679,0.00119780662761892));
#500=CARTESIAN_POINT('',(0.0697042382136066,-0.000162354320035896,-0.00197846072620383));
#501=CARTESIAN_POINT('',(0.0963233355694998,-0.000134427431349875,-0.00664557962242387));
#502=CARTESIAN_POINT('',(0.128089768349221,-9.25540601189614E-05,-0.0131180738258987));
#503=CARTESIAN_POINT('',(0.159657728150401,-7.58925335592832E-05,-0.0205122273327236));
#504=CARTESIAN_POINT('',(0.201452040586727,-7.59510042999626E-05,-0.0315547957772491));
#505=CARTESIAN_POINT('',(0.253084870840906,-9.70365875144113E-05,-0.0475417222099664));
#506=CARTESIAN_POINT('',(0.31391186282173,-9.42712206303581E-05,-0.0700555198230453));
#507=CARTESIAN_POINT('',(0.373466486028825,-8.05762869657638E-05,-0.0957428700960267));
#508=CARTESIAN_POINT('',(0.431642390176882,-7.38731239695603E-05,-0.124412511372905));
#509=CARTESIAN_POINT('',(0.488348774458591,-7.00149733735003E-05,-0.155886099566806));
#510=CARTESIAN_POINT('',(0.543507644544529,-6.32375417592015E-05,-0.189996749291656));
#511=CARTESIAN_POINT('',(0.597049888010844,-5.65420151437125E-05,-0.226591347974546));
#512=CARTESIAN_POINT('',(0.648885993248313,-5.10679203929875E-05,-0.265564855591495));
#513=CARTESIAN_POINT('',(0.698912097917048,-4.50473479395728E-05,-0.306836095016879));
#514=CARTESIAN_POINT('',(0.739004791875242,-3.79465808913343E-05,-0.343076282562461));
#515=CARTESIAN_POINT('',(0.770073154683099,-3.19819409578021E-05,-0.373132102208024));
#516=CARTESIAN_POINT('',(0.792863726741909,-2.74124544363307E-05,-0.396189342268404));
#517=CARTESIAN_POINT('',(0.815116289900496,-2.24973973457968E-05,-0.419769970063149));
#518=CARTESIAN_POINT('',(0.833249716153309,-1.77974629008958E-05,-0.439786663838903));
#519=CARTESIAN_POINT('',(0.847397308663907,-1.32959247195947E-05,-0.456149034694726));
#520=CARTESIAN_POINT('',(0.858086252677852,-1.01262257495343E-05,-0.468261519180385));
#521=CARTESIAN_POINT('',(0.867945918286523,-4.06025792959192E-06,-0.481433178790287));
#522=CARTESIAN_POINT('',(0.877836273573702,-2.43087850557385E-06,-0.486372031900135));
#523=CARTESIAN_POINT('',(0.882712066173553,-3.94574817619286E-06,-0.48870000243187));
#524=DIRECTION('',(-1.1913973097395E-05,0.999999991717883,0.000128149490282513));
#525=DIRECTION('',(-4.16987315918681E-05,0.999999993221181,0.000108714550221686));
#526=DIRECTION('',(-7.26748518228885E-05,0.999999993793521,8.44471667453669E-05));
#527=DIRECTION('',(-0.410982681008497,0.845427784646805,-0.341093970715202));
#528=DIRECTION('',(-0.0214214554788009,-0.925577971597032,-0.377950446142736));
#529=DIRECTION('',(-0.0,-1.0,-0.0));
#530=DIRECTION('',(0.0163274134353129,-0.92382274144494,0.382472166254837));
ENDSEC;
END-ISO-10303-21;
