ISO-10303-21;
HEADER;
FILE_DESCRIPTION(('STEP AP214'),'1');
FILE_NAME('SMAStripDeformed_02.stp','2026-05-05T06:30:17',(' '),(' '),'Spatial InterOp 3D',' ',' ');
FILE_SCHEMA(('AUTOMOTIVE_DESIGN { 1 0 10303 214 1 1 1 1 }'));
ENDSEC;
DATA;
#1=PRODUCT_DEFINITION_CONTEXT('',#9,'design');
#2=APPLICATION_PROTOCOL_DEFINITION('INTERNATIONAL STANDARD','automotive_design',1994,#9);
#3=PRODUCT_CATEGORY_RELATIONSHIP('NONE','NONE',#10,#11);
#4=SHAPE_DEFINITION_REPRESENTATION(#12,#13);
#5= (GEOMETRIC_REPRESENTATION_CONTEXT(3)GLOBAL_UNCERTAINTY_ASSIGNED_CONTEXT((#16))GLOBAL_UNIT_ASSIGNED_CONTEXT((#18,#19,#20))REPRESENTATION_CONTEXT('NONE','WORKSPACE'));
#9=APPLICATION_CONTEXT(' ');
#10=PRODUCT_CATEGORY('part','NONE');
#11=PRODUCT_RELATED_PRODUCT_CATEGORY('detail',' ',(#22));
#12=PRODUCT_DEFINITION_SHAPE('NONE','NONE',#23);
#13=MANIFOLD_SURFACE_SHAPE_REPRESENTATION('1',(#24,#25),#5);
#16=UNCERTAINTY_MEASURE_WITH_UNIT(LENGTH_MEASURE(1.0E-06),#18,'','');
#18= (CONVERSION_BASED_UNIT('MILLIMETRE',#28)LENGTH_UNIT()NAMED_UNIT(#31));
#19= (NAMED_UNIT(#33)PLANE_ANGLE_UNIT()SI_UNIT($,.RADIAN.));
#20= (NAMED_UNIT(#33)SOLID_ANGLE_UNIT()SI_UNIT($,.STERADIAN.));
#22=PRODUCT('1','','PART--DESC',(#39));
#23=PRODUCT_DEFINITION('','NONE',#40,#1);
#24=SHELL_BASED_SURFACE_MODEL('1',(#41));
#25=AXIS2_PLACEMENT_3D('',#42,#43,#44);
#28=LENGTH_MEASURE_WITH_UNIT(LENGTH_MEASURE(1.0),#45);
#31=DIMENSIONAL_EXPONENTS(1.0,0.0,0.0,0.0,0.0,0.0,0.0);
#33=DIMENSIONAL_EXPONENTS(0.0,0.0,0.0,0.0,0.0,0.0,0.0);
#39=PRODUCT_CONTEXT('',#9,'mechanical');
#40=PRODUCT_DEFINITION_FORMATION_WITH_SPECIFIED_SOURCE(' ','NONE',#22,.NOT_KNOWN.);
#41=CLOSED_SHELL('',(#46));
#42=CARTESIAN_POINT('',(0.0,0.0,0.0));
#43=DIRECTION('',(0.0,0.0,1.0));
#44=DIRECTION('',(1.0,0.0,0.0));
#45= (NAMED_UNIT(#31)LENGTH_UNIT()SI_UNIT(.MILLI.,.METRE.));
#46=FACE_SURFACE('',(#48),#49,.T.);
#48=FACE_BOUND('',#50,.T.);
#49=B_SPLINE_SURFACE_WITH_KNOTS('',3,3,((#51,#52,#53,#54,#55,#56,#57,#58,#59,#60,#61,#62,#63,#64,#65,#66,#67,#68,#69),(#70,#71,#72,#73,#74,#75,#76,#77,#78,#79,#80,#81,#82,#83,#84,#85,#86,#87,#88),(#89,#90,#91,#92,#93,#94,#95,#96,#97,#98,#99,#100,#101,#102,#103,#104,#105,#106,#107),(#108,#109,#110,#111,#112,#113,#114,#115,#116,#117,#118,#119,#120,#121,#122,#123,#124,#125,#126),(#127,#128,#129,#130,#131,#132,#133,#134,#135,#136,#137,#138,#139,#140,#141,#142,#143,#144,#145),(#146,#147,#148,#149,#150,#151,#152,#153,#154,#155,#156,#157,#158,#159,#160,#161,#162,#163,#164),(#165,#166,#167,#168,#169,#170,#171,#172,#173,#174,#175,#176,#177,#178,#179,#180,#181,#182,#183),(#184,#185,#186,#187,#188,#189,#190,#191,#192,#193,#194,#195,#196,#197,#198,#199,#200,#201,#202),(#203,#204,#205,#206,#207,#208,#209,#210,#211,#212,#213,#214,#215,#216,#217,#218,#219,#220,#221),(#222,#223,#224,#225,#226,#227,#228,#229,#230,#231,#232,#233,#234,#235,#236,#237,#238,#239,#240),(#241,#242,#243,#244,#245,#246,#247,#248,#249,#250,#251,#252,#253,#254,#255,#256,#257,#258,#259),(#260,#261,#262,#263,#264,#265,#266,#267,#268,#269,#270,#271,#272,#273,#274,#275,#276,#277,#278),(#279,#280,#281,#282,#283,#284,#285,#286,#287,#288,#289,#290,#291,#292,#293,#294,#295,#296,#297),(#298,#299,#300,#301,#302,#303,#304,#305,#306,#307,#308,#309,#310,#311,#312,#313,#314,#315,#316),(#317,#318,#319,#320,#321,#322,#323,#324,#325,#326,#327,#328,#329,#330,#331,#332,#333,#334,#335),(#336,#337,#338,#339,#340,#341,#342,#343,#344,#345,#346,#347,#348,#349,#350,#351,#352,#353,#354),(#355,#356,#357,#358,#359,#360,#361,#362,#363,#364,#365,#366,#367,#368,#369,#370,#371,#372,#373),(#374,#375,#376,#377,#378,#379,#380,#381,#382,#383,#384,#385,#386,#387,#388,#389,#390,#391,#392),(#393,#394,#395,#396,#397,#398,#399,#400,#401,#402,#403,#404,#405,#406,#407,#408,#409,#410,#411)),.UNSPECIFIED.,.F.,.F.,.F.,(4,1,1,1,1,1,1,1,1,1,1,1,1,1,1,1,4),(4,1,1,1,1,1,1,1,1,1,1,1,1,1,1,1,4),(0.0,1.0,2.0,3.0,4.0,5.0,6.0,7.0,8.0,9.0,10.0,11.0,12.0,13.0,14.0,15.0,16.0),(0.0,1.0,2.0,3.0,4.0,5.0,6.0,7.0,8.0,9.0,10.0,11.0,12.0,13.0,14.0,15.0,16.0),.UNSPECIFIED.);
#50=EDGE_LOOP('',(#412,#413,#414,#415,#416));
#51=CARTESIAN_POINT('',(-0.0131682993215881,0.00395400466589985,0.00772466021754159));
#52=CARTESIAN_POINT('',(-0.0133496732868089,0.00841063004893892,0.00488952531028958));
#53=CARTESIAN_POINT('',(-0.0115009356326811,0.0201184691457404,0.0047102789322965));
#54=CARTESIAN_POINT('',(-0.00867834168693926,0.0377427636229253,0.00456428460788316));
#55=CARTESIAN_POINT('',(-0.00588871788648954,0.0553253947115091,0.00433642683305127));
#56=CARTESIAN_POINT('',(-0.00349026169800504,0.0724137189633754,0.00313731672906453));
#57=CARTESIAN_POINT('',(-0.000707924539628646,0.0899871421398434,0.00289136653587035));
#58=CARTESIAN_POINT('',(0.00176702123283801,0.107172123996132,0.00188217677376851));
#59=CARTESIAN_POINT('',(0.00637310295734245,0.127050158750574,0.00616450577203445));
#60=CARTESIAN_POINT('',(0.0090131867375044,0.14444382057859,0.0055653465689563));
#61=CARTESIAN_POINT('',(0.010580824274842,0.160482264097051,0.00230334954552958));
#62=CARTESIAN_POINT('',(0.0115092842109197,0.175712997957261,-0.00254569792629294));
#63=CARTESIAN_POINT('',(0.0120815831333597,0.190493661774276,-0.00827907785169411));
#64=CARTESIAN_POINT('',(0.0124086624913577,0.204964448946362,-0.0146213273916376));
#65=CARTESIAN_POINT('',(0.0126014637341091,0.219265552871785,-0.021296983707087));
#66=CARTESIAN_POINT('',(0.0126874723914258,0.233431706194253,-0.028237801411586));
#67=CARTESIAN_POINT('',(0.0126941739931196,0.247497641557475,-0.0353755351186785));
#68=CARTESIAN_POINT('',(0.0126641747719011,0.256831376936406,-0.0402196042228725));
#69=CARTESIAN_POINT('',(0.0126451595260552,0.261493170187471,-0.0426516094242702));
#70=CARTESIAN_POINT('',(0.00624873407838589,0.000975950748430925,0.00187314939706151));
#71=CARTESIAN_POINT('',(0.00612838447539243,0.00550969079672493,-0.000810464647686943));
#72=CARTESIAN_POINT('',(0.00823326897726578,0.0175412150202376,-0.000353709437438676));
#73=CARTESIAN_POINT('',(0.0112579316941304,0.0354208577726831,2.02429179871344E-06));
#74=CARTESIAN_POINT('',(0.0141383042765183,0.0531181653885757,-5.08166904361618E-07));
#75=CARTESIAN_POINT('',(0.0166351876957944,0.070330869194401,-0.000955227697044092));
#76=CARTESIAN_POINT('',(0.0194965419427219,0.0880041439073808,-0.00100498186339235));
#77=CARTESIAN_POINT('',(0.0220437838028659,0.105280484171967,-0.00183466355428002));
#78=CARTESIAN_POINT('',(0.0264507606447419,0.124906916028581,0.00195329659778359));
#79=CARTESIAN_POINT('',(0.0289724319077703,0.142150943492755,0.00106012421582985));
#80=CARTESIAN_POINT('',(0.0304356878747191,0.158057483136017,-0.00246104775015307));
#81=CARTESIAN_POINT('',(0.0312620644181,0.173159217259587,-0.00756356388832731));
#82=CARTESIAN_POINT('',(0.0317422442764418,0.187823472964625,-0.0135256714814294));
#83=CARTESIAN_POINT('',(0.0319897477993365,0.202193702528857,-0.0200655043918368));
#84=CARTESIAN_POINT('',(0.0321180953363762,0.216413358230014,-0.0269011964819269));
#85=CARTESIAN_POINT('',(0.0321525808171799,0.230514403252048,-0.0339699440141085));
#86=CARTESIAN_POINT('',(0.0321184981713667,0.244528800778914,-0.0412089432507905));
#87=CARTESIAN_POINT('',(0.0320670474486603,0.253835428535642,-0.0461062755090561));
#88=CARTESIAN_POINT('',(0.0320383856289946,0.258485031699276,-0.0485622327376776));
#89=CARTESIAN_POINT('',(0.0481815572239945,-0.00106435117587306,-0.00213579373089171));
#90=CARTESIAN_POINT('',(0.0483735751479628,0.00386411839353343,-0.00404381266287074));
#91=CARTESIAN_POINT('',(0.0505831546132291,0.016027942517631,-0.00332710436873764));
#92=CARTESIAN_POINT('',(0.053875267214548,0.0342455537069338,-0.0023073040980415));
#93=CARTESIAN_POINT('',(0.0567294742686471,0.0519097967256464,-0.00237480443628477));
#94=CARTESIAN_POINT('',(0.0595228891010477,0.0694972184281621,-0.00259324924209869));
#95=CARTESIAN_POINT('',(0.0623043290544383,0.0870695078334669,-0.00284142715662142));
#96=CARTESIAN_POINT('',(0.0650258338569705,0.104566058977416,-0.00323842146874145));
#97=CARTESIAN_POINT('',(0.0674389868202342,0.121672955104941,-0.00440104011408302));
#98=CARTESIAN_POINT('',(0.0693315203805025,0.138121960030953,-0.00685633430897255));
#99=CARTESIAN_POINT('',(0.070422686834801,0.15355830126221,-0.0113013885053888));
#100=CARTESIAN_POINT('',(0.0709478514292598,0.168279402835695,-0.0171518009366381));
#101=CARTESIAN_POINT('',(0.0711819207610602,0.182632656013589,-0.0237249903647928));
#102=CARTESIAN_POINT('',(0.0712313009411135,0.196752523022528,-0.0307567550003957));
#103=CARTESIAN_POINT('',(0.0712023980803311,0.210773466089145,-0.0379828930539895));
#104=CARTESIAN_POINT('',(0.0711140765174832,0.224719323515332,-0.0453565651850763));
#105=CARTESIAN_POINT('',(0.0709852005913401,0.238613933602982,-0.0528309320531584));
#106=CARTESIAN_POINT('',(0.0708850628364253,0.247859037010188,-0.0578491521149784));
#107=CARTESIAN_POINT('',(0.0708346427841074,0.2524811449446,-0.0603591340979384));
#108=CARTESIAN_POINT('',(0.112307936712044,-0.00257409784146861,-0.0051022608247529));
#109=CARTESIAN_POINT('',(0.112823732088802,0.00276351963178644,-0.00620635428966673));
#110=CARTESIAN_POINT('',(0.11474097466707,0.0145579263566729,-0.00621550589218542));
#111=CARTESIAN_POINT('',(0.117889688832515,0.0325943292223333,-0.00555175776021484));
#112=CARTESIAN_POINT('',(0.120646250612284,0.0501351808221294,-0.00586170710809775));
#113=CARTESIAN_POINT('',(0.123354316295783,0.0676147493524512,-0.0062920701738243));
#114=CARTESIAN_POINT('',(0.126065258718764,0.0850979531325985,-0.00671529041934722));
#115=CARTESIAN_POINT('',(0.128630059167869,0.102396481662013,-0.00750137489026162));
#116=CARTESIAN_POINT('',(0.129730751882747,0.117844860944451,-0.0119227757920459));
#117=CARTESIAN_POINT('',(0.130583000779203,0.132979289188433,-0.0169610519921057));
#118=CARTESIAN_POINT('',(0.13091494267721,0.147456221007205,-0.023291228054683));
#119=CARTESIAN_POINT('',(0.130823217991238,0.161397778008267,-0.0306733499938831));
#120=CARTESIAN_POINT('',(0.130582963434484,0.175151642244545,-0.0384242652036205));
#121=CARTESIAN_POINT('',(0.130266565343595,0.188809286169263,-0.0463642415283826));
#122=CARTESIAN_POINT('',(0.129946410055215,0.202462182235647,-0.0543135468126567));
#123=CARTESIAN_POINT('',(0.129629627238238,0.216119339993491,-0.0622544783957193));
#124=CARTESIAN_POINT('',(0.129323346561561,0.229789768992592,-0.070169333616847));
#125=CARTESIAN_POINT('',(0.129132554578669,0.238920315357508,-0.0754126442213844));
#126=CARTESIAN_POINT('',(0.129042105797952,0.243491840182514,-0.078022015812535));
#127=CARTESIAN_POINT('',(0.174608591294457,-0.00639095858097164,-0.0126019242077617));
#128=CARTESIAN_POINT('',(0.175189064556122,-0.000971609594891593,-0.0135454252707502));
#129=CARTESIAN_POINT('',(0.176869262493045,0.0105232508914,-0.0141431485059349));
#130=CARTESIAN_POINT('',(0.179925290036784,0.0284425284394737,-0.0137095372627528));
#131=CARTESIAN_POINT('',(0.182648407849703,0.0459411178965066,-0.014102526539572));
#132=CARTESIAN_POINT('',(0.185291803769218,0.0633389651761722,-0.0146934618433205));
#133=CARTESIAN_POINT('',(0.187987327439008,0.0808026847380889,-0.0151549661887841));
#134=CARTESIAN_POINT('',(0.190632990870166,0.0982033974045427,-0.0157402713588074));
#135=CARTESIAN_POINT('',(0.191722004652798,0.113637018368861,-0.0201906705462361));
#136=CARTESIAN_POINT('',(0.191941545625786,0.127971912493329,-0.0267999332634449));
#137=CARTESIAN_POINT('',(0.191598898043209,0.141596385718827,-0.0348050859452477));
#138=CARTESIAN_POINT('',(0.190851276853295,0.154709105883298,-0.0438157706479598));
#139=CARTESIAN_POINT('',(0.190111999405539,0.167832369785715,-0.0528057381983352));
#140=CARTESIAN_POINT('',(0.189409551548251,0.181002174142415,-0.0617042594621854));
#141=CARTESIAN_POINT('',(0.188772419129738,0.194254515669734,-0.070440605305322));
#142=CARTESIAN_POINT('',(0.188197955753207,0.207586050195028,-0.0790213466169758));
#143=CARTESIAN_POINT('',(0.187683515021865,0.220993433545653,-0.087453054286378));
#144=CARTESIAN_POINT('',(0.187384173539365,0.229986809147609,-0.0929658886221704));
#145=CARTESIAN_POINT('',(0.187246308526447,0.234498415495134,-0.095692992675204));
#146=CARTESIAN_POINT('',(0.235806116934043,-0.0116018104422874,-0.0228406092334254));
#147=CARTESIAN_POINT('',(0.236321847016764,-0.00626427547915856,-0.023944864820621));
#148=CARTESIAN_POINT('',(0.237739610171163,0.00489895400490747,-0.0251942023152207));
#149=CARTESIAN_POINT('',(0.240705652985345,0.0227045205358634,-0.0249840192790194));
#150=CARTESIAN_POINT('',(0.243409131695062,0.0401782926443163,-0.0254257716030421));
#151=CARTESIAN_POINT('',(0.246026082772867,0.0575427223667665,-0.026082368309525));
#152=CARTESIAN_POINT('',(0.24868629399459,0.0749618186419729,-0.0266315519422907));
#153=CARTESIAN_POINT('',(0.251393849149597,0.0924407420326768,-0.0270631826282683));
#154=CARTESIAN_POINT('',(0.25303031076694,0.108566156486963,-0.0301542924259588));
#155=CARTESIAN_POINT('',(0.253053456233146,0.122652871470997,-0.0372511967258617));
#156=CARTESIAN_POINT('',(0.252215525485533,0.135651470142723,-0.0464861161698376));
#157=CARTESIAN_POINT('',(0.250894404020667,0.148039475126039,-0.0569207773490738));
#158=CARTESIAN_POINT('',(0.249689565651218,0.160574423586526,-0.0670667126118245));
#159=CARTESIAN_POINT('',(0.248605407878955,0.173261872515927,-0.0769130031506364));
#160=CARTESIAN_POINT('',(0.247646339188673,0.186107392784903,-0.0864487028876807));
#161=CARTESIAN_POINT('',(0.246798901347391,0.199093977626102,-0.0957072280356723));
#162=CARTESIAN_POINT('',(0.24604963612213,0.212204620272173,-0.104721994807326));
#163=CARTESIAN_POINT('',(0.245623578276398,0.221037868187803,-0.110549460414129));
#164=CARTESIAN_POINT('',(0.245430913403084,0.225480225587265,-0.113412630159769));
#165=CARTESIAN_POINT('',(0.296051110671549,-0.0180163484396421,-0.0354443899372358));
#166=CARTESIAN_POINT('',(0.296450226521869,-0.0128261754016084,-0.0368381936397838));
#167=CARTESIAN_POINT('',(0.297430705123429,-0.00221552935606747,-0.0391732898410276));
#168=CARTESIAN_POINT('',(0.300224227722361,0.0153720285277976,-0.0393914670671867));
#169=CARTESIAN_POINT('',(0.30297562488664,0.0329063537571387,-0.0397142399328415));
#170=CARTESIAN_POINT('',(0.30559507189327,0.0502739375103543,-0.0403646393555736));
#171=CARTESIAN_POINT('',(0.308212777265838,0.0676393204125842,-0.041019363180655));
#172=CARTESIAN_POINT('',(0.31088294320039,0.0850709961612911,-0.0415438296903114));
#173=CARTESIAN_POINT('',(0.313212269893739,0.102071963533346,-0.0429145853526468));
#174=CARTESIAN_POINT('',(0.313592737684768,0.11661021607486,-0.0491242737133274));
#175=CARTESIAN_POINT('',(0.312507675300487,0.129296521873051,-0.0589728103648106));
#176=CARTESIAN_POINT('',(0.310814975498594,0.14121497440174,-0.0703300845474305));
#177=CARTESIAN_POINT('',(0.309236199148514,0.153277388596404,-0.0814044917069762));
#178=CARTESIAN_POINT('',(0.307799282659581,0.165519066863745,-0.092126666942568));
#179=CARTESIAN_POINT('',(0.306534084116791,0.177977739974651,-0.102422473915428));
#180=CARTESIAN_POINT('',(0.305412303305792,0.190617645792873,-0.112362180838635));
#181=CARTESIAN_POINT('',(0.30440564001223,0.20340302218216,-0.122016055925267));
#182=CARTESIAN_POINT('',(0.303834427347651,0.212052842285405,-0.128203934694051));
#183=CARTESIAN_POINT('',(0.303579582861353,0.216416625163711,-0.131221493740055));
#184=CARTESIAN_POINT('',(0.355670111768445,-0.0252219346539844,-0.0496024834001511));
#185=CARTESIAN_POINT('',(0.355972282252086,-0.0201542685824577,-0.0512369982717933));
#186=CARTESIAN_POINT('',(0.356592889477161,-0.0099983812549039,-0.0544656395977243));
#187=CARTESIAN_POINT('',(0.358648165937201,0.00665627701643607,-0.0565168501833841));
#188=CARTESIAN_POINT('',(0.361524891183001,0.0243489756019392,-0.0565284388217077));
#189=CARTESIAN_POINT('',(0.364165601847903,0.0417434296054915,-0.0571260414969827));
#190=CARTESIAN_POINT('',(0.366744245469086,0.0590594513383071,-0.0578777539679865));
#191=CARTESIAN_POINT('',(0.369330580638841,0.0763851926514966,-0.0586103686552348));
#192=CARTESIAN_POINT('',(0.372042007480348,0.093869008576878,-0.0590323861104254));
#193=CARTESIAN_POINT('',(0.373370313517494,0.109605016021472,-0.062888632938516));
#194=CARTESIAN_POINT('',(0.372338487483056,0.122358595006104,-0.0726049860267423));
#195=CARTESIAN_POINT('',(0.370560570774789,0.134169361473535,-0.084173850116774));
#196=CARTESIAN_POINT('',(0.3686932013795,0.14586708925012,-0.0959648213750952));
#197=CARTESIAN_POINT('',(0.366882640055054,0.157636603690374,-0.107614740640784));
#198=CARTESIAN_POINT('',(0.365307777577818,0.169703963729338,-0.118679429822669));
#199=CARTESIAN_POINT('',(0.363916385324635,0.182003169614713,-0.129288570342057));
#200=CARTESIAN_POINT('',(0.362656234672353,0.194468221594197,-0.13957184362025));
#201=CARTESIAN_POINT('',(0.361942454607721,0.202937883528965,-0.146113711101616));
#202=CARTESIAN_POINT('',(0.361626851160367,0.207224887121554,-0.14928213203045));
#203=CARTESIAN_POINT('',(0.414858582932116,-0.032971568695638,-0.0648295641401928));
#204=CARTESIAN_POINT('',(0.415101894705375,-0.0279782806197645,-0.0666102226541034));
#205=CARTESIAN_POINT('',(0.415578894461249,-0.0180038657650295,-0.0701954351395051));
#206=CARTESIAN_POINT('',(0.416350109716959,-0.00297183731438255,-0.0754349143786381));
#207=CARTESIAN_POINT('',(0.419010217289608,0.014447127982583,-0.0759843553675882));
#208=CARTESIAN_POINT('',(0.421736369315361,0.0319495516838179,-0.0763698108246522));
#209=CARTESIAN_POINT('',(0.4243219847892,0.0492743835387575,-0.0771042124858563));
#210=CARTESIAN_POINT('',(0.426852050728569,0.0665290191048822,-0.077976541248094));
#211=CARTESIAN_POINT('',(0.429541176454149,0.0839846537756496,-0.0784539314134095));
#212=CARTESIAN_POINT('',(0.431929049788404,0.101059604790475,-0.0796793182885418));
#213=CARTESIAN_POINT('',(0.431707249838385,0.1148367895625,-0.0873844115047743));
#214=CARTESIAN_POINT('',(0.430092672684253,0.126853963349569,-0.0985477105184982));
#215=CARTESIAN_POINT('',(0.428001878717281,0.138269356163096,-0.110893435363262));
#216=CARTESIAN_POINT('',(0.425746944230303,0.149477329500318,-0.123646714048087));
#217=CARTESIAN_POINT('',(0.423839543235478,0.161124470539325,-0.135537082043508));
#218=CARTESIAN_POINT('',(0.422189371100148,0.173096664010998,-0.146788761862128));
#219=CARTESIAN_POINT('',(0.420706128082686,0.185279800826868,-0.157625963872326));
#220=CARTESIAN_POINT('',(0.419873393911205,0.193599144007034,-0.1644631892765));
#221=CARTESIAN_POINT('',(0.419507252559233,0.197822284357878,-0.167757093645344));
#222=CARTESIAN_POINT('',(0.473590588603224,-0.0412980245568864,-0.0811900290339092));
#223=CARTESIAN_POINT('',(0.473761144156091,-0.0363966763452884,-0.0831513381087402));
#224=CARTESIAN_POINT('',(0.474072576713566,-0.026631483817764,-0.0871476468151933));
#225=CARTESIAN_POINT('',(0.474198265257708,-0.0124151882065731,-0.0939899410700981));
#226=CARTESIAN_POINT('',(0.475443475515594,0.00321581358178968,-0.0980525111383582));
#227=CARTESIAN_POINT('',(0.478277663468681,0.0208547590600302,-0.0981697180419981));
#228=CARTESIAN_POINT('',(0.480934572939276,0.038269683010878,-0.0987270997805764));
#229=CARTESIAN_POINT('',(0.483457215730744,0.0555149381665456,-0.0996178598992674));
#230=CARTESIAN_POINT('',(0.486046659962334,0.0728446083083852,-0.100342754919916));
#231=CARTESIAN_POINT('',(0.488765244396444,0.0903374690699179,-0.100747000381021));
#232=CARTESIAN_POINT('',(0.490284742006721,0.106315079599305,-0.104128526769488));
#233=CARTESIAN_POINT('',(0.489126930103283,0.11890945400137,-0.114157697343015));
#234=CARTESIAN_POINT('',(0.486943642228181,0.130207965023704,-0.126733080577062));
#235=CARTESIAN_POINT('',(0.484420230997098,0.141076672312174,-0.140152975451622));
#236=CARTESIAN_POINT('',(0.482169842422308,0.152290390182954,-0.152894966832321));
#237=CARTESIAN_POINT('',(0.480192324202887,0.16384892617791,-0.164959432875792));
#238=CARTESIAN_POINT('',(0.478493071192005,0.175759097611982,-0.176332978394021));
#239=CARTESIAN_POINT('',(0.477569957475,0.183964230857877,-0.183394612316213));
#240=CARTESIAN_POINT('',(0.477166883893533,0.188140701052561,-0.186780217819868));
#241=CARTESIAN_POINT('',(0.531938724382382,-0.0501095653438699,-0.0985036263323616));
#242=CARTESIAN_POINT('',(0.53204145147694,-0.0452939299306761,-0.100633350547152));
#243=CARTESIAN_POINT('',(0.532182791451476,-0.0357436783237436,-0.105051991809516));
#244=CARTESIAN_POINT('',(0.532258699860597,-0.0215902883834757,-0.112017887995171));
#245=CARTESIAN_POINT('',(0.531925679087873,-0.00795365004568195,-0.119999137722828));
#246=CARTESIAN_POINT('',(0.533625308968358,0.0082515882574607,-0.122933403444401));
#247=CARTESIAN_POINT('',(0.536486299460881,0.0259244033048554,-0.122984060797266));
#248=CARTESIAN_POINT('',(0.539084940319341,0.0432656949495938,-0.123686120989585));
#249=CARTESIAN_POINT('',(0.541611877608994,0.0605163769344478,-0.124566218054287));
#250=CARTESIAN_POINT('',(0.544189072901609,0.0778305684576769,-0.125321526662734));
#251=CARTESIAN_POINT('',(0.546821414757736,0.0952144470473509,-0.12593990872967));
#252=CARTESIAN_POINT('',(0.547524213007094,0.110160018968998,-0.131349264448197));
#253=CARTESIAN_POINT('',(0.545426883922259,0.121567153549124,-0.143711215709083));
#254=CARTESIAN_POINT('',(0.542933512127897,0.132473820777242,-0.157056523956352));
#255=CARTESIAN_POINT('',(0.540339136470839,0.143252852438565,-0.170652620443486));
#256=CARTESIAN_POINT('',(0.537886308203407,0.154210753311631,-0.183897260859988));
#257=CARTESIAN_POINT('',(0.535954814949083,0.165827449681349,-0.195847448897862));
#258=CARTESIAN_POINT('',(0.534974857516001,0.173960751219757,-0.203050223318266));
#259=CARTESIAN_POINT('',(0.534551841998844,0.178112021385483,-0.20648534378915));
#260=CARTESIAN_POINT('',(0.589974587721179,-0.0593157154938676,-0.116592582647652));
#261=CARTESIAN_POINT('',(0.590025357925573,-0.0545657364521039,-0.118851313582436));
#262=CARTESIAN_POINT('',(0.590046181062219,-0.045167778376349,-0.12356919296146));
#263=CARTESIAN_POINT('',(0.589879628725635,-0.03132077884411,-0.131137108733582));
#264=CARTESIAN_POINT('',(0.589231528924677,-0.0180822964706617,-0.13990068611486));
#265=CARTESIAN_POINT('',(0.588717266735908,-0.00467468750111644,-0.148331950470746));
#266=CARTESIAN_POINT('',(0.590941190740299,0.0121930856386811,-0.149964416469053));
#267=CARTESIAN_POINT('',(0.593738333439067,0.0297852181346659,-0.150173605143272));
#268=CARTESIAN_POINT('',(0.596291696242274,0.0470692932523184,-0.150988088796223));
#269=CARTESIAN_POINT('',(0.598780713035381,0.0642720562374356,-0.15196234082025));
#270=CARTESIAN_POINT('',(0.601428219743341,0.0816750981977715,-0.152543069213381));
#271=CARTESIAN_POINT('',(0.603956605927708,0.0989276111076309,-0.153419568734929));
#272=CARTESIAN_POINT('',(0.60357853004981,0.1125073146537,-0.161512688347777));
#273=CARTESIAN_POINT('',(0.601015133948435,0.123325494254944,-0.175031863932739));
#274=CARTESIAN_POINT('',(0.59825977653059,0.133901098069712,-0.189027671196873));
#275=CARTESIAN_POINT('',(0.595457606886096,0.14441754667079,-0.203139711203124));
#276=CARTESIAN_POINT('',(0.593269517622074,0.155709990321245,-0.215727016079015));
#277=CARTESIAN_POINT('',(0.592188421869358,0.163715486383636,-0.223180912590071));
#278=CARTESIAN_POINT('',(0.591734659275838,0.167827902386619,-0.22669237672699));
#279=CARTESIAN_POINT('',(0.647754304500759,-0.0688455504059718,-0.135317539834781));
#280=CARTESIAN_POINT('',(0.647766640789496,-0.0641441391563516,-0.137671700526423));
#281=CARTESIAN_POINT('',(0.647719633534812,-0.0548318963217009,-0.142557999845012));
#282=CARTESIAN_POINT('',(0.647339601249077,-0.0412546650298259,-0.150655977134239));
#283=CARTESIAN_POINT('',(0.646518647264254,-0.0282346133296388,-0.159848744007558));
#284=CARTESIAN_POINT('',(0.645324607835865,-0.0156860185696314,-0.16996786596487));
#285=CARTESIAN_POINT('',(0.644884275099221,-0.00218498715788423,-0.178215566675983));
#286=CARTESIAN_POINT('',(0.647185312334929,0.0147802316708585,-0.179656563842941));
#287=CARTESIAN_POINT('',(0.649950970223071,0.0323325777513302,-0.179943927945589));
#288=CARTESIAN_POINT('',(0.652505767277551,0.0496184652895116,-0.180754850414416));
#289=CARTESIAN_POINT('',(0.655052143396107,0.0668937115422911,-0.181586681704371));
#290=CARTESIAN_POINT('',(0.657701711781561,0.0842993587829441,-0.182162291041101));
#291=CARTESIAN_POINT('',(0.659939165510663,0.101184229032058,-0.18376116331581));
#292=CARTESIAN_POINT('',(0.659028607882314,0.114091051282171,-0.193176412175913));
#293=CARTESIAN_POINT('',(0.655968948055474,0.124282117224696,-0.207927789212347));
#294=CARTESIAN_POINT('',(0.65309454620985,0.134707288148999,-0.222219178662267));
#295=CARTESIAN_POINT('',(0.650615337479132,0.145631852817943,-0.235529320632648));
#296=CARTESIAN_POINT('',(0.649310978370218,0.153355217640473,-0.243537570439041));
#297=CARTESIAN_POINT('',(0.648787868125188,0.157380001085945,-0.247221221807189));
#298=CARTESIAN_POINT('',(0.705382395568914,-0.0785669902042856,-0.154418977131399));
#299=CARTESIAN_POINT('',(0.705360732490128,-0.0739085429406818,-0.156857556787919));
#300=CARTESIAN_POINT('',(0.705261651794323,-0.064662103759427,-0.161873152217507));
#301=CARTESIAN_POINT('',(0.704769789524271,-0.051226188681131,-0.170248798540197));
#302=CARTESIAN_POINT('',(0.703758258649545,-0.0384469633088868,-0.179914759621166));
#303=CARTESIAN_POINT('',(0.702516857531698,-0.0259582181023221,-0.190151478613078));
#304=CARTESIAN_POINT('',(0.700727143119605,-0.0141623600411105,-0.201749635893471));
#305=CARTESIAN_POINT('',(0.700028064294266,-0.00098829833928659,-0.210639791996127));
#306=CARTESIAN_POINT('',(0.702515796991628,0.0162128419723618,-0.211617232374571));
#307=CARTESIAN_POINT('',(0.705299062382571,0.033787438128621,-0.21186087780629));
#308=CARTESIAN_POINT('',(0.707867300040436,0.0510903101561601,-0.212638427835929));
#309=CARTESIAN_POINT('',(0.710396509517029,0.0683438634358359,-0.213512883158344));
#310=CARTESIAN_POINT('',(0.713102390798985,0.0858206716031215,-0.213948669998999));
#311=CARTESIAN_POINT('',(0.71534078293488,0.102706727688893,-0.215545212250067));
#312=CARTESIAN_POINT('',(0.713683738211878,0.11467023647664,-0.226813956407806));
#313=CARTESIAN_POINT('',(0.710202214800435,0.124328205997955,-0.242612802551086));
#314=CARTESIAN_POINT('',(0.707562119366804,0.135049462942143,-0.25632241927386));
#315=CARTESIAN_POINT('',(0.706132546145573,0.142614598427993,-0.264641570326959));
#316=CARTESIAN_POINT('',(0.705573501554608,0.14659397271298,-0.268414445128025));
#317=CARTESIAN_POINT('',(0.762963040334284,-0.0883483864793786,-0.173638221553862));
#318=CARTESIAN_POINT('',(0.762902382570585,-0.0837392156352905,-0.176173623333145));
#319=CARTESIAN_POINT('',(0.762728690130908,-0.0745870610879543,-0.18137447650852));
#320=CARTESIAN_POINT('',(0.762171531727696,-0.0612336587843504,-0.189912250316916));
#321=CARTESIAN_POINT('',(0.76117826457392,-0.0484313540930272,-0.199532863365559));
#322=CARTESIAN_POINT('',(0.759790374414499,-0.0361277227162872,-0.210133308337005));
#323=CARTESIAN_POINT('',(0.757931736487334,-0.024418961244028,-0.221902599736123));
#324=CARTESIAN_POINT('',(0.755453391795809,-0.0134933047145427,-0.23521059633441));
#325=CARTESIAN_POINT('',(0.754502479321084,-0.00063747767939263,-0.244726044539594));
#326=CARTESIAN_POINT('',(0.756802899698221,0.0163269616435838,-0.24616857333981));
#327=CARTESIAN_POINT('',(0.759606770294885,0.0339275959833433,-0.246361056933389));
#328=CARTESIAN_POINT('',(0.762188588966844,0.0512476299330655,-0.247104885890094));
#329=CARTESIAN_POINT('',(0.764756006296339,0.0685494653361266,-0.247884472759736));
#330=CARTESIAN_POINT('',(0.767448968501006,0.0860099480510166,-0.24835233711275));
#331=CARTESIAN_POINT('',(0.769483301055248,0.102638140133676,-0.250455550514252));
#332=CARTESIAN_POINT('',(0.767518623333995,0.114212902282939,-0.262488134153934));
#333=CARTESIAN_POINT('',(0.763923649051187,0.123727507324088,-0.27856867392339));
#334=CARTESIAN_POINT('',(0.762528232090472,0.131335805056948,-0.286803016453067));
#335=CARTESIAN_POINT('',(0.761998023519949,0.135351618560347,-0.29050429265762));
#336=CARTESIAN_POINT('',(0.820533331230162,-0.0981428666303338,-0.192883174188233));
#337=CARTESIAN_POINT('',(0.820435725535461,-0.0935803857839296,-0.19551031608849));
#338=CARTESIAN_POINT('',(0.820185474209949,-0.0845249764156997,-0.200901261679267));
#339=CARTESIAN_POINT('',(0.819577739464405,-0.0712354859264325,-0.209564614366862));
#340=CARTESIAN_POINT('',(0.818670409012642,-0.0583245855895846,-0.218971850286528));
#341=CARTESIAN_POINT('',(0.81725665621716,-0.0460536360541563,-0.229636511069161));
#342=CARTESIAN_POINT('',(0.815127214908907,-0.0346870807323645,-0.242078195597413));
#343=CARTESIAN_POINT('',(0.812664251783032,-0.0237419869774355,-0.255348000430823));
#344=CARTESIAN_POINT('',(0.809551730929953,-0.0136177199361146,-0.270230629118175));
#345=CARTESIAN_POINT('',(0.807943769465306,-0.00159218609969013,-0.281377501659908));
#346=CARTESIAN_POINT('',(0.810220071306915,0.0153417753497646,-0.282879915744824));
#347=CARTESIAN_POINT('',(0.812989958365459,0.0328994657066516,-0.283156778999556));
#348=CARTESIAN_POINT('',(0.815559050880209,0.0502034179913232,-0.283932206456376));
#349=CARTESIAN_POINT('',(0.818075503058303,0.0674408502536314,-0.284838337601385));
#350=CARTESIAN_POINT('',(0.820680654278456,0.0847903688481374,-0.285524232846084));
#351=CARTESIAN_POINT('',(0.822799568756868,0.101525444583997,-0.287417432973628));
#352=CARTESIAN_POINT('',(0.820849738849033,0.113118969471938,-0.299413150132232));
#353=CARTESIAN_POINT('',(0.818906386961868,0.120034858191536,-0.309007991479452));
#354=CARTESIAN_POINT('',(0.818271765455065,0.123918728183596,-0.312968520506718));
#355=CARTESIAN_POINT('',(0.878130360689842,-0.107903558056234,-0.212061736120572));
#356=CARTESIAN_POINT('',(0.878004895889353,-0.103376281930351,-0.214758050980342));
#357=CARTESIAN_POINT('',(0.877696729696825,-0.09439405785108,-0.220292796690966));
#358=CARTESIAN_POINT('',(0.877021270626404,-0.0811901485699058,-0.229124305959692));
#359=CARTESIAN_POINT('',(0.876091101767369,-0.0683081084467082,-0.238588248660745));
#360=CARTESIAN_POINT('',(0.874690220164446,-0.0560208939693887,-0.249220950826742));
#361=CARTESIAN_POINT('',(0.872602622862361,-0.0446014616258489,-0.2615587384903));
#362=CARTESIAN_POINT('',(0.870036643989432,-0.0337865457959344,-0.275084326985767));
#363=CARTESIAN_POINT('',(0.867061524005819,-0.0234886493766432,-0.289625795233414));
#364=CARTESIAN_POINT('',(0.863448176595258,-0.0139972619086839,-0.305751954687574));
#365=CARTESIAN_POINT('',(0.860950424189733,-0.00309613032815104,-0.319108139803645));
#366=CARTESIAN_POINT('',(0.862197190643865,0.0125368379789643,-0.323166845903664));
#367=CARTESIAN_POINT('',(0.86484056610479,0.0299346594057187,-0.323757832005213));
#368=CARTESIAN_POINT('',(0.867325742959508,0.0471325699752989,-0.324741618430834));
#369=CARTESIAN_POINT('',(0.869772509047524,0.0642819420053786,-0.325820777135457));
#370=CARTESIAN_POINT('',(0.87235538293469,0.0816033093990625,-0.326561986038265));
#371=CARTESIAN_POINT('',(0.874252953880728,0.0980586799191306,-0.329004772621295));
#372=CARTESIAN_POINT('',(0.873554817261588,0.106548110009083,-0.335507798101419));
#373=CARTESIAN_POINT('',(0.87332792464984,0.110947214837024,-0.338455953847072));
#374=CARTESIAN_POINT('',(0.916560713560547,-0.114369827134584,-0.224767162055996));
#375=CARTESIAN_POINT('',(0.916423557692906,-0.109857324661337,-0.227492505331857));
#376=CARTESIAN_POINT('',(0.916091940646665,-0.100904734726006,-0.233085478501998));
#377=CARTESIAN_POINT('',(0.915382194177456,-0.0877441534073625,-0.242002121904829));
#378=CARTESIAN_POINT('',(0.914419721841423,-0.074902934223939,-0.251546272747645));
#379=CARTESIAN_POINT('',(0.913049318784282,-0.0625772049179555,-0.262103297997467));
#380=CARTESIAN_POINT('',(0.911115780151751,-0.0509630932316321,-0.274058564621315));
#381=CARTESIAN_POINT('',(0.908650882241423,-0.0400204444060713,-0.287333173441171));
#382=CARTESIAN_POINT('',(0.90563880789258,-0.0297692461152063,-0.301966397785704));
#383=CARTESIAN_POINT('',(0.902210757874128,-0.0200437038630993,-0.3176324717978));
#384=CARTESIAN_POINT('',(0.898468652322435,-0.0107150242152605,-0.334078332169538));
#385=CARTESIAN_POINT('',(0.895660382746286,-0.000206283915760788,-0.348205518043306));
#386=CARTESIAN_POINT('',(0.897973890110615,0.0167746930423452,-0.349615552418106));
#387=CARTESIAN_POINT('',(0.900408874379181,0.0339091767388189,-0.350723964872866));
#388=CARTESIAN_POINT('',(0.903162843795843,0.051446752446726,-0.351040350946666));
#389=CARTESIAN_POINT('',(0.905598011439015,0.0685814678682159,-0.352148308090179));
#390=CARTESIAN_POINT('',(0.908469084999971,0.0862670245882576,-0.352173929618499));
#391=CARTESIAN_POINT('',(0.909058575241128,0.09638359031193,-0.355479833074991));
#392=CARTESIAN_POINT('',(0.909366676703451,0.101458751184206,-0.35709962158207));
#393=CARTESIAN_POINT('',(0.93578760018406,-0.117588163858476,-0.231090799130978));
#394=CARTESIAN_POINT('',(0.93564652481366,-0.113080614343886,-0.233825874363338));
#395=CARTESIAN_POINT('',(0.935307654532907,-0.104137190104533,-0.239436857002305));
#396=CARTESIAN_POINT('',(0.934589053436959,-0.0909877981134296,-0.248375486061874));
#397=CARTESIAN_POINT('',(0.933620019611233,-0.0781548704887009,-0.25793592880093));
#398=CARTESIAN_POINT('',(0.932269117908359,-0.0658044979033555,-0.268444533028221));
#399=CARTESIAN_POINT('',(0.930404913180965,-0.0541027710304025,-0.280227646552491));
#400=CARTESIAN_POINT('',(0.92801735930318,-0.043062384859276,-0.293310213471498));
#401=CARTESIAN_POINT('',(0.925071998968841,-0.0327268820593824,-0.30777778979203));
#402=CARTESIAN_POINT('',(0.921775583138507,-0.0228349976124149,-0.323117021785781));
#403=CARTESIAN_POINT('',(0.917951166658104,-0.0136103318285909,-0.339767256647581));
#404=CARTESIAN_POINT('',(0.914406204064267,-0.00403252850870386,-0.355723619547807));
#405=CARTESIAN_POINT('',(0.916417355965885,0.012566370875069,-0.357884389511161));
#406=CARTESIAN_POINT('',(0.918752682170417,0.0295749196503502,-0.359240248645683));
#407=CARTESIAN_POINT('',(0.921472583747257,0.0470694448458402,-0.359641223698132));
#408=CARTESIAN_POINT('',(0.923831794406082,0.0641081756931716,-0.360937778761579));
#409=CARTESIAN_POINT('',(0.926730973208795,0.0818292481684113,-0.36089361618538));
#410=CARTESIAN_POINT('',(0.927618176284956,0.0923220247163442,-0.363460311497913));
#411=CARTESIAN_POINT('',(0.928043935043928,0.0975458656028737,-0.364787962006048));
#412=ORIENTED_EDGE('',*,*,#417,.T.);
#413=ORIENTED_EDGE('',*,*,#418,.T.);
#414=ORIENTED_EDGE('',*,*,#419,.T.);
#415=ORIENTED_EDGE('',*,*,#420,.T.);
#416=ORIENTED_EDGE('',*,*,#421,.T.);
#417=EDGE_CURVE('',#422,#423,#424,.T.);
#418=EDGE_CURVE('',#423,#425,#426,.T.);
#419=EDGE_CURVE('',#425,#427,#428,.T.);
#420=EDGE_CURVE('',#427,#429,#430,.T.);
#421=EDGE_CURVE('',#429,#422,#431,.T.);
#422=VERTEX_POINT('',#432);
#423=VERTEX_POINT('',#433);
#424=B_SPLINE_CURVE_WITH_KNOTS('',3,(#434,#435,#436,#437,#438,#439,#440,#441,#442,#443,#444,#445),.UNSPECIFIED.,.F.,.F.,(4,1,1,1,1,1,1,1,1,4),(0.0,0.125104519936765,0.250209039873529,0.375313559810294,0.500418079747058,0.625522599683823,0.750627119620588,0.875731639557352,0.938283899525735,1.00083615949412),.UNSPECIFIED.);
#425=VERTEX_POINT('',#446);
#426=LINE('',#447,#448);
#427=VERTEX_POINT('',#449);
#428=LINE('',#450,#451);
#429=VERTEX_POINT('',#452);
#430=B_SPLINE_CURVE_WITH_KNOTS('',3,(#453,#454,#455,#456,#457,#458,#459,#460,#461,#462,#463),.UNSPECIFIED.,.F.,.F.,(4,1,1,1,1,1,1,1,4),(0.0,0.125104909718066,0.250209819436132,0.375314729154198,0.500419638872264,0.62552454859033,0.750629458308396,0.875734368026462,1.00083927774453),.UNSPECIFIED.);
#431=LINE('',#464,#465);
#432=CARTESIAN_POINT('',(0.913646757602692,0.100023053586483,-0.359920591115952));
#433=CARTESIAN_POINT('',(-1.50071038891584E-36,0.100016660988331,1.58186384293222E-37));
#434=CARTESIAN_POINT('',(0.913646757602692,0.100023053586483,-0.359920591115952));
#435=CARTESIAN_POINT('',(0.881286168202244,0.100030277908791,-0.333618350565443));
#436=CARTESIAN_POINT('',(0.815025600346302,0.100034701913582,-0.282896510196186));
#437=CARTESIAN_POINT('',(0.710562510274787,0.10004468084301,-0.213909009116725));
#438=CARTESIAN_POINT('',(0.601311881342866,0.100050612646238,-0.152770170871121));
#439=CARTESIAN_POINT('',(0.487550083188295,0.100054342071201,-0.100464317839962));
#440=CARTESIAN_POINT('',(0.369771519294683,0.100056177902862,-0.0579355042805408));
#441=CARTESIAN_POINT('',(0.248646011002834,0.100053520060669,-0.0260935135989371));
#442=CARTESIAN_POINT('',(0.14563879185663,0.100056326020003,-0.00927512007699715));
#443=CARTESIAN_POINT('',(0.0625325789656475,0.100044129842923,-0.00186660247267165));
#444=CARTESIAN_POINT('',(0.0208459044591109,0.100069255757203,-0.000446559290480965));
#445=CARTESIAN_POINT('',(-1.50071038891584E-36,0.100016660988331,1.58186384293222E-37));
#446=CARTESIAN_POINT('',(-1.76674596876682E-33,0.0100016668438911,2.71772365364694E-34));
#447=CARTESIAN_POINT('',(3.36534298077828E-34,0.055009163916111,8.33467739061235E-35));
#448=VECTOR('',#466,1.0);
#449=CARTESIAN_POINT('',(-4.25009204718663E-07,-1.66623340192018E-05,-7.7213830081746E-05));
#450=CARTESIAN_POINT('',(-2.12504602359331E-07,0.00499250225493597,-3.8606915040873E-05));
#451=VECTOR('',#467,1.0);
#452=CARTESIAN_POINT('',(0.91364997625351,-2.41278703470016E-05,-0.359922289848328));
#453=CARTESIAN_POINT('',(-4.25009204718663E-07,-1.66623340192018E-05,-7.7213830081746E-05));
#454=CARTESIAN_POINT('',(0.0416982600599121,-0.000121211086882643,-0.000562214763575367));
#455=CARTESIAN_POINT('',(0.125038957199009,-1.88250011879552E-05,-0.00589008694487143));
#456=CARTESIAN_POINT('',(0.24864768175064,-6.31693626812191E-05,-0.0260986159517884));
#457=CARTESIAN_POINT('',(0.369773611066022,-5.2893880980473E-05,-0.0579338185703273));
#458=CARTESIAN_POINT('',(0.487552457912568,-5.45439190187006E-05,-0.100464826793573));
#459=CARTESIAN_POINT('',(0.60131452680676,-5.00510436877517E-05,-0.152770520805538));
#460=CARTESIAN_POINT('',(0.710565409055913,-4.4689432490295E-05,-0.213909863513067));
#461=CARTESIAN_POINT('',(0.815028565386936,-3.51139257265724E-05,-0.282897890313418));
#462=CARTESIAN_POINT('',(0.881289625168151,-3.11082017228831E-05,-0.333619550033853));
#463=CARTESIAN_POINT('',(0.91364997625351,-2.41278703470016E-05,-0.359922289848328));
#464=CARTESIAN_POINT('',(0.913760602474213,0.049999462858068,-0.35977903008461));
#465=VECTOR('',#468,1.0);
#466=DIRECTION('',(-0.0,-1.0,-0.0));
#467=DIRECTION('',(-4.24219023148148E-05,-0.999970299523985,-0.00770702733191111));
#468=DIRECTION('',(-1.68920459093091E-05,0.999999999850832,3.60479295889241E-06));
ENDSEC;
END-ISO-10303-21;
