ISO-10303-21;
HEADER;
FILE_DESCRIPTION(('STEP AP214'),'1');
FILE_NAME('SMAStripDeformed_01.stp','2026-05-05T06:29:39',(' '),(' '),'Spatial InterOp 3D',' ',' ');
FILE_SCHEMA(('AUTOMOTIVE_DESIGN { 1 0 10303 214 1 1 1 1 }'));
ENDSEC;
DATA;
#1=PRODUCT_DEFINITION_CONTEXT('',#9,'design');
#2=APPLICATION_PROTOCOL_DEFINITION('INTERNATIONAL STANDARD','automotive_design',1994,#9);
#3=PRODUCT_CATEGORY_RELATIONSHIP('NONE','NONE',#10,#11);
#4=SHAPE_DEFINITION_REPRESENTATION(#12,#13);
#5= (GEOMETRIC_REPRESENTATION_CONTEXT(3)GLOBAL_UNCERTAINTY_ASSIGNED_CONTEXT((#16))GLOBAL_UNIT_ASSIGNED_CONTEXT((#18,#19,#20))REPRESENTATION_CONTEXT('NONE','WORKSPACE'));
#9=APPLICATION_CONTEXT(' ');
#10=PRODUCT_CATEGORY('part','NONE');
#11=PRODUCT_RELATED_PRODUCT_CATEGORY('detail',' ',(#22));
#12=PRODUCT_DEFINITION_SHAPE('NONE','NONE',#23);
#13=MANIFOLD_SURFACE_SHAPE_REPRESENTATION('1',(#24,#25),#5);
#16=UNCERTAINTY_MEASURE_WITH_UNIT(LENGTH_MEASURE(1.0E-06),#18,'','');
#18= (CONVERSION_BASED_UNIT('MILLIMETRE',#28)LENGTH_UNIT()NAMED_UNIT(#31));
#19= (NAMED_UNIT(#33)PLANE_ANGLE_UNIT()SI_UNIT($,.RADIAN.));
#20= (NAMED_UNIT(#33)SOLID_ANGLE_UNIT()SI_UNIT($,.STERADIAN.));
#22=PRODUCT('1','','PART--DESC',(#39));
#23=PRODUCT_DEFINITION('','NONE',#40,#1);
#24=SHELL_BASED_SURFACE_MODEL('1',(#41));
#25=AXIS2_PLACEMENT_3D('',#42,#43,#44);
#28=LENGTH_MEASURE_WITH_UNIT(LENGTH_MEASURE(1.0),#45);
#31=DIMENSIONAL_EXPONENTS(1.0,0.0,0.0,0.0,0.0,0.0,0.0);
#33=DIMENSIONAL_EXPONENTS(0.0,0.0,0.0,0.0,0.0,0.0,0.0);
#39=PRODUCT_CONTEXT('',#9,'mechanical');
#40=PRODUCT_DEFINITION_FORMATION_WITH_SPECIFIED_SOURCE(' ','NONE',#22,.NOT_KNOWN.);
#41=CLOSED_SHELL('',(#46));
#42=CARTESIAN_POINT('',(0.0,0.0,0.0));
#43=DIRECTION('',(0.0,0.0,1.0));
#44=DIRECTION('',(1.0,0.0,0.0));
#45= (NAMED_UNIT(#31)LENGTH_UNIT()SI_UNIT(.MILLI.,.METRE.));
#46=FACE_SURFACE('',(#48),#49,.T.);
#48=FACE_BOUND('',#50,.T.);
#49=CYLINDRICAL_SURFACE('',#51,2.37507588745685);
#50=EDGE_LOOP('',(#52,#53,#54,#55));
#51=AXIS2_PLACEMENT_3D('',#56,#57,#58);
#52=ORIENTED_EDGE('',*,*,#59,.T.);
#53=ORIENTED_EDGE('',*,*,#60,.T.);
#54=ORIENTED_EDGE('',*,*,#61,.T.);
#55=ORIENTED_EDGE('',*,*,#62,.T.);
#56=CARTESIAN_POINT('',(-0.0119786633914993,3.91885132164122E-05,-2.37492661298101));
#57=DIRECTION('',(-5.49310734360961E-05,0.999999998350538,1.67779994597619E-05));
#58=DIRECTION('',(1.56722332197107E-25,1.67779994850751E-05,-0.999999999859249));
#59=EDGE_CURVE('',#63,#64,#65,.T.);
#60=EDGE_CURVE('',#64,#66,#67,.T.);
#61=EDGE_CURVE('',#66,#68,#69,.T.);
#62=EDGE_CURVE('',#68,#63,#70,.T.);
#63=VERTEX_POINT('',#71);
#64=VERTEX_POINT('',#72);
#65=LINE('',#73,#74);
#66=VERTEX_POINT('',#75);
#67=CIRCLE('',#76,2.37881263716219);
#68=VERTEX_POINT('',#77);
#69=LINE('',#78,#79);
#70=CIRCLE('',#80,2.37881263719715);
#71=CARTESIAN_POINT('',(0.970189213752747,-2.99418425129261E-05,-0.212777957320213));
#72=CARTESIAN_POINT('',(0.970189213752747,0.100029945373535,-0.212777957320213));
#73=CARTESIAN_POINT('',(0.970294982194901,0.0500000017655111,-0.212535761296749));
#74=VECTOR('',#81,1.0);
#75=CARTESIAN_POINT('',(-1.35885934439521E-36,0.100000001490116,-0.0));
#76=AXIS2_PLACEMENT_3D('',#82,#83,#84);
#77=CARTESIAN_POINT('',(-1.35885970312762E-36,4.55432650773894E-38,-0.0));
#78=CARTESIAN_POINT('',(5.92317828054927E-34,0.0500000007450581,9.36388697960457E-35));
#79=VECTOR('',#85,1.0);
#80=AXIS2_PLACEMENT_3D('',#86,#87,#88);
#81=DIRECTION('',(-1.23296481205369E-10,1.0,-2.81810346583543E-10));
#82=CARTESIAN_POINT('',(-0.0130540905556908,0.0991751184634625,-2.37885388605911));
#83=DIRECTION('',(7.9478985289859E-05,-0.999999934418206,0.000353336487843325));
#84=DIRECTION('',(-3.62244958564735E-24,-0.000353336488959322,-0.999999937576661));
#85=DIRECTION('',(-0.0,-1.0,-0.0));
#86=CARTESIAN_POINT('',(-0.0130540905619524,0.000824911741907672,-2.37885388608336));
#87=DIRECTION('',(7.94803938182573E-05,0.999999934413948,0.000353348222911605));
#88=DIRECTION('',(3.62251378272866E-24,-0.000353348224027678,0.999999937572514));
ENDSEC;
END-ISO-10303-21;
