ISO-10303-21;
HEADER;
FILE_DESCRIPTION(('STEP AP214'),'1');
FILE_NAME('SMAStripDeformed_03.stp','2026-05-05T06:39:39',(' '),(' '),'Spatial InterOp 3D',' ',' ');
FILE_SCHEMA(('AUTOMOTIVE_DESIGN { 1 0 10303 214 1 1 1 1 }'));
ENDSEC;
DATA;
#1=PRODUCT_DEFINITION_CONTEXT('',#9,'design');
#2=APPLICATION_PROTOCOL_DEFINITION('INTERNATIONAL STANDARD','automotive_design',1994,#9);
#3=PRODUCT_CATEGORY_RELATIONSHIP('NONE','NONE',#10,#11);
#4=SHAPE_DEFINITION_REPRESENTATION(#12,#13);
#5= (GEOMETRIC_REPRESENTATION_CONTEXT(3)GLOBAL_UNCERTAINTY_ASSIGNED_CONTEXT((#16))GLOBAL_UNIT_ASSIGNED_CONTEXT((#18,#19,#20))REPRESENTATION_CONTEXT('NONE','WORKSPACE'));
#9=APPLICATION_CONTEXT(' ');
#10=PRODUCT_CATEGORY('part','NONE');
#11=PRODUCT_RELATED_PRODUCT_CATEGORY('detail',' ',(#22));
#12=PRODUCT_DEFINITION_SHAPE('NONE','NONE',#23);
#13=MANIFOLD_SURFACE_SHAPE_REPRESENTATION('1',(#24,#25),#5);
#16=UNCERTAINTY_MEASURE_WITH_UNIT(LENGTH_MEASURE(1.0E-06),#18,'','');
#18= (CONVERSION_BASED_UNIT('MILLIMETRE',#28)LENGTH_UNIT()NAMED_UNIT(#31));
#19= (NAMED_UNIT(#33)PLANE_ANGLE_UNIT()SI_UNIT($,.RADIAN.));
#20= (NAMED_UNIT(#33)SOLID_ANGLE_UNIT()SI_UNIT($,.STERADIAN.));
#22=PRODUCT('1','','PART--DESC',(#39));
#23=PRODUCT_DEFINITION('','NONE',#40,#1);
#24=SHELL_BASED_SURFACE_MODEL('1',(#41));
#25=AXIS2_PLACEMENT_3D('',#42,#43,#44);
#28=LENGTH_MEASURE_WITH_UNIT(LENGTH_MEASURE(1.0),#45);
#31=DIMENSIONAL_EXPONENTS(1.0,0.0,0.0,0.0,0.0,0.0,0.0);
#33=DIMENSIONAL_EXPONENTS(0.0,0.0,0.0,0.0,0.0,0.0,0.0);
#39=PRODUCT_CONTEXT('',#9,'mechanical');
#40=PRODUCT_DEFINITION_FORMATION_WITH_SPECIFIED_SOURCE(' ','NONE',#22,.NOT_KNOWN.);
#41=CLOSED_SHELL('',(#46));
#42=CARTESIAN_POINT('',(0.0,0.0,0.0));
#43=DIRECTION('',(0.0,0.0,1.0));
#44=DIRECTION('',(1.0,0.0,0.0));
#45= (NAMED_UNIT(#31)LENGTH_UNIT()SI_UNIT(.MILLI.,.METRE.));
#46=FACE_SURFACE('',(#48),#49,.T.);
#48=FACE_BOUND('',#50,.T.);
#49=B_SPLINE_SURFACE_WITH_KNOTS('',3,3,((#51,#52,#53,#54,#55,#56,#57,#58,#59,#60,#61,#62,#63,#64,#65,#66,#67,#68,#69),(#70,#71,#72,#73,#74,#75,#76,#77,#78,#79,#80,#81,#82,#83,#84,#85,#86,#87,#88),(#89,#90,#91,#92,#93,#94,#95,#96,#97,#98,#99,#100,#101,#102,#103,#104,#105,#106,#107),(#108,#109,#110,#111,#112,#113,#114,#115,#116,#117,#118,#119,#120,#121,#122,#123,#124,#125,#126),(#127,#128,#129,#130,#131,#132,#133,#134,#135,#136,#137,#138,#139,#140,#141,#142,#143,#144,#145),(#146,#147,#148,#149,#150,#151,#152,#153,#154,#155,#156,#157,#158,#159,#160,#161,#162,#163,#164),(#165,#166,#167,#168,#169,#170,#171,#172,#173,#174,#175,#176,#177,#178,#179,#180,#181,#182,#183),(#184,#185,#186,#187,#188,#189,#190,#191,#192,#193,#194,#195,#196,#197,#198,#199,#200,#201,#202),(#203,#204,#205,#206,#207,#208,#209,#210,#211,#212,#213,#214,#215,#216,#217,#218,#219,#220,#221),(#222,#223,#224,#225,#226,#227,#228,#229,#230,#231,#232,#233,#234,#235,#236,#237,#238,#239,#240),(#241,#242,#243,#244,#245,#246,#247,#248,#249,#250,#251,#252,#253,#254,#255,#256,#257,#258,#259),(#260,#261,#262,#263,#264,#265,#266,#267,#268,#269,#270,#271,#272,#273,#274,#275,#276,#277,#278),(#279,#280,#281,#282,#283,#284,#285,#286,#287,#288,#289,#290,#291,#292,#293,#294,#295,#296,#297),(#298,#299,#300,#301,#302,#303,#304,#305,#306,#307,#308,#309,#310,#311,#312,#313,#314,#315,#316),(#317,#318,#319,#320,#321,#322,#323,#324,#325,#326,#327,#328,#329,#330,#331,#332,#333,#334,#335),(#336,#337,#338,#339,#340,#341,#342,#343,#344,#345,#346,#347,#348,#349,#350,#351,#352,#353,#354),(#355,#356,#357,#358,#359,#360,#361,#362,#363,#364,#365,#366,#367,#368,#369,#370,#371,#372,#373),(#374,#375,#376,#377,#378,#379,#380,#381,#382,#383,#384,#385,#386,#387,#388,#389,#390,#391,#392),(#393,#394,#395,#396,#397,#398,#399,#400,#401,#402,#403,#404,#405,#406,#407,#408,#409,#410,#411)),.UNSPECIFIED.,.F.,.F.,.F.,(4,1,1,1,1,1,1,1,1,1,1,1,1,1,1,1,4),(4,1,1,1,1,1,1,1,1,1,1,1,1,1,1,1,4),(0.0,1.0,2.0,3.0,4.0,5.0,6.0,7.0,8.0,9.0,10.0,11.0,12.0,13.0,14.0,15.0,16.0),(0.0,1.0,2.0,3.0,4.0,5.0,6.0,7.0,8.0,9.0,10.0,11.0,12.0,13.0,14.0,15.0,16.0),.UNSPECIFIED.);
#50=EDGE_LOOP('',(#412,#413,#414,#415,#416,#417));
#51=CARTESIAN_POINT('',(-0.0186497095568587,0.00898473299605294,0.0133202134262436));
#52=CARTESIAN_POINT('',(-0.0187672381387213,0.0146734912816002,0.00893037536913829));
#53=CARTESIAN_POINT('',(-0.0155109771698141,0.0306298999474945,0.00656026727844716));
#54=CARTESIAN_POINT('',(-0.00916352096618317,0.0564833342524145,0.00569108581888378));
#55=CARTESIAN_POINT('',(-0.00322312973933842,0.0818028995332387,0.0040745904338671));
#56=CARTESIAN_POINT('',(0.00256011093712616,0.106916360590531,0.0021695887872237));
#57=CARTESIAN_POINT('',(0.00787677749758908,0.131417905904188,-0.000591977177226921));
#58=CARTESIAN_POINT('',(0.0111011342494889,0.153175369905758,-0.00719472905908689));
#59=CARTESIAN_POINT('',(0.0133385110495016,0.173638401682096,-0.0156094370272003));
#60=CARTESIAN_POINT('',(0.0148660074293925,0.193170419520297,-0.0253273853957826));
#61=CARTESIAN_POINT('',(0.015842900099815,0.211980316120365,-0.0360561645726072));
#62=CARTESIAN_POINT('',(0.0163721313864827,0.230203101178788,-0.047606786956403));
#63=CARTESIAN_POINT('',(0.0165566436151091,0.247973784392054,-0.0597902649458992));
#64=CARTESIAN_POINT('',(0.0165459671972601,0.265488476109734,-0.0723320817803459));
#65=CARTESIAN_POINT('',(0.0164896325445018,0.282943286681398,-0.0849577206989936));
#66=CARTESIAN_POINT('',(0.0163970767525873,0.300350592934794,-0.0976498565241079));
#67=CARTESIAN_POINT('',(0.0162777369172696,0.31772277169767,-0.110391164077955));
#68=CARTESIAN_POINT('',(0.0161866123952912,0.32928905709774,-0.118906600147852));
#69=CARTESIAN_POINT('',(0.0161397318256525,0.335070470825271,-0.123166738411678));
#70=CARTESIAN_POINT('',(-0.000743192495430145,0.00372605122216008,0.00595907063318943));
#71=CARTESIAN_POINT('',(-0.000794074539858969,0.00950221698299543,0.00169158622561855));
#72=CARTESIAN_POINT('',(0.00297478513351235,0.0261309030142028,0.00026253711042501));
#73=CARTESIAN_POINT('',(0.00994613502494457,0.0528025789592552,0.000538736529799688));
#74=CARTESIAN_POINT('',(0.0162759910015486,0.0786329304234431,-0.000362756466001035));
#75=CARTESIAN_POINT('',(0.0224037686351977,0.104198254499139,-0.00163523681845185));
#76=CARTESIAN_POINT('',(0.0274488931201454,0.12834367017472,-0.00489531576228258));
#77=CARTESIAN_POINT('',(0.0304385865499532,0.149793371322936,-0.0119288764299462));
#78=CARTESIAN_POINT('',(0.0325108551851538,0.170039862399766,-0.0206466997182337));
#79=CARTESIAN_POINT('',(0.0338844942727619,0.189370095149184,-0.0306471083907293));
#80=CARTESIAN_POINT('',(0.0347450569331242,0.20802742399598,-0.0415894530704189));
#81=CARTESIAN_POINT('',(0.0351756586249002,0.226120855539425,-0.0533211454895351));
#82=CARTESIAN_POINT('',(0.0352594148067492,0.24375939637879,-0.0656895973803108));
#83=CARTESIAN_POINT('',(0.0351565671150491,0.261153204722004,-0.0784006276828862));
#84=CARTESIAN_POINT('',(0.0350273571861781,0.278512438777,-0.0911600553374016));
#85=CARTESIAN_POINT('',(0.0348780264571076,0.295845284239069,-0.103956421945248));
#86=CARTESIAN_POINT('',(0.0347148163648091,0.313159926803509,-0.116778269107818));
#87=CARTESIAN_POINT('',(0.0346009176857723,0.324696343711577,-0.125335515320273));
#88=CARTESIAN_POINT('',(0.0345437355980398,0.330464246914437,-0.129614565719419));
#89=CARTESIAN_POINT('',(0.0389541480017583,-0.00169701295915804,-0.00163217590558501));
#90=CARTESIAN_POINT('',(0.0393041288733352,0.00460488777267324,-0.00516373249717428));
#91=CARTESIAN_POINT('',(0.0437468839733963,0.0221173931307849,-0.00535560458809861));
#92=CARTESIAN_POINT('',(0.0515784360263891,0.049917231199101,-0.00350019523738926));
#93=CARTESIAN_POINT('',(0.0583357038434147,0.0763081367643427,-0.00361702033379857));
#94=CARTESIAN_POINT('',(0.0647747233525993,0.102281657088367,-0.00431810446934025));
#95=CARTESIAN_POINT('',(0.0677743931361233,0.123744442305531,-0.0113333499576528));
#96=CARTESIAN_POINT('',(0.0697529840499897,0.143868074289782,-0.0202231523393284));
#97=CARTESIAN_POINT('',(0.0712782555223138,0.163397174143634,-0.0299451853246238));
#98=CARTESIAN_POINT('',(0.0721946303892825,0.182127701152819,-0.0407850666591823));
#99=CARTESIAN_POINT('',(0.072736055282392,0.200366478225153,-0.0523133033001235));
#100=CARTESIAN_POINT('',(0.0729186038995174,0.218134586145983,-0.0645003862035832));
#101=CARTESIAN_POINT('',(0.0727583499385338,0.235453105700657,-0.0773168063256971));
#102=CARTESIAN_POINT('',(0.0724375507719851,0.252561068913946,-0.0904279648179127));
#103=CARTESIAN_POINT('',(0.0721384637724155,0.26969750781062,-0.103499262831678));
#104=CARTESIAN_POINT('',(0.071859059126638,0.286859760274194,-0.116534426817921));
#105=CARTESIAN_POINT('',(0.0715973070214658,0.304045164188183,-0.129537183227569));
#106=CARTESIAN_POINT('',(0.07143322076963,0.315515759686796,-0.138186566750225));
#107=CARTESIAN_POINT('',(0.0713534431294173,0.32125402863901,-0.142507099399096));
#108=CARTESIAN_POINT('',(0.102467598867598,-0.00462827928176011,-0.00573538482616803));
#109=CARTESIAN_POINT('',(0.103325401180704,0.00233963339623357,-0.00833465282369927));
#110=CARTESIAN_POINT('',(0.107433468129574,0.0194131925250147,-0.00914096518910767));
#111=CARTESIAN_POINT('',(0.114979922019782,0.0468391220366703,-0.0078089558834033));
#112=CARTESIAN_POINT('',(0.121553869188668,0.0729896010825599,-0.00826233185249986));
#113=CARTESIAN_POINT('',(0.127826711146644,0.0987451781981284,-0.00926849455092027));
#114=CARTESIAN_POINT('',(0.129549107447596,0.118532808866189,-0.0186286341337199));
#115=CARTESIAN_POINT('',(0.129788170431611,0.136375035838324,-0.0307119646247308));
#116=CARTESIAN_POINT('',(0.130243974972674,0.15450152112336,-0.0423973881646577));
#117=CARTESIAN_POINT('',(0.13021107457247,0.171987065907631,-0.0549800050984491));
#118=CARTESIAN_POINT('',(0.130102704598998,0.189373631733438,-0.0677011735320453));
#119=CARTESIAN_POINT('',(0.129804047026278,0.206510633826914,-0.0807716831786385));
#120=CARTESIAN_POINT('',(0.12920028382833,0.223247487414192,-0.0944023237514211));
#121=CARTESIAN_POINT('',(0.12849506061274,0.23985127536406,-0.108219230616773));
#122=CARTESIAN_POINT('',(0.127892022987093,0.256589080545305,-0.121848539141075));
#123=CARTESIAN_POINT('',(0.127376657716375,0.273441868732299,-0.135316893578309));
#124=CARTESIAN_POINT('',(0.126934451565572,0.290390605699415,-0.148650938182458));
#125=CARTESIAN_POINT('',(0.12667880191628,0.301741115058393,-0.157468419197856));
#126=CARTESIAN_POINT('',(0.126558361130602,0.307426053964977,-0.161863603650719));
#127=CARTESIAN_POINT('',(0.163746197647558,-0.0104905722711778,-0.0139414671953392));
#128=CARTESIAN_POINT('',(0.16462689831919,-0.00349262820994789,-0.0164986970339212));
#129=CARTESIAN_POINT('',(0.167916498325698,0.0125075048746098,-0.0188075993503967));
#130=CARTESIAN_POINT('',(0.174967282445697,0.0392833594557595,-0.0183855698828708));
#131=CARTESIAN_POINT('',(0.181380594045517,0.0652231636477989,-0.0191338501167198));
#132=CARTESIAN_POINT('',(0.187618597008991,0.0909330491390427,-0.0202039722988213));
#133=CARTESIAN_POINT('',(0.190656852536197,0.112446439872521,-0.0271483798000266));
#134=CARTESIAN_POINT('',(0.190103466098592,0.129249362990255,-0.0406865357409441));
#135=CARTESIAN_POINT('',(0.189570885257139,0.146079572816368,-0.0541864955396777));
#136=CARTESIAN_POINT('',(0.188510511483125,0.162217577923582,-0.0686554087752109));
#137=CARTESIAN_POINT('',(0.187669603453064,0.178643414136952,-0.0827214138364526));
#138=CARTESIAN_POINT('',(0.18682386818936,0.195062919394183,-0.0967962810183092));
#139=CARTESIAN_POINT('',(0.185749101856851,0.211182048544003,-0.111291616962746));
#140=CARTESIAN_POINT('',(0.184645287700123,0.227263081236371,-0.125840280618437));
#141=CARTESIAN_POINT('',(0.183712408963758,0.243568297121245,-0.140075130934056));
#142=CARTESIAN_POINT('',(0.182928955695525,0.260069485721522,-0.154035657150282));
#143=CARTESIAN_POINT('',(0.182273417943188,0.276738436560097,-0.167761348507793));
#144=CARTESIAN_POINT('',(0.181907558595971,0.28794440500489,-0.176781158995576));
#145=CARTESIAN_POINT('',(0.181738892580216,0.293566096130441,-0.181264878173974));
#146=CARTESIAN_POINT('',(0.223384228569393,-0.0185044833346796,-0.0251594009296339));
#147=CARTESIAN_POINT('',(0.223983765094003,-0.0118752883364778,-0.0282328085147436));
#148=CARTESIAN_POINT('',(0.226017167648388,0.00247733158413439,-0.0328479123042666));
#149=CARTESIAN_POINT('',(0.232398626161084,0.0283753601936318,-0.0336546703166877));
#150=CARTESIAN_POINT('',(0.238795241933583,0.0542932676724999,-0.0344336017363817));
#151=CARTESIAN_POINT('',(0.24501160780369,0.0799747759400102,-0.035543446572364));
#152=CARTESIAN_POINT('',(0.249791293376454,0.103772066325807,-0.039290833947881));
#153=CARTESIAN_POINT('',(0.250059534690607,0.121652560914966,-0.0513205971371658));
#154=CARTESIAN_POINT('',(0.248703326158467,0.137402576333502,-0.0663326212935324));
#155=CARTESIAN_POINT('',(0.246909257567735,0.152578334727972,-0.082148494805274));
#156=CARTESIAN_POINT('',(0.245363344932679,0.168079551674357,-0.0975087889576094));
#157=CARTESIAN_POINT('',(0.243892667452604,0.183679440137718,-0.112730961969079));
#158=CARTESIAN_POINT('',(0.242337943456749,0.199169100912831,-0.128107432537964));
#159=CARTESIAN_POINT('',(0.240849998673219,0.21474634316743,-0.143361305884913));
#160=CARTESIAN_POINT('',(0.239579658830118,0.230608976069247,-0.158215687230578));
#161=CARTESIAN_POINT('',(0.23850463029332,0.246727761336012,-0.172711504545134));
#162=CARTESIAN_POINT('',(0.237602619428703,0.263073460685456,-0.186889685798758));
#163=CARTESIAN_POINT('',(0.237105539820882,0.274107332692419,-0.196150398190764));
#164=CARTESIAN_POINT('',(0.23688029422257,0.279654819235788,-0.200737989508384));
#165=CARTESIAN_POINT('',(0.281804524286744,-0.028115464011878,-0.0386129248711995));
#166=CARTESIAN_POINT('',(0.282103453070625,-0.0218805185078125,-0.0422382059004933));
#167=CARTESIAN_POINT('',(0.282833919558894,-0.00923670982310709,-0.0492453166709928));
#168=CARTESIAN_POINT('',(0.287583456016485,0.0145210397532051,-0.0530480535727379));
#169=CARTESIAN_POINT('',(0.29406214622729,0.0405465885246932,-0.0536763078913116));
#170=CARTESIAN_POINT('',(0.300263490628733,0.0662083960140153,-0.0548137300266272));
#171=CARTESIAN_POINT('',(0.306153811511565,0.0914622936318898,-0.0565221475063137));
#172=CARTESIAN_POINT('',(0.308962677358056,0.112674837935524,-0.0638876821310221));
#173=CARTESIAN_POINT('',(0.307252455271178,0.127960561700976,-0.0795496252790536));
#174=CARTESIAN_POINT('',(0.305225313991912,0.142830643370925,-0.0957933873975725));
#175=CARTESIAN_POINT('',(0.303110522125933,0.157585770584318,-0.11219806363978));
#176=CARTESIAN_POINT('',(0.300925044879849,0.172248193347446,-0.128732508277431));
#177=CARTESIAN_POINT('',(0.298899948060676,0.187120956343415,-0.144972517055367));
#178=CARTESIAN_POINT('',(0.297070960171117,0.202250917793785,-0.160852497478213));
#179=CARTESIAN_POINT('',(0.295473809713877,0.217684935920114,-0.176306857050596));
#180=CARTESIAN_POINT('',(0.294092358738993,0.23340184566992,-0.191365222774158));
#181=CARTESIAN_POINT('',(0.292910469296504,0.249380481990721,-0.206057221650538));
#182=CARTESIAN_POINT('',(0.292258794603191,0.260211601287114,-0.215601748830805));
#183=CARTESIAN_POINT('',(0.291967822801975,0.265672887381408,-0.220310004193475));
#184=CARTESIAN_POINT('',(0.33953570566658,-0.0386302237411678,-0.0533315656123486));
#185=CARTESIAN_POINT('',(0.339759487460319,-0.032493834125175,-0.0570948059242904));
#186=CARTESIAN_POINT('',(0.340166063405118,-0.0202748105195533,-0.0646965340833181));
#187=CARTESIAN_POINT('',(0.341715802755625,-0.000713620844685514,-0.0743736474927844));
#188=CARTESIAN_POINT('',(0.347629471938905,0.0245708982589103,-0.0760392007835693));
#189=CARTESIAN_POINT('',(0.35388359965744,0.0503019314974161,-0.077079720188009));
#190=CARTESIAN_POINT('',(0.360055852155042,0.0759255847185055,-0.0782705509585493));
#191=CARTESIAN_POINT('',(0.365360696742436,0.100411625418439,-0.081053820399361));
#192=CARTESIAN_POINT('',(0.365477298643075,0.118093243684839,-0.0933619721797277));
#193=CARTESIAN_POINT('',(0.363104782480077,0.13251036338891,-0.110239793907481));
#194=CARTESIAN_POINT('',(0.360687116106958,0.146868268225602,-0.127200505057527));
#195=CARTESIAN_POINT('',(0.357895734996809,0.160736043148579,-0.144847303793231));
#196=CARTESIAN_POINT('',(0.355384900466741,0.174971757190524,-0.161979058548271));
#197=CARTESIAN_POINT('',(0.353160909029105,0.189583668278538,-0.178584209813403));
#198=CARTESIAN_POINT('',(0.351230248124047,0.204580284743079,-0.194650847562863));
#199=CARTESIAN_POINT('',(0.349554847630144,0.219911677310612,-0.210248863173964));
#200=CARTESIAN_POINT('',(0.34809663742597,0.235527916707603,-0.225448148024021));
#201=CARTESIAN_POINT('',(0.347290798538023,0.246156848410287,-0.235275698937662));
#202=CARTESIAN_POINT('',(0.346934831336513,0.251532892509065,-0.240103276694792));
#203=CARTESIAN_POINT('',(0.396731520402767,-0.0498471211729792,-0.0690330640564127));
#204=CARTESIAN_POINT('',(0.396941563542325,-0.0437287499135607,-0.0728215266011005));
#205=CARTESIAN_POINT('',(0.397359161460797,-0.0314952708999239,-0.0804030199699079));
#206=CARTESIAN_POINT('',(0.396997933387692,-0.0144403305260324,-0.0935884002364922));
#207=CARTESIAN_POINT('',(0.39981911369347,0.00678836429100042,-0.100931327249556));
#208=CARTESIAN_POINT('',(0.405874196337181,0.0322583482968105,-0.102337265357868));
#209=CARTESIAN_POINT('',(0.412119210905975,0.0579774295653952,-0.10339451522082));
#210=CARTESIAN_POINT('',(0.418267662785455,0.083569868082458,-0.104629040571763));
#211=CARTESIAN_POINT('',(0.422208751113016,0.106267331368314,-0.109915974297189));
#212=CARTESIAN_POINT('',(0.420819261574386,0.121973698476461,-0.12498909769083));
#213=CARTESIAN_POINT('',(0.417918396237093,0.135697883946076,-0.142836894036814));
#214=CARTESIAN_POINT('',(0.414779513290253,0.14910990738709,-0.161121657167612));
#215=CARTESIAN_POINT('',(0.411742585473054,0.162655645808924,-0.179219245049992));
#216=CARTESIAN_POINT('',(0.408972582082474,0.176551457784791,-0.196826797305553));
#217=CARTESIAN_POINT('',(0.406684360569641,0.191079130607373,-0.21354986593613));
#218=CARTESIAN_POINT('',(0.404754803564371,0.206077194845452,-0.229614477081165));
#219=CARTESIAN_POINT('',(0.403060793696477,0.221384181067813,-0.245246656880098));
#220=CARTESIAN_POINT('',(0.402125027220503,0.231842711683253,-0.255312736533304));
#221=CARTESIAN_POINT('',(0.401714672844264,0.237147426560526,-0.260240161477881));
#222=CARTESIAN_POINT('',(0.453311089711519,-0.0618722294893199,-0.0858659022513353));
#223=CARTESIAN_POINT('',(0.45345454040444,-0.0558411947646691,-0.089776619142477));
#224=CARTESIAN_POINT('',(0.453670595310099,-0.0438720410496927,-0.0977281170772414));
#225=CARTESIAN_POINT('',(0.453679499698346,-0.0263316689457415,-0.110233986311424));
#226=CARTESIAN_POINT('',(0.452863476422234,-0.00987319617540083,-0.124254306471684));
#227=CARTESIAN_POINT('',(0.456358699229743,0.0122395108586481,-0.130359786451431));
#228=CARTESIAN_POINT('',(0.462644109349093,0.0380115712199632,-0.131342875776932));
#229=CARTESIAN_POINT('',(0.468863765709561,0.063697394992315,-0.132446679736374));
#230=CARTESIAN_POINT('',(0.474761444771122,0.088960942921372,-0.134141588636978));
#231=CARTESIAN_POINT('',(0.477658733750179,0.110289454881725,-0.141344790852694));
#232=CARTESIAN_POINT('',(0.474727167284839,0.123973375572488,-0.15924895014274));
#233=CARTESIAN_POINT('',(0.471257353549539,0.136951380595919,-0.178141255559612));
#234=CARTESIAN_POINT('',(0.467943254553186,0.150133606764522,-0.196747690662286));
#235=CARTESIAN_POINT('',(0.464640400900218,0.163330581292333,-0.215333480899429));
#236=CARTESIAN_POINT('',(0.461916657834966,0.177287064060693,-0.232856105717637));
#237=CARTESIAN_POINT('',(0.459653612252187,0.191847755320072,-0.249532954888943));
#238=CARTESIAN_POINT('',(0.457732872045608,0.206857382861263,-0.265581379634226));
#239=CARTESIAN_POINT('',(0.456700448298746,0.21718914668068,-0.275824908413859));
#240=CARTESIAN_POINT('',(0.456251220391378,0.222442878606065,-0.280823699682736));
#241=CARTESIAN_POINT('',(0.509350506068553,-0.0746057527900983,-0.103690385136202));
#242=CARTESIAN_POINT('',(0.509470605781419,-0.0686053430654964,-0.107643971135628));
#243=CARTESIAN_POINT('',(0.509619681584597,-0.0567240329875698,-0.115718433262482));
#244=CARTESIAN_POINT('',(0.509657609153119,-0.0391455967469013,-0.128171020028222));
#245=CARTESIAN_POINT('',(0.5086256634288,-0.0229703080215599,-0.142587743371177));
#246=CARTESIAN_POINT('',(0.50744321910579,-0.00699239943107046,-0.157280760929989));
#247=CARTESIAN_POINT('',(0.511585103099894,0.0159684090027436,-0.162199062111876));
#248=CARTESIAN_POINT('',(0.517678836799982,0.0414890841829968,-0.163534042328178));
#249=CARTESIAN_POINT('',(0.523899168140067,0.0671757931965999,-0.164636607120175));
#250=CARTESIAN_POINT('',(0.529680639647725,0.0922869339746292,-0.1665448567114));
#251=CARTESIAN_POINT('',(0.531330610745572,0.111979578400429,-0.176037958759457));
#252=CARTESIAN_POINT('',(0.52775599046129,0.124820128783409,-0.195122674228778));
#253=CARTESIAN_POINT('',(0.523997840690318,0.137419978753583,-0.214544323968929));
#254=CARTESIAN_POINT('',(0.520298813594058,0.150097368591959,-0.233857432811088));
#255=CARTESIAN_POINT('',(0.51700765070433,0.163309675650736,-0.252421760454624));
#256=CARTESIAN_POINT('',(0.514212659404105,0.1771727157801,-0.270075186990485));
#257=CARTESIAN_POINT('',(0.512042806410943,0.191855629877869,-0.28658094770186));
#258=CARTESIAN_POINT('',(0.51095602942087,0.202116108977242,-0.29692426137546));
#259=CARTESIAN_POINT('',(0.510488347044006,0.207345637715957,-0.301956932449349));
#260=CARTESIAN_POINT('',(0.564909595456367,-0.0879692288132396,-0.122396680639053));
#261=CARTESIAN_POINT('',(0.565028060973036,-0.0819709623502267,-0.126353266792373));
#262=CARTESIAN_POINT('',(0.565202593215436,-0.0700562659454491,-0.134380994484657));
#263=CARTESIAN_POINT('',(0.565031422550097,-0.0527520637372256,-0.147217456137363));
#264=CARTESIAN_POINT('',(0.564075473963186,-0.0364771041487659,-0.161494659447111));
#265=CARTESIAN_POINT('',(0.562131234720855,-0.0214982957838709,-0.177586225110067));
#266=CARTESIAN_POINT('',(0.561027023808198,-0.00541778344012685,-0.192135617153724));
#267=CARTESIAN_POINT('',(0.565100822084497,0.0174537300216505,-0.197178914117468));
#268=CARTESIAN_POINT('',(0.571350554235896,0.043178998438147,-0.198227503163656));
#269=CARTESIAN_POINT('',(0.577622649704146,0.0689335965263767,-0.199235036312001));
#270=CARTESIAN_POINT('',(0.583207646255626,0.0937870588031941,-0.201503986231498));
#271=CARTESIAN_POINT('',(0.584510011855804,0.113023815794815,-0.211635242981596));
#272=CARTESIAN_POINT('',(0.579919126778,0.124531526644844,-0.232585677378993));
#273=CARTESIAN_POINT('',(0.575697184207989,0.136523108591173,-0.25285878533101));
#274=CARTESIAN_POINT('',(0.572095350961221,0.149327968952773,-0.271993459964047));
#275=CARTESIAN_POINT('',(0.568780173410167,0.162508780588123,-0.290601875141139));
#276=CARTESIAN_POINT('',(0.566258620059154,0.176730436809318,-0.307753308140718));
#277=CARTESIAN_POINT('',(0.56504334806458,0.186822393666381,-0.318332520532435));
#278=CARTESIAN_POINT('',(0.564536334950052,0.192000339823122,-0.323437397297385));
#279=CARTESIAN_POINT('',(0.620017029688658,-0.101925054242145,-0.141932151350957));
#280=CARTESIAN_POINT('',(0.620103373329232,-0.0959689158805921,-0.145947708741515));
#281=CARTESIAN_POINT('',(0.620231424447558,-0.0841151798476559,-0.154060769226529));
#282=CARTESIAN_POINT('',(0.61998930707789,-0.0669040248185387,-0.167027479029121));
#283=CARTESIAN_POINT('',(0.619011753736113,-0.0506574000416044,-0.181344345623818));
#284=CARTESIAN_POINT('',(0.617719880679085,-0.0348230081247898,-0.19623825891535));
#285=CARTESIAN_POINT('',(0.615242305815262,-0.0205436737603596,-0.213308953610797));
#286=CARTESIAN_POINT('',(0.613511970718927,-0.00528432837021025,-0.229007821409454));
#287=CARTESIAN_POINT('',(0.617417672913136,0.0173667257142739,-0.234359719088377));
#288=CARTESIAN_POINT('',(0.62344289913384,0.0427975527787531,-0.235820469381351));
#289=CARTESIAN_POINT('',(0.629750833725283,0.0685991541682106,-0.236762206950698));
#290=CARTESIAN_POINT('',(0.635423453439009,0.0935675349341743,-0.238870293093959));
#291=CARTESIAN_POINT('',(0.636406738632751,0.11238581538051,-0.249587336498934));
#292=CARTESIAN_POINT('',(0.63179699144415,0.123868788418992,-0.270572399073318));
#293=CARTESIAN_POINT('',(0.627418864203501,0.135655532900918,-0.291132240067887));
#294=CARTESIAN_POINT('',(0.623704767166351,0.148313158389388,-0.310473015197554));
#295=CARTESIAN_POINT('',(0.620648336256911,0.161833318347301,-0.328606408008515));
#296=CARTESIAN_POINT('',(0.619113981707585,0.171506795841545,-0.339771410999114));
#297=CARTESIAN_POINT('',(0.618505466257418,0.17655162086048,-0.34506263174651));
#298=CARTESIAN_POINT('',(0.674853383755526,-0.116236403510287,-0.161965287040414));
#299=CARTESIAN_POINT('',(0.674891896265752,-0.110342996064772,-0.16606865564495));
#300=CARTESIAN_POINT('',(0.674931023085521,-0.0986058849718231,-0.174344968609081));
#301=CARTESIAN_POINT('',(0.674681370217549,-0.0814046128099506,-0.187325512524503));
#302=CARTESIAN_POINT('',(0.673928725756366,-0.0648630182089336,-0.201229478113192));
#303=CARTESIAN_POINT('',(0.672628932957763,-0.0490390130975355,-0.216137930934043));
#304=CARTESIAN_POINT('',(0.670564977138306,-0.0342172139961331,-0.232449279359694));
#305=CARTESIAN_POINT('',(0.667329000093087,-0.0209325302539457,-0.250912293570629));
#306=CARTESIAN_POINT('',(0.664961910199939,-0.00650829395288374,-0.26778015343172));
#307=CARTESIAN_POINT('',(0.668132582286394,0.0151787621738165,-0.274481462792995));
#308=CARTESIAN_POINT('',(0.674320849033807,0.0408234182136343,-0.275642893657938));
#309=CARTESIAN_POINT('',(0.680808340280439,0.0668605096151109,-0.276254990515155));
#310=CARTESIAN_POINT('',(0.686625502296774,0.0920184587852228,-0.278097717362687));
#311=CARTESIAN_POINT('',(0.688377348349055,0.111844713041405,-0.287403791352707));
#312=CARTESIAN_POINT('',(0.683165989963539,0.122538668107577,-0.309493327293267));
#313=CARTESIAN_POINT('',(0.678064137251115,0.133376240753645,-0.331381826251811));
#314=CARTESIAN_POINT('',(0.674724354706359,0.146524782739862,-0.350035412729502));
#315=CARTESIAN_POINT('',(0.672997137816095,0.155945319707131,-0.361554483795955));
#316=CARTESIAN_POINT('',(0.672323552640193,0.160904805252131,-0.366965163388843));
#317=CARTESIAN_POINT('',(0.72959923080017,-0.130666453473367,-0.182164580866574));
#318=CARTESIAN_POINT('',(0.729588979504538,-0.124837000155395,-0.18635747294587));
#319=CARTESIAN_POINT('',(0.729526225852483,-0.113233506128932,-0.19482082409719));
#320=CARTESIAN_POINT('',(0.729206538728008,-0.0961240844634303,-0.207929941036892));
#321=CARTESIAN_POINT('',(0.728562491493117,-0.079440063717874,-0.22163453742385));
#322=CARTESIAN_POINT('',(0.727359692941585,-0.0634888498634512,-0.236364922477494));
#323=CARTESIAN_POINT('',(0.725362387486403,-0.0485796382678272,-0.252553910228069));
#324=CARTESIAN_POINT('',(0.723013164492481,-0.0341319693832767,-0.269388968980349));
#325=CARTESIAN_POINT('',(0.71943817057968,-0.0212919090171334,-0.28847437037897));
#326=CARTESIAN_POINT('',(0.715789570065807,-0.00854838430628484,-0.307694903123012));
#327=CARTESIAN_POINT('',(0.718014125184697,0.0118978317310956,-0.316133149890573));
#328=CARTESIAN_POINT('',(0.723721119052501,0.0369112944793922,-0.318178129931656));
#329=CARTESIAN_POINT('',(0.730194656646513,0.0629300855520947,-0.318815843728451));
#330=CARTESIAN_POINT('',(0.736165218121724,0.0882892193587583,-0.320376950789675));
#331=CARTESIAN_POINT('',(0.738268735188868,0.108576693007947,-0.329037406361084));
#332=CARTESIAN_POINT('',(0.733435458601406,0.119766505423846,-0.350432837407439));
#333=CARTESIAN_POINT('',(0.728386387303718,0.130673301324142,-0.372224437127564));
#334=CARTESIAN_POINT('',(0.726657952261494,0.140092240675218,-0.383745744549331));
#335=CARTESIAN_POINT('',(0.725989782178591,0.14505882815868,-0.389146482794678));
#336=CARTESIAN_POINT('',(0.784297286315848,-0.145159182414947,-0.202451613204153));
#337=CARTESIAN_POINT('',(0.784244534700516,-0.139385468611539,-0.206722529880403));
#338=CARTESIAN_POINT('',(0.78408950040958,-0.127903001392669,-0.215355295278635));
#339=CARTESIAN_POINT('',(0.783673226694375,-0.110920253825587,-0.228641731585956));
#340=CARTESIAN_POINT('',(0.783038101602396,-0.0942245316171188,-0.24232994817602));
#341=CARTESIAN_POINT('',(0.781986177486401,-0.0780754447147683,-0.256783349030331));
#342=CARTESIAN_POINT('',(0.78031950669915,-0.0627326030660402,-0.272365338130388));
#343=CARTESIAN_POINT('',(0.778009951395288,-0.0482329096837106,-0.2891275725945));
#344=CARTESIAN_POINT('',(0.774905428814685,-0.0347758223432293,-0.307349254935653));
#345=CARTESIAN_POINT('',(0.770718555901545,-0.022738246257004,-0.327557979940388));
#346=CARTESIAN_POINT('',(0.766024856152568,-0.0113653776834952,-0.34869716758331));
#347=CARTESIAN_POINT('',(0.766463141625547,0.00673813120142134,-0.360414753663094));
#348=CARTESIAN_POINT('',(0.771699330404846,0.0311341292512705,-0.363324065491187));
#349=CARTESIAN_POINT('',(0.777955234191904,0.0568674918180743,-0.364361324284136));
#350=CARTESIAN_POINT('',(0.783744027991101,0.0819882358409435,-0.366256131180104));
#351=CARTESIAN_POINT('',(0.786698405192721,0.103391619468979,-0.373354527465235));
#352=CARTESIAN_POINT('',(0.783324069377014,0.116494844559629,-0.392071548878437));
#353=CARTESIAN_POINT('',(0.780657170293533,0.124682980696413,-0.405315744012393));
#354=CARTESIAN_POINT('',(0.779757671995034,0.129346179345782,-0.411141168258071));
#355=CARTESIAN_POINT('',(0.83899026579582,-0.159658568618595,-0.222747964427871));
#356=CARTESIAN_POINT('',(0.838908473508612,-0.153922941892282,-0.227072195684679));
#357=CARTESIAN_POINT('',(0.838693314417946,-0.142519328836718,-0.235815341741199));
#358=CARTESIAN_POINT('',(0.838189848201764,-0.12565093494303,-0.249261851191362));
#359=CARTESIAN_POINT('',(0.837479650373974,-0.109053671237476,-0.263087890743589));
#360=CARTESIAN_POINT('',(0.83643015112308,-0.0929014041048462,-0.277536839887336));
#361=CARTESIAN_POINT('',(0.834908780637583,-0.0773679999299307,-0.292852078112063));
#362=CARTESIAN_POINT('',(0.83274258786726,-0.0626802854201733,-0.309351119170181));
#363=CARTESIAN_POINT('',(0.829758414888446,-0.0490653585992124,-0.327351856604578));
#364=CARTESIAN_POINT('',(0.826359778937331,-0.0359940033335666,-0.346113489641517));
#365=CARTESIAN_POINT('',(0.822095473785029,-0.0240579802580702,-0.366464369324017));
#366=CARTESIAN_POINT('',(0.816395730424948,-0.0140045460537336,-0.389450511244675));
#367=CARTESIAN_POINT('',(0.814243906516274,0.000702013334811472,-0.405923173097958));
#368=CARTESIAN_POINT('',(0.81754279640257,0.0225572281476586,-0.412389092649801));
#369=CARTESIAN_POINT('',(0.823402928827017,0.0477715333571067,-0.414152931884307));
#370=CARTESIAN_POINT('',(0.829228743932264,0.0729408311236269,-0.415979772880165));
#371=CARTESIAN_POINT('',(0.83278073163067,0.0951279857732508,-0.421981040520697));
#372=CARTESIAN_POINT('',(0.832587229096971,0.106560001579219,-0.430684428190908));
#373=CARTESIAN_POINT('',(0.832337934727603,0.112075947963973,-0.435316169662742));
#374=CARTESIAN_POINT('',(0.875461758157387,-0.169312358836925,-0.236261413491116));
#375=CARTESIAN_POINT('',(0.875367304635403,-0.163593337422884,-0.240608888990495));
#376=CARTESIAN_POINT('',(0.875127683998203,-0.152221805884325,-0.249396942998826));
#377=CARTESIAN_POINT('',(0.87458151721056,-0.135409414137013,-0.262921844679955));
#378=CARTESIAN_POINT('',(0.873814019538921,-0.118887299642178,-0.276853078669623));
#379=CARTESIAN_POINT('',(0.872733741693437,-0.102775398886402,-0.291358532975088));
#380=CARTESIAN_POINT('',(0.87124923438426,-0.0871936483562621,-0.306606095603604));
#381=CARTESIAN_POINT('',(0.869247766016006,-0.0722898964549511,-0.322802725875856));
#382=CARTESIAN_POINT('',(0.866616536035477,-0.0582120820243916,-0.340155509709351));
#383=CARTESIAN_POINT('',(0.863393661444567,-0.0449102143069327,-0.358594469660841));
#384=CARTESIAN_POINT('',(0.859311618636952,-0.0327351526856604,-0.378610741366637));
#385=CARTESIAN_POINT('',(0.854330215654815,-0.0217396092397727,-0.400278111596613));
#386=CARTESIAN_POINT('',(0.84914627616636,-0.0110096940673513,-0.422317310306601));
#387=CARTESIAN_POINT('',(0.846312673602603,0.00280270707620735,-0.440041621680418));
#388=CARTESIAN_POINT('',(0.851655540498087,0.0273386143420983,-0.442755087522458));
#389=CARTESIAN_POINT('',(0.858057675954867,0.0532637609317435,-0.443523885579759));
#390=CARTESIAN_POINT('',(0.863473598458961,0.0778954812218379,-0.446103231620882));
#391=CARTESIAN_POINT('',(0.86559774514124,0.0923671128033995,-0.45055174198111));
#392=CARTESIAN_POINT('',(0.866160308756619,0.0989478175307727,-0.453693026616589));
#393=CARTESIAN_POINT('',(0.893703103364915,-0.174131910777029,-0.243007858998767));
#394=CARTESIAN_POINT('',(0.893603425557475,-0.168419741055804,-0.247364925549928));
#395=CARTESIAN_POINT('',(0.893354025667128,-0.157061035087197,-0.256170932888747));
#396=CARTESIAN_POINT('',(0.892792656793391,-0.140268580999301,-0.269723743457355));
#397=CARTESIAN_POINT('',(0.892006882669625,-0.12377043621991,-0.283688530437236));
#398=CARTESIAN_POINT('',(0.890919759536257,-0.107667513114804,-0.298206551726477));
#399=CARTESIAN_POINT('',(0.889454343633715,-0.0920607240497632,-0.313419065223164));
#400=CARTESIAN_POINT('',(0.887525425702754,-0.0770618216605351,-0.329482503117838));
#401=CARTESIAN_POINT('',(0.885047762005222,-0.0627826038022344,-0.346553360899453));
#402=CARTESIAN_POINT('',(0.881953216681481,-0.0493124312083236,-0.364756726403209));
#403=CARTESIAN_POINT('',(0.878010467174514,-0.0369546852916161,-0.384517275241075));
#404=CARTESIAN_POINT('',(0.873359458846507,-0.0255258265726746,-0.405578087452044));
#405=CARTESIAN_POINT('',(0.867886222994659,-0.0151753259311191,-0.428148393511659));
#406=CARTESIAN_POINT('',(0.863857543843405,-0.00293027744099571,-0.448066697065472));
#407=CARTESIAN_POINT('',(0.868681100309463,0.020924549977768,-0.451733543664086));
#408=CARTESIAN_POINT('',(0.874830323646765,0.046518000268032,-0.452966652727197));
#409=CARTESIAN_POINT('',(0.880307039134973,0.0712294510506807,-0.455434391417679));
#410=CARTESIAN_POINT('',(0.882803477156165,0.0861893457477622,-0.459199427350576));
#411=CARTESIAN_POINT('',(0.883533493554888,0.0929896661608962,-0.462033292276708));
#412=ORIENTED_EDGE('',*,*,#418,.T.);
#413=ORIENTED_EDGE('',*,*,#419,.T.);
#414=ORIENTED_EDGE('',*,*,#420,.T.);
#415=ORIENTED_EDGE('',*,*,#421,.T.);
#416=ORIENTED_EDGE('',*,*,#422,.T.);
#417=ORIENTED_EDGE('',*,*,#423,.T.);
#418=EDGE_CURVE('',#424,#425,#426,.T.);
#419=EDGE_CURVE('',#425,#427,#428,.T.);
#420=EDGE_CURVE('',#427,#429,#430,.T.);
#421=EDGE_CURVE('',#429,#431,#432,.T.);
#422=EDGE_CURVE('',#431,#433,#434,.T.);
#423=EDGE_CURVE('',#433,#424,#435,.T.);
#424=VERTEX_POINT('',#436);
#425=VERTEX_POINT('',#437);
#426=LINE('',#438,#439);
#427=VERTEX_POINT('',#440);
#428=LINE('',#441,#442);
#429=VERTEX_POINT('',#443);
#430=B_SPLINE_CURVE_WITH_KNOTS('',3,(#444,#445,#446,#447,#448,#449,#450,#451,#452,#453,#454,#455,#456,#457,#458,#459,#460,#461,#462,#463,#464,#465),.UNSPECIFIED.,.F.,.F.,(4,1,1,1,1,1,1,1,1,1,1,1,1,1,1,1,1,1,1,4),(0.0,0.0309717092115796,0.0619434184231591,0.123886836846318,0.185830255269477,0.247773673692637,0.371660510538955,0.495547347385273,0.619434184231591,0.68137760265475,0.74332102107791,0.774292730289489,0.805264439501069,0.836236148712648,0.867207857924228,0.898179567135807,0.929151276347387,0.960122985558966,0.975608840164756,0.991094694770546),.UNSPECIFIED.);
#431=VERTEX_POINT('',#466);
#432=LINE('',#467,#468);
#433=VERTEX_POINT('',#469);
#434=LINE('',#470,#471);
#435=B_SPLINE_CURVE_WITH_KNOTS('',3,(#472,#473,#474,#475,#476,#477,#478,#479,#480,#481,#482,#483,#484,#485,#486,#487,#488,#489,#490,#491,#492,#493,#494,#495,#496,#497,#498,#499,#500,#501,#502,#503,#504,#505),.UNSPECIFIED.,.F.,.F.,(4,1,1,1,1,1,1,1,1,1,1,1,1,1,1,1,1,1,1,1,1,1,1,1,1,1,1,1,1,1,1,4),(0.0,0.00781844904828582,0.0156368980965716,0.0234553471448575,0.0312737961931433,0.0469106942897149,0.0625475923862866,0.0938213885794298,0.125095184772573,0.156368980965716,0.18764277715886,0.218916573352003,0.250190369545146,0.281464165738289,0.312737961931433,0.375285554317719,0.500380739090292,0.562928331476579,0.625475923862866,0.688023516249152,0.750571108635439,0.813118701021725,0.844392497214868,0.875666293408012,0.906940089601155,0.938213885794298,0.95385078389087,0.969487681987442,0.977306131035727,0.985124580084013,0.992943029132299,1.00076147818058),.UNSPECIFIED.);
#436=CARTESIAN_POINT('',(-1.17430649814005E-37,0.100016660988331,0.0));
#437=CARTESIAN_POINT('',(4.77450310884748E-34,0.00998666975647211,-2.95827158297593E-34));
#438=CARTESIAN_POINT('',(8.30934456899716E-36,0.0550016653724015,-7.54947873271486E-35));
#439=VECTOR('',#506,1.0);
#440=CARTESIAN_POINT('',(0.00109691289253533,0.00232743914239109,0.00400128262117505));
#441=CARTESIAN_POINT('',(0.000548456446267664,0.0061570544494316,0.00200064131058753));
#442=VECTOR('',#507,1.0);
#443=CARTESIAN_POINT('',(0.85842901468277,0.00113380968105048,-0.443077325820923));
#444=CARTESIAN_POINT('',(0.00109691289253533,0.00232743914239109,0.00400128262117505));
#445=CARTESIAN_POINT('',(0.0111760146039147,0.0011902641126658,0.00207735012416141));
#446=CARTESIAN_POINT('',(0.0315636559539558,-0.000255063898171165,-0.0010167501047269));
#447=CARTESIAN_POINT('',(0.0726989487492164,-0.0002906003291841,-0.00482948803784638));
#448=CARTESIAN_POINT('',(0.124104290455818,3.15984962341291E-05,-0.00975595506026231));
#449=CARTESIAN_POINT('',(0.184979918964793,-2.84799758675677E-05,-0.0215816996110715));
#450=CARTESIAN_POINT('',(0.264829981693405,-3.03348688344023E-05,-0.0428287086897239));
#451=CARTESIAN_POINT('',(0.361730621202262,-5.95043735159876E-05,-0.0789771065774831));
#452=CARTESIAN_POINT('',(0.47284261390572,2.04704398010113E-05,-0.134131193062132));
#453=CARTESIAN_POINT('',(0.5603260942588,2.47784339643716E-05,-0.189140852594205));
#454=CARTESIAN_POINT('',(0.627632229136992,0.00020817890117032,-0.237036496136607));
#455=CARTESIAN_POINT('',(0.668241761019557,0.000213762583384988,-0.268913655308528));
#456=CARTESIAN_POINT('',(0.700375864404191,0.000396959785788284,-0.294853550302659));
#457=CARTESIAN_POINT('',(0.723862065389781,0.000417195972143795,-0.315047547098525));
#458=CARTESIAN_POINT('',(0.747152068905469,0.000544325715483474,-0.33546556846254));
#459=CARTESIAN_POINT('',(0.769847861276033,0.000491562268475319,-0.356543062524888));
#460=CARTESIAN_POINT('',(0.792709687840467,0.000796372933958605,-0.377439274106465));
#461=CARTESIAN_POINT('',(0.81465745932712,0.000884322170597392,-0.399304543190032));
#462=CARTESIAN_POINT('',(0.832555491217167,0.00087952071749208,-0.417889236216736));
#463=CARTESIAN_POINT('',(0.846738313120204,0.00079362408577751,-0.4329171500963));
#464=CARTESIAN_POINT('',(0.854480927952976,0.00100362165741894,-0.43975446471866));
#465=CARTESIAN_POINT('',(0.85842901468277,0.00113380968105048,-0.443077325820923));
#466=CARTESIAN_POINT('',(0.863158941268921,3.17156518576667E-05,-0.452119767665863));
#467=CARTESIAN_POINT('',(0.860793977975845,0.000582762666454073,-0.447598546743393));
#468=VECTOR('',#508,1.0);
#469=CARTESIAN_POINT('',(0.863149762153625,0.100079350173473,-0.452109098434448));
#470=CARTESIAN_POINT('',(0.863154351711273,0.0500555329126655,-0.452114433050156));
#471=VECTOR('',#509,1.0);
#472=CARTESIAN_POINT('',(0.863149762153625,0.100079350173473,-0.452109098434448));
#473=CARTESIAN_POINT('',(0.861317271686822,0.100078307889865,-0.450255994613374));
#474=CARTESIAN_POINT('',(0.857663174130151,0.100086784757748,-0.446519977342312));
#475=CARTESIAN_POINT('',(0.851662180678484,0.0997799669123908,-0.441523469356847));
#476=CARTESIAN_POINT('',(0.845646247892028,0.0994210504025025,-0.43653436291826));
#477=CARTESIAN_POINT('',(0.838050693090525,0.0991439234112156,-0.429392299221216));
#478=CARTESIAN_POINT('',(0.828710826626888,0.0989265981449935,-0.420311008208029));
#479=CARTESIAN_POINT('',(0.814011207108087,0.0989229014728081,-0.405521050990869));
#480=CARTESIAN_POINT('',(0.796114520231587,0.0991047000683408,-0.386577213409088));
#481=CARTESIAN_POINT('',(0.774318284220353,0.0996881848760101,-0.364152168991644));
#482=CARTESIAN_POINT('',(0.751544625701164,0.0997082240998126,-0.342708410878504));
#483=CARTESIAN_POINT('',(0.728588176458708,0.0999406838053585,-0.321471587593669));
#484=CARTESIAN_POINT('',(0.704961517228082,0.0999439068985153,-0.300976754918715));
#485=CARTESIAN_POINT('',(0.681121570120593,0.10005564151689,-0.280731771657259));
#486=CARTESIAN_POINT('',(0.656460793203534,0.0999155437603468,-0.261490748455333));
#487=CARTESIAN_POINT('',(0.623397215216955,0.0998878661840021,-0.236086099514203));
#488=CARTESIAN_POINT('',(0.564378075825621,0.0998973877447548,-0.193132798705437));
#489=CARTESIAN_POINT('',(0.493669270905474,0.0998347372142118,-0.14876723951209));
#490=CARTESIAN_POINT('',(0.420254943875714,0.0999205804764705,-0.109141070668293));
#491=CARTESIAN_POINT('',(0.363578030263647,0.0999335268736699,-0.0826281969586901));
#492=CARTESIAN_POINT('',(0.305602918010609,0.0999812956096247,-0.0590892802104883));
#493=CARTESIAN_POINT('',(0.246299022183607,0.0999960119336788,-0.0391147760904827));
#494=CARTESIAN_POINT('',(0.195969918380816,0.100039958481886,-0.0254597183214298));
#495=CARTESIAN_POINT('',(0.155217438521292,0.100062579906949,-0.0165933505175652));
#496=CARTESIAN_POINT('',(0.124406688365396,0.100047843926628,-0.0111845211499098));
#497=CARTESIAN_POINT('',(0.0933861680777736,0.100025816664207,-0.00716459114406743));
#498=CARTESIAN_POINT('',(0.0674385731593673,0.100047463342926,-0.00468369864683074));
#499=CARTESIAN_POINT('',(0.0466498396055876,0.100082138207854,-0.00313204902330127));
#500=CARTESIAN_POINT('',(0.0336711273743414,0.100090998585619,-0.00187379982795547));
#501=CARTESIAN_POINT('',(0.0232949292734395,0.100078457974869,-0.00104231316754097));
#502=CARTESIAN_POINT('',(0.0155481095292567,0.100043190774366,0.000364364012869152));
#503=CARTESIAN_POINT('',(0.00781576783314916,0.100011823900885,0.00122488616938556));
#504=CARTESIAN_POINT('',(0.00257816624065728,0.100015504702089,0.000380885373173212));
#505=CARTESIAN_POINT('',(-1.17430649814005E-37,0.100016660988331,0.0));
#506=DIRECTION('',(-0.0,-1.0,-0.0));
#507=DIRECTION('',(0.125926236361049,-0.879284117468319,0.459349565977699));
#508=DIRECTION('',(0.46082054181755,-0.107373245317067,-0.880974128126962));
#509=DIRECTION('',(-9.29930626942193E-05,0.999999991838803,8.76052800324514E-05));
ENDSEC;
END-ISO-10303-21;
