ISO-10303-21;
HEADER;
FILE_DESCRIPTION(('STEP AP214'),'1');
FILE_NAME('SMAStripDeformed_06.stp','2026-01-09T02:49:07',(' '),(' '),'Spatial InterOp 3D',' ',' ');
FILE_SCHEMA(('AUTOMOTIVE_DESIGN { 1 0 10303 214 1 1 1 1 }'));
ENDSEC;
DATA;
#1=PRODUCT_DEFINITION_CONTEXT('',#9,'design');
#2=APPLICATION_PROTOCOL_DEFINITION('INTERNATIONAL STANDARD','automotive_design',1994,#9);
#3=PRODUCT_CATEGORY_RELATIONSHIP('NONE','NONE',#10,#11);
#4=SHAPE_DEFINITION_REPRESENTATION(#12,#13);
#5= (GEOMETRIC_REPRESENTATION_CONTEXT(3)GLOBAL_UNCERTAINTY_ASSIGNED_CONTEXT((#16))GLOBAL_UNIT_ASSIGNED_CONTEXT((#18,#19,#20))REPRESENTATION_CONTEXT('NONE','WORKSPACE'));
#9=APPLICATION_CONTEXT(' ');
#10=PRODUCT_CATEGORY('part','NONE');
#11=PRODUCT_RELATED_PRODUCT_CATEGORY('detail',' ',(#22));
#12=PRODUCT_DEFINITION_SHAPE('NONE','NONE',#23);
#13=MANIFOLD_SURFACE_SHAPE_REPRESENTATION('1',(#24,#25),#5);
#16=UNCERTAINTY_MEASURE_WITH_UNIT(LENGTH_MEASURE(1.0E-06),#18,'','');
#18= (CONVERSION_BASED_UNIT('MILLIMETRE',#28)LENGTH_UNIT()NAMED_UNIT(#31));
#19= (NAMED_UNIT(#33)PLANE_ANGLE_UNIT()SI_UNIT($,.RADIAN.));
#20= (NAMED_UNIT(#33)SOLID_ANGLE_UNIT()SI_UNIT($,.STERADIAN.));
#22=PRODUCT('1','','PART--DESC',(#39));
#23=PRODUCT_DEFINITION('','NONE',#40,#1);
#24=SHELL_BASED_SURFACE_MODEL('1',(#41));
#25=AXIS2_PLACEMENT_3D('',#42,#43,#44);
#28=LENGTH_MEASURE_WITH_UNIT(LENGTH_MEASURE(1.0),#45);
#31=DIMENSIONAL_EXPONENTS(1.0,0.0,0.0,0.0,0.0,0.0,0.0);
#33=DIMENSIONAL_EXPONENTS(0.0,0.0,0.0,0.0,0.0,0.0,0.0);
#39=PRODUCT_CONTEXT('',#9,'mechanical');
#40=PRODUCT_DEFINITION_FORMATION_WITH_SPECIFIED_SOURCE(' ','NONE',#22,.NOT_KNOWN.);
#41=CLOSED_SHELL('',(#46));
#42=CARTESIAN_POINT('',(0.0,0.0,0.0));
#43=DIRECTION('',(0.0,0.0,1.0));
#44=DIRECTION('',(1.0,0.0,0.0));
#45= (NAMED_UNIT(#31)LENGTH_UNIT()SI_UNIT(.MILLI.,.METRE.));
#46=FACE_SURFACE('',(#48),#49,.T.);
#48=FACE_BOUND('',#50,.T.);
#49=CYLINDRICAL_SURFACE('',#51,0.68066886781896);
#50=EDGE_LOOP('',(#52,#53,#54,#55,#56,#57,#58));
#51=AXIS2_PLACEMENT_3D('',#59,#60,#61);
#52=ORIENTED_EDGE('',*,*,#62,.T.);
#53=ORIENTED_EDGE('',*,*,#63,.T.);
#54=ORIENTED_EDGE('',*,*,#64,.T.);
#55=ORIENTED_EDGE('',*,*,#65,.T.);
#56=ORIENTED_EDGE('',*,*,#66,.T.);
#57=ORIENTED_EDGE('',*,*,#67,.T.);
#58=ORIENTED_EDGE('',*,*,#68,.T.);
#59=CARTESIAN_POINT('',(-0.0650887350077754,-0.000554152354675689,-0.669870731092654));
#60=DIRECTION('',(0.000166205446160649,-0.999999657243895,0.000811102855480882));
#61=DIRECTION('',(0.0,0.000811102866683936,0.999999671056016));
#62=EDGE_CURVE('',#69,#70,#71,.T.);
#63=EDGE_CURVE('',#70,#72,#73,.T.);
#64=EDGE_CURVE('',#72,#74,#75,.T.);
#65=EDGE_CURVE('',#74,#76,#77,.T.);
#66=EDGE_CURVE('',#76,#78,#79,.T.);
#67=EDGE_CURVE('',#78,#80,#81,.T.);
#68=EDGE_CURVE('',#80,#69,#82,.T.);
#69=VERTEX_POINT('',#83);
#70=VERTEX_POINT('',#84);
#71=B_SPLINE_CURVE_WITH_KNOTS('',3,(#85,#86,#87,#88,#89,#90,#91,#92,#93,#94,#95),.UNSPECIFIED.,.F.,.F.,(4,1,1,1,1,1,1,1,4),(0.0,0.134554349594158,0.269108699188315,0.403663048782473,0.538217398376631,0.672771747970788,0.807326097564946,0.941880447159104,1.07643479675326),.UNSPECIFIED.);
#72=VERTEX_POINT('',#96);
#73=LINE('',#97,#98);
#74=VERTEX_POINT('',#99);
#75=LINE('',#100,#101);
#76=VERTEX_POINT('',#102);
#77=LINE('',#103,#104);
#78=VERTEX_POINT('',#105);
#79=LINE('',#106,#107);
#80=VERTEX_POINT('',#108);
#81=B_SPLINE_CURVE_WITH_KNOTS('',3,(#109,#110,#111,#112,#113,#114,#115,#116,#117,#118,#119),.UNSPECIFIED.,.F.,.F.,(4,1,1,1,1,1,1,1,4),(0.0,0.135798790863724,0.271597581727447,0.407396372591171,0.543195163454894,0.678993954318618,0.814792745182341,0.950591536046065,1.08639032690979),.UNSPECIFIED.);
#82=LINE('',#120,#121);
#83=CARTESIAN_POINT('',(0.613927602767944,0.100097917020321,-0.753103375434875));
#84=CARTESIAN_POINT('',(0.0101800560951233,0.100102111697197,0.0041869031265378));
#85=CARTESIAN_POINT('',(0.613927602767944,0.100097917020321,-0.753103375434875));
#86=CARTESIAN_POINT('',(0.617448806247893,0.1000571495329,-0.708390379348366));
#87=CARTESIAN_POINT('',(0.617361618454626,0.100132797062025,-0.618360333339079));
#88=CARTESIAN_POINT('',(0.592678916123499,0.100119390797628,-0.485490530128063));
#89=CARTESIAN_POINT('',(0.543997996328105,0.100128609012576,-0.359416678031943));
#90=CARTESIAN_POINT('',(0.472077906497096,0.100132711314438,-0.244931609346083));
#91=CARTESIAN_POINT('',(0.37901376451268,0.100128432133977,-0.146805626185923));
#92=CARTESIAN_POINT('',(0.268015619086007,0.100140099705082,-0.0695155653872617));
#93=CARTESIAN_POINT('',(0.143444945011189,0.100097917944447,-0.0166435640587327));
#94=CARTESIAN_POINT('',(0.0548516157169064,0.100158675270773,0.000174283472615988));
#95=CARTESIAN_POINT('',(0.0101800560951233,0.100102111697197,0.0041869031265378));
#96=CARTESIAN_POINT('',(1.50940277308109E-05,0.100039057433605,0.00151331501547247));
#97=CARTESIAN_POINT('',(0.00509757506142705,0.100070584565401,0.00285010907100514));
#98=VECTOR('',#122,1.0);
#99=CARTESIAN_POINT('',(-3.33487908040401E-34,0.0900188386440277,-1.32438540403332E-34));
#100=CARTESIAN_POINT('',(7.54701386540546E-06,0.0950289480388165,0.000756657507736236));
#101=VECTOR('',#123,1.0);
#102=CARTESIAN_POINT('',(-1.02465932382859E-33,0.00998151209205389,-5.61391260451014E-34));
#103=CARTESIAN_POINT('',(-1.3366982481807E-34,0.0500001753680408,-8.03595029693482E-35));
#104=VECTOR('',#124,1.0);
#105=CARTESIAN_POINT('',(0.000230033925618045,-7.89540936239064E-05,0.00489206006750464));
#106=CARTESIAN_POINT('',(0.000115016962809023,0.00495127899921499,0.00244603003375232));
#107=VECTOR('',#125,0.999999999999999);
#108=CARTESIAN_POINT('',(0.614023983478546,-4.39274444943294E-05,-0.753059566020966));
#109=CARTESIAN_POINT('',(0.000230033925618045,-7.89540936239064E-05,0.00489206006750464));
#110=CARTESIAN_POINT('',(0.0453784711120447,-0.00032982138504926,0.00163778480977298));
#111=CARTESIAN_POINT('',(0.135033096476203,-5.63224775059963E-05,-0.0141255396475803));
#112=CARTESIAN_POINT('',(0.261443949286716,-0.000168860424227197,-0.0658386434272217));
#113=CARTESIAN_POINT('',(0.374301950185051,-0.000130531956109085,-0.142670554946504));
#114=CARTESIAN_POINT('',(0.469076822726842,-0.000129570772060055,-0.240907755459047));
#115=CARTESIAN_POINT('',(0.54241499487975,-0.000112692470402018,-0.355992020085985));
#116=CARTESIAN_POINT('',(0.592124814536281,-9.75972476229763E-05,-0.483019734077875));
#117=CARTESIAN_POINT('',(0.617395075363185,-7.5026512829511E-05,-0.617063172005888));
#118=CARTESIAN_POINT('',(0.617568597006931,-7.22631496539995E-05,-0.707932306695255));
#119=CARTESIAN_POINT('',(0.614023983478546,-4.39274444943294E-05,-0.753059566020966));
#120=CARTESIAN_POINT('',(0.613992303609848,0.0500269947879133,-0.752996891736984));
#121=VECTOR('',#126,1.0);
#122=DIRECTION('',(-0.9670899536757,-0.00599895449208103,-0.254363979455688));
#123=DIRECTION('',(-0.00148946467940968,-0.988785911434859,-0.149332524397414));
#124=DIRECTION('',(-0.0,-1.0,-0.0));
#125=DIRECTION('',(0.0205585717524121,-0.899123098409394,0.437212761746717));
#126=DIRECTION('',(-0.000931876807593667,0.999999556908283,-0.000133374862516245));
ENDSEC;
END-ISO-10303-21;
