ISO-10303-21;
HEADER;
FILE_DESCRIPTION(('STEP AP214'),'1');
FILE_NAME('SMAStripDeformed_05.stp','2026-01-09T02:48:23',(' '),(' '),'Spatial InterOp 3D',' ',' ');
FILE_SCHEMA(('AUTOMOTIVE_DESIGN { 1 0 10303 214 1 1 1 1 }'));
ENDSEC;
DATA;
#1=PRODUCT_DEFINITION_CONTEXT('',#9,'design');
#2=APPLICATION_PROTOCOL_DEFINITION('INTERNATIONAL STANDARD','automotive_design',1994,#9);
#3=PRODUCT_CATEGORY_RELATIONSHIP('NONE','NONE',#10,#11);
#4=SHAPE_DEFINITION_REPRESENTATION(#12,#13);
#5= (GEOMETRIC_REPRESENTATION_CONTEXT(3)GLOBAL_UNCERTAINTY_ASSIGNED_CONTEXT((#16))GLOBAL_UNIT_ASSIGNED_CONTEXT((#18,#19,#20))REPRESENTATION_CONTEXT('NONE','WORKSPACE'));
#9=APPLICATION_CONTEXT(' ');
#10=PRODUCT_CATEGORY('part','NONE');
#11=PRODUCT_RELATED_PRODUCT_CATEGORY('detail',' ',(#22));
#12=PRODUCT_DEFINITION_SHAPE('NONE','NONE',#23);
#13=MANIFOLD_SURFACE_SHAPE_REPRESENTATION('1',(#24,#25),#5);
#16=UNCERTAINTY_MEASURE_WITH_UNIT(LENGTH_MEASURE(1.0E-06),#18,'','');
#18= (CONVERSION_BASED_UNIT('MILLIMETRE',#28)LENGTH_UNIT()NAMED_UNIT(#31));
#19= (NAMED_UNIT(#33)PLANE_ANGLE_UNIT()SI_UNIT($,.RADIAN.));
#20= (NAMED_UNIT(#33)SOLID_ANGLE_UNIT()SI_UNIT($,.STERADIAN.));
#22=PRODUCT('1','','PART--DESC',(#39));
#23=PRODUCT_DEFINITION('','NONE',#40,#1);
#24=SHELL_BASED_SURFACE_MODEL('1',(#41));
#25=AXIS2_PLACEMENT_3D('',#42,#43,#44);
#28=LENGTH_MEASURE_WITH_UNIT(LENGTH_MEASURE(1.0),#45);
#31=DIMENSIONAL_EXPONENTS(1.0,0.0,0.0,0.0,0.0,0.0,0.0);
#33=DIMENSIONAL_EXPONENTS(0.0,0.0,0.0,0.0,0.0,0.0,0.0);
#39=PRODUCT_CONTEXT('',#9,'mechanical');
#40=PRODUCT_DEFINITION_FORMATION_WITH_SPECIFIED_SOURCE(' ','NONE',#22,.NOT_KNOWN.);
#41=CLOSED_SHELL('',(#46));
#42=CARTESIAN_POINT('',(0.0,0.0,0.0));
#43=DIRECTION('',(0.0,0.0,1.0));
#44=DIRECTION('',(1.0,0.0,0.0));
#45= (NAMED_UNIT(#31)LENGTH_UNIT()SI_UNIT(.MILLI.,.METRE.));
#46=FACE_SURFACE('',(#48),#49,.T.);
#48=FACE_BOUND('',#50,.T.);
#49=CYLINDRICAL_SURFACE('',#51,0.783463041016394);
#50=EDGE_LOOP('',(#52,#53,#54,#55,#56,#57));
#51=AXIS2_PLACEMENT_3D('',#58,#59,#60);
#52=ORIENTED_EDGE('',*,*,#61,.T.);
#53=ORIENTED_EDGE('',*,*,#62,.T.);
#54=ORIENTED_EDGE('',*,*,#63,.T.);
#55=ORIENTED_EDGE('',*,*,#64,.T.);
#56=ORIENTED_EDGE('',*,*,#65,.T.);
#57=ORIENTED_EDGE('',*,*,#66,.T.);
#58=CARTESIAN_POINT('',(-0.0507513126028493,0.000374088570722892,-0.776876980759396));
#59=DIRECTION('',(0.000968361583076011,-0.999999382740255,-0.000544788906760186));
#60=DIRECTION('',(-6.70037817457521E-23,-0.000544789162191224,0.999999851602373));
#61=EDGE_CURVE('',#67,#68,#69,.T.);
#62=EDGE_CURVE('',#68,#70,#71,.T.);
#63=EDGE_CURVE('',#70,#72,#73,.T.);
#64=EDGE_CURVE('',#72,#74,#75,.T.);
#65=EDGE_CURVE('',#74,#76,#77,.T.);
#66=EDGE_CURVE('',#76,#67,#78,.T.);
#67=VERTEX_POINT('',#79);
#68=VERTEX_POINT('',#80);
#69=B_SPLINE_CURVE_WITH_KNOTS('',3,(#81,#82,#83,#84,#85,#86,#87,#88,#89,#90),.UNSPECIFIED.,.F.,.F.,(4,1,1,1,1,1,1,4),(0.0,0.0251329049124504,0.0502658098249008,0.062832262281126,0.0753987147373512,0.0816819409654637,0.0879651671935763,0.100531619649802),.UNSPECIFIED.);
#70=VERTEX_POINT('',#91);
#71=B_SPLINE_CURVE_WITH_KNOTS('',3,(#92,#93,#94,#95,#96,#97,#98,#99,#100,#101,#102,#103,#104,#105,#106,#107,#108,#109,#110),.UNSPECIFIED.,.F.,.F.,(4,1,1,1,1,1,1,1,1,1,1,1,1,1,1,1,4),(0.0,0.134254551509819,0.268509103019639,0.402763654529458,0.537018206039277,0.671272757549096,0.738400033304006,0.805527309058916,0.872654584813825,0.939781860568735,0.97334549844619,1.00690913632364,1.0404727742011,1.04886368367046,1.05725459313983,1.06564550260919,1.07403641207855),.UNSPECIFIED.);
#72=VERTEX_POINT('',#111);
#73=LINE('',#112,#113);
#74=VERTEX_POINT('',#114);
#75=LINE('',#115,#116);
#76=VERTEX_POINT('',#117);
#77=LINE('',#118,#119);
#78=B_SPLINE_CURVE_WITH_KNOTS('',3,(#120,#121,#122,#123,#124,#125,#126,#127,#128,#129,#130,#131,#132,#133,#134,#135,#136,#137,#138,#139,#140,#141,#142,#143,#144,#145,#146,#147,#148,#149),.UNSPECIFIED.,.F.,.F.,(4,1,1,1,1,1,1,1,1,1,1,1,1,1,1,1,1,1,1,1,1,1,1,1,1,1,1,4),(0.0,0.00839401994077651,0.016788039881553,0.0251820598223295,0.0335760797631061,0.0671521595262121,0.100728239289318,0.134304319052424,0.201456478578636,0.268608638104848,0.335760797631061,0.402912957157273,0.537217276209697,0.604369435735909,0.671521595262121,0.738673754788333,0.805825914314545,0.872978073840758,0.906554153603864,0.94013023336697,0.973706313130076,1.00728239289318,1.02407043277473,1.04085847265629,1.04925249259706,1.05764651253784,1.06604053247862,1.07443455241939),.UNSPECIFIED.);
#79=CARTESIAN_POINT('',(0.730378150939941,-7.70782426116057E-05,-0.670988440513611));
#80=CARTESIAN_POINT('',(0.727771759033203,0.1000572219491,-0.671392560005188));
#81=CARTESIAN_POINT('',(0.730378150939941,-7.70782426116057E-05,-0.670988440513611));
#82=CARTESIAN_POINT('',(0.73087546994249,0.00828496496586704,-0.670871500813367));
#83=CARTESIAN_POINT('',(0.731696750453718,0.0250227013544413,-0.670679569656755));
#84=CARTESIAN_POINT('',(0.731865164908868,0.0459664266498971,-0.670627015024983));
#85=CARTESIAN_POINT('',(0.731632648992693,0.0627279108093922,-0.670669113214609));
#86=CARTESIAN_POINT('',(0.73118175065335,0.073178357485088,-0.67075645089528));
#87=CARTESIAN_POINT('',(0.730835073286124,0.0815570440829242,-0.670830035612763));
#88=CARTESIAN_POINT('',(0.730763360172289,0.089980937831727,-0.670862091804846));
#89=CARTESIAN_POINT('',(0.729018230006497,0.0960642395073832,-0.671172121217912));
#90=CARTESIAN_POINT('',(0.727771759033203,0.1000572219491,-0.671392560005188));
#91=CARTESIAN_POINT('',(2.79462219623383E-05,0.10003350675106,0.00154802948236465));
#92=CARTESIAN_POINT('',(0.727771759033203,0.1000572219491,-0.671392560005188));
#93=CARTESIAN_POINT('',(0.720348053270551,0.10000856162985,-0.627261114142467));
#94=CARTESIAN_POINT('',(0.699269663850412,0.100090398936506,-0.540014427584038));
#95=CARTESIAN_POINT('',(0.647107778506621,0.100070842303189,-0.415817197906488));
#96=CARTESIAN_POINT('',(0.575604152521377,0.100085562572334,-0.301656055133314));
#97=CARTESIAN_POINT('',(0.486007199454689,0.100092439914518,-0.201015396768084));
#98=CARTESIAN_POINT('',(0.398065665495391,0.100093646933836,-0.131169250626163));
#99=CARTESIAN_POINT('',(0.321183054705077,0.100102244756273,-0.0851705419248405));
#100=CARTESIAN_POINT('',(0.260689103937717,0.100102561681271,-0.0559213801878521));
#101=CARTESIAN_POINT('',(0.197820803240607,0.100083381024101,-0.0321947934661255));
#102=CARTESIAN_POINT('',(0.143863721948141,0.10008758740509,-0.0172267817494705));
#103=CARTESIAN_POINT('',(0.100017529357857,0.100119167812565,-0.00819459573960121));
#104=CARTESIAN_POINT('',(0.0668668930651184,0.100141965272436,-0.00294867062627554));
#105=CARTESIAN_POINT('',(0.0418466328852991,0.100135728349238,4.51833521573357E-05));
#106=CARTESIAN_POINT('',(0.0251296581578701,0.100105350640596,0.00131058063432357));
#107=CARTESIAN_POINT('',(0.0167575318884688,0.100090727492231,0.00210211606351714));
#108=CARTESIAN_POINT('',(0.00838847185455932,0.100075726922099,0.00264775292400308));
#109=CARTESIAN_POINT('',(0.00280298375509362,0.100047232290312,0.0018973409347045));
#110=CARTESIAN_POINT('',(2.79462219623383E-05,0.10003350675106,0.00154802948236465));
#111=CARTESIAN_POINT('',(-2.24033129096026E-34,0.0900188386440277,-1.14651657836459E-34));
#112=CARTESIAN_POINT('',(1.39731109811692E-05,0.0950261726975441,0.000774014741182327));
#113=VECTOR('',#150,1.0);
#114=CARTESIAN_POINT('',(-1.05255463129307E-33,0.00998151209205389,-4.4588016012376E-34));
#115=CARTESIAN_POINT('',(-1.61136673775223E-34,0.0500001753680408,-6.82895866681775E-35));
#116=VECTOR('',#151,1.0);
#117=CARTESIAN_POINT('',(1.14095591925434E-05,-5.89568007853813E-05,0.00155996426474303));
#118=CARTESIAN_POINT('',(5.70477959627169E-06,0.00496127764563425,0.000779982132371515));
#119=VECTOR('',#152,1.0);
#120=CARTESIAN_POINT('',(1.14095591925434E-05,-5.89568007853813E-05,0.00155996426474303));
#121=CARTESIAN_POINT('',(0.00278817452628734,-7.09725163513256E-05,0.00190387288099706));
#122=CARTESIAN_POINT('',(0.00837642338585553,-9.60307145617839E-05,0.00264278551459542));
#123=CARTESIAN_POINT('',(0.0167487070953738,-0.000106174162790581,0.00209665197021949));
#124=CARTESIAN_POINT('',(0.0251236933797373,-0.000116985350850083,0.00130630283929211));
#125=CARTESIAN_POINT('',(0.0418469039149985,-0.000141794671554442,3.64684769867544E-05));
#126=CARTESIAN_POINT('',(0.0668761925827211,-0.000147965343381348,-0.00295607333371382));
#127=CARTESIAN_POINT('',(0.10004132627959,-0.000137451111788927,-0.00819215502914631));
#128=CARTESIAN_POINT('',(0.143901160693724,-0.000113964218316616,-0.0172405968120332));
#129=CARTESIAN_POINT('',(0.197877790915922,-0.000114894108037981,-0.0322148910045622));
#130=CARTESIAN_POINT('',(0.26076740797346,-0.000130161656324873,-0.0559560174941218));
#131=CARTESIAN_POINT('',(0.321280982800462,-0.000132231959804916,-0.0852217178263557));
#132=CARTESIAN_POINT('',(0.398186410483575,-0.000128887550405558,-0.131247391244303));
#133=CARTESIAN_POINT('',(0.468555053522315,-0.000131224459746001,-0.187157781665032));
#134=CARTESIAN_POINT('',(0.530953512359861,-0.000129574913278511,-0.251484007544187));
#135=CARTESIAN_POINT('',(0.573488721270638,-0.000127258287575014,-0.303525168862593));
#136=CARTESIAN_POINT('',(0.611514673791704,-0.000124359557094552,-0.35894461664697));
#137=CARTESIAN_POINT('',(0.644836150255796,-0.000120369517259651,-0.41731196236527));
#138=CARTESIAN_POINT('',(0.668557040384196,-0.000116215507295955,-0.468046442088522));
#139=CARTESIAN_POINT('',(0.685053696586384,-0.000112421435812549,-0.509674155648915));
#140=CARTESIAN_POINT('',(0.696173596006058,-0.000109317487048558,-0.541362490295522));
#141=CARTESIAN_POINT('',(0.706047731322903,-0.000105944647074507,-0.573460783986512));
#142=CARTESIAN_POINT('',(0.713190121408873,-0.000104582511740813,-0.600520781383768));
#143=CARTESIAN_POINT('',(0.718351020111693,-9.95050261541775E-05,-0.622298739916632));
#144=CARTESIAN_POINT('',(0.721138883340186,-9.93854961278132E-05,-0.636023228545189));
#145=CARTESIAN_POINT('',(0.723569928445982,-9.52468258416706E-05,-0.646923313211993));
#146=CARTESIAN_POINT('',(0.724767003067372,-8.99525492502163E-05,-0.655286801252985));
#147=CARTESIAN_POINT('',(0.726324027778431,-8.45250583938902E-05,-0.663508586180727));
#148=CARTESIAN_POINT('',(0.729068301741652,-7.9507047180949E-05,-0.66851596596877));
#149=CARTESIAN_POINT('',(0.730378150939941,-7.70782426116057E-05,-0.670988440513611));
#150=DIRECTION('',(-0.00275776613176253,-0.988259256068202,-0.152761374442254));
#151=DIRECTION('',(-0.0,-1.0,-0.0));
#152=DIRECTION('',(0.0011228845871831,-0.988144027091666,0.153525635817827));
ENDSEC;
END-ISO-10303-21;
