ISO-10303-21;
HEADER;
FILE_DESCRIPTION(('STEP AP214'),'1');
FILE_NAME('SMAStripDeformed_03.stp','2026-01-09T02:46:56',(' '),(' '),'Spatial InterOp 3D',' ',' ');
FILE_SCHEMA(('AUTOMOTIVE_DESIGN { 1 0 10303 214 1 1 1 1 }'));
ENDSEC;
DATA;
#1=PRODUCT_DEFINITION_CONTEXT('',#9,'design');
#2=APPLICATION_PROTOCOL_DEFINITION('INTERNATIONAL STANDARD','automotive_design',1994,#9);
#3=PRODUCT_CATEGORY_RELATIONSHIP('NONE','NONE',#10,#11);
#4=SHAPE_DEFINITION_REPRESENTATION(#12,#13);
#5= (GEOMETRIC_REPRESENTATION_CONTEXT(3)GLOBAL_UNCERTAINTY_ASSIGNED_CONTEXT((#16))GLOBAL_UNIT_ASSIGNED_CONTEXT((#18,#19,#20))REPRESENTATION_CONTEXT('NONE','WORKSPACE'));
#9=APPLICATION_CONTEXT(' ');
#10=PRODUCT_CATEGORY('part','NONE');
#11=PRODUCT_RELATED_PRODUCT_CATEGORY('detail',' ',(#22));
#12=PRODUCT_DEFINITION_SHAPE('NONE','NONE',#23);
#13=MANIFOLD_SURFACE_SHAPE_REPRESENTATION('1',(#24,#25),#5);
#16=UNCERTAINTY_MEASURE_WITH_UNIT(LENGTH_MEASURE(1.0E-06),#18,'','');
#18= (CONVERSION_BASED_UNIT('MILLIMETRE',#28)LENGTH_UNIT()NAMED_UNIT(#31));
#19= (NAMED_UNIT(#33)PLANE_ANGLE_UNIT()SI_UNIT($,.RADIAN.));
#20= (NAMED_UNIT(#33)SOLID_ANGLE_UNIT()SI_UNIT($,.STERADIAN.));
#22=PRODUCT('1','','PART--DESC',(#39));
#23=PRODUCT_DEFINITION('','NONE',#40,#1);
#24=SHELL_BASED_SURFACE_MODEL('1',(#41));
#25=AXIS2_PLACEMENT_3D('',#42,#43,#44);
#28=LENGTH_MEASURE_WITH_UNIT(LENGTH_MEASURE(1.0),#45);
#31=DIMENSIONAL_EXPONENTS(1.0,0.0,0.0,0.0,0.0,0.0,0.0);
#33=DIMENSIONAL_EXPONENTS(0.0,0.0,0.0,0.0,0.0,0.0,0.0);
#39=PRODUCT_CONTEXT('',#9,'mechanical');
#40=PRODUCT_DEFINITION_FORMATION_WITH_SPECIFIED_SOURCE(' ','NONE',#22,.NOT_KNOWN.);
#41=CLOSED_SHELL('',(#46));
#42=CARTESIAN_POINT('',(0.0,0.0,0.0));
#43=DIRECTION('',(0.0,0.0,1.0));
#44=DIRECTION('',(1.0,0.0,0.0));
#45= (NAMED_UNIT(#31)LENGTH_UNIT()SI_UNIT(.MILLI.,.METRE.));
#46=FACE_SURFACE('',(#48),#49,.T.);
#48=FACE_BOUND('',#50,.T.);
#49=CYLINDRICAL_SURFACE('',#51,1.22704245619086);
#50=EDGE_LOOP('',(#52,#53,#54,#55,#56));
#51=AXIS2_PLACEMENT_3D('',#57,#58,#59);
#52=ORIENTED_EDGE('',*,*,#60,.T.);
#53=ORIENTED_EDGE('',*,*,#61,.T.);
#54=ORIENTED_EDGE('',*,*,#62,.T.);
#55=ORIENTED_EDGE('',*,*,#63,.T.);
#56=ORIENTED_EDGE('',*,*,#64,.T.);
#57=CARTESIAN_POINT('',(-0.0313231560262583,-0.000521039910127592,-1.22501170677347));
#58=DIRECTION('',(0.00076943094015873,0.999999604971622,-0.000445008571246652));
#59=DIRECTION('',(0.0,-0.000445008702974582,-0.999999900983622));
#60=EDGE_CURVE('',#65,#66,#67,.T.);
#61=EDGE_CURVE('',#66,#68,#69,.T.);
#62=EDGE_CURVE('',#68,#70,#71,.T.);
#63=EDGE_CURVE('',#70,#72,#73,.T.);
#64=EDGE_CURVE('',#72,#65,#74,.T.);
#65=VERTEX_POINT('',#75);
#66=VERTEX_POINT('',#76);
#67=LINE('',#77,#78);
#68=VERTEX_POINT('',#79);
#69=LINE('',#80,#81);
#70=VERTEX_POINT('',#82);
#71=B_SPLINE_CURVE_WITH_KNOTS('',3,(#83,#84,#85,#86,#87,#88,#89,#90,#91,#92,#93,#94,#95,#96,#97,#98,#99,#100,#101),.UNSPECIFIED.,.F.,.F.,(4,1,1,1,1,1,1,1,1,1,1,1,1,1,1,1,4),(0.0,0.130664488646061,0.261328977292123,0.391993465938184,0.522657954584245,0.653322443230307,0.718654687553337,0.783986931876368,0.849319176199398,0.914651420522429,0.947317542683944,0.97998366484546,1.01264978700698,1.02081631754735,1.02898284808773,1.03714937862811,1.04531590916849),.UNSPECIFIED.);
#72=VERTEX_POINT('',#102);
#73=LINE('',#103,#104);
#74=B_SPLINE_CURVE_WITH_KNOTS('',3,(#105,#106,#107,#108,#109,#110,#111,#112,#113,#114,#115,#116,#117,#118,#119,#120,#121,#122,#123,#124,#125,#126,#127),.UNSPECIFIED.,.F.,.F.,(4,1,1,1,1,1,1,1,1,1,1,1,1,1,1,1,1,1,1,1,4),(0.0,0.00816643745271904,0.0163328749054381,0.0244993123581571,0.0326657498108762,0.0653314996217523,0.0979972494326285,0.130662999243505,0.195994498865257,0.261325998487009,0.326657498108762,0.391988997730514,0.522651996974019,0.653314996217523,0.783977995461028,0.84930949508278,0.914640994704533,0.947306744515409,0.979972494326285,1.01263824413716,1.04530399394804),.UNSPECIFIED.);
#75=CARTESIAN_POINT('',(-7.01241701153125E-38,0.100023508071899,1.04176855047565E-37));
#76=CARTESIAN_POINT('',(-1.46247855440046E-34,0.00998151209205389,-1.37039900541143E-34));
#77=CARTESIAN_POINT('',(4.9732296124036E-35,0.0550025100819767,6.43315686192642E-36));
#78=VECTOR('',#128,1.0);
#79=CARTESIAN_POINT('',(6.60755313219852E-06,-4.17376395489555E-05,0.000575386395212263));
#80=CARTESIAN_POINT('',(3.30377656609926E-06,0.00496988722625247,0.000287693197606131));
#81=VECTOR('',#129,1.0);
#82=CARTESIAN_POINT('',(0.913811504840851,-0.000135677619255148,-0.440100342035294));
#83=CARTESIAN_POINT('',(6.60755313219852E-06,-4.17376395489555E-05,0.000575386395212263));
#84=CARTESIAN_POINT('',(0.0435535345598436,-0.00010744624214319,-0.000251661165017588));
#85=CARTESIAN_POINT('',(0.130559315250351,-4.96780724459943E-05,-0.00663828549801383));
#86=CARTESIAN_POINT('',(0.259232107446119,-8.05566785987909E-05,-0.0304788563067924));
#87=CARTESIAN_POINT('',(0.384519355470691,-8.22191559060388E-05,-0.0682585525750026));
#88=CARTESIAN_POINT('',(0.504981421312422,-9.28516307543344E-05,-0.1193635347546));
#89=CARTESIAN_POINT('',(0.600250168525321,-0.000100276617297874,-0.172406237690137));
#90=CARTESIAN_POINT('',(0.672818216724019,-0.000106654631724833,-0.220646616799535));
#91=CARTESIAN_POINT('',(0.725294362158546,-0.000111384304747226,-0.259600985852638));
#92=CARTESIAN_POINT('',(0.775699338569851,-0.000116040374855799,-0.301199226657835));
#93=CARTESIAN_POINT('',(0.815895658937893,-0.000119957769586745,-0.337945761240092));
#94=CARTESIAN_POINT('',(0.846902270289668,-0.000122854139307121,-0.368537940134789));
#95=CARTESIAN_POINT('',(0.869615172634484,-0.00012596277563254,-0.392019638526382));
#96=CARTESIAN_POINT('',(0.886101303313834,-0.000125835058162847,-0.410148289112763));
#97=CARTESIAN_POINT('',(0.897066120044684,-0.00012819302528638,-0.422248224102632));
#98=CARTESIAN_POINT('',(0.902337992628123,-0.000126493427694102,-0.428496571219067));
#99=CARTESIAN_POINT('',(0.907748232068794,-0.000126461632099399,-0.43460681558409));
#100=CARTESIAN_POINT('',(0.911800698314245,-0.000132713234844694,-0.438265431925725));
#101=CARTESIAN_POINT('',(0.913811504840851,-0.000135677619255148,-0.440100342035294));
#102=CARTESIAN_POINT('',(0.913809418678284,0.09998569637537,-0.440077513456345));
#103=CARTESIAN_POINT('',(0.913890480995178,0.0499250093780574,-0.439964428544044));
#104=VECTOR('',#130,1.0);
#105=CARTESIAN_POINT('',(0.913809418678284,0.09998569637537,-0.440077513456345));
#106=CARTESIAN_POINT('',(0.911800087569788,0.0999806115796703,-0.438241038437888));
#107=CARTESIAN_POINT('',(0.907750796244342,0.0999698417143814,-0.434579255213405));
#108=CARTESIAN_POINT('',(0.902334480850326,0.0999715189993181,-0.428474863878245));
#109=CARTESIAN_POINT('',(0.897064619111622,0.099977313963663,-0.422224858013987));
#110=CARTESIAN_POINT('',(0.88610088469283,0.0999781878832847,-0.4101241215275));
#111=CARTESIAN_POINT('',(0.869613899968625,0.0999848756189303,-0.391996689977409));
#112=CARTESIAN_POINT('',(0.846901066458612,0.099989494083072,-0.36851543352622));
#113=CARTESIAN_POINT('',(0.815894120087135,0.0999970632564377,-0.337924298684182));
#114=CARTESIAN_POINT('',(0.775697605531339,0.100005638344828,-0.301178901668728));
#115=CARTESIAN_POINT('',(0.725291995770061,0.100015283277081,-0.259582580202477));
#116=CARTESIAN_POINT('',(0.672815018290246,0.100023961022953,-0.220630580059856));
#117=CARTESIAN_POINT('',(0.60024569013613,0.10003429668977,-0.172393894426584));
#118=CARTESIAN_POINT('',(0.504974914326322,0.100044678646368,-0.119357351432175));
#119=CARTESIAN_POINT('',(0.384510699106883,0.100052768511454,-0.0682609871158066));
#120=CARTESIAN_POINT('',(0.280102403511397,0.100055367153791,-0.0367893503419733));
#121=CARTESIAN_POINT('',(0.194885259665611,0.100054760437117,-0.0185771560926665));
#122=CARTESIAN_POINT('',(0.141079124828154,0.100053657769123,-0.0101341187261955));
#123=CARTESIAN_POINT('',(0.097805531014626,0.100052349153031,-0.00517279546966276));
#124=CARTESIAN_POINT('',(0.065258859312326,0.100051621566341,-0.0023059589420094));
#125=CARTESIAN_POINT('',(0.0326549143600686,0.100048080082829,-0.000442368981541137));
#126=CARTESIAN_POINT('',(0.0108742007964732,0.10004441337725,0.000559075701737974));
#127=CARTESIAN_POINT('',(-7.01241701153125E-38,0.100023508071899,1.04176855047565E-37));
#128=DIRECTION('',(-0.0,-1.0,-0.0));
#129=DIRECTION('',(0.000658138986937505,-0.998356167888097,0.0573108095638759));
#130=DIRECTION('',(-2.48260981880732E-05,0.999999976212604,0.000216699000779877));
ENDSEC;
END-ISO-10303-21;
