ISO-10303-21;
HEADER;
FILE_DESCRIPTION(('STEP AP214'),'1');
FILE_NAME('SMAStripDeformed_01.stp','2026-01-09T02:45:25',(' '),(' '),'Spatial InterOp 3D',' ',' ');
FILE_SCHEMA(('AUTOMOTIVE_DESIGN { 1 0 10303 214 1 1 1 1 }'));
ENDSEC;
DATA;
#1=PRODUCT_DEFINITION_CONTEXT('',#9,'design');
#2=APPLICATION_PROTOCOL_DEFINITION('INTERNATIONAL STANDARD','automotive_design',1994,#9);
#3=PRODUCT_CATEGORY_RELATIONSHIP('NONE','NONE',#10,#11);
#4=SHAPE_DEFINITION_REPRESENTATION(#12,#13);
#5= (GEOMETRIC_REPRESENTATION_CONTEXT(3)GLOBAL_UNCERTAINTY_ASSIGNED_CONTEXT((#16))GLOBAL_UNIT_ASSIGNED_CONTEXT((#18,#19,#20))REPRESENTATION_CONTEXT('NONE','WORKSPACE'));
#9=APPLICATION_CONTEXT(' ');
#10=PRODUCT_CATEGORY('part','NONE');
#11=PRODUCT_RELATED_PRODUCT_CATEGORY('detail',' ',(#22));
#12=PRODUCT_DEFINITION_SHAPE('NONE','NONE',#23);
#13=MANIFOLD_SURFACE_SHAPE_REPRESENTATION('1',(#24,#25),#5);
#16=UNCERTAINTY_MEASURE_WITH_UNIT(LENGTH_MEASURE(1.0E-06),#18,'','');
#18= (CONVERSION_BASED_UNIT('MILLIMETRE',#28)LENGTH_UNIT()NAMED_UNIT(#31));
#19= (NAMED_UNIT(#33)PLANE_ANGLE_UNIT()SI_UNIT($,.RADIAN.));
#20= (NAMED_UNIT(#33)SOLID_ANGLE_UNIT()SI_UNIT($,.STERADIAN.));
#22=PRODUCT('1','','PART--DESC',(#39));
#23=PRODUCT_DEFINITION('','NONE',#40,#1);
#24=SHELL_BASED_SURFACE_MODEL('1',(#41));
#25=AXIS2_PLACEMENT_3D('',#42,#43,#44);
#28=LENGTH_MEASURE_WITH_UNIT(LENGTH_MEASURE(1.0),#45);
#31=DIMENSIONAL_EXPONENTS(1.0,0.0,0.0,0.0,0.0,0.0,0.0);
#33=DIMENSIONAL_EXPONENTS(0.0,0.0,0.0,0.0,0.0,0.0,0.0);
#39=PRODUCT_CONTEXT('',#9,'mechanical');
#40=PRODUCT_DEFINITION_FORMATION_WITH_SPECIFIED_SOURCE(' ','NONE',#22,.NOT_KNOWN.);
#41=CLOSED_SHELL('',(#46));
#42=CARTESIAN_POINT('',(0.0,0.0,0.0));
#43=DIRECTION('',(0.0,0.0,1.0));
#44=DIRECTION('',(1.0,0.0,0.0));
#45= (NAMED_UNIT(#31)LENGTH_UNIT()SI_UNIT(.MILLI.,.METRE.));
#46=FACE_SURFACE('',(#48),#49,.T.);
#48=FACE_BOUND('',#50,.T.);
#49=CYLINDRICAL_SURFACE('',#51,3.5514550381304);
#50=EDGE_LOOP('',(#52,#53,#54,#55));
#51=AXIS2_PLACEMENT_3D('',#56,#57,#58);
#52=ORIENTED_EDGE('',*,*,#59,.T.);
#53=ORIENTED_EDGE('',*,*,#60,.T.);
#54=ORIENTED_EDGE('',*,*,#61,.T.);
#55=ORIENTED_EDGE('',*,*,#62,.T.);
#56=CARTESIAN_POINT('',(-0.0205153083523875,0.000887855679030109,-3.55109121631544));
#57=DIRECTION('',(0.000104234722835889,0.999999963462107,0.000249421145638414));
#58=DIRECTION('',(0.0,0.000249421146993379,-0.999999968894545));
#59=EDGE_CURVE('',#63,#64,#65,.T.);
#60=EDGE_CURVE('',#64,#66,#67,.T.);
#61=EDGE_CURVE('',#66,#68,#69,.T.);
#62=EDGE_CURVE('',#68,#63,#70,.T.);
#63=VERTEX_POINT('',#71);
#64=VERTEX_POINT('',#72);
#65=LINE('',#73,#74);
#66=VERTEX_POINT('',#75);
#67=CIRCLE('',#76,3.55742201342847);
#68=VERTEX_POINT('',#77);
#69=LINE('',#78,#79);
#70=CIRCLE('',#80,3.55798671591195);
#71=CARTESIAN_POINT('',(1.00049686431885,3.14694420922024E-06,-0.14944389462471));
#72=CARTESIAN_POINT('',(1.0004940032959,0.100052580237389,-0.149416357278824));
#73=CARTESIAN_POINT('',(1.00049543380737,0.0500278635907989,-0.149254240095615));
#74=VECTOR('',#81,1.0);
#75=CARTESIAN_POINT('',(-2.16177116821982E-36,0.100000001490116,-4.06296691852118E-37));
#76=AXIS2_PLACEMENT_3D('',#82,#83,#84);
#77=CARTESIAN_POINT('',(-3.49473321658933E-37,-7.83886753306873E-38,1.51539120438122E-38));
#78=CARTESIAN_POINT('',(9.88503964497674E-35,0.0500000007450581,-6.38689473073683E-36));
#79=VECTOR('',#85,1.0);
#80=AXIS2_PLACEMENT_3D('',#86,#87,#88);
#81=DIRECTION('',(-2.7945003744389E-05,0.999999961732364,0.000275235074969949));
#82=CARTESIAN_POINT('',(-0.0217182341940718,0.0985094950084326,-3.55714730511768));
#83=DIRECTION('',(9.33751757448353E-05,-0.999999906784107,0.000421560023013365));
#84=DIRECTION('',(0.0,-0.00042156002485114,-0.999999911143569));
#85=DIRECTION('',(-0.0,-1.0,-0.0));
#86=CARTESIAN_POINT('',(-0.0219357232350804,3.71594075877118E-05,-3.55771428047395));
#87=DIRECTION('',(-2.30648092426881E-05,0.9999999995879,1.70942917705728E-05));
#88=DIRECTION('',(4.39274340476223E-26,1.70942917751197E-05,-0.999999999853893));
ENDSEC;
END-ISO-10303-21;
