ISO-10303-21;
HEADER;
FILE_DESCRIPTION(('STEP AP214'),'1');
FILE_NAME('SMAStripDeformed_04.stp','2026-01-09T02:47:39',(' '),(' '),'Spatial InterOp 3D',' ',' ');
FILE_SCHEMA(('AUTOMOTIVE_DESIGN { 1 0 10303 214 1 1 1 1 }'));
ENDSEC;
DATA;
#1=PRODUCT_DEFINITION_CONTEXT('',#9,'design');
#2=APPLICATION_PROTOCOL_DEFINITION('INTERNATIONAL STANDARD','automotive_design',1994,#9);
#3=PRODUCT_CATEGORY_RELATIONSHIP('NONE','NONE',#10,#11);
#4=SHAPE_DEFINITION_REPRESENTATION(#12,#13);
#5= (GEOMETRIC_REPRESENTATION_CONTEXT(3)GLOBAL_UNCERTAINTY_ASSIGNED_CONTEXT((#16))GLOBAL_UNIT_ASSIGNED_CONTEXT((#18,#19,#20))REPRESENTATION_CONTEXT('NONE','WORKSPACE'));
#9=APPLICATION_CONTEXT(' ');
#10=PRODUCT_CATEGORY('part','NONE');
#11=PRODUCT_RELATED_PRODUCT_CATEGORY('detail',' ',(#22));
#12=PRODUCT_DEFINITION_SHAPE('NONE','NONE',#23);
#13=MANIFOLD_SURFACE_SHAPE_REPRESENTATION('1',(#24,#25),#5);
#16=UNCERTAINTY_MEASURE_WITH_UNIT(LENGTH_MEASURE(1.0E-06),#18,'','');
#18= (CONVERSION_BASED_UNIT('MILLIMETRE',#28)LENGTH_UNIT()NAMED_UNIT(#31));
#19= (NAMED_UNIT(#33)PLANE_ANGLE_UNIT()SI_UNIT($,.RADIAN.));
#20= (NAMED_UNIT(#33)SOLID_ANGLE_UNIT()SI_UNIT($,.STERADIAN.));
#22=PRODUCT('1','','PART--DESC',(#39));
#23=PRODUCT_DEFINITION('','NONE',#40,#1);
#24=SHELL_BASED_SURFACE_MODEL('1',(#41));
#25=AXIS2_PLACEMENT_3D('',#42,#43,#44);
#28=LENGTH_MEASURE_WITH_UNIT(LENGTH_MEASURE(1.0),#45);
#31=DIMENSIONAL_EXPONENTS(1.0,0.0,0.0,0.0,0.0,0.0,0.0);
#33=DIMENSIONAL_EXPONENTS(0.0,0.0,0.0,0.0,0.0,0.0,0.0);
#39=PRODUCT_CONTEXT('',#9,'mechanical');
#40=PRODUCT_DEFINITION_FORMATION_WITH_SPECIFIED_SOURCE(' ','NONE',#22,.NOT_KNOWN.);
#41=CLOSED_SHELL('',(#46));
#42=CARTESIAN_POINT('',(0.0,0.0,0.0));
#43=DIRECTION('',(0.0,0.0,1.0));
#44=DIRECTION('',(1.0,0.0,0.0));
#45= (NAMED_UNIT(#31)LENGTH_UNIT()SI_UNIT(.MILLI.,.METRE.));
#46=FACE_SURFACE('',(#48),#49,.T.);
#48=FACE_BOUND('',#50,.T.);
#49=CYLINDRICAL_SURFACE('',#51,0.945385388543875);
#50=EDGE_LOOP('',(#52,#53,#54,#55,#56,#57));
#51=AXIS2_PLACEMENT_3D('',#58,#59,#60);
#52=ORIENTED_EDGE('',*,*,#61,.T.);
#53=ORIENTED_EDGE('',*,*,#62,.T.);
#54=ORIENTED_EDGE('',*,*,#63,.T.);
#55=ORIENTED_EDGE('',*,*,#64,.T.);
#56=ORIENTED_EDGE('',*,*,#65,.T.);
#57=ORIENTED_EDGE('',*,*,#66,.T.);
#58=CARTESIAN_POINT('',(-0.0390700028133939,3.932291350244E-05,-0.941613494660322));
#59=DIRECTION('',(0.000268345131763169,-0.999999962596475,-5.28955460144926E-05));
#60=DIRECTION('',(0.0,-5.28955479189733E-05,0.999999998601031));
#61=EDGE_CURVE('',#67,#68,#69,.T.);
#62=EDGE_CURVE('',#68,#70,#71,.T.);
#63=EDGE_CURVE('',#70,#72,#73,.T.);
#64=EDGE_CURVE('',#72,#74,#75,.T.);
#65=EDGE_CURVE('',#74,#76,#77,.T.);
#66=EDGE_CURVE('',#76,#67,#78,.T.);
#67=VERTEX_POINT('',#79);
#68=VERTEX_POINT('',#80);
#69=LINE('',#81,#82);
#70=VERTEX_POINT('',#83);
#71=LINE('',#84,#85);
#72=VERTEX_POINT('',#86);
#73=B_SPLINE_CURVE_WITH_KNOTS('',3,(#87,#88,#89,#90,#91,#92,#93,#94,#95,#96,#97,#98,#99,#100,#101,#102,#103,#104,#105,#106),.UNSPECIFIED.,.F.,.F.,(4,1,1,1,1,1,1,1,1,1,1,1,1,1,1,1,1,4),(0.0,0.132545264077754,0.265090528155508,0.397635792233263,0.530181056311017,0.662726320388771,0.728998952427648,0.795271584466525,0.861544216505403,0.894680532524841,0.92781684854428,0.960953164563718,0.994089480583157,1.0272257966026,1.03550987560746,1.04379395461231,1.05207803361717,1.06036211262203),.UNSPECIFIED.);
#74=VERTEX_POINT('',#107);
#75=CIRCLE('',#108,0.767344423688856);
#76=VERTEX_POINT('',#109);
#77=B_SPLINE_CURVE_WITH_KNOTS('',3,(#110,#111,#112,#113,#114,#115,#116,#117,#118,#119,#120),.UNSPECIFIED.,.F.,.F.,(4,1,1,1,1,1,1,1,4),(0.0,0.132521782235965,0.26504356447193,0.397565346707894,0.530087128943859,0.662608911179824,0.795130693415789,0.927652475651754,1.06017425788772),.UNSPECIFIED.);
#78=LINE('',#121,#122);
#79=CARTESIAN_POINT('',(-4.69947488601884E-34,0.0900188386440277,-4.45760659184384E-35));
#80=CARTESIAN_POINT('',(-6.65426172439196E-35,0.00998151209205389,-6.70111447261621E-35));
#81=CARTESIAN_POINT('',(1.83615431840807E-35,0.0500001753680408,8.21797054620737E-35));
#82=VECTOR('',#123,1.0);
#83=CARTESIAN_POINT('',(2.43730864895042E-05,-4.92869330628309E-05,0.00160094397142529));
#84=CARTESIAN_POINT('',(1.21865432447521E-05,0.00496611257949553,0.000800471985712647));
#85=VECTOR('',#124,1.0);
#86=CARTESIAN_POINT('',(0.831700801849365,-0.000138295159558766,-0.565479457378387));
#87=CARTESIAN_POINT('',(2.43730864895042E-05,-4.92869330628309E-05,0.00160094397142529));
#88=CARTESIAN_POINT('',(0.0441826911214197,-0.000157532340790365,0.000166134237210799));
#89=CARTESIAN_POINT('',(0.132332013551404,-6.86765348364641E-05,-0.00861136955383637));
#90=CARTESIAN_POINT('',(0.261175332255847,-0.00011787459761134,-0.0412657391034264));
#91=CARTESIAN_POINT('',(0.383929976708604,-0.000116430600060344,-0.0921559086846326));
#92=CARTESIAN_POINT('',(0.49814005981195,-0.000127230318037315,-0.160084141608078));
#93=CARTESIAN_POINT('',(0.584418998081378,-0.000130833184519934,-0.229475881489881));
#94=CARTESIAN_POINT('',(0.64723537110953,-0.000132830022884404,-0.291696274124743));
#95=CARTESIAN_POINT('',(0.69106809421104,-0.000133325339742664,-0.341453797432437));
#96=CARTESIAN_POINT('',(0.724731868448508,-0.00013291634529428,-0.385274075790684));
#97=CARTESIAN_POINT('',(0.749877038826907,-0.000132112933204259,-0.421609746562578));
#98=CARTESIAN_POINT('',(0.767835242349292,-0.000131221114223096,-0.449463653085669));
#99=CARTESIAN_POINT('',(0.784854035855571,-0.000130000505328289,-0.477900461718392));
#100=CARTESIAN_POINT('',(0.801019400021285,-0.000129955308903072,-0.506830325749319));
#101=CARTESIAN_POINT('',(0.812224265014367,-0.000125702733468558,-0.529027676931526));
#102=CARTESIAN_POINT('',(0.819719728227039,-0.00012677292379137,-0.543788076839985));
#103=CARTESIAN_POINT('',(0.823077349557334,-0.000120426066673827,-0.551387772051443));
#104=CARTESIAN_POINT('',(0.826669476442062,-0.000117851840355121,-0.55883825294477));
#105=CARTESIAN_POINT('',(0.830047154032489,-0.000131757759566543,-0.563268006863956));
#106=CARTESIAN_POINT('',(0.831700801849365,-0.000138295159558766,-0.565479457378387));
#107=CARTESIAN_POINT('',(0.830164313316345,0.100014925003052,-0.566142082214355));
#108=AXIS2_PLACEMENT_3D('',#125,#126,#127);
#109=CARTESIAN_POINT('',(4.04828606406227E-05,0.100024186074734,0.00158719415776432));
#110=CARTESIAN_POINT('',(0.830164313316345,0.100014925003052,-0.566142082214355));
#111=CARTESIAN_POINT('',(0.811723469568623,0.0999454552588561,-0.526001500270065));
#112=CARTESIAN_POINT('',(0.770136722162113,0.100050773799828,-0.447858126708156));
#113=CARTESIAN_POINT('',(0.692718683326075,0.100023833801357,-0.339925314090528));
#114=CARTESIAN_POINT('',(0.601620381847345,0.100046223136416,-0.243265941272576));
#115=CARTESIAN_POINT('',(0.498083945993903,0.100055500060037,-0.160029220844948));
#116=CARTESIAN_POINT('',(0.383886382329671,0.100061527642386,-0.0921317299564111));
#117=CARTESIAN_POINT('',(0.261147746320357,0.100081816583133,-0.0412520492767339));
#118=CARTESIAN_POINT('',(0.132322545582811,0.100030050907619,-0.00866378378548898));
#119=CARTESIAN_POINT('',(0.0441932959707567,0.100166353283275,0.000228979908247871));
#120=CARTESIAN_POINT('',(4.04828606406227E-05,0.100024186074734,0.00158719415776432));
#121=CARTESIAN_POINT('',(2.02414303203113E-05,0.0950215123593807,0.000793597078882158));
#122=VECTOR('',#128,1.0);
#123=DIRECTION('',(-0.0,-1.0,-0.0));
#124=DIRECTION('',(0.00239944954117264,-0.987498900837851,0.157607625088179));
#125=CARTESIAN_POINT('',(0.13775629097594,0.0442478435960971,-0.891406714121822));
#126=DIRECTION('',(-0.425199659041816,-0.000434920411140349,0.905099475635115));
#127=DIRECTION('',(-0.905099561237518,0.0,-0.425199699256304));
#128=DIRECTION('',(-0.00399612147002524,-0.987642252800326,-0.156674220906615));
ENDSEC;
END-ISO-10303-21;
