ISO-10303-21;
HEADER;
FILE_DESCRIPTION(('STEP AP214'),'1');
FILE_NAME('SMAStripDeformed_02.stp','2026-07-10T19:23:14',(' '),(' '),'Spatial InterOp 3D',' ',' ');
FILE_SCHEMA(('AUTOMOTIVE_DESIGN { 1 0 10303 214 1 1 1 1 }'));
ENDSEC;
DATA;
#1=PRODUCT_DEFINITION_CONTEXT('',#9,'design');
#2=APPLICATION_PROTOCOL_DEFINITION('INTERNATIONAL STANDARD','automotive_design',1994,#9);
#3=PRODUCT_CATEGORY_RELATIONSHIP('NONE','NONE',#10,#11);
#4=SHAPE_DEFINITION_REPRESENTATION(#12,#13);
#5= (GEOMETRIC_REPRESENTATION_CONTEXT(3)GLOBAL_UNCERTAINTY_ASSIGNED_CONTEXT((#16))GLOBAL_UNIT_ASSIGNED_CONTEXT((#18,#19,#20))REPRESENTATION_CONTEXT('NONE','WORKSPACE'));
#9=APPLICATION_CONTEXT(' ');
#10=PRODUCT_CATEGORY('part','NONE');
#11=PRODUCT_RELATED_PRODUCT_CATEGORY('detail',' ',(#22));
#12=PRODUCT_DEFINITION_SHAPE('NONE','NONE',#23);
#13=MANIFOLD_SURFACE_SHAPE_REPRESENTATION('1',(#24,#25),#5);
#16=UNCERTAINTY_MEASURE_WITH_UNIT(LENGTH_MEASURE(1.0E-06),#18,'','');
#18= (CONVERSION_BASED_UNIT('MILLIMETRE',#28)LENGTH_UNIT()NAMED_UNIT(#31));
#19= (NAMED_UNIT(#33)PLANE_ANGLE_UNIT()SI_UNIT($,.RADIAN.));
#20= (NAMED_UNIT(#33)SOLID_ANGLE_UNIT()SI_UNIT($,.STERADIAN.));
#22=PRODUCT('1','','PART--DESC',(#39));
#23=PRODUCT_DEFINITION('','NONE',#40,#1);
#24=SHELL_BASED_SURFACE_MODEL('1',(#41));
#25=AXIS2_PLACEMENT_3D('',#42,#43,#44);
#28=LENGTH_MEASURE_WITH_UNIT(LENGTH_MEASURE(1.0),#45);
#31=DIMENSIONAL_EXPONENTS(1.0,0.0,0.0,0.0,0.0,0.0,0.0);
#33=DIMENSIONAL_EXPONENTS(0.0,0.0,0.0,0.0,0.0,0.0,0.0);
#39=PRODUCT_CONTEXT('',#9,'mechanical');
#40=PRODUCT_DEFINITION_FORMATION_WITH_SPECIFIED_SOURCE(' ','NONE',#22,.NOT_KNOWN.);
#41=CLOSED_SHELL('',(#46));
#42=CARTESIAN_POINT('',(0.0,0.0,0.0));
#43=DIRECTION('',(0.0,0.0,1.0));
#44=DIRECTION('',(1.0,0.0,0.0));
#45= (NAMED_UNIT(#31)LENGTH_UNIT()SI_UNIT(.MILLI.,.METRE.));
#46=FACE_SURFACE('',(#48),#49,.T.);
#48=FACE_BOUND('',#50,.T.);
#49=CYLINDRICAL_SURFACE('',#51,2.06854602584854);
#50=EDGE_LOOP('',(#52,#53,#54,#55));
#51=AXIS2_PLACEMENT_3D('',#56,#57,#58);
#52=ORIENTED_EDGE('',*,*,#59,.T.);
#53=ORIENTED_EDGE('',*,*,#60,.T.);
#54=ORIENTED_EDGE('',*,*,#61,.T.);
#55=ORIENTED_EDGE('',*,*,#62,.T.);
#56=CARTESIAN_POINT('',(-0.0437233715014939,3.97168973261184E-05,-2.06674357736886));
#57=DIRECTION('',(6.60868725078244E-05,-0.999999997603768,-2.0615248893572E-05));
#58=DIRECTION('',(0.0,-2.06152489385903E-05,0.999999999787506));
#59=EDGE_CURVE('',#63,#64,#65,.T.);
#60=EDGE_CURVE('',#64,#66,#67,.T.);
#61=EDGE_CURVE('',#66,#68,#69,.T.);
#62=EDGE_CURVE('',#68,#63,#70,.T.);
#63=VERTEX_POINT('',#71);
#64=VERTEX_POINT('',#72);
#65=LINE('',#73,#74);
#66=VERTEX_POINT('',#75);
#67=B_SPLINE_CURVE_WITH_KNOTS('',3,(#76,#77,#78,#79,#80,#81,#82,#83,#84,#85,#86),.UNSPECIFIED.,.F.,.F.,(4,1,1,1,1,1,1,1,4),(0.0,0.1250831063958,0.250166212791599,0.375249319187399,0.500332425583199,0.625415531978998,0.750498638374798,0.875581744770598,1.0006648511664),.UNSPECIFIED.);
#68=VERTEX_POINT('',#87);
#69=LINE('',#88,#89);
#70=B_SPLINE_CURVE_WITH_KNOTS('',3,(#90,#91,#92,#93,#94,#95,#96,#97,#98,#99,#100),.UNSPECIFIED.,.F.,.F.,(4,1,1,1,1,1,1,1,4),(0.0,0.125083108153452,0.250166216306904,0.375249324460356,0.500332432613807,0.625415540767259,0.750498648920711,0.875581757074163,1.00066486522761),.UNSPECIFIED.);
#71=CARTESIAN_POINT('',(0.957452178001404,-2.98093164019519E-05,-0.25559213757515));
#72=CARTESIAN_POINT('',(0.957452178001404,0.100028678774834,-0.255592286586761));
#73=CARTESIAN_POINT('',(0.957571268081665,0.0499994347292159,-0.255360782146454));
#74=VECTOR('',#101,1.0);
#75=CARTESIAN_POINT('',(-3.74385179762967E-37,0.100000001490116,-4.71511732293719E-37));
#76=CARTESIAN_POINT('',(0.957452178001404,0.100028678774834,-0.255592286586761));
#77=CARTESIAN_POINT('',(0.920642940042781,0.100037000522152,-0.236009122359098));
#78=CARTESIAN_POINT('',(0.846093413273979,0.100030495221302,-0.198585299646021));
#79=CARTESIAN_POINT('',(0.731368414517974,0.100035004986731,-0.148623163588667));
#80=CARTESIAN_POINT('',(0.614045961383787,0.100035309558841,-0.105106764175904));
#81=CARTESIAN_POINT('',(0.49438418123179,0.100037918200017,-0.0684891766473711));
#82=CARTESIAN_POINT('',(0.372725164561543,0.100035248999011,-0.0391739114425675));
#83=CARTESIAN_POINT('',(0.249463198365681,0.100050984046472,-0.0175141506117513));
#84=CARTESIAN_POINT('',(0.125050242855091,0.0999984689346428,-0.00400784005283113));
#85=CARTESIAN_POINT('',(0.0416932021938897,0.100136795973488,-0.000280299130227717));
#86=CARTESIAN_POINT('',(-3.74385179762967E-37,0.100000001490116,-4.71511732293719E-37));
#87=CARTESIAN_POINT('',(-3.74738822653811E-37,1.59670392998106E-38,-4.71545497981515E-37));
#88=CARTESIAN_POINT('',(2.99446532954423E-34,0.0500000007450581,5.11478943795634E-35));
#89=VECTOR('',#102,1.0);
#90=CARTESIAN_POINT('',(-3.74738822653811E-37,1.59670392998106E-38,-4.71545497981515E-37));
#91=CARTESIAN_POINT('',(0.0416932031517688,-0.000136784378250327,-0.000280248727019444));
#92=CARTESIAN_POINT('',(0.125050257827225,1.44759204709666E-06,-0.00400762084719035));
#93=CARTESIAN_POINT('',(0.249463210100482,-5.12084780802665E-05,-0.0175139578378209));
#94=CARTESIAN_POINT('',(0.372725202659384,-3.56200026492992E-05,-0.039173600297977));
#95=CARTESIAN_POINT('',(0.494384151112431,-3.83163369988287E-05,-0.0684891381815105));
#96=CARTESIAN_POINT('',(0.614045988232101,-3.58887573263444E-05,-0.105106543482272));
#97=CARTESIAN_POINT('',(0.731368401167763,-3.57218940743392E-05,-0.148623062174498));
#98=CARTESIAN_POINT('',(0.846093426321775,-3.14709998570521E-05,-0.198585115907156));
#99=CARTESIAN_POINT('',(0.920643013576163,-3.80588031997337E-05,-0.236008833854089));
#100=CARTESIAN_POINT('',(0.957452178001404,-2.98093164019519E-05,-0.25559213757515));
#101=DIRECTION('',(-1.61979288963439E-11,0.99999999999868,-1.62464797127042E-06));
#102=DIRECTION('',(-0.0,-1.0,-0.0));
ENDSEC;
END-ISO-10303-21;
