ISO-10303-21;
HEADER;
FILE_DESCRIPTION(('STEP AP214'),'1');
FILE_NAME('SMAStripDeformed_03.stp','2026-07-16T19:36:06',(' '),(' '),'Spatial InterOp 3D',' ',' ');
FILE_SCHEMA(('AUTOMOTIVE_DESIGN { 1 0 10303 214 1 1 1 1 }'));
ENDSEC;
DATA;
#1=PRODUCT_DEFINITION_CONTEXT('',#9,'design');
#2=APPLICATION_PROTOCOL_DEFINITION('INTERNATIONAL STANDARD','automotive_design',1994,#9);
#3=PRODUCT_CATEGORY_RELATIONSHIP('NONE','NONE',#10,#11);
#4=SHAPE_DEFINITION_REPRESENTATION(#12,#13);
#5= (GEOMETRIC_REPRESENTATION_CONTEXT(3)GLOBAL_UNCERTAINTY_ASSIGNED_CONTEXT((#16))GLOBAL_UNIT_ASSIGNED_CONTEXT((#18,#19,#20))REPRESENTATION_CONTEXT('NONE','WORKSPACE'));
#9=APPLICATION_CONTEXT(' ');
#10=PRODUCT_CATEGORY('part','NONE');
#11=PRODUCT_RELATED_PRODUCT_CATEGORY('detail',' ',(#22));
#12=PRODUCT_DEFINITION_SHAPE('NONE','NONE',#23);
#13=MANIFOLD_SURFACE_SHAPE_REPRESENTATION('1',(#24,#25),#5);
#16=UNCERTAINTY_MEASURE_WITH_UNIT(LENGTH_MEASURE(1.0E-06),#18,'','');
#18= (CONVERSION_BASED_UNIT('MILLIMETRE',#28)LENGTH_UNIT()NAMED_UNIT(#31));
#19= (NAMED_UNIT(#33)PLANE_ANGLE_UNIT()SI_UNIT($,.RADIAN.));
#20= (NAMED_UNIT(#33)SOLID_ANGLE_UNIT()SI_UNIT($,.STERADIAN.));
#22=PRODUCT('1','','PART--DESC',(#39));
#23=PRODUCT_DEFINITION('','NONE',#40,#1);
#24=SHELL_BASED_SURFACE_MODEL('1',(#41));
#25=AXIS2_PLACEMENT_3D('',#42,#43,#44);
#28=LENGTH_MEASURE_WITH_UNIT(LENGTH_MEASURE(1.0),#45);
#31=DIMENSIONAL_EXPONENTS(1.0,0.0,0.0,0.0,0.0,0.0,0.0);
#33=DIMENSIONAL_EXPONENTS(0.0,0.0,0.0,0.0,0.0,0.0,0.0);
#39=PRODUCT_CONTEXT('',#9,'mechanical');
#40=PRODUCT_DEFINITION_FORMATION_WITH_SPECIFIED_SOURCE(' ','NONE',#22,.NOT_KNOWN.);
#41=CLOSED_SHELL('',(#46));
#42=CARTESIAN_POINT('',(0.0,0.0,0.0));
#43=DIRECTION('',(0.0,0.0,1.0));
#44=DIRECTION('',(1.0,0.0,0.0));
#45= (NAMED_UNIT(#31)LENGTH_UNIT()SI_UNIT(.MILLI.,.METRE.));
#46=FACE_SURFACE('',(#48),#49,.T.);
#48=FACE_BOUND('',#50,.T.);
#49=CYLINDRICAL_SURFACE('',#51,0.798204056848909);
#50=EDGE_LOOP('',(#52,#53,#54,#55));
#51=AXIS2_PLACEMENT_3D('',#56,#57,#58);
#52=ORIENTED_EDGE('',*,*,#59,.T.);
#53=ORIENTED_EDGE('',*,*,#60,.T.);
#54=ORIENTED_EDGE('',*,*,#61,.T.);
#55=ORIENTED_EDGE('',*,*,#62,.T.);
#56=CARTESIAN_POINT('',(-0.06734780314402,3.90177231334299E-05,-0.789853332376301));
#57=DIRECTION('',(-4.3010446118109E-05,0.999999997667049,5.30660309923846E-05));
#58=DIRECTION('',(0.0,5.3066031041468E-05,-0.999999998591998));
#59=EDGE_CURVE('',#63,#64,#65,.T.);
#60=EDGE_CURVE('',#64,#66,#67,.T.);
#61=EDGE_CURVE('',#66,#68,#69,.T.);
#62=EDGE_CURVE('',#68,#63,#70,.T.);
#63=VERTEX_POINT('',#71);
#64=VERTEX_POINT('',#72);
#65=LINE('',#73,#74);
#66=VERTEX_POINT('',#75);
#67=B_SPLINE_CURVE_WITH_KNOTS('',3,(#76,#77,#78,#79,#80,#81,#82,#83,#84,#85,#86,#87),.UNSPECIFIED.,.F.,.F.,(4,1,1,1,1,1,1,1,1,4),(0.0,0.125142681893348,0.250285363786696,0.375428045680043,0.500570727573391,0.625713409466739,0.750856091360087,0.875998773253435,0.938570114200109,1.00114145514678),.UNSPECIFIED.);
#68=VERTEX_POINT('',#88);
#69=LINE('',#89,#90);
#70=B_SPLINE_CURVE_WITH_KNOTS('',3,(#91,#92,#93,#94,#95,#96,#97,#98,#99,#100,#101,#102),.UNSPECIFIED.,.F.,.F.,(4,1,1,1,1,1,1,1,1,4),(0.0,0.0625713125418408,0.125142625083682,0.250285250167363,0.375427875251045,0.500570500334726,0.625713125418408,0.750855750502089,0.875998375585771,1.00114100066945),.UNSPECIFIED.);
#71=CARTESIAN_POINT('',(0.713041186332703,-5.45805087313056E-05,-0.606794953346252));
#72=CARTESIAN_POINT('',(0.713041305541992,0.100051179528236,-0.606795251369476));
#73=CARTESIAN_POINT('',(0.713689506053925,0.0499982995097525,-0.606584787368774));
#74=VECTOR('',#103,1.0);
#75=CARTESIAN_POINT('',(-5.7941754897282E-33,0.100000001490116,-1.6190021245738E-33));
#76=CARTESIAN_POINT('',(0.713041305541992,0.100051179528236,-0.606795251369476));
#77=CARTESIAN_POINT('',(0.701568171052817,0.100106679638935,-0.566689879362947));
#78=CARTESIAN_POINT('',(0.673581685356456,0.100057968463339,-0.487903941948434));
#79=CARTESIAN_POINT('',(0.615631271060395,0.100080784426113,-0.376635755887234));
#80=CARTESIAN_POINT('',(0.542763291992787,0.100077605638326,-0.274511236733619));
#81=CARTESIAN_POINT('',(0.455784677294657,0.100084343764764,-0.184040729575965));
#82=CARTESIAN_POINT('',(0.355755365936144,0.100089693076142,-0.108164054060846));
#83=CARTESIAN_POINT('',(0.24454705279918,0.100088470258042,-0.0498022925937926));
#84=CARTESIAN_POINT('',(0.144783100636263,0.100110294486011,-0.0179746907224977));
#85=CARTESIAN_POINT('',(0.0624819409651499,0.100089091040744,-0.00382853053245275));
#86=CARTESIAN_POINT('',(0.0208521717735036,0.100203596034707,-0.000405797181456259));
#87=CARTESIAN_POINT('',(-5.7941754897282E-33,0.100000001490116,-1.6190021245738E-33));
#88=CARTESIAN_POINT('',(-5.79283432414231E-33,-5.13203825635122E-33,-1.61862559903955E-33));
#89=CARTESIAN_POINT('',(4.60409163770748E-31,0.0500000007450581,9.06576508184673E-32));
#90=VECTOR('',#104,1.0);
#91=CARTESIAN_POINT('',(-5.79283432414231E-33,-5.13203825635122E-33,-1.61862559903955E-33));
#92=CARTESIAN_POINT('',(0.0208521642809146,-0.000203545323105428,-0.000405720228924569));
#93=CARTESIAN_POINT('',(0.0624819588195692,-8.9197787533747E-05,-0.00382802390203365));
#94=CARTESIAN_POINT('',(0.14478301606599,-0.000110312343058636,-0.0179746256985941));
#95=CARTESIAN_POINT('',(0.24454683564578,-8.85365930834677E-05,-0.0498023677634389));
#96=CARTESIAN_POINT('',(0.35575515636257,-8.9990375564839E-05,-0.108164003968405));
#97=CARTESIAN_POINT('',(0.455784748117008,-8.50204594006645E-05,-0.184040291974182));
#98=CARTESIAN_POINT('',(0.542762317104724,-7.83645243482846E-05,-0.274511660323211));
#99=CARTESIAN_POINT('',(0.615630846159725,-8.22912289073865E-05,-0.376635735171446));
#100=CARTESIAN_POINT('',(0.673581923989006,-6.05931538403901E-05,-0.487903580046811));
#101=CARTESIAN_POINT('',(0.701567761750323,-0.000109785056743693,-0.566689683617522));
#102=CARTESIAN_POINT('',(0.713041186332703,-5.45805087313056E-05,-0.606794953346252));
#103=DIRECTION('',(1.99742738724561E-06,0.999999999993569,-2.97855321040682E-06));
#104=DIRECTION('',(-0.0,-1.0,-0.0));
ENDSEC;
END-ISO-10303-21;
