ISO-10303-21;
HEADER;
FILE_DESCRIPTION(('STEP AP214'),'1');
FILE_NAME('SMAStripDeformed_04.stp','2026-07-16T19:37:25',(' '),(' '),'Spatial InterOp 3D',' ',' ');
FILE_SCHEMA(('AUTOMOTIVE_DESIGN { 1 0 10303 214 1 1 1 1 }'));
ENDSEC;
DATA;
#1=PRODUCT_DEFINITION_CONTEXT('',#9,'design');
#2=APPLICATION_PROTOCOL_DEFINITION('INTERNATIONAL STANDARD','automotive_design',1994,#9);
#3=PRODUCT_CATEGORY_RELATIONSHIP('NONE','NONE',#10,#11);
#4=SHAPE_DEFINITION_REPRESENTATION(#12,#13);
#5= (GEOMETRIC_REPRESENTATION_CONTEXT(3)GLOBAL_UNCERTAINTY_ASSIGNED_CONTEXT((#16))GLOBAL_UNIT_ASSIGNED_CONTEXT((#18,#19,#20))REPRESENTATION_CONTEXT('NONE','WORKSPACE'));
#9=APPLICATION_CONTEXT(' ');
#10=PRODUCT_CATEGORY('part','NONE');
#11=PRODUCT_RELATED_PRODUCT_CATEGORY('detail',' ',(#22));
#12=PRODUCT_DEFINITION_SHAPE('NONE','NONE',#23);
#13=MANIFOLD_SURFACE_SHAPE_REPRESENTATION('1',(#24,#25),#5);
#16=UNCERTAINTY_MEASURE_WITH_UNIT(LENGTH_MEASURE(1.0E-06),#18,'','');
#18= (CONVERSION_BASED_UNIT('MILLIMETRE',#28)LENGTH_UNIT()NAMED_UNIT(#31));
#19= (NAMED_UNIT(#33)PLANE_ANGLE_UNIT()SI_UNIT($,.RADIAN.));
#20= (NAMED_UNIT(#33)SOLID_ANGLE_UNIT()SI_UNIT($,.STERADIAN.));
#22=PRODUCT('1','','PART--DESC',(#39));
#23=PRODUCT_DEFINITION('','NONE',#40,#1);
#24=SHELL_BASED_SURFACE_MODEL('1',(#41));
#25=AXIS2_PLACEMENT_3D('',#42,#43,#44);
#28=LENGTH_MEASURE_WITH_UNIT(LENGTH_MEASURE(1.0),#45);
#31=DIMENSIONAL_EXPONENTS(1.0,0.0,0.0,0.0,0.0,0.0,0.0);
#33=DIMENSIONAL_EXPONENTS(0.0,0.0,0.0,0.0,0.0,0.0,0.0);
#39=PRODUCT_CONTEXT('',#9,'mechanical');
#40=PRODUCT_DEFINITION_FORMATION_WITH_SPECIFIED_SOURCE(' ','NONE',#22,.NOT_KNOWN.);
#41=CLOSED_SHELL('',(#46));
#42=CARTESIAN_POINT('',(0.0,0.0,0.0));
#43=DIRECTION('',(0.0,0.0,1.0));
#44=DIRECTION('',(1.0,0.0,0.0));
#45= (NAMED_UNIT(#31)LENGTH_UNIT()SI_UNIT(.MILLI.,.METRE.));
#46=FACE_SURFACE('',(#48),#49,.T.);
#48=FACE_BOUND('',#50,.T.);
#49=CYLINDRICAL_SURFACE('',#51,0.595108671202151);
#50=EDGE_LOOP('',(#52,#53,#54,#55));
#51=AXIS2_PLACEMENT_3D('',#56,#57,#58);
#52=ORIENTED_EDGE('',*,*,#59,.T.);
#53=ORIENTED_EDGE('',*,*,#60,.T.);
#54=ORIENTED_EDGE('',*,*,#61,.T.);
#55=ORIENTED_EDGE('',*,*,#62,.T.);
#56=CARTESIAN_POINT('',(-0.109157457819819,3.50049617792751E-05,-0.57191350356487));
#57=DIRECTION('',(-1.53135370281233E-05,0.999999997826449,6.41295375831075E-05));
#58=DIRECTION('',(1.7436909968886E-25,6.41295375906268E-05,-0.999999997943701));
#59=EDGE_CURVE('',#63,#64,#65,.T.);
#60=EDGE_CURVE('',#64,#66,#67,.T.);
#61=EDGE_CURVE('',#66,#68,#69,.T.);
#62=EDGE_CURVE('',#68,#63,#70,.T.);
#63=VERTEX_POINT('',#71);
#64=VERTEX_POINT('',#72);
#65=LINE('',#73,#74);
#66=VERTEX_POINT('',#75);
#67=B_SPLINE_CURVE_WITH_KNOTS('',3,(#76,#77,#78,#79,#80,#81,#82,#83,#84,#85,#86,#87),.UNSPECIFIED.,.F.,.F.,(4,1,1,1,1,1,1,1,1,4),(0.0,0.125144140179972,0.250288280359943,0.375432420539915,0.500576560719886,0.625720700899858,0.75086484107983,0.876008981259801,0.938581051349787,1.00115312143977),.UNSPECIFIED.);
#68=VERTEX_POINT('',#88);
#69=LINE('',#89,#90);
#70=B_SPLINE_CURVE_WITH_KNOTS('',3,(#91,#92,#93,#94,#95,#96,#97,#98,#99,#100,#101,#102),.UNSPECIFIED.,.F.,.F.,(4,1,1,1,1,1,1,1,1,4),(0.0,0.0625719316286415,0.125143863257283,0.250287726514566,0.375431589771849,0.500575453029132,0.625719316286415,0.750863179543699,0.876007042800982,1.00115090605826),.UNSPECIFIED.);
#71=CARTESIAN_POINT('',(0.469270706176758,-5.41052540938836E-05,-0.751358389854431));
#72=CARTESIAN_POINT('',(0.469271540641785,0.100049458444118,-0.751359283924103));
#73=CARTESIAN_POINT('',(0.46995821595192,0.0499976765950123,-0.751446574926376));
#74=VECTOR('',#103,1.0);
#75=CARTESIAN_POINT('',(-1.05340846263504E-32,0.100000001490116,-2.60499760249392E-33));
#76=CARTESIAN_POINT('',(0.469271540641785,0.100049458444118,-0.751359283924103));
#77=CARTESIAN_POINT('',(0.476065272611859,0.100107842688493,-0.710201549405717));
#78=CARTESIAN_POINT('',(0.484480086404398,0.100063590984438,-0.627004791650929));
#79=CARTESIAN_POINT('',(0.478757733459024,0.100083847285554,-0.501629183053607));
#80=CARTESIAN_POINT('',(0.4530761349623,0.100107610943942,-0.378639200589924));
#81=CARTESIAN_POINT('',(0.403435729735099,0.100109640765742,-0.263010100372367));
#82=CARTESIAN_POINT('',(0.330612052076042,0.100119032909536,-0.160326351928677));
#83=CARTESIAN_POINT('',(0.236423430692097,0.10012187746889,-0.0765929413453013));
#84=CARTESIAN_POINT('',(0.142957620072484,0.100163107193891,-0.0282844314118104));
#85=CARTESIAN_POINT('',(0.0623537817233969,0.100131580682796,-0.006008153378155));
#86=CARTESIAN_POINT('',(0.0208451277567269,0.100331974110011,-0.000632274748163428));
#87=CARTESIAN_POINT('',(-1.05340846263504E-32,0.100000001490116,-2.60499760249392E-33));
#88=CARTESIAN_POINT('',(-1.05331824344362E-32,-8.94437986176097E-33,-2.60475497311307E-33));
#89=CARTESIAN_POINT('',(8.07198617093839E-31,0.0500000007450581,2.44644871708389E-31));
#90=VECTOR('',#104,1.0);
#91=CARTESIAN_POINT('',(-1.05331824344362E-32,-8.94437986176097E-33,-2.60475497311307E-33));
#92=CARTESIAN_POINT('',(0.0208450843843778,-0.00033192577385731,-0.000632206747014433));
#93=CARTESIAN_POINT('',(0.0623537719145334,-0.000131713986521232,-0.00600754288735676));
#94=CARTESIAN_POINT('',(0.142957046749059,-0.000163069776688047,-0.0282846141904803));
#95=CARTESIAN_POINT('',(0.23642407474035,-0.000122018759229418,-0.0765917994686863));
#96=CARTESIAN_POINT('',(0.330608819743581,-0.000118346857849837,-0.160327083514216));
#97=CARTESIAN_POINT('',(0.403436742447688,-0.000109669871173464,-0.263008028944458));
#98=CARTESIAN_POINT('',(0.453072959751836,-0.000106761059515069,-0.378638642140508));
#99=CARTESIAN_POINT('',(0.478752458629214,-8.3587516636303E-05,-0.501629433021703));
#100=CARTESIAN_POINT('',(0.484480086118481,-6.64178837111996E-05,-0.627003989380096));
#101=CARTESIAN_POINT('',(0.476064734327769,-0.000111971376473786,-0.710200797051599));
#102=CARTESIAN_POINT('',(0.469270706176758,-5.41052540938836E-05,-0.751358389854431));
#103=DIRECTION('',(8.54514630105026E-06,0.999999999922155,-9.09229323404701E-06));
#104=DIRECTION('',(-0.0,-1.0,-0.0));
ENDSEC;
END-ISO-10303-21;
