ISO-10303-21;
HEADER;
FILE_DESCRIPTION(('STEP AP214'),'1');
FILE_NAME('SMAStripDeformed_05.stp','2026-07-20T18:01:52',(' '),(' '),'Spatial InterOp 3D',' ',' ');
FILE_SCHEMA(('AUTOMOTIVE_DESIGN { 1 0 10303 214 1 1 1 1 }'));
ENDSEC;
DATA;
#1=PRODUCT_DEFINITION_CONTEXT('',#9,'design');
#2=APPLICATION_PROTOCOL_DEFINITION('INTERNATIONAL STANDARD','automotive_design',1994,#9);
#3=PRODUCT_CATEGORY_RELATIONSHIP('NONE','NONE',#10,#11);
#4=SHAPE_DEFINITION_REPRESENTATION(#12,#13);
#5= (GEOMETRIC_REPRESENTATION_CONTEXT(3)GLOBAL_UNCERTAINTY_ASSIGNED_CONTEXT((#16))GLOBAL_UNIT_ASSIGNED_CONTEXT((#18,#19,#20))REPRESENTATION_CONTEXT('NONE','WORKSPACE'));
#9=APPLICATION_CONTEXT(' ');
#10=PRODUCT_CATEGORY('part','NONE');
#11=PRODUCT_RELATED_PRODUCT_CATEGORY('detail',' ',(#22));
#12=PRODUCT_DEFINITION_SHAPE('NONE','NONE',#23);
#13=MANIFOLD_SURFACE_SHAPE_REPRESENTATION('1',(#24,#25),#5);
#16=UNCERTAINTY_MEASURE_WITH_UNIT(LENGTH_MEASURE(1.0E-06),#18,'','');
#18= (CONVERSION_BASED_UNIT('MILLIMETRE',#28)LENGTH_UNIT()NAMED_UNIT(#31));
#19= (NAMED_UNIT(#33)PLANE_ANGLE_UNIT()SI_UNIT($,.RADIAN.));
#20= (NAMED_UNIT(#33)SOLID_ANGLE_UNIT()SI_UNIT($,.STERADIAN.));
#22=PRODUCT('1','','PART--DESC',(#39));
#23=PRODUCT_DEFINITION('','NONE',#40,#1);
#24=SHELL_BASED_SURFACE_MODEL('1',(#41));
#25=AXIS2_PLACEMENT_3D('',#42,#43,#44);
#28=LENGTH_MEASURE_WITH_UNIT(LENGTH_MEASURE(1.0),#45);
#31=DIMENSIONAL_EXPONENTS(1.0,0.0,0.0,0.0,0.0,0.0,0.0);
#33=DIMENSIONAL_EXPONENTS(0.0,0.0,0.0,0.0,0.0,0.0,0.0);
#39=PRODUCT_CONTEXT('',#9,'mechanical');
#40=PRODUCT_DEFINITION_FORMATION_WITH_SPECIFIED_SOURCE(' ','NONE',#22,.NOT_KNOWN.);
#41=CLOSED_SHELL('',(#46));
#42=CARTESIAN_POINT('',(0.0,0.0,0.0));
#43=DIRECTION('',(0.0,0.0,1.0));
#44=DIRECTION('',(1.0,0.0,0.0));
#45= (NAMED_UNIT(#31)LENGTH_UNIT()SI_UNIT(.MILLI.,.METRE.));
#46=FACE_SURFACE('',(#48),#49,.T.);
#48=FACE_BOUND('',#50,.T.);
#49=CYLINDRICAL_SURFACE('',#51,1.28527301891187);
#50=EDGE_LOOP('',(#52,#53,#54,#55));
#51=AXIS2_PLACEMENT_3D('',#56,#57,#58);
#52=ORIENTED_EDGE('',*,*,#59,.T.);
#53=ORIENTED_EDGE('',*,*,#60,.T.);
#54=ORIENTED_EDGE('',*,*,#61,.T.);
#55=ORIENTED_EDGE('',*,*,#62,.T.);
#56=CARTESIAN_POINT('',(-0.140938350346202,8.71930176768274E-05,-1.26968215220191));
#57=DIRECTION('',(0.000165900264482566,-0.999999982446347,-8.70885066438395E-05));
#58=DIRECTION('',(0.0,-8.70885078423035E-05,0.999999996207796));
#59=EDGE_CURVE('',#63,#64,#65,.T.);
#60=EDGE_CURVE('',#64,#66,#67,.T.);
#61=EDGE_CURVE('',#66,#68,#69,.T.);
#62=EDGE_CURVE('',#68,#63,#70,.T.);
#63=VERTEX_POINT('',#71);
#64=VERTEX_POINT('',#72);
#65=LINE('',#73,#74);
#66=VERTEX_POINT('',#75);
#67=B_SPLINE_CURVE_WITH_KNOTS('',3,(#76,#77,#78,#79,#80,#81,#82,#83,#84,#85,#86,#87),.UNSPECIFIED.,.F.,.F.,(4,1,1,1,1,1,1,1,1,4),(0.0,0.125116269749001,0.250232539498001,0.375348809247002,0.500465078996002,0.625581348745003,0.750697618494003,0.875813888243004,0.938372023117504,1.000930157992),.UNSPECIFIED.);
#68=VERTEX_POINT('',#88);
#69=LINE('',#89,#90);
#70=B_SPLINE_CURVE_WITH_KNOTS('',3,(#91,#92,#93,#94,#95,#96,#97,#98,#99,#100,#101,#102),.UNSPECIFIED.,.F.,.F.,(4,1,1,1,1,1,1,1,1,4),(0.0,0.062558566584519,0.125117133169038,0.250234266338076,0.375351399507114,0.500468532676152,0.62558566584519,0.750702799014228,0.875819932183266,1.0009370653523),.UNSPECIFIED.);
#71=CARTESIAN_POINT('',(0.861316561698914,-4.9902533646673E-05,-0.456647783517838));
#72=CARTESIAN_POINT('',(0.861314058303833,0.100018262863159,-0.456641227006912));
#73=CARTESIAN_POINT('',(0.861552953720093,0.0499841801647563,-0.456418082118034));
#74=VECTOR('',#103,1.0);
#75=CARTESIAN_POINT('',(-4.12489453303386E-33,0.100000001490116,-1.19096560135354E-33));
#76=CARTESIAN_POINT('',(0.861314058303833,0.100018262863159,-0.456641227006912));
#77=CARTESIAN_POINT('',(0.832999862240679,0.100028895826026,-0.426020180051081));
#78=CARTESIAN_POINT('',(0.774642272793759,0.10002252984782,-0.366358429414247));
#79=CARTESIAN_POINT('',(0.680729628139229,0.100039505105819,-0.283552650506837));
#80=CARTESIAN_POINT('',(0.580850725731751,0.100045969136222,-0.208046875814647));
#81=CARTESIAN_POINT('',(0.475309738647737,0.100054396394032,-0.140642083038534));
#82=CARTESIAN_POINT('',(0.363878275277966,0.100063577840051,-0.083386295963177));
#83=CARTESIAN_POINT('',(0.246775451607514,0.10006722255397,-0.0387222146324142));
#84=CARTESIAN_POINT('',(0.145230869118547,0.100087486123103,-0.0140217712832552));
#85=CARTESIAN_POINT('',(0.062502446558943,0.100072529140846,-0.0030041297021726));
#86=CARTESIAN_POINT('',(0.0208496675555731,0.100159042377022,-0.000318827424854427));
#87=CARTESIAN_POINT('',(-4.12489453303386E-33,0.100000001490116,-1.19096560135354E-33));
#88=CARTESIAN_POINT('',(-4.12401291227074E-33,-3.78121378031601E-33,-1.19047143454871E-33));
#89=CARTESIAN_POINT('',(8.47569418920288E-31,0.0500000007450581,1.68101193481149E-31));
#90=VECTOR('',#104,1.0);
#91=CARTESIAN_POINT('',(-4.12401291227074E-33,-3.78121378031601E-33,-1.19047143454871E-33));
#92=CARTESIAN_POINT('',(0.0208498127368814,-0.000159010870309831,-0.000318760190358898));
#93=CARTESIAN_POINT('',(0.0625028897311171,-7.25762372829156E-05,-0.00300392280922502));
#94=CARTESIAN_POINT('',(0.145231892789401,-8.76233560989585E-05,-0.0140216947366535));
#95=CARTESIAN_POINT('',(0.246776909073679,-6.75026217884846E-05,-0.0387231824392862));
#96=CARTESIAN_POINT('',(0.363881101800719,-6.4850519983961E-05,-0.0833862604278411));
#97=CARTESIAN_POINT('',(0.475311420074434,-5.54230901711668E-05,-0.14064660488849));
#98=CARTESIAN_POINT('',(0.580848063376627,-4.85407940931495E-05,-0.208058940031022));
#99=CARTESIAN_POINT('',(0.680730437170717,-5.35071794477578E-05,-0.283563057666513));
#100=CARTESIAN_POINT('',(0.774644353747927,-5.45017740067398E-05,-0.366364142778527));
#101=CARTESIAN_POINT('',(0.833043960767997,-6.67959131849242E-05,-0.425987938672661));
#102=CARTESIAN_POINT('',(0.861316561698914,-4.9902533646673E-05,-0.456647783517838));
#103=DIRECTION('',(-7.16493512730052E-05,0.999999997234411,1.99386452940404E-05));
#104=DIRECTION('',(-0.0,-1.0,-0.0));
ENDSEC;
END-ISO-10303-21;
