ISO-10303-21;
HEADER;
FILE_DESCRIPTION(('STEP AP214'),'1');
FILE_NAME('SMAStripDeformed_04.stp','2026-07-20T18:00:49',(' '),(' '),'Spatial InterOp 3D',' ',' ');
FILE_SCHEMA(('AUTOMOTIVE_DESIGN { 1 0 10303 214 1 1 1 1 }'));
ENDSEC;
DATA;
#1=PRODUCT_DEFINITION_CONTEXT('',#9,'design');
#2=APPLICATION_PROTOCOL_DEFINITION('INTERNATIONAL STANDARD','automotive_design',1994,#9);
#3=PRODUCT_CATEGORY_RELATIONSHIP('NONE','NONE',#10,#11);
#4=SHAPE_DEFINITION_REPRESENTATION(#12,#13);
#5= (GEOMETRIC_REPRESENTATION_CONTEXT(3)GLOBAL_UNCERTAINTY_ASSIGNED_CONTEXT((#16))GLOBAL_UNIT_ASSIGNED_CONTEXT((#18,#19,#20))REPRESENTATION_CONTEXT('NONE','WORKSPACE'));
#9=APPLICATION_CONTEXT(' ');
#10=PRODUCT_CATEGORY('part','NONE');
#11=PRODUCT_RELATED_PRODUCT_CATEGORY('detail',' ',(#22));
#12=PRODUCT_DEFINITION_SHAPE('NONE','NONE',#23);
#13=MANIFOLD_SURFACE_SHAPE_REPRESENTATION('1',(#24,#25),#5);
#16=UNCERTAINTY_MEASURE_WITH_UNIT(LENGTH_MEASURE(1.0E-06),#18,'','');
#18= (CONVERSION_BASED_UNIT('MILLIMETRE',#28)LENGTH_UNIT()NAMED_UNIT(#31));
#19= (NAMED_UNIT(#33)PLANE_ANGLE_UNIT()SI_UNIT($,.RADIAN.));
#20= (NAMED_UNIT(#33)SOLID_ANGLE_UNIT()SI_UNIT($,.STERADIAN.));
#22=PRODUCT('1','','PART--DESC',(#39));
#23=PRODUCT_DEFINITION('','NONE',#40,#1);
#24=SHELL_BASED_SURFACE_MODEL('1',(#41));
#25=AXIS2_PLACEMENT_3D('',#42,#43,#44);
#28=LENGTH_MEASURE_WITH_UNIT(LENGTH_MEASURE(1.0),#45);
#31=DIMENSIONAL_EXPONENTS(1.0,0.0,0.0,0.0,0.0,0.0,0.0);
#33=DIMENSIONAL_EXPONENTS(0.0,0.0,0.0,0.0,0.0,0.0,0.0);
#39=PRODUCT_CONTEXT('',#9,'mechanical');
#40=PRODUCT_DEFINITION_FORMATION_WITH_SPECIFIED_SOURCE(' ','NONE',#22,.NOT_KNOWN.);
#41=CLOSED_SHELL('',(#46));
#42=CARTESIAN_POINT('',(0.0,0.0,0.0));
#43=DIRECTION('',(0.0,0.0,1.0));
#44=DIRECTION('',(1.0,0.0,0.0));
#45= (NAMED_UNIT(#31)LENGTH_UNIT()SI_UNIT(.MILLI.,.METRE.));
#46=FACE_SURFACE('',(#48),#49,.T.);
#48=FACE_BOUND('',#50,.T.);
#49=CYLINDRICAL_SURFACE('',#51,1.40443552936762);
#50=EDGE_LOOP('',(#52,#53,#54,#55));
#51=AXIS2_PLACEMENT_3D('',#56,#57,#58);
#52=ORIENTED_EDGE('',*,*,#59,.T.);
#53=ORIENTED_EDGE('',*,*,#60,.T.);
#54=ORIENTED_EDGE('',*,*,#61,.T.);
#55=ORIENTED_EDGE('',*,*,#62,.T.);
#56=CARTESIAN_POINT('',(-0.111903537930073,7.97451701499982E-05,-1.39426544460455));
#57=DIRECTION('',(0.000199609916803787,-0.999999977397666,-7.32157739907919E-05));
#58=DIRECTION('',(1.92619651207632E-24,-7.32157754494009E-05,0.999999997319725));
#59=EDGE_CURVE('',#63,#64,#65,.T.);
#60=EDGE_CURVE('',#64,#66,#67,.T.);
#61=EDGE_CURVE('',#66,#68,#69,.T.);
#62=EDGE_CURVE('',#68,#63,#70,.T.);
#63=VERTEX_POINT('',#71);
#64=VERTEX_POINT('',#72);
#65=LINE('',#73,#74);
#66=VERTEX_POINT('',#75);
#67=B_SPLINE_CURVE_WITH_KNOTS('',3,(#76,#77,#78,#79,#80,#81,#82,#83,#84,#85,#86,#87),.UNSPECIFIED.,.F.,.F.,(4,1,1,1,1,1,1,1,1,4),(0.0,0.125109111668843,0.250218223337686,0.37532733500653,0.500436446675373,0.625545558344216,0.750654670013059,0.875763781681902,0.938318337516324,1.00087289335075),.UNSPECIFIED.);
#68=VERTEX_POINT('',#88);
#69=LINE('',#89,#90);
#70=B_SPLINE_CURVE_WITH_KNOTS('',3,(#91,#92,#93,#94,#95,#96,#97,#98,#99,#100,#101,#102),.UNSPECIFIED.,.F.,.F.,(4,1,1,1,1,1,1,1,1,4),(0.0,0.0625551757482214,0.125110351496443,0.250220702992885,0.375331054489328,0.500441405985771,0.625551757482214,0.750662108978656,0.875772460475099,1.00088281197154),.UNSPECIFIED.);
#71=CARTESIAN_POINT('',(0.891577780246735,-3.22551350109279E-05,-0.405512899160385));
#72=CARTESIAN_POINT('',(0.891572058200836,0.100032560527325,-0.405506402254105));
#73=CARTESIAN_POINT('',(0.891775518655777,0.0500001526961569,-0.405281454324722));
#74=VECTOR('',#103,1.0);
#75=CARTESIAN_POINT('',(-3.16359619142451E-33,0.100000001490116,-9.37220360213664E-34));
#76=CARTESIAN_POINT('',(0.891572058200836,0.100032560527325,-0.405506402254105));
#77=CARTESIAN_POINT('',(0.860697532888942,0.100040486633491,-0.377472370479124));
#78=CARTESIAN_POINT('',(0.797455422445425,0.100031273830261,-0.323034663873781));
#79=CARTESIAN_POINT('',(0.697308855111026,0.100042717344948,-0.247922284975813));
#80=CARTESIAN_POINT('',(0.592131843280289,0.100044008937811,-0.180019733438177));
#81=CARTESIAN_POINT('',(0.48206641636323,0.100051107482645,-0.120320443568802));
#82=CARTESIAN_POINT('',(0.367130230372329,0.100057810027799,-0.0705526027844901));
#83=CARTESIAN_POINT('',(0.24780565362604,0.10005975158939,-0.0323948927427205));
#84=CARTESIAN_POINT('',(0.145452403955143,0.100075856517088,-0.0116434744830849));
#85=CARTESIAN_POINT('',(0.0625163607941255,0.100062178982064,-0.00248991840264662));
#86=CARTESIAN_POINT('',(0.0208494305307919,0.100130935478193,-0.000264445149493662));
#87=CARTESIAN_POINT('',(-3.16359619142451E-33,0.100000001490116,-9.37220360213664E-34));
#88=CARTESIAN_POINT('',(-3.16284167098808E-33,-2.93377676026319E-33,-9.36584215731777E-34));
#89=CARTESIAN_POINT('',(5.71103868115365E-31,0.0500000007450581,1.02456604835185E-31));
#90=VECTOR('',#104,1.0);
#91=CARTESIAN_POINT('',(-3.16284167098808E-33,-2.93377676026319E-33,-9.36584215731777E-34));
#92=CARTESIAN_POINT('',(0.0208496384029178,-0.000130897401548115,-0.000264367574801663));
#93=CARTESIAN_POINT('',(0.0625169973506282,-6.2240042966007E-05,-0.00248966960918325));
#94=CARTESIAN_POINT('',(0.145453830517182,-7.59952723122935E-05,-0.0116435796968945));
#95=CARTESIAN_POINT('',(0.247808085642239,-6.02903232962384E-05,-0.0323953098738614));
#96=CARTESIAN_POINT('',(0.367133698567036,-5.90473896820437E-05,-0.0705537666686717));
#97=CARTESIAN_POINT('',(0.482071128894304,-5.33746447909292E-05,-0.120321945344967));
#98=CARTESIAN_POINT('',(0.592136950307068,-4.70197432626296E-05,-0.180023119316566));
#99=CARTESIAN_POINT('',(0.69731152359563,-4.55664675343622E-05,-0.247932381759418));
#100=CARTESIAN_POINT('',(0.797460462850079,-4.00028142389266E-05,-0.323039953635345));
#101=CARTESIAN_POINT('',(0.860732140948678,-4.79608268047646E-05,-0.377446476639293));
#102=CARTESIAN_POINT('',(0.891577780246735,-3.22551350109279E-05,-0.405512899160385));
#103=DIRECTION('',(-8.60963000060361E-05,0.99999999588547,2.8574260015242E-05));
#104=DIRECTION('',(-0.0,-1.0,-0.0));
ENDSEC;
END-ISO-10303-21;
