ISO-10303-21;
HEADER;
FILE_DESCRIPTION(('STEP AP214'),'1');
FILE_NAME('SMAStripDeformed_06.stp','2026-07-17T19:47:49',(' '),(' '),'Spatial InterOp 3D',' ',' ');
FILE_SCHEMA(('AUTOMOTIVE_DESIGN { 1 0 10303 214 1 1 1 1 }'));
ENDSEC;
DATA;
#1=PRODUCT_DEFINITION_CONTEXT('',#9,'design');
#2=APPLICATION_PROTOCOL_DEFINITION('INTERNATIONAL STANDARD','automotive_design',1994,#9);
#3=PRODUCT_CATEGORY_RELATIONSHIP('NONE','NONE',#10,#11);
#4=SHAPE_DEFINITION_REPRESENTATION(#12,#13);
#5= (GEOMETRIC_REPRESENTATION_CONTEXT(3)GLOBAL_UNCERTAINTY_ASSIGNED_CONTEXT((#16))GLOBAL_UNIT_ASSIGNED_CONTEXT((#18,#19,#20))REPRESENTATION_CONTEXT('NONE','WORKSPACE'));
#9=APPLICATION_CONTEXT(' ');
#10=PRODUCT_CATEGORY('part','NONE');
#11=PRODUCT_RELATED_PRODUCT_CATEGORY('detail',' ',(#22));
#12=PRODUCT_DEFINITION_SHAPE('NONE','NONE',#23);
#13=MANIFOLD_SURFACE_SHAPE_REPRESENTATION('1',(#24,#25),#5);
#16=UNCERTAINTY_MEASURE_WITH_UNIT(LENGTH_MEASURE(1.0E-06),#18,'','');
#18= (CONVERSION_BASED_UNIT('MILLIMETRE',#28)LENGTH_UNIT()NAMED_UNIT(#31));
#19= (NAMED_UNIT(#33)PLANE_ANGLE_UNIT()SI_UNIT($,.RADIAN.));
#20= (NAMED_UNIT(#33)SOLID_ANGLE_UNIT()SI_UNIT($,.STERADIAN.));
#22=PRODUCT('1','','PART--DESC',(#39));
#23=PRODUCT_DEFINITION('','NONE',#40,#1);
#24=SHELL_BASED_SURFACE_MODEL('1',(#41));
#25=AXIS2_PLACEMENT_3D('',#42,#43,#44);
#28=LENGTH_MEASURE_WITH_UNIT(LENGTH_MEASURE(1.0),#45);
#31=DIMENSIONAL_EXPONENTS(1.0,0.0,0.0,0.0,0.0,0.0,0.0);
#33=DIMENSIONAL_EXPONENTS(0.0,0.0,0.0,0.0,0.0,0.0,0.0);
#39=PRODUCT_CONTEXT('',#9,'mechanical');
#40=PRODUCT_DEFINITION_FORMATION_WITH_SPECIFIED_SOURCE(' ','NONE',#22,.NOT_KNOWN.);
#41=CLOSED_SHELL('',(#46));
#42=CARTESIAN_POINT('',(0.0,0.0,0.0));
#43=DIRECTION('',(0.0,0.0,1.0));
#44=DIRECTION('',(1.0,0.0,0.0));
#45= (NAMED_UNIT(#31)LENGTH_UNIT()SI_UNIT(.MILLI.,.METRE.));
#46=FACE_SURFACE('',(#48),#49,.T.);
#48=FACE_BOUND('',#50,.T.);
#49=CYLINDRICAL_SURFACE('',#51,1.21569563338273);
#50=EDGE_LOOP('',(#52,#53,#54,#55));
#51=AXIS2_PLACEMENT_3D('',#56,#57,#58);
#52=ORIENTED_EDGE('',*,*,#59,.T.);
#53=ORIENTED_EDGE('',*,*,#60,.T.);
#54=ORIENTED_EDGE('',*,*,#61,.T.);
#55=ORIENTED_EDGE('',*,*,#62,.T.);
#56=CARTESIAN_POINT('',(-0.168406327801098,4.29423001869641E-05,-1.19409592276685));
#57=DIRECTION('',(-1.4570026359174E-05,0.99999999917121,3.80170326555209E-05));
#58=DIRECTION('',(8.1213040696667E-26,3.80170326595562E-05,-0.999999999277353));
#59=EDGE_CURVE('',#63,#64,#65,.T.);
#60=EDGE_CURVE('',#64,#66,#67,.T.);
#61=EDGE_CURVE('',#66,#68,#69,.T.);
#62=EDGE_CURVE('',#68,#63,#70,.T.);
#63=VERTEX_POINT('',#71);
#64=VERTEX_POINT('',#72);
#65=LINE('',#73,#74);
#66=VERTEX_POINT('',#75);
#67=B_SPLINE_CURVE_WITH_KNOTS('',3,(#76,#77,#78,#79,#80,#81,#82,#83,#84,#85,#86,#87),.UNSPECIFIED.,.F.,.F.,(4,1,1,1,1,1,1,1,1,4),(0.0,0.125121289997742,0.250242579995483,0.375363869993225,0.500485159990966,0.625606449988708,0.750727739986449,0.875849029984191,0.938409674983062,1.00097031998193),.UNSPECIFIED.);
#68=VERTEX_POINT('',#88);
#69=LINE('',#89,#90);
#70=B_SPLINE_CURVE_WITH_KNOTS('',3,(#91,#92,#93,#94,#95,#96,#97,#98,#99,#100,#101,#102),.UNSPECIFIED.,.F.,.F.,(4,1,1,1,1,1,1,1,1,4),(0.0,0.0625604680981593,0.125120936196319,0.250241872392637,0.375362808588956,0.500483744785274,0.625604680981592,0.750725617177911,0.875846553374229,1.00096748957055),.UNSPECIFIED.);
#71=CARTESIAN_POINT('',(0.834724485874176,-4.74402477266267E-05,-0.496637761592865));
#72=CARTESIAN_POINT('',(0.834728121757507,0.100028038024902,-0.496636897325516));
#73=CARTESIAN_POINT('',(0.834999173879623,0.0499902988885879,-0.496408447623253));
#74=VECTOR('',#103,1.0);
#75=CARTESIAN_POINT('',(-5.01527676982603E-33,0.100000001490116,-1.41328124595929E-33));
#76=CARTESIAN_POINT('',(0.834728121757507,0.100028038024902,-0.496636897325516));
#77=CARTESIAN_POINT('',(0.808553921171608,0.100044154638896,-0.464165481029891));
#78=CARTESIAN_POINT('',(0.754190556100504,0.100038690689103,-0.400831840122135));
#79=CARTESIAN_POINT('',(0.665579923054997,0.10005235538066,-0.312356029251141));
#80=CARTESIAN_POINT('',(0.570233536838775,0.10004769136003,-0.23118496950475));
#81=CARTESIAN_POINT('',(0.468715848997636,0.100055747114923,-0.157850158646751));
#82=CARTESIAN_POINT('',(0.360584275920688,0.100068625422259,-0.0945431338335261));
#83=CARTESIAN_POINT('',(0.245693302156885,0.100073332487079,-0.0443533264859461));
#84=CARTESIAN_POINT('',(0.144992032307541,0.10009750741221,-0.016167165009084));
#85=CARTESIAN_POINT('',(0.0624864411426433,0.100081672453094,-0.00346716379165325));
#86=CARTESIAN_POINT('',(0.0208494919034587,0.100184644212629,-0.000367522118522624));
#87=CARTESIAN_POINT('',(-5.01527676982603E-33,0.100000001490116,-1.41328124595929E-33));
#88=CARTESIAN_POINT('',(-5.01601512721514E-33,-4.55181828554717E-33,-1.41396330818925E-33));
#89=CARTESIAN_POINT('',(1.14897181284401E-30,0.0500000007450581,2.53379217912965E-31));
#90=VECTOR('',#104,1.0);
#91=CARTESIAN_POINT('',(-5.01601512721514E-33,-4.55181828554717E-33,-1.41396330818925E-33));
#92=CARTESIAN_POINT('',(0.0208494304023077,-0.000184713062365438,-0.000367629873663807));
#93=CARTESIAN_POINT('',(0.0624862412408587,-8.15735612224267E-05,-0.00346756489205247));
#94=CARTESIAN_POINT('',(0.144991594902497,-9.73877585064393E-05,-0.0161673279836592));
#95=CARTESIAN_POINT('',(0.245692761550944,-7.29691437267098E-05,-0.0443532654923221));
#96=CARTESIAN_POINT('',(0.360582629418937,-6.76260989833284E-05,-0.0945440560301764));
#97=CARTESIAN_POINT('',(0.468717236307717,-5.54046138817509E-05,-0.157845639772482));
#98=CARTESIAN_POINT('',(0.570231728446722,-4.43547544179529E-05,-0.231184085986445));
#99=CARTESIAN_POINT('',(0.665573845790402,-4.59694097421437E-05,-0.312361945974385));
#100=CARTESIAN_POINT('',(0.754163511430862,-3.70601591134247E-05,-0.400852667541767));
#101=CARTESIAN_POINT('',(0.808593129929085,-6.29565122796022E-05,-0.464132007168812));
#102=CARTESIAN_POINT('',(0.834724485874176,-4.74402477266267E-05,-0.496637761592865));
#103=DIRECTION('',(-4.39515831891487E-05,0.999999997743158,-5.08128158229147E-05));
#104=DIRECTION('',(-0.0,-1.0,-0.0));
ENDSEC;
END-ISO-10303-21;
