ISO-10303-21;
HEADER;
FILE_DESCRIPTION(('STEP AP214'),'1');
FILE_NAME('SMAStripDeformed_09.stp','2026-07-20T18:04:35',(' '),(' '),'Spatial InterOp 3D',' ',' ');
FILE_SCHEMA(('AUTOMOTIVE_DESIGN { 1 0 10303 214 1 1 1 1 }'));
ENDSEC;
DATA;
#1=PRODUCT_DEFINITION_CONTEXT('',#9,'design');
#2=APPLICATION_PROTOCOL_DEFINITION('INTERNATIONAL STANDARD','automotive_design',1994,#9);
#3=PRODUCT_CATEGORY_RELATIONSHIP('NONE','NONE',#10,#11);
#4=SHAPE_DEFINITION_REPRESENTATION(#12,#13);
#5= (GEOMETRIC_REPRESENTATION_CONTEXT(3)GLOBAL_UNCERTAINTY_ASSIGNED_CONTEXT((#16))GLOBAL_UNIT_ASSIGNED_CONTEXT((#18,#19,#20))REPRESENTATION_CONTEXT('NONE','WORKSPACE'));
#9=APPLICATION_CONTEXT(' ');
#10=PRODUCT_CATEGORY('part','NONE');
#11=PRODUCT_RELATED_PRODUCT_CATEGORY('detail',' ',(#22));
#12=PRODUCT_DEFINITION_SHAPE('NONE','NONE',#23);
#13=MANIFOLD_SURFACE_SHAPE_REPRESENTATION('1',(#24,#25),#5);
#16=UNCERTAINTY_MEASURE_WITH_UNIT(LENGTH_MEASURE(1.0E-06),#18,'','');
#18= (CONVERSION_BASED_UNIT('MILLIMETRE',#28)LENGTH_UNIT()NAMED_UNIT(#31));
#19= (NAMED_UNIT(#33)PLANE_ANGLE_UNIT()SI_UNIT($,.RADIAN.));
#20= (NAMED_UNIT(#33)SOLID_ANGLE_UNIT()SI_UNIT($,.STERADIAN.));
#22=PRODUCT('1','','PART--DESC',(#39));
#23=PRODUCT_DEFINITION('','NONE',#40,#1);
#24=SHELL_BASED_SURFACE_MODEL('1',(#41));
#25=AXIS2_PLACEMENT_3D('',#42,#43,#44);
#28=LENGTH_MEASURE_WITH_UNIT(LENGTH_MEASURE(1.0),#45);
#31=DIMENSIONAL_EXPONENTS(1.0,0.0,0.0,0.0,0.0,0.0,0.0);
#33=DIMENSIONAL_EXPONENTS(0.0,0.0,0.0,0.0,0.0,0.0,0.0);
#39=PRODUCT_CONTEXT('',#9,'mechanical');
#40=PRODUCT_DEFINITION_FORMATION_WITH_SPECIFIED_SOURCE(' ','NONE',#22,.NOT_KNOWN.);
#41=CLOSED_SHELL('',(#46));
#42=CARTESIAN_POINT('',(0.0,0.0,0.0));
#43=DIRECTION('',(0.0,0.0,1.0));
#44=DIRECTION('',(1.0,0.0,0.0));
#45= (NAMED_UNIT(#31)LENGTH_UNIT()SI_UNIT(.MILLI.,.METRE.));
#46=FACE_SURFACE('',(#48),#49,.T.);
#48=FACE_BOUND('',#50,.T.);
#49=CYLINDRICAL_SURFACE('',#51,1.11581408166549);
#50=EDGE_LOOP('',(#52,#53,#54,#55));
#51=AXIS2_PLACEMENT_3D('',#56,#57,#58);
#52=ORIENTED_EDGE('',*,*,#59,.T.);
#53=ORIENTED_EDGE('',*,*,#60,.T.);
#54=ORIENTED_EDGE('',*,*,#61,.T.);
#55=ORIENTED_EDGE('',*,*,#62,.T.);
#56=CARTESIAN_POINT('',(-0.235775831992723,8.56548226515008E-05,-1.07569742661984));
#57=DIRECTION('',(-5.22355402295493E-05,0.999999994488265,9.10764479882047E-05));
#58=DIRECTION('',(0.0,9.10764481124581E-05,-0.99999999585254));
#59=EDGE_CURVE('',#63,#64,#65,.T.);
#60=EDGE_CURVE('',#64,#66,#67,.T.);
#61=EDGE_CURVE('',#66,#68,#69,.T.);
#62=EDGE_CURVE('',#68,#63,#70,.T.);
#63=VERTEX_POINT('',#71);
#64=VERTEX_POINT('',#72);
#65=LINE('',#73,#74);
#66=VERTEX_POINT('',#75);
#67=B_SPLINE_CURVE_WITH_KNOTS('',3,(#76,#77,#78,#79,#80,#81,#82,#83,#84,#85,#86,#87,#88),.UNSPECIFIED.,.F.,.F.,(4,1,1,1,1,1,1,1,1,1,4),(0.0,0.125116682201892,0.187675023302839,0.250233364403785,0.375350046605677,0.500466728807569,0.625583411009462,0.750700093211354,0.875816775413246,0.938375116514193,1.00093345761514),.UNSPECIFIED.);
#68=VERTEX_POINT('',#89);
#69=LINE('',#90,#91);
#70=B_SPLINE_CURVE_WITH_KNOTS('',3,(#92,#93,#94,#95,#96,#97,#98,#99,#100,#101,#102,#103,#104),.UNSPECIFIED.,.F.,.F.,(4,1,1,1,1,1,1,1,1,1,4),(0.0,0.0625578291315968,0.125115658263194,0.250231316526387,0.375346974789581,0.500462633052774,0.625578291315968,0.750693949579161,0.813251778710758,0.875809607842355,1.00092526610555),.UNSPECIFIED.);
#71=CARTESIAN_POINT('',(0.774027764797211,-2.6600921046338E-05,-0.576383590698242));
#72=CARTESIAN_POINT('',(0.774033546447754,0.0999486371874809,-0.576384782791138));
#73=CARTESIAN_POINT('',(0.7740218937397,0.0499610181332173,-0.576388359069824));
#74=VECTOR('',#105,0.999999999999999);
#75=CARTESIAN_POINT('',(-7.34888284875782E-33,0.100000001490116,-1.94460101911112E-33));
#76=CARTESIAN_POINT('',(0.774033546447754,0.0999486371874809,-0.576384782791138));
#77=CARTESIAN_POINT('',(0.750152430566696,0.0999596833764582,-0.542193468420503));
#78=CARTESIAN_POINT('',(0.714804729090977,0.0999858243245588,-0.490573757343845));
#79=CARTESIAN_POINT('',(0.665638387971559,0.100031518042539,-0.423179108194646));
#80=CARTESIAN_POINT('',(0.613670089641694,0.100041101399638,-0.357908025637862));
#81=CARTESIAN_POINT('',(0.543264954276965,0.100046992440178,-0.280866225386828));
#82=CARTESIAN_POINT('',(0.451105926664649,0.100051916139715,-0.196065546343997));
#83=CARTESIAN_POINT('',(0.351163383545398,0.100071397383336,-0.120485406572546));
#84=CARTESIAN_POINT('',(0.242370118452681,0.100084437057894,-0.058046684191069));
#85=CARTESIAN_POINT('',(0.144220314562019,0.100120623884427,-0.0215171382234476));
#86=CARTESIAN_POINT('',(0.0624263852016788,0.100103379886355,-0.00462329682053535));
#87=CARTESIAN_POINT('',(0.0208455483529875,0.100250644263912,-0.000488611396507118));
#88=CARTESIAN_POINT('',(-7.34888284875782E-33,0.100000001490116,-1.94460101911112E-33));
#89=CARTESIAN_POINT('',(-7.34818489898702E-33,-6.5141025967855E-33,-1.94452883641114E-33));
#90=CARTESIAN_POINT('',(2.53064034963668E-30,0.0500000007450581,7.92318927482487E-31));
#91=VECTOR('',#106,1.0);
#92=CARTESIAN_POINT('',(-7.34818489898702E-33,-6.5141025967855E-33,-1.94452883641114E-33));
#93=CARTESIAN_POINT('',(0.0208453778392349,-0.00025062952706364,-0.000488609577765198));
#94=CARTESIAN_POINT('',(0.0624257979674662,-0.00010330794519969,-0.00462360301343868));
#95=CARTESIAN_POINT('',(0.144219423948747,-0.000120792059449707,-0.0215162636927026));
#96=CARTESIAN_POINT('',(0.242366077994828,-8.36338091529113E-05,-0.0580507603053639));
#97=CARTESIAN_POINT('',(0.351162138454241,-7.29876859147345E-05,-0.120482157607507));
#98=CARTESIAN_POINT('',(0.451098485797912,-5.40688799002521E-05,-0.196070780644335));
#99=CARTESIAN_POINT('',(0.54325090589789,-5.47770573285991E-05,-0.280875841759758));
#100=CARTESIAN_POINT('',(0.61365367548005,-6.54926689411446E-05,-0.357919083412935));
#101=CARTESIAN_POINT('',(0.665642899107249,-7.85052334506874E-05,-0.423172257578418));
#102=CARTESIAN_POINT('',(0.71480057955045,-4.80028900228475E-05,-0.490572699859592));
#103=CARTESIAN_POINT('',(0.75016925848041,-3.33758380399734E-05,-0.54217691068701));
#104=CARTESIAN_POINT('',(0.774027764797211,-2.6600921046338E-05,-0.576383590698242));
#105=DIRECTION('',(2.43305885693676E-05,0.999999565052196,0.000932364435875211));
#106=DIRECTION('',(-0.0,-1.0,-0.0));
ENDSEC;
END-ISO-10303-21;
