ISO-10303-21;
HEADER;
FILE_DESCRIPTION(('STEP AP214'),'1');
FILE_NAME('SMAStripDeformed_03.stp','2026-07-20T17:55:20',(' '),(' '),'Spatial InterOp 3D',' ',' ');
FILE_SCHEMA(('AUTOMOTIVE_DESIGN { 1 0 10303 214 1 1 1 1 }'));
ENDSEC;
DATA;
#1=PRODUCT_DEFINITION_CONTEXT('',#9,'design');
#2=APPLICATION_PROTOCOL_DEFINITION('INTERNATIONAL STANDARD','automotive_design',1994,#9);
#3=PRODUCT_CATEGORY_RELATIONSHIP('NONE','NONE',#10,#11);
#4=SHAPE_DEFINITION_REPRESENTATION(#12,#13);
#5= (GEOMETRIC_REPRESENTATION_CONTEXT(3)GLOBAL_UNCERTAINTY_ASSIGNED_CONTEXT((#16))GLOBAL_UNIT_ASSIGNED_CONTEXT((#18,#19,#20))REPRESENTATION_CONTEXT('NONE','WORKSPACE'));
#9=APPLICATION_CONTEXT(' ');
#10=PRODUCT_CATEGORY('part','NONE');
#11=PRODUCT_RELATED_PRODUCT_CATEGORY('detail',' ',(#22));
#12=PRODUCT_DEFINITION_SHAPE('NONE','NONE',#23);
#13=MANIFOLD_SURFACE_SHAPE_REPRESENTATION('1',(#24,#25),#5);
#16=UNCERTAINTY_MEASURE_WITH_UNIT(LENGTH_MEASURE(1.0E-06),#18,'','');
#18= (CONVERSION_BASED_UNIT('MILLIMETRE',#28)LENGTH_UNIT()NAMED_UNIT(#31));
#19= (NAMED_UNIT(#33)PLANE_ANGLE_UNIT()SI_UNIT($,.RADIAN.));
#20= (NAMED_UNIT(#33)SOLID_ANGLE_UNIT()SI_UNIT($,.STERADIAN.));
#22=PRODUCT('1','','PART--DESC',(#39));
#23=PRODUCT_DEFINITION('','NONE',#40,#1);
#24=SHELL_BASED_SURFACE_MODEL('1',(#41));
#25=AXIS2_PLACEMENT_3D('',#42,#43,#44);
#28=LENGTH_MEASURE_WITH_UNIT(LENGTH_MEASURE(1.0),#45);
#31=DIMENSIONAL_EXPONENTS(1.0,0.0,0.0,0.0,0.0,0.0,0.0);
#33=DIMENSIONAL_EXPONENTS(0.0,0.0,0.0,0.0,0.0,0.0,0.0);
#39=PRODUCT_CONTEXT('',#9,'mechanical');
#40=PRODUCT_DEFINITION_FORMATION_WITH_SPECIFIED_SOURCE(' ','NONE',#22,.NOT_KNOWN.);
#41=CLOSED_SHELL('',(#46));
#42=CARTESIAN_POINT('',(0.0,0.0,0.0));
#43=DIRECTION('',(0.0,0.0,1.0));
#44=DIRECTION('',(1.0,0.0,0.0));
#45= (NAMED_UNIT(#31)LENGTH_UNIT()SI_UNIT(.MILLI.,.METRE.));
#46=FACE_SURFACE('',(#48),#49,.T.);
#48=FACE_BOUND('',#50,.T.);
#49=CYLINDRICAL_SURFACE('',#51,1.61481344589056);
#50=EDGE_LOOP('',(#52,#53,#54,#55));
#51=AXIS2_PLACEMENT_3D('',#56,#57,#58);
#52=ORIENTED_EDGE('',*,*,#59,.T.);
#53=ORIENTED_EDGE('',*,*,#60,.T.);
#54=ORIENTED_EDGE('',*,*,#61,.T.);
#55=ORIENTED_EDGE('',*,*,#62,.T.);
#56=CARTESIAN_POINT('',(-0.0786906182240637,7.29101062378949E-05,-1.60948220621762));
#57=DIRECTION('',(0.000170620779837378,-0.999999984005526,-5.36423147505887E-05));
#58=DIRECTION('',(0.0,-5.36423155313915E-05,0.999999998561251));
#59=EDGE_CURVE('',#63,#64,#65,.T.);
#60=EDGE_CURVE('',#64,#66,#67,.T.);
#61=EDGE_CURVE('',#66,#68,#69,.T.);
#62=EDGE_CURVE('',#68,#63,#70,.T.);
#63=VERTEX_POINT('',#71);
#64=VERTEX_POINT('',#72);
#65=LINE('',#73,#74);
#66=VERTEX_POINT('',#75);
#67=B_SPLINE_CURVE_WITH_KNOTS('',3,(#76,#77,#78,#79,#80,#81,#82,#83,#84,#85,#86),.UNSPECIFIED.,.F.,.F.,(4,1,1,1,1,1,1,1,4),(0.0,0.12509902175231,0.250198043504619,0.375297065256929,0.500396087009239,0.625495108761549,0.750594130513858,0.875693152266168,1.00079217401848),.UNSPECIFIED.);
#68=VERTEX_POINT('',#87);
#69=LINE('',#88,#89);
#70=B_SPLINE_CURVE_WITH_KNOTS('',3,(#90,#91,#92,#93,#94,#95,#96,#97,#98,#99,#100),.UNSPECIFIED.,.F.,.F.,(4,1,1,1,1,1,1,1,4),(0.0,0.12509985561211,0.25019971122422,0.37529956683633,0.50039942244844,0.625499278060551,0.750599133672661,0.875698989284771,1.00079884489688),.UNSPECIFIED.);
#71=CARTESIAN_POINT('',(0.924209356307983,-2.87310267594876E-05,-0.340240895748138));
#72=CARTESIAN_POINT('',(0.92420494556427,0.100032798945904,-0.340236902236938));
#73=CARTESIAN_POINT('',(0.924368739128113,0.0500020339595721,-0.340009152889252));
#74=VECTOR('',#101,1.0);
#75=CARTESIAN_POINT('',(-2.14562653247806E-33,0.100000001490116,-6.52977606907928E-34));
#76=CARTESIAN_POINT('',(0.92420494556427,0.100032798945904,-0.340236902236938));
#77=CARTESIAN_POINT('',(0.890484107398424,0.100040074940766,-0.315705945768157));
#78=CARTESIAN_POINT('',(0.821812192304942,0.100032326752363,-0.268325389593042));
#79=CARTESIAN_POINT('',(0.71467305437222,0.100039336135139,-0.203620100096349));
#80=CARTESIAN_POINT('',(0.60357186979552,0.100042266370456,-0.145965405526761));
#81=CARTESIAN_POINT('',(0.488622581837672,0.100047329676785,-0.0963818323416762));
#82=CARTESIAN_POINT('',(0.370167895531974,0.100044878750087,-0.0558480447842968));
#83=CARTESIAN_POINT('',(0.248727353254578,0.100069760712058,-0.0253008817922883));
#84=CARTESIAN_POINT('',(0.125025041658419,0.0999921036124773,-0.00588080629162908));
#85=CARTESIAN_POINT('',(0.0416971769136357,0.100201287994864,-0.000409543644211729));
#86=CARTESIAN_POINT('',(-2.14562653247806E-33,0.100000001490116,-6.52977606907928E-34));
#87=CARTESIAN_POINT('',(-2.14580597903755E-33,-2.01755844333689E-33,-6.528659349446E-34));
#88=CARTESIAN_POINT('',(3.33622506000661E-31,0.0500000007450581,5.4914394093014E-32));
#89=VECTOR('',#102,1.0);
#90=CARTESIAN_POINT('',(-2.14580597903755E-33,-2.01755844333689E-33,-6.528659349446E-34));
#91=CARTESIAN_POINT('',(0.0416974546182171,-0.000201321985239268,-0.000409553218716148));
#92=CARTESIAN_POINT('',(0.125025866813279,7.89905646716216E-06,-0.00588089774922757));
#93=CARTESIAN_POINT('',(0.248729019044328,-6.99965184821718E-05,-0.0253011521787069));
#94=CARTESIAN_POINT('',(0.370170265614737,-4.53929718855493E-05,-0.0558487971362641));
#95=CARTESIAN_POINT('',(0.488625919433711,-4.83281195321626E-05,-0.0963825858508148));
#96=CARTESIAN_POINT('',(0.603574996223155,-4.33915009328648E-05,-0.145968343384631));
#97=CARTESIAN_POINT('',(0.714678477012698,-4.17211599086987E-05,-0.203621189372522));
#98=CARTESIAN_POINT('',(0.821815930300942,-3.53480092519674E-05,-0.268329042208736));
#99=CARTESIAN_POINT('',(0.890503437172767,-4.12485047257535E-05,-0.315688974345079));
#100=CARTESIAN_POINT('',(0.924209356307983,-2.87310267594876E-05,-0.340240895748138));
#101=DIRECTION('',(-5.59175906493381E-05,0.999999998258477,1.88750989987931E-05));
#102=DIRECTION('',(-0.0,-1.0,-0.0));
ENDSEC;
END-ISO-10303-21;
