ISO-10303-21;
HEADER;
FILE_DESCRIPTION(('STEP AP214'),'1');
FILE_NAME('SMAStripDeformed_08.stp','2026-07-20T18:03:50',(' '),(' '),'Spatial InterOp 3D',' ',' ');
FILE_SCHEMA(('AUTOMOTIVE_DESIGN { 1 0 10303 214 1 1 1 1 }'));
ENDSEC;
DATA;
#1=PRODUCT_DEFINITION_CONTEXT('',#9,'design');
#2=APPLICATION_PROTOCOL_DEFINITION('INTERNATIONAL STANDARD','automotive_design',1994,#9);
#3=PRODUCT_CATEGORY_RELATIONSHIP('NONE','NONE',#10,#11);
#4=SHAPE_DEFINITION_REPRESENTATION(#12,#13);
#5= (GEOMETRIC_REPRESENTATION_CONTEXT(3)GLOBAL_UNCERTAINTY_ASSIGNED_CONTEXT((#16))GLOBAL_UNIT_ASSIGNED_CONTEXT((#18,#19,#20))REPRESENTATION_CONTEXT('NONE','WORKSPACE'));
#9=APPLICATION_CONTEXT(' ');
#10=PRODUCT_CATEGORY('part','NONE');
#11=PRODUCT_RELATED_PRODUCT_CATEGORY('detail',' ',(#22));
#12=PRODUCT_DEFINITION_SHAPE('NONE','NONE',#23);
#13=MANIFOLD_SURFACE_SHAPE_REPRESENTATION('1',(#24,#25),#5);
#16=UNCERTAINTY_MEASURE_WITH_UNIT(LENGTH_MEASURE(1.0E-06),#18,'','');
#18= (CONVERSION_BASED_UNIT('MILLIMETRE',#28)LENGTH_UNIT()NAMED_UNIT(#31));
#19= (NAMED_UNIT(#33)PLANE_ANGLE_UNIT()SI_UNIT($,.RADIAN.));
#20= (NAMED_UNIT(#33)SOLID_ANGLE_UNIT()SI_UNIT($,.STERADIAN.));
#22=PRODUCT('1','','PART--DESC',(#39));
#23=PRODUCT_DEFINITION('','NONE',#40,#1);
#24=SHELL_BASED_SURFACE_MODEL('1',(#41));
#25=AXIS2_PLACEMENT_3D('',#42,#43,#44);
#28=LENGTH_MEASURE_WITH_UNIT(LENGTH_MEASURE(1.0),#45);
#31=DIMENSIONAL_EXPONENTS(1.0,0.0,0.0,0.0,0.0,0.0,0.0);
#33=DIMENSIONAL_EXPONENTS(0.0,0.0,0.0,0.0,0.0,0.0,0.0);
#39=PRODUCT_CONTEXT('',#9,'mechanical');
#40=PRODUCT_DEFINITION_FORMATION_WITH_SPECIFIED_SOURCE(' ','NONE',#22,.NOT_KNOWN.);
#41=CLOSED_SHELL('',(#46));
#42=CARTESIAN_POINT('',(0.0,0.0,0.0));
#43=DIRECTION('',(0.0,0.0,1.0));
#44=DIRECTION('',(1.0,0.0,0.0));
#45= (NAMED_UNIT(#31)LENGTH_UNIT()SI_UNIT(.MILLI.,.METRE.));
#46=FACE_SURFACE('',(#48),#49,.T.);
#48=FACE_BOUND('',#50,.T.);
#49=CYLINDRICAL_SURFACE('',#51,1.12458343880012);
#50=EDGE_LOOP('',(#52,#53,#54,#55));
#51=AXIS2_PLACEMENT_3D('',#56,#57,#58);
#52=ORIENTED_EDGE('',*,*,#59,.T.);
#53=ORIENTED_EDGE('',*,*,#60,.T.);
#54=ORIENTED_EDGE('',*,*,#61,.T.);
#55=ORIENTED_EDGE('',*,*,#62,.T.);
#56=CARTESIAN_POINT('',(-0.208785794346553,8.95294356763226E-05,-1.09208578826602));
#57=DIRECTION('',(-6.88040199019007E-05,0.999999993107743,9.51342270587891E-05));
#58=DIRECTION('',(1.65833555073887E-24,9.51342272839715E-05,-0.999999995474739));
#59=EDGE_CURVE('',#63,#64,#65,.T.);
#60=EDGE_CURVE('',#64,#66,#67,.T.);
#61=EDGE_CURVE('',#66,#68,#69,.T.);
#62=EDGE_CURVE('',#68,#63,#70,.T.);
#63=VERTEX_POINT('',#71);
#64=VERTEX_POINT('',#72);
#65=LINE('',#73,#74);
#66=VERTEX_POINT('',#75);
#67=B_SPLINE_CURVE_WITH_KNOTS('',3,(#76,#77,#78,#79,#80,#81,#82,#83,#84,#85,#86,#87,#88),.UNSPECIFIED.,.F.,.F.,(4,1,1,1,1,1,1,1,1,1,4),(0.0,0.125122629949235,0.187683944923852,0.250245259898469,0.375367889847704,0.500490519796938,0.625613149746173,0.750735779695408,0.875858409644642,0.938419724619259,1.00098103959388),.UNSPECIFIED.);
#68=VERTEX_POINT('',#89);
#69=LINE('',#90,#91);
#70=B_SPLINE_CURVE_WITH_KNOTS('',3,(#92,#93,#94,#95,#96,#97,#98,#99,#100,#101,#102,#103,#104),.UNSPECIFIED.,.F.,.F.,(4,1,1,1,1,1,1,1,1,1,4),(0.0,0.0625609416617016,0.125121883323403,0.250243766646807,0.37536564997021,0.500487533293613,0.625609416617016,0.75073129994042,0.813292241602121,0.875853183263823,1.00097506658723),.UNSPECIFIED.);
#71=CARTESIAN_POINT('',(0.789060652256012,-4.68094622192439E-05,-0.556664705276489));
#72=CARTESIAN_POINT('',(0.789065718650818,0.0999678075313568,-0.556664705276489));
#73=CARTESIAN_POINT('',(0.78918382525444,0.0499604990345688,-0.556576073169708));
#74=VECTOR('',#105,1.0);
#75=CARTESIAN_POINT('',(-6.63326686723217E-33,0.100000001490116,-1.78898173010957E-33));
#76=CARTESIAN_POINT('',(0.789065718650818,0.0999678075313568,-0.556664705276489));
#77=CARTESIAN_POINT('',(0.765520199669619,0.0999809702537224,-0.522239023988545));
#78=CARTESIAN_POINT('',(0.729907501427051,0.100006355881497,-0.470778429559183));
#79=CARTESIAN_POINT('',(0.678791086743231,0.100038836311315,-0.404830839555289));
#80=CARTESIAN_POINT('',(0.62444782800303,0.100035563171503,-0.341514720677036));
#81=CARTESIAN_POINT('',(0.5514304593862,0.100046092076485,-0.266949238810291));
#82=CARTESIAN_POINT('',(0.456560806349088,0.100052912726291,-0.185183993666316));
#83=CARTESIAN_POINT('',(0.354162598987173,0.100071494290078,-0.112953321586809));
#84=CARTESIAN_POINT('',(0.243467666273826,0.100081208406069,-0.0539738899146692));
#85=CARTESIAN_POINT('',(0.144481797917405,0.100113832526678,-0.0199051410106596));
#86=CARTESIAN_POINT('',(0.0624485255800956,0.10009687145073,-0.00427464779204861));
#87=CARTESIAN_POINT('',(0.0208475914489313,0.100230518237664,-0.000452310933020938));
#88=CARTESIAN_POINT('',(-6.63326686723217E-33,0.100000001490116,-1.78898173010957E-33));
#89=CARTESIAN_POINT('',(-6.63276287402925E-33,-5.91714983123947E-33,-1.78890789437066E-33));
#90=CARTESIAN_POINT('',(2.03033039370071E-30,0.0500000007450581,5.71344233200221E-31));
#91=VECTOR('',#106,1.0);
#92=CARTESIAN_POINT('',(-6.63276287402925E-33,-5.91714983123947E-33,-1.78890789437066E-33));
#93=CARTESIAN_POINT('',(0.0208474669513695,-0.000230517686021592,-0.000452311516390006));
#94=CARTESIAN_POINT('',(0.0624481430814947,-9.68508130024588E-05,-0.00427472282887646));
#95=CARTESIAN_POINT('',(0.144480947633232,-0.000113874129702719,-0.0199049587120273));
#96=CARTESIAN_POINT('',(0.243466213206101,-8.135423700079E-05,-0.0539737574787458));
#97=CARTESIAN_POINT('',(0.354159125387916,-7.15172970512787E-05,-0.112955521701893));
#98=CARTESIAN_POINT('',(0.456553938443348,-5.52827137360508E-05,-0.18518975087768));
#99=CARTESIAN_POINT('',(0.551422119839493,-5.60644149682726E-05,-0.2669564959121));
#100=CARTESIAN_POINT('',(0.624421748479557,-5.7748689859901E-05,-0.341536996610318));
#101=CARTESIAN_POINT('',(0.678807935767265,-9.1204868037943E-05,-0.404815685694544));
#102=CARTESIAN_POINT('',(0.729897367532196,-6.78685049729467E-05,-0.470783868036963));
#103=CARTESIAN_POINT('',(0.765545690104669,-5.71918312402114E-05,-0.522218444857878));
#104=CARTESIAN_POINT('',(0.789060652256012,-4.68094622192439E-05,-0.556664705276489));
#105=DIRECTION('',(4.49703816387014E-06,0.999999999583392,-2.85130340281442E-05));
#106=DIRECTION('',(-0.0,-1.0,-0.0));
ENDSEC;
END-ISO-10303-21;
