ISO-10303-21;
HEADER;
FILE_DESCRIPTION(('STEP AP214'),'1');
FILE_NAME('SMAStripDeformed_07.stp','2026-07-20T18:03:08',(' '),(' '),'Spatial InterOp 3D',' ',' ');
FILE_SCHEMA(('AUTOMOTIVE_DESIGN { 1 0 10303 214 1 1 1 1 }'));
ENDSEC;
DATA;
#1=PRODUCT_DEFINITION_CONTEXT('',#9,'design');
#2=APPLICATION_PROTOCOL_DEFINITION('INTERNATIONAL STANDARD','automotive_design',1994,#9);
#3=PRODUCT_CATEGORY_RELATIONSHIP('NONE','NONE',#10,#11);
#4=SHAPE_DEFINITION_REPRESENTATION(#12,#13);
#5= (GEOMETRIC_REPRESENTATION_CONTEXT(3)GLOBAL_UNCERTAINTY_ASSIGNED_CONTEXT((#16))GLOBAL_UNIT_ASSIGNED_CONTEXT((#18,#19,#20))REPRESENTATION_CONTEXT('NONE','WORKSPACE'));
#9=APPLICATION_CONTEXT(' ');
#10=PRODUCT_CATEGORY('part','NONE');
#11=PRODUCT_RELATED_PRODUCT_CATEGORY('detail',' ',(#22));
#12=PRODUCT_DEFINITION_SHAPE('NONE','NONE',#23);
#13=MANIFOLD_SURFACE_SHAPE_REPRESENTATION('1',(#24,#25),#5);
#16=UNCERTAINTY_MEASURE_WITH_UNIT(LENGTH_MEASURE(1.0E-06),#18,'','');
#18= (CONVERSION_BASED_UNIT('MILLIMETRE',#28)LENGTH_UNIT()NAMED_UNIT(#31));
#19= (NAMED_UNIT(#33)PLANE_ANGLE_UNIT()SI_UNIT($,.RADIAN.));
#20= (NAMED_UNIT(#33)SOLID_ANGLE_UNIT()SI_UNIT($,.STERADIAN.));
#22=PRODUCT('1','','PART--DESC',(#39));
#23=PRODUCT_DEFINITION('','NONE',#40,#1);
#24=SHELL_BASED_SURFACE_MODEL('1',(#41));
#25=AXIS2_PLACEMENT_3D('',#42,#43,#44);
#28=LENGTH_MEASURE_WITH_UNIT(LENGTH_MEASURE(1.0),#45);
#31=DIMENSIONAL_EXPONENTS(1.0,0.0,0.0,0.0,0.0,0.0,0.0);
#33=DIMENSIONAL_EXPONENTS(0.0,0.0,0.0,0.0,0.0,0.0,0.0);
#39=PRODUCT_CONTEXT('',#9,'mechanical');
#40=PRODUCT_DEFINITION_FORMATION_WITH_SPECIFIED_SOURCE(' ','NONE',#22,.NOT_KNOWN.);
#41=CLOSED_SHELL('',(#46));
#42=CARTESIAN_POINT('',(0.0,0.0,0.0));
#43=DIRECTION('',(0.0,0.0,1.0));
#44=DIRECTION('',(1.0,0.0,0.0));
#45= (NAMED_UNIT(#31)LENGTH_UNIT()SI_UNIT(.MILLI.,.METRE.));
#46=FACE_SURFACE('',(#48),#49,.T.);
#48=FACE_BOUND('',#50,.T.);
#49=CYLINDRICAL_SURFACE('',#51,1.15769410763839);
#50=EDGE_LOOP('',(#52,#53,#54,#55));
#51=AXIS2_PLACEMENT_3D('',#56,#57,#58);
#52=ORIENTED_EDGE('',*,*,#59,.T.);
#53=ORIENTED_EDGE('',*,*,#60,.T.);
#54=ORIENTED_EDGE('',*,*,#61,.T.);
#55=ORIENTED_EDGE('',*,*,#62,.T.);
#56=CARTESIAN_POINT('',(-0.187703655898404,9.22369307564533E-05,-1.13101178188391));
#57=DIRECTION('',(-0.000103963950135639,0.999999989714384,9.88065227617731E-05));
#58=DIRECTION('',(0.0,9.88065232957484E-05,-0.999999995118635));
#59=EDGE_CURVE('',#63,#64,#65,.T.);
#60=EDGE_CURVE('',#64,#66,#67,.T.);
#61=EDGE_CURVE('',#66,#68,#69,.T.);
#62=EDGE_CURVE('',#68,#63,#70,.T.);
#63=VERTEX_POINT('',#71);
#64=VERTEX_POINT('',#72);
#65=LINE('',#73,#74);
#66=VERTEX_POINT('',#75);
#67=B_SPLINE_CURVE_WITH_KNOTS('',3,(#76,#77,#78,#79,#80,#81,#82,#83,#84,#85,#86,#87),.UNSPECIFIED.,.F.,.F.,(4,1,1,1,1,1,1,1,1,4),(0.0,0.125124321122011,0.250248642244022,0.375372963366033,0.500497284488044,0.625621605610054,0.750745926732065,0.875870247854076,0.938432408415082,1.00099456897609),.UNSPECIFIED.);
#68=VERTEX_POINT('',#88);
#69=LINE('',#89,#90);
#70=B_SPLINE_CURVE_WITH_KNOTS('',3,(#91,#92,#93,#94,#95,#96,#97,#98,#99,#100,#101,#102),.UNSPECIFIED.,.F.,.F.,(4,1,1,1,1,1,1,1,1,4),(0.0,0.0625621450099897,0.125124290019979,0.250248580039959,0.375372870059938,0.500497160079917,0.625621450099897,0.750745740119876,0.875870030139856,1.00099432015983),.UNSPECIFIED.);
#71=CARTESIAN_POINT('',(0.809423685073853,-4.72639731015079E-05,-0.530504047870636));
#72=CARTESIAN_POINT('',(0.809426188468933,0.0999923422932625,-0.530500531196594));
#73=CARTESIAN_POINT('',(0.809656918048859,0.0499725391600805,-0.530327171087265));
#74=VECTOR('',#103,1.0);
#75=CARTESIAN_POINT('',(-5.85613983772187E-33,0.100000001490116,-1.61303796011131E-33));
#76=CARTESIAN_POINT('',(0.809426188468933,0.0999923422932625,-0.530500531196594));
#77=CARTESIAN_POINT('',(0.785181273888755,0.100012751633365,-0.496563090318197));
#78=CARTESIAN_POINT('',(0.735189614227211,0.10002819711211,-0.429717006020907));
#79=CARTESIAN_POINT('',(0.651593002100875,0.100041384385709,-0.336444017222271));
#80=CARTESIAN_POINT('',(0.560384503519787,0.100047173369225,-0.250633113026929));
#81=CARTESIAN_POINT('',(0.462426658131673,0.100055877800551,-0.172596517307706));
#82=CARTESIAN_POINT('',(0.357310929496493,0.100070809950733,-0.104379598525313));
#83=CARTESIAN_POINT('',(0.244580194462892,0.100077857440602,-0.0494370647341844));
#84=CARTESIAN_POINT('',(0.144740124272482,0.100106257039688,-0.0181318676411906));
#85=CARTESIAN_POINT('',(0.0624686714738359,0.100089719829524,-0.00389174510496087));
#86=CARTESIAN_POINT('',(0.0208489369599599,0.100208590436168,-0.000412148662746315));
#87=CARTESIAN_POINT('',(-5.85613983772187E-33,0.100000001490116,-1.61303796011131E-33));
#88=CARTESIAN_POINT('',(-5.85731937283453E-33,-5.26702100734012E-33,-1.61357942219666E-33));
#89=CARTESIAN_POINT('',(1.54277031969151E-30,0.0500000007450581,3.83505314074415E-31));
#90=VECTOR('',#104,1.0);
#91=CARTESIAN_POINT('',(-5.85731937283453E-33,-5.26702100734012E-33,-1.61357942219666E-33));
#92=CARTESIAN_POINT('',(0.0208489285296534,-0.000208665806566686,-0.000412273907079942));
#93=CARTESIAN_POINT('',(0.0624686336545513,-8.96195931385267E-05,-0.00389213794362022));
#94=CARTESIAN_POINT('',(0.144740016294836,-0.000106100653231561,-0.018132418939345));
#95=CARTESIAN_POINT('',(0.244580083789969,-7.75553772783648E-05,-0.0494376217654661));
#96=CARTESIAN_POINT('',(0.357310453945658,-7.01269524277636E-05,-0.104381043247227));
#97=CARTESIAN_POINT('',(0.462423319335297,-5.51824545562534E-05,-0.172602502331227));
#98=CARTESIAN_POINT('',(0.560375429204583,-4.90929655573563E-05,-0.250645568576778));
#99=CARTESIAN_POINT('',(0.651584565881893,-5.97064589478535E-05,-0.336457431931126));
#100=CARTESIAN_POINT('',(0.735193246043272,-7.52591911534403E-05,-0.429714926270787));
#101=CARTESIAN_POINT('',(0.785219016486445,-6.93321900289941E-05,-0.496537905026929));
#102=CARTESIAN_POINT('',(0.809423685073853,-4.72639731015079E-05,-0.530504047870636));
#103=DIRECTION('',(-3.43311132282726E-05,0.999999999402793,-3.97342209743248E-06));
#104=DIRECTION('',(-0.0,-1.0,-0.0));
ENDSEC;
END-ISO-10303-21;
