ISO-10303-21;
HEADER;
FILE_DESCRIPTION(('STEP AP214'),'1');
FILE_NAME('SMAStripDeformed_02.stp','2026-07-20T17:54:52',(' '),(' '),'Spatial InterOp 3D',' ',' ');
FILE_SCHEMA(('AUTOMOTIVE_DESIGN { 1 0 10303 214 1 1 1 1 }'));
ENDSEC;
DATA;
#1=PRODUCT_DEFINITION_CONTEXT('',#9,'design');
#2=APPLICATION_PROTOCOL_DEFINITION('INTERNATIONAL STANDARD','automotive_design',1994,#9);
#3=PRODUCT_CATEGORY_RELATIONSHIP('NONE','NONE',#10,#11);
#4=SHAPE_DEFINITION_REPRESENTATION(#12,#13);
#5= (GEOMETRIC_REPRESENTATION_CONTEXT(3)GLOBAL_UNCERTAINTY_ASSIGNED_CONTEXT((#16))GLOBAL_UNIT_ASSIGNED_CONTEXT((#18,#19,#20))REPRESENTATION_CONTEXT('NONE','WORKSPACE'));
#9=APPLICATION_CONTEXT(' ');
#10=PRODUCT_CATEGORY('part','NONE');
#11=PRODUCT_RELATED_PRODUCT_CATEGORY('detail',' ',(#22));
#12=PRODUCT_DEFINITION_SHAPE('NONE','NONE',#23);
#13=MANIFOLD_SURFACE_SHAPE_REPRESENTATION('1',(#24,#25),#5);
#16=UNCERTAINTY_MEASURE_WITH_UNIT(LENGTH_MEASURE(1.0E-06),#18,'','');
#18= (CONVERSION_BASED_UNIT('MILLIMETRE',#28)LENGTH_UNIT()NAMED_UNIT(#31));
#19= (NAMED_UNIT(#33)PLANE_ANGLE_UNIT()SI_UNIT($,.RADIAN.));
#20= (NAMED_UNIT(#33)SOLID_ANGLE_UNIT()SI_UNIT($,.STERADIAN.));
#22=PRODUCT('1','','PART--DESC',(#39));
#23=PRODUCT_DEFINITION('','NONE',#40,#1);
#24=SHELL_BASED_SURFACE_MODEL('1',(#41));
#25=AXIS2_PLACEMENT_3D('',#42,#43,#44);
#28=LENGTH_MEASURE_WITH_UNIT(LENGTH_MEASURE(1.0),#45);
#31=DIMENSIONAL_EXPONENTS(1.0,0.0,0.0,0.0,0.0,0.0,0.0);
#33=DIMENSIONAL_EXPONENTS(0.0,0.0,0.0,0.0,0.0,0.0,0.0);
#39=PRODUCT_CONTEXT('',#9,'mechanical');
#40=PRODUCT_DEFINITION_FORMATION_WITH_SPECIFIED_SOURCE(' ','NONE',#22,.NOT_KNOWN.);
#41=CLOSED_SHELL('',(#46));
#42=CARTESIAN_POINT('',(0.0,0.0,0.0));
#43=DIRECTION('',(0.0,0.0,1.0));
#44=DIRECTION('',(1.0,0.0,0.0));
#45= (NAMED_UNIT(#31)LENGTH_UNIT()SI_UNIT(.MILLI.,.METRE.));
#46=FACE_SURFACE('',(#48),#49,.T.);
#48=FACE_BOUND('',#50,.T.);
#49=CYLINDRICAL_SURFACE('',#51,2.06858809839699);
#50=EDGE_LOOP('',(#52,#53,#54,#55));
#51=AXIS2_PLACEMENT_3D('',#56,#57,#58);
#52=ORIENTED_EDGE('',*,*,#59,.T.);
#53=ORIENTED_EDGE('',*,*,#60,.T.);
#54=ORIENTED_EDGE('',*,*,#61,.T.);
#55=ORIENTED_EDGE('',*,*,#62,.T.);
#56=CARTESIAN_POINT('',(-0.0437286980639916,3.96443846255705E-05,-2.06678508486744));
#57=DIRECTION('',(6.46177479246139E-05,-0.999999997701146,-2.05488363140516E-05));
#58=DIRECTION('',(2.11674277781781E-25,-2.05488363569519E-05,0.999999999788873));
#59=EDGE_CURVE('',#63,#64,#65,.T.);
#60=EDGE_CURVE('',#64,#66,#67,.T.);
#61=EDGE_CURVE('',#66,#68,#69,.T.);
#62=EDGE_CURVE('',#68,#63,#70,.T.);
#63=VERTEX_POINT('',#71);
#64=VERTEX_POINT('',#72);
#65=LINE('',#73,#74);
#66=VERTEX_POINT('',#75);
#67=B_SPLINE_CURVE_WITH_KNOTS('',3,(#76,#77,#78,#79,#80,#81,#82,#83,#84,#85,#86),.UNSPECIFIED.,.F.,.F.,(4,1,1,1,1,1,1,1,4),(0.0,0.125083114191414,0.250166228382827,0.375249342574241,0.500332456765654,0.625415570957068,0.750498685148482,0.875581799339895,1.00066491353131),.UNSPECIFIED.);
#68=VERTEX_POINT('',#87);
#69=LINE('',#88,#89);
#70=B_SPLINE_CURVE_WITH_KNOTS('',3,(#90,#91,#92,#93,#94,#95,#96,#97,#98,#99,#100),.UNSPECIFIED.,.F.,.F.,(4,1,1,1,1,1,1,1,4),(0.0,0.125083105694474,0.250166211388949,0.375249317083423,0.500332422777897,0.625415528472371,0.750498634166845,0.87558173986132,1.00066484555579),.UNSPECIFIED.);
#71=CARTESIAN_POINT('',(0.95745313167572,-3.00140600302257E-05,-0.255589336156845));
#72=CARTESIAN_POINT('',(0.957453191280365,0.100028485059738,-0.255589514970779));
#73=CARTESIAN_POINT('',(0.957572221755981,0.049999235499854,-0.255357995629311));
#74=VECTOR('',#101,1.0);
#75=CARTESIAN_POINT('',(-1.08336323620216E-33,0.100000001490116,-3.38753066623879E-34));
#76=CARTESIAN_POINT('',(0.957453191280365,0.100028485059738,-0.255589514970779));
#77=CARTESIAN_POINT('',(0.920643832095209,0.100036795793726,-0.236006573069412));
#78=CARTESIAN_POINT('',(0.846094269226932,0.100030387262201,-0.19858282312609));
#79=CARTESIAN_POINT('',(0.731368962036493,0.100034947163005,-0.148621340920731));
#80=CARTESIAN_POINT('',(0.614046090340816,0.100035291245277,-0.105106053832893));
#81=CARTESIAN_POINT('',(0.494384227909232,0.100037915920973,-0.0684887594208247));
#82=CARTESIAN_POINT('',(0.372725150406762,0.10003532127397,-0.0391737320400096));
#83=CARTESIAN_POINT('',(0.249463268932678,0.100051032343152,-0.017513488923608));
#84=CARTESIAN_POINT('',(0.125050266427587,0.0999984716622202,-0.00400737582881501));
#85=CARTESIAN_POINT('',(0.0416932048840765,0.100136802917902,-0.000280282119012065));
#86=CARTESIAN_POINT('',(-1.08336323620216E-33,0.100000001490116,-3.38753066623879E-34));
#87=CARTESIAN_POINT('',(-1.08330620635905E-33,-1.03312692391634E-33,-3.38473817838937E-34));
#88=CARTESIAN_POINT('',(1.1224323007273E-31,0.0500000007450581,1.69587394498781E-32));
#89=VECTOR('',#102,1.0);
#90=CARTESIAN_POINT('',(-1.08330620635905E-33,-1.03312692391634E-33,-3.38473817838937E-34));
#91=CARTESIAN_POINT('',(0.0416932027340677,-0.00013675573794491,-0.000280202897044787));
#92=CARTESIAN_POINT('',(0.125050265757936,1.45287584063292E-06,-0.0040071536591568));
#93=CARTESIAN_POINT('',(0.249463260040967,-5.11679493998482E-05,-0.0175132781041987));
#94=CARTESIAN_POINT('',(0.372725121988137,-3.55330224161332E-05,-0.0391736034527739));
#95=CARTESIAN_POINT('',(0.494384197191502,-3.8309644506885E-05,-0.0684885875564538));
#96=CARTESIAN_POINT('',(0.614046054734132,-3.58924058075258E-05,-0.105105884019845));
#97=CARTESIAN_POINT('',(0.731368892049243,-3.57981739966653E-05,-0.148621238632857));
#98=CARTESIAN_POINT('',(0.846094213792898,-3.15883159211299E-05,-0.198582646693316));
#99=CARTESIAN_POINT('',(0.920643852064409,-3.82265701606974E-05,-0.236006250672927));
#100=CARTESIAN_POINT('',(0.95745313167572,-3.00140600302257E-05,-0.255589336156845));
#101=DIRECTION('',(2.70667761020947E-07,0.999999999998218,-1.86849848852773E-06));
#102=DIRECTION('',(-0.0,-1.0,-0.0));
ENDSEC;
END-ISO-10303-21;
