ISO-10303-21;
HEADER;
FILE_DESCRIPTION(('STEP AP214'),'1');
FILE_NAME('SMAStripDeformed_05.stp','2026-04-23T00:15:02',(' '),(' '),'Spatial InterOp 3D',' ',' ');
FILE_SCHEMA(('AUTOMOTIVE_DESIGN { 1 0 10303 214 1 1 1 1 }'));
ENDSEC;
DATA;
#1=PRODUCT_DEFINITION_CONTEXT('',#9,'design');
#2=APPLICATION_PROTOCOL_DEFINITION('INTERNATIONAL STANDARD','automotive_design',1994,#9);
#3=PRODUCT_CATEGORY_RELATIONSHIP('NONE','NONE',#10,#11);
#4=SHAPE_DEFINITION_REPRESENTATION(#12,#13);
#5= (GEOMETRIC_REPRESENTATION_CONTEXT(3)GLOBAL_UNCERTAINTY_ASSIGNED_CONTEXT((#16))GLOBAL_UNIT_ASSIGNED_CONTEXT((#18,#19,#20))REPRESENTATION_CONTEXT('NONE','WORKSPACE'));
#9=APPLICATION_CONTEXT(' ');
#10=PRODUCT_CATEGORY('part','NONE');
#11=PRODUCT_RELATED_PRODUCT_CATEGORY('detail',' ',(#22));
#12=PRODUCT_DEFINITION_SHAPE('NONE','NONE',#23);
#13=MANIFOLD_SURFACE_SHAPE_REPRESENTATION('1',(#24,#25),#5);
#16=UNCERTAINTY_MEASURE_WITH_UNIT(LENGTH_MEASURE(1.0E-06),#18,'','');
#18= (CONVERSION_BASED_UNIT('MILLIMETRE',#28)LENGTH_UNIT()NAMED_UNIT(#31));
#19= (NAMED_UNIT(#33)PLANE_ANGLE_UNIT()SI_UNIT($,.RADIAN.));
#20= (NAMED_UNIT(#33)SOLID_ANGLE_UNIT()SI_UNIT($,.STERADIAN.));
#22=PRODUCT('1','','PART--DESC',(#39));
#23=PRODUCT_DEFINITION('','NONE',#40,#1);
#24=SHELL_BASED_SURFACE_MODEL('1',(#41));
#25=AXIS2_PLACEMENT_3D('',#42,#43,#44);
#28=LENGTH_MEASURE_WITH_UNIT(LENGTH_MEASURE(1.0),#45);
#31=DIMENSIONAL_EXPONENTS(1.0,0.0,0.0,0.0,0.0,0.0,0.0);
#33=DIMENSIONAL_EXPONENTS(0.0,0.0,0.0,0.0,0.0,0.0,0.0);
#39=PRODUCT_CONTEXT('',#9,'mechanical');
#40=PRODUCT_DEFINITION_FORMATION_WITH_SPECIFIED_SOURCE(' ','NONE',#22,.NOT_KNOWN.);
#41=CLOSED_SHELL('',(#46));
#42=CARTESIAN_POINT('',(0.0,0.0,0.0));
#43=DIRECTION('',(0.0,0.0,1.0));
#44=DIRECTION('',(1.0,0.0,0.0));
#45= (NAMED_UNIT(#31)LENGTH_UNIT()SI_UNIT(.MILLI.,.METRE.));
#46=FACE_SURFACE('',(#48),#49,.T.);
#48=FACE_BOUND('',#50,.T.);
#49=B_SPLINE_SURFACE_WITH_KNOTS('',3,3,((#51,#52,#53,#54,#55,#56,#57,#58,#59,#60,#61,#62,#63,#64,#65,#66,#67,#68,#69),(#70,#71,#72,#73,#74,#75,#76,#77,#78,#79,#80,#81,#82,#83,#84,#85,#86,#87,#88),(#89,#90,#91,#92,#93,#94,#95,#96,#97,#98,#99,#100,#101,#102,#103,#104,#105,#106,#107),(#108,#109,#110,#111,#112,#113,#114,#115,#116,#117,#118,#119,#120,#121,#122,#123,#124,#125,#126),(#127,#128,#129,#130,#131,#132,#133,#134,#135,#136,#137,#138,#139,#140,#141,#142,#143,#144,#145),(#146,#147,#148,#149,#150,#151,#152,#153,#154,#155,#156,#157,#158,#159,#160,#161,#162,#163,#164),(#165,#166,#167,#168,#169,#170,#171,#172,#173,#174,#175,#176,#177,#178,#179,#180,#181,#182,#183),(#184,#185,#186,#187,#188,#189,#190,#191,#192,#193,#194,#195,#196,#197,#198,#199,#200,#201,#202),(#203,#204,#205,#206,#207,#208,#209,#210,#211,#212,#213,#214,#215,#216,#217,#218,#219,#220,#221),(#222,#223,#224,#225,#226,#227,#228,#229,#230,#231,#232,#233,#234,#235,#236,#237,#238,#239,#240),(#241,#242,#243,#244,#245,#246,#247,#248,#249,#250,#251,#252,#253,#254,#255,#256,#257,#258,#259),(#260,#261,#262,#263,#264,#265,#266,#267,#268,#269,#270,#271,#272,#273,#274,#275,#276,#277,#278),(#279,#280,#281,#282,#283,#284,#285,#286,#287,#288,#289,#290,#291,#292,#293,#294,#295,#296,#297),(#298,#299,#300,#301,#302,#303,#304,#305,#306,#307,#308,#309,#310,#311,#312,#313,#314,#315,#316),(#317,#318,#319,#320,#321,#322,#323,#324,#325,#326,#327,#328,#329,#330,#331,#332,#333,#334,#335),(#336,#337,#338,#339,#340,#341,#342,#343,#344,#345,#346,#347,#348,#349,#350,#351,#352,#353,#354),(#355,#356,#357,#358,#359,#360,#361,#362,#363,#364,#365,#366,#367,#368,#369,#370,#371,#372,#373),(#374,#375,#376,#377,#378,#379,#380,#381,#382,#383,#384,#385,#386,#387,#388,#389,#390,#391,#392),(#393,#394,#395,#396,#397,#398,#399,#400,#401,#402,#403,#404,#405,#406,#407,#408,#409,#410,#411)),.UNSPECIFIED.,.F.,.F.,.F.,(4,1,1,1,1,1,1,1,1,1,1,1,1,1,1,1,4),(4,1,1,1,1,1,1,1,1,1,1,1,1,1,1,1,4),(0.0,1.0,2.0,3.0,4.0,5.0,6.0,7.0,8.0,9.0,10.0,11.0,12.0,13.0,14.0,15.0,16.0),(0.0,1.0,2.0,3.0,4.0,5.0,6.0,7.0,8.0,9.0,10.0,11.0,12.0,13.0,14.0,15.0,16.0),.UNSPECIFIED.);
#50=EDGE_LOOP('',(#412,#413,#414,#415,#416,#417,#418,#419,#420,#421));
#51=CARTESIAN_POINT('',(-0.0192611586467061,0.00845227407966952,0.0181230754406029));
#52=CARTESIAN_POINT('',(-0.0194105169836188,0.0145687181872879,0.0134505446461288));
#53=CARTESIAN_POINT('',(-0.0160901376936325,0.0311772097963726,0.0103463536745787));
#54=CARTESIAN_POINT('',(-0.00919866044126538,0.0584002968118069,0.00898529113222474));
#55=CARTESIAN_POINT('',(-0.00228940217806667,0.0856448816410927,0.00765489066381295));
#56=CARTESIAN_POINT('',(0.00483577100786209,0.113150514554797,0.00669681994586863));
#57=CARTESIAN_POINT('',(0.00980825414264624,0.138053475975986,0.00202659010783166));
#58=CARTESIAN_POINT('',(0.0128261337991025,0.160593258940754,-0.00601421280661349));
#59=CARTESIAN_POINT('',(0.0150383359044656,0.182158951839339,-0.0154443486942633));
#60=CARTESIAN_POINT('',(0.0165555048916666,0.202884327348975,-0.0260730191907295));
#61=CARTESIAN_POINT('',(0.0175287614953665,0.22295209529722,-0.0376396274613176));
#62=CARTESIAN_POINT('',(0.0180435499994414,0.242465560570778,-0.0499968309856859));
#63=CARTESIAN_POINT('',(0.0181853146877671,0.261528028056352,-0.0629972872434928));
#64=CARTESIAN_POINT('',(0.0181218164688657,0.280342326086771,-0.0763517046173808));
#65=CARTESIAN_POINT('',(0.0180208162512594,0.299111282994863,-0.0897707914899921));
#66=CARTESIAN_POINT('',(0.0178899991753258,0.317844190362463,-0.103241295389645));
#67=CARTESIAN_POINT('',(0.0177370503814426,0.336550339771407,-0.116749963844658));
#68=CARTESIAN_POINT('',(0.0176254534671505,0.349009461792836,-0.125772350870433));
#69=CARTESIAN_POINT('',(0.0175685281038111,0.355237660337727,-0.130285487651977));
#70=CARTESIAN_POINT('',(-0.000876298243653095,0.00294715823828594,0.0102711947724031));
#71=CARTESIAN_POINT('',(-0.000927937302202919,0.00918174809565086,0.00576717384315129));
#72=CARTESIAN_POINT('',(0.00297491605919781,0.0264944695867818,0.003667417502248));
#73=CARTESIAN_POINT('',(0.0105125761875383,0.0544988124775585,0.00342065084053736));
#74=CARTESIAN_POINT('',(0.0178821161956203,0.0822998927369672,0.00288397312667266));
#75=CARTESIAN_POINT('',(0.0253330736319326,0.110199409285119,0.00248769391029668));
#76=CARTESIAN_POINT('',(0.0298279305992882,0.13452490531161,-0.00300616789113983));
#77=CARTESIAN_POINT('',(0.0326046657211583,0.156773136779956,-0.0114628072065794));
#78=CARTESIAN_POINT('',(0.0346483658248911,0.178135105340316,-0.0211835126733346));
#79=CARTESIAN_POINT('',(0.0360113788889715,0.198674101381949,-0.0320780139686305));
#80=CARTESIAN_POINT('',(0.036866794641508,0.218599395951913,-0.0438478303091092));
#81=CARTESIAN_POINT('',(0.0372799494140656,0.23798998277599,-0.0563802938915431));
#82=CARTESIAN_POINT('',(0.0373161795382094,0.256924855579959,-0.0695627369127044));
#83=CARTESIAN_POINT('',(0.0371550965407206,0.275621170475185,-0.0830854322166284));
#84=CARTESIAN_POINT('',(0.0369763119483805,0.294296083573033,-0.0966386526473501));
#85=CARTESIAN_POINT('',(0.0367843362372425,0.312955048184089,-0.110214620213417));
#86=CARTESIAN_POINT('',(0.0365836798833602,0.331603517618936,-0.123805556923376));
#87=CARTESIAN_POINT('',(0.0364471288696619,0.344032469331774,-0.13287097549828));
#88=CARTESIAN_POINT('',(0.0363789100810484,0.350247013762363,-0.137403586979215));
#89=CARTESIAN_POINT('',(0.0403815980690095,-0.00263672493782544,0.00230696919981718));
#90=CARTESIAN_POINT('',(0.0409391681241645,0.00433441832739174,-0.0011465144417836));
#91=CARTESIAN_POINT('',(0.0458973515612914,0.0229230678146719,-0.00142642999175074));
#92=CARTESIAN_POINT('',(0.0541426835635879,0.0517830087565571,-0.000452867419560965));
#93=CARTESIAN_POINT('',(0.0617392827844392,0.0798586109053914,-0.000597997856550125));
#94=CARTESIAN_POINT('',(0.0688300871382787,0.107322690795955,-0.00161533515280163));
#95=CARTESIAN_POINT('',(0.0708422963181097,0.128646585816713,-0.0113903444522427));
#96=CARTESIAN_POINT('',(0.0727484132736139,0.149842211926818,-0.0213483021598378));
#97=CARTESIAN_POINT('',(0.0742670767087906,0.170569394272112,-0.0319743955882865));
#98=CARTESIAN_POINT('',(0.075188742301335,0.190574787028938,-0.0436299688459492));
#99=CARTESIAN_POINT('',(0.075728695864832,0.210118677668531,-0.0559437770358188));
#100=CARTESIAN_POINT('',(0.0758892569144156,0.229203870559271,-0.0689118203209218));
#101=CARTESIAN_POINT('',(0.0756727449652198,0.247833170069541,-0.0825300988642845));
#102=CARTESIAN_POINT('',(0.0752831500262928,0.266253206679668,-0.0964468465711582));
#103=CARTESIAN_POINT('',(0.0749244621066829,0.284710610869978,-0.110310297346794));
#104=CARTESIAN_POINT('',(0.0745931268538396,0.303201085313945,-0.124126580416451));
#105=CARTESIAN_POINT('',(0.0742855899152125,0.321720332685045,-0.137901825005387));
#106=CARTESIAN_POINT('',(0.0740940612639394,0.334082814666225,-0.147062048560978));
#107=CARTESIAN_POINT('',(0.0740010785398392,0.340267418702516,-0.151637363667043));
#108=CARTESIAN_POINT('',(0.104872948985658,-0.007863617657744,-0.00514808516866061));
#109=CARTESIAN_POINT('',(0.10573407622995,-0.000525463989847048,-0.00807810627670902));
#110=CARTESIAN_POINT('',(0.109707932222394,0.016873101965336,-0.0100554236885901));
#111=CARTESIAN_POINT('',(0.117463792626918,0.0451412560063424,-0.00992591967222103));
#112=CARTESIAN_POINT('',(0.124691767446501,0.0727711794007653,-0.0107067163688889));
#113=CARTESIAN_POINT('',(0.131866035585461,0.100336169691354,-0.0115801263724174));
#114=CARTESIAN_POINT('',(0.133584173220797,0.12130452275882,-0.0218622408936604));
#115=CARTESIAN_POINT('',(0.133966482204023,0.140657816031734,-0.0344478958206277));
#116=CARTESIAN_POINT('',(0.134499539653718,0.160193369047993,-0.0467735958626141));
#117=CARTESIAN_POINT('',(0.134510505771321,0.179097696855678,-0.0599996048454626));
#118=CARTESIAN_POINT('',(0.134409033860205,0.19786608347115,-0.0734195051195954));
#119=CARTESIAN_POINT('',(0.134079613187972,0.216358872704639,-0.0872324866327325));
#120=CARTESIAN_POINT('',(0.133406733022221,0.234436408366377,-0.101637739332594));
#121=CARTESIAN_POINT('',(0.132617351174641,0.25237308974862,-0.116243890801177));
#122=CARTESIAN_POINT('',(0.131938425456916,0.270443316143623,-0.130659568620478));
#123=CARTESIAN_POINT('',(0.13135486720584,0.288628844872388,-0.144910792104658));
#124=CARTESIAN_POINT('',(0.130851587758209,0.306911433255916,-0.159023580567876));
#125=CARTESIAN_POINT('',(0.130559605412512,0.319152463490406,-0.16835702929246));
#126=CARTESIAN_POINT('',(0.130422003082119,0.325283120987926,-0.173009287699466));
#127=CARTESIAN_POINT('',(0.166852122052915,-0.0161278141777449,-0.0169352095023223));
#128=CARTESIAN_POINT('',(0.167590408924444,-0.00893817847050453,-0.0200770599955752));
#129=CARTESIAN_POINT('',(0.170477677367556,0.00714666819784296,-0.0239281194628375));
#130=CARTESIAN_POINT('',(0.177715159134023,0.0347880857967486,-0.0246925221135714));
#131=CARTESIAN_POINT('',(0.184809829440584,0.0622568397484644,-0.0257031928524862));
#132=CARTESIAN_POINT('',(0.192018673364371,0.089863633274708,-0.0265169794026007));
#133=CARTESIAN_POINT('',(0.19595201958652,0.113510244754623,-0.0329791260868232));
#134=CARTESIAN_POINT('',(0.195546164397132,0.131910622199087,-0.0469239134257906));
#135=CARTESIAN_POINT('',(0.195145047937851,0.150316728920626,-0.0608605291656112));
#136=CARTESIAN_POINT('',(0.194146859690926,0.168000956651802,-0.0758267522474974));
#137=CARTESIAN_POINT('',(0.193306839383229,0.185876414507462,-0.0905202260974183));
#138=CARTESIAN_POINT('',(0.192413233494286,0.203687085672329,-0.105306104427037));
#139=CARTESIAN_POINT('',(0.191254493733819,0.221177201461028,-0.120549187043312));
#140=CARTESIAN_POINT('',(0.19005131413738,0.238613588059056,-0.13586890295954));
#141=CARTESIAN_POINT('',(0.189024388740526,0.256263071651912,-0.150884681189015));
#142=CARTESIAN_POINT('',(0.188153366933761,0.274101047698332,-0.165631614893707));
#143=CARTESIAN_POINT('',(0.187417898107589,0.292102911657055,-0.180144797235588));
#144=CARTESIAN_POINT('',(0.187004695907634,0.30419738318987,-0.189687280877801));
#145=CARTESIAN_POINT('',(0.186814057819637,0.310263918751059,-0.19443099563319));
#146=CARTESIAN_POINT('',(0.227858615279674,-0.0255680119018496,-0.0303996502424561));
#147=CARTESIAN_POINT('',(0.228309770575411,-0.0187255275025813,-0.0340366384807709));
#148=CARTESIAN_POINT('',(0.229838590973917,-0.00428308820164994,-0.0402302438687893));
#149=CARTESIAN_POINT('',(0.236069929524284,0.0221418698960209,-0.0427296681097306));
#150=CARTESIAN_POINT('',(0.243096491403009,0.0495282785684255,-0.0438577869324587));
#151=CARTESIAN_POINT('',(0.250059140475238,0.0768374146026344,-0.0450961187918442));
#152=CARTESIAN_POINT('',(0.256218960134402,0.103175904061119,-0.0477188722153122));
#153=CARTESIAN_POINT('',(0.256941505726339,0.122940554334421,-0.0597178135885355));
#154=CARTESIAN_POINT('',(0.255623050734994,0.140237569273277,-0.0752363136299082));
#155=CARTESIAN_POINT('',(0.253919590313801,0.157069100267429,-0.0914187278362284));
#156=CARTESIAN_POINT('',(0.252363068673441,0.17407828497249,-0.107347756686363));
#157=CARTESIAN_POINT('',(0.250813046060785,0.191095327211024,-0.123265578430788));
#158=CARTESIAN_POINT('',(0.24915341986296,0.207979855190736,-0.13937240367252));
#159=CARTESIAN_POINT('',(0.247548537979397,0.22493057080672,-0.155384826282829));
#160=CARTESIAN_POINT('',(0.246162748309531,0.242146175954068,-0.171019440132986));
#161=CARTESIAN_POINT('',(0.24497686461927,0.259603473858821,-0.186309330503348));
#162=CARTESIAN_POINT('',(0.243971700674521,0.277279267747021,-0.201287582674272));
#163=CARTESIAN_POINT('',(0.243413733538698,0.289198713817392,-0.211079703033423));
#164=CARTESIAN_POINT('',(0.24316070109354,0.295189812594455,-0.215931012368838));
#165=CARTESIAN_POINT('',(0.287917609309038,-0.0361537666228528,-0.0454979851816278));
#166=CARTESIAN_POINT('',(0.288196019687466,-0.0295201363832993,-0.0494328596018846));
#167=CARTESIAN_POINT('',(0.288855292274939,-0.0161290083465923,-0.0571259376312905));
#168=CARTESIAN_POINT('',(0.292609782688318,0.00730136070933343,-0.0638965082901376));
#169=CARTESIAN_POINT('',(0.299577834339061,0.0346170286346866,-0.0651255237915607));
#170=CARTESIAN_POINT('',(0.306359079105522,0.0617068410300881,-0.0666766743252938));
#171=CARTESIAN_POINT('',(0.313264526170042,0.0889468179976204,-0.0680136469316343));
#172=CARTESIAN_POINT('',(0.31730069577727,0.112717746256426,-0.074298482085814));
#173=CARTESIAN_POINT('',(0.315603809897028,0.129557226081996,-0.0904695589692624));
#174=CARTESIAN_POINT('',(0.313653977407933,0.146090885323854,-0.10707682408169));
#175=CARTESIAN_POINT('',(0.311518677970378,0.162400309061255,-0.124003913603505));
#176=CARTESIAN_POINT('',(0.309201979114894,0.178490415069403,-0.14124381337094));
#177=CARTESIAN_POINT('',(0.307040904172593,0.194768675392742,-0.158215350896298));
#178=CARTESIAN_POINT('',(0.305072521765577,0.211279907187354,-0.174854604007626));
#179=CARTESIAN_POINT('',(0.303333900515948,0.228068927609316,-0.191097650532973));
#180=CARTESIAN_POINT('',(0.301813598844036,0.245121903420899,-0.206964220653328));
#181=CARTESIAN_POINT('',(0.300500175170171,0.262425001384372,-0.222474044549679));
#182=CARTESIAN_POINT('',(0.299771119095098,0.27413759542575,-0.232561195475747));
#183=CARTESIAN_POINT('',(0.299445391244972,0.280040803120656,-0.237537862807031));
#184=CARTESIAN_POINT('',(0.347201669843267,-0.0476764408577964,-0.0619326371813538));
#185=CARTESIAN_POINT('',(0.347478446329534,-0.0410447860464042,-0.0658703291310935));
#186=CARTESIAN_POINT('',(0.348105714742786,-0.027692352085438,-0.073618596056435));
#187=CARTESIAN_POINT('',(0.348861758738238,-0.00788720116513074,-0.0855597718428058));
#188=CARTESIAN_POINT('',(0.354442710216602,0.0177514180490094,-0.0891807417979782));
#189=CARTESIAN_POINT('',(0.361179697375573,0.0447877215738313,-0.0908082113917613));
#190=CARTESIAN_POINT('',(0.367969334018198,0.0718876800173583,-0.0923448907387961));
#191=CARTESIAN_POINT('',(0.374579219105014,0.0987703130499235,-0.0941915387117792));
#192=CARTESIAN_POINT('',(0.375428168109018,0.118687789112972,-0.105972506494858));
#193=CARTESIAN_POINT('',(0.372961342182659,0.134596386665029,-0.123471289595279));
#194=CARTESIAN_POINT('',(0.370499458589106,0.150510959656373,-0.140961549998346));
#195=CARTESIAN_POINT('',(0.36754504675765,0.165830050170634,-0.159301139913231));
#196=CARTESIAN_POINT('',(0.364861110849144,0.18147615477301,-0.177174313558107));
#197=CARTESIAN_POINT('',(0.362460005109282,0.197464210143805,-0.194559766925084));
#198=CARTESIAN_POINT('',(0.36035452540141,0.213809686893259,-0.211435434468411));
#199=CARTESIAN_POINT('',(0.358509333952299,0.230469860517235,-0.227862253635681));
#200=CARTESIAN_POINT('',(0.356889092988718,0.247402006511599,-0.243901161874488));
#201=CARTESIAN_POINT('',(0.355988605649286,0.258907334641921,-0.254283933682493));
#202=CARTESIAN_POINT('',(0.35559070688346,0.264723285379058,-0.25938505456564));
#203=CARTESIAN_POINT('',(0.405854006581899,-0.0599628894749689,-0.0794566514178573));
#204=CARTESIAN_POINT('',(0.406101687889582,-0.053366411670053,-0.0834445159098422));
#205=CARTESIAN_POINT('',(0.406634444889744,-0.0401282450465685,-0.0913557609675301));
#206=CARTESIAN_POINT('',(0.406782967153,-0.0210576074356115,-0.104344564273538));
#207=CARTESIAN_POINT('',(0.408266961216365,-0.000372341475646867,-0.115030442539423));
#208=CARTESIAN_POINT('',(0.414427051739389,0.0259664754659548,-0.11765272887765));
#209=CARTESIAN_POINT('',(0.421140804530012,0.0529746878923327,-0.119320264468076));
#210=CARTESIAN_POINT('',(0.427932426342627,0.0800770464702119,-0.120853520532284));
#211=CARTESIAN_POINT('',(0.433265111678962,0.105415503935533,-0.12490260758813));
#212=CARTESIAN_POINT('',(0.432247061812789,0.123075718330379,-0.139903080603485));
#213=CARTESIAN_POINT('',(0.429101703375376,0.138163948258067,-0.158571944202883));
#214=CARTESIAN_POINT('',(0.425807348105984,0.153072036224833,-0.177497742119604));
#215=CARTESIAN_POINT('',(0.422558204079036,0.168034786037502,-0.196345576501406));
#216=CARTESIAN_POINT('',(0.419547727623876,0.183286092618921,-0.214781845826356));
#217=CARTESIAN_POINT('',(0.417041303007551,0.199146814081498,-0.232348914018735));
#218=CARTESIAN_POINT('',(0.414909834288294,0.215460869280499,-0.249269397742442));
#219=CARTESIAN_POINT('',(0.413024225524339,0.232072177071193,-0.265765913661377));
#220=CARTESIAN_POINT('',(0.411977946273715,0.243401238092883,-0.276400093131381));
#221=CARTESIAN_POINT('',(0.411519226618527,0.249143654419058,-0.281606095262535));
#222=CARTESIAN_POINT('',(0.463872209781628,-0.073016025931515,-0.0980741833201051));
#223=CARTESIAN_POINT('',(0.464068034536438,-0.0664822443664916,-0.102151470706751));
#224=CARTESIAN_POINT('',(0.464415353027532,-0.0534682788633261,-0.110382491132141));
#225=CARTESIAN_POINT('',(0.464886790959196,-0.0340072258257705,-0.12281444959982));
#226=CARTESIAN_POINT('',(0.463972823765062,-0.0162211721336061,-0.137635439535367));
#227=CARTESIAN_POINT('',(0.466247519160948,0.00542007716272115,-0.146957810239525));
#228=CARTESIAN_POINT('',(0.472884128746673,0.0323350209738038,-0.148758373736809));
#229=CARTESIAN_POINT('',(0.47945848657508,0.059174700408558,-0.150666285910946));
#230=CARTESIAN_POINT('',(0.486200533469328,0.0862171213160289,-0.15228503035526));
#231=CARTESIAN_POINT('',(0.490386557182031,0.110169228006977,-0.158311452885649));
#232=CARTESIAN_POINT('',(0.487384135679707,0.125430273285386,-0.17673383202394));
#233=CARTESIAN_POINT('',(0.48363379602118,0.139787061463312,-0.196445942214388));
#234=CARTESIAN_POINT('',(0.480081937717999,0.154383819982107,-0.215815785587081));
#235=CARTESIAN_POINT('',(0.476476196992974,0.168915432920279,-0.235278545319729));
#236=CARTESIAN_POINT('',(0.473478230544851,0.184181864502472,-0.253693242037563));
#237=CARTESIAN_POINT('',(0.470967516434009,0.200037399828246,-0.271267707154634));
#238=CARTESIAN_POINT('',(0.468823558851823,0.216336355590381,-0.288209727023963));
#239=CARTESIAN_POINT('',(0.467667372552167,0.227532535455681,-0.299033433292873));
#240=CARTESIAN_POINT('',(0.467164712691796,0.233221826660875,-0.30431520714663));
#241=CARTESIAN_POINT('',(0.521269842926879,-0.0868194515386233,-0.117761843635015));
#242=CARTESIAN_POINT('',(0.521452984176658,-0.0803010047390258,-0.121861002813584));
#243=CARTESIAN_POINT('',(0.521765711121221,-0.0673288615279231,-0.130151673872314));
#244=CARTESIAN_POINT('',(0.522037247722299,-0.0481094956269599,-0.14292834780289));
#245=CARTESIAN_POINT('',(0.521511620361251,-0.0298539265893582,-0.157079673634995));
#246=CARTESIAN_POINT('',(0.519795027167469,-0.0130382735395561,-0.173284734362822));
#247=CARTESIAN_POINT('',(0.52307215350098,0.00981494699396124,-0.180878485033924));
#248=CARTESIAN_POINT('',(0.529498261514631,0.0364753876356382,-0.183042043347926));
#249=CARTESIAN_POINT('',(0.53604064031473,0.0632764033968674,-0.185005101055682));
#250=CARTESIAN_POINT('',(0.542784502414104,0.0903210189457046,-0.186620715309349));
#251=CARTESIAN_POINT('',(0.545424493731156,0.112403922756969,-0.195313159478304));
#252=CARTESIAN_POINT('',(0.541557152853365,0.12661925269858,-0.215227029853839));
#253=CARTESIAN_POINT('',(0.537432061925823,0.140522954541979,-0.235585371646601));
#254=CARTESIAN_POINT('',(0.53338594757984,0.154522141612008,-0.255807524006357));
#255=CARTESIAN_POINT('',(0.529749305223793,0.169016393484619,-0.275323571378516));
#256=CARTESIAN_POINT('',(0.526634796971429,0.184141922278032,-0.293939236053282));
#257=CARTESIAN_POINT('',(0.52420507904596,0.20009538459639,-0.311374029075864));
#258=CARTESIAN_POINT('',(0.522985116068422,0.211214456407364,-0.322307713637433));
#259=CARTESIAN_POINT('',(0.522460927344891,0.216877718524727,-0.327626612466838));
#260=CARTESIAN_POINT('',(0.578124752031918,-0.101279047961875,-0.138385392511538));
#261=CARTESIAN_POINT('',(0.57830201378333,-0.0947677096648618,-0.142494690462049));
#262=CARTESIAN_POINT('',(0.578631259420164,-0.0817755948236375,-0.150756876224377));
#263=CARTESIAN_POINT('',(0.578709784908557,-0.0627895855642648,-0.163866383932787));
#264=CARTESIAN_POINT('',(0.577997144354063,-0.0447601214910308,-0.178340200562517));
#265=CARTESIAN_POINT('',(0.576627170502743,-0.0275253945104962,-0.193947541171444));
#266=CARTESIAN_POINT('',(0.574676205763609,-0.010993104195343,-0.210556758767606));
#267=CARTESIAN_POINT('',(0.57805874306727,0.0119875615906211,-0.217968735804371));
#268=CARTESIAN_POINT('',(0.584663434465982,0.0388639152872628,-0.219824339918835));
#269=CARTESIAN_POINT('',(0.591186092200354,0.0656410876458886,-0.221821405185626));
#270=CARTESIAN_POINT('',(0.597735560720785,0.0924506751069734,-0.223772237180732));
#271=CARTESIAN_POINT('',(0.599796594762528,0.113833600955767,-0.233463051518461));
#272=CARTESIAN_POINT('',(0.594666415793838,0.126522119038376,-0.255554595328142));
#273=CARTESIAN_POINT('',(0.589992076045575,0.139761761396189,-0.276860077197088));
#274=CARTESIAN_POINT('',(0.585998688984659,0.153824697449332,-0.296991305147158));
#275=CARTESIAN_POINT('',(0.582294152682913,0.168236863358435,-0.316624430744112));
#276=CARTESIAN_POINT('',(0.579464871066026,0.183707240325724,-0.334748242606341));
#277=CARTESIAN_POINT('',(0.578098797455554,0.19464965968323,-0.345933884442622));
#278=CARTESIAN_POINT('',(0.577529950547154,0.200258928619084,-0.351329793098945));
#279=CARTESIAN_POINT('',(0.634503054103651,-0.116314877613899,-0.159830815927988));
#280=CARTESIAN_POINT('',(0.634637149758104,-0.109855728516133,-0.164014550707162));
#281=CARTESIAN_POINT('',(0.634887408789262,-0.0969591110210203,-0.172412943188368));
#282=CARTESIAN_POINT('',(0.634881185150277,-0.0780755661817936,-0.185668594669752));
#283=CARTESIAN_POINT('',(0.63416548066056,-0.0600498065047663,-0.200147694835342));
#284=CARTESIAN_POINT('',(0.633115018887439,-0.0424287791476392,-0.215204059852388));
#285=CARTESIAN_POINT('',(0.631069951565816,-0.0260102618806241,-0.231975550581936));
#286=CARTESIAN_POINT('',(0.628337722614603,-0.0104225451197634,-0.249932002104565));
#287=CARTESIAN_POINT('',(0.631732492896441,0.0125729107301718,-0.257322884250555));
#288=CARTESIAN_POINT('',(0.638068064346897,0.0391238897557045,-0.259642566354223));
#289=CARTESIAN_POINT('',(0.644503289775716,0.0657953536454931,-0.261790402341712));
#290=CARTESIAN_POINT('',(0.651084037638016,0.0926427588366983,-0.263687295362125));
#291=CARTESIAN_POINT('',(0.652617776333305,0.113388167656219,-0.274287392589084));
#292=CARTESIAN_POINT('',(0.647352247459138,0.125913043350871,-0.29661233757315));
#293=CARTESIAN_POINT('',(0.642479397264907,0.138912680196319,-0.318260136424534));
#294=CARTESIAN_POINT('',(0.638328434074126,0.152785101641527,-0.3386630930739));
#295=CARTESIAN_POINT('',(0.634899019871296,0.167529899014889,-0.357821790404655));
#296=CARTESIAN_POINT('',(0.633176037346636,0.17804080401858,-0.369622895986003));
#297=CARTESIAN_POINT('',(0.63249386226793,0.183513055552418,-0.375214230918739));
#298=CARTESIAN_POINT('',(0.690588997305654,-0.131704178540354,-0.181780391181825));
#299=CARTESIAN_POINT('',(0.690663026895495,-0.125317651246155,-0.18606770556803));
#300=CARTESIAN_POINT('',(0.690787560958289,-0.112573039280533,-0.194682901712023));
#301=CARTESIAN_POINT('',(0.690724396089018,-0.0937583382196921,-0.208036744248456));
#302=CARTESIAN_POINT('',(0.690231874643483,-0.0754627430657008,-0.222130981311032));
#303=CARTESIAN_POINT('',(0.689147763361377,-0.0578823990469517,-0.237245372485443));
#304=CARTESIAN_POINT('',(0.687225007247971,-0.0413160035962323,-0.253805946335977));
#305=CARTESIAN_POINT('',(0.684323615919034,-0.0259328095895298,-0.272054106208775));
#306=CARTESIAN_POINT('',(0.680906809647096,-0.0111727688223065,-0.291191062069773));
#307=CARTESIAN_POINT('',(0.683434253207378,0.0107740611320019,-0.300077586748141));
#308=CARTESIAN_POINT('',(0.689931339634284,0.0375203169576457,-0.302118747894955));
#309=CARTESIAN_POINT('',(0.696433681414521,0.0642729266744548,-0.304150846563039));
#310=CARTESIAN_POINT('',(0.702977315799565,0.0910754604782573,-0.306111739104889));
#311=CARTESIAN_POINT('',(0.705318156360637,0.112796681406219,-0.315320047230433));
#312=CARTESIAN_POINT('',(0.699400652995767,0.12453329897709,-0.33876927531807));
#313=CARTESIAN_POINT('',(0.693698813030554,0.136530660532895,-0.361846607388684));
#314=CARTESIAN_POINT('',(0.689942762409387,0.15088054397335,-0.381568565723336));
#315=CARTESIAN_POINT('',(0.687997592102403,0.161122816803668,-0.393752818150227));
#316=CARTESIAN_POINT('',(0.687241999533594,0.166506304231199,-0.399470756262699));
#317=CARTESIAN_POINT('',(0.746566829801501,-0.147224188786897,-0.203916395570512));
#318=CARTESIAN_POINT('',(0.746584279990013,-0.14090606780824,-0.208301277063761));
#319=CARTESIAN_POINT('',(0.746585117657019,-0.128311008762638,-0.217129778743079));
#320=CARTESIAN_POINT('',(0.746399845863011,-0.109643938900205,-0.230694185886363));
#321=CARTESIAN_POINT('',(0.745943705610024,-0.0913043577145702,-0.244725686199797));
#322=CARTESIAN_POINT('',(0.744923313538708,-0.0736469751210569,-0.259730198179414));
#323=CARTESIAN_POINT('',(0.743045097373042,-0.0570267294413187,-0.276213966094453));
#324=CARTESIAN_POINT('',(0.740745273936303,-0.0409162205092723,-0.293424765416348));
#325=CARTESIAN_POINT('',(0.737349343408427,-0.0261309402962095,-0.312525722558595));
#326=CARTESIAN_POINT('',(0.732585897876463,-0.0129990296961265,-0.333984860940909));
#327=CARTESIAN_POINT('',(0.733922748121597,0.00750833465612382,-0.344924478135219));
#328=CARTESIAN_POINT('',(0.739943515532348,0.0336787054749911,-0.347787017157103));
#329=CARTESIAN_POINT('',(0.746317265766058,0.0602758438771328,-0.350040862695785));
#330=CARTESIAN_POINT('',(0.752874551427215,0.087094882512718,-0.351978214594105));
#331=CARTESIAN_POINT('',(0.755778632756209,0.109497079640349,-0.360215254537154));
#332=CARTESIAN_POINT('',(0.750309765955086,0.121776113242893,-0.382890841147313));
#333=CARTESIAN_POINT('',(0.744497004670855,0.133639367357282,-0.406159449052451));
#334=CARTESIAN_POINT('',(0.742507496431598,0.143828034201776,-0.418420159053699));
#335=CARTESIAN_POINT('',(0.741749366260732,0.149208453586823,-0.424142473078352));
#336=CARTESIAN_POINT('',(0.802479413838919,-0.162823086517773,-0.226164916231524));
#337=CARTESIAN_POINT('',(0.802448682684908,-0.156563218331519,-0.230632882983598));
#338=CARTESIAN_POINT('',(0.802343135018051,-0.144096782575423,-0.239644838517376));
#339=CARTESIAN_POINT('',(0.802014734146848,-0.125602760369698,-0.253456061457007));
#340=CARTESIAN_POINT('',(0.801478430610301,-0.107360099171571,-0.267625797585674));
#341=CARTESIAN_POINT('',(0.800535002652815,-0.0896096644896239,-0.282497590488098));
#342=CARTESIAN_POINT('',(0.798985228518791,-0.0725923218324343,-0.298414983748999));
#343=CARTESIAN_POINT('',(0.796704614279104,-0.056458588363472,-0.315592658192565));
#344=CARTESIAN_POINT('',(0.793502449016597,-0.0414390397139709,-0.334359481074927));
#345=CARTESIAN_POINT('',(0.789323466096734,-0.0276004950222099,-0.354810755731244));
#346=CARTESIAN_POINT('',(0.783537666983177,-0.0157046427764954,-0.378032869312821));
#347=CARTESIAN_POINT('',(0.782546015898125,0.00198748859359052,-0.392987819529367));
#348=CARTESIAN_POINT('',(0.788075909997395,0.0275643777946328,-0.396696834261517));
#349=CARTESIAN_POINT('',(0.794403388724031,0.0541055724568409,-0.399030471685191));
#350=CARTESIAN_POINT('',(0.800661064375163,0.0805623729562166,-0.401484479490661));
#351=CARTESIAN_POINT('',(0.804680773025801,0.104313399389196,-0.407797700380212));
#352=CARTESIAN_POINT('',(0.800877815490921,0.118606570862662,-0.42760054631289));
#353=CARTESIAN_POINT('',(0.797543170665439,0.12716892432096,-0.442180847582594));
#354=CARTESIAN_POINT('',(0.796444702363047,0.132137863961272,-0.448490050229781));
#355=CARTESIAN_POINT('',(0.858369611665636,-0.178449049897226,-0.248452040302339));
#356=CARTESIAN_POINT('',(0.858304008623427,-0.172231342945123,-0.252980141116787));
#357=CARTESIAN_POINT('',(0.858124669173988,-0.159854123826976,-0.262119345270753));
#358=CARTESIAN_POINT('',(0.857676260615123,-0.141505194774533,-0.276137512833925));
#359=CARTESIAN_POINT('',(0.8570134533819,-0.123415480613469,-0.29052539548633));
#360=CARTESIAN_POINT('',(0.85601169214409,-0.105735572743165,-0.305497779933943));
#361=CARTESIAN_POINT('',(0.854546421571462,-0.0886160625629997,-0.32126945288274));
#362=CARTESIAN_POINT('',(0.852387464290389,-0.0723352419191404,-0.338237338653662));
#363=CARTESIAN_POINT('',(0.849304626574077,-0.0571714224292607,-0.356798389767511));
#364=CARTESIAN_POINT('',(0.845664337756754,-0.0426815792455859,-0.376320725199799));
#365=CARTESIAN_POINT('',(0.841168864701234,-0.0292256813047114,-0.397317764325494));
#366=CARTESIAN_POINT('',(0.834537429183868,-0.0183522306630072,-0.421998117046985));
#367=CARTESIAN_POINT('',(0.830495610043346,-0.00434785055146088,-0.442212862633936));
#368=CARTESIAN_POINT('',(0.833631017261253,0.0183340270142496,-0.450050997724063));
#369=CARTESIAN_POINT('',(0.839647272831214,0.0444989428725224,-0.452921317090788));
#370=CARTESIAN_POINT('',(0.845569998125235,0.0705507776196772,-0.455952922689431));
#371=CARTESIAN_POINT('',(0.849929339831081,0.0947124313374519,-0.461680470809831));
#372=CARTESIAN_POINT('',(0.849526333493791,0.10681922999608,-0.47120537242041));
#373=CARTESIAN_POINT('',(0.84923495877787,0.112763971734879,-0.476122800243259));
#374=CARTESIAN_POINT('',(0.895632356597001,-0.188863199559151,-0.263305617004851));
#375=CARTESIAN_POINT('',(0.895550422682705,-0.182665237156527,-0.267861879233304));
#376=CARTESIAN_POINT('',(0.895338259853595,-0.170327702559853,-0.27705768494407));
#377=CARTESIAN_POINT('',(0.894831490925161,-0.15204933307082,-0.291176490765884));
#378=CARTESIAN_POINT('',(0.89409255762875,-0.134051657768019,-0.305695647337446));
#379=CARTESIAN_POINT('',(0.893030702770629,-0.116444405017007,-0.32077165890991));
#380=CARTESIAN_POINT('',(0.891555169157069,-0.0993373031833401,-0.33656102973443));
#381=CARTESIAN_POINT('',(0.889527418124754,-0.0828978499657388,-0.353302659768869));
#382=CARTESIAN_POINT('',(0.886808905559313,-0.0672935496534239,-0.371235458371046));
#383=CARTESIAN_POINT('',(0.883378091470252,-0.0525504447875296,-0.390396569704894));
#384=CARTESIAN_POINT('',(0.87898395640786,-0.0389720259543957,-0.411218858752098));
#385=CARTESIAN_POINT('',(0.87342976634854,-0.0267961509146192,-0.434041579182523));
#386=CARTESIAN_POINT('',(0.867239417984248,-0.0153894117214995,-0.457961308842106));
#387=CARTESIAN_POINT('',(0.862943042324243,-0.00169279862738462,-0.478615018833096));
#388=CARTESIAN_POINT('',(0.868156500581802,0.0235015094658986,-0.482869704408619));
#389=CARTESIAN_POINT('',(0.874819946386228,0.0504488991283224,-0.484623990777455));
#390=CARTESIAN_POINT('',(0.881058884357169,0.0768830451698291,-0.48711031036435));
#391=CARTESIAN_POINT('',(0.883005094861192,0.0918301225296909,-0.492584156544112));
#392=CARTESIAN_POINT('',(0.883545949773043,0.0987810566491701,-0.496066464247788));
#393=CARTESIAN_POINT('',(0.914268766621244,-0.194064183819828,-0.270723718448792));
#394=CARTESIAN_POINT('',(0.914179907555207,-0.187874594148341,-0.2752919226032));
#395=CARTESIAN_POINT('',(0.913954086348739,-0.175553572969085,-0.284511281203081));
#396=CARTESIAN_POINT('',(0.913425106048369,-0.157302057742939,-0.298668388937824));
#397=CARTESIAN_POINT('',(0.912659937989846,-0.13933610111112,-0.313232785469213));
#398=CARTESIAN_POINT('',(0.911579983503882,-0.121750731392172,-0.328340008547734));
#399=CARTESIAN_POINT('',(0.910106643921188,-0.104640976904639,-0.344125595923874));
#400=CARTESIAN_POINT('',(0.90813825423564,-0.0881297539100057,-0.360764861586505));
#401=CARTESIAN_POINT('',(0.905573146715588,-0.0723399819650094,-0.378433124224479));
#402=CARTESIAN_POINT('',(0.902283307450907,-0.057426434003333,-0.397351134615974));
#403=CARTESIAN_POINT('',(0.898021936817491,-0.0436874987064697,-0.417944480957012));
#404=CARTESIAN_POINT('',(0.892878382249464,-0.031015152153557,-0.440059090025456));
#405=CARTESIAN_POINT('',(0.886622400737904,-0.0196877655459476,-0.464091999325593));
#406=CARTESIAN_POINT('',(0.881037795000948,-0.00754866403846259,-0.486967169403876));
#407=CARTESIAN_POINT('',(0.885625286151297,0.01688882969396,-0.492301290221213));
#408=CARTESIAN_POINT('',(0.892030957379987,0.0435245616054655,-0.494500090300575));
#409=CARTESIAN_POINT('',(0.898222388791492,0.069901270689019,-0.497068331531408));
#410=CARTESIAN_POINT('',(0.900583659901184,0.0853501696675896,-0.501826435557807));
#411=CARTESIAN_POINT('',(0.901304626956996,0.0925188651607016,-0.504998152827208));
#412=ORIENTED_EDGE('',*,*,#422,.T.);
#413=ORIENTED_EDGE('',*,*,#423,.T.);
#414=ORIENTED_EDGE('',*,*,#424,.T.);
#415=ORIENTED_EDGE('',*,*,#425,.T.);
#416=ORIENTED_EDGE('',*,*,#426,.T.);
#417=ORIENTED_EDGE('',*,*,#427,.T.);
#418=ORIENTED_EDGE('',*,*,#428,.T.);
#419=ORIENTED_EDGE('',*,*,#429,.T.);
#420=ORIENTED_EDGE('',*,*,#430,.T.);
#421=ORIENTED_EDGE('',*,*,#431,.T.);
#422=EDGE_CURVE('',#432,#433,#434,.T.);
#423=EDGE_CURVE('',#433,#435,#436,.T.);
#424=EDGE_CURVE('',#435,#437,#438,.T.);
#425=EDGE_CURVE('',#437,#439,#440,.T.);
#426=EDGE_CURVE('',#439,#441,#442,.T.);
#427=EDGE_CURVE('',#441,#443,#444,.T.);
#428=EDGE_CURVE('',#443,#445,#446,.T.);
#429=EDGE_CURVE('',#445,#447,#448,.T.);
#430=EDGE_CURVE('',#447,#449,#450,.T.);
#431=EDGE_CURVE('',#449,#432,#451,.T.);
#432=VERTEX_POINT('',#452);
#433=VERTEX_POINT('',#453);
#434=LINE('',#454,#455);
#435=VERTEX_POINT('',#456);
#436=LINE('',#457,#458);
#437=VERTEX_POINT('',#459);
#438=LINE('',#460,#461);
#439=VERTEX_POINT('',#462);
#440=LINE('',#463,#464);
#441=VERTEX_POINT('',#465);
#442=LINE('',#466,#467);
#443=VERTEX_POINT('',#468);
#444=B_SPLINE_CURVE_WITH_KNOTS('',3,(#469,#470,#471,#472,#473,#474,#475,#476,#477,#478,#479,#480,#481,#482,#483,#484,#485,#486,#487,#488,#489,#490),.UNSPECIFIED.,.F.,.F.,(4,1,1,1,1,1,1,1,1,1,1,1,1,1,1,1,1,1,1,4),(0.0,0.129561822053115,0.259123644106231,0.388685466159346,0.518247288212461,0.583028199239019,0.647809110265577,0.712590021292135,0.777370932318692,0.84215184334525,0.874542298858529,0.906932754371808,0.939323209885087,0.971713665398365,0.987908893155005,1.00410412091164,1.01220173478996,1.02029934866828,1.0283969625466,1.03649457642492),.UNSPECIFIED.);
#445=VERTEX_POINT('',#491);
#446=LINE('',#492,#493);
#447=VERTEX_POINT('',#494);
#448=LINE('',#495,#496);
#449=VERTEX_POINT('',#497);
#450=LINE('',#498,#499);
#451=B_SPLINE_CURVE_WITH_KNOTS('',3,(#500,#501,#502,#503,#504,#505,#506,#507,#508,#509,#510,#511,#512,#513,#514,#515,#516,#517,#518,#519,#520,#521,#522,#523,#524,#525,#526,#527,#528,#529,#530),.UNSPECIFIED.,.F.,.F.,(4,1,1,1,1,1,1,1,1,1,1,1,1,1,1,1,1,1,1,1,1,1,1,1,1,1,1,1,4),(0.0,0.00810607188139671,0.0162121437627934,0.0243182156441901,0.0324242875255868,0.0486364312883803,0.0648485750511737,0.0972728625767605,0.129697150102347,0.162121437627934,0.194545725153521,0.259394300204695,0.324242875255868,0.389091450307042,0.453940025358216,0.51878860040939,0.583637175460563,0.648485750511737,0.713334325562911,0.778182900614084,0.843031475665258,0.875455763190845,0.907880050716432,0.940304338242019,0.972728625767605,0.988940769530399,1.00515291329319,1.02136505705599,1.03757720081878),.UNSPECIFIED.);
#452=CARTESIAN_POINT('',(0.881811201572418,4.21794356952887E-06,-0.490273177623749));
#453=CARTESIAN_POINT('',(0.881811380386353,0.0300188865512609,-0.490266859531403));
#454=CARTESIAN_POINT('',(0.881811320781708,0.0150115522474152,-0.490270018577576));
#455=VECTOR('',#531,1.0);
#456=CARTESIAN_POINT('',(0.881811141967773,0.0500286445021629,-0.490263104438782));
#457=CARTESIAN_POINT('',(0.881811261177063,0.0400237655267119,-0.490264981985092));
#458=VECTOR('',#532,1.0);
#459=CARTESIAN_POINT('',(0.88181060552597,0.0700383931398392,-0.490259528160095));
#460=CARTESIAN_POINT('',(0.881810873746872,0.0600335188210011,-0.490261316299438));
#461=VECTOR('',#533,1.0);
#462=CARTESIAN_POINT('',(0.881807744503021,0.090048149228096,-0.490258306264877));
#463=CARTESIAN_POINT('',(0.881809175014496,0.0800432711839676,-0.490258693695068));
#464=VECTOR('',#534,1.0);
#465=CARTESIAN_POINT('',(0.876965999603271,0.100054450333118,-0.494250237941742));
#466=CARTESIAN_POINT('',(0.879386872053146,0.0950512997806072,-0.49225427210331));
#467=VECTOR('',#535,1.0);
#468=CARTESIAN_POINT('',(0.000228526565479115,0.100024089217186,0.00404970906674862));
#469=CARTESIAN_POINT('',(0.876965999603271,0.100054450333118,-0.494250237941742));
#470=CARTESIAN_POINT('',(0.849903518137207,0.10004956708044,-0.460593697564973));
#471=CARTESIAN_POINT('',(0.792955450229893,0.100057900255456,-0.395541298304674));
#472=CARTESIAN_POINT('',(0.698895166769097,0.100055412868855,-0.306236288062852));
#473=CARTESIAN_POINT('',(0.597186167689694,0.100058873071645,-0.225770842757596));
#474=CARTESIAN_POINT('',(0.506722221855086,0.100068125620729,-0.166623437804684));
#475=CARTESIAN_POINT('',(0.431242785106027,0.100070001620863,-0.124577604977292));
#476=CARTESIAN_POINT('',(0.373144866171513,0.100074443620112,-0.095874603833472));
#477=CARTESIAN_POINT('',(0.313657372041375,0.100086941876367,-0.0701714399603699));
#478=CARTESIAN_POINT('',(0.252896941181977,0.10008874318065,-0.0476379142600126));
#479=CARTESIAN_POINT('',(0.201316322131342,0.100065595852636,-0.0316384544046407));
#480=CARTESIAN_POINT('',(0.159562546439371,0.100067536435078,-0.0205873781309797));
#481=CARTESIAN_POINT('',(0.12802435576646,0.10008832035707,-0.0131877758291777));
#482=CARTESIAN_POINT('',(0.0962871621192027,0.100136708099591,-0.00671104062924542));
#483=CARTESIAN_POINT('',(0.0696920302849504,0.100167931924223,-0.00204052431711924));
#484=CARTESIAN_POINT('',(0.0483460158950695,0.100165217286497,0.00113619654814349));
#485=CARTESIAN_POINT('',(0.0349673610438485,0.100152916792892,0.00313771974588259));
#486=CARTESIAN_POINT('',(0.0242686321076479,0.100122524490759,0.00418466175634191));
#487=CARTESIAN_POINT('',(0.0162021129846552,0.100103021315626,0.00562278034490665));
#488=CARTESIAN_POINT('',(0.00818533601198224,0.100077704661377,0.00624577779082312));
#489=CARTESIAN_POINT('',(0.00283800701474391,0.100041345591724,0.00473965081504174));
#490=CARTESIAN_POINT('',(0.000228526565479115,0.100024089217186,0.00404970906674862));
#491=CARTESIAN_POINT('',(-2.70977804651935E-34,0.0900091603398323,-1.16601428734827E-34));
#492=CARTESIAN_POINT('',(0.000114263282739557,0.0950166247785091,0.00202485453337431));
#493=VECTOR('',#536,1.0);
#494=CARTESIAN_POINT('',(-7.23263031455233E-34,0.00999083835631609,-5.09877149071646E-34));
#495=CARTESIAN_POINT('',(-5.07706571202204E-35,0.0499999993480742,-5.85611311359249E-35));
#496=VECTOR('',#537,1.0);
#497=CARTESIAN_POINT('',(0.000173870153957978,-3.35554250341374E-05,0.00409947009757161));
#498=CARTESIAN_POINT('',(8.69350769789889E-05,0.00497864146564098,0.00204973504878581));
#499=VECTOR('',#538,1.0);
#500=CARTESIAN_POINT('',(0.000173870153957978,-3.35554250341374E-05,0.00409947009757161));
#501=CARTESIAN_POINT('',(0.00278934434458933,-4.91263239261552E-05,0.00477769261870979));
#502=CARTESIAN_POINT('',(0.00814564863457785,-8.1992427559344E-05,0.00625786600858541));
#503=CARTESIAN_POINT('',(0.0161723871694894,-0.000103065681716904,0.00562356435937373));
#504=CARTESIAN_POINT('',(0.02424602238967,-0.000119438180242917,0.00419472493018841));
#505=CARTESIAN_POINT('',(0.0349568360374692,-0.000146607070011593,0.00314277585671507));
#506=CARTESIAN_POINT('',(0.0483491872269641,-0.00015690627278846,0.00114272730032841));
#507=CARTESIAN_POINT('',(0.0697178736487516,-0.000159583959053374,-0.00203711267201711));
#508=CARTESIAN_POINT('',(0.0963408841101394,-0.000132855792307349,-0.00671096550965166));
#509=CARTESIAN_POINT('',(0.12811131538488,-9.24647671162608E-05,-0.0131944313070558));
#510=CARTESIAN_POINT('',(0.159682293073497,-7.60966200076548E-05,-0.0206023793642309));
#511=CARTESIAN_POINT('',(0.20147915812282,-7.54016668096911E-05,-0.0316670349070643));
#512=CARTESIAN_POINT('',(0.253112253469082,-9.4553231377518E-05,-0.0476878126567797));
#513=CARTESIAN_POINT('',(0.313933119424414,-9.05567437707563E-05,-0.0702532540521867));
#514=CARTESIAN_POINT('',(0.373477663482118,-7.74562496894773E-05,-0.0959949354599843));
#515=CARTESIAN_POINT('',(0.431630448982071,-7.07751286244113E-05,-0.124740220790165));
#516=CARTESIAN_POINT('',(0.488285056630221,-6.19582958818109E-05,-0.156332322192047));
#517=CARTESIAN_POINT('',(0.543386322439357,-5.49951593660655E-05,-0.190559124433108));
#518=CARTESIAN_POINT('',(0.596858513773116,-4.69807725885513E-05,-0.227277634321191));
#519=CARTESIAN_POINT('',(0.648613041066129,-3.95877274111982E-05,-0.266379895175373));
#520=CARTESIAN_POINT('',(0.698540812544035,-3.03343341265174E-05,-0.307789212124381));
#521=CARTESIAN_POINT('',(0.738544190978232,-2.23838027662919E-05,-0.344143094499465));
#522=CARTESIAN_POINT('',(0.769535103858303,-1.74017931125447E-05,-0.374290438298543));
#523=CARTESIAN_POINT('',(0.792259165464078,-1.25924579371458E-05,-0.397421812673085));
#524=CARTESIAN_POINT('',(0.81444314933776,-9.15582104705364E-06,-0.42107519636874));
#525=CARTESIAN_POINT('',(0.832517438910832,-6.21353536307261E-06,-0.441152408778824));
#526=CARTESIAN_POINT('',(0.846616029719063,-2.94705417582612E-06,-0.457561782199341));
#527=CARTESIAN_POINT('',(0.85726612623542,-5.95162046915496E-07,-0.469714308833811));
#528=CARTESIAN_POINT('',(0.867092667513911,4.63643408479651E-06,-0.482905756175206));
#529=CARTESIAN_POINT('',(0.876956390687389,5.81241517937918E-06,-0.487899458461761));
#530=CARTESIAN_POINT('',(0.881811201572418,4.21794356952887E-06,-0.490273177623749));
#531=DIRECTION('',(5.95754847323733E-06,0.999999976210128,0.000218046443630664));
#532=DIRECTION('',(-1.19151153887706E-05,0.999999982320301,0.000187663067373158));
#533=DIRECTION('',(-2.6809022139643E-05,0.99999998363941,0.000178892302043886));
#534=DIRECTION('',(-0.000142981399533537,0.999999989334503,2.97877914537188E-05));
#535=DIRECTION('',(-0.409928825661108,0.847188636767145,-0.337978951452205));
#536=DIRECTION('',(-0.0211497907548157,-0.926866641242852,-0.374794497961512));
#537=DIRECTION('',(-0.0,-1.0,-0.0));
#538=DIRECTION('',(0.0160520664194177,-0.925473585486799,0.378471892919244));
ENDSEC;
END-ISO-10303-21;
