ISO-10303-21;
HEADER;
FILE_DESCRIPTION(('STEP AP214'),'1');
FILE_NAME('SMAStripDeformed_03.stp','2026-04-23T00:13:57',(' '),(' '),'Spatial InterOp 3D',' ',' ');
FILE_SCHEMA(('AUTOMOTIVE_DESIGN { 1 0 10303 214 1 1 1 1 }'));
ENDSEC;
DATA;
#1=PRODUCT_DEFINITION_CONTEXT('',#9,'design');
#2=APPLICATION_PROTOCOL_DEFINITION('INTERNATIONAL STANDARD','automotive_design',1994,#9);
#3=PRODUCT_CATEGORY_RELATIONSHIP('NONE','NONE',#10,#11);
#4=SHAPE_DEFINITION_REPRESENTATION(#12,#13);
#5= (GEOMETRIC_REPRESENTATION_CONTEXT(3)GLOBAL_UNCERTAINTY_ASSIGNED_CONTEXT((#16))GLOBAL_UNIT_ASSIGNED_CONTEXT((#18,#19,#20))REPRESENTATION_CONTEXT('NONE','WORKSPACE'));
#9=APPLICATION_CONTEXT(' ');
#10=PRODUCT_CATEGORY('part','NONE');
#11=PRODUCT_RELATED_PRODUCT_CATEGORY('detail',' ',(#22));
#12=PRODUCT_DEFINITION_SHAPE('NONE','NONE',#23);
#13=MANIFOLD_SURFACE_SHAPE_REPRESENTATION('1',(#24,#25),#5);
#16=UNCERTAINTY_MEASURE_WITH_UNIT(LENGTH_MEASURE(1.0E-06),#18,'','');
#18= (CONVERSION_BASED_UNIT('MILLIMETRE',#28)LENGTH_UNIT()NAMED_UNIT(#31));
#19= (NAMED_UNIT(#33)PLANE_ANGLE_UNIT()SI_UNIT($,.RADIAN.));
#20= (NAMED_UNIT(#33)SOLID_ANGLE_UNIT()SI_UNIT($,.STERADIAN.));
#22=PRODUCT('1','','PART--DESC',(#39));
#23=PRODUCT_DEFINITION('','NONE',#40,#1);
#24=SHELL_BASED_SURFACE_MODEL('1',(#41));
#25=AXIS2_PLACEMENT_3D('',#42,#43,#44);
#28=LENGTH_MEASURE_WITH_UNIT(LENGTH_MEASURE(1.0),#45);
#31=DIMENSIONAL_EXPONENTS(1.0,0.0,0.0,0.0,0.0,0.0,0.0);
#33=DIMENSIONAL_EXPONENTS(0.0,0.0,0.0,0.0,0.0,0.0,0.0);
#39=PRODUCT_CONTEXT('',#9,'mechanical');
#40=PRODUCT_DEFINITION_FORMATION_WITH_SPECIFIED_SOURCE(' ','NONE',#22,.NOT_KNOWN.);
#41=CLOSED_SHELL('',(#46));
#42=CARTESIAN_POINT('',(0.0,0.0,0.0));
#43=DIRECTION('',(0.0,0.0,1.0));
#44=DIRECTION('',(1.0,0.0,0.0));
#45= (NAMED_UNIT(#31)LENGTH_UNIT()SI_UNIT(.MILLI.,.METRE.));
#46=FACE_SURFACE('',(#48),#49,.T.);
#48=FACE_BOUND('',#50,.T.);
#49=CYLINDRICAL_SURFACE('',#51,1.62463674565223);
#50=EDGE_LOOP('',(#52,#53,#54,#55,#56));
#51=AXIS2_PLACEMENT_3D('',#57,#58,#59);
#52=ORIENTED_EDGE('',*,*,#60,.T.);
#53=ORIENTED_EDGE('',*,*,#61,.T.);
#54=ORIENTED_EDGE('',*,*,#62,.T.);
#55=ORIENTED_EDGE('',*,*,#63,.T.);
#56=ORIENTED_EDGE('',*,*,#64,.T.);
#57=CARTESIAN_POINT('',(-0.0920257635203297,-0.00122743765754619,-1.61786551461389));
#58=DIRECTION('',(0.00227207251392715,0.999997024644406,-0.000887912623434196));
#59=DIRECTION('',(-3.03253753460497E-22,-0.000887914915284734,-0.999999605803474));
#60=EDGE_CURVE('',#65,#66,#67,.T.);
#61=EDGE_CURVE('',#66,#68,#69,.T.);
#62=EDGE_CURVE('',#68,#70,#71,.T.);
#63=EDGE_CURVE('',#70,#72,#73,.T.);
#64=EDGE_CURVE('',#72,#65,#74,.T.);
#65=VERTEX_POINT('',#75);
#66=VERTEX_POINT('',#76);
#67=LINE('',#77,#78);
#68=VERTEX_POINT('',#79);
#69=LINE('',#80,#81);
#70=VERTEX_POINT('',#82);
#71=B_SPLINE_CURVE_WITH_KNOTS('',3,(#83,#84,#85,#86,#87,#88,#89,#90,#91,#92,#93,#94,#95,#96,#97,#98,#99,#100,#101),.UNSPECIFIED.,.F.,.F.,(4,1,1,1,1,1,1,1,1,1,1,1,1,1,1,1,4),(0.0,0.128798746628606,0.257597493257211,0.386396239885817,0.515194986514422,0.643993733143028,0.708393106457331,0.772792479771633,0.837191853085936,0.901591226400239,0.93379091305739,0.965990599714542,0.998190286371693,1.00624020803598,1.01429012970027,1.02234005136456,1.03038997302884),.UNSPECIFIED.);
#72=VERTEX_POINT('',#102);
#73=LINE('',#103,#104);
#74=B_SPLINE_CURVE_WITH_KNOTS('',3,(#105,#106,#107,#108,#109,#110,#111,#112,#113,#114,#115,#116,#117,#118,#119,#120,#121,#122,#123,#124,#125,#126,#127,#128,#129,#130,#131,#132),.UNSPECIFIED.,.F.,.F.,(4,1,1,1,1,1,1,1,1,1,1,1,1,1,1,1,1,1,1,1,1,1,1,1,1,4),(0.0,0.00805081335601745,0.0161016267120349,0.0241524400680523,0.0322032534240698,0.0644065068481396,0.0966097602722094,0.128813013696279,0.193219520544419,0.257626027392558,0.322032534240698,0.386439041088838,0.515252054785117,0.644065068481396,0.708471575329535,0.772878082177675,0.837284589025815,0.869487842449884,0.901691095873954,0.933894349298024,0.966097602722094,0.998300856146164,1.00635166950218,1.0144024828582,1.02245329621422,1.03050410957023),.UNSPECIFIED.);
#75=CARTESIAN_POINT('',(2.46772302943608E-38,0.100011453032494,1.30169697207754E-38));
#76=CARTESIAN_POINT('',(-6.04261608302125E-35,0.00999083835631609,-1.14431619987665E-34));
#77=CARTESIAN_POINT('',(1.94333552597406E-35,0.0550011456944048,2.28779669673826E-35));
#78=VECTOR('',#133,1.0);
#79=CARTESIAN_POINT('',(4.14196692872792E-05,-1.14028407551814E-05,0.00174779095686972));
#80=CARTESIAN_POINT('',(2.07098346436396E-05,0.00498971775778045,0.000873895478434861));
#81=VECTOR('',#134,1.0);
#82=CARTESIAN_POINT('',(0.945712625980377,-1.30763210108853E-05,-0.362855017185211));
#83=CARTESIAN_POINT('',(4.14196692872792E-05,-1.14028407551814E-05,0.00174779095686972));
#84=CARTESIAN_POINT('',(0.0429546187930157,-0.000165584437282204,0.000455968208345156));
#85=CARTESIAN_POINT('',(0.128656688351967,-1.25070037073733E-05,-0.00619951931548561));
#86=CARTESIAN_POINT('',(0.25574108209905,-7.62600818930521E-05,-0.0279360983966959));
#87=CARTESIAN_POINT('',(0.380400458592852,-5.78232130190091E-05,-0.0608001784188357));
#88=CARTESIAN_POINT('',(0.50186269882811,-5.83711851766064E-05,-0.103970088402942));
#89=CARTESIAN_POINT('',(0.599906220689839,-5.14743004686138E-05,-0.147841694067288));
#90=CARTESIAN_POINT('',(0.676207784645329,-4.58135911448192E-05,-0.187255628367451));
#91=CARTESIAN_POINT('',(0.732325227280593,-4.06455646746107E-05,-0.218869890601323));
#92=CARTESIAN_POINT('',(0.787294660308174,-3.44502935449045E-05,-0.252438834110854));
#93=CARTESIAN_POINT('',(0.832130774707116,-2.92340586064942E-05,-0.281944627360847));
#94=CARTESIAN_POINT('',(0.867385867576807,-2.53011434002349E-05,-0.306449333663213));
#95=CARTESIAN_POINT('',(0.893568744421399,-2.20130267927487E-05,-0.325189405435467));
#96=CARTESIAN_POINT('',(0.912859010512153,-1.88981343901921E-05,-0.339736983130824));
#97=CARTESIAN_POINT('',(0.925805273438084,-1.6522975836662E-05,-0.34928641684645));
#98=CARTESIAN_POINT('',(0.932066335017836,-1.49017848109372E-05,-0.354380305682823));
#99=CARTESIAN_POINT('',(0.938497337395138,-1.34193355369835E-05,-0.359201480588789));
#100=CARTESIAN_POINT('',(0.943325485289796,-1.32031955703853E-05,-0.361629579731953));
#101=CARTESIAN_POINT('',(0.945712625980377,-1.30763210108853E-05,-0.362855017185211));
#102=CARTESIAN_POINT('',(0.945697546005249,0.100034132599831,-0.36282879114151));
#103=CARTESIAN_POINT('',(0.945706576108932,0.0500105281394099,-0.362838298082352));
#104=VECTOR('',#135,1.0);
#105=CARTESIAN_POINT('',(0.945697546005249,0.100034132599831,-0.36282879114151));
#106=CARTESIAN_POINT('',(0.943312650038645,0.100034279359734,-0.361598342417766));
#107=CARTESIAN_POINT('',(0.938489847037007,0.10003455293228,-0.359160069664848));
#108=CARTESIAN_POINT('',(0.932054146253619,0.100035556398021,-0.354343989145837));
#109=CARTESIAN_POINT('',(0.925792610757917,0.100036560908035,-0.349249633774155));
#110=CARTESIAN_POINT('',(0.912845696387601,0.100037926731575,-0.339697614602211));
#111=CARTESIAN_POINT('',(0.893552316832818,0.10003945382819,-0.325150127007067));
#112=CARTESIAN_POINT('',(0.867365742974662,0.100040492067567,-0.306408959721587));
#113=CARTESIAN_POINT('',(0.832105176999054,0.100041487615638,-0.281903829528997));
#114=CARTESIAN_POINT('',(0.787263010940706,0.100043532734907,-0.252396432097915));
#115=CARTESIAN_POINT('',(0.732286225116813,0.100046442956859,-0.21882581722434));
#116=CARTESIAN_POINT('',(0.676160861365279,0.100048650800825,-0.187211085441743));
#117=CARTESIAN_POINT('',(0.599848862348565,0.100051120413895,-0.14779655879272));
#118=CARTESIAN_POINT('',(0.501791895874524,0.100053925473624,-0.10392634512277));
#119=CARTESIAN_POINT('',(0.400559036174983,0.100055885098987,-0.0679539400211194));
#120=CARTESIAN_POINT('',(0.317975653367618,0.100056921744242,-0.0443324211502139));
#121=CARTESIAN_POINT('',(0.255333372495293,0.10005748020153,-0.0292949642314045));
#122=CARTESIAN_POINT('',(0.202628881407238,0.100057763029378,-0.0190792130106467));
#123=CARTESIAN_POINT('',(0.160220293817403,0.100057856795452,-0.0123387195766177));
#124=CARTESIAN_POINT('',(0.12830710190025,0.100058004329314,-0.00801733355463592));
#125=CARTESIAN_POINT('',(0.096301290335339,0.100059285756012,-0.00440728922756639));
#126=CARTESIAN_POINT('',(0.0642262369364555,0.100058455749305,-0.00163109902590138));
#127=CARTESIAN_POINT('',(0.0401125694693838,0.100060300093576,0.00015547350790413));
#128=CARTESIAN_POINT('',(0.0240461932741265,0.100050388264224,0.000729039645015801));
#129=CARTESIAN_POINT('',(0.0159863413452343,0.100046300155541,0.00137414920629271));
#130=CARTESIAN_POINT('',(0.00795613976663036,0.100037501256411,0.00156988852827707));
#131=CARTESIAN_POINT('',(0.00263628518753169,0.100019902004124,0.000501659127002574));
#132=CARTESIAN_POINT('',(2.46772302943608E-38,0.100011453032494,1.30169697207754E-38));
#133=DIRECTION('',(-0.0,-1.0,-0.0));
#134=DIRECTION('',(0.00407919549059582,-0.985065740239401,0.172130321474024));
#135=DIRECTION('',(-0.000149807914369165,0.999999987321989,-5.39778759670441E-05));
ENDSEC;
END-ISO-10303-21;
