ISO-10303-21;
HEADER;
FILE_DESCRIPTION(('STEP AP214'),'1');
FILE_NAME('SMAStripDeformed_02.stp','2026-04-23T00:13:25',(' '),(' '),'Spatial InterOp 3D',' ',' ');
FILE_SCHEMA(('AUTOMOTIVE_DESIGN { 1 0 10303 214 1 1 1 1 }'));
ENDSEC;
DATA;
#1=PRODUCT_DEFINITION_CONTEXT('',#9,'design');
#2=APPLICATION_PROTOCOL_DEFINITION('INTERNATIONAL STANDARD','automotive_design',1994,#9);
#3=PRODUCT_CATEGORY_RELATIONSHIP('NONE','NONE',#10,#11);
#4=SHAPE_DEFINITION_REPRESENTATION(#12,#13);
#5= (GEOMETRIC_REPRESENTATION_CONTEXT(3)GLOBAL_UNCERTAINTY_ASSIGNED_CONTEXT((#16))GLOBAL_UNIT_ASSIGNED_CONTEXT((#18,#19,#20))REPRESENTATION_CONTEXT('NONE','WORKSPACE'));
#9=APPLICATION_CONTEXT(' ');
#10=PRODUCT_CATEGORY('part','NONE');
#11=PRODUCT_RELATED_PRODUCT_CATEGORY('detail',' ',(#22));
#12=PRODUCT_DEFINITION_SHAPE('NONE','NONE',#23);
#13=MANIFOLD_SURFACE_SHAPE_REPRESENTATION('1',(#24,#25),#5);
#16=UNCERTAINTY_MEASURE_WITH_UNIT(LENGTH_MEASURE(1.0E-06),#18,'','');
#18= (CONVERSION_BASED_UNIT('MILLIMETRE',#28)LENGTH_UNIT()NAMED_UNIT(#31));
#19= (NAMED_UNIT(#33)PLANE_ANGLE_UNIT()SI_UNIT($,.RADIAN.));
#20= (NAMED_UNIT(#33)SOLID_ANGLE_UNIT()SI_UNIT($,.STERADIAN.));
#22=PRODUCT('1','','PART--DESC',(#39));
#23=PRODUCT_DEFINITION('','NONE',#40,#1);
#24=SHELL_BASED_SURFACE_MODEL('1',(#41));
#25=AXIS2_PLACEMENT_3D('',#42,#43,#44);
#28=LENGTH_MEASURE_WITH_UNIT(LENGTH_MEASURE(1.0),#45);
#31=DIMENSIONAL_EXPONENTS(1.0,0.0,0.0,0.0,0.0,0.0,0.0);
#33=DIMENSIONAL_EXPONENTS(0.0,0.0,0.0,0.0,0.0,0.0,0.0);
#39=PRODUCT_CONTEXT('',#9,'mechanical');
#40=PRODUCT_DEFINITION_FORMATION_WITH_SPECIFIED_SOURCE(' ','NONE',#22,.NOT_KNOWN.);
#41=CLOSED_SHELL('',(#46));
#42=CARTESIAN_POINT('',(0.0,0.0,0.0));
#43=DIRECTION('',(0.0,0.0,1.0));
#44=DIRECTION('',(1.0,0.0,0.0));
#45= (NAMED_UNIT(#31)LENGTH_UNIT()SI_UNIT(.MILLI.,.METRE.));
#46=FACE_SURFACE('',(#48),#49,.T.);
#48=FACE_BOUND('',#50,.T.);
#49=CYLINDRICAL_SURFACE('',#51,2.09345500723776);
#50=EDGE_LOOP('',(#52,#53,#54,#55,#56));
#51=AXIS2_PLACEMENT_3D('',#57,#58,#59);
#52=ORIENTED_EDGE('',*,*,#60,.T.);
#53=ORIENTED_EDGE('',*,*,#61,.T.);
#54=ORIENTED_EDGE('',*,*,#62,.T.);
#55=ORIENTED_EDGE('',*,*,#63,.T.);
#56=ORIENTED_EDGE('',*,*,#64,.T.);
#57=CARTESIAN_POINT('',(-0.0535974214346112,-6.6029465945315E-05,-2.09101993128668));
#58=DIRECTION('',(0.000350679521592871,0.999999937689121,-4.05663200313353E-05));
#59=DIRECTION('',(-2.27021537268932E-24,-4.056632252568E-05,-0.999999999177187));
#60=EDGE_CURVE('',#65,#66,#67,.T.);
#61=EDGE_CURVE('',#66,#68,#69,.T.);
#62=EDGE_CURVE('',#68,#70,#71,.T.);
#63=EDGE_CURVE('',#70,#72,#73,.T.);
#64=EDGE_CURVE('',#72,#65,#74,.T.);
#65=VERTEX_POINT('',#75);
#66=VERTEX_POINT('',#76);
#67=B_SPLINE_CURVE_WITH_KNOTS('',3,(#77,#78,#79,#80,#81,#82,#83,#84,#85,#86,#87,#88,#89,#90),.UNSPECIFIED.,.F.,.F.,(4,1,1,1,1,1,1,1,1,1,1,4),(0.0,0.128002011013103,0.256004022026205,0.384006033039308,0.51200804405241,0.640010055065513,0.768012066078616,0.832013071585167,0.896014077091718,0.96001508259827,0.992015585351545,1.02401608810482),.UNSPECIFIED.);
#68=VERTEX_POINT('',#91);
#69=LINE('',#92,#93);
#70=VERTEX_POINT('',#94);
#71=LINE('',#95,#96);
#72=VERTEX_POINT('',#97);
#73=B_SPLINE_CURVE_WITH_KNOTS('',3,(#98,#99,#100,#101,#102,#103,#104,#105,#106,#107,#108),.UNSPECIFIED.,.F.,.F.,(4,1,1,1,1,1,1,1,4),(0.0,0.128008003119815,0.25601600623963,0.384024009359445,0.512032012479261,0.640040015599076,0.768048018718891,0.896056021838706,1.02406402495852),.UNSPECIFIED.);
#74=LINE('',#109,#110);
#75=CARTESIAN_POINT('',(0.977783679962158,0.100024841725826,-0.267916321754456));
#76=CARTESIAN_POINT('',(1.52220319647599E-38,0.100011453032494,0.0));
#77=CARTESIAN_POINT('',(0.977783679962158,0.100024841725826,-0.267916321754456));
#78=CARTESIAN_POINT('',(0.940266016419277,0.100031175081806,-0.24759572803242));
#79=CARTESIAN_POINT('',(0.864281188917475,0.10003240876662,-0.208699502626992));
#80=CARTESIAN_POINT('',(0.74730487696582,0.100038851475114,-0.156605647724965));
#81=CARTESIAN_POINT('',(0.627621229592396,0.100041929538802,-0.111070670523657));
#82=CARTESIAN_POINT('',(0.505475167308659,0.100043764195615,-0.0726050262454205));
#83=CARTESIAN_POINT('',(0.381204807186299,0.100043818937051,-0.0416638167940723));
#84=CARTESIAN_POINT('',(0.276208466004051,0.100042456964296,-0.0225323341549222));
#85=CARTESIAN_POINT('',(0.191586644326773,0.100040651429246,-0.0114289713636958));
#86=CARTESIAN_POINT('',(0.127875170538059,0.100038689721194,-0.00525611609196671));
#87=CARTESIAN_POINT('',(0.0746364990556233,0.100038371854584,-0.00191679913740977));
#88=CARTESIAN_POINT('',(0.0319976623519691,0.100035491072962,-0.000367145856890297));
#89=CARTESIAN_POINT('',(0.010666019468543,0.100029859078664,0.000130548283759183));
#90=CARTESIAN_POINT('',(1.52220319647599E-38,0.100011453032494,0.0));
#91=CARTESIAN_POINT('',(-4.17313305593626E-34,0.0100011453032494,4.69829766975247E-35));
#92=CARTESIAN_POINT('',(8.2736205609917E-35,0.0550062991678715,2.44888017480233E-35));
#93=VECTOR('',#111,1.0);
#94=CARTESIAN_POINT('',(1.06140873867844E-06,-1.14525646495167E-05,0.000173177133547142));
#95=CARTESIAN_POINT('',(5.30704369339219E-07,0.00499484636929992,8.65885667735711E-05));
#96=VECTOR('',#112,1.0);
#97=CARTESIAN_POINT('',(0.977825582027435,-1.99734113266459E-05,-0.267948061227798));
#98=CARTESIAN_POINT('',(1.06140873867844E-06,-1.14525646495167E-05,0.000173177133547142));
#99=CARTESIAN_POINT('',(0.0426680717191699,-8.60925342822958E-05,-0.000265862616992058));
#100=CARTESIAN_POINT('',(0.127968766096944,-1.63832154058422E-05,-0.00418224773303096));
#101=CARTESIAN_POINT('',(0.255222006563316,-4.85802771242488E-05,-0.0187083502956126));
#102=CARTESIAN_POINT('',(0.381222678014459,-4.20952537565027E-05,-0.0416764186628294));
#103=CARTESIAN_POINT('',(0.505498625505881,-4.35912036085221E-05,-0.0726185531218177));
#104=CARTESIAN_POINT('',(0.6276497727631,-4.04228821448439E-05,-0.111088446671574));
#105=CARTESIAN_POINT('',(0.747338270948904,-3.65290199268177E-05,-0.156627427035404));
#106=CARTESIAN_POINT('',(0.86431901590391,-2.88728572139212E-05,-0.208726101736625));
#107=CARTESIAN_POINT('',(0.940306621973119,-2.67946412820263E-05,-0.247625667525986));
#108=CARTESIAN_POINT('',(0.977825582027435,-1.99734113266459E-05,-0.267948061227798));
#109=CARTESIAN_POINT('',(0.977923005819321,0.0500024341572498,-0.26763379573822));
#110=VECTOR('',#113,1.0);
#111=DIRECTION('',(-0.0,-1.0,-0.0));
#112=DIRECTION('',(0.00010599147420598,-0.999850453437591,0.0172933376319115));
#113=DIRECTION('',(-0.000191409286709073,0.999999970231958,0.000151322725999459));
ENDSEC;
END-ISO-10303-21;
