ISO-10303-21;
HEADER;
FILE_DESCRIPTION(('STEP AP214'),'1');
FILE_NAME('SMAStripDeformed_06.stp','2026-04-23T00:15:47',(' '),(' '),'Spatial InterOp 3D',' ',' ');
FILE_SCHEMA(('AUTOMOTIVE_DESIGN { 1 0 10303 214 1 1 1 1 }'));
ENDSEC;
DATA;
#1=PRODUCT_DEFINITION_CONTEXT('',#9,'design');
#2=APPLICATION_PROTOCOL_DEFINITION('INTERNATIONAL STANDARD','automotive_design',1994,#9);
#3=PRODUCT_CATEGORY_RELATIONSHIP('NONE','NONE',#10,#11);
#4=SHAPE_DEFINITION_REPRESENTATION(#12,#13);
#5= (GEOMETRIC_REPRESENTATION_CONTEXT(3)GLOBAL_UNCERTAINTY_ASSIGNED_CONTEXT((#16))GLOBAL_UNIT_ASSIGNED_CONTEXT((#18,#19,#20))REPRESENTATION_CONTEXT('NONE','WORKSPACE'));
#9=APPLICATION_CONTEXT(' ');
#10=PRODUCT_CATEGORY('part','NONE');
#11=PRODUCT_RELATED_PRODUCT_CATEGORY('detail',' ',(#22));
#12=PRODUCT_DEFINITION_SHAPE('NONE','NONE',#23);
#13=MANIFOLD_SURFACE_SHAPE_REPRESENTATION('1',(#24,#25),#5);
#16=UNCERTAINTY_MEASURE_WITH_UNIT(LENGTH_MEASURE(1.0E-06),#18,'','');
#18= (CONVERSION_BASED_UNIT('MILLIMETRE',#28)LENGTH_UNIT()NAMED_UNIT(#31));
#19= (NAMED_UNIT(#33)PLANE_ANGLE_UNIT()SI_UNIT($,.RADIAN.));
#20= (NAMED_UNIT(#33)SOLID_ANGLE_UNIT()SI_UNIT($,.STERADIAN.));
#22=PRODUCT('1','','PART--DESC',(#39));
#23=PRODUCT_DEFINITION('','NONE',#40,#1);
#24=SHELL_BASED_SURFACE_MODEL('1',(#41));
#25=AXIS2_PLACEMENT_3D('',#42,#43,#44);
#28=LENGTH_MEASURE_WITH_UNIT(LENGTH_MEASURE(1.0),#45);
#31=DIMENSIONAL_EXPONENTS(1.0,0.0,0.0,0.0,0.0,0.0,0.0);
#33=DIMENSIONAL_EXPONENTS(0.0,0.0,0.0,0.0,0.0,0.0,0.0);
#39=PRODUCT_CONTEXT('',#9,'mechanical');
#40=PRODUCT_DEFINITION_FORMATION_WITH_SPECIFIED_SOURCE(' ','NONE',#22,.NOT_KNOWN.);
#41=CLOSED_SHELL('',(#46));
#42=CARTESIAN_POINT('',(0.0,0.0,0.0));
#43=DIRECTION('',(0.0,0.0,1.0));
#44=DIRECTION('',(1.0,0.0,0.0));
#45= (NAMED_UNIT(#31)LENGTH_UNIT()SI_UNIT(.MILLI.,.METRE.));
#46=FACE_SURFACE('',(#48),#49,.T.);
#48=FACE_BOUND('',#50,.T.);
#49=B_SPLINE_SURFACE_WITH_KNOTS('',3,3,((#51,#52,#53,#54,#55,#56,#57,#58,#59,#60,#61,#62,#63,#64,#65,#66,#67,#68,#69),(#70,#71,#72,#73,#74,#75,#76,#77,#78,#79,#80,#81,#82,#83,#84,#85,#86,#87,#88),(#89,#90,#91,#92,#93,#94,#95,#96,#97,#98,#99,#100,#101,#102,#103,#104,#105,#106,#107),(#108,#109,#110,#111,#112,#113,#114,#115,#116,#117,#118,#119,#120,#121,#122,#123,#124,#125,#126),(#127,#128,#129,#130,#131,#132,#133,#134,#135,#136,#137,#138,#139,#140,#141,#142,#143,#144,#145),(#146,#147,#148,#149,#150,#151,#152,#153,#154,#155,#156,#157,#158,#159,#160,#161,#162,#163,#164),(#165,#166,#167,#168,#169,#170,#171,#172,#173,#174,#175,#176,#177,#178,#179,#180,#181,#182,#183),(#184,#185,#186,#187,#188,#189,#190,#191,#192,#193,#194,#195,#196,#197,#198,#199,#200,#201,#202),(#203,#204,#205,#206,#207,#208,#209,#210,#211,#212,#213,#214,#215,#216,#217,#218,#219,#220,#221),(#222,#223,#224,#225,#226,#227,#228,#229,#230,#231,#232,#233,#234,#235,#236,#237,#238,#239,#240),(#241,#242,#243,#244,#245,#246,#247,#248,#249,#250,#251,#252,#253,#254,#255,#256,#257,#258,#259),(#260,#261,#262,#263,#264,#265,#266,#267,#268,#269,#270,#271,#272,#273,#274,#275,#276,#277,#278),(#279,#280,#281,#282,#283,#284,#285,#286,#287,#288,#289,#290,#291,#292,#293,#294,#295,#296,#297),(#298,#299,#300,#301,#302,#303,#304,#305,#306,#307,#308,#309,#310,#311,#312,#313,#314,#315,#316),(#317,#318,#319,#320,#321,#322,#323,#324,#325,#326,#327,#328,#329,#330,#331,#332,#333,#334,#335),(#336,#337,#338,#339,#340,#341,#342,#343,#344,#345,#346,#347,#348,#349,#350,#351,#352,#353,#354),(#355,#356,#357,#358,#359,#360,#361,#362,#363,#364,#365,#366,#367,#368,#369,#370,#371,#372,#373),(#374,#375,#376,#377,#378,#379,#380,#381,#382,#383,#384,#385,#386,#387,#388,#389,#390,#391,#392),(#393,#394,#395,#396,#397,#398,#399,#400,#401,#402,#403,#404,#405,#406,#407,#408,#409,#410,#411)),.UNSPECIFIED.,.F.,.F.,.F.,(4,1,1,1,1,1,1,1,1,1,1,1,1,1,1,1,4),(4,1,1,1,1,1,1,1,1,1,1,1,1,1,1,1,4),(0.0,1.0,2.0,3.0,4.0,5.0,6.0,7.0,8.0,9.0,10.0,11.0,12.0,13.0,14.0,15.0,16.0),(0.0,1.0,2.0,3.0,4.0,5.0,6.0,7.0,8.0,9.0,10.0,11.0,12.0,13.0,14.0,15.0,16.0),.UNSPECIFIED.);
#50=EDGE_LOOP('',(#412,#413,#414,#415,#416,#417,#418,#419,#420,#421));
#51=CARTESIAN_POINT('',(-0.0209778040851791,0.012010406733797,0.0212565036791371));
#52=CARTESIAN_POINT('',(-0.0211193154820237,0.0186101601756623,0.015540913981333));
#53=CARTESIAN_POINT('',(-0.0176308446295906,0.0365248519708126,0.00992205774403482));
#54=CARTESIAN_POINT('',(-0.00797910846249922,0.0689216352970133,0.00830402740621738));
#55=CARTESIAN_POINT('',(0.00155368451699539,0.101169713845718,0.0065026913787555));
#56=CARTESIAN_POINT('',(0.00830191683263987,0.129936487728666,0.000410014055026081));
#57=CARTESIAN_POINT('',(0.0115839605400427,0.154369774203377,-0.0110244748184771));
#58=CARTESIAN_POINT('',(0.0138899632949737,0.177582797831629,-0.023963159632319));
#59=CARTESIAN_POINT('',(0.0158208614079213,0.200326859315425,-0.0374799255996666));
#60=CARTESIAN_POINT('',(0.0172802682059893,0.222481454412059,-0.051723316120985));
#61=CARTESIAN_POINT('',(0.0181832511558316,0.243940399037107,-0.0668242223966261));
#62=CARTESIAN_POINT('',(0.0186253115503089,0.264823090516236,-0.0826354655027403));
#63=CARTESIAN_POINT('',(0.0187019506822818,0.285248926175114,-0.0990098665154777));
#64=CARTESIAN_POINT('',(0.0185780783696678,0.305424079047065,-0.115693279665642));
#65=CARTESIAN_POINT('',(0.0184186044303843,0.325554722165417,-0.132431559184035));
#66=CARTESIAN_POINT('',(0.0182331581707889,0.345652894251244,-0.149209865156929));
#67=CARTESIAN_POINT('',(0.0180313688972391,0.365730634025622,-0.166013357670594));
#68=CARTESIAN_POINT('',(0.0178923669098078,0.379110198148292,-0.177222583764398));
#69=CARTESIAN_POINT('',(0.0178233518492188,0.385800587731411,-0.182826447930185));
#70=CARTESIAN_POINT('',(-0.00348110319059997,0.00532227061202777,0.0130121592479479));
#71=CARTESIAN_POINT('',(-0.00355558256102639,0.0120058286229061,0.00739987392662059));
#72=CARTESIAN_POINT('',(0.000585402941126467,0.030736305228937,0.00278662087086373));
#73=CARTESIAN_POINT('',(0.0113503832931409,0.064524885194878,0.00288423307788668));
#74=CARTESIAN_POINT('',(0.0217128046150025,0.0978101790776292,0.00236145363293111));
#75=CARTESIAN_POINT('',(0.0284040939814217,0.126505761925886,-0.00381897959165348));
#76=CARTESIAN_POINT('',(0.0311550137974754,0.150275028361438,-0.0160719939575154));
#77=CARTESIAN_POINT('',(0.0331760870600856,0.173131828336923,-0.0294497892252234));
#78=CARTESIAN_POINT('',(0.0349154396124323,0.19563641633304,-0.0432617498295544));
#79=CARTESIAN_POINT('',(0.0362366197415697,0.217618198118861,-0.0577181641934948));
#80=CARTESIAN_POINT('',(0.0370240108377273,0.238932627860545,-0.0729972113520656));
#81=CARTESIAN_POINT('',(0.0373608912346071,0.259683821534245,-0.0889705494245746));
#82=CARTESIAN_POINT('',(0.037330539265911,0.279975895116114,-0.10550983653033));
#83=CARTESIAN_POINT('',(0.0371084704251645,0.300028281033843,-0.122344582284519));
#84=CARTESIAN_POINT('',(0.0368702002058928,0.320060411715124,-0.139204296302328));
#85=CARTESIAN_POINT('',(0.0366223598208033,0.340080577613829,-0.156078759091215));
#86=CARTESIAN_POINT('',(0.0363715804826031,0.360097069183829,-0.172957751158641));
#87=CARTESIAN_POINT('',(0.0362068557635339,0.37344447431394,-0.184206619060922));
#88=CARTESIAN_POINT('',(0.0361262139827166,0.380120327975502,-0.189828401394305));
#89=CARTESIAN_POINT('',(0.0355983125394878,-0.00294559814740821,0.0028205069664112));
#90=CARTESIAN_POINT('',(0.0360934477709037,0.00445010163751048,-0.00191393407033041));
#91=CARTESIAN_POINT('',(0.0418379683413131,0.0251853448077248,-0.00405594764197115));
#92=CARTESIAN_POINT('',(0.0539583286523679,0.06066844363854,-0.00186953267842255));
#93=CARTESIAN_POINT('',(0.0650097368514129,0.0948151205255556,-0.00133050087357203));
#94=CARTESIAN_POINT('',(0.0703484196947677,0.121819651905332,-0.00959546265786165));
#95=CARTESIAN_POINT('',(0.0711072708259889,0.143098400501913,-0.0249184933186472));
#96=CARTESIAN_POINT('',(0.0722750661873324,0.164888418066286,-0.0396112919699898));
#97=CARTESIAN_POINT('',(0.0734568744524181,0.186695954799055,-0.0542824950593143));
#98=CARTESIAN_POINT('',(0.0743927176275024,0.208195981831442,-0.0693327597944724));
#99=CARTESIAN_POINT('',(0.0748789246252018,0.229133866137852,-0.0850759677006513));
#100=CARTESIAN_POINT('',(0.0749585366841764,0.249563418600166,-0.101445787077018));
#101=CARTESIAN_POINT('',(0.0746745950430866,0.269538450100261,-0.11837588622274));
#102=CARTESIAN_POINT('',(0.0742244703456818,0.28930571674293,-0.135562093350437));
#103=CARTESIAN_POINT('',(0.0738055332357115,0.309111974632966,-0.152700236672728));
#104=CARTESIAN_POINT('',(0.0734167773730325,0.328955965626961,-0.169791867080232));
#105=CARTESIAN_POINT('',(0.0730571964175013,0.348836431581512,-0.186838535463572));
#106=CARTESIAN_POINT('',(0.0728362548251502,0.362113553429312,-0.198174040296768));
#107=CARTESIAN_POINT('',(0.0727303110667848,0.368757774132169,-0.203834816006212));
#108=CARTESIAN_POINT('',(0.0992474762937681,-0.00905876031625612,-0.00471507747237634));
#109=CARTESIAN_POINT('',(0.100184827343918,-0.00111019486278964,-0.0087680109989984));
#110=CARTESIAN_POINT('',(0.105260927075263,0.018789377310583,-0.0119401410939396));
#111=CARTESIAN_POINT('',(0.116618246692132,0.0533185098072056,-0.0109296631764753));
#112=CARTESIAN_POINT('',(0.127173323942719,0.0868446653785756,-0.0111555367742564));
#113=CARTESIAN_POINT('',(0.133444716478224,0.115015286132964,-0.0179830812771364));
#114=CARTESIAN_POINT('',(0.132175351551904,0.133758324836079,-0.0364318356610476));
#115=CARTESIAN_POINT('',(0.131934997556728,0.15378785034561,-0.0532947610269542));
#116=CARTESIAN_POINT('',(0.132080197372052,0.174299401726159,-0.0695635018198996));
#117=CARTESIAN_POINT('',(0.13214617220808,0.194711904702538,-0.0859543377892094));
#118=CARTESIAN_POINT('',(0.13201174173173,0.214873857580266,-0.102654022333509));
#119=CARTESIAN_POINT('',(0.131610164230635,0.234701818745851,-0.119765412420569));
#120=CARTESIAN_POINT('',(0.130874697992429,0.2541123465858,-0.137391365018162));
#121=CARTESIAN_POINT('',(0.130026751439171,0.273382249640416,-0.1551906632452));
#122=CARTESIAN_POINT('',(0.12928773299292,0.292788336450007,-0.172822090220592));
#123=CARTESIAN_POINT('',(0.128645715498194,0.312315695483799,-0.190304027118621));
#124=CARTESIAN_POINT('',(0.128088771799514,0.331949415211022,-0.20765485511357));
#125=CARTESIAN_POINT('',(0.127766264753262,0.345099558216832,-0.219146884468662));
#126=CARTESIAN_POINT('',(0.127615226640563,0.351687401197997,-0.224877155975951));
#127=CARTESIAN_POINT('',(0.160698056236323,-0.0179206290157909,-0.0156389427365916));
#128=CARTESIAN_POINT('',(0.161456744703269,-0.0101954305345655,-0.0199672166899303));
#129=CARTESIAN_POINT('',(0.164794204583792,0.00753046479875353,-0.0258187989110283));
#130=CARTESIAN_POINT('',(0.174675366974275,0.0402140806555974,-0.0270832559761674));
#131=CARTESIAN_POINT('',(0.185077571551728,0.0735491122348922,-0.0275447246621829));
#132=CARTESIAN_POINT('',(0.193348577371354,0.10421968321342,-0.0312906257395429));
#133=CARTESIAN_POINT('',(0.193310476769902,0.124502069324042,-0.0478418544158901));
#134=CARTESIAN_POINT('',(0.192065987801484,0.143276208368921,-0.0662522719710102));
#135=CARTESIAN_POINT('',(0.191269026318107,0.162609853817075,-0.0839729961024226));
#136=CARTESIAN_POINT('',(0.1902080578477,0.18161343328115,-0.102100586602614));
#137=CARTESIAN_POINT('',(0.189325268417842,0.200839775184289,-0.119953581873202));
#138=CARTESIAN_POINT('',(0.188392652278384,0.220003822895435,-0.137883366067565));
#139=CARTESIAN_POINT('',(0.187182203679178,0.238820519783533,-0.15624132333908));
#140=CARTESIAN_POINT('',(0.185919947529515,0.257572445999017,-0.17467912224724));
#141=CARTESIAN_POINT('',(0.184831908738683,0.276542181692323,-0.192848431351537));
#142=CARTESIAN_POINT('',(0.183901234460391,0.295708657151023,-0.2107752229054));
#143=CARTESIAN_POINT('',(0.183111071848349,0.31505080266269,-0.228485469162258));
#144=CARTESIAN_POINT('',(0.182666833290258,0.32804875488105,-0.240165101348415));
#145=CARTESIAN_POINT('',(0.182462563658473,0.334570046920027,-0.245977408998453));
#146=CARTESIAN_POINT('',(0.220853394724588,-0.0284018304081411,-0.0285589301229031));
#147=CARTESIAN_POINT('',(0.221204918537537,-0.0211856760386471,-0.0335146935458599));
#148=CARTESIAN_POINT('',(0.22250126125822,-0.00601161977428974,-0.0425118816329939));
#149=CARTESIAN_POINT('',(0.230117932420514,0.02384089098917,-0.047266190741482));
#150=CARTESIAN_POINT('',(0.240293782883541,0.0568929308402209,-0.0480764982125255));
#151=CARTESIAN_POINT('',(0.249936375071251,0.0892782822093101,-0.0497086205171081));
#152=CARTESIAN_POINT('',(0.253921885857305,0.114591055080173,-0.0600589824170555));
#153=CARTESIAN_POINT('',(0.252029781723181,0.13255553473165,-0.079467452462381));
#154=CARTESIAN_POINT('',(0.250450233035731,0.150910776469562,-0.0983942371513417));
#155=CARTESIAN_POINT('',(0.248453220107044,0.168744097378213,-0.117964384206723));
#156=CARTESIAN_POINT('',(0.246798091435065,0.187004847745837,-0.137007646698804));
#157=CARTESIAN_POINT('',(0.245240197821349,0.20538716302185,-0.155901058327018));
#158=CARTESIAN_POINT('',(0.243537675165433,0.2235886606321,-0.17501736062143));
#159=CARTESIAN_POINT('',(0.241871061734064,0.24183505256,-0.194078322502463));
#160=CARTESIAN_POINT('',(0.240420895793989,0.260352050788964,-0.21280571289054));
#161=CARTESIAN_POINT('',(0.239172618186068,0.279121453212894,-0.231221969192636));
#162=CARTESIAN_POINT('',(0.238111669751161,0.298125057725688,-0.249349528815724));
#163=CARTESIAN_POINT('',(0.237522607709334,0.310941949184199,-0.261252351325761));
#164=CARTESIAN_POINT('',(0.237255973616974,0.317385272123636,-0.267160770074602));
#165=CARTESIAN_POINT('',(0.279923536924917,-0.040239762486772,-0.0431513348874517));
#166=CARTESIAN_POINT('',(0.28009917480584,-0.0332435036734244,-0.0483781595852916));
#167=CARTESIAN_POINT('',(0.280418861238747,-0.019290479558094,-0.0588804919181248));
#168=CARTESIAN_POINT('',(0.283849827935761,0.00532899294779215,-0.0700854726384837));
#169=CARTESIAN_POINT('',(0.293091249743937,0.0372127943480963,-0.0723358465182187));
#170=CARTESIAN_POINT('',(0.303089272307899,0.0700425107630835,-0.0734202080678071));
#171=CARTESIAN_POINT('',(0.311137172909558,0.100434151838467,-0.0775099409918589));
#172=CARTESIAN_POINT('',(0.311956212877936,0.121788149533531,-0.0927402134499512));
#173=CARTESIAN_POINT('',(0.309182630689881,0.138650590467821,-0.11350714668974));
#174=CARTESIAN_POINT('',(0.306756690923449,0.155947659815897,-0.133738321344838));
#175=CARTESIAN_POINT('',(0.304408797534928,0.173342304060828,-0.153849217189386));
#176=CARTESIAN_POINT('',(0.302086997853457,0.190769571098029,-0.17391989950794));
#177=CARTESIAN_POINT('',(0.299881675513291,0.208342460070139,-0.193811076301149));
#178=CARTESIAN_POINT('',(0.297847097170168,0.226128816064632,-0.213439116156775));
#179=CARTESIAN_POINT('',(0.296037529479827,0.244196484168982,-0.232720387662579));
#180=CARTESIAN_POINT('',(0.294449150601671,0.262540686253673,-0.251660780732395));
#181=CARTESIAN_POINT('',(0.293078138695106,0.281156644189188,-0.270266185280058));
#182=CARTESIAN_POINT('',(0.292318235283685,0.293759946888514,-0.282432294790434));
#183=CARTESIAN_POINT('',(0.291979108012522,0.300112637634197,-0.28845243420528));
#184=CARTESIAN_POINT('',(0.338087053530424,-0.0532111731619813,-0.0591409582171482));
#185=CARTESIAN_POINT('',(0.338310698879049,-0.0461548946035179,-0.0642937976607413));
#186=CARTESIAN_POINT('',(0.338787695347993,-0.0320051988302372,-0.0745536963979546));
#187=CARTESIAN_POINT('',(0.338464544545079,-0.012079187284985,-0.0915442215554041));
#188=CARTESIAN_POINT('',(0.344464634594785,0.0157522465298245,-0.09878987566394));
#189=CARTESIAN_POINT('',(0.353932056150194,0.0479185966225359,-0.10069195688091));
#190=CARTESIAN_POINT('',(0.363693462542641,0.0804524915125766,-0.102140972273873));
#191=CARTESIAN_POINT('',(0.370014298686515,0.108684927499343,-0.108892318257832));
#192=CARTESIAN_POINT('',(0.367735651017717,0.126166143909961,-0.12889649815954));
#193=CARTESIAN_POINT('',(0.364702569794793,0.142704154777932,-0.150063350474222));
#194=CARTESIAN_POINT('',(0.361964636532423,0.15961116459985,-0.170775344452336));
#195=CARTESIAN_POINT('',(0.358911824396641,0.176124507548071,-0.191972604465532));
#196=CARTESIAN_POINT('',(0.356149326238647,0.193000805923526,-0.212722455888232));
#197=CARTESIAN_POINT('',(0.35367650055785,0.210239257711366,-0.233025887349635));
#198=CARTESIAN_POINT('',(0.351492723160541,0.2278390825341,-0.25288386080696));
#199=CARTESIAN_POINT('',(0.349573220480216,0.245769308061411,-0.272334555291601));
#200=CARTESIAN_POINT('',(0.34789321895037,0.263998961962986,-0.291416149834949));
#201=CARTESIAN_POINT('',(0.346962249568068,0.276388395102811,-0.303845892483132));
#202=CARTESIAN_POINT('',(0.346551363837303,0.282651372213068,-0.309976620273748));
#203=CARTESIAN_POINT('',(0.395536903014777,-0.0670748224983631,-0.0762304280068452));
#204=CARTESIAN_POINT('',(0.395754221238515,-0.0600264542180555,-0.0813930183072504));
#205=CARTESIAN_POINT('',(0.396200197003906,-0.0459155410511,-0.0917007236618325));
#206=CARTESIAN_POINT('',(0.396090278785413,-0.0257229425355316,-0.108362631882644));
#207=CARTESIAN_POINT('',(0.396269653468351,-0.00516866515959655,-0.124578705113848));
#208=CARTESIAN_POINT('',(0.4031434123904,0.0237550442019803,-0.130477930911512));
#209=CARTESIAN_POINT('',(0.412883671392072,0.0562625002677097,-0.131959536965014));
#210=CARTESIAN_POINT('',(0.422189197386035,0.0882264458013302,-0.13411111862115));
#211=CARTESIAN_POINT('',(0.425972364115738,0.113286244723157,-0.144773316932618));
#212=CARTESIAN_POINT('',(0.422683760404143,0.129504797069873,-0.166333959988509));
#213=CARTESIAN_POINT('',(0.419307256816299,0.145613455510065,-0.188030067275358));
#214=CARTESIAN_POINT('',(0.415693451351333,0.161425435144604,-0.210091885160003));
#215=CARTESIAN_POINT('',(0.412275748857394,0.177482586018136,-0.231851484892673));
#216=CARTESIAN_POINT('',(0.409187718617129,0.193951898698656,-0.253103020220503));
#217=CARTESIAN_POINT('',(0.406597390200477,0.211043446586043,-0.273587537462992));
#218=CARTESIAN_POINT('',(0.404387216594721,0.228610270424161,-0.293486190637174));
#219=CARTESIAN_POINT('',(0.40243965078714,0.246505410956874,-0.312980133760086));
#220=CARTESIAN_POINT('',(0.40136318411724,0.258712940935907,-0.325634105144556));
#221=CARTESIAN_POINT('',(0.400892138083504,0.264900704621603,-0.331857547163266));
#222=CARTESIAN_POINT('',(0.452302417684479,-0.0817940387520388,-0.0943745396611333));
#223=CARTESIAN_POINT('',(0.452491614804606,-0.0747808279493467,-0.0995804679483133));
#224=CARTESIAN_POINT('',(0.452805890161557,-0.0608345688523612,-0.110091139396904));
#225=CARTESIAN_POINT('',(0.453225064249875,-0.0399804902188599,-0.125937653040312));
#226=CARTESIAN_POINT('',(0.451784397394262,-0.0214516160744279,-0.144650404202189));
#227=CARTESIAN_POINT('',(0.452369441451225,-0.000390164010980402,-0.160241292369198));
#228=CARTESIAN_POINT('',(0.460254602854253,0.0297980177758877,-0.164581825878301));
#229=CARTESIAN_POINT('',(0.469969567000043,0.0622738497865397,-0.166102414332523));
#230=CARTESIAN_POINT('',(0.478599883431233,0.0933936369465391,-0.169294574747808));
#231=CARTESIAN_POINT('',(0.48091880859331,0.116622816385966,-0.182213344585418));
#232=CARTESIAN_POINT('',(0.476172596388894,0.131019042032178,-0.206020336805198));
#233=CARTESIAN_POINT('',(0.472089826337628,0.146244714238204,-0.228804885252622));
#234=CARTESIAN_POINT('',(0.468285050740906,0.161817939795902,-0.251161010969522));
#235=CARTESIAN_POINT('',(0.464547553587826,0.17747527799758,-0.273413452551506));
#236=CARTESIAN_POINT('',(0.461441230343491,0.19392172045615,-0.294693179588288));
#237=CARTESIAN_POINT('',(0.458843811698241,0.211004404020264,-0.315188623721751));
#238=CARTESIAN_POINT('',(0.456633028824838,0.228570466141702,-0.335088215850307));
#239=CARTESIAN_POINT('',(0.455446400120058,0.240640269688341,-0.347911960116976));
#240=CARTESIAN_POINT('',(0.454932259744438,0.246774156101613,-0.354201815674943));
#241=CARTESIAN_POINT('',(0.508374049841775,-0.0973807586156332,-0.113588007325116));
#242=CARTESIAN_POINT('',(0.508572011868116,-0.0903565897794908,-0.118780427842656));
#243=CARTESIAN_POINT('',(0.508911126917266,-0.0763792756807337,-0.129252818352244));
#244=CARTESIAN_POINT('',(0.509147490475731,-0.0557537498522724,-0.145381064904666));
#245=CARTESIAN_POINT('',(0.508564229208753,-0.0361529327924239,-0.162772451422587));
#246=CARTESIAN_POINT('',(0.506032956937693,-0.0189875519166381,-0.18316595607567));
#247=CARTESIAN_POINT('',(0.507529116413851,0.00321299199747879,-0.197352706320738));
#248=CARTESIAN_POINT('',(0.515272489144556,0.0332239071968688,-0.201911753146064));
#249=CARTESIAN_POINT('',(0.524875770974885,0.0655601120947244,-0.20360445741684));
#250=CARTESIAN_POINT('',(0.533118064218264,0.0961947861265797,-0.207394608011107));
#251=CARTESIAN_POINT('',(0.533784875425996,0.117358464859811,-0.222859483211213));
#252=CARTESIAN_POINT('',(0.528584348657391,0.131186698782028,-0.247366628556082));
#253=CARTESIAN_POINT('',(0.524235590804942,0.146079828556741,-0.270561096044));
#254=CARTESIAN_POINT('',(0.519922811050548,0.161017938755925,-0.293700116976218));
#255=CARTESIAN_POINT('',(0.516113943333438,0.176586048275758,-0.316062549140463));
#256=CARTESIAN_POINT('',(0.512895678543835,0.192892539528058,-0.337514791497963));
#257=CARTESIAN_POINT('',(0.510388947682885,0.210088602488322,-0.357870474900446));
#258=CARTESIAN_POINT('',(0.509137258765381,0.222077066660655,-0.370794484742663));
#259=CARTESIAN_POINT('',(0.508602557813417,0.228185247894907,-0.377116026609888));
#260=CARTESIAN_POINT('',(0.563843394873925,-0.11372046799248,-0.133729671543012));
#261=CARTESIAN_POINT('',(0.56404869820209,-0.106687120937085,-0.138910778235683));
#262=CARTESIAN_POINT('',(0.564444870658342,-0.092638472706472,-0.149295236451129));
#263=CARTESIAN_POINT('',(0.564581005322009,-0.0721382547312861,-0.165577947727882));
#264=CARTESIAN_POINT('',(0.563828438078513,-0.052749106856327,-0.183230255021625));
#265=CARTESIAN_POINT('',(0.562531881725647,-0.0340400633328942,-0.201720914648671));
#266=CARTESIAN_POINT('',(0.559433525104247,-0.0175836608680813,-0.222988364165901));
#267=CARTESIAN_POINT('',(0.560618583804076,0.00422793961297757,-0.237654557946208));
#268=CARTESIAN_POINT('',(0.568619069106732,0.0345603012825325,-0.241817363521658));
#269=CARTESIAN_POINT('',(0.578226224448769,0.0669013489100007,-0.24350409824723));
#270=CARTESIAN_POINT('',(0.586009473031639,0.0969621175717316,-0.248001691611211));
#271=CARTESIAN_POINT('',(0.586416041433655,0.117800436363795,-0.263867632126116));
#272=CARTESIAN_POINT('',(0.580019961529794,0.130133969609541,-0.290217267960712));
#273=CARTESIAN_POINT('',(0.575031241344234,0.144227007691123,-0.314397994007758));
#274=CARTESIAN_POINT('',(0.570817848407652,0.159289372964745,-0.337383847957077));
#275=CARTESIAN_POINT('',(0.56696762131221,0.174805774292822,-0.35981001987407));
#276=CARTESIAN_POINT('',(0.564031426206164,0.191464913816783,-0.380827559085328));
#277=CARTESIAN_POINT('',(0.562623824083092,0.203258452672156,-0.393991849840211));
#278=CARTESIAN_POINT('',(0.56204261939064,0.209308494146395,-0.400385059538048));
#279=CARTESIAN_POINT('',(0.618790811244828,-0.130712701376858,-0.154675690303004));
#280=CARTESIAN_POINT('',(0.618952487792975,-0.123733897257017,-0.159924031085832));
#281=CARTESIAN_POINT('',(0.619268675592659,-0.109785247191899,-0.17043175523125));
#282=CARTESIAN_POINT('',(0.619361566097072,-0.0893390937933381,-0.18678111093376));
#283=CARTESIAN_POINT('',(0.618713169697263,-0.0698197097741744,-0.204272878488081));
#284=CARTESIAN_POINT('',(0.617647586777213,-0.0508218993728047,-0.222407580407526));
#285=CARTESIAN_POINT('',(0.615744023794605,-0.0328717457668006,-0.241833709909995));
#286=CARTESIAN_POINT('',(0.611826688280408,-0.0174392445147234,-0.2643633039332));
#287=CARTESIAN_POINT('',(0.612695953974646,0.0039775462291839,-0.2795161725357));
#288=CARTESIAN_POINT('',(0.620006459098557,0.0334472830521237,-0.284742320157561));
#289=CARTESIAN_POINT('',(0.629327934860471,0.0654311692544144,-0.286869321312087));
#290=CARTESIAN_POINT('',(0.637246448692623,0.0956610488102102,-0.291158454735608));
#291=CARTESIAN_POINT('',(0.637512295558487,0.116323435166418,-0.307241263982161));
#292=CARTESIAN_POINT('',(0.631091145802747,0.128625625660883,-0.333629535459375));
#293=CARTESIAN_POINT('',(0.625867713060971,0.142425222149442,-0.358171981650758));
#294=CARTESIAN_POINT('',(0.621484812412826,0.157275666025622,-0.381419067273752));
#295=CARTESIAN_POINT('',(0.617884483239557,0.173104493947135,-0.403460116579773));
#296=CARTESIAN_POINT('',(0.616094160103076,0.184419548542151,-0.417214226228212));
#297=CARTESIAN_POINT('',(0.615392031576306,0.190318409000987,-0.423793794029376));
#298=CARTESIAN_POINT('',(0.673416642647731,-0.148106985707396,-0.176117309992564));
#299=CARTESIAN_POINT('',(0.673512598497753,-0.141210346711837,-0.181466934238002));
#300=CARTESIAN_POINT('',(0.673686117152422,-0.127440064015995,-0.192194528613454));
#301=CARTESIAN_POINT('',(0.673726394612791,-0.107059688331702,-0.208624967314643));
#302=CARTESIAN_POINT('',(0.67338185016601,-0.0871604234805259,-0.225648462638121));
#303=CARTESIAN_POINT('',(0.672408288565601,-0.0680475664746492,-0.243641348689001));
#304=CARTESIAN_POINT('',(0.670532215956159,-0.0500630439408618,-0.26302511223581));
#305=CARTESIAN_POINT('',(0.667968450733093,-0.032938286301227,-0.283468692417357));
#306=CARTESIAN_POINT('',(0.663384430994788,-0.0183392849007084,-0.307025726632341));
#307=CARTESIAN_POINT('',(0.662672021830021,0.00110006928099844,-0.324616145519822));
#308=CARTESIAN_POINT('',(0.669582362105304,0.0300695132668359,-0.330458995073347));
#309=CARTESIAN_POINT('',(0.678963133852064,0.0621275323086019,-0.332494614017469));
#310=CARTESIAN_POINT('',(0.68714891797523,0.0926915576861087,-0.336371851930152));
#311=CARTESIAN_POINT('',(0.688822438008455,0.115113840757449,-0.350285268326634));
#312=CARTESIAN_POINT('',(0.681596755094903,0.126410190340488,-0.377913421703048));
#313=CARTESIAN_POINT('',(0.6752812009555,0.138844398253934,-0.40413895769564));
#314=CARTESIAN_POINT('',(0.671326242869413,0.15422986313264,-0.426726532605569));
#315=CARTESIAN_POINT('',(0.669330235492794,0.165287767824562,-0.440797626288565));
#316=CARTESIAN_POINT('',(0.668560106405506,0.171101612836733,-0.447481991093187));
#317=CARTESIAN_POINT('',(0.727921232775879,-0.165652847922721,-0.197745776999163));
#318=CARTESIAN_POINT('',(0.727958248173409,-0.158829897274097,-0.20318623553709));
#319=CARTESIAN_POINT('',(0.728000770769835,-0.145223388057741,-0.214115710518589));
#320=CARTESIAN_POINT('',(0.727907165100445,-0.125010395318394,-0.230752479148611));
#321=CARTESIAN_POINT('',(0.727593304898905,-0.105072768506745,-0.247728686377255));
#322=CARTESIAN_POINT('',(0.726741337663712,-0.0858078921764362,-0.26553418095643));
#323=CARTESIAN_POINT('',(0.72503341059669,-0.0676131512520238,-0.284658812095267));
#324=CARTESIAN_POINT('',(0.72283204262872,-0.0500353184571568,-0.304543894727581));
#325=CARTESIAN_POINT('',(0.719850577393167,-0.0334327764119729,-0.325631200627266));
#326=CARTESIAN_POINT('',(0.714476631090807,-0.0198213545132235,-0.350405606232056));
#327=CARTESIAN_POINT('',(0.712082921389028,-0.00248399059519719,-0.370587110499569));
#328=CARTESIAN_POINT('',(0.717363376631916,0.0244477436572564,-0.378941807986051));
#329=CARTESIAN_POINT('',(0.72616688740757,0.0557840613052767,-0.381867055185068));
#330=CARTESIAN_POINT('',(0.734574020578228,0.0866248209920048,-0.385403167719976));
#331=CARTESIAN_POINT('',(0.737114264235169,0.110130696543241,-0.39798085926507));
#332=CARTESIAN_POINT('',(0.730698638980594,0.122439793862159,-0.424360616824703));
#333=CARTESIAN_POINT('',(0.724326884282751,0.134803738890383,-0.450672764605086));
#334=CARTESIAN_POINT('',(0.722324023091476,0.145853074827726,-0.464754420836872));
#335=CARTESIAN_POINT('',(0.721567484614013,0.15168391104932,-0.471417840884952));
#336=CARTESIAN_POINT('',(0.78234794870368,-0.183296069775609,-0.219494257470074));
#337=CARTESIAN_POINT('',(0.782336373880911,-0.176533867439218,-0.225009599353756));
#338=CARTESIAN_POINT('',(0.782271112669172,-0.16306211135614,-0.23610518208541));
#339=CARTESIAN_POINT('',(0.782020616053147,-0.143045266322113,-0.252983738444122));
#340=CARTESIAN_POINT('',(0.78159124453889,-0.123252053700151,-0.270137962432422));
#341=CARTESIAN_POINT('',(0.780815244295654,-0.103892202156347,-0.287826382783706));
#342=CARTESIAN_POINT('',(0.779524861492692,-0.0851754403567907,-0.306307528231373));
#343=CARTESIAN_POINT('',(0.77750104698954,-0.0673756272281806,-0.325918979721166));
#344=CARTESIAN_POINT('',(0.774511165664611,-0.0507836071197572,-0.347019255821989));
#345=CARTESIAN_POINT('',(0.770844329466771,-0.0350379274011009,-0.369162800413798));
#346=CARTESIAN_POINT('',(0.764903384965513,-0.0221353762053402,-0.394811018113051));
#347=CARTESIAN_POINT('',(0.760000592078715,-0.00793491036684876,-0.418859319907165));
#348=CARTESIAN_POINT('',(0.763168482492954,0.0163556597371033,-0.430469732669639));
#349=CARTESIAN_POINT('',(0.771034745898799,0.0465202149294349,-0.434839390254501));
#350=CARTESIAN_POINT('',(0.779070377054047,0.0768965165361585,-0.43894803186413));
#351=CARTESIAN_POINT('',(0.783145894120269,0.102321816775222,-0.449159683312543));
#352=CARTESIAN_POINT('',(0.779175426254772,0.117687891066348,-0.47177116064907));
#353=CARTESIAN_POINT('',(0.776002787770135,0.127274751719116,-0.487655583712842));
#354=CARTESIAN_POINT('',(0.774936168332769,0.132717919499334,-0.494796875636975));
#355=CARTESIAN_POINT('',(0.836740157505544,-0.200982433018839,-0.241295917552574));
#356=CARTESIAN_POINT('',(0.836693912681226,-0.194263575702623,-0.246864690058659));
#357=CARTESIAN_POINT('',(0.836555619074711,-0.180883125950195,-0.258072824452678));
#358=CARTESIAN_POINT('',(0.83618348596401,-0.161018352911558,-0.275138837209632));
#359=CARTESIAN_POINT('',(0.835619379325095,-0.141393588412923,-0.29250070415289));
#360=CARTESIAN_POINT('',(0.834772993469707,-0.122121734147529,-0.310297597157694));
#361=CARTESIAN_POINT('',(0.83355402270959,-0.103315691808614,-0.328668688099281));
#362=CARTESIAN_POINT('',(0.831683447328111,-0.0853242965477904,-0.348043979759777));
#363=CARTESIAN_POINT('',(0.82888224760864,-0.06849638351667,-0.368853474921309));
#364=CARTESIAN_POINT('',(0.825399488858945,-0.0525205670703756,-0.390713334131366));
#365=CARTESIAN_POINT('',(0.821225842368651,-0.0374085101198197,-0.413637934049286));
#366=CARTESIAN_POINT('',(0.815347012914089,-0.0244283016459531,-0.439190425026379));
#367=CARTESIAN_POINT('',(0.808347836288682,-0.0128487700845215,-0.466469505099849));
#368=CARTESIAN_POINT('',(0.807120450925546,0.00594675217590122,-0.48485356395192));
#369=CARTESIAN_POINT('',(0.813272074685925,0.0339676359893527,-0.49186568647365));
#370=CARTESIAN_POINT('',(0.821376445211407,0.0644298767150991,-0.495868392485612));
#371=CARTESIAN_POINT('',(0.826839619831776,0.0915900498123624,-0.503941497539796));
#372=CARTESIAN_POINT('',(0.827465171389999,0.105925471661624,-0.513972455102313));
#373=CARTESIAN_POINT('',(0.827312949383782,0.112511834519163,-0.519704551131226));
#374=CARTESIAN_POINT('',(0.872997126444102,-0.212778972319291,-0.25583729818812));
#375=CARTESIAN_POINT('',(0.872934431639207,-0.206080681045999,-0.261431422083346));
#376=CARTESIAN_POINT('',(0.872763423970259,-0.192741130965703,-0.272689972763463));
#377=CARTESIAN_POINT('',(0.872333615170975,-0.172948465044852,-0.289844870660332));
#378=CARTESIAN_POINT('',(0.871694065957439,-0.153418020124322,-0.307323003641594));
#379=CARTESIAN_POINT('',(0.870775950590257,-0.134235843303317,-0.325230440410129));
#380=CARTESIAN_POINT('',(0.869510443330034,-0.11548798168104,-0.343673249668821));
#381=CARTESIAN_POINT('',(0.867730742561741,-0.0973829734474455,-0.362908492672663));
#382=CARTESIAN_POINT('',(0.865270046670347,-0.0801293567924885,-0.383193230676653));
#383=CARTESIAN_POINT('',(0.86206568579687,-0.0638054826299453,-0.404624045435095));
#384=CARTESIAN_POINT('',(0.857968502981311,-0.0485978295047153,-0.427430805677511));
#385=CARTESIAN_POINT('',(0.852824065446839,-0.0346994718768017,-0.451851510798672));
#386=CARTESIAN_POINT('',(0.846279669343329,-0.0225513660431951,-0.478429719650448));
#387=CARTESIAN_POINT('',(0.839996950185193,-0.0100761072828532,-0.504604653006544));
#388=CARTESIAN_POINT('',(0.840026455948119,0.0102908014437769,-0.521051692182871));
#389=CARTESIAN_POINT('',(0.848573265121649,0.0413061864230345,-0.524372547278068));
#390=CARTESIAN_POINT('',(0.856858009278742,0.0719939333025739,-0.528097275932905));
#391=CARTESIAN_POINT('',(0.859982718325155,0.089453843957933,-0.534276732655747));
#392=CARTESIAN_POINT('',(0.860692053251962,0.0971173398115998,-0.538681066322082));
#393=CARTESIAN_POINT('',(0.891129110303029,-0.218672866973611,-0.263102595527568));
#394=CARTESIAN_POINT('',(0.89105920214828,-0.211983593951861,-0.268707836058359));
#395=CARTESIAN_POINT('',(0.89087403264626,-0.198661749233918,-0.279988211818418));
#396=CARTESIAN_POINT('',(0.890421217914624,-0.178897845717375,-0.297178564610863));
#397=CARTESIAN_POINT('',(0.889754341803345,-0.159401565344902,-0.314698811612591));
#398=CARTESIAN_POINT('',(0.888812350895771,-0.140249238126832,-0.332643043446784));
#399=CARTESIAN_POINT('',(0.887534191775251,-0.1215171940735,-0.351105350736627));
#400=CARTESIAN_POINT('',(0.885794344179566,-0.103362360731928,-0.370279175231036));
#401=CARTESIAN_POINT('',(0.883467287846497,-0.0859416656491366,-0.390357958678927));
#402=CARTESIAN_POINT('',(0.880408692192662,-0.0694355533526467,-0.411564131785734));
#403=CARTESIAN_POINT('',(0.876430805203349,-0.0540787545751379,-0.434187042880134));
#404=CARTESIAN_POINT('',(0.871568228352054,-0.0398280099713637,-0.458173366949659));
#405=CARTESIAN_POINT('',(0.865385968644769,-0.0272271551126823,-0.484193480266947));
#406=CARTESIAN_POINT('',(0.858575550748209,-0.0154116342075928,-0.511181660544751));
#407=CARTESIAN_POINT('',(0.857270741147087,0.00328709096579167,-0.529685039415278));
#408=CARTESIAN_POINT('',(0.865173443494421,0.033497202736821,-0.533998540229546));
#409=CARTESIAN_POINT('',(0.873363622669772,0.0640667228826324,-0.537869004840722));
#410=CARTESIAN_POINT('',(0.876823440958276,0.0819455927595217,-0.543532018108761));
#411=CARTESIAN_POINT('',(0.877717286084291,0.0898397663734979,-0.547651999472156));
#412=ORIENTED_EDGE('',*,*,#422,.T.);
#413=ORIENTED_EDGE('',*,*,#423,.T.);
#414=ORIENTED_EDGE('',*,*,#424,.T.);
#415=ORIENTED_EDGE('',*,*,#425,.T.);
#416=ORIENTED_EDGE('',*,*,#426,.T.);
#417=ORIENTED_EDGE('',*,*,#427,.T.);
#418=ORIENTED_EDGE('',*,*,#428,.T.);
#419=ORIENTED_EDGE('',*,*,#429,.T.);
#420=ORIENTED_EDGE('',*,*,#430,.T.);
#421=ORIENTED_EDGE('',*,*,#431,.T.);
#422=EDGE_CURVE('',#432,#433,#434,.T.);
#423=EDGE_CURVE('',#433,#435,#436,.T.);
#424=EDGE_CURVE('',#435,#437,#438,.T.);
#425=EDGE_CURVE('',#437,#439,#440,.T.);
#426=EDGE_CURVE('',#439,#441,#442,.T.);
#427=EDGE_CURVE('',#441,#443,#444,.T.);
#428=EDGE_CURVE('',#443,#445,#446,.T.);
#429=EDGE_CURVE('',#445,#447,#448,.T.);
#430=EDGE_CURVE('',#447,#449,#450,.T.);
#431=EDGE_CURVE('',#449,#432,#451,.T.);
#432=VERTEX_POINT('',#452);
#433=VERTEX_POINT('',#453);
#434=LINE('',#454,#455);
#435=VERTEX_POINT('',#456);
#436=LINE('',#457,#458);
#437=VERTEX_POINT('',#459);
#438=LINE('',#460,#461);
#439=VERTEX_POINT('',#462);
#440=B_SPLINE_CURVE_WITH_KNOTS('',3,(#463,#464,#465,#466,#467,#468,#469,#470,#471,#472,#473,#474,#475,#476,#477,#478,#479,#480,#481,#482,#483,#484,#485,#486,#487,#488,#489,#490),.UNSPECIFIED.,.F.,.F.,(4,1,1,1,1,1,1,1,1,1,1,1,1,1,1,1,1,1,1,1,1,1,1,1,1,4),(0.0,0.0322611950271343,0.0645223900542687,0.096783585081403,0.11291418259497,0.129044780108537,0.161305975135672,0.193567170162806,0.22582836518994,0.258089560217075,0.290350755244209,0.322611950271343,0.387134340325612,0.451656730379881,0.516179120434149,0.548440315461284,0.580701510488418,0.612962705515552,0.645223900542687,0.677485095569821,0.709746290596955,0.774268680651224,0.838791070705492,0.903313460759761,0.96783585081403,1.0323582408683),.UNSPECIFIED.);
#441=VERTEX_POINT('',#491);
#442=LINE('',#492,#493);
#443=VERTEX_POINT('',#494);
#444=LINE('',#495,#496);
#445=VERTEX_POINT('',#497);
#446=LINE('',#498,#499);
#447=VERTEX_POINT('',#500);
#448=LINE('',#501,#502);
#449=VERTEX_POINT('',#503);
#450=B_SPLINE_CURVE_WITH_KNOTS('',3,(#504,#505,#506,#507,#508,#509,#510,#511,#512,#513,#514,#515,#516,#517,#518,#519,#520,#521,#522,#523,#524,#525,#526,#527,#528,#529,#530,#531,#532,#533,#534,#535,#536),.UNSPECIFIED.,.F.,.F.,(4,1,1,1,1,1,1,1,1,1,1,1,1,1,1,1,1,1,1,1,1,1,1,1,1,1,1,1,1,1,4),(0.0,0.00809966205686497,0.0161993241137299,0.0323986482274599,0.0647972964549198,0.0971959446823797,0.12959459290984,0.161993241137299,0.194391889364759,0.259189185819679,0.323986482274599,0.388783778729519,0.453581075184439,0.518378371639358,0.583175668094278,0.647972964549198,0.680371612776658,0.712770261004118,0.745168909231577,0.777567557459037,0.809966205686497,0.842364853913957,0.874763502141417,0.907162150368877,0.939560798596337,0.955760122710067,0.971959446823797,0.988158770937527,1.00435809505126,1.02055741916499,1.03675674327872),.UNSPECIFIED.);
#451=CIRCLE('',#537,0.199999050942662);
#452=CARTESIAN_POINT('',(0.85545015335083,0.0503078997135162,-0.531512022018433));
#453=CARTESIAN_POINT('',(0.855436682701111,0.0703177005052567,-0.531516432762146));
#454=CARTESIAN_POINT('',(0.85544341802597,0.0603128001093864,-0.531514227390289));
#455=VECTOR('',#538,1.0);
#456=CARTESIAN_POINT('',(0.855418622493744,0.0903275087475777,-0.531525731086731));
#457=CARTESIAN_POINT('',(0.855427652597427,0.0803226046264172,-0.531521081924438));
#458=VECTOR('',#539,1.0);
#459=CARTESIAN_POINT('',(0.851647973060608,0.101161859929562,-0.533695459365845));
#460=CARTESIAN_POINT('',(0.853533297777176,0.0957446843385696,-0.532610595226288));
#461=VECTOR('',#540,1.0);
#462=CARTESIAN_POINT('',(0.00467745214700699,0.100073546171188,0.00633635278791189));
#463=CARTESIAN_POINT('',(0.851647973060608,0.101161859929562,-0.533695459365845));
#464=CARTESIAN_POINT('',(0.843773580269506,0.100235892735418,-0.526430525238131));
#465=CARTESIAN_POINT('',(0.8284929444369,0.0987682547004907,-0.511338646288148));
#466=CARTESIAN_POINT('',(0.80766498037745,0.0981493253920629,-0.486645491311291));
#467=CARTESIAN_POINT('',(0.791918799218681,0.0985666493578062,-0.464852496994118));
#468=CARTESIAN_POINT('',(0.778902629074327,0.0990928111683816,-0.447734498175089));
#469=CARTESIAN_POINT('',(0.765191785374913,0.0991592074371352,-0.431160335137384));
#470=CARTESIAN_POINT('',(0.748131721314676,0.0994723181755807,-0.410380280186303));
#471=CARTESIAN_POINT('',(0.726606832818138,0.0996974897947695,-0.386347437709699));
#472=CARTESIAN_POINT('',(0.704657771275781,0.0998885427341633,-0.36269816204318));
#473=CARTESIAN_POINT('',(0.681803974532895,0.0999182504661464,-0.339920779445417));
#474=CARTESIAN_POINT('',(0.658205022355376,0.0997742538058165,-0.31791966187347));
#475=CARTESIAN_POINT('',(0.626450605560239,0.0997765410604314,-0.288903915602776));
#476=CARTESIAN_POINT('',(0.585665391023053,0.0999220221386114,-0.253838030500783));
#477=CARTESIAN_POINT('',(0.534512222709274,0.0997960946103524,-0.214490014095932));
#478=CARTESIAN_POINT('',(0.490877701990156,0.100016136668819,-0.183044071323137));
#479=CARTESIAN_POINT('',(0.454687740791398,0.0998911748966915,-0.159782355679609));
#480=CARTESIAN_POINT('',(0.427312399707747,0.0999400047125654,-0.142708560117954));
#481=CARTESIAN_POINT('',(0.399346979801799,0.0998700258323876,-0.126617193453647));
#482=CARTESIAN_POINT('',(0.371234260183918,0.0999319614975396,-0.110788892693137));
#483=CARTESIAN_POINT('',(0.342608641771228,0.100005050364673,-0.0958964384443163));
#484=CARTESIAN_POINT('',(0.303741125171884,0.0999459850675098,-0.077463780436503));
#485=CARTESIAN_POINT('',(0.254488651187233,0.100035011937878,-0.0558222115325047));
#486=CARTESIAN_POINT('',(0.193667775355277,0.0999438783018633,-0.0342070555091402));
#487=CARTESIAN_POINT('',(0.131871309737682,0.100114903013022,-0.0154952461395164));
#488=CARTESIAN_POINT('',(0.0685683656335952,0.100068181813829,-0.00266042968945121));
#489=CARTESIAN_POINT('',(0.0257545195181742,0.10013397472647,0.00205563331172766));
#490=CARTESIAN_POINT('',(0.00467745214700699,0.100073546171188,0.00633635278791189));
#491=CARTESIAN_POINT('',(0.000222859307541512,0.100030228495598,0.00402636919170618));
#492=CARTESIAN_POINT('',(0.00245015572727425,0.100051887333393,0.00518136098980904));
#493=VECTOR('',#541,1.0);
#494=CARTESIAN_POINT('',(-1.95876664439349E-34,0.0900091603398323,-9.39090613051795E-35));
#495=CARTESIAN_POINT('',(0.000111429653770756,0.0950196944177151,0.00201318459585309));
#496=VECTOR('',#542,1.0);
#497=CARTESIAN_POINT('',(-5.72452203114771E-34,0.00999083835631609,-4.82757116865734E-34));
#498=CARTESIAN_POINT('',(-3.85786225680336E-35,0.0499999993480742,-1.19215790160016E-35));
#499=VECTOR('',#543,1.0);
#500=CARTESIAN_POINT('',(0.00258500664494932,0.00382838351652026,0.0102522540837526));
#501=CARTESIAN_POINT('',(0.00129250332247466,0.00690961093641818,0.00512612704187632));
#502=VECTOR('',#544,1.0);
#503=CARTESIAN_POINT('',(0.856866419315338,0.00122525915503502,-0.529045581817627));
#504=CARTESIAN_POINT('',(0.00258500664494932,0.00382838351652026,0.0102522540837526));
#505=CARTESIAN_POINT('',(0.00512969484140644,0.00306152614039945,0.0097769820957843));
#506=CARTESIAN_POINT('',(0.0102427271203562,0.00155928631026628,0.00880663728313173));
#507=CARTESIAN_POINT('',(0.0207007712655132,0.000543900337035107,0.00611447403505037));
#508=CARTESIAN_POINT('',(0.0391034483188309,-0.000356826993260071,0.00198062718984931));
#509=CARTESIAN_POINT('',(0.065719905026505,-0.000364452555894215,-0.00269320834446917));
#510=CARTESIAN_POINT('',(0.0976724648576987,-0.000112805837893518,-0.00801647551388083));
#511=CARTESIAN_POINT('',(0.129385417695158,1.44578786307124E-05,-0.0147022760119194));
#512=CARTESIAN_POINT('',(0.160738148722679,5.84744966844224E-05,-0.0229001487717311));
#513=CARTESIAN_POINT('',(0.202087919632912,7.85619423276701E-05,-0.0354169575124233));
#514=CARTESIAN_POINT('',(0.253007214147572,8.23087849923931E-05,-0.0535050130733918));
#515=CARTESIAN_POINT('',(0.312360172378106,3.84278076789429E-05,-0.0795571987228161));
#516=CARTESIAN_POINT('',(0.370579360808643,0.000129476227171279,-0.108053045836458));
#517=CARTESIAN_POINT('',(0.427007943918144,0.000188209645223501,-0.13996767713672));
#518=CARTESIAN_POINT('',(0.481709006561428,0.000218924023706165,-0.17472726035259));
#519=CARTESIAN_POINT('',(0.534902522538552,0.000339328001539149,-0.211752148080879));
#520=CARTESIAN_POINT('',(0.577695856513867,0.000455964355804998,-0.244717332617122));
#521=CARTESIAN_POINT('',(0.610944037825574,0.000440067861250115,-0.272298266748459));
#522=CARTESIAN_POINT('',(0.635646333220408,0.0006218025106268,-0.293267039377511));
#523=CARTESIAN_POINT('',(0.659498345866187,0.000571471632811987,-0.315198724555614));
#524=CARTESIAN_POINT('',(0.683243679210072,0.000783611626051628,-0.3372420525988));
#525=CARTESIAN_POINT('',(0.706243733347759,0.000787046799639906,-0.360064155968406));
#526=CARTESIAN_POINT('',(0.728988609617501,0.00101556673663014,-0.38314048109192));
#527=CARTESIAN_POINT('',(0.75084158617194,0.00105293976623718,-0.407064838821685));
#528=CARTESIAN_POINT('',(0.772335457513725,0.00113066644623401,-0.431305592795918));
#529=CARTESIAN_POINT('',(0.790020805794162,0.00144947387137351,-0.451710490019676));
#530=CARTESIAN_POINT('',(0.803390412072779,0.00139565633034199,-0.468678329677932));
#531=CARTESIAN_POINT('',(0.813412200944005,0.00140268900204,-0.481403727268699));
#532=CARTESIAN_POINT('',(0.823352735011843,0.0015109023237877,-0.494198969645946));
#533=CARTESIAN_POINT('',(0.833265146571052,0.0014999100694073,-0.506994609727599));
#534=CARTESIAN_POINT('',(0.843851390519246,0.00192859332842265,-0.519340312292846));
#535=CARTESIAN_POINT('',(0.852477484438428,0.00140286868544676,-0.525904997101188));
#536=CARTESIAN_POINT('',(0.856866419315338,0.00122525915503502,-0.529045581817627));
#537=AXIS2_PLACEMENT_3D('',#545,#546,#547);
#538=DIRECTION('',(-0.00067320242113917,0.999999749104722,-0.000220429111346515));
#539=DIRECTION('',(-0.000902567509314445,0.999999471673994,-0.000491958966580251));
#540=DIRECTION('',(-0.322964208143728,0.927985407365305,-0.185841878959356));
#541=DIRECTION('',(-0.887705597412914,-0.00863229131693914,-0.460330594104282));
#542=DIRECTION('',(-0.0206313076961368,-0.927705209382138,-0.372743066505591));
#543=DIRECTION('',(-0.0,-1.0,-0.0));
#544=DIRECTION('',(0.211229151986151,-0.503553873838705,0.83774443686201));
#545=CARTESIAN_POINT('',(0.953442452681539,0.0337580772261612,-0.357614821634246));
#546=DIRECTION('',(0.871219483630891,0.000470216320512532,-0.490893461189427));
#547=DIRECTION('',(0.000539721919516661,-0.999999854350114,0.0));
ENDSEC;
END-ISO-10303-21;
