ISO-10303-21;
HEADER;
FILE_DESCRIPTION(('STEP AP214'),'1');
FILE_NAME('SMAStripDeformed_04.stp','2026-04-23T00:14:29',(' '),(' '),'Spatial InterOp 3D',' ',' ');
FILE_SCHEMA(('AUTOMOTIVE_DESIGN { 1 0 10303 214 1 1 1 1 }'));
ENDSEC;
DATA;
#1=PRODUCT_DEFINITION_CONTEXT('',#9,'design');
#2=APPLICATION_PROTOCOL_DEFINITION('INTERNATIONAL STANDARD','automotive_design',1994,#9);
#3=PRODUCT_CATEGORY_RELATIONSHIP('NONE','NONE',#10,#11);
#4=SHAPE_DEFINITION_REPRESENTATION(#12,#13);
#5= (GEOMETRIC_REPRESENTATION_CONTEXT(3)GLOBAL_UNCERTAINTY_ASSIGNED_CONTEXT((#16))GLOBAL_UNIT_ASSIGNED_CONTEXT((#18,#19,#20))REPRESENTATION_CONTEXT('NONE','WORKSPACE'));
#9=APPLICATION_CONTEXT(' ');
#10=PRODUCT_CATEGORY('part','NONE');
#11=PRODUCT_RELATED_PRODUCT_CATEGORY('detail',' ',(#22));
#12=PRODUCT_DEFINITION_SHAPE('NONE','NONE',#23);
#13=MANIFOLD_SURFACE_SHAPE_REPRESENTATION('1',(#24,#25),#5);
#16=UNCERTAINTY_MEASURE_WITH_UNIT(LENGTH_MEASURE(1.0E-06),#18,'','');
#18= (CONVERSION_BASED_UNIT('MILLIMETRE',#28)LENGTH_UNIT()NAMED_UNIT(#31));
#19= (NAMED_UNIT(#33)PLANE_ANGLE_UNIT()SI_UNIT($,.RADIAN.));
#20= (NAMED_UNIT(#33)SOLID_ANGLE_UNIT()SI_UNIT($,.STERADIAN.));
#22=PRODUCT('1','','PART--DESC',(#39));
#23=PRODUCT_DEFINITION('','NONE',#40,#1);
#24=SHELL_BASED_SURFACE_MODEL('1',(#41));
#25=AXIS2_PLACEMENT_3D('',#42,#43,#44);
#28=LENGTH_MEASURE_WITH_UNIT(LENGTH_MEASURE(1.0),#45);
#31=DIMENSIONAL_EXPONENTS(1.0,0.0,0.0,0.0,0.0,0.0,0.0);
#33=DIMENSIONAL_EXPONENTS(0.0,0.0,0.0,0.0,0.0,0.0,0.0);
#39=PRODUCT_CONTEXT('',#9,'mechanical');
#40=PRODUCT_DEFINITION_FORMATION_WITH_SPECIFIED_SOURCE(' ','NONE',#22,.NOT_KNOWN.);
#41=CLOSED_SHELL('',(#46));
#42=CARTESIAN_POINT('',(0.0,0.0,0.0));
#43=DIRECTION('',(0.0,0.0,1.0));
#44=DIRECTION('',(1.0,0.0,0.0));
#45= (NAMED_UNIT(#31)LENGTH_UNIT()SI_UNIT(.MILLI.,.METRE.));
#46=FACE_SURFACE('',(#48),#49,.T.);
#48=FACE_BOUND('',#50,.T.);
#49=CYLINDRICAL_SURFACE('',#51,1.42843038101614);
#50=EDGE_LOOP('',(#52,#53,#54,#55,#56,#57,#58,#59,#60,#61));
#51=AXIS2_PLACEMENT_3D('',#62,#63,#64);
#52=ORIENTED_EDGE('',*,*,#65,.T.);
#53=ORIENTED_EDGE('',*,*,#66,.T.);
#54=ORIENTED_EDGE('',*,*,#67,.T.);
#55=ORIENTED_EDGE('',*,*,#68,.T.);
#56=ORIENTED_EDGE('',*,*,#69,.T.);
#57=ORIENTED_EDGE('',*,*,#70,.T.);
#58=ORIENTED_EDGE('',*,*,#71,.T.);
#59=ORIENTED_EDGE('',*,*,#72,.T.);
#60=ORIENTED_EDGE('',*,*,#73,.T.);
#61=ORIENTED_EDGE('',*,*,#74,.T.);
#62=CARTESIAN_POINT('',(-0.135132290570652,-3.9998654711234E-05,-1.4149931185761));
#63=DIRECTION('',(0.00101200832097456,-0.999999485581576,-6.83793885196716E-05));
#64=DIRECTION('',(9.60163717773822E-24,-6.83794235354446E-05,0.999999997662127));
#65=EDGE_CURVE('',#75,#76,#77,.T.);
#66=EDGE_CURVE('',#76,#78,#79,.T.);
#67=EDGE_CURVE('',#78,#80,#81,.T.);
#68=EDGE_CURVE('',#80,#82,#83,.T.);
#69=EDGE_CURVE('',#82,#84,#85,.T.);
#70=EDGE_CURVE('',#84,#86,#87,.T.);
#71=EDGE_CURVE('',#86,#88,#89,.T.);
#72=EDGE_CURVE('',#88,#90,#91,.T.);
#73=EDGE_CURVE('',#90,#92,#93,.T.);
#74=EDGE_CURVE('',#92,#75,#94,.T.);
#75=VERTEX_POINT('',#95);
#76=VERTEX_POINT('',#96);
#77=LINE('',#97,#98);
#78=VERTEX_POINT('',#99);
#79=LINE('',#100,#101);
#80=VERTEX_POINT('',#102);
#81=B_SPLINE_CURVE_WITH_KNOTS('',3,(#103,#104,#105,#106,#107,#108,#109,#110,#111,#112,#113),.UNSPECIFIED.,.F.,.F.,(4,1,1,1,1,1,1,1,4),(0.0,0.128004576778123,0.256009153556247,0.38401373033437,0.512018307112493,0.640022883890616,0.76802746066874,0.896032037446863,1.02403661422499),.UNSPECIFIED.);
#82=VERTEX_POINT('',#114);
#83=LINE('',#115,#116);
#84=VERTEX_POINT('',#117);
#85=LINE('',#118,#119);
#86=VERTEX_POINT('',#120);
#87=LINE('',#121,#122);
#88=VERTEX_POINT('',#123);
#89=LINE('',#124,#125);
#90=VERTEX_POINT('',#126);
#91=LINE('',#127,#128);
#92=VERTEX_POINT('',#129);
#93=B_SPLINE_CURVE_WITH_KNOTS('',3,(#130,#131,#132,#133,#134,#135,#136,#137,#138,#139,#140),.UNSPECIFIED.,.F.,.F.,(4,1,1,1,1,1,1,1,4),(0.0,0.129230722774294,0.258461445548588,0.387692168322882,0.516922891097176,0.646153613871471,0.775384336645765,0.904615059420059,1.03384578219435),.UNSPECIFIED.);
#94=LINE('',#141,#142);
#95=CARTESIAN_POINT('',(-5.70890953762337E-34,0.0900091603398323,-1.23447202480991E-34));
#96=CARTESIAN_POINT('',(-1.82969438001957E-34,0.00999083835631609,-9.55080952245639E-35));
#97=CARTESIAN_POINT('',(5.05016020753515E-35,0.0499999993480742,1.02060219232045E-34));
#98=VECTOR('',#143,1.0);
#99=CARTESIAN_POINT('',(0.000176344241481274,-2.39211422012886E-05,0.0041229915805161));
#100=CARTESIAN_POINT('',(8.81721207406372E-05,0.0049834586070574,0.00206149579025805));
#101=VECTOR('',#144,1.0);
#102=CARTESIAN_POINT('',(0.902873575687408,2.42066125792917E-05,-0.430707395076752));
#103=CARTESIAN_POINT('',(0.000176344241481274,-2.39211422012886E-05,0.0041229915805161));
#104=CARTESIAN_POINT('',(0.0427625501268243,-0.000216566184968226,0.00148621573459889));
#105=CARTESIAN_POINT('',(0.127654872916579,-1.91301059941482E-05,-0.00833319538101163));
#106=CARTESIAN_POINT('',(0.252687536790415,-9.3647153128229E-05,-0.0365663069067873));
#107=CARTESIAN_POINT('',(0.37422418226219,-6.60446995860399E-05,-0.0772259371725661));
#108=CARTESIAN_POINT('',(0.491327757520364,-5.94455826027262E-05,-0.129254726912854));
#109=CARTESIAN_POINT('',(0.603301819093241,-4.20562658876775E-05,-0.191528084451553));
#110=CARTESIAN_POINT('',(0.709653042725081,-2.16538083199373E-05,-0.262947838680914));
#111=CARTESIAN_POINT('',(0.810112952841511,2.68990539982243E-06,-0.342438969001028));
#112=CARTESIAN_POINT('',(0.872688327377354,1.2109337900526E-05,-0.400550716400226));
#113=CARTESIAN_POINT('',(0.902873575687408,2.42066125792917E-05,-0.430707395076752));
#114=CARTESIAN_POINT('',(0.912592232227325,2.3085274733603E-05,-0.435000598430634));
#115=CARTESIAN_POINT('',(0.907732903957367,2.36459436564473E-05,-0.432853996753693));
#116=VECTOR('',#145,1.0);
#117=CARTESIAN_POINT('',(0.912589967250824,0.0400423109531403,-0.434992969036102));
#118=CARTESIAN_POINT('',(0.912591099739075,0.0200326981139369,-0.434996783733368));
#119=VECTOR('',#146,1.0);
#120=CARTESIAN_POINT('',(0.91258829832077,0.0600518919527531,-0.434989839792252));
#121=CARTESIAN_POINT('',(0.912589132785797,0.0500471014529467,-0.434991404414177));
#122=VECTOR('',#147,0.999999999999999);
#123=CARTESIAN_POINT('',(0.912585258483887,0.0900663062930107,-0.434985846281052));
#124=CARTESIAN_POINT('',(0.912586778402328,0.0750590991228819,-0.434987843036652));
#125=VECTOR('',#148,1.0);
#126=CARTESIAN_POINT('',(0.909879326820374,0.100074484944344,-0.437638223171234));
#127=CARTESIAN_POINT('',(0.91123229265213,0.0950703956186771,-0.436312034726143));
#128=VECTOR('',#149,1.0);
#129=CARTESIAN_POINT('',(0.000231108453590423,0.100014545023441,0.00407329946756363));
#130=CARTESIAN_POINT('',(0.909879326820374,0.100074484944344,-0.437638223171234));
#131=CARTESIAN_POINT('',(0.87958645375888,0.100067083120569,-0.407012061894738));
#132=CARTESIAN_POINT('',(0.816745630878692,0.100073815239969,-0.347983132480855));
#133=CARTESIAN_POINT('',(0.71568896426114,0.100065529450258,-0.267267651920615));
#134=CARTESIAN_POINT('',(0.608618536202996,0.1000664782684,-0.194718450709008));
#135=CARTESIAN_POINT('',(0.495800350445416,0.100069168859733,-0.131435631899342));
#136=CARTESIAN_POINT('',(0.377731409224568,0.100064750733763,-0.0785544032156735));
#137=CARTESIAN_POINT('',(0.255121838530441,0.100092363469654,-0.0372202709995506));
#138=CARTESIAN_POINT('',(0.128927121760954,0.100002396369709,-0.00856298450400281));
#139=CARTESIAN_POINT('',(0.0432274211130285,0.100239028944205,0.00144905247044693));
#140=CARTESIAN_POINT('',(0.000231108453590423,0.100014545023441,0.00407329946756363));
#141=CARTESIAN_POINT('',(0.000115554226795211,0.0950118526816368,0.00203664973378181));
#142=VECTOR('',#150,1.0);
#143=DIRECTION('',(-0.0,-1.0,-0.0));
#144=DIRECTION('',(0.0162803956796704,-0.924579367622355,0.380641487076172));
#145=DIRECTION('',(0.914724408031441,-0.000105540831995457,-0.404078267434246));
#146=DIRECTION('',(-5.65971930527857E-05,0.999999980812942,0.000187538993557636));
#147=DIRECTION('',(-8.34065454708736E-05,0.999999984293184,0.000156387272757891));
#148=DIRECTION('',(-0.000101279226857674,0.999999986071687,0.000132661766982678));
#149=DIRECTION('',(-0.252856790089074,0.93521797410377,-0.247852344388934));
#150=DIRECTION('',(-0.0213885817934052,-0.925976464102495,-0.376974954734538));
ENDSEC;
END-ISO-10303-21;
