ISO-10303-21;
HEADER;
FILE_DESCRIPTION(('STEP AP214'),'1');
FILE_NAME('SMAStripDeformed_05.stp','2026-05-05T15:48:23',(' '),(' '),'Spatial InterOp 3D',' ',' ');
FILE_SCHEMA(('AUTOMOTIVE_DESIGN { 1 0 10303 214 1 1 1 1 }'));
ENDSEC;
DATA;
#1=PRODUCT_DEFINITION_CONTEXT('',#9,'design');
#2=APPLICATION_PROTOCOL_DEFINITION('INTERNATIONAL STANDARD','automotive_design',1994,#9);
#3=PRODUCT_CATEGORY_RELATIONSHIP('NONE','NONE',#10,#11);
#4=SHAPE_DEFINITION_REPRESENTATION(#12,#13);
#5= (GEOMETRIC_REPRESENTATION_CONTEXT(3)GLOBAL_UNCERTAINTY_ASSIGNED_CONTEXT((#16))GLOBAL_UNIT_ASSIGNED_CONTEXT((#18,#19,#20))REPRESENTATION_CONTEXT('NONE','WORKSPACE'));
#9=APPLICATION_CONTEXT(' ');
#10=PRODUCT_CATEGORY('part','NONE');
#11=PRODUCT_RELATED_PRODUCT_CATEGORY('detail',' ',(#22));
#12=PRODUCT_DEFINITION_SHAPE('NONE','NONE',#23);
#13=MANIFOLD_SURFACE_SHAPE_REPRESENTATION('1',(#24,#25),#5);
#16=UNCERTAINTY_MEASURE_WITH_UNIT(LENGTH_MEASURE(1.0E-06),#18,'','');
#18= (CONVERSION_BASED_UNIT('MILLIMETRE',#28)LENGTH_UNIT()NAMED_UNIT(#31));
#19= (NAMED_UNIT(#33)PLANE_ANGLE_UNIT()SI_UNIT($,.RADIAN.));
#20= (NAMED_UNIT(#33)SOLID_ANGLE_UNIT()SI_UNIT($,.STERADIAN.));
#22=PRODUCT('1','','PART--DESC',(#39));
#23=PRODUCT_DEFINITION('','NONE',#40,#1);
#24=SHELL_BASED_SURFACE_MODEL('1',(#41));
#25=AXIS2_PLACEMENT_3D('',#42,#43,#44);
#28=LENGTH_MEASURE_WITH_UNIT(LENGTH_MEASURE(1.0),#45);
#31=DIMENSIONAL_EXPONENTS(1.0,0.0,0.0,0.0,0.0,0.0,0.0);
#33=DIMENSIONAL_EXPONENTS(0.0,0.0,0.0,0.0,0.0,0.0,0.0);
#39=PRODUCT_CONTEXT('',#9,'mechanical');
#40=PRODUCT_DEFINITION_FORMATION_WITH_SPECIFIED_SOURCE(' ','NONE',#22,.NOT_KNOWN.);
#41=CLOSED_SHELL('',(#46));
#42=CARTESIAN_POINT('',(0.0,0.0,0.0));
#43=DIRECTION('',(0.0,0.0,1.0));
#44=DIRECTION('',(1.0,0.0,0.0));
#45= (NAMED_UNIT(#31)LENGTH_UNIT()SI_UNIT(.MILLI.,.METRE.));
#46=FACE_SURFACE('',(#48),#49,.T.);
#48=FACE_BOUND('',#50,.T.);
#49=CYLINDRICAL_SURFACE('',#51,1.44965674898773);
#50=EDGE_LOOP('',(#52,#53,#54,#55,#56,#57));
#51=AXIS2_PLACEMENT_3D('',#58,#59,#60);
#52=ORIENTED_EDGE('',*,*,#61,.T.);
#53=ORIENTED_EDGE('',*,*,#62,.T.);
#54=ORIENTED_EDGE('',*,*,#63,.T.);
#55=ORIENTED_EDGE('',*,*,#64,.T.);
#56=ORIENTED_EDGE('',*,*,#65,.T.);
#57=ORIENTED_EDGE('',*,*,#66,.T.);
#58=CARTESIAN_POINT('',(-0.118077346230023,0.000358540906520467,-1.43916404050522));
#59=DIRECTION('',(0.00236794071277421,-0.999997098117875,-0.000443410204711698));
#60=DIRECTION('',(0.0,-0.000443411447849187,0.999999901693139));
#61=EDGE_CURVE('',#67,#68,#69,.T.);
#62=EDGE_CURVE('',#68,#70,#71,.T.);
#63=EDGE_CURVE('',#70,#72,#73,.T.);
#64=EDGE_CURVE('',#72,#74,#75,.T.);
#65=EDGE_CURVE('',#74,#76,#77,.T.);
#66=EDGE_CURVE('',#76,#67,#78,.T.);
#67=VERTEX_POINT('',#79);
#68=VERTEX_POINT('',#80);
#69=B_SPLINE_CURVE_WITH_KNOTS('',3,(#81,#82,#83,#84,#85,#86,#87,#88,#89,#90),.UNSPECIFIED.,.F.,.F.,(4,1,1,1,1,1,1,4),(0.0,0.0251102299415637,0.0502204598831274,0.0627755748539092,0.075330689824691,0.081608247310082,0.0878858047954729,0.100440919766255),.UNSPECIFIED.);
#70=VERTEX_POINT('',#91);
#71=B_SPLINE_CURVE_WITH_KNOTS('',3,(#92,#93,#94,#95,#96,#97,#98,#99,#100,#101,#102,#103,#104,#105,#106,#107,#108,#109,#110,#111),.UNSPECIFIED.,.F.,.F.,(4,1,1,1,1,1,1,1,1,1,1,1,1,1,1,1,1,4),(0.0,0.125141117828898,0.250282235657797,0.375423353486695,0.500564471315594,0.625705589144492,0.688276148058941,0.750846706973391,0.81341726588784,0.844702545345065,0.875987824802289,0.907273104259514,0.938558383716738,0.969843663173963,0.977664983038269,0.985486302902575,0.993307622766881,1.00112894263119),.UNSPECIFIED.);
#72=VERTEX_POINT('',#112);
#73=LINE('',#113,#114);
#74=VERTEX_POINT('',#115);
#75=LINE('',#116,#117);
#76=VERTEX_POINT('',#118);
#77=LINE('',#119,#120);
#78=B_SPLINE_CURVE_WITH_KNOTS('',3,(#121,#122,#123,#124,#125,#126,#127,#128,#129,#130,#131,#132,#133,#134,#135,#136,#137,#138,#139,#140,#141,#142,#143,#144,#145,#146,#147,#148,#149,#150),.UNSPECIFIED.,.F.,.F.,(4,1,1,1,1,1,1,1,1,1,1,1,1,1,1,1,1,1,1,1,1,1,1,1,1,1,1,4),(0.0,0.00782498747540909,0.0156499749508182,0.0234749624262273,0.0312999499016364,0.0625998998032728,0.0938998497049091,0.125199799606546,0.187799699409818,0.250399599213091,0.312999499016364,0.375599398819637,0.500799198426182,0.563399098229455,0.625998998032728,0.688598897836,0.751198797639273,0.813798697442546,0.845098647344182,0.876398597245818,0.907698547147455,0.938998497049091,0.954648471999909,0.970298446950728,0.978123434426137,0.985948421901546,0.993773409376955,1.00159839685236),.UNSPECIFIED.);
#79=CARTESIAN_POINT('',(0.896596848964691,-3.17832018481568E-06,-0.39740377664566));
#80=CARTESIAN_POINT('',(0.894521415233612,0.100014016032219,-0.399634510278702));
#81=CARTESIAN_POINT('',(0.896596848964691,-3.17832018481568E-06,-0.39740377664566));
#82=CARTESIAN_POINT('',(0.896850720397139,0.00835825631696369,-0.397120680929903));
#83=CARTESIAN_POINT('',(0.89726654329887,0.0250898299874446,-0.396656924139333));
#84=CARTESIAN_POINT('',(0.897315886572953,0.0460127444680389,-0.396599189110791));
#85=CARTESIAN_POINT('',(0.897175407038809,0.0627608453777836,-0.396755498812682));
#86=CARTESIAN_POINT('',(0.89688952837748,0.0731999223516386,-0.397069067045239));
#87=CARTESIAN_POINT('',(0.89670668771901,0.0815769980107274,-0.397273654708141));
#88=CARTESIAN_POINT('',(0.896758328044572,0.0900067419772151,-0.397229849017228));
#89=CARTESIAN_POINT('',(0.895452719085918,0.0960585658445354,-0.398633694252959));
#90=CARTESIAN_POINT('',(0.894521415233612,0.100014016032219,-0.399634510278702));
#91=CARTESIAN_POINT('',(6.27567787887529E-05,0.100022800266743,0.00201794854365289));
#92=CARTESIAN_POINT('',(0.894521415233612,0.100014016032219,-0.399634510278702));
#93=CARTESIAN_POINT('',(0.864034756245521,0.100007421811765,-0.371163527792031));
#94=CARTESIAN_POINT('',(0.801013741233246,0.100027499700336,-0.316406625918295));
#95=CARTESIAN_POINT('',(0.700286960142331,0.100031108517769,-0.241981677329584));
#96=CARTESIAN_POINT('',(0.594109846785138,0.100043949935895,-0.1755664225076));
#97=CARTESIAN_POINT('',(0.482829034865792,0.1000531431386,-0.118078248382165));
#98=CARTESIAN_POINT('',(0.386309261357402,0.100056805277407,-0.078323991162876));
#99=CARTESIAN_POINT('',(0.307174217163122,0.100065977082199,-0.0518379574189001));
#100=CARTESIAN_POINT('',(0.246969420436557,0.100067448021321,-0.0347323029358174));
#101=CARTESIAN_POINT('',(0.196181869800107,0.100057046707673,-0.022859369650947));
#102=CARTESIAN_POINT('',(0.155244098893367,0.100058055271253,-0.0148326475314454));
#103=CARTESIAN_POINT('',(0.124403831746778,0.100067405381259,-0.00956642252787755));
#104=CARTESIAN_POINT('',(0.0934430606119796,0.100090216223414,-0.00503191373311358));
#105=CARTESIAN_POINT('',(0.0623831676719855,0.100104959439916,-0.0013525662606681));
#106=CARTESIAN_POINT('',(0.0390190861927055,0.100103383119492,0.00109241369021883));
#107=CARTESIAN_POINT('',(0.0234338029967855,0.100079191252714,0.00209160151105028));
#108=CARTESIAN_POINT('',(0.0156240689352217,0.10006863726016,0.00298135523714011));
#109=CARTESIAN_POINT('',(0.00783320896691598,0.100053548563099,0.00331472299443863));
#110=CARTESIAN_POINT('',(0.00263702460297346,0.100032812340782,0.00243031956988162));
#111=CARTESIAN_POINT('',(6.27567787887529E-05,0.100022800266743,0.00201794854365289));
#112=CARTESIAN_POINT('',(-1.2515048690767E-34,0.0900193303823471,-6.82479163117958E-35));
#113=CARTESIAN_POINT('',(3.13783893943764E-05,0.0950210653245449,0.00100897427182645));
#114=VECTOR('',#151,1.0);
#115=CARTESIAN_POINT('',(-3.64857329365662E-34,0.0099946167320013,-5.23223842796465E-35));
#116=CARTESIAN_POINT('',(-2.07637990514555E-35,0.0500069735571742,4.43960970445613E-35));
#117=VECTOR('',#152,1.0);
#118=CARTESIAN_POINT('',(5.34333667019382E-05,-2.229791971331E-05,0.00203689443878829));
#119=CARTESIAN_POINT('',(2.67166833509691E-05,0.004986159406144,0.00101844721939415));
#120=VECTOR('',#153,1.0);
#121=CARTESIAN_POINT('',(5.34333667019382E-05,-2.229791971331E-05,0.00203689443878829));
#122=CARTESIAN_POINT('',(0.00263013668911689,-3.28828133182987E-05,0.00244170173517305));
#123=CARTESIAN_POINT('',(0.0078299819212373,-5.47832326921939E-05,0.00330995613513502));
#124=CARTESIAN_POINT('',(0.0156250735653406,-7.10565327362959E-05,0.00297283960364304));
#125=CARTESIAN_POINT('',(0.0234379863903188,-8.24317861280915E-05,0.00208825523157519));
#126=CARTESIAN_POINT('',(0.0390310743411703,-0.000107888758166214,0.00108614281121227));
#127=CARTESIAN_POINT('',(0.0624059580678028,-0.000109618507063702,-0.00135533484358727));
#128=CARTESIAN_POINT('',(0.0934807664289917,-9.31416657847686E-05,-0.00503599747762229));
#129=CARTESIAN_POINT('',(0.134781389009629,-6.01814114127317E-05,-0.0110800531070608));
#130=CARTESIAN_POINT('',(0.186106032819136,-5.580040097526E-05,-0.0204879640024041));
#131=CARTESIAN_POINT('',(0.247079910022728,-7.08474023635652E-05,-0.0347462870657345));
#132=CARTESIAN_POINT('',(0.307312787127829,-7.06025920670606E-05,-0.0518591984834738));
#133=CARTESIAN_POINT('',(0.386484205474478,-6.23818409809055E-05,-0.0783603902069848));
#134=CARTESIAN_POINT('',(0.463734594660739,-6.14824596077503E-05,-0.110182335765795));
#135=CARTESIAN_POINT('',(0.538710993222432,-5.75727904802445E-05,-0.146901742757624));
#136=CARTESIAN_POINT('',(0.593735566696054,-5.38810038679643E-05,-0.176780800621542));
#137=CARTESIAN_POINT('',(0.647488206105205,-5.02846830522327E-05,-0.208890312060513));
#138=CARTESIAN_POINT('',(0.699914019735167,-4.58284859403592E-05,-0.243122091767617));
#139=CARTESIAN_POINT('',(0.742457530717189,-4.3419250049619E-05,-0.273328595379811));
#140=CARTESIAN_POINT('',(0.775772317219141,-4.10029502031606E-05,-0.298467317579654));
#141=CARTESIAN_POINT('',(0.800386256923336,-3.90864834403821E-05,-0.31780507627509));
#142=CARTESIAN_POINT('',(0.824628729561266,-3.69470955260045E-05,-0.337604643380653));
#143=CARTESIAN_POINT('',(0.844482027764238,-3.55243878419247E-05,-0.354529406461583));
#144=CARTESIAN_POINT('',(0.860221661464696,-3.35411080239681E-05,-0.368216303634778));
#145=CARTESIAN_POINT('',(0.869854408368954,-3.4284511630716E-05,-0.377043158020378));
#146=CARTESIAN_POINT('',(0.877761315801147,-3.03837532558087E-05,-0.383790114733907));
#147=CARTESIAN_POINT('',(0.883236565189616,-3.46159235319324E-05,-0.389516157198707));
#148=CARTESIAN_POINT('',(0.889156484326674,-3.11400391146825E-05,-0.394537076758048));
#149=CARTESIAN_POINT('',(0.894172939182934,-1.20862124398881E-05,-0.396440468274328));
#150=CARTESIAN_POINT('',(0.896596848964691,-3.17832018481568E-06,-0.39740377664566));
#151=DIRECTION('',(-0.00614950930819778,-0.980235639171968,-0.197737895286646));
#152=DIRECTION('',(-0.0,-1.0,-0.0));
#153=DIRECTION('',(0.00522726356912127,-0.979931759231737,0.199264705767408));
ENDSEC;
END-ISO-10303-21;
