ISO-10303-21;
HEADER;
FILE_DESCRIPTION(('STEP AP214'),'1');
FILE_NAME('SMAStripDeformed_08.stp','2026-05-05T15:52:14',(' '),(' '),'Spatial InterOp 3D',' ',' ');
FILE_SCHEMA(('AUTOMOTIVE_DESIGN { 1 0 10303 214 1 1 1 1 }'));
ENDSEC;
DATA;
#1=PRODUCT_DEFINITION_CONTEXT('',#9,'design');
#2=APPLICATION_PROTOCOL_DEFINITION('INTERNATIONAL STANDARD','automotive_design',1994,#9);
#3=PRODUCT_CATEGORY_RELATIONSHIP('NONE','NONE',#10,#11);
#4=SHAPE_DEFINITION_REPRESENTATION(#12,#13);
#5= (GEOMETRIC_REPRESENTATION_CONTEXT(3)GLOBAL_UNCERTAINTY_ASSIGNED_CONTEXT((#16))GLOBAL_UNIT_ASSIGNED_CONTEXT((#18,#19,#20))REPRESENTATION_CONTEXT('NONE','WORKSPACE'));
#9=APPLICATION_CONTEXT(' ');
#10=PRODUCT_CATEGORY('part','NONE');
#11=PRODUCT_RELATED_PRODUCT_CATEGORY('detail',' ',(#22));
#12=PRODUCT_DEFINITION_SHAPE('NONE','NONE',#23);
#13=MANIFOLD_SURFACE_SHAPE_REPRESENTATION('1',(#24,#25),#5);
#16=UNCERTAINTY_MEASURE_WITH_UNIT(LENGTH_MEASURE(1.0E-06),#18,'','');
#18= (CONVERSION_BASED_UNIT('MILLIMETRE',#28)LENGTH_UNIT()NAMED_UNIT(#31));
#19= (NAMED_UNIT(#33)PLANE_ANGLE_UNIT()SI_UNIT($,.RADIAN.));
#20= (NAMED_UNIT(#33)SOLID_ANGLE_UNIT()SI_UNIT($,.STERADIAN.));
#22=PRODUCT('1','','PART--DESC',(#39));
#23=PRODUCT_DEFINITION('','NONE',#40,#1);
#24=SHELL_BASED_SURFACE_MODEL('1',(#41));
#25=AXIS2_PLACEMENT_3D('',#42,#43,#44);
#28=LENGTH_MEASURE_WITH_UNIT(LENGTH_MEASURE(1.0),#45);
#31=DIMENSIONAL_EXPONENTS(1.0,0.0,0.0,0.0,0.0,0.0,0.0);
#33=DIMENSIONAL_EXPONENTS(0.0,0.0,0.0,0.0,0.0,0.0,0.0);
#39=PRODUCT_CONTEXT('',#9,'mechanical');
#40=PRODUCT_DEFINITION_FORMATION_WITH_SPECIFIED_SOURCE(' ','NONE',#22,.NOT_KNOWN.);
#41=CLOSED_SHELL('',(#46));
#42=CARTESIAN_POINT('',(0.0,0.0,0.0));
#43=DIRECTION('',(0.0,0.0,1.0));
#44=DIRECTION('',(1.0,0.0,0.0));
#45= (NAMED_UNIT(#31)LENGTH_UNIT()SI_UNIT(.MILLI.,.METRE.));
#46=FACE_SURFACE('',(#48),#49,.T.);
#48=FACE_BOUND('',#50,.T.);
#49=CYLINDRICAL_SURFACE('',#51,1.23635366826372);
#50=EDGE_LOOP('',(#52,#53,#54,#55,#56,#57));
#51=AXIS2_PLACEMENT_3D('',#58,#59,#60);
#52=ORIENTED_EDGE('',*,*,#61,.T.);
#53=ORIENTED_EDGE('',*,*,#62,.T.);
#54=ORIENTED_EDGE('',*,*,#63,.T.);
#55=ORIENTED_EDGE('',*,*,#64,.T.);
#56=ORIENTED_EDGE('',*,*,#65,.T.);
#57=ORIENTED_EDGE('',*,*,#66,.T.);
#58=CARTESIAN_POINT('',(-0.195991534955212,-0.00400295299075762,-1.2102684190663));
#59=DIRECTION('',(-0.00173392160321933,-0.999992058929196,0.00358825785338677));
#60=DIRECTION('',(1.21642964623223E-21,0.00358826324741908,0.999993562162711));
#61=EDGE_CURVE('',#67,#68,#69,.T.);
#62=EDGE_CURVE('',#68,#70,#71,.T.);
#63=EDGE_CURVE('',#70,#72,#73,.T.);
#64=EDGE_CURVE('',#72,#74,#75,.T.);
#65=EDGE_CURVE('',#74,#76,#77,.T.);
#66=EDGE_CURVE('',#76,#67,#78,.T.);
#67=VERTEX_POINT('',#79);
#68=VERTEX_POINT('',#80);
#69=LINE('',#81,#82);
#70=VERTEX_POINT('',#83);
#71=LINE('',#84,#85);
#72=VERTEX_POINT('',#86);
#73=B_SPLINE_CURVE_WITH_KNOTS('',3,(#87,#88,#89,#90,#91,#92,#93,#94,#95,#96,#97,#98,#99,#100,#101,#102,#103,#104,#105,#106,#107,#108),.UNSPECIFIED.,.F.,.F.,(4,1,1,1,1,1,1,1,1,1,1,1,1,1,1,1,1,1,1,4),(0.0,0.125184643961725,0.250369287923449,0.375553931885174,0.500738575846899,0.563330897827761,0.625923219808623,0.688515541789485,0.751107863770348,0.81370018575121,0.844996346741641,0.876292507732072,0.907588668722503,0.938884829712935,0.95453291020815,0.970180990703366,0.978005030950974,0.985829071198581,0.993653111446189,1.0014771516938),.UNSPECIFIED.);
#74=VERTEX_POINT('',#109);
#75=B_SPLINE_CURVE_WITH_KNOTS('',3,(#110,#111,#112,#113,#114,#115,#116,#117,#118,#119),.UNSPECIFIED.,.F.,.F.,(4,1,1,1,1,1,1,4),(0.0,0.0250962061499769,0.0501924122999537,0.0627405153749422,0.0752886184499306,0.0815626699874248,0.087836721524919,0.100384824599907),.UNSPECIFIED.);
#76=VERTEX_POINT('',#120);
#77=B_SPLINE_CURVE_WITH_KNOTS('',3,(#121,#122,#123,#124,#125,#126,#127,#128,#129,#130,#131,#132),.UNSPECIFIED.,.F.,.F.,(4,1,1,1,1,1,1,1,1,4),(0.0,0.125090991259329,0.250181982518657,0.375272973777986,0.500363965037314,0.625454956296643,0.750545947555971,0.8756369388153,0.938182434444964,1.00072793007463),.UNSPECIFIED.);
#78=LINE('',#133,#134);
#79=CARTESIAN_POINT('',(-4.12226032366206E-34,0.0900193303823471,1.36784793012253E-34));
#80=CARTESIAN_POINT('',(-5.31127664773302E-35,0.0099946167320013,-1.93787797202613E-34));
#81=CARTESIAN_POINT('',(7.57078514179537E-35,0.0500069735571742,-6.87174712036516E-35));
#82=VECTOR('',#135,1.0);
#83=CARTESIAN_POINT('',(0.000759497052058578,-1.54475692397682E-05,0.00901815202087164));
#84=CARTESIAN_POINT('',(0.000379748526029289,0.00498958458138077,0.00450907601043582));
#85=VECTOR('',#136,1.0);
#86=CARTESIAN_POINT('',(0.826776683330536,-0.000455088767921552,-0.508755028247833));
#87=CARTESIAN_POINT('',(0.000759497052058578,-1.54475692397682E-05,0.00901815202087164));
#88=CARTESIAN_POINT('',(0.0420897825881133,-0.0003802129005968,0.00328070119634447));
#89=CARTESIAN_POINT('',(0.124078440134877,-2.00993613814372E-05,-0.0130300972744453));
#90=CARTESIAN_POINT('',(0.243484220093651,-0.000207188863928184,-0.051266361431339));
#91=CARTESIAN_POINT('',(0.358048727258151,-0.000205173909802728,-0.102156493883395));
#92=CARTESIAN_POINT('',(0.448646717873609,-0.000250054804017976,-0.154139358338968));
#93=CARTESIAN_POINT('',(0.517804992124224,-0.000278049215354379,-0.200895650271232));
#94=CARTESIAN_POINT('',(0.567918302879057,-0.000306137613626941,-0.238429697033682));
#95=CARTESIAN_POINT('',(0.616132305564459,-0.000339135023795995,-0.278374426715008));
#96=CARTESIAN_POINT('',(0.662337970288559,-0.000367157862629034,-0.320625959631467));
#97=CARTESIAN_POINT('',(0.699075619844643,-0.000374810407575668,-0.357675634098789));
#98=CARTESIAN_POINT('',(0.727354797203178,-0.000394102480408485,-0.388364360672378));
#99=CARTESIAN_POINT('',(0.747993347506076,-0.00042073917399761,-0.411894330105083));
#100=CARTESIAN_POINT('',(0.768062321903267,-0.000464921327992406,-0.435910614414113));
#101=CARTESIAN_POINT('',(0.784262991081711,-0.000496673542638334,-0.456355560610315));
#102=CARTESIAN_POINT('',(0.796997023739725,-0.000507837201639864,-0.472873008100681));
#103=CARTESIAN_POINT('',(0.804675000809451,-0.000505523813570399,-0.483441982449062));
#104=CARTESIAN_POINT('',(0.811066653415268,-0.000497419597956636,-0.491637284393889));
#105=CARTESIAN_POINT('',(0.815258972809677,-0.000487636240845781,-0.498362298154709));
#106=CARTESIAN_POINT('',(0.820059859500633,-0.00047331271675403,-0.504455213561646));
#107=CARTESIAN_POINT('',(0.824595159082176,-0.000461044810945563,-0.507325815017862));
#108=CARTESIAN_POINT('',(0.826776683330536,-0.000455088767921552,-0.508755028247833));
#109=CARTESIAN_POINT('',(0.824480414390564,0.0995620042085648,-0.510479390621185));
#110=CARTESIAN_POINT('',(0.826776683330536,-0.000455088767921552,-0.508755028247833));
#111=CARTESIAN_POINT('',(0.826768511528309,0.00791029469217683,-0.508770656593109));
#112=CARTESIAN_POINT('',(0.826760107110096,0.0246424091879103,-0.50879658471662));
#113=CARTESIAN_POINT('',(0.826707088151715,0.0455508578199623,-0.508856138766805));
#114=CARTESIAN_POINT('',(0.826747941752823,0.0622915606194434,-0.508842278672568));
#115=CARTESIAN_POINT('',(0.82663208423745,0.072728531527025,-0.508934391437408));
#116=CARTESIAN_POINT('',(0.826705685742268,0.0811093677739055,-0.508891953317821));
#117=CARTESIAN_POINT('',(0.827187902582536,0.0895392611435816,-0.508562143707545));
#118=CARTESIAN_POINT('',(0.825612961218617,0.0956161704209176,-0.50967769163339));
#119=CARTESIAN_POINT('',(0.824480414390564,0.0995620042085648,-0.510479390621185));
#120=CARTESIAN_POINT('',(0.000960610865149647,0.100045159459114,0.00865383539348841));
#121=CARTESIAN_POINT('',(0.824480414390564,0.0995620042085648,-0.510479390621185));
#122=CARTESIAN_POINT('',(0.800372387211786,0.0995552153891925,-0.476458183330936));
#123=CARTESIAN_POINT('',(0.749396157451308,0.0996392783710031,-0.410347255012347));
#124=CARTESIAN_POINT('',(0.663257047990033,0.0997144921072276,-0.319413390319984));
#125=CARTESIAN_POINT('',(0.568756156462618,0.0997938088624305,-0.237235892803094));
#126=CARTESIAN_POINT('',(0.466680934552377,0.0998635764691498,-0.164668944665079));
#127=CARTESIAN_POINT('',(0.358014641980458,0.0999527472811186,-0.102392634689184));
#128=CARTESIAN_POINT('',(0.243509837554925,0.10000109046408,-0.0516000688274649));
#129=CARTESIAN_POINT('',(0.144066640163071,0.100067410226291,-0.019795199179078));
#130=CARTESIAN_POINT('',(0.0627294539781797,0.100079488183735,-0.0012426053643282));
#131=CARTESIAN_POINT('',(0.0216090644902728,0.1002284325126,0.00577848056569591));
#132=CARTESIAN_POINT('',(0.000960610865149647,0.100045159459114,0.00865383539348841));
#133=CARTESIAN_POINT('',(0.000480305432574823,0.0950322449207306,0.0043269176967442));
#134=VECTOR('',#137,1.0);
#135=DIRECTION('',(-0.0,-1.0,-0.0));
#136=DIRECTION('',(0.0562813897434448,-0.741780799238231,0.66827662764011));
#137=DIRECTION('',(-0.072341208397995,-0.755020182383729,-0.651698759980989));
ENDSEC;
END-ISO-10303-21;
