ISO-10303-21;
HEADER;
FILE_DESCRIPTION(('STEP AP214'),'1');
FILE_NAME('SMAStripDeformed_11.stp','2026-05-05T15:55:37',(' '),(' '),'Spatial InterOp 3D',' ',' ');
FILE_SCHEMA(('AUTOMOTIVE_DESIGN { 1 0 10303 214 1 1 1 1 }'));
ENDSEC;
DATA;
#1=PRODUCT_DEFINITION_CONTEXT('',#9,'design');
#2=APPLICATION_PROTOCOL_DEFINITION('INTERNATIONAL STANDARD','automotive_design',1994,#9);
#3=PRODUCT_CATEGORY_RELATIONSHIP('NONE','NONE',#10,#11);
#4=SHAPE_DEFINITION_REPRESENTATION(#12,#13);
#5= (GEOMETRIC_REPRESENTATION_CONTEXT(3)GLOBAL_UNCERTAINTY_ASSIGNED_CONTEXT((#16))GLOBAL_UNIT_ASSIGNED_CONTEXT((#18,#19,#20))REPRESENTATION_CONTEXT('NONE','WORKSPACE'));
#9=APPLICATION_CONTEXT(' ');
#10=PRODUCT_CATEGORY('part','NONE');
#11=PRODUCT_RELATED_PRODUCT_CATEGORY('detail',' ',(#22));
#12=PRODUCT_DEFINITION_SHAPE('NONE','NONE',#23);
#13=MANIFOLD_SURFACE_SHAPE_REPRESENTATION('1',(#24,#25),#5);
#16=UNCERTAINTY_MEASURE_WITH_UNIT(LENGTH_MEASURE(1.0E-06),#18,'','');
#18= (CONVERSION_BASED_UNIT('MILLIMETRE',#28)LENGTH_UNIT()NAMED_UNIT(#31));
#19= (NAMED_UNIT(#33)PLANE_ANGLE_UNIT()SI_UNIT($,.RADIAN.));
#20= (NAMED_UNIT(#33)SOLID_ANGLE_UNIT()SI_UNIT($,.STERADIAN.));
#22=PRODUCT('1','','PART--DESC',(#39));
#23=PRODUCT_DEFINITION('','NONE',#40,#1);
#24=SHELL_BASED_SURFACE_MODEL('1',(#41));
#25=AXIS2_PLACEMENT_3D('',#42,#43,#44);
#28=LENGTH_MEASURE_WITH_UNIT(LENGTH_MEASURE(1.0),#45);
#31=DIMENSIONAL_EXPONENTS(1.0,0.0,0.0,0.0,0.0,0.0,0.0);
#33=DIMENSIONAL_EXPONENTS(0.0,0.0,0.0,0.0,0.0,0.0,0.0);
#39=PRODUCT_CONTEXT('',#9,'mechanical');
#40=PRODUCT_DEFINITION_FORMATION_WITH_SPECIFIED_SOURCE(' ','NONE',#22,.NOT_KNOWN.);
#41=CLOSED_SHELL('',(#46));
#42=CARTESIAN_POINT('',(0.0,0.0,0.0));
#43=DIRECTION('',(0.0,0.0,1.0));
#44=DIRECTION('',(1.0,0.0,0.0));
#45= (NAMED_UNIT(#31)LENGTH_UNIT()SI_UNIT(.MILLI.,.METRE.));
#46=FACE_SURFACE('',(#48),#49,.T.);
#48=FACE_BOUND('',#50,.T.);
#49=CYLINDRICAL_SURFACE('',#51,1.18729846283128);
#50=EDGE_LOOP('',(#52,#53,#54,#55,#56,#57));
#51=AXIS2_PLACEMENT_3D('',#58,#59,#60);
#52=ORIENTED_EDGE('',*,*,#61,.T.);
#53=ORIENTED_EDGE('',*,*,#62,.T.);
#54=ORIENTED_EDGE('',*,*,#63,.T.);
#55=ORIENTED_EDGE('',*,*,#64,.T.);
#56=ORIENTED_EDGE('',*,*,#65,.T.);
#57=ORIENTED_EDGE('',*,*,#66,.T.);
#58=CARTESIAN_POINT('',(-0.267152157132728,-0.00642058741094741,-1.1429027163767));
#59=DIRECTION('',(-0.00427388435130344,-0.999968976571558,0.00661663109007716));
#60=DIRECTION('',(0.0,0.00661669152088609,0.999978109457061));
#61=EDGE_CURVE('',#67,#68,#69,.T.);
#62=EDGE_CURVE('',#68,#70,#71,.T.);
#63=EDGE_CURVE('',#70,#72,#73,.T.);
#64=EDGE_CURVE('',#72,#74,#75,.T.);
#65=EDGE_CURVE('',#74,#76,#77,.T.);
#66=EDGE_CURVE('',#76,#67,#78,.T.);
#67=VERTEX_POINT('',#79);
#68=VERTEX_POINT('',#80);
#69=LINE('',#81,#82);
#70=VERTEX_POINT('',#83);
#71=LINE('',#84,#85);
#72=VERTEX_POINT('',#86);
#73=LINE('',#87,#88);
#74=VERTEX_POINT('',#89);
#75=B_SPLINE_CURVE_WITH_KNOTS('',3,(#90,#91,#92,#93,#94,#95,#96,#97,#98,#99,#100,#101,#102,#103,#104,#105,#106,#107,#108,#109,#110,#111),.UNSPECIFIED.,.F.,.F.,(4,1,1,1,1,1,1,1,1,1,1,1,1,1,1,1,1,1,1,4),(0.0,0.125145575014707,0.250291150029415,0.375436725044122,0.50058230005883,0.563155087566183,0.625727875073537,0.688300662580891,0.750873450088245,0.813446237595598,0.844732631349275,0.876019025102952,0.907305418856629,0.938591812610306,0.954235009487144,0.969878206363982,0.977699804802402,0.985521403240821,0.99334300167924,1.00116460011766),.UNSPECIFIED.);
#76=VERTEX_POINT('',#112);
#77=LINE('',#113,#114);
#78=B_SPLINE_CURVE_WITH_KNOTS('',3,(#115,#116,#117,#118,#119,#120,#121,#122,#123,#124,#125,#126,#127,#128,#129,#130,#131,#132,#133,#134,#135,#136,#137,#138,#139,#140,#141,#142,#143,#144,#145,#146,#147),.UNSPECIFIED.,.F.,.F.,(4,1,1,1,1,1,1,1,1,1,1,1,1,1,1,1,1,1,1,1,1,1,1,1,1,1,1,1,1,1,4),(0.0,0.00782317005094681,0.0156463401018936,0.0234695101528404,0.0312926802037873,0.0469390203056809,0.0625853604075745,0.0938780406113618,0.125170720815149,0.156463401018936,0.187756081222724,0.250341441630298,0.312926802037873,0.375512162445447,0.438097522853022,0.500682883260596,0.563268243668171,0.625853604075745,0.68843896448332,0.751024324890894,0.813609685298469,0.844902365502256,0.876195045706043,0.90748772590983,0.938780406113618,0.954426746215511,0.970073086317405,0.977896256368352,0.985719426419299,0.993542596470245,1.00136576652119),.UNSPECIFIED.);
#79=CARTESIAN_POINT('',(0.000960610865149647,0.100045159459114,0.00865383539348841));
#80=CARTESIAN_POINT('',(-6.887024873506E-34,0.0900193303823471,-4.16348849212975E-34));
#81=CARTESIAN_POINT('',(0.000480305432574823,0.0950322449207306,0.0043269176967442));
#82=VECTOR('',#148,1.0);
#83=CARTESIAN_POINT('',(-3.4428156349259E-34,0.0099946167320013,-3.77068649372042E-34));
#84=CARTESIAN_POINT('',(-1.47307281203161E-34,0.0500069735571742,-1.14321417392275E-35));
#85=VECTOR('',#149,1.0);
#86=CARTESIAN_POINT('',(0.00138621393125504,-4.5114411477698E-06,0.0122873159125447));
#87=CARTESIAN_POINT('',(0.000693106965627521,0.00499505264542677,0.00614365795627236));
#88=VECTOR('',#150,1.0);
#89=CARTESIAN_POINT('',(0.780097901821136,-0.00106979138217866,-0.571112811565399));
#90=CARTESIAN_POINT('',(0.00138621393125504,-4.5114411477698E-06,0.0122873159125447));
#91=CARTESIAN_POINT('',(0.042201490536509,-0.000525427848841671,0.0036850454024669));
#92=CARTESIAN_POINT('',(0.122826538464726,-3.2875114304644E-05,-0.0183324203737247));
#93=CARTESIAN_POINT('',(0.239030532145664,-0.000331928854659999,-0.0653462995789029));
#94=CARTESIAN_POINT('',(0.349282029907366,-0.000370768746639451,-0.12494081128663));
#95=CARTESIAN_POINT('',(0.435385269965845,-0.000481771131387066,-0.184037496125147));
#96=CARTESIAN_POINT('',(0.500252201760589,-0.000568734011370119,-0.236552603157429));
#97=CARTESIAN_POINT('',(0.546750652349524,-0.000637250497759278,-0.278456566490931));
#98=CARTESIAN_POINT('',(0.590986174012128,-0.000721059848135255,-0.322744787414165));
#99=CARTESIAN_POINT('',(0.632782413731559,-0.000782077301006571,-0.369338285236745));
#100=CARTESIAN_POINT('',(0.665730402890973,-0.000833652981027679,-0.409771326458726));
#101=CARTESIAN_POINT('',(0.691003289144823,-0.000881259584344132,-0.442962210164561));
#102=CARTESIAN_POINT('',(0.709423952796393,-0.000929020218808992,-0.468253321776992));
#103=CARTESIAN_POINT('',(0.727323187550771,-0.000990192253293385,-0.493914559021831));
#104=CARTESIAN_POINT('',(0.741759259024923,-0.00103896147500259,-0.51563140543561));
#105=CARTESIAN_POINT('',(0.753118926393955,-0.00106808349829802,-0.5331139376974));
#106=CARTESIAN_POINT('',(0.759941234061678,-0.00108402660895694,-0.544250655839773));
#107=CARTESIAN_POINT('',(0.76568126984058,-0.00108790564539526,-0.552909150883597));
#108=CARTESIAN_POINT('',(0.769337697646505,-0.00109831119126557,-0.559942720348191));
#109=CARTESIAN_POINT('',(0.773704016407828,-0.00109806847549374,-0.566344292037902));
#110=CARTESIAN_POINT('',(0.778024517435443,-0.00107875539528173,-0.569532151588871));
#111=CARTESIAN_POINT('',(0.780097901821136,-0.00106979138217866,-0.571112811565399));
#112=CARTESIAN_POINT('',(0.780150890350342,0.098836213350296,-0.571318507194519));
#113=CARTESIAN_POINT('',(0.780042439699173,0.0488832109840587,-0.571237832307816));
#114=VECTOR('',#151,1.0);
#115=CARTESIAN_POINT('',(0.780150890350342,0.098836213350296,-0.571318507194519));
#116=CARTESIAN_POINT('',(0.778069502733149,0.0988437222867596,-0.569747523338889));
#117=CARTESIAN_POINT('',(0.773729143292464,0.0988597751613315,-0.566578055591605));
#118=CARTESIAN_POINT('',(0.769348677226,0.0988658064902408,-0.56018793635659));
#119=CARTESIAN_POINT('',(0.765697869646843,0.0988678356195453,-0.553145870159614));
#120=CARTESIAN_POINT('',(0.759952080807134,0.0988825471540238,-0.544489904748034));
#121=CARTESIAN_POINT('',(0.753126308633851,0.0988998837975918,-0.533351579265701));
#122=CARTESIAN_POINT('',(0.741757458281232,0.0989369196339506,-0.51587028185392));
#123=CARTESIAN_POINT('',(0.727309365678935,0.0989888377322508,-0.494155058408271));
#124=CARTESIAN_POINT('',(0.709403379896758,0.0990561066888852,-0.468490969905874));
#125=CARTESIAN_POINT('',(0.690975564612542,0.0991171424833702,-0.443197215999894));
#126=CARTESIAN_POINT('',(0.665691031319199,0.0991902899958286,-0.410005166328365));
#127=CARTESIAN_POINT('',(0.632793821407183,0.0992926268034976,-0.369516603632147));
#128=CARTESIAN_POINT('',(0.590913526685003,0.0993772900618498,-0.322979995316145));
#129=CARTESIAN_POINT('',(0.546667171489485,0.0994597972024332,-0.278686787374178));
#130=CARTESIAN_POINT('',(0.500145360263636,0.0995390597207897,-0.236789269477723));
#131=CARTESIAN_POINT('',(0.451478246462373,0.0996193085401171,-0.197404028649006));
#132=CARTESIAN_POINT('',(0.400796106863212,0.0997016743193207,-0.16064826728271));
#133=CARTESIAN_POINT('',(0.348250285589769,0.0997822777742722,-0.126610060195617));
#134=CARTESIAN_POINT('',(0.29397493682683,0.0998545733316579,-0.0954019543233098));
#135=CARTESIAN_POINT('',(0.238082994519899,0.0999217773431293,-0.0671885245927944));
#136=CARTESIAN_POINT('',(0.190269125793429,0.0999826730557915,-0.046304935897746));
#137=CARTESIAN_POINT('',(0.151349125737913,0.10002631053446,-0.0312572001168318));
#138=CARTESIAN_POINT('',(0.121845490053805,0.100055345101944,-0.0208149337355094));
#139=CARTESIAN_POINT('',(0.0920490106921135,0.100079752445957,-0.0112540676123985));
#140=CARTESIAN_POINT('',(0.0669969508192711,0.100116885469911,-0.00397032759842142));
#141=CARTESIAN_POINT('',(0.0468290652764782,0.100178685851512,0.00129987323013027));
#142=CARTESIAN_POINT('',(0.0341866377556715,0.100205501944063,0.00464967752170068));
#143=CARTESIAN_POINT('',(0.0240241532578201,0.100188643734463,0.00671226612157379));
#144=CARTESIAN_POINT('',(0.0164219216957756,0.100187902230995,0.00907126314183561));
#145=CARTESIAN_POINT('',(0.00879422688817246,0.100155757341241,0.0103755456163384));
#146=CARTESIAN_POINT('',(0.0035137153678527,0.10008043816166,0.00918358428041998));
#147=CARTESIAN_POINT('',(0.000960610865149647,0.100045159459114,0.00865383539348841));
#148=DIRECTION('',(-0.072341208397995,-0.755020182383729,-0.651698759980989));
#149=DIRECTION('',(-0.0,-1.0,-0.0));
#150=DIRECTION('',(0.0874036322200328,-0.626295093631639,0.774670937087278));
#151=DIRECTION('',(0.00055081351951488,0.999997751434276,-0.00204786006807763));
ENDSEC;
END-ISO-10303-21;
