ISO-10303-21;
HEADER;
FILE_DESCRIPTION(('STEP AP214'),'1');
FILE_NAME('SMAStripDeformed_03.stp','2026-05-05T15:46:48',(' '),(' '),'Spatial InterOp 3D',' ',' ');
FILE_SCHEMA(('AUTOMOTIVE_DESIGN { 1 0 10303 214 1 1 1 1 }'));
ENDSEC;
DATA;
#1=PRODUCT_DEFINITION_CONTEXT('',#9,'design');
#2=APPLICATION_PROTOCOL_DEFINITION('INTERNATIONAL STANDARD','automotive_design',1994,#9);
#3=PRODUCT_CATEGORY_RELATIONSHIP('NONE','NONE',#10,#11);
#4=SHAPE_DEFINITION_REPRESENTATION(#12,#13);
#5= (GEOMETRIC_REPRESENTATION_CONTEXT(3)GLOBAL_UNCERTAINTY_ASSIGNED_CONTEXT((#16))GLOBAL_UNIT_ASSIGNED_CONTEXT((#18,#19,#20))REPRESENTATION_CONTEXT('NONE','WORKSPACE'));
#9=APPLICATION_CONTEXT(' ');
#10=PRODUCT_CATEGORY('part','NONE');
#11=PRODUCT_RELATED_PRODUCT_CATEGORY('detail',' ',(#22));
#12=PRODUCT_DEFINITION_SHAPE('NONE','NONE',#23);
#13=MANIFOLD_SURFACE_SHAPE_REPRESENTATION('1',(#24,#25),#5);
#16=UNCERTAINTY_MEASURE_WITH_UNIT(LENGTH_MEASURE(1.0E-06),#18,'','');
#18= (CONVERSION_BASED_UNIT('MILLIMETRE',#28)LENGTH_UNIT()NAMED_UNIT(#31));
#19= (NAMED_UNIT(#33)PLANE_ANGLE_UNIT()SI_UNIT($,.RADIAN.));
#20= (NAMED_UNIT(#33)SOLID_ANGLE_UNIT()SI_UNIT($,.STERADIAN.));
#22=PRODUCT('1','','PART--DESC',(#39));
#23=PRODUCT_DEFINITION('','NONE',#40,#1);
#24=SHELL_BASED_SURFACE_MODEL('1',(#41));
#25=AXIS2_PLACEMENT_3D('',#42,#43,#44);
#28=LENGTH_MEASURE_WITH_UNIT(LENGTH_MEASURE(1.0),#45);
#31=DIMENSIONAL_EXPONENTS(1.0,0.0,0.0,0.0,0.0,0.0,0.0);
#33=DIMENSIONAL_EXPONENTS(0.0,0.0,0.0,0.0,0.0,0.0,0.0);
#39=PRODUCT_CONTEXT('',#9,'mechanical');
#40=PRODUCT_DEFINITION_FORMATION_WITH_SPECIFIED_SOURCE(' ','NONE',#22,.NOT_KNOWN.);
#41=CLOSED_SHELL('',(#46));
#42=CARTESIAN_POINT('',(0.0,0.0,0.0));
#43=DIRECTION('',(0.0,0.0,1.0));
#44=DIRECTION('',(1.0,0.0,0.0));
#45= (NAMED_UNIT(#31)LENGTH_UNIT()SI_UNIT(.MILLI.,.METRE.));
#46=FACE_SURFACE('',(#48),#49,.T.);
#48=FACE_BOUND('',#50,.T.);
#49=CYLINDRICAL_SURFACE('',#51,1.91891164165284);
#50=EDGE_LOOP('',(#52,#53,#54,#55,#56));
#51=AXIS2_PLACEMENT_3D('',#57,#58,#59);
#52=ORIENTED_EDGE('',*,*,#60,.T.);
#53=ORIENTED_EDGE('',*,*,#61,.T.);
#54=ORIENTED_EDGE('',*,*,#62,.T.);
#55=ORIENTED_EDGE('',*,*,#63,.T.);
#56=ORIENTED_EDGE('',*,*,#64,.T.);
#57=CARTESIAN_POINT('',(-0.0596446032793087,-0.000357250966887702,-1.91594587957604));
#58=DIRECTION('',(0.000593869811847214,0.999999802657168,-0.000204949435267062));
#59=DIRECTION('',(0.0,-0.000204949471407993,-0.999999978997857));
#60=EDGE_CURVE('',#65,#66,#67,.T.);
#61=EDGE_CURVE('',#66,#68,#69,.T.);
#62=EDGE_CURVE('',#68,#70,#71,.T.);
#63=EDGE_CURVE('',#70,#72,#73,.T.);
#64=EDGE_CURVE('',#72,#65,#74,.T.);
#65=VERTEX_POINT('',#75);
#66=VERTEX_POINT('',#76);
#67=LINE('',#77,#78);
#68=VERTEX_POINT('',#79);
#69=LINE('',#80,#81);
#70=VERTEX_POINT('',#82);
#71=B_SPLINE_CURVE_WITH_KNOTS('',3,(#83,#84,#85,#86,#87,#88,#89,#90,#91,#92,#93,#94,#95,#96,#97,#98,#99,#100),.UNSPECIFIED.,.F.,.F.,(4,1,1,1,1,1,1,1,1,1,1,1,1,1,1,4),(0.0,0.125091216453794,0.250182432907588,0.375273649361382,0.500364865815176,0.62545608226897,0.688001690495867,0.750547298722764,0.813092906949661,0.875638515176558,0.906911319290007,0.938184123403455,0.969456927516904,0.985093329573628,0.99291153060199,1.00072973163035),.UNSPECIFIED.);
#72=VERTEX_POINT('',#101);
#73=CIRCLE('',#102,19.3131286472357);
#74=B_SPLINE_CURVE_WITH_KNOTS('',3,(#103,#104,#105,#106,#107,#108,#109,#110,#111,#112,#113,#114,#115,#116,#117,#118,#119,#120,#121,#122,#123,#124,#125),.UNSPECIFIED.,.F.,.F.,(4,1,1,1,1,1,1,1,1,1,1,1,1,1,1,1,1,1,1,1,4),(0.0,0.00781832020503391,0.0156366404100678,0.0312732808201356,0.0625465616402713,0.0938198424604069,0.125093123280543,0.187639684920814,0.250186246561085,0.312732808201356,0.375279369841628,0.50037249312217,0.625465616402713,0.750558739683255,0.813105301323527,0.875651862963798,0.906925143783933,0.938198424604069,0.969471705424205,0.985108345834272,1.00074498624434),.UNSPECIFIED.);
#75=CARTESIAN_POINT('',(-1.22799797747586E-36,0.100022420287132,9.91542089878546E-38));
#76=CARTESIAN_POINT('',(-3.19456615130036E-34,0.0099946167320013,-2.37559762996129E-34));
#77=CARTESIAN_POINT('',(1.13522264904709E-34,0.0550085185095668,5.49478864984628E-35));
#78=VECTOR('',#126,1.0);
#79=CARTESIAN_POINT('',(8.58341354614822E-06,-2.25666044570971E-05,0.000595952209550887));
#80=CARTESIAN_POINT('',(4.29170677307411E-06,0.0049860250637721,0.000297976104775444));
#81=VECTOR('',#127,1.0);
#82=CARTESIAN_POINT('',(0.948698997497559,-1.9947845430579E-05,-0.281105607748032));
#83=CARTESIAN_POINT('',(8.58341354614822E-06,-2.25666044570971E-05,0.000595952209550887));
#84=CARTESIAN_POINT('',(0.0416994527418643,-7.98458196925188E-05,-0.000120957637205387));
#85=CARTESIAN_POINT('',(0.125028236249957,-2.37122709730194E-05,-0.00459951782825198));
#86=CARTESIAN_POINT('',(0.249211639315268,-4.86296251688199E-05,-0.0202888564936707));
#87=CARTESIAN_POINT('',(0.371987156940178,-4.26421446373548E-05,-0.0446318237859487));
#88=CARTESIAN_POINT('',(0.492833410103962,-4.28012693529585E-05,-0.0772091296719027));
#89=CARTESIAN_POINT('',(0.591553120920341,-3.97095687550654E-05,-0.110854882479769));
#90=CARTESIAN_POINT('',(0.669146912912131,-3.67675732032798E-05,-0.141439962818552));
#91=CARTESIAN_POINT('',(0.72661026684227,-3.40343287532621E-05,-0.166154898302831));
#92=CARTESIAN_POINT('',(0.783304999964659,-3.09309693702201E-05,-0.192584799333212));
#93=CARTESIAN_POINT('',(0.829879460688977,-2.79421070071824E-05,-0.215994772776771));
#94=CARTESIAN_POINT('',(0.866727727931675,-2.53781109006508E-05,-0.235512450991605));
#95=CARTESIAN_POINT('',(0.894139428016782,-2.33086478211578E-05,-0.250567836293849));
#96=CARTESIAN_POINT('',(0.916845531755874,-2.17067476663284E-05,-0.263354938823308));
#97=CARTESIAN_POINT('',(0.932558917958823,-1.98298538542044E-05,-0.272634384553373));
#98=CARTESIAN_POINT('',(0.941572482663028,-1.87233960899137E-05,-0.277862796359023));
#99=CARTESIAN_POINT('',(0.946331234614493,-1.95686647998088E-05,-0.280016900237466));
#100=CARTESIAN_POINT('',(0.948698997497559,-1.9947845430579E-05,-0.281105607748032));
#101=CARTESIAN_POINT('',(0.948698937892914,0.100027486681938,-0.281102776527405));
#102=AXIS2_PLACEMENT_3D('',#128,#129,#130);
#103=CARTESIAN_POINT('',(0.948698937892914,0.100027486681938,-0.281102776527405));
#104=CARTESIAN_POINT('',(0.946331314565603,0.100026942345044,-0.280013670564726));
#105=CARTESIAN_POINT('',(0.94157288844333,0.100025752431596,-0.277858743019381));
#106=CARTESIAN_POINT('',(0.932559034975274,0.100026638929372,-0.272630508496912));
#107=CARTESIAN_POINT('',(0.916845316393465,0.10002822376966,-0.263351102768995));
#108=CARTESIAN_POINT('',(0.894138732925037,0.100029314927274,-0.250564030684879));
#109=CARTESIAN_POINT('',(0.866726521139158,0.100030851168965,-0.235508591076057));
#110=CARTESIAN_POINT('',(0.829877517514594,0.100032709690263,-0.215990943989162));
#111=CARTESIAN_POINT('',(0.783302217343709,0.100034858736783,-0.19258087408278));
#112=CARTESIAN_POINT('',(0.726606454941498,0.1000370724522,-0.166150920065235));
#113=CARTESIAN_POINT('',(0.669142056036373,0.100038945842503,-0.141435999456047));
#114=CARTESIAN_POINT('',(0.591546968676165,0.100040978115565,-0.110850752442165));
#115=CARTESIAN_POINT('',(0.492825642272431,0.10004267932176,-0.0772047551678132));
#116=CARTESIAN_POINT('',(0.371977654027108,0.100043419756436,-0.0446269653786285));
#117=CARTESIAN_POINT('',(0.269662771732476,0.100042946186951,-0.0243410586412025));
#118=CARTESIAN_POINT('',(0.187108106836207,0.100042002822804,-0.0124381908981024));
#119=CARTESIAN_POINT('',(0.135279375811717,0.100041201122696,-0.00683033420354087));
#120=CARTESIAN_POINT('',(0.0937154213696075,0.100040980410001,-0.00348448597262001));
#121=CARTESIAN_POINT('',(0.0625021576599153,0.100040781439183,-0.00148638621297171));
#122=CARTESIAN_POINT('',(0.036466015609624,0.100039998980686,-0.00044963007987076));
#123=CARTESIAN_POINT('',(0.0156271920822655,0.100036506549972,0.000471302061843949));
#124=CARTESIAN_POINT('',(0.00520323467495744,0.100029263732472,0.000305730832042861));
#125=CARTESIAN_POINT('',(-1.22799797747586E-36,0.100022420287132,9.91542089878546E-38));
#126=DIRECTION('',(-0.0,-1.0,-0.0));
#127=DIRECTION('',(0.000855356260579451,-0.998234610757725,0.0593879638566707));
#128=CARTESIAN_POINT('',(0.948702520127947,0.0505487374458232,-19.5941681843766));
#129=DIRECTION('',(-0.999999999999515,-6.40364302077429E-07,7.48084165325562E-07));
#130=DIRECTION('',(6.40364302077609E-07,-0.999999999999795,-6.56187764213624E-29));
ENDSEC;
END-ISO-10303-21;
