ISO-10303-21;
HEADER;
FILE_DESCRIPTION(('STEP AP214'),'1');
FILE_NAME('SMAStripDeformed_07.stp','2026-05-05T15:50:48',(' '),(' '),'Spatial InterOp 3D',' ',' ');
FILE_SCHEMA(('AUTOMOTIVE_DESIGN { 1 0 10303 214 1 1 1 1 }'));
ENDSEC;
DATA;
#1=PRODUCT_DEFINITION_CONTEXT('',#9,'design');
#2=APPLICATION_PROTOCOL_DEFINITION('INTERNATIONAL STANDARD','automotive_design',1994,#9);
#3=PRODUCT_CATEGORY_RELATIONSHIP('NONE','NONE',#10,#11);
#4=SHAPE_DEFINITION_REPRESENTATION(#12,#13);
#5= (GEOMETRIC_REPRESENTATION_CONTEXT(3)GLOBAL_UNCERTAINTY_ASSIGNED_CONTEXT((#16))GLOBAL_UNIT_ASSIGNED_CONTEXT((#18,#19,#20))REPRESENTATION_CONTEXT('NONE','WORKSPACE'));
#9=APPLICATION_CONTEXT(' ');
#10=PRODUCT_CATEGORY('part','NONE');
#11=PRODUCT_RELATED_PRODUCT_CATEGORY('detail',' ',(#22));
#12=PRODUCT_DEFINITION_SHAPE('NONE','NONE',#23);
#13=MANIFOLD_SURFACE_SHAPE_REPRESENTATION('1',(#24,#25),#5);
#16=UNCERTAINTY_MEASURE_WITH_UNIT(LENGTH_MEASURE(1.0E-06),#18,'','');
#18= (CONVERSION_BASED_UNIT('MILLIMETRE',#28)LENGTH_UNIT()NAMED_UNIT(#31));
#19= (NAMED_UNIT(#33)PLANE_ANGLE_UNIT()SI_UNIT($,.RADIAN.));
#20= (NAMED_UNIT(#33)SOLID_ANGLE_UNIT()SI_UNIT($,.STERADIAN.));
#22=PRODUCT('1','','PART--DESC',(#39));
#23=PRODUCT_DEFINITION('','NONE',#40,#1);
#24=SHELL_BASED_SURFACE_MODEL('1',(#41));
#25=AXIS2_PLACEMENT_3D('',#42,#43,#44);
#28=LENGTH_MEASURE_WITH_UNIT(LENGTH_MEASURE(1.0),#45);
#31=DIMENSIONAL_EXPONENTS(1.0,0.0,0.0,0.0,0.0,0.0,0.0);
#33=DIMENSIONAL_EXPONENTS(0.0,0.0,0.0,0.0,0.0,0.0,0.0);
#39=PRODUCT_CONTEXT('',#9,'mechanical');
#40=PRODUCT_DEFINITION_FORMATION_WITH_SPECIFIED_SOURCE(' ','NONE',#22,.NOT_KNOWN.);
#41=CLOSED_SHELL('',(#46));
#42=CARTESIAN_POINT('',(0.0,0.0,0.0));
#43=DIRECTION('',(0.0,0.0,1.0));
#44=DIRECTION('',(1.0,0.0,0.0));
#45= (NAMED_UNIT(#31)LENGTH_UNIT()SI_UNIT(.MILLI.,.METRE.));
#46=FACE_SURFACE('',(#48),#49,.T.);
#48=FACE_BOUND('',#50,.T.);
#49=CYLINDRICAL_SURFACE('',#51,1.28120543611332);
#50=EDGE_LOOP('',(#52,#53,#54,#55,#56,#57,#58,#59,#60));
#51=AXIS2_PLACEMENT_3D('',#61,#62,#63);
#52=ORIENTED_EDGE('',*,*,#64,.T.);
#53=ORIENTED_EDGE('',*,*,#65,.T.);
#54=ORIENTED_EDGE('',*,*,#66,.T.);
#55=ORIENTED_EDGE('',*,*,#67,.T.);
#56=ORIENTED_EDGE('',*,*,#68,.T.);
#57=ORIENTED_EDGE('',*,*,#69,.T.);
#58=ORIENTED_EDGE('',*,*,#70,.T.);
#59=ORIENTED_EDGE('',*,*,#71,.T.);
#60=ORIENTED_EDGE('',*,*,#72,.T.);
#61=CARTESIAN_POINT('',(-0.171395983262514,-0.00424275043886952,-1.26056130246949));
#62=DIRECTION('',(-0.0057209022242006,-0.999975050872124,0.00414353846779063));
#63=DIRECTION('',(3.87298676400985E-21,0.00414360627581493,0.999991415226666));
#64=EDGE_CURVE('',#73,#74,#75,.T.);
#65=EDGE_CURVE('',#74,#76,#77,.T.);
#66=EDGE_CURVE('',#76,#78,#79,.T.);
#67=EDGE_CURVE('',#78,#80,#81,.T.);
#68=EDGE_CURVE('',#80,#82,#83,.T.);
#69=EDGE_CURVE('',#82,#84,#85,.T.);
#70=EDGE_CURVE('',#84,#86,#87,.T.);
#71=EDGE_CURVE('',#86,#88,#89,.T.);
#72=EDGE_CURVE('',#88,#73,#90,.T.);
#73=VERTEX_POINT('',#91);
#74=VERTEX_POINT('',#92);
#75=LINE('',#93,#94);
#76=VERTEX_POINT('',#95);
#77=LINE('',#96,#97);
#78=VERTEX_POINT('',#98);
#79=LINE('',#99,#100);
#80=VERTEX_POINT('',#101);
#81=B_SPLINE_CURVE_WITH_KNOTS('',3,(#102,#103,#104,#105,#106,#107,#108,#109,#110,#111,#112,#113,#114,#115,#116,#117,#118,#119,#120,#121),.UNSPECIFIED.,.F.,.F.,(4,1,1,1,1,1,1,1,1,1,1,1,1,1,1,1,1,4),(0.0,0.125144970135036,0.250289940270071,0.375434910405107,0.500579880540142,0.625724850675178,0.688297335742695,0.750869820810213,0.813442305877731,0.84472854841149,0.876014790945249,0.907301033479008,0.938587276012766,0.969873518546525,0.977695079179965,0.985516639813405,0.993338200446845,1.00115976108028),.UNSPECIFIED.);
#82=VERTEX_POINT('',#122);
#83=LINE('',#123,#124);
#84=VERTEX_POINT('',#125);
#85=LINE('',#126,#127);
#86=VERTEX_POINT('',#128);
#87=LINE('',#129,#130);
#88=VERTEX_POINT('',#131);
#89=LINE('',#132,#133);
#90=B_SPLINE_CURVE_WITH_KNOTS('',3,(#134,#135,#136,#137,#138,#139,#140,#141,#142,#143,#144,#145,#146,#147,#148,#149,#150,#151,#152,#153,#154,#155,#156,#157,#158,#159,#160,#161,#162),.UNSPECIFIED.,.F.,.F.,(4,1,1,1,1,1,1,1,1,1,1,1,1,1,1,1,1,1,1,1,1,1,1,1,1,1,4),(0.0,0.00782677438847164,0.0156535487769433,0.0234803231654149,0.0313070975538865,0.0626141951077731,0.0939212926616596,0.125228390215546,0.187842585323319,0.250456780431092,0.313070975538865,0.375685170646639,0.500913560862185,0.563527755969958,0.626141951077731,0.688756146185504,0.751370341293277,0.81398453640105,0.845291633954937,0.876598731508823,0.90790582906271,0.939212926616596,0.95486647539354,0.970520024170483,0.986173572947426,0.994000347335898,1.00182712172437),.UNSPECIFIED.);
#91=CARTESIAN_POINT('',(6.27567787887529E-05,0.100022800266743,0.00201794854365289));
#92=CARTESIAN_POINT('',(-3.06933169231089E-34,0.0900193303823471,1.84033007841837E-34));
#93=CARTESIAN_POINT('',(3.13783893943764E-05,0.0950210653245449,0.00100897427182645));
#94=VECTOR('',#163,1.0);
#95=CARTESIAN_POINT('',(1.80345089466562E-34,0.0099946167320013,-2.27198492018726E-34));
#96=CARTESIAN_POINT('',(1.79078058084944E-34,0.0500069735571742,1.02272669172969E-34));
#97=VECTOR('',#164,1.0);
#98=CARTESIAN_POINT('',(0.000544708629604429,-2.07821922231233E-05,0.0074341744184494));
#99=CARTESIAN_POINT('',(0.000272354314802215,0.00498691726988909,0.0037170872092247));
#100=VECTOR('',#165,1.0);
#101=CARTESIAN_POINT('',(0.847267150878906,0.000203242321731523,-0.47850039601326));
#102=CARTESIAN_POINT('',(0.000544708629604429,-2.07821922231233E-05,0.0074341744184494));
#103=CARTESIAN_POINT('',(0.0419949918219854,-0.00032767759409724,0.00275226957755805));
#104=CARTESIAN_POINT('',(0.124377530276393,8.85356064463195E-06,-0.0112185678870686));
#105=CARTESIAN_POINT('',(0.244893294891964,-0.00010639075152873,-0.0456133946425424));
#106=CARTESIAN_POINT('',(0.361117810375509,-4.45702205478492E-05,-0.0924599449378334));
#107=CARTESIAN_POINT('',(0.472050921172119,-1.90297202510995E-05,-0.150703860797152));
#108=CARTESIAN_POINT('',(0.559468386342454,2.27405597420596E-05,-0.207781371970078));
#109=CARTESIAN_POINT('',(0.62601180073297,4.54842799987943E-05,-0.258142702316127));
#110=CARTESIAN_POINT('',(0.674109881105126,7.02314455093166E-05,-0.298193052992813));
#111=CARTESIAN_POINT('',(0.712599469021236,0.000107735373091346,-0.333392510990504));
#112=CARTESIAN_POINT('',(0.742383971957098,0.000125424726296582,-0.362603151125969));
#113=CARTESIAN_POINT('',(0.764212444965609,0.000126953474000306,-0.385019377737902));
#114=CARTESIAN_POINT('',(0.785497462618139,0.000111262456650767,-0.407952428317265));
#115=CARTESIAN_POINT('',(0.806308338753477,0.000101369919226738,-0.431313407442571));
#116=CARTESIAN_POINT('',(0.82132713081043,0.000115458849669495,-0.449359134329621));
#117=CARTESIAN_POINT('',(0.831432912561567,0.000141300194999554,-0.461279991494583));
#118=CARTESIAN_POINT('',(0.836149487549989,0.000157613334336831,-0.467555628089147));
#119=CARTESIAN_POINT('',(0.84116908119909,0.000178284750424054,-0.473529445989157));
#120=CARTESIAN_POINT('',(0.845256411220912,0.000194990216089393,-0.476840793245619));
#121=CARTESIAN_POINT('',(0.847267150878906,0.000203242321731523,-0.47850039601326));
#122=CARTESIAN_POINT('',(0.84725034236908,0.0302098672837019,-0.478515475988388));
#123=CARTESIAN_POINT('',(0.847258746623993,0.0152065548027167,-0.478507936000824));
#124=VECTOR('',#166,1.0);
#125=CARTESIAN_POINT('',(0.847238659858704,0.0502142906188965,-0.478525936603546));
#126=CARTESIAN_POINT('',(0.847244501113892,0.0402120789512992,-0.478520706295967));
#127=VECTOR('',#167,1.0);
#128=CARTESIAN_POINT('',(0.847226560115814,0.0702187120914459,-0.478536695241928));
#129=CARTESIAN_POINT('',(0.847232609987259,0.0602165013551712,-0.478531315922737));
#130=VECTOR('',#168,0.999999999999999);
#131=CARTESIAN_POINT('',(0.84720766544342,0.100225351750851,-0.478553473949432));
#132=CARTESIAN_POINT('',(0.847217112779617,0.0852220319211483,-0.47854508459568));
#133=VECTOR('',#169,1.0);
#134=CARTESIAN_POINT('',(0.84720766544342,0.100225351750851,-0.478553473949432));
#135=CARTESIAN_POINT('',(0.845210669810791,0.100223947138997,-0.476874636535527));
#136=CARTESIAN_POINT('',(0.841155094191924,0.100221110584035,-0.473525273263718));
#137=CARTESIAN_POINT('',(0.836141177333987,0.100217190057108,-0.467537265164236));
#138=CARTESIAN_POINT('',(0.831410780388497,0.100213481748334,-0.461268973389767));
#139=CARTESIAN_POINT('',(0.821304487390236,0.100206295195614,-0.449332946968203));
#140=CARTESIAN_POINT('',(0.806268031614263,0.100196841853024,-0.431283177787768));
#141=CARTESIAN_POINT('',(0.785442999894098,0.100186519310536,-0.407906401262316));
#142=CARTESIAN_POINT('',(0.757037845361144,0.10017517853201,-0.377314542956197));
#143=CARTESIAN_POINT('',(0.720187250647539,0.100164557963841,-0.340353132001194));
#144=CARTESIAN_POINT('',(0.67396330265916,0.100152884568666,-0.298092245681982));
#145=CARTESIAN_POINT('',(0.625824553832371,0.10013990569298,-0.258025250517041));
#146=CARTESIAN_POINT('',(0.559223776659745,0.100121564237066,-0.207647714300899));
#147=CARTESIAN_POINT('',(0.489228271099654,0.100107829144095,-0.161976608933289));
#148=CARTESIAN_POINT('',(0.416219530614911,0.100104741050685,-0.121434320333565));
#149=CARTESIAN_POINT('',(0.360039729122802,0.100103416758131,-0.0937432368521933));
#150=CARTESIAN_POINT('',(0.302541536707318,0.100100624890877,-0.0689029072122854));
#151=CARTESIAN_POINT('',(0.243841886677103,0.10009251714551,-0.0470494923392341));
#152=CARTESIAN_POINT('',(0.194034298489905,0.100081208476972,-0.0314375730960363));
#153=CARTESIAN_POINT('',(0.153727023408259,0.100082581066529,-0.0205681650887583));
#154=CARTESIAN_POINT('',(0.123286244388282,0.100092800413145,-0.0132451318724335));
#155=CARTESIAN_POINT('',(0.0926549681284812,0.100111012989985,-0.00674588221276601));
#156=CARTESIAN_POINT('',(0.0669916917709454,0.100120499337193,-0.0020829551564034));
#157=CARTESIAN_POINT('',(0.046383518336898,0.100118500491436,0.00132277220700518));
#158=CARTESIAN_POINT('',(0.0309125652674919,0.100105461294158,0.00339825296132285));
#159=CARTESIAN_POINT('',(0.0179210057275542,0.100095444990756,0.00571272536190267));
#160=CARTESIAN_POINT('',(0.00751616766815398,0.100059745955965,0.00459664488287476));
#161=CARTESIAN_POINT('',(0.00253295570998803,0.100034982990941,0.00285726815711196));
#162=CARTESIAN_POINT('',(6.27567787887529E-05,0.100022800266743,0.00201794854365289));
#163=DIRECTION('',(-0.00614950930819778,-0.980235639171968,-0.197737895286646));
#164=DIRECTION('',(-0.0,-1.0,-0.0));
#165=DIRECTION('',(0.0436295144238297,-0.802203174460788,0.595454895316325));
#166=DIRECTION('',(-0.000560159800177399,0.999999716878687,-0.00050245750442838));
#167=DIRECTION('',(-0.000583996178786115,0.999999692754164,-0.000522914945800854));
#168=DIRECTION('',(-0.000604853229216051,0.999999672452929,-0.000537816516087296));
#169=DIRECTION('',(-0.000629881479560343,0.99999964537412,-0.000559017849323797));
ENDSEC;
END-ISO-10303-21;
