ISO-10303-21;
HEADER;
FILE_DESCRIPTION(('STEP AP214'),'1');
FILE_NAME('SMAStripDeformed_10.stp','2026-05-05T15:54:37',(' '),(' '),'Spatial InterOp 3D',' ',' ');
FILE_SCHEMA(('AUTOMOTIVE_DESIGN { 1 0 10303 214 1 1 1 1 }'));
ENDSEC;
DATA;
#1=PRODUCT_DEFINITION_CONTEXT('',#9,'design');
#2=APPLICATION_PROTOCOL_DEFINITION('INTERNATIONAL STANDARD','automotive_design',1994,#9);
#3=PRODUCT_CATEGORY_RELATIONSHIP('NONE','NONE',#10,#11);
#4=SHAPE_DEFINITION_REPRESENTATION(#12,#13);
#5= (GEOMETRIC_REPRESENTATION_CONTEXT(3)GLOBAL_UNCERTAINTY_ASSIGNED_CONTEXT((#16))GLOBAL_UNIT_ASSIGNED_CONTEXT((#18,#19,#20))REPRESENTATION_CONTEXT('NONE','WORKSPACE'));
#9=APPLICATION_CONTEXT(' ');
#10=PRODUCT_CATEGORY('part','NONE');
#11=PRODUCT_RELATED_PRODUCT_CATEGORY('detail',' ',(#22));
#12=PRODUCT_DEFINITION_SHAPE('NONE','NONE',#23);
#13=MANIFOLD_SURFACE_SHAPE_REPRESENTATION('1',(#24,#25),#5);
#16=UNCERTAINTY_MEASURE_WITH_UNIT(LENGTH_MEASURE(1.0E-06),#18,'','');
#18= (CONVERSION_BASED_UNIT('MILLIMETRE',#28)LENGTH_UNIT()NAMED_UNIT(#31));
#19= (NAMED_UNIT(#33)PLANE_ANGLE_UNIT()SI_UNIT($,.RADIAN.));
#20= (NAMED_UNIT(#33)SOLID_ANGLE_UNIT()SI_UNIT($,.STERADIAN.));
#22=PRODUCT('1','','PART--DESC',(#39));
#23=PRODUCT_DEFINITION('','NONE',#40,#1);
#24=SHELL_BASED_SURFACE_MODEL('1',(#41));
#25=AXIS2_PLACEMENT_3D('',#42,#43,#44);
#28=LENGTH_MEASURE_WITH_UNIT(LENGTH_MEASURE(1.0),#45);
#31=DIMENSIONAL_EXPONENTS(1.0,0.0,0.0,0.0,0.0,0.0,0.0);
#33=DIMENSIONAL_EXPONENTS(0.0,0.0,0.0,0.0,0.0,0.0,0.0);
#39=PRODUCT_CONTEXT('',#9,'mechanical');
#40=PRODUCT_DEFINITION_FORMATION_WITH_SPECIFIED_SOURCE(' ','NONE',#22,.NOT_KNOWN.);
#41=CLOSED_SHELL('',(#46));
#42=CARTESIAN_POINT('',(0.0,0.0,0.0));
#43=DIRECTION('',(0.0,0.0,1.0));
#44=DIRECTION('',(1.0,0.0,0.0));
#45= (NAMED_UNIT(#31)LENGTH_UNIT()SI_UNIT(.MILLI.,.METRE.));
#46=FACE_SURFACE('',(#48),#49,.T.);
#48=FACE_BOUND('',#50,.T.);
#49=CYLINDRICAL_SURFACE('',#51,1.18621382512407);
#50=EDGE_LOOP('',(#52,#53,#54,#55,#56,#57));
#51=AXIS2_PLACEMENT_3D('',#58,#59,#60);
#52=ORIENTED_EDGE('',*,*,#61,.T.);
#53=ORIENTED_EDGE('',*,*,#62,.T.);
#54=ORIENTED_EDGE('',*,*,#63,.T.);
#55=ORIENTED_EDGE('',*,*,#64,.T.);
#56=ORIENTED_EDGE('',*,*,#65,.T.);
#57=ORIENTED_EDGE('',*,*,#66,.T.);
#58=CARTESIAN_POINT('',(-0.239826802393953,-0.00408850583467725,-1.14913545128825));
#59=DIRECTION('',(-0.00112665264691848,-0.999992171856701,0.00379300397184575));
#60=DIRECTION('',(0.0,0.00379300637916561,0.999992806525431));
#61=EDGE_CURVE('',#67,#68,#69,.T.);
#62=EDGE_CURVE('',#68,#70,#71,.T.);
#63=EDGE_CURVE('',#70,#72,#73,.T.);
#64=EDGE_CURVE('',#72,#74,#75,.T.);
#65=EDGE_CURVE('',#74,#76,#77,.T.);
#66=EDGE_CURVE('',#76,#67,#78,.T.);
#67=VERTEX_POINT('',#79);
#68=VERTEX_POINT('',#80);
#69=B_SPLINE_CURVE_WITH_KNOTS('',3,(#81,#82,#83,#84,#85,#86,#87,#88,#89,#90,#91,#92,#93,#94,#95,#96,#97,#98,#99,#100,#101),.UNSPECIFIED.,.F.,.F.,(4,1,1,1,1,1,1,1,1,1,1,1,1,1,1,1,1,1,4),(0.0,0.125100711909399,0.250201423818797,0.375302135728196,0.500402847637595,0.625503559546993,0.688053915501692,0.750604271456392,0.813154627411091,0.844429805388441,0.875704983365791,0.90698016134314,0.93825533932049,0.953892928309165,0.969530517297839,0.977349311792177,0.985168106286514,0.992986900780852,1.00080569527519),.UNSPECIFIED.);
#70=VERTEX_POINT('',#102);
#71=LINE('',#103,#104);
#72=VERTEX_POINT('',#105);
#73=LINE('',#106,#107);
#74=VERTEX_POINT('',#108);
#75=LINE('',#109,#110);
#76=VERTEX_POINT('',#111);
#77=B_SPLINE_CURVE_WITH_KNOTS('',3,(#112,#113,#114,#115,#116,#117,#118,#119,#120,#121,#122),.UNSPECIFIED.,.F.,.F.,(4,1,1,1,1,1,1,1,4),(0.0,0.125105654540512,0.250211309081023,0.375316963621535,0.500422618162046,0.625528272702558,0.750633927243069,0.875739581783581,1.00084523632409),.UNSPECIFIED.);
#78=LINE('',#123,#124);
#79=CARTESIAN_POINT('',(0.79022878408432,0.0991389974951744,-0.55630087852478));
#80=CARTESIAN_POINT('',(0.000960610865149647,0.100045159459114,0.00865383539348841));
#81=CARTESIAN_POINT('',(0.79022878408432,0.0991389974951744,-0.55630087852478));
#82=CARTESIAN_POINT('',(0.768155072062236,0.0991473563821053,-0.520922057758216));
#83=CARTESIAN_POINT('',(0.721383240855279,0.0993106406152274,-0.451797051605638));
#84=CARTESIAN_POINT('',(0.642591588869721,0.0994665153284983,-0.354441335577042));
#85=CARTESIAN_POINT('',(0.55406680198434,0.0995950872432345,-0.265794934700774));
#86=CARTESIAN_POINT('',(0.456824910560893,0.0997166410798179,-0.186828195005679));
#87=CARTESIAN_POINT('',(0.369402313357915,0.0998321882778426,-0.129771983055566));
#88=CARTESIAN_POINT('',(0.296155926418164,0.0999058293338728,-0.0898270204435719));
#89=CARTESIAN_POINT('',(0.239674596184495,0.0999576421084645,-0.0628940241678669));
#90=CARTESIAN_POINT('',(0.191430916595935,0.100006381063599,-0.0431005813659567));
#91=CARTESIAN_POINT('',(0.152205672606335,0.100040871426588,-0.028935644699082));
#92=CARTESIAN_POINT('',(0.122492839028723,0.100063375856276,-0.0191616417652065));
#93=CARTESIAN_POINT('',(0.0925070231535327,0.100081402569743,-0.0102685556579461));
#94=CARTESIAN_POINT('',(0.0673144074051274,0.10011307224641,-0.00355970360899298));
#95=CARTESIAN_POINT('',(0.0470434988542058,0.100170900410488,0.00128391983050914));
#96=CARTESIAN_POINT('',(0.0343429238152475,0.100194849487105,0.00429318613902301));
#97=CARTESIAN_POINT('',(0.0241322693478748,0.100179242594372,0.00623745733757632));
#98=CARTESIAN_POINT('',(0.0165036812125195,0.100174024956971,0.00823518125314904));
#99=CARTESIAN_POINT('',(0.0088297132086402,0.100142118661824,0.0095072011107205));
#100=CARTESIAN_POINT('',(0.00355377530022884,0.100076481680825,0.00891293673022508));
#101=CARTESIAN_POINT('',(0.000960610865149647,0.100045159459114,0.00865383539348841));
#102=CARTESIAN_POINT('',(1.77690285984752E-34,0.0900193303823471,-1.70731807125928E-34));
#103=CARTESIAN_POINT('',(0.000480305432574823,0.0950322449207306,0.0043269176967442));
#104=VECTOR('',#125,1.0);
#105=CARTESIAN_POINT('',(-8.4300154925938E-34,0.0099946167320013,-5.01996928817321E-34));
#106=CARTESIAN_POINT('',(-1.74234229278402E-34,0.0500069735571742,-5.34748910578367E-35));
#107=VECTOR('',#126,1.0);
#108=CARTESIAN_POINT('',(0.00117111147847027,-8.19754586700583E-06,0.0112516134977341));
#109=CARTESIAN_POINT('',(0.000585555739235133,0.00499320959306715,0.00562580674886703));
#110=VECTOR('',#127,1.0);
#111=CARTESIAN_POINT('',(0.790181219577789,-0.000831554818432778,-0.556154012680054));
#112=CARTESIAN_POINT('',(0.00117111147847027,-8.19754586700583E-06,0.0112516134977341));
#113=CARTESIAN_POINT('',(0.0421554294839507,-0.000496836432286815,0.00356434418781674));
#114=CARTESIAN_POINT('',(0.123222001992569,-1.77404654593304E-05,-0.0166575814373443));
#115=CARTESIAN_POINT('',(0.240421060709119,-0.000286547760897992,-0.0610168753352743));
#116=CARTESIAN_POINT('',(0.351951042101462,-0.000303972053994722,-0.118094832722133));
#117=CARTESIAN_POINT('',(0.456845295913753,-0.000404596789897196,-0.186588248075631));
#118=CARTESIAN_POINT('',(0.554076901575285,-0.000498774720923434,-0.265578185127838));
#119=CARTESIAN_POINT('',(0.642567082249686,-0.000630581767294365,-0.35426220286378));
#120=CARTESIAN_POINT('',(0.721363441130408,-0.000683424325501231,-0.451627147456924));
#121=CARTESIAN_POINT('',(0.768100216923582,-0.000873149046088356,-0.520777823067774));
#122=CARTESIAN_POINT('',(0.790181219577789,-0.000831554818432778,-0.556154012680054));
#123=CARTESIAN_POINT('',(0.790869385004044,0.0491537213383708,-0.555810064077377));
#124=VECTOR('',#128,1.0);
#125=DIRECTION('',(-0.072341208397995,-0.755020182383729,-0.651698759980989));
#126=DIRECTION('',(-0.0,-1.0,-0.0));
#127=DIRECTION('',(0.0775542281646478,-0.662413916229147,0.745112840635397));
#128=DIRECTION('',(0.000453800793214953,0.999998545059797,-0.00164436709095188));
ENDSEC;
END-ISO-10303-21;
