ISO-10303-21;
HEADER;
FILE_DESCRIPTION(('STEP AP214'),'1');
FILE_NAME('SMAStripDeformed_06.stp','2026-05-05T15:50:03',(' '),(' '),'Spatial InterOp 3D',' ',' ');
FILE_SCHEMA(('AUTOMOTIVE_DESIGN { 1 0 10303 214 1 1 1 1 }'));
ENDSEC;
DATA;
#1=PRODUCT_DEFINITION_CONTEXT('',#9,'design');
#2=APPLICATION_PROTOCOL_DEFINITION('INTERNATIONAL STANDARD','automotive_design',1994,#9);
#3=PRODUCT_CATEGORY_RELATIONSHIP('NONE','NONE',#10,#11);
#4=SHAPE_DEFINITION_REPRESENTATION(#12,#13);
#5= (GEOMETRIC_REPRESENTATION_CONTEXT(3)GLOBAL_UNCERTAINTY_ASSIGNED_CONTEXT((#16))GLOBAL_UNIT_ASSIGNED_CONTEXT((#18,#19,#20))REPRESENTATION_CONTEXT('NONE','WORKSPACE'));
#9=APPLICATION_CONTEXT(' ');
#10=PRODUCT_CATEGORY('part','NONE');
#11=PRODUCT_RELATED_PRODUCT_CATEGORY('detail',' ',(#22));
#12=PRODUCT_DEFINITION_SHAPE('NONE','NONE',#23);
#13=MANIFOLD_SURFACE_SHAPE_REPRESENTATION('1',(#24,#25),#5);
#16=UNCERTAINTY_MEASURE_WITH_UNIT(LENGTH_MEASURE(1.0E-06),#18,'','');
#18= (CONVERSION_BASED_UNIT('MILLIMETRE',#28)LENGTH_UNIT()NAMED_UNIT(#31));
#19= (NAMED_UNIT(#33)PLANE_ANGLE_UNIT()SI_UNIT($,.RADIAN.));
#20= (NAMED_UNIT(#33)SOLID_ANGLE_UNIT()SI_UNIT($,.STERADIAN.));
#22=PRODUCT('1','','PART--DESC',(#39));
#23=PRODUCT_DEFINITION('','NONE',#40,#1);
#24=SHELL_BASED_SURFACE_MODEL('1',(#41));
#25=AXIS2_PLACEMENT_3D('',#42,#43,#44);
#28=LENGTH_MEASURE_WITH_UNIT(LENGTH_MEASURE(1.0),#45);
#31=DIMENSIONAL_EXPONENTS(1.0,0.0,0.0,0.0,0.0,0.0,0.0);
#33=DIMENSIONAL_EXPONENTS(0.0,0.0,0.0,0.0,0.0,0.0,0.0);
#39=PRODUCT_CONTEXT('',#9,'mechanical');
#40=PRODUCT_DEFINITION_FORMATION_WITH_SPECIFIED_SOURCE(' ','NONE',#22,.NOT_KNOWN.);
#41=CLOSED_SHELL('',(#46));
#42=CARTESIAN_POINT('',(0.0,0.0,0.0));
#43=DIRECTION('',(0.0,0.0,1.0));
#44=DIRECTION('',(1.0,0.0,0.0));
#45= (NAMED_UNIT(#31)LENGTH_UNIT()SI_UNIT(.MILLI.,.METRE.));
#46=FACE_SURFACE('',(#48),#49,.T.);
#48=FACE_BOUND('',#50,.T.);
#49=CYLINDRICAL_SURFACE('',#51,1.34783484811263);
#50=EDGE_LOOP('',(#52,#53,#54,#55,#56,#57,#58));
#51=AXIS2_PLACEMENT_3D('',#59,#60,#61);
#52=ORIENTED_EDGE('',*,*,#62,.T.);
#53=ORIENTED_EDGE('',*,*,#63,.T.);
#54=ORIENTED_EDGE('',*,*,#64,.T.);
#55=ORIENTED_EDGE('',*,*,#65,.T.);
#56=ORIENTED_EDGE('',*,*,#66,.T.);
#57=ORIENTED_EDGE('',*,*,#67,.T.);
#58=ORIENTED_EDGE('',*,*,#68,.T.);
#59=CARTESIAN_POINT('',(-0.145927169903808,-0.00180123670761522,-1.33241715983111));
#60=DIRECTION('',(-0.000517706876079896,-0.99999887397628,0.00140855449425403));
#61=DIRECTION('',(8.32889757291101E-23,0.00140855468301474,0.99999900798636));
#62=EDGE_CURVE('',#69,#70,#71,.T.);
#63=EDGE_CURVE('',#70,#72,#73,.T.);
#64=EDGE_CURVE('',#72,#74,#75,.T.);
#65=EDGE_CURVE('',#74,#76,#77,.T.);
#66=EDGE_CURVE('',#76,#78,#79,.T.);
#67=EDGE_CURVE('',#78,#80,#81,.T.);
#68=EDGE_CURVE('',#80,#69,#82,.T.);
#69=VERTEX_POINT('',#83);
#70=VERTEX_POINT('',#84);
#71=B_SPLINE_CURVE_WITH_KNOTS('',3,(#85,#86,#87,#88,#89,#90,#91,#92),.UNSPECIFIED.,.F.,.F.,(4,1,1,1,1,4),(0.0,0.24779070618143,0.495581412362861,0.743372118544291,0.867267471635006,0.991162824725721),.UNSPECIFIED.);
#72=VERTEX_POINT('',#93);
#73=LINE('',#94,#95);
#74=VERTEX_POINT('',#96);
#75=LINE('',#97,#98);
#76=VERTEX_POINT('',#99);
#77=LINE('',#100,#101);
#78=VERTEX_POINT('',#102);
#79=LINE('',#103,#104);
#80=VERTEX_POINT('',#105);
#81=B_SPLINE_CURVE_WITH_KNOTS('',3,(#106,#107,#108,#109,#110,#111,#112,#113,#114,#115,#116),.UNSPECIFIED.,.F.,.F.,(4,1,1,1,1,1,1,1,4),(0.0,0.125122547234239,0.250245094468477,0.375367641702716,0.500490188936954,0.625612736171193,0.750735283405431,0.87585783063967,1.00098037787391),.UNSPECIFIED.);
#82=LINE('',#117,#118);
#83=CARTESIAN_POINT('',(0.869254529476166,0.099999725818634,-0.44343626499176));
#84=CARTESIAN_POINT('',(0.0101627260446548,0.100068263709545,0.00480722077190876));
#85=CARTESIAN_POINT('',(0.869254529476166,0.099999725818634,-0.44343626499176));
#86=CARTESIAN_POINT('',(0.813708285728708,0.0999908750122436,-0.382306379034078));
#87=CARTESIAN_POINT('',(0.692498595769517,0.10003151107069,-0.269235169944744));
#88=CARTESIAN_POINT('',(0.484368378298182,0.100040297448124,-0.133010316219495));
#89=CARTESIAN_POINT('',(0.293350463556751,0.100085896602216,-0.0522178384086783));
#90=CARTESIAN_POINT('',(0.13309902472058,0.100049593023039,-0.0111469695871862));
#91=CARTESIAN_POINT('',(0.0512707028156027,0.100135492970902,0.000845935182276015));
#92=CARTESIAN_POINT('',(0.0101627260446548,0.100068263709545,0.00480722077190876));
#93=CARTESIAN_POINT('',(6.27567787887529E-05,0.100022800266743,0.00201794854365289));
#94=CARTESIAN_POINT('',(0.0051127414117218,0.100045531988144,0.00341258465778083));
#95=VECTOR('',#119,1.0);
#96=CARTESIAN_POINT('',(-3.08305260420312E-34,0.0900193303823471,-1.28587281118702E-34));
#97=CARTESIAN_POINT('',(3.13783893943764E-05,0.0950210653245449,0.00100897427182645));
#98=VECTOR('',#120,1.0);
#99=CARTESIAN_POINT('',(-9.71838209667899E-34,0.0099946167320013,-3.1399015313898E-34));
#100=CARTESIAN_POINT('',(-1.66855706339588E-34,0.0500069735571742,4.20367111347368E-35));
#101=VECTOR('',#121,1.0);
#102=CARTESIAN_POINT('',(0.000349362730048597,-2.31980466196546E-05,0.00564724812284112));
#103=CARTESIAN_POINT('',(0.000174681365024298,0.00498570934269082,0.00282362406142056));
#104=VECTOR('',#122,1.0);
#105=CARTESIAN_POINT('',(0.869304537773132,-2.18131135625299E-05,-0.443296760320663));
#106=CARTESIAN_POINT('',(0.000349362730048597,-2.31980466196546E-05,0.00564724812284112));
#107=CARTESIAN_POINT('',(0.0419042335720661,-0.000266545810920714,0.00209051355766737));
#108=CARTESIAN_POINT('',(0.124634400332604,-2.99684184557129E-06,-0.00946188766615399));
#109=CARTESIAN_POINT('',(0.246215146373575,-0.000104418347624861,-0.0397224602877675));
#110=CARTESIAN_POINT('',(0.364122538727861,-7.17674218497049E-05,-0.0820481994109061));
#111=CARTESIAN_POINT('',(0.477407429498867,-7.4157138736388E-05,-0.135497748613269));
#112=CARTESIAN_POINT('',(0.585318302309625,-5.88631554854711E-05,-0.199074615319435));
#113=CARTESIAN_POINT('',(0.687296672162077,-6.82101599083898E-05,-0.271769219088435));
#114=CARTESIAN_POINT('',(0.782678399900976,-3.30861330621425E-06,-0.352939829765905));
#115=CARTESIAN_POINT('',(0.841253644395513,-0.000148057675173047,-0.412431758901154));
#116=CARTESIAN_POINT('',(0.869304537773132,-2.18131135625299E-05,-0.443296760320663));
#117=CARTESIAN_POINT('',(0.869261294603348,0.0499889563525358,-0.443363532423973));
#118=VECTOR('',#123,1.0);
#119=DIRECTION('',(-0.963908303127931,-0.00433888350077918,-0.266199093257283));
#120=DIRECTION('',(-0.00614950930819778,-0.980235639171968,-0.197737895286646));
#121=DIRECTION('',(-0.0,-1.0,-0.0));
#122=DIRECTION('',(0.0303655854854742,-0.870719126208875,0.490842270461884));
#123=DIRECTION('',(-0.000654851782611771,0.999999041645244,-0.00121978593859196));
ENDSEC;
END-ISO-10303-21;
