ISO-10303-21;
HEADER;
FILE_DESCRIPTION(('STEP AP214'),'1');
FILE_NAME('SMAStripDeformed_09.stp','2026-05-05T15:53:32',(' '),(' '),'Spatial InterOp 3D',' ',' ');
FILE_SCHEMA(('AUTOMOTIVE_DESIGN { 1 0 10303 214 1 1 1 1 }'));
ENDSEC;
DATA;
#1=PRODUCT_DEFINITION_CONTEXT('',#9,'design');
#2=APPLICATION_PROTOCOL_DEFINITION('INTERNATIONAL STANDARD','automotive_design',1994,#9);
#3=PRODUCT_CATEGORY_RELATIONSHIP('NONE','NONE',#10,#11);
#4=SHAPE_DEFINITION_REPRESENTATION(#12,#13);
#5= (GEOMETRIC_REPRESENTATION_CONTEXT(3)GLOBAL_UNCERTAINTY_ASSIGNED_CONTEXT((#16))GLOBAL_UNIT_ASSIGNED_CONTEXT((#18,#19,#20))REPRESENTATION_CONTEXT('NONE','WORKSPACE'));
#9=APPLICATION_CONTEXT(' ');
#10=PRODUCT_CATEGORY('part','NONE');
#11=PRODUCT_RELATED_PRODUCT_CATEGORY('detail',' ',(#22));
#12=PRODUCT_DEFINITION_SHAPE('NONE','NONE',#23);
#13=MANIFOLD_SURFACE_SHAPE_REPRESENTATION('1',(#24,#25),#5);
#16=UNCERTAINTY_MEASURE_WITH_UNIT(LENGTH_MEASURE(1.0E-06),#18,'','');
#18= (CONVERSION_BASED_UNIT('MILLIMETRE',#28)LENGTH_UNIT()NAMED_UNIT(#31));
#19= (NAMED_UNIT(#33)PLANE_ANGLE_UNIT()SI_UNIT($,.RADIAN.));
#20= (NAMED_UNIT(#33)SOLID_ANGLE_UNIT()SI_UNIT($,.STERADIAN.));
#22=PRODUCT('1','','PART--DESC',(#39));
#23=PRODUCT_DEFINITION('','NONE',#40,#1);
#24=SHELL_BASED_SURFACE_MODEL('1',(#41));
#25=AXIS2_PLACEMENT_3D('',#42,#43,#44);
#28=LENGTH_MEASURE_WITH_UNIT(LENGTH_MEASURE(1.0),#45);
#31=DIMENSIONAL_EXPONENTS(1.0,0.0,0.0,0.0,0.0,0.0,0.0);
#33=DIMENSIONAL_EXPONENTS(0.0,0.0,0.0,0.0,0.0,0.0,0.0);
#39=PRODUCT_CONTEXT('',#9,'mechanical');
#40=PRODUCT_DEFINITION_FORMATION_WITH_SPECIFIED_SOURCE(' ','NONE',#22,.NOT_KNOWN.);
#41=CLOSED_SHELL('',(#46));
#42=CARTESIAN_POINT('',(0.0,0.0,0.0));
#43=DIRECTION('',(0.0,0.0,1.0));
#44=DIRECTION('',(1.0,0.0,0.0));
#45= (NAMED_UNIT(#31)LENGTH_UNIT()SI_UNIT(.MILLI.,.METRE.));
#46=FACE_SURFACE('',(#48),#49,.T.);
#48=FACE_BOUND('',#50,.T.);
#49=CYLINDRICAL_SURFACE('',#51,1.20238630912693);
#50=EDGE_LOOP('',(#52,#53,#54,#55,#56,#57));
#51=AXIS2_PLACEMENT_3D('',#58,#59,#60);
#52=ORIENTED_EDGE('',*,*,#61,.T.);
#53=ORIENTED_EDGE('',*,*,#62,.T.);
#54=ORIENTED_EDGE('',*,*,#63,.T.);
#55=ORIENTED_EDGE('',*,*,#64,.T.);
#56=ORIENTED_EDGE('',*,*,#65,.T.);
#57=ORIENTED_EDGE('',*,*,#66,.T.);
#58=CARTESIAN_POINT('',(-0.216750787003384,-0.00380017360866352,-1.17121551279863));
#59=DIRECTION('',(-0.00188415805756974,-0.999991769018347,0.00359330543810595));
#60=DIRECTION('',(-1.3591693410458E-21,0.00359331181633276,0.999993544034256));
#61=EDGE_CURVE('',#67,#68,#69,.T.);
#62=EDGE_CURVE('',#68,#70,#71,.T.);
#63=EDGE_CURVE('',#70,#72,#73,.T.);
#64=EDGE_CURVE('',#72,#74,#75,.T.);
#65=EDGE_CURVE('',#74,#76,#77,.T.);
#66=EDGE_CURVE('',#76,#67,#78,.T.);
#67=VERTEX_POINT('',#79);
#68=VERTEX_POINT('',#80);
#69=LINE('',#81,#82);
#70=VERTEX_POINT('',#83);
#71=B_SPLINE_CURVE_WITH_KNOTS('',3,(#84,#85,#86,#87,#88,#89,#90,#91,#92,#93,#94,#95,#96,#97,#98,#99,#100,#101,#102),.UNSPECIFIED.,.F.,.F.,(4,1,1,1,1,1,1,1,1,1,1,1,1,1,1,1,4),(0.0,0.125096731254868,0.250193462509736,0.375290193764604,0.500386925019472,0.625483656274339,0.688032021901773,0.750580387529207,0.813128753156641,0.875677118784075,0.906951301597792,0.938225484411509,0.969499667225226,0.977318212928656,0.985136758632085,0.992955304335514,1.00077385003894),.UNSPECIFIED.);
#72=VERTEX_POINT('',#103);
#73=LINE('',#104,#105);
#74=VERTEX_POINT('',#106);
#75=LINE('',#107,#108);
#76=VERTEX_POINT('',#109);
#77=LINE('',#110,#111);
#78=B_SPLINE_CURVE_WITH_KNOTS('',3,(#112,#113,#114,#115,#116,#117,#118,#119,#120,#121,#122,#123,#124,#125,#126,#127,#128,#129,#130),.UNSPECIFIED.,.F.,.F.,(4,1,1,1,1,1,1,1,1,1,1,1,1,1,1,1,4),(0.0,0.00782074981224688,0.0156414996244938,0.0234622494367406,0.0312829992489875,0.062565998497975,0.0938489977469626,0.12513199699595,0.187697995493925,0.2502639939919,0.312829992489875,0.37539599098785,0.5005279879838,0.62565998497975,0.750791981975701,0.875923978971651,1.0010559759676),.UNSPECIFIED.);
#79=CARTESIAN_POINT('',(0.805906355381012,-0.000648022338282317,-0.535524547100067));
#80=CARTESIAN_POINT('',(0.805937767028809,0.0993428081274033,-0.53569370508194));
#81=CARTESIAN_POINT('',(0.805844724178314,0.0493473928945605,-0.535619825124741));
#82=VECTOR('',#131,1.0);
#83=CARTESIAN_POINT('',(0.000960610865149647,0.100045159459114,0.00865383539348841));
#84=CARTESIAN_POINT('',(0.805937767028809,0.0993428081274033,-0.53569370508194));
#85=CARTESIAN_POINT('',(0.782971096231307,0.0993479355535691,-0.50088952234105));
#86=CARTESIAN_POINT('',(0.734615747899609,0.0994829044878041,-0.432844110753332));
#87=CARTESIAN_POINT('',(0.652450445681853,0.099580045953267,-0.338299196053386));
#88=CARTESIAN_POINT('',(0.561126573818433,0.0996917378657802,-0.252569491310143));
#89=CARTESIAN_POINT('',(0.461608543960235,0.0997878125921705,-0.176509215207623));
#90=CARTESIAN_POINT('',(0.372696207630177,0.0998847986131039,-0.121821662687604));
#91=CARTESIAN_POINT('',(0.298441807400637,0.0999413701608919,-0.0837895757113305));
#92=CARTESIAN_POINT('',(0.241300721729245,0.0999815625807024,-0.0582931299490677));
#93=CARTESIAN_POINT('',(0.18284488762563,0.100029070143465,-0.0359692132743392));
#94=CARTESIAN_POINT('',(0.133160046449069,0.100061785920241,-0.0201476020662154));
#95=CARTESIAN_POINT('',(0.092917734344971,0.100079452622173,-0.00919402988120274));
#96=CARTESIAN_POINT('',(0.0625039767956851,0.100111894610101,-0.00192578121285085));
#97=CARTESIAN_POINT('',(0.0395645890704085,0.10018786134056,0.00305998674083559));
#98=CARTESIAN_POINT('',(0.0241875600750079,0.100169963415785,0.00581221028484617));
#99=CARTESIAN_POINT('',(0.016521087114483,0.100159136956626,0.0074603937734262));
#100=CARTESIAN_POINT('',(0.00881198080613492,0.100126542754275,0.00868157235242624));
#101=CARTESIAN_POINT('',(0.00356665472618281,0.100071708275931,0.00865000700705399));
#102=CARTESIAN_POINT('',(0.000960610865149647,0.100045159459114,0.00865383539348841));
#103=CARTESIAN_POINT('',(1.05653891429388E-34,0.0900193303823471,-1.04606817540506E-34));
#104=CARTESIAN_POINT('',(0.000480305432574823,0.0950322449207306,0.0043269176967442));
#105=VECTOR('',#132,1.0);
#106=CARTESIAN_POINT('',(-4.18650981430663E-34,0.0099946167320013,-2.26676016922209E-34));
#107=CARTESIAN_POINT('',(-7.42105884474678E-35,0.0500069735571742,-1.77828131064486E-35));
#108=VECTOR('',#133,1.0);
#109=CARTESIAN_POINT('',(0.000759497052058578,-1.54475692397682E-05,0.00901815202087164));
#110=CARTESIAN_POINT('',(0.000379748526029289,0.00498958458138077,0.00450907601043582));
#111=VECTOR('',#134,1.0);
#112=CARTESIAN_POINT('',(0.000759497052058578,-1.54475692397682E-05,0.00901815202087164));
#113=CARTESIAN_POINT('',(0.00336629762764157,-3.97874663386256E-05,0.00901461518763562));
#114=CARTESIAN_POINT('',(0.00861289048784236,-8.9465068640236E-05,0.00904661626806933));
#115=CARTESIAN_POINT('',(0.0163250158291536,-0.000138539421209653,0.00783053720855715));
#116=CARTESIAN_POINT('',(0.023994597351647,-0.000175930167631709,0.00618732485205702));
#117=CARTESIAN_POINT('',(0.039377369950941,-0.00024390462947953,0.00344244198705535));
#118=CARTESIAN_POINT('',(0.0623245575038587,-0.000263454493520738,-0.00153920415401255));
#119=CARTESIAN_POINT('',(0.0927468950101347,-0.000218969675986751,-0.00880952076833466));
#120=CARTESIAN_POINT('',(0.133000727565941,-0.00013300909800281,-0.0197651940756091));
#121=CARTESIAN_POINT('',(0.182699661636125,-0.000140866638680925,-0.035591233255678));
#122=CARTESIAN_POINT('',(0.241171589901543,-0.000218480966222836,-0.0579223649856466));
#123=CARTESIAN_POINT('',(0.29832802772034,-0.000249745215015651,-0.0834278181883356));
#124=CARTESIAN_POINT('',(0.372601097878605,-0.000270054917315841,-0.121474916519369));
#125=CARTESIAN_POINT('',(0.461535747591825,-0.000332092493417613,-0.17618367769839));
#126=CARTESIAN_POINT('',(0.561068784851335,-0.000404365398887963,-0.252280118956045));
#127=CARTESIAN_POINT('',(0.652423462643638,-0.000508395892792973,-0.338032953717697));
#128=CARTESIAN_POINT('',(0.734532444880765,-0.000541166651612991,-0.432670767525503));
#129=CARTESIAN_POINT('',(0.782920227784321,-0.000723274011160005,-0.500719204039867));
#130=CARTESIAN_POINT('',(0.805906355381012,-0.000648022338282317,-0.535524547100067));
#131=DIRECTION('',(0.000270013546798018,0.999998829015589,-0.00150633998002347));
#132=DIRECTION('',(-0.072341208397995,-0.755020182383729,-0.651698759980989));
#133=DIRECTION('',(-0.0,-1.0,-0.0));
#134=DIRECTION('',(0.0562813897434448,-0.741780799238231,0.66827662764011));
ENDSEC;
END-ISO-10303-21;
