ISO-10303-21;
HEADER;
FILE_DESCRIPTION(('STEP AP214'),'1');
FILE_NAME('SMAStripDeformed_02.stp','2026-05-05T15:46:12',(' '),(' '),'Spatial InterOp 3D',' ',' ');
FILE_SCHEMA(('AUTOMOTIVE_DESIGN { 1 0 10303 214 1 1 1 1 }'));
ENDSEC;
DATA;
#1=PRODUCT_DEFINITION_CONTEXT('',#9,'design');
#2=APPLICATION_PROTOCOL_DEFINITION('INTERNATIONAL STANDARD','automotive_design',1994,#9);
#3=PRODUCT_CATEGORY_RELATIONSHIP('NONE','NONE',#10,#11);
#4=SHAPE_DEFINITION_REPRESENTATION(#12,#13);
#5= (GEOMETRIC_REPRESENTATION_CONTEXT(3)GLOBAL_UNCERTAINTY_ASSIGNED_CONTEXT((#16))GLOBAL_UNIT_ASSIGNED_CONTEXT((#18,#19,#20))REPRESENTATION_CONTEXT('NONE','WORKSPACE'));
#9=APPLICATION_CONTEXT(' ');
#10=PRODUCT_CATEGORY('part','NONE');
#11=PRODUCT_RELATED_PRODUCT_CATEGORY('detail',' ',(#22));
#12=PRODUCT_DEFINITION_SHAPE('NONE','NONE',#23);
#13=MANIFOLD_SURFACE_SHAPE_REPRESENTATION('1',(#24,#25),#5);
#16=UNCERTAINTY_MEASURE_WITH_UNIT(LENGTH_MEASURE(1.0E-06),#18,'','');
#18= (CONVERSION_BASED_UNIT('MILLIMETRE',#28)LENGTH_UNIT()NAMED_UNIT(#31));
#19= (NAMED_UNIT(#33)PLANE_ANGLE_UNIT()SI_UNIT($,.RADIAN.));
#20= (NAMED_UNIT(#33)SOLID_ANGLE_UNIT()SI_UNIT($,.STERADIAN.));
#22=PRODUCT('1','','PART--DESC',(#39));
#23=PRODUCT_DEFINITION('','NONE',#40,#1);
#24=SHELL_BASED_SURFACE_MODEL('1',(#41));
#25=AXIS2_PLACEMENT_3D('',#42,#43,#44);
#28=LENGTH_MEASURE_WITH_UNIT(LENGTH_MEASURE(1.0),#45);
#31=DIMENSIONAL_EXPONENTS(1.0,0.0,0.0,0.0,0.0,0.0,0.0);
#33=DIMENSIONAL_EXPONENTS(0.0,0.0,0.0,0.0,0.0,0.0,0.0);
#39=PRODUCT_CONTEXT('',#9,'mechanical');
#40=PRODUCT_DEFINITION_FORMATION_WITH_SPECIFIED_SOURCE(' ','NONE',#22,.NOT_KNOWN.);
#41=CLOSED_SHELL('',(#46));
#42=CARTESIAN_POINT('',(0.0,0.0,0.0));
#43=DIRECTION('',(0.0,0.0,1.0));
#44=DIRECTION('',(1.0,0.0,0.0));
#45= (NAMED_UNIT(#31)LENGTH_UNIT()SI_UNIT(.MILLI.,.METRE.));
#46=FACE_SURFACE('',(#48),#49,.T.);
#48=FACE_BOUND('',#50,.T.);
#49=CYLINDRICAL_SURFACE('',#51,2.57780193810959);
#50=EDGE_LOOP('',(#52,#53,#54,#55,#56));
#51=AXIS2_PLACEMENT_3D('',#57,#58,#59);
#52=ORIENTED_EDGE('',*,*,#60,.T.);
#53=ORIENTED_EDGE('',*,*,#61,.T.);
#54=ORIENTED_EDGE('',*,*,#62,.T.);
#55=ORIENTED_EDGE('',*,*,#63,.T.);
#56=ORIENTED_EDGE('',*,*,#64,.T.);
#57=CARTESIAN_POINT('',(-0.034161199648154,-2.07061993186852E-05,-2.57680112299607));
#58=DIRECTION('',(-2.98941602247582E-05,-0.999999999517621,8.43193763076848E-06));
#59=DIRECTION('',(3.92913641137819E-26,8.43193763453613E-06,0.999999999964451));
#60=EDGE_CURVE('',#65,#66,#67,.T.);
#61=EDGE_CURVE('',#66,#68,#69,.T.);
#62=EDGE_CURVE('',#68,#70,#71,.T.);
#63=EDGE_CURVE('',#70,#72,#73,.T.);
#64=EDGE_CURVE('',#72,#65,#74,.T.);
#65=VERTEX_POINT('',#75);
#66=VERTEX_POINT('',#76);
#67=CIRCLE('',#77,2.58237479319255);
#68=VERTEX_POINT('',#78);
#69=LINE('',#79,#80);
#70=VERTEX_POINT('',#81);
#71=LINE('',#82,#83);
#72=VERTEX_POINT('',#84);
#73=CIRCLE('',#85,2.58221374119759);
#74=LINE('',#86,#87);
#75=CARTESIAN_POINT('',(0.973274528980255,0.100019127130508,-0.20348733663559));
#76=CARTESIAN_POINT('',(-1.48552488740075E-36,0.100008472800255,0.0));
#77=AXIS2_PLACEMENT_3D('',#88,#89,#90);
#78=CARTESIAN_POINT('',(-1.52349541262139E-33,0.0100008472800255,2.23066353869097E-34));
#79=CARTESIAN_POINT('',(3.16884991648872E-34,0.0550046600401402,5.75732107860053E-35));
#80=VECTOR('',#91,1.0);
#81=CARTESIAN_POINT('',(-1.1467250971009E-07,-8.47300270834239E-06,-4.24429126724135E-05));
#82=CARTESIAN_POINT('',(-5.73362548550449E-08,0.00499618713865857,-2.12214563362068E-05));
#83=VECTOR('',#92,1.0);
#84=CARTESIAN_POINT('',(0.973275542259216,-1.85298285941826E-05,-0.203487545251846));
#85=AXIS2_PLACEMENT_3D('',#93,#94,#95);
#86=CARTESIAN_POINT('',(0.973329216241837,0.0500002986509571,-0.203352116048336));
#87=VECTOR('',#96,1.0);
#88=CARTESIAN_POINT('',(-0.0352129559084798,0.0993650505060779,-2.58153502339763));
#89=DIRECTION('',(4.9625092931713E-05,-0.999999966534298,0.000253906976498587));
#90=DIRECTION('',(2.08349437533975E-24,0.000253906976811229,0.999999967765623));
#91=DIRECTION('',(-0.0,-1.0,-0.0));
#92=DIRECTION('',(-1.14564701242616E-05,-0.999991009817551,-0.00424030102984103));
#93=CARTESIAN_POINT('',(-0.0351731284504422,0.00062142721119586,-2.58137802864128));
#94=DIRECTION('',(4.78783172426304E-05,0.999999967911377,0.000248766780329759));
#95=DIRECTION('',(2.01028190429097E-24,0.000248766780614887,-0.999999969057544));
#96=DIRECTION('',(-4.98338588346016E-06,0.999999999987582,3.40589557073577E-08));
ENDSEC;
END-ISO-10303-21;
