ISO-10303-21;
HEADER;
FILE_DESCRIPTION(('STEP AP214'),'1');
FILE_NAME('SMAStripDeformed_04.stp','2026-05-05T15:47:35',(' '),(' '),'Spatial InterOp 3D',' ',' ');
FILE_SCHEMA(('AUTOMOTIVE_DESIGN { 1 0 10303 214 1 1 1 1 }'));
ENDSEC;
DATA;
#1=PRODUCT_DEFINITION_CONTEXT('',#9,'design');
#2=APPLICATION_PROTOCOL_DEFINITION('INTERNATIONAL STANDARD','automotive_design',1994,#9);
#3=PRODUCT_CATEGORY_RELATIONSHIP('NONE','NONE',#10,#11);
#4=SHAPE_DEFINITION_REPRESENTATION(#12,#13);
#5= (GEOMETRIC_REPRESENTATION_CONTEXT(3)GLOBAL_UNCERTAINTY_ASSIGNED_CONTEXT((#16))GLOBAL_UNIT_ASSIGNED_CONTEXT((#18,#19,#20))REPRESENTATION_CONTEXT('NONE','WORKSPACE'));
#9=APPLICATION_CONTEXT(' ');
#10=PRODUCT_CATEGORY('part','NONE');
#11=PRODUCT_RELATED_PRODUCT_CATEGORY('detail',' ',(#22));
#12=PRODUCT_DEFINITION_SHAPE('NONE','NONE',#23);
#13=MANIFOLD_SURFACE_SHAPE_REPRESENTATION('1',(#24,#25),#5);
#16=UNCERTAINTY_MEASURE_WITH_UNIT(LENGTH_MEASURE(1.0E-06),#18,'','');
#18= (CONVERSION_BASED_UNIT('MILLIMETRE',#28)LENGTH_UNIT()NAMED_UNIT(#31));
#19= (NAMED_UNIT(#33)PLANE_ANGLE_UNIT()SI_UNIT($,.RADIAN.));
#20= (NAMED_UNIT(#33)SOLID_ANGLE_UNIT()SI_UNIT($,.STERADIAN.));
#22=PRODUCT('1','','PART--DESC',(#39));
#23=PRODUCT_DEFINITION('','NONE',#40,#1);
#24=SHELL_BASED_SURFACE_MODEL('1',(#41));
#25=AXIS2_PLACEMENT_3D('',#42,#43,#44);
#28=LENGTH_MEASURE_WITH_UNIT(LENGTH_MEASURE(1.0),#45);
#31=DIMENSIONAL_EXPONENTS(1.0,0.0,0.0,0.0,0.0,0.0,0.0);
#33=DIMENSIONAL_EXPONENTS(0.0,0.0,0.0,0.0,0.0,0.0,0.0);
#39=PRODUCT_CONTEXT('',#9,'mechanical');
#40=PRODUCT_DEFINITION_FORMATION_WITH_SPECIFIED_SOURCE(' ','NONE',#22,.NOT_KNOWN.);
#41=CLOSED_SHELL('',(#46));
#42=CARTESIAN_POINT('',(0.0,0.0,0.0));
#43=DIRECTION('',(0.0,0.0,1.0));
#44=DIRECTION('',(1.0,0.0,0.0));
#45= (NAMED_UNIT(#31)LENGTH_UNIT()SI_UNIT(.MILLI.,.METRE.));
#46=FACE_SURFACE('',(#48),#49,.T.);
#48=FACE_BOUND('',#50,.T.);
#49=CYLINDRICAL_SURFACE('',#51,1.61285293836279);
#50=EDGE_LOOP('',(#52,#53,#54,#55,#56,#57));
#51=AXIS2_PLACEMENT_3D('',#58,#59,#60);
#52=ORIENTED_EDGE('',*,*,#61,.T.);
#53=ORIENTED_EDGE('',*,*,#62,.T.);
#54=ORIENTED_EDGE('',*,*,#63,.T.);
#55=ORIENTED_EDGE('',*,*,#64,.T.);
#56=ORIENTED_EDGE('',*,*,#65,.T.);
#57=ORIENTED_EDGE('',*,*,#66,.T.);
#58=CARTESIAN_POINT('',(-0.0878953523644415,0.00010382477230966,-1.60670344957048));
#59=DIRECTION('',(0.00135375812184143,-0.999999074053311,-0.000138677565868955));
#60=DIRECTION('',(0.0,-0.000138677692943616,0.999999990384249));
#61=EDGE_CURVE('',#67,#68,#69,.T.);
#62=EDGE_CURVE('',#68,#70,#71,.T.);
#63=EDGE_CURVE('',#70,#72,#73,.T.);
#64=EDGE_CURVE('',#72,#74,#75,.T.);
#65=EDGE_CURVE('',#74,#76,#77,.T.);
#66=EDGE_CURVE('',#76,#67,#78,.T.);
#67=VERTEX_POINT('',#79);
#68=VERTEX_POINT('',#80);
#69=LINE('',#81,#82);
#70=VERTEX_POINT('',#83);
#71=LINE('',#84,#85);
#72=VERTEX_POINT('',#86);
#73=B_SPLINE_CURVE_WITH_KNOTS('',3,(#87,#88,#89,#90,#91,#92,#93,#94,#95,#96,#97,#98,#99,#100,#101,#102,#103,#104,#105,#106,#107),.UNSPECIFIED.,.F.,.F.,(4,1,1,1,1,1,1,1,1,1,1,1,1,1,1,1,1,1,4),(0.0,0.125142152405516,0.250284304811033,0.375426457216549,0.500568609622066,0.625710762027582,0.68828183823034,0.750852914433098,0.813423990635857,0.844709528737236,0.875995066838615,0.907280604939994,0.938566143041373,0.954208912092062,0.969851681142752,0.977673065668097,0.985494450193442,0.993315834718786,1.00113721924413),.UNSPECIFIED.);
#74=VERTEX_POINT('',#108);
#75=CIRCLE('',#109,0.874535387451376);
#76=VERTEX_POINT('',#110);
#77=B_SPLINE_CURVE_WITH_KNOTS('',3,(#111,#112,#113,#114,#115,#116,#117,#118,#119,#120,#121),.UNSPECIFIED.,.F.,.F.,(4,1,1,1,1,1,1,1,4),(0.0,0.125115762713301,0.250231525426602,0.375347288139903,0.500463050853204,0.625578813566505,0.750694576279807,0.875810338993108,1.00092610170641),.UNSPECIFIED.);
#78=LINE('',#122,#123);
#79=CARTESIAN_POINT('',(-1.1758908046592E-33,0.0900193303823471,-9.01138216732063E-35));
#80=CARTESIAN_POINT('',(-1.20637449558289E-34,0.0099946167320013,-2.60536636792874E-34));
#81=CARTESIAN_POINT('',(-1.24663012614627E-34,0.0500069735571742,4.74563255433155E-35));
#82=VECTOR('',#124,1.0);
#83=CARTESIAN_POINT('',(5.34333667019382E-05,-2.229791971331E-05,0.00203689443878829));
#84=CARTESIAN_POINT('',(2.67166833509691E-05,0.004986159406144,0.00101844721939415));
#85=VECTOR('',#125,1.0);
#86=CARTESIAN_POINT('',(0.92245227098465,-2.59073640336283E-05,-0.344982862472534));
#87=CARTESIAN_POINT('',(5.34333667019382E-05,-2.229791971331E-05,0.00203689443878829));
#88=CARTESIAN_POINT('',(0.0417419532685654,-0.000137945634065502,0.000582257612467399));
#89=CARTESIAN_POINT('',(0.12499087852773,-1.94275492323023E-05,-0.00599956965246794));
#90=CARTESIAN_POINT('',(0.248519498659702,-6.73859526545859E-05,-0.0267478271891137));
#91=CARTESIAN_POINT('',(0.369851123176979,-5.36602554612322E-05,-0.0578282283380063));
#92=CARTESIAN_POINT('',(0.488260430812403,-5.44347927469438E-05,-0.0986273282626951));
#93=CARTESIAN_POINT('',(0.583993196049509,-4.99522024248469E-05,-0.14017564217561));
#94=CARTESIAN_POINT('',(0.658570960652188,-4.62453890914161E-05,-0.177601792634914));
#95=CARTESIAN_POINT('',(0.713451082581439,-4.28997718424804E-05,-0.207678097902));
#96=CARTESIAN_POINT('',(0.758269468199802,-3.97358785413565E-05,-0.234342512021151));
#97=CARTESIAN_POINT('',(0.793557130652438,-3.69158450469785E-05,-0.256590500919022));
#98=CARTESIAN_POINT('',(0.81973397801516,-3.47256886279361E-05,-0.273726228492675));
#99=CARTESIAN_POINT('',(0.845623946727869,-3.24374558531417E-05,-0.291291702474612));
#100=CARTESIAN_POINT('',(0.866938223530061,-3.03648139791118E-05,-0.306309368858361));
#101=CARTESIAN_POINT('',(0.883873971902004,-2.88080788747823E-05,-0.318477740352119));
#102=CARTESIAN_POINT('',(0.894324340044923,-2.75899018463508E-05,-0.326285357758877));
#103=CARTESIAN_POINT('',(0.902796903280041,-2.65865343084154E-05,-0.332339367931155));
#104=CARTESIAN_POINT('',(0.90887851857453,-2.54964570268268E-05,-0.337318786629276));
#105=CARTESIAN_POINT('',(0.915215914094769,-2.49793092566191E-05,-0.341860718620901));
#106=CARTESIAN_POINT('',(0.92006559021698,-2.56145967358603E-05,-0.343933637926023));
#107=CARTESIAN_POINT('',(0.92245227098465,-2.59073640336283E-05,-0.344982862472534));
#108=CARTESIAN_POINT('',(0.921296715736389,0.100019812583923,-0.346465766429901));
#109=AXIS2_PLACEMENT_3D('',#126,#127,#128);
#110=CARTESIAN_POINT('',(6.27567787887529E-05,0.100022800266743,0.00201794854365289));
#111=CARTESIAN_POINT('',(0.921296715736389,0.100019812583923,-0.346465766429901));
#112=CARTESIAN_POINT('',(0.888143185925788,0.100011516368413,-0.321164153372485));
#113=CARTESIAN_POINT('',(0.820344436942923,0.10003227878018,-0.272505426828522));
#114=CARTESIAN_POINT('',(0.7138728583947,0.10003456545464,-0.206647419670035));
#115=CARTESIAN_POINT('',(0.603035061970093,0.100042729069672,-0.148431299943903));
#116=CARTESIAN_POINT('',(0.48817309428896,0.100048527924131,-0.0985970881880961));
#117=CARTESIAN_POINT('',(0.369785929689061,0.100049583425291,-0.0578159553065037));
#118=CARTESIAN_POINT('',(0.24847766262958,0.100063483034814,-0.0267505383791651));
#119=CARTESIAN_POINT('',(0.124974082717283,0.100021936513829,-0.00601316013212575));
#120=CARTESIAN_POINT('',(0.0417425489909016,0.100129579800515,0.000564762277870778));
#121=CARTESIAN_POINT('',(6.27567787887529E-05,0.100022800266743,0.00201794854365289));
#122=CARTESIAN_POINT('',(3.13783893943764E-05,0.0950210653245449,0.00100897427182645));
#123=VECTOR('',#129,1.0);
#124=DIRECTION('',(-0.0,-1.0,-0.0));
#125=DIRECTION('',(0.00522726356912127,-0.979931759231737,0.199264705767408));
#126=CARTESIAN_POINT('',(0.390168537217234,0.04255149730186,-1.03828870550105));
#127=DIRECTION('',(-0.793208739180348,-6.60795259527684E-05,0.608949826932744));
#128=DIRECTION('',(-8.33066032426157E-05,0.999999996530005,-4.71839629625522E-21));
#129=DIRECTION('',(-0.00614950930819778,-0.980235639171968,-0.197737895286646));
ENDSEC;
END-ISO-10303-21;
