ISO-10303-21;
HEADER;
FILE_DESCRIPTION(('STEP AP214'),'1');
FILE_NAME('SMAStripDeformed.stp','2026-05-20T04:22:54',(' '),(' '),'Spatial InterOp 3D',' ',' ');
FILE_SCHEMA(('AUTOMOTIVE_DESIGN { 1 0 10303 214 1 1 1 1 }'));
ENDSEC;
DATA;
#1=PRODUCT_DEFINITION_CONTEXT('',#9,'design');
#2=APPLICATION_PROTOCOL_DEFINITION('INTERNATIONAL STANDARD','automotive_design',1994,#9);
#3=PRODUCT_CATEGORY_RELATIONSHIP('NONE','NONE',#10,#11);
#4=SHAPE_DEFINITION_REPRESENTATION(#12,#13);
#5= (GEOMETRIC_REPRESENTATION_CONTEXT(3)GLOBAL_UNCERTAINTY_ASSIGNED_CONTEXT((#16))GLOBAL_UNIT_ASSIGNED_CONTEXT((#18,#19,#20))REPRESENTATION_CONTEXT('NONE','WORKSPACE'));
#9=APPLICATION_CONTEXT(' ');
#10=PRODUCT_CATEGORY('part','NONE');
#11=PRODUCT_RELATED_PRODUCT_CATEGORY('detail',' ',(#22));
#12=PRODUCT_DEFINITION_SHAPE('NONE','NONE',#23);
#13=MANIFOLD_SURFACE_SHAPE_REPRESENTATION('1',(#24,#25),#5);
#16=UNCERTAINTY_MEASURE_WITH_UNIT(LENGTH_MEASURE(1.0E-06),#18,'','');
#18= (CONVERSION_BASED_UNIT('MILLIMETRE',#28)LENGTH_UNIT()NAMED_UNIT(#31));
#19= (NAMED_UNIT(#33)PLANE_ANGLE_UNIT()SI_UNIT($,.RADIAN.));
#20= (NAMED_UNIT(#33)SOLID_ANGLE_UNIT()SI_UNIT($,.STERADIAN.));
#22=PRODUCT('1','','PART--DESC',(#39));
#23=PRODUCT_DEFINITION('','NONE',#40,#1);
#24=SHELL_BASED_SURFACE_MODEL('1',(#41));
#25=AXIS2_PLACEMENT_3D('',#42,#43,#44);
#28=LENGTH_MEASURE_WITH_UNIT(LENGTH_MEASURE(1.0),#45);
#31=DIMENSIONAL_EXPONENTS(1.0,0.0,0.0,0.0,0.0,0.0,0.0);
#33=DIMENSIONAL_EXPONENTS(0.0,0.0,0.0,0.0,0.0,0.0,0.0);
#39=PRODUCT_CONTEXT('',#9,'mechanical');
#40=PRODUCT_DEFINITION_FORMATION_WITH_SPECIFIED_SOURCE(' ','NONE',#22,.NOT_KNOWN.);
#41=CLOSED_SHELL('',(#46));
#42=CARTESIAN_POINT('',(0.0,0.0,0.0));
#43=DIRECTION('',(0.0,0.0,1.0));
#44=DIRECTION('',(1.0,0.0,0.0));
#45= (NAMED_UNIT(#31)LENGTH_UNIT()SI_UNIT(.MILLI.,.METRE.));
#46=FACE_SURFACE('',(#48),#49,.T.);
#48=FACE_BOUND('',#50,.T.);
#49=CYLINDRICAL_SURFACE('',#51,1.22544770382043);
#50=EDGE_LOOP('',(#52,#53,#54,#55,#56,#57,#58,#59));
#51=AXIS2_PLACEMENT_3D('',#60,#61,#62);
#52=ORIENTED_EDGE('',*,*,#63,.T.);
#53=ORIENTED_EDGE('',*,*,#64,.T.);
#54=ORIENTED_EDGE('',*,*,#65,.T.);
#55=ORIENTED_EDGE('',*,*,#66,.T.);
#56=ORIENTED_EDGE('',*,*,#67,.T.);
#57=ORIENTED_EDGE('',*,*,#68,.T.);
#58=ORIENTED_EDGE('',*,*,#69,.T.);
#59=ORIENTED_EDGE('',*,*,#70,.T.);
#60=CARTESIAN_POINT('',(-0.31540930206656,-0.015848736005612,-1.16625984695657));
#61=DIRECTION('',(-0.0195846614055282,-0.999629907528954,0.0188809165901812));
#62=DIRECTION('',(0.0,0.0188845386045445,0.999821671200266));
#63=EDGE_CURVE('',#71,#72,#73,.T.);
#64=EDGE_CURVE('',#72,#74,#75,.T.);
#65=EDGE_CURVE('',#74,#76,#77,.T.);
#66=EDGE_CURVE('',#76,#78,#79,.T.);
#67=EDGE_CURVE('',#78,#80,#81,.T.);
#68=EDGE_CURVE('',#80,#82,#83,.T.);
#69=EDGE_CURVE('',#82,#84,#85,.T.);
#70=EDGE_CURVE('',#84,#71,#86,.T.);
#71=VERTEX_POINT('',#87);
#72=VERTEX_POINT('',#88);
#73=LINE('',#89,#90);
#74=VERTEX_POINT('',#91);
#75=LINE('',#92,#93);
#76=VERTEX_POINT('',#94);
#77=B_SPLINE_CURVE_WITH_KNOTS('',3,(#95,#96,#97,#98,#99,#100,#101,#102,#103,#104,#105,#106,#107,#108,#109,#110,#111,#112,#113,#114,#115),.UNSPECIFIED.,.F.,.F.,(4,1,1,1,1,1,1,1,1,1,1,1,1,1,1,1,1,1,4),(0.0,0.00767254461191267,0.0153450892238253,0.023017633835738,0.0306901784476507,0.046035267671476,0.0613803568953014,0.0920705353429521,0.122760713790603,0.153450892238253,0.184141070685904,0.245521427581206,0.306901784476507,0.368282141371808,0.491042855162411,0.613803568953014,0.736564282743617,0.859324996534219,0.982085710324822),.UNSPECIFIED.);
#78=VERTEX_POINT('',#116);
#79=LINE('',#117,#118);
#80=VERTEX_POINT('',#119);
#81=LINE('',#120,#121);
#82=VERTEX_POINT('',#122);
#83=LINE('',#123,#124);
#84=VERTEX_POINT('',#125);
#85=B_SPLINE_CURVE_WITH_KNOTS('',3,(#126,#127,#128,#129,#130,#131,#132,#133,#134,#135,#136,#137,#138,#139,#140,#141,#142,#143,#144,#145,#146,#147,#148,#149,#150,#151,#152,#153,#154,#155,#156),.UNSPECIFIED.,.F.,.F.,(4,1,1,1,1,1,1,1,1,1,1,1,1,1,1,1,1,1,1,1,1,1,1,1,1,1,1,1,4),(0.0,0.00774339002227039,0.0154867800445408,0.0232301700668112,0.0309735600890816,0.0464603401336223,0.0619471201781631,0.0929206802672447,0.123894240356326,0.154867800445408,0.185841360534489,0.247788480712652,0.309735600890816,0.371682721068979,0.433629841247142,0.495576961425305,0.619471201781631,0.681418321959794,0.743365442137957,0.805312562316121,0.867259682494284,0.898233242583365,0.929206802672447,0.944693582716988,0.960180362761528,0.967923752783799,0.975667142806069,0.983410532828339,0.99115392285061),.UNSPECIFIED.);
#86=CIRCLE('',#157,0.0384505579527883);
#87=CARTESIAN_POINT('',(1.2406777510656E-35,0.0900089666247368,-9.03600082446022E-36));
#88=CARTESIAN_POINT('',(-6.78428184588059E-35,0.00999103579670191,-1.95519722824657E-34));
#89=CARTESIAN_POINT('',(6.76303283398518E-36,0.0500000012107193,2.32282734674773E-35));
#90=VECTOR('',#158,1.0);
#91=CARTESIAN_POINT('',(0.00150497653521597,5.30455963598797E-06,0.012705123052001));
#92=CARTESIAN_POINT('',(0.000752488267607987,0.00499817017816895,0.0063525615260005));
#93=VECTOR('',#159,1.0);
#94=CARTESIAN_POINT('',(0.758615553379059,0.000644100306089967,-0.569553434848785));
#95=CARTESIAN_POINT('',(0.00150497653521597,5.30455963598797E-06,0.012705123052001));
#96=CARTESIAN_POINT('',(0.00406068147563449,-2.4984495896156E-05,0.0127964310153318));
#97=CARTESIAN_POINT('',(0.00925272892725228,-8.66834621763431E-05,0.0130404372824099));
#98=CARTESIAN_POINT('',(0.0167335483104514,-0.000163906482577191,0.0115349889523478));
#99=CARTESIAN_POINT('',(0.024119277804473,-0.000225151421365941,0.00923268660858836));
#100=CARTESIAN_POINT('',(0.0340433166174813,-0.000287583245370376,0.00686300701880496));
#101=CARTESIAN_POINT('',(0.0463624071714693,-0.000326686814828808,0.00336849437656891));
#102=CARTESIAN_POINT('',(0.066021696670855,-0.000332762138007564,-0.00227336799266662));
#103=CARTESIAN_POINT('',(0.0904237946819253,-0.000259536281935049,-0.00995423332932956));
#104=CARTESIAN_POINT('',(0.119428723975619,-0.000138283649625545,-0.0199888586889673));
#105=CARTESIAN_POINT('',(0.148128172506073,-8.19626253232519E-05,-0.030872819766429));
#106=CARTESIAN_POINT('',(0.185962275340839,-6.97460234010658E-05,-0.0464737256135209));
#107=CARTESIAN_POINT('',(0.232398275298374,-0.000117142057629478,-0.0679706040330267));
#108=CARTESIAN_POINT('',(0.286623249389471,-9.52133595828176E-05,-0.0967794406185318));
#109=CARTESIAN_POINT('',(0.356782408976677,-1.59010692105454E-05,-0.138972194214674));
#110=CARTESIAN_POINT('',(0.440215782024348,4.83229833866765E-05,-0.19839810410686));
#111=CARTESIAN_POINT('',(0.532516582154974,0.000144670376019286,-0.279601486340624));
#112=CARTESIAN_POINT('',(0.615792493035299,0.000303082982951743,-0.369977041883019));
#113=CARTESIAN_POINT('',(0.691560174534387,0.000449802287829105,-0.466680584242787));
#114=CARTESIAN_POINT('',(0.736990387766339,0.000638010853751814,-0.534814148048316));
#115=CARTESIAN_POINT('',(0.758615553379059,0.000644100306089967,-0.569553434848785));
#116=CARTESIAN_POINT('',(0.779092252254486,0.000781808746978641,-0.578232228755951));
#117=CARTESIAN_POINT('',(0.768853902816772,0.000712954526534304,-0.573892831802368));
#118=VECTOR('',#160,1.0);
#119=CARTESIAN_POINT('',(0.778643608093262,0.0903594940900803,-0.577513515949249));
#120=CARTESIAN_POINT('',(0.778867930173874,0.0455706514185295,-0.5778728723526));
#121=VECTOR('',#161,1.0);
#122=CARTESIAN_POINT('',(0.771122395992279,0.100640907883644,-0.583723723888397));
#123=CARTESIAN_POINT('',(0.77488300204277,0.0955002009868622,-0.580618619918823));
#124=VECTOR('',#162,0.999999999999999);
#125=CARTESIAN_POINT('',(0.010901715606451,0.100108474493027,0.0102121150121093));
#126=CARTESIAN_POINT('',(0.771122395992279,0.100640907883644,-0.583723723888397));
#127=CARTESIAN_POINT('',(0.769065021616759,0.100638068612736,-0.582165059481696));
#128=CARTESIAN_POINT('',(0.764782187819446,0.10063294162187,-0.579021726707634));
#129=CARTESIAN_POINT('',(0.760386169910801,0.100607086728123,-0.57273848599812));
#130=CARTESIAN_POINT('',(0.756739809008604,0.100578461797502,-0.56578617480966));
#131=CARTESIAN_POINT('',(0.751023587152177,0.100557067402035,-0.557236638053443));
#132=CARTESIAN_POINT('',(0.744226178799337,0.100530262428274,-0.546238321402354));
#133=CARTESIAN_POINT('',(0.732934930693241,0.100500747304243,-0.528960208638161));
#134=CARTESIAN_POINT('',(0.718616957061232,0.100474842764552,-0.507478142761693));
#135=CARTESIAN_POINT('',(0.700922158299546,0.10045295088137,-0.482056160448873));
#136=CARTESIAN_POINT('',(0.682763665725588,0.100429381704051,-0.456961759345997));
#137=CARTESIAN_POINT('',(0.657928340290055,0.10040044602518,-0.423963278578304));
#138=CARTESIAN_POINT('',(0.625687073855743,0.100358147292354,-0.383634931816456));
#139=CARTESIAN_POINT('',(0.585118365041693,0.100313835861687,-0.336801979129647));
#140=CARTESIAN_POINT('',(0.542479820492454,0.100273415581225,-0.291838614625986));
#141=CARTESIAN_POINT('',(0.497544900694445,0.100223112763604,-0.249165082766751));
#142=CARTESIAN_POINT('',(0.434763088886285,0.100175169857181,-0.195451417892766));
#143=CARTESIAN_POINT('',(0.36791544135481,0.100149021052846,-0.146747647056837));
#144=CARTESIAN_POINT('',(0.297546844555717,0.100136589335876,-0.103445306287707));
#145=CARTESIAN_POINT('',(0.243118353404772,0.100120649696552,-0.0738172105159305));
#146=CARTESIAN_POINT('',(0.187143108779919,0.100081197541243,-0.0472241371143651));
#147=CARTESIAN_POINT('',(0.139313797913135,0.100096042242403,-0.0277411022620323));
#148=CARTESIAN_POINT('',(0.100413696378711,0.100176233185194,-0.0138641680214151));
#149=CARTESIAN_POINT('',(0.0758587997481697,0.100221437329421,-0.00588921764220075));
#150=CARTESIAN_POINT('',(0.0560698641858663,0.100232398686537,-9.69926266061413E-06));
#151=CARTESIAN_POINT('',(0.0436668056175134,0.100227711523891,0.00360347670350353));
#152=CARTESIAN_POINT('',(0.033672997636544,0.10020632093773,0.00611927963053574));
#153=CARTESIAN_POINT('',(0.0262321324649353,0.100191956425314,0.00840855699261274));
#154=CARTESIAN_POINT('',(0.0187007815124281,0.100164300714785,0.0100955848174405));
#155=CARTESIAN_POINT('',(0.013482193512236,0.100126686633829,0.0101570313402557));
#156=CARTESIAN_POINT('',(0.010901715606451,0.100108474493027,0.0102121150121093));
#157=AXIS2_PLACEMENT_3D('',#163,#164,#165);
#158=DIRECTION('',(-0.0,-1.0,-0.0));
#159=DIRECTION('',(0.0927303496628133,-0.615278927999443,0.782836459939922));
#160=DIRECTION('',(0.920698102276828,0.00619181348346396,-0.390226429025039));
#161=DIRECTION('',(-0.0050068232662652,0.999953856580344,0.00819856273246279));
#162=DIRECTION('',(-0.53071299278795,0.725478794004585,-0.438205703677749));
#163=CARTESIAN_POINT('',(-0.00531327722103331,0.0760247717004542,0.0354211347131628));
#164=DIRECTION('',(-0.742655544195442,0.65343599911949,0.146574683115762));
#165=DIRECTION('',(-0.660570419325651,-0.750764091517391,0.0));
ENDSEC;
END-ISO-10303-21;
