ISO-10303-21;
HEADER;
FILE_DESCRIPTION(('STEP AP214'),'1');
FILE_NAME('SMAStripDeformed_02.stp','2026-05-20T04:14:04',(' '),(' '),'Spatial InterOp 3D',' ',' ');
FILE_SCHEMA(('AUTOMOTIVE_DESIGN { 1 0 10303 214 1 1 1 1 }'));
ENDSEC;
DATA;
#1=PRODUCT_DEFINITION_CONTEXT('',#9,'design');
#2=APPLICATION_PROTOCOL_DEFINITION('INTERNATIONAL STANDARD','automotive_design',1994,#9);
#3=PRODUCT_CATEGORY_RELATIONSHIP('NONE','NONE',#10,#11);
#4=SHAPE_DEFINITION_REPRESENTATION(#12,#13);
#5= (GEOMETRIC_REPRESENTATION_CONTEXT(3)GLOBAL_UNCERTAINTY_ASSIGNED_CONTEXT((#16))GLOBAL_UNIT_ASSIGNED_CONTEXT((#18,#19,#20))REPRESENTATION_CONTEXT('NONE','WORKSPACE'));
#9=APPLICATION_CONTEXT(' ');
#10=PRODUCT_CATEGORY('part','NONE');
#11=PRODUCT_RELATED_PRODUCT_CATEGORY('detail',' ',(#22));
#12=PRODUCT_DEFINITION_SHAPE('NONE','NONE',#23);
#13=MANIFOLD_SURFACE_SHAPE_REPRESENTATION('1',(#24,#25),#5);
#16=UNCERTAINTY_MEASURE_WITH_UNIT(LENGTH_MEASURE(1.0E-06),#18,'','');
#18= (CONVERSION_BASED_UNIT('MILLIMETRE',#28)LENGTH_UNIT()NAMED_UNIT(#31));
#19= (NAMED_UNIT(#33)PLANE_ANGLE_UNIT()SI_UNIT($,.RADIAN.));
#20= (NAMED_UNIT(#33)SOLID_ANGLE_UNIT()SI_UNIT($,.STERADIAN.));
#22=PRODUCT('1','','PART--DESC',(#39));
#23=PRODUCT_DEFINITION('','NONE',#40,#1);
#24=SHELL_BASED_SURFACE_MODEL('1',(#41));
#25=AXIS2_PLACEMENT_3D('',#42,#43,#44);
#28=LENGTH_MEASURE_WITH_UNIT(LENGTH_MEASURE(1.0),#45);
#31=DIMENSIONAL_EXPONENTS(1.0,0.0,0.0,0.0,0.0,0.0,0.0);
#33=DIMENSIONAL_EXPONENTS(0.0,0.0,0.0,0.0,0.0,0.0,0.0);
#39=PRODUCT_CONTEXT('',#9,'mechanical');
#40=PRODUCT_DEFINITION_FORMATION_WITH_SPECIFIED_SOURCE(' ','NONE',#22,.NOT_KNOWN.);
#41=CLOSED_SHELL('',(#46));
#42=CARTESIAN_POINT('',(0.0,0.0,0.0));
#43=DIRECTION('',(0.0,0.0,1.0));
#44=DIRECTION('',(1.0,0.0,0.0));
#45= (NAMED_UNIT(#31)LENGTH_UNIT()SI_UNIT(.MILLI.,.METRE.));
#46=FACE_SURFACE('',(#48),#49,.T.);
#48=FACE_BOUND('',#50,.T.);
#49=CYLINDRICAL_SURFACE('',#51,2.0269041934633);
#50=EDGE_LOOP('',(#52,#53,#54,#55,#56));
#51=AXIS2_PLACEMENT_3D('',#57,#58,#59);
#52=ORIENTED_EDGE('',*,*,#60,.T.);
#53=ORIENTED_EDGE('',*,*,#61,.T.);
#54=ORIENTED_EDGE('',*,*,#62,.T.);
#55=ORIENTED_EDGE('',*,*,#63,.T.);
#56=ORIENTED_EDGE('',*,*,#64,.T.);
#57=CARTESIAN_POINT('',(-0.0430056621070211,-2.19146259059393E-05,-2.02512099937152));
#58=DIRECTION('',(-2.62036766390411E-05,-0.999999999591956,1.13778830819142E-05));
#59=DIRECTION('',(4.3801532453374E-26,1.13778830858204E-05,0.999999999935272));
#60=EDGE_CURVE('',#65,#66,#67,.T.);
#61=EDGE_CURVE('',#66,#68,#69,.T.);
#62=EDGE_CURVE('',#68,#70,#71,.T.);
#63=EDGE_CURVE('',#70,#72,#73,.T.);
#64=EDGE_CURVE('',#72,#65,#74,.T.);
#65=VERTEX_POINT('',#75);
#66=VERTEX_POINT('',#76);
#67=B_SPLINE_CURVE_WITH_KNOTS('',3,(#77,#78,#79,#80,#81,#82,#83,#84,#85,#86,#87,#88),.UNSPECIFIED.,.F.,.F.,(4,1,1,1,1,1,1,1,1,4),(0.0,0.125083917946144,0.250167835892288,0.375251753838432,0.500335671784576,0.62541958973072,0.750503507676864,0.875587425623009,0.938129384596081,1.00067134356915),.UNSPECIFIED.);
#68=VERTEX_POINT('',#89);
#69=LINE('',#90,#91);
#70=VERTEX_POINT('',#92);
#71=LINE('',#93,#94);
#72=VERTEX_POINT('',#95);
#73=B_SPLINE_CURVE_WITH_KNOTS('',3,(#96,#97,#98,#99,#100,#101,#102,#103,#104,#105,#106),.UNSPECIFIED.,.F.,.F.,(4,1,1,1,1,1,1,1,4),(0.0,0.12508409229713,0.250168184594259,0.375252276891389,0.500336369188519,0.625420461485648,0.750504553782778,0.875588646079908,1.00067273837704),.UNSPECIFIED.);
#74=LINE('',#107,#108);
#75=CARTESIAN_POINT('',(0.955785751342773,0.100021697580814,-0.260270833969116));
#76=CARTESIAN_POINT('',(-1.66051312054092E-36,0.100011207163334,5.83700001238419E-38));
#77=CARTESIAN_POINT('',(0.955785751342773,0.100021697580814,-0.260270833969116));
#78=CARTESIAN_POINT('',(0.919165289814846,0.100027868139616,-0.240336323514993));
#79=CARTESIAN_POINT('',(0.84496101854978,0.100028989586907,-0.20222900083644));
#80=CARTESIAN_POINT('',(0.730638659886192,0.10003572045703,-0.151345242612503));
#81=CARTESIAN_POINT('',(0.613617289422819,0.100038962395146,-0.107017377028211));
#82=CARTESIAN_POINT('',(0.494164872877627,0.100040931500826,-0.0697129872314363));
#83=CARTESIAN_POINT('',(0.372636992532835,0.100041492266637,-0.0398424124085816));
#84=CARTESIAN_POINT('',(0.2494430152837,0.10003903124189,-0.0177903124716063));
#85=CARTESIAN_POINT('',(0.145785707860204,0.100040164363788,-0.00629358295980814));
#86=CARTESIAN_POINT('',(0.0625330141044855,0.100031370939854,-0.00126184163598724));
#87=CARTESIAN_POINT('',(0.0208449929656336,0.100046710303126,-0.000309426404318279));
#88=CARTESIAN_POINT('',(-1.66051312054092E-36,0.100011207163334,5.83700001238419E-38));
#89=CARTESIAN_POINT('',(-2.00472516743278E-33,0.0100011210888624,2.97978565507212E-34));
#90=CARTESIAN_POINT('',(4.04688817690031E-34,0.0550061641260982,8.11183855918498E-35));
#91=VECTOR('',#109,1.0);
#92=CARTESIAN_POINT('',(-2.0124019783907E-07,-1.12057687147171E-05,-5.57948878849857E-05));
#93=CARTESIAN_POINT('',(-1.00620098919535E-07,0.00499495766007385,-2.78974439424928E-05));
#94=VECTOR('',#110,1.0);
#95=CARTESIAN_POINT('',(0.955787479877472,-2.15445288631599E-05,-0.260271191596985));
#96=CARTESIAN_POINT('',(-2.0124019783907E-07,-1.12057687147171E-05,-5.57948878849857E-05));
#97=CARTESIAN_POINT('',(0.0416931733171938,-8.19167066614713E-05,-0.000380312927027876));
#98=CARTESIAN_POINT('',(0.125054898559046,-1.53763653800403E-05,-0.00398026240315575));
#99=CARTESIAN_POINT('',(0.249443852497238,-4.54345661726868E-05,-0.017793755916785));
#100=CARTESIAN_POINT('',(0.372637997206086,-3.93379615528878E-05,-0.0398412406074212));
#101=CARTESIAN_POINT('',(0.494166028764145,-4.0966618383325E-05,-0.0697131774050061));
#102=CARTESIAN_POINT('',(0.613618614395815,-3.83781728985741E-05,-0.10701728199325));
#103=CARTESIAN_POINT('',(0.730640096336566,-3.53267519835788E-05,-0.151345425518582));
#104=CARTESIAN_POINT('',(0.844962652288868,-2.86564878486835E-05,-0.202229155766519));
#105=CARTESIAN_POINT('',(0.919166904696724,-2.76548637294449E-05,-0.240336768352948));
#106=CARTESIAN_POINT('',(0.955787479877472,-2.15445288631599E-05,-0.260271191596985));
#107=CARTESIAN_POINT('',(0.955865412950516,0.0500000765259756,-0.260121613740921));
#108=VECTOR('',#111,1.0);
#109=DIRECTION('',(-0.0,-1.0,-0.0));
#110=DIRECTION('',(-2.00989316537833E-05,-0.999984473115599,-0.00557253297438921));
#111=DIRECTION('',(-8.51436453391223E-06,0.999999999963635,-4.85543524854404E-07));
ENDSEC;
END-ISO-10303-21;
