ISO-10303-21;
HEADER;
FILE_DESCRIPTION(('STEP AP214'),'1');
FILE_NAME('SMAStripDeformed_04.stp','2026-05-05T07:56:07',(' '),(' '),'Spatial InterOp 3D',' ',' ');
FILE_SCHEMA(('AUTOMOTIVE_DESIGN { 1 0 10303 214 1 1 1 1 }'));
ENDSEC;
DATA;
#1=PRODUCT_DEFINITION_CONTEXT('',#9,'design');
#2=APPLICATION_PROTOCOL_DEFINITION('INTERNATIONAL STANDARD','automotive_design',1994,#9);
#3=PRODUCT_CATEGORY_RELATIONSHIP('NONE','NONE',#10,#11);
#4=SHAPE_DEFINITION_REPRESENTATION(#12,#13);
#5= (GEOMETRIC_REPRESENTATION_CONTEXT(3)GLOBAL_UNCERTAINTY_ASSIGNED_CONTEXT((#16))GLOBAL_UNIT_ASSIGNED_CONTEXT((#18,#19,#20))REPRESENTATION_CONTEXT('NONE','WORKSPACE'));
#9=APPLICATION_CONTEXT(' ');
#10=PRODUCT_CATEGORY('part','NONE');
#11=PRODUCT_RELATED_PRODUCT_CATEGORY('detail',' ',(#22));
#12=PRODUCT_DEFINITION_SHAPE('NONE','NONE',#23);
#13=MANIFOLD_SURFACE_SHAPE_REPRESENTATION('1',(#24,#25),#5);
#16=UNCERTAINTY_MEASURE_WITH_UNIT(LENGTH_MEASURE(1.0E-06),#18,'','');
#18= (CONVERSION_BASED_UNIT('MILLIMETRE',#28)LENGTH_UNIT()NAMED_UNIT(#31));
#19= (NAMED_UNIT(#33)PLANE_ANGLE_UNIT()SI_UNIT($,.RADIAN.));
#20= (NAMED_UNIT(#33)SOLID_ANGLE_UNIT()SI_UNIT($,.STERADIAN.));
#22=PRODUCT('1','','PART--DESC',(#39));
#23=PRODUCT_DEFINITION('','NONE',#40,#1);
#24=SHELL_BASED_SURFACE_MODEL('1',(#41));
#25=AXIS2_PLACEMENT_3D('',#42,#43,#44);
#28=LENGTH_MEASURE_WITH_UNIT(LENGTH_MEASURE(1.0),#45);
#31=DIMENSIONAL_EXPONENTS(1.0,0.0,0.0,0.0,0.0,0.0,0.0);
#33=DIMENSIONAL_EXPONENTS(0.0,0.0,0.0,0.0,0.0,0.0,0.0);
#39=PRODUCT_CONTEXT('',#9,'mechanical');
#40=PRODUCT_DEFINITION_FORMATION_WITH_SPECIFIED_SOURCE(' ','NONE',#22,.NOT_KNOWN.);
#41=CLOSED_SHELL('',(#46));
#42=CARTESIAN_POINT('',(0.0,0.0,0.0));
#43=DIRECTION('',(0.0,0.0,1.0));
#44=DIRECTION('',(1.0,0.0,0.0));
#45= (NAMED_UNIT(#31)LENGTH_UNIT()SI_UNIT(.MILLI.,.METRE.));
#46=FACE_SURFACE('',(#48),#49,.T.);
#48=FACE_BOUND('',#50,.T.);
#49=CYLINDRICAL_SURFACE('',#51,1.37557367264555);
#50=EDGE_LOOP('',(#52,#53,#54,#55,#56,#57,#58,#59));
#51=AXIS2_PLACEMENT_3D('',#60,#61,#62);
#52=ORIENTED_EDGE('',*,*,#63,.T.);
#53=ORIENTED_EDGE('',*,*,#64,.T.);
#54=ORIENTED_EDGE('',*,*,#65,.T.);
#55=ORIENTED_EDGE('',*,*,#66,.T.);
#56=ORIENTED_EDGE('',*,*,#67,.T.);
#57=ORIENTED_EDGE('',*,*,#68,.T.);
#58=ORIENTED_EDGE('',*,*,#69,.T.);
#59=ORIENTED_EDGE('',*,*,#70,.T.);
#60=CARTESIAN_POINT('',(-0.120070339317592,-0.000132364975357867,-1.36407641530648));
#61=DIRECTION('',(0.00142619580023437,-0.999998982576069,-2.85020519308644E-05));
#62=DIRECTION('',(-7.02563508480586E-24,-2.85020809179865E-05,0.999999999593816));
#63=EDGE_CURVE('',#71,#72,#73,.T.);
#64=EDGE_CURVE('',#72,#74,#75,.T.);
#65=EDGE_CURVE('',#74,#76,#77,.T.);
#66=EDGE_CURVE('',#76,#78,#79,.T.);
#67=EDGE_CURVE('',#78,#80,#81,.T.);
#68=EDGE_CURVE('',#80,#82,#83,.T.);
#69=EDGE_CURVE('',#82,#84,#85,.T.);
#70=EDGE_CURVE('',#84,#71,#86,.T.);
#71=VERTEX_POINT('',#87);
#72=VERTEX_POINT('',#88);
#73=LINE('',#89,#90);
#74=VERTEX_POINT('',#91);
#75=LINE('',#92,#93);
#76=VERTEX_POINT('',#94);
#77=B_SPLINE_CURVE_WITH_KNOTS('',3,(#95,#96,#97,#98,#99,#100,#101,#102,#103,#104,#105,#106,#107,#108,#109,#110,#111,#112,#113,#114,#115,#116),.UNSPECIFIED.,.F.,.F.,(4,1,1,1,1,1,1,1,1,1,1,1,1,1,1,1,1,1,1,4),(0.0,0.125208617232583,0.250417234465165,0.375625851697748,0.50083446893033,0.563438777546621,0.626043086162912,0.688647394779204,0.751251703395495,0.813856012011786,0.845158166319932,0.876460320628077,0.907762474936223,0.939064629244369,0.954715706398441,0.970366783552514,0.978192322129551,0.986017860706587,0.993843399283624,1.00166893786066),.UNSPECIFIED.);
#78=VERTEX_POINT('',#117);
#79=LINE('',#118,#119);
#80=VERTEX_POINT('',#120);
#81=LINE('',#121,#122);
#82=VERTEX_POINT('',#123);
#83=CIRCLE('',#124,0.10464794230871);
#84=VERTEX_POINT('',#125);
#85=B_SPLINE_CURVE_WITH_KNOTS('',3,(#126,#127,#128,#129,#130,#131,#132,#133,#134,#135,#136),.UNSPECIFIED.,.F.,.F.,(4,1,1,1,1,1,1,1,4),(0.0,0.12512017335531,0.250240346710621,0.375360520065931,0.500480693421241,0.625600866776551,0.750721040131861,0.875841213487172,1.00096138684248),.UNSPECIFIED.);
#86=LINE('',#137,#138);
#87=CARTESIAN_POINT('',(-5.6906659571341E-34,0.0900089666247368,-1.14982013075014E-34));
#88=CARTESIAN_POINT('',(-1.20383751130294E-35,0.00999103579670191,-1.17383981956463E-34));
#89=CARTESIAN_POINT('',(-7.28914174629063E-35,0.0500000012107193,2.68525613233524E-35));
#90=VECTOR('',#139,1.0);
#91=CARTESIAN_POINT('',(0.000141640790388919,-9.95861682895338E-06,0.00354156806133687));
#92=CARTESIAN_POINT('',(7.08203951944597E-05,0.00499053858993648,0.00177078403066844));
#93=VECTOR('',#140,1.0);
#94=CARTESIAN_POINT('',(0.885315954685211,-3.17063968395814E-05,-0.417281806468964));
#95=CARTESIAN_POINT('',(0.000141640790388919,-9.95861682895338E-06,0.00354156806133687));
#96=CARTESIAN_POINT('',(0.0418135564790572,-0.000235572132136947,0.00123691813131739));
#97=CARTESIAN_POINT('',(0.124902053425591,-4.32548674080612E-06,-0.00795895498917136));
#98=CARTESIAN_POINT('',(0.247340433167417,-9.61077289291346E-05,-0.0349593619605487));
#99=CARTESIAN_POINT('',(0.366380136974104,-6.90835390355296E-05,-0.0742720367513157));
#100=CARTESIAN_POINT('',(0.461953177453768,-7.11156032370173E-05,-0.116420445238817));
#101=CARTESIAN_POINT('',(0.535877628375838,-6.67160948590105E-05,-0.155230692173593));
#102=CARTESIAN_POINT('',(0.589987691360424,-6.2742610867673E-05,-0.186746781843771));
#103=CARTESIAN_POINT('',(0.642706758848389,-5.84782505118723E-05,-0.220536240446572));
#104=CARTESIAN_POINT('',(0.693990746468368,-5.35098587606677E-05,-0.256464857180527));
#105=CARTESIAN_POINT('',(0.735499805267562,-4.98008915816882E-05,-0.288084622359168));
#106=CARTESIAN_POINT('',(0.767939823992342,-4.72881981313333E-05,-0.314347276234941));
#107=CARTESIAN_POINT('',(0.791871096698191,-4.45729610564736E-05,-0.33452732870334));
#108=CARTESIAN_POINT('',(0.815406454221853,-4.19481835838119E-05,-0.355165628398423));
#109=CARTESIAN_POINT('',(0.834645236448602,-3.94595033805929E-05,-0.372789500890769));
#110=CARTESIAN_POINT('',(0.84988442723482,-3.71648955945888E-05,-0.387031784911221));
#111=CARTESIAN_POINT('',(0.859186640711951,-3.54977972394307E-05,-0.396212210003653));
#112=CARTESIAN_POINT('',(0.866853071266469,-3.41978698797914E-05,-0.403223521934647));
#113=CARTESIAN_POINT('',(0.872080124862605,-3.25427726386289E-05,-0.409205607216107));
#114=CARTESIAN_POINT('',(0.877883041167169,-3.13613982881933E-05,-0.414331716814584));
#115=CARTESIAN_POINT('',(0.88290214790536,-3.16109968458559E-05,-0.416292930260293));
#116=CARTESIAN_POINT('',(0.885315954685211,-3.17063968395814E-05,-0.417281806468964));
#117=CARTESIAN_POINT('',(0.88532680273056,0.0399865172803402,-0.417194098234177));
#118=CARTESIAN_POINT('',(0.885321378707886,0.0199774054417503,-0.41723795235157));
#119=VECTOR('',#141,0.999999999999999);
#120=CARTESIAN_POINT('',(0.885331749916077,0.0599955730140209,-0.417150884866714));
#121=CARTESIAN_POINT('',(0.885329276323318,0.0499910451471806,-0.417172491550446));
#122=VECTOR('',#142,1.0);
#123=CARTESIAN_POINT('',(0.882941782474518,0.100015394389629,-0.419444262981415));
#124=AXIS2_PLACEMENT_3D('',#143,#144,#145);
#125=CARTESIAN_POINT('',(0.00017666413623374,0.100013144314289,0.00348411686718464));
#126=CARTESIAN_POINT('',(0.882941782474518,0.100015394389629,-0.419444262981415));
#127=CARTESIAN_POINT('',(0.853523271725653,0.100014810487724,-0.389880736644493));
#128=CARTESIAN_POINT('',(0.79249193718397,0.100021812056162,-0.332930676579106));
#129=CARTESIAN_POINT('',(0.694342344219229,0.100027871829283,-0.255165617143524));
#130=CARTESIAN_POINT('',(0.590355955455403,0.100039943115703,-0.185398002455966));
#131=CARTESIAN_POINT('',(0.480793258772093,0.100051551362165,-0.124720906123228));
#132=CARTESIAN_POINT('',(0.366171351737975,0.100054059308444,-0.0742124673349501));
#133=CARTESIAN_POINT('',(0.247206418884423,0.100085498156328,-0.0349565487024655));
#134=CARTESIAN_POINT('',(0.124849876373911,0.100001626757739,-0.00799790288511887));
#135=CARTESIAN_POINT('',(0.0418194033621671,0.100231804340628,0.00118513403782865));
#136=CARTESIAN_POINT('',(0.00017666413623374,0.100013144314289,0.00348411686718464));
#137=CARTESIAN_POINT('',(8.83320681168698E-05,0.0950110554695129,0.00174205843359232));
#138=VECTOR('',#146,1.0);
#139=DIRECTION('',(-0.0,-1.0,-0.0));
#140=DIRECTION('',(0.0133491187691358,-0.94255660300333,0.333779644620384));
#141=DIRECTION('',(0.000270481167030155,0.999997561560003,0.00219173766383505));
#142=DIRECTION('',(0.000247246741363413,0.999997637272483,0.00215970333628899));
#143=CARTESIAN_POINT('',(0.810748667838987,0.073441778925181,-0.4895096177788));
#144=DIRECTION('',(-0.696500993879053,-0.000653894137973163,0.717555529522244));
#145=DIRECTION('',(0.717555682927609,0.0,0.696501142783193));
#146=DIRECTION('',(-0.0166743060424531,-0.944236470711695,-0.328845639922328));
ENDSEC;
END-ISO-10303-21;
