ISO-10303-21;
HEADER;
FILE_DESCRIPTION(('STEP AP214'),'1');
FILE_NAME('SMAStripDeformed_09.stp','2026-05-05T08:02:37',(' '),(' '),'Spatial InterOp 3D',' ',' ');
FILE_SCHEMA(('AUTOMOTIVE_DESIGN { 1 0 10303 214 1 1 1 1 }'));
ENDSEC;
DATA;
#1=PRODUCT_DEFINITION_CONTEXT('',#9,'design');
#2=APPLICATION_PROTOCOL_DEFINITION('INTERNATIONAL STANDARD','automotive_design',1994,#9);
#3=PRODUCT_CATEGORY_RELATIONSHIP('NONE','NONE',#10,#11);
#4=SHAPE_DEFINITION_REPRESENTATION(#12,#13);
#5= (GEOMETRIC_REPRESENTATION_CONTEXT(3)GLOBAL_UNCERTAINTY_ASSIGNED_CONTEXT((#16))GLOBAL_UNIT_ASSIGNED_CONTEXT((#18,#19,#20))REPRESENTATION_CONTEXT('NONE','WORKSPACE'));
#9=APPLICATION_CONTEXT(' ');
#10=PRODUCT_CATEGORY('part','NONE');
#11=PRODUCT_RELATED_PRODUCT_CATEGORY('detail',' ',(#22));
#12=PRODUCT_DEFINITION_SHAPE('NONE','NONE',#23);
#13=MANIFOLD_SURFACE_SHAPE_REPRESENTATION('1',(#24,#25),#5);
#16=UNCERTAINTY_MEASURE_WITH_UNIT(LENGTH_MEASURE(1.0E-06),#18,'','');
#18= (CONVERSION_BASED_UNIT('MILLIMETRE',#28)LENGTH_UNIT()NAMED_UNIT(#31));
#19= (NAMED_UNIT(#33)PLANE_ANGLE_UNIT()SI_UNIT($,.RADIAN.));
#20= (NAMED_UNIT(#33)SOLID_ANGLE_UNIT()SI_UNIT($,.STERADIAN.));
#22=PRODUCT('1','','PART--DESC',(#39));
#23=PRODUCT_DEFINITION('','NONE',#40,#1);
#24=SHELL_BASED_SURFACE_MODEL('1',(#41));
#25=AXIS2_PLACEMENT_3D('',#42,#43,#44);
#28=LENGTH_MEASURE_WITH_UNIT(LENGTH_MEASURE(1.0),#45);
#31=DIMENSIONAL_EXPONENTS(1.0,0.0,0.0,0.0,0.0,0.0,0.0);
#33=DIMENSIONAL_EXPONENTS(0.0,0.0,0.0,0.0,0.0,0.0,0.0);
#39=PRODUCT_CONTEXT('',#9,'mechanical');
#40=PRODUCT_DEFINITION_FORMATION_WITH_SPECIFIED_SOURCE(' ','NONE',#22,.NOT_KNOWN.);
#41=CLOSED_SHELL('',(#46));
#42=CARTESIAN_POINT('',(0.0,0.0,0.0));
#43=DIRECTION('',(0.0,0.0,1.0));
#44=DIRECTION('',(1.0,0.0,0.0));
#45= (NAMED_UNIT(#31)LENGTH_UNIT()SI_UNIT(.MILLI.,.METRE.));
#46=FACE_SURFACE('',(#48),#49,.T.);
#48=FACE_BOUND('',#50,.T.);
#49=CONICAL_SURFACE('',#51,9.92086916358731,1.17622323645129);
#50=EDGE_LOOP('',(#52,#53,#54,#55,#56,#57,#58,#59));
#51=AXIS2_PLACEMENT_3D('',#60,#61,#62);
#52=ORIENTED_EDGE('',*,*,#63,.T.);
#53=ORIENTED_EDGE('',*,*,#64,.T.);
#54=ORIENTED_EDGE('',*,*,#65,.T.);
#55=ORIENTED_EDGE('',*,*,#66,.T.);
#56=ORIENTED_EDGE('',*,*,#67,.T.);
#57=ORIENTED_EDGE('',*,*,#68,.T.);
#58=ORIENTED_EDGE('',*,*,#69,.T.);
#59=ORIENTED_EDGE('',*,*,#70,.T.);
#60=CARTESIAN_POINT('',(-1.87809169955277,-0.813064516573386,-3.30712555653265));
#61=DIRECTION('',(-0.560768135283427,-0.334396964825091,-0.757441594029873));
#62=DIRECTION('',(0.803709275784857,-2.99373132407558E-17,-0.595022184474983));
#63=EDGE_CURVE('',#71,#72,#73,.T.);
#64=EDGE_CURVE('',#72,#74,#75,.T.);
#65=EDGE_CURVE('',#74,#76,#77,.T.);
#66=EDGE_CURVE('',#76,#78,#79,.T.);
#67=EDGE_CURVE('',#78,#80,#81,.T.);
#68=EDGE_CURVE('',#80,#82,#83,.T.);
#69=EDGE_CURVE('',#82,#84,#85,.T.);
#70=EDGE_CURVE('',#84,#71,#86,.T.);
#71=VERTEX_POINT('',#87);
#72=VERTEX_POINT('',#88);
#73=LINE('',#89,#90);
#74=VERTEX_POINT('',#91);
#75=LINE('',#92,#93);
#76=VERTEX_POINT('',#94);
#77=LINE('',#95,#96);
#78=VERTEX_POINT('',#97);
#79=B_SPLINE_CURVE_WITH_KNOTS('',3,(#98,#99,#100,#101,#102,#103,#104,#105,#106,#107,#108,#109,#110,#111,#112,#113,#114,#115,#116,#117,#118,#119,#120,#121,#122,#123,#124,#125,#126,#127,#128),.UNSPECIFIED.,.F.,.F.,(4,1,1,1,1,1,1,1,1,1,1,1,1,1,1,1,1,1,1,1,1,1,1,1,1,1,1,1,4),(0.0,0.00774514479990879,0.0154902895998176,0.0232354343997264,0.0309805791996352,0.0464708687994528,0.0619611583992703,0.0929417375989055,0.123922316798541,0.154902895998176,0.185883475197811,0.247844633597081,0.309805791996352,0.371766950395622,0.433728108794892,0.495689267194163,0.619611583992703,0.681572742391974,0.743533900791244,0.805495059190515,0.867456217589785,0.89843679678942,0.929417375989055,0.944907665588873,0.96039795518869,0.968143099988599,0.975888244788508,0.983633389588417,0.991378534388326),.UNSPECIFIED.);
#80=VERTEX_POINT('',#129);
#81=CIRCLE('',#130,0.0394113278448958);
#82=VERTEX_POINT('',#131);
#83=LINE('',#132,#133);
#84=VERTEX_POINT('',#134);
#85=LINE('',#135,#136);
#86=B_SPLINE_CURVE_WITH_KNOTS('',3,(#137,#138,#139,#140,#141,#142,#143,#144,#145,#146,#147,#148,#149,#150,#151,#152,#153,#154,#155,#156,#157),.UNSPECIFIED.,.F.,.F.,(4,1,1,1,1,1,1,1,1,1,1,1,1,1,1,1,1,1,4),(0.0,0.00767194987797427,0.0153438997559485,0.0230158496339228,0.0306877995118971,0.0460316992678456,0.0613755990237942,0.0920633985356912,0.122751198047588,0.153438997559485,0.184126797071382,0.245502396095177,0.306877995118971,0.368253594142765,0.491004792190353,0.613755990237942,0.73650718828553,0.859258386333118,0.982009584380707),.UNSPECIFIED.);
#87=CARTESIAN_POINT('',(0.756773829460144,0.00069374474696815,-0.570854783058167));
#88=CARTESIAN_POINT('',(0.776982009410858,0.000817645050119609,-0.579876959323883));
#89=CARTESIAN_POINT('',(0.766877919435501,0.000755694898543879,-0.575365871191025));
#90=VECTOR('',#158,1.0);
#91=CARTESIAN_POINT('',(0.776864171028137,0.0905828252434731,-0.580118536949158));
#92=CARTESIAN_POINT('',(0.776896893978119,0.0457002351467963,-0.57999774813652));
#93=VECTOR('',#159,1.0);
#94=CARTESIAN_POINT('',(0.769391119480133,0.100683368742466,-0.585333287715912));
#95=CARTESIAN_POINT('',(0.773127645254135,0.0956330969929695,-0.582725912332535));
#96=VECTOR('',#160,1.0);
#97=CARTESIAN_POINT('',(0.0108861038461328,0.100108817219734,0.01014703232795));
#98=CARTESIAN_POINT('',(0.769391119480133,0.100683368742466,-0.585333287715912));
#99=CARTESIAN_POINT('',(0.767336107268097,0.100681128710591,-0.58377054276312));
#100=CARTESIAN_POINT('',(0.763053137827425,0.100677278160868,-0.580616531821279));
#101=CARTESIAN_POINT('',(0.75869849154112,0.100651811463464,-0.574306180882346));
#102=CARTESIAN_POINT('',(0.755115651035503,0.100622969463696,-0.567314431390333));
#103=CARTESIAN_POINT('',(0.749464161840196,0.10060198999144,-0.558720847353909));
#104=CARTESIAN_POINT('',(0.742756224675308,0.100574896150624,-0.547663358046458));
#105=CARTESIAN_POINT('',(0.731601346873704,0.100544877877326,-0.530291710426389));
#106=CARTESIAN_POINT('',(0.717451691338157,0.100516114209975,-0.508691224252559));
#107=CARTESIAN_POINT('',(0.699957764314565,0.100488527258675,-0.483122239965288));
#108=CARTESIAN_POINT('',(0.682009391670456,0.100459127999905,-0.457868474812265));
#109=CARTESIAN_POINT('',(0.657443604489327,0.100416922050289,-0.424657437625348));
#110=CARTESIAN_POINT('',(0.625523593785969,0.100363537979212,-0.384057345693812));
#111=CARTESIAN_POINT('',(0.58511374056381,0.100299946962124,-0.337065267631026));
#112=CARTESIAN_POINT('',(0.542522978993722,0.100262766101129,-0.292035898188144));
#113=CARTESIAN_POINT('',(0.497599518670534,0.100212416591162,-0.249329512787696));
#114=CARTESIAN_POINT('',(0.434825393364557,0.100164214982188,-0.195577858785328));
#115=CARTESIAN_POINT('',(0.367972156353684,0.100139019698031,-0.1468496364334));
#116=CARTESIAN_POINT('',(0.29759736968514,0.100128116197985,-0.103521570620231));
#117=CARTESIAN_POINT('',(0.243160736831582,0.100112955123755,-0.0738788981804129));
#118=CARTESIAN_POINT('',(0.187174063282273,0.100075058035518,-0.0472769881189764));
#119=CARTESIAN_POINT('',(0.13933343755319,0.100091346211929,-0.0277905348187186));
#120=CARTESIAN_POINT('',(0.100423263629803,0.100172861860986,-0.0139139703185218));
#121=CARTESIAN_POINT('',(0.0758617760193608,0.100218770534678,-0.00594029223790935));
#122=CARTESIAN_POINT('',(0.0560672164688889,0.10023078941896,-6.33511665580266E-05));
#123=CARTESIAN_POINT('',(0.0436607875822904,0.100226424258439,0.0035488859522475));
#124=CARTESIAN_POINT('',(0.0336638306117005,0.100205986938289,0.00606163801138021));
#125=CARTESIAN_POINT('',(0.0262206695488918,0.100191755572543,0.00834981130024984));
#126=CARTESIAN_POINT('',(0.0186871765869573,0.10016408527266,0.0100347531365734));
#127=CARTESIAN_POINT('',(0.0134671970208036,0.100126852553576,0.0100933224849035));
#128=CARTESIAN_POINT('',(0.0108861038461328,0.100108817219734,0.01014703232795));
#129=CARTESIAN_POINT('',(-2.11952491000679E-34,0.0900089666247368,1.287456743907E-34));
#130=AXIS2_PLACEMENT_3D('',#161,#162,#163);
#131=CARTESIAN_POINT('',(-9.13719277925412E-35,0.00999103579670191,-1.81819956055422E-34));
#132=CARTESIAN_POINT('',(-4.21078492059482E-35,0.0500000012107193,2.43345697719445E-36));
#133=VECTOR('',#164,1.0);
#134=CARTESIAN_POINT('',(0.00149492837954313,5.9419153330964E-06,0.0126595851033926));
#135=CARTESIAN_POINT('',(0.000747464189771563,0.0049984888560175,0.0063297925516963));
#136=VECTOR('',#165,1.0);
#137=CARTESIAN_POINT('',(0.00149492837954313,5.9419153330964E-06,0.0126595851033926));
#138=CARTESIAN_POINT('',(0.00405033989017288,-2.40254801694254E-05,0.0127536185661593));
#139=CARTESIAN_POINT('',(0.00924234120803545,-8.49589629369355E-05,0.0130033974285554));
#140=CARTESIAN_POINT('',(0.0167226028802545,-0.000163697368754648,0.0114999320092933));
#141=CARTESIAN_POINT('',(0.0241078669920173,-0.00022604805785993,0.00919663215591855));
#142=CARTESIAN_POINT('',(0.0340314544188569,-0.000287348129016515,0.00682916264168197));
#143=CARTESIAN_POINT('',(0.0463500896452607,-0.00032840215958887,0.00333635037514963));
#144=CARTESIAN_POINT('',(0.0660086628251014,-0.000334883602870465,-0.00230211708291882));
#145=CARTESIAN_POINT('',(0.0904097719330534,-0.000262564208727448,-0.00997962031975836));
#146=CARTESIAN_POINT('',(0.119413380840301,-0.000142134345086544,-0.0200107921978447));
#147=CARTESIAN_POINT('',(0.148111246968444,-8.66568030378651E-05,-0.0308922415984163));
#148=CARTESIAN_POINT('',(0.185942923376379,-7.56721830142828E-05,-0.0464907574786622));
#149=CARTESIAN_POINT('',(0.232374776794826,-0.000124302126673489,-0.0679871336802108));
#150=CARTESIAN_POINT('',(0.286593805331858,-0.000104421953144359,-0.0967974834226918));
#151=CARTESIAN_POINT('',(0.356736652004184,-2.45780170999672E-05,-0.139004350160272));
#152=CARTESIAN_POINT('',(0.44016487920716,3.51712086506711E-05,-0.198426664547237));
#153=CARTESIAN_POINT('',(0.532415206094882,0.000140541745891422,-0.279665582405359));
#154=CARTESIAN_POINT('',(0.615710833895113,0.000273442342561876,-0.370030117142885));
#155=CARTESIAN_POINT('',(0.690524787817909,0.000486644953792571,-0.46748118373328));
#156=CARTESIAN_POINT('',(0.735460032866439,0.000656684421805965,-0.535927329777961));
#157=CARTESIAN_POINT('',(0.756773829460144,0.00069374474696815,-0.570854783058167));
#158=DIRECTION('',(0.913112346927647,0.00559847036554498,-0.407669595405213));
#159=DIRECTION('',(-0.00112545667789204,0.999995615835887,-0.00273891516321062));
#160=DIRECTION('',(-0.549338963401739,0.742484119089592,-0.383332800825151));
#161=CARTESIAN_POINT('',(-0.00556007266971768,0.0755909614385403,0.0362554751845737));
#162=DIRECTION('',(-0.742575631451279,0.653642231341838,0.146059114680317));
#163=DIRECTION('',(-0.660727967953939,-0.750625440791516,-1.28578349916799E-17));
#164=DIRECTION('',(-0.0,-1.0,-0.0));
#165=DIRECTION('',(0.092321400035359,-0.616643485552261,0.781810444303138));
ENDSEC;
END-ISO-10303-21;
