ISO-10303-21;
HEADER;
FILE_DESCRIPTION(('STEP AP214'),'1');
FILE_NAME('SMAStripDeformed_05.stp','2026-05-05T07:57:23',(' '),(' '),'Spatial InterOp 3D',' ',' ');
FILE_SCHEMA(('AUTOMOTIVE_DESIGN { 1 0 10303 214 1 1 1 1 }'));
ENDSEC;
DATA;
#1=PRODUCT_DEFINITION_CONTEXT('',#9,'design');
#2=APPLICATION_PROTOCOL_DEFINITION('INTERNATIONAL STANDARD','automotive_design',1994,#9);
#3=PRODUCT_CATEGORY_RELATIONSHIP('NONE','NONE',#10,#11);
#4=SHAPE_DEFINITION_REPRESENTATION(#12,#13);
#5= (GEOMETRIC_REPRESENTATION_CONTEXT(3)GLOBAL_UNCERTAINTY_ASSIGNED_CONTEXT((#16))GLOBAL_UNIT_ASSIGNED_CONTEXT((#18,#19,#20))REPRESENTATION_CONTEXT('NONE','WORKSPACE'));
#9=APPLICATION_CONTEXT(' ');
#10=PRODUCT_CATEGORY('part','NONE');
#11=PRODUCT_RELATED_PRODUCT_CATEGORY('detail',' ',(#22));
#12=PRODUCT_DEFINITION_SHAPE('NONE','NONE',#23);
#13=MANIFOLD_SURFACE_SHAPE_REPRESENTATION('1',(#24,#25),#5);
#16=UNCERTAINTY_MEASURE_WITH_UNIT(LENGTH_MEASURE(1.0E-06),#18,'','');
#18= (CONVERSION_BASED_UNIT('MILLIMETRE',#28)LENGTH_UNIT()NAMED_UNIT(#31));
#19= (NAMED_UNIT(#33)PLANE_ANGLE_UNIT()SI_UNIT($,.RADIAN.));
#20= (NAMED_UNIT(#33)SOLID_ANGLE_UNIT()SI_UNIT($,.STERADIAN.));
#22=PRODUCT('1','','PART--DESC',(#39));
#23=PRODUCT_DEFINITION('','NONE',#40,#1);
#24=SHELL_BASED_SURFACE_MODEL('1',(#41));
#25=AXIS2_PLACEMENT_3D('',#42,#43,#44);
#28=LENGTH_MEASURE_WITH_UNIT(LENGTH_MEASURE(1.0),#45);
#31=DIMENSIONAL_EXPONENTS(1.0,0.0,0.0,0.0,0.0,0.0,0.0);
#33=DIMENSIONAL_EXPONENTS(0.0,0.0,0.0,0.0,0.0,0.0,0.0);
#39=PRODUCT_CONTEXT('',#9,'mechanical');
#40=PRODUCT_DEFINITION_FORMATION_WITH_SPECIFIED_SOURCE(' ','NONE',#22,.NOT_KNOWN.);
#41=CLOSED_SHELL('',(#46));
#42=CARTESIAN_POINT('',(0.0,0.0,0.0));
#43=DIRECTION('',(0.0,0.0,1.0));
#44=DIRECTION('',(1.0,0.0,0.0));
#45= (NAMED_UNIT(#31)LENGTH_UNIT()SI_UNIT(.MILLI.,.METRE.));
#46=FACE_SURFACE('',(#48),#49,.T.);
#48=FACE_BOUND('',#50,.T.);
#49=CYLINDRICAL_SURFACE('',#51,1.27674856447004);
#50=EDGE_LOOP('',(#52,#53,#54,#55,#56,#57,#58,#59,#60,#61));
#51=AXIS2_PLACEMENT_3D('',#62,#63,#64);
#52=ORIENTED_EDGE('',*,*,#65,.T.);
#53=ORIENTED_EDGE('',*,*,#66,.T.);
#54=ORIENTED_EDGE('',*,*,#67,.T.);
#55=ORIENTED_EDGE('',*,*,#68,.T.);
#56=ORIENTED_EDGE('',*,*,#69,.T.);
#57=ORIENTED_EDGE('',*,*,#70,.T.);
#58=ORIENTED_EDGE('',*,*,#71,.T.);
#59=ORIENTED_EDGE('',*,*,#72,.T.);
#60=ORIENTED_EDGE('',*,*,#73,.T.);
#61=ORIENTED_EDGE('',*,*,#74,.T.);
#62=CARTESIAN_POINT('',(-0.159028161020239,-0.000168525057671802,-1.25801177397198));
#63=DIRECTION('',(0.00218196276367806,-0.999997609453436,-0.000141865818633602));
#64=DIRECTION('',(0.0,-0.000141866156343658,0.999999989936997));
#65=EDGE_CURVE('',#75,#76,#77,.T.);
#66=EDGE_CURVE('',#76,#78,#79,.T.);
#67=EDGE_CURVE('',#78,#80,#81,.T.);
#68=EDGE_CURVE('',#80,#82,#83,.T.);
#69=EDGE_CURVE('',#82,#84,#85,.T.);
#70=EDGE_CURVE('',#84,#86,#87,.T.);
#71=EDGE_CURVE('',#86,#88,#89,.T.);
#72=EDGE_CURVE('',#88,#90,#91,.T.);
#73=EDGE_CURVE('',#90,#92,#93,.T.);
#74=EDGE_CURVE('',#92,#75,#94,.T.);
#75=VERTEX_POINT('',#95);
#76=VERTEX_POINT('',#96);
#77=LINE('',#97,#98);
#78=VERTEX_POINT('',#99);
#79=LINE('',#100,#101);
#80=VERTEX_POINT('',#102);
#81=LINE('',#103,#104);
#82=VERTEX_POINT('',#105);
#83=LINE('',#106,#107);
#84=VERTEX_POINT('',#108);
#85=LINE('',#109,#110);
#86=VERTEX_POINT('',#111);
#87=B_SPLINE_CURVE_WITH_KNOTS('',3,(#112,#113,#114,#115,#116,#117,#118,#119,#120,#121,#122,#123,#124,#125,#126,#127,#128,#129,#130,#131,#132,#133),.UNSPECIFIED.,.F.,.F.,(4,1,1,1,1,1,1,1,1,1,1,1,1,1,1,1,1,1,1,4),(0.0,0.125164223067377,0.250328446134755,0.375492669202132,0.500656892269509,0.563239003803198,0.625821115336886,0.688403226870575,0.750985338404264,0.813567449937952,0.844858505704797,0.876149561471641,0.907440617238485,0.93873167300533,0.954377200888752,0.970022728772174,0.977845492713885,0.985668256655596,0.993491020597307,1.00131378453902),.UNSPECIFIED.);
#88=VERTEX_POINT('',#134);
#89=LINE('',#135,#136);
#90=VERTEX_POINT('',#137);
#91=LINE('',#138,#139);
#92=VERTEX_POINT('',#140);
#93=LINE('',#141,#142);
#94=B_SPLINE_CURVE_WITH_KNOTS('',3,(#143,#144,#145,#146,#147,#148,#149,#150,#151,#152,#153,#154,#155,#156,#157,#158,#159,#160,#161,#162,#163,#164),.UNSPECIFIED.,.F.,.F.,(4,1,1,1,1,1,1,1,1,1,1,1,1,1,1,1,1,1,1,4),(0.0,0.00775061404342492,0.0155012280868498,0.0232518421302748,0.0310024561736997,0.0465036842605495,0.0620049123473994,0.0930073685210991,0.124009824694799,0.155012280868498,0.186014737042198,0.248019649389598,0.310024561736997,0.372029474084396,0.434034386431796,0.496039298779195,0.620049123473994,0.744058948168793,0.868068772863592,0.99207859755839),.UNSPECIFIED.);
#95=CARTESIAN_POINT('',(0.843898713588715,-5.38863896508701E-05,-0.465719729661942));
#96=CARTESIAN_POINT('',(0.85405957698822,-5.23617345606908E-05,-0.469588071107864));
#97=CARTESIAN_POINT('',(0.848979145288467,-5.31240621057805E-05,-0.467653900384903));
#98=VECTOR('',#165,1.0);
#99=CARTESIAN_POINT('',(0.854069709777832,0.0199568718671799,-0.469544470310211));
#100=CARTESIAN_POINT('',(0.854064643383026,0.00995225506630959,-0.469566270709038));
#101=VECTOR('',#166,1.0);
#102=CARTESIAN_POINT('',(0.854084134101868,0.0499707087874413,-0.469479709863663));
#103=CARTESIAN_POINT('',(0.85407692193985,0.0349637903273106,-0.469512090086937));
#104=VECTOR('',#167,1.0);
#105=CARTESIAN_POINT('',(0.853581368923187,0.0902503579854965,-0.469834327697754));
#106=CARTESIAN_POINT('',(0.854088425636292,0.0701105333864689,-0.469420522451401));
#107=VECTOR('',#168,1.0);
#108=CARTESIAN_POINT('',(0.849689424037933,0.0999928191304207,-0.473007053136826));
#109=CARTESIAN_POINT('',(0.85163539648056,0.0951215885579586,-0.47142069041729));
#110=VECTOR('',#169,1.0);
#111=CARTESIAN_POINT('',(0.00017666413623374,0.100013144314289,0.00348411686718464));
#112=CARTESIAN_POINT('',(0.849689424037933,0.0999928191304207,-0.473007053136826));
#113=CARTESIAN_POINT('',(0.82342642120201,0.0999954630221176,-0.440588994363784));
#114=CARTESIAN_POINT('',(0.768173297532167,0.100006281349464,-0.377952238860028));
#115=CARTESIAN_POINT('',(0.676917467338917,0.100018864165492,-0.292086985640437));
#116=CARTESIAN_POINT('',(0.578289944658171,0.100031544830299,-0.214822831147349));
#117=CARTESIAN_POINT('',(0.490612001952852,0.100047058690407,-0.158117568870849));
#118=CARTESIAN_POINT('',(0.417444294616654,0.100054251766402,-0.117949263441312));
#119=CARTESIAN_POINT('',(0.361138062319212,0.100062170492132,-0.0905880572456497));
#120=CARTESIAN_POINT('',(0.30350081297219,0.100077229213286,-0.066151225481216));
#121=CARTESIAN_POINT('',(0.244650142834692,0.100081283014054,-0.04479798012611));
#122=CARTESIAN_POINT('',(0.194710037180053,0.100060562389626,-0.029701304832723));
#123=CARTESIAN_POINT('',(0.154297127340927,0.1000638506373,-0.0193179846028651));
#124=CARTESIAN_POINT('',(0.123778417430893,0.100084912186209,-0.0123905854912273));
#125=CARTESIAN_POINT('',(0.0930739651256585,0.100132689240283,-0.00635522393837229));
#126=CARTESIAN_POINT('',(0.0673502143353627,0.100163114625313,-0.00202742876178191));
#127=CARTESIAN_POINT('',(0.046706849270945,0.100160283273079,0.000895791394974601));
#128=CARTESIAN_POINT('',(0.0337708860196705,0.100148402789289,0.00273135482154844));
#129=CARTESIAN_POINT('',(0.0234255333910817,0.100117666390084,0.00367511782008211));
#130=CARTESIAN_POINT('',(0.0156268329162236,0.100097437455949,0.00504784350438953));
#131=CARTESIAN_POINT('',(0.00787808798810569,0.100068032047228,0.00548238913855338));
#132=CARTESIAN_POINT('',(0.00270683841156365,0.100030893650658,0.00411452798219795));
#133=CARTESIAN_POINT('',(0.00017666413623374,0.100013144314289,0.00348411686718464));
#134=CARTESIAN_POINT('',(-2.63224776559789E-34,0.0900089666247368,-1.66876288970164E-34));
#135=CARTESIAN_POINT('',(8.83320681168698E-05,0.0950110554695129,0.00174205843359232));
#136=VECTOR('',#170,1.0);
#137=CARTESIAN_POINT('',(-1.01083394905948E-33,0.00999103579670191,-3.24716056953878E-34));
#138=CARTESIAN_POINT('',(-7.80746817426855E-35,0.0500000012107193,5.72408007282245E-35));
#139=VECTOR('',#171,1.0);
#140=CARTESIAN_POINT('',(0.000141640790388919,-9.95861682895338E-06,0.00354156806133687));
#141=CARTESIAN_POINT('',(7.08203951944597E-05,0.00499053858993648,0.00177078403066844));
#142=VECTOR('',#172,1.0);
#143=CARTESIAN_POINT('',(0.000141640790388919,-9.95861682895338E-06,0.00354156806133687));
#144=CARTESIAN_POINT('',(0.00265176930571609,-2.77986902690485E-05,0.00415280061982699));
#145=CARTESIAN_POINT('',(0.00777876927091286,-6.50585892060322E-05,0.00547695370530628));
#146=CARTESIAN_POINT('',(0.0154563220424501,-9.56478627487837E-05,0.00508420148618124));
#147=CARTESIAN_POINT('',(0.023182508313798,-0.000116469681627516,0.00371669576123229));
#148=CARTESIAN_POINT('',(0.0334336617129205,-0.000148433298852648,0.00278142483755502));
#149=CARTESIAN_POINT('',(0.0462505944293553,-0.000161553555621392,0.00097306610191848));
#150=CARTESIAN_POINT('',(0.0667054944372884,-0.000166478966529369,-0.00191197628220033));
#151=CARTESIAN_POINT('',(0.0921952523234003,-0.000138028498162153,-0.00617908896735536));
#152=CARTESIAN_POINT('',(0.122622834636031,-9.13544958173474E-05,-0.0121265750889414));
#153=CARTESIAN_POINT('',(0.152869019398496,-7.08740006799584E-05,-0.0189501992525787));
#154=CARTESIAN_POINT('',(0.192925168095934,-6.93651945700568E-05,-0.0291751341842884));
#155=CARTESIAN_POINT('',(0.24243298067199,-9.38770937891686E-05,-0.0440374490163881));
#156=CARTESIAN_POINT('',(0.300790394141138,-9.5481972463985E-05,-0.0650557065125446));
#157=CARTESIAN_POINT('',(0.357962820847833,-8.44222521592988E-05,-0.0891082287968051));
#158=CARTESIAN_POINT('',(0.413835007543388,-8.02595369879046E-05,-0.116040244016959));
#159=CARTESIAN_POINT('',(0.486466890702633,-7.82365460096669E-05,-0.155583119980751));
#160=CARTESIAN_POINT('',(0.573558266773149,-6.89338005381573E-05,-0.211417617745615));
#161=CARTESIAN_POINT('',(0.671629461490545,-6.35710549482473E-05,-0.287512882611342));
#162=CARTESIAN_POINT('',(0.762518141944166,-6.02562353840152E-05,-0.372074868411928));
#163=CARTESIAN_POINT('',(0.817658445476591,-5.73794948976772E-05,-0.433779731269724));
#164=CARTESIAN_POINT('',(0.843898713588715,-5.38863896508701E-05,-0.465719729661942));
#165=DIRECTION('',(0.934563088315697,0.000140232804405513,-0.355797434353577));
#166=DIRECTION('',(0.000506404413131122,0.999997497596257,0.00217907223244103));
#167=DIRECTION('',(0.00048078654983114,0.999997556800608,0.00215759984912842));
#168=DIRECTION('',(-0.00513881666557335,0.999982733285927,-0.00285056017012729));
#169=DIRECTION('',(-0.355093565933449,0.888883417138514,-0.289473366942154));
#170=DIRECTION('',(-0.0166743060424531,-0.944236470711695,-0.328845639922328));
#171=DIRECTION('',(-0.0,-1.0,-0.0));
#172=DIRECTION('',(0.0133491187691358,-0.94255660300333,0.333779644620384));
ENDSEC;
END-ISO-10303-21;
