ISO-10303-21;
HEADER;
FILE_DESCRIPTION(('STEP AP214'),'1');
FILE_NAME('SMAStripDeformed_08.stp','2026-05-05T08:01:09',(' '),(' '),'Spatial InterOp 3D',' ',' ');
FILE_SCHEMA(('AUTOMOTIVE_DESIGN { 1 0 10303 214 1 1 1 1 }'));
ENDSEC;
DATA;
#1=PRODUCT_DEFINITION_CONTEXT('',#9,'design');
#2=APPLICATION_PROTOCOL_DEFINITION('INTERNATIONAL STANDARD','automotive_design',1994,#9);
#3=PRODUCT_CATEGORY_RELATIONSHIP('NONE','NONE',#10,#11);
#4=SHAPE_DEFINITION_REPRESENTATION(#12,#13);
#5= (GEOMETRIC_REPRESENTATION_CONTEXT(3)GLOBAL_UNCERTAINTY_ASSIGNED_CONTEXT((#16))GLOBAL_UNIT_ASSIGNED_CONTEXT((#18,#19,#20))REPRESENTATION_CONTEXT('NONE','WORKSPACE'));
#9=APPLICATION_CONTEXT(' ');
#10=PRODUCT_CATEGORY('part','NONE');
#11=PRODUCT_RELATED_PRODUCT_CATEGORY('detail',' ',(#22));
#12=PRODUCT_DEFINITION_SHAPE('NONE','NONE',#23);
#13=MANIFOLD_SURFACE_SHAPE_REPRESENTATION('1',(#24,#25),#5);
#16=UNCERTAINTY_MEASURE_WITH_UNIT(LENGTH_MEASURE(1.0E-06),#18,'','');
#18= (CONVERSION_BASED_UNIT('MILLIMETRE',#28)LENGTH_UNIT()NAMED_UNIT(#31));
#19= (NAMED_UNIT(#33)PLANE_ANGLE_UNIT()SI_UNIT($,.RADIAN.));
#20= (NAMED_UNIT(#33)SOLID_ANGLE_UNIT()SI_UNIT($,.STERADIAN.));
#22=PRODUCT('1','','PART--DESC',(#39));
#23=PRODUCT_DEFINITION('','NONE',#40,#1);
#24=SHELL_BASED_SURFACE_MODEL('1',(#41));
#25=AXIS2_PLACEMENT_3D('',#42,#43,#44);
#28=LENGTH_MEASURE_WITH_UNIT(LENGTH_MEASURE(1.0),#45);
#31=DIMENSIONAL_EXPONENTS(1.0,0.0,0.0,0.0,0.0,0.0,0.0);
#33=DIMENSIONAL_EXPONENTS(0.0,0.0,0.0,0.0,0.0,0.0,0.0);
#39=PRODUCT_CONTEXT('',#9,'mechanical');
#40=PRODUCT_DEFINITION_FORMATION_WITH_SPECIFIED_SOURCE(' ','NONE',#22,.NOT_KNOWN.);
#41=CLOSED_SHELL('',(#46));
#42=CARTESIAN_POINT('',(0.0,0.0,0.0));
#43=DIRECTION('',(0.0,0.0,1.0));
#44=DIRECTION('',(1.0,0.0,0.0));
#45= (NAMED_UNIT(#31)LENGTH_UNIT()SI_UNIT(.MILLI.,.METRE.));
#46=FACE_SURFACE('',(#48),#49,.T.);
#48=FACE_BOUND('',#50,.T.);
#49=CYLINDRICAL_SURFACE('',#51,1.18854872548211);
#50=EDGE_LOOP('',(#52,#53,#54,#55,#56,#57,#58,#59));
#51=AXIS2_PLACEMENT_3D('',#60,#61,#62);
#52=ORIENTED_EDGE('',*,*,#63,.T.);
#53=ORIENTED_EDGE('',*,*,#64,.T.);
#54=ORIENTED_EDGE('',*,*,#65,.T.);
#55=ORIENTED_EDGE('',*,*,#66,.T.);
#56=ORIENTED_EDGE('',*,*,#67,.T.);
#57=ORIENTED_EDGE('',*,*,#68,.T.);
#58=ORIENTED_EDGE('',*,*,#69,.T.);
#59=ORIENTED_EDGE('',*,*,#70,.T.);
#60=CARTESIAN_POINT('',(-0.264508645533504,-0.00846610396791119,-1.1435021284286));
#61=DIRECTION('',(-0.00692627715778004,-0.999935463246052,0.00900533328849809));
#62=DIRECTION('',(0.0,0.00900554930411682,0.999959449218683));
#63=EDGE_CURVE('',#71,#72,#73,.T.);
#64=EDGE_CURVE('',#72,#74,#75,.T.);
#65=EDGE_CURVE('',#74,#76,#77,.T.);
#66=EDGE_CURVE('',#76,#78,#79,.T.);
#67=EDGE_CURVE('',#78,#80,#81,.T.);
#68=EDGE_CURVE('',#80,#82,#83,.T.);
#69=EDGE_CURVE('',#82,#84,#85,.T.);
#70=EDGE_CURVE('',#84,#71,#86,.T.);
#71=VERTEX_POINT('',#87);
#72=VERTEX_POINT('',#88);
#73=LINE('',#89,#90);
#74=VERTEX_POINT('',#91);
#75=LINE('',#92,#93);
#76=VERTEX_POINT('',#94);
#77=B_SPLINE_CURVE_WITH_KNOTS('',3,(#95,#96,#97,#98,#99,#100,#101,#102,#103,#104,#105,#106,#107,#108,#109,#110,#111,#112,#113),.UNSPECIFIED.,.F.,.F.,(4,1,1,1,1,1,1,1,1,1,1,1,1,1,1,1,4),(0.0,0.123982111995109,0.247964223990219,0.371946335985328,0.495928447980438,0.619910559975547,0.681901615973102,0.743892671970657,0.805883727968212,0.867874783965766,0.898870311964544,0.929865839963321,0.960861367962099,0.968610249961793,0.976359131961487,0.984108013961182,0.991856895960876),.UNSPECIFIED.);
#78=VERTEX_POINT('',#114);
#79=LINE('',#115,#116);
#80=VERTEX_POINT('',#117);
#81=LINE('',#118,#119);
#82=VERTEX_POINT('',#120);
#83=LINE('',#121,#122);
#84=VERTEX_POINT('',#123);
#85=B_SPLINE_CURVE_WITH_KNOTS('',3,(#124,#125,#126,#127,#128,#129,#130,#131,#132,#133,#134),.UNSPECIFIED.,.F.,.F.,(4,1,1,1,1,1,1,1,4),(0.0,0.123877169551285,0.24775433910257,0.371631508653855,0.49550867820514,0.619385847756426,0.743263017307711,0.867140186858996,0.991017356410281),.UNSPECIFIED.);
#86=CIRCLE('',#135,0.0394113735788415);
#87=CARTESIAN_POINT('',(-1.63355890019318E-34,0.0900089666247368,-5.8005457507547E-35));
#88=CARTESIAN_POINT('',(1.99757402918245E-34,0.00999103579670191,-1.59697519714931E-34));
#89=CARTESIAN_POINT('',(3.83920931958997E-35,0.0500000012107193,7.97721805331068E-35));
#90=VECTOR('',#136,1.0);
#91=CARTESIAN_POINT('',(0.00149492837954313,5.9419153330964E-06,0.0126595851033926));
#92=CARTESIAN_POINT('',(0.000747464189771563,0.0049984888560175,0.0063297925516963));
#93=VECTOR('',#137,1.0);
#94=CARTESIAN_POINT('',(0.776239216327667,0.000371871166862547,-0.560891628265381));
#95=CARTESIAN_POINT('',(0.00149492837954313,5.9419153330964E-06,0.0126595851033926));
#96=CARTESIAN_POINT('',(0.0420304809762655,-0.000552216153274398,0.00462783552225395));
#97=CARTESIAN_POINT('',(0.122112540952036,5.00370044556333E-05,-0.0164619997557975));
#98=CARTESIAN_POINT('',(0.237542946679298,-0.000158158867803334,-0.0622910988479258));
#99=CARTESIAN_POINT('',(0.347029021914681,-4.76341763443815E-05,-0.120858723211214));
#100=CARTESIAN_POINT('',(0.449690370863308,-6.51697013952084E-07,-0.190676244205723));
#101=CARTESIAN_POINT('',(0.52870300816075,5.99659425038409E-05,-0.257465835741795));
#102=CARTESIAN_POINT('',(0.587472958558006,0.00011345693377087,-0.315626528673397));
#103=CARTESIAN_POINT('',(0.62920612429325,0.000157346228161024,-0.361494140877289));
#104=CARTESIAN_POINT('',(0.668612234351655,0.00022287333256267,-0.409368644989707));
#105=CARTESIAN_POINT('',(0.699860501330398,0.00026574496954706,-0.450516821259457));
#106=CARTESIAN_POINT('',(0.723872239442684,0.00031425517679573,-0.484155936062768));
#107=CARTESIAN_POINT('',(0.741455739190818,0.000351008897545259,-0.509679993871335));
#108=CARTESIAN_POINT('',(0.754096714289351,0.000371427655756293,-0.529203976897955));
#109=CARTESIAN_POINT('',(0.762653258724612,0.000376471963557536,-0.542108321713958));
#110=CARTESIAN_POINT('',(0.766577803546278,0.000377216842048509,-0.548821922507802));
#111=CARTESIAN_POINT('',(0.770853959350097,0.000375757440620809,-0.555262121109376));
#112=CARTESIAN_POINT('',(0.77446446347393,0.000373143661810303,-0.559014945955044));
#113=CARTESIAN_POINT('',(0.776239216327667,0.000371871166862547,-0.560891628265381));
#114=CARTESIAN_POINT('',(0.787722647190094,0.000459434522781521,-0.564060866832733));
#115=CARTESIAN_POINT('',(0.781980931758881,0.000415652844822034,-0.562476247549057));
#116=VECTOR('',#138,1.0);
#117=CARTESIAN_POINT('',(0.78764808177948,0.0903414636850357,-0.564400136470795));
#118=CARTESIAN_POINT('',(0.787648856639862,0.0454004491039086,-0.564230501651764));
#119=VECTOR('',#139,1.0);
#120=CARTESIAN_POINT('',(0.779920995235443,0.100400507450104,-0.569387555122375));
#121=CARTESIAN_POINT('',(0.783784538507462,0.0953709855675697,-0.566893845796585));
#122=VECTOR('',#140,1.0);
#123=CARTESIAN_POINT('',(0.0108861038461328,0.100108817219734,0.01014703232795));
#124=CARTESIAN_POINT('',(0.779920995235443,0.100400507450104,-0.569387555122375));
#125=CARTESIAN_POINT('',(0.758184332231716,0.100306225667968,-0.534279578080573));
#126=CARTESIAN_POINT('',(0.712543560782901,0.100308636004572,-0.465403018063165));
#127=CARTESIAN_POINT('',(0.63636620416063,0.100239498460664,-0.3675631903907));
#128=CARTESIAN_POINT('',(0.551310696441677,0.100177336782814,-0.277286633844638));
#129=CARTESIAN_POINT('',(0.457099300308447,0.100127881354857,-0.196576071211936));
#130=CARTESIAN_POINT('',(0.355039470507467,0.100119636008928,-0.126075726819926));
#131=CARTESIAN_POINT('',(0.246092520396483,0.100124961836236,-0.0667326558021787));
#132=CARTESIAN_POINT('',(0.131147446509618,0.100025351168085,-0.0199822664694331));
#133=CARTESIAN_POINT('',(0.0513224678742393,0.100310630966898,0.00178514289088683));
#134=CARTESIAN_POINT('',(0.0108861038461328,0.100108817219734,0.01014703232795));
#135=AXIS2_PLACEMENT_3D('',#141,#142,#143);
#136=DIRECTION('',(-0.0,-1.0,-0.0));
#137=DIRECTION('',(0.092321400035359,-0.616643485552261,0.781810444303138));
#138=DIRECTION('',(0.963936540760915,0.0073502004246939,-0.266030674809502));
#139=DIRECTION('',(-0.000848289895519036,0.999992775714939,-0.00370525602154792));
#140=DIRECTION('',(-0.566933332787524,0.738028126627694,-0.365924965643024));
#141=CARTESIAN_POINT('',(-0.0055601260361967,0.0755909727252046,0.0362555212036135));
#142=DIRECTION('',(-0.74257522994472,0.65364294172919,0.146057976845347));
#143=DIRECTION('',(-0.660728573841751,-0.75062490746647,1.28577199056734E-17));
ENDSEC;
END-ISO-10303-21;
