ISO-10303-21;
HEADER;
FILE_DESCRIPTION(('STEP AP214'),'1');
FILE_NAME('SMAStripDeformed_07.stp','2026-05-20T04:19:48',(' '),(' '),'Spatial InterOp 3D',' ',' ');
FILE_SCHEMA(('AUTOMOTIVE_DESIGN { 1 0 10303 214 1 1 1 1 }'));
ENDSEC;
DATA;
#1=PRODUCT_DEFINITION_CONTEXT('',#9,'design');
#2=APPLICATION_PROTOCOL_DEFINITION('INTERNATIONAL STANDARD','automotive_design',1994,#9);
#3=PRODUCT_CATEGORY_RELATIONSHIP('NONE','NONE',#10,#11);
#4=SHAPE_DEFINITION_REPRESENTATION(#12,#13);
#5= (GEOMETRIC_REPRESENTATION_CONTEXT(3)GLOBAL_UNCERTAINTY_ASSIGNED_CONTEXT((#16))GLOBAL_UNIT_ASSIGNED_CONTEXT((#18,#19,#20))REPRESENTATION_CONTEXT('NONE','WORKSPACE'));
#9=APPLICATION_CONTEXT(' ');
#10=PRODUCT_CATEGORY('part','NONE');
#11=PRODUCT_RELATED_PRODUCT_CATEGORY('detail',' ',(#22));
#12=PRODUCT_DEFINITION_SHAPE('NONE','NONE',#23);
#13=MANIFOLD_SURFACE_SHAPE_REPRESENTATION('1',(#24,#25),#5);
#16=UNCERTAINTY_MEASURE_WITH_UNIT(LENGTH_MEASURE(1.0E-06),#18,'','');
#18= (CONVERSION_BASED_UNIT('MILLIMETRE',#28)LENGTH_UNIT()NAMED_UNIT(#31));
#19= (NAMED_UNIT(#33)PLANE_ANGLE_UNIT()SI_UNIT($,.RADIAN.));
#20= (NAMED_UNIT(#33)SOLID_ANGLE_UNIT()SI_UNIT($,.STERADIAN.));
#22=PRODUCT('1','','PART--DESC',(#39));
#23=PRODUCT_DEFINITION('','NONE',#40,#1);
#24=SHELL_BASED_SURFACE_MODEL('1',(#41));
#25=AXIS2_PLACEMENT_3D('',#42,#43,#44);
#28=LENGTH_MEASURE_WITH_UNIT(LENGTH_MEASURE(1.0),#45);
#31=DIMENSIONAL_EXPONENTS(1.0,0.0,0.0,0.0,0.0,0.0,0.0);
#33=DIMENSIONAL_EXPONENTS(0.0,0.0,0.0,0.0,0.0,0.0,0.0);
#39=PRODUCT_CONTEXT('',#9,'mechanical');
#40=PRODUCT_DEFINITION_FORMATION_WITH_SPECIFIED_SOURCE(' ','NONE',#22,.NOT_KNOWN.);
#41=CLOSED_SHELL('',(#46));
#42=CARTESIAN_POINT('',(0.0,0.0,0.0));
#43=DIRECTION('',(0.0,0.0,1.0));
#44=DIRECTION('',(1.0,0.0,0.0));
#45= (NAMED_UNIT(#31)LENGTH_UNIT()SI_UNIT(.MILLI.,.METRE.));
#46=FACE_SURFACE('',(#48),#49,.T.);
#48=FACE_BOUND('',#50,.T.);
#49=CYLINDRICAL_SURFACE('',#51,1.18724009436887);
#50=EDGE_LOOP('',(#52,#53,#54,#55,#56,#57,#58,#59));
#51=AXIS2_PLACEMENT_3D('',#60,#61,#62);
#52=ORIENTED_EDGE('',*,*,#63,.T.);
#53=ORIENTED_EDGE('',*,*,#64,.T.);
#54=ORIENTED_EDGE('',*,*,#65,.T.);
#55=ORIENTED_EDGE('',*,*,#66,.T.);
#56=ORIENTED_EDGE('',*,*,#67,.T.);
#57=ORIENTED_EDGE('',*,*,#68,.T.);
#58=ORIENTED_EDGE('',*,*,#69,.T.);
#59=ORIENTED_EDGE('',*,*,#70,.T.);
#60=CARTESIAN_POINT('',(-0.225755700256363,-0.00720499516433614,-1.15255864320033));
#61=DIRECTION('',(-0.0066155827561757,-0.999949638615058,0.00754680716666972));
#62=DIRECTION('',(0.0,0.00754697231862749,0.99997152119889));
#63=EDGE_CURVE('',#71,#72,#73,.T.);
#64=EDGE_CURVE('',#72,#74,#75,.T.);
#65=EDGE_CURVE('',#74,#76,#77,.T.);
#66=EDGE_CURVE('',#76,#78,#79,.T.);
#67=EDGE_CURVE('',#78,#80,#81,.T.);
#68=EDGE_CURVE('',#80,#82,#83,.T.);
#69=EDGE_CURVE('',#82,#84,#85,.T.);
#70=EDGE_CURVE('',#84,#71,#86,.T.);
#71=VERTEX_POINT('',#87);
#72=VERTEX_POINT('',#88);
#73=LINE('',#89,#90);
#74=VERTEX_POINT('',#91);
#75=LINE('',#92,#93);
#76=VERTEX_POINT('',#94);
#77=LINE('',#95,#96);
#78=VERTEX_POINT('',#97);
#79=B_SPLINE_CURVE_WITH_KNOTS('',3,(#98,#99,#100,#101,#102,#103,#104,#105,#106,#107),.UNSPECIFIED.,.F.,.F.,(4,1,1,1,1,1,1,4),(0.0,0.123977120962798,0.247954241925597,0.371931362888395,0.495908483851193,0.74386272577679,0.867839846739588,0.991816967702386),.UNSPECIFIED.);
#80=VERTEX_POINT('',#108);
#81=LINE('',#109,#110);
#82=VERTEX_POINT('',#111);
#83=LINE('',#112,#113);
#84=VERTEX_POINT('',#114);
#85=LINE('',#115,#116);
#86=B_SPLINE_CURVE_WITH_KNOTS('',3,(#117,#118,#119,#120,#121,#122,#123,#124,#125,#126,#127,#128,#129,#130,#131,#132,#133,#134,#135,#136,#137,#138,#139,#140,#141,#142,#143),.UNSPECIFIED.,.F.,.F.,(4,1,1,1,1,1,1,1,1,1,1,1,1,1,1,1,1,1,1,1,1,1,1,1,4),(0.0,0.0077439609450015,0.015487921890003,0.0232318828350045,0.030975843780006,0.061951687560012,0.092927531340018,0.123903375120024,0.185855062680036,0.247806750240048,0.30975843780006,0.371710125360072,0.495613500480096,0.61951687560012,0.681468563160132,0.743420250720144,0.805371938280156,0.867323625840168,0.898299469620174,0.92927531340018,0.960251157180186,0.967995118125187,0.975739079070189,0.98348304001519,0.991227000960192),.UNSPECIFIED.);
#87=CARTESIAN_POINT('',(0.0103282611817122,0.100090928375721,0.00738481571897864));
#88=CARTESIAN_POINT('',(-1.83447092847353E-38,0.0900089666247368,1.60531939319942E-38));
#89=CARTESIAN_POINT('',(0.00516413059085608,0.0950499475002289,0.00369240785948932));
#90=VECTOR('',#144,1.0);
#91=CARTESIAN_POINT('',(1.73293673085626E-34,0.00999103579670191,-1.60029390239172E-34));
#92=CARTESIAN_POINT('',(7.30720693632861E-35,0.0500000012107193,8.26173589984516E-35));
#93=VECTOR('',#145,1.0);
#94=CARTESIAN_POINT('',(0.00112572708167136,-6.8623962761194E-06,0.0107605522498488));
#95=CARTESIAN_POINT('',(0.000562863540835679,0.00499208670021289,0.00538027612492442));
#96=VECTOR('',#146,1.0);
#97=CARTESIAN_POINT('',(0.792487621307373,0.000178857007995248,-0.538317501544952));
#98=CARTESIAN_POINT('',(0.00112572708167136,-6.8623962761194E-06,0.0107605522498488));
#99=CARTESIAN_POINT('',(0.041893959862896,-0.000487471070038555,0.00401264374250326));
#100=CARTESIAN_POINT('',(0.122596151026937,4.00056457833701E-05,-0.0145422851984459));
#101=CARTESIAN_POINT('',(0.239437067658977,-0.00014333719805293,-0.0566242315115006));
#102=CARTESIAN_POINT('',(0.350754711424599,-5.93439262289611E-05,-0.111623856822829));
#103=CARTESIAN_POINT('',(0.490590692348863,-2.04332728885736E-05,-0.20017695545726));
#104=CARTESIAN_POINT('',(0.615919895229024,4.51820019357228E-05,-0.309301756736374));
#105=CARTESIAN_POINT('',(0.722459369950613,0.000110044357884206,-0.435954364879846));
#106=CARTESIAN_POINT('',(0.769862852492014,0.000198552430040822,-0.503735229986149));
#107=CARTESIAN_POINT('',(0.792487621307373,0.000178857007995248,-0.538317501544952));
#108=CARTESIAN_POINT('',(0.80403083562851,0.000228893666644581,-0.541912853717804));
#109=CARTESIAN_POINT('',(0.798259228467941,0.000203875337319914,-0.540115177631378));
#110=VECTOR('',#147,1.0);
#111=CARTESIAN_POINT('',(0.803446531295776,0.0900477543473244,-0.541829288005829));
#112=CARTESIAN_POINT('',(0.803738683462143,0.0451383240069845,-0.541370540857315));
#113=VECTOR('',#148,1.0);
#114=CARTESIAN_POINT('',(0.798065960407257,0.100217655301094,-0.545407652854919));
#115=CARTESIAN_POINT('',(0.800756245851517,0.0951327048242092,-0.543618470430374));
#116=VECTOR('',#149,1.0);
#117=CARTESIAN_POINT('',(0.798065960407257,0.100217655301094,-0.545407652854919));
#118=CARTESIAN_POINT('',(0.796394000907026,0.100215934673666,-0.543440989935743));
#119=CARTESIAN_POINT('',(0.793017121332579,0.100212720386351,-0.539513493838951));
#120=CARTESIAN_POINT('',(0.788688443887506,0.100202563812247,-0.533100918860959));
#121=CARTESIAN_POINT('',(0.784570272668026,0.10019393207514,-0.526529847503259));
#122=CARTESIAN_POINT('',(0.775860998913348,0.100186981063966,-0.51372918177668));
#123=CARTESIAN_POINT('',(0.762846524552227,0.100177315512986,-0.49447900781432));
#124=CARTESIAN_POINT('',(0.744855218429376,0.100169860598226,-0.469262314517662));
#125=CARTESIAN_POINT('',(0.720281441877564,0.100162426056587,-0.436065227025192));
#126=CARTESIAN_POINT('',(0.688279994264198,0.100167835368524,-0.395535491756734));
#127=CARTESIAN_POINT('',(0.647463389477433,0.100146972708508,-0.348902749091742));
#128=CARTESIAN_POINT('',(0.60433687990074,0.100131556117736,-0.304399274088539));
#129=CARTESIAN_POINT('',(0.543898584251122,0.100112447847673,-0.248053153180976));
#130=CARTESIAN_POINT('',(0.463107157349484,0.10009534082158,-0.183545097641855));
#131=CARTESIAN_POINT('',(0.376190784666622,0.100108043955219,-0.127553518693893));
#132=CARTESIAN_POINT('',(0.303422599165175,0.100112496282364,-0.0884010660643939));
#133=CARTESIAN_POINT('',(0.247326763000167,0.100105498945836,-0.0620535523393591));
#134=CARTESIAN_POINT('',(0.18983831272162,0.100082617956698,-0.0388938119523386));
#135=CARTESIAN_POINT('',(0.140890648719569,0.10009113606002,-0.0224172457010878));
#136=CARTESIAN_POINT('',(0.101197509980866,0.100140450430595,-0.0109719567222616));
#137=CARTESIAN_POINT('',(0.0711749723550052,0.100170951796756,-0.00337638392276121));
#138=CARTESIAN_POINT('',(0.0485168013347715,0.100176146794965,0.00188376445325547));
#139=CARTESIAN_POINT('',(0.0333164709830679,0.100154594179599,0.00472076068582245));
#140=CARTESIAN_POINT('',(0.0257435756556707,0.100143749340765,0.00651878371527596));
#141=CARTESIAN_POINT('',(0.0181188942886029,0.100125451799044,0.00772675058188452));
#142=CARTESIAN_POINT('',(0.012907734429725,0.100102203382112,0.00748179615850776));
#143=CARTESIAN_POINT('',(0.0103282611817122,0.100090928375721,0.00738481571897864));
#144=DIRECTION('',(-0.637044187308055,-0.621852509065028,-0.455493315413683));
#145=DIRECTION('',(-0.0,-1.0,-0.0));
#146=DIRECTION('',(0.0764167429550694,-0.678678543621284,0.730449119257619));
#147=DIRECTION('',(0.954751653610439,0.00413858577494453,-0.29737543953043));
#148=DIRECTION('',(-0.00408643595670095,0.999962286613845,0.007663314634115));
#149=DIRECTION('',(-0.446551739463713,0.844034407346941,-0.29698057713667));
ENDSEC;
END-ISO-10303-21;
