ISO-10303-21;
HEADER;
FILE_DESCRIPTION(('STEP AP214'),'1');
FILE_NAME('SMAStripDeformed_03.stp','2026-05-20T04:14:47',(' '),(' '),'Spatial InterOp 3D',' ',' ');
FILE_SCHEMA(('AUTOMOTIVE_DESIGN { 1 0 10303 214 1 1 1 1 }'));
ENDSEC;
DATA;
#1=PRODUCT_DEFINITION_CONTEXT('',#9,'design');
#2=APPLICATION_PROTOCOL_DEFINITION('INTERNATIONAL STANDARD','automotive_design',1994,#9);
#3=PRODUCT_CATEGORY_RELATIONSHIP('NONE','NONE',#10,#11);
#4=SHAPE_DEFINITION_REPRESENTATION(#12,#13);
#5= (GEOMETRIC_REPRESENTATION_CONTEXT(3)GLOBAL_UNCERTAINTY_ASSIGNED_CONTEXT((#16))GLOBAL_UNIT_ASSIGNED_CONTEXT((#18,#19,#20))REPRESENTATION_CONTEXT('NONE','WORKSPACE'));
#9=APPLICATION_CONTEXT(' ');
#10=PRODUCT_CATEGORY('part','NONE');
#11=PRODUCT_RELATED_PRODUCT_CATEGORY('detail',' ',(#22));
#12=PRODUCT_DEFINITION_SHAPE('NONE','NONE',#23);
#13=MANIFOLD_SURFACE_SHAPE_REPRESENTATION('1',(#24,#25),#5);
#16=UNCERTAINTY_MEASURE_WITH_UNIT(LENGTH_MEASURE(1.0E-06),#18,'','');
#18= (CONVERSION_BASED_UNIT('MILLIMETRE',#28)LENGTH_UNIT()NAMED_UNIT(#31));
#19= (NAMED_UNIT(#33)PLANE_ANGLE_UNIT()SI_UNIT($,.RADIAN.));
#20= (NAMED_UNIT(#33)SOLID_ANGLE_UNIT()SI_UNIT($,.STERADIAN.));
#22=PRODUCT('1','','PART--DESC',(#39));
#23=PRODUCT_DEFINITION('','NONE',#40,#1);
#24=SHELL_BASED_SURFACE_MODEL('1',(#41));
#25=AXIS2_PLACEMENT_3D('',#42,#43,#44);
#28=LENGTH_MEASURE_WITH_UNIT(LENGTH_MEASURE(1.0),#45);
#31=DIMENSIONAL_EXPONENTS(1.0,0.0,0.0,0.0,0.0,0.0,0.0);
#33=DIMENSIONAL_EXPONENTS(0.0,0.0,0.0,0.0,0.0,0.0,0.0);
#39=PRODUCT_CONTEXT('',#9,'mechanical');
#40=PRODUCT_DEFINITION_FORMATION_WITH_SPECIFIED_SOURCE(' ','NONE',#22,.NOT_KNOWN.);
#41=CLOSED_SHELL('',(#46));
#42=CARTESIAN_POINT('',(0.0,0.0,0.0));
#43=DIRECTION('',(0.0,0.0,1.0));
#44=DIRECTION('',(1.0,0.0,0.0));
#45= (NAMED_UNIT(#31)LENGTH_UNIT()SI_UNIT(.MILLI.,.METRE.));
#46=FACE_SURFACE('',(#48),#49,.T.);
#48=FACE_BOUND('',#50,.T.);
#49=CYLINDRICAL_SURFACE('',#51,1.56932756535592);
#50=EDGE_LOOP('',(#52,#53,#54,#55,#56));
#51=AXIS2_PLACEMENT_3D('',#57,#58,#59);
#52=ORIENTED_EDGE('',*,*,#60,.T.);
#53=ORIENTED_EDGE('',*,*,#61,.T.);
#54=ORIENTED_EDGE('',*,*,#62,.T.);
#55=ORIENTED_EDGE('',*,*,#63,.T.);
#56=ORIENTED_EDGE('',*,*,#64,.T.);
#57=CARTESIAN_POINT('',(-0.0794281630091101,-0.000866546803932993,-1.56376861625948));
#58=DIRECTION('',(0.00148529877378442,0.999998698756321,-0.000629581780244132));
#59=DIRECTION('',(0.0,-0.000629582474709382,-0.999999801812934));
#60=EDGE_CURVE('',#65,#66,#67,.T.);
#61=EDGE_CURVE('',#66,#68,#69,.T.);
#62=EDGE_CURVE('',#68,#70,#71,.T.);
#63=EDGE_CURVE('',#70,#72,#73,.T.);
#64=EDGE_CURVE('',#72,#65,#74,.T.);
#65=VERTEX_POINT('',#75);
#66=VERTEX_POINT('',#76);
#67=LINE('',#77,#78);
#68=VERTEX_POINT('',#79);
#69=LINE('',#80,#81);
#70=VERTEX_POINT('',#82);
#71=B_SPLINE_CURVE_WITH_KNOTS('',3,(#83,#84,#85,#86,#87,#88,#89,#90,#91,#92,#93,#94,#95,#96,#97,#98,#99,#100,#101),.UNSPECIFIED.,.F.,.F.,(4,1,1,1,1,1,1,1,1,1,1,1,1,1,1,1,4),(0.0,0.125131093737523,0.250262187475045,0.375393281212568,0.500524374950091,0.625655468687613,0.688221015556374,0.750786562425136,0.813352109293897,0.875917656162658,0.907200429597039,0.93848320303142,0.9697659764658,0.977586669824396,0.985407363182991,0.993228056541586,1.00104874990018),.UNSPECIFIED.);
#72=VERTEX_POINT('',#102);
#73=LINE('',#103,#104);
#74=B_SPLINE_CURVE_WITH_KNOTS('',3,(#105,#106,#107,#108,#109,#110,#111,#112,#113,#114,#115,#116,#117,#118,#119,#120,#121,#122,#123,#124,#125,#126,#127,#128,#129,#130,#131),.UNSPECIFIED.,.F.,.F.,(4,1,1,1,1,1,1,1,1,1,1,1,1,1,1,1,1,1,1,1,1,1,1,1,4),(0.0,0.00782131517925376,0.0156426303585075,0.0234639455377613,0.031285260717015,0.0625705214340301,0.0938557821510451,0.12514104286806,0.18771156430209,0.25028208573612,0.31285260717015,0.37542312860418,0.500564171472241,0.625705214340301,0.688275735774331,0.750846257208361,0.813416778642391,0.875987300076421,0.907272560793436,0.938557821510451,0.969843082227466,0.97766439740672,0.985485712585974,0.993307027765227,1.00112834294448),.UNSPECIFIED.);
#75=CARTESIAN_POINT('',(-1.23792526905419E-36,0.100011207163334,1.55677757361613E-37));
#76=CARTESIAN_POINT('',(-2.70889803287741E-34,0.00999103579670191,-3.32175601759178E-34));
#77=CARTESIAN_POINT('',(2.45554341402045E-35,0.0550011214800179,6.52888388723411E-35));
#78=VECTOR('',#132,1.0);
#79=CARTESIAN_POINT('',(2.91495070996461E-05,-1.11908129838412E-05,0.00132628949359059));
#80=CARTESIAN_POINT('',(1.45747535498231E-05,0.00498992249185903,0.000663144746795297));
#81=VECTOR('',#133,1.0);
#82=CARTESIAN_POINT('',(0.919860363006592,-1.1076706869062E-05,-0.349422484636307));
#83=CARTESIAN_POINT('',(2.91495070996461E-05,-1.11908129838412E-05,0.00132628949359059));
#84=CARTESIAN_POINT('',(0.0417254109056295,-0.000155351991225811,0.000251340067901904));
#85=CARTESIAN_POINT('',(0.125015378311062,-1.30198410006771E-05,-0.00582110895402258));
#86=CARTESIAN_POINT('',(0.24858572360346,-7.04029706795242E-05,-0.0263139586966115));
#87=CARTESIAN_POINT('',(0.369859335278069,-5.32669411968679E-05,-0.0576137611033255));
#88=CARTESIAN_POINT('',(0.488068924076662,-5.3115032798339E-05,-0.0989734283161714));
#89=CARTESIAN_POINT('',(0.583506946517999,-4.65406253947459E-05,-0.141180175114696));
#90=CARTESIAN_POINT('',(0.657780390569743,-4.11791224151601E-05,-0.179191206769633));
#91=CARTESIAN_POINT('',(0.712403123974027,-3.64042717484861E-05,-0.209721659026826));
#92=CARTESIAN_POINT('',(0.765902975843624,-3.0601373071178E-05,-0.242177895257781));
#93=CARTESIAN_POINT('',(0.80953203961564,-2.57619962192841E-05,-0.270737899462735));
#94=CARTESIAN_POINT('',(0.843836292990983,-2.24519685470783E-05,-0.294467662391051));
#95=CARTESIAN_POINT('',(0.869301695168319,-1.9713886035632E-05,-0.312637154644747));
#96=CARTESIAN_POINT('',(0.888083677134793,-1.68663371211771E-05,-0.326708229559402));
#97=CARTESIAN_POINT('',(0.900653281343326,-1.46473699072297E-05,-0.336005471990943));
#98=CARTESIAN_POINT('',(0.906761894030507,-1.31646121020714E-05,-0.340910028537211));
#99=CARTESIAN_POINT('',(0.913022362885098,-1.17631361639965E-05,-0.345583371927827));
#100=CARTESIAN_POINT('',(0.917592593348799,-1.13134959040075E-05,-0.348136740964026));
#101=CARTESIAN_POINT('',(0.919860363006592,-1.1076706869062E-05,-0.349422484636307));
#102=CARTESIAN_POINT('',(0.91986083984375,0.100034296512604,-0.34941554069519));
#103=CARTESIAN_POINT('',(0.919866561889648,0.0500116099028673,-0.349412024021149));
#104=VECTOR('',#134,1.0);
#105=CARTESIAN_POINT('',(0.91986083984375,0.100034296512604,-0.34941554069519));
#106=CARTESIAN_POINT('',(0.917592969492213,0.100034422697406,-0.348129554363507));
#107=CARTESIAN_POINT('',(0.913022559358167,0.100034653851052,-0.345575700735463));
#108=CARTESIAN_POINT('',(0.906761931646599,0.100035603055299,-0.34090147552705));
#109=CARTESIAN_POINT('',(0.900652619987498,0.100036576481714,-0.335996841855686));
#110=CARTESIAN_POINT('',(0.888082032540475,0.100037834135354,-0.326698824356418));
#111=CARTESIAN_POINT('',(0.869298486437359,0.100039347552046,-0.312626735205337));
#112=CARTESIAN_POINT('',(0.843830991784813,0.100040313187279,-0.294455890807814));
#113=CARTESIAN_POINT('',(0.809523888915155,0.100041364489448,-0.270724417204451));
#114=CARTESIAN_POINT('',(0.765891044534917,0.100043486144419,-0.242162613172173));
#115=CARTESIAN_POINT('',(0.71238663857828,0.100046387985063,-0.209704288528578));
#116=CARTESIAN_POINT('',(0.657759073614219,0.10004853780734,-0.17917228310831));
#117=CARTESIAN_POINT('',(0.583479013588521,0.100050800415511,-0.141159568968255));
#118=CARTESIAN_POINT('',(0.488032553902879,0.100053163471321,-0.0989517529757338));
#119=CARTESIAN_POINT('',(0.389515137633978,0.100054846273461,-0.0644854292344769));
#120=CARTESIAN_POINT('',(0.309170502751147,0.100054994115402,-0.0419440196137804));
#121=CARTESIAN_POINT('',(0.248240088299052,0.100055367854144,-0.0276474331049339));
#122=CARTESIAN_POINT('',(0.186738083191705,0.100056948911684,-0.0160449102268897));
#123=CARTESIAN_POINT('',(0.1351029766278,0.100056552323316,-0.00870556873292682));
#124=CARTESIAN_POINT('',(0.0936241133378971,0.100055136671183,-0.00423359582459289));
#125=CARTESIAN_POINT('',(0.0624491277335808,0.100055645989881,-0.00166593752914673));
#126=CARTESIAN_POINT('',(0.0390211236845344,0.100065035749356,-7.72096126059565E-05));
#127=CARTESIAN_POINT('',(0.0234032908285993,0.100053048417323,0.00045735111234985));
#128=CARTESIAN_POINT('',(0.0155783196580568,0.100047516451718,0.00101286221255061));
#129=CARTESIAN_POINT('',(0.00777157933529422,0.10003667476804,0.0011442996910635));
#130=CARTESIAN_POINT('',(0.00258117971009908,0.100019512526228,0.000366659402853183));
#131=CARTESIAN_POINT('',(-1.23792526905419E-36,0.100011207163334,1.55677757361613E-37));
#132=DIRECTION('',(-0.0,-1.0,-0.0));
#133=DIRECTION('',(0.00288900222123891,-0.991318816950695,0.13144830476518));
#134=DIRECTION('',(5.30806409444613E-06,0.999983017150774,0.0058279826576973));
ENDSEC;
END-ISO-10303-21;
