ISO-10303-21;
HEADER;
FILE_DESCRIPTION(('STEP AP214'),'1');
FILE_NAME('SMAStripDeformed_06.stp','2026-05-20T04:18:42',(' '),(' '),'Spatial InterOp 3D',' ',' ');
FILE_SCHEMA(('AUTOMOTIVE_DESIGN { 1 0 10303 214 1 1 1 1 }'));
ENDSEC;
DATA;
#1=PRODUCT_DEFINITION_CONTEXT('',#9,'design');
#2=APPLICATION_PROTOCOL_DEFINITION('INTERNATIONAL STANDARD','automotive_design',1994,#9);
#3=PRODUCT_CATEGORY_RELATIONSHIP('NONE','NONE',#10,#11);
#4=SHAPE_DEFINITION_REPRESENTATION(#12,#13);
#5= (GEOMETRIC_REPRESENTATION_CONTEXT(3)GLOBAL_UNCERTAINTY_ASSIGNED_CONTEXT((#16))GLOBAL_UNIT_ASSIGNED_CONTEXT((#18,#19,#20))REPRESENTATION_CONTEXT('NONE','WORKSPACE'));
#9=APPLICATION_CONTEXT(' ');
#10=PRODUCT_CATEGORY('part','NONE');
#11=PRODUCT_RELATED_PRODUCT_CATEGORY('detail',' ',(#22));
#12=PRODUCT_DEFINITION_SHAPE('NONE','NONE',#23);
#13=MANIFOLD_SURFACE_SHAPE_REPRESENTATION('1',(#24,#25),#5);
#16=UNCERTAINTY_MEASURE_WITH_UNIT(LENGTH_MEASURE(1.0E-06),#18,'','');
#18= (CONVERSION_BASED_UNIT('MILLIMETRE',#28)LENGTH_UNIT()NAMED_UNIT(#31));
#19= (NAMED_UNIT(#33)PLANE_ANGLE_UNIT()SI_UNIT($,.RADIAN.));
#20= (NAMED_UNIT(#33)SOLID_ANGLE_UNIT()SI_UNIT($,.STERADIAN.));
#22=PRODUCT('1','','PART--DESC',(#39));
#23=PRODUCT_DEFINITION('','NONE',#40,#1);
#24=SHELL_BASED_SURFACE_MODEL('1',(#41));
#25=AXIS2_PLACEMENT_3D('',#42,#43,#44);
#28=LENGTH_MEASURE_WITH_UNIT(LENGTH_MEASURE(1.0),#45);
#31=DIMENSIONAL_EXPONENTS(1.0,0.0,0.0,0.0,0.0,0.0,0.0);
#33=DIMENSIONAL_EXPONENTS(0.0,0.0,0.0,0.0,0.0,0.0,0.0);
#39=PRODUCT_CONTEXT('',#9,'mechanical');
#40=PRODUCT_DEFINITION_FORMATION_WITH_SPECIFIED_SOURCE(' ','NONE',#22,.NOT_KNOWN.);
#41=CLOSED_SHELL('',(#46));
#42=CARTESIAN_POINT('',(0.0,0.0,0.0));
#43=DIRECTION('',(0.0,0.0,1.0));
#44=DIRECTION('',(1.0,0.0,0.0));
#45= (NAMED_UNIT(#31)LENGTH_UNIT()SI_UNIT(.MILLI.,.METRE.));
#46=FACE_SURFACE('',(#48),#49,.T.);
#48=FACE_BOUND('',#50,.T.);
#49=CYLINDRICAL_SURFACE('',#51,1.21882237393639);
#50=EDGE_LOOP('',(#52,#53,#54,#55,#56,#57,#58,#59,#60,#61,#62,#63,#64));
#51=AXIS2_PLACEMENT_3D('',#65,#66,#67);
#52=ORIENTED_EDGE('',*,*,#68,.T.);
#53=ORIENTED_EDGE('',*,*,#69,.T.);
#54=ORIENTED_EDGE('',*,*,#70,.T.);
#55=ORIENTED_EDGE('',*,*,#71,.T.);
#56=ORIENTED_EDGE('',*,*,#72,.T.);
#57=ORIENTED_EDGE('',*,*,#73,.T.);
#58=ORIENTED_EDGE('',*,*,#74,.T.);
#59=ORIENTED_EDGE('',*,*,#75,.T.);
#60=ORIENTED_EDGE('',*,*,#76,.T.);
#61=ORIENTED_EDGE('',*,*,#77,.T.);
#62=ORIENTED_EDGE('',*,*,#78,.T.);
#63=ORIENTED_EDGE('',*,*,#79,.T.);
#64=ORIENTED_EDGE('',*,*,#80,.T.);
#65=CARTESIAN_POINT('',(-0.193492996231193,-0.0015941568264282,-1.19242231479958));
#66=DIRECTION('',(0.00255449241039445,-0.999996311878793,0.00092238676116565));
#67=DIRECTION('',(4.5446921227784E-22,0.000922389770666181,0.999999574598465));
#68=EDGE_CURVE('',#81,#82,#83,.T.);
#69=EDGE_CURVE('',#82,#84,#85,.T.);
#70=EDGE_CURVE('',#84,#86,#87,.T.);
#71=EDGE_CURVE('',#86,#88,#89,.T.);
#72=EDGE_CURVE('',#88,#90,#91,.T.);
#73=EDGE_CURVE('',#90,#92,#93,.T.);
#74=EDGE_CURVE('',#92,#94,#95,.T.);
#75=EDGE_CURVE('',#94,#96,#97,.T.);
#76=EDGE_CURVE('',#96,#98,#99,.T.);
#77=EDGE_CURVE('',#98,#100,#101,.T.);
#78=EDGE_CURVE('',#100,#102,#103,.T.);
#79=EDGE_CURVE('',#102,#104,#105,.T.);
#80=EDGE_CURVE('',#104,#81,#106,.T.);
#81=VERTEX_POINT('',#107);
#82=VERTEX_POINT('',#108);
#83=LINE('',#109,#110);
#84=VERTEX_POINT('',#111);
#85=LINE('',#112,#113);
#86=VERTEX_POINT('',#114);
#87=LINE('',#115,#116);
#88=VERTEX_POINT('',#117);
#89=LINE('',#118,#119);
#90=VERTEX_POINT('',#120);
#91=LINE('',#121,#122);
#92=VERTEX_POINT('',#123);
#93=B_SPLINE_CURVE_WITH_KNOTS('',3,(#124,#125,#126,#127,#128,#129,#130,#131),.UNSPECIFIED.,.F.,.F.,(4,1,1,1,1,4),(0.0,0.247781744574549,0.495563489149098,0.743345233723647,0.867236106010921,0.991126978298196),.UNSPECIFIED.);
#94=VERTEX_POINT('',#132);
#95=LINE('',#133,#134);
#96=VERTEX_POINT('',#135);
#97=LINE('',#136,#137);
#98=VERTEX_POINT('',#138);
#99=LINE('',#139,#140);
#100=VERTEX_POINT('',#141);
#101=LINE('',#142,#143);
#102=VERTEX_POINT('',#144);
#103=B_SPLINE_CURVE_WITH_KNOTS('',3,(#145,#146,#147,#148,#149,#150,#151,#152,#153,#154),.UNSPECIFIED.,.F.,.F.,(4,1,1,1,1,1,1,4),(0.0,0.123971743582556,0.247943487165113,0.371915230747669,0.495886974330225,0.743830461495338,0.867802205077895,0.991773948660451),.UNSPECIFIED.);
#104=VERTEX_POINT('',#155);
#105=LINE('',#156,#157);
#106=LINE('',#158,#159);
#107=CARTESIAN_POINT('',(0.826289534568787,0.0199219714850187,-0.510715544223785));
#108=CARTESIAN_POINT('',(0.82629257440567,0.039981372654438,-0.510623216629028));
#109=CARTESIAN_POINT('',(0.826291054487228,0.0299516720697284,-0.510669380426407));
#110=VECTOR('',#160,1.0);
#111=CARTESIAN_POINT('',(0.826295256614685,0.0600407756865025,-0.510531008243561));
#112=CARTESIAN_POINT('',(0.826293915510178,0.0500110741704702,-0.510577112436295));
#113=VECTOR('',#161,1.0);
#114=CARTESIAN_POINT('',(0.826297700405121,0.0801001787185669,-0.510438978672028));
#115=CARTESIAN_POINT('',(0.826296478509903,0.0700704772025347,-0.510484993457794));
#116=VECTOR('',#162,1.0);
#117=CARTESIAN_POINT('',(0.825773477554321,0.0897743254899979,-0.510912418365479));
#118=CARTESIAN_POINT('',(0.826035588979721,0.0849372521042824,-0.510675698518753));
#119=VECTOR('',#163,1.0);
#120=CARTESIAN_POINT('',(0.820402920246124,0.0999052450060844,-0.514634609222412));
#121=CARTESIAN_POINT('',(0.823088198900223,0.0948397852480412,-0.512773513793945));
#122=VECTOR('',#164,1.0);
#123=CARTESIAN_POINT('',(0.0103282611817122,0.100090928375721,0.00738481571897864));
#124=CARTESIAN_POINT('',(0.820402920246124,0.0999052450060844,-0.514634609222412));
#125=CARTESIAN_POINT('',(0.773553429215263,0.0999224490174611,-0.446613438504966));
#126=CARTESIAN_POINT('',(0.667072787193058,0.0999652485305994,-0.319331293068431));
#127=CARTESIAN_POINT('',(0.473206309853642,0.0999940377541744,-0.163148373469637));
#128=CARTESIAN_POINT('',(0.289512897848175,0.100098351541395,-0.0665083778963902));
#129=CARTESIAN_POINT('',(0.132316891307828,0.100033405877781,-0.0147648760353553));
#130=CARTESIAN_POINT('',(0.0512099196000003,0.100214414497498,0.00154414375007508));
#131=CARTESIAN_POINT('',(0.0103282611817122,0.100090928375721,0.00738481571897864));
#132=CARTESIAN_POINT('',(0.000176572808413766,0.100013136863708,0.0034829901997));
#133=CARTESIAN_POINT('',(0.00525241699506296,0.100052032619715,0.00543390295933932));
#134=VECTOR('',#165,1.0);
#135=CARTESIAN_POINT('',(-2.71381697164037E-34,0.0900089666247368,-1.60831699571919E-34));
#136=CARTESIAN_POINT('',(8.82864042068832E-05,0.0950110517442226,0.00174149509985));
#137=VECTOR('',#166,1.0);
#138=CARTESIAN_POINT('',(-1.26884256127299E-33,0.00999103579670191,-6.51903407109368E-34));
#139=CARTESIAN_POINT('',(-2.43464486933725E-34,0.0500000012107193,-7.29070065383792E-35));
#140=VECTOR('',#167,1.0);
#141=CARTESIAN_POINT('',(0.000785859883762896,-9.66866537055466E-06,0.00865940563380718));
#142=CARTESIAN_POINT('',(0.000392929941881448,0.00499068356566568,0.00432970281690359));
#143=VECTOR('',#168,1.0);
#144=CARTESIAN_POINT('',(0.815389335155487,-0.000140572417876683,-0.507092237472534));
#145=CARTESIAN_POINT('',(0.000785859883762896,-9.66866537055466E-06,0.00865940563380718));
#146=CARTESIAN_POINT('',(0.0417646653888502,-0.000414105098981126,0.00334528835761999));
#147=CARTESIAN_POINT('',(0.123062450394154,2.01696967694491E-05,-0.0123595707149339));
#148=CARTESIAN_POINT('',(0.241370803850758,-0.000150883478314968,-0.050077851576967));
#149=CARTESIAN_POINT('',(0.354718525183365,-0.000108756738283029,-0.100741775300229));
#150=CARTESIAN_POINT('',(0.497914077234955,-0.000119897030058508,-0.183730343691559));
#151=CARTESIAN_POINT('',(0.627939154661201,-0.000119899847270059,-0.287031531620096));
#152=CARTESIAN_POINT('',(0.741292308538213,-0.000128810806839493,-0.407620727438428));
#153=CARTESIAN_POINT('',(0.791703274501123,-0.000139006437796864,-0.473230216857941));
#154=CARTESIAN_POINT('',(0.815389335155487,-0.000140572417876683,-0.507092237472534));
#155=CARTESIAN_POINT('',(0.826322674751282,-0.00013685817248188,-0.510925889015198));
#156=CARTESIAN_POINT('',(0.820856004953384,-0.000138715295179281,-0.509009063243866));
#157=VECTOR('',#169,1.0);
#158=CARTESIAN_POINT('',(0.826305329799652,0.00989255665626843,-0.510820716619492));
#159=VECTOR('',#170,1.0);
#160=DIRECTION('',(0.000151540149543615,0.99998939608514,0.00460268974194976));
#161=DIRECTION('',(0.000133711888351329,0.999989426250232,0.00459668455111302));
#162=DIRECTION('',(0.000121826392931441,0.999989468552714,0.00458780361291109));
#163=DIRECTION('',(-0.0540441470105933,0.997344945035942,-0.0488087162825631));
#164=DIRECTION('',(-0.445489072369539,0.840362308504452,-0.308756662834014));
#165=DIRECTION('',(-0.933403960350146,-0.00715259400446746,-0.358756027408142));
#166=DIRECTION('',(-0.0166662823240836,-0.94426954590987,-0.328751060379526));
#167=DIRECTION('',(-0.0,-1.0,-0.0));
#168=DIRECTION('',(0.0593009810217715,-0.7546530848095,0.6534386851399));
#169=DIRECTION('',(0.943670235799685,0.000320581172552247,-0.330887266744248));
#170=DIRECTION('',(-0.00165211133951977,0.999906736252478,0.0135568921600421));
ENDSEC;
END-ISO-10303-21;
