ISO-10303-21;
HEADER;
FILE_DESCRIPTION(('STEP AP214'),'1');
FILE_NAME('SMAStripDeformed_03.stp','2025-12-21T20:32:34',(' '),(' '),'Spatial InterOp 3D',' ',' ');
FILE_SCHEMA(('AUTOMOTIVE_DESIGN { 1 0 10303 214 1 1 1 1 }'));
ENDSEC;
DATA;
#1=PRODUCT_DEFINITION_CONTEXT('',#9,'design');
#2=APPLICATION_PROTOCOL_DEFINITION('INTERNATIONAL STANDARD','automotive_design',1994,#9);
#3=PRODUCT_CATEGORY_RELATIONSHIP('NONE','NONE',#10,#11);
#4=SHAPE_DEFINITION_REPRESENTATION(#12,#13);
#5= (GEOMETRIC_REPRESENTATION_CONTEXT(3)GLOBAL_UNCERTAINTY_ASSIGNED_CONTEXT((#16))GLOBAL_UNIT_ASSIGNED_CONTEXT((#18,#19,#20))REPRESENTATION_CONTEXT('NONE','WORKSPACE'));
#9=APPLICATION_CONTEXT(' ');
#10=PRODUCT_CATEGORY('part','NONE');
#11=PRODUCT_RELATED_PRODUCT_CATEGORY('detail',' ',(#22));
#12=PRODUCT_DEFINITION_SHAPE('NONE','NONE',#23);
#13=MANIFOLD_SURFACE_SHAPE_REPRESENTATION('1',(#24,#25),#5);
#16=UNCERTAINTY_MEASURE_WITH_UNIT(LENGTH_MEASURE(1.0E-06),#18,'','');
#18= (CONVERSION_BASED_UNIT('MILLIMETRE',#28)LENGTH_UNIT()NAMED_UNIT(#31));
#19= (NAMED_UNIT(#33)PLANE_ANGLE_UNIT()SI_UNIT($,.RADIAN.));
#20= (NAMED_UNIT(#33)SOLID_ANGLE_UNIT()SI_UNIT($,.STERADIAN.));
#22=PRODUCT('1','','PART--DESC',(#39));
#23=PRODUCT_DEFINITION('','NONE',#40,#1);
#24=SHELL_BASED_SURFACE_MODEL('1',(#41));
#25=AXIS2_PLACEMENT_3D('',#42,#43,#44);
#28=LENGTH_MEASURE_WITH_UNIT(LENGTH_MEASURE(1.0),#45);
#31=DIMENSIONAL_EXPONENTS(1.0,0.0,0.0,0.0,0.0,0.0,0.0);
#33=DIMENSIONAL_EXPONENTS(0.0,0.0,0.0,0.0,0.0,0.0,0.0);
#39=PRODUCT_CONTEXT('',#9,'mechanical');
#40=PRODUCT_DEFINITION_FORMATION_WITH_SPECIFIED_SOURCE(' ','NONE',#22,.NOT_KNOWN.);
#41=CLOSED_SHELL('',(#46,#47));
#42=CARTESIAN_POINT('',(0.0,0.0,0.0));
#43=DIRECTION('',(0.0,0.0,1.0));
#44=DIRECTION('',(1.0,0.0,0.0));
#45= (NAMED_UNIT(#31)LENGTH_UNIT()SI_UNIT(.MILLI.,.METRE.));
#46=FACE_SURFACE('',(#49),#50,.T.);
#47=FACE_SURFACE('',(#51),#52,.T.);
#49=FACE_BOUND('',#53,.T.);
#50=CONICAL_SURFACE('',#54,126.950557331769,1.44480594559444);
#51=FACE_BOUND('',#55,.T.);
#52=CONICAL_SURFACE('',#56,126.950557331769,1.44480594559444);
#53=EDGE_LOOP('',(#57,#58,#59,#60,#61));
#54=AXIS2_PLACEMENT_3D('',#62,#63,#64);
#55=EDGE_LOOP('',(#65,#66,#67,#68,#69));
#56=AXIS2_PLACEMENT_3D('',#70,#71,#72);
#57=ORIENTED_EDGE('',*,*,#73,.T.);
#58=ORIENTED_EDGE('',*,*,#74,.T.);
#59=ORIENTED_EDGE('',*,*,#75,.T.);
#60=ORIENTED_EDGE('',*,*,#76,.T.);
#61=ORIENTED_EDGE('',*,*,#77,.T.);
#62=CARTESIAN_POINT('',(-5.3936192766882,0.0493939047982444,-15.1009082124053));
#63=DIRECTION('',(-0.346501310109227,-3.73784675806466E-05,-0.938049487338189));
#64=DIRECTION('',(0.938049487993487,0.0,-0.346501310351284));
#65=ORIENTED_EDGE('',*,*,#73,.F.);
#66=ORIENTED_EDGE('',*,*,#78,.T.);
#67=ORIENTED_EDGE('',*,*,#79,.T.);
#68=ORIENTED_EDGE('',*,*,#80,.T.);
#69=ORIENTED_EDGE('',*,*,#74,.F.);
#70=CARTESIAN_POINT('',(-5.3936192766882,0.0493939047982444,-15.1009082124053));
#71=DIRECTION('',(-0.346501310109227,-3.73784675806466E-05,-0.938049487338189));
#72=DIRECTION('',(0.938049487993487,0.0,-0.346501310351284));
#73=EDGE_CURVE('',#81,#82,#83,.T.);
#74=EDGE_CURVE('',#82,#84,#85,.T.);
#75=EDGE_CURVE('',#84,#86,#87,.T.);
#76=EDGE_CURVE('',#86,#88,#89,.T.);
#77=EDGE_CURVE('',#88,#81,#90,.T.);
#78=EDGE_CURVE('',#81,#91,#92,.T.);
#79=EDGE_CURVE('',#91,#93,#94,.T.);
#80=EDGE_CURVE('',#93,#84,#95,.T.);
#81=VERTEX_POINT('',#96);
#82=VERTEX_POINT('',#97);
#83=LINE('',#98,#99);
#84=VERTEX_POINT('',#100);
#85=LINE('',#101,#102);
#86=VERTEX_POINT('',#103);
#87=LINE('',#104,#105);
#88=VERTEX_POINT('',#106);
#89=B_SPLINE_CURVE_WITH_KNOTS('',3,(#107,#108,#109,#110,#111,#112,#113,#114,#115,#116,#117,#118,#119),.UNSPECIFIED.,.F.,.F.,(4,1,1,1,1,1,1,1,1,1,4),(0.0,0.278468826922185,0.417703240383277,0.556937653844369,0.696172067305462,0.835406480766554,0.9050236874971,0.974640894227647,1.04425810095819,1.07906670432347,1.11387530768874),.UNSPECIFIED.);
#90=LINE('',#120,#121);
#91=VERTEX_POINT('',#122);
#92=LINE('',#123,#124);
#93=VERTEX_POINT('',#125);
#94=B_SPLINE_CURVE_WITH_KNOTS('',3,(#126,#127,#128,#129,#130,#131,#132,#133,#134,#135,#136,#137,#138),.UNSPECIFIED.,.F.,.F.,(4,1,1,1,1,1,1,1,1,1,4),(0.0,0.0348095497755657,0.0696190995511313,0.139238199102263,0.208857298653394,0.278476398204525,0.417714597306788,0.55695279640905,0.696190995511313,0.835429194613576,1.1139055928181),.UNSPECIFIED.);
#95=LINE('',#139,#140);
#96=CARTESIAN_POINT('',(1.46091595782129E-31,0.049993242188097,4.17384893199591E-32));
#97=CARTESIAN_POINT('',(0.178024828960302,0.0499949400973843,-0.0173349488961616));
#98=CARTESIAN_POINT('',(-124.479524582242,0.0493939047982288,28.8876262528783));
#99=VECTOR('',#141,1.0);
#100=CARTESIAN_POINT('',(1.00109487093994,0.0499899011178511,-0.465077355696058));
#101=CARTESIAN_POINT('',(113.692286028865,0.0493939047982599,-59.0894426776889));
#102=VECTOR('',#142,1.0);
#103=CARTESIAN_POINT('',(1.00108194351196,0.100219018757343,-0.465244203805923));
#104=CARTESIAN_POINT('',(1.00109481811523,0.0501950147663592,-0.465077355504036));
#105=VECTOR('',#143,1.0);
#106=CARTESIAN_POINT('',(-5.86234718257819E-33,0.100000001490116,-1.95300213029965E-33));
#107=CARTESIAN_POINT('',(1.00108194351196,0.100219018757343,-0.465244203805923));
#108=CARTESIAN_POINT('',(0.923249574514734,0.100199093523932,-0.414665348956626));
#109=CARTESIAN_POINT('',(0.804923934150112,0.100169376473004,-0.34120903808784));
#110=CARTESIAN_POINT('',(0.643544619372419,0.100125571982964,-0.249410510571745));
#111=CARTESIAN_POINT('',(0.520779670879925,0.100100738657586,-0.183688473610214));
#112=CARTESIAN_POINT('',(0.396262961913769,0.100042821911783,-0.121384510370892));
#113=CARTESIAN_POINT('',(0.291055306072194,0.10009028765807,-0.0723300368453482));
#114=CARTESIAN_POINT('',(0.204448959522215,0.100080685046519,-0.0388324997185106));
#115=CARTESIAN_POINT('',(0.137938573920068,0.100168811315534,-0.0180139322615681));
#116=CARTESIAN_POINT('',(0.0809005489320398,0.100148432717026,-0.00694141153221421));
#117=CARTESIAN_POINT('',(0.0347791082240551,0.100156025042234,-0.00153901493925758));
#118=CARTESIAN_POINT('',(0.0115977367489856,0.100091201499499,-0.000332754827420632));
#119=CARTESIAN_POINT('',(-5.86234718257819E-33,0.100000001490116,-1.95300213029965E-33));
#120=CARTESIAN_POINT('',(1.46091595782129E-31,0.0500000007450581,4.17384893199591E-32));
#121=VECTOR('',#144,1.0);
#122=CARTESIAN_POINT('',(-5.86205110493857E-33,-8.37003479131714E-33,-1.95326753488355E-33));
#123=CARTESIAN_POINT('',(1.46091595782129E-31,0.0500000007450581,4.17384893199591E-32));
#124=VECTOR('',#145,1.0);
#125=CARTESIAN_POINT('',(1.00110769271851,0.00017101077537518,-0.465244293212891));
#126=CARTESIAN_POINT('',(-5.86205110493857E-33,-8.37003479131714E-33,-1.95326753488355E-33));
#127=CARTESIAN_POINT('',(0.0115980524921949,-9.1214192982174E-05,-0.00033274628492819));
#128=CARTESIAN_POINT('',(0.0347800154936664,-0.000155939937979675,-0.00153910396300352));
#129=CARTESIAN_POINT('',(0.080902971455316,-0.000148743460253316,-0.00694086233330832));
#130=CARTESIAN_POINT('',(0.137941506667928,-0.000166475001847585,-0.0180118030174818));
#131=CARTESIAN_POINT('',(0.204474113856656,-8.75118994417541E-05,-0.0387652637452645));
#132=CARTESIAN_POINT('',(0.291053627079599,-5.26023974394179E-05,-0.0723453768553205));
#133=CARTESIAN_POINT('',(0.396278245925835,3.16290813563934E-05,-0.121359718308459));
#134=CARTESIAN_POINT('',(0.520790251716297,4.32970740819566E-05,-0.183685974818882));
#135=CARTESIAN_POINT('',(0.643560903970943,8.0173344909104E-05,-0.249403910636988));
#136=CARTESIAN_POINT('',(0.804944035127717,0.000119885505243278,-0.341206510425496));
#137=CARTESIAN_POINT('',(0.923273268272696,0.000150911440242315,-0.414663969785888));
#138=CARTESIAN_POINT('',(1.00110769271851,0.00017101077537518,-0.465244293212891));
#139=CARTESIAN_POINT('',(1.00109481811523,0.0501950147663592,-0.465077355504036));
#140=VECTOR('',#146,1.0);
#141=DIRECTION('',(0.974154659237988,4.69687828618756E-06,-0.225882048562649));
#142=DIRECTION('',(0.887073803072118,-4.69687828594453E-06,-0.461627629027021));
#143=DIRECTION('',(-0.000257538700095372,0.99999996683647,9.36173712415387E-07));
#144=DIRECTION('',(-0.0,-1.0,-0.0));
#145=DIRECTION('',(-0.0,-1.0,-0.0));
#146=DIRECTION('',(-0.000257538700095372,0.99999996683647,9.36173712415387E-07));
ENDSEC;
END-ISO-10303-21;
