#OBJ File generated by Abaqus/CAE
#List of Vertices
v 0.0200084 -3.63301e-05 -0.000207966
v 0.0200141 0.00710977 -0.000168909
v 0.0128688 0.00711376 -0.000134091
v 1.77379e-06 0.0199997 -1.26233e-06
v 0.020027 0.0199841 -9.71345e-05
v 0.0128682 -2.36057e-05 -0.00013348
v 3.67166e-06 -1.53696e-06 -1.92181e-06
v 0.0274053 0.0125982 -0.000297792
v 0.0269776 0.0199817 -0.000211097
v 0.0375378 0.0199748 -0.000383716
v 0.0386172 0.00137927 -0.000606569
v 0.0400365 0.019972 -0.00042486
v 0.0400331 -3.76733e-05 -0.000645516
v 0.0246792 -3.70353e-05 -0.000308165
v 0.0200194 0.0130677 -0.00013509
v 0.0319011 -3.8424e-05 -0.00046719
v 0.0391211 -3.82416e-05 -0.000625886
v 0.0465071 0.0135018 -0.000687723
v 0.0478125 0.0199737 -0.000632333
v 0.0579974 0.0199752 -0.000903925
v 0.05498 0.00502938 -0.00103189
v 0.060053 0.0199754 -0.000957582
v 0.0600509 -4.31444e-05 -0.00123596
v 0.0552047 -4.21946e-05 -0.00109253
v 0.0471071 -4.07356e-05 -0.000853175
v 0.0721034 0.00792892 -0.00158651
v 0.0761829 0.019974 -0.00154643
v 0.0800674 0.0199759 -0.00168936
v 0.0800717 -3.90015e-05 -0.00200021
v 0.068702 -4.02472e-05 -0.00156727
v 0.100088 -3.62193e-05 -0.00293601
v 0.100083 0.0199797 -0.00261554
v 0.120101 -2.93251e-05 -0.00403747
v 0.1201 0.00316804 -0.00398687
v 0.118601 0.00146885 -0.0039298
v 0.120098 0.0199787 -0.00372264
v 0.115542 -3.19973e-05 -0.0037864
v 0.140115 -2.86239e-05 -0.00529667
v 0.140113 0.0199842 -0.00500081
v 0.125549 -3.01117e-05 -0.00438045
v 0.160124 0.0199851 -0.00643589
v 0.150505 0.0199854 -0.00574628
v 0.160128 0.00544679 -0.00663035
v 0.160128 -2.37768e-05 -0.00670264
v 0.180138 -1.84664e-05 -0.00824462
v 0.180135 0.0199916 -0.00801319
v 0.163527 -2.2913e-05 -0.00696469
v 0.200147 -1.31314e-05 -0.00989618
v 0.200143 0.0199922 -0.00969695
v 0.204583 0.0155524 -0.0101258
v 0.202262 0.0199935 -0.00988432
v 0.22015 0.019996 -0.0114657
v 0.220151 -1.08353e-05 -0.011636
v 0.214428 -1.17943e-05 -0.0111372
v 0.240155 -7.95021e-06 -0.0134535
v 0.240155 0.0199962 -0.013303
v 0.258909 0.00124345 -0.0152102
v 0.255324 0.0199972 -0.0147418
v 0.260161 0.0199965 -0.0152019
v 0.260159 -9.99325e-06 -0.0153348
v 0.259263 -8.52904e-06 -0.0152511
v 0.280165 -8.77827e-06 -0.0172808
v 0.280165 0.0199949 -0.0171575
v 0.30017 -8.6352e-06 -0.0192828
v 0.300169 0.0199954 -0.019171
v 0.320175 -7.29711e-06 -0.0213377
v 0.320175 0.0199959 -0.0212419
v 0.34018 -5.59609e-06 -0.0234396
v 0.340178 0.0199967 -0.0233566
v 0.360182 0.019998 -0.0255125
v 0.359258 0.0199978 -0.0254131
v 0.360181 0.0191229 -0.0255164
v 0.360183 -2.91429e-06 -0.0255789
v 0.380186 -1.49148e-06 -0.0277476
v 0.380183 0.0200015 -0.027695
v 0.375805 -2.20901e-06 -0.027271
v 0.400185 2.27175e-06 -0.0299351
v 0.400184 0.0200031 -0.029894
v 0.420185 3.15871e-06 -0.0321372
v 0.420185 0.0200034 -0.0321029
v 0.440186 3.32256e-06 -0.0343492
v 0.440187 0.0200037 -0.03432
v 0.460188 3.68264e-06 -0.0365719
v 0.460187 0.020005 -0.0365439
v 0.480189 5.1935e-06 -0.0388042
v 0.480186 0.020005 -0.038775
v 0.500188 5.89319e-06 -0.0410438
v 0.500187 0.020007 -0.0410176
v 0.52019 6.51045e-06 -0.043294
v 0.520188 0.0200066 -0.0432664
v 0.540189 7.73532e-06 -0.0455515
v 0.540189 0.0200068 -0.0455255
v 0.560191 7.79227e-06 -0.0478205
v 0.56019 0.0200084 -0.0477942
v 0.580191 7.38e-06 -0.0500957
v 0.580191 0.0200095 -0.0500721
v 0.600192 9.66486e-06 -0.0523835
v 0.600192 0.0200086 -0.052357
v 0.620193 1.04229e-05 -0.0546783
v 0.620191 0.020011 -0.0546522
v 0.640193 1.04979e-05 -0.056981
v 0.640194 0.0200104 -0.0569571
v 0.660194 1.05322e-05 -0.0592947
v 0.660192 0.0200122 -0.0592689
v 0.680194 1.13289e-05 -0.0616161
v 0.680195 0.0200124 -0.0615923
v 0.700195 1.35898e-05 -0.0639483
v 0.700194 0.0200141 -0.0639231
v 0.720195 1.33892e-05 -0.0662876
v 0.720195 0.0200134 -0.066262
v 0.740198 1.38066e-05 -0.0686382
v 0.740195 0.0200157 -0.068612
v 0.760198 1.56325e-05 -0.0709968
v 0.760197 0.0200149 -0.0709705
v 0.780197 1.4998e-05 -0.0733619
v 0.780198 0.0200163 -0.0733386
v 0.800199 1.73638e-05 -0.0757406
v 0.800199 0.0200162 -0.0757146
v 0.820199 1.66173e-05 -0.0781241
v 0.8202 0.0200177 -0.0781004
v 0.8402 1.81166e-05 -0.0805195
v 0.840199 0.0200192 -0.0804937
v 0.860202 1.81969e-05 -0.0829231
v 0.8602 0.0200194 -0.0828978
v 0.880201 1.9915e-05 -0.0853349
v 0.880201 0.0200191 -0.0853095
v 0.900203 1.96388e-05 -0.0877571
v 0.900202 0.0200214 -0.0877325
v 0.920204 2.04968e-05 -0.0901875
v 0.920204 0.0200205 -0.090162
v 0.940203 2.11034e-05 -0.0926256
v 0.940203 0.0200217 -0.0926008
v 0.960205 2.23497e-05 -0.0950759
v 0.960203 0.0200236 -0.0950503
v 0.980204 2.29627e-05 -0.0975318
v 0.980204 0.0200229 -0.0975068
v 1.00021 2.37964e-05 -0.0999998
v 1.00021 0.0200247 -0.0999749
v 0.0200222 0.0399949 -7.59237e-05
v 0.0171408 0.0399948 -6.57684e-05
v 0.0200239 0.0374703 -7.77863e-05
v 0.0200248 0.0309321 -8.59973e-05
v 0.00966769 0.0399949 -3.64338e-05
v 0.0200251 0.0243935 -9.29855e-05
v 0.00219406 0.0399972 -8.78379e-06
v 1.95134e-06 0.0399993 -1.09515e-06
v 0.0236633 0.0363541 -0.000141256
v 0.0243812 0.0399927 -0.00013169
v 0.0314778 0.0399933 -0.000226827
v 0.0295866 0.0304261 -0.00024228
v 0.0385718 0.0399926 -0.000318046
v 0.0355125 0.0244977 -0.000345713
v 0.0400424 0.0399927 -0.000339214
v 0.0200234 0.0369992 -7.87851e-05
v 0.0200255 0.0321238 -8.52065e-05
v 0.0200258 0.0272488 -9.01893e-05
v 0.0335219 0.019977 -0.000318399
v 0.0200243 0.0223742 -9.37816e-05
v 0.0429819 0.0370524 -0.000430258
v 0.0456637 0.0399919 -0.000475387
v 0.0600524 0.0399902 -0.000828969
v 0.0600537 0.0259894 -0.000921542
v 0.0571844 0.0228455 -0.000869469
v 0.0657146 0.0343279 -0.00107207
v 0.0676419 0.0399909 -0.00109907
v 0.0800684 0.0399951 -0.00153931
v 0.0800677 0.0290985 -0.00162024
v 0.0777545 0.02229 -0.00159121
v 0.0849734 0.0350882 -0.00180124
v 0.0879915 0.0399944 -0.00190083
v 0.100083 0.0399922 -0.00245086
v 0.120097 0.0399958 -0.00355421
v 0.140111 0.0399945 -0.00483769
v 0.152604 0.0275043 -0.00583605
v 0.147238 0.039996 -0.00535546
v 0.160123 0.0399988 -0.00629193
v 0.180134 0.0399981 -0.00788601
v 0.20014 0.0400019 -0.00958704
v 0.181286 0.0399988 -0.00798492
v 0.200141 0.0219414 -0.00968565
v 0.220149 0.0400006 -0.0113708
v 0.240153 0.0400029 -0.0132205
v 0.246751 0.0334056 -0.0138742
v 0.242964 0.0400013 -0.0134876
v 0.26016 0.0400002 -0.0151281
v 0.280165 0.040002 -0.0170951
v 0.30017 0.04 -0.0191169
v 0.320174 0.0400011 -0.0211939
v 0.340177 0.0400017 -0.0233187
v 0.332268 0.040001 -0.0224789
v 0.340179 0.0332324 -0.0233321
v 0.36018 0.040001 -0.0254796
v 0.380181 0.0400029 -0.0276678
v 0.400183 0.0400039 -0.0298706
v 0.420184 0.0400038 -0.032082
v 0.440186 0.0400043 -0.0343
v 0.460186 0.0400056 -0.0365261
v 0.480186 0.0400061 -0.038758
v 0.500187 0.040006 -0.0409992
v 0.520188 0.0400084 -0.0432519
v 0.540188 0.0400091 -0.0455108
v 0.56019 0.0400088 -0.0477788
v 0.58019 0.0400105 -0.0500562
v 0.600191 0.0400102 -0.0523415
v 0.620192 0.0400108 -0.0546368
v 0.640193 0.0400108 -0.0569399
v 0.660193 0.0400133 -0.0592548
v 0.680193 0.0400142 -0.061576
v 0.700193 0.0400144 -0.0639063
v 0.720195 0.0400146 -0.0662466
v 0.740195 0.0400155 -0.0685957
v 0.760197 0.0400156 -0.0709551
v 0.780197 0.040018 -0.0733228
v 0.800198 0.0400167 -0.075698
v 0.820199 0.0400193 -0.0780848
v 0.840199 0.0400198 -0.0804785
v 0.860201 0.0400191 -0.0828817
v 0.880201 0.0400202 -0.0852942
v 0.900201 0.0400217 -0.0877154
v 0.920202 0.0400224 -0.0901467
v 0.940202 0.0400231 -0.0925848
v 0.960203 0.0400225 -0.0950328
v 0.980204 0.0400237 -0.0974905
v 1.00021 0.0400254 -0.0999589
v 3.93134e-06 0.0599983 -2.03133e-06
v 0.00161206 0.0583898 -6.33891e-06
v 0.00164319 0.0599982 -6.93403e-06
v 0.0095041 0.0599998 -3.55562e-05
v 0.00932986 0.0506787 -3.577e-05
v 0.0173651 0.0600044 -6.72666e-05
v 0.0170477 0.0429675 -6.52278e-05
v 0.0200234 0.0600041 -7.69555e-05
v 0.0246409 0.055388 -0.000137039
v 0.0248978 0.0600053 -0.000140429
v 0.0322651 0.0600039 -0.00023657
v 0.0316196 0.048412 -0.000228597
v 0.0396283 0.060007 -0.000333237
v 0.0385973 0.0414384 -0.000321537
v 0.0400412 0.0600049 -0.000338537
v 0.0419452 0.0581003 -0.000385062
v 0.0416221 0.0600058 -0.00037701
v 0.060053 0.0600117 -0.000825749
v 0.0663081 0.0537561 -0.00104855
v 0.065885 0.0600116 -0.00103184
v 0.0800662 0.0600077 -0.00152836
v 0.0860254 0.0540502 -0.00180415
v 0.086047 0.0600109 -0.00180116
v 0.10008 0.0600135 -0.00243847
v 0.120094 0.0600113 -0.0035402
v 0.140111 0.0600118 -0.00482613
v 0.145274 0.0548479 -0.00520391
v 0.144969 0.0600107 -0.0051795
v 0.160122 0.0600104 -0.0062792
v 0.180133 0.0600091 -0.00787241
v 0.181976 0.0581661 -0.00803053
v 0.181962 0.0600105 -0.00802951
v 0.200141 0.0600079 -0.00957426
v 0.220148 0.060008 -0.0113594
v 0.240154 0.0600057 -0.0132101
v 0.240789 0.0593726 -0.0132731
v 0.240722 0.0600063 -0.013266
v 0.26016 0.0600074 -0.0151225
v 0.280165 0.0600052 -0.0170878
v 0.30017 0.060005 -0.0191114
v 0.320174 0.0600045 -0.0211907
v 0.330751 0.0494269 -0.0223154
v 0.328986 0.0600053 -0.0221286
v 0.340177 0.060004 -0.0233164
v 0.360181 0.0600022 -0.0254794
v 0.380181 0.0600038 -0.0276657
v 0.400183 0.0600046 -0.0298677
v 0.420184 0.0600046 -0.0320769
v 0.440185 0.0600048 -0.0342943
v 0.460185 0.060006 -0.0365186
v 0.480187 0.0600059 -0.0387522
v 0.500186 0.0600078 -0.0409931
v 0.520189 0.0600074 -0.0432443
v 0.540188 0.0600077 -0.0455015
v 0.560188 0.0600093 -0.0477703
v 0.580189 0.0600106 -0.0500481
v 0.58019 0.0400105 -0.0500562
v 0.60019 0.0600098 -0.0523326
v 0.62019 0.0600124 -0.0546293
v 0.640192 0.060012 -0.0569334
v 0.660191 0.0600142 -0.0592461
v 0.680192 0.0600148 -0.0615679
v 0.700194 0.0600147 -0.0638997
v 0.720195 0.0600146 -0.0662402
v 0.740195 0.0600153 -0.0685882
v 0.760196 0.0600176 -0.0709484
v 0.780197 0.0600177 -0.0733152
v 0.800196 0.0600187 -0.0756905
v 0.820197 0.0600191 -0.0780758
v 0.840198 0.0600197 -0.0804697
v 0.860199 0.0600214 -0.0828748
v 0.880199 0.0600206 -0.0852855
v 0.9002 0.0600226 -0.0877085
v 0.9202 0.0600238 -0.0901382
v 0.940202 0.0600229 -0.0925778
v 0.960201 0.0600251 -0.0950261
v 0.980203 0.060025 -0.0974842
v 1.0002 0.0600255 -0.0999515
v 0.980203 0.060025 -0.0974842
v 0.0200239 0.0623831 -7.94659e-05
v 0.0176424 0.062381 -6.68458e-05
v 0.0106016 0.0694141 -4.18157e-05
v 0.0200236 0.0694202 -8.61272e-05
v 0.00355855 0.0764472 -1.44454e-05
v 0.0200253 0.0764571 -9.41371e-05
v 2.68531e-06 0.0799975 -4.20164e-08
v 0.0200237 0.0800115 -9.72587e-05
v 0.0224493 0.0775883 -0.00012768
v 0.024283 0.0800156 -0.000165908
v 0.0400338 0.080024 -0.000418836
v 0.0200254 0.079324 -9.75385e-05
v 0.0200238 0.0740482 -9.09188e-05
v 0.0200237 0.0687712 -8.46018e-05
v 0.0200238 0.0634956 -7.98861e-05
v 0.060049 0.0800257 -0.000944933
v 0.0566182 0.0800257 -0.000855982
v 0.0600506 0.0705585 -0.000888269
v 0.0489214 0.0711412 -0.000601292
v 0.0456988 0.0800246 -0.000567907
v 0.0800656 0.0800294 -0.00166504
v 0.0745919 0.0800278 -0.00146839
v 0.080066 0.0673205 -0.00157938
v 0.100082 0.0800252 -0.00258075
v 0.120098 0.0800283 -0.00368776
v 0.140112 0.0800232 -0.00496647
v 0.140909 0.079228 -0.00502044
v 0.141669 0.0800233 -0.00507734
v 0.160125 0.080022 -0.00640336
v 0.180135 0.0800178 -0.00797667
v 0.200144 0.0785029 -0.0096561
v 0.190876 0.069276 -0.00883571
v 0.200143 0.080017 -0.00966291
v 0.201027 0.0791323 -0.00973733
v 0.201684 0.080016 -0.00979857
v 0.220151 0.0800124 -0.011435
v 0.240156 0.0800113 -0.0132759
v 0.248948 0.0712174 -0.0140862
v 0.253176 0.0800098 -0.0145136
v 0.260162 0.0800104 -0.0151798
v 0.280166 0.0800114 -0.0171398
v 0.30017 0.0800085 -0.0191554
v 0.320174 0.0800082 -0.0212288
v 0.340178 0.0694501 -0.0233332
v 0.33434 0.0658422 -0.0227085
v 0.340177 0.0800075 -0.0233502
v 0.346654 0.0735304 -0.0240399
v 0.356742 0.0800067 -0.0251358
v 0.360181 0.0800061 -0.0255074
v 0.380181 0.0800054 -0.0276859
v 0.400184 0.0800041 -0.0298811
v 0.420183 0.0800039 -0.0320843
v 0.440185 0.0800061 -0.0343004
v 0.460184 0.0800062 -0.0365217
v 0.480185 0.0800075 -0.0387547
v 0.500185 0.080008 -0.040995
v 0.520187 0.0800086 -0.0432457
v 0.540188 0.0800098 -0.0455058
v 0.560188 0.08001 -0.0477727
v 0.58019 0.0800098 -0.0500498
v 0.60019 0.0800123 -0.0523368
v 0.620191 0.0800134 -0.0546325
v 0.64019 0.080014 -0.0569355
v 0.660191 0.0800147 -0.0592489
v 0.680193 0.080014 -0.0615701
v 0.700193 0.0800149 -0.0639012
v 0.720194 0.0800158 -0.0662417
v 0.740193 0.0800176 -0.0685905
v 0.760195 0.0800164 -0.0709478
v 0.780197 0.0800176 -0.0733167
v 0.800196 0.0800197 -0.0756927
v 0.820198 0.0800191 -0.0780782
v 0.840197 0.080021 -0.080472
v 0.860198 0.0800218 -0.0828764
v 0.880198 0.0800224 -0.085288
v 0.9002 0.0800237 -0.0877112
v 0.920201 0.0800242 -0.0901416
v 0.9402 0.080025 -0.0925796
v 0.960202 0.0800247 -0.0950284
v 0.980201 0.0800264 -0.0974855
v 1.0002 0.0800266 -0.099953
v 0.0200038 0.100031 -0.000197773
v 0.0147086 0.100021 -0.000145471
v 0.0200104 0.094728 -0.000171326
v 2.75424e-06 0.0999978 -3.86999e-07
v 0.0241112 0.0959295 -0.000244145
v 0.024343 0.100031 -0.000290064
v 0.0311252 0.100033 -0.000436505
v 0.0305286 0.0895192 -0.000314657
v 0.0379046 0.100035 -0.0005807
v 0.0369461 0.0831086 -0.000385171
v 0.0400297 0.100037 -0.000627337
v 0.0345667 0.0800205 -0.000332131
v 0.0232015 0.0800137 -0.000149644
v 0.0200145 0.0906153 -0.000151849
v 0.0468993 0.0931695 -0.000735964
v 0.0460853 0.100038 -0.000801786
v 0.0549039 0.100042 -0.00105839
v 0.056906 0.0831679 -0.000895583
v 0.0600473 0.100043 -0.00120946
v 0.0724134 0.0876808 -0.00149186
v 0.0691785 0.100042 -0.00155255
v 0.0800657 0.100042 -0.00196217
v 0.100083 0.100043 -0.0028856
v 0.120099 0.100039 -0.0039853
v 0.140115 0.100038 -0.00524974
v 0.135046 0.100038 -0.00492877
v 0.140113 0.0924028 -0.00514125
v 0.160126 0.100033 -0.00665604
v 0.180139 0.100031 -0.00819739
v 0.200148 0.100022 -0.00984725
v 0.209735 0.0904311 -0.0106073
v 0.214104 0.100021 -0.0110651
v 0.220153 0.10002 -0.0115919
v 0.240158 0.100016 -0.0134129
v 0.255171 0.0850003 -0.014738
v 0.258785 0.100016 -0.0151694
v 0.260163 0.100017 -0.015301
v 0.280166 0.100016 -0.0172468
v 0.300172 0.100014 -0.019252
v 0.320178 0.100013 -0.0213129
v 0.340181 0.100009 -0.0234165
v 0.360181 0.0828439 -0.0255148
v 0.358667 0.0815192 -0.0253484
v 0.360183 0.100007 -0.0255569
v 0.369715 0.0904726 -0.026571
v 0.374902 0.100006 -0.0271502
v 0.380183 0.100005 -0.0277222
v 0.400183 0.100006 -0.029909
v 0.420184 0.100005 -0.0321067
v 0.440185 0.100006 -0.034317
v 0.460185 0.100007 -0.0365373
v 0.480185 0.100009 -0.0387685
v 0.500185 0.100009 -0.0410082
v 0.520186 0.10001 -0.0432573
v 0.540187 0.100011 -0.0455167
v 0.560187 0.100011 -0.0477842
v 0.580189 0.100011 -0.0500604
v 0.600189 0.100013 -0.0523476
v 0.620189 0.100014 -0.0546422
v 0.640191 0.100014 -0.0569471
v 0.66019 0.100015 -0.0592589
v 0.680193 0.100014 -0.0615815
v 0.700194 0.100015 -0.0639126
v 0.720193 0.100016 -0.0662519
v 0.740194 0.100017 -0.068602
v 0.760195 0.100019 -0.0709606
v 0.780195 0.10002 -0.0733282
v 0.800196 0.10002 -0.0757043
v 0.820195 0.100021 -0.0780888
v 0.840198 0.100021 -0.0804839
v 0.860198 0.100022 -0.0828872
v 0.880199 0.100023 -0.0853002
v 0.9002 0.100022 -0.0877203
v 0.9202 0.100023 -0.0901509
v 0.940201 0.100025 -0.0925914
v 0.960202 0.100025 -0.0950392
v 0.980203 0.100025 -0.0974965
v 1.0002 0.100026 -0.0999637
v 3.93134e-06 0.0599983 -0.000202031
v 2.68531e-06 0.0799975 -0.000200042
v 0.0200237 0.0800115 -0.000297259
v 0.0200234 0.0600041 -0.000276955
v 0.0400412 0.0600049 -0.000538537
v 0.0400424 0.0399927 -0.000539214
v 0.0600524 0.0399902 -0.00102897
v 0.060053 0.0199754 -0.00115758
v 0.0800674 0.0199759 -0.00188936
v 0.0800717 -3.90015e-05 -0.00220021
v 0.0600509 -4.31444e-05 -0.00143596
v 2.75424e-06 0.0999978 -0.000200387
v 0.0200038 0.100031 -0.000397773
v 0.0400338 0.080024 -0.000618836
v 0.060053 0.0600117 -0.00102575
v 0.0800684 0.0399951 -0.00173931
v 0.100083 0.0199797 -0.00281554
v 0.100088 -3.62193e-05 -0.00313601
v 0.0400297 0.100037 -0.000827337
v 0.060049 0.0800257 -0.00114493
v 0.0800662 0.0600077 -0.00172836
v 0.100083 0.0399922 -0.00265086
v 0.120098 0.0199787 -0.00392264
v 0.120101 -2.93251e-05 -0.00423747
v 0.0600473 0.100043 -0.00140946
v 0.0800656 0.0800294 -0.00186504
v 0.10008 0.0600135 -0.00263847
v 0.120097 0.0399958 -0.00375421
v 0.140113 0.0199842 -0.00520081
v 0.140115 -2.86239e-05 -0.00549667
v 0.0800657 0.100042 -0.00216217
v 0.100082 0.0800252 -0.00278075
v 0.120094 0.0600113 -0.0037402
v 0.140111 0.0399945 -0.00503769
v 0.160124 0.0199851 -0.00663589
v 0.160128 -2.37768e-05 -0.00690264
v 0.100083 0.100043 -0.0030856
v 0.120098 0.0800283 -0.00388776
v 0.140111 0.0600118 -0.00502613
v 0.160123 0.0399988 -0.00649193
v 0.180135 0.0199916 -0.00821319
v 0.180138 -1.84664e-05 -0.00844462
v 0.120099 0.100039 -0.0041853
v 0.140112 0.0800232 -0.00516647
v 0.160122 0.0600104 -0.0064792
v 0.180134 0.0399981 -0.00808601
v 0.200143 0.0199922 -0.00989695
v 0.200147 -1.31314e-05 -0.0100962
v 0.140115 0.100038 -0.00544974
v 0.160125 0.080022 -0.00660336
v 0.180133 0.0600091 -0.00807241
v 0.20014 0.0400019 -0.00978704
v 0.22015 0.019996 -0.0116657
v 0.220151 -1.08353e-05 -0.011836
v 0.160126 0.100033 -0.00685604
v 0.180135 0.0800178 -0.00817667
v 0.200141 0.0600079 -0.00977426
v 0.220149 0.0400006 -0.0115708
v 0.240155 0.0199962 -0.013503
v 0.240155 -7.95021e-06 -0.0136535
v 0.180139 0.100031 -0.00839739
v 0.200143 0.080017 -0.00986291
v 0.220148 0.060008 -0.0115594
v 0.240153 0.0400029 -0.0134205
v 0.260161 0.0199965 -0.0154019
v 0.260159 -9.99325e-06 -0.0155348
v 0.200148 0.100022 -0.0100472
v 0.220151 0.0800124 -0.011635
v 0.240154 0.0600057 -0.0134101
v 0.26016 0.0400002 -0.0153281
v 0.280165 0.0199949 -0.0173575
v 0.280165 -8.77827e-06 -0.0174808
v 0.220153 0.10002 -0.0117919
v 0.240156 0.0800113 -0.0134759
v 0.26016 0.0600074 -0.0153225
v 0.280165 0.040002 -0.0172951
v 0.300169 0.0199954 -0.019371
v 0.30017 -8.6352e-06 -0.0194828
v 0.240158 0.100016 -0.0136129
v 0.260162 0.0800104 -0.0153798
v 0.280165 0.0600052 -0.0172878
v 0.30017 0.04 -0.0193169
v 0.320175 0.0199959 -0.0214419
v 0.320175 -7.29711e-06 -0.0215377
v 0.260163 0.100017 -0.015501
v 0.280166 0.0800114 -0.0173398
v 0.30017 0.060005 -0.0193114
v 0.320174 0.0400011 -0.0213939
v 0.340178 0.0199967 -0.0235566
v 0.34018 -5.59609e-06 -0.0236396
v 0.280166 0.100016 -0.0174468
v 0.30017 0.0800085 -0.0193554
v 0.320174 0.0600045 -0.0213907
v 0.340177 0.0400017 -0.0235187
v 0.360182 0.019998 -0.0257125
v 0.360183 -2.91429e-06 -0.0257789
v 0.300172 0.100014 -0.019452
v 0.320174 0.0800082 -0.0214288
v 0.340177 0.060004 -0.0235164
v 0.36018 0.040001 -0.0256796
v 0.380183 0.0200015 -0.027895
v 0.380186 -1.49148e-06 -0.0279476
v 0.320178 0.100013 -0.0215129
v 0.340177 0.0800075 -0.0235502
v 0.360181 0.0600022 -0.0256794
v 0.380181 0.0400029 -0.0278678
v 0.400184 0.0200031 -0.030094
v 0.400185 2.27175e-06 -0.0301351
v 0.340181 0.100009 -0.0236165
v 0.360181 0.0800061 -0.0257074
v 0.380181 0.0600038 -0.0278657
v 0.400183 0.0400039 -0.0300706
v 0.420185 0.0200034 -0.0323029
v 0.420185 3.15871e-06 -0.0323372
v 0.360183 0.100007 -0.0257569
v 0.380181 0.0800054 -0.0278859
v 0.400183 0.0600046 -0.0300677
v 0.420184 0.0400038 -0.032282
v 0.440187 0.0200037 -0.03452
v 0.440186 3.32256e-06 -0.0345492
v 0.380183 0.100005 -0.0279222
v 0.400184 0.0800041 -0.0300811
v 0.420184 0.0600046 -0.0322769
v 0.440186 0.0400043 -0.0345
v 0.460187 0.020005 -0.0367439
v 0.460188 3.68264e-06 -0.0367719
v 0.400183 0.100006 -0.030109
v 0.420183 0.0800039 -0.0322843
v 0.440185 0.0600048 -0.0344943
v 0.460186 0.0400056 -0.0367261
v 0.480186 0.020005 -0.038975
v 0.480189 5.1935e-06 -0.0390042
v 0.420184 0.100005 -0.0323067
v 0.440185 0.0800061 -0.0345004
v 0.460185 0.060006 -0.0367186
v 0.480186 0.0400061 -0.038958
v 0.500187 0.020007 -0.0412176
v 0.500188 5.89319e-06 -0.0412438
v 0.440185 0.100006 -0.034517
v 0.460184 0.0800062 -0.0367217
v 0.480187 0.0600059 -0.0389522
v 0.500187 0.040006 -0.0411992
v 0.520188 0.0200066 -0.0434664
v 0.52019 6.51045e-06 -0.043494
v 0.460185 0.100007 -0.0367373
v 0.480185 0.0800075 -0.0389547
v 0.500186 0.0600078 -0.0411931
v 0.520188 0.0400084 -0.0434519
v 0.540189 0.0200068 -0.0457255
v 0.540189 7.73532e-06 -0.0457515
v 0.480185 0.100009 -0.0389685
v 0.500185 0.080008 -0.041195
v 0.520189 0.0600074 -0.0434443
v 0.540188 0.0400091 -0.0457108
v 0.56019 0.0200084 -0.0479942
v 0.560191 7.79227e-06 -0.0480205
v 0.500185 0.100009 -0.0412082
v 0.520187 0.0800086 -0.0434457
v 0.540188 0.0600077 -0.0457015
v 0.56019 0.0400088 -0.0479788
v 0.580191 0.0200095 -0.0502721
v 0.580191 7.38e-06 -0.0502957
v 0.520186 0.10001 -0.0434573
v 0.540188 0.0800098 -0.0457058
v 0.560188 0.0600093 -0.0479703
v 0.58019 0.0400105 -0.0502562
v 0.600192 0.0200086 -0.052557
v 0.600192 9.66486e-06 -0.0525835
v 0.540187 0.100011 -0.0457167
v 0.560188 0.08001 -0.0479727
v 0.580189 0.0600106 -0.0502481
v 0.600191 0.0400102 -0.0525415
v 0.620191 0.020011 -0.0548522
v 0.620193 1.04229e-05 -0.0548783
v 0.560187 0.100011 -0.0479842
v 0.58019 0.0800098 -0.0502498
v 0.60019 0.0600098 -0.0525326
v 0.620192 0.0400108 -0.0548368
v 0.640194 0.0200104 -0.0571571
v 0.640193 1.04979e-05 -0.057181
v 0.580189 0.100011 -0.0502604
v 0.60019 0.0800123 -0.0525368
v 0.62019 0.0600124 -0.0548293
v 0.640193 0.0400108 -0.0571399
v 0.660192 0.0200122 -0.0594689
v 0.660194 1.05322e-05 -0.0594947
v 0.600189 0.100013 -0.0525476
v 0.620191 0.0800134 -0.0548325
v 0.640192 0.060012 -0.0571334
v 0.660193 0.0400133 -0.0594548
v 0.680195 0.0200124 -0.0617923
v 0.680194 1.13289e-05 -0.0618161
v 0.620189 0.100014 -0.0548422
v 0.64019 0.080014 -0.0571355
v 0.660191 0.0600142 -0.0594461
v 0.680193 0.0400142 -0.061776
v 0.700194 0.0200141 -0.0641231
v 0.700195 1.35898e-05 -0.0641483
v 0.640191 0.100014 -0.0571471
v 0.660191 0.0800147 -0.0594489
v 0.680192 0.0600148 -0.0617679
v 0.700193 0.0400144 -0.0641063
v 0.720195 0.0200134 -0.066462
v 0.720195 1.33892e-05 -0.0664876
v 0.66019 0.100015 -0.0594589
v 0.680193 0.080014 -0.0617701
v 0.700194 0.0600147 -0.0640997
v 0.720195 0.0400146 -0.0664466
v 0.740195 0.0200157 -0.068812
v 0.740198 1.38066e-05 -0.0688382
v 0.680193 0.100014 -0.0617815
v 0.700193 0.0800149 -0.0641012
v 0.720195 0.0600146 -0.0664402
v 0.740195 0.0400155 -0.0687957
v 0.760197 0.0200149 -0.0711705
v 0.760198 1.56325e-05 -0.0711968
v 0.700194 0.100015 -0.0641126
v 0.720194 0.0800158 -0.0664417
v 0.740195 0.0600153 -0.0687882
v 0.760197 0.0400156 -0.0711551
v 0.780198 0.0200163 -0.0735386
v 0.780197 1.4998e-05 -0.0735619
v 0.720193 0.100016 -0.0664519
v 0.740193 0.0800176 -0.0687905
v 0.760196 0.0600176 -0.0711484
v 0.780197 0.040018 -0.0735228
v 0.800199 0.0200162 -0.0759146
v 0.800199 1.73638e-05 -0.0759406
v 0.740194 0.100017 -0.068802
v 0.760195 0.0800164 -0.0711478
v 0.780197 0.0600177 -0.0735152
v 0.800198 0.0400167 -0.075898
v 0.8202 0.0200177 -0.0783004
v 0.820199 1.66173e-05 -0.0783241
v 0.760195 0.100019 -0.0711606
v 0.780197 0.0800176 -0.0735167
v 0.800196 0.0600187 -0.0758905
v 0.820199 0.0400193 -0.0782848
v 0.840199 0.0200192 -0.0806937
v 0.8402 1.81166e-05 -0.0807195
v 0.780195 0.10002 -0.0735282
v 0.800196 0.0800197 -0.0758927
v 0.820197 0.0600191 -0.0782758
v 0.840199 0.0400198 -0.0806785
v 0.8602 0.0200194 -0.0830978
v 0.860202 1.81969e-05 -0.0831231
v 0.800196 0.10002 -0.0759043
v 0.820198 0.0800191 -0.0782782
v 0.840198 0.0600197 -0.0806697
v 0.860201 0.0400191 -0.0830817
v 0.880201 0.0200191 -0.0855095
v 0.880201 1.9915e-05 -0.0855349
v 0.820195 0.100021 -0.0782888
v 0.840197 0.080021 -0.080672
v 0.860199 0.0600214 -0.0830748
v 0.880201 0.0400202 -0.0854942
v 0.900202 0.0200214 -0.0879325
v 0.900203 1.96388e-05 -0.0879571
v 0.840198 0.100021 -0.0806839
v 0.860198 0.0800218 -0.0830764
v 0.880199 0.0600206 -0.0854855
v 0.900201 0.0400217 -0.0879154
v 0.920204 0.0200205 -0.090362
v 0.920204 2.04968e-05 -0.0903875
v 0.860198 0.100022 -0.0830872
v 0.880198 0.0800224 -0.0854881
v 0.9002 0.0600226 -0.0879085
v 0.920202 0.0400224 -0.0903467
v 0.940203 0.0200217 -0.0928008
v 0.940203 2.11034e-05 -0.0928256
v 0.880199 0.100023 -0.0855002
v 0.9002 0.0800237 -0.0879112
v 0.9202 0.0600238 -0.0903382
v 0.940202 0.0400231 -0.0927848
v 0.960203 0.0200236 -0.0952503
v 0.960205 2.23497e-05 -0.0952759
v 0.9002 0.100022 -0.0879203
v 0.920201 0.0800242 -0.0903416
v 0.940202 0.0600229 -0.0927778
v 0.960203 0.0400225 -0.0952328
v 0.980204 0.0200229 -0.0977068
v 0.980204 2.29627e-05 -0.0977318
v 0.9202 0.100023 -0.0903509
v 0.9402 0.080025 -0.0927796
v 0.960201 0.0600251 -0.0952261
v 0.980204 0.0400237 -0.0976905
v 1.00021 0.0200247 -0.100175
v 1.00021 2.37964e-05 -0.1002
v 1.0002 0.100026 -0.100164
v 0.980203 0.100025 -0.0976965
v 1.0002 0.0800266 -0.100153
v 0.960202 0.100025 -0.0952392
v 0.980201 0.0800264 -0.0976855
v 1.0002 0.0600255 -0.100152
v 0.940201 0.100025 -0.0927915
v 0.960202 0.0800247 -0.0952284
v 0.980203 0.060025 -0.0976842
v 1.00021 0.0400254 -0.100159
v 1.95134e-06 0.0399993 -0.000201095
v 0.0200222 0.0399949 -0.000275924
v 0.0400365 0.019972 -0.00062486
v 0.0400331 -3.76733e-05 -0.000845516
v 1.77379e-06 0.0199997 -0.000201262
v 0.020027 0.0199841 -0.000297135
v 0.0200084 -3.63301e-05 -0.000407966
v 3.67166e-06 -1.53696e-06 -0.000201922
v -0.019037 0.022784 -0.151537
v -0.0360704 0.022784 -0.151537
v -0.0360704 0.00476155 -0.151537
v -0.019037 0.00476155 -0.151537
v -0.0351863 0.00573582 -0.151537
v -0.0338602 0.00573582 -0.151537
v -0.0338602 0.0067101 -0.151537
v -0.0351863 0.0067101 -0.151537
v -0.0351863 0.0067101 -0.151537
v -0.0338602 0.0067101 -0.151537
v -0.0338602 0.00768412 -0.151537
v -0.0351863 0.00768412 -0.151537
v -0.0351863 0.00768412 -0.151537
v -0.0338602 0.00768412 -0.151537
v -0.0338602 0.00865839 -0.151537
v -0.0351863 0.00865839 -0.151537
v -0.0351863 0.00865839 -0.151537
v -0.0338602 0.00865839 -0.151537
v -0.0338602 0.00963267 -0.151537
v -0.0351863 0.00963267 -0.151537
v -0.0351863 0.00963267 -0.151537
v -0.0338602 0.00963267 -0.151537
v -0.0338602 0.0106067 -0.151537
v -0.0351863 0.0106067 -0.151537
v -0.0351863 0.0106067 -0.151537
v -0.0338602 0.0106067 -0.151537
v -0.0338602 0.011581 -0.151537
v -0.0351863 0.011581 -0.151537
v -0.0351863 0.011581 -0.151537
v -0.0338602 0.011581 -0.151537
v -0.0338602 0.0125552 -0.151537
v -0.0351863 0.0125552 -0.151537
v -0.0351863 0.0125552 -0.151537
v -0.0338602 0.0125552 -0.151537
v -0.0338602 0.0135293 -0.151537
v -0.0351863 0.0135293 -0.151537
v -0.0351863 0.0135293 -0.151537
v -0.0338602 0.0135293 -0.151537
v -0.0338602 0.0145035 -0.151537
v -0.0351863 0.0145035 -0.151537
v -0.0351863 0.0145035 -0.151537
v -0.0338602 0.0145035 -0.151537
v -0.0338602 0.0154776 -0.151537
v -0.0351863 0.0154776 -0.151537
v -0.0351863 0.0154776 -0.151537
v -0.0338602 0.0154776 -0.151537
v -0.0338602 0.0164518 -0.151537
v -0.0351863 0.0164518 -0.151537
v -0.0351863 0.0164518 -0.151537
v -0.0338602 0.0164518 -0.151537
v -0.0338602 0.0174261 -0.151537
v -0.0351863 0.0174261 -0.151537
v -0.0351863 0.00573582 -0.151537
v -0.0334181 0.00573582 -0.151537
v -0.0351863 0.0067101 -0.151537
v -0.0334181 0.0067101 -0.151537
v -0.0351863 0.00768412 -0.151537
v -0.0334181 0.00768412 -0.151537
v -0.0351863 0.00865839 -0.151537
v -0.0334181 0.00865839 -0.151537
v -0.0351863 0.00963267 -0.151537
v -0.0334181 0.00963267 -0.151537
v -0.0351863 0.0106067 -0.151537
v -0.0334181 0.0106067 -0.151537
v -0.0351863 0.011581 -0.151537
v -0.0334181 0.011581 -0.151537
v -0.0351863 0.0125552 -0.151537
v -0.0334181 0.0125552 -0.151537
v -0.0351863 0.0135293 -0.151537
v -0.0334181 0.0135293 -0.151537
v -0.0351863 0.0145035 -0.151537
v -0.0334181 0.0145035 -0.151537
v -0.0351863 0.0154776 -0.151537
v -0.0334181 0.0154776 -0.151537
v -0.0351863 0.0164518 -0.151537
v -0.0334181 0.0164518 -0.151537
v -0.0351863 0.0174261 -0.151537
v -0.0334181 0.0174261 -0.151537
v -0.0338602 0.0174261 -0.151537
v -0.0338602 0.00573582 -0.151537

#List of body polygons
f 1 2 3
f 1 3 6
f 1 14 15
f 385 386 387
f 385 389 390
f 389 385 398

#List of body polygons
f 2 4 3
f 2 5 4
f 3 7 6
f 3 4 7
f 386 311 387
f 386 388 311
f 311 388 310

#List of body polygons
f 5 8 9
f 14 5 15
f 14 8 5
f 14 16 8
f 389 391 390
f 389 392 391
f 392 311 397
f 392 398 311
f 392 389 398

#List of body polygons
f 8 10 9
f 8 11 10
f 16 11 8
f 16 17 11
f 158 5 157
f 311 312 313
f 311 315 312
f 392 393 391
f 392 394 393
f 394 397 396
f 394 392 397

#List of body polygons
f 11 12 10
f 11 13 12
f 17 13 11
f 12 18 19
f 18 13 25
f 18 12 13
f 152 153 151
f 152 12 153
f 156 12 152
f 156 157 12
f 156 158 157
f 153 159 160
f 159 12 19
f 159 153 12
f 238 239 237
f 238 153 239
f 153 238 151
f 239 240 241
f 240 153 160
f 240 239 153
f 312 314 313
f 312 239 314
f 315 239 312
f 315 237 239
f 315 316 237
f 323 314 322
f 322 239 241
f 322 314 239
f 394 395 393
f 394 314 395
f 314 394 396
f 395 399 400
f 399 314 323
f 399 395 314

#List of body polygons
f 18 20 19
f 18 21 20
f 21 25 24
f 21 18 25
f 150 151 149
f 150 152 151
f 155 152 150
f 155 156 152
f 159 161 160
f 159 162 161
f 159 163 162
f 163 19 20
f 163 159 19
f 161 164 165
f 164 161 162
f 236 237 235
f 236 238 237
f 238 149 151
f 238 236 149
f 240 242 241
f 240 161 242
f 161 240 160
f 242 243 244
f 243 161 165
f 243 242 161
f 316 235 237
f 316 317 235
f 320 242 321
f 320 322 242
f 320 323 322
f 242 322 241
f 242 244 321
f 399 401 400
f 399 402 401
f 402 323 320
f 402 399 323

#List of body polygons
f 21 22 20
f 21 23 22
f 23 21 24
f 22 26 27
f 26 23 30
f 26 22 23
f 147 149 148
f 147 150 149
f 154 150 147
f 154 155 150
f 163 22 162
f 22 163 20
f 164 166 165
f 164 167 166
f 164 168 167
f 168 22 27
f 168 162 22
f 168 164 162
f 166 169 170
f 166 167 169
f 233 235 234
f 233 236 235
f 236 148 149
f 236 233 148
f 243 245 244
f 243 166 245
f 166 243 165
f 245 246 247
f 246 166 170
f 246 245 166
f 317 234 235
f 317 318 234
f 319 320 321
f 325 245 326
f 325 319 245
f 244 319 321
f 244 245 319
f 245 247 326
f 402 403 401
f 402 319 403
f 319 402 320
f 403 404 405
f 404 319 325
f 404 403 319

#List of body polygons
f 26 28 27
f 26 29 28
f 29 26 30
f 31 32 28
f 31 28 29
f 34 32 35
f 34 36 32
f 35 31 37
f 35 32 31
f 38 39 36
f 40 36 34
f 40 38 36
f 42 44 43
f 42 39 44
f 44 39 38
f 44 47 43
f 139 140 141
f 139 147 148
f 139 154 147
f 168 28 167
f 28 168 27
f 169 171 170
f 169 32 171
f 167 32 169
f 167 28 32
f 36 172 171
f 36 171 32
f 39 173 172
f 39 172 36
f 173 174 175
f 174 39 42
f 174 173 39
f 231 232 230
f 231 139 232
f 139 231 140
f 232 233 234
f 233 139 148
f 233 232 139
f 246 248 247
f 246 171 248
f 171 246 170
f 172 249 248
f 172 248 171
f 173 250 249
f 173 249 172
f 250 251 252
f 251 173 175
f 251 250 173
f 232 304 305
f 232 305 230
f 318 232 234
f 324 325 326
f 248 327 324
f 247 324 326
f 247 248 324
f 249 328 327
f 249 327 248
f 250 329 328
f 250 328 249
f 329 330 331
f 330 250 252
f 330 329 250
f 404 406 405
f 404 324 406
f 324 404 325
f 327 407 406
f 327 406 324
f 328 408 407
f 328 407 327
f 410 329 411
f 410 408 329
f 329 408 328
f 329 331 411

#List of body polygons
f 33 34 35
f 33 35 37
f 33 40 34
f 41 42 43
f 45 46 41
f 47 41 43
f 47 45 41
f 48 49 46
f 48 46 45
f 49 50 51
f 50 48 54
f 50 49 48
f 140 142 141
f 140 143 142
f 174 176 175
f 174 41 176
f 41 174 42
f 46 177 176
f 46 176 41
f 179 49 180
f 179 177 49
f 49 177 46
f 49 51 180
f 229 230 228
f 229 231 230
f 231 143 140
f 231 229 143
f 251 253 252
f 251 176 253
f 176 251 175
f 177 254 253
f 177 253 176
f 254 255 256
f 255 177 179
f 255 254 177
f 304 306 305
f 304 307 306
f 305 228 230
f 305 306 228
f 330 332 331
f 330 253 332
f 253 330 252
f 254 333 332
f 254 332 253
f 334 333 335
f 334 336 333
f 335 254 256
f 335 333 254
f 336 337 338
f 336 334 337
f 409 410 411
f 332 412 409
f 331 409 411
f 331 332 409
f 333 413 412
f 333 412 332
f 336 414 413
f 336 413 333
f 414 415 416
f 415 336 338
f 415 414 336

#List of body polygons
f 50 52 51
f 50 53 52
f 53 50 54
f 55 56 52
f 55 52 53
f 56 57 58
f 57 55 61
f 57 56 55
f 143 144 142
f 143 145 144
f 178 179 180
f 52 181 178
f 51 178 180
f 51 52 178
f 56 182 181
f 56 181 52
f 182 183 184
f 183 56 58
f 183 182 56
f 226 228 227
f 226 229 228
f 229 145 143
f 229 226 145
f 255 257 256
f 255 178 257
f 178 255 179
f 181 258 257
f 181 257 178
f 182 259 258
f 182 258 181
f 259 260 261
f 260 182 184
f 260 259 182
f 307 308 306
f 307 309 308
f 306 227 228
f 306 308 227
f 257 334 335
f 257 335 256
f 337 339 338
f 337 258 339
f 334 258 337
f 334 257 258
f 259 340 339
f 259 339 258
f 340 341 342
f 341 259 261
f 341 340 259
f 415 417 416
f 415 339 417
f 339 415 338
f 340 418 417
f 340 417 339
f 418 419 420
f 419 340 342
f 419 418 340

#List of body polygons
f 57 59 58
f 57 60 59
f 60 57 61
f 62 63 59
f 62 59 60
f 64 65 63
f 64 63 62
f 66 67 65
f 66 65 64
f 68 69 67
f 68 67 66
f 71 73 72
f 71 69 73
f 73 69 68
f 73 76 72
f 145 5 144
f 145 146 5
f 5 146 4
f 183 185 184
f 183 59 185
f 59 183 58
f 63 186 185
f 63 185 59
f 65 187 186
f 65 186 63
f 67 188 187
f 67 187 65
f 190 69 191
f 190 188 69
f 69 188 67
f 69 71 191
f 225 226 227
f 226 146 145
f 226 225 146
f 260 262 261
f 260 185 262
f 185 260 184
f 186 263 262
f 186 262 185
f 187 264 263
f 187 263 186
f 188 265 264
f 188 264 187
f 265 266 267
f 266 188 190
f 266 265 188
f 309 310 308
f 309 311 310
f 308 225 227
f 308 310 225
f 341 343 342
f 341 262 343
f 262 341 261
f 263 344 343
f 263 343 262
f 264 345 344
f 264 344 263
f 265 346 345
f 265 345 264
f 347 346 348
f 347 349 346
f 348 265 267
f 348 346 265
f 349 350 351
f 349 347 350
f 419 421 420
f 419 343 421
f 343 419 342
f 344 422 421
f 344 421 343
f 345 423 422
f 345 422 344
f 346 424 423
f 346 423 345
f 349 425 424
f 349 424 346
f 426 425 427
f 426 428 425
f 427 349 351
f 427 425 349
f 428 429 430
f 428 426 429

#List of body polygons
f 70 71 72
f 74 75 70
f 76 70 72
f 76 74 70
f 77 78 75
f 77 75 74
f 79 80 78
f 79 78 77
f 81 82 80
f 81 80 79
f 83 84 82
f 83 82 81
f 85 86 84
f 85 84 83
f 87 88 86
f 87 86 85
f 89 90 88
f 89 88 87
f 91 92 90
f 91 90 89
f 93 94 92
f 93 92 91
f 95 96 94
f 95 94 93
f 97 98 96
f 97 96 95
f 99 100 98
f 99 98 97
f 101 102 100
f 101 100 99
f 103 104 102
f 103 102 101
f 105 106 104
f 105 104 103
f 107 108 106
f 107 106 105
f 109 110 108
f 109 108 107
f 111 112 110
f 111 110 109
f 113 114 112
f 113 112 111
f 115 116 114
f 115 114 113
f 117 118 116
f 117 116 115
f 119 120 118
f 119 118 117
f 121 122 120
f 121 120 119
f 123 124 122
f 123 122 121
f 125 126 124
f 125 124 123
f 127 128 126
f 127 126 125
f 129 130 128
f 129 128 127
f 131 132 130
f 131 130 129
f 133 134 132
f 133 132 131
f 135 136 134
f 135 134 133
f 137 138 136
f 137 136 135
f 189 190 191
f 70 192 189
f 71 189 191
f 71 70 189
f 75 193 192
f 75 192 70
f 78 194 193
f 78 193 75
f 80 195 194
f 80 194 78
f 82 196 195
f 82 195 80
f 84 197 196
f 84 196 82
f 86 198 197
f 86 197 84
f 88 199 198
f 88 198 86
f 90 200 199
f 90 199 88
f 92 201 200
f 92 200 90
f 94 202 201
f 94 201 92
f 96 203 202
f 96 202 94
f 98 204 203
f 98 203 96
f 100 205 204
f 100 204 98
f 102 206 205
f 102 205 100
f 104 207 206
f 104 206 102
f 106 208 207
f 106 207 104
f 108 209 208
f 108 208 106
f 110 210 209
f 110 209 108
f 112 211 210
f 112 210 110
f 114 212 211
f 114 211 112
f 116 213 212
f 116 212 114
f 118 214 213
f 118 213 116
f 120 215 214
f 120 214 118
f 122 216 215
f 122 215 120
f 124 217 216
f 124 216 122
f 126 218 217
f 126 217 124
f 128 219 218
f 128 218 126
f 130 220 219
f 130 219 128
f 132 221 220
f 132 220 130
f 134 222 221
f 134 221 132
f 136 223 222
f 136 222 134
f 138 224 223
f 138 223 136
f 266 268 267
f 266 189 268
f 189 266 190
f 192 269 268
f 192 268 189
f 193 270 269
f 193 269 192
f 194 271 270
f 194 270 193
f 195 272 271
f 195 271 194
f 196 273 272
f 196 272 195
f 197 274 273
f 197 273 196
f 198 275 274
f 198 274 197
f 199 276 275
f 199 275 198
f 200 277 276
f 200 276 199
f 201 278 277
f 201 277 200
f 202 279 278
f 202 278 201
f 203 280 279
f 281 279 202
f 204 282 280
f 204 280 281
f 205 283 282
f 205 282 204
f 206 284 283
f 206 283 205
f 207 285 284
f 207 284 206
f 208 286 285
f 208 285 207
f 209 287 286
f 209 286 208
f 210 288 287
f 210 287 209
f 211 289 288
f 211 288 210
f 212 290 289
f 212 289 211
f 213 291 290
f 213 290 212
f 214 292 291
f 214 291 213
f 215 293 292
f 215 292 214
f 216 294 293
f 216 293 215
f 217 295 294
f 217 294 216
f 218 296 295
f 218 295 217
f 219 297 296
f 219 296 218
f 220 298 297
f 220 297 219
f 221 299 298
f 221 298 220
f 222 300 299
f 222 299 221
f 223 301 300
f 223 300 222
f 224 302 303
f 224 303 223
f 268 347 348
f 268 348 267
f 350 352 351
f 350 269 352
f 347 269 350
f 347 268 269
f 270 353 352
f 270 352 269
f 271 354 353
f 271 353 270
f 272 355 354
f 272 354 271
f 273 356 355
f 273 355 272
f 274 357 356
f 274 356 273
f 275 358 357
f 275 357 274
f 276 359 358
f 276 358 275
f 277 360 359
f 277 359 276
f 278 361 360
f 278 360 277
f 279 362 361
f 279 361 278
f 280 363 362
f 280 362 279
f 282 364 363
f 282 363 280
f 283 365 364
f 283 364 282
f 284 366 365
f 284 365 283
f 285 367 366
f 285 366 284
f 286 368 367
f 286 367 285
f 287 369 368
f 287 368 286
f 288 370 369
f 288 369 287
f 289 371 370
f 289 370 288
f 290 372 371
f 290 371 289
f 291 373 372
f 291 372 290
f 292 374 373
f 292 373 291
f 293 375 374
f 293 374 292
f 294 376 375
f 294 375 293
f 295 377 376
f 295 376 294
f 296 378 377
f 296 377 295
f 297 379 378
f 297 378 296
f 298 380 379
f 298 379 297
f 299 381 380
f 299 380 298
f 300 382 381
f 300 381 299
f 303 383 382
f 303 382 300
f 302 384 383
f 302 383 303
f 352 426 427
f 352 427 351
f 429 431 430
f 429 353 431
f 426 353 429
f 426 352 353
f 354 432 431
f 354 431 353
f 355 433 432
f 355 432 354
f 356 434 433
f 356 433 355
f 357 435 434
f 357 434 356
f 358 436 435
f 358 435 357
f 359 437 436
f 359 436 358
f 360 438 437
f 360 437 359
f 361 439 438
f 361 438 360
f 362 440 439
f 362 439 361
f 363 441 440
f 363 440 362
f 364 442 441
f 364 441 363
f 365 443 442
f 365 442 364
f 366 444 443
f 366 443 365
f 367 445 444
f 367 444 366
f 368 446 445
f 368 445 367
f 369 447 446
f 369 446 368
f 370 448 447
f 370 447 369
f 371 449 448
f 371 448 370
f 372 450 449
f 372 449 371
f 373 451 450
f 373 450 372
f 374 452 451
f 374 451 373
f 375 453 452
f 375 452 374
f 376 454 453
f 376 453 375
f 377 455 454
f 377 454 376
f 378 456 455
f 378 455 377
f 379 457 456
f 379 456 378
f 380 458 457
f 380 457 379
f 381 459 458
f 381 458 380
f 382 460 459
f 382 459 381
f 383 461 460
f 383 460 382
f 384 462 461
f 384 461 383

#List of body lines
l 463 464
l 464 465
l 465 466
l 466 467
l 467 468
l 468 469
l 469 470
l 470 471
l 471 472
l 472 473
l 464 474
l 474 475
l 475 465
l 465 476
l 476 467
l 467 477
l 477 469
l 469 478
l 478 471
l 471 479
l 479 480
l 480 472
l 475 481
l 481 476
l 476 482
l 482 477
l 477 483
l 483 478
l 478 484
l 484 479
l 479 485
l 485 486
l 486 480
l 481 487
l 487 482
l 482 488
l 488 483
l 483 489
l 489 484
l 484 490
l 490 485
l 485 491
l 491 492
l 492 486
l 487 493
l 493 488
l 488 494
l 494 489
l 489 495
l 495 490
l 490 496
l 496 491
l 491 497
l 497 498
l 498 492
l 493 499
l 499 494
l 494 500
l 500 495
l 495 501
l 501 496
l 496 502
l 502 497
l 497 503
l 503 504
l 504 498
l 499 505
l 505 500
l 500 506
l 506 501
l 501 507
l 507 502
l 502 508
l 508 503
l 503 509
l 509 510
l 510 504
l 505 511
l 511 506
l 506 512
l 512 507
l 507 513
l 513 508
l 508 514
l 514 509
l 509 515
l 515 516
l 516 510
l 511 517
l 517 512
l 512 518
l 518 513
l 513 519
l 519 514
l 514 520
l 520 515
l 515 521
l 521 522
l 522 516
l 517 523
l 523 518
l 518 524
l 524 519
l 519 525
l 525 520
l 520 526
l 526 521
l 521 527
l 527 528
l 528 522
l 523 529
l 529 524
l 524 530
l 530 525
l 525 531
l 531 526
l 526 532
l 532 527
l 527 533
l 533 534
l 534 528
l 529 535
l 535 530
l 530 536
l 536 531
l 531 537
l 537 532
l 532 538
l 538 533
l 533 539
l 539 540
l 540 534
l 535 541
l 541 536
l 536 542
l 542 537
l 537 543
l 543 538
l 538 544
l 544 539
l 539 545
l 545 546
l 546 540
l 541 547
l 547 542
l 542 548
l 548 543
l 543 549
l 549 544
l 544 550
l 550 545
l 545 551
l 551 552
l 552 546
l 547 553
l 553 548
l 548 554
l 554 549
l 549 555
l 555 550
l 550 556
l 556 551
l 551 557
l 557 558
l 558 552
l 553 559
l 559 554
l 554 560
l 560 555
l 555 561
l 561 556
l 556 562
l 562 557
l 557 563
l 563 564
l 564 558
l 559 565
l 565 560
l 560 566
l 566 561
l 561 567
l 567 562
l 562 568
l 568 563
l 563 569
l 569 570
l 570 564
l 565 571
l 571 566
l 566 572
l 572 567
l 567 573
l 573 568
l 568 574
l 574 569
l 569 575
l 575 576
l 576 570
l 571 577
l 577 572
l 572 578
l 578 573
l 573 579
l 579 574
l 574 580
l 580 575
l 575 581
l 581 582
l 582 576
l 577 583
l 583 578
l 578 584
l 584 579
l 579 585
l 585 580
l 580 586
l 586 581
l 581 587
l 587 588
l 588 582
l 583 589
l 589 584
l 584 590
l 590 585
l 585 591
l 591 586
l 586 592
l 592 587
l 587 593
l 593 594
l 594 588
l 589 595
l 595 590
l 590 596
l 596 591
l 591 597
l 597 592
l 592 598
l 598 593
l 593 599
l 599 600
l 600 594
l 595 601
l 601 596
l 596 602
l 602 597
l 597 603
l 603 598
l 598 604
l 604 599
l 599 605
l 605 606
l 606 600
l 601 607
l 607 602
l 602 608
l 608 603
l 603 609
l 609 604
l 604 610
l 610 605
l 605 611
l 611 612
l 612 606
l 607 613
l 613 608
l 608 614
l 614 609
l 609 615
l 615 610
l 610 616
l 616 611
l 611 617
l 617 618
l 618 612
l 613 619
l 619 614
l 614 620
l 620 615
l 615 621
l 621 616
l 616 622
l 622 617
l 617 623
l 623 624
l 624 618
l 619 625
l 625 620
l 620 626
l 626 621
l 621 627
l 627 622
l 622 628
l 628 623
l 623 629
l 629 630
l 630 624
l 625 631
l 631 626
l 626 632
l 632 627
l 627 633
l 633 628
l 628 634
l 634 629
l 629 635
l 635 636
l 636 630
l 631 637
l 637 632
l 632 638
l 638 633
l 633 639
l 639 634
l 634 640
l 640 635
l 635 641
l 641 642
l 642 636
l 637 643
l 643 638
l 638 644
l 644 639
l 639 645
l 645 640
l 640 646
l 646 641
l 641 647
l 647 648
l 648 642
l 643 649
l 649 644
l 644 650
l 650 645
l 645 651
l 651 646
l 646 652
l 652 647
l 647 653
l 653 654
l 654 648
l 649 655
l 655 650
l 650 656
l 656 651
l 651 657
l 657 652
l 652 658
l 658 653
l 653 659
l 659 660
l 660 654
l 655 661
l 661 656
l 656 662
l 662 657
l 657 663
l 663 658
l 658 664
l 664 659
l 659 665
l 665 666
l 666 660
l 661 667
l 667 662
l 662 668
l 668 663
l 663 669
l 669 664
l 664 670
l 670 665
l 665 671
l 671 672
l 672 666
l 667 673
l 673 668
l 668 674
l 674 669
l 669 675
l 675 670
l 670 676
l 676 671
l 671 677
l 677 678
l 678 672
l 673 679
l 679 674
l 674 680
l 680 675
l 675 681
l 681 676
l 676 682
l 682 677
l 677 683
l 683 684
l 684 678
l 679 685
l 685 680
l 680 686
l 686 681
l 681 687
l 687 682
l 682 688
l 688 683
l 683 689
l 689 690
l 690 684
l 685 691
l 691 686
l 686 692
l 692 687
l 687 693
l 693 688
l 688 694
l 694 689
l 689 695
l 695 696
l 696 690
l 691 697
l 697 692
l 692 698
l 698 693
l 693 699
l 699 694
l 694 700
l 700 695
l 695 701
l 701 702
l 702 696
l 697 703
l 703 698
l 698 704
l 704 699
l 699 705
l 705 700
l 700 706
l 706 701
l 701 707
l 707 708
l 708 702
l 703 709
l 709 704
l 704 710
l 710 705
l 705 711
l 711 706
l 706 712
l 712 707
l 707 713
l 713 714
l 714 708
l 709 715
l 715 710
l 710 716
l 716 711
l 711 717
l 717 712
l 712 718
l 718 713
l 713 719
l 719 720
l 720 714
l 715 721
l 721 716
l 716 722
l 722 717
l 717 723
l 723 718
l 718 724
l 724 719
l 719 725
l 725 726
l 726 720
l 721 727
l 727 722
l 722 728
l 728 723
l 723 729
l 729 724
l 724 730
l 730 725
l 725 731
l 731 732
l 732 726
l 727 733
l 733 728
l 728 734
l 734 729
l 729 735
l 735 730
l 730 736
l 736 731
l 731 737
l 737 738
l 738 732
l 733 739
l 739 734
l 734 740
l 740 735
l 735 741
l 741 736
l 736 742
l 742 737
l 737 743
l 743 744
l 744 738
l 739 745
l 745 740
l 740 746
l 746 741
l 741 747
l 747 742
l 742 748
l 748 743
l 743 749
l 749 750
l 750 744
l 751 752
l 753 751
l 752 754
l 755 752
l 753 755
l 756 753
l 754 757
l 758 754
l 755 758
l 759 755
l 756 759
l 760 756
l 757 745
l 746 757
l 758 746
l 747 758
l 759 747
l 748 759
l 760 748
l 749 760
l 463 761
l 466 463
l 762 466
l 468 762
l 763 468
l 470 763
l 473 470
l 764 473
l 761 765
l 762 761
l 766 762
l 763 766
l 764 763
l 767 764
l 765 768
l 766 765
l 767 766
l 768 767


