#OBJ File generated by Abaqus/CAE
#List of Vertices
v 0.0200056 -2.16513e-05 -0.000128314
v 0.0200089 0.00507898 -0.000111084
v 0.0149072 0.00508079 -9.5476e-05
v 2.77448e-06 0.0199976 -2.38455e-07
v 0.0200151 0.0199914 -6.1303e-05
v 0.0149052 -1.54177e-05 -9.5862e-05
v 3.24034e-06 -7.91379e-07 -2.30988e-06
v 0.0234583 0.0165479 -0.00012055
v 0.0230901 0.0199891 -9.18838e-05
v 0.0328293 0.0199848 -0.000191314
v 0.0343592 0.00564091 -0.000302954
v 0.0400237 0.0199816 -0.000265523
v 0.040021 -2.40694e-05 -0.000397683
v 0.0241491 -2.27702e-05 -0.000182711
v 0.0200105 0.00978743 -9.50291e-05
v 0.0304503 -2.40424e-05 -0.000268866
v 0.036747 -2.2585e-05 -0.000353064
v 0.0423632 0.0176401 -0.000321672
v 0.0425269 0.0199825 -0.000305529
v 0.0521135 0.0199825 -0.000463287
v 0.0513235 0.00868138 -0.000545855
v 0.0600321 0.0199852 -0.000593345
v 0.0600308 -2.661e-05 -0.000761486
v 0.0520997 -2.53337e-05 -0.000616482
v 0.043941 -2.36695e-05 -0.000468995
v 0.0637019 0.0163152 -0.000709912
v 0.0635674 0.0199838 -0.000672219
v 0.0800407 0.0199828 -0.00103564
v 0.0800426 -2.61443e-05 -0.00122873
v 0.0607325 -2.72213e-05 -0.000778156
v 0.097901 0.00212492 -0.0017191
v 0.0925319 0.0199833 -0.00138455
v 0.10005 0.0199848 -0.00159496
v 0.100051 -2.57256e-05 -0.00180079
v 0.0982141 -2.52381e-05 -0.00174918
v 0.120061 -2.48771e-05 -0.0024804
v 0.12006 0.0199843 -0.00226841
v 0.140071 -2.53898e-05 -0.00327002
v 0.14007 0.00485365 -0.00321717
v 0.137779 0.00226547 -0.0031546
v 0.14007 0.0199857 -0.00305418
v 0.133861 -2.46989e-05 -0.00302406
v 0.151088 0.00896574 -0.00366615
v 0.159001 0.0199844 -0.00390204
v 0.16008 0.0199849 -0.00395066
v 0.16008 -2.3814e-05 -0.00416874
v 0.180089 -2.42021e-05 -0.00517728
v 0.180089 0.0199857 -0.0049589
v 0.200098 -2.31269e-05 -0.00629698
v 0.200098 0.0199841 -0.00607714
v 0.220107 0.0199861 -0.00730807
v 0.205682 0.0199837 -0.00641967
v 0.220108 0.00358798 -0.00748563
v 0.220108 -2.42674e-05 -0.00752594
v 0.240116 -2.43874e-05 -0.00886338
v 0.240116 0.0199857 -0.00865056
v 0.221802 -2.40752e-05 -0.00763785
v 0.260125 -2.40708e-05 -0.0103128
v 0.260126 0.0199855 -0.0101042
v 0.280135 -2.50414e-05 -0.0118683
v 0.280134 0.0199851 -0.0116679
v 0.300147 -2.45493e-05 -0.0135317
v 0.300146 0.0105026 -0.0134345
v 0.2969 0.00322157 -0.0132291
v 0.300144 0.0199872 -0.0133456
v 0.297531 -2.39141e-05 -0.0133145
v 0.320158 -2.07131e-05 -0.0152974
v 0.320156 0.00471352 -0.0152586
v 0.303156 0.0169751 -0.0136393
v 0.320152 0.0199891 -0.0151324
v 0.340161 0.0199916 -0.0170201
v 0.336239 0.0199925 -0.0166506
v 0.340161 0.0155064 -0.0170493
v 0.340165 -1.37797e-05 -0.017154
v 0.323972 -1.92462e-05 -0.0156498
v 0.360169 -8.0177e-06 -0.0190785
v 0.360165 0.0199947 -0.0189706
v 0.35077 -1.02524e-05 -0.0181736
v 0.363014 0.0171461 -0.0192658
v 0.362966 0.0199968 -0.0192495
v 0.380166 0.0199985 -0.0209551
v 0.380169 -6.08724e-06 -0.0210467
v 0.369985 -7.56402e-06 -0.0200446
v 0.392915 0.0072501 -0.0222916
v 0.394697 0.019997 -0.0224178
v 0.400171 0.0199975 -0.0229694
v 0.400172 -5.9003e-06 -0.0230524
v 0.393015 -4.28908e-06 -0.0223358
v 0.420173 -4.27694e-06 -0.0250955
v 0.420174 0.0199989 -0.0250191
v 0.440176 -3.25821e-06 -0.0271758
v 0.440178 0.0199979 -0.0271009
v 0.460181 -2.42093e-06 -0.0292943
v 0.460179 0.0199997 -0.0292186
v 0.480184 -1.14295e-06 -0.0314476
v 0.480183 0.0199997 -0.0313728
v 0.500187 -1.57848e-06 -0.0336355
v 0.500186 0.0200007 -0.0335617
v 0.52019 -6.95884e-07 -0.0358603
v 0.520189 0.020003 -0.0357884
v 0.540192 -5.65272e-07 -0.0381195
v 0.540191 0.0200024 -0.0380471
v 0.560195 1.72806e-06 -0.0404175
v 0.560195 0.020004 -0.0403455
v 0.580198 1.70959e-06 -0.0427486
v 0.580197 0.0200034 -0.0426759
v 0.600201 2.33901e-06 -0.045117
v 0.6002 0.0200059 -0.0450457
v 0.620204 3.95726e-06 -0.0475215
v 0.620202 0.0200071 -0.0474493
v 0.640207 4.67013e-06 -0.0499619
v 0.640206 0.0200075 -0.0498895
v 0.66021 4.94833e-06 -0.0524369
v 0.66021 0.0200075 -0.0523653
v 0.680213 5.24162e-06 -0.0549474
v 0.680212 0.0200077 -0.0548753
v 0.700216 5.97908e-06 -0.0574943
v 0.700215 0.0200084 -0.0574225
v 0.720219 7.67938e-06 -0.0600782
v 0.720217 0.0200102 -0.0600055
v 0.740222 8.3951e-06 -0.0626969
v 0.740222 0.0200111 -0.0626261
v 0.760225 8.63591e-06 -0.0653512
v 0.760225 0.0200117 -0.0652808
v 0.780228 8.90199e-06 -0.0680416
v 0.780228 0.0200124 -0.0679705
v 0.80023 9.6601e-06 -0.0707671
v 0.800229 0.0200137 -0.0706959
v 0.820234 1.13681e-05 -0.0735302
v 0.820233 0.0200138 -0.0734584
v 0.840237 1.2231e-05 -0.0763286
v 0.840235 0.0200155 -0.0762559
v 0.860239 1.27803e-05 -0.0791608
v 0.860239 0.0200147 -0.0790888
v 0.880243 1.3467e-05 -0.0820316
v 0.880243 0.0200165 -0.0819598
v 0.900245 1.48036e-05 -0.0849357
v 0.900244 0.0200169 -0.0848636
v 0.92025 1.51031e-05 -0.0878783
v 0.920249 0.0200163 -0.0878046
v 0.940253 1.48208e-05 -0.0908542
v 0.940252 0.0200176 -0.0907823
v 0.960255 1.67206e-05 -0.0938671
v 0.960254 0.020019 -0.0937944
v 0.980258 1.68803e-05 -0.0969152
v 0.980257 0.0200189 -0.0968421
v 1.00026 1.80424e-05 -0.1
v 1.00026 0.0200199 -0.0999271
v 0.0200144 0.0399962 -4.88722e-05
v 0.0176556 0.0399966 -4.44478e-05
v 0.0200151 0.037834 -5.00599e-05
v 0.0200154 0.0317007 -5.38615e-05
v 0.010959 0.0399955 -2.60829e-05
v 0.0200164 0.0255687 -5.94482e-05
v 0.00426363 0.0399979 -1.21606e-05
v 2.96917e-06 0.0399972 -6.12981e-08
v 0.0233312 0.0366788 -8.49174e-05
v 0.0242333 0.0399944 -8.29514e-05
v 0.030748 0.0399941 -0.000137664
v 0.0284469 0.0315608 -0.000139488
v 0.0372609 0.0399943 -0.000191008
v 0.0335665 0.02644 -0.000195002
v 0.0400255 0.0399941 -0.000211897
v 0.0400233 0.0262342 -0.000248961
v 0.0386848 0.0213218 -0.000251901
v 0.0200159 0.0372051 -5.15652e-05
v 0.0200156 0.0328954 -5.37691e-05
v 0.0200163 0.028585 -5.6263e-05
v 0.0200165 0.0242766 -6.0357e-05
v 0.0468185 0.0332026 -0.000343654
v 0.0485275 0.0399932 -0.000341711
v 0.0600337 0.0399907 -0.000513412
v 0.0669221 0.0331024 -0.000693581
v 0.0663067 0.0399937 -0.000650348
v 0.0800426 0.0399943 -0.000945246
v 0.0875787 0.0324563 -0.00118888
v 0.0847358 0.0399938 -0.0010747
v 0.100051 0.0399934 -0.00149626
v 0.120061 0.0399937 -0.00216334
v 0.140069 0.0399939 -0.00294598
v 0.16008 0.0210372 -0.00394523
v 0.159668 0.0203953 -0.00392939
v 0.160078 0.0399957 -0.00384103
v 0.180089 0.0316657 -0.00489334
v 0.173672 0.0264028 -0.00460061
v 0.180089 0.0399925 -0.00484774
v 0.200098 0.0260835 -0.00604278
v 0.191851 0.0282321 -0.00557149
v 0.200097 0.0399958 -0.00596882
v 0.220106 0.039994 -0.00719859
v 0.240116 0.0399954 -0.00854341
v 0.260126 0.0399937 -0.0100001
v 0.280136 0.0399938 -0.0115721
v 0.300143 0.0399943 -0.013259
v 0.320152 0.039996 -0.0150631
v 0.317979 0.0399967 -0.0148681
v 0.320152 0.0372995 -0.0150727
v 0.340157 0.0399991 -0.0169616
v 0.33574 0.0399981 -0.0165432
v 0.340159 0.0353412 -0.0169753
v 0.360165 0.0228381 -0.0189634
v 0.355089 0.0250687 -0.0184599
v 0.360161 0.0400001 -0.0189172
v 0.380165 0.0399999 -0.0209062
v 0.394056 0.0261129 -0.0223403
v 0.39708 0.0400017 -0.0226163
v 0.400169 0.0400004 -0.0229259
v 0.420173 0.0400013 -0.0249783
v 0.440175 0.0400026 -0.0270627
v 0.460179 0.0400019 -0.0291813
v 0.480182 0.0400046 -0.0313377
v 0.500185 0.0400035 -0.0335252
v 0.520189 0.040004 -0.0357514
v 0.540191 0.0400063 -0.038013
v 0.560194 0.0400061 -0.0403087
v 0.580197 0.0400062 -0.0426405
v 0.600201 0.0400071 -0.0450093
v 0.620203 0.0400092 -0.047414
v 0.640206 0.0400105 -0.0498541
v 0.660209 0.0400093 -0.0523274
v 0.680211 0.0400106 -0.0548389
v 0.700215 0.0400125 -0.0573884
v 0.720218 0.0400133 -0.0599712
v 0.74022 0.0400133 -0.0625883
v 0.760222 0.0400153 -0.0652434
v 0.780227 0.0400154 -0.067935
v 0.80023 0.0400161 -0.0706609
v 0.820234 0.0400158 -0.0734226
v 0.840236 0.0400172 -0.0762198
v 0.860239 0.0400185 -0.0790541
v 0.880242 0.040018 -0.081923
v 0.900245 0.0400185 -0.0848281
v 0.920248 0.0400204 -0.08777
v 0.94025 0.0400221 -0.0907461
v 0.960254 0.0400218 -0.0937598
v 0.980256 0.0400224 -0.0968067
v 1.00026 0.0400243 -0.0998931
v 3.57103e-06 0.0599989 -2.37004e-06
v 0.0042636 0.0557398 -1.14355e-05
v 0.00426239 0.0599998 -1.162e-05
v 0.0109589 0.0599987 -2.57441e-05
v 0.0109583 0.0490469 -2.60246e-05
v 0.0176564 0.0600011 -4.41839e-05
v 0.0176553 0.042354 -4.29918e-05
v 0.0200157 0.0600017 -4.95824e-05
v 0.0242325 0.0557847 -8.31161e-05
v 0.0242345 0.06 -8.32975e-05
v 0.0307469 0.0600008 -0.000136574
v 0.0307468 0.0492735 -0.000138462
v 0.0372598 0.060002 -0.00019077
v 0.0372603 0.0427595 -0.000190091
v 0.0400267 0.060002 -0.000213728
v 0.0485281 0.0515002 -0.000342432
v 0.0485262 0.0600018 -0.000339514
v 0.060034 0.0600053 -0.000515433
v 0.0663063 0.0537306 -0.000648489
v 0.066306 0.0600039 -0.00064891
v 0.0800419 0.0600018 -0.000944022
v 0.0847404 0.0553058 -0.00107598
v 0.0847403 0.060002 -0.00107452
v 0.100052 0.0600045 -0.00149708
v 0.120059 0.0600038 -0.00216336
v 0.14007 0.0600049 -0.00294717
v 0.16008 0.0600037 -0.00384231
v 0.180089 0.0600041 -0.00484955
v 0.200098 0.0600023 -0.00596714
v 0.220107 0.0600041 -0.00719993
v 0.240116 0.0600035 -0.00854249
v 0.260125 0.0600029 -0.00999887
v 0.280134 0.0600037 -0.0115722
v 0.300143 0.0600047 -0.0132642
v 0.317913 0.042236 -0.0148626
v 0.314646 0.0600036 -0.0145753
v 0.320152 0.060003 -0.0150723
v 0.334757 0.045399 -0.0164522
v 0.331996 0.060003 -0.0161962
v 0.340159 0.060002 -0.0169709
v 0.36016 0.060003 -0.0189209
v 0.380165 0.0600026 -0.0209078
v 0.397083 0.0430857 -0.022614
v 0.397329 0.0600033 -0.0226413
v 0.40017 0.0600024 -0.0229271
v 0.420172 0.0600053 -0.0249792
v 0.440175 0.0600059 -0.0270633
v 0.460178 0.0600046 -0.0291806
v 0.480182 0.0600066 -0.0313367
v 0.500184 0.0600074 -0.0335261
v 0.520189 0.0600072 -0.0357518
v 0.54019 0.0600091 -0.0380118
v 0.560195 0.0600084 -0.0403089
v 0.580197 0.0600106 -0.0426422
v 0.6002 0.0600111 -0.0450101
v 0.620202 0.060013 -0.0474146
v 0.640205 0.0600118 -0.0498523
v 0.660208 0.0600128 -0.0523282
v 0.680211 0.0600141 -0.05484
v 0.700215 0.0600138 -0.0573872
v 0.720218 0.0600147 -0.0599698
v 0.740221 0.0600173 -0.0625904
v 0.760223 0.0600175 -0.0652434
v 0.780227 0.0600179 -0.0679347
v 0.800229 0.0600193 -0.0706608
v 0.820231 0.0600196 -0.0734215
v 0.840235 0.0600196 -0.0762191
v 0.860237 0.0600218 -0.0790534
v 0.88024 0.0600224 -0.0819228
v 0.900244 0.0600218 -0.0848278
v 0.920248 0.0600228 -0.0877699
v 0.940251 0.0600237 -0.0907468
v 0.960253 0.0600251 -0.0937588
v 0.980256 0.0600252 -0.0968072
v 1.00026 0.0600267 -0.0998916
v 0.0200153 0.0621635 -5.08537e-05
v 0.0178541 0.0621616 -4.44166e-05
v 0.0117164 0.0682928 -2.80156e-05
v 0.0200155 0.0682951 -5.30118e-05
v 0.00558117 0.0744239 -1.39551e-05
v 0.0200165 0.0744276 -5.68655e-05
v 2.39197e-06 0.0799981 -3.35519e-07
v 0.0200167 0.0800053 -6.08417e-05
v 0.0400224 0.0737625 -0.00024874
v 0.032691 0.0673357 -0.000158061
v 0.0400208 0.0800148 -0.000264273
v 0.0200167 0.0757224 -5.9701e-05
v 0.0200163 0.0714124 -5.65929e-05
v 0.0200169 0.0671015 -5.37351e-05
v 0.0200148 0.0627925 -5.00609e-05
v 0.0428704 0.0771645 -0.000298822
v 0.0425274 0.0800149 -0.000306867
v 0.0521112 0.0800134 -0.000462575
v 0.0537686 0.0662706 -0.000437854
v 0.0600333 0.0800109 -0.000592109
v 0.0631779 0.0768669 -0.000648039
v 0.0635658 0.0800136 -0.000672388
v 0.0800424 0.0800142 -0.00103713
v 0.0891931 0.0708616 -0.00124566
v 0.0925357 0.080014 -0.00138699
v 0.100052 0.080012 -0.00159658
v 0.120062 0.0800123 -0.00226879
v 0.14007 0.0800133 -0.00305401
v 0.160079 0.080014 -0.00395
v 0.158484 0.0800129 -0.0038769
v 0.16008 0.078445 -0.00394132
v 0.180087 0.0676839 -0.00489018
v 0.164222 0.0758692 -0.004134
v 0.180087 0.0800128 -0.00495665
v 0.200098 0.071317 -0.00602904
v 0.190473 0.0696286 -0.00548235
v 0.200098 0.0800133 -0.00607721
v 0.204231 0.0758791 -0.00630813
v 0.210043 0.0800123 -0.00668755
v 0.220108 0.0800119 -0.00730763
v 0.240117 0.0800142 -0.00865056
v 0.260126 0.080014 -0.0101051
v 0.280134 0.0800139 -0.0116709
v 0.300145 0.0800124 -0.0133544
v 0.288337 0.0800119 -0.012361
v 0.300144 0.076612 -0.0133373
v 0.300674 0.0794818 -0.0133983
v 0.301497 0.0800111 -0.013474
v 0.320152 0.0800097 -0.0151473
v 0.320152 0.067647 -0.0151008
v 0.315505 0.0646502 -0.0146728
v 0.325272 0.0748907 -0.0156144
v 0.331224 0.0800092 -0.0161928
v 0.340159 0.0800067 -0.0170351
v 0.340159 0.068898 -0.0170002
v 0.335377 0.0647836 -0.0165343
v 0.350224 0.0699417 -0.0179846
v 0.360149 0.0800064 -0.0189782
v 0.360162 0.0800052 -0.0189784
v 0.380167 0.0800049 -0.0209587
v 0.397751 0.062422 -0.0226903
v 0.395458 0.080005 -0.0224973
v 0.400169 0.0800071 -0.0229718
v 0.420171 0.0800065 -0.0250172
v 0.440174 0.0800084 -0.0271006
v 0.460178 0.0800081 -0.0292184
v 0.480182 0.0800086 -0.0313729
v 0.500185 0.0800101 -0.033563
v 0.520186 0.0800108 -0.0357862
v 0.54019 0.0800111 -0.0380476
v 0.560192 0.0800137 -0.0403453
v 0.580195 0.0800143 -0.0426776
v 0.600199 0.0800135 -0.0450453
v 0.620202 0.0800139 -0.0474486
v 0.640205 0.0800162 -0.0498901
v 0.660208 0.080016 -0.0523643
v 0.680211 0.0800161 -0.054875
v 0.700215 0.0800171 -0.0574231
v 0.720217 0.0800193 -0.0600072
v 0.740219 0.0800187 -0.0626237
v 0.760223 0.0800203 -0.0652796
v 0.780226 0.0800201 -0.0679692
v 0.80023 0.0800209 -0.0706963
v 0.82023 0.080023 -0.0734575
v 0.840234 0.0800226 -0.0762552
v 0.860237 0.0800245 -0.07909
v 0.88024 0.0800249 -0.0819584
v 0.900242 0.0800265 -0.084864
v 0.920247 0.0800255 -0.0878049
v 0.94025 0.0800266 -0.090782
v 0.960252 0.0800283 -0.0937947
v 0.980256 0.080029 -0.096844
v 1.00026 0.080029 -0.0999267
v 0.0200042 0.100019 -0.000126855
v 0.0149062 0.100012 -9.33571e-05
v 0.0200083 0.0949174 -0.000110666
v 2.48996e-06 0.0999983 -6.60464e-07
v 0.0238822 0.0961445 -0.000154422
v 0.0241491 0.100019 -0.000182986
v 0.0304488 0.100021 -0.000268573
v 0.029777 0.0902532 -0.000194651
v 0.0367486 0.100019 -0.000351569
v 0.0356681 0.0843644 -0.000233927
v 0.0400201 0.100021 -0.000397171
v 0.0328291 0.0800119 -0.000191921
v 0.0230915 0.0800079 -9.30684e-05
v 0.0200116 0.0902086 -9.59166e-05
v 0.0441894 0.0958512 -0.00043624
v 0.0439419 0.10002 -0.000467154
v 0.0521014 0.100022 -0.000617327
v 0.0528651 0.0871791 -0.000523183
v 0.0600305 0.100024 -0.000761469
v 0.0607006 0.0993534 -0.000769973
v 0.0607333 0.100022 -0.000778178
v 0.0800411 0.100023 -0.00122878
v 0.0933359 0.0867286 -0.00147375
v 0.0982185 0.100023 -0.00174907
v 0.100052 0.100023 -0.00180121
v 0.12006 0.100021 -0.00247871
v 0.14007 0.100021 -0.00326771
v 0.133692 0.100022 -0.00301796
v 0.14007 0.0950067 -0.00321534
v 0.16008 0.100021 -0.00416736
v 0.180088 0.100023 -0.00517621
v 0.200099 0.100021 -0.00629603
v 0.220107 0.0890252 -0.00740621
v 0.214416 0.0857046 -0.00702014
v 0.220108 0.100021 -0.00752472
v 0.224561 0.0955682 -0.00777446
v 0.22701 0.100023 -0.007988
v 0.240116 0.100022 -0.00886387
v 0.260127 0.100022 -0.0103144
v 0.280137 0.100023 -0.0118743
v 0.290561 0.0895957 -0.0126436
v 0.283611 0.100022 -0.0121625
v 0.300147 0.100021 -0.0135389
v 0.320156 0.0942617 -0.0152627
v 0.305609 0.0945581 -0.0139783
v 0.320157 0.100018 -0.0153075
v 0.322635 0.0975386 -0.0155212
v 0.325939 0.100017 -0.0158441
v 0.340163 0.100013 -0.0171641
v 0.34016 0.088913 -0.0170929
v 0.335074 0.0850946 -0.016596
v 0.346914 0.0932597 -0.0177766
v 0.349807 0.100012 -0.018091
v 0.360166 0.100009 -0.0190861
v 0.360163 0.080023 -0.0189791
v 0.360158 0.0800103 -0.0189786
v 0.36952 0.0906537 -0.0199625
v 0.369759 0.100007 -0.0200273
v 0.380165 0.100009 -0.0210506
v 0.395629 0.0845443 -0.0225336
v 0.394022 0.100009 -0.0224398
v 0.400168 0.100008 -0.0230534
v 0.420171 0.100011 -0.0250983
v 0.440174 0.100011 -0.0271763
v 0.460178 0.100011 -0.0292934
v 0.480179 0.100013 -0.0314454
v 0.500183 0.100012 -0.0336337
v 0.520187 0.100013 -0.0358595
v 0.540188 0.100015 -0.0381194
v 0.560192 0.100015 -0.0404161
v 0.580195 0.100015 -0.0427474
v 0.600198 0.100017 -0.0451162
v 0.620201 0.100017 -0.0475201
v 0.640204 0.100019 -0.0499611
v 0.660207 0.100019 -0.0524354
v 0.680211 0.100019 -0.054947
v 0.700214 0.10002 -0.0574947
v 0.720217 0.100022 -0.0600789
v 0.740219 0.100022 -0.0626963
v 0.760222 0.100024 -0.0653516
v 0.780225 0.100024 -0.0680413
v 0.800227 0.100025 -0.0707671
v 0.820231 0.100026 -0.0735302
v 0.840234 0.100026 -0.0763275
v 0.860238 0.100026 -0.0791614
v 0.88024 0.100028 -0.0820304
v 0.900243 0.100028 -0.0849358
v 0.920246 0.100028 -0.0878763
v 0.940248 0.10003 -0.0908532
v 0.960252 0.100031 -0.0938667
v 0.980256 0.100031 -0.0969153
v 1.00026 0.100033 -0.0999987
v 3.57103e-06 0.0599989 -0.00020237
v 2.39197e-06 0.0799981 -0.000200336
v 0.0200167 0.0800053 -0.000260842
v 0.0200157 0.0600017 -0.000249582
v 0.0400267 0.060002 -0.000413728
v 0.0400255 0.0399941 -0.000411897
v 0.0600337 0.0399907 -0.000713412
v 0.0600321 0.0199852 -0.000793345
v 0.0800407 0.0199828 -0.00123564
v 0.0800426 -2.61443e-05 -0.00142873
v 0.0600308 -2.661e-05 -0.000961486
v 2.48996e-06 0.0999983 -0.00020066
v 0.0200042 0.100019 -0.000326855
v 0.0400208 0.0800148 -0.000464273
v 0.060034 0.0600053 -0.000715433
v 0.0800426 0.0399943 -0.00114525
v 0.10005 0.0199848 -0.00179496
v 0.100051 -2.57256e-05 -0.00200079
v 0.0400201 0.100021 -0.000597171
v 0.0600333 0.0800109 -0.000792109
v 0.0800419 0.0600018 -0.00114402
v 0.100051 0.0399934 -0.00169626
v 0.12006 0.0199843 -0.00246841
v 0.120061 -2.48771e-05 -0.0026804
v 0.0600305 0.100024 -0.000961469
v 0.0800424 0.0800142 -0.00123713
v 0.100052 0.0600045 -0.00169708
v 0.120061 0.0399937 -0.00236334
v 0.14007 0.0199857 -0.00325418
v 0.140071 -2.53898e-05 -0.00347002
v 0.0800411 0.100023 -0.00142878
v 0.100052 0.080012 -0.00179658
v 0.120059 0.0600038 -0.00236336
v 0.140069 0.0399939 -0.00314598
v 0.16008 0.0199849 -0.00415066
v 0.16008 -2.3814e-05 -0.00436874
v 0.100052 0.100023 -0.00200121
v 0.120062 0.0800123 -0.00246879
v 0.14007 0.0600049 -0.00314717
v 0.160078 0.0399957 -0.00404103
v 0.180089 0.0199857 -0.0051589
v 0.180089 -2.42021e-05 -0.00537728
v 0.12006 0.100021 -0.00267871
v 0.14007 0.0800133 -0.00325401
v 0.16008 0.0600037 -0.00404231
v 0.180089 0.0399925 -0.00504774
v 0.200098 0.0199841 -0.00627714
v 0.200098 -2.31269e-05 -0.00649698
v 0.14007 0.100021 -0.00346771
v 0.160079 0.080014 -0.00415
v 0.180089 0.0600041 -0.00504955
v 0.200097 0.0399958 -0.00616882
v 0.220107 0.0199861 -0.00750807
v 0.220108 -2.42674e-05 -0.00772594
v 0.16008 0.100021 -0.00436736
v 0.180087 0.0800128 -0.00515665
v 0.200098 0.0600023 -0.00616714
v 0.220106 0.039994 -0.00739859
v 0.240116 0.0199857 -0.00885056
v 0.240116 -2.43874e-05 -0.00906338
v 0.180088 0.100023 -0.00537621
v 0.200098 0.0800133 -0.00627721
v 0.220107 0.0600041 -0.00739993
v 0.240116 0.0399954 -0.00874341
v 0.260126 0.0199855 -0.0103042
v 0.260125 -2.40708e-05 -0.0105128
v 0.200099 0.100021 -0.00649603
v 0.220108 0.0800119 -0.00750763
v 0.240116 0.0600035 -0.00874249
v 0.260126 0.0399937 -0.0102001
v 0.280134 0.0199851 -0.0118679
v 0.280135 -2.50414e-05 -0.0120683
v 0.220108 0.100021 -0.00772472
v 0.240117 0.0800142 -0.00885056
v 0.260125 0.0600029 -0.0101989
v 0.280136 0.0399938 -0.0117721
v 0.300144 0.0199872 -0.0135456
v 0.300147 -2.45493e-05 -0.0137317
v 0.240116 0.100022 -0.00906387
v 0.260126 0.080014 -0.0103051
v 0.280134 0.0600037 -0.0117722
v 0.300143 0.0399943 -0.013459
v 0.320152 0.0199891 -0.0153324
v 0.320158 -2.07131e-05 -0.0154974
v 0.260127 0.100022 -0.0105144
v 0.280134 0.0800139 -0.0118709
v 0.300143 0.0600047 -0.0134642
v 0.320152 0.039996 -0.0152631
v 0.340161 0.0199916 -0.0172201
v 0.340165 -1.37797e-05 -0.017354
v 0.280137 0.100023 -0.0120743
v 0.300145 0.0800124 -0.0135544
v 0.320152 0.060003 -0.0152723
v 0.340157 0.0399991 -0.0171616
v 0.360165 0.0199947 -0.0191706
v 0.360169 -8.0177e-06 -0.0192785
v 0.300147 0.100021 -0.0137389
v 0.320152 0.0800097 -0.0153472
v 0.340159 0.060002 -0.0171709
v 0.360161 0.0400001 -0.0191172
v 0.380166 0.0199985 -0.0211551
v 0.380169 -6.08724e-06 -0.0212467
v 0.320157 0.100018 -0.0155075
v 0.340159 0.0800067 -0.0172351
v 0.36016 0.060003 -0.0191209
v 0.380165 0.0399999 -0.0211062
v 0.400171 0.0199975 -0.0231694
v 0.400172 -5.9003e-06 -0.0232524
v 0.340163 0.100013 -0.0173641
v 0.360162 0.0800052 -0.0191784
v 0.380165 0.0600026 -0.0211078
v 0.400169 0.0400004 -0.0231259
v 0.420174 0.0199989 -0.0252191
v 0.420173 -4.27694e-06 -0.0252955
v 0.360166 0.100009 -0.0192861
v 0.380167 0.0800049 -0.0211587
v 0.40017 0.0600024 -0.0231271
v 0.420173 0.0400013 -0.0251783
v 0.440178 0.0199979 -0.0273009
v 0.440176 -3.25821e-06 -0.0273758
v 0.380165 0.100009 -0.0212506
v 0.400169 0.0800071 -0.0231718
v 0.420172 0.0600053 -0.0251792
v 0.440175 0.0400026 -0.0272627
v 0.460179 0.0199997 -0.0294186
v 0.460181 -2.42093e-06 -0.0294943
v 0.400168 0.100008 -0.0232534
v 0.420171 0.0800065 -0.0252172
v 0.440175 0.0600059 -0.0272633
v 0.460179 0.0400019 -0.0293813
v 0.480183 0.0199997 -0.0315728
v 0.480184 -1.14295e-06 -0.0316476
v 0.420171 0.100011 -0.0252983
v 0.440174 0.0800084 -0.0273006
v 0.460178 0.0600046 -0.0293806
v 0.480182 0.0400046 -0.0315377
v 0.500186 0.0200007 -0.0337617
v 0.500187 -1.57848e-06 -0.0338355
v 0.440174 0.100011 -0.0273763
v 0.460178 0.0800081 -0.0294184
v 0.480182 0.0600066 -0.0315367
v 0.500185 0.0400035 -0.0337252
v 0.520189 0.020003 -0.0359884
v 0.52019 -6.95884e-07 -0.0360603
v 0.460178 0.100011 -0.0294934
v 0.480182 0.0800086 -0.0315729
v 0.500184 0.0600074 -0.0337261
v 0.520189 0.040004 -0.0359514
v 0.540191 0.0200024 -0.0382471
v 0.540192 -5.65272e-07 -0.0383195
v 0.480179 0.100013 -0.0316454
v 0.500185 0.0800101 -0.033763
v 0.520189 0.0600072 -0.0359518
v 0.540191 0.0400063 -0.038213
v 0.560195 0.020004 -0.0405455
v 0.560195 1.72806e-06 -0.0406175
v 0.500183 0.100012 -0.0338337
v 0.520186 0.0800108 -0.0359862
v 0.54019 0.0600091 -0.0382118
v 0.560194 0.0400061 -0.0405087
v 0.580197 0.0200034 -0.0428759
v 0.580198 1.70959e-06 -0.0429486
v 0.520187 0.100013 -0.0360595
v 0.54019 0.0800111 -0.0382476
v 0.560195 0.0600084 -0.0405089
v 0.580197 0.0400062 -0.0428405
v 0.6002 0.0200059 -0.0452457
v 0.600201 2.33901e-06 -0.045317
v 0.540188 0.100015 -0.0383194
v 0.560192 0.0800137 -0.0405453
v 0.580197 0.0600106 -0.0428421
v 0.600201 0.0400071 -0.0452093
v 0.620202 0.0200071 -0.0476493
v 0.620204 3.95726e-06 -0.0477215
v 0.560192 0.100015 -0.0406161
v 0.580195 0.0800143 -0.0428776
v 0.6002 0.0600111 -0.0452101
v 0.620203 0.0400092 -0.047614
v 0.640206 0.0200075 -0.0500895
v 0.640207 4.67013e-06 -0.0501619
v 0.580195 0.100015 -0.0429474
v 0.600199 0.0800135 -0.0452453
v 0.620202 0.060013 -0.0476146
v 0.640206 0.0400105 -0.0500541
v 0.66021 0.0200075 -0.0525653
v 0.66021 4.94833e-06 -0.0526369
v 0.600198 0.100017 -0.0453162
v 0.620202 0.0800139 -0.0476486
v 0.640205 0.0600118 -0.0500523
v 0.660209 0.0400093 -0.0525274
v 0.680212 0.0200077 -0.0550753
v 0.680213 5.24162e-06 -0.0551474
v 0.620201 0.100017 -0.0477201
v 0.640205 0.0800162 -0.0500901
v 0.660208 0.0600128 -0.0525282
v 0.680211 0.0400106 -0.0550389
v 0.700215 0.0200084 -0.0576225
v 0.700216 5.97908e-06 -0.0576943
v 0.640204 0.100019 -0.0501611
v 0.660208 0.080016 -0.0525643
v 0.680211 0.0600141 -0.05504
v 0.700215 0.0400125 -0.0575884
v 0.720217 0.0200102 -0.0602055
v 0.720219 7.67938e-06 -0.0602782
v 0.660207 0.100019 -0.0526354
v 0.680211 0.0800161 -0.055075
v 0.700215 0.0600138 -0.0575872
v 0.720218 0.0400133 -0.0601712
v 0.740222 0.0200111 -0.0628261
v 0.740222 8.3951e-06 -0.0628969
v 0.680211 0.100019 -0.055147
v 0.700215 0.0800171 -0.0576231
v 0.720218 0.0600147 -0.0601698
v 0.74022 0.0400133 -0.0627883
v 0.760225 0.0200117 -0.0654808
v 0.760225 8.63591e-06 -0.0655512
v 0.700214 0.10002 -0.0576947
v 0.720217 0.0800193 -0.0602072
v 0.740221 0.0600173 -0.0627904
v 0.760222 0.0400153 -0.0654434
v 0.780228 0.0200124 -0.0681705
v 0.780228 8.90199e-06 -0.0682416
v 0.720217 0.100022 -0.0602789
v 0.740219 0.0800187 -0.0628237
v 0.760223 0.0600175 -0.0654434
v 0.780227 0.0400154 -0.068135
v 0.800229 0.0200137 -0.0708959
v 0.80023 9.6601e-06 -0.0709671
v 0.740219 0.100022 -0.0628963
v 0.760223 0.0800203 -0.0654796
v 0.780227 0.0600179 -0.0681347
v 0.80023 0.0400161 -0.0708609
v 0.820233 0.0200138 -0.0736584
v 0.820234 1.13681e-05 -0.0737302
v 0.760222 0.100024 -0.0655516
v 0.780226 0.0800201 -0.0681693
v 0.800229 0.0600193 -0.0708608
v 0.820234 0.0400158 -0.0736226
v 0.840235 0.0200155 -0.0764559
v 0.840237 1.2231e-05 -0.0765286
v 0.780225 0.100024 -0.0682413
v 0.80023 0.0800209 -0.0708963
v 0.820231 0.0600196 -0.0736215
v 0.840236 0.0400172 -0.0764198
v 0.860239 0.0200147 -0.0792888
v 0.860239 1.27803e-05 -0.0793609
v 0.800227 0.100025 -0.0709671
v 0.82023 0.080023 -0.0736575
v 0.840235 0.0600196 -0.0764191
v 0.860239 0.0400185 -0.0792541
v 0.880243 0.0200165 -0.0821598
v 0.880243 1.3467e-05 -0.0822316
v 0.820231 0.100026 -0.0737302
v 0.840234 0.0800226 -0.0764552
v 0.860237 0.0600218 -0.0792534
v 0.880242 0.040018 -0.082123
v 0.900244 0.0200169 -0.0850636
v 0.900245 1.48036e-05 -0.0851357
v 0.840234 0.100026 -0.0765275
v 0.860237 0.0800245 -0.07929
v 0.88024 0.0600224 -0.0821228
v 0.900245 0.0400185 -0.0850281
v 0.920249 0.0200163 -0.0880046
v 0.92025 1.51031e-05 -0.0880783
v 0.860238 0.100026 -0.0793614
v 0.88024 0.0800249 -0.0821584
v 0.900244 0.0600218 -0.0850278
v 0.920248 0.0400204 -0.08797
v 0.940252 0.0200176 -0.0909823
v 0.940253 1.48208e-05 -0.0910542
v 0.88024 0.100028 -0.0822304
v 0.900242 0.0800265 -0.085064
v 0.920248 0.0600228 -0.0879699
v 0.94025 0.0400221 -0.0909461
v 0.960254 0.020019 -0.0939944
v 0.960255 1.67206e-05 -0.0940671
v 0.900243 0.100028 -0.0851358
v 0.920247 0.0800255 -0.0880049
v 0.940251 0.0600237 -0.0909468
v 0.960254 0.0400218 -0.0939598
v 0.980257 0.0200189 -0.0970421
v 0.980258 1.68803e-05 -0.0971152
v 0.920246 0.100028 -0.0880763
v 0.94025 0.0800266 -0.090982
v 0.960253 0.0600251 -0.0939588
v 0.980256 0.0400224 -0.0970067
v 1.00026 0.0200199 -0.100127
v 1.00026 1.80424e-05 -0.1002
v 1.00026 0.100033 -0.100199
v 0.980256 0.100031 -0.0971153
v 1.00026 0.080029 -0.100127
v 0.960252 0.100031 -0.0940667
v 0.980256 0.080029 -0.097044
v 1.00026 0.0600267 -0.100092
v 0.940248 0.10003 -0.0910532
v 0.960252 0.0800283 -0.0939947
v 0.980256 0.0600252 -0.0970072
v 1.00026 0.0400243 -0.100093
v 2.96917e-06 0.0399972 -0.000200061
v 0.0200144 0.0399962 -0.000248872
v 0.0400237 0.0199816 -0.000465523
v 0.040021 -2.40694e-05 -0.000597683
v 2.77448e-06 0.0199976 -0.000200238
v 0.0200151 0.0199914 -0.000261303
v 0.0200056 -2.16513e-05 -0.000328314
v 3.24034e-06 -7.91379e-07 -0.00020231
v -0.019037 0.022784 -0.151537
v -0.0360704 0.022784 -0.151537
v -0.0360704 0.00476155 -0.151537
v -0.019037 0.00476155 -0.151537
v -0.0351863 0.00573582 -0.151537
v -0.0338602 0.00573582 -0.151537
v -0.0338602 0.0067101 -0.151537
v -0.0351863 0.0067101 -0.151537
v -0.0351863 0.0067101 -0.151537
v -0.0338602 0.0067101 -0.151537
v -0.0338602 0.00768412 -0.151537
v -0.0351863 0.00768412 -0.151537
v -0.0351863 0.00768412 -0.151537
v -0.0338602 0.00768412 -0.151537
v -0.0338602 0.00865839 -0.151537
v -0.0351863 0.00865839 -0.151537
v -0.0351863 0.00865839 -0.151537
v -0.0338602 0.00865839 -0.151537
v -0.0338602 0.00963267 -0.151537
v -0.0351863 0.00963267 -0.151537
v -0.0351863 0.00963267 -0.151537
v -0.0338602 0.00963267 -0.151537
v -0.0338602 0.0106067 -0.151537
v -0.0351863 0.0106067 -0.151537
v -0.0351863 0.0106067 -0.151537
v -0.0338602 0.0106067 -0.151537
v -0.0338602 0.011581 -0.151537
v -0.0351863 0.011581 -0.151537
v -0.0351863 0.011581 -0.151537
v -0.0338602 0.011581 -0.151537
v -0.0338602 0.0125552 -0.151537
v -0.0351863 0.0125552 -0.151537
v -0.0351863 0.0125552 -0.151537
v -0.0338602 0.0125552 -0.151537
v -0.0338602 0.0135293 -0.151537
v -0.0351863 0.0135293 -0.151537
v -0.0351863 0.0135293 -0.151537
v -0.0338602 0.0135293 -0.151537
v -0.0338602 0.0145035 -0.151537
v -0.0351863 0.0145035 -0.151537
v -0.0351863 0.0145035 -0.151537
v -0.0338602 0.0145035 -0.151537
v -0.0338602 0.0154776 -0.151537
v -0.0351863 0.0154776 -0.151537
v -0.0351863 0.0154776 -0.151537
v -0.0338602 0.0154776 -0.151537
v -0.0338602 0.0164518 -0.151537
v -0.0351863 0.0164518 -0.151537
v -0.0351863 0.0164518 -0.151537
v -0.0338602 0.0164518 -0.151537
v -0.0338602 0.0174261 -0.151537
v -0.0351863 0.0174261 -0.151537
v -0.0351863 0.00573582 -0.151537
v -0.0334181 0.00573582 -0.151537
v -0.0351863 0.0067101 -0.151537
v -0.0334181 0.0067101 -0.151537
v -0.0351863 0.00768412 -0.151537
v -0.0334181 0.00768412 -0.151537
v -0.0351863 0.00865839 -0.151537
v -0.0334181 0.00865839 -0.151537
v -0.0351863 0.00963267 -0.151537
v -0.0334181 0.00963267 -0.151537
v -0.0351863 0.0106067 -0.151537
v -0.0334181 0.0106067 -0.151537
v -0.0351863 0.011581 -0.151537
v -0.0334181 0.011581 -0.151537
v -0.0351863 0.0125552 -0.151537
v -0.0334181 0.0125552 -0.151537
v -0.0351863 0.0135293 -0.151537
v -0.0334181 0.0135293 -0.151537
v -0.0351863 0.0145035 -0.151537
v -0.0334181 0.0145035 -0.151537
v -0.0351863 0.0154776 -0.151537
v -0.0334181 0.0154776 -0.151537
v -0.0351863 0.0164518 -0.151537
v -0.0334181 0.0164518 -0.151537
v -0.0351863 0.0174261 -0.151537
v -0.0334181 0.0174261 -0.151537
v -0.0338602 0.0174261 -0.151537
v -0.0338602 0.00573582 -0.151537

#List of body polygons
f 1 2 3
f 1 3 6
f 1 14 15
f 406 407 408
f 406 410 411
f 410 406 419

#List of body polygons
f 2 4 3
f 2 5 4
f 3 7 6
f 3 4 7
f 407 320 408
f 407 409 320
f 320 409 319

#List of body polygons
f 5 8 9
f 14 5 15
f 14 8 5
f 14 16 8
f 410 412 411
f 410 413 412
f 413 320 418
f 413 419 320
f 413 410 419

#List of body polygons
f 8 10 9
f 8 11 10
f 16 11 8
f 16 17 11
f 413 414 412
f 413 415 414
f 415 418 417
f 415 413 418

#List of body polygons
f 11 12 10
f 11 13 12
f 17 13 11
f 12 18 19
f 18 13 25
f 18 12 13
f 165 12 164
f 169 12 165
f 169 5 12
f 12 19 164
f 321 320 322
f 321 323 320
f 320 324 322
f 323 328 329
f 328 323 321
f 415 416 414
f 415 323 416
f 323 415 417
f 416 420 421
f 420 323 329
f 420 416 323

#List of body polygons
f 18 20 19
f 18 21 20
f 21 25 24
f 21 18 25
f 162 163 161
f 162 164 163
f 162 165 164
f 168 165 162
f 168 169 165
f 163 170 171
f 19 163 164
f 19 170 163
f 19 20 170
f 251 252 250
f 251 163 252
f 163 251 161
f 252 253 254
f 253 163 171
f 253 252 163
f 252 321 322
f 324 252 322
f 324 250 252
f 324 325 250
f 328 330 329
f 328 331 330
f 331 252 254
f 331 321 252
f 331 328 321
f 420 422 421
f 420 423 422
f 423 329 330
f 423 420 329

#List of body polygons
f 21 22 20
f 21 23 22
f 23 21 24
f 22 26 27
f 26 23 30
f 26 22 23
f 160 161 159
f 160 162 161
f 167 162 160
f 167 168 162
f 170 172 171
f 170 22 172
f 20 22 170
f 172 173 174
f 173 22 27
f 173 172 22
f 249 250 248
f 249 251 250
f 251 159 161
f 251 249 159
f 253 255 254
f 253 172 255
f 172 253 171
f 255 256 257
f 256 172 174
f 256 255 172
f 325 248 250
f 325 326 248
f 331 332 330
f 331 255 332
f 255 331 254
f 332 333 334
f 333 255 257
f 333 332 255
f 423 424 422
f 423 332 424
f 332 423 330
f 424 425 426
f 425 332 334
f 425 424 332

#List of body polygons
f 26 28 27
f 26 29 28
f 29 26 30
f 28 31 32
f 31 29 35
f 31 28 29
f 38 39 40
f 38 40 42
f 43 45 44
f 43 46 45
f 39 46 43
f 39 38 46
f 47 48 45
f 47 45 46
f 49 50 48
f 49 48 47
f 52 54 53
f 52 50 54
f 54 50 49
f 54 57 53
f 62 63 64
f 62 64 66
f 67 68 69
f 63 67 69
f 63 62 67
f 67 75 68
f 157 159 158
f 157 160 159
f 166 160 157
f 166 167 160
f 173 175 174
f 173 28 175
f 28 173 27
f 175 176 177
f 176 28 32
f 176 175 28
f 45 181 182
f 45 182 44
f 48 184 185
f 181 48 185
f 181 45 48
f 50 187 188
f 184 50 188
f 184 48 50
f 50 52 187
f 246 248 247
f 246 249 248
f 249 158 159
f 249 246 158
f 256 258 257
f 256 175 258
f 175 256 174
f 258 259 260
f 259 175 177
f 259 258 175
f 326 247 248
f 326 327 247
f 333 335 334
f 333 258 335
f 258 333 257
f 335 336 337
f 336 258 260
f 336 335 258
f 341 342 343
f 344 341 345
f 344 346 341
f 341 343 345
f 347 346 348
f 347 349 346
f 346 344 348
f 349 350 351
f 349 347 350
f 356 357 358
f 356 359 360
f 359 356 358
f 425 427 426
f 425 335 427
f 335 425 334
f 427 428 429
f 428 335 337
f 428 427 335
f 432 433 434
f 341 435 432
f 342 432 434
f 342 341 432
f 346 436 435
f 346 435 341
f 349 437 436
f 349 436 346
f 438 437 439
f 438 440 437
f 439 349 351
f 439 437 349
f 440 441 442
f 440 438 441
f 446 448 447
f 446 356 448
f 356 446 357
f 449 448 450
f 449 451 448
f 450 356 360
f 450 448 356
f 451 452 453
f 452 451 449

#List of body polygons
f 31 33 32
f 31 34 33
f 34 31 35
f 36 37 33
f 36 33 34
f 39 37 40
f 39 41 37
f 40 36 42
f 40 37 36
f 41 43 44
f 41 39 43
f 51 52 53
f 55 56 51
f 57 51 53
f 57 55 51
f 58 59 56
f 58 56 55
f 60 61 59
f 60 59 58
f 63 61 64
f 63 65 61
f 64 60 66
f 64 61 60
f 68 65 69
f 68 70 65
f 65 63 69
f 72 74 73
f 72 70 74
f 75 70 68
f 75 74 70
f 74 78 73
f 149 150 151
f 149 157 158
f 149 166 157
f 176 178 177
f 176 33 178
f 33 176 32
f 37 179 178
f 37 178 33
f 41 180 179
f 41 179 37
f 181 180 182
f 181 183 180
f 182 41 44
f 182 180 41
f 184 183 185
f 184 186 183
f 183 181 185
f 187 186 188
f 187 189 186
f 186 184 188
f 51 190 189
f 52 189 187
f 52 51 189
f 56 191 190
f 56 190 51
f 59 192 191
f 59 191 56
f 61 193 192
f 61 192 59
f 65 194 193
f 65 193 61
f 196 70 197
f 196 194 70
f 70 194 65
f 70 72 197
f 244 245 243
f 244 149 245
f 149 244 150
f 245 246 247
f 246 149 158
f 246 245 149
f 259 261 260
f 259 178 261
f 178 259 177
f 179 262 261
f 179 261 178
f 180 263 262
f 180 262 179
f 183 264 263
f 183 263 180
f 186 265 264
f 186 264 183
f 189 266 265
f 189 265 186
f 190 267 266
f 190 266 189
f 191 268 267
f 191 267 190
f 192 269 268
f 192 268 191
f 193 270 269
f 193 269 192
f 194 271 270
f 194 270 193
f 271 272 273
f 272 194 196
f 272 271 194
f 245 313 314
f 245 314 243
f 327 245 247
f 336 338 337
f 336 261 338
f 261 336 260
f 262 339 338
f 262 338 261
f 263 340 339
f 263 339 262
f 342 264 343
f 342 340 264
f 264 340 263
f 265 344 345
f 343 265 345
f 343 264 265
f 266 347 348
f 344 266 348
f 344 265 266
f 350 352 351
f 350 267 352
f 347 267 350
f 347 266 267
f 268 353 352
f 268 352 267
f 269 354 353
f 269 353 268
f 270 355 354
f 270 354 269
f 357 271 358
f 357 355 271
f 271 355 270
f 359 361 360
f 359 362 361
f 359 363 362
f 363 271 273
f 363 358 271
f 363 359 358
f 361 364 365
f 364 361 362
f 428 430 429
f 428 338 430
f 338 428 337
f 339 431 430
f 339 430 338
f 433 340 434
f 433 431 340
f 340 431 339
f 340 342 434
f 352 438 439
f 352 439 351
f 441 443 442
f 441 353 443
f 438 353 441
f 438 352 353
f 354 444 443
f 354 443 353
f 355 445 444
f 355 444 354
f 445 446 447
f 446 355 357
f 446 445 355
f 361 449 450
f 361 450 360
f 452 454 453
f 452 455 454
f 452 456 455
f 456 361 365
f 456 449 361
f 456 452 449
f 454 457 458
f 457 454 455

#List of body polygons
f 71 72 73
f 76 77 71
f 78 71 73
f 78 76 71
f 77 79 80
f 79 76 83
f 79 77 76
f 150 152 151
f 150 153 152
f 195 196 197
f 199 71 200
f 199 195 71
f 72 195 197
f 72 71 195
f 77 201 202
f 200 77 202
f 200 71 77
f 77 80 201
f 242 243 241
f 242 244 243
f 244 153 150
f 244 242 153
f 272 274 273
f 272 195 274
f 195 272 196
f 274 275 276
f 275 195 199
f 275 274 195
f 313 315 314
f 313 316 315
f 314 241 243
f 314 315 241
f 363 274 362
f 274 363 273
f 364 366 365
f 364 367 366
f 364 368 367
f 368 274 276
f 368 362 274
f 368 364 362
f 366 369 370
f 366 367 369
f 456 366 455
f 366 456 365
f 457 459 458
f 457 460 459
f 457 461 460
f 461 366 370
f 461 455 366
f 461 457 455
f 459 462 463
f 459 460 462

#List of body polygons
f 79 81 80
f 79 82 81
f 82 79 83
f 81 84 85
f 84 82 88
f 84 81 82
f 153 154 152
f 153 155 154
f 198 199 200
f 201 198 202
f 201 203 198
f 198 200 202
f 81 204 203
f 80 203 201
f 80 81 203
f 204 205 206
f 205 81 85
f 205 204 81
f 239 241 240
f 239 242 241
f 242 155 153
f 242 239 155
f 275 277 276
f 275 198 277
f 198 275 199
f 203 278 277
f 203 277 198
f 204 279 278
f 204 278 203
f 279 280 281
f 280 204 206
f 280 279 204
f 316 317 315
f 316 318 317
f 315 240 241
f 315 317 240
f 368 277 367
f 277 368 276
f 369 371 370
f 369 278 371
f 367 278 369
f 367 277 278
f 279 372 371
f 279 371 278
f 372 373 374
f 373 279 281
f 373 372 279
f 461 371 460
f 371 461 370
f 462 464 463
f 462 372 464
f 460 372 462
f 460 371 372
f 464 465 466
f 465 372 374
f 465 464 372

#List of body polygons
f 84 86 85
f 84 87 86
f 87 84 88
f 89 90 86
f 89 86 87
f 91 92 90
f 91 90 89
f 93 94 92
f 93 92 91
f 95 96 94
f 95 94 93
f 97 98 96
f 97 96 95
f 99 100 98
f 99 98 97
f 101 102 100
f 101 100 99
f 103 104 102
f 103 102 101
f 105 106 104
f 105 104 103
f 107 108 106
f 107 106 105
f 109 110 108
f 109 108 107
f 111 112 110
f 111 110 109
f 113 114 112
f 113 112 111
f 115 116 114
f 115 114 113
f 117 118 116
f 117 116 115
f 119 120 118
f 119 118 117
f 121 122 120
f 121 120 119
f 123 124 122
f 123 122 121
f 125 126 124
f 125 124 123
f 127 128 126
f 127 126 125
f 129 130 128
f 129 128 127
f 131 132 130
f 131 130 129
f 133 134 132
f 133 132 131
f 135 136 134
f 135 134 133
f 137 138 136
f 137 136 135
f 139 140 138
f 139 138 137
f 141 142 140
f 141 140 139
f 143 144 142
f 143 142 141
f 145 146 144
f 145 144 143
f 147 148 146
f 147 146 145
f 155 5 154
f 155 156 5
f 5 156 4
f 205 207 206
f 205 86 207
f 86 205 85
f 90 208 207
f 90 207 86
f 92 209 208
f 92 208 90
f 94 210 209
f 94 209 92
f 96 211 210
f 96 210 94
f 98 212 211
f 98 211 96
f 100 213 212
f 100 212 98
f 102 214 213
f 102 213 100
f 104 215 214
f 104 214 102
f 106 216 215
f 106 215 104
f 108 217 216
f 108 216 106
f 110 218 217
f 110 217 108
f 112 219 218
f 112 218 110
f 114 220 219
f 114 219 112
f 116 221 220
f 116 220 114
f 118 222 221
f 118 221 116
f 120 223 222
f 120 222 118
f 122 224 223
f 122 223 120
f 124 225 224
f 124 224 122
f 126 226 225
f 126 225 124
f 128 227 226
f 128 226 126
f 130 228 227
f 130 227 128
f 132 229 228
f 132 228 130
f 134 230 229
f 134 229 132
f 136 231 230
f 136 230 134
f 138 232 231
f 138 231 136
f 140 233 232
f 140 232 138
f 142 234 233
f 142 233 140
f 144 235 234
f 144 234 142
f 146 236 235
f 146 235 144
f 148 237 236
f 148 236 146
f 238 239 240
f 239 156 155
f 239 238 156
f 280 282 281
f 280 207 282
f 207 280 206
f 208 283 282
f 208 282 207
f 209 284 283
f 209 283 208
f 210 285 284
f 210 284 209
f 211 286 285
f 211 285 210
f 212 287 286
f 212 286 211
f 213 288 287
f 213 287 212
f 214 289 288
f 214 288 213
f 215 290 289
f 215 289 214
f 216 291 290
f 216 290 215
f 217 292 291
f 217 291 216
f 218 293 292
f 218 292 217
f 219 294 293
f 219 293 218
f 220 295 294
f 220 294 219
f 221 296 295
f 221 295 220
f 222 297 296
f 222 296 221
f 223 298 297
f 223 297 222
f 224 299 298
f 224 298 223
f 225 300 299
f 225 299 224
f 226 301 300
f 226 300 225
f 227 302 301
f 227 301 226
f 228 303 302
f 228 302 227
f 229 304 303
f 229 303 228
f 230 305 304
f 230 304 229
f 231 306 305
f 231 305 230
f 232 307 306
f 232 306 231
f 233 308 307
f 233 307 232
f 234 309 308
f 234 308 233
f 235 310 309
f 235 309 234
f 236 311 310
f 236 310 235
f 237 312 311
f 237 311 236
f 318 319 317
f 318 320 319
f 317 238 240
f 317 319 238
f 373 375 374
f 373 282 375
f 282 373 281
f 283 376 375
f 283 375 282
f 284 377 376
f 284 376 283
f 285 378 377
f 285 377 284
f 286 379 378
f 286 378 285
f 287 380 379
f 287 379 286
f 288 381 380
f 288 380 287
f 289 382 381
f 289 381 288
f 290 383 382
f 290 382 289
f 291 384 383
f 291 383 290
f 292 385 384
f 292 384 291
f 293 386 385
f 293 385 292
f 294 387 386
f 294 386 293
f 295 388 387
f 295 387 294
f 296 389 388
f 296 388 295
f 297 390 389
f 297 389 296
f 298 391 390
f 298 390 297
f 299 392 391
f 299 391 298
f 300 393 392
f 300 392 299
f 301 394 393
f 301 393 300
f 302 395 394
f 302 394 301
f 303 396 395
f 303 395 302
f 304 397 396
f 304 396 303
f 305 398 397
f 305 397 304
f 306 399 398
f 306 398 305
f 307 400 399
f 307 399 306
f 308 401 400
f 308 400 307
f 309 402 401
f 309 401 308
f 310 403 402
f 310 402 309
f 311 404 403
f 311 403 310
f 312 405 404
f 312 404 311
f 465 467 466
f 465 375 467
f 375 465 374
f 376 468 467
f 376 467 375
f 377 469 468
f 377 468 376
f 378 470 469
f 378 469 377
f 379 471 470
f 379 470 378
f 380 472 471
f 380 471 379
f 381 473 472
f 381 472 380
f 382 474 473
f 382 473 381
f 383 475 474
f 383 474 382
f 384 476 475
f 384 475 383
f 385 477 476
f 385 476 384
f 386 478 477
f 386 477 385
f 387 479 478
f 387 478 386
f 388 480 479
f 388 479 387
f 389 481 480
f 389 480 388
f 390 482 481
f 390 481 389
f 391 483 482
f 391 482 390
f 392 484 483
f 392 483 391
f 393 485 484
f 393 484 392
f 394 486 485
f 394 485 393
f 395 487 486
f 395 486 394
f 396 488 487
f 396 487 395
f 397 489 488
f 397 488 396
f 398 490 489
f 398 489 397
f 399 491 490
f 399 490 398
f 400 492 491
f 400 491 399
f 401 493 492
f 401 492 400
f 402 494 493
f 402 493 401
f 403 495 494
f 403 494 402
f 404 496 495
f 404 495 403
f 405 497 496
f 405 496 404

#List of body lines
l 498 499
l 499 500
l 500 501
l 501 502
l 502 503
l 503 504
l 504 505
l 505 506
l 506 507
l 507 508
l 499 509
l 509 510
l 510 500
l 500 511
l 511 502
l 502 512
l 512 504
l 504 513
l 513 506
l 506 514
l 514 515
l 515 507
l 510 516
l 516 511
l 511 517
l 517 512
l 512 518
l 518 513
l 513 519
l 519 514
l 514 520
l 520 521
l 521 515
l 516 522
l 522 517
l 517 523
l 523 518
l 518 524
l 524 519
l 519 525
l 525 520
l 520 526
l 526 527
l 527 521
l 522 528
l 528 523
l 523 529
l 529 524
l 524 530
l 530 525
l 525 531
l 531 526
l 526 532
l 532 533
l 533 527
l 528 534
l 534 529
l 529 535
l 535 530
l 530 536
l 536 531
l 531 537
l 537 532
l 532 538
l 538 539
l 539 533
l 534 540
l 540 535
l 535 541
l 541 536
l 536 542
l 542 537
l 537 543
l 543 538
l 538 544
l 544 545
l 545 539
l 540 546
l 546 541
l 541 547
l 547 542
l 542 548
l 548 543
l 543 549
l 549 544
l 544 550
l 550 551
l 551 545
l 546 552
l 552 547
l 547 553
l 553 548
l 548 554
l 554 549
l 549 555
l 555 550
l 550 556
l 556 557
l 557 551
l 552 558
l 558 553
l 553 559
l 559 554
l 554 560
l 560 555
l 555 561
l 561 556
l 556 562
l 562 563
l 563 557
l 558 564
l 564 559
l 559 565
l 565 560
l 560 566
l 566 561
l 561 567
l 567 562
l 562 568
l 568 569
l 569 563
l 564 570
l 570 565
l 565 571
l 571 566
l 566 572
l 572 567
l 567 573
l 573 568
l 568 574
l 574 575
l 575 569
l 570 576
l 576 571
l 571 577
l 577 572
l 572 578
l 578 573
l 573 579
l 579 574
l 574 580
l 580 581
l 581 575
l 576 582
l 582 577
l 577 583
l 583 578
l 578 584
l 584 579
l 579 585
l 585 580
l 580 586
l 586 587
l 587 581
l 582 588
l 588 583
l 583 589
l 589 584
l 584 590
l 590 585
l 585 591
l 591 586
l 586 592
l 592 593
l 593 587
l 588 594
l 594 589
l 589 595
l 595 590
l 590 596
l 596 591
l 591 597
l 597 592
l 592 598
l 598 599
l 599 593
l 594 600
l 600 595
l 595 601
l 601 596
l 596 602
l 602 597
l 597 603
l 603 598
l 598 604
l 604 605
l 605 599
l 600 606
l 606 601
l 601 607
l 607 602
l 602 608
l 608 603
l 603 609
l 609 604
l 604 610
l 610 611
l 611 605
l 606 612
l 612 607
l 607 613
l 613 608
l 608 614
l 614 609
l 609 615
l 615 610
l 610 616
l 616 617
l 617 611
l 612 618
l 618 613
l 613 619
l 619 614
l 614 620
l 620 615
l 615 621
l 621 616
l 616 622
l 622 623
l 623 617
l 618 624
l 624 619
l 619 625
l 625 620
l 620 626
l 626 621
l 621 627
l 627 622
l 622 628
l 628 629
l 629 623
l 624 630
l 630 625
l 625 631
l 631 626
l 626 632
l 632 627
l 627 633
l 633 628
l 628 634
l 634 635
l 635 629
l 630 636
l 636 631
l 631 637
l 637 632
l 632 638
l 638 633
l 633 639
l 639 634
l 634 640
l 640 641
l 641 635
l 636 642
l 642 637
l 637 643
l 643 638
l 638 644
l 644 639
l 639 645
l 645 640
l 640 646
l 646 647
l 647 641
l 642 648
l 648 643
l 643 649
l 649 644
l 644 650
l 650 645
l 645 651
l 651 646
l 646 652
l 652 653
l 653 647
l 648 654
l 654 649
l 649 655
l 655 650
l 650 656
l 656 651
l 651 657
l 657 652
l 652 658
l 658 659
l 659 653
l 654 660
l 660 655
l 655 661
l 661 656
l 656 662
l 662 657
l 657 663
l 663 658
l 658 664
l 664 665
l 665 659
l 660 666
l 666 661
l 661 667
l 667 662
l 662 668
l 668 663
l 663 669
l 669 664
l 664 670
l 670 671
l 671 665
l 666 672
l 672 667
l 667 673
l 673 668
l 668 674
l 674 669
l 669 675
l 675 670
l 670 676
l 676 677
l 677 671
l 672 678
l 678 673
l 673 679
l 679 674
l 674 680
l 680 675
l 675 681
l 681 676
l 676 682
l 682 683
l 683 677
l 678 684
l 684 679
l 679 685
l 685 680
l 680 686
l 686 681
l 681 687
l 687 682
l 682 688
l 688 689
l 689 683
l 684 690
l 690 685
l 685 691
l 691 686
l 686 692
l 692 687
l 687 693
l 693 688
l 688 694
l 694 695
l 695 689
l 690 696
l 696 691
l 691 697
l 697 692
l 692 698
l 698 693
l 693 699
l 699 694
l 694 700
l 700 701
l 701 695
l 696 702
l 702 697
l 697 703
l 703 698
l 698 704
l 704 699
l 699 705
l 705 700
l 700 706
l 706 707
l 707 701
l 702 708
l 708 703
l 703 709
l 709 704
l 704 710
l 710 705
l 705 711
l 711 706
l 706 712
l 712 713
l 713 707
l 708 714
l 714 709
l 709 715
l 715 710
l 710 716
l 716 711
l 711 717
l 717 712
l 712 718
l 718 719
l 719 713
l 714 720
l 720 715
l 715 721
l 721 716
l 716 722
l 722 717
l 717 723
l 723 718
l 718 724
l 724 725
l 725 719
l 720 726
l 726 721
l 721 727
l 727 722
l 722 728
l 728 723
l 723 729
l 729 724
l 724 730
l 730 731
l 731 725
l 726 732
l 732 727
l 727 733
l 733 728
l 728 734
l 734 729
l 729 735
l 735 730
l 730 736
l 736 737
l 737 731
l 732 738
l 738 733
l 733 739
l 739 734
l 734 740
l 740 735
l 735 741
l 741 736
l 736 742
l 742 743
l 743 737
l 738 744
l 744 739
l 739 745
l 745 740
l 740 746
l 746 741
l 741 747
l 747 742
l 742 748
l 748 749
l 749 743
l 744 750
l 750 745
l 745 751
l 751 746
l 746 752
l 752 747
l 747 753
l 753 748
l 748 754
l 754 755
l 755 749
l 750 756
l 756 751
l 751 757
l 757 752
l 752 758
l 758 753
l 753 759
l 759 754
l 754 760
l 760 761
l 761 755
l 756 762
l 762 757
l 757 763
l 763 758
l 758 764
l 764 759
l 759 765
l 765 760
l 760 766
l 766 767
l 767 761
l 762 768
l 768 763
l 763 769
l 769 764
l 764 770
l 770 765
l 765 771
l 771 766
l 766 772
l 772 773
l 773 767
l 768 774
l 774 769
l 769 775
l 775 770
l 770 776
l 776 771
l 771 777
l 777 772
l 772 778
l 778 779
l 779 773
l 774 780
l 780 775
l 775 781
l 781 776
l 776 782
l 782 777
l 777 783
l 783 778
l 778 784
l 784 785
l 785 779
l 786 787
l 788 786
l 787 789
l 790 787
l 788 790
l 791 788
l 789 792
l 793 789
l 790 793
l 794 790
l 791 794
l 795 791
l 792 780
l 781 792
l 793 781
l 782 793
l 794 782
l 783 794
l 795 783
l 784 795
l 498 796
l 501 498
l 797 501
l 503 797
l 798 503
l 505 798
l 508 505
l 799 508
l 796 800
l 797 796
l 801 797
l 798 801
l 799 798
l 802 799
l 800 803
l 801 800
l 802 801
l 803 802


