#OBJ File generated by Abaqus/CAE
#List of Vertices
v 0.0200063 -2.88944e-05 -0.000167684
v 0.0200097 0.0041714 -0.000150077
v 0.0158084 0.00417302 -0.000131849
v 1.21473e-06 0.019999 -3.06056e-07
v 0.0200205 0.0199874 -8.06389e-05
v 0.0158088 -2.41878e-05 -0.000131748
v 3.25204e-06 -2.35435e-06 -8.70305e-07
v 0.0254508 0.0145527 -0.000199584
v 0.0249666 0.0199855 -0.000148282
v 0.0354817 0.0199807 -0.000288606
v 0.037 0.00299819 -0.000456758
v 0.0400279 0.019977 -0.000348123
v 0.0400258 -3.1392e-05 -0.000521735
v 0.0249148 -3.05078e-05 -0.000254005
v 0.0200154 0.0116013 -0.000117938
v 0.0315937 -2.98946e-05 -0.000372077
v 0.0382763 -3.14734e-05 -0.000491938
v 0.0452759 0.0147289 -0.000519282
v 0.0457468 0.0199794 -0.000473471
v 0.0558199 0.0199799 -0.000689531
v 0.0545203 0.00548471 -0.000821426
v 0.0600433 0.0199798 -0.000782582
v 0.0600414 -3.60377e-05 -0.00100182
v 0.0549239 -3.42485e-05 -0.000879726
v 0.0463513 -3.16769e-05 -0.000674622
v 0.0719707 0.00805066 -0.00127864
v 0.0721105 0.0199784 -0.00113349
v 0.0800551 0.0199778 -0.00136743
v 0.0800525 -3.14523e-05 -0.0016158
v 0.0701642 -3.29647e-05 -0.00131343
v 0.100067 -3.53827e-05 -0.00236598
v 0.100067 0.0199794 -0.00210295
v 0.120079 -3.09125e-05 -0.00326019
v 0.120078 0.0199794 -0.00299018
v 0.140092 -3.38044e-05 -0.00429195
v 0.140091 0.01998 -0.00402519
v 0.160105 -3.16461e-05 -0.00546542
v 0.160104 0.019979 -0.00520787
v 0.180119 -3.06483e-05 -0.00677684
v 0.180117 0.0199829 -0.00654013
v 0.195811 0.00429504 -0.00785677
v 0.186223 0.0199826 -0.00698844
v 0.200125 0.0199867 -0.00801022
v 0.200132 -2.23123e-05 -0.00822166
v 0.197272 -2.47603e-05 -0.00801395
v 0.220133 0.0199904 -0.00958738
v 0.220055 0.0199908 -0.00958271
v 0.220135 0.0198381 -0.00959003
v 0.220139 -1.84505e-05 -0.00976831
v 0.240141 -1.34253e-05 -0.0113974
v 0.240141 0.0199905 -0.0112369
v 0.230743 -1.547e-05 -0.0106316
v 0.260149 -1.41323e-05 -0.0131014
v 0.260146 0.0199928 -0.0129513
v 0.280154 0.0199932 -0.0147387
v 0.279288 0.0199938 -0.0146602
v 0.280153 0.0147203 -0.0147744
v 0.280154 -1.35686e-05 -0.0148734
v 0.300162 -1.15089e-05 -0.016719
v 0.300158 0.019995 -0.0165942
v 0.285161 -1.26643e-05 -0.015336
v 0.320168 -8.52436e-06 -0.0186272
v 0.320165 0.0199959 -0.0185196
v 0.340172 -5.25654e-06 -0.0205916
v 0.340168 0.0199997 -0.0205014
v 0.360171 0.0200032 -0.0225285
v 0.355724 0.0200014 -0.022077
v 0.360172 0.0131451 -0.0225522
v 0.360174 -1.30804e-07 -0.0226019
v 0.380176 2.7896e-06 -0.0246456
v 0.380173 0.0200042 -0.0245804
v 0.366235 9.72774e-07 -0.0232204
v 0.400176 4.20342e-06 -0.0267136
v 0.400176 0.0200049 -0.0266564
v 0.420179 5.25758e-06 -0.0288085
v 0.420178 0.0200063 -0.0287551
v 0.440179 6.92199e-06 -0.0309268
v 0.440178 0.0200086 -0.0308759
v 0.460183 7.07014e-06 -0.0330704
v 0.460181 0.0200098 -0.0330207
v 0.480183 8.83908e-06 -0.0352375
v 0.480183 0.0200103 -0.0351886
v 0.500186 1.02622e-05 -0.0374299
v 0.500185 0.0200107 -0.0373806
v 0.520189 9.48539e-06 -0.0396454
v 0.520187 0.0200113 -0.0395958
v 0.54019 1.19726e-05 -0.0418851
v 0.54019 0.0200129 -0.0418372
v 0.560193 1.33359e-05 -0.0441499
v 0.560193 0.0200134 -0.0441005
v 0.580195 1.41211e-05 -0.0464366
v 0.580193 0.0200159 -0.0463876
v 0.600197 1.49646e-05 -0.0487481
v 0.600196 0.020016 -0.0486995
v 0.620199 1.6391e-05 -0.0510833
v 0.620196 0.0200193 -0.0510351
v 0.640201 1.65596e-05 -0.0534421
v 0.640199 0.0200189 -0.0533939
v 0.660203 1.84893e-05 -0.0558263
v 0.660201 0.0200203 -0.055777
v 0.680205 2.02782e-05 -0.0582338
v 0.680203 0.0200218 -0.0581842
v 0.700207 2.02568e-05 -0.0606642
v 0.700205 0.0200238 -0.0606163
v 0.720208 2.13605e-05 -0.0631174
v 0.720207 0.0200247 -0.0630708
v 0.74021 2.4096e-05 -0.0655984
v 0.740208 0.020025 -0.0655487
v 0.760211 2.45275e-05 -0.0680994
v 0.760212 0.0200254 -0.0680526
v 0.780214 2.55197e-05 -0.0706266
v 0.780214 0.0200265 -0.0705792
v 0.800216 2.77358e-05 -0.0731785
v 0.800214 0.0200289 -0.0731294
v 0.820218 2.71586e-05 -0.0757517
v 0.820216 0.0200309 -0.0757045
v 0.84022 2.90667e-05 -0.0783511
v 0.840219 0.0200309 -0.0783023
v 0.860223 2.95223e-05 -0.080973
v 0.86022 0.020032 -0.0809244
v 0.880224 3.14164e-05 -0.0836194
v 0.880223 0.0200322 -0.0835704
v 0.900225 3.31587e-05 -0.0862897
v 0.900225 0.0200348 -0.0862418
v 0.920228 3.32247e-05 -0.0889833
v 0.920226 0.0200358 -0.0889353
v 0.940231 3.44667e-05 -0.091702
v 0.940229 0.0200359 -0.0916531
v 0.960232 3.53328e-05 -0.0944433
v 0.96023 0.020038 -0.0943951
v 0.980234 3.65967e-05 -0.0972095
v 0.980233 0.0200384 -0.0971614
v 1.00024 3.88231e-05 -0.0999993
v 1.00024 0.02004 -0.0999517
v 0.0200197 0.0202168 -7.99172e-05
v 0.0172767 0.0227316 -7.10246e-05
v 1.25474e-06 0.0399989 -2.3288e-07
v 0.00563666 0.039998 -2.00808e-05
v 0.0200201 0.0268183 -7.43598e-05
v 0.0128437 0.039996 -4.1594e-05
v 0.0200209 0.0334218 -7.12623e-05
v 0.0200195 0.0399942 -6.43655e-05
v 4.20074e-06 0.0227387 -1.62953e-06
v 0.0200433 0.0399696 -6.40121e-05
v 0.0200507 0.0399952 -6.5633e-05
v 0.0270625 0.0399934 -0.000140907
v 0.0256461 0.0343664 -0.000145427
v 0.0340731 0.0399929 -0.000216181
v 0.0312467 0.028763 -0.000224466
v 0.0400346 0.0399935 -0.000282448
v 0.0400313 0.0358147 -0.000294372
v 0.0368475 0.0231593 -0.000303561
v 0.0200198 0.0399745 -6.58203e-05
v 0.0200197 0.0353232 -6.71726e-05
v 0.0200208 0.0306758 -7.34406e-05
v 0.020021 0.0260267 -7.72247e-05
v 0.020021 0.0260267 -7.72247e-05
v 0.0281992 0.0199824 -0.000190573
v 0.0200204 0.0213759 -7.85168e-05
v 0.0534377 0.0265862 -0.000616673
v 0.0580582 0.0399902 -0.000639159
v 0.0600423 0.0399911 -0.000679463
v 0.0741164 0.0259148 -0.00116152
v 0.0739955 0.0399929 -0.00107701
v 0.0800546 0.0399941 -0.00124867
v 0.100068 0.0399903 -0.00197664
v 0.120079 0.039994 -0.00286089
v 0.14009 0.0399923 -0.00389619
v 0.160103 0.0399945 -0.00508757
v 0.180115 0.0399935 -0.00642977
v 0.178224 0.0399924 -0.00630211
v 0.180114 0.0364362 -0.00644741
v 0.200125 0.0399963 -0.00791113
v 0.219757 0.0203678 -0.00955628
v 0.204632 0.0399948 -0.00826713
v 0.220134 0.0399959 -0.00949786
v 0.240138 0.0399986 -0.0111547
v 0.260145 0.0399983 -0.0128776
v 0.277981 0.022163 -0.0145347
v 0.267552 0.0399989 -0.0135429
v 0.280151 0.0399994 -0.0146707
v 0.300157 0.0400009 -0.0165362
v 0.320163 0.0400019 -0.0184703
v 0.340166 0.040003 -0.0204588
v 0.332554 0.0400036 -0.019704
v 0.340166 0.0325067 -0.0204748
v 0.360169 0.0400049 -0.0224905
v 0.380172 0.040007 -0.0245491
v 0.400176 0.0400072 -0.0266288
v 0.420177 0.0400083 -0.0287279
v 0.440179 0.0400107 -0.0308518
v 0.460181 0.0400095 -0.0329954
v 0.480183 0.0400128 -0.0351654
v 0.500184 0.0400135 -0.0373572
v 0.520186 0.0400146 -0.0395731
v 0.54019 0.0400143 -0.041813
v 0.560191 0.0400178 -0.0440779
v 0.580193 0.0400184 -0.0463655
v 0.600194 0.0400192 -0.0486756
v 0.620196 0.0400207 -0.0510113
v 0.640198 0.0400212 -0.0533701
v 0.6602 0.0400234 -0.0557541
v 0.680202 0.0400234 -0.0581598
v 0.700204 0.0400241 -0.0605912
v 0.720206 0.040026 -0.063047
v 0.740209 0.0400274 -0.0655268
v 0.76021 0.040029 -0.0680293
v 0.780211 0.0400291 -0.0705542
v 0.800213 0.0400306 -0.0731052
v 0.820215 0.0400319 -0.0756798
v 0.840217 0.0400335 -0.0782788
v 0.86022 0.0400339 -0.0809016
v 0.880222 0.040036 -0.0835479
v 0.900225 0.040036 -0.0862181
v 0.920227 0.0400369 -0.0889117
v 0.940227 0.0400391 -0.0916295
v 0.96023 0.0400391 -0.0943715
v 0.980232 0.0400419 -0.0971385
v 1.00023 0.0400418 -0.0999277
v 3.09908e-06 0.0599981 -1.26184e-06
v 0.00563741 0.0543662 -1.79272e-05
v 0.00563719 0.059998 -1.79736e-05
v 0.0128417 0.0600013 -4.1362e-05
v 0.0128447 0.0471639 -4.12586e-05
v 0.02002 0.0600032 -6.596e-05
v 0.0200488 0.0599734 -6.52204e-05
v 0.0200474 0.0600031 -6.57486e-05
v 0.0270583 0.0600011 -0.00014096
v 0.0270596 0.052964 -0.000140703
v 0.0340665 0.0600031 -0.000217438
v 0.0340706 0.0459543 -0.000216188
v 0.040034 0.0600025 -0.000281226
v 0.0580609 0.0419719 -0.000639079
v 0.0581329 0.060007 -0.000642999
v 0.0600435 0.0600074 -0.000680049
v 0.0740108 0.0460375 -0.00107591
v 0.0740703 0.0600034 -0.00107694
v 0.080056 0.0600032 -0.00124845
v 0.100067 0.0600063 -0.00197675
v 0.120079 0.0600038 -0.00285983
v 0.14009 0.060006 -0.00389709
v 0.160103 0.0600047 -0.00509126
v 0.178195 0.0419118 -0.0063
v 0.173474 0.060006 -0.00599104
v 0.180114 0.0600063 -0.00643711
v 0.200125 0.0600037 -0.0079197
v 0.199636 0.0600032 -0.00788341
v 0.200125 0.0571668 -0.00791805
v 0.220132 0.0600033 -0.00950082
v 0.240138 0.0600024 -0.0111554
v 0.260146 0.060004 -0.0128794
v 0.26801 0.0521406 -0.0135843
v 0.267939 0.0600036 -0.0135779
v 0.280152 0.0600038 -0.0146721
v 0.300157 0.0600068 -0.0165395
v 0.320161 0.0600062 -0.0184716
v 0.332086 0.0480817 -0.0196562
v 0.33179 0.0600058 -0.0196287
v 0.340167 0.0600063 -0.020463
v 0.360168 0.0600072 -0.0224922
v 0.38017 0.060009 -0.024549
v 0.400174 0.0600085 -0.0266283
v 0.420177 0.0600091 -0.028728
v 0.440177 0.0600107 -0.0308495
v 0.46018 0.0600115 -0.032995
v 0.480181 0.0600141 -0.0351647
v 0.500185 0.0600143 -0.0373573
v 0.520186 0.0600172 -0.039574
v 0.540188 0.0600164 -0.0418123
v 0.560189 0.0600193 -0.0440767
v 0.580192 0.0600195 -0.0463646
v 0.600195 0.0600199 -0.048676
v 0.620195 0.0600211 -0.0510096
v 0.640197 0.0600236 -0.0533706
v 0.6602 0.0600232 -0.0557531
v 0.680201 0.0600254 -0.0581604
v 0.700203 0.0600259 -0.060591
v 0.720205 0.0600278 -0.0630467
v 0.740206 0.0600293 -0.0655252
v 0.760209 0.0600309 -0.068029
v 0.780212 0.0600312 -0.0705559
v 0.800212 0.060033 -0.0731055
v 0.820215 0.0600346 -0.0756814
v 0.840218 0.0600344 -0.0782791
v 0.860219 0.0600354 -0.0809003
v 0.88022 0.0600382 -0.0835475
v 0.900222 0.060039 -0.0862171
v 0.920226 0.0600385 -0.0889115
v 0.940225 0.0600417 -0.0916296
v 0.960228 0.0600429 -0.0943722
v 0.980232 0.0600426 -0.0971381
v 1.00023 0.0600439 -0.0999268
v 0.0200184 0.0665774 -6.94296e-05
v 0.0134428 0.0665734 -4.48975e-05
v 0.00683811 0.0731706 -2.32501e-05
v 0.0200204 0.0731771 -7.57892e-05
v 0.000234775 0.0797651 -3.04337e-07
v 0.020022 0.0797756 -8.06878e-05
v 4.05971e-06 0.0799976 -1.70453e-06
v 0.020021 0.0800093 -8.14982e-05
v 3.9935e-06 0.0772211 -9.1773e-07
v 0.0241774 0.0758533 -0.000121994
v 0.0282632 0.0800135 -0.000192496
v 0.0400274 0.0800198 -0.000348758
v 0.0400315 0.0641434 -0.00029546
v 0.0379836 0.0620523 -0.000260912
v 0.0200203 0.0786076 -7.7848e-05
v 0.0200214 0.0739619 -7.68917e-05
v 0.0200195 0.0693145 -7.10207e-05
v 0.0200202 0.0646678 -6.86609e-05
v 0.0200201 0.0600194 -6.37394e-05
v 0.0469008 0.0731476 -0.000462584
v 0.0457832 0.0800186 -0.000473297
v 0.0558796 0.0800162 -0.000689932
v 0.0589596 0.0610915 -0.000662516
v 0.0600415 0.080018 -0.000781848
v 0.0720936 0.0679667 -0.00106386
v 0.0723214 0.0800174 -0.00114082
v 0.0800539 0.0800202 -0.00136683
v 0.100066 0.0800154 -0.00210283
v 0.12008 0.0800175 -0.00299192
v 0.140093 0.0800158 -0.00402881
v 0.160103 0.0800189 -0.00521667
v 0.180116 0.0743335 -0.00652169
v 0.173436 0.0666847 -0.00602934
v 0.180115 0.0800137 -0.00655315
v 0.181421 0.0787093 -0.00664347
v 0.182393 0.0800134 -0.0067208
v 0.200126 0.0800115 -0.00802614
v 0.200124 0.0608852 -0.00792212
v 0.199747 0.0603797 -0.0078917
v 0.210093 0.0700435 -0.00876038
v 0.219151 0.0800107 -0.00951836
v 0.220133 0.0800087 -0.00959582
v 0.24014 0.080009 -0.0112405
v 0.260145 0.0800105 -0.012955
v 0.280151 0.0786567 -0.0147365
v 0.27294 0.0672142 -0.0140518
v 0.28015 0.0800106 -0.0147391
v 0.280689 0.0794739 -0.0147893
v 0.281229 0.0800114 -0.0148398
v 0.300156 0.0800108 -0.0165985
v 0.320161 0.0800105 -0.0185245
v 0.340165 0.068077 -0.0204802
v 0.335776 0.0643966 -0.020038
v 0.340166 0.0800105 -0.0205093
v 0.348407 0.0717681 -0.021326
v 0.355581 0.0800099 -0.0220687
v 0.360169 0.0800091 -0.0225317
v 0.380171 0.0800105 -0.0245845
v 0.400172 0.0800119 -0.0266582
v 0.420175 0.0800114 -0.0287547
v 0.440177 0.0800143 -0.0308778
v 0.460179 0.0800136 -0.0330206
v 0.480181 0.0800147 -0.0351887
v 0.500183 0.0800157 -0.0373799
v 0.520186 0.0800171 -0.0395972
v 0.540187 0.0800194 -0.0418373
v 0.560188 0.0800208 -0.0441
v 0.58019 0.0800219 -0.0463883
v 0.600191 0.0800232 -0.0486988
v 0.620194 0.0800228 -0.0510334
v 0.640197 0.0800239 -0.0533939
v 0.660197 0.0800269 -0.0557772
v 0.680199 0.0800277 -0.0581838
v 0.700201 0.0800294 -0.0606155
v 0.720203 0.08003 -0.0630699
v 0.740207 0.0800304 -0.0655496
v 0.760208 0.0800311 -0.0680515
v 0.78021 0.0800327 -0.0705782
v 0.800212 0.0800336 -0.073129
v 0.820213 0.0800366 -0.0757039
v 0.840216 0.0800358 -0.078302
v 0.860218 0.0800385 -0.0809251
v 0.88022 0.0800385 -0.0835706
v 0.900221 0.0800411 -0.0862412
v 0.920225 0.0800404 -0.0889358
v 0.940226 0.0800434 -0.0916546
v 0.960228 0.0800445 -0.0943964
v 0.98023 0.0800445 -0.0971617
v 1.00023 0.0800459 -0.099952
v 0.0200048 0.100026 -0.000166645
v 0.0158217 0.10002 -0.000132334
v 0.0200084 0.0958396 -0.000149506
v 1.69556e-06 0.0999981 2.26847e-07
v 0.0246588 0.0953759 -0.000209296
v 0.0249214 0.100026 -0.000253875
v 0.031605 0.100027 -0.000371958
v 0.0309836 0.089057 -0.000267391
v 0.0382908 0.100028 -0.000492637
v 0.0373098 0.0827353 -0.000324175
v 0.040026 0.100029 -0.000522671
v 0.0355036 0.0800164 -0.000288739
v 0.0249796 0.0800111 -0.000148252
v 0.0200142 0.0883826 -0.000117328
v 0.0469094 0.0931458 -0.000610654
v 0.046382 0.100029 -0.000675117
v 0.0549681 0.100032 -0.000881374
v 0.0562074 0.0838503 -0.000731285
v 0.0600406 0.100031 -0.00100145
v 0.0705473 0.089525 -0.00119246
v 0.0704141 0.100031 -0.00132097
v 0.0800543 0.100029 -0.00161625
v 0.100069 0.10003 -0.00236836
v 0.12008 0.10003 -0.00326193
v 0.140093 0.10003 -0.00429539
v 0.160107 0.100029 -0.00547403
v 0.18012 0.100027 -0.00678955
v 0.188035 0.0921066 -0.00727729
v 0.197346 0.100021 -0.0080309
v 0.200128 0.100021 -0.00823014
v 0.220134 0.0813796 -0.00960805
v 0.219657 0.080486 -0.0095638
v 0.220135 0.100016 -0.00977509
v 0.229444 0.090707 -0.0104579
v 0.231493 0.100015 -0.0106982
v 0.240138 0.100015 -0.0114002
v 0.260144 0.100017 -0.0131022
v 0.280152 0.100017 -0.0148781
v 0.285892 0.0942753 -0.0153706
v 0.291739 0.100017 -0.0159461
v 0.300158 0.100016 -0.0167213
v 0.320163 0.100015 -0.0186321
v 0.340166 0.100015 -0.020598
v 0.36017 0.0869849 -0.0225581
v 0.357908 0.0822714 -0.0223143
v 0.36017 0.100012 -0.0226061
v 0.365477 0.0947038 -0.02313
v 0.366157 0.100012 -0.0232158
v 0.380172 0.100011 -0.0246468
v 0.400172 0.100014 -0.0267154
v 0.420174 0.100014 -0.0288085
v 0.440176 0.100015 -0.0309264
v 0.460177 0.100016 -0.0330698
v 0.480181 0.100017 -0.0352386
v 0.500182 0.100018 -0.0374293
v 0.520184 0.100019 -0.039645
v 0.540185 0.100021 -0.0418846
v 0.560187 0.100022 -0.0441477
v 0.580189 0.100023 -0.0464351
v 0.600192 0.100024 -0.0487477
v 0.620193 0.100026 -0.0510822
v 0.640196 0.100027 -0.0534424
v 0.660198 0.100028 -0.0558249
v 0.680201 0.100028 -0.0582326
v 0.700201 0.10003 -0.060662
v 0.720202 0.100033 -0.063118
v 0.740205 0.100033 -0.065597
v 0.760208 0.100034 -0.0681006
v 0.780209 0.100036 -0.0706276
v 0.800211 0.100037 -0.0731774
v 0.820213 0.100038 -0.0757527
v 0.840213 0.10004 -0.0783499
v 0.860216 0.100041 -0.0809725
v 0.880219 0.100041 -0.0836189
v 0.900221 0.100042 -0.0862898
v 0.920222 0.100044 -0.0889835
v 0.940224 0.100044 -0.0917002
v 0.960226 0.100046 -0.0944426
v 0.980228 0.100047 -0.0972087
v 1.00023 0.100047 -0.0999989
v 3.09908e-06 0.0599981 -0.000201262
v 4.05971e-06 0.0799976 -0.000201705
v 0.020021 0.0800093 -0.000281498
v 0.02002 0.0600032 -0.00026596
v 0.040034 0.0600025 -0.000481226
v 0.0400346 0.0399935 -0.000482448
v 0.0600423 0.0399911 -0.000879463
v 0.0600433 0.0199798 -0.000982582
v 0.0800551 0.0199778 -0.00156743
v 0.0800525 -3.14523e-05 -0.0018158
v 0.0600414 -3.60377e-05 -0.00120182
v 1.69556e-06 0.0999981 -0.000199773
v 0.0200048 0.100026 -0.000366645
v 0.0400274 0.0800198 -0.000548758
v 0.0600435 0.0600074 -0.000880049
v 0.0800546 0.0399941 -0.00144867
v 0.100067 0.0199794 -0.00230295
v 0.100067 -3.53827e-05 -0.00256598
v 0.040026 0.100029 -0.000722671
v 0.0600415 0.080018 -0.000981848
v 0.080056 0.0600032 -0.00144845
v 0.100068 0.0399903 -0.00217664
v 0.120078 0.0199794 -0.00319018
v 0.120079 -3.09125e-05 -0.00346019
v 0.0600406 0.100031 -0.00120145
v 0.0800539 0.0800202 -0.00156683
v 0.100067 0.0600063 -0.00217675
v 0.120079 0.039994 -0.00306089
v 0.140091 0.01998 -0.00422519
v 0.140092 -3.38044e-05 -0.00449195
v 0.0800543 0.100029 -0.00181625
v 0.100066 0.0800154 -0.00230283
v 0.120079 0.0600038 -0.00305983
v 0.14009 0.0399923 -0.0040962
v 0.160104 0.019979 -0.00540787
v 0.160105 -3.16461e-05 -0.00566542
v 0.100069 0.10003 -0.00256836
v 0.12008 0.0800175 -0.00319192
v 0.14009 0.060006 -0.00409709
v 0.160103 0.0399945 -0.00528757
v 0.180117 0.0199829 -0.00674013
v 0.180119 -3.06483e-05 -0.00697684
v 0.12008 0.10003 -0.00346193
v 0.140093 0.0800158 -0.00422881
v 0.160103 0.0600047 -0.00529126
v 0.180115 0.0399935 -0.00662977
v 0.200125 0.0199867 -0.00821022
v 0.200132 -2.23123e-05 -0.00842166
v 0.140093 0.10003 -0.00449539
v 0.160103 0.0800189 -0.00541667
v 0.180114 0.0600063 -0.00663711
v 0.200125 0.0399963 -0.00811112
v 0.220133 0.0199904 -0.00978738
v 0.220139 -1.84505e-05 -0.00996831
v 0.160107 0.100029 -0.00567403
v 0.180115 0.0800137 -0.00675315
v 0.200125 0.0600037 -0.0081197
v 0.220134 0.0399959 -0.00969786
v 0.240141 0.0199905 -0.0114369
v 0.240141 -1.34253e-05 -0.0115974
v 0.18012 0.100027 -0.00698955
v 0.200126 0.0800115 -0.00822614
v 0.220132 0.0600033 -0.00970082
v 0.240138 0.0399986 -0.0113547
v 0.260146 0.0199928 -0.0131513
v 0.260149 -1.41323e-05 -0.0133014
v 0.200128 0.100021 -0.00843014
v 0.220133 0.0800087 -0.00979581
v 0.240138 0.0600024 -0.0113554
v 0.260145 0.0399983 -0.0130776
v 0.280154 0.0199932 -0.0149387
v 0.280154 -1.35686e-05 -0.0150734
v 0.220135 0.100016 -0.00997509
v 0.24014 0.080009 -0.0114405
v 0.260146 0.060004 -0.0130794
v 0.280151 0.0399994 -0.0148707
v 0.300158 0.019995 -0.0167942
v 0.300162 -1.15089e-05 -0.016919
v 0.240138 0.100015 -0.0116002
v 0.260145 0.0800105 -0.013155
v 0.280152 0.0600038 -0.0148721
v 0.300157 0.0400009 -0.0167362
v 0.320165 0.0199959 -0.0187196
v 0.320168 -8.52436e-06 -0.0188272
v 0.260144 0.100017 -0.0133022
v 0.28015 0.0800106 -0.0149391
v 0.300157 0.0600068 -0.0167395
v 0.320163 0.0400019 -0.0186703
v 0.340168 0.0199997 -0.0207014
v 0.340172 -5.25654e-06 -0.0207916
v 0.280152 0.100017 -0.0150781
v 0.300156 0.0800108 -0.0167985
v 0.320161 0.0600062 -0.0186716
v 0.340166 0.040003 -0.0206588
v 0.360171 0.0200032 -0.0227285
v 0.360174 -1.30804e-07 -0.0228019
v 0.300158 0.100016 -0.0169213
v 0.320161 0.0800105 -0.0187245
v 0.340167 0.0600063 -0.020663
v 0.360169 0.0400049 -0.0226905
v 0.380173 0.0200042 -0.0247804
v 0.380176 2.7896e-06 -0.0248456
v 0.320163 0.100015 -0.0188321
v 0.340166 0.0800105 -0.0207093
v 0.360168 0.0600072 -0.0226922
v 0.380172 0.040007 -0.0247491
v 0.400176 0.0200049 -0.0268564
v 0.400176 4.20342e-06 -0.0269136
v 0.340166 0.100015 -0.020798
v 0.360169 0.0800091 -0.0227317
v 0.38017 0.060009 -0.024749
v 0.400176 0.0400072 -0.0268288
v 0.420178 0.0200063 -0.0289551
v 0.420179 5.25758e-06 -0.0290085
v 0.36017 0.100012 -0.0228061
v 0.380171 0.0800105 -0.0247845
v 0.400174 0.0600085 -0.0268283
v 0.420177 0.0400083 -0.0289279
v 0.440178 0.0200086 -0.0310759
v 0.440179 6.92199e-06 -0.0311268
v 0.380172 0.100011 -0.0248468
v 0.400172 0.0800119 -0.0268582
v 0.420177 0.0600091 -0.028928
v 0.440179 0.0400107 -0.0310518
v 0.460181 0.0200098 -0.0332207
v 0.460183 7.07014e-06 -0.0332704
v 0.400172 0.100014 -0.0269154
v 0.420175 0.0800114 -0.0289547
v 0.440177 0.0600107 -0.0310495
v 0.460181 0.0400095 -0.0331954
v 0.480183 0.0200103 -0.0353886
v 0.480183 8.83908e-06 -0.0354375
v 0.420174 0.100014 -0.0290085
v 0.440177 0.0800143 -0.0310778
v 0.46018 0.0600115 -0.033195
v 0.480183 0.0400128 -0.0353654
v 0.500185 0.0200107 -0.0375806
v 0.500186 1.02622e-05 -0.0376299
v 0.440176 0.100015 -0.0311264
v 0.460179 0.0800136 -0.0332206
v 0.480181 0.0600141 -0.0353647
v 0.500184 0.0400135 -0.0375572
v 0.520187 0.0200113 -0.0397958
v 0.520189 9.48539e-06 -0.0398454
v 0.460177 0.100016 -0.0332698
v 0.480181 0.0800147 -0.0353887
v 0.500185 0.0600143 -0.0375573
v 0.520186 0.0400146 -0.0397731
v 0.54019 0.0200129 -0.0420372
v 0.54019 1.19726e-05 -0.0420851
v 0.480181 0.100017 -0.0354386
v 0.500183 0.0800157 -0.0375799
v 0.520186 0.0600172 -0.039774
v 0.54019 0.0400143 -0.042013
v 0.560193 0.0200134 -0.0443005
v 0.560193 1.33359e-05 -0.0443499
v 0.500182 0.100018 -0.0376293
v 0.520186 0.0800171 -0.0397972
v 0.540188 0.0600164 -0.0420123
v 0.560191 0.0400178 -0.0442779
v 0.580193 0.0200159 -0.0465876
v 0.580195 1.41211e-05 -0.0466366
v 0.520184 0.100019 -0.039845
v 0.540187 0.0800194 -0.0420373
v 0.560189 0.0600193 -0.0442767
v 0.580193 0.0400184 -0.0465655
v 0.600196 0.020016 -0.0488995
v 0.600197 1.49646e-05 -0.0489481
v 0.540185 0.100021 -0.0420846
v 0.560188 0.0800208 -0.0443
v 0.580192 0.0600195 -0.0465646
v 0.600194 0.0400192 -0.0488756
v 0.620196 0.0200193 -0.0512351
v 0.620199 1.6391e-05 -0.0512833
v 0.560187 0.100022 -0.0443477
v 0.58019 0.0800219 -0.0465883
v 0.600195 0.0600199 -0.048876
v 0.620196 0.0400207 -0.0512113
v 0.640199 0.0200189 -0.0535939
v 0.640201 1.65596e-05 -0.0536421
v 0.580189 0.100023 -0.0466351
v 0.600191 0.0800232 -0.0488988
v 0.620195 0.0600211 -0.0512096
v 0.640198 0.0400212 -0.0535701
v 0.660201 0.0200203 -0.055977
v 0.660203 1.84893e-05 -0.0560263
v 0.600192 0.100024 -0.0489477
v 0.620194 0.0800228 -0.0512334
v 0.640197 0.0600236 -0.0535706
v 0.6602 0.0400234 -0.0559541
v 0.680203 0.0200218 -0.0583842
v 0.680205 2.02782e-05 -0.0584338
v 0.620193 0.100026 -0.0512822
v 0.640197 0.0800239 -0.0535939
v 0.6602 0.0600232 -0.0559531
v 0.680202 0.0400234 -0.0583598
v 0.700205 0.0200238 -0.0608163
v 0.700207 2.02568e-05 -0.0608642
v 0.640196 0.100027 -0.0536424
v 0.660197 0.0800269 -0.0559772
v 0.680201 0.0600254 -0.0583604
v 0.700204 0.0400241 -0.0607912
v 0.720207 0.0200247 -0.0632709
v 0.720208 2.13605e-05 -0.0633174
v 0.660198 0.100028 -0.0560249
v 0.680199 0.0800277 -0.0583838
v 0.700203 0.0600259 -0.060791
v 0.720206 0.040026 -0.063247
v 0.740208 0.020025 -0.0657487
v 0.74021 2.4096e-05 -0.0657984
v 0.680201 0.100028 -0.0584326
v 0.700201 0.0800294 -0.0608155
v 0.720205 0.0600278 -0.0632467
v 0.740209 0.0400274 -0.0657268
v 0.760212 0.0200254 -0.0682526
v 0.760211 2.45275e-05 -0.0682994
v 0.700201 0.10003 -0.060862
v 0.720203 0.08003 -0.0632699
v 0.740206 0.0600293 -0.0657252
v 0.76021 0.040029 -0.0682293
v 0.780214 0.0200265 -0.0707792
v 0.780214 2.55197e-05 -0.0708266
v 0.720202 0.100033 -0.0633181
v 0.740207 0.0800304 -0.0657496
v 0.760209 0.0600309 -0.068229
v 0.780211 0.0400291 -0.0707542
v 0.800214 0.0200289 -0.0733294
v 0.800216 2.77358e-05 -0.0733785
v 0.740205 0.100033 -0.065797
v 0.760208 0.0800311 -0.0682515
v 0.780212 0.0600312 -0.0707559
v 0.800213 0.0400306 -0.0733052
v 0.820216 0.0200309 -0.0759045
v 0.820218 2.71586e-05 -0.0759517
v 0.760208 0.100034 -0.0683006
v 0.78021 0.0800327 -0.0707782
v 0.800212 0.060033 -0.0733055
v 0.820215 0.0400319 -0.0758798
v 0.840219 0.0200309 -0.0785023
v 0.84022 2.90667e-05 -0.0785511
v 0.780209 0.100036 -0.0708276
v 0.800212 0.0800336 -0.073329
v 0.820215 0.0600346 -0.0758814
v 0.840217 0.0400335 -0.0784788
v 0.86022 0.020032 -0.0811244
v 0.860223 2.95223e-05 -0.081173
v 0.800211 0.100037 -0.0733774
v 0.820213 0.0800366 -0.0759039
v 0.840218 0.0600344 -0.0784791
v 0.86022 0.0400339 -0.0811016
v 0.880223 0.0200322 -0.0837704
v 0.880224 3.14164e-05 -0.0838194
v 0.820213 0.100038 -0.0759527
v 0.840216 0.0800358 -0.078502
v 0.860219 0.0600354 -0.0811003
v 0.880222 0.040036 -0.0837479
v 0.900225 0.0200348 -0.0864418
v 0.900225 3.31587e-05 -0.0864897
v 0.840213 0.10004 -0.0785499
v 0.860218 0.0800385 -0.0811251
v 0.88022 0.0600382 -0.0837475
v 0.900225 0.040036 -0.0864181
v 0.920226 0.0200358 -0.0891353
v 0.920228 3.32247e-05 -0.0891833
v 0.860216 0.100041 -0.0811725
v 0.88022 0.0800385 -0.0837706
v 0.900222 0.060039 -0.0864171
v 0.920227 0.0400369 -0.0891118
v 0.940229 0.0200359 -0.0918531
v 0.940231 3.44667e-05 -0.091902
v 0.880219 0.100041 -0.0838189
v 0.900221 0.0800411 -0.0864412
v 0.920226 0.0600385 -0.0891115
v 0.940227 0.0400391 -0.0918295
v 0.96023 0.020038 -0.0945951
v 0.960232 3.53328e-05 -0.0946433
v 0.900221 0.100042 -0.0864898
v 0.920225 0.0800404 -0.0891358
v 0.940225 0.0600417 -0.0918296
v 0.96023 0.0400391 -0.0945716
v 0.980233 0.0200384 -0.0973614
v 0.980234 3.65967e-05 -0.0974095
v 0.920222 0.100044 -0.0891835
v 0.940226 0.0800434 -0.0918546
v 0.960228 0.0600429 -0.0945722
v 0.980232 0.0400419 -0.0973385
v 1.00024 0.02004 -0.100152
v 1.00024 3.88231e-05 -0.100199
v 1.00023 0.100047 -0.100199
v 0.980228 0.100047 -0.0974087
v 1.00023 0.0800459 -0.100152
v 0.960226 0.100046 -0.0946426
v 0.98023 0.0800445 -0.0973617
v 1.00023 0.0600439 -0.100127
v 0.940224 0.100044 -0.0919002
v 0.960228 0.0800445 -0.0945964
v 0.980232 0.0600426 -0.0973381
v 1.00023 0.0400418 -0.100128
v 1.25474e-06 0.0399989 -0.000200233
v 0.0200195 0.0399942 -0.000264365
v 0.0400279 0.019977 -0.000548123
v 0.0400258 -3.1392e-05 -0.000721735
v 1.21473e-06 0.019999 -0.000200306
v 0.0200205 0.0199874 -0.000280639
v 0.0200063 -2.88944e-05 -0.000367684
v 3.25204e-06 -2.35435e-06 -0.00020087
v -0.019037 0.022784 -0.151537
v -0.0360704 0.022784 -0.151537
v -0.0360704 0.00476155 -0.151537
v -0.019037 0.00476155 -0.151537
v -0.0351863 0.00573582 -0.151537
v -0.0338602 0.00573582 -0.151537
v -0.0338602 0.0067101 -0.151537
v -0.0351863 0.0067101 -0.151537
v -0.0351863 0.0067101 -0.151537
v -0.0338602 0.0067101 -0.151537
v -0.0338602 0.00768412 -0.151537
v -0.0351863 0.00768412 -0.151537
v -0.0351863 0.00768412 -0.151537
v -0.0338602 0.00768412 -0.151537
v -0.0338602 0.00865839 -0.151537
v -0.0351863 0.00865839 -0.151537
v -0.0351863 0.00865839 -0.151537
v -0.0338602 0.00865839 -0.151537
v -0.0338602 0.00963267 -0.151537
v -0.0351863 0.00963267 -0.151537
v -0.0351863 0.00963267 -0.151537
v -0.0338602 0.00963267 -0.151537
v -0.0338602 0.0106067 -0.151537
v -0.0351863 0.0106067 -0.151537
v -0.0351863 0.0106067 -0.151537
v -0.0338602 0.0106067 -0.151537
v -0.0338602 0.011581 -0.151537
v -0.0351863 0.011581 -0.151537
v -0.0351863 0.011581 -0.151537
v -0.0338602 0.011581 -0.151537
v -0.0338602 0.0125552 -0.151537
v -0.0351863 0.0125552 -0.151537
v -0.0351863 0.0125552 -0.151537
v -0.0338602 0.0125552 -0.151537
v -0.0338602 0.0135293 -0.151537
v -0.0351863 0.0135293 -0.151537
v -0.0351863 0.0135293 -0.151537
v -0.0338602 0.0135293 -0.151537
v -0.0338602 0.0145035 -0.151537
v -0.0351863 0.0145035 -0.151537
v -0.0351863 0.0145035 -0.151537
v -0.0338602 0.0145035 -0.151537
v -0.0338602 0.0154776 -0.151537
v -0.0351863 0.0154776 -0.151537
v -0.0351863 0.0154776 -0.151537
v -0.0338602 0.0154776 -0.151537
v -0.0338602 0.0164518 -0.151537
v -0.0351863 0.0164518 -0.151537
v -0.0351863 0.0164518 -0.151537
v -0.0338602 0.0164518 -0.151537
v -0.0338602 0.0174261 -0.151537
v -0.0351863 0.0174261 -0.151537
v -0.0351863 0.00573582 -0.151537
v -0.0334181 0.00573582 -0.151537
v -0.0351863 0.0067101 -0.151537
v -0.0334181 0.0067101 -0.151537
v -0.0351863 0.00768412 -0.151537
v -0.0334181 0.00768412 -0.151537
v -0.0351863 0.00865839 -0.151537
v -0.0334181 0.00865839 -0.151537
v -0.0351863 0.00963267 -0.151537
v -0.0334181 0.00963267 -0.151537
v -0.0351863 0.0106067 -0.151537
v -0.0334181 0.0106067 -0.151537
v -0.0351863 0.011581 -0.151537
v -0.0334181 0.011581 -0.151537
v -0.0351863 0.0125552 -0.151537
v -0.0334181 0.0125552 -0.151537
v -0.0351863 0.0135293 -0.151537
v -0.0334181 0.0135293 -0.151537
v -0.0351863 0.0145035 -0.151537
v -0.0334181 0.0145035 -0.151537
v -0.0351863 0.0154776 -0.151537
v -0.0334181 0.0154776 -0.151537
v -0.0351863 0.0164518 -0.151537
v -0.0334181 0.0164518 -0.151537
v -0.0351863 0.0174261 -0.151537
v -0.0334181 0.0174261 -0.151537
v -0.0338602 0.0174261 -0.151537
v -0.0338602 0.00573582 -0.151537

#List of body polygons
f 1 2 3
f 1 3 6
f 1 14 15
f 382 383 384
f 382 386 387
f 386 382 395

#List of body polygons
f 2 4 3
f 2 5 4
f 3 7 6
f 3 4 7
f 383 300 384
f 383 385 300
f 300 385 299

#List of body polygons
f 5 8 9
f 14 5 15
f 14 8 5
f 14 16 8
f 386 388 387
f 386 389 388
f 389 300 394
f 389 395 300
f 389 386 395

#List of body polygons
f 8 10 9
f 8 11 10
f 16 11 8
f 16 17 11
f 159 5 158
f 300 302 303
f 300 307 302
f 389 390 388
f 389 391 390
f 391 394 393
f 391 389 394

#List of body polygons
f 11 12 10
f 11 13 12
f 17 13 11
f 12 18 19
f 18 13 25
f 18 12 13
f 152 12 151
f 157 12 152
f 157 158 12
f 157 159 158
f 12 19 151
f 302 304 303
f 302 305 304
f 302 306 305
f 307 306 302
f 307 308 306
f 304 312 313
f 312 304 305
f 391 392 390
f 391 304 392
f 304 391 393
f 392 396 397
f 396 304 313
f 396 392 304

#List of body polygons
f 18 20 19
f 18 21 20
f 21 25 24
f 21 18 25
f 149 150 148
f 149 151 150
f 149 152 151
f 155 152 149
f 155 156 152
f 150 160 161
f 19 150 151
f 19 160 150
f 19 20 160
f 231 232 230
f 231 150 232
f 150 231 148
f 232 233 234
f 233 150 161
f 233 232 150
f 306 232 305
f 308 232 306
f 308 230 232
f 308 309 230
f 312 314 313
f 312 315 314
f 315 232 234
f 315 305 232
f 315 312 305
f 396 398 397
f 396 399 398
f 399 313 314
f 399 396 313

#List of body polygons
f 21 22 20
f 21 23 22
f 23 21 24
f 22 26 27
f 26 23 30
f 26 22 23
f 147 148 146
f 147 149 148
f 154 149 147
f 154 155 149
f 160 162 161
f 160 22 162
f 20 22 160
f 162 163 164
f 163 22 27
f 163 162 22
f 229 230 228
f 229 231 230
f 231 146 148
f 231 229 146
f 233 235 234
f 233 162 235
f 162 233 161
f 235 236 237
f 236 162 164
f 236 235 162
f 309 228 230
f 309 310 228
f 315 316 314
f 315 235 316
f 235 315 234
f 316 317 318
f 317 235 237
f 317 316 235
f 399 400 398
f 399 316 400
f 316 399 314
f 400 401 402
f 401 316 318
f 401 400 316

#List of body polygons
f 26 28 27
f 26 29 28
f 29 26 30
f 31 32 28
f 31 28 29
f 33 34 32
f 33 32 31
f 35 36 34
f 35 34 33
f 37 38 36
f 37 36 35
f 39 40 38
f 39 38 37
f 40 41 42
f 41 39 45
f 41 40 39
f 144 146 145
f 144 147 146
f 153 147 144
f 153 154 147
f 163 165 164
f 163 28 165
f 28 163 27
f 32 166 165
f 32 165 28
f 34 167 166
f 34 166 32
f 36 168 167
f 36 167 34
f 38 169 168
f 38 168 36
f 171 40 172
f 171 169 40
f 40 169 38
f 40 42 172
f 226 228 227
f 226 229 228
f 229 145 146
f 229 226 145
f 236 238 237
f 236 165 238
f 165 236 164
f 166 239 238
f 166 238 165
f 167 240 239
f 167 239 166
f 168 241 240
f 168 240 167
f 169 242 241
f 169 241 168
f 242 243 244
f 243 169 171
f 243 242 169
f 310 227 228
f 310 311 227
f 317 319 318
f 317 238 319
f 238 317 237
f 239 320 319
f 239 319 238
f 240 321 320
f 240 320 239
f 241 322 321
f 241 321 240
f 242 323 322
f 242 322 241
f 324 323 325
f 324 326 323
f 325 242 244
f 325 323 242
f 326 327 328
f 327 326 324
f 401 403 402
f 401 319 403
f 319 401 318
f 320 404 403
f 320 403 319
f 321 405 404
f 321 404 320
f 322 406 405
f 322 405 321
f 323 407 406
f 323 406 322
f 326 408 407
f 326 407 323
f 408 409 410
f 409 326 328
f 409 408 326

#List of body polygons
f 41 43 42
f 41 44 43
f 44 41 45
f 47 49 48
f 47 43 49
f 49 43 44
f 49 52 48
f 141 142 140
f 142 144 145
f 142 153 144
f 170 171 172
f 43 173 170
f 42 170 172
f 42 43 170
f 173 174 175
f 174 43 47
f 174 173 43
f 224 225 223
f 224 142 225
f 142 224 140
f 225 226 227
f 226 142 145
f 226 225 142
f 243 245 244
f 243 170 245
f 170 243 171
f 247 173 248
f 247 245 173
f 173 245 170
f 173 175 248
f 225 293 294
f 225 294 223
f 311 225 227
f 245 324 325
f 245 325 244
f 327 329 328
f 327 330 329
f 327 331 330
f 331 245 247
f 331 324 245
f 331 327 324
f 329 332 333
f 329 330 332
f 409 411 410
f 409 329 411
f 329 409 328
f 412 411 413
f 412 414 411
f 413 329 333
f 413 411 329
f 414 415 416
f 414 412 415

#List of body polygons
f 46 47 48
f 50 51 46
f 52 46 48
f 52 50 46
f 53 54 51
f 53 51 50
f 56 58 57
f 56 54 58
f 58 54 53
f 58 61 57
f 139 140 138
f 139 141 140
f 174 176 175
f 174 46 176
f 46 174 47
f 51 177 176
f 51 176 46
f 54 178 177
f 54 177 51
f 178 179 180
f 179 54 56
f 179 178 54
f 221 223 222
f 221 224 223
f 224 138 140
f 224 221 138
f 246 247 248
f 176 249 246
f 175 246 248
f 175 176 246
f 177 250 249
f 177 249 176
f 178 251 250
f 178 250 177
f 251 252 253
f 252 178 180
f 252 251 178
f 293 295 294
f 293 296 295
f 294 222 223
f 294 295 222
f 331 246 330
f 246 331 247
f 332 334 333
f 332 249 334
f 330 249 332
f 330 246 249
f 250 335 334
f 250 334 249
f 251 336 335
f 251 335 250
f 337 336 338
f 337 339 336
f 338 251 253
f 338 336 251
f 339 340 341
f 339 337 340
f 334 412 413
f 334 413 333
f 415 417 416
f 415 335 417
f 412 335 415
f 412 334 335
f 336 418 417
f 336 417 335
f 339 419 418
f 339 418 336
f 419 420 421
f 420 339 341
f 420 419 339

#List of body polygons
f 55 56 57
f 59 60 55
f 61 55 57
f 61 59 55
f 62 63 60
f 62 60 59
f 64 65 63
f 64 63 62
f 67 69 68
f 67 65 69
f 69 65 64
f 69 72 68
f 135 137 136
f 135 138 137
f 135 139 138
f 137 143 136
f 179 181 180
f 179 55 181
f 55 179 56
f 60 182 181
f 60 181 55
f 63 183 182
f 63 182 60
f 185 65 186
f 185 183 65
f 65 183 63
f 65 67 186
f 220 221 222
f 221 137 138
f 221 220 137
f 252 254 253
f 252 181 254
f 181 252 180
f 182 255 254
f 182 254 181
f 183 256 255
f 183 255 182
f 256 257 258
f 257 183 185
f 257 256 183
f 296 297 295
f 296 298 297
f 295 220 222
f 295 301 220
f 295 297 301
f 254 337 338
f 254 338 253
f 340 342 341
f 340 255 342
f 337 255 340
f 337 254 255
f 256 343 342
f 256 342 255
f 344 343 345
f 344 346 343
f 345 256 258
f 345 343 256
f 346 347 348
f 346 344 347
f 420 422 421
f 420 342 422
f 342 420 341
f 343 423 422
f 343 422 342
f 346 424 423
f 346 423 343
f 425 424 426
f 425 427 424
f 426 346 348
f 426 424 346
f 427 428 429
f 427 425 428

#List of body polygons
f 66 67 68
f 70 71 66
f 72 66 68
f 72 70 66
f 73 74 71
f 73 71 70
f 75 76 74
f 75 74 73
f 77 78 76
f 77 76 75
f 79 80 78
f 79 78 77
f 81 82 80
f 81 80 79
f 83 84 82
f 83 82 81
f 85 86 84
f 85 84 83
f 87 88 86
f 87 86 85
f 89 90 88
f 89 88 87
f 91 92 90
f 91 90 89
f 93 94 92
f 93 92 91
f 95 96 94
f 95 94 93
f 97 98 96
f 97 96 95
f 99 100 98
f 99 98 97
f 101 102 100
f 101 100 99
f 103 104 102
f 103 102 101
f 105 106 104
f 105 104 103
f 107 108 106
f 107 106 105
f 109 110 108
f 109 108 107
f 111 112 110
f 111 110 109
f 113 114 112
f 113 112 111
f 115 116 114
f 115 114 113
f 117 118 116
f 117 116 115
f 119 120 118
f 119 118 117
f 121 122 120
f 121 120 119
f 123 124 122
f 123 122 121
f 125 126 124
f 125 124 123
f 127 128 126
f 127 126 125
f 129 130 128
f 129 128 127
f 131 132 130
f 131 130 129
f 133 134 132
f 133 132 131
f 5 135 136
f 143 5 136
f 143 4 5
f 184 185 186
f 66 187 184
f 67 184 186
f 67 66 184
f 71 188 187
f 71 187 66
f 74 189 188
f 74 188 71
f 76 190 189
f 76 189 74
f 78 191 190
f 78 190 76
f 80 192 191
f 80 191 78
f 82 193 192
f 82 192 80
f 84 194 193
f 84 193 82
f 86 195 194
f 86 194 84
f 88 196 195
f 88 195 86
f 90 197 196
f 90 196 88
f 92 198 197
f 92 197 90
f 94 199 198
f 94 198 92
f 96 200 199
f 96 199 94
f 98 201 200
f 98 200 96
f 100 202 201
f 100 201 98
f 102 203 202
f 102 202 100
f 104 204 203
f 104 203 102
f 106 205 204
f 106 204 104
f 108 206 205
f 108 205 106
f 110 207 206
f 110 206 108
f 112 208 207
f 112 207 110
f 114 209 208
f 114 208 112
f 116 210 209
f 116 209 114
f 118 211 210
f 118 210 116
f 120 212 211
f 120 211 118
f 122 213 212
f 122 212 120
f 124 214 213
f 124 213 122
f 126 215 214
f 126 214 124
f 128 216 215
f 128 215 126
f 130 217 216
f 130 216 128
f 132 218 217
f 132 217 130
f 134 219 218
f 134 218 132
f 257 259 258
f 257 184 259
f 184 257 185
f 187 260 259
f 187 259 184
f 188 261 260
f 188 260 187
f 189 262 261
f 189 261 188
f 190 263 262
f 190 262 189
f 191 264 263
f 191 263 190
f 192 265 264
f 192 264 191
f 193 266 265
f 193 265 192
f 194 267 266
f 194 266 193
f 195 268 267
f 195 267 194
f 196 269 268
f 196 268 195
f 197 270 269
f 197 269 196
f 198 271 270
f 198 270 197
f 199 272 271
f 199 271 198
f 200 273 272
f 200 272 199
f 201 274 273
f 201 273 200
f 202 275 274
f 202 274 201
f 203 276 275
f 203 275 202
f 204 277 276
f 204 276 203
f 205 278 277
f 205 277 204
f 206 279 278
f 206 278 205
f 207 280 279
f 207 279 206
f 208 281 280
f 208 280 207
f 209 282 281
f 209 281 208
f 210 283 282
f 210 282 209
f 211 284 283
f 211 283 210
f 212 285 284
f 212 284 211
f 213 286 285
f 213 285 212
f 214 287 286
f 214 286 213
f 215 288 287
f 215 287 214
f 216 289 288
f 216 288 215
f 217 290 289
f 217 289 216
f 218 291 290
f 218 290 217
f 219 292 291
f 219 291 218
f 298 299 297
f 298 300 299
f 297 299 301
f 259 344 345
f 259 345 258
f 347 349 348
f 347 260 349
f 344 260 347
f 344 259 260
f 261 350 349
f 261 349 260
f 262 351 350
f 262 350 261
f 263 352 351
f 263 351 262
f 264 353 352
f 264 352 263
f 265 354 353
f 265 353 264
f 266 355 354
f 266 354 265
f 267 356 355
f 267 355 266
f 268 357 356
f 268 356 267
f 269 358 357
f 269 357 268
f 270 359 358
f 270 358 269
f 271 360 359
f 271 359 270
f 272 361 360
f 272 360 271
f 273 362 361
f 273 361 272
f 274 363 362
f 274 362 273
f 275 364 363
f 275 363 274
f 276 365 364
f 276 364 275
f 277 366 365
f 277 365 276
f 278 367 366
f 278 366 277
f 279 368 367
f 279 367 278
f 280 369 368
f 280 368 279
f 281 370 369
f 281 369 280
f 282 371 370
f 282 370 281
f 283 372 371
f 283 371 282
f 284 373 372
f 284 372 283
f 285 374 373
f 285 373 284
f 286 375 374
f 286 374 285
f 287 376 375
f 287 375 286
f 288 377 376
f 288 376 287
f 289 378 377
f 289 377 288
f 290 379 378
f 290 378 289
f 291 380 379
f 291 379 290
f 292 381 380
f 292 380 291
f 349 425 426
f 349 426 348
f 428 430 429
f 428 350 430
f 425 350 428
f 425 349 350
f 351 431 430
f 351 430 350
f 352 432 431
f 352 431 351
f 353 433 432
f 353 432 352
f 354 434 433
f 354 433 353
f 355 435 434
f 355 434 354
f 356 436 435
f 356 435 355
f 357 437 436
f 357 436 356
f 358 438 437
f 358 437 357
f 359 439 438
f 359 438 358
f 360 440 439
f 360 439 359
f 361 441 440
f 361 440 360
f 362 442 441
f 362 441 361
f 363 443 442
f 363 442 362
f 364 444 443
f 364 443 363
f 365 445 444
f 365 444 364
f 366 446 445
f 366 445 365
f 367 447 446
f 367 446 366
f 368 448 447
f 368 447 367
f 369 449 448
f 369 448 368
f 370 450 449
f 370 449 369
f 371 451 450
f 371 450 370
f 372 452 451
f 372 451 371
f 373 453 452
f 373 452 372
f 374 454 453
f 374 453 373
f 375 455 454
f 375 454 374
f 376 456 455
f 376 455 375
f 377 457 456
f 377 456 376
f 378 458 457
f 378 457 377
f 379 459 458
f 379 458 378
f 380 460 459
f 380 459 379
f 381 461 460
f 381 460 380

#List of body lines
l 462 463
l 463 464
l 464 465
l 465 466
l 466 467
l 467 468
l 468 469
l 469 470
l 470 471
l 471 472
l 463 473
l 473 474
l 474 464
l 464 475
l 475 466
l 466 476
l 476 468
l 468 477
l 477 470
l 470 478
l 478 479
l 479 471
l 474 480
l 480 475
l 475 481
l 481 476
l 476 482
l 482 477
l 477 483
l 483 478
l 478 484
l 484 485
l 485 479
l 480 486
l 486 481
l 481 487
l 487 482
l 482 488
l 488 483
l 483 489
l 489 484
l 484 490
l 490 491
l 491 485
l 486 492
l 492 487
l 487 493
l 493 488
l 488 494
l 494 489
l 489 495
l 495 490
l 490 496
l 496 497
l 497 491
l 492 498
l 498 493
l 493 499
l 499 494
l 494 500
l 500 495
l 495 501
l 501 496
l 496 502
l 502 503
l 503 497
l 498 504
l 504 499
l 499 505
l 505 500
l 500 506
l 506 501
l 501 507
l 507 502
l 502 508
l 508 509
l 509 503
l 504 510
l 510 505
l 505 511
l 511 506
l 506 512
l 512 507
l 507 513
l 513 508
l 508 514
l 514 515
l 515 509
l 510 516
l 516 511
l 511 517
l 517 512
l 512 518
l 518 513
l 513 519
l 519 514
l 514 520
l 520 521
l 521 515
l 516 522
l 522 517
l 517 523
l 523 518
l 518 524
l 524 519
l 519 525
l 525 520
l 520 526
l 526 527
l 527 521
l 522 528
l 528 523
l 523 529
l 529 524
l 524 530
l 530 525
l 525 531
l 531 526
l 526 532
l 532 533
l 533 527
l 528 534
l 534 529
l 529 535
l 535 530
l 530 536
l 536 531
l 531 537
l 537 532
l 532 538
l 538 539
l 539 533
l 534 540
l 540 535
l 535 541
l 541 536
l 536 542
l 542 537
l 537 543
l 543 538
l 538 544
l 544 545
l 545 539
l 540 546
l 546 541
l 541 547
l 547 542
l 542 548
l 548 543
l 543 549
l 549 544
l 544 550
l 550 551
l 551 545
l 546 552
l 552 547
l 547 553
l 553 548
l 548 554
l 554 549
l 549 555
l 555 550
l 550 556
l 556 557
l 557 551
l 552 558
l 558 553
l 553 559
l 559 554
l 554 560
l 560 555
l 555 561
l 561 556
l 556 562
l 562 563
l 563 557
l 558 564
l 564 559
l 559 565
l 565 560
l 560 566
l 566 561
l 561 567
l 567 562
l 562 568
l 568 569
l 569 563
l 564 570
l 570 565
l 565 571
l 571 566
l 566 572
l 572 567
l 567 573
l 573 568
l 568 574
l 574 575
l 575 569
l 570 576
l 576 571
l 571 577
l 577 572
l 572 578
l 578 573
l 573 579
l 579 574
l 574 580
l 580 581
l 581 575
l 576 582
l 582 577
l 577 583
l 583 578
l 578 584
l 584 579
l 579 585
l 585 580
l 580 586
l 586 587
l 587 581
l 582 588
l 588 583
l 583 589
l 589 584
l 584 590
l 590 585
l 585 591
l 591 586
l 586 592
l 592 593
l 593 587
l 588 594
l 594 589
l 589 595
l 595 590
l 590 596
l 596 591
l 591 597
l 597 592
l 592 598
l 598 599
l 599 593
l 594 600
l 600 595
l 595 601
l 601 596
l 596 602
l 602 597
l 597 603
l 603 598
l 598 604
l 604 605
l 605 599
l 600 606
l 606 601
l 601 607
l 607 602
l 602 608
l 608 603
l 603 609
l 609 604
l 604 610
l 610 611
l 611 605
l 606 612
l 612 607
l 607 613
l 613 608
l 608 614
l 614 609
l 609 615
l 615 610
l 610 616
l 616 617
l 617 611
l 612 618
l 618 613
l 613 619
l 619 614
l 614 620
l 620 615
l 615 621
l 621 616
l 616 622
l 622 623
l 623 617
l 618 624
l 624 619
l 619 625
l 625 620
l 620 626
l 626 621
l 621 627
l 627 622
l 622 628
l 628 629
l 629 623
l 624 630
l 630 625
l 625 631
l 631 626
l 626 632
l 632 627
l 627 633
l 633 628
l 628 634
l 634 635
l 635 629
l 630 636
l 636 631
l 631 637
l 637 632
l 632 638
l 638 633
l 633 639
l 639 634
l 634 640
l 640 641
l 641 635
l 636 642
l 642 637
l 637 643
l 643 638
l 638 644
l 644 639
l 639 645
l 645 640
l 640 646
l 646 647
l 647 641
l 642 648
l 648 643
l 643 649
l 649 644
l 644 650
l 650 645
l 645 651
l 651 646
l 646 652
l 652 653
l 653 647
l 648 654
l 654 649
l 649 655
l 655 650
l 650 656
l 656 651
l 651 657
l 657 652
l 652 658
l 658 659
l 659 653
l 654 660
l 660 655
l 655 661
l 661 656
l 656 662
l 662 657
l 657 663
l 663 658
l 658 664
l 664 665
l 665 659
l 660 666
l 666 661
l 661 667
l 667 662
l 662 668
l 668 663
l 663 669
l 669 664
l 664 670
l 670 671
l 671 665
l 666 672
l 672 667
l 667 673
l 673 668
l 668 674
l 674 669
l 669 675
l 675 670
l 670 676
l 676 677
l 677 671
l 672 678
l 678 673
l 673 679
l 679 674
l 674 680
l 680 675
l 675 681
l 681 676
l 676 682
l 682 683
l 683 677
l 678 684
l 684 679
l 679 685
l 685 680
l 680 686
l 686 681
l 681 687
l 687 682
l 682 688
l 688 689
l 689 683
l 684 690
l 690 685
l 685 691
l 691 686
l 686 692
l 692 687
l 687 693
l 693 688
l 688 694
l 694 695
l 695 689
l 690 696
l 696 691
l 691 697
l 697 692
l 692 698
l 698 693
l 693 699
l 699 694
l 694 700
l 700 701
l 701 695
l 696 702
l 702 697
l 697 703
l 703 698
l 698 704
l 704 699
l 699 705
l 705 700
l 700 706
l 706 707
l 707 701
l 702 708
l 708 703
l 703 709
l 709 704
l 704 710
l 710 705
l 705 711
l 711 706
l 706 712
l 712 713
l 713 707
l 708 714
l 714 709
l 709 715
l 715 710
l 710 716
l 716 711
l 711 717
l 717 712
l 712 718
l 718 719
l 719 713
l 714 720
l 720 715
l 715 721
l 721 716
l 716 722
l 722 717
l 717 723
l 723 718
l 718 724
l 724 725
l 725 719
l 720 726
l 726 721
l 721 727
l 727 722
l 722 728
l 728 723
l 723 729
l 729 724
l 724 730
l 730 731
l 731 725
l 726 732
l 732 727
l 727 733
l 733 728
l 728 734
l 734 729
l 729 735
l 735 730
l 730 736
l 736 737
l 737 731
l 732 738
l 738 733
l 733 739
l 739 734
l 734 740
l 740 735
l 735 741
l 741 736
l 736 742
l 742 743
l 743 737
l 738 744
l 744 739
l 739 745
l 745 740
l 740 746
l 746 741
l 741 747
l 747 742
l 742 748
l 748 749
l 749 743
l 750 751
l 752 750
l 751 753
l 754 751
l 752 754
l 755 752
l 753 756
l 757 753
l 754 757
l 758 754
l 755 758
l 759 755
l 756 744
l 745 756
l 757 745
l 746 757
l 758 746
l 747 758
l 759 747
l 748 759
l 462 760
l 465 462
l 761 465
l 467 761
l 762 467
l 469 762
l 472 469
l 763 472
l 760 764
l 761 760
l 765 761
l 762 765
l 763 762
l 766 763
l 764 767
l 765 764
l 766 765
l 767 766


