ISO-10303-21;
HEADER;
FILE_DESCRIPTION(('STEP AP214'),'1');
FILE_NAME('SMAStripDeformed_04.stp','2025-12-21T20:33:09',(' '),(' '),'Spatial InterOp 3D',' ',' ');
FILE_SCHEMA(('AUTOMOTIVE_DESIGN { 1 0 10303 214 1 1 1 1 }'));
ENDSEC;
DATA;
#1=PRODUCT_DEFINITION_CONTEXT('',#9,'design');
#2=APPLICATION_PROTOCOL_DEFINITION('INTERNATIONAL STANDARD','automotive_design',1994,#9);
#3=PRODUCT_CATEGORY_RELATIONSHIP('NONE','NONE',#10,#11);
#4=SHAPE_DEFINITION_REPRESENTATION(#12,#13);
#5= (GEOMETRIC_REPRESENTATION_CONTEXT(3)GLOBAL_UNCERTAINTY_ASSIGNED_CONTEXT((#16))GLOBAL_UNIT_ASSIGNED_CONTEXT((#18,#19,#20))REPRESENTATION_CONTEXT('NONE','WORKSPACE'));
#9=APPLICATION_CONTEXT(' ');
#10=PRODUCT_CATEGORY('part','NONE');
#11=PRODUCT_RELATED_PRODUCT_CATEGORY('detail',' ',(#22));
#12=PRODUCT_DEFINITION_SHAPE('NONE','NONE',#23);
#13=MANIFOLD_SURFACE_SHAPE_REPRESENTATION('1',(#24,#25),#5);
#16=UNCERTAINTY_MEASURE_WITH_UNIT(LENGTH_MEASURE(1.0E-06),#18,'','');
#18= (CONVERSION_BASED_UNIT('MILLIMETRE',#28)LENGTH_UNIT()NAMED_UNIT(#31));
#19= (NAMED_UNIT(#33)PLANE_ANGLE_UNIT()SI_UNIT($,.RADIAN.));
#20= (NAMED_UNIT(#33)SOLID_ANGLE_UNIT()SI_UNIT($,.STERADIAN.));
#22=PRODUCT('1','','PART--DESC',(#39));
#23=PRODUCT_DEFINITION('','NONE',#40,#1);
#24=SHELL_BASED_SURFACE_MODEL('1',(#41));
#25=AXIS2_PLACEMENT_3D('',#42,#43,#44);
#28=LENGTH_MEASURE_WITH_UNIT(LENGTH_MEASURE(1.0),#45);
#31=DIMENSIONAL_EXPONENTS(1.0,0.0,0.0,0.0,0.0,0.0,0.0);
#33=DIMENSIONAL_EXPONENTS(0.0,0.0,0.0,0.0,0.0,0.0,0.0);
#39=PRODUCT_CONTEXT('',#9,'mechanical');
#40=PRODUCT_DEFINITION_FORMATION_WITH_SPECIFIED_SOURCE(' ','NONE',#22,.NOT_KNOWN.);
#41=CLOSED_SHELL('',(#46));
#42=CARTESIAN_POINT('',(0.0,0.0,0.0));
#43=DIRECTION('',(0.0,0.0,1.0));
#44=DIRECTION('',(1.0,0.0,0.0));
#45= (NAMED_UNIT(#31)LENGTH_UNIT()SI_UNIT(.MILLI.,.METRE.));
#46=FACE_SURFACE('',(#48),#49,.T.);
#48=FACE_BOUND('',#50,.T.);
#49=B_SPLINE_SURFACE_WITH_KNOTS('',3,3,((#51,#52,#53,#54,#55,#56,#57,#58,#59,#60,#61,#62,#63,#64,#65,#66,#67,#68,#69),(#70,#71,#72,#73,#74,#75,#76,#77,#78,#79,#80,#81,#82,#83,#84,#85,#86,#87,#88),(#89,#90,#91,#92,#93,#94,#95,#96,#97,#98,#99,#100,#101,#102,#103,#104,#105,#106,#107),(#108,#109,#110,#111,#112,#113,#114,#115,#116,#117,#118,#119,#120,#121,#122,#123,#124,#125,#126),(#127,#128,#129,#130,#131,#132,#133,#134,#135,#136,#137,#138,#139,#140,#141,#142,#143,#144,#145),(#146,#147,#148,#149,#150,#151,#152,#153,#154,#155,#156,#157,#158,#159,#160,#161,#162,#163,#164),(#165,#166,#167,#168,#169,#170,#171,#172,#173,#174,#175,#176,#177,#178,#179,#180,#181,#182,#183),(#184,#185,#186,#187,#188,#189,#190,#191,#192,#193,#194,#195,#196,#197,#198,#199,#200,#201,#202),(#203,#204,#205,#206,#207,#208,#209,#210,#211,#212,#213,#214,#215,#216,#217,#218,#219,#220,#221),(#222,#223,#224,#225,#226,#227,#228,#229,#230,#231,#232,#233,#234,#235,#236,#237,#238,#239,#240),(#241,#242,#243,#244,#245,#246,#247,#248,#249,#250,#251,#252,#253,#254,#255,#256,#257,#258,#259),(#260,#261,#262,#263,#264,#265,#266,#267,#268,#269,#270,#271,#272,#273,#274,#275,#276,#277,#278),(#279,#280,#281,#282,#283,#284,#285,#286,#287,#288,#289,#290,#291,#292,#293,#294,#295,#296,#297),(#298,#299,#300,#301,#302,#303,#304,#305,#306,#307,#308,#309,#310,#311,#312,#313,#314,#315,#316),(#317,#318,#319,#320,#321,#322,#323,#324,#325,#326,#327,#328,#329,#330,#331,#332,#333,#334,#335),(#336,#337,#338,#339,#340,#341,#342,#343,#344,#345,#346,#347,#348,#349,#350,#351,#352,#353,#354),(#355,#356,#357,#358,#359,#360,#361,#362,#363,#364,#365,#366,#367,#368,#369,#370,#371,#372,#373),(#374,#375,#376,#377,#378,#379,#380,#381,#382,#383,#384,#385,#386,#387,#388,#389,#390,#391,#392),(#393,#394,#395,#396,#397,#398,#399,#400,#401,#402,#403,#404,#405,#406,#407,#408,#409,#410,#411)),.UNSPECIFIED.,.F.,.F.,.F.,(4,1,1,1,1,1,1,1,1,1,1,1,1,1,1,1,4),(4,1,1,1,1,1,1,1,1,1,1,1,1,1,1,1,4),(0.0,1.0,2.0,3.0,4.0,5.0,6.0,7.0,8.0,9.0,10.0,11.0,12.0,13.0,14.0,15.0,16.0),(0.0,1.0,2.0,3.0,4.0,5.0,6.0,7.0,8.0,9.0,10.0,11.0,12.0,13.0,14.0,15.0,16.0),.UNSPECIFIED.);
#50=EDGE_LOOP('',(#412,#413,#414,#415));
#51=CARTESIAN_POINT('',(-0.0133982187136433,0.00584769192897758,0.0159886442489812));
#52=CARTESIAN_POINT('',(-0.0140240546727487,0.0126294905273693,0.0126466167277666));
#53=CARTESIAN_POINT('',(-0.00930528867746505,0.0288447983232903,0.0132128165147301));
#54=CARTESIAN_POINT('',(-0.00585911765866987,0.0515546531346655,0.00965159116690778));
#55=CARTESIAN_POINT('',(0.000194547631019115,0.0754226005843866,0.00925679987368494));
#56=CARTESIAN_POINT('',(0.0022260879732785,0.0975041612549991,0.00397770507592166));
#57=CARTESIAN_POINT('',(0.0162975123197278,0.124933116620755,0.0133193514049375));
#58=CARTESIAN_POINT('',(0.0278862480456485,0.151259410536077,0.0196461225402622));
#59=CARTESIAN_POINT('',(0.0331878211042345,0.174793323703951,0.0183380213006487));
#60=CARTESIAN_POINT('',(0.0365417775671022,0.197462222337758,0.014664814379759));
#61=CARTESIAN_POINT('',(0.038288519384605,0.219417292577072,0.00903987193908606));
#62=CARTESIAN_POINT('',(0.0389634207195242,0.240896315529834,0.0021133303949995));
#63=CARTESIAN_POINT('',(0.0391018672992218,0.262137077440275,-0.0054646597925786));
#64=CARTESIAN_POINT('',(0.0389451222738916,0.283246732936216,-0.0134011185533096));
#65=CARTESIAN_POINT('',(0.0387344487937276,0.30433243664548,-0.0214030658168551));
#66=CARTESIAN_POINT('',(0.0384838914587288,0.325400426337425,-0.0294534463972394));
#67=CARTESIAN_POINT('',(0.0382074948688944,0.346456939781411,-0.0375352051084867));
#68=CARTESIAN_POINT('',(0.0380154800251169,0.36049117312523,-0.0429324560784633));
#69=CARTESIAN_POINT('',(0.0379199039204234,0.367508481362381,-0.0456305577895468));
#70=CARTESIAN_POINT('',(0.00877342124817432,0.000988295166145098,0.0027021774455836));
#71=CARTESIAN_POINT('',(0.00843148589159426,0.0078961853926092,-0.000295092832636401));
#72=CARTESIAN_POINT('',(0.013908840485844,0.0244484127675309,0.00119230582329893));
#73=CARTESIAN_POINT('',(0.0180254381573008,0.0474560309065824,-0.00155478090577538));
#74=CARTESIAN_POINT('',(0.0243554150170893,0.0714466993911277,-0.00161403076559613));
#75=CARTESIAN_POINT('',(0.0264278443812451,0.0935464205140089,-0.00684347161288396));
#76=CARTESIAN_POINT('',(0.0399662864527749,0.120738657105022,0.00185094291023996));
#77=CARTESIAN_POINT('',(0.0507186217735524,0.146693472101783,0.00716202371186414));
#78=CARTESIAN_POINT('',(0.0555691451210641,0.170027056027997,0.00530618621012136));
#79=CARTESIAN_POINT('',(0.0584984704775399,0.192507358980572,0.00111732469664816));
#80=CARTESIAN_POINT('',(0.0599702347925089,0.214340300697899,-0.00484153914051305));
#81=CARTESIAN_POINT('',(0.0604545997775615,0.235734698826522,-0.0119994602099897));
#82=CARTESIAN_POINT('',(0.0604217502734493,0.256899381285571,-0.019785465333305));
#83=CARTESIAN_POINT('',(0.0601190526087412,0.277944213368822,-0.0278991629907206));
#84=CARTESIAN_POINT('',(0.0597938731120066,0.298979060370051,-0.0360401616624985));
#85=CARTESIAN_POINT('',(0.0594552196551629,0.32000792304595,-0.0441975225585834));
#86=CARTESIAN_POINT('',(0.0591121001101278,0.341034802153213,-0.0523603068889201));
#87=CARTESIAN_POINT('',(0.0588865505815448,0.355054141400414,-0.0577982810041644));
#88=CARTESIAN_POINT('',(0.0587761185826721,0.362064851539968,-0.0605144231035879));
#89=CARTESIAN_POINT('',(0.0641678792371223,-0.00382222757045159,-0.0104506589590581));
#90=CARTESIAN_POINT('',(0.0652720967411206,0.00372795706120208,-0.0116917805404212));
#91=CARTESIAN_POINT('',(0.0708915605973509,0.0203433008509814,-0.0100318102276151));
#92=CARTESIAN_POINT('',(0.0777933567377208,0.0445879371799426,-0.00939666621538754));
#93=CARTESIAN_POINT('',(0.0830829283108396,0.06811652000745,-0.01071934156652));
#94=CARTESIAN_POINT('',(0.0863278515997813,0.0907369926418329,-0.0145249539000903));
#95=CARTESIAN_POINT('',(0.0934160810447058,0.115064431468179,-0.0136634129323477));
#96=CARTESIAN_POINT('',(0.0982080109010786,0.138371991678252,-0.0155904039655829));
#97=CARTESIAN_POINT('',(0.101374877647816,0.160957796276003,-0.0194908049612715));
#98=CARTESIAN_POINT('',(0.102935203128288,0.182830071553889,-0.0253421237527954));
#99=CARTESIAN_POINT('',(0.103607643242509,0.204308001379965,-0.0322716541023113));
#100=CARTESIAN_POINT('',(0.103613388013685,0.225489825102407,-0.0400107919212766));
#101=CARTESIAN_POINT('',(0.103173696852504,0.246473812887153,-0.048290848859836));
#102=CARTESIAN_POINT('',(0.102536975173362,0.267370291527613,-0.0568101715750562));
#103=CARTESIAN_POINT('',(0.101951628390658,0.288289587817194,-0.065267106724004));
#104=CARTESIAN_POINT('',(0.101414713072212,0.309230394459779,-0.073665228689945));
#105=CARTESIAN_POINT('',(0.100923285785847,0.33019140415925,-0.0820081118561449));
#106=CARTESIAN_POINT('',(0.10062436861933,0.344178157900001,-0.0875351806205524));
#107=CARTESIAN_POINT('',(0.100481679209588,0.351174541231446,-0.0902904947961834));
#108=CARTESIAN_POINT('',(0.145477724769683,-0.0118293988281303,-0.0323437087132945));
#109=CARTESIAN_POINT('',(0.147715466103292,-0.0037757708650318,-0.0322083254655407));
#110=CARTESIAN_POINT('',(0.152001642994076,0.0122474067839734,-0.032167444137538));
#111=CARTESIAN_POINT('',(0.158689174573478,0.0363968796399078,-0.0317924942166714));
#112=CARTESIAN_POINT('',(0.163509628832429,0.0597171086795957,-0.0336848463857989));
#113=CARTESIAN_POINT('',(0.166889298679047,0.0823974276569712,-0.0373268280285071));
#114=CARTESIAN_POINT('',(0.170578163692531,0.105215072591515,-0.0405933357471449));
#115=CARTESIAN_POINT('',(0.171018478194217,0.12658990613621,-0.047804749916189));
#116=CARTESIAN_POINT('',(0.170939765796293,0.147734219047264,-0.0556464490559503));
#117=CARTESIAN_POINT('',(0.17027362296791,0.168617630577,-0.0642014996076321));
#118=CARTESIAN_POINT('',(0.16951308244944,0.189459116311851,-0.0728711828409282));
#119=CARTESIAN_POINT('',(0.168586550942654,0.210226878800692,-0.0817424387196667));
#120=CARTESIAN_POINT('',(0.167433834481218,0.23089418349225,-0.0908883643267478));
#121=CARTESIAN_POINT('',(0.166252191891151,0.251548640931563,-0.100069416637572));
#122=CARTESIAN_POINT('',(0.165238881998471,0.272277861663672,-0.10904605262754));
#123=CARTESIAN_POINT('',(0.164371456545197,0.293071875518132,-0.117845532540071));
#124=CARTESIAN_POINT('',(0.163627467273348,0.313920712324501,-0.126495116618583));
#125=CARTESIAN_POINT('',(0.163202443335306,0.32785145699732,-0.13217532427205));
#126=CARTESIAN_POINT('',(0.163004843124309,0.334823452242698,-0.134997319871683));
#127=CARTESIAN_POINT('',(0.214578559628602,-0.0252590807085404,-0.0690628800822633));
#128=CARTESIAN_POINT('',(0.216617041803053,-0.0172939517185442,-0.0691694689815983));
#129=CARTESIAN_POINT('',(0.221096679426322,-0.00118485040995522,-0.068893656877945));
#130=CARTESIAN_POINT('',(0.226147273849851,0.0222375930941559,-0.0705065362740787));
#131=CARTESIAN_POINT('',(0.231135409637446,0.0456322962165205,-0.0721952628749534));
#132=CARTESIAN_POINT('',(0.235087803472554,0.0685669848553285,-0.0751417520054502));
#133=CARTESIAN_POINT('',(0.238582411865727,0.0912983526446279,-0.0786441569932602));
#134=CARTESIAN_POINT('',(0.240420233082517,0.113293874892983,-0.0841584963485131));
#135=CARTESIAN_POINT('',(0.239139700044004,0.133904411123484,-0.0934596371623614));
#136=CARTESIAN_POINT('',(0.237410023245106,0.154315464621361,-0.103306199730024));
#137=CARTESIAN_POINT('',(0.235495241817653,0.174644305740079,-0.113377545763584));
#138=CARTESIAN_POINT('',(0.233500384661042,0.194937582020368,-0.123546132477051));
#139=CARTESIAN_POINT('',(0.231621865738399,0.21528252876982,-0.133573442812656));
#140=CARTESIAN_POINT('',(0.229933888665889,0.235712102786299,-0.143369366943573));
#141=CARTESIAN_POINT('',(0.228510657059677,0.256259260867671,-0.152843795042976));
#142=CARTESIAN_POINT('',(0.22731269564046,0.276906470461375,-0.162044664270343));
#143=CARTESIAN_POINT('',(0.226300529128936,0.297636199014848,-0.171019911785149));
#144=CARTESIAN_POINT('',(0.225736182595088,0.311505064942866,-0.176869307082424));
#145=CARTESIAN_POINT('',(0.225478259080466,0.318450268193099,-0.179764556826855));
#146=CARTESIAN_POINT('',(0.280782520501467,-0.0399753803487343,-0.109299896358398));
#147=CARTESIAN_POINT('',(0.282119773636485,-0.0323216952600447,-0.110258029031125));
#148=CARTESIAN_POINT('',(0.284934595362067,-0.0169520053690889,-0.11200390104464));
#149=CARTESIAN_POINT('',(0.28802416015938,0.00559946633690515,-0.115998174355938));
#150=CARTESIAN_POINT('',(0.2934406065436,0.0291843993494803,-0.117166778142263));
#151=CARTESIAN_POINT('',(0.297723342191963,0.0522658060180611,-0.119712113728981));
#152=CARTESIAN_POINT('',(0.301731703663056,0.0752253521255672,-0.122590638058744));
#153=CARTESIAN_POINT('',(0.305179251793153,0.0979358185672261,-0.126150191099105));
#154=CARTESIAN_POINT('',(0.305404454454845,0.119215112328345,-0.133622828260394));
#155=CARTESIAN_POINT('',(0.303369057881588,0.139490383430059,-0.143840644378065));
#156=CARTESIAN_POINT('',(0.300874211247553,0.159561594358367,-0.154616397797871));
#157=CARTESIAN_POINT('',(0.298099078768,0.179508319116964,-0.165732518848079));
#158=CARTESIAN_POINT('',(0.295633979730047,0.199592742144111,-0.176472148007776));
#159=CARTESIAN_POINT('',(0.293498107292857,0.219823387890498,-0.186811977891987));
#160=CARTESIAN_POINT('',(0.291711082146133,0.240208970690249,-0.196728181940192));
#161=CARTESIAN_POINT('',(0.290208002660698,0.260720665130474,-0.206299574027888));
#162=CARTESIAN_POINT('',(0.288923967207378,0.281329645798285,-0.21560496803057));
#163=CARTESIAN_POINT('',(0.288209912513488,0.295132020336473,-0.221636162774731));
#164=CARTESIAN_POINT('',(0.287887362298686,0.302048520280795,-0.224609892532166));
#165=CARTESIAN_POINT('',(0.345248608929506,-0.0554635387451306,-0.151647313624967));
#166=CARTESIAN_POINT('',(0.34622160405565,-0.0479716352270639,-0.153047786277817));
#167=CARTESIAN_POINT('',(0.34810395899385,-0.0330160911825724,-0.155926007697929));
#168=CARTESIAN_POINT('',(0.348880861553268,-0.011491765400764,-0.162728683140191));
#169=CARTESIAN_POINT('',(0.351902667740452,0.0110296119926747,-0.166805239727429));
#170=CARTESIAN_POINT('',(0.356459253690767,0.034232646548319,-0.169018022743796));
#171=CARTESIAN_POINT('',(0.360633543197527,0.0572658879420418,-0.171695050875229));
#172=CARTESIAN_POINT('',(0.364768255910865,0.0802815516967173,-0.174420139440721));
#173=CARTESIAN_POINT('',(0.368148546798205,0.102962146503151,-0.178061366917057));
#174=CARTESIAN_POINT('',(0.367513927631749,0.123859558953702,-0.186578136427141));
#175=CARTESIAN_POINT('',(0.365009025323828,0.143926303754497,-0.19736610104472));
#176=CARTESIAN_POINT('',(0.362126894140934,0.16382550610354,-0.208612156930007));
#177=CARTESIAN_POINT('',(0.35936636556216,0.183778717039373,-0.219710543602321));
#178=CARTESIAN_POINT('',(0.356860889567332,0.203845207042836,-0.230499204881741));
#179=CARTESIAN_POINT('',(0.354784285829693,0.224102176392462,-0.240767061289068));
#180=CARTESIAN_POINT('',(0.353026949908608,0.244500945366401,-0.250647211959834));
#181=CARTESIAN_POINT('',(0.351479277363443,0.264992834242805,-0.260272756029573));
#182=CARTESIAN_POINT('',(0.350607959205317,0.278725361777974,-0.266494925072032));
#183=CARTESIAN_POINT('',(0.350217587999593,0.285611739703932,-0.269551013858083));
#184=CARTESIAN_POINT('',(0.408114429094493,-0.0716624403694245,-0.195938031009656));
#185=CARTESIAN_POINT('',(0.408801533282765,-0.0642975124670727,-0.197685677887081));
#186=CARTESIAN_POINT('',(0.410165754966156,-0.0495720921527748,-0.201193099072331));
#187=CARTESIAN_POINT('',(0.411098313560706,-0.027978633291591,-0.207806752212244));
#188=CARTESIAN_POINT('',(0.409958413833246,-0.00730563617515251,-0.216937113703468));
#189=CARTESIAN_POINT('',(0.413555205899127,0.0154711154757504,-0.220315431031835));
#190=CARTESIAN_POINT('',(0.418144611517161,0.0386887265602878,-0.222488359190346));
#191=CARTESIAN_POINT('',(0.422376334211656,0.0617474763329383,-0.225095642815132));
#192=CARTESIAN_POINT('',(0.426747663694402,0.0848682310716359,-0.227533393684466));
#193=CARTESIAN_POINT('',(0.429854207536652,0.107427243851514,-0.231507048340258));
#194=CARTESIAN_POINT('',(0.428170681097046,0.127858794572318,-0.24129756780519));
#195=CARTESIAN_POINT('',(0.425503930098841,0.147853655887564,-0.252282074831444));
#196=CARTESIAN_POINT('',(0.422776026708596,0.167821356976292,-0.263340842813451));
#197=CARTESIAN_POINT('',(0.420010277020201,0.187772249008232,-0.274445569787061));
#198=CARTESIAN_POINT('',(0.417667119778835,0.207910831271129,-0.285037117832371));
#199=CARTESIAN_POINT('',(0.415647546862074,0.228193130292446,-0.295235718350853));
#200=CARTESIAN_POINT('',(0.41385255750538,0.248575175867575,-0.305161593808866));
#201=CARTESIAN_POINT('',(0.412840791690653,0.262245324973385,-0.311554316722801));
#202=CARTESIAN_POINT('',(0.412389925068146,0.269104834461849,-0.31468386866081));
#203=CARTESIAN_POINT('',(0.470855354146454,-0.0879168129155821,-0.240380415895038));
#204=CARTESIAN_POINT('',(0.471321408467642,-0.0806500621124612,-0.242396496661163));
#205=CARTESIAN_POINT('',(0.472207418519382,-0.0661370347366131,-0.246484638430411));
#206=CARTESIAN_POINT('',(0.473064751615901,-0.0445769865319585,-0.253189642328561));
#207=CARTESIAN_POINT('',(0.471969097461286,-0.0238843381845416,-0.262266273811559));
#208=CARTESIAN_POINT('',(0.47103984534824,-0.00311778402590298,-0.27114083348291));
#209=CARTESIAN_POINT('',(0.475436575875901,0.020014252334178,-0.273547738365528));
#210=CARTESIAN_POINT('',(0.479813356460077,0.0431374281253425,-0.275978869640949));
#211=CARTESIAN_POINT('',(0.484071335560925,0.0662078394196485,-0.278554268563185));
#212=CARTESIAN_POINT('',(0.488523920302552,0.0893646828731662,-0.280893346380115));
#213=CARTESIAN_POINT('',(0.49059330817712,0.111463053148707,-0.286126480687562));
#214=CARTESIAN_POINT('',(0.488479845403274,0.131703651924114,-0.296439097196098));
#215=CARTESIAN_POINT('',(0.485832044917797,0.151706929921047,-0.307400591497254));
#216=CARTESIAN_POINT('',(0.482934311288875,0.171599202598916,-0.318665594352812));
#217=CARTESIAN_POINT('',(0.480296435662033,0.19160688862307,-0.329615036312867));
#218=CARTESIAN_POINT('',(0.477947802998978,0.2117430390319,-0.340213233485614));
#219=CARTESIAN_POINT('',(0.475929905541442,0.232026082191762,-0.350409799395159));
#220=CARTESIAN_POINT('',(0.474818878989575,0.24565214562872,-0.356923060475513));
#221=CARTESIAN_POINT('',(0.474325362389301,0.252492712553886,-0.360104404796553));
#222=CARTESIAN_POINT('',(0.533410413584482,-0.104253735824983,-0.285048508355736));
#223=CARTESIAN_POINT('',(0.533732286856667,-0.0970510216003135,-0.287239676671885));
#224=CARTESIAN_POINT('',(0.534304421979722,-0.0826773986512859,-0.291708975275942));
#225=CARTESIAN_POINT('',(0.534574035025993,-0.0613783804596969,-0.299127682288398));
#226=CARTESIAN_POINT('',(0.533744553873087,-0.0405675140217377,-0.307881084199453));
#227=CARTESIAN_POINT('',(0.53190678221817,-0.0202044697787216,-0.31785891272503));
#228=CARTESIAN_POINT('',(0.532354033439839,0.00117344464114032,-0.325061903225947));
#229=CARTESIAN_POINT('',(0.53669001825164,0.0242785013958838,-0.327542575213451));
#230=CARTESIAN_POINT('',(0.541081980613928,0.047408420022753,-0.329955270360455));
#231=CARTESIAN_POINT('',(0.545323200960227,0.0704713880829595,-0.332551020426587));
#232=CARTESIAN_POINT('',(0.54971116994586,0.0935995330913175,-0.33496856496635));
#233=CARTESIAN_POINT('',(0.550961763436558,0.115334243987482,-0.341196009577657));
#234=CARTESIAN_POINT('',(0.548261383325459,0.135314169266813,-0.352221354418774));
#235=CARTESIAN_POINT('',(0.545491415619815,0.155263187908357,-0.363331203579463));
#236=CARTESIAN_POINT('',(0.5426699558749,0.175189336872955,-0.374503582559875));
#237=CARTESIAN_POINT('',(0.539942332496628,0.195157162326216,-0.385562010506831));
#238=CARTESIAN_POINT('',(0.53769776387613,0.21533953174421,-0.396033836576142));
#239=CARTESIAN_POINT('',(0.536506232059544,0.228929839568794,-0.402644859946764));
#240=CARTESIAN_POINT('',(0.535982380656828,0.235756933593257,-0.405863041607223));
#241=CARTESIAN_POINT('',(0.595676576061242,-0.120718969445483,-0.330067425432482));
#242=CARTESIAN_POINT('',(0.595901315942083,-0.113559396050195,-0.332376548553603));
#243=CARTESIAN_POINT('',(0.596281144227087,-0.0992711842700184,-0.337079376691255));
#244=CARTESIAN_POINT('',(0.596282844375762,-0.0780911569264199,-0.34482342613383));
#245=CARTESIAN_POINT('',(0.595354811540042,-0.0573240612378879,-0.353696505164826));
#246=CARTESIAN_POINT('',(0.594070553032611,-0.0367151796373417,-0.363002170035268));
#247=CARTESIAN_POINT('',(0.592132535712425,-0.0163966585092064,-0.373101732783573));
#248=CARTESIAN_POINT('',(0.592865944327465,0.00510834986992961,-0.37995722548729));
#249=CARTESIAN_POINT('',(0.597538742505299,0.0283629989302258,-0.382028885142857));
#250=CARTESIAN_POINT('',(0.601800261302071,0.0514349823452597,-0.3845999856036));
#251=CARTESIAN_POINT('',(0.605963125383765,0.0744631492501113,-0.387290888302438));
#252=CARTESIAN_POINT('',(0.610170899814071,0.0975112626394845,-0.389927253716634));
#253=CARTESIAN_POINT('',(0.610352043083464,0.118770987859862,-0.397453394796132));
#254=CARTESIAN_POINT('',(0.607692509193448,0.138769054581907,-0.408429137662326));
#255=CARTESIAN_POINT('',(0.60478733515246,0.158658022674781,-0.419703175849013));
#256=CARTESIAN_POINT('',(0.601645749532328,0.178441990916848,-0.431264302557218));
#257=CARTESIAN_POINT('',(0.599142574913949,0.198509503053764,-0.442050169139506));
#258=CARTESIAN_POINT('',(0.597866861858021,0.212062422618417,-0.448763418753148));
#259=CARTESIAN_POINT('',(0.597319460564498,0.218879057193177,-0.452010198434729));
#260=CARTESIAN_POINT('',(0.657671209379197,-0.137304800040411,-0.37541607637858));
#261=CARTESIAN_POINT('',(0.657820136374417,-0.130178898184006,-0.377817263557324));
#262=CARTESIAN_POINT('',(0.65805806096964,-0.11595371151584,-0.382692413713403));
#263=CARTESIAN_POINT('',(0.657971487035495,-0.0948128902278838,-0.390543659580186));
#264=CARTESIAN_POINT('',(0.657177779633041,-0.0739861352345755,-0.399253619316522));
#265=CARTESIAN_POINT('',(0.655804034610632,-0.0534169981793519,-0.408667952939038));
#266=CARTESIAN_POINT('',(0.653713237054697,-0.0331663328729073,-0.418953045736917));
#267=CARTESIAN_POINT('',(0.651443223514989,-0.0129952645626283,-0.429455771072089));
#268=CARTESIAN_POINT('',(0.653149947593814,0.00894203219619092,-0.435129309412646));
#269=CARTESIAN_POINT('',(0.657780992758659,0.0321781370711708,-0.43725167221402));
#270=CARTESIAN_POINT('',(0.662016234154614,0.0552384496400664,-0.439854682872129));
#271=CARTESIAN_POINT('',(0.666208685336121,0.0782797573609371,-0.44250965621094));
#272=CARTESIAN_POINT('',(0.670141955518461,0.10120595241963,-0.445479368320697));
#273=CARTESIAN_POINT('',(0.669597482993125,0.122143402603962,-0.453886667448606));
#274=CARTESIAN_POINT('',(0.66637446126065,0.141891201806942,-0.46554668683024));
#275=CARTESIAN_POINT('',(0.663176357561553,0.161650068106537,-0.47717644677455));
#276=CARTESIAN_POINT('',(0.66048241534986,0.181632852714839,-0.488193973694782));
#277=CARTESIAN_POINT('',(0.659061039709371,0.195121077691762,-0.495084109974441));
#278=CARTESIAN_POINT('',(0.65847064164383,0.201918615678007,-0.498383103171762));
#279=CARTESIAN_POINT('',(0.719411670366968,-0.15400351874702,-0.421073383773521));
#280=CARTESIAN_POINT('',(0.719480366856507,-0.146913250471496,-0.42357199958643));
#281=CARTESIAN_POINT('',(0.71955558207247,-0.132760329555326,-0.428644737336562));
#282=CARTESIAN_POINT('',(0.71933887537665,-0.11167730543877,-0.43665401108965));
#283=CARTESIAN_POINT('',(0.718649642930652,-0.0908041489329783,-0.445237100725574));
#284=CARTESIAN_POINT('',(0.717294633049708,-0.0702266908510698,-0.454628683161015));
#285=CARTESIAN_POINT('',(0.715067479079932,-0.0500365868892169,-0.46507936159303));
#286=CARTESIAN_POINT('',(0.712711378611271,-0.0299037532319495,-0.475686627362493));
#287=CARTESIAN_POINT('',(0.710682887215424,-0.00962541526438872,-0.485896058116043));
#288=CARTESIAN_POINT('',(0.7128967175692,0.0125371077012277,-0.490953787403353));
#289=CARTESIAN_POINT('',(0.717564864841574,0.0357896911081359,-0.49303109492768));
#290=CARTESIAN_POINT('',(0.721729300456162,0.0588185559936875,-0.495720089221452));
#291=CARTESIAN_POINT('',(0.725905644962899,0.081852710095205,-0.498394621845231));
#292=CARTESIAN_POINT('',(0.729539534424604,0.10464593818538,-0.50172788961825));
#293=CARTESIAN_POINT('',(0.727855014543063,0.125077047678832,-0.511519615478306));
#294=CARTESIAN_POINT('',(0.724726295236509,0.144866730366067,-0.52306511786322));
#295=CARTESIAN_POINT('',(0.721935627149119,0.164806555139007,-0.534200104718144));
#296=CARTESIAN_POINT('',(0.720249125361389,0.178177026975384,-0.541412199312634));
#297=CARTESIAN_POINT('',(0.71957000763806,0.184935161008299,-0.54481893002212));
#298=CARTESIAN_POINT('',(0.781028624606586,-0.170757091747046,-0.466880672695819));
#299=CARTESIAN_POINT('',(0.781024310242563,-0.163699250515743,-0.469467949893588));
#300=CARTESIAN_POINT('',(0.780947572348546,-0.149613818061583,-0.4747252132657));
#301=CARTESIAN_POINT('',(0.780582914178026,-0.12859650512054,-0.482914153219074));
#302=CARTESIAN_POINT('',(0.779923480846435,-0.107710113634557,-0.491461056033149));
#303=CARTESIAN_POINT('',(0.778681600285603,-0.0870824102906493,-0.500715258864049));
#304=CARTESIAN_POINT('',(0.776569592623406,-0.0668411652418806,-0.511026108344702));
#305=CARTESIAN_POINT('',(0.774122374336917,-0.0467488006568666,-0.521744023853484));
#306=CARTESIAN_POINT('',(0.771388574518845,-0.0267837184078935,-0.532809952215508));
#307=CARTESIAN_POINT('',(0.769290378712162,-0.00653633896091316,-0.543104029145539));
#308=CARTESIAN_POINT('',(0.772339728706186,0.0159972717402986,-0.5471471376639));
#309=CARTESIAN_POINT('',(0.776862580994963,0.0391853238257888,-0.549400885454714));
#310=CARTESIAN_POINT('',(0.781054796358842,0.0622265268106058,-0.552056145160777));
#311=CARTESIAN_POINT('',(0.785407052442449,0.0853388102888384,-0.554517057983424));
#312=CARTESIAN_POINT('',(0.788377503067352,0.107837378620228,-0.55865597865833));
#313=CARTESIAN_POINT('',(0.786069386602536,0.127991523895409,-0.569204974622352));
#314=CARTESIAN_POINT('',(0.782875621224805,0.147752317017276,-0.580829466287201));
#315=CARTESIAN_POINT('',(0.781118973704551,0.161091634324436,-0.588126742981122));
#316=CARTESIAN_POINT('',(0.780412862045386,0.167837779269312,-0.591566254018701));
#317=CARTESIAN_POINT('',(0.842652737680084,-0.187507485222228,-0.512679268223987));
#318=CARTESIAN_POINT('',(0.842594269386797,-0.180473695919828,-0.515332307731468));
#319=CARTESIAN_POINT('',(0.842407896610839,-0.16643695670772,-0.520722707205783));
#320=CARTESIAN_POINT('',(0.841901508218419,-0.145482591834654,-0.529083758525308));
#321=CARTESIAN_POINT('',(0.841149769937183,-0.12463719667371,-0.537742752682872));
#322=CARTESIAN_POINT('',(0.83993149170166,-0.103999010591836,-0.546968293818341));
#323=CARTESIAN_POINT('',(0.838025483446381,-0.0836662729559819,-0.557028986071585));
#324=CARTESIAN_POINT('',(0.835552599619463,-0.0635853074654021,-0.567778068759584));
#325=CARTESIAN_POINT('',(0.832590096402352,-0.0437218015557324,-0.579121725145482));
#326=CARTESIAN_POINT('',(0.829601081105598,-0.023870070722466,-0.590497576713083));
#327=CARTESIAN_POINT('',(0.827769121832921,-0.00350444496770577,-0.600468346920156));
#328=CARTESIAN_POINT('',(0.831185507820244,0.0191921811182736,-0.60406574198809));
#329=CARTESIAN_POINT('',(0.835727450699424,0.0423887120995578,-0.606296306949224));
#330=CARTESIAN_POINT('',(0.839911510948187,0.0654262930711315,-0.608961469892472));
#331=CARTESIAN_POINT('',(0.84408713649925,0.0884601278556394,-0.611636875586522));
#332=CARTESIAN_POINT('',(0.846561390963668,0.110738315599027,-0.616378356519319));
#333=CARTESIAN_POINT('',(0.84335921204662,0.130495371931113,-0.628013065241099));
#334=CARTESIAN_POINT('',(0.841608857399945,0.143837484155465,-0.635302700127548));
#335=CARTESIAN_POINT('',(0.840931025971511,0.150596189483459,-0.638707868813292));
#336=CARTESIAN_POINT('',(0.904305642851544,-0.204245090973554,-0.558442899809757));
#337=CARTESIAN_POINT('',(0.904209001721119,-0.197228255756986,-0.56114229484439));
#338=CARTESIAN_POINT('',(0.903948742717149,-0.183224332377952,-0.566622418722382));
#339=CARTESIAN_POINT('',(0.903328236480353,-0.162320651810103,-0.575122050069753));
#340=CARTESIAN_POINT('',(0.902448425011236,-0.14153213908135,-0.583936571051713));
#341=CARTESIAN_POINT('',(0.901200046675155,-0.120907321659672,-0.593198664514266));
#342=CARTESIAN_POINT('',(0.899473839837466,-0.100494727013048,-0.603041013303413));
#343=CARTESIAN_POINT('',(0.897153238193068,-0.0803461269061631,-0.613605170757241));
#344=CARTESIAN_POINT('',(0.894121446406261,-0.0605133948253687,-0.625032968339202));
#345=CARTESIAN_POINT('',(0.8910311608856,-0.0407066421545091,-0.636531798311502));
#346=CARTESIAN_POINT('',(0.887622754527018,-0.0210411796888146,-0.648416941176573));
#347=CARTESIAN_POINT('',(0.885693275600674,-0.000718866318002782,-0.658506135249734));
#348=CARTESIAN_POINT('',(0.889796600367302,0.0222828567924215,-0.661269340049833));
#349=CARTESIAN_POINT('',(0.894099823142218,0.0453733626144331,-0.663789796910672));
#350=CARTESIAN_POINT('',(0.898218796768819,0.0683820360103235,-0.666533998377307));
#351=CARTESIAN_POINT('',(0.902567405362416,0.0914926994921572,-0.668999340562163));
#352=CARTESIAN_POINT('',(0.903920849414536,0.113273090441913,-0.675101887671736));
#353=CARTESIAN_POINT('',(0.902000345124269,0.126539632394889,-0.682598145303961));
#354=CARTESIAN_POINT('',(0.901293399854464,0.133285407099893,-0.686038668644097));
#355=CARTESIAN_POINT('',(0.966008973385051,-0.220960300802011,-0.604145296904858));
#356=CARTESIAN_POINT('',(0.96588726467744,-0.213954599100452,-0.606875132976679));
#357=CARTESIAN_POINT('',(0.965582298525272,-0.199970531956497,-0.612409547381066));
#358=CARTESIAN_POINT('',(0.964896677946351,-0.179095771275877,-0.620988250913809));
#359=CARTESIAN_POINT('',(0.963939360876936,-0.15834168188839,-0.629896891516644));
#360=CARTESIAN_POINT('',(0.962643004202367,-0.137738173568413,-0.639217247904859));
#361=CARTESIAN_POINT('',(0.960940264807986,-0.117315156090321,-0.649031098793743));
#362=CARTESIAN_POINT('',(0.958747395863918,-0.0971098247754037,-0.659440142897286));
#363=CARTESIAN_POINT('',(0.955980650540285,-0.0771593749449493,-0.670546078929478));
#364=CARTESIAN_POINT('',(0.952811363248111,-0.057387710124915,-0.682140845411585));
#365=CARTESIAN_POINT('',(0.949264617436383,-0.0377836897509899,-0.694193982032356));
#366=CARTESIAN_POINT('',(0.945152855095339,-0.0184306158471871,-0.706933251543163));
#367=CARTESIAN_POINT('',(0.943442535450307,0.00198903493799402,-0.716756307577413));
#368=CARTESIAN_POINT('',(0.947171221232738,0.0248243658708865,-0.719974458588126));
#369=CARTESIAN_POINT('',(0.951425051377997,0.0478929344478453,-0.722554895831795));
#370=CARTESIAN_POINT('',(0.955486211739679,0.0708759306573088,-0.725369303355213));
#371=CARTESIAN_POINT('',(0.959642774839514,0.0939012990437566,-0.728067857707885));
#372=CARTESIAN_POINT('',(0.960062663591608,0.108207303281827,-0.732722038058023));
#373=CARTESIAN_POINT('',(0.960042726163298,0.115258205684562,-0.735328287264033));
#374=CARTESIAN_POINT('',(1.00719104258641,-0.232083114618955,-0.634557075105298));
#375=CARTESIAN_POINT('',(1.00705868052453,-0.225082144498703,-0.637299848173426));
#376=CARTESIAN_POINT('',(1.00673669911231,-0.211105634513216,-0.642854925211471));
#377=CARTESIAN_POINT('',(1.00603171216854,-0.190239475210867,-0.651457146463066));
#378=CARTESIAN_POINT('',(1.0050544674393,-0.169494236495229,-0.660389986398336));
#379=CARTESIAN_POINT('',(1.00374250823827,-0.148897657882151,-0.669729289854505));
#380=CARTESIAN_POINT('',(1.0020333778791,-0.128477478887485,-0.679550901668796));
#381=CARTESIAN_POINT('',(0.999928592909277,-0.108233025951758,-0.689852980208187));
#382=CARTESIAN_POINT('',(0.997429669876264,-0.0881636255155001,-0.700633683839654));
#383=CARTESIAN_POINT('',(0.994425768955813,-0.068318505983901,-0.712027611897901));
#384=CARTESIAN_POINT('',(0.990755010956883,-0.048769564389119,-0.724231343830471));
#385=CARTESIAN_POINT('',(0.986799241012971,-0.029347208014105,-0.736781182574717));
#386=CARTESIAN_POINT('',(0.98265391314446,-0.0100090419053818,-0.749561212684854));
#387=CARTESIAN_POINT('',(0.982110180436966,0.0109287368616838,-0.757967613408332));
#388=CARTESIAN_POINT('',(0.987315833635432,0.0344200481779965,-0.759392195790392));
#389=CARTESIAN_POINT('',(0.991121914890968,0.0572897535402577,-0.762516360914177));
#390=CARTESIAN_POINT('',(0.995951499531241,0.0806140377479714,-0.764397625522854));
#391=CARTESIAN_POINT('',(0.997781893938742,0.0955465040397107,-0.767338945679456));
#392=CARTESIAN_POINT('',(0.998380652911604,0.102872194293588,-0.769193875361587));
#393=CARTESIAN_POINT('',(1.02779693071626,-0.237637924480225,-0.64974492668915));
#394=CARTESIAN_POINT('',(1.02766008694918,-0.230638944864748,-0.652493142156181));
#395=CARTESIAN_POINT('',(1.02733112947966,-0.216665533225703,-0.658056690631968));
#396=CARTESIAN_POINT('',(1.02662031370138,-0.195801962742212,-0.666665990181036));
#397=CARTESIAN_POINT('',(1.02564054858116,-0.175057843433154,-0.675601890775703));
#398=CARTESIAN_POINT('',(1.02433195933948,-0.154459768086158,-0.684937101891507));
#399=CARTESIAN_POINT('',(1.0226346711968,-0.134034329488855,-0.694744333003988));
#400=CARTESIAN_POINT('',(1.02057947816672,-0.113767850786487,-0.704986189126568));
#401=CARTESIAN_POINT('',(1.01819717426279,-0.093646655124295,-0.715625275272669));
#402=CARTESIAN_POINT('',(1.01530467100341,-0.0737520594298292,-0.726883926582057));
#403=CARTESIAN_POINT('',(1.01169221570053,-0.0541772232726528,-0.739016858112761));
#404=CARTESIAN_POINT('',(1.00787415451998,-0.0346937049204633,-0.751399468985105));
#405=CARTESIAN_POINT('',(1.00343960739375,-0.0154839926675994,-0.764530715094869));
#406=CARTESIAN_POINT('',(1.00194159982306,0.0050299544130996,-0.774095948057403));
#407=CARTESIAN_POINT('',(1.00694772743907,0.0284326484270532,-0.775762826120073));
#408=CARTESIAN_POINT('',(1.0106729328437,0.051266433584772,-0.778985203558784));
#409=CARTESIAN_POINT('',(1.01540660807758,0.0745481205838397,-0.78098293661534));
#410=CARTESIAN_POINT('',(1.01748469437351,0.0895905967635285,-0.783623469905665));
#411=CARTESIAN_POINT('',(1.01820947441716,0.0969722580222061,-0.7853253647702));
#412=ORIENTED_EDGE('',*,*,#416,.T.);
#413=ORIENTED_EDGE('',*,*,#417,.T.);
#414=ORIENTED_EDGE('',*,*,#418,.T.);
#415=ORIENTED_EDGE('',*,*,#419,.T.);
#416=EDGE_CURVE('',#420,#421,#422,.T.);
#417=EDGE_CURVE('',#421,#423,#424,.T.);
#418=EDGE_CURVE('',#423,#425,#426,.T.);
#419=EDGE_CURVE('',#425,#420,#427,.T.);
#420=VERTEX_POINT('',#428);
#421=VERTEX_POINT('',#429);
#422=LINE('',#430,#431);
#423=VERTEX_POINT('',#432);
#424=B_SPLINE_CURVE_WITH_KNOTS('',3,(#433,#434,#435,#436,#437,#438,#439,#440,#441,#442,#443,#444,#445,#446,#447,#448),.UNSPECIFIED.,.F.,.F.,(4,1,1,1,1,1,1,1,1,1,1,1,1,4),(0.0,0.160697767370709,0.321395534741417,0.482093302112126,0.642791069482835,0.803488836853543,0.883837720538898,0.964186604224252,1.04453548790961,1.12488437159496,1.20523325528031,1.24540769712299,1.26549491804433,1.28558213896567),.UNSPECIFIED.);
#425=VERTEX_POINT('',#449);
#426=LINE('',#450,#451);
#427=B_SPLINE_CURVE_WITH_KNOTS('',3,(#452,#453,#454,#455,#456,#457,#458,#459,#460,#461,#462,#463,#464,#465,#466,#467),.UNSPECIFIED.,.F.,.F.,(4,1,1,1,1,1,1,1,1,1,1,1,1,4),(0.0,0.020092159688202,0.040184319376404,0.080368638752808,0.160737277505616,0.241105916258424,0.321474555011232,0.40184319376404,0.482211832516848,0.642949110022464,0.80368638752808,0.964423665033696,1.12516094253931,1.28589822004493),.UNSPECIFIED.);
#428=CARTESIAN_POINT('',(1.00182282924652,0.00170253613032401,-0.773042500019073));
#429=CARTESIAN_POINT('',(1.00161170959473,0.101750545203686,-0.772260665893555));
#430=CARTESIAN_POINT('',(1.00171726942062,0.0517265406670049,-0.772618502378464));
#431=VECTOR('',#468,1.0);
#432=CARTESIAN_POINT('',(-8.2692655380929E-33,0.100000001490116,-2.48306853259991E-33));
#433=CARTESIAN_POINT('',(1.00161170959473,0.101750545203686,-0.772260665893555));
#434=CARTESIAN_POINT('',(0.96416336554272,0.101671556345451,-0.733960230684777));
#435=CARTESIAN_POINT('',(0.888786995027402,0.101512364874798,-0.657827286311827));
#436=CARTESIAN_POINT('',(0.773833022740861,0.101270135714914,-0.545527556056446));
#437=CARTESIAN_POINT('',(0.657034123944212,0.101022534351947,-0.435148462747771));
#438=CARTESIAN_POINT('',(0.538319838907926,0.100776371597794,-0.326830627854579));
#439=CARTESIAN_POINT('',(0.437699152111866,0.100550903891189,-0.238453450583093));
#440=CARTESIAN_POINT('',(0.356152011613047,0.10039601366261,-0.168975756750642));
#441=CARTESIAN_POINT('',(0.293460253521219,0.100482856725969,-0.11866718506692));
#442=CARTESIAN_POINT('',(0.226955516659829,0.100366053435888,-0.073442427838485));
#443=CARTESIAN_POINT('',(0.156314247071987,0.100382747878596,-0.0348315641929931));
#444=CARTESIAN_POINT('',(0.0928287709702557,0.100335640678677,-0.0125306603438221));
#445=CARTESIAN_POINT('',(0.0466808618317309,0.10024797470542,-0.00405740551080327));
#446=CARTESIAN_POINT('',(0.0200828223969037,0.100185519692972,-0.000752820319738296));
#447=CARTESIAN_POINT('',(0.00669082949089477,0.100062849512535,-0.000248574154220446));
#448=CARTESIAN_POINT('',(-8.2692655380929E-33,0.100000001490116,-2.48306853259991E-33));
#449=CARTESIAN_POINT('',(-8.87508446978E-33,-1.43276407300081E-32,-3.65354113482129E-33));
#450=CARTESIAN_POINT('',(3.42731070831821E-31,0.0500000007450581,8.9811731288153E-32));
#451=VECTOR('',#469,1.0);
#452=CARTESIAN_POINT('',(-8.87508446978E-33,-1.43276407300081E-32,-3.65354113482129E-33));
#453=CARTESIAN_POINT('',(0.00668957411444701,-8.32042268763935E-05,-0.000312509191289325));
#454=CARTESIAN_POINT('',(0.0200804622476343,-0.000246271077405333,-0.000943562834869616));
#455=CARTESIAN_POINT('',(0.0466409093720888,-0.000180322723251409,-0.00458740170139028));
#456=CARTESIAN_POINT('',(0.0927479869457195,-0.000187705803521444,-0.0132889967032566));
#457=CARTESIAN_POINT('',(0.156270225961503,-0.000106393256716473,-0.0355010345389403));
#458=CARTESIAN_POINT('',(0.226947166255675,5.99844877206423E-05,-0.0741077332586175));
#459=CARTESIAN_POINT('',(0.293430642340026,0.000122268822676443,-0.119382203897355));
#460=CARTESIAN_POINT('',(0.356406597841741,0.00026500954071326,-0.169368689814552));
#461=CARTESIAN_POINT('',(0.437700989173398,0.00056329632465044,-0.239189255129077));
#462=CARTESIAN_POINT('',(0.538435782298704,0.000707131476021596,-0.327479622068312));
#463=CARTESIAN_POINT('',(0.657152587415076,0.00097985845511864,-0.435856708673967));
#464=CARTESIAN_POINT('',(0.77398892652669,0.00122048646713859,-0.5462525181317));
#465=CARTESIAN_POINT('',(0.888969773054076,0.00146477235113758,-0.658581682483328));
#466=CARTESIAN_POINT('',(0.964365277998637,0.00162344776719409,-0.734732648115586));
#467=CARTESIAN_POINT('',(1.00182282924652,0.00170253613032401,-0.773042500019073));
#468=DIRECTION('',(-0.00211028447215273,0.999967238694761,0.00781461685697974));
#469=DIRECTION('',(-0.0,-1.0,-0.0));
ENDSEC;
END-ISO-10303-21;
