ISO-10303-21;
HEADER;
FILE_DESCRIPTION(('STEP AP214'),'1');
FILE_NAME('SMAStripDeformed_02.stp','2025-12-21T20:31:59',(' '),(' '),'Spatial InterOp 3D',' ',' ');
FILE_SCHEMA(('AUTOMOTIVE_DESIGN { 1 0 10303 214 1 1 1 1 }'));
ENDSEC;
DATA;
#1=PRODUCT_DEFINITION_CONTEXT('',#9,'design');
#2=APPLICATION_PROTOCOL_DEFINITION('INTERNATIONAL STANDARD','automotive_design',1994,#9);
#3=PRODUCT_CATEGORY_RELATIONSHIP('NONE','NONE',#10,#11);
#4=SHAPE_DEFINITION_REPRESENTATION(#12,#13);
#5= (GEOMETRIC_REPRESENTATION_CONTEXT(3)GLOBAL_UNCERTAINTY_ASSIGNED_CONTEXT((#16))GLOBAL_UNIT_ASSIGNED_CONTEXT((#18,#19,#20))REPRESENTATION_CONTEXT('NONE','WORKSPACE'));
#9=APPLICATION_CONTEXT(' ');
#10=PRODUCT_CATEGORY('part','NONE');
#11=PRODUCT_RELATED_PRODUCT_CATEGORY('detail',' ',(#22));
#12=PRODUCT_DEFINITION_SHAPE('NONE','NONE',#23);
#13=MANIFOLD_SURFACE_SHAPE_REPRESENTATION('1',(#24,#25),#5);
#16=UNCERTAINTY_MEASURE_WITH_UNIT(LENGTH_MEASURE(1.0E-06),#18,'','');
#18= (CONVERSION_BASED_UNIT('MILLIMETRE',#28)LENGTH_UNIT()NAMED_UNIT(#31));
#19= (NAMED_UNIT(#33)PLANE_ANGLE_UNIT()SI_UNIT($,.RADIAN.));
#20= (NAMED_UNIT(#33)SOLID_ANGLE_UNIT()SI_UNIT($,.STERADIAN.));
#22=PRODUCT('1','','PART--DESC',(#39));
#23=PRODUCT_DEFINITION('','NONE',#40,#1);
#24=SHELL_BASED_SURFACE_MODEL('1',(#41));
#25=AXIS2_PLACEMENT_3D('',#42,#43,#44);
#28=LENGTH_MEASURE_WITH_UNIT(LENGTH_MEASURE(1.0),#45);
#31=DIMENSIONAL_EXPONENTS(1.0,0.0,0.0,0.0,0.0,0.0,0.0);
#33=DIMENSIONAL_EXPONENTS(0.0,0.0,0.0,0.0,0.0,0.0,0.0);
#39=PRODUCT_CONTEXT('',#9,'mechanical');
#40=PRODUCT_DEFINITION_FORMATION_WITH_SPECIFIED_SOURCE(' ','NONE',#22,.NOT_KNOWN.);
#41=CLOSED_SHELL('',(#46));
#42=CARTESIAN_POINT('',(0.0,0.0,0.0));
#43=DIRECTION('',(0.0,0.0,1.0));
#44=DIRECTION('',(1.0,0.0,0.0));
#45= (NAMED_UNIT(#31)LENGTH_UNIT()SI_UNIT(.MILLI.,.METRE.));
#46=FACE_SURFACE('',(#48),#49,.T.);
#48=FACE_BOUND('',#50,.T.);
#49=CYLINDRICAL_SURFACE('',#51,2.90994725896239);
#50=EDGE_LOOP('',(#52,#53,#54,#55));
#51=AXIS2_PLACEMENT_3D('',#56,#57,#58);
#52=ORIENTED_EDGE('',*,*,#59,.T.);
#53=ORIENTED_EDGE('',*,*,#60,.T.);
#54=ORIENTED_EDGE('',*,*,#61,.T.);
#55=ORIENTED_EDGE('',*,*,#62,.T.);
#56=CARTESIAN_POINT('',(-0.387599728034564,0.000180713864057071,-2.87386621468736));
#57=DIRECTION('',(0.000584631939300272,-0.99999981905884,-0.000141731375881166));
#58=DIRECTION('',(0.0,-0.000141731400102675,0.999999989956105));
#59=EDGE_CURVE('',#63,#64,#65,.T.);
#60=EDGE_CURVE('',#64,#66,#67,.T.);
#61=EDGE_CURVE('',#66,#68,#69,.T.);
#62=EDGE_CURVE('',#68,#63,#70,.T.);
#63=VERTEX_POINT('',#71);
#64=VERTEX_POINT('',#72);
#65=LINE('',#73,#74);
#66=VERTEX_POINT('',#75);
#67=B_SPLINE_CURVE_WITH_KNOTS('',3,(#76,#77,#78,#79,#80,#81,#82,#83,#84,#85),.UNSPECIFIED.,.F.,.F.,(4,1,1,1,1,1,1,4),(0.0,0.263807661144638,0.395711491716958,0.527615322289277,0.659519152861596,0.791422983433915,0.923326814006234,1.05523064457855),.UNSPECIFIED.);
#68=VERTEX_POINT('',#86);
#69=LINE('',#87,#88);
#70=B_SPLINE_CURVE_WITH_KNOTS('',3,(#89,#90,#91,#92,#93,#94,#95,#96,#97,#98),.UNSPECIFIED.,.F.,.F.,(4,1,1,1,1,1,1,4),(0.0,0.131905333843916,0.263810667687832,0.395716001531748,0.527621335375664,0.659526669219579,0.791432003063495,1.05524267075133),.UNSPECIFIED.);
#71=CARTESIAN_POINT('',(1.00081825256348,4.90468009957112E-05,-0.310758680105209));
#72=CARTESIAN_POINT('',(1.00080740451813,0.100097060203552,-0.310758680105209));
#73=CARTESIAN_POINT('',(1.0008128285408,0.050073053502274,-0.310591787099838));
#74=VECTOR('',#99,0.999999999999999);
#75=CARTESIAN_POINT('',(-2.36712823908137E-33,0.100000001490116,-7.92509199610267E-34));
#76=CARTESIAN_POINT('',(1.00080740451813,0.100097060203552,-0.310758680105209));
#77=CARTESIAN_POINT('',(0.921536848456966,0.10008845300862,-0.272694272863975));
#78=CARTESIAN_POINT('',(0.801227020716715,0.100076433678532,-0.218498890664733));
#79=CARTESIAN_POINT('',(0.637794699721477,0.100055597797752,-0.153478330635149));
#80=CARTESIAN_POINT('',(0.51382508978307,0.100051130605806,-0.108360152134218));
#81=CARTESIAN_POINT('',(0.388524715498853,0.100003568708477,-0.0671641840715876));
#82=CARTESIAN_POINT('',(0.261881396234652,0.10010608845938,-0.0299370805038291));
#83=CARTESIAN_POINT('',(0.131812917293426,0.100021207090169,-0.00669033537914035));
#84=CARTESIAN_POINT('',(0.0439629559253484,0.100174832248174,-0.000638747407760365));
#85=CARTESIAN_POINT('',(-2.36712823908137E-33,0.100000001490116,-7.92509199610267E-34));
#86=CARTESIAN_POINT('',(-2.36711758616381E-33,-3.37825468419611E-33,-7.92508464926297E-34));
#87=CARTESIAN_POINT('',(4.09538617181356E-32,0.0500000007450581,1.18239571948194E-32));
#88=VECTOR('',#100,1.0);
#89=CARTESIAN_POINT('',(-2.36711758616381E-33,-3.37825468419611E-33,-7.92508464926297E-34));
#90=CARTESIAN_POINT('',(0.0439634570365401,-0.000174816733669599,-0.000638753736949658));
#91=CARTESIAN_POINT('',(0.131814163903457,-2.05150290409395E-05,-0.00669143552288793));
#92=CARTESIAN_POINT('',(0.261885243608596,-0.000108532504634405,-0.0299342236953989));
#93=CARTESIAN_POINT('',(0.388531636655097,6.09892290051963E-06,-0.0671504306755595));
#94=CARTESIAN_POINT('',(0.513829421562349,-1.03688214999905E-05,-0.108361170688999));
#95=CARTESIAN_POINT('',(0.637801572153269,1.11772253404185E-05,-0.15347589353766));
#96=CARTESIAN_POINT('',(0.801235442942807,2.62984612811295E-05,-0.218498351908272));
#97=CARTESIAN_POINT('',(0.921546849069618,4.03727224544422E-05,-0.272693722464402));
#98=CARTESIAN_POINT('',(1.00081825256348,4.90468009957112E-05,-0.310758680105209));
#99=DIRECTION('',(-0.000108598607288345,0.999999994103171,-1.15636167191797E-09));
#100=DIRECTION('',(-0.0,-1.0,-0.0));
ENDSEC;
END-ISO-10303-21;
