#OBJ File generated by Abaqus/CAE
#List of Vertices
v 0.0200059 -2.96371e-05 -0.000182374
v 0.0200141 0.0105363 -0.000129462
v 0.0094492 0.0105401 -8.65933e-05
v 1.86142e-06 0.0199987 -6.98526e-07
v 0.0200241 0.0199869 -8.37121e-05
v 0.00944707 -1.48724e-05 -8.62267e-05
v 3.01199e-06 -8.37114e-07 -2.32535e-06
v 0.0400313 0.0199779 -0.000364875
v 0.0387571 0.019979 -0.000346901
v 0.04003 0.0105237 -0.000457535
v 0.0400305 -3.38144e-05 -0.000562387
v 0.0303264 0.0096789 -0.000331911
v 0.028938 0.0199825 -0.00020787
v 0.0250397 -3.21415e-05 -0.000277928
v 0.0200196 0.0174084 -9.50162e-05
v 0.0331198 -3.11182e-05 -0.000432783
v 0.0482258 0.0117825 -0.000655129
v 0.0489154 0.0199802 -0.000569192
v 0.0591244 0.0199799 -0.000801948
v 0.0576451 0.00236442 -0.000990942
v 0.0600476 0.0199814 -0.000824433
v 0.0600457 -3.49616e-05 -0.00107741
v 0.0412371 -3.15819e-05 -0.000594218
v 0.0495795 -3.41532e-05 -0.000808939
v 0.057919 -3.54269e-05 -0.00102176
v 0.0780042 0.00202574 -0.00164388
v 0.0789235 0.0199812 -0.00141513
v 0.0800601 0.0199804 -0.00145108
v 0.0800614 -3.03883e-05 -0.00173864
v 0.0776066 -3.22804e-05 -0.00165789
v 0.100077 -3.12705e-05 -0.00255137
v 0.100075 0.0199832 -0.00224707
v 0.120091 -2.86846e-05 -0.00351913
v 0.120089 0.0199839 -0.00321178
v 0.140105 -2.56633e-05 -0.00464724
v 0.140103 0.0199871 -0.00434245
v 0.16012 -2.29229e-05 -0.0059281
v 0.160116 0.0199899 -0.00564186
v 0.180133 -1.52005e-05 -0.00736232
v 0.180129 0.0199953 -0.00710268
v 0.200137 0.0199989 -0.00869346
v 0.186992 0.0199975 -0.00764812
v 0.200142 0.00257922 -0.00889486
v 0.200142 -7.16861e-06 -0.00892338
v 0.220149 -3.30771e-06 -0.0105873
v 0.220144 0.0200041 -0.0103844
v 0.202059 -6.93683e-06 -0.00908197
v 0.240151 0.0200049 -0.0121556
v 0.234969 0.0200042 -0.0116964
v 0.240152 0.0031507 -0.0123072
v 0.240152 3.24544e-07 -0.0123363
v 0.260159 6.29603e-07 -0.0141667
v 0.260157 0.0200073 -0.0140018
v 0.241058 -2.21127e-07 -0.01242
v 0.280165 4.37734e-07 -0.0160682
v 0.280164 0.0200067 -0.0159189
v 0.300171 8.3278e-07 -0.0180407
v 0.300171 0.0200069 -0.0179057
v 0.320176 0.0200085 -0.0199586
v 0.308751 0.0200091 -0.0187868
v 0.320178 0.00867006 -0.0200273
v 0.320177 3.97872e-06 -0.020079
v 0.340185 6.73875e-06 -0.0221754
v 0.34018 0.0200116 -0.0220726
v 0.333827 5.93314e-06 -0.0215101
v 0.360188 1.26256e-05 -0.0243191
v 0.360185 0.0200145 -0.0242366
v 0.380189 1.76364e-05 -0.0264954
v 0.380187 0.0200178 -0.026431
v 0.390712 0.00949717 -0.0276236
v 0.387759 0.0200208 -0.0272693
v 0.400188 0.0200209 -0.0286439
v 0.400191 2.10939e-05 -0.028697
v 0.395675 2.10271e-05 -0.0282001
v 0.420191 2.36328e-05 -0.0309127
v 0.420189 0.0200251 -0.0308702
v 0.440193 2.4963e-05 -0.0331408
v 0.44019 0.0200266 -0.0331012
v 0.460192 2.84673e-05 -0.0353792
v 0.46019 0.0200285 -0.0353417
v 0.480195 2.9948e-05 -0.0376307
v 0.480193 0.020031 -0.0375954
v 0.500195 3.2305e-05 -0.0398914
v 0.500193 0.0200323 -0.0398558
v 0.520196 3.38712e-05 -0.0421632
v 0.520194 0.0200352 -0.0421295
v 0.540197 3.76821e-05 -0.0444484
v 0.540195 0.0200381 -0.0444141
v 0.560197 3.9589e-05 -0.0467414
v 0.560196 0.0200392 -0.0467076
v 0.5802 4.01993e-05 -0.0490475
v 0.580195 0.0200414 -0.0490122
v 0.600199 4.269e-05 -0.0513625
v 0.600198 0.0200431 -0.0513296
v 0.6202 4.52425e-05 -0.0536904
v 0.620197 0.0200474 -0.0536579
v 0.6402 4.86532e-05 -0.0560301
v 0.6402 0.0200477 -0.0559966
v 0.660201 5.11589e-05 -0.0583793
v 0.660199 0.0200521 -0.0583459
v 0.680203 5.34881e-05 -0.060741
v 0.680199 0.0200539 -0.0607053
v 0.700204 5.40195e-05 -0.0631107
v 0.7002 0.0200563 -0.0630769
v 0.720204 5.58858e-05 -0.0654926
v 0.720202 0.0200578 -0.0654602
v 0.740205 5.97373e-05 -0.0678875
v 0.740203 0.020059 -0.0678521
v 0.760206 6.17024e-05 -0.0702918
v 0.760204 0.020063 -0.0702586
v 0.780207 6.25554e-05 -0.0727063
v 0.780205 0.0200638 -0.0726728
v 0.800208 6.5372e-05 -0.075133
v 0.800206 0.0200665 -0.0750999
v 0.820207 6.86061e-05 -0.0775695
v 0.820206 0.0200697 -0.0775375
v 0.84021 7.07529e-05 -0.0800192
v 0.840206 0.020072 -0.0799851
v 0.860209 7.26788e-05 -0.082477
v 0.860208 0.0200741 -0.0824452
v 0.88021 7.51396e-05 -0.0849475
v 0.880209 0.0200747 -0.0849136
v 0.900211 7.66743e-05 -0.0874282
v 0.900208 0.0200789 -0.087395
v 0.920212 7.82394e-05 -0.0899196
v 0.92021 0.020081 -0.0898885
v 0.940214 8.05988e-05 -0.0924244
v 0.940212 0.0200818 -0.0923908
v 0.960214 8.46165e-05 -0.0949391
v 0.960213 0.0200845 -0.0949055
v 0.980215 8.66967e-05 -0.0974642
v 0.980213 0.0200875 -0.0974301
v 1.00022 8.77927e-05 -0.0999999
v 1.00021 0.0200897 -0.0999659
v 0.0200215 0.0399954 -6.46208e-05
v 0.0184349 0.0399961 -5.8671e-05
v 0.0200206 0.0386655 -6.47784e-05
v 0.020021 0.0323477 -7.07447e-05
v 0.0109044 0.0399955 -3.42665e-05
v 0.0200225 0.0260304 -7.82382e-05
v 0.00337299 0.0399971 -1.14301e-05
v 1.41363e-06 0.0399995 -9.38099e-07
v 0.0243378 0.0356752 -0.000127295
v 0.0257241 0.0399961 -0.00012631
v 0.0329508 0.0399943 -0.000205806
v 0.0298065 0.0302066 -0.000211352
v 0.0400363 0.0399937 -0.000283687
v 0.0400362 0.0395586 -0.000285921
v 0.0352729 0.0247377 -0.000293087
v 0.0200204 0.0362309 -6.68372e-05
v 0.0200212 0.0314623 -7.07999e-05
v 0.0200225 0.0266943 -7.58358e-05
v 0.0351941 0.0199783 -0.000294296
v 0.0200217 0.021927 -7.96402e-05
v 0.0600468 0.0262544 -0.000786294
v 0.0583578 0.0216709 -0.000778382
v 0.0600466 0.0399935 -0.000704545
v 0.0632128 0.0368272 -0.000822353
v 0.0634372 0.0399923 -0.00080552
v 0.0800607 0.0399965 -0.00131028
v 0.0800606 0.0330815 -0.00135921
v 0.0791873 0.0208539 -0.00141914
v 0.0813951 0.038663 -0.00137362
v 0.0817507 0.0399981 -0.00137789
v 0.100074 0.0399971 -0.00209739
v 0.120086 0.0399993 -0.00305512
v 0.140099 0.0400001 -0.00418848
v 0.160112 0.0400044 -0.00549211
v 0.180124 0.0400063 -0.00695924
v 0.177442 0.0400044 -0.00676244
v 0.180125 0.033665 -0.00700449
v 0.200134 0.0400089 -0.00856373
v 0.220142 0.0400108 -0.0102718
v 0.216112 0.0400088 -0.0099274
v 0.220144 0.036094 -0.0102936
v 0.240151 0.0400105 -0.0120571
v 0.260157 0.0400124 -0.0139135
v 0.280164 0.0400123 -0.0158386
v 0.300168 0.0400123 -0.0178334
v 0.288317 0.0400139 -0.0166525
v 0.300169 0.0276598 -0.0178783
v 0.320172 0.040016 -0.019899
v 0.340179 0.0400154 -0.022025
v 0.360183 0.0400181 -0.0241981
v 0.357002 0.040018 -0.0238513
v 0.360181 0.0378368 -0.0242014
v 0.380184 0.0276065 -0.0264185
v 0.366289 0.0339119 -0.0248789
v 0.380185 0.0400194 -0.0263986
v 0.400186 0.040022 -0.0286153
v 0.420186 0.0400259 -0.0308417
v 0.440188 0.0400276 -0.0330759
v 0.460189 0.0400296 -0.0353185
v 0.480189 0.0400325 -0.0375709
v 0.50019 0.0400341 -0.0398331
v 0.520192 0.0400352 -0.0421062
v 0.540192 0.0400386 -0.0443905
v 0.560193 0.0400402 -0.0466846
v 0.580193 0.040043 -0.0489907
v 0.600195 0.0400454 -0.0513085
v 0.620195 0.040048 -0.0536348
v 0.640197 0.0400491 -0.0559736
v 0.660197 0.0400518 -0.0583227
v 0.680198 0.0400544 -0.060684
v 0.7002 0.0400554 -0.063055
v 0.720201 0.0400578 -0.0654376
v 0.7402 0.0400599 -0.0678297
v 0.760202 0.0400627 -0.0702359
v 0.780202 0.0400645 -0.0726497
v 0.800203 0.0400684 -0.075077
v 0.820203 0.0400706 -0.0775144
v 0.840205 0.040072 -0.0799623
v 0.860207 0.0400733 -0.0824214
v 0.880206 0.0400753 -0.0848905
v 0.900208 0.040079 -0.0873739
v 0.920208 0.0400806 -0.0898641
v 0.94021 0.0400832 -0.0923686
v 0.96021 0.0400855 -0.094883
v 0.98021 0.0400884 -0.0974075
v 1.00021 0.0400907 -0.0999436
v 4.01033e-06 0.0599969 -1.0004e-06
v 0.00258031 0.057424 -1.06167e-05
v 0.00269372 0.059998 -7.84999e-06
v 0.0109353 0.0600012 -3.54163e-05
v 0.0104695 0.0495397 -3.43697e-05
v 0.0191756 0.0600027 -6.02361e-05
v 0.0183588 0.0416554 -5.80964e-05
v 0.0200205 0.0600026 -6.28375e-05
v 0.0262611 0.0537651 -0.000132772
v 0.0267769 0.0600056 -0.000138757
v 0.0343076 0.0600039 -0.000221047
v 0.033216 0.0468118 -0.000208599
v 0.0400339 0.0600064 -0.000284092
v 0.0600467 0.06001 -0.000697528
v 0.0630605 0.056995 -0.00078846
v 0.0631757 0.0600107 -0.000792207
v 0.080058 0.0600091 -0.00130082
v 0.0837562 0.0563121 -0.00144835
v 0.0839623 0.060009 -0.00145437
v 0.100073 0.0600122 -0.00208473
v 0.120085 0.0600137 -0.003046
v 0.140098 0.0600169 -0.00417678
v 0.160112 0.0600167 -0.00547798
v 0.180125 0.0540343 -0.00694487
v 0.177415 0.0427167 -0.0067598
v 0.180124 0.0600166 -0.00693735
v 0.181017 0.0591245 -0.00701126
v 0.18109 0.0600177 -0.00701511
v 0.200135 0.060017 -0.00854381
v 0.216651 0.0435023 -0.00997092
v 0.214867 0.0600181 -0.00980515
v 0.220143 0.0600191 -0.0102567
v 0.240148 0.0600186 -0.012044
v 0.260156 0.0600196 -0.0139028
v 0.280162 0.0600182 -0.0158276
v 0.286242 0.0539399 -0.0164385
v 0.285211 0.0600185 -0.0163327
v 0.300168 0.0600197 -0.0178264
v 0.320173 0.0600189 -0.0198935
v 0.340178 0.0600191 -0.0220222
v 0.355879 0.04432 -0.0237293
v 0.353953 0.0600212 -0.0235195
v 0.360181 0.0600204 -0.0241956
v 0.380182 0.0600216 -0.026394
v 0.400183 0.0600244 -0.0286094
v 0.420184 0.0600263 -0.0308321
v 0.440186 0.0600278 -0.0330655
v 0.460187 0.0600297 -0.0353064
v 0.480187 0.0600321 -0.0375583
v 0.500188 0.0600358 -0.0398223
v 0.52019 0.0600364 -0.042095
v 0.540191 0.0600394 -0.0443798
v 0.560191 0.0600406 -0.0466733
v 0.580193 0.0600431 -0.0489797
v 0.600192 0.0600451 -0.0512946
v 0.620194 0.0600473 -0.0536232
v 0.640194 0.0600504 -0.055962
v 0.660194 0.0600528 -0.058311
v 0.680196 0.0600552 -0.0606728
v 0.700198 0.060056 -0.0630431
v 0.720199 0.0600582 -0.0654259
v 0.740198 0.0600626 -0.06782
v 0.760199 0.060063 -0.0702225
v 0.7802 0.0600671 -0.0726397
v 0.8002 0.0600689 -0.0750648
v 0.820202 0.0600712 -0.0775036
v 0.840204 0.0600728 -0.0799517
v 0.860204 0.0600744 -0.0824095
v 0.880204 0.0600769 -0.0848798
v 0.900206 0.0600788 -0.0873618
v 0.920206 0.060081 -0.0898523
v 0.940207 0.0600843 -0.0923574
v 0.960208 0.0600853 -0.0948698
v 0.980208 0.0600891 -0.0973957
v 1.00021 0.0600902 -0.0999324
v 0.0200213 0.0607309 -6.48414e-05
v 0.0192925 0.0607299 -6.0756e-05
v 0.0121869 0.0678274 -3.86692e-05
v 0.0200194 0.067834 -7.18736e-05
v 0.00508145 0.0749249 -1.65563e-05
v 0.0200209 0.0749339 -7.8855e-05
v 2.10093e-06 0.0799972 5.54965e-07
v 0.0200196 0.0800107 -8.39772e-05
v 0.0400333 0.0664755 -0.000307397
v 0.0351138 0.0649234 -0.000234187
v 0.0400285 0.0800206 -0.000354265
v 0.0200202 0.0759677 -7.9115e-05
v 0.020019 0.070459 -7.33761e-05
v 0.0200198 0.0649481 -6.76007e-05
v 0.060041 0.080023 -0.000802143
v 0.0590388 0.0800227 -0.000779892
v 0.060042 0.0737227 -0.000769075
v 0.0475739 0.07248 -0.000485632
v 0.0463712 0.0800223 -0.000496861
v 0.0800566 0.0800265 -0.00142238
v 0.0817975 0.0782857 -0.00147991
v 0.0814667 0.0800276 -0.00147951
v 0.10007 0.080027 -0.00221649
v 0.120086 0.0800286 -0.00317813
v 0.140098 0.0800284 -0.00430553
v 0.160112 0.0800318 -0.00559741
v 0.180123 0.0800291 -0.0070448
v 0.186329 0.0738234 -0.00750963
v 0.191535 0.080029 -0.00795468
v 0.200134 0.0800284 -0.0086372
v 0.220143 0.0666691 -0.0102838
v 0.217391 0.0627693 -0.0100328
v 0.220143 0.0800252 -0.0103399
v 0.227795 0.0723717 -0.0109905
v 0.232229 0.0800237 -0.0114127
v 0.240151 0.0800231 -0.0121185
v 0.260157 0.0800242 -0.0139676
v 0.280162 0.080026 -0.0158871
v 0.300167 0.0739226 -0.0178619
v 0.292388 0.0677987 -0.0170715
v 0.300168 0.0800248 -0.0178778
v 0.302693 0.0774991 -0.0181315
v 0.306843 0.0800248 -0.0185665
v 0.320173 0.0800243 -0.0199388
v 0.340177 0.080022 -0.0220597
v 0.36018 0.0637439 -0.0242023
v 0.357841 0.0623603 -0.0239457
v 0.36018 0.080024 -0.0242269
v 0.380183 0.0714307 -0.0264075
v 0.374052 0.0661527 -0.0257308
v 0.380182 0.0800234 -0.0264169
v 0.386491 0.0737138 -0.0271072
v 0.388645 0.0800233 -0.0273496
v 0.400183 0.0800247 -0.0286228
v 0.420182 0.0800267 -0.0308391
v 0.440183 0.0800279 -0.0330677
v 0.460184 0.0800313 -0.0353089
v 0.480185 0.0800326 -0.0375589
v 0.500187 0.080035 -0.0398223
v 0.520188 0.0800367 -0.0420945
v 0.540188 0.0800407 -0.0443798
v 0.560188 0.0800429 -0.0466728
v 0.58019 0.0800439 -0.0489784
v 0.60019 0.0800469 -0.0512946
v 0.62019 0.0800501 -0.0536232
v 0.640192 0.0800518 -0.0559618
v 0.660194 0.0800529 -0.0583113
v 0.680193 0.0800563 -0.0606716
v 0.700195 0.0800581 -0.0630432
v 0.720196 0.0800591 -0.0654249
v 0.740196 0.0800623 -0.0678184
v 0.760197 0.0800639 -0.0702223
v 0.780198 0.0800669 -0.0726384
v 0.800198 0.0800699 -0.0750641
v 0.820199 0.0800713 -0.0775011
v 0.840201 0.0800743 -0.0799508
v 0.860203 0.0800751 -0.0824099
v 0.880203 0.0800791 -0.0848809
v 0.900204 0.0800803 -0.0873612
v 0.920204 0.080082 -0.0898523
v 0.940205 0.0800849 -0.0923566
v 0.960206 0.0800877 -0.0948714
v 0.980207 0.0800892 -0.0973961
v 1.00021 0.0800924 -0.0999321
v 0.0200041 0.100025 -0.00016825
v 0.0146424 0.100016 -0.000121082
v 0.020008 0.0946594 -0.000144305
v 1.55006e-06 0.0999987 -1.95249e-07
v 0.0240532 0.0959788 -0.000204608
v 0.0245548 0.100027 -0.000251649
v 0.0317336 0.100029 -0.000382189
v 0.0304462 0.0895924 -0.00026426
v 0.0389139 0.100031 -0.000512989
v 0.036838 0.0832086 -0.000325226
v 0.0400221 0.100031 -0.000531936
v 0.0343742 0.0800193 -0.000278858
v 0.0230509 0.0800111 -0.00012444
v 0.0200111 0.0907399 -0.000128899
v 0.0488186 0.0912403 -0.000651605
v 0.0483752 0.100033 -0.000741287
v 0.0582546 0.100036 -0.0009901
v 0.0592187 0.0808441 -0.000790345
v 0.0600384 0.100039 -0.00103529
v 0.0800536 0.100037 -0.00168632
v 0.079504 0.100039 -0.00166976
v 0.0800547 0.0909753 -0.00156734
v 0.10007 0.100041 -0.00249506
v 0.120083 0.10004 -0.0034608
v 0.140097 0.100044 -0.00458336
v 0.160112 0.100043 -0.00586277
v 0.180127 0.100042 -0.00728717
v 0.200137 0.0924543 -0.00876611
v 0.193817 0.0863475 -0.00821089
v 0.200139 0.100036 -0.008847
v 0.20319 0.0969839 -0.0090744
v 0.20474 0.100035 -0.00923012
v 0.220146 0.100033 -0.0105182
v 0.235555 0.0846202 -0.0117507
v 0.23954 0.100029 -0.01222
v 0.240151 0.100031 -0.0122758
v 0.260157 0.100031 -0.0141082
v 0.280161 0.100031 -0.0160133
v 0.300168 0.100031 -0.017991
v 0.320175 0.0899226 -0.0199883
v 0.312489 0.087711 -0.0191922
v 0.320175 0.100028 -0.020035
v 0.325149 0.0950527 -0.020538
v 0.338334 0.100027 -0.0219437
v 0.340178 0.100026 -0.0221359
v 0.36018 0.100024 -0.0242804
v 0.38018 0.100025 -0.0264555
v 0.393282 0.0869246 -0.0278746
v 0.394856 0.100026 -0.0280661
v 0.400181 0.100025 -0.0286501
v 0.420182 0.100026 -0.0308606
v 0.440181 0.100029 -0.0330845
v 0.460183 0.100033 -0.0353245
v 0.480183 0.100035 -0.0375727
v 0.500183 0.100037 -0.0398333
v 0.520185 0.100039 -0.0421059
v 0.540186 0.10004 -0.0443894
v 0.560186 0.100042 -0.0466827
v 0.580186 0.100046 -0.0489887
v 0.600188 0.100049 -0.051307
v 0.62019 0.100049 -0.0536333
v 0.640191 0.100051 -0.0559717
v 0.66019 0.100054 -0.0583208
v 0.680192 0.100055 -0.0606812
v 0.700193 0.100059 -0.0630539
v 0.720195 0.10006 -0.0654362
v 0.740194 0.100064 -0.0678291
v 0.760195 0.100065 -0.070233
v 0.780196 0.100068 -0.0726497
v 0.800198 0.100069 -0.0750755
v 0.820198 0.100073 -0.0775133
v 0.840199 0.100074 -0.0799604
v 0.860198 0.100077 -0.0824194
v 0.8802 0.100079 -0.0848906
v 0.900201 0.100081 -0.0873707
v 0.920202 0.100083 -0.0898639
v 0.940203 0.100085 -0.0923657
v 0.960204 0.100088 -0.0948813
v 0.980204 0.10009 -0.0974053
v 1.00021 0.100092 -0.0999417
v 4.01033e-06 0.0599969 -0.000201
v 2.10093e-06 0.0799972 -0.000199445
v 0.0200196 0.0800107 -0.000283977
v 0.0200205 0.0600026 -0.000262838
v 0.0400339 0.0600064 -0.000484092
v 0.0400363 0.0399937 -0.000483687
v 0.0600466 0.0399935 -0.000904545
v 0.0600476 0.0199814 -0.00102443
v 0.0800601 0.0199804 -0.00165108
v 0.0800614 -3.03883e-05 -0.00193864
v 0.0600457 -3.49616e-05 -0.00127741
v 1.55006e-06 0.0999987 -0.000200195
v 0.0200041 0.100025 -0.00036825
v 0.0400285 0.0800206 -0.000554265
v 0.0600467 0.06001 -0.000897528
v 0.0800607 0.0399965 -0.00151028
v 0.100075 0.0199832 -0.00244707
v 0.100077 -3.12705e-05 -0.00275137
v 0.0400221 0.100031 -0.000731936
v 0.060041 0.080023 -0.00100214
v 0.080058 0.0600091 -0.00150082
v 0.100074 0.0399971 -0.00229739
v 0.120089 0.0199839 -0.00341178
v 0.120091 -2.86846e-05 -0.00371913
v 0.0600384 0.100039 -0.00123529
v 0.0800566 0.0800265 -0.00162238
v 0.100073 0.0600122 -0.00228473
v 0.120086 0.0399993 -0.00325512
v 0.140103 0.0199871 -0.00454245
v 0.140105 -2.56633e-05 -0.00484724
v 0.0800536 0.100037 -0.00188632
v 0.10007 0.080027 -0.00241649
v 0.120085 0.0600137 -0.003246
v 0.140099 0.0400001 -0.00438848
v 0.160116 0.0199899 -0.00584186
v 0.16012 -2.29229e-05 -0.0061281
v 0.10007 0.100041 -0.00269506
v 0.120086 0.0800286 -0.00337813
v 0.140098 0.0600169 -0.00437678
v 0.160112 0.0400044 -0.00569211
v 0.180129 0.0199953 -0.00730268
v 0.180133 -1.52005e-05 -0.00756232
v 0.120083 0.10004 -0.0036608
v 0.140098 0.0800284 -0.00450553
v 0.160112 0.0600167 -0.00567798
v 0.180124 0.0400063 -0.00715924
v 0.200137 0.0199989 -0.00889346
v 0.200142 -7.16861e-06 -0.00912337
v 0.140097 0.100044 -0.00478336
v 0.160112 0.0800318 -0.00579741
v 0.180124 0.0600166 -0.00713735
v 0.200134 0.0400089 -0.00876373
v 0.220144 0.0200041 -0.0105844
v 0.220149 -3.30771e-06 -0.0107873
v 0.160112 0.100043 -0.00606277
v 0.180123 0.0800291 -0.0072448
v 0.200135 0.060017 -0.00874381
v 0.220142 0.0400108 -0.0104718
v 0.240151 0.0200049 -0.0123556
v 0.240152 3.24544e-07 -0.0125363
v 0.180127 0.100042 -0.00748718
v 0.200134 0.0800284 -0.0088372
v 0.220143 0.0600191 -0.0104567
v 0.240151 0.0400105 -0.0122571
v 0.260157 0.0200073 -0.0142018
v 0.260159 6.29603e-07 -0.0143667
v 0.200139 0.100036 -0.009047
v 0.220143 0.0800252 -0.0105399
v 0.240148 0.0600186 -0.012244
v 0.260157 0.0400124 -0.0141135
v 0.280164 0.0200067 -0.0161189
v 0.280165 4.37734e-07 -0.0162682
v 0.220146 0.100033 -0.0107182
v 0.240151 0.0800231 -0.0123185
v 0.260156 0.0600196 -0.0141028
v 0.280164 0.0400123 -0.0160386
v 0.300171 0.0200069 -0.0181057
v 0.300171 8.3278e-07 -0.0182407
v 0.240151 0.100031 -0.0124758
v 0.260157 0.0800242 -0.0141676
v 0.280162 0.0600182 -0.0160276
v 0.300168 0.0400123 -0.0180334
v 0.320176 0.0200085 -0.0201586
v 0.320177 3.97872e-06 -0.020279
v 0.260157 0.100031 -0.0143082
v 0.280162 0.080026 -0.0160871
v 0.300168 0.0600197 -0.0180264
v 0.320172 0.040016 -0.020099
v 0.34018 0.0200116 -0.0222726
v 0.340185 6.73875e-06 -0.0223754
v 0.280161 0.100031 -0.0162133
v 0.300168 0.0800248 -0.0180778
v 0.320173 0.0600189 -0.0200935
v 0.340179 0.0400154 -0.022225
v 0.360185 0.0200145 -0.0244366
v 0.360188 1.26256e-05 -0.0245191
v 0.300168 0.100031 -0.018191
v 0.320173 0.0800243 -0.0201388
v 0.340178 0.0600191 -0.0222222
v 0.360183 0.0400181 -0.0243981
v 0.380187 0.0200178 -0.026631
v 0.380189 1.76364e-05 -0.0266954
v 0.320175 0.100028 -0.020235
v 0.340177 0.080022 -0.0222597
v 0.360181 0.0600204 -0.0243956
v 0.380185 0.0400194 -0.0265986
v 0.400188 0.0200209 -0.0288439
v 0.400191 2.10939e-05 -0.028897
v 0.340178 0.100026 -0.0223359
v 0.36018 0.080024 -0.0244269
v 0.380182 0.0600216 -0.026594
v 0.400186 0.040022 -0.0288153
v 0.420189 0.0200251 -0.0310702
v 0.420191 2.36328e-05 -0.0311127
v 0.36018 0.100024 -0.0244804
v 0.380182 0.0800234 -0.0266169
v 0.400183 0.0600244 -0.0288094
v 0.420186 0.0400259 -0.0310417
v 0.44019 0.0200266 -0.0333012
v 0.440193 2.4963e-05 -0.0333408
v 0.38018 0.100025 -0.0266555
v 0.400183 0.0800247 -0.0288228
v 0.420184 0.0600263 -0.0310321
v 0.440188 0.0400276 -0.0332759
v 0.46019 0.0200285 -0.0355417
v 0.460192 2.84673e-05 -0.0355792
v 0.400181 0.100025 -0.0288501
v 0.420182 0.0800267 -0.0310391
v 0.440186 0.0600278 -0.0332655
v 0.460189 0.0400296 -0.0355185
v 0.480193 0.020031 -0.0377954
v 0.480195 2.9948e-05 -0.0378307
v 0.420182 0.100026 -0.0310606
v 0.440183 0.0800279 -0.0332677
v 0.460187 0.0600297 -0.0355064
v 0.480189 0.0400325 -0.0377709
v 0.500193 0.0200323 -0.0400558
v 0.500195 3.2305e-05 -0.0400914
v 0.440181 0.100029 -0.0332845
v 0.460184 0.0800313 -0.0355089
v 0.480187 0.0600321 -0.0377583
v 0.50019 0.0400341 -0.0400331
v 0.520194 0.0200352 -0.0423295
v 0.520196 3.38712e-05 -0.0423632
v 0.460183 0.100033 -0.0355245
v 0.480185 0.0800326 -0.0377589
v 0.500188 0.0600358 -0.0400223
v 0.520192 0.0400352 -0.0423062
v 0.540195 0.0200381 -0.0446141
v 0.540197 3.76821e-05 -0.0446484
v 0.480183 0.100035 -0.0377727
v 0.500187 0.080035 -0.0400223
v 0.52019 0.0600364 -0.042295
v 0.540192 0.0400386 -0.0445905
v 0.560196 0.0200392 -0.0469076
v 0.560197 3.9589e-05 -0.0469414
v 0.500183 0.100037 -0.0400333
v 0.520188 0.0800367 -0.0422945
v 0.540191 0.0600394 -0.0445798
v 0.560193 0.0400402 -0.0468846
v 0.580195 0.0200414 -0.0492122
v 0.5802 4.01993e-05 -0.0492475
v 0.520185 0.100039 -0.0423059
v 0.540188 0.0800407 -0.0445798
v 0.560191 0.0600406 -0.0468733
v 0.580193 0.040043 -0.0491907
v 0.600198 0.0200431 -0.0515296
v 0.600199 4.269e-05 -0.0515625
v 0.540186 0.10004 -0.0445894
v 0.560188 0.0800429 -0.0468728
v 0.580193 0.0600431 -0.0491797
v 0.600195 0.0400454 -0.0515085
v 0.620197 0.0200474 -0.0538579
v 0.6202 4.52425e-05 -0.0538904
v 0.560186 0.100042 -0.0468827
v 0.58019 0.0800439 -0.0491784
v 0.600192 0.0600451 -0.0514946
v 0.620195 0.040048 -0.0538348
v 0.6402 0.0200477 -0.0561966
v 0.6402 4.86532e-05 -0.0562301
v 0.580186 0.100046 -0.0491887
v 0.60019 0.0800469 -0.0514946
v 0.620194 0.0600473 -0.0538232
v 0.640197 0.0400491 -0.0561736
v 0.660199 0.0200521 -0.0585459
v 0.660201 5.11589e-05 -0.0585793
v 0.600188 0.100049 -0.051507
v 0.62019 0.0800501 -0.0538232
v 0.640194 0.0600504 -0.056162
v 0.660197 0.0400518 -0.0585227
v 0.680199 0.0200539 -0.0609053
v 0.680203 5.34881e-05 -0.060941
v 0.62019 0.100049 -0.0538333
v 0.640192 0.0800518 -0.0561618
v 0.660194 0.0600528 -0.058511
v 0.680198 0.0400544 -0.060884
v 0.7002 0.0200563 -0.0632769
v 0.700204 5.40195e-05 -0.0633107
v 0.640191 0.100051 -0.0561717
v 0.660194 0.0800529 -0.0585113
v 0.680196 0.0600552 -0.0608728
v 0.7002 0.0400554 -0.063255
v 0.720202 0.0200578 -0.0656602
v 0.720204 5.58858e-05 -0.0656926
v 0.66019 0.100054 -0.0585208
v 0.680193 0.0800563 -0.0608716
v 0.700198 0.060056 -0.0632431
v 0.720201 0.0400578 -0.0656376
v 0.740203 0.020059 -0.0680521
v 0.740205 5.97373e-05 -0.0680875
v 0.680192 0.100055 -0.0608812
v 0.700195 0.0800581 -0.0632432
v 0.720199 0.0600582 -0.0656259
v 0.7402 0.0400599 -0.0680297
v 0.760204 0.020063 -0.0704586
v 0.760206 6.17024e-05 -0.0704918
v 0.700193 0.100059 -0.0632539
v 0.720196 0.0800591 -0.0656249
v 0.740198 0.0600626 -0.06802
v 0.760202 0.0400627 -0.0704359
v 0.780205 0.0200638 -0.0728728
v 0.780207 6.25554e-05 -0.0729063
v 0.720195 0.10006 -0.0656362
v 0.740196 0.0800623 -0.0680184
v 0.760199 0.060063 -0.0704225
v 0.780202 0.0400645 -0.0728497
v 0.800206 0.0200665 -0.0752999
v 0.800208 6.5372e-05 -0.075333
v 0.740194 0.100064 -0.0680291
v 0.760197 0.0800639 -0.0704223
v 0.7802 0.0600671 -0.0728397
v 0.800203 0.0400684 -0.075277
v 0.820206 0.0200697 -0.0777375
v 0.820207 6.86061e-05 -0.0777695
v 0.760195 0.100065 -0.070433
v 0.780198 0.0800669 -0.0728384
v 0.8002 0.0600689 -0.0752648
v 0.820203 0.0400706 -0.0777144
v 0.840206 0.020072 -0.0801851
v 0.84021 7.07529e-05 -0.0802192
v 0.780196 0.100068 -0.0728497
v 0.800198 0.0800699 -0.0752641
v 0.820202 0.0600712 -0.0777036
v 0.840205 0.040072 -0.0801623
v 0.860208 0.0200741 -0.0826452
v 0.860209 7.26788e-05 -0.082677
v 0.800198 0.100069 -0.0752755
v 0.820199 0.0800713 -0.0777011
v 0.840204 0.0600728 -0.0801517
v 0.860207 0.0400733 -0.0826214
v 0.880209 0.0200747 -0.0851136
v 0.88021 7.51396e-05 -0.0851475
v 0.820198 0.100073 -0.0777133
v 0.840201 0.0800743 -0.0801508
v 0.860204 0.0600744 -0.0826095
v 0.880206 0.0400753 -0.0850905
v 0.900208 0.0200789 -0.087595
v 0.900211 7.66743e-05 -0.0876282
v 0.840199 0.100074 -0.0801604
v 0.860203 0.0800751 -0.0826099
v 0.880204 0.0600769 -0.0850798
v 0.900208 0.040079 -0.0875739
v 0.92021 0.020081 -0.0900885
v 0.920212 7.82394e-05 -0.0901196
v 0.860198 0.100077 -0.0826194
v 0.880203 0.0800791 -0.0850809
v 0.900206 0.0600788 -0.0875618
v 0.920208 0.0400806 -0.0900641
v 0.940212 0.0200818 -0.0925908
v 0.940214 8.05988e-05 -0.0926244
v 0.8802 0.100079 -0.0850907
v 0.900204 0.0800803 -0.0875612
v 0.920206 0.060081 -0.0900523
v 0.94021 0.0400832 -0.0925686
v 0.960213 0.0200845 -0.0951056
v 0.960214 8.46165e-05 -0.0951391
v 0.900201 0.100081 -0.0875707
v 0.920204 0.080082 -0.0900523
v 0.940207 0.0600843 -0.0925574
v 0.96021 0.0400855 -0.095083
v 0.980213 0.0200875 -0.0976301
v 0.980215 8.66967e-05 -0.0976642
v 0.920202 0.100083 -0.0900639
v 0.940205 0.0800849 -0.0925566
v 0.960208 0.0600853 -0.0950698
v 0.98021 0.0400884 -0.0976075
v 1.00021 0.0200897 -0.100166
v 1.00022 8.77927e-05 -0.1002
v 1.00021 0.100092 -0.100142
v 0.980204 0.10009 -0.0976053
v 1.00021 0.0800924 -0.100132
v 0.960204 0.100088 -0.0950813
v 0.980207 0.0800892 -0.0975961
v 1.00021 0.0600902 -0.100132
v 0.940203 0.100085 -0.0925657
v 0.960206 0.0800877 -0.0950714
v 0.980208 0.0600891 -0.0975957
v 1.00021 0.0400907 -0.100144
v 1.41363e-06 0.0399995 -0.000200938
v 0.0200215 0.0399954 -0.000264621
v 0.0400313 0.0199779 -0.000564875
v 0.0400305 -3.38144e-05 -0.000762387
v 1.86142e-06 0.0199987 -0.000200699
v 0.0200241 0.0199869 -0.000283712
v 0.0200059 -2.96371e-05 -0.000382374
v 3.01199e-06 -8.37114e-07 -0.000202325
v -0.019037 0.022784 -0.151537
v -0.0360704 0.022784 -0.151537
v -0.0360704 0.00476155 -0.151537
v -0.019037 0.00476155 -0.151537
v -0.0351863 0.00573582 -0.151537
v -0.0338602 0.00573582 -0.151537
v -0.0338602 0.0067101 -0.151537
v -0.0351863 0.0067101 -0.151537
v -0.0351863 0.0067101 -0.151537
v -0.0338602 0.0067101 -0.151537
v -0.0338602 0.00768412 -0.151537
v -0.0351863 0.00768412 -0.151537
v -0.0351863 0.00768412 -0.151537
v -0.0338602 0.00768412 -0.151537
v -0.0338602 0.00865839 -0.151537
v -0.0351863 0.00865839 -0.151537
v -0.0351863 0.00865839 -0.151537
v -0.0338602 0.00865839 -0.151537
v -0.0338602 0.00963267 -0.151537
v -0.0351863 0.00963267 -0.151537
v -0.0351863 0.00963267 -0.151537
v -0.0338602 0.00963267 -0.151537
v -0.0338602 0.0106067 -0.151537
v -0.0351863 0.0106067 -0.151537
v -0.0351863 0.0106067 -0.151537
v -0.0338602 0.0106067 -0.151537
v -0.0338602 0.011581 -0.151537
v -0.0351863 0.011581 -0.151537
v -0.0351863 0.011581 -0.151537
v -0.0338602 0.011581 -0.151537
v -0.0338602 0.0125552 -0.151537
v -0.0351863 0.0125552 -0.151537
v -0.0351863 0.0125552 -0.151537
v -0.0338602 0.0125552 -0.151537
v -0.0338602 0.0135293 -0.151537
v -0.0351863 0.0135293 -0.151537
v -0.0351863 0.0135293 -0.151537
v -0.0338602 0.0135293 -0.151537
v -0.0338602 0.0145035 -0.151537
v -0.0351863 0.0145035 -0.151537
v -0.0351863 0.0145035 -0.151537
v -0.0338602 0.0145035 -0.151537
v -0.0338602 0.0154776 -0.151537
v -0.0351863 0.0154776 -0.151537
v -0.0351863 0.0154776 -0.151537
v -0.0338602 0.0154776 -0.151537
v -0.0338602 0.0164518 -0.151537
v -0.0351863 0.0164518 -0.151537
v -0.0351863 0.0164518 -0.151537
v -0.0338602 0.0164518 -0.151537
v -0.0338602 0.0174261 -0.151537
v -0.0351863 0.0174261 -0.151537
v -0.0351863 0.00573582 -0.151537
v -0.0334181 0.00573582 -0.151537
v -0.0351863 0.0067101 -0.151537
v -0.0334181 0.0067101 -0.151537
v -0.0351863 0.00768412 -0.151537
v -0.0334181 0.00768412 -0.151537
v -0.0351863 0.00865839 -0.151537
v -0.0334181 0.00865839 -0.151537
v -0.0351863 0.00963267 -0.151537
v -0.0334181 0.00963267 -0.151537
v -0.0351863 0.0106067 -0.151537
v -0.0334181 0.0106067 -0.151537
v -0.0351863 0.011581 -0.151537
v -0.0334181 0.011581 -0.151537
v -0.0351863 0.0125552 -0.151537
v -0.0334181 0.0125552 -0.151537
v -0.0351863 0.0135293 -0.151537
v -0.0334181 0.0135293 -0.151537
v -0.0351863 0.0145035 -0.151537
v -0.0334181 0.0145035 -0.151537
v -0.0351863 0.0154776 -0.151537
v -0.0334181 0.0154776 -0.151537
v -0.0351863 0.0164518 -0.151537
v -0.0334181 0.0164518 -0.151537
v -0.0351863 0.0174261 -0.151537
v -0.0334181 0.0174261 -0.151537
v -0.0338602 0.0174261 -0.151537
v -0.0338602 0.00573582 -0.151537

#List of body polygons
f 1 2 3
f 1 3 6
f 1 14 15
f 380 381 382
f 380 384 385
f 384 380 393

#List of body polygons
f 2 4 3
f 2 5 4
f 3 7 6
f 3 4 7
f 381 303 382
f 381 383 303
f 303 383 302

#List of body polygons
f 8 9 10
f 8 17 18
f 23 8 10
f 23 17 8
f 23 24 17
f 149 8 148
f 152 8 149
f 152 153 8
f 152 154 153
f 8 18 148
f 304 303 305
f 304 306 303
f 303 307 305
f 314 306 313
f 306 304 313
f 389 390 388
f 389 306 390
f 306 389 391
f 390 394 395
f 394 306 314
f 394 390 306

#List of body polygons
f 9 11 10
f 9 12 11
f 9 13 12
f 16 11 12
f 11 23 10
f 154 5 153
f 387 388 386
f 387 389 388
f 389 392 391
f 389 387 392

#List of body polygons
f 13 5 12
f 14 5 15
f 14 12 5
f 14 16 12
f 384 386 385
f 384 387 386
f 387 303 392
f 387 393 303
f 387 384 393

#List of body polygons
f 17 19 18
f 17 20 19
f 24 20 17
f 24 25 20
f 146 147 145
f 146 148 147
f 146 149 148
f 151 149 146
f 151 152 149
f 155 147 156
f 155 157 147
f 18 147 148
f 18 156 147
f 18 19 156
f 157 158 159
f 158 157 155
f 232 233 231
f 232 147 233
f 147 232 145
f 157 234 233
f 157 233 147
f 234 235 236
f 235 157 159
f 235 234 157
f 233 304 305
f 307 233 305
f 307 231 233
f 307 308 231
f 311 234 312
f 311 313 234
f 311 314 313
f 304 234 313
f 304 233 234
f 234 236 312
f 394 396 395
f 394 397 396
f 397 314 311
f 397 394 314

#List of body polygons
f 20 21 19
f 20 22 21
f 25 22 20
f 21 26 27
f 26 22 30
f 26 21 22
f 143 145 144
f 143 146 145
f 150 146 143
f 150 151 146
f 21 155 156
f 19 21 156
f 158 160 159
f 158 161 160
f 158 162 161
f 162 21 27
f 162 155 21
f 162 158 155
f 160 163 164
f 160 161 163
f 229 231 230
f 229 232 231
f 232 144 145
f 232 229 144
f 235 237 236
f 235 160 237
f 160 235 159
f 237 238 239
f 238 160 164
f 238 237 160
f 308 230 231
f 308 309 230
f 310 311 312
f 237 315 310
f 236 310 312
f 236 237 310
f 315 316 317
f 316 237 239
f 316 315 237
f 397 398 396
f 397 310 398
f 310 397 311
f 400 315 401
f 400 398 315
f 315 398 310
f 315 317 401

#List of body polygons
f 26 28 27
f 26 29 28
f 29 26 30
f 31 32 28
f 31 28 29
f 33 34 32
f 33 32 31
f 35 36 34
f 35 34 33
f 37 38 36
f 37 36 35
f 39 40 38
f 39 38 37
f 42 44 43
f 42 40 44
f 44 40 39
f 44 47 43
f 135 136 137
f 135 143 144
f 135 150 143
f 162 28 161
f 28 162 27
f 163 165 164
f 163 32 165
f 161 32 163
f 161 28 32
f 34 166 165
f 34 165 32
f 36 167 166
f 36 166 34
f 38 168 167
f 38 167 36
f 170 40 171
f 170 168 40
f 40 168 38
f 40 42 171
f 227 228 226
f 227 135 228
f 135 227 136
f 228 229 230
f 229 135 144
f 229 228 135
f 238 240 239
f 238 165 240
f 165 238 164
f 166 241 240
f 166 240 165
f 167 242 241
f 167 241 166
f 168 243 242
f 168 242 167
f 244 243 245
f 244 246 243
f 245 168 170
f 245 243 168
f 246 247 248
f 246 244 247
f 228 296 297
f 228 297 226
f 309 228 230
f 316 318 317
f 316 240 318
f 240 316 239
f 241 319 318
f 241 318 240
f 242 320 319
f 242 319 241
f 243 321 320
f 243 320 242
f 246 322 321
f 246 321 243
f 322 323 324
f 323 246 248
f 323 322 246
f 399 400 401
f 318 402 399
f 317 399 401
f 317 318 399
f 319 403 402
f 319 402 318
f 320 404 403
f 320 403 319
f 321 405 404
f 321 404 320
f 322 406 405
f 322 405 321
f 407 406 408
f 407 409 406
f 408 322 324
f 408 406 322
f 409 410 411
f 409 407 410

#List of body polygons
f 41 42 43
f 45 46 41
f 47 41 43
f 47 45 41
f 49 51 50
f 49 46 51
f 51 46 45
f 51 54 50
f 136 138 137
f 136 139 138
f 169 170 171
f 41 172 169
f 42 169 171
f 42 41 169
f 174 46 175
f 174 172 46
f 46 172 41
f 46 49 175
f 225 226 224
f 225 227 226
f 227 139 136
f 227 225 139
f 169 244 245
f 169 245 170
f 247 249 248
f 247 172 249
f 244 172 247
f 244 169 172
f 249 250 251
f 250 172 174
f 250 249 172
f 296 298 297
f 296 299 298
f 297 224 226
f 297 298 224
f 323 325 324
f 323 249 325
f 249 323 248
f 326 325 327
f 326 328 325
f 327 249 251
f 327 325 249
f 328 329 330
f 328 326 329
f 325 407 408
f 325 408 324
f 410 412 411
f 410 328 412
f 407 328 410
f 407 325 328
f 412 413 414
f 413 328 330
f 413 412 328

#List of body polygons
f 48 49 50
f 52 53 48
f 54 48 50
f 54 52 48
f 55 56 53
f 55 53 52
f 57 58 56
f 57 56 55
f 60 62 61
f 60 58 62
f 62 58 57
f 62 65 61
f 139 140 138
f 139 141 140
f 173 174 175
f 48 176 173
f 49 173 175
f 49 48 173
f 53 177 176
f 53 176 48
f 56 178 177
f 56 177 53
f 180 58 181
f 180 178 58
f 58 178 56
f 58 60 181
f 222 224 223
f 222 225 224
f 225 141 139
f 225 222 141
f 250 252 251
f 250 173 252
f 173 250 174
f 176 253 252
f 176 252 173
f 177 254 253
f 177 253 176
f 178 255 254
f 178 254 177
f 255 256 257
f 256 178 180
f 256 255 178
f 299 300 298
f 299 301 300
f 298 223 224
f 298 300 223
f 252 326 327
f 252 327 251
f 329 331 330
f 329 253 331
f 326 253 329
f 326 252 253
f 254 332 331
f 254 331 253
f 255 333 332
f 255 332 254
f 334 333 335
f 334 336 333
f 335 255 257
f 335 333 255
f 336 337 338
f 336 334 337
f 413 415 414
f 413 331 415
f 331 413 330
f 332 416 415
f 332 415 331
f 333 417 416
f 333 416 332
f 336 418 417
f 336 417 333
f 419 418 420
f 419 421 418
f 420 336 338
f 420 418 336
f 421 422 423
f 421 419 422

#List of body polygons
f 59 60 61
f 63 64 59
f 65 59 61
f 65 63 59
f 66 67 64
f 66 64 63
f 68 69 67
f 68 67 66
f 69 70 71
f 70 68 74
f 70 69 68
f 141 5 140
f 141 142 5
f 5 142 4
f 179 180 181
f 59 182 179
f 60 179 181
f 60 59 179
f 64 183 182
f 64 182 59
f 185 67 186
f 185 183 67
f 67 183 64
f 69 187 188
f 186 69 188
f 186 67 69
f 69 71 187
f 221 222 223
f 222 142 141
f 222 221 142
f 256 258 257
f 256 179 258
f 179 256 180
f 182 259 258
f 182 258 179
f 183 260 259
f 183 259 182
f 260 261 262
f 261 183 185
f 261 260 183
f 301 302 300
f 301 303 302
f 300 221 223
f 300 302 221
f 258 334 335
f 258 335 257
f 337 339 338
f 337 259 339
f 334 259 337
f 334 258 259
f 260 340 339
f 260 339 259
f 341 340 342
f 341 343 340
f 342 260 262
f 342 340 260
f 344 343 345
f 344 346 343
f 343 341 345
f 346 347 348
f 346 344 347
f 339 419 420
f 339 420 338
f 422 424 423
f 422 340 424
f 419 340 422
f 419 339 340
f 343 425 424
f 343 424 340
f 346 426 425
f 346 425 343
f 426 427 428
f 427 346 348
f 427 426 346

#List of body polygons
f 70 72 71
f 70 73 72
f 73 70 74
f 75 76 72
f 75 72 73
f 77 78 76
f 77 76 75
f 79 80 78
f 79 78 77
f 81 82 80
f 81 80 79
f 83 84 82
f 83 82 81
f 85 86 84
f 85 84 83
f 87 88 86
f 87 86 85
f 89 90 88
f 89 88 87
f 91 92 90
f 91 90 89
f 93 94 92
f 93 92 91
f 95 96 94
f 95 94 93
f 97 98 96
f 97 96 95
f 99 100 98
f 99 98 97
f 101 102 100
f 101 100 99
f 103 104 102
f 103 102 101
f 105 106 104
f 105 104 103
f 107 108 106
f 107 106 105
f 109 110 108
f 109 108 107
f 111 112 110
f 111 110 109
f 113 114 112
f 113 112 111
f 115 116 114
f 115 114 113
f 117 118 116
f 117 116 115
f 119 120 118
f 119 118 117
f 121 122 120
f 121 120 119
f 123 124 122
f 123 122 121
f 125 126 124
f 125 124 123
f 127 128 126
f 127 126 125
f 129 130 128
f 129 128 127
f 131 132 130
f 131 130 129
f 133 134 132
f 133 132 131
f 184 185 186
f 187 184 188
f 187 189 184
f 184 186 188
f 72 190 189
f 71 189 187
f 71 72 189
f 76 191 190
f 76 190 72
f 78 192 191
f 78 191 76
f 80 193 192
f 80 192 78
f 82 194 193
f 82 193 80
f 84 195 194
f 84 194 82
f 86 196 195
f 86 195 84
f 88 197 196
f 88 196 86
f 90 198 197
f 90 197 88
f 92 199 198
f 92 198 90
f 94 200 199
f 94 199 92
f 96 201 200
f 96 200 94
f 98 202 201
f 98 201 96
f 100 203 202
f 100 202 98
f 102 204 203
f 102 203 100
f 104 205 204
f 104 204 102
f 106 206 205
f 106 205 104
f 108 207 206
f 108 206 106
f 110 208 207
f 110 207 108
f 112 209 208
f 112 208 110
f 114 210 209
f 114 209 112
f 116 211 210
f 116 210 114
f 118 212 211
f 118 211 116
f 120 213 212
f 120 212 118
f 122 214 213
f 122 213 120
f 124 215 214
f 124 214 122
f 126 216 215
f 126 215 124
f 128 217 216
f 128 216 126
f 130 218 217
f 130 217 128
f 132 219 218
f 132 218 130
f 134 220 219
f 134 219 132
f 261 263 262
f 261 184 263
f 184 261 185
f 189 264 263
f 189 263 184
f 190 265 264
f 190 264 189
f 191 266 265
f 191 265 190
f 192 267 266
f 192 266 191
f 193 268 267
f 193 267 192
f 194 269 268
f 194 268 193
f 195 270 269
f 195 269 194
f 196 271 270
f 196 270 195
f 197 272 271
f 197 271 196
f 198 273 272
f 198 272 197
f 199 274 273
f 199 273 198
f 200 275 274
f 200 274 199
f 201 276 275
f 201 275 200
f 202 277 276
f 202 276 201
f 203 278 277
f 203 277 202
f 204 279 278
f 204 278 203
f 205 280 279
f 205 279 204
f 206 281 280
f 206 280 205
f 207 282 281
f 207 281 206
f 208 283 282
f 208 282 207
f 209 284 283
f 209 283 208
f 210 285 284
f 210 284 209
f 211 286 285
f 211 285 210
f 212 287 286
f 212 286 211
f 213 288 287
f 213 287 212
f 214 289 288
f 214 288 213
f 215 290 289
f 215 289 214
f 216 291 290
f 216 290 215
f 217 292 291
f 217 291 216
f 218 293 292
f 218 292 217
f 219 294 293
f 219 293 218
f 220 295 294
f 220 294 219
f 263 341 342
f 263 342 262
f 264 344 345
f 341 264 345
f 341 263 264
f 347 349 348
f 347 265 349
f 344 265 347
f 344 264 265
f 266 350 349
f 266 349 265
f 267 351 350
f 267 350 266
f 268 352 351
f 268 351 267
f 269 353 352
f 269 352 268
f 270 354 353
f 270 353 269
f 271 355 354
f 271 354 270
f 272 356 355
f 272 355 271
f 273 357 356
f 273 356 272
f 274 358 357
f 274 357 273
f 275 359 358
f 275 358 274
f 276 360 359
f 276 359 275
f 277 361 360
f 277 360 276
f 278 362 361
f 278 361 277
f 279 363 362
f 279 362 278
f 280 364 363
f 280 363 279
f 281 365 364
f 281 364 280
f 282 366 365
f 282 365 281
f 283 367 366
f 283 366 282
f 284 368 367
f 284 367 283
f 285 369 368
f 285 368 284
f 286 370 369
f 286 369 285
f 287 371 370
f 287 370 286
f 288 372 371
f 288 371 287
f 289 373 372
f 289 372 288
f 290 374 373
f 290 373 289
f 291 375 374
f 291 374 290
f 292 376 375
f 292 375 291
f 293 377 376
f 293 376 292
f 294 378 377
f 294 377 293
f 295 379 378
f 295 378 294
f 427 429 428
f 427 349 429
f 349 427 348
f 350 430 429
f 350 429 349
f 351 431 430
f 351 430 350
f 352 432 431
f 352 431 351
f 353 433 432
f 353 432 352
f 354 434 433
f 354 433 353
f 355 435 434
f 355 434 354
f 356 436 435
f 356 435 355
f 357 437 436
f 357 436 356
f 358 438 437
f 358 437 357
f 359 439 438
f 359 438 358
f 360 440 439
f 360 439 359
f 361 441 440
f 361 440 360
f 362 442 441
f 362 441 361
f 363 443 442
f 363 442 362
f 364 444 443
f 364 443 363
f 365 445 444
f 365 444 364
f 366 446 445
f 366 445 365
f 367 447 446
f 367 446 366
f 368 448 447
f 368 447 367
f 369 449 448
f 369 448 368
f 370 450 449
f 370 449 369
f 371 451 450
f 371 450 370
f 372 452 451
f 372 451 371
f 373 453 452
f 373 452 372
f 374 454 453
f 374 453 373
f 375 455 454
f 375 454 374
f 376 456 455
f 376 455 375
f 377 457 456
f 377 456 376
f 378 458 457
f 378 457 377
f 379 459 458
f 379 458 378

#List of body lines
l 460 461
l 461 462
l 462 463
l 463 464
l 464 465
l 465 466
l 466 467
l 467 468
l 468 469
l 469 470
l 461 471
l 471 472
l 472 462
l 462 473
l 473 464
l 464 474
l 474 466
l 466 475
l 475 468
l 468 476
l 476 477
l 477 469
l 472 478
l 478 473
l 473 479
l 479 474
l 474 480
l 480 475
l 475 481
l 481 476
l 476 482
l 482 483
l 483 477
l 478 484
l 484 479
l 479 485
l 485 480
l 480 486
l 486 481
l 481 487
l 487 482
l 482 488
l 488 489
l 489 483
l 484 490
l 490 485
l 485 491
l 491 486
l 486 492
l 492 487
l 487 493
l 493 488
l 488 494
l 494 495
l 495 489
l 490 496
l 496 491
l 491 497
l 497 492
l 492 498
l 498 493
l 493 499
l 499 494
l 494 500
l 500 501
l 501 495
l 496 502
l 502 497
l 497 503
l 503 498
l 498 504
l 504 499
l 499 505
l 505 500
l 500 506
l 506 507
l 507 501
l 502 508
l 508 503
l 503 509
l 509 504
l 504 510
l 510 505
l 505 511
l 511 506
l 506 512
l 512 513
l 513 507
l 508 514
l 514 509
l 509 515
l 515 510
l 510 516
l 516 511
l 511 517
l 517 512
l 512 518
l 518 519
l 519 513
l 514 520
l 520 515
l 515 521
l 521 516
l 516 522
l 522 517
l 517 523
l 523 518
l 518 524
l 524 525
l 525 519
l 520 526
l 526 521
l 521 527
l 527 522
l 522 528
l 528 523
l 523 529
l 529 524
l 524 530
l 530 531
l 531 525
l 526 532
l 532 527
l 527 533
l 533 528
l 528 534
l 534 529
l 529 535
l 535 530
l 530 536
l 536 537
l 537 531
l 532 538
l 538 533
l 533 539
l 539 534
l 534 540
l 540 535
l 535 541
l 541 536
l 536 542
l 542 543
l 543 537
l 538 544
l 544 539
l 539 545
l 545 540
l 540 546
l 546 541
l 541 547
l 547 542
l 542 548
l 548 549
l 549 543
l 544 550
l 550 545
l 545 551
l 551 546
l 546 552
l 552 547
l 547 553
l 553 548
l 548 554
l 554 555
l 555 549
l 550 556
l 556 551
l 551 557
l 557 552
l 552 558
l 558 553
l 553 559
l 559 554
l 554 560
l 560 561
l 561 555
l 556 562
l 562 557
l 557 563
l 563 558
l 558 564
l 564 559
l 559 565
l 565 560
l 560 566
l 566 567
l 567 561
l 562 568
l 568 563
l 563 569
l 569 564
l 564 570
l 570 565
l 565 571
l 571 566
l 566 572
l 572 573
l 573 567
l 568 574
l 574 569
l 569 575
l 575 570
l 570 576
l 576 571
l 571 577
l 577 572
l 572 578
l 578 579
l 579 573
l 574 580
l 580 575
l 575 581
l 581 576
l 576 582
l 582 577
l 577 583
l 583 578
l 578 584
l 584 585
l 585 579
l 580 586
l 586 581
l 581 587
l 587 582
l 582 588
l 588 583
l 583 589
l 589 584
l 584 590
l 590 591
l 591 585
l 586 592
l 592 587
l 587 593
l 593 588
l 588 594
l 594 589
l 589 595
l 595 590
l 590 596
l 596 597
l 597 591
l 592 598
l 598 593
l 593 599
l 599 594
l 594 600
l 600 595
l 595 601
l 601 596
l 596 602
l 602 603
l 603 597
l 598 604
l 604 599
l 599 605
l 605 600
l 600 606
l 606 601
l 601 607
l 607 602
l 602 608
l 608 609
l 609 603
l 604 610
l 610 605
l 605 611
l 611 606
l 606 612
l 612 607
l 607 613
l 613 608
l 608 614
l 614 615
l 615 609
l 610 616
l 616 611
l 611 617
l 617 612
l 612 618
l 618 613
l 613 619
l 619 614
l 614 620
l 620 621
l 621 615
l 616 622
l 622 617
l 617 623
l 623 618
l 618 624
l 624 619
l 619 625
l 625 620
l 620 626
l 626 627
l 627 621
l 622 628
l 628 623
l 623 629
l 629 624
l 624 630
l 630 625
l 625 631
l 631 626
l 626 632
l 632 633
l 633 627
l 628 634
l 634 629
l 629 635
l 635 630
l 630 636
l 636 631
l 631 637
l 637 632
l 632 638
l 638 639
l 639 633
l 634 640
l 640 635
l 635 641
l 641 636
l 636 642
l 642 637
l 637 643
l 643 638
l 638 644
l 644 645
l 645 639
l 640 646
l 646 641
l 641 647
l 647 642
l 642 648
l 648 643
l 643 649
l 649 644
l 644 650
l 650 651
l 651 645
l 646 652
l 652 647
l 647 653
l 653 648
l 648 654
l 654 649
l 649 655
l 655 650
l 650 656
l 656 657
l 657 651
l 652 658
l 658 653
l 653 659
l 659 654
l 654 660
l 660 655
l 655 661
l 661 656
l 656 662
l 662 663
l 663 657
l 658 664
l 664 659
l 659 665
l 665 660
l 660 666
l 666 661
l 661 667
l 667 662
l 662 668
l 668 669
l 669 663
l 664 670
l 670 665
l 665 671
l 671 666
l 666 672
l 672 667
l 667 673
l 673 668
l 668 674
l 674 675
l 675 669
l 670 676
l 676 671
l 671 677
l 677 672
l 672 678
l 678 673
l 673 679
l 679 674
l 674 680
l 680 681
l 681 675
l 676 682
l 682 677
l 677 683
l 683 678
l 678 684
l 684 679
l 679 685
l 685 680
l 680 686
l 686 687
l 687 681
l 682 688
l 688 683
l 683 689
l 689 684
l 684 690
l 690 685
l 685 691
l 691 686
l 686 692
l 692 693
l 693 687
l 688 694
l 694 689
l 689 695
l 695 690
l 690 696
l 696 691
l 691 697
l 697 692
l 692 698
l 698 699
l 699 693
l 694 700
l 700 695
l 695 701
l 701 696
l 696 702
l 702 697
l 697 703
l 703 698
l 698 704
l 704 705
l 705 699
l 700 706
l 706 701
l 701 707
l 707 702
l 702 708
l 708 703
l 703 709
l 709 704
l 704 710
l 710 711
l 711 705
l 706 712
l 712 707
l 707 713
l 713 708
l 708 714
l 714 709
l 709 715
l 715 710
l 710 716
l 716 717
l 717 711
l 712 718
l 718 713
l 713 719
l 719 714
l 714 720
l 720 715
l 715 721
l 721 716
l 716 722
l 722 723
l 723 717
l 718 724
l 724 719
l 719 725
l 725 720
l 720 726
l 726 721
l 721 727
l 727 722
l 722 728
l 728 729
l 729 723
l 724 730
l 730 725
l 725 731
l 731 726
l 726 732
l 732 727
l 727 733
l 733 728
l 728 734
l 734 735
l 735 729
l 730 736
l 736 731
l 731 737
l 737 732
l 732 738
l 738 733
l 733 739
l 739 734
l 734 740
l 740 741
l 741 735
l 736 742
l 742 737
l 737 743
l 743 738
l 738 744
l 744 739
l 739 745
l 745 740
l 740 746
l 746 747
l 747 741
l 748 749
l 750 748
l 749 751
l 752 749
l 750 752
l 753 750
l 751 754
l 755 751
l 752 755
l 756 752
l 753 756
l 757 753
l 754 742
l 743 754
l 755 743
l 744 755
l 756 744
l 745 756
l 757 745
l 746 757
l 460 758
l 463 460
l 759 463
l 465 759
l 760 465
l 467 760
l 470 467
l 761 470
l 758 762
l 759 758
l 763 759
l 760 763
l 761 760
l 764 761
l 762 765
l 763 762
l 764 763
l 765 764


