#OBJ File generated by Abaqus/CAE
#List of Vertices
v 0.0200045 -1.52975e-05 -9.06475e-05
v 0.0200074 0.0053298 -7.82334e-05
v 0.0146599 0.00533088 -6.51887e-05
v 2.88598e-06 0.0199996 -2.51906e-06
v 0.0200132 0.0199926 -4.45392e-05
v 0.0146606 -1.17976e-05 -6.68163e-05
v 2.5829e-06 -1.77542e-06 -6.89472e-07
v 0.0229753 0.0170279 -7.79301e-05
v 0.0226518 0.0199928 -6.19166e-05
v 0.032405 0.0199905 -0.000131872
v 0.0339185 0.00608033 -0.000206611
v 0.0400167 0.0199874 -0.000187165
v 0.0400153 -1.65637e-05 -0.000280596
v 0.0239881 -1.59747e-05 -0.000129035
v 0.0200089 0.0093003 -6.89859e-05
v 0.0302551 -1.63564e-05 -0.000187548
v 0.0365238 -1.67692e-05 -0.000247574
v 0.0420003 0.0180033 -0.000221313
v 0.0421334 0.0199882 -0.000211776
v 0.0517665 0.0199888 -0.000322986
v 0.0510312 0.0089718 -0.000378672
v 0.0600228 0.0199896 -0.000417574
v 0.0600217 -1.93337e-05 -0.000534976
v 0.0518529 -1.8746e-05 -0.000430715
v 0.0436478 -1.66855e-05 -0.00032623
v 0.0631088 0.0169042 -0.000487346
v 0.0629786 0.0199884 -0.000463097
v 0.0800303 0.0199863 -0.000728634
v 0.0800294 -1.77572e-05 -0.000864554
v 0.0601316 -1.9242e-05 -0.000537681
v 0.0976172 0.00240054 -0.0012018
v 0.0919893 0.0199896 -0.000964372
v 0.100035 0.0199902 -0.00112277
v 0.100037 -1.90198e-05 -0.00126721
v 0.0980219 -1.71171e-05 -0.00122652
v 0.120042 -1.72224e-05 -0.0017441
v 0.120044 0.019987 -0.00159524
v 0.14005 -1.88537e-05 -0.00229949
v 0.14005 0.00823483 -0.00223812
v 0.136433 0.00359753 -0.00217189
v 0.140049 0.0199889 -0.00214663
v 0.130774 -1.65193e-05 -0.0020429
v 0.147767 0.0122718 -0.0024505
v 0.15163 0.0199897 -0.00251285
v 0.160055 0.0199898 -0.00277841
v 0.160056 -1.76718e-05 -0.00293177
v 0.180063 -1.70749e-05 -0.00364377
v 0.180062 0.0199906 -0.00348849
v 0.200069 -1.63948e-05 -0.00443143
v 0.20007 0.0199882 -0.00427499
v 0.220074 -1.6235e-05 -0.00529649
v 0.220077 0.0199886 -0.00514092
v 0.240082 -1.58525e-05 -0.00624164
v 0.240082 0.0199888 -0.00608419
v 0.26009 -1.8304e-05 -0.0072626
v 0.260088 0.0199891 -0.00710549
v 0.280096 -1.78494e-05 -0.00836255
v 0.280095 0.0199895 -0.00820604
v 0.300101 -1.74197e-05 -0.00953934
v 0.300101 0.0199903 -0.00938431
v 0.320107 -1.66136e-05 -0.0107959
v 0.320108 0.0199888 -0.0106402
v 0.340114 -1.81671e-05 -0.0121299
v 0.340114 0.0199903 -0.0119749
v 0.360122 -1.66639e-05 -0.0135446
v 0.36012 0.0199897 -0.0133868
v 0.380127 -1.73467e-05 -0.0150342
v 0.380127 0.0199898 -0.0148781
v 0.400134 -1.73609e-05 -0.016603
v 0.400133 0.0199905 -0.0164475
v 0.42014 -1.68463e-05 -0.0182498
v 0.420141 0.0199895 -0.0180946
v 0.440146 -1.56283e-05 -0.0199754
v 0.440148 0.0199892 -0.0198194
v 0.460154 -1.6217e-05 -0.0217795
v 0.460154 0.0199899 -0.0216228
v 0.480159 -1.5944e-05 -0.0236598
v 0.480162 0.0199889 -0.0235043
v 0.500166 -1.72984e-05 -0.0256182
v 0.500166 0.0199891 -0.0254619
v 0.520173 -1.53007e-05 -0.0276579
v 0.520172 0.0199901 -0.0275005
v 0.540179 -1.72331e-05 -0.029772
v 0.540181 0.01999 -0.0296176
v 0.560185 -1.57124e-05 -0.0319669
v 0.560186 0.0199909 -0.031811
v 0.580192 -1.55994e-05 -0.0342389
v 0.580192 0.0199906 -0.0340824
v 0.600199 -1.6799e-05 -0.0365888
v 0.600199 0.0199915 -0.0364338
v 0.620206 -1.68844e-05 -0.0390167
v 0.620204 0.0199914 -0.0388606
v 0.640211 -1.57717e-05 -0.041523
v 0.640213 0.0199902 -0.0413676
v 0.660218 -1.58763e-05 -0.0441076
v 0.66022 0.0199903 -0.0439527
v 0.680225 -1.47814e-05 -0.0467723
v 0.680224 0.0199918 -0.0466146
v 0.700231 -1.48068e-05 -0.0495126
v 0.700232 0.0199901 -0.0493557
v 0.720239 -1.58881e-05 -0.0523311
v 0.72024 0.0199898 -0.0521749
v 0.740245 -1.57291e-05 -0.0552279
v 0.740244 0.0199909 -0.055071
v 0.760251 -1.65575e-05 -0.0582025
v 0.760252 0.0199912 -0.0580474
v 0.780258 -1.61233e-05 -0.0612566
v 0.780257 0.0199906 -0.061099
v 0.800264 -1.43963e-05 -0.064389
v 0.800264 0.0199916 -0.0642314
v 0.82027 -1.59444e-05 -0.0675961
v 0.820271 0.0199917 -0.0674422
v 0.840277 -1.6146e-05 -0.0708847
v 0.840276 0.0199911 -0.070728
v 0.860284 -1.50551e-05 -0.0742516
v 0.860283 0.019992 -0.0740946
v 0.880289 -1.49683e-05 -0.0776944
v 0.88029 0.0199922 -0.0775395
v 0.900296 -1.58481e-05 -0.0812156
v 0.900297 0.0199915 -0.0810614
v 0.920303 -1.54356e-05 -0.084817
v 0.920303 0.0199924 -0.0846619
v 0.940309 -1.60416e-05 -0.0884941
v 0.94031 0.0199925 -0.0883405
v 0.960317 -1.53928e-05 -0.0922527
v 0.960316 0.0199918 -0.0920961
v 0.980323 -1.57783e-05 -0.0960863
v 0.980321 0.0199925 -0.09593
v 1.00033 -1.50481e-05 -0.0999987
v 1.00033 0.0199924 -0.099844
v 0.0200104 0.0399963 -3.35742e-05
v 0.0182224 0.0399959 -3.123e-05
v 0.0200107 0.0383427 -3.48732e-05
v 0.0200124 0.0322265 -3.9471e-05
v 0.0116052 0.039997 -2.06056e-05
v 0.0200114 0.0261089 -3.98554e-05
v 0.00498849 0.0399987 -1.08848e-05
v 3.00505e-06 0.0399995 -2.37337e-06
v 0.0237064 0.036301 -6.31346e-05
v 0.0247118 0.0399954 -6.12961e-05
v 0.0311547 0.0399956 -9.95046e-05
v 0.0287711 0.0312342 -0.000100623
v 0.0375961 0.0399961 -0.000136422
v 0.0338382 0.0261674 -0.000140436
v 0.0400181 0.0399967 -0.000150339
v 0.0400156 0.0252006 -0.000176951
v 0.0389031 0.0211004 -0.000177899
v 0.02001 0.0368806 -3.55209e-05
v 0.0200103 0.032609 -3.78102e-05
v 0.0200115 0.0283368 -4.04426e-05
v 0.0200113 0.0240642 -4.10057e-05
v 0.046119 0.033895 -0.000231674
v 0.0476087 0.0399955 -0.000231655
v 0.0600254 0.0399927 -0.000362219
v 0.0663902 0.0336263 -0.000477593
v 0.0657795 0.0399949 -0.000450374
v 0.0800304 0.0399963 -0.000665771
v 0.0857515 0.0342734 -0.000795043
v 0.0833991 0.0399956 -0.000729934
v 0.100038 0.0399938 -0.00105325
v 0.120044 0.0399957 -0.00152297
v 0.140048 0.0399959 -0.00207165
v 0.160056 0.0314197 -0.00273379
v 0.156383 0.0236627 -0.00264975
v 0.160056 0.0399959 -0.00270141
v 0.164661 0.0353922 -0.0028837
v 0.166627 0.0399955 -0.00293482
v 0.180062 0.039995 -0.00340944
v 0.200068 0.0399968 -0.00419716
v 0.220076 0.0399956 -0.00506354
v 0.240083 0.0399947 -0.00600587
v 0.260089 0.0399963 -0.00702905
v 0.280096 0.0399958 -0.00812888
v 0.300101 0.0399955 -0.00930564
v 0.320108 0.0399957 -0.0105622
v 0.340115 0.0399964 -0.0118976
v 0.360122 0.0399953 -0.013309
v 0.380126 0.0399973 -0.0148
v 0.400134 0.0399951 -0.0163676
v 0.420141 0.0399962 -0.0180165
v 0.440147 0.0399958 -0.0197407
v 0.460154 0.0399964 -0.0215445
v 0.480161 0.0399955 -0.0234252
v 0.500167 0.0399958 -0.025385
v 0.520172 0.0399973 -0.0274225
v 0.54018 0.0399975 -0.0295394
v 0.560186 0.0399967 -0.0317322
v 0.580193 0.0399972 -0.0340052
v 0.600198 0.0399967 -0.0363535
v 0.620205 0.0399975 -0.0387834
v 0.640212 0.0399976 -0.0412901
v 0.66022 0.0399967 -0.0438745
v 0.680225 0.0399974 -0.0465364
v 0.700231 0.0399974 -0.0492773
v 0.720238 0.0399966 -0.0520959
v 0.740245 0.0399974 -0.054994
v 0.760252 0.0399976 -0.057969
v 0.780258 0.0399971 -0.0610218
v 0.800264 0.0399983 -0.064154
v 0.820271 0.0399967 -0.067362
v 0.840278 0.0399967 -0.0706507
v 0.860283 0.0399985 -0.0740166
v 0.880291 0.0399974 -0.0774603
v 0.900297 0.039998 -0.0809825
v 0.920303 0.0399981 -0.0845826
v 0.94031 0.0399976 -0.0882613
v 0.960316 0.0399988 -0.0920183
v 0.980323 0.0399972 -0.095852
v 1.00033 0.0399972 -0.0997651
v 2.45991e-06 0.0599987 -1.05607e-06
v 0.00498769 0.055015 -9.45883e-06
v 0.0049865 0.0599995 -8.59661e-06
v 0.0116064 0.0599989 -2.12815e-05
v 0.0116061 0.0483992 -2.09972e-05
v 0.0182219 0.059999 -3.00944e-05
v 0.018221 0.041786 -3.15151e-05
v 0.0200109 0.0600014 -3.49475e-05
v 0.0247127 0.0553001 -6.20006e-05
v 0.0247118 0.0599997 -6.11263e-05
v 0.0311549 0.0600011 -0.00010039
v 0.0311546 0.0488584 -9.84139e-05
v 0.0375953 0.06 -0.000134688
v 0.0375952 0.0424192 -0.000136179
v 0.0400175 0.0600015 -0.000149346
v 0.0476077 0.0524121 -0.000231255
v 0.0476085 0.0600023 -0.000231755
v 0.0600236 0.0600034 -0.000362115
v 0.0657777 0.054249 -0.000449125
v 0.0657799 0.0600024 -0.000450403
v 0.080031 0.0600001 -0.000664656
v 0.0834002 0.0566316 -0.000730571
v 0.0833998 0.0600013 -0.000730252
v 0.100037 0.0600033 -0.00105379
v 0.120042 0.0600015 -0.00152158
v 0.14005 0.0600019 -0.00207214
v 0.160056 0.0600013 -0.0027014
v 0.166626 0.0534302 -0.00293295
v 0.166628 0.060002 -0.00293559
v 0.180062 0.0600032 -0.00341071
v 0.200069 0.0600021 -0.00419676
v 0.220076 0.0600011 -0.00506126
v 0.240082 0.0600027 -0.0060069
v 0.260088 0.0600021 -0.00702716
v 0.280095 0.0600017 -0.00812681
v 0.300103 0.0600019 -0.00930648
v 0.320109 0.0600024 -0.010563
v 0.340114 0.0600037 -0.0118969
v 0.360121 0.0600031 -0.0133103
v 0.380126 0.0399973 -0.0148
v 0.380128 0.0600034 -0.0148008
v 0.400134 0.060002 -0.0163681
v 0.420142 0.0600017 -0.0180163
v 0.440147 0.0600023 -0.0197401
v 0.460153 0.060004 -0.0215442
v 0.480161 0.060002 -0.0234252
v 0.500166 0.0600037 -0.0253851
v 0.520172 0.0600042 -0.0274225
v 0.540179 0.0600037 -0.029538
v 0.560187 0.0600023 -0.0317324
v 0.580193 0.0600023 -0.0340035
v 0.600198 0.0600038 -0.0363541
v 0.620205 0.0600045 -0.0387837
v 0.640211 0.0600045 -0.041289
v 0.660219 0.0600038 -0.0438746
v 0.680224 0.0600047 -0.0465364
v 0.700232 0.0600028 -0.0492767
v 0.72024 0.0600026 -0.0520964
v 0.740245 0.0600042 -0.0549943
v 0.760252 0.060003 -0.0579687
v 0.780259 0.0600036 -0.0610224
v 0.800264 0.0600038 -0.0641531
v 0.820271 0.0600036 -0.0673631
v 0.840277 0.060003 -0.0706492
v 0.860284 0.0600044 -0.0740171
v 0.880289 0.0600053 -0.0774603
v 0.900297 0.0600036 -0.0809821
v 0.920303 0.0600039 -0.0845815
v 0.940309 0.0600038 -0.0882599
v 0.960316 0.0600055 -0.0920187
v 0.980323 0.0600047 -0.0958527
v 1.00033 0.0600036 -0.0997634
v 0.0200117 0.0616536 -3.46945e-05
v 0.0183576 0.061653 -3.13729e-05
v 0.0122408 0.0677672 -2.1723e-05
v 0.0200123 0.0677709 -3.87416e-05
v 0.00612022 0.073884 -1.11363e-05
v 0.0200127 0.0738866 -4.07732e-05
v 3.43648e-06 0.0799981 -1.48649e-06
v 0.0200116 0.0800032 -4.21688e-05
v 0.0400172 0.0747981 -0.00017836
v 0.0321027 0.067915 -0.000107298
v 0.0400166 0.0800102 -0.000187751
v 0.0200124 0.0759323 -4.1785e-05
v 0.0200119 0.0716603 -3.9284e-05
v 0.0200123 0.0673875 -3.70346e-05
v 0.0200123 0.0631168 -3.63614e-05
v 0.0424133 0.0776137 -0.000208857
v 0.0421343 0.0800095 -0.000212292
v 0.0517656 0.0800084 -0.000321023
v 0.0533158 0.0667101 -0.000302531
v 0.0600247 0.0800073 -0.00041756
v 0.0626323 0.0774003 -0.000450373
v 0.06298 0.0800081 -0.00046427
v 0.0800293 0.0800086 -0.000727884
v 0.0886145 0.0714239 -0.000867185
v 0.0919925 0.0800077 -0.000965315
v 0.100037 0.0800077 -0.00112287
v 0.120043 0.0800093 -0.00159596
v 0.140049 0.0800072 -0.00214673
v 0.160056 0.0800078 -0.0027776
v 0.151631 0.0800097 -0.00251335
v 0.160055 0.0685769 -0.00273408
v 0.180062 0.0800078 -0.00348683
v 0.20007 0.0800081 -0.00427463
v 0.220076 0.0800083 -0.0051403
v 0.240082 0.0800089 -0.00608427
v 0.260088 0.0800096 -0.00710574
v 0.280096 0.0800084 -0.0082061
v 0.300102 0.0800075 -0.00938352
v 0.320107 0.0800099 -0.0106398
v 0.340115 0.0800079 -0.0119746
v 0.360121 0.0800093 -0.0133878
v 0.380128 0.080009 -0.014878
v 0.400134 0.0800097 -0.0164473
v 0.42014 0.080009 -0.018093
v 0.440147 0.0800094 -0.0198193
v 0.440147 0.0600023 -0.0197401
v 0.460154 0.0800086 -0.0216216
v 0.480161 0.0800091 -0.0235039
v 0.500166 0.0800084 -0.0254617
v 0.520174 0.0800093 -0.0275009
v 0.540181 0.0800091 -0.0296172
v 0.560185 0.0800106 -0.0318102
v 0.580194 0.0800088 -0.0340824
v 0.600201 0.0800087 -0.0364328
v 0.620205 0.0800103 -0.0388601
v 0.640213 0.080009 -0.0413666
v 0.660219 0.0800095 -0.0439513
v 0.680225 0.0800094 -0.0466137
v 0.700231 0.0800112 -0.0493556
v 0.720239 0.0800103 -0.0521752
v 0.740244 0.0800114 -0.0550716
v 0.760252 0.0800099 -0.058047
v 0.780258 0.0800103 -0.0611003
v 0.800264 0.0800105 -0.064231
v 0.820272 0.0800104 -0.0674417
v 0.840278 0.0800102 -0.0707289
v 0.860284 0.0800098 -0.0740933
v 0.88029 0.0800114 -0.0775384
v 0.900297 0.0800106 -0.0810606
v 0.920303 0.0800098 -0.0846597
v 0.94031 0.0800109 -0.0883392
v 0.960316 0.0800119 -0.0920964
v 0.980322 0.0800107 -0.0959291
v 1.00033 0.0800113 -0.0998437
v 0.0200055 0.100012 -9.05301e-05
v 0.0146597 0.100008 -6.48111e-05
v 0.0200072 0.0946672 -7.88226e-05
v 3.34197e-06 0.0999987 -1.92269e-06
v 0.0237272 0.0962921 -0.000108677
v 0.023988 0.100011 -0.000127057
v 0.0302563 0.100013 -0.000188196
v 0.0295865 0.0904334 -0.000134947
v 0.0365248 0.100012 -0.000246895
v 0.0354468 0.0845772 -0.000164874
v 0.0400155 0.100014 -0.000280421
v 0.0324055 0.0800073 -0.000131247
v 0.0226532 0.0800048 -6.2456e-05
v 0.0200071 0.0906961 -6.75871e-05
v 0.0438675 0.0961626 -0.000306427
v 0.0436489 0.100015 -0.000326675
v 0.051853 0.100016 -0.000431497
v 0.0525685 0.0874631 -0.000366664
v 0.0600217 0.100016 -0.000534676
v 0.0601258 0.0999119 -0.000536105
v 0.0601335 0.100015 -0.000538117
v 0.0800292 0.100014 -0.000863157
v 0.0929623 0.0870813 -0.00103049
v 0.0980237 0.100016 -0.00122712
v 0.100035 0.100017 -0.0012663
v 0.120045 0.100013 -0.00174524
v 0.14005 0.100016 -0.00230063
v 0.130775 0.100015 -0.00204134
v 0.140051 0.0917629 -0.00223814
v 0.160056 0.100016 -0.00293319
v 0.180062 0.100016 -0.00364203
v 0.20007 0.100016 -0.00443121
v 0.220076 0.100016 -0.00529658
v 0.240082 0.100014 -0.00623842
v 0.260089 0.100015 -0.00726184
v 0.280096 0.100014 -0.00836129
v 0.300101 0.100016 -0.00953982
v 0.320107 0.100016 -0.0107961
v 0.340115 0.100015 -0.0121306
v 0.360123 0.100014 -0.0135437
v 0.380128 0.100015 -0.0150337
v 0.400134 0.100016 -0.0166038
v 0.420141 0.100016 -0.0182512
v 0.440147 0.100015 -0.0199748
v 0.460154 0.100016 -0.0217785
v 0.480161 0.100015 -0.0236599
v 0.500167 0.100016 -0.0256188
v 0.520174 0.100015 -0.0276568
v 0.54018 0.100017 -0.0297737
v 0.560186 0.100017 -0.0319669
v 0.580193 0.100017 -0.0342394
v 0.6002 0.100017 -0.0365895
v 0.620206 0.100015 -0.0390161
v 0.620205 0.0800103 -0.0388601
v 0.640212 0.100016 -0.0415229
v 0.660218 0.100016 -0.0441074
v 0.680225 0.100016 -0.0467703
v 0.700233 0.100016 -0.049512
v 0.700231 0.0800112 -0.0493556
v 0.720238 0.100016 -0.0523294
v 0.740245 0.100017 -0.055228
v 0.760251 0.100016 -0.0582021
v 0.780258 0.100017 -0.0612567
v 0.800264 0.100016 -0.0643862
v 0.820271 0.100017 -0.0675971
v 0.840278 0.100016 -0.070884
v 0.860285 0.100017 -0.0742514
v 0.88029 0.100018 -0.077695
v 0.900297 0.100017 -0.0812162
v 0.920303 0.100018 -0.0848175
v 0.940311 0.100017 -0.0884954
v 0.960317 0.100018 -0.0922525
v 0.980322 0.100017 -0.0960853
v 1.00033 0.100018 -0.1
v 2.45991e-06 0.0599987 -0.000201056
v 3.43648e-06 0.0799981 -0.000201486
v 0.0200116 0.0800032 -0.000242169
v 0.0200109 0.0600014 -0.000234947
v 0.0400175 0.0600015 -0.000349346
v 0.0400181 0.0399967 -0.000350339
v 0.0600254 0.0399927 -0.000562219
v 0.0600228 0.0199896 -0.000617574
v 0.0800303 0.0199863 -0.000928634
v 0.0800294 -1.77572e-05 -0.00106455
v 0.0600217 -1.93337e-05 -0.000734976
v 3.34197e-06 0.0999987 -0.000201923
v 0.0200055 0.100012 -0.00029053
v 0.0400166 0.0800102 -0.000387751
v 0.0600236 0.0600034 -0.000562115
v 0.0800304 0.0399963 -0.000865771
v 0.100035 0.0199902 -0.00132277
v 0.100037 -1.90198e-05 -0.00146721
v 0.0400155 0.100014 -0.000480421
v 0.0600247 0.0800073 -0.00061756
v 0.080031 0.0600001 -0.000864656
v 0.100038 0.0399938 -0.00125325
v 0.120044 0.019987 -0.00179524
v 0.120042 -1.72224e-05 -0.0019441
v 0.0600217 0.100016 -0.000734676
v 0.0800293 0.0800086 -0.000927884
v 0.100037 0.0600033 -0.00125379
v 0.120044 0.0399957 -0.00172297
v 0.140049 0.0199889 -0.00234663
v 0.14005 -1.88537e-05 -0.00249949
v 0.0800292 0.100014 -0.00106316
v 0.100037 0.0800077 -0.00132287
v 0.120042 0.0600015 -0.00172158
v 0.140048 0.0399959 -0.00227165
v 0.160055 0.0199898 -0.00297841
v 0.160056 -1.76718e-05 -0.00313177
v 0.100035 0.100017 -0.0014663
v 0.120043 0.0800093 -0.00179596
v 0.14005 0.0600019 -0.00227214
v 0.160056 0.0399959 -0.00290141
v 0.180062 0.0199906 -0.00368849
v 0.180063 -1.70749e-05 -0.00384377
v 0.120045 0.100013 -0.00194524
v 0.140049 0.0800072 -0.00234673
v 0.160056 0.0600013 -0.0029014
v 0.180062 0.039995 -0.00360944
v 0.20007 0.0199882 -0.00447499
v 0.200069 -1.63948e-05 -0.00463143
v 0.14005 0.100016 -0.00250063
v 0.160056 0.0800078 -0.0029776
v 0.180062 0.0600032 -0.00361071
v 0.200068 0.0399968 -0.00439716
v 0.220077 0.0199886 -0.00534092
v 0.220074 -1.6235e-05 -0.00549649
v 0.160056 0.100016 -0.00313319
v 0.180062 0.0800078 -0.00368683
v 0.200069 0.0600021 -0.00439676
v 0.220076 0.0399956 -0.00526354
v 0.240082 0.0199888 -0.00628419
v 0.240082 -1.58525e-05 -0.00644164
v 0.180062 0.100016 -0.00384203
v 0.20007 0.0800081 -0.00447463
v 0.220076 0.0600011 -0.00526126
v 0.240083 0.0399947 -0.00620587
v 0.260088 0.0199891 -0.00730549
v 0.26009 -1.8304e-05 -0.0074626
v 0.20007 0.100016 -0.00463121
v 0.220076 0.0800083 -0.0053403
v 0.240082 0.0600027 -0.0062069
v 0.260089 0.0399963 -0.00722905
v 0.280095 0.0199895 -0.00840604
v 0.280096 -1.78494e-05 -0.00856255
v 0.220076 0.100016 -0.00549658
v 0.240082 0.0800089 -0.00628427
v 0.260088 0.0600021 -0.00722716
v 0.280096 0.0399958 -0.00832888
v 0.300101 0.0199903 -0.00958431
v 0.300101 -1.74197e-05 -0.00973934
v 0.240082 0.100014 -0.00643842
v 0.260088 0.0800096 -0.00730574
v 0.280095 0.0600017 -0.00832681
v 0.300101 0.0399955 -0.00950564
v 0.320108 0.0199888 -0.0108402
v 0.320107 -1.66136e-05 -0.0109959
v 0.260089 0.100015 -0.00746184
v 0.280096 0.0800084 -0.0084061
v 0.300103 0.0600019 -0.00950648
v 0.320108 0.0399957 -0.0107622
v 0.340114 0.0199903 -0.0121749
v 0.340114 -1.81671e-05 -0.0123299
v 0.280096 0.100014 -0.00856129
v 0.300102 0.0800075 -0.00958352
v 0.320109 0.0600024 -0.010763
v 0.340115 0.0399964 -0.0120976
v 0.36012 0.0199897 -0.0135868
v 0.360122 -1.66639e-05 -0.0137446
v 0.300101 0.100016 -0.00973982
v 0.320107 0.0800099 -0.0108398
v 0.340114 0.0600037 -0.0120969
v 0.360122 0.0399953 -0.013509
v 0.380127 0.0199898 -0.0150781
v 0.380127 -1.73467e-05 -0.0152342
v 0.320107 0.100016 -0.0109961
v 0.340115 0.0800079 -0.0121746
v 0.360121 0.0600031 -0.0135103
v 0.380126 0.0399973 -0.015
v 0.400133 0.0199905 -0.0166475
v 0.400134 -1.73609e-05 -0.016803
v 0.340115 0.100015 -0.0123306
v 0.360121 0.0800093 -0.0135878
v 0.380128 0.0600034 -0.0150008
v 0.400134 0.0399951 -0.0165676
v 0.420141 0.0199895 -0.0182946
v 0.42014 -1.68463e-05 -0.0184498
v 0.360123 0.100014 -0.0137437
v 0.380128 0.080009 -0.015078
v 0.400134 0.060002 -0.0165681
v 0.420141 0.0399962 -0.0182165
v 0.440148 0.0199892 -0.0200194
v 0.440146 -1.56283e-05 -0.0201754
v 0.380128 0.100015 -0.0152337
v 0.400134 0.0800097 -0.0166473
v 0.420142 0.0600017 -0.0182163
v 0.440147 0.0399958 -0.0199407
v 0.460154 0.0199899 -0.0218228
v 0.460154 -1.6217e-05 -0.0219795
v 0.400134 0.100016 -0.0168038
v 0.42014 0.080009 -0.018293
v 0.440147 0.0600023 -0.0199401
v 0.460154 0.0399964 -0.0217445
v 0.480162 0.0199889 -0.0237043
v 0.480159 -1.5944e-05 -0.0238598
v 0.420141 0.100016 -0.0184512
v 0.440147 0.0800094 -0.0200193
v 0.460153 0.060004 -0.0217442
v 0.480161 0.0399955 -0.0236252
v 0.500166 0.0199891 -0.0256619
v 0.500166 -1.72984e-05 -0.0258182
v 0.440147 0.100015 -0.0201748
v 0.460154 0.0800086 -0.0218216
v 0.480161 0.060002 -0.0236252
v 0.500167 0.0399958 -0.025585
v 0.520172 0.0199901 -0.0277005
v 0.520173 -1.53007e-05 -0.0278579
v 0.460154 0.100016 -0.0219785
v 0.480161 0.0800091 -0.0237039
v 0.500166 0.0600037 -0.0255851
v 0.520172 0.0399973 -0.0276225
v 0.540181 0.01999 -0.0298176
v 0.540179 -1.72331e-05 -0.029972
v 0.480161 0.100015 -0.0238599
v 0.500166 0.0800084 -0.0256617
v 0.520172 0.0600042 -0.0276225
v 0.54018 0.0399975 -0.0297394
v 0.560186 0.0199909 -0.032011
v 0.560185 -1.57124e-05 -0.0321668
v 0.500167 0.100016 -0.0258188
v 0.520174 0.0800093 -0.0277009
v 0.540179 0.0600037 -0.029738
v 0.560186 0.0399967 -0.0319322
v 0.580192 0.0199906 -0.0342824
v 0.580192 -1.55994e-05 -0.0344389
v 0.520174 0.100015 -0.0278568
v 0.540181 0.0800091 -0.0298172
v 0.560187 0.0600023 -0.0319324
v 0.580193 0.0399972 -0.0342052
v 0.600199 0.0199915 -0.0366338
v 0.600199 -1.6799e-05 -0.0367888
v 0.54018 0.100017 -0.0299737
v 0.560185 0.0800106 -0.0320102
v 0.580193 0.0600023 -0.0342035
v 0.600198 0.0399967 -0.0365535
v 0.620204 0.0199914 -0.0390606
v 0.620206 -1.68844e-05 -0.0392167
v 0.560186 0.100017 -0.0321669
v 0.580194 0.0800088 -0.0342824
v 0.600198 0.0600038 -0.0365541
v 0.620205 0.0399975 -0.0389834
v 0.640213 0.0199902 -0.0415676
v 0.640211 -1.57717e-05 -0.041723
v 0.580193 0.100017 -0.0344394
v 0.600201 0.0800087 -0.0366328
v 0.620205 0.0600045 -0.0389837
v 0.640212 0.0399976 -0.0414901
v 0.66022 0.0199903 -0.0441527
v 0.660218 -1.58763e-05 -0.0443076
v 0.6002 0.100017 -0.0367895
v 0.620205 0.0800103 -0.0390601
v 0.640211 0.0600045 -0.041489
v 0.66022 0.0399967 -0.0440745
v 0.680224 0.0199918 -0.0468146
v 0.680225 -1.47814e-05 -0.0469723
v 0.620206 0.100015 -0.0392161
v 0.640213 0.080009 -0.0415666
v 0.660219 0.0600038 -0.0440746
v 0.680225 0.0399974 -0.0467364
v 0.700232 0.0199901 -0.0495557
v 0.700231 -1.48068e-05 -0.0497125
v 0.640212 0.100016 -0.0417229
v 0.660219 0.0800095 -0.0441513
v 0.680224 0.0600047 -0.0467364
v 0.700231 0.0399974 -0.0494773
v 0.72024 0.0199898 -0.0523749
v 0.720239 -1.58881e-05 -0.0525311
v 0.660218 0.100016 -0.0443074
v 0.680225 0.0800094 -0.0468137
v 0.700232 0.0600028 -0.0494767
v 0.720238 0.0399966 -0.0522959
v 0.740244 0.0199909 -0.055271
v 0.740245 -1.57291e-05 -0.0554279
v 0.680225 0.100016 -0.0469703
v 0.700231 0.0800112 -0.0495556
v 0.72024 0.0600026 -0.0522964
v 0.740245 0.0399974 -0.055194
v 0.760252 0.0199912 -0.0582474
v 0.760251 -1.65575e-05 -0.0584025
v 0.700233 0.100016 -0.049712
v 0.720239 0.0800103 -0.0523752
v 0.740245 0.0600042 -0.0551943
v 0.760252 0.0399976 -0.058169
v 0.780257 0.0199906 -0.061299
v 0.780258 -1.61233e-05 -0.0614566
v 0.720238 0.100016 -0.0525294
v 0.740244 0.0800114 -0.0552716
v 0.760252 0.060003 -0.0581687
v 0.780258 0.0399971 -0.0612218
v 0.800264 0.0199916 -0.0644314
v 0.800264 -1.43963e-05 -0.064589
v 0.740245 0.100017 -0.0554279
v 0.760252 0.0800099 -0.058247
v 0.780259 0.0600036 -0.0612224
v 0.800264 0.0399983 -0.064354
v 0.820271 0.0199917 -0.0676422
v 0.82027 -1.59444e-05 -0.0677961
v 0.760251 0.100016 -0.0584021
v 0.780258 0.0800103 -0.0613003
v 0.800264 0.0600038 -0.0643531
v 0.820271 0.0399967 -0.067562
v 0.840276 0.0199911 -0.070928
v 0.840277 -1.6146e-05 -0.0710847
v 0.780258 0.100017 -0.0614567
v 0.800264 0.0800105 -0.064431
v 0.820271 0.0600036 -0.0675631
v 0.840278 0.0399967 -0.0708507
v 0.860283 0.019992 -0.0742946
v 0.860284 -1.50551e-05 -0.0744516
v 0.800264 0.100016 -0.0645862
v 0.820272 0.0800104 -0.0676417
v 0.840277 0.060003 -0.0708492
v 0.860283 0.0399985 -0.0742166
v 0.88029 0.0199922 -0.0777395
v 0.880289 -1.49683e-05 -0.0778944
v 0.820271 0.100017 -0.0677971
v 0.840278 0.0800102 -0.0709289
v 0.860284 0.0600044 -0.0742171
v 0.880291 0.0399974 -0.0776603
v 0.900297 0.0199915 -0.0812614
v 0.900296 -1.58481e-05 -0.0814156
v 0.840278 0.100016 -0.071084
v 0.860284 0.0800098 -0.0742933
v 0.880289 0.0600053 -0.0776603
v 0.900297 0.039998 -0.0811825
v 0.920303 0.0199924 -0.0848619
v 0.920303 -1.54356e-05 -0.085017
v 0.860285 0.100017 -0.0744514
v 0.88029 0.0800114 -0.0777384
v 0.900297 0.0600036 -0.0811821
v 0.920303 0.0399981 -0.0847826
v 0.94031 0.0199925 -0.0885405
v 0.940309 -1.60416e-05 -0.0886941
v 0.88029 0.100018 -0.0778951
v 0.900297 0.0800106 -0.0812606
v 0.920303 0.0600039 -0.0847815
v 0.94031 0.0399976 -0.0884613
v 0.960316 0.0199918 -0.0922961
v 0.960317 -1.53928e-05 -0.0924527
v 0.900297 0.100017 -0.0814162
v 0.920303 0.0800098 -0.0848597
v 0.940309 0.0600038 -0.0884599
v 0.960316 0.0399988 -0.0922183
v 0.980321 0.0199925 -0.09613
v 0.980323 -1.57783e-05 -0.0962863
v 0.920303 0.100018 -0.0850175
v 0.94031 0.0800109 -0.0885392
v 0.960316 0.0600055 -0.0922187
v 0.980323 0.0399972 -0.096052
v 1.00033 0.0199924 -0.100044
v 1.00033 -1.50481e-05 -0.100199
v 1.00033 0.100018 -0.1002
v 0.980322 0.100017 -0.0962853
v 1.00033 0.0800113 -0.100044
v 0.960317 0.100018 -0.0924525
v 0.980322 0.0800107 -0.0961291
v 1.00033 0.0600036 -0.0999634
v 0.940311 0.100017 -0.0886954
v 0.960316 0.0800119 -0.0922964
v 0.980323 0.0600047 -0.0960527
v 1.00033 0.0399972 -0.0999651
v 3.00505e-06 0.0399995 -0.000202373
v 0.0200104 0.0399963 -0.000233574
v 0.0400167 0.0199874 -0.000387165
v 0.0400153 -1.65637e-05 -0.000480596
v 2.88598e-06 0.0199996 -0.000202519
v 0.0200132 0.0199926 -0.000244539
v 0.0200045 -1.52975e-05 -0.000290648
v 2.5829e-06 -1.77542e-06 -0.000200689
v -0.019037 0.022784 -0.151537
v -0.0360704 0.022784 -0.151537
v -0.0360704 0.00476155 -0.151537
v -0.019037 0.00476155 -0.151537
v -0.0351863 0.00573582 -0.151537
v -0.0338602 0.00573582 -0.151537
v -0.0338602 0.0067101 -0.151537
v -0.0351863 0.0067101 -0.151537
v -0.0351863 0.0067101 -0.151537
v -0.0338602 0.0067101 -0.151537
v -0.0338602 0.00768412 -0.151537
v -0.0351863 0.00768412 -0.151537
v -0.0351863 0.00768412 -0.151537
v -0.0338602 0.00768412 -0.151537
v -0.0338602 0.00865839 -0.151537
v -0.0351863 0.00865839 -0.151537
v -0.0351863 0.00865839 -0.151537
v -0.0338602 0.00865839 -0.151537
v -0.0338602 0.00963267 -0.151537
v -0.0351863 0.00963267 -0.151537
v -0.0351863 0.00963267 -0.151537
v -0.0338602 0.00963267 -0.151537
v -0.0338602 0.0106067 -0.151537
v -0.0351863 0.0106067 -0.151537
v -0.0351863 0.0106067 -0.151537
v -0.0338602 0.0106067 -0.151537
v -0.0338602 0.011581 -0.151537
v -0.0351863 0.011581 -0.151537
v -0.0351863 0.011581 -0.151537
v -0.0338602 0.011581 -0.151537
v -0.0338602 0.0125552 -0.151537
v -0.0351863 0.0125552 -0.151537
v -0.0351863 0.0125552 -0.151537
v -0.0338602 0.0125552 -0.151537
v -0.0338602 0.0135293 -0.151537
v -0.0351863 0.0135293 -0.151537
v -0.0351863 0.0135293 -0.151537
v -0.0338602 0.0135293 -0.151537
v -0.0338602 0.0145035 -0.151537
v -0.0351863 0.0145035 -0.151537
v -0.0351863 0.0145035 -0.151537
v -0.0338602 0.0145035 -0.151537
v -0.0338602 0.0154776 -0.151537
v -0.0351863 0.0154776 -0.151537
v -0.0351863 0.0154776 -0.151537
v -0.0338602 0.0154776 -0.151537
v -0.0338602 0.0164518 -0.151537
v -0.0351863 0.0164518 -0.151537
v -0.0351863 0.0164518 -0.151537
v -0.0338602 0.0164518 -0.151537
v -0.0338602 0.0174261 -0.151537
v -0.0351863 0.0174261 -0.151537
v -0.0351863 0.00573582 -0.151537
v -0.0334181 0.00573582 -0.151537
v -0.0351863 0.0067101 -0.151537
v -0.0334181 0.0067101 -0.151537
v -0.0351863 0.00768412 -0.151537
v -0.0334181 0.00768412 -0.151537
v -0.0351863 0.00865839 -0.151537
v -0.0334181 0.00865839 -0.151537
v -0.0351863 0.00963267 -0.151537
v -0.0334181 0.00963267 -0.151537
v -0.0351863 0.0106067 -0.151537
v -0.0334181 0.0106067 -0.151537
v -0.0351863 0.011581 -0.151537
v -0.0334181 0.011581 -0.151537
v -0.0351863 0.0125552 -0.151537
v -0.0334181 0.0125552 -0.151537
v -0.0351863 0.0135293 -0.151537
v -0.0334181 0.0135293 -0.151537
v -0.0351863 0.0145035 -0.151537
v -0.0334181 0.0145035 -0.151537
v -0.0351863 0.0154776 -0.151537
v -0.0334181 0.0154776 -0.151537
v -0.0351863 0.0164518 -0.151537
v -0.0334181 0.0164518 -0.151537
v -0.0351863 0.0174261 -0.151537
v -0.0334181 0.0174261 -0.151537
v -0.0338602 0.0174261 -0.151537
v -0.0338602 0.00573582 -0.151537

#List of body polygons
f 1 2 3
f 1 3 6
f 1 14 15
f 356 357 358
f 356 360 361
f 360 356 369

#List of body polygons
f 2 4 3
f 2 5 4
f 3 7 6
f 3 4 7
f 357 289 358
f 357 359 289
f 289 359 288

#List of body polygons
f 5 8 9
f 14 5 15
f 14 8 5
f 14 16 8
f 360 362 361
f 360 363 362
f 363 289 368
f 363 369 289
f 363 360 369

#List of body polygons
f 8 10 9
f 8 11 10
f 16 11 8
f 16 17 11
f 363 364 362
f 363 365 364
f 365 368 367
f 365 363 368

#List of body polygons
f 11 12 10
f 11 13 12
f 17 13 11
f 12 18 19
f 18 13 25
f 18 12 13
f 147 12 146
f 151 12 147
f 151 5 12
f 12 19 146
f 290 289 291
f 290 292 289
f 289 293 291
f 292 297 298
f 297 292 290
f 365 366 364
f 365 292 366
f 292 365 367
f 366 370 371
f 370 292 298
f 370 366 292

#List of body polygons
f 18 20 19
f 18 21 20
f 21 25 24
f 21 18 25
f 144 145 143
f 144 146 145
f 144 147 146
f 150 147 144
f 150 151 147
f 145 152 153
f 19 145 146
f 19 152 145
f 19 20 152
f 223 224 222
f 223 145 224
f 145 223 143
f 224 225 226
f 225 145 153
f 225 224 145
f 224 290 291
f 293 224 291
f 293 222 224
f 293 294 222
f 297 299 298
f 297 300 299
f 300 224 226
f 300 290 224
f 300 297 290
f 370 372 371
f 370 373 372
f 373 298 299
f 373 370 298

#List of body polygons
f 21 22 20
f 21 23 22
f 23 21 24
f 22 26 27
f 26 23 30
f 26 22 23
f 142 143 141
f 142 144 143
f 149 144 142
f 149 150 144
f 152 154 153
f 152 22 154
f 20 22 152
f 154 155 156
f 155 22 27
f 155 154 22
f 221 222 220
f 221 223 222
f 223 141 143
f 223 221 141
f 225 227 226
f 225 154 227
f 154 225 153
f 227 228 229
f 228 154 156
f 228 227 154
f 294 220 222
f 294 295 220
f 300 301 299
f 300 227 301
f 227 300 226
f 301 302 303
f 302 227 229
f 302 301 227
f 373 374 372
f 373 301 374
f 301 373 299
f 374 375 376
f 375 301 303
f 375 374 301

#List of body polygons
f 26 28 27
f 26 29 28
f 29 26 30
f 28 31 32
f 31 29 35
f 31 28 29
f 38 39 40
f 38 40 42
f 43 45 44
f 43 46 45
f 39 46 43
f 39 38 46
f 47 48 45
f 47 45 46
f 49 50 48
f 49 48 47
f 51 52 50
f 51 50 49
f 53 54 52
f 53 52 51
f 55 56 54
f 55 54 53
f 57 58 56
f 57 56 55
f 59 60 58
f 59 58 57
f 61 62 60
f 61 60 59
f 63 64 62
f 63 62 61
f 65 66 64
f 65 64 63
f 67 68 66
f 67 66 65
f 69 70 68
f 69 68 67
f 71 72 70
f 71 70 69
f 73 74 72
f 73 72 71
f 75 76 74
f 75 74 73
f 77 78 76
f 77 76 75
f 79 80 78
f 79 78 77
f 81 82 80
f 81 80 79
f 83 84 82
f 83 82 81
f 85 86 84
f 85 84 83
f 87 88 86
f 87 86 85
f 89 90 88
f 89 88 87
f 91 92 90
f 91 90 89
f 93 94 92
f 93 92 91
f 95 96 94
f 95 94 93
f 97 98 96
f 97 96 95
f 99 100 98
f 99 98 97
f 101 102 100
f 101 100 99
f 103 104 102
f 103 102 101
f 105 106 104
f 105 104 103
f 107 108 106
f 107 106 105
f 109 110 108
f 109 108 107
f 111 112 110
f 111 110 109
f 113 114 112
f 113 112 111
f 115 116 114
f 115 114 113
f 117 118 116
f 117 116 115
f 119 120 118
f 119 118 117
f 121 122 120
f 121 120 119
f 123 124 122
f 123 122 121
f 125 126 124
f 125 124 123
f 127 128 126
f 127 126 125
f 129 130 128
f 129 128 127
f 139 141 140
f 139 142 141
f 148 142 139
f 148 149 142
f 155 157 156
f 155 28 157
f 28 155 27
f 157 158 159
f 158 28 32
f 158 157 28
f 45 163 164
f 45 164 44
f 166 168 167
f 166 48 168
f 163 48 166
f 163 45 48
f 50 169 168
f 50 168 48
f 52 170 169
f 52 169 50
f 54 171 170
f 54 170 52
f 56 172 171
f 56 171 54
f 58 173 172
f 58 172 56
f 60 174 173
f 60 173 58
f 62 175 174
f 62 174 60
f 64 176 175
f 64 175 62
f 66 177 176
f 66 176 64
f 68 178 177
f 68 177 66
f 70 179 178
f 70 178 68
f 72 180 179
f 72 179 70
f 74 181 180
f 74 180 72
f 76 182 181
f 76 181 74
f 78 183 182
f 78 182 76
f 80 184 183
f 80 183 78
f 82 185 184
f 82 184 80
f 84 186 185
f 84 185 82
f 86 187 186
f 86 186 84
f 88 188 187
f 88 187 86
f 90 189 188
f 90 188 88
f 92 190 189
f 92 189 90
f 94 191 190
f 94 190 92
f 96 192 191
f 96 191 94
f 98 193 192
f 98 192 96
f 100 194 193
f 100 193 98
f 102 195 194
f 102 194 100
f 104 196 195
f 104 195 102
f 106 197 196
f 106 196 104
f 108 198 197
f 108 197 106
f 110 199 198
f 110 198 108
f 112 200 199
f 112 199 110
f 114 201 200
f 114 200 112
f 116 202 201
f 116 201 114
f 118 203 202
f 118 202 116
f 120 204 203
f 120 203 118
f 122 205 204
f 122 204 120
f 124 206 205
f 124 205 122
f 126 207 206
f 126 206 124
f 128 208 207
f 128 207 126
f 130 209 208
f 130 208 128
f 218 220 219
f 218 221 220
f 221 140 141
f 221 218 140
f 228 230 229
f 228 157 230
f 157 228 156
f 230 231 232
f 231 157 159
f 231 230 157
f 237 239 238
f 237 168 239
f 168 237 167
f 169 240 239
f 169 239 168
f 170 241 240
f 170 240 169
f 171 242 241
f 171 241 170
f 172 243 242
f 172 242 171
f 173 244 243
f 173 243 172
f 174 245 244
f 174 244 173
f 175 246 245
f 175 245 174
f 176 247 246
f 176 246 175
f 177 248 247
f 177 247 176
f 249 250 248
f 249 248 177
f 179 251 250
f 179 250 249
f 180 252 251
f 180 251 179
f 181 253 252
f 181 252 180
f 182 254 253
f 182 253 181
f 183 255 254
f 183 254 182
f 184 256 255
f 184 255 183
f 185 257 256
f 185 256 184
f 186 258 257
f 186 257 185
f 187 259 258
f 187 258 186
f 188 260 259
f 188 259 187
f 189 261 260
f 189 260 188
f 190 262 261
f 190 261 189
f 191 263 262
f 191 262 190
f 192 264 263
f 192 263 191
f 193 265 264
f 193 264 192
f 194 266 265
f 194 265 193
f 195 267 266
f 195 266 194
f 196 268 267
f 196 267 195
f 197 269 268
f 197 268 196
f 198 270 269
f 198 269 197
f 199 271 270
f 199 270 198
f 200 272 271
f 200 271 199
f 201 273 272
f 201 272 200
f 202 274 273
f 202 273 201
f 203 275 274
f 203 274 202
f 204 276 275
f 204 275 203
f 205 277 276
f 205 276 204
f 206 278 277
f 206 277 205
f 207 279 278
f 207 278 206
f 208 280 279
f 208 279 207
f 209 281 280
f 209 280 208
f 295 219 220
f 295 296 219
f 302 304 303
f 302 230 304
f 230 302 229
f 304 305 306
f 305 230 232
f 305 304 230
f 310 311 312
f 239 313 310
f 238 310 312
f 238 239 310
f 240 314 313
f 240 313 239
f 241 315 314
f 241 314 240
f 242 316 315
f 242 315 241
f 243 317 316
f 243 316 242
f 244 318 317
f 244 317 243
f 245 319 318
f 245 318 244
f 246 320 319
f 246 319 245
f 247 321 320
f 247 320 246
f 248 322 321
f 248 321 247
f 250 323 322
f 250 322 248
f 251 324 323
f 251 323 250
f 252 325 324
f 252 324 251
f 253 326 325
f 327 325 252
f 254 328 326
f 254 326 327
f 255 329 328
f 255 328 254
f 256 330 329
f 256 329 255
f 257 331 330
f 257 330 256
f 258 332 331
f 258 331 257
f 259 333 332
f 259 332 258
f 260 334 333
f 260 333 259
f 261 335 334
f 261 334 260
f 262 336 335
f 262 335 261
f 263 337 336
f 263 336 262
f 264 338 337
f 264 337 263
f 265 339 338
f 265 338 264
f 266 340 339
f 266 339 265
f 267 341 340
f 267 340 266
f 268 342 341
f 268 341 267
f 269 343 342
f 269 342 268
f 270 344 343
f 270 343 269
f 271 345 344
f 271 344 270
f 272 346 345
f 272 345 271
f 273 347 346
f 273 346 272
f 274 348 347
f 274 347 273
f 275 349 348
f 275 348 274
f 276 350 349
f 276 349 275
f 277 351 350
f 277 350 276
f 278 352 351
f 278 351 277
f 279 353 352
f 279 352 278
f 280 354 353
f 280 353 279
f 281 355 354
f 281 354 280
f 375 377 376
f 375 304 377
f 304 375 303
f 377 378 379
f 378 304 306
f 378 377 304
f 382 383 384
f 310 385 382
f 311 382 384
f 311 310 382
f 313 386 385
f 313 385 310
f 314 387 386
f 314 386 313
f 315 388 387
f 315 387 314
f 316 389 388
f 316 388 315
f 317 390 389
f 317 389 316
f 318 391 390
f 318 390 317
f 319 392 391
f 319 391 318
f 320 393 392
f 320 392 319
f 321 394 393
f 321 393 320
f 322 395 394
f 322 394 321
f 323 396 395
f 323 395 322
f 324 397 396
f 324 396 323
f 325 398 397
f 325 397 324
f 326 399 398
f 326 398 325
f 328 400 399
f 328 399 326
f 329 401 400
f 329 400 328
f 330 402 401
f 330 401 329
f 331 403 402
f 331 402 330
f 332 404 403
f 332 403 331
f 333 405 404
f 333 404 332
f 334 406 405
f 334 405 333
f 335 407 406
f 335 406 334
f 336 408 407
f 409 407 335
f 337 410 408
f 337 408 409
f 338 411 410
f 338 410 337
f 339 412 411
f 339 411 338
f 340 413 412
f 414 412 339
f 341 415 413
f 341 413 414
f 342 416 415
f 342 415 341
f 343 417 416
f 343 416 342
f 344 418 417
f 344 417 343
f 345 419 418
f 345 418 344
f 346 420 419
f 346 419 345
f 347 421 420
f 347 420 346
f 348 422 421
f 348 421 347
f 349 423 422
f 349 422 348
f 350 424 423
f 350 423 349
f 351 425 424
f 351 424 350
f 352 426 425
f 352 425 351
f 353 427 426
f 353 426 352
f 354 428 427
f 354 427 353
f 355 429 428
f 355 428 354

#List of body polygons
f 31 33 32
f 31 34 33
f 34 31 35
f 36 37 33
f 36 33 34
f 39 37 40
f 39 41 37
f 40 36 42
f 40 37 36
f 41 43 44
f 41 39 43
f 131 132 133
f 131 139 140
f 131 148 139
f 158 160 159
f 158 33 160
f 33 158 32
f 37 161 160
f 37 160 33
f 41 162 161
f 41 161 37
f 163 162 164
f 163 165 162
f 164 41 44
f 164 162 41
f 165 166 167
f 165 163 166
f 216 217 215
f 216 131 217
f 131 216 132
f 217 218 219
f 218 131 140
f 218 217 131
f 231 233 232
f 231 160 233
f 160 231 159
f 161 234 233
f 161 233 160
f 162 235 234
f 162 234 161
f 165 236 235
f 165 235 162
f 236 237 238
f 237 165 167
f 237 236 165
f 217 282 283
f 217 283 215
f 296 217 219
f 305 307 306
f 305 233 307
f 233 305 232
f 234 308 307
f 234 307 233
f 235 309 308
f 235 308 234
f 311 236 312
f 311 309 236
f 236 309 235
f 236 238 312
f 378 380 379
f 378 307 380
f 307 378 306
f 308 381 380
f 308 380 307
f 383 309 384
f 383 381 309
f 309 381 308
f 309 311 384

#List of body polygons
f 132 134 133
f 132 135 134
f 214 215 213
f 214 216 215
f 216 135 132
f 216 214 135
f 282 284 283
f 282 285 284
f 283 213 215
f 283 284 213

#List of body polygons
f 135 136 134
f 135 137 136
f 211 213 212
f 211 214 213
f 214 137 135
f 214 211 137
f 285 286 284
f 285 287 286
f 284 212 213
f 284 286 212

#List of body polygons
f 137 5 136
f 137 138 5
f 5 138 4
f 210 211 212
f 211 138 137
f 211 210 138
f 287 288 286
f 287 289 288
f 286 210 212
f 286 288 210

#List of body lines
l 430 431
l 431 432
l 432 433
l 433 434
l 434 435
l 435 436
l 436 437
l 437 438
l 438 439
l 439 440
l 431 441
l 441 442
l 442 432
l 432 443
l 443 434
l 434 444
l 444 436
l 436 445
l 445 438
l 438 446
l 446 447
l 447 439
l 442 448
l 448 443
l 443 449
l 449 444
l 444 450
l 450 445
l 445 451
l 451 446
l 446 452
l 452 453
l 453 447
l 448 454
l 454 449
l 449 455
l 455 450
l 450 456
l 456 451
l 451 457
l 457 452
l 452 458
l 458 459
l 459 453
l 454 460
l 460 455
l 455 461
l 461 456
l 456 462
l 462 457
l 457 463
l 463 458
l 458 464
l 464 465
l 465 459
l 460 466
l 466 461
l 461 467
l 467 462
l 462 468
l 468 463
l 463 469
l 469 464
l 464 470
l 470 471
l 471 465
l 466 472
l 472 467
l 467 473
l 473 468
l 468 474
l 474 469
l 469 475
l 475 470
l 470 476
l 476 477
l 477 471
l 472 478
l 478 473
l 473 479
l 479 474
l 474 480
l 480 475
l 475 481
l 481 476
l 476 482
l 482 483
l 483 477
l 478 484
l 484 479
l 479 485
l 485 480
l 480 486
l 486 481
l 481 487
l 487 482
l 482 488
l 488 489
l 489 483
l 484 490
l 490 485
l 485 491
l 491 486
l 486 492
l 492 487
l 487 493
l 493 488
l 488 494
l 494 495
l 495 489
l 490 496
l 496 491
l 491 497
l 497 492
l 492 498
l 498 493
l 493 499
l 499 494
l 494 500
l 500 501
l 501 495
l 496 502
l 502 497
l 497 503
l 503 498
l 498 504
l 504 499
l 499 505
l 505 500
l 500 506
l 506 507
l 507 501
l 502 508
l 508 503
l 503 509
l 509 504
l 504 510
l 510 505
l 505 511
l 511 506
l 506 512
l 512 513
l 513 507
l 508 514
l 514 509
l 509 515
l 515 510
l 510 516
l 516 511
l 511 517
l 517 512
l 512 518
l 518 519
l 519 513
l 514 520
l 520 515
l 515 521
l 521 516
l 516 522
l 522 517
l 517 523
l 523 518
l 518 524
l 524 525
l 525 519
l 520 526
l 526 521
l 521 527
l 527 522
l 522 528
l 528 523
l 523 529
l 529 524
l 524 530
l 530 531
l 531 525
l 526 532
l 532 527
l 527 533
l 533 528
l 528 534
l 534 529
l 529 535
l 535 530
l 530 536
l 536 537
l 537 531
l 532 538
l 538 533
l 533 539
l 539 534
l 534 540
l 540 535
l 535 541
l 541 536
l 536 542
l 542 543
l 543 537
l 538 544
l 544 539
l 539 545
l 545 540
l 540 546
l 546 541
l 541 547
l 547 542
l 542 548
l 548 549
l 549 543
l 544 550
l 550 545
l 545 551
l 551 546
l 546 552
l 552 547
l 547 553
l 553 548
l 548 554
l 554 555
l 555 549
l 550 556
l 556 551
l 551 557
l 557 552
l 552 558
l 558 553
l 553 559
l 559 554
l 554 560
l 560 561
l 561 555
l 556 562
l 562 557
l 557 563
l 563 558
l 558 564
l 564 559
l 559 565
l 565 560
l 560 566
l 566 567
l 567 561
l 562 568
l 568 563
l 563 569
l 569 564
l 564 570
l 570 565
l 565 571
l 571 566
l 566 572
l 572 573
l 573 567
l 568 574
l 574 569
l 569 575
l 575 570
l 570 576
l 576 571
l 571 577
l 577 572
l 572 578
l 578 579
l 579 573
l 574 580
l 580 575
l 575 581
l 581 576
l 576 582
l 582 577
l 577 583
l 583 578
l 578 584
l 584 585
l 585 579
l 580 586
l 586 581
l 581 587
l 587 582
l 582 588
l 588 583
l 583 589
l 589 584
l 584 590
l 590 591
l 591 585
l 586 592
l 592 587
l 587 593
l 593 588
l 588 594
l 594 589
l 589 595
l 595 590
l 590 596
l 596 597
l 597 591
l 592 598
l 598 593
l 593 599
l 599 594
l 594 600
l 600 595
l 595 601
l 601 596
l 596 602
l 602 603
l 603 597
l 598 604
l 604 599
l 599 605
l 605 600
l 600 606
l 606 601
l 601 607
l 607 602
l 602 608
l 608 609
l 609 603
l 604 610
l 610 605
l 605 611
l 611 606
l 606 612
l 612 607
l 607 613
l 613 608
l 608 614
l 614 615
l 615 609
l 610 616
l 616 611
l 611 617
l 617 612
l 612 618
l 618 613
l 613 619
l 619 614
l 614 620
l 620 621
l 621 615
l 616 622
l 622 617
l 617 623
l 623 618
l 618 624
l 624 619
l 619 625
l 625 620
l 620 626
l 626 627
l 627 621
l 622 628
l 628 623
l 623 629
l 629 624
l 624 630
l 630 625
l 625 631
l 631 626
l 626 632
l 632 633
l 633 627
l 628 634
l 634 629
l 629 635
l 635 630
l 630 636
l 636 631
l 631 637
l 637 632
l 632 638
l 638 639
l 639 633
l 634 640
l 640 635
l 635 641
l 641 636
l 636 642
l 642 637
l 637 643
l 643 638
l 638 644
l 644 645
l 645 639
l 640 646
l 646 641
l 641 647
l 647 642
l 642 648
l 648 643
l 643 649
l 649 644
l 644 650
l 650 651
l 651 645
l 646 652
l 652 647
l 647 653
l 653 648
l 648 654
l 654 649
l 649 655
l 655 650
l 650 656
l 656 657
l 657 651
l 652 658
l 658 653
l 653 659
l 659 654
l 654 660
l 660 655
l 655 661
l 661 656
l 656 662
l 662 663
l 663 657
l 658 664
l 664 659
l 659 665
l 665 660
l 660 666
l 666 661
l 661 667
l 667 662
l 662 668
l 668 669
l 669 663
l 664 670
l 670 665
l 665 671
l 671 666
l 666 672
l 672 667
l 667 673
l 673 668
l 668 674
l 674 675
l 675 669
l 670 676
l 676 671
l 671 677
l 677 672
l 672 678
l 678 673
l 673 679
l 679 674
l 674 680
l 680 681
l 681 675
l 676 682
l 682 677
l 677 683
l 683 678
l 678 684
l 684 679
l 679 685
l 685 680
l 680 686
l 686 687
l 687 681
l 682 688
l 688 683
l 683 689
l 689 684
l 684 690
l 690 685
l 685 691
l 691 686
l 686 692
l 692 693
l 693 687
l 688 694
l 694 689
l 689 695
l 695 690
l 690 696
l 696 691
l 691 697
l 697 692
l 692 698
l 698 699
l 699 693
l 694 700
l 700 695
l 695 701
l 701 696
l 696 702
l 702 697
l 697 703
l 703 698
l 698 704
l 704 705
l 705 699
l 700 706
l 706 701
l 701 707
l 707 702
l 702 708
l 708 703
l 703 709
l 709 704
l 704 710
l 710 711
l 711 705
l 706 712
l 712 707
l 707 713
l 713 708
l 708 714
l 714 709
l 709 715
l 715 710
l 710 716
l 716 717
l 717 711
l 718 719
l 720 718
l 719 721
l 722 719
l 720 722
l 723 720
l 721 724
l 725 721
l 722 725
l 726 722
l 723 726
l 727 723
l 724 712
l 713 724
l 725 713
l 714 725
l 726 714
l 715 726
l 727 715
l 716 727
l 430 728
l 433 430
l 729 433
l 435 729
l 730 435
l 437 730
l 440 437
l 731 440
l 728 732
l 729 728
l 733 729
l 730 733
l 731 730
l 734 731
l 732 735
l 733 732
l 734 733
l 735 734


