#OBJ File generated by Abaqus/CAE
#List of Vertices
v 0.0200072 -2.75513e-05 -0.000160984
v 0.0200204 0.0199884 -6.97038e-05
v 2.45923e-06 0.0199978 -5.061e-07
v 1.9949e-06 -2.34921e-06 2.64444e-07
v 0.0229813 0.0170282 -0.000134376
v 0.0225265 0.0199882 -0.000100943
v 0.0313992 0.0199847 -0.000208567
v 0.0334583 0.00654556 -0.000355925
v 0.0400277 0.0199824 -0.000313114
v 0.0400293 -2.68488e-05 -0.000496844
v 0.034332 -2.81434e-05 -0.000399323
v 0.0252461 -2.80501e-05 -0.000247747
v 0.0402724 0.0197385 -0.000321456
v 0.0402868 0.0199825 -0.000318455
v 0.0497321 0.0199824 -0.000503271
v 0.0491607 0.0108502 -0.000598996
v 0.0591758 0.0199862 -0.000690599
v 0.0580525 0.00196073 -0.000878924
v 0.060042 0.0199849 -0.000707133
v 0.0600433 -3.0091e-05 -0.000941045
v 0.0583155 -2.7689e-05 -0.000902959
v 0.050611 -2.92583e-05 -0.000731031
v 0.0429049 -2.81837e-05 -0.000560041
v 0.0776561 0.00237649 -0.00141854
v 0.0780199 0.019986 -0.00119534
v 0.0800537 0.0199872 -0.00125151
v 0.0800575 -2.41293e-05 -0.00151564
v 0.0773018 -2.60949e-05 -0.00143517
v 0.100068 -2.25989e-05 -0.00221987
v 0.100066 0.0199922 -0.00194149
v 0.120082 -1.94643e-05 -0.00306333
v 0.12008 0.0199914 -0.00277768
v 0.140094 -1.75661e-05 -0.00404676
v 0.140092 0.0199975 -0.00376142
v 0.160108 -1.27043e-05 -0.00517045
v 0.160103 0.0200003 -0.00488889
v 0.180121 -8.7239e-06 -0.00642995
v 0.180115 0.0200044 -0.00615978
v 0.20013 -2.83216e-06 -0.00781626
v 0.200125 0.0200081 -0.00756326
v 0.208127 0.0120117 -0.00826828
v 0.204145 0.0200099 -0.00786899
v 0.220135 0.0200138 -0.00908685
v 0.22014 3.97006e-06 -0.00932479
v 0.213844 1.70347e-06 -0.0088502
v 0.240148 7.88491e-06 -0.0109371
v 0.240143 0.0200169 -0.0107129
v 0.260156 1.07165e-05 -0.0126502
v 0.260152 0.0200206 -0.0124371
v 0.280164 1.45618e-05 -0.0144583
v 0.280161 0.0200218 -0.0142571
v 0.300172 1.74259e-05 -0.0163583
v 0.300169 0.0200265 -0.0161735
v 0.320182 2.4055e-05 -0.0183481
v 0.320177 0.0200303 -0.0181815
v 0.340183 0.0200361 -0.0202725
v 0.32326 0.0200312 -0.0185037
v 0.340186 0.0108067 -0.0203383
v 0.34019 2.91755e-05 -0.0204136
v 0.360198 3.69781e-05 -0.0225454
v 0.360188 0.020043 -0.0224323
v 0.356193 3.51369e-05 -0.0221182
v 0.380192 0.0200505 -0.0246406
v 0.37133 0.0200469 -0.0236615
v 0.380197 0.00981757 -0.0246849
v 0.380201 4.69994e-05 -0.0247267
v 0.4002 5.75574e-05 -0.0269386
v 0.400194 0.0200571 -0.0268681
v 0.385543 4.95453e-05 -0.0253177
v 0.410463 0.00979289 -0.0280459
v 0.411984 0.0200609 -0.0281867
v 0.420195 0.0200627 -0.0291028
v 0.420202 6.15172e-05 -0.0291648
v 0.411605 5.87861e-05 -0.0282069
v 0.440201 6.63816e-05 -0.0314029
v 0.440197 0.0200676 -0.0313482
v 0.460203 7.23454e-05 -0.0336586
v 0.460196 0.0200743 -0.0336053
v 0.480204 7.75424e-05 -0.0359276
v 0.480197 0.0200805 -0.0358766
v 0.500204 8.48801e-05 -0.0382123
v 0.5002 0.0200843 -0.0381618
v 0.520206 9.01483e-05 -0.0405112
v 0.5202 0.0200909 -0.0404606
v 0.540208 9.39356e-05 -0.0428234
v 0.540201 0.0200963 -0.0427735
v 0.560209 9.93483e-05 -0.0451511
v 0.560203 0.0201009 -0.0451016
v 0.580208 0.000106995 -0.0474932
v 0.580204 0.0201079 -0.0474451
v 0.600211 0.000110337 -0.0498491
v 0.600205 0.0201129 -0.0498004
v 0.620211 0.000117137 -0.0522194
v 0.620206 0.0201192 -0.0521719
v 0.640213 0.000123355 -0.0546066
v 0.640208 0.0201224 -0.0545558
v 0.660214 0.000127223 -0.0570042
v 0.660209 0.0201282 -0.0569557
v 0.680215 0.00013416 -0.0594199
v 0.680209 0.0201348 -0.059369
v 0.700216 0.000140149 -0.0618478
v 0.70021 0.0201404 -0.0617975
v 0.720218 0.000143527 -0.0642898
v 0.720211 0.0201459 -0.06424
v 0.740219 0.000149662 -0.066747
v 0.740212 0.0201518 -0.0666974
v 0.76022 0.000154612 -0.0692179
v 0.760214 0.0201566 -0.0691692
v 0.780221 0.000161372 -0.0717044
v 0.780215 0.0201611 -0.0716542
v 0.800223 0.000166133 -0.074205
v 0.800217 0.0201682 -0.0741562
v 0.820224 0.000171825 -0.0767196
v 0.820218 0.0201741 -0.0766717
v 0.840224 0.00017696 -0.0792477
v 0.840218 0.0201795 -0.0791996
v 0.860226 0.000182325 -0.081792
v 0.86022 0.0201852 -0.0817441
v 0.880226 0.000188634 -0.0843492
v 0.880222 0.0201897 -0.0843011
v 0.900228 0.000194359 -0.0869228
v 0.900223 0.0201961 -0.0868741
v 0.920229 0.000200418 -0.0895094
v 0.920224 0.0202006 -0.0894596
v 0.940231 0.000205214 -0.0921105
v 0.940225 0.0202063 -0.0920612
v 0.96023 0.000211905 -0.0947257
v 0.960226 0.0202118 -0.0946762
v 0.980232 0.00021682 -0.0973554
v 0.980228 0.0202179 -0.0973072
v 1.00023 0.000220819 -0.099998
v 1.00023 0.0202231 -0.0999498
v 0.0200182 0.0399948 -4.93896e-05
v 0.0180301 0.0399963 -4.53154e-05
v 0.0200186 0.0383864 -5.20678e-05
v 0.0200188 0.0322436 -5.9004e-05
v 0.0104406 0.0399971 -2.59788e-05
v 0.0200186 0.0260993 -6.40665e-05
v 0.00285135 0.0399975 -6.75966e-06
v 1.32114e-06 0.0399993 -7.09496e-07
v 0.0239401 0.0360716 -0.000100273
v 0.0255155 0.0399971 -0.000102787
v 0.0329621 0.0399962 -0.000169616
v 0.0292547 0.0307578 -0.000171978
v 0.040032 0.0399972 -0.000236046
v 0.0400327 0.0390543 -0.000239502
v 0.0345686 0.0254411 -0.000239922
v 0.0400275 0.0204914 -0.00031098
v 0.0398812 0.0201269 -0.000309278
v 0.0200179 0.0365496 -5.27076e-05
v 0.0200206 0.0318808 -5.91667e-05
v 0.0200212 0.027213 -6.44251e-05
v 0.0200209 0.0225435 -6.7195e-05
v 0.0600423 0.0288396 -0.00065834
v 0.0582809 0.0217465 -0.000665946
v 0.060042 0.0399951 -0.000594513
v 0.0619388 0.0380987 -0.000656659
v 0.0620228 0.0399949 -0.000644484
v 0.0791898 0.040001 -0.00109385
v 0.0783644 0.021675 -0.00119487
v 0.0800529 0.0400009 -0.00111608
v 0.100066 0.0400009 -0.00179598
v 0.120077 0.040007 -0.00262779
v 0.140088 0.0400086 -0.00361019
v 0.1601 0.0400131 -0.00474166
v 0.180111 0.0400142 -0.00601637
v 0.200122 0.0400184 -0.00742759
v 0.193781 0.0400184 -0.00698133
v 0.200125 0.0269308 -0.00751693
v 0.220132 0.0400214 -0.00895732
v 0.240141 0.0400254 -0.0105911
v 0.26015 0.0400268 -0.0123212
v 0.280156 0.0400314 -0.0141484
v 0.300165 0.040033 -0.016074
v 0.297946 0.0400343 -0.0158617
v 0.300164 0.0383658 -0.0160836
v 0.320177 0.0223559 -0.0181723
v 0.304554 0.0356456 -0.0165368
v 0.320173 0.0400375 -0.0180982
v 0.340179 0.0400423 -0.0202084
v 0.360183 0.0400489 -0.0223855
v 0.342438 0.040043 -0.020455
v 0.360187 0.0267377 -0.0224177
v 0.380186 0.0400519 -0.0245966
v 0.400187 0.0400586 -0.0268249
v 0.409975 0.0302782 -0.0279406
v 0.411947 0.0400624 -0.0281407
v 0.420188 0.0400642 -0.0290618
v 0.440191 0.0400692 -0.0313104
v 0.460191 0.040076 -0.0335697
v 0.480193 0.0400801 -0.0358405
v 0.500194 0.0400868 -0.0381268
v 0.520194 0.0400916 -0.040425
v 0.540196 0.0400975 -0.0427396
v 0.560196 0.0401028 -0.0450662
v 0.580199 0.040108 -0.0474099
v 0.6002 0.0401138 -0.0497656
v 0.620202 0.0401184 -0.052137
v 0.640203 0.0401249 -0.0545222
v 0.660203 0.0401291 -0.0569198
v 0.680203 0.0401366 -0.0593348
v 0.700205 0.0401409 -0.0617627
v 0.720206 0.0401473 -0.0642065
v 0.740207 0.0401521 -0.0666627
v 0.760209 0.0401581 -0.0691353
v 0.780211 0.0401637 -0.0716218
v 0.80021 0.0401698 -0.0741208
v 0.820212 0.0401748 -0.076636
v 0.840213 0.0401794 -0.0791641
v 0.860215 0.0401845 -0.0817075
v 0.880215 0.0401907 -0.0842651
v 0.900217 0.0401965 -0.0868381
v 0.920217 0.040203 -0.0894251
v 0.940218 0.0402084 -0.0920257
v 0.96022 0.0402138 -0.0946421
v 0.980223 0.0402177 -0.0972719
v 1.00022 0.0402231 -0.0999147
v 3.18768e-06 0.0599974 -7.66793e-07
v 0.00261618 0.0573864 -7.41868e-06
v 0.00307556 0.0599978 -8.80546e-06
v 0.0121117 0.0600015 -3.03399e-05
v 0.0103104 0.0496973 -2.63931e-05
v 0.0200153 0.0600054 -4.89748e-05
v 0.0200168 0.0535303 -4.8001e-05
v 0.0180032 0.0420108 -4.67783e-05
v 0.0208311 0.0591898 -5.62908e-05
v 0.0209871 0.0600053 -5.82968e-05
v 0.0287413 0.0600048 -0.000127734
v 0.027342 0.0526804 -0.000116063
v 0.0364936 0.060007 -0.00019803
v 0.0338519 0.0461735 -0.000177135
v 0.0400302 0.0600056 -0.000231057
v 0.0600405 0.0600108 -0.00058043
v 0.0618043 0.0582484 -0.000628883
v 0.0619658 0.0600127 -0.000630042
v 0.0800495 0.060013 -0.00109942
v 0.0800518 0.0503223 -0.00110705
v 0.0791787 0.0408756 -0.0010932
v 0.0821192 0.0579448 -0.00117243
v 0.0823189 0.0600123 -0.00117478
v 0.100064 0.0600153 -0.00177648
v 0.120074 0.0600177 -0.00260857
v 0.140086 0.0600207 -0.00358931
v 0.160099 0.0600221 -0.00472339
v 0.180109 0.060027 -0.00600066
v 0.193572 0.0465661 -0.00695947
v 0.193275 0.0600282 -0.00692765
v 0.20012 0.0600289 -0.00741179
v 0.220129 0.0600309 -0.00893919
v 0.240138 0.0600335 -0.0105724
v 0.260145 0.0600368 -0.0123017
v 0.280154 0.0600399 -0.0141307
v 0.300165 0.046315 -0.0160699
v 0.298189 0.042009 -0.0158832
v 0.300161 0.0600426 -0.0160585
v 0.301658 0.0585452 -0.0162103
v 0.301421 0.0600427 -0.0161864
v 0.320169 0.0600444 -0.0180864
v 0.340175 0.0600482 -0.0202054
v 0.336524 0.0600462 -0.0198166
v 0.340177 0.0467087 -0.0202075
v 0.360178 0.0600502 -0.0223821
v 0.380181 0.060054 -0.0245901
v 0.400181 0.0600597 -0.0268105
v 0.412737 0.0475111 -0.0282238
v 0.412388 0.0600624 -0.0281746
v 0.420184 0.0600636 -0.0290433
v 0.440184 0.0600711 -0.0312902
v 0.460187 0.0600753 -0.0335485
v 0.480187 0.0600815 -0.0358202
v 0.500189 0.0600878 -0.0381069
v 0.520189 0.0600922 -0.0404046
v 0.540192 0.0600978 -0.0427197
v 0.560192 0.0601027 -0.0450457
v 0.580192 0.06011 -0.0473889
v 0.600194 0.0601154 -0.0497458
v 0.620195 0.0601198 -0.0521152
v 0.640196 0.060126 -0.0545013
v 0.660199 0.0601301 -0.0569006
v 0.680198 0.0601374 -0.0593141
v 0.700201 0.0601416 -0.0617433
v 0.7202 0.060148 -0.0641851
v 0.740202 0.0601528 -0.0666421
v 0.760203 0.0601588 -0.0691141
v 0.780205 0.0601647 -0.0716007
v 0.800205 0.060171 -0.0741005
v 0.820206 0.0601762 -0.0766151
v 0.840208 0.0601812 -0.0791451
v 0.860208 0.0601867 -0.0816872
v 0.88021 0.0601912 -0.0842447
v 0.900211 0.0601978 -0.0868173
v 0.920214 0.0602028 -0.0894052
v 0.940214 0.060209 -0.0920063
v 0.960215 0.0602132 -0.0946207
v 0.980215 0.0602204 -0.0972509
v 1.00022 0.0602249 -0.0998961
v 0.0200171 0.0662582 -5.55452e-05
v 0.0137587 0.0662543 -3.24407e-05
v 0.00660682 0.0734009 -1.71028e-05
v 0.0200152 0.0734093 -6.22763e-05
v 2.88783e-06 0.0799985 -1.55176e-06
v 0.0200151 0.080008 -6.83605e-05
v 0.0400226 0.0800205 -0.000290416
v 0.0250469 0.0800125 -0.000126143
v 0.0400249 0.0743382 -0.000273084
v 0.0200159 0.0608258 -5.00109e-05
v 0.0200174 0.0673766 -5.65782e-05
v 0.0200157 0.073932 -6.44813e-05
v 0.0600346 0.0800217 -0.00066459
v 0.0594994 0.0800236 -0.000655412
v 0.0600372 0.0750765 -0.00064431
v 0.0438978 0.0761462 -0.000345965
v 0.0434808 0.0800194 -0.000355552
v 0.0800482 0.0800261 -0.0011965
v 0.0833637 0.0767114 -0.00129262
v 0.0834679 0.0800282 -0.00131422
v 0.100058 0.0800282 -0.00188309
v 0.120072 0.0800326 -0.00272014
v 0.140083 0.0800336 -0.00370257
v 0.160096 0.0800359 -0.00483214
v 0.180108 0.0800357 -0.00610456
v 0.200117 0.073803 -0.00747701
v 0.194743 0.0654041 -0.00706028
v 0.200118 0.0800371 -0.00750712
v 0.202399 0.0777586 -0.00767268
v 0.20407 0.0800376 -0.00780778
v 0.220126 0.0800379 -0.00902788
v 0.240137 0.0800406 -0.0106546
v 0.260143 0.0800432 -0.0123771
v 0.280152 0.0800465 -0.0142
v 0.300159 0.0800493 -0.0161206
v 0.320167 0.0758037 -0.0181289
v 0.308307 0.0719046 -0.0169215
v 0.320167 0.0800515 -0.0181422
v 0.321572 0.0786459 -0.0182853
v 0.323641 0.0800511 -0.0185085
v 0.340173 0.0800504 -0.0202499
v 0.340175 0.0641492 -0.0202137
v 0.337732 0.0624911 -0.0199534
v 0.360175 0.0769953 -0.0224109
v 0.34957 0.0706569 -0.0212529
v 0.360174 0.0800537 -0.0224176
v 0.363387 0.0768422 -0.0227666
v 0.367811 0.080054 -0.0232548
v 0.380177 0.0800546 -0.0246104
v 0.400177 0.0800596 -0.0268204
v 0.413871 0.0663743 -0.0283433
v 0.412892 0.0800627 -0.0282373
v 0.420179 0.0800665 -0.0290497
v 0.44018 0.0800714 -0.0312903
v 0.460181 0.0800773 -0.0335467
v 0.480182 0.0800825 -0.0358163
v 0.500183 0.0800876 -0.0381003
v 0.520184 0.0800931 -0.0403996
v 0.540185 0.0800997 -0.042713
v 0.560187 0.0801057 -0.0450425
v 0.580187 0.0801092 -0.0473816
v 0.600189 0.0801158 -0.0497397
v 0.620189 0.0801211 -0.0521092
v 0.640192 0.0801261 -0.054495
v 0.660193 0.0801312 -0.0568939
v 0.680194 0.0801373 -0.0593087
v 0.700195 0.0801426 -0.061737
v 0.720197 0.080148 -0.0641796
v 0.740198 0.0801539 -0.0666372
v 0.760198 0.0801589 -0.0691073
v 0.780198 0.080166 -0.0715938
v 0.8002 0.0801715 -0.074095
v 0.820202 0.080176 -0.0766095
v 0.840203 0.0801824 -0.0791392
v 0.860205 0.0801873 -0.0816823
v 0.880205 0.0801934 -0.0842406
v 0.900206 0.0801995 -0.0868132
v 0.920206 0.080204 -0.0893979
v 0.940208 0.0802101 -0.0919998
v 0.96021 0.0802162 -0.0946165
v 0.98021 0.0802212 -0.0972454
v 1.00021 0.0802258 -0.0998886
v 0.0200006 0.10002 -0.000134749
v 0.0130307 0.100012 -8.75841e-05
v 0.0200059 0.0930452 -0.000111745
v 2.89989e-06 0.099998 -9.76315e-07
v 0.0228658 0.0971576 -0.000156636
v 0.0234137 0.100021 -0.000187372
v 0.0307483 0.100025 -0.000297763
v 0.0290286 0.0910009 -0.00020371
v 0.0380838 0.100027 -0.000408163
v 0.0351901 0.0848468 -0.000252123
v 0.040014 0.100029 -0.000436753
v 0.0308683 0.0800162 -0.000189104
v 0.0200156 0.080921 -7.35645e-05
v 0.0200052 0.0939569 -0.000114325
v 0.0483466 0.0917017 -0.000531502
v 0.0481314 0.100032 -0.000608384
v 0.0591513 0.100036 -0.000842337
v 0.0596568 0.0803986 -0.000659735
v 0.0600281 0.100037 -0.000860251
v 0.0800432 0.100037 -0.00142211
v 0.0817588 0.0983231 -0.00146249
v 0.0819143 0.100037 -0.00148672
v 0.100056 0.100042 -0.00212376
v 0.120068 0.100041 -0.00296463
v 0.140082 0.100046 -0.00395003
v 0.160096 0.100045 -0.00507338
v 0.180106 0.100048 -0.00633195
v 0.200118 0.100046 -0.00772203
v 0.209617 0.0905466 -0.00834122
v 0.214829 0.100048 -0.0088283
v 0.220127 0.100048 -0.00922727
v 0.240133 0.10005 -0.0108391
v 0.260141 0.100053 -0.0125519
v 0.280148 0.100056 -0.0143621
v 0.300158 0.100058 -0.0162683
v 0.320166 0.100059 -0.0182669
v 0.340174 0.0927261 -0.0203114
v 0.33024 0.0899848 -0.0192665
v 0.340174 0.100056 -0.0203471
v 0.344448 0.0957813 -0.020789
v 0.349408 0.100054 -0.0213322
v 0.360175 0.100055 -0.0224841
v 0.380175 0.0955676 -0.0246459
v 0.375947 0.0842842 -0.0241614
v 0.380174 0.100056 -0.0246552
v 0.38171 0.0985213 -0.0248222
v 0.381781 0.100056 -0.0248312
v 0.400172 0.100062 -0.0268523
v 0.413321 0.0869215 -0.0282966
v 0.412574 0.100064 -0.028227
v 0.420173 0.100067 -0.0290699
v 0.440175 0.100073 -0.0313075
v 0.460176 0.100078 -0.0335592
v 0.480176 0.100084 -0.0358269
v 0.500177 0.100089 -0.03811
v 0.52018 0.100095 -0.0404097
v 0.540179 0.100101 -0.0427225
v 0.560182 0.100105 -0.045049
v 0.580182 0.100111 -0.0473905
v 0.600184 0.100117 -0.0497486
v 0.620185 0.100122 -0.0521189
v 0.640187 0.100127 -0.0545043
v 0.660188 0.100133 -0.0569036
v 0.680189 0.100139 -0.0593176
v 0.70019 0.100144 -0.0617458
v 0.720192 0.100149 -0.0641889
v 0.740192 0.100155 -0.0666457
v 0.760194 0.100161 -0.0691177
v 0.780194 0.100166 -0.0716016
v 0.800195 0.100171 -0.074102
v 0.820195 0.100178 -0.0766173
v 0.840197 0.100183 -0.0791461
v 0.860199 0.100188 -0.0816899
v 0.8802 0.100195 -0.0842492
v 0.900201 0.100199 -0.0868205
v 0.920203 0.100204 -0.0894071
v 0.940202 0.100211 -0.0920076
v 0.960205 0.100216 -0.0946239
v 0.980206 0.100222 -0.0972538
v 1.00021 0.100227 -0.0998983
v 3.18768e-06 0.0599974 -0.000200767
v 2.88783e-06 0.0799985 -0.000201552
v 0.0200151 0.080008 -0.00026836
v 0.0200153 0.0600054 -0.000248975
v 0.0400302 0.0600056 -0.000431057
v 0.040032 0.0399972 -0.000436046
v 0.060042 0.0399951 -0.000794513
v 0.060042 0.0199849 -0.000907133
v 0.0800537 0.0199872 -0.00145151
v 0.0800575 -2.41293e-05 -0.00171564
v 0.0600433 -3.0091e-05 -0.00114104
v 2.89989e-06 0.099998 -0.000200976
v 0.0200006 0.10002 -0.000334749
v 0.0400226 0.0800205 -0.000490416
v 0.0600405 0.0600108 -0.00078043
v 0.0800529 0.0400009 -0.00131608
v 0.100066 0.0199922 -0.00214149
v 0.100068 -2.25989e-05 -0.00241987
v 0.040014 0.100029 -0.000636753
v 0.0600346 0.0800217 -0.00086459
v 0.0800495 0.060013 -0.00129942
v 0.100066 0.0400009 -0.00199598
v 0.12008 0.0199914 -0.00297768
v 0.120082 -1.94643e-05 -0.00326333
v 0.0600281 0.100037 -0.00106025
v 0.0800482 0.0800261 -0.0013965
v 0.100064 0.0600153 -0.00197648
v 0.120077 0.040007 -0.00282779
v 0.140092 0.0199975 -0.00396142
v 0.140094 -1.75661e-05 -0.00424676
v 0.0800432 0.100037 -0.00162211
v 0.100058 0.0800282 -0.00208309
v 0.120074 0.0600177 -0.00280857
v 0.140088 0.0400086 -0.00381019
v 0.160103 0.0200003 -0.00508889
v 0.160108 -1.27043e-05 -0.00537045
v 0.100056 0.100042 -0.00232376
v 0.120072 0.0800326 -0.00292014
v 0.140086 0.0600207 -0.00378931
v 0.1601 0.0400131 -0.00494166
v 0.180115 0.0200044 -0.00635978
v 0.180121 -8.7239e-06 -0.00662995
v 0.120068 0.100041 -0.00316463
v 0.140083 0.0800336 -0.00390257
v 0.160099 0.0600221 -0.00492339
v 0.180111 0.0400142 -0.00621637
v 0.200125 0.0200081 -0.00776326
v 0.20013 -2.83216e-06 -0.00801626
v 0.140082 0.100046 -0.00415003
v 0.160096 0.0800359 -0.00503214
v 0.180109 0.060027 -0.00620066
v 0.200122 0.0400184 -0.00762759
v 0.220135 0.0200138 -0.00928685
v 0.22014 3.97006e-06 -0.00952479
v 0.160096 0.100045 -0.00527338
v 0.180108 0.0800357 -0.00630456
v 0.20012 0.0600289 -0.00761179
v 0.220132 0.0400214 -0.00915732
v 0.240143 0.0200169 -0.0109129
v 0.240148 7.88491e-06 -0.0111371
v 0.180106 0.100048 -0.00653195
v 0.200118 0.0800371 -0.00770712
v 0.220129 0.0600309 -0.00913919
v 0.240141 0.0400254 -0.0107911
v 0.260152 0.0200206 -0.0126371
v 0.260156 1.07165e-05 -0.0128502
v 0.200118 0.100046 -0.00792203
v 0.220126 0.0800379 -0.00922788
v 0.240138 0.0600335 -0.0107724
v 0.26015 0.0400268 -0.0125212
v 0.280161 0.0200218 -0.0144571
v 0.280164 1.45618e-05 -0.0146583
v 0.220127 0.100048 -0.00942727
v 0.240137 0.0800406 -0.0108546
v 0.260145 0.0600368 -0.0125017
v 0.280156 0.0400314 -0.0143484
v 0.300169 0.0200265 -0.0163734
v 0.300172 1.74259e-05 -0.0165583
v 0.240133 0.10005 -0.0110391
v 0.260143 0.0800432 -0.0125771
v 0.280154 0.0600399 -0.0143307
v 0.300165 0.040033 -0.016274
v 0.320177 0.0200303 -0.0183815
v 0.320182 2.4055e-05 -0.0185481
v 0.260141 0.100053 -0.0127519
v 0.280152 0.0800465 -0.0144
v 0.300161 0.0600426 -0.0162585
v 0.320173 0.0400375 -0.0182982
v 0.340183 0.0200361 -0.0204725
v 0.34019 2.91755e-05 -0.0206136
v 0.280148 0.100056 -0.0145621
v 0.300159 0.0800493 -0.0163206
v 0.320169 0.0600444 -0.0182864
v 0.340179 0.0400423 -0.0204084
v 0.360188 0.020043 -0.0226323
v 0.360198 3.69781e-05 -0.0227454
v 0.300158 0.100058 -0.0164683
v 0.320167 0.0800515 -0.0183422
v 0.340175 0.0600482 -0.0204054
v 0.360183 0.0400489 -0.0225855
v 0.380192 0.0200505 -0.0248406
v 0.380201 4.69994e-05 -0.0249267
v 0.320166 0.100059 -0.0184669
v 0.340173 0.0800504 -0.0204499
v 0.360178 0.0600502 -0.0225821
v 0.380186 0.0400519 -0.0247966
v 0.400194 0.0200571 -0.0270681
v 0.4002 5.75574e-05 -0.0271386
v 0.340174 0.100056 -0.0205471
v 0.360174 0.0800537 -0.0226176
v 0.380181 0.060054 -0.0247901
v 0.400187 0.0400586 -0.0270249
v 0.420195 0.0200627 -0.0293028
v 0.420202 6.15172e-05 -0.0293648
v 0.360175 0.100055 -0.0226841
v 0.380177 0.0800546 -0.0248104
v 0.400181 0.0600597 -0.0270105
v 0.420188 0.0400642 -0.0292618
v 0.440197 0.0200676 -0.0315482
v 0.440201 6.63816e-05 -0.0316029
v 0.380174 0.100056 -0.0248552
v 0.400177 0.0800596 -0.0270204
v 0.420184 0.0600636 -0.0292433
v 0.440191 0.0400692 -0.0315104
v 0.460196 0.0200743 -0.0338053
v 0.460203 7.23454e-05 -0.0338586
v 0.400172 0.100062 -0.0270523
v 0.420179 0.0800665 -0.0292497
v 0.440184 0.0600711 -0.0314902
v 0.460191 0.040076 -0.0337697
v 0.480197 0.0200805 -0.0360766
v 0.480204 7.75424e-05 -0.0361276
v 0.420173 0.100067 -0.0292699
v 0.44018 0.0800714 -0.0314903
v 0.460187 0.0600753 -0.0337485
v 0.480193 0.0400801 -0.0360405
v 0.5002 0.0200843 -0.0383618
v 0.500204 8.48801e-05 -0.0384123
v 0.440175 0.100073 -0.0315075
v 0.460181 0.0800773 -0.0337467
v 0.480187 0.0600815 -0.0360202
v 0.500194 0.0400868 -0.0383268
v 0.5202 0.0200909 -0.0406606
v 0.520206 9.01483e-05 -0.0407112
v 0.460176 0.100078 -0.0337592
v 0.480182 0.0800825 -0.0360163
v 0.500189 0.0600878 -0.0383069
v 0.520194 0.0400916 -0.040625
v 0.540201 0.0200963 -0.0429735
v 0.540208 9.39356e-05 -0.0430234
v 0.480176 0.100084 -0.0360269
v 0.500183 0.0800876 -0.0383003
v 0.520189 0.0600922 -0.0406046
v 0.540196 0.0400975 -0.0429396
v 0.560203 0.0201009 -0.0453016
v 0.560209 9.93483e-05 -0.0453511
v 0.500177 0.100089 -0.03831
v 0.520184 0.0800931 -0.0405996
v 0.540192 0.0600978 -0.0429197
v 0.560196 0.0401028 -0.0452662
v 0.580204 0.0201079 -0.0476451
v 0.580208 0.000106995 -0.0476932
v 0.52018 0.100095 -0.0406097
v 0.540185 0.0800997 -0.042913
v 0.560192 0.0601027 -0.0452457
v 0.580199 0.040108 -0.0476099
v 0.600205 0.0201129 -0.0500004
v 0.600211 0.000110337 -0.0500491
v 0.540179 0.100101 -0.0429225
v 0.560187 0.0801057 -0.0452425
v 0.580192 0.06011 -0.0475889
v 0.6002 0.0401138 -0.0499656
v 0.620206 0.0201192 -0.0523719
v 0.620211 0.000117137 -0.0524194
v 0.560182 0.100105 -0.045249
v 0.580187 0.0801092 -0.0475816
v 0.600194 0.0601154 -0.0499458
v 0.620202 0.0401184 -0.052337
v 0.640208 0.0201224 -0.0547558
v 0.640213 0.000123355 -0.0548066
v 0.580182 0.100111 -0.0475905
v 0.600189 0.0801158 -0.0499397
v 0.620195 0.0601198 -0.0523152
v 0.640203 0.0401249 -0.0547222
v 0.660209 0.0201282 -0.0571557
v 0.660214 0.000127223 -0.0572042
v 0.600184 0.100117 -0.0499486
v 0.620189 0.0801211 -0.0523092
v 0.640196 0.060126 -0.0547013
v 0.660203 0.0401291 -0.0571198
v 0.680209 0.0201348 -0.059569
v 0.680215 0.00013416 -0.0596199
v 0.620185 0.100122 -0.0523189
v 0.640192 0.0801261 -0.054695
v 0.660199 0.0601301 -0.0571006
v 0.680203 0.0401366 -0.0595348
v 0.70021 0.0201404 -0.0619975
v 0.700216 0.000140149 -0.0620478
v 0.640187 0.100127 -0.0547043
v 0.660193 0.0801312 -0.0570939
v 0.680198 0.0601374 -0.0595141
v 0.700205 0.0401409 -0.0619627
v 0.720211 0.0201459 -0.06444
v 0.720218 0.000143527 -0.0644898
v 0.660188 0.100133 -0.0571036
v 0.680194 0.0801373 -0.0595087
v 0.700201 0.0601416 -0.0619433
v 0.720206 0.0401473 -0.0644065
v 0.740212 0.0201518 -0.0668974
v 0.740219 0.000149662 -0.066947
v 0.680189 0.100139 -0.0595176
v 0.700195 0.0801426 -0.061937
v 0.7202 0.060148 -0.0643851
v 0.740207 0.0401521 -0.0668627
v 0.760214 0.0201566 -0.0693692
v 0.76022 0.000154612 -0.0694179
v 0.70019 0.100144 -0.0619458
v 0.720197 0.080148 -0.0643796
v 0.740202 0.0601528 -0.0668421
v 0.760209 0.0401581 -0.0693353
v 0.780215 0.0201611 -0.0718542
v 0.780221 0.000161372 -0.0719044
v 0.720192 0.100149 -0.0643889
v 0.740198 0.0801539 -0.0668372
v 0.760203 0.0601588 -0.0693141
v 0.780211 0.0401637 -0.0718218
v 0.800217 0.0201682 -0.0743562
v 0.800223 0.000166133 -0.074405
v 0.740192 0.100155 -0.0668457
v 0.760198 0.0801589 -0.0693073
v 0.780205 0.0601647 -0.0718007
v 0.80021 0.0401698 -0.0743208
v 0.820218 0.0201741 -0.0768718
v 0.820224 0.000171825 -0.0769196
v 0.760194 0.100161 -0.0693177
v 0.780198 0.080166 -0.0717938
v 0.800205 0.060171 -0.0743005
v 0.820212 0.0401748 -0.076836
v 0.840218 0.0201795 -0.0793996
v 0.840224 0.00017696 -0.0794477
v 0.780194 0.100166 -0.0718016
v 0.8002 0.0801715 -0.074295
v 0.820206 0.0601762 -0.0768151
v 0.840213 0.0401794 -0.0793641
v 0.86022 0.0201852 -0.0819441
v 0.860226 0.000182325 -0.081992
v 0.800195 0.100171 -0.074302
v 0.820202 0.080176 -0.0768095
v 0.840208 0.0601812 -0.0793451
v 0.860215 0.0401845 -0.0819075
v 0.880222 0.0201897 -0.0845011
v 0.880226 0.000188634 -0.0845492
v 0.820195 0.100178 -0.0768173
v 0.840203 0.0801824 -0.0793392
v 0.860208 0.0601867 -0.0818872
v 0.880215 0.0401907 -0.0844651
v 0.900223 0.0201961 -0.0870741
v 0.900228 0.000194359 -0.0871228
v 0.840197 0.100183 -0.0793461
v 0.860205 0.0801873 -0.0818823
v 0.88021 0.0601912 -0.0844447
v 0.900217 0.0401965 -0.0870381
v 0.920224 0.0202006 -0.0896596
v 0.920229 0.000200418 -0.0897094
v 0.860199 0.100188 -0.0818899
v 0.880205 0.0801934 -0.0844406
v 0.900211 0.0601978 -0.0870173
v 0.920217 0.040203 -0.0896251
v 0.940225 0.0202063 -0.0922612
v 0.940231 0.000205214 -0.0923105
v 0.8802 0.100195 -0.0844492
v 0.900206 0.0801995 -0.0870132
v 0.920214 0.0602028 -0.0896052
v 0.940218 0.0402084 -0.0922257
v 0.960226 0.0202118 -0.0948762
v 0.96023 0.000211905 -0.0949257
v 0.900201 0.100199 -0.0870205
v 0.920206 0.080204 -0.0895979
v 0.940214 0.060209 -0.0922063
v 0.96022 0.0402138 -0.0948421
v 0.980228 0.0202179 -0.0975072
v 0.980232 0.00021682 -0.0975554
v 0.920203 0.100204 -0.0896071
v 0.940208 0.0802101 -0.0921998
v 0.960215 0.0602132 -0.0948207
v 0.980223 0.0402177 -0.0974719
v 1.00023 0.0202231 -0.10015
v 1.00023 0.000220819 -0.100198
v 1.00021 0.100227 -0.100098
v 0.980206 0.100222 -0.0974538
v 1.00021 0.0802258 -0.100089
v 0.960205 0.100216 -0.0948239
v 0.98021 0.0802212 -0.0974454
v 1.00022 0.0602249 -0.100096
v 0.940202 0.100211 -0.0922076
v 0.96021 0.0802162 -0.0948165
v 0.980215 0.0602204 -0.0974509
v 1.00022 0.0402231 -0.100115
v 1.32114e-06 0.0399993 -0.000200709
v 0.0200182 0.0399948 -0.00024939
v 0.0400277 0.0199824 -0.000513114
v 0.0400293 -2.68488e-05 -0.000696844
v 2.45923e-06 0.0199978 -0.000200506
v 0.0200204 0.0199884 -0.000269704
v 0.0200072 -2.75513e-05 -0.000360984
v 1.9949e-06 -2.34921e-06 -0.000199736
v -0.019037 0.022784 -0.151537
v -0.0360704 0.022784 -0.151537
v -0.0360704 0.00476155 -0.151537
v -0.019037 0.00476155 -0.151537
v -0.0351863 0.00573582 -0.151537
v -0.0338602 0.00573582 -0.151537
v -0.0338602 0.0067101 -0.151537
v -0.0351863 0.0067101 -0.151537
v -0.0351863 0.0067101 -0.151537
v -0.0338602 0.0067101 -0.151537
v -0.0338602 0.00768412 -0.151537
v -0.0351863 0.00768412 -0.151537
v -0.0351863 0.00768412 -0.151537
v -0.0338602 0.00768412 -0.151537
v -0.0338602 0.00865839 -0.151537
v -0.0351863 0.00865839 -0.151537
v -0.0351863 0.00865839 -0.151537
v -0.0338602 0.00865839 -0.151537
v -0.0338602 0.00963267 -0.151537
v -0.0351863 0.00963267 -0.151537
v -0.0351863 0.00963267 -0.151537
v -0.0338602 0.00963267 -0.151537
v -0.0338602 0.0106067 -0.151537
v -0.0351863 0.0106067 -0.151537
v -0.0351863 0.0106067 -0.151537
v -0.0338602 0.0106067 -0.151537
v -0.0338602 0.011581 -0.151537
v -0.0351863 0.011581 -0.151537
v -0.0351863 0.011581 -0.151537
v -0.0338602 0.011581 -0.151537
v -0.0338602 0.0125552 -0.151537
v -0.0351863 0.0125552 -0.151537
v -0.0351863 0.0125552 -0.151537
v -0.0338602 0.0125552 -0.151537
v -0.0338602 0.0135293 -0.151537
v -0.0351863 0.0135293 -0.151537
v -0.0351863 0.0135293 -0.151537
v -0.0338602 0.0135293 -0.151537
v -0.0338602 0.0145035 -0.151537
v -0.0351863 0.0145035 -0.151537
v -0.0351863 0.0145035 -0.151537
v -0.0338602 0.0145035 -0.151537
v -0.0338602 0.0154776 -0.151537
v -0.0351863 0.0154776 -0.151537
v -0.0351863 0.0154776 -0.151537
v -0.0338602 0.0154776 -0.151537
v -0.0338602 0.0164518 -0.151537
v -0.0351863 0.0164518 -0.151537
v -0.0351863 0.0164518 -0.151537
v -0.0338602 0.0164518 -0.151537
v -0.0338602 0.0174261 -0.151537
v -0.0351863 0.0174261 -0.151537
v -0.0351863 0.00573582 -0.151537
v -0.0334181 0.00573582 -0.151537
v -0.0351863 0.0067101 -0.151537
v -0.0334181 0.0067101 -0.151537
v -0.0351863 0.00768412 -0.151537
v -0.0334181 0.00768412 -0.151537
v -0.0351863 0.00865839 -0.151537
v -0.0334181 0.00865839 -0.151537
v -0.0351863 0.00963267 -0.151537
v -0.0334181 0.00963267 -0.151537
v -0.0351863 0.0106067 -0.151537
v -0.0334181 0.0106067 -0.151537
v -0.0351863 0.011581 -0.151537
v -0.0334181 0.011581 -0.151537
v -0.0351863 0.0125552 -0.151537
v -0.0334181 0.0125552 -0.151537
v -0.0351863 0.0135293 -0.151537
v -0.0334181 0.0135293 -0.151537
v -0.0351863 0.0145035 -0.151537
v -0.0334181 0.0145035 -0.151537
v -0.0351863 0.0154776 -0.151537
v -0.0334181 0.0154776 -0.151537
v -0.0351863 0.0164518 -0.151537
v -0.0334181 0.0164518 -0.151537
v -0.0351863 0.0174261 -0.151537
v -0.0334181 0.0174261 -0.151537
v -0.0338602 0.0174261 -0.151537
v -0.0338602 0.00573582 -0.151537

#List of body polygons
f 1 2 3
f 1 3 4
f 2 5 6
f 5 1 12
f 5 2 1
f 379 380 381
f 379 383 384
f 383 379 392

#List of body polygons
f 5 7 6
f 5 8 7
f 8 12 11
f 8 5 12
f 383 385 384
f 383 386 385
f 386 392 391
f 386 383 392

#List of body polygons
f 8 9 7
f 8 10 9
f 10 8 11
f 9 13 14
f 13 10 23
f 13 9 10
f 149 9 148
f 153 9 149
f 153 2 9
f 9 14 148
f 386 387 385
f 386 388 387
f 388 302 390
f 388 391 302
f 388 386 391

#List of body polygons
f 13 15 14
f 13 16 15
f 16 23 22
f 16 13 23
f 147 148 146
f 147 149 148
f 152 149 147
f 152 153 149
f 14 146 148
f 14 15 146
f 303 304 305
f 313 303 312
f 303 305 312
f 388 389 387
f 388 303 389
f 303 388 390
f 389 393 394
f 393 303 313
f 393 389 303

#List of body polygons
f 16 17 15
f 16 18 17
f 18 22 21
f 18 16 22
f 144 145 143
f 144 146 145
f 144 147 146
f 151 147 144
f 151 152 147
f 154 145 155
f 154 156 145
f 15 145 146
f 15 155 145
f 15 17 155
f 156 157 158
f 157 156 154
f 231 232 230
f 231 145 232
f 145 231 143
f 156 233 232
f 156 232 145
f 233 234 235
f 234 156 158
f 234 233 156
f 304 232 305
f 304 302 232
f 230 302 308
f 230 232 302
f 310 233 311
f 310 312 233
f 310 313 312
f 305 233 312
f 305 232 233
f 233 235 311
f 393 395 394
f 393 396 395
f 396 313 310
f 396 393 313

#List of body polygons
f 18 19 17
f 18 20 19
f 20 18 21
f 19 24 25
f 24 20 28
f 24 19 20
f 141 143 142
f 141 144 143
f 150 144 141
f 150 151 144
f 19 154 155
f 17 19 155
f 157 159 158
f 157 160 159
f 160 19 25
f 160 154 19
f 160 157 154
f 229 230 228
f 229 231 230
f 231 142 143
f 231 229 142
f 234 236 235
f 234 237 236
f 234 238 237
f 238 158 159
f 238 234 158
f 236 239 240
f 236 237 239
f 228 308 307
f 228 230 308
f 309 310 311
f 236 314 309
f 235 309 311
f 235 236 309
f 314 315 316
f 315 236 240
f 315 314 236
f 396 397 395
f 396 309 397
f 309 396 310
f 314 398 397
f 314 397 309
f 398 399 400
f 399 314 316
f 399 398 314

#List of body polygons
f 24 26 25
f 24 27 26
f 27 24 28
f 29 30 26
f 29 26 27
f 31 32 30
f 31 30 29
f 33 34 32
f 33 32 31
f 35 36 34
f 35 34 33
f 37 38 36
f 37 36 35
f 39 40 38
f 39 38 37
f 40 41 42
f 41 39 45
f 41 40 39
f 133 134 135
f 133 141 142
f 133 150 141
f 160 161 159
f 160 26 161
f 26 160 25
f 30 162 161
f 30 161 26
f 32 163 162
f 32 162 30
f 34 164 163
f 34 163 32
f 36 165 164
f 36 164 34
f 38 166 165
f 38 165 36
f 168 40 169
f 168 166 40
f 40 166 38
f 40 42 169
f 225 133 224
f 133 225 134
f 226 228 227
f 226 229 228
f 229 133 142
f 229 224 133
f 229 226 224
f 238 161 237
f 161 238 159
f 239 241 240
f 239 162 241
f 237 162 239
f 237 161 162
f 163 242 241
f 163 241 162
f 164 243 242
f 164 242 163
f 165 244 243
f 165 243 164
f 166 245 244
f 166 244 165
f 245 246 247
f 246 166 168
f 246 245 166
f 227 307 306
f 227 228 307
f 315 317 316
f 315 241 317
f 241 315 240
f 242 318 317
f 242 317 241
f 243 319 318
f 243 318 242
f 244 320 319
f 244 319 243
f 245 321 320
f 245 320 244
f 322 321 323
f 322 324 321
f 323 245 247
f 323 321 245
f 324 325 326
f 324 322 325
f 399 401 400
f 399 317 401
f 317 399 316
f 318 402 401
f 318 401 317
f 319 403 402
f 319 402 318
f 320 404 403
f 320 403 319
f 321 405 404
f 321 404 320
f 324 406 405
f 324 405 321
f 406 407 408
f 407 324 326
f 407 406 324

#List of body polygons
f 41 43 42
f 41 44 43
f 44 41 45
f 46 47 43
f 46 43 44
f 48 49 47
f 48 47 46
f 50 51 49
f 50 49 48
f 52 53 51
f 52 51 50
f 54 55 53
f 54 53 52
f 57 59 58
f 57 55 59
f 59 55 54
f 59 62 58
f 134 136 135
f 134 137 136
f 167 168 169
f 43 170 167
f 42 167 169
f 42 43 167
f 47 171 170
f 47 170 43
f 49 172 171
f 49 171 47
f 51 173 172
f 51 172 49
f 175 53 176
f 175 173 53
f 53 173 51
f 55 177 178
f 176 55 178
f 176 53 55
f 55 57 177
f 222 223 221
f 222 224 223
f 222 225 224
f 225 137 134
f 225 222 137
f 223 226 227
f 226 223 224
f 246 248 247
f 246 167 248
f 167 246 168
f 170 249 248
f 170 248 167
f 171 250 249
f 171 249 170
f 172 251 250
f 172 250 171
f 173 252 251
f 173 251 172
f 253 252 254
f 253 255 252
f 254 173 175
f 254 252 173
f 255 256 257
f 255 253 256
f 223 297 298
f 223 298 221
f 223 227 306
f 248 322 323
f 248 323 247
f 325 327 326
f 325 249 327
f 322 249 325
f 322 248 249
f 250 328 327
f 250 327 249
f 251 329 328
f 251 328 250
f 252 330 329
f 252 329 251
f 255 331 330
f 255 330 252
f 332 331 333
f 332 334 331
f 333 255 257
f 333 331 255
f 334 335 336
f 335 334 332
f 407 409 408
f 407 327 409
f 327 407 326
f 328 410 409
f 328 409 327
f 329 411 410
f 329 410 328
f 330 412 411
f 330 411 329
f 331 413 412
f 331 412 330
f 334 414 413
f 334 413 331
f 415 414 416
f 415 417 414
f 416 334 336
f 416 414 334
f 417 418 419
f 417 415 418

#List of body polygons
f 56 57 58
f 60 61 56
f 62 56 58
f 62 60 56
f 64 66 65
f 64 61 66
f 66 61 60
f 66 69 65
f 137 138 136
f 137 139 138
f 174 175 176
f 177 174 178
f 177 179 174
f 174 176 178
f 56 180 179
f 57 179 177
f 57 56 179
f 182 61 183
f 182 180 61
f 61 180 56
f 61 64 183
f 219 221 220
f 219 222 221
f 222 139 137
f 222 219 139
f 174 253 254
f 174 254 175
f 256 258 257
f 256 179 258
f 253 179 256
f 253 174 179
f 260 180 261
f 260 258 180
f 180 258 179
f 180 182 261
f 297 299 298
f 297 300 299
f 298 220 221
f 298 299 220
f 258 332 333
f 258 333 257
f 335 337 336
f 335 338 337
f 335 339 338
f 339 258 260
f 339 332 258
f 339 335 332
f 340 337 341
f 340 342 337
f 337 338 341
f 342 343 344
f 342 340 343
f 337 415 416
f 337 416 336
f 418 420 419
f 418 342 420
f 415 342 418
f 415 337 342
f 421 420 422
f 421 423 420
f 422 342 344
f 422 420 342
f 423 424 425
f 423 421 424

#List of body polygons
f 63 64 65
f 67 68 63
f 69 63 65
f 69 67 63
f 68 70 71
f 70 67 74
f 70 68 67
f 139 2 138
f 139 140 2
f 2 140 3
f 181 182 183
f 63 184 181
f 64 181 183
f 64 63 181
f 68 185 184
f 68 184 63
f 185 186 187
f 186 68 71
f 186 185 68
f 218 219 220
f 219 140 139
f 219 218 140
f 259 260 261
f 181 262 259
f 182 259 261
f 182 181 259
f 184 263 262
f 184 262 181
f 185 264 263
f 185 263 184
f 264 265 266
f 265 185 187
f 265 264 185
f 300 301 299
f 300 302 301
f 299 218 220
f 299 301 218
f 339 259 338
f 259 339 260
f 262 340 341
f 338 262 341
f 338 259 262
f 343 345 344
f 343 263 345
f 340 263 343
f 340 262 263
f 264 346 345
f 264 345 263
f 346 347 348
f 347 264 266
f 347 346 264
f 345 421 422
f 345 422 344
f 424 426 425
f 424 346 426
f 421 346 424
f 421 345 346
f 426 427 428
f 427 346 348
f 427 426 346

#List of body polygons
f 70 72 71
f 70 73 72
f 73 70 74
f 75 76 72
f 75 72 73
f 77 78 76
f 77 76 75
f 79 80 78
f 79 78 77
f 81 82 80
f 81 80 79
f 83 84 82
f 83 82 81
f 85 86 84
f 85 84 83
f 87 88 86
f 87 86 85
f 89 90 88
f 89 88 87
f 91 92 90
f 91 90 89
f 93 94 92
f 93 92 91
f 95 96 94
f 95 94 93
f 97 98 96
f 97 96 95
f 99 100 98
f 99 98 97
f 101 102 100
f 101 100 99
f 103 104 102
f 103 102 101
f 105 106 104
f 105 104 103
f 107 108 106
f 107 106 105
f 109 110 108
f 109 108 107
f 111 112 110
f 111 110 109
f 113 114 112
f 113 112 111
f 115 116 114
f 115 114 113
f 117 118 116
f 117 116 115
f 119 120 118
f 119 118 117
f 121 122 120
f 121 120 119
f 123 124 122
f 123 122 121
f 125 126 124
f 125 124 123
f 127 128 126
f 127 126 125
f 129 130 128
f 129 128 127
f 131 132 130
f 131 130 129
f 186 188 187
f 186 72 188
f 72 186 71
f 76 189 188
f 76 188 72
f 78 190 189
f 78 189 76
f 80 191 190
f 80 190 78
f 82 192 191
f 82 191 80
f 84 193 192
f 84 192 82
f 86 194 193
f 86 193 84
f 88 195 194
f 88 194 86
f 90 196 195
f 90 195 88
f 92 197 196
f 92 196 90
f 94 198 197
f 94 197 92
f 96 199 198
f 96 198 94
f 98 200 199
f 98 199 96
f 100 201 200
f 100 200 98
f 102 202 201
f 102 201 100
f 104 203 202
f 104 202 102
f 106 204 203
f 106 203 104
f 108 205 204
f 108 204 106
f 110 206 205
f 110 205 108
f 112 207 206
f 112 206 110
f 114 208 207
f 114 207 112
f 116 209 208
f 116 208 114
f 118 210 209
f 118 209 116
f 120 211 210
f 120 210 118
f 122 212 211
f 122 211 120
f 124 213 212
f 124 212 122
f 126 214 213
f 126 213 124
f 128 215 214
f 128 214 126
f 130 216 215
f 130 215 128
f 132 217 216
f 132 216 130
f 265 267 266
f 265 188 267
f 188 265 187
f 189 268 267
f 189 267 188
f 190 269 268
f 190 268 189
f 191 270 269
f 191 269 190
f 192 271 270
f 192 270 191
f 193 272 271
f 193 271 192
f 194 273 272
f 194 272 193
f 195 274 273
f 195 273 194
f 196 275 274
f 196 274 195
f 197 276 275
f 197 275 196
f 198 277 276
f 198 276 197
f 199 278 277
f 199 277 198
f 200 279 278
f 200 278 199
f 201 280 279
f 201 279 200
f 202 281 280
f 202 280 201
f 203 282 281
f 203 281 202
f 204 283 282
f 204 282 203
f 205 284 283
f 205 283 204
f 206 285 284
f 206 284 205
f 207 286 285
f 207 285 206
f 208 287 286
f 208 286 207
f 209 288 287
f 209 287 208
f 210 289 288
f 210 288 209
f 211 290 289
f 211 289 210
f 212 291 290
f 212 290 211
f 213 292 291
f 213 291 212
f 214 293 292
f 214 292 213
f 215 294 293
f 215 293 214
f 216 295 294
f 216 294 215
f 217 296 295
f 217 295 216
f 347 349 348
f 347 267 349
f 267 347 266
f 268 350 349
f 268 349 267
f 269 351 350
f 269 350 268
f 270 352 351
f 270 351 269
f 271 353 352
f 271 352 270
f 272 354 353
f 272 353 271
f 273 355 354
f 273 354 272
f 274 356 355
f 274 355 273
f 275 357 356
f 275 356 274
f 276 358 357
f 276 357 275
f 277 359 358
f 277 358 276
f 278 360 359
f 278 359 277
f 279 361 360
f 279 360 278
f 280 362 361
f 280 361 279
f 281 363 362
f 281 362 280
f 282 364 363
f 282 363 281
f 283 365 364
f 283 364 282
f 284 366 365
f 284 365 283
f 285 367 366
f 285 366 284
f 286 368 367
f 286 367 285
f 287 369 368
f 287 368 286
f 288 370 369
f 288 369 287
f 289 371 370
f 289 370 288
f 290 372 371
f 290 371 289
f 291 373 372
f 291 372 290
f 292 374 373
f 292 373 291
f 293 375 374
f 293 374 292
f 294 376 375
f 294 375 293
f 295 377 376
f 295 376 294
f 296 378 377
f 296 377 295
f 427 429 428
f 427 349 429
f 349 427 348
f 350 430 429
f 350 429 349
f 351 431 430
f 351 430 350
f 352 432 431
f 352 431 351
f 353 433 432
f 353 432 352
f 354 434 433
f 354 433 353
f 355 435 434
f 355 434 354
f 356 436 435
f 356 435 355
f 357 437 436
f 357 436 356
f 358 438 437
f 358 437 357
f 359 439 438
f 359 438 358
f 360 440 439
f 360 439 359
f 361 441 440
f 361 440 360
f 362 442 441
f 362 441 361
f 363 443 442
f 363 442 362
f 364 444 443
f 364 443 363
f 365 445 444
f 365 444 364
f 366 446 445
f 366 445 365
f 367 447 446
f 367 446 366
f 368 448 447
f 368 447 367
f 369 449 448
f 369 448 368
f 370 450 449
f 370 449 369
f 371 451 450
f 371 450 370
f 372 452 451
f 372 451 371
f 373 453 452
f 373 452 372
f 374 454 453
f 374 453 373
f 375 455 454
f 375 454 374
f 376 456 455
f 376 455 375
f 377 457 456
f 377 456 376
f 378 458 457
f 378 457 377

#List of body polygons
f 380 302 381
f 380 382 302
f 302 382 301

#List of body lines
l 459 460
l 460 461
l 461 462
l 462 463
l 463 464
l 464 465
l 465 466
l 466 467
l 467 468
l 468 469
l 460 470
l 470 471
l 471 461
l 461 472
l 472 463
l 463 473
l 473 465
l 465 474
l 474 467
l 467 475
l 475 476
l 476 468
l 471 477
l 477 472
l 472 478
l 478 473
l 473 479
l 479 474
l 474 480
l 480 475
l 475 481
l 481 482
l 482 476
l 477 483
l 483 478
l 478 484
l 484 479
l 479 485
l 485 480
l 480 486
l 486 481
l 481 487
l 487 488
l 488 482
l 483 489
l 489 484
l 484 490
l 490 485
l 485 491
l 491 486
l 486 492
l 492 487
l 487 493
l 493 494
l 494 488
l 489 495
l 495 490
l 490 496
l 496 491
l 491 497
l 497 492
l 492 498
l 498 493
l 493 499
l 499 500
l 500 494
l 495 501
l 501 496
l 496 502
l 502 497
l 497 503
l 503 498
l 498 504
l 504 499
l 499 505
l 505 506
l 506 500
l 501 507
l 507 502
l 502 508
l 508 503
l 503 509
l 509 504
l 504 510
l 510 505
l 505 511
l 511 512
l 512 506
l 507 513
l 513 508
l 508 514
l 514 509
l 509 515
l 515 510
l 510 516
l 516 511
l 511 517
l 517 518
l 518 512
l 513 519
l 519 514
l 514 520
l 520 515
l 515 521
l 521 516
l 516 522
l 522 517
l 517 523
l 523 524
l 524 518
l 519 525
l 525 520
l 520 526
l 526 521
l 521 527
l 527 522
l 522 528
l 528 523
l 523 529
l 529 530
l 530 524
l 525 531
l 531 526
l 526 532
l 532 527
l 527 533
l 533 528
l 528 534
l 534 529
l 529 535
l 535 536
l 536 530
l 531 537
l 537 532
l 532 538
l 538 533
l 533 539
l 539 534
l 534 540
l 540 535
l 535 541
l 541 542
l 542 536
l 537 543
l 543 538
l 538 544
l 544 539
l 539 545
l 545 540
l 540 546
l 546 541
l 541 547
l 547 548
l 548 542
l 543 549
l 549 544
l 544 550
l 550 545
l 545 551
l 551 546
l 546 552
l 552 547
l 547 553
l 553 554
l 554 548
l 549 555
l 555 550
l 550 556
l 556 551
l 551 557
l 557 552
l 552 558
l 558 553
l 553 559
l 559 560
l 560 554
l 555 561
l 561 556
l 556 562
l 562 557
l 557 563
l 563 558
l 558 564
l 564 559
l 559 565
l 565 566
l 566 560
l 561 567
l 567 562
l 562 568
l 568 563
l 563 569
l 569 564
l 564 570
l 570 565
l 565 571
l 571 572
l 572 566
l 567 573
l 573 568
l 568 574
l 574 569
l 569 575
l 575 570
l 570 576
l 576 571
l 571 577
l 577 578
l 578 572
l 573 579
l 579 574
l 574 580
l 580 575
l 575 581
l 581 576
l 576 582
l 582 577
l 577 583
l 583 584
l 584 578
l 579 585
l 585 580
l 580 586
l 586 581
l 581 587
l 587 582
l 582 588
l 588 583
l 583 589
l 589 590
l 590 584
l 585 591
l 591 586
l 586 592
l 592 587
l 587 593
l 593 588
l 588 594
l 594 589
l 589 595
l 595 596
l 596 590
l 591 597
l 597 592
l 592 598
l 598 593
l 593 599
l 599 594
l 594 600
l 600 595
l 595 601
l 601 602
l 602 596
l 597 603
l 603 598
l 598 604
l 604 599
l 599 605
l 605 600
l 600 606
l 606 601
l 601 607
l 607 608
l 608 602
l 603 609
l 609 604
l 604 610
l 610 605
l 605 611
l 611 606
l 606 612
l 612 607
l 607 613
l 613 614
l 614 608
l 609 615
l 615 610
l 610 616
l 616 611
l 611 617
l 617 612
l 612 618
l 618 613
l 613 619
l 619 620
l 620 614
l 615 621
l 621 616
l 616 622
l 622 617
l 617 623
l 623 618
l 618 624
l 624 619
l 619 625
l 625 626
l 626 620
l 621 627
l 627 622
l 622 628
l 628 623
l 623 629
l 629 624
l 624 630
l 630 625
l 625 631
l 631 632
l 632 626
l 627 633
l 633 628
l 628 634
l 634 629
l 629 635
l 635 630
l 630 636
l 636 631
l 631 637
l 637 638
l 638 632
l 633 639
l 639 634
l 634 640
l 640 635
l 635 641
l 641 636
l 636 642
l 642 637
l 637 643
l 643 644
l 644 638
l 639 645
l 645 640
l 640 646
l 646 641
l 641 647
l 647 642
l 642 648
l 648 643
l 643 649
l 649 650
l 650 644
l 645 651
l 651 646
l 646 652
l 652 647
l 647 653
l 653 648
l 648 654
l 654 649
l 649 655
l 655 656
l 656 650
l 651 657
l 657 652
l 652 658
l 658 653
l 653 659
l 659 654
l 654 660
l 660 655
l 655 661
l 661 662
l 662 656
l 657 663
l 663 658
l 658 664
l 664 659
l 659 665
l 665 660
l 660 666
l 666 661
l 661 667
l 667 668
l 668 662
l 663 669
l 669 664
l 664 670
l 670 665
l 665 671
l 671 666
l 666 672
l 672 667
l 667 673
l 673 674
l 674 668
l 669 675
l 675 670
l 670 676
l 676 671
l 671 677
l 677 672
l 672 678
l 678 673
l 673 679
l 679 680
l 680 674
l 675 681
l 681 676
l 676 682
l 682 677
l 677 683
l 683 678
l 678 684
l 684 679
l 679 685
l 685 686
l 686 680
l 681 687
l 687 682
l 682 688
l 688 683
l 683 689
l 689 684
l 684 690
l 690 685
l 685 691
l 691 692
l 692 686
l 687 693
l 693 688
l 688 694
l 694 689
l 689 695
l 695 690
l 690 696
l 696 691
l 691 697
l 697 698
l 698 692
l 693 699
l 699 694
l 694 700
l 700 695
l 695 701
l 701 696
l 696 702
l 702 697
l 697 703
l 703 704
l 704 698
l 699 705
l 705 700
l 700 706
l 706 701
l 701 707
l 707 702
l 702 708
l 708 703
l 703 709
l 709 710
l 710 704
l 705 711
l 711 706
l 706 712
l 712 707
l 707 713
l 713 708
l 708 714
l 714 709
l 709 715
l 715 716
l 716 710
l 711 717
l 717 712
l 712 718
l 718 713
l 713 719
l 719 714
l 714 720
l 720 715
l 715 721
l 721 722
l 722 716
l 717 723
l 723 718
l 718 724
l 724 719
l 719 725
l 725 720
l 720 726
l 726 721
l 721 727
l 727 728
l 728 722
l 723 729
l 729 724
l 724 730
l 730 725
l 725 731
l 731 726
l 726 732
l 732 727
l 727 733
l 733 734
l 734 728
l 729 735
l 735 730
l 730 736
l 736 731
l 731 737
l 737 732
l 732 738
l 738 733
l 733 739
l 739 740
l 740 734
l 735 741
l 741 736
l 736 742
l 742 737
l 737 743
l 743 738
l 738 744
l 744 739
l 739 745
l 745 746
l 746 740
l 747 748
l 749 747
l 748 750
l 751 748
l 749 751
l 752 749
l 750 753
l 754 750
l 751 754
l 755 751
l 752 755
l 756 752
l 753 741
l 742 753
l 754 742
l 743 754
l 755 743
l 744 755
l 756 744
l 745 756
l 459 757
l 462 459
l 758 462
l 464 758
l 759 464
l 466 759
l 469 466
l 760 469
l 757 761
l 758 757
l 762 758
l 759 762
l 760 759
l 763 760
l 761 764
l 762 761
l 763 762
l 764 763


