ISO-10303-21;
HEADER;
FILE_DESCRIPTION(('STEP AP214'),'1');
FILE_NAME('shade-3_15_(Blocker).stp','2026-09-29T20:24:20',(' '),(' '),'Spatial InterOp 3D',' ',' ');
FILE_SCHEMA(('AUTOMOTIVE_DESIGN { 1 0 10303 214 1 1 1 1 }'));
ENDSEC;
DATA;
#1=PRODUCT_DEFINITION_CONTEXT('',#9,'design');
#2=APPLICATION_PROTOCOL_DEFINITION('INTERNATIONAL STANDARD','automotive_design',1994,#9);
#3=PRODUCT_CATEGORY_RELATIONSHIP('NONE','NONE',#10,#11);
#4=SHAPE_DEFINITION_REPRESENTATION(#12,#13);
#5= (GEOMETRIC_REPRESENTATION_CONTEXT(3)GLOBAL_UNCERTAINTY_ASSIGNED_CONTEXT((#16))GLOBAL_UNIT_ASSIGNED_CONTEXT((#18,#19,#20))REPRESENTATION_CONTEXT('NONE','WORKSPACE'));
#9=APPLICATION_CONTEXT(' ');
#10=PRODUCT_CATEGORY('part','NONE');
#11=PRODUCT_RELATED_PRODUCT_CATEGORY('detail',' ',(#22));
#12=PRODUCT_DEFINITION_SHAPE('NONE','NONE',#23);
#13=MANIFOLD_SURFACE_SHAPE_REPRESENTATION('1',(#24,#25),#5);
#16=UNCERTAINTY_MEASURE_WITH_UNIT(LENGTH_MEASURE(1.0E-06),#18,'','');
#18= (CONVERSION_BASED_UNIT('MILLIMETRE',#28)LENGTH_UNIT()NAMED_UNIT(#31));
#19= (NAMED_UNIT(#33)PLANE_ANGLE_UNIT()SI_UNIT($,.RADIAN.));
#20= (NAMED_UNIT(#33)SOLID_ANGLE_UNIT()SI_UNIT($,.STERADIAN.));
#22=PRODUCT('1','','PART--DESC',(#39));
#23=PRODUCT_DEFINITION('','NONE',#40,#1);
#24=SHELL_BASED_SURFACE_MODEL('1',(#41));
#25=AXIS2_PLACEMENT_3D('',#42,#43,#44);
#28=LENGTH_MEASURE_WITH_UNIT(LENGTH_MEASURE(1.0),#45);
#31=DIMENSIONAL_EXPONENTS(1.0,0.0,0.0,0.0,0.0,0.0,0.0);
#33=DIMENSIONAL_EXPONENTS(0.0,0.0,0.0,0.0,0.0,0.0,0.0);
#39=PRODUCT_CONTEXT('',#9,'mechanical');
#40=PRODUCT_DEFINITION_FORMATION_WITH_SPECIFIED_SOURCE(' ','NONE',#22,.NOT_KNOWN.);
#41=CLOSED_SHELL('',(#46));
#42=CARTESIAN_POINT('',(0.0,0.0,0.0));
#43=DIRECTION('',(0.0,0.0,1.0));
#44=DIRECTION('',(1.0,0.0,0.0));
#45= (NAMED_UNIT(#31)LENGTH_UNIT()SI_UNIT(.MILLI.,.METRE.));
#46=FACE_SURFACE('',(#48),#49,.T.);
#48=FACE_BOUND('',#50,.T.);
#49=PLANE('',#51);
#50=EDGE_LOOP('',(#52,#53,#54,#55));
#51=AXIS2_PLACEMENT_3D('',#56,#57,#58);
#52=ORIENTED_EDGE('',*,*,#59,.T.);
#53=ORIENTED_EDGE('',*,*,#60,.T.);
#54=ORIENTED_EDGE('',*,*,#61,.T.);
#55=ORIENTED_EDGE('',*,*,#62,.T.);
#56=CARTESIAN_POINT('',(0.0589794628322124,0.78162744641304,-0.058049080427736));
#57=DIRECTION('',(-0.393961951325889,-0.887206051563884,0.240123724308781));
#58=DIRECTION('',(1.09346407297064E-17,-0.26125202486428,-0.965270625008507));
#59=EDGE_CURVE('',#63,#64,#65,.T.);
#60=EDGE_CURVE('',#64,#66,#67,.T.);
#61=EDGE_CURVE('',#66,#68,#69,.T.);
#62=EDGE_CURVE('',#68,#63,#70,.T.);
#63=VERTEX_POINT('',#71);
#64=VERTEX_POINT('',#72);
#65=LINE('',#73,#74);
#66=VERTEX_POINT('',#75);
#67=LINE('',#76,#77);
#68=VERTEX_POINT('',#78);
#69=LINE('',#79,#80);
#70=LINE('',#81,#82);
#71=CARTESIAN_POINT('',(0.114696979522705,0.77408242225647,0.00550149846822023));
#72=CARTESIAN_POINT('',(0.00440984964370728,0.820044159889221,-0.00564601551741362));
#73=CARTESIAN_POINT('',(0.0595534145832062,0.797063291072845,-7.22585245966911E-05));
#74=VECTOR('',#83,1.0);
#75=CARTESIAN_POINT('',(0.00326194614171982,0.789166450500488,-0.121599659323692));
#76=CARTESIAN_POINT('',(0.00383589789271355,0.804605305194855,-0.063622837420553));
#77=VECTOR('',#84,1.0);
#78=CARTESIAN_POINT('',(0.113551765680313,0.743210732936859,-0.11045378446579));
#79=CARTESIAN_POINT('',(0.0584068559110165,0.766188591718674,-0.116026721894741));
#80=VECTOR('',#85,1.0);
#81=CARTESIAN_POINT('',(0.114124372601509,0.758646577596664,-0.0524761429987848));
#82=VECTOR('',#86,1.0);
#83=DIRECTION('',(-0.91905943444739,0.383014488102494,-0.0928959517784739));
#84=DIRECTION('',(-0.00956586313907024,-0.257314476935467,-0.966280370400761));
#85=DIRECTION('',(0.919081740229535,-0.382964275836677,0.0928822814617463));
#86=DIRECTION('',(0.00954344856504916,0.257264866697167,0.966293801570089));
ENDSEC;
END-ISO-10303-21;
