ISO-10303-21;
HEADER;
FILE_DESCRIPTION(('STEP AP214'),'1');
FILE_NAME('shade-4_17_(Blocker).stp','2026-09-29T20:25:24',(' '),(' '),'Spatial InterOp 3D',' ',' ');
FILE_SCHEMA(('AUTOMOTIVE_DESIGN { 1 0 10303 214 1 1 1 1 }'));
ENDSEC;
DATA;
#1=PRODUCT_DEFINITION_CONTEXT('',#9,'design');
#2=APPLICATION_PROTOCOL_DEFINITION('INTERNATIONAL STANDARD','automotive_design',1994,#9);
#3=PRODUCT_CATEGORY_RELATIONSHIP('NONE','NONE',#10,#11);
#4=SHAPE_DEFINITION_REPRESENTATION(#12,#13);
#5= (GEOMETRIC_REPRESENTATION_CONTEXT(3)GLOBAL_UNCERTAINTY_ASSIGNED_CONTEXT((#16))GLOBAL_UNIT_ASSIGNED_CONTEXT((#18,#19,#20))REPRESENTATION_CONTEXT('NONE','WORKSPACE'));
#9=APPLICATION_CONTEXT(' ');
#10=PRODUCT_CATEGORY('part','NONE');
#11=PRODUCT_RELATED_PRODUCT_CATEGORY('detail',' ',(#22));
#12=PRODUCT_DEFINITION_SHAPE('NONE','NONE',#23);
#13=MANIFOLD_SURFACE_SHAPE_REPRESENTATION('1',(#24,#25),#5);
#16=UNCERTAINTY_MEASURE_WITH_UNIT(LENGTH_MEASURE(1.0E-06),#18,'','');
#18= (CONVERSION_BASED_UNIT('MILLIMETRE',#28)LENGTH_UNIT()NAMED_UNIT(#31));
#19= (NAMED_UNIT(#33)PLANE_ANGLE_UNIT()SI_UNIT($,.RADIAN.));
#20= (NAMED_UNIT(#33)SOLID_ANGLE_UNIT()SI_UNIT($,.STERADIAN.));
#22=PRODUCT('1','','PART--DESC',(#39));
#23=PRODUCT_DEFINITION('','NONE',#40,#1);
#24=SHELL_BASED_SURFACE_MODEL('1',(#41));
#25=AXIS2_PLACEMENT_3D('',#42,#43,#44);
#28=LENGTH_MEASURE_WITH_UNIT(LENGTH_MEASURE(1.0),#45);
#31=DIMENSIONAL_EXPONENTS(1.0,0.0,0.0,0.0,0.0,0.0,0.0);
#33=DIMENSIONAL_EXPONENTS(0.0,0.0,0.0,0.0,0.0,0.0,0.0);
#39=PRODUCT_CONTEXT('',#9,'mechanical');
#40=PRODUCT_DEFINITION_FORMATION_WITH_SPECIFIED_SOURCE(' ','NONE',#22,.NOT_KNOWN.);
#41=CLOSED_SHELL('',(#46));
#42=CARTESIAN_POINT('',(0.0,0.0,0.0));
#43=DIRECTION('',(0.0,0.0,1.0));
#44=DIRECTION('',(1.0,0.0,0.0));
#45= (NAMED_UNIT(#31)LENGTH_UNIT()SI_UNIT(.MILLI.,.METRE.));
#46=FACE_SURFACE('',(#48),#49,.F.);
#48=FACE_BOUND('',#50,.T.);
#49=PLANE('',#51);
#50=EDGE_LOOP('',(#52,#53,#54,#55));
#51=AXIS2_PLACEMENT_3D('',#56,#57,#58);
#52=ORIENTED_EDGE('',*,*,#59,.T.);
#53=ORIENTED_EDGE('',*,*,#60,.T.);
#54=ORIENTED_EDGE('',*,*,#61,.T.);
#55=ORIENTED_EDGE('',*,*,#62,.T.);
#56=CARTESIAN_POINT('',(-0.0418598707765341,0.794500142335892,-0.0530685968697071));
#57=DIRECTION('',(-0.00285909960768767,0.992405278516452,-0.122978000968131));
#58=DIRECTION('',(-3.9677977676895E-20,0.122978503610007,0.992409334725265));
#59=EDGE_CURVE('',#63,#64,#65,.T.);
#60=EDGE_CURVE('',#64,#66,#67,.T.);
#61=EDGE_CURVE('',#66,#68,#69,.T.);
#62=EDGE_CURVE('',#68,#63,#70,.T.);
#63=VERTEX_POINT('',#71);
#64=VERTEX_POINT('',#72);
#65=LINE('',#73,#74);
#66=VERTEX_POINT('',#75);
#67=LINE('',#76,#77);
#68=VERTEX_POINT('',#78);
#69=LINE('',#79,#80);
#70=LINE('',#81,#82);
#71=CARTESIAN_POINT('',(0.0216970480978489,0.801594078540802,0.00270051509141922));
#72=CARTESIAN_POINT('',(-0.0980778187513351,0.802156805992126,0.0100259110331535));
#73=CARTESIAN_POINT('',(-0.0381903853267431,0.801875442266464,0.00636321306228638));
#74=VECTOR('',#83,1.0);
#75=CARTESIAN_POINT('',(-0.105416789650917,0.787406146526337,-0.108837708830833));
#76=CARTESIAN_POINT('',(-0.101747304201126,0.794781476259232,-0.04940589889884));
#77=VECTOR('',#84,1.0);
#78=CARTESIAN_POINT('',(0.0143580883741379,0.786843478679657,-0.116163104772568));
#79=CARTESIAN_POINT('',(-0.0455293506383896,0.787124812602997,-0.112500406801701));
#80=VECTOR('',#85,1.0);
#81=CARTESIAN_POINT('',(0.0180275682359934,0.794218778610229,-0.0567312948405743));
#82=VECTOR('',#86,1.0);
#83=DIRECTION('',(-0.998124000736282,0.00468939594601731,0.0610449729286503));
#84=DIRECTION('',(-0.0611580853602122,-0.122922151221445,-0.990530076945756));
#85=DIRECTION('',(0.998124003410142,-0.00468889881566495,-0.0610449673962413));
#86=DIRECTION('',(0.0611579963103664,0.122921662721353,0.990530143065379));
ENDSEC;
END-ISO-10303-21;
