ISO-10303-21;
HEADER;
FILE_DESCRIPTION(('STEP AP214'),'1');
FILE_NAME('shade-1_6_(Blocker).stp','2026-09-29T20:19:37',(' '),(' '),'Spatial InterOp 3D',' ',' ');
FILE_SCHEMA(('AUTOMOTIVE_DESIGN { 1 0 10303 214 1 1 1 1 }'));
ENDSEC;
DATA;
#1=PRODUCT_DEFINITION_CONTEXT('',#9,'design');
#2=APPLICATION_PROTOCOL_DEFINITION('INTERNATIONAL STANDARD','automotive_design',1994,#9);
#3=PRODUCT_CATEGORY_RELATIONSHIP('NONE','NONE',#10,#11);
#4=SHAPE_DEFINITION_REPRESENTATION(#12,#13);
#5= (GEOMETRIC_REPRESENTATION_CONTEXT(3)GLOBAL_UNCERTAINTY_ASSIGNED_CONTEXT((#16))GLOBAL_UNIT_ASSIGNED_CONTEXT((#18,#19,#20))REPRESENTATION_CONTEXT('NONE','WORKSPACE'));
#9=APPLICATION_CONTEXT(' ');
#10=PRODUCT_CATEGORY('part','NONE');
#11=PRODUCT_RELATED_PRODUCT_CATEGORY('detail',' ',(#22));
#12=PRODUCT_DEFINITION_SHAPE('NONE','NONE',#23);
#13=MANIFOLD_SURFACE_SHAPE_REPRESENTATION('1',(#24,#25),#5);
#16=UNCERTAINTY_MEASURE_WITH_UNIT(LENGTH_MEASURE(1.0E-06),#18,'','');
#18= (CONVERSION_BASED_UNIT('MILLIMETRE',#28)LENGTH_UNIT()NAMED_UNIT(#31));
#19= (NAMED_UNIT(#33)PLANE_ANGLE_UNIT()SI_UNIT($,.RADIAN.));
#20= (NAMED_UNIT(#33)SOLID_ANGLE_UNIT()SI_UNIT($,.STERADIAN.));
#22=PRODUCT('1','','PART--DESC',(#39));
#23=PRODUCT_DEFINITION('','NONE',#40,#1);
#24=SHELL_BASED_SURFACE_MODEL('1',(#41));
#25=AXIS2_PLACEMENT_3D('',#42,#43,#44);
#28=LENGTH_MEASURE_WITH_UNIT(LENGTH_MEASURE(1.0),#45);
#31=DIMENSIONAL_EXPONENTS(1.0,0.0,0.0,0.0,0.0,0.0,0.0);
#33=DIMENSIONAL_EXPONENTS(0.0,0.0,0.0,0.0,0.0,0.0,0.0);
#39=PRODUCT_CONTEXT('',#9,'mechanical');
#40=PRODUCT_DEFINITION_FORMATION_WITH_SPECIFIED_SOURCE(' ','NONE',#22,.NOT_KNOWN.);
#41=CLOSED_SHELL('',(#46));
#42=CARTESIAN_POINT('',(0.0,0.0,0.0));
#43=DIRECTION('',(0.0,0.0,1.0));
#44=DIRECTION('',(1.0,0.0,0.0));
#45= (NAMED_UNIT(#31)LENGTH_UNIT()SI_UNIT(.MILLI.,.METRE.));
#46=FACE_SURFACE('',(#48),#49,.T.);
#48=FACE_BOUND('',#50,.T.);
#49=PLANE('',#51);
#50=EDGE_LOOP('',(#52,#53,#54,#55));
#51=AXIS2_PLACEMENT_3D('',#56,#57,#58);
#52=ORIENTED_EDGE('',*,*,#59,.T.);
#53=ORIENTED_EDGE('',*,*,#60,.T.);
#54=ORIENTED_EDGE('',*,*,#61,.T.);
#55=ORIENTED_EDGE('',*,*,#62,.T.);
#56=CARTESIAN_POINT('',(0.059864663053304,0.794256836175918,0.0428028292953968));
#57=DIRECTION('',(-0.096964033522615,-0.994538186023923,-0.0386234739927574));
#58=DIRECTION('',(0.0,0.0388063338582191,-0.999246750533863));
#59=EDGE_CURVE('',#63,#64,#65,.T.);
#60=EDGE_CURVE('',#64,#66,#67,.T.);
#61=EDGE_CURVE('',#66,#68,#69,.T.);
#62=EDGE_CURVE('',#68,#63,#70,.T.);
#63=VERTEX_POINT('',#71);
#64=VERTEX_POINT('',#72);
#65=LINE('',#73,#74);
#66=VERTEX_POINT('',#75);
#67=LINE('',#76,#77);
#68=VERTEX_POINT('',#78);
#69=LINE('',#79,#80);
#70=LINE('',#81,#82);
#71=CARTESIAN_POINT('',(0.11521228402853,0.786381661891937,0.106635600328445));
#72=CARTESIAN_POINT('',(-0.00392362382262945,0.798308610916138,0.0986117571592331));
#73=CARTESIAN_POINT('',(0.0556443301029503,0.792345136404037,0.102623678743839));
#74=VECTOR('',#83,1.0);
#75=CARTESIAN_POINT('',(0.00451704859733582,0.8021320104599,-0.0210299417376518));
#76=CARTESIAN_POINT('',(0.000296712387353182,0.800220310688019,0.0387909077107906));
#77=VECTOR('',#84,1.0);
#78=CARTESIAN_POINT('',(0.123652949929237,0.790205061435699,-0.0130061060190201));
#79=CARTESIAN_POINT('',(0.0640849992632866,0.7961685359478,-0.017018023878336));
#80=VECTOR('',#85,1.0);
#81=CARTESIAN_POINT('',(0.119432616978884,0.788293361663818,0.0468147471547127));
#82=VECTOR('',#86,1.0);
#83=DIRECTION('',(-0.992799276501805,0.0993912463142036,-0.0668653627343902));
#84=DIRECTION('',(0.0703389381765536,0.031861663473259,-0.997014176517522));
#85=DIRECTION('',(0.992799279843888,-0.0993912520875645,0.0668653045302542));
#86=DIRECTION('',(-0.0703388797640145,-0.0318616616226878,0.997014180697639));
ENDSEC;
END-ISO-10303-21;
