ISO-10303-21;
HEADER;
FILE_DESCRIPTION(('STEP AP214'),'1');
FILE_NAME('shade-4_7_(Blocker).stp','2026-09-29T20:20:09',(' '),(' '),'Spatial InterOp 3D',' ',' ');
FILE_SCHEMA(('AUTOMOTIVE_DESIGN { 1 0 10303 214 1 1 1 1 }'));
ENDSEC;
DATA;
#1=PRODUCT_DEFINITION_CONTEXT('',#9,'design');
#2=APPLICATION_PROTOCOL_DEFINITION('INTERNATIONAL STANDARD','automotive_design',1994,#9);
#3=PRODUCT_CATEGORY_RELATIONSHIP('NONE','NONE',#10,#11);
#4=SHAPE_DEFINITION_REPRESENTATION(#12,#13);
#5= (GEOMETRIC_REPRESENTATION_CONTEXT(3)GLOBAL_UNCERTAINTY_ASSIGNED_CONTEXT((#16))GLOBAL_UNIT_ASSIGNED_CONTEXT((#18,#19,#20))REPRESENTATION_CONTEXT('NONE','WORKSPACE'));
#9=APPLICATION_CONTEXT(' ');
#10=PRODUCT_CATEGORY('part','NONE');
#11=PRODUCT_RELATED_PRODUCT_CATEGORY('detail',' ',(#22));
#12=PRODUCT_DEFINITION_SHAPE('NONE','NONE',#23);
#13=MANIFOLD_SURFACE_SHAPE_REPRESENTATION('1',(#24,#25),#5);
#16=UNCERTAINTY_MEASURE_WITH_UNIT(LENGTH_MEASURE(1.0E-06),#18,'','');
#18= (CONVERSION_BASED_UNIT('MILLIMETRE',#28)LENGTH_UNIT()NAMED_UNIT(#31));
#19= (NAMED_UNIT(#33)PLANE_ANGLE_UNIT()SI_UNIT($,.RADIAN.));
#20= (NAMED_UNIT(#33)SOLID_ANGLE_UNIT()SI_UNIT($,.STERADIAN.));
#22=PRODUCT('1','','PART--DESC',(#39));
#23=PRODUCT_DEFINITION('','NONE',#40,#1);
#24=SHELL_BASED_SURFACE_MODEL('1',(#41));
#25=AXIS2_PLACEMENT_3D('',#42,#43,#44);
#28=LENGTH_MEASURE_WITH_UNIT(LENGTH_MEASURE(1.0),#45);
#31=DIMENSIONAL_EXPONENTS(1.0,0.0,0.0,0.0,0.0,0.0,0.0);
#33=DIMENSIONAL_EXPONENTS(0.0,0.0,0.0,0.0,0.0,0.0,0.0);
#39=PRODUCT_CONTEXT('',#9,'mechanical');
#40=PRODUCT_DEFINITION_FORMATION_WITH_SPECIFIED_SOURCE(' ','NONE',#22,.NOT_KNOWN.);
#41=CLOSED_SHELL('',(#46));
#42=CARTESIAN_POINT('',(0.0,0.0,0.0));
#43=DIRECTION('',(0.0,0.0,1.0));
#44=DIRECTION('',(1.0,0.0,0.0));
#45= (NAMED_UNIT(#31)LENGTH_UNIT()SI_UNIT(.MILLI.,.METRE.));
#46=FACE_SURFACE('',(#48),#49,.T.);
#48=FACE_BOUND('',#50,.T.);
#49=PLANE('',#51);
#50=EDGE_LOOP('',(#52,#53,#54,#55));
#51=AXIS2_PLACEMENT_3D('',#56,#57,#58);
#52=ORIENTED_EDGE('',*,*,#59,.T.);
#53=ORIENTED_EDGE('',*,*,#60,.T.);
#54=ORIENTED_EDGE('',*,*,#61,.T.);
#55=ORIENTED_EDGE('',*,*,#62,.T.);
#56=CARTESIAN_POINT('',(-0.0428782356902957,0.794673681259155,-0.0524729490280151));
#57=DIRECTION('',(0.0116634578273246,-0.993235219856622,0.115532513985795));
#58=DIRECTION('',(1.61862992833003E-19,-0.115540373092537,-0.993302784746744));
#59=EDGE_CURVE('',#63,#64,#65,.T.);
#60=EDGE_CURVE('',#64,#66,#67,.T.);
#61=EDGE_CURVE('',#66,#68,#69,.T.);
#62=EDGE_CURVE('',#68,#63,#70,.T.);
#63=VERTEX_POINT('',#71);
#64=VERTEX_POINT('',#72);
#65=LINE('',#73,#74);
#66=VERTEX_POINT('',#75);
#67=LINE('',#76,#77);
#68=VERTEX_POINT('',#78);
#69=LINE('',#79,#80);
#70=LINE('',#81,#82);
#71=CARTESIAN_POINT('',(0.0206282678991556,0.801910996437073,0.00333515927195549));
#72=CARTESIAN_POINT('',(-0.0991449579596519,0.801359832286835,0.0106883645057678));
#73=CARTESIAN_POINT('',(-0.0392583450302482,0.801635414361954,0.00701176188886166));
#74=VECTOR('',#83,1.0);
#75=CARTESIAN_POINT('',(-0.106384739279747,0.787436366081238,-0.108281053602695));
#76=CARTESIAN_POINT('',(-0.102764848619699,0.794398099184036,-0.0487963445484638));
#77=VECTOR('',#84,1.0);
#78=CARTESIAN_POINT('',(0.0133884828537703,0.787987530231476,-0.115634262561798));
#79=CARTESIAN_POINT('',(-0.0464981282129884,0.787711948156357,-0.111957658082247));
#80=VECTOR('',#85,1.0);
#81=CARTESIAN_POINT('',(0.0170083753764629,0.794949263334274,-0.0561495516449213));
#82=VECTOR('',#86,1.0);
#83=DIRECTION('',(-0.998110248699548,-0.00459303473814189,0.0612767123205896));
#84=DIRECTION('',(-0.0603315114411109,-0.116028885893209,-0.991411824806226));
#85=DIRECTION('',(0.998110246683642,0.00459303487172966,-0.0612767451468001));
#86=DIRECTION('',(0.060331540515349,0.116028882105069,0.99141182348028));
ENDSEC;
END-ISO-10303-21;
