ISO-10303-21;
HEADER;
FILE_DESCRIPTION(('STEP AP214'),'1');
FILE_NAME('SMAStripDeformed_11.stp','2026-05-01T23:26:42',(' '),(' '),'Spatial InterOp 3D',' ',' ');
FILE_SCHEMA(('AUTOMOTIVE_DESIGN { 1 0 10303 214 1 1 1 1 }'));
ENDSEC;
DATA;
#1=PRODUCT_DEFINITION_CONTEXT('',#9,'design');
#2=APPLICATION_PROTOCOL_DEFINITION('INTERNATIONAL STANDARD','automotive_design',1994,#9);
#3=PRODUCT_CATEGORY_RELATIONSHIP('NONE','NONE',#10,#11);
#4=SHAPE_DEFINITION_REPRESENTATION(#12,#13);
#5= (GEOMETRIC_REPRESENTATION_CONTEXT(3)GLOBAL_UNCERTAINTY_ASSIGNED_CONTEXT((#16))GLOBAL_UNIT_ASSIGNED_CONTEXT((#18,#19,#20))REPRESENTATION_CONTEXT('NONE','WORKSPACE'));
#9=APPLICATION_CONTEXT(' ');
#10=PRODUCT_CATEGORY('part','NONE');
#11=PRODUCT_RELATED_PRODUCT_CATEGORY('detail',' ',(#22));
#12=PRODUCT_DEFINITION_SHAPE('NONE','NONE',#23);
#13=MANIFOLD_SURFACE_SHAPE_REPRESENTATION('1',(#24,#25),#5);
#16=UNCERTAINTY_MEASURE_WITH_UNIT(LENGTH_MEASURE(1.0E-06),#18,'','');
#18= (CONVERSION_BASED_UNIT('MILLIMETRE',#28)LENGTH_UNIT()NAMED_UNIT(#31));
#19= (NAMED_UNIT(#33)PLANE_ANGLE_UNIT()SI_UNIT($,.RADIAN.));
#20= (NAMED_UNIT(#33)SOLID_ANGLE_UNIT()SI_UNIT($,.STERADIAN.));
#22=PRODUCT('1','','PART--DESC',(#39));
#23=PRODUCT_DEFINITION('','NONE',#40,#1);
#24=SHELL_BASED_SURFACE_MODEL('1',(#41));
#25=AXIS2_PLACEMENT_3D('',#42,#43,#44);
#28=LENGTH_MEASURE_WITH_UNIT(LENGTH_MEASURE(1.0),#45);
#31=DIMENSIONAL_EXPONENTS(1.0,0.0,0.0,0.0,0.0,0.0,0.0);
#33=DIMENSIONAL_EXPONENTS(0.0,0.0,0.0,0.0,0.0,0.0,0.0);
#39=PRODUCT_CONTEXT('',#9,'mechanical');
#40=PRODUCT_DEFINITION_FORMATION_WITH_SPECIFIED_SOURCE(' ','NONE',#22,.NOT_KNOWN.);
#41=CLOSED_SHELL('',(#46));
#42=CARTESIAN_POINT('',(0.0,0.0,0.0));
#43=DIRECTION('',(0.0,0.0,1.0));
#44=DIRECTION('',(1.0,0.0,0.0));
#45= (NAMED_UNIT(#31)LENGTH_UNIT()SI_UNIT(.MILLI.,.METRE.));
#46=FACE_SURFACE('',(#48),#49,.T.);
#48=FACE_BOUND('',#50,.T.);
#49=CYLINDRICAL_SURFACE('',#51,1.2302294187946);
#50=EDGE_LOOP('',(#52,#53,#54,#55,#56,#57,#58,#59));
#51=AXIS2_PLACEMENT_3D('',#60,#61,#62);
#52=ORIENTED_EDGE('',*,*,#63,.T.);
#53=ORIENTED_EDGE('',*,*,#64,.T.);
#54=ORIENTED_EDGE('',*,*,#65,.T.);
#55=ORIENTED_EDGE('',*,*,#66,.T.);
#56=ORIENTED_EDGE('',*,*,#67,.T.);
#57=ORIENTED_EDGE('',*,*,#68,.T.);
#58=ORIENTED_EDGE('',*,*,#69,.T.);
#59=ORIENTED_EDGE('',*,*,#70,.T.);
#60=CARTESIAN_POINT('',(-0.285822408757582,-0.0083439159164749,-1.18120323039373));
#61=DIRECTION('',(-0.0070880194806587,-0.999936346137402,0.00877859061712405));
#62=DIRECTION('',(-9.99468359594844E-21,0.00877881114371831,0.999961465494997));
#63=EDGE_CURVE('',#71,#72,#73,.T.);
#64=EDGE_CURVE('',#72,#74,#75,.T.);
#65=EDGE_CURVE('',#74,#76,#77,.T.);
#66=EDGE_CURVE('',#76,#78,#79,.T.);
#67=EDGE_CURVE('',#78,#80,#81,.T.);
#68=EDGE_CURVE('',#80,#82,#83,.T.);
#69=EDGE_CURVE('',#82,#84,#85,.T.);
#70=EDGE_CURVE('',#84,#71,#86,.T.);
#71=VERTEX_POINT('',#87);
#72=VERTEX_POINT('',#88);
#73=LINE('',#89,#90);
#74=VERTEX_POINT('',#91);
#75=LINE('',#92,#93);
#76=VERTEX_POINT('',#94);
#77=LINE('',#95,#96);
#78=VERTEX_POINT('',#97);
#79=B_SPLINE_CURVE_WITH_KNOTS('',3,(#98,#99,#100,#101,#102,#103,#104,#105,#106,#107,#108),.UNSPECIFIED.,.F.,.F.,(4,1,1,1,1,1,1,1,4),(0.0,0.127343779586798,0.254687559173596,0.382031338760394,0.509375118347192,0.63671889793399,0.764062677520788,0.891406457107586,1.01875023669438),.UNSPECIFIED.);
#80=VERTEX_POINT('',#109);
#81=LINE('',#110,#111);
#82=VERTEX_POINT('',#112);
#83=LINE('',#113,#114);
#84=VERTEX_POINT('',#115);
#85=LINE('',#116,#117);
#86=B_SPLINE_CURVE_WITH_KNOTS('',3,(#118,#119,#120,#121,#122,#123,#124,#125,#126,#127,#128,#129,#130,#131,#132,#133,#134,#135,#136,#137,#138,#139,#140,#141,#142,#143,#144,#145,#146,#147,#148,#149,#150),.UNSPECIFIED.,.F.,.F.,(4,1,1,1,1,1,1,1,1,1,1,1,1,1,1,1,1,1,1,1,1,1,1,1,1,1,1,1,1,1,4),(0.0,0.00803798475452866,0.0160759695090573,0.024113954263586,0.0321519390181146,0.0482279085271719,0.0643038780362293,0.0964558170543439,0.128607756072459,0.160759695090573,0.192911634108688,0.257215512144917,0.321519390181146,0.385823268217376,0.450127146253605,0.514431024289834,0.578734902326063,0.643038780362293,0.707342658398522,0.771646536434751,0.835950414470981,0.868102353489095,0.90025429250721,0.932406231525324,0.964558170543439,0.980634140052496,0.996710109561554,1.00474809431608,1.01278607907061,1.02082406382514,1.02886204857967),.UNSPECIFIED.);
#87=CARTESIAN_POINT('',(0.00109978392720222,0.100108116865158,0.00981617346405983));
#88=CARTESIAN_POINT('',(-3.00784415421327E-34,0.0900080502033234,-3.27293672701167E-34));
#89=CARTESIAN_POINT('',(0.000549891963601112,0.0950580835342407,0.00490808673202991));
#90=VECTOR('',#151,1.0);
#91=CARTESIAN_POINT('',(-1.65407839386598E-34,0.0100008938461542,-1.41897206206746E-34));
#92=CARTESIAN_POINT('',(-9.62367123113629E-36,0.0500044720247388,-4.04027395487827E-35));
#93=VECTOR('',#152,1.0);
#94=CARTESIAN_POINT('',(0.00156215694732964,-0.000122390541946515,0.0134877888485789));
#95=CARTESIAN_POINT('',(0.00078107847366482,0.00493925165210385,0.00674389442428946));
#96=VECTOR('',#153,1.0);
#97=CARTESIAN_POINT('',(0.792094886302948,0.000307759561110288,-0.582939982414246));
#98=CARTESIAN_POINT('',(0.00156215694732964,-0.000122390541946515,0.0134877888485789));
#99=CARTESIAN_POINT('',(0.0430278614889269,-0.000332335622870922,0.00441157066380488));
#100=CARTESIAN_POINT('',(0.124924211021315,-7.25582348802185E-05,-0.0184847285271709));
#101=CARTESIAN_POINT('',(0.242946180855663,-0.00014153203774708,-0.0668617037793132));
#102=CARTESIAN_POINT('',(0.354969054148225,-6.9805258908277E-05,-0.127793393333001));
#103=CARTESIAN_POINT('',(0.460033786502145,-2.94678132688063E-05,-0.200051730270504));
#104=CARTESIAN_POINT('',(0.557059509034007,1.496619743523E-05,-0.282800401505942));
#105=CARTESIAN_POINT('',(0.644911097488357,6.02764365905903E-05,-0.37521685569703));
#106=CARTESIAN_POINT('',(0.723341922882167,0.00018633750224278,-0.475707242454115));
#107=CARTESIAN_POINT('',(0.770068563394833,0.000254019792057336,-0.546654108058095));
#108=CARTESIAN_POINT('',(0.792094886302948,0.000307759561110288,-0.582939982414246));
#109=CARTESIAN_POINT('',(0.808196485042572,0.000572637422010303,-0.583298742771149));
#110=CARTESIAN_POINT('',(0.80014568567276,0.000440198491560295,-0.583119362592697));
#111=VECTOR('',#154,1.0);
#112=CARTESIAN_POINT('',(0.800018310546875,0.0103891901671886,-0.589183151721954));
#113=CARTESIAN_POINT('',(0.804107397794724,0.00548091379459947,-0.586240947246552));
#114=VECTOR('',#155,1.0);
#115=CARTESIAN_POINT('',(0.79954993724823,0.100258819758892,-0.589678168296814));
#116=CARTESIAN_POINT('',(0.799756079912186,0.0553240049630404,-0.589435368776321));
#117=VECTOR('',#156,1.0);
#118=CARTESIAN_POINT('',(0.79954993724823,0.100258819758892,-0.589678168296814));
#119=CARTESIAN_POINT('',(0.797441459382791,0.100259396761253,-0.588024953054518));
#120=CARTESIAN_POINT('',(0.793053357321577,0.100261267975324,-0.584696606658213));
#121=CARTESIAN_POINT('',(0.788681936181904,0.100245352588387,-0.578017338803506));
#122=CARTESIAN_POINT('',(0.784854434808217,0.100228061098438,-0.570850332286649));
#123=CARTESIAN_POINT('',(0.778970291090528,0.100217288582265,-0.561937256408349));
#124=CARTESIAN_POINT('',(0.771951211863605,0.100204313458799,-0.550499860403732));
#125=CARTESIAN_POINT('',(0.760281098000429,0.100195209803879,-0.532529872065959));
#126=CARTESIAN_POINT('',(0.745446267343953,0.10019208069853,-0.510212447650583));
#127=CARTESIAN_POINT('',(0.727071288087834,0.100194003291139,-0.483827570865135));
#128=CARTESIAN_POINT('',(0.70816518686508,0.100185821462082,-0.45781926634508));
#129=CARTESIAN_POINT('',(0.682238957517591,0.100169608238924,-0.423675367837446));
#130=CARTESIAN_POINT('',(0.648469720145515,0.100145373768607,-0.38205116733412));
#131=CARTESIAN_POINT('',(0.605628926690502,0.100136678877092,-0.334068611919553));
#132=CARTESIAN_POINT('',(0.560310050004885,0.100117490270962,-0.288416168655315));
#133=CARTESIAN_POINT('',(0.512668532279531,0.100106640715555,-0.245194645606028));
#134=CARTESIAN_POINT('',(0.462826268749392,0.100098191350418,-0.204529964211594));
#135=CARTESIAN_POINT('',(0.410920696974045,0.100092781025666,-0.166534326194765));
#136=CARTESIAN_POINT('',(0.357093275287127,0.100091383297971,-0.131314107226928));
#137=CARTESIAN_POINT('',(0.301486689586483,0.100098108324745,-0.0989746445488418));
#138=CARTESIAN_POINT('',(0.244219489979017,0.100103012662473,-0.0696736878095012));
#139=CARTESIAN_POINT('',(0.195220108147199,0.100101249243668,-0.0479279950189362));
#140=CARTESIAN_POINT('',(0.155328083151905,0.100107164813116,-0.0322194423183696));
#141=CARTESIAN_POINT('',(0.125083545932868,0.100118426428999,-0.0212969855519607));
#142=CARTESIAN_POINT('',(0.0945342363768598,0.100138952512276,-0.011272147017989));
#143=CARTESIAN_POINT('',(0.0688449826117956,0.10016489443776,-0.0036168309411437));
#144=CARTESIAN_POINT('',(0.0481612294732606,0.100194039294348,0.00194222151405695));
#145=CARTESIAN_POINT('',(0.0351942681693599,0.100203906003999,0.00547225695825869));
#146=CARTESIAN_POINT('',(0.0247698593106116,0.100188155213862,0.00767271112249113));
#147=CARTESIAN_POINT('',(0.0169680850522779,0.100185405915231,0.0100770076154552));
#148=CARTESIAN_POINT('',(0.00915070496888027,0.100171077651929,0.0116291747112167));
#149=CARTESIAN_POINT('',(0.00372077165575549,0.100128120738104,0.0103718919640017));
#150=CARTESIAN_POINT('',(0.00109978392720222,0.100108116865158,0.00981617346405983));
#151=DIRECTION('',(-0.0778486150741796,-0.714936982013328,-0.694841496228245));
#152=DIRECTION('',(-0.0,-1.0,-0.0));
#153=DIRECTION('',(0.0925025131510515,-0.59518343386,0.798248059890758));
#154=DIRECTION('',(0.999616690188881,0.0164441019117932,-0.0222724989199925));
#155=DIRECTION('',(-0.58138328157286,0.697854961608813,-0.418320370607904));
#156=DIRECTION('',(-0.00391846159970485,0.999983026902232,-0.00431179384275446));
ENDSEC;
END-ISO-10303-21;
