ISO-10303-21;
HEADER;
FILE_DESCRIPTION(('STEP AP214'),'1');
FILE_NAME('SMAStripDeformed_10.stp','2026-05-01T23:25:39',(' '),(' '),'Spatial InterOp 3D',' ',' ');
FILE_SCHEMA(('AUTOMOTIVE_DESIGN { 1 0 10303 214 1 1 1 1 }'));
ENDSEC;
DATA;
#1=PRODUCT_DEFINITION_CONTEXT('',#9,'design');
#2=APPLICATION_PROTOCOL_DEFINITION('INTERNATIONAL STANDARD','automotive_design',1994,#9);
#3=PRODUCT_CATEGORY_RELATIONSHIP('NONE','NONE',#10,#11);
#4=SHAPE_DEFINITION_REPRESENTATION(#12,#13);
#5= (GEOMETRIC_REPRESENTATION_CONTEXT(3)GLOBAL_UNCERTAINTY_ASSIGNED_CONTEXT((#16))GLOBAL_UNIT_ASSIGNED_CONTEXT((#18,#19,#20))REPRESENTATION_CONTEXT('NONE','WORKSPACE'));
#9=APPLICATION_CONTEXT(' ');
#10=PRODUCT_CATEGORY('part','NONE');
#11=PRODUCT_RELATED_PRODUCT_CATEGORY('detail',' ',(#22));
#12=PRODUCT_DEFINITION_SHAPE('NONE','NONE',#23);
#13=MANIFOLD_SURFACE_SHAPE_REPRESENTATION('1',(#24,#25),#5);
#16=UNCERTAINTY_MEASURE_WITH_UNIT(LENGTH_MEASURE(1.0E-06),#18,'','');
#18= (CONVERSION_BASED_UNIT('MILLIMETRE',#28)LENGTH_UNIT()NAMED_UNIT(#31));
#19= (NAMED_UNIT(#33)PLANE_ANGLE_UNIT()SI_UNIT($,.RADIAN.));
#20= (NAMED_UNIT(#33)SOLID_ANGLE_UNIT()SI_UNIT($,.STERADIAN.));
#22=PRODUCT('1','','PART--DESC',(#39));
#23=PRODUCT_DEFINITION('','NONE',#40,#1);
#24=SHELL_BASED_SURFACE_MODEL('1',(#41));
#25=AXIS2_PLACEMENT_3D('',#42,#43,#44);
#28=LENGTH_MEASURE_WITH_UNIT(LENGTH_MEASURE(1.0),#45);
#31=DIMENSIONAL_EXPONENTS(1.0,0.0,0.0,0.0,0.0,0.0,0.0);
#33=DIMENSIONAL_EXPONENTS(0.0,0.0,0.0,0.0,0.0,0.0,0.0);
#39=PRODUCT_CONTEXT('',#9,'mechanical');
#40=PRODUCT_DEFINITION_FORMATION_WITH_SPECIFIED_SOURCE(' ','NONE',#22,.NOT_KNOWN.);
#41=CLOSED_SHELL('',(#46));
#42=CARTESIAN_POINT('',(0.0,0.0,0.0));
#43=DIRECTION('',(0.0,0.0,1.0));
#44=DIRECTION('',(1.0,0.0,0.0));
#45= (NAMED_UNIT(#31)LENGTH_UNIT()SI_UNIT(.MILLI.,.METRE.));
#46=FACE_SURFACE('',(#48),#49,.T.);
#48=FACE_BOUND('',#50,.T.);
#49=CYLINDRICAL_SURFACE('',#51,1.22732595215055);
#50=EDGE_LOOP('',(#52,#53,#54,#55,#56,#57,#58,#59));
#51=AXIS2_PLACEMENT_3D('',#60,#61,#62);
#52=ORIENTED_EDGE('',*,*,#63,.T.);
#53=ORIENTED_EDGE('',*,*,#64,.T.);
#54=ORIENTED_EDGE('',*,*,#65,.T.);
#55=ORIENTED_EDGE('',*,*,#66,.T.);
#56=ORIENTED_EDGE('',*,*,#67,.T.);
#57=ORIENTED_EDGE('',*,*,#68,.T.);
#58=ORIENTED_EDGE('',*,*,#69,.T.);
#59=ORIENTED_EDGE('',*,*,#70,.T.);
#60=CARTESIAN_POINT('',(-0.256181256386233,-0.0037106627973134,-1.18646199198831));
#61=DIRECTION('',(-0.00140881403059686,-0.999993119409699,0.00343167252017928));
#62=DIRECTION('',(0.0,0.00343167592570233,0.999994111782835));
#63=EDGE_CURVE('',#71,#72,#73,.T.);
#64=EDGE_CURVE('',#72,#74,#75,.T.);
#65=EDGE_CURVE('',#74,#76,#77,.T.);
#66=EDGE_CURVE('',#76,#78,#79,.T.);
#67=EDGE_CURVE('',#78,#80,#81,.T.);
#68=EDGE_CURVE('',#80,#82,#83,.T.);
#69=EDGE_CURVE('',#82,#84,#85,.T.);
#70=EDGE_CURVE('',#84,#71,#86,.T.);
#71=VERTEX_POINT('',#87);
#72=VERTEX_POINT('',#88);
#73=LINE('',#89,#90);
#74=VERTEX_POINT('',#91);
#75=B_SPLINE_CURVE_WITH_KNOTS('',3,(#92,#93,#94,#95,#96,#97,#98,#99,#100,#101,#102,#103,#104,#105,#106,#107,#108,#109,#110,#111,#112),.UNSPECIFIED.,.F.,.F.,(4,1,1,1,1,1,1,1,1,1,1,1,1,1,1,1,1,1,4),(0.0,0.128508312275556,0.257016624551111,0.385524936826667,0.514033249102223,0.642541561377778,0.706795717515556,0.771049873653334,0.835304029791112,0.867431107860001,0.89955818592889,0.931685263997779,0.963812342066667,0.979875881101112,0.995939420135556,1.00397118965278,1.01200295917,1.02003472868722,1.02806649820445),.UNSPECIFIED.);
#76=VERTEX_POINT('',#113);
#77=LINE('',#114,#115);
#78=VERTEX_POINT('',#116);
#79=LINE('',#117,#118);
#80=VERTEX_POINT('',#119);
#81=LINE('',#120,#121);
#82=VERTEX_POINT('',#122);
#83=B_SPLINE_CURVE_WITH_KNOTS('',3,(#123,#124,#125,#126,#127,#128,#129,#130,#131,#132,#133),.UNSPECIFIED.,.F.,.F.,(4,1,1,1,1,1,1,1,4),(0.0,0.12731841774104,0.254636835482081,0.381955253223121,0.509273670964162,0.636592088705202,0.763910506446243,0.891228924187283,1.01854734192832),.UNSPECIFIED.);
#84=VERTEX_POINT('',#134);
#85=LINE('',#135,#136);
#86=LINE('',#137,#138);
#87=CARTESIAN_POINT('',(0.811050951480865,0.0104317273944616,-0.573003888130188));
#88=CARTESIAN_POINT('',(0.810057878494263,0.100360043346882,-0.573750972747803));
#89=CARTESIAN_POINT('',(0.810671240091324,0.0553958853706717,-0.57337212562561));
#90=VECTOR('',#139,1.0);
#91=CARTESIAN_POINT('',(0.00109112774953246,0.100098937749863,0.00982609856873751));
#92=CARTESIAN_POINT('',(0.810057878494263,0.100360043346882,-0.573750972747803));
#93=CARTESIAN_POINT('',(0.787367913059752,0.100271522090968,-0.537417937554801));
#94=CARTESIAN_POINT('',(0.739392218033158,0.100305707083471,-0.466365642447921));
#95=CARTESIAN_POINT('',(0.658636536996574,0.10022968633433,-0.366214162233901));
#96=CARTESIAN_POINT('',(0.567971278644653,0.100176901753192,-0.274888268138327));
#97=CARTESIAN_POINT('',(0.46836476616579,0.100143336512895,-0.193424049078026));
#98=CARTESIAN_POINT('',(0.378808889108153,0.100124189006635,-0.134439560882589));
#99=CARTESIAN_POINT('',(0.303759768384248,0.10012189170729,-0.093056316020539));
#100=CARTESIAN_POINT('',(0.245880415051267,0.100118613993944,-0.0650977850689243));
#101=CARTESIAN_POINT('',(0.196432561374854,0.10011025042381,-0.0444998468088339));
#102=CARTESIAN_POINT('',(0.156220664274111,0.100110990012238,-0.0297246016645099));
#103=CARTESIAN_POINT('',(0.125756267778292,0.100118341215787,-0.0195105608995515));
#104=CARTESIAN_POINT('',(0.095007490047129,0.100135177167476,-0.0101955189342012));
#105=CARTESIAN_POINT('',(0.0691697528805591,0.10015768409101,-0.00315230233206153));
#106=CARTESIAN_POINT('',(0.048377219130409,0.100184758057328,0.00195097496568474));
#107=CARTESIAN_POINT('',(0.0353488177209909,0.100192706585992,0.00511789012548685));
#108=CARTESIAN_POINT('',(0.0248738100121742,0.100177936398882,0.00718911811292226));
#109=CARTESIAN_POINT('',(0.0170437728004131,0.100170907931804,0.00923032520951412));
#110=CARTESIAN_POINT('',(0.00917860804005324,0.100154042543034,0.0107007148680933));
#111=CARTESIAN_POINT('',(0.00375526307812273,0.100116711857554,0.0100902376033088));
#112=CARTESIAN_POINT('',(0.00109112774953246,0.100098937749863,0.00982609856873751));
#113=CARTESIAN_POINT('',(-1.56964036171789E-34,0.0900080502033234,-1.0521157724158E-34));
#114=CARTESIAN_POINT('',(0.000545563874766231,0.095053493976593,0.00491304928436875));
#115=VECTOR('',#140,1.0);
#116=CARTESIAN_POINT('',(-3.33496839042403E-34,0.0100008938461542,-3.32941073578528E-34));
#117=CARTESIAN_POINT('',(5.06926199073602E-36,0.0500044720247388,-2.4394125091203E-35));
#118=VECTOR('',#141,1.0);
#119=CARTESIAN_POINT('',(0.00130466604605317,-0.000113084672193509,0.0123745640739799));
#120=CARTESIAN_POINT('',(0.000652333023026586,0.00494390458698035,0.00618728203698993));
#121=VECTOR('',#142,1.0);
#122=CARTESIAN_POINT('',(0.804865598678589,0.000371912057744339,-0.565680682659149));
#123=CARTESIAN_POINT('',(0.00130466604605317,-0.000113084672193509,0.0123745640739799));
#124=CARTESIAN_POINT('',(0.0429679525324072,-0.00034656582676315,0.00429837198832092));
#125=CARTESIAN_POINT('',(0.125346120442894,-4.63715104235925E-05,-0.0167428375440154));
#126=CARTESIAN_POINT('',(0.244430777087299,-0.000121703125619841,-0.0623634835574553));
#127=CARTESIAN_POINT('',(0.357787216990868,-3.85812442873119E-05,-0.120724886312529));
#128=CARTESIAN_POINT('',(0.464460759317679,1.67888340186403E-05,-0.190536629235988));
#129=CARTESIAN_POINT('',(0.563473248669497,7.44497540045888E-05,-0.270837919261726));
#130=CARTESIAN_POINT('',(0.653739756204523,0.00013917572485388,-0.360875036660162));
#131=CARTESIAN_POINT('',(0.734269602186235,0.000252215466602899,-0.459677708761614));
#132=CARTESIAN_POINT('',(0.782206051567813,0.000294692234576745,-0.529796873012855));
#133=CARTESIAN_POINT('',(0.804865598678589,0.000371912057744339,-0.565680682659149));
#134=CARTESIAN_POINT('',(0.819252848625183,0.000525811978150159,-0.567300081253052));
#135=CARTESIAN_POINT('',(0.812059223651886,0.000448862017947249,-0.5664903819561));
#136=VECTOR('',#143,1.0);
#137=CARTESIAN_POINT('',(0.815151900053024,0.0054787696863059,-0.57015198469162));
#138=VECTOR('',#144,1.0);
#139=DIRECTION('',(-0.00357410139926297,0.999986511311751,-0.00376868594350337));
#140=DIRECTION('',(-0.0772376932736315,-0.714303964418717,-0.69556033897389));
#141=DIRECTION('',(-0.0,-1.0,-0.0));
#142=DIRECTION('',(0.0813631186719478,-0.630739825661347,0.771717121259253));
#143=DIRECTION('',(0.993668785430748,0.0106292409984676,-0.111845268547126));
#144=DIRECTION('',(-0.582984022458184,0.704104222951976,-0.405421845464289));
ENDSEC;
END-ISO-10303-21;
