ISO-10303-21;
HEADER;
FILE_DESCRIPTION(('STEP AP214'),'1');
FILE_NAME('SMAStripDeformed_08.stp','2026-05-01T23:23:00',(' '),(' '),'Spatial InterOp 3D',' ',' ');
FILE_SCHEMA(('AUTOMOTIVE_DESIGN { 1 0 10303 214 1 1 1 1 }'));
ENDSEC;
DATA;
#1=PRODUCT_DEFINITION_CONTEXT('',#9,'design');
#2=APPLICATION_PROTOCOL_DEFINITION('INTERNATIONAL STANDARD','automotive_design',1994,#9);
#3=PRODUCT_CATEGORY_RELATIONSHIP('NONE','NONE',#10,#11);
#4=SHAPE_DEFINITION_REPRESENTATION(#12,#13);
#5= (GEOMETRIC_REPRESENTATION_CONTEXT(3)GLOBAL_UNCERTAINTY_ASSIGNED_CONTEXT((#16))GLOBAL_UNIT_ASSIGNED_CONTEXT((#18,#19,#20))REPRESENTATION_CONTEXT('NONE','WORKSPACE'));
#9=APPLICATION_CONTEXT(' ');
#10=PRODUCT_CATEGORY('part','NONE');
#11=PRODUCT_RELATED_PRODUCT_CATEGORY('detail',' ',(#22));
#12=PRODUCT_DEFINITION_SHAPE('NONE','NONE',#23);
#13=MANIFOLD_SURFACE_SHAPE_REPRESENTATION('1',(#24,#25),#5);
#16=UNCERTAINTY_MEASURE_WITH_UNIT(LENGTH_MEASURE(1.0E-06),#18,'','');
#18= (CONVERSION_BASED_UNIT('MILLIMETRE',#28)LENGTH_UNIT()NAMED_UNIT(#31));
#19= (NAMED_UNIT(#33)PLANE_ANGLE_UNIT()SI_UNIT($,.RADIAN.));
#20= (NAMED_UNIT(#33)SOLID_ANGLE_UNIT()SI_UNIT($,.STERADIAN.));
#22=PRODUCT('1','','PART--DESC',(#39));
#23=PRODUCT_DEFINITION('','NONE',#40,#1);
#24=SHELL_BASED_SURFACE_MODEL('1',(#41));
#25=AXIS2_PLACEMENT_3D('',#42,#43,#44);
#28=LENGTH_MEASURE_WITH_UNIT(LENGTH_MEASURE(1.0),#45);
#31=DIMENSIONAL_EXPONENTS(1.0,0.0,0.0,0.0,0.0,0.0,0.0);
#33=DIMENSIONAL_EXPONENTS(0.0,0.0,0.0,0.0,0.0,0.0,0.0);
#39=PRODUCT_CONTEXT('',#9,'mechanical');
#40=PRODUCT_DEFINITION_FORMATION_WITH_SPECIFIED_SOURCE(' ','NONE',#22,.NOT_KNOWN.);
#41=CLOSED_SHELL('',(#46));
#42=CARTESIAN_POINT('',(0.0,0.0,0.0));
#43=DIRECTION('',(0.0,0.0,1.0));
#44=DIRECTION('',(1.0,0.0,0.0));
#45= (NAMED_UNIT(#31)LENGTH_UNIT()SI_UNIT(.MILLI.,.METRE.));
#46=FACE_SURFACE('',(#48),#49,.T.);
#48=FACE_BOUND('',#50,.T.);
#49=CYLINDRICAL_SURFACE('',#51,1.27472434377776);
#50=EDGE_LOOP('',(#52,#53,#54,#55,#56,#57,#58,#59));
#51=AXIS2_PLACEMENT_3D('',#60,#61,#62);
#52=ORIENTED_EDGE('',*,*,#63,.T.);
#53=ORIENTED_EDGE('',*,*,#64,.T.);
#54=ORIENTED_EDGE('',*,*,#65,.T.);
#55=ORIENTED_EDGE('',*,*,#66,.T.);
#56=ORIENTED_EDGE('',*,*,#67,.T.);
#57=ORIENTED_EDGE('',*,*,#68,.T.);
#58=ORIENTED_EDGE('',*,*,#69,.T.);
#59=ORIENTED_EDGE('',*,*,#70,.T.);
#60=CARTESIAN_POINT('',(-0.209238140891057,-0.00179130053936649,-1.24589388567511));
#61=DIRECTION('',(0.00366630211465529,0.999991170690667,-0.00205347741991105));
#62=DIRECTION('',(-1.24733248787488E-21,-0.002053491221237,-0.999997891584679));
#63=EDGE_CURVE('',#71,#72,#73,.T.);
#64=EDGE_CURVE('',#72,#74,#75,.T.);
#65=EDGE_CURVE('',#74,#76,#77,.T.);
#66=EDGE_CURVE('',#76,#78,#79,.T.);
#67=EDGE_CURVE('',#78,#80,#81,.T.);
#68=EDGE_CURVE('',#80,#82,#83,.T.);
#69=EDGE_CURVE('',#82,#84,#85,.T.);
#70=EDGE_CURVE('',#84,#71,#86,.T.);
#71=VERTEX_POINT('',#87);
#72=VERTEX_POINT('',#88);
#73=LINE('',#89,#90);
#74=VERTEX_POINT('',#91);
#75=LINE('',#92,#93);
#76=VERTEX_POINT('',#94);
#77=B_SPLINE_CURVE_WITH_KNOTS('',3,(#95,#96,#97,#98,#99,#100,#101,#102,#103,#104,#105,#106,#107,#108,#109,#110,#111,#112,#113),.UNSPECIFIED.,.F.,.F.,(4,1,1,1,1,1,1,1,1,1,1,1,1,1,1,1,4),(0.0,0.127228621119186,0.254457242238373,0.381685863357559,0.508914484476746,0.636143105595932,0.699757416155526,0.763371726715119,0.826986037274712,0.890600347834305,0.922407503114102,0.954214658393899,0.986021813673695,0.993973602493644,1.00192539131359,1.00987718013354,1.01782896895349),.UNSPECIFIED.);
#78=VERTEX_POINT('',#114);
#79=LINE('',#115,#116);
#80=VERTEX_POINT('',#117);
#81=LINE('',#118,#119);
#82=VERTEX_POINT('',#120);
#83=B_SPLINE_CURVE_WITH_KNOTS('',3,(#121,#122,#123,#124,#125,#126,#127,#128,#129),.UNSPECIFIED.,.F.,.F.,(4,1,1,1,1,1,4),(0.0,0.0225958597015801,0.0451917194031601,0.0564896492539501,0.0677875791047402,0.0790855089555302,0.0903834388063202),.UNSPECIFIED.);
#84=VERTEX_POINT('',#130);
#85=B_SPLINE_CURVE_WITH_KNOTS('',3,(#131,#132,#133,#134,#135,#136,#137,#138,#139,#140,#141,#142),.UNSPECIFIED.,.F.,.F.,(4,1,1,1,1,1,1,1,1,4),(0.0,0.128390516595352,0.256781033190703,0.385171549786055,0.513562066381406,0.641952582976758,0.77034309957211,0.898733616167461,0.962928874465137,1.02712413276281),.UNSPECIFIED.);
#86=LINE('',#143,#144);
#87=CARTESIAN_POINT('',(-2.15440196514893E-34,0.0900080502033234,-2.04548575547178E-34));
#88=CARTESIAN_POINT('',(-1.75676345033445E-34,0.0100008938461542,-1.08809473871747E-34));
#89=CARTESIAN_POINT('',(7.69779133709446E-35,0.0500044720247388,4.90272864994682E-35));
#90=VECTOR('',#145,1.0);
#91=CARTESIAN_POINT('',(0.000846462382469326,-9.68294698395766E-05,0.0100925983861089));
#92=CARTESIAN_POINT('',(0.000423231191234663,0.00495203218815732,0.00504629919305444));
#93=VECTOR('',#146,1.0);
#94=CARTESIAN_POINT('',(0.839625477790833,0.000637601537164301,-0.518031418323517));
#95=CARTESIAN_POINT('',(0.000846462382469326,-9.68294698395766E-05,0.0100925983861089));
#96=CARTESIAN_POINT('',(0.0428120535529832,-0.00027907350432932,0.00397499595741413));
#97=CARTESIAN_POINT('',(0.126052975277272,-3.27925717873618E-05,-0.0129977482183182));
#98=CARTESIAN_POINT('',(0.247264367230882,-6.75652829045023E-05,-0.0522950871269178));
#99=CARTESIAN_POINT('',(0.363583916485502,2.85950114266102E-05,-0.104263465896264));
#100=CARTESIAN_POINT('',(0.474021839415389,0.000113460442189756,-0.167745196801139));
#101=CARTESIAN_POINT('',(0.560533622483424,0.000198034360331881,-0.229248382472449));
#102=CARTESIAN_POINT('',(0.625953001511568,0.000271497922155182,-0.283274443115609));
#103=CARTESIAN_POINT('',(0.673009235906015,0.000330845831852001,-0.326109766300548));
#104=CARTESIAN_POINT('',(0.717945259068142,0.000396485410863349,-0.371163810846555));
#105=CARTESIAN_POINT('',(0.753548080941228,0.00045591519815572,-0.410462509738537));
#106=CARTESIAN_POINT('',(0.780852376076187,0.000506308203543392,-0.442916959201359));
#107=CARTESIAN_POINT('',(0.800786006338796,0.000545294765619142,-0.467705451854617));
#108=CARTESIAN_POINT('',(0.815142306841165,0.000583497146209158,-0.486766048985153));
#109=CARTESIAN_POINT('',(0.824741371696108,0.000607386494494529,-0.499436696604697));
#110=CARTESIAN_POINT('',(0.829290575863183,0.000619595274915472,-0.505974983173895));
#111=CARTESIAN_POINT('',(0.834015834922907,0.000630604713948166,-0.512360876673049));
#112=CARTESIAN_POINT('',(0.837770036546682,0.000635234264687769,-0.516138538826654));
#113=CARTESIAN_POINT('',(0.839625477790833,0.000637601537164301,-0.518031418323517));
#114=CARTESIAN_POINT('',(0.851330518722534,0.000652532267849892,-0.521140992641449));
#115=CARTESIAN_POINT('',(0.845477998256683,0.000645066902507097,-0.519586205482483));
#116=VECTOR('',#147,1.0);
#117=CARTESIAN_POINT('',(0.846537351608276,0.0107098566368222,-0.524730324745178));
#118=CARTESIAN_POINT('',(0.848933935165405,0.00568119445233606,-0.522935658693314));
#119=VECTOR('',#148,1.0);
#120=CARTESIAN_POINT('',(0.84451562166214,0.100694730877876,-0.526236891746521));
#121=CARTESIAN_POINT('',(0.846537351608276,0.0107098566368222,-0.524730324745178));
#122=CARTESIAN_POINT('',(0.846551427271649,0.0182417964432412,-0.524728288759703));
#123=CARTESIAN_POINT('',(0.846610382858845,0.0333088885938797,-0.524702985387244));
#124=CARTESIAN_POINT('',(0.84661171234346,0.0521263557638923,-0.524725332132501));
#125=CARTESIAN_POINT('',(0.846833730544316,0.0672129561861878,-0.524586820642241));
#126=CARTESIAN_POINT('',(0.846516954513431,0.0784571092008186,-0.52481882997518));
#127=CARTESIAN_POINT('',(0.847613454240477,0.0898996413392324,-0.524062056523029));
#128=CARTESIAN_POINT('',(0.845579558952704,0.0971601988210866,-0.525490098294128));
#129=CARTESIAN_POINT('',(0.84451562166214,0.100694730877876,-0.526236891746521));
#130=CARTESIAN_POINT('',(0.00107026612386107,0.100072301924229,0.00985315348953009));
#131=CARTESIAN_POINT('',(0.84451562166214,0.100694730877876,-0.526236891746521));
#132=CARTESIAN_POINT('',(0.819899495608098,0.100595319183583,-0.491228237498558));
#133=CARTESIAN_POINT('',(0.767600224102726,0.100557058015415,-0.423353231049578));
#134=CARTESIAN_POINT('',(0.679500518744586,0.100410835240032,-0.329740256415408));
#135=CARTESIAN_POINT('',(0.58276603068754,0.100320922439472,-0.245093663701312));
#136=CARTESIAN_POINT('',(0.478262673026406,0.100243969302787,-0.170247093141577));
#137=CARTESIAN_POINT('',(0.366985634640371,0.100185460690704,-0.105886216273254));
#138=CARTESIAN_POINT('',(0.249704384600202,0.100150453883828,-0.0532156428707722));
#139=CARTESIAN_POINT('',(0.147807257211959,0.10010227861965,-0.0200440334937056));
#140=CARTESIAN_POINT('',(0.0644225450265522,0.100139937711892,-0.000588043243088123));
#141=CARTESIAN_POINT('',(0.0222607902484654,0.100197456913674,0.00688021256094069));
#142=CARTESIAN_POINT('',(0.00107026612386107,0.100072301924229,0.00985315348953009));
#143=CARTESIAN_POINT('',(0.000535133061930537,0.095040176063776,0.00492657674476504));
#144=VECTOR('',#149,1.0);
#145=DIRECTION('',(-0.0,-1.0,-0.0));
#146=DIRECTION('',(0.0591857853284654,-0.706046360552007,0.705688018579257));
#147=DIRECTION('',(0.966475729622668,0.00123281831454981,-0.256755027622313));
#148=DIRECTION('',(-0.409496650246044,0.859231598097483,-0.306648910430341));
#149=DIRECTION('',(-0.0757703616522097,-0.712506894921449,-0.697562023754511));
ENDSEC;
END-ISO-10303-21;
