ISO-10303-21;
HEADER;
FILE_DESCRIPTION(('STEP AP214'),'1');
FILE_NAME('SMAStripDeformed_02.stp','2026-05-01T23:17:16',(' '),(' '),'Spatial InterOp 3D',' ',' ');
FILE_SCHEMA(('AUTOMOTIVE_DESIGN { 1 0 10303 214 1 1 1 1 }'));
ENDSEC;
DATA;
#1=PRODUCT_DEFINITION_CONTEXT('',#9,'design');
#2=APPLICATION_PROTOCOL_DEFINITION('INTERNATIONAL STANDARD','automotive_design',1994,#9);
#3=PRODUCT_CATEGORY_RELATIONSHIP('NONE','NONE',#10,#11);
#4=SHAPE_DEFINITION_REPRESENTATION(#12,#13);
#5= (GEOMETRIC_REPRESENTATION_CONTEXT(3)GLOBAL_UNCERTAINTY_ASSIGNED_CONTEXT((#16))GLOBAL_UNIT_ASSIGNED_CONTEXT((#18,#19,#20))REPRESENTATION_CONTEXT('NONE','WORKSPACE'));
#9=APPLICATION_CONTEXT(' ');
#10=PRODUCT_CATEGORY('part','NONE');
#11=PRODUCT_RELATED_PRODUCT_CATEGORY('detail',' ',(#22));
#12=PRODUCT_DEFINITION_SHAPE('NONE','NONE',#23);
#13=MANIFOLD_SURFACE_SHAPE_REPRESENTATION('1',(#24,#25),#5);
#16=UNCERTAINTY_MEASURE_WITH_UNIT(LENGTH_MEASURE(1.0E-06),#18,'','');
#18= (CONVERSION_BASED_UNIT('MILLIMETRE',#28)LENGTH_UNIT()NAMED_UNIT(#31));
#19= (NAMED_UNIT(#33)PLANE_ANGLE_UNIT()SI_UNIT($,.RADIAN.));
#20= (NAMED_UNIT(#33)SOLID_ANGLE_UNIT()SI_UNIT($,.STERADIAN.));
#22=PRODUCT('1','','PART--DESC',(#39));
#23=PRODUCT_DEFINITION('','NONE',#40,#1);
#24=SHELL_BASED_SURFACE_MODEL('1',(#41));
#25=AXIS2_PLACEMENT_3D('',#42,#43,#44);
#28=LENGTH_MEASURE_WITH_UNIT(LENGTH_MEASURE(1.0),#45);
#31=DIMENSIONAL_EXPONENTS(1.0,0.0,0.0,0.0,0.0,0.0,0.0);
#33=DIMENSIONAL_EXPONENTS(0.0,0.0,0.0,0.0,0.0,0.0,0.0);
#39=PRODUCT_CONTEXT('',#9,'mechanical');
#40=PRODUCT_DEFINITION_FORMATION_WITH_SPECIFIED_SOURCE(' ','NONE',#22,.NOT_KNOWN.);
#41=CLOSED_SHELL('',(#46));
#42=CARTESIAN_POINT('',(0.0,0.0,0.0));
#43=DIRECTION('',(0.0,0.0,1.0));
#44=DIRECTION('',(1.0,0.0,0.0));
#45= (NAMED_UNIT(#31)LENGTH_UNIT()SI_UNIT(.MILLI.,.METRE.));
#46=FACE_SURFACE('',(#48),#49,.T.);
#48=FACE_BOUND('',#50,.T.);
#49=CYLINDRICAL_SURFACE('',#51,2.63061233261386);
#50=EDGE_LOOP('',(#52,#53,#54,#55,#56));
#51=AXIS2_PLACEMENT_3D('',#57,#58,#59);
#52=ORIENTED_EDGE('',*,*,#60,.T.);
#53=ORIENTED_EDGE('',*,*,#61,.T.);
#54=ORIENTED_EDGE('',*,*,#62,.T.);
#55=ORIENTED_EDGE('',*,*,#63,.T.);
#56=ORIENTED_EDGE('',*,*,#64,.T.);
#57=CARTESIAN_POINT('',(-0.0440468787052291,-0.000915492126794076,-2.62854711929552));
#58=DIRECTION('',(-0.00121213445642952,-0.999999197431775,0.000368599872400165));
#59=DIRECTION('',(0.0,0.00036860014318682,0.999999932066965));
#60=EDGE_CURVE('',#65,#66,#67,.T.);
#61=EDGE_CURVE('',#66,#68,#69,.T.);
#62=EDGE_CURVE('',#68,#70,#71,.T.);
#63=EDGE_CURVE('',#70,#72,#73,.T.);
#64=EDGE_CURVE('',#72,#65,#74,.T.);
#65=VERTEX_POINT('',#75);
#66=VERTEX_POINT('',#76);
#67=B_SPLINE_CURVE_WITH_KNOTS('',3,(#77,#78,#79,#80,#81,#82,#83,#84,#85,#86,#87,#88,#89,#90,#91,#92,#93,#94),.UNSPECIFIED.,.F.,.F.,(4,1,1,1,1,1,1,1,1,1,1,1,1,1,1,4),(0.0,0.126816794066459,0.253633588132919,0.380450382199378,0.507267176265837,0.634083970332297,0.697492367365526,0.760900764398756,0.824309161431986,0.887717558465215,0.91942175698183,0.951125955498445,0.98283015401506,0.998682253273367,1.00660830290252,1.01453435253167),.UNSPECIFIED.);
#68=VERTEX_POINT('',#95);
#69=LINE('',#96,#97);
#70=VERTEX_POINT('',#98);
#71=LINE('',#99,#100);
#72=VERTEX_POINT('',#101);
#73=CIRCLE('',#102,2.63525288500545);
#74=LINE('',#103,#104);
#75=CARTESIAN_POINT('',(0.986461162567139,0.100015677511692,-0.207638204097748));
#76=CARTESIAN_POINT('',(6.44263504295214E-38,0.100008942186832,3.31756991039361E-38));
#77=CARTESIAN_POINT('',(0.986461162567139,0.100015677511692,-0.207638204097748));
#78=CARTESIAN_POINT('',(0.947391087309782,0.100023063583578,-0.191499011839394));
#79=CARTESIAN_POINT('',(0.868622646685211,0.100022535035002,-0.160735420573776));
#80=CARTESIAN_POINT('',(0.748530500062291,0.100028219113136,-0.119885928140503));
#81=CARTESIAN_POINT('',(0.626726791274149,0.10003067518136,-0.0844646800611092));
#82=CARTESIAN_POINT('',(0.503398881776592,0.10003244194982,-0.0547688249053123));
#83=CARTESIAN_POINT('',(0.399551744804047,0.100032798139252,-0.0349981322761712));
#84=CARTESIAN_POINT('',(0.31596085676517,0.100032493551528,-0.0222905454429145));
#85=CARTESIAN_POINT('',(0.253047329772452,0.100031971526124,-0.0143426165211704));
#86=CARTESIAN_POINT('',(0.189951089640014,0.100031179673789,-0.00800679184724217));
#87=CARTESIAN_POINT('',(0.137251470447398,0.100030188498652,-0.00408649513586944));
#88=CARTESIAN_POINT('',(0.0950416342984736,0.100029816315406,-0.00178517482461452));
#89=CARTESIAN_POINT('',(0.0633632568798183,0.100028914573557,-0.000445744887011246));
#90=CARTESIAN_POINT('',(0.0369565474224624,0.100028747884632,0.000252650689829956));
#91=CARTESIAN_POINT('',(0.0184600499701837,0.100023068972541,0.000732829973957121));
#92=CARTESIAN_POINT('',(0.00789688132854587,0.100020014720643,0.000840634076842594));
#93=CARTESIAN_POINT('',(0.00262836297389611,0.100012511088391,0.000268228921166532));
#94=CARTESIAN_POINT('',(6.44263504295214E-38,0.100008942186832,3.31756991039361E-38));
#95=CARTESIAN_POINT('',(-3.61558368754927E-34,0.0100008938461542,7.91303852983474E-36));
#96=CARTESIAN_POINT('',(4.4206692073454E-35,0.0550049180164933,3.41040068943576E-35));
#97=VECTOR('',#105,1.0);
#98=CARTESIAN_POINT('',(4.68055304736481E-06,-8.9379809651291E-06,0.000869919022079557));
#99=CARTESIAN_POINT('',(2.34027652368241E-06,0.00499597793259454,0.000434959511039779));
#100=VECTOR('',#106,1.0);
#101=CARTESIAN_POINT('',(0.986487984657288,-1.84262898983434E-05,-0.207653254270554));
#102=AXIS2_PLACEMENT_3D('',#107,#108,#109);
#103=CARTESIAN_POINT('',(0.986688226461411,0.0499986256108969,-0.207055479288101));
#104=VECTOR('',#110,1.0);
#105=DIRECTION('',(-0.0,-1.0,-0.0));
#106=DIRECTION('',(0.000465839650198143,-0.996244783404988,0.0865801047110035));
#107=CARTESIAN_POINT('',(-0.0455851960953156,0.000707243234695713,-2.63325459064005));
#108=DIRECTION('',(5.43251764848544E-05,0.999999960199528,0.000276856855120397));
#109=DIRECTION('',(0.0,0.00027685685552893,-0.99999996167514));
#110=DIRECTION('',(-0.000118225472745113,0.999999988944724,9.01847528559611E-05));
ENDSEC;
END-ISO-10303-21;
