ISO-10303-21;
HEADER;
FILE_DESCRIPTION(('STEP AP214'),'1');
FILE_NAME('SMAStripDeformed_03.stp','2026-05-01T23:17:52',(' '),(' '),'Spatial InterOp 3D',' ',' ');
FILE_SCHEMA(('AUTOMOTIVE_DESIGN { 1 0 10303 214 1 1 1 1 }'));
ENDSEC;
DATA;
#1=PRODUCT_DEFINITION_CONTEXT('',#9,'design');
#2=APPLICATION_PROTOCOL_DEFINITION('INTERNATIONAL STANDARD','automotive_design',1994,#9);
#3=PRODUCT_CATEGORY_RELATIONSHIP('NONE','NONE',#10,#11);
#4=SHAPE_DEFINITION_REPRESENTATION(#12,#13);
#5= (GEOMETRIC_REPRESENTATION_CONTEXT(3)GLOBAL_UNCERTAINTY_ASSIGNED_CONTEXT((#16))GLOBAL_UNIT_ASSIGNED_CONTEXT((#18,#19,#20))REPRESENTATION_CONTEXT('NONE','WORKSPACE'));
#9=APPLICATION_CONTEXT(' ');
#10=PRODUCT_CATEGORY('part','NONE');
#11=PRODUCT_RELATED_PRODUCT_CATEGORY('detail',' ',(#22));
#12=PRODUCT_DEFINITION_SHAPE('NONE','NONE',#23);
#13=MANIFOLD_SURFACE_SHAPE_REPRESENTATION('1',(#24,#25),#5);
#16=UNCERTAINTY_MEASURE_WITH_UNIT(LENGTH_MEASURE(1.0E-06),#18,'','');
#18= (CONVERSION_BASED_UNIT('MILLIMETRE',#28)LENGTH_UNIT()NAMED_UNIT(#31));
#19= (NAMED_UNIT(#33)PLANE_ANGLE_UNIT()SI_UNIT($,.RADIAN.));
#20= (NAMED_UNIT(#33)SOLID_ANGLE_UNIT()SI_UNIT($,.STERADIAN.));
#22=PRODUCT('1','','PART--DESC',(#39));
#23=PRODUCT_DEFINITION('','NONE',#40,#1);
#24=SHELL_BASED_SURFACE_MODEL('1',(#41));
#25=AXIS2_PLACEMENT_3D('',#42,#43,#44);
#28=LENGTH_MEASURE_WITH_UNIT(LENGTH_MEASURE(1.0),#45);
#31=DIMENSIONAL_EXPONENTS(1.0,0.0,0.0,0.0,0.0,0.0,0.0);
#33=DIMENSIONAL_EXPONENTS(0.0,0.0,0.0,0.0,0.0,0.0,0.0);
#39=PRODUCT_CONTEXT('',#9,'mechanical');
#40=PRODUCT_DEFINITION_FORMATION_WITH_SPECIFIED_SOURCE(' ','NONE',#22,.NOT_KNOWN.);
#41=CLOSED_SHELL('',(#46));
#42=CARTESIAN_POINT('',(0.0,0.0,0.0));
#43=DIRECTION('',(0.0,0.0,1.0));
#44=DIRECTION('',(1.0,0.0,0.0));
#45= (NAMED_UNIT(#31)LENGTH_UNIT()SI_UNIT(.MILLI.,.METRE.));
#46=FACE_SURFACE('',(#48),#49,.T.);
#48=FACE_BOUND('',#50,.T.);
#49=CYLINDRICAL_SURFACE('',#51,1.95966574541083);
#50=EDGE_LOOP('',(#52,#53,#54,#55,#56));
#51=AXIS2_PLACEMENT_3D('',#57,#58,#59);
#52=ORIENTED_EDGE('',*,*,#60,.T.);
#53=ORIENTED_EDGE('',*,*,#61,.T.);
#54=ORIENTED_EDGE('',*,*,#62,.T.);
#55=ORIENTED_EDGE('',*,*,#63,.T.);
#56=ORIENTED_EDGE('',*,*,#64,.T.);
#57=CARTESIAN_POINT('',(-0.0694816300415471,0.0024351546474426,-1.95549474267143));
#58=DIRECTION('',(0.00930949465823798,0.999956247584759,0.000914453616645925));
#59=DIRECTION('',(0.0,0.000914493245556242,-0.999999581850964));
#60=EDGE_CURVE('',#65,#66,#67,.T.);
#61=EDGE_CURVE('',#66,#68,#69,.T.);
#62=EDGE_CURVE('',#68,#70,#71,.T.);
#63=EDGE_CURVE('',#70,#72,#73,.T.);
#64=EDGE_CURVE('',#72,#65,#74,.T.);
#65=VERTEX_POINT('',#75);
#66=VERTEX_POINT('',#76);
#67=LINE('',#77,#78);
#68=VERTEX_POINT('',#79);
#69=LINE('',#80,#81);
#70=VERTEX_POINT('',#82);
#71=B_SPLINE_CURVE_WITH_KNOTS('',3,(#83,#84,#85,#86,#87,#88,#89,#90,#91,#92,#93,#94,#95,#96,#97,#98,#99,#100,#101),.UNSPECIFIED.,.F.,.F.,(4,1,1,1,1,1,1,1,1,1,1,1,1,1,1,1,4),(0.0,0.127376915340943,0.254753830681887,0.38213074602283,0.509507661363774,0.636884576704717,0.700573034375189,0.76426149204566,0.827949949716132,0.891638407386604,0.92348263622184,0.955326865057075,0.987171093892311,0.99513215110112,1.00309320830993,1.01105426551874,1.01901532272755),.UNSPECIFIED.);
#72=VERTEX_POINT('',#102);
#73=LINE('',#103,#104);
#74=B_SPLINE_CURVE_WITH_KNOTS('',3,(#105,#106,#107,#108,#109,#110,#111,#112,#113,#114,#115,#116,#117,#118,#119,#120,#121,#122,#123,#124,#125,#126,#127,#128,#129,#130,#131,#132),.UNSPECIFIED.,.F.,.F.,(4,1,1,1,1,1,1,1,1,1,1,1,1,1,1,1,1,1,1,1,1,1,1,1,1,4),(0.0,0.00796244650569514,0.0159248930113903,0.0238873395170854,0.0318497860227806,0.0636995720455611,0.0955493580683417,0.127399144091122,0.191098716136683,0.254798288182245,0.318497860227806,0.382197432273367,0.509596576364489,0.636995720455611,0.700695292501172,0.764394864546734,0.828094436592295,0.859944222615075,0.891794008637856,0.923643794660637,0.955493580683417,0.987343366706198,0.995305813211893,1.00326825971759,1.01123070622328,1.01919315272898),.UNSPECIFIED.);
#75=CARTESIAN_POINT('',(1.09231798234281E-37,0.100008942186832,6.24405031134004E-38));
#76=CARTESIAN_POINT('',(-4.90537638209542E-35,0.0100008938461542,-7.36986572138536E-35));
#77=CARTESIAN_POINT('',(9.8500204744043E-35,0.0550049180164933,5.46509335517767E-35));
#78=VECTOR('',#133,1.0);
#79=CARTESIAN_POINT('',(9.74301929090871E-06,-3.23836866300553E-05,0.00157670199405402));
#80=CARTESIAN_POINT('',(4.87150964545435E-06,0.00498425507976208,0.00078835099702701));
#81=VECTOR('',#134,1.0);
#82=CARTESIAN_POINT('',(0.965347647666931,3.70606030628551E-05,-0.288109332323074));
#83=CARTESIAN_POINT('',(9.74301929090871E-06,-3.23836866300553E-05,0.00157670199405402));
#84=CARTESIAN_POINT('',(0.0424588122912562,-6.97031216504804E-05,0.000660508867467151));
#85=CARTESIAN_POINT('',(0.127294411365434,-3.7990078960625E-05,-0.00416273572887358));
#86=CARTESIAN_POINT('',(0.25368251643368,-5.41105565925711E-05,-0.0206609982834351));
#87=CARTESIAN_POINT('',(0.378599063760273,-4.77233071641794E-05,-0.0459550303958161));
#88=CARTESIAN_POINT('',(0.501518493767108,-4.11914253813873E-05,-0.0796242102736034));
#89=CARTESIAN_POINT('',(0.601911520501963,-3.04178604862611E-05,-0.114263297323843));
#90=CARTESIAN_POINT('',(0.680814365010386,-1.94963182768172E-05,-0.145681271418585));
#91=CARTESIAN_POINT('',(0.739246721654218,-1.00509288028685E-05,-0.171035116754293));
#92=CARTESIAN_POINT('',(0.796895467097948,6.45872422410064E-07,-0.198122391777925));
#93=CARTESIAN_POINT('',(0.844263135549956,1.05038798286128E-05,-0.222074551513257));
#94=CARTESIAN_POINT('',(0.8817241027339,1.90208536630533E-05,-0.242063983187286));
#95=CARTESIAN_POINT('',(0.909638746235471,2.54543018496636E-05,-0.257384832438158));
#96=CARTESIAN_POINT('',(0.930318744802638,3.11809611041233E-05,-0.269352831713892));
#97=CARTESIAN_POINT('',(0.944177801277195,3.42444851589616E-05,-0.277167286801741));
#98=CARTESIAN_POINT('',(0.950939301160101,3.70349769592881E-05,-0.28140884652363));
#99=CARTESIAN_POINT('',(0.957847631052503,3.89859043152151E-05,-0.28533994428307));
#100=CARTESIAN_POINT('',(0.962863092902658,3.76571634294345E-05,-0.28717711171918));
#101=CARTESIAN_POINT('',(0.965347647666931,3.70606030628551E-05,-0.288109332323074));
#102=CARTESIAN_POINT('',(0.965333878993988,0.100084960460663,-0.288064450025558));
#103=CARTESIAN_POINT('',(0.965350836515427,0.0500610105318628,-0.288063034415245));
#104=VECTOR('',#135,1.0);
#105=CARTESIAN_POINT('',(0.965333878993988,0.100084960460663,-0.288064450025558));
#106=CARTESIAN_POINT('',(0.962886530200749,0.100084349181504,-0.287037323183279));
#107=CARTESIAN_POINT('',(0.957960173169517,0.100083046286045,-0.285005349573102));
#108=CARTESIAN_POINT('',(0.951060294681112,0.100083294670094,-0.281046732044831));
#109=CARTESIAN_POINT('',(0.944277230871394,0.100083803956027,-0.276852737139161));
#110=CARTESIAN_POINT('',(0.930433999413585,0.10008291974964,-0.268994758145459));
#111=CARTESIAN_POINT('',(0.90973697769275,0.100081447884767,-0.257056333909606));
#112=CARTESIAN_POINT('',(0.881822946686125,0.100077810423034,-0.241720255061461));
#113=CARTESIAN_POINT('',(0.84435399580667,0.100072901725735,-0.221730790720223));
#114=CARTESIAN_POINT('',(0.796978201705352,0.100068213356713,-0.19777384060129));
#115=CARTESIAN_POINT('',(0.739317083625198,0.100063800093821,-0.170686762956097));
#116=CARTESIAN_POINT('',(0.680871509551918,0.100059399433762,-0.145335389130638));
#117=CARTESIAN_POINT('',(0.601949524119289,0.100053954681452,-0.113925343877022));
#118=CARTESIAN_POINT('',(0.501530613515608,0.100048837519617,-0.0793039425743658));
#119=CARTESIAN_POINT('',(0.399070085945076,0.100045411589796,-0.0512764748293839));
#120=CARTESIAN_POINT('',(0.316103892716657,0.100043742715804,-0.0330464552630024));
#121=CARTESIAN_POINT('',(0.25344492673673,0.100042990790883,-0.0215256185695303));
#122=CARTESIAN_POINT('',(0.200924045625842,0.100042800492146,-0.013764480040966));
#123=CARTESIAN_POINT('',(0.158760876448735,0.100042798696266,-0.00868149521204646));
#124=CARTESIAN_POINT('',(0.127075434628475,0.100043040473976,-0.00544505242132435));
#125=CARTESIAN_POINT('',(0.0953349971951113,0.100044186420343,-0.00275891766803227));
#126=CARTESIAN_POINT('',(0.0635570099822177,0.100043294735927,-0.000737655263868111));
#127=CARTESIAN_POINT('',(0.0396835158737055,0.100046812545138,0.000596173805643028));
#128=CARTESIAN_POINT('',(0.0237844904288087,0.100037208856607,0.000935716098219725));
#129=CARTESIAN_POINT('',(0.015807363982972,0.100035389964989,0.00146750379258376));
#130=CARTESIAN_POINT('',(0.00786312993876686,0.100030279573287,0.0015508127607758));
#131=CARTESIAN_POINT('',(0.00260719730467476,0.100015835559308,0.00049697156405009));
#132=CARTESIAN_POINT('',(1.09231798234281E-37,0.100008942186832,6.24405031134004E-38));
#133=DIRECTION('',(-0.0,-1.0,-0.0));
#134=DIRECTION('',(0.000959297193017746,-0.987876005023313,0.155241999626631));
#135=DIRECTION('',(-0.000137513368615702,0.999998090678325,-0.00194928955713828));
ENDSEC;
END-ISO-10303-21;
