ISO-10303-21;
HEADER;
FILE_DESCRIPTION(('STEP AP214'),'1');
FILE_NAME('SMAStripDeformed_06.stp','2026-05-01T23:20:55',(' '),(' '),'Spatial InterOp 3D',' ',' ');
FILE_SCHEMA(('AUTOMOTIVE_DESIGN { 1 0 10303 214 1 1 1 1 }'));
ENDSEC;
DATA;
#1=PRODUCT_DEFINITION_CONTEXT('',#9,'design');
#2=APPLICATION_PROTOCOL_DEFINITION('INTERNATIONAL STANDARD','automotive_design',1994,#9);
#3=PRODUCT_CATEGORY_RELATIONSHIP('NONE','NONE',#10,#11);
#4=SHAPE_DEFINITION_REPRESENTATION(#12,#13);
#5= (GEOMETRIC_REPRESENTATION_CONTEXT(3)GLOBAL_UNCERTAINTY_ASSIGNED_CONTEXT((#16))GLOBAL_UNIT_ASSIGNED_CONTEXT((#18,#19,#20))REPRESENTATION_CONTEXT('NONE','WORKSPACE'));
#9=APPLICATION_CONTEXT(' ');
#10=PRODUCT_CATEGORY('part','NONE');
#11=PRODUCT_RELATED_PRODUCT_CATEGORY('detail',' ',(#22));
#12=PRODUCT_DEFINITION_SHAPE('NONE','NONE',#23);
#13=MANIFOLD_SURFACE_SHAPE_REPRESENTATION('1',(#24,#25),#5);
#16=UNCERTAINTY_MEASURE_WITH_UNIT(LENGTH_MEASURE(1.0E-06),#18,'','');
#18= (CONVERSION_BASED_UNIT('MILLIMETRE',#28)LENGTH_UNIT()NAMED_UNIT(#31));
#19= (NAMED_UNIT(#33)PLANE_ANGLE_UNIT()SI_UNIT($,.RADIAN.));
#20= (NAMED_UNIT(#33)SOLID_ANGLE_UNIT()SI_UNIT($,.STERADIAN.));
#22=PRODUCT('1','','PART--DESC',(#39));
#23=PRODUCT_DEFINITION('','NONE',#40,#1);
#24=SHELL_BASED_SURFACE_MODEL('1',(#41));
#25=AXIS2_PLACEMENT_3D('',#42,#43,#44);
#28=LENGTH_MEASURE_WITH_UNIT(LENGTH_MEASURE(1.0),#45);
#31=DIMENSIONAL_EXPONENTS(1.0,0.0,0.0,0.0,0.0,0.0,0.0);
#33=DIMENSIONAL_EXPONENTS(0.0,0.0,0.0,0.0,0.0,0.0,0.0);
#39=PRODUCT_CONTEXT('',#9,'mechanical');
#40=PRODUCT_DEFINITION_FORMATION_WITH_SPECIFIED_SOURCE(' ','NONE',#22,.NOT_KNOWN.);
#41=CLOSED_SHELL('',(#46));
#42=CARTESIAN_POINT('',(0.0,0.0,0.0));
#43=DIRECTION('',(0.0,0.0,1.0));
#44=DIRECTION('',(1.0,0.0,0.0));
#45= (NAMED_UNIT(#31)LENGTH_UNIT()SI_UNIT(.MILLI.,.METRE.));
#46=FACE_SURFACE('',(#48),#49,.T.);
#48=FACE_BOUND('',#50,.T.);
#49=CYLINDRICAL_SURFACE('',#51,1.38556248460389);
#50=EDGE_LOOP('',(#52,#53,#54,#55,#56,#57,#58,#59,#60));
#51=AXIS2_PLACEMENT_3D('',#61,#62,#63);
#52=ORIENTED_EDGE('',*,*,#64,.T.);
#53=ORIENTED_EDGE('',*,*,#65,.T.);
#54=ORIENTED_EDGE('',*,*,#66,.T.);
#55=ORIENTED_EDGE('',*,*,#67,.T.);
#56=ORIENTED_EDGE('',*,*,#68,.T.);
#57=ORIENTED_EDGE('',*,*,#69,.T.);
#58=ORIENTED_EDGE('',*,*,#70,.T.);
#59=ORIENTED_EDGE('',*,*,#71,.T.);
#60=ORIENTED_EDGE('',*,*,#72,.T.);
#61=CARTESIAN_POINT('',(-0.158234820616844,0.00171547869788917,-1.3680008348354));
#62=DIRECTION('',(0.00287504631410003,0.999995442512902,0.000921445667223872));
#63=DIRECTION('',(0.0,0.000921449475532347,-0.999999575465342));
#64=EDGE_CURVE('',#73,#74,#75,.T.);
#65=EDGE_CURVE('',#74,#76,#77,.T.);
#66=EDGE_CURVE('',#76,#78,#79,.T.);
#67=EDGE_CURVE('',#78,#80,#81,.T.);
#68=EDGE_CURVE('',#80,#82,#83,.T.);
#69=EDGE_CURVE('',#82,#84,#85,.T.);
#70=EDGE_CURVE('',#84,#86,#87,.T.);
#71=EDGE_CURVE('',#86,#88,#89,.T.);
#72=EDGE_CURVE('',#88,#73,#90,.T.);
#73=VERTEX_POINT('',#91);
#74=VERTEX_POINT('',#92);
#75=LINE('',#93,#94);
#76=VERTEX_POINT('',#95);
#77=B_SPLINE_CURVE_WITH_KNOTS('',3,(#96,#97,#98,#99,#100,#101,#102,#103,#104,#105,#106),.UNSPECIFIED.,.F.,.F.,(4,1,1,1,1,1,1,1,4),(0.0,0.126978585813886,0.253957171627771,0.380935757441657,0.507914343255543,0.634892929069428,0.761871514883314,0.888850100697199,1.01582868651109),.UNSPECIFIED.);
#78=VERTEX_POINT('',#107);
#79=LINE('',#108,#109);
#80=VERTEX_POINT('',#110);
#81=LINE('',#111,#112);
#82=VERTEX_POINT('',#113);
#83=LINE('',#114,#115);
#84=VERTEX_POINT('',#116);
#85=LINE('',#117,#118);
#86=VERTEX_POINT('',#119);
#87=B_SPLINE_CURVE_WITH_KNOTS('',3,(#120,#121,#122,#123,#124,#125,#126,#127,#128,#129,#130),.UNSPECIFIED.,.F.,.F.,(4,1,1,1,1,1,1,1,4),(0.0,0.12699123948727,0.25398247897454,0.38097371846181,0.50796495794908,0.63495619743635,0.76194743692362,0.888938676410891,1.01592991589816),.UNSPECIFIED.);
#88=VERTEX_POINT('',#131);
#89=LINE('',#132,#133);
#90=LINE('',#134,#135);
#91=CARTESIAN_POINT('',(0.88847416639328,0.0106100589036942,-0.457597672939301));
#92=CARTESIAN_POINT('',(0.888774156570435,0.100595757365227,-0.457453906536102));
#93=CARTESIAN_POINT('',(0.888624161481857,0.0556029081344604,-0.457516223192215));
#94=VECTOR('',#136,1.0);
#95=CARTESIAN_POINT('',(0.0102509893476963,0.10007144510746,0.00592030910775065));
#96=CARTESIAN_POINT('',(0.888774156570435,0.100595757365227,-0.457453906536102));
#97=CARTESIAN_POINT('',(0.860416113313593,0.100518424768309,-0.426032222805654));
#98=CARTESIAN_POINT('',(0.80122304219702,0.100479129257684,-0.365414990257941));
#99=CARTESIAN_POINT('',(0.704859077529205,0.10036230135231,-0.282538876293757));
#100=CARTESIAN_POINT('',(0.601836821754103,0.100283191565154,-0.208118182076619));
#101=CARTESIAN_POINT('',(0.492821644894747,0.100218274102823,-0.142771331503702));
#102=CARTESIAN_POINT('',(0.378360328296284,0.100157948823903,-0.0874814499859738));
#103=CARTESIAN_POINT('',(0.259167215381,0.10013871039615,-0.0432790519129665));
#104=CARTESIAN_POINT('',(0.13616603683587,0.100042965049053,-0.0110608645028902));
#105=CARTESIAN_POINT('',(0.0523623311448666,0.10016864480272,0.00166211108453126));
#106=CARTESIAN_POINT('',(0.0102509893476963,0.10007144510746,0.00592030910775065));
#107=CARTESIAN_POINT('',(9.89445252344012E-05,0.100017890334129,0.00301719270646572));
#108=CARTESIAN_POINT('',(0.00517496693646535,0.100044667720795,0.00446875090710819));
#109=VECTOR('',#137,1.0);
#110=CARTESIAN_POINT('',(-2.15191781497786E-34,0.0900080502033234,-9.35249593424987E-35));
#111=CARTESIAN_POINT('',(4.94722626172006E-05,0.0950129702687263,0.00150859635323286));
#112=VECTOR('',#138,1.0);
#113=CARTESIAN_POINT('',(-5.7211686580055E-34,0.0100008938461542,-3.95517941372702E-34));
#114=CARTESIAN_POINT('',(-4.85886457315065E-35,0.0500044720247388,-4.51918229201777E-35));
#115=VECTOR('',#139,1.0);
#116=CARTESIAN_POINT('',(0.000381003075744957,-7.18934170436114E-05,0.00661172764375806));
#117=CARTESIAN_POINT('',(0.000190501537872478,0.0049645002145553,0.00330586382187903));
#118=VECTOR('',#140,1.0);
#119=CARTESIAN_POINT('',(0.882092654705048,0.000535074155777693,-0.45059871673584));
#120=CARTESIAN_POINT('',(0.000381003075744957,-7.18934170436114E-05,0.00661172764375806));
#121=CARTESIAN_POINT('',(0.0425354166512224,-0.000220591254978936,0.00275852331981372));
#122=CARTESIAN_POINT('',(0.126440933894151,-2.67912142108518E-05,-0.00936502330131795));
#123=CARTESIAN_POINT('',(0.24970333471907,-5.67285135697572E-05,-0.0406065387609883));
#124=CARTESIAN_POINT('',(0.36923016497916,1.84748717258875E-05,-0.0839446439890034));
#125=CARTESIAN_POINT('',(0.484087863954499,8.58348411142494E-05,-0.138437090518824));
#126=CARTESIAN_POINT('',(0.593541568945615,0.00017631729047788,-0.203073711879414));
#127=CARTESIAN_POINT('',(0.697045838337036,0.000276581634367162,-0.276844873382075));
#128=CARTESIAN_POINT('',(0.7939478971738,0.000394184436429203,-0.359110474777951));
#129=CARTESIAN_POINT('',(0.853531513317687,0.000482100804908916,-0.419355761130188));
#130=CARTESIAN_POINT('',(0.882092654705048,0.000535074155777693,-0.45059871673584));
#131=CARTESIAN_POINT('',(0.892893671989441,0.000529366545379162,-0.453624725341797));
#132=CARTESIAN_POINT('',(0.887493163347244,0.000532220350578427,-0.452111721038818));
#133=VECTOR('',#141,1.0);
#134=CARTESIAN_POINT('',(0.89068391919136,0.00556971272453666,-0.455611199140549));
#135=VECTOR('',#142,1.0);
#136=DIRECTION('',(0.00314961850652377,0.999993604674231,0.0016942591009758));
#137=DIRECTION('',(-0.961448209160257,-0.005071898500374,-0.274939296842298));
#138=DIRECTION('',(-0.00946371256182408,-0.957407694496908,-0.288584380489765));
#139=DIRECTION('',(-0.0,-1.0,-0.0));
#140=DIRECTION('',(0.0316056022354615,-0.835574639445067,0.548467052632681));
#141=DIRECTION('',(0.962923983495479,-0.000508840491268806,-0.269772391268182));
#142=DIRECTION('',(-0.377671104282162,0.861450705753319,-0.33951026280129));
ENDSEC;
END-ISO-10303-21;
