ISO-10303-21;
HEADER;
FILE_DESCRIPTION(('STEP AP214'),'1');
FILE_NAME('SMAStripDeformed_07.stp','2026-05-01T23:21:42',(' '),(' '),'Spatial InterOp 3D',' ',' ');
FILE_SCHEMA(('AUTOMOTIVE_DESIGN { 1 0 10303 214 1 1 1 1 }'));
ENDSEC;
DATA;
#1=PRODUCT_DEFINITION_CONTEXT('',#9,'design');
#2=APPLICATION_PROTOCOL_DEFINITION('INTERNATIONAL STANDARD','automotive_design',1994,#9);
#3=PRODUCT_CATEGORY_RELATIONSHIP('NONE','NONE',#10,#11);
#4=SHAPE_DEFINITION_REPRESENTATION(#12,#13);
#5= (GEOMETRIC_REPRESENTATION_CONTEXT(3)GLOBAL_UNCERTAINTY_ASSIGNED_CONTEXT((#16))GLOBAL_UNIT_ASSIGNED_CONTEXT((#18,#19,#20))REPRESENTATION_CONTEXT('NONE','WORKSPACE'));
#9=APPLICATION_CONTEXT(' ');
#10=PRODUCT_CATEGORY('part','NONE');
#11=PRODUCT_RELATED_PRODUCT_CATEGORY('detail',' ',(#22));
#12=PRODUCT_DEFINITION_SHAPE('NONE','NONE',#23);
#13=MANIFOLD_SURFACE_SHAPE_REPRESENTATION('1',(#24,#25),#5);
#16=UNCERTAINTY_MEASURE_WITH_UNIT(LENGTH_MEASURE(1.0E-06),#18,'','');
#18= (CONVERSION_BASED_UNIT('MILLIMETRE',#28)LENGTH_UNIT()NAMED_UNIT(#31));
#19= (NAMED_UNIT(#33)PLANE_ANGLE_UNIT()SI_UNIT($,.RADIAN.));
#20= (NAMED_UNIT(#33)SOLID_ANGLE_UNIT()SI_UNIT($,.STERADIAN.));
#22=PRODUCT('1','','PART--DESC',(#39));
#23=PRODUCT_DEFINITION('','NONE',#40,#1);
#24=SHELL_BASED_SURFACE_MODEL('1',(#41));
#25=AXIS2_PLACEMENT_3D('',#42,#43,#44);
#28=LENGTH_MEASURE_WITH_UNIT(LENGTH_MEASURE(1.0),#45);
#31=DIMENSIONAL_EXPONENTS(1.0,0.0,0.0,0.0,0.0,0.0,0.0);
#33=DIMENSIONAL_EXPONENTS(0.0,0.0,0.0,0.0,0.0,0.0,0.0);
#39=PRODUCT_CONTEXT('',#9,'mechanical');
#40=PRODUCT_DEFINITION_FORMATION_WITH_SPECIFIED_SOURCE(' ','NONE',#22,.NOT_KNOWN.);
#41=CLOSED_SHELL('',(#46));
#42=CARTESIAN_POINT('',(0.0,0.0,0.0));
#43=DIRECTION('',(0.0,0.0,1.0));
#44=DIRECTION('',(1.0,0.0,0.0));
#45= (NAMED_UNIT(#31)LENGTH_UNIT()SI_UNIT(.MILLI.,.METRE.));
#46=FACE_SURFACE('',(#48),#49,.T.);
#48=FACE_BOUND('',#50,.T.);
#49=CYLINDRICAL_SURFACE('',#51,1.31949938345214);
#50=EDGE_LOOP('',(#52,#53,#54,#55,#56,#57,#58,#59,#60,#61));
#51=AXIS2_PLACEMENT_3D('',#62,#63,#64);
#52=ORIENTED_EDGE('',*,*,#65,.T.);
#53=ORIENTED_EDGE('',*,*,#66,.T.);
#54=ORIENTED_EDGE('',*,*,#67,.T.);
#55=ORIENTED_EDGE('',*,*,#68,.T.);
#56=ORIENTED_EDGE('',*,*,#69,.T.);
#57=ORIENTED_EDGE('',*,*,#70,.T.);
#58=ORIENTED_EDGE('',*,*,#71,.T.);
#59=ORIENTED_EDGE('',*,*,#72,.T.);
#60=ORIENTED_EDGE('',*,*,#73,.T.);
#61=ORIENTED_EDGE('',*,*,#74,.T.);
#62=CARTESIAN_POINT('',(-0.185397794453927,-0.00256761369748688,-1.29618242928843));
#63=DIRECTION('',(0.00815941699126169,0.99996175658688,-0.00314790057724781));
#64=DIRECTION('',(0.0,-0.00314800536992955,-0.99999504501882));
#65=EDGE_CURVE('',#75,#76,#77,.T.);
#66=EDGE_CURVE('',#76,#78,#79,.T.);
#67=EDGE_CURVE('',#78,#80,#81,.T.);
#68=EDGE_CURVE('',#80,#82,#83,.T.);
#69=EDGE_CURVE('',#82,#84,#85,.T.);
#70=EDGE_CURVE('',#84,#86,#87,.T.);
#71=EDGE_CURVE('',#86,#88,#89,.T.);
#72=EDGE_CURVE('',#88,#90,#91,.T.);
#73=EDGE_CURVE('',#90,#92,#93,.T.);
#74=EDGE_CURVE('',#92,#75,#94,.T.);
#75=VERTEX_POINT('',#95);
#76=VERTEX_POINT('',#96);
#77=LINE('',#97,#98);
#78=VERTEX_POINT('',#99);
#79=LINE('',#100,#101);
#80=VERTEX_POINT('',#102);
#81=LINE('',#103,#104);
#82=VERTEX_POINT('',#105);
#83=B_SPLINE_CURVE_WITH_KNOTS('',3,(#106,#107,#108,#109,#110,#111,#112,#113,#114,#115,#116),.UNSPECIFIED.,.F.,.F.,(4,1,1,1,1,1,1,1,4),(0.0,0.127125314188604,0.254250628377208,0.381375942565812,0.508501256754416,0.63562657094302,0.762751885131624,0.889877199320228,1.01700251350883),.UNSPECIFIED.);
#84=VERTEX_POINT('',#117);
#85=LINE('',#118,#119);
#86=VERTEX_POINT('',#120);
#87=LINE('',#121,#122);
#88=VERTEX_POINT('',#123);
#89=LINE('',#124,#125);
#90=VERTEX_POINT('',#126);
#91=LINE('',#127,#128);
#92=VERTEX_POINT('',#129);
#93=LINE('',#130,#131);
#94=B_SPLINE_CURVE_WITH_KNOTS('',3,(#132,#133,#134,#135,#136,#137,#138,#139,#140,#141,#142,#143,#144,#145,#146,#147,#148,#149,#150,#151,#152,#153,#154,#155,#156,#157,#158,#159,#160,#161,#162),.UNSPECIFIED.,.F.,.F.,(4,1,1,1,1,1,1,1,1,1,1,1,1,1,1,1,1,1,1,1,1,1,1,1,1,1,1,1,4),(0.0,0.00802829641394317,0.0160565928278863,0.0240848892418295,0.0321131856557727,0.0642263713115453,0.096339556967318,0.128452742623091,0.160565928278863,0.192679113934636,0.256905485246181,0.321131856557727,0.385358227869272,0.449584599180817,0.513810970492363,0.578037341803908,0.642263713115453,0.706490084426998,0.770716455738544,0.834942827050089,0.867056012705862,0.899169198361634,0.931282384017407,0.96339556967318,0.979452162501066,0.995508755328952,1.01156534815684,1.01959364457078,1.02762194098473),.UNSPECIFIED.);
#95=CARTESIAN_POINT('',(9.44293569773436E-05,0.100021511316299,0.00300116720609367));
#96=CARTESIAN_POINT('',(-4.64745237333275E-34,0.0900080502033234,-3.90225323975873E-34));
#97=CARTESIAN_POINT('',(4.72146784886718E-05,0.0950147807598114,0.00150058360304683));
#98=VECTOR('',#163,1.0);
#99=CARTESIAN_POINT('',(-1.87744172077078E-34,0.0100008938461542,-9.66255093637848E-35));
#100=CARTESIAN_POINT('',(-1.26915507746642E-35,0.0500044720247388,-3.84948456366635E-35));
#101=VECTOR('',#164,1.0);
#102=CARTESIAN_POINT('',(0.000596992147620767,-8.7035536125768E-05,0.00841255765408278));
#103=CARTESIAN_POINT('',(0.000298496073810384,0.00495692915501422,0.00420627882704139));
#104=VECTOR('',#165,1.0);
#105=CARTESIAN_POINT('',(0.859239876270294,0.000611136434599757,-0.488036632537842));
#106=CARTESIAN_POINT('',(0.000596992147620767,-8.7035536125768E-05,0.00841255765408278));
#107=CARTESIAN_POINT('',(0.0426751719822028,-0.000254954761408899,0.00340775138596547));
#108=CARTESIAN_POINT('',(0.126279006757067,-2.74869437307354E-05,-0.0112427681774638));
#109=CARTESIAN_POINT('',(0.248531103509114,-5.88333467387893E-05,-0.0467657431333292));
#110=CARTESIAN_POINT('',(0.366422578370783,3.08752799309143E-05,-0.094766807672698));
#111=CARTESIAN_POINT('',(0.478970432446049,0.000110322160217704,-0.154191037440852));
#112=CARTESIAN_POINT('',(0.585458724939827,0.000212775000895647,-0.223873614573476));
#113=CARTESIAN_POINT('',(0.685139956139698,0.00032265345837635,-0.302977482532685));
#114=CARTESIAN_POINT('',(0.777200786055347,0.000453909697344205,-0.390850221508565));
#115=CARTESIAN_POINT('',(0.832830595066686,0.000552539708067392,-0.454897593119485));
#116=CARTESIAN_POINT('',(0.859239876270294,0.000611136434599757,-0.488036632537842));
#117=CARTESIAN_POINT('',(0.871048927307129,0.000601797364652157,-0.490699261426926));
#118=CARTESIAN_POINT('',(0.865144401788712,0.000606466899625957,-0.489367946982384));
#119=VECTOR('',#166,1.0);
#120=CARTESIAN_POINT('',(0.866422772407532,0.0106828352436423,-0.494441539049149));
#121=CARTESIAN_POINT('',(0.86873584985733,0.00564231630414724,-0.492570400238037));
#122=VECTOR('',#167,1.0);
#123=CARTESIAN_POINT('',(0.866527140140533,0.040678184479475,-0.494388371706009));
#124=CARTESIAN_POINT('',(0.866474956274033,0.0256805098615587,-0.494414955377579));
#125=VECTOR('',#168,1.0);
#126=CARTESIAN_POINT('',(0.866590559482574,0.0606751069426537,-0.494356453418732));
#127=CARTESIAN_POINT('',(0.866558849811554,0.0506766457110643,-0.49437241256237));
#128=VECTOR('',#169,1.0);
#129=CARTESIAN_POINT('',(0.86671644449234,0.10066894441843,-0.494293540716171));
#130=CARTESIAN_POINT('',(0.866653501987457,0.080672025680542,-0.494324997067451));
#131=VECTOR('',#170,1.0);
#132=CARTESIAN_POINT('',(0.86671644449234,0.10066894441843,-0.494293540716171));
#133=CARTESIAN_POINT('',(0.864648593541319,0.100665510926474,-0.492594869038733));
#134=CARTESIAN_POINT('',(0.860440707180064,0.100658715388562,-0.489206421397947));
#135=CARTESIAN_POINT('',(0.855373568943518,0.10064511442748,-0.482998114747005));
#136=CARTESIAN_POINT('',(0.850527918429467,0.100631768288777,-0.476564041193017));
#137=CARTESIAN_POINT('',(0.840205646108404,0.100609281189551,-0.46428556309325));
#138=CARTESIAN_POINT('',(0.824855240830052,0.100581549561647,-0.445708270528388));
#139=CARTESIAN_POINT('',(0.80358426310542,0.100554797936503,-0.421650228984803));
#140=CARTESIAN_POINT('',(0.781825447314964,0.100530554084719,-0.398028882907299));
#141=CARTESIAN_POINT('',(0.759508652152297,0.10050271992386,-0.374934236887136));
#142=CARTESIAN_POINT('',(0.729054194366103,0.100463026464427,-0.3448324401587));
#143=CARTESIAN_POINT('',(0.689692940996256,0.100412632467314,-0.308544060216545));
#144=CARTESIAN_POINT('',(0.640494008192352,0.10036230507737,-0.267231634792462));
#145=CARTESIAN_POINT('',(0.589435187466473,0.100319301410406,-0.228241203212679));
#146=CARTESIAN_POINT('',(0.536626909011855,0.100279552972285,-0.191655264943456));
#147=CARTESIAN_POINT('',(0.482180270457073,0.100244093341772,-0.157554521268995));
#148=CARTESIAN_POINT('',(0.426178850407511,0.100210260447229,-0.126070175961739));
#149=CARTESIAN_POINT('',(0.368710978242432,0.100183111972975,-0.0973473739976946));
#150=CARTESIAN_POINT('',(0.309879638595717,0.100166367199701,-0.0715295621839529));
#151=CARTESIAN_POINT('',(0.249802218894449,0.100142256929085,-0.0487581877075812));
#152=CARTESIAN_POINT('',(0.19880978180078,0.100108581197422,-0.0324365269911466));
#153=CARTESIAN_POINT('',(0.157533353210215,0.100098268462218,-0.0210356924561284));
#154=CARTESIAN_POINT('',(0.126355243380351,0.100105890389249,-0.0133336790423569));
#155=CARTESIAN_POINT('',(0.0949769153920563,0.100128218287733,-0.00647369347857906));
#156=CARTESIAN_POINT('',(0.0686820436496507,0.100139832892476,-0.00153282543471583));
#157=CARTESIAN_POINT('',(0.0475664314695033,0.10013514402991,0.00209730157963418));
#158=CARTESIAN_POINT('',(0.03170475132574,0.100122493088615,0.00429508113570537));
#159=CARTESIAN_POINT('',(0.018407780312341,0.1001027403449,0.00682081147248242));
#160=CARTESIAN_POINT('',(0.00771814095442525,0.100083603572699,0.00571106104482506));
#161=CARTESIAN_POINT('',(0.00262098895645247,0.100041363251216,0.00388298765449401));
#162=CARTESIAN_POINT('',(9.44293569773436E-05,0.100021511316299,0.00300116720609367));
#163=DIRECTION('',(-0.009032877245958,-0.957862765732786,-0.287084184781044));
#164=DIRECTION('',(-0.0,-1.0,-0.0));
#165=DIRECTION('',(0.0454024043613381,-0.767206488072352,0.639791236527898));
#166=DIRECTION('',(0.975510431583921,-0.000771472671831007,-0.219951819044236));
#167=DIRECTION('',(-0.395191095725289,0.861176612523979,-0.319685532830577));
#168=DIRECTION('',(0.00345161764599414,0.999992476296593,0.00177022197295338));
#169=DIRECTION('',(0.00317143512628405,0.99999369713248,0.00159614991553115));
#170=DIRECTION('',(0.00314818658570074,0.999993807400399,0.0015729215093645));
ENDSEC;
END-ISO-10303-21;
