ISO-10303-21;
HEADER;
FILE_DESCRIPTION(('STEP AP214'),'1');
FILE_NAME('SMAStripDeformed_01.stp','2026-05-01T23:16:44',(' '),(' '),'Spatial InterOp 3D',' ',' ');
FILE_SCHEMA(('AUTOMOTIVE_DESIGN { 1 0 10303 214 1 1 1 1 }'));
ENDSEC;
DATA;
#1=PRODUCT_DEFINITION_CONTEXT('',#9,'design');
#2=APPLICATION_PROTOCOL_DEFINITION('INTERNATIONAL STANDARD','automotive_design',1994,#9);
#3=PRODUCT_CATEGORY_RELATIONSHIP('NONE','NONE',#10,#11);
#4=SHAPE_DEFINITION_REPRESENTATION(#12,#13);
#5= (GEOMETRIC_REPRESENTATION_CONTEXT(3)GLOBAL_UNCERTAINTY_ASSIGNED_CONTEXT((#16))GLOBAL_UNIT_ASSIGNED_CONTEXT((#18,#19,#20))REPRESENTATION_CONTEXT('NONE','WORKSPACE'));
#9=APPLICATION_CONTEXT(' ');
#10=PRODUCT_CATEGORY('part','NONE');
#11=PRODUCT_RELATED_PRODUCT_CATEGORY('detail',' ',(#22));
#12=PRODUCT_DEFINITION_SHAPE('NONE','NONE',#23);
#13=MANIFOLD_SURFACE_SHAPE_REPRESENTATION('1',(#24,#25),#5);
#16=UNCERTAINTY_MEASURE_WITH_UNIT(LENGTH_MEASURE(1.0E-06),#18,'','');
#18= (CONVERSION_BASED_UNIT('MILLIMETRE',#28)LENGTH_UNIT()NAMED_UNIT(#31));
#19= (NAMED_UNIT(#33)PLANE_ANGLE_UNIT()SI_UNIT($,.RADIAN.));
#20= (NAMED_UNIT(#33)SOLID_ANGLE_UNIT()SI_UNIT($,.STERADIAN.));
#22=PRODUCT('1','','PART--DESC',(#39));
#23=PRODUCT_DEFINITION('','NONE',#40,#1);
#24=SHELL_BASED_SURFACE_MODEL('1',(#41));
#25=AXIS2_PLACEMENT_3D('',#42,#43,#44);
#28=LENGTH_MEASURE_WITH_UNIT(LENGTH_MEASURE(1.0),#45);
#31=DIMENSIONAL_EXPONENTS(1.0,0.0,0.0,0.0,0.0,0.0,0.0);
#33=DIMENSIONAL_EXPONENTS(0.0,0.0,0.0,0.0,0.0,0.0,0.0);
#39=PRODUCT_CONTEXT('',#9,'mechanical');
#40=PRODUCT_DEFINITION_FORMATION_WITH_SPECIFIED_SOURCE(' ','NONE',#22,.NOT_KNOWN.);
#41=CLOSED_SHELL('',(#46));
#42=CARTESIAN_POINT('',(0.0,0.0,0.0));
#43=DIRECTION('',(0.0,0.0,1.0));
#44=DIRECTION('',(1.0,0.0,0.0));
#45= (NAMED_UNIT(#31)LENGTH_UNIT()SI_UNIT(.MILLI.,.METRE.));
#46=FACE_SURFACE('',(#48),#49,.T.);
#48=FACE_BOUND('',#50,.T.);
#49=CYLINDRICAL_SURFACE('',#51,4.7302540624295);
#50=EDGE_LOOP('',(#52,#53,#54,#55));
#51=AXIS2_PLACEMENT_3D('',#56,#57,#58);
#52=ORIENTED_EDGE('',*,*,#59,.T.);
#53=ORIENTED_EDGE('',*,*,#60,.T.);
#54=ORIENTED_EDGE('',*,*,#61,.T.);
#55=ORIENTED_EDGE('',*,*,#62,.T.);
#56=CARTESIAN_POINT('',(-0.0236738396910467,3.99773623449437E-05,-4.7292986959025));
#57=DIRECTION('',(-5.78937811523134E-05,0.999999998285936,8.74293171594688E-06));
#58=DIRECTION('',(0.0,8.74293173059868E-06,-0.999999999961781));
#59=EDGE_CURVE('',#63,#64,#65,.T.);
#60=EDGE_CURVE('',#64,#66,#67,.T.);
#61=EDGE_CURVE('',#66,#68,#69,.T.);
#62=EDGE_CURVE('',#68,#63,#70,.T.);
#63=VERTEX_POINT('',#71);
#64=VERTEX_POINT('',#72);
#65=LINE('',#73,#74);
#66=VERTEX_POINT('',#75);
#67=CIRCLE('',#76,4.73839789286534);
#68=VERTEX_POINT('',#77);
#69=LINE('',#78,#79);
#70=CIRCLE('',#80,4.73839789207293);
#71=CARTESIAN_POINT('',(1.000368475914,-1.83606025530025E-05,-0.110465005040169));
#72=CARTESIAN_POINT('',(1.000368475914,0.100018359720707,-0.110465005040169));
#73=CARTESIAN_POINT('',(1.000368475914,0.049999999559077,-0.110330156981945));
#74=VECTOR('',#81,1.0);
#75=CARTESIAN_POINT('',(0.0,0.100000001490116,0.0));
#76=AXIS2_PLACEMENT_3D('',#82,#83,#84);
#77=CARTESIAN_POINT('',(0.0,0.0,0.0));
#78=CARTESIAN_POINT('',(7.19475781511426E-35,0.0500000007450581,1.00219359492402E-35));
#79=VECTOR('',#85,1.0);
#80=AXIS2_PLACEMENT_3D('',#86,#87,#88);
#81=DIRECTION('',(0.0,1.0,0.0));
#82=CARTESIAN_POINT('',(-0.0254917536853224,0.0980468468130156,-4.73745897179388));
#83=DIRECTION('',(4.74240136780606E-05,-0.999999913245839,0.000413834842257483));
#84=DIRECTION('',(-4.34047286194814E-24,-0.000413834842722848,-0.999999914370358));
#85=DIRECTION('',(-0.0,-1.0,-0.0));
#86=CARTESIAN_POINT('',(-0.025491758190314,0.00195367801092474,-4.73745897027111));
#87=DIRECTION('',(4.74396893184961E-05,0.999999913199614,0.000413944731101297));
#88=DIRECTION('',(0.0,-0.000413944731567093,0.999999914324876));
ENDSEC;
END-ISO-10303-21;
