ISO-10303-21;
HEADER;
FILE_DESCRIPTION(('STEP AP214'),'1');
FILE_NAME('SMAStripDeformed_09.stp','2026-05-01T23:24:16',(' '),(' '),'Spatial InterOp 3D',' ',' ');
FILE_SCHEMA(('AUTOMOTIVE_DESIGN { 1 0 10303 214 1 1 1 1 }'));
ENDSEC;
DATA;
#1=PRODUCT_DEFINITION_CONTEXT('',#9,'design');
#2=APPLICATION_PROTOCOL_DEFINITION('INTERNATIONAL STANDARD','automotive_design',1994,#9);
#3=PRODUCT_CATEGORY_RELATIONSHIP('NONE','NONE',#10,#11);
#4=SHAPE_DEFINITION_REPRESENTATION(#12,#13);
#5= (GEOMETRIC_REPRESENTATION_CONTEXT(3)GLOBAL_UNCERTAINTY_ASSIGNED_CONTEXT((#16))GLOBAL_UNIT_ASSIGNED_CONTEXT((#18,#19,#20))REPRESENTATION_CONTEXT('NONE','WORKSPACE'));
#9=APPLICATION_CONTEXT(' ');
#10=PRODUCT_CATEGORY('part','NONE');
#11=PRODUCT_RELATED_PRODUCT_CATEGORY('detail',' ',(#22));
#12=PRODUCT_DEFINITION_SHAPE('NONE','NONE',#23);
#13=MANIFOLD_SURFACE_SHAPE_REPRESENTATION('1',(#24,#25),#5);
#16=UNCERTAINTY_MEASURE_WITH_UNIT(LENGTH_MEASURE(1.0E-06),#18,'','');
#18= (CONVERSION_BASED_UNIT('MILLIMETRE',#28)LENGTH_UNIT()NAMED_UNIT(#31));
#19= (NAMED_UNIT(#33)PLANE_ANGLE_UNIT()SI_UNIT($,.RADIAN.));
#20= (NAMED_UNIT(#33)SOLID_ANGLE_UNIT()SI_UNIT($,.STERADIAN.));
#22=PRODUCT('1','','PART--DESC',(#39));
#23=PRODUCT_DEFINITION('','NONE',#40,#1);
#24=SHELL_BASED_SURFACE_MODEL('1',(#41));
#25=AXIS2_PLACEMENT_3D('',#42,#43,#44);
#28=LENGTH_MEASURE_WITH_UNIT(LENGTH_MEASURE(1.0),#45);
#31=DIMENSIONAL_EXPONENTS(1.0,0.0,0.0,0.0,0.0,0.0,0.0);
#33=DIMENSIONAL_EXPONENTS(0.0,0.0,0.0,0.0,0.0,0.0,0.0);
#39=PRODUCT_CONTEXT('',#9,'mechanical');
#40=PRODUCT_DEFINITION_FORMATION_WITH_SPECIFIED_SOURCE(' ','NONE',#22,.NOT_KNOWN.);
#41=CLOSED_SHELL('',(#46));
#42=CARTESIAN_POINT('',(0.0,0.0,0.0));
#43=DIRECTION('',(0.0,0.0,1.0));
#44=DIRECTION('',(1.0,0.0,0.0));
#45= (NAMED_UNIT(#31)LENGTH_UNIT()SI_UNIT(.MILLI.,.METRE.));
#46=FACE_SURFACE('',(#48),#49,.T.);
#48=FACE_BOUND('',#50,.T.);
#49=CYLINDRICAL_SURFACE('',#51,1.2414963889909);
#50=EDGE_LOOP('',(#52,#53,#54,#55,#56,#57,#58,#59));
#51=AXIS2_PLACEMENT_3D('',#60,#61,#62);
#52=ORIENTED_EDGE('',*,*,#63,.T.);
#53=ORIENTED_EDGE('',*,*,#64,.T.);
#54=ORIENTED_EDGE('',*,*,#65,.T.);
#55=ORIENTED_EDGE('',*,*,#66,.T.);
#56=ORIENTED_EDGE('',*,*,#67,.T.);
#57=ORIENTED_EDGE('',*,*,#68,.T.);
#58=ORIENTED_EDGE('',*,*,#69,.T.);
#59=ORIENTED_EDGE('',*,*,#70,.T.);
#60=CARTESIAN_POINT('',(-0.231128620305131,-0.00291112309962056,-1.20715890050986));
#61=DIRECTION('',(-0.00333657988108042,-0.999989781208905,0.00305036267743661));
#62=DIRECTION('',(0.0,0.00305037965706427,0.999995347581151));
#63=EDGE_CURVE('',#71,#72,#73,.T.);
#64=EDGE_CURVE('',#72,#74,#75,.T.);
#65=EDGE_CURVE('',#74,#76,#77,.T.);
#66=EDGE_CURVE('',#76,#78,#79,.T.);
#67=EDGE_CURVE('',#78,#80,#81,.T.);
#68=EDGE_CURVE('',#80,#82,#83,.T.);
#69=EDGE_CURVE('',#82,#84,#85,.T.);
#70=EDGE_CURVE('',#84,#71,#86,.T.);
#71=VERTEX_POINT('',#87);
#72=VERTEX_POINT('',#88);
#73=LINE('',#89,#90);
#74=VERTEX_POINT('',#91);
#75=LINE('',#92,#93);
#76=VERTEX_POINT('',#94);
#77=LINE('',#95,#96);
#78=VERTEX_POINT('',#97);
#79=B_SPLINE_CURVE_WITH_KNOTS('',3,(#98,#99,#100,#101,#102,#103,#104,#105,#106,#107,#108,#109,#110,#111,#112,#113,#114,#115,#116),.UNSPECIFIED.,.F.,.F.,(4,1,1,1,1,1,1,1,1,1,1,1,1,1,1,1,4),(0.0,0.128458741224377,0.256917482448754,0.385376223673131,0.513834964897508,0.642293706121885,0.706523076734073,0.770752447346261,0.83498181795845,0.899211188570638,0.931325873876733,0.963440559182827,0.995555244488921,1.00358391581544,1.01161258714197,1.01964125846849,1.02766992979502),.UNSPECIFIED.);
#80=VERTEX_POINT('',#117);
#81=LINE('',#118,#119);
#82=VERTEX_POINT('',#120);
#83=LINE('',#121,#122);
#84=VERTEX_POINT('',#123);
#85=LINE('',#124,#125);
#86=B_SPLINE_CURVE_WITH_KNOTS('',3,(#126,#127,#128,#129,#130,#131,#132,#133,#134,#135,#136,#137,#138,#139,#140,#141,#142,#143,#144,#145,#146,#147,#148,#149,#150,#151,#152,#153),.UNSPECIFIED.,.F.,.F.,(4,1,1,1,1,1,1,1,1,1,1,1,1,1,1,1,1,1,1,1,1,1,1,1,1,4),(0.0,0.00795767593824121,0.0159153518764824,0.0238730278147236,0.0318307037529649,0.0636614075059297,0.0954921112588946,0.127322815011859,0.190984222517789,0.254645630023719,0.318307037529649,0.381968445035578,0.509291260047438,0.636614075059297,0.700275482565227,0.763936890071157,0.827598297577086,0.859429001330051,0.891259705083016,0.923090408835981,0.954921112588946,0.986751816341911,0.994709492280152,1.00266716821839,1.01062484415663,1.01858252009488),.UNSPECIFIED.);
#87=CARTESIAN_POINT('',(0.821952819824219,0.000520042143762112,-0.543502390384674));
#88=CARTESIAN_POINT('',(0.833588004112244,0.000590879877563566,-0.546864748001099));
#89=CARTESIAN_POINT('',(0.827770411968231,0.000555461010662839,-0.545183569192886));
#90=VECTOR('',#154,1.0);
#91=CARTESIAN_POINT('',(0.825458765029907,0.010581829585135,-0.552476525306702));
#92=CARTESIAN_POINT('',(0.829523384571076,0.00558635473134927,-0.5496706366539));
#93=VECTOR('',#155,1.0);
#94=CARTESIAN_POINT('',(0.825718998908997,0.100535936653614,-0.552448213100433));
#95=CARTESIAN_POINT('',(0.825572907924652,0.0555588831193745,-0.552497059106827));
#96=VECTOR('',#156,1.0);
#97=CARTESIAN_POINT('',(0.0010815056739375,0.100087597966194,0.00983798410743475));
#98=CARTESIAN_POINT('',(0.825718998908997,0.100535936653614,-0.552448213100433));
#99=CARTESIAN_POINT('',(0.802224719468454,0.100443885939363,-0.516649793769915));
#100=CARTESIAN_POINT('',(0.752852462084187,0.100442848217261,-0.446573949134816));
#101=CARTESIAN_POINT('',(0.668678008667473,0.100312816673748,-0.349310543385435));
#102=CARTESIAN_POINT('',(0.575144520035857,0.100248102558417,-0.261021587903296));
#103=CARTESIAN_POINT('',(0.473199889397393,0.100192117342084,-0.182596446311701));
#104=CARTESIAN_POINT('',(0.382128091248492,0.100159624033042,-0.126071468972028));
#105=CARTESIAN_POINT('',(0.306058715902565,0.10014511193044,-0.0866672685701974));
#106=CARTESIAN_POINT('',(0.247510353253558,0.100133384190715,-0.0602002596878463));
#107=CARTESIAN_POINT('',(0.187601850926487,0.100115414614937,-0.0369693942499379));
#108=CARTESIAN_POINT('',(0.136669058252699,0.100113198985289,-0.0204513083614188));
#109=CARTESIAN_POINT('',(0.0954069217894431,0.100131060444519,-0.00897897297544312));
#110=CARTESIAN_POINT('',(0.0642176140818524,0.10015404429321,-0.00134337229871292));
#111=CARTESIAN_POINT('',(0.0406895720888662,0.100187165867027,0.00390579195553636));
#112=CARTESIAN_POINT('',(0.0249163912104364,0.100168107872704,0.00682354019605036));
#113=CARTESIAN_POINT('',(0.0170492211539402,0.100156488000952,0.00853127950400282));
#114=CARTESIAN_POINT('',(0.00914709106291071,0.10013565477303,0.00989076631797691));
#115=CARTESIAN_POINT('',(0.00375768171157418,0.100103286807798,0.00984104554859752));
#116=CARTESIAN_POINT('',(0.0010815056739375,0.100087597966194,0.00983798410743475));
#117=CARTESIAN_POINT('',(-1.84297505550209E-34,0.0900080502033234,-1.26906289758715E-34));
#118=CARTESIAN_POINT('',(0.00054075283696875,0.0950478240847588,0.00491899205371737));
#119=VECTOR('',#157,1.0);
#120=CARTESIAN_POINT('',(-3.75658790835025E-34,0.0100008938461542,-3.47562225880716E-34));
#121=CARTESIAN_POINT('',(6.98165584216704E-36,0.0500044720247388,-2.62157854724299E-35));
#122=VECTOR('',#158,1.0);
#123=CARTESIAN_POINT('',(0.000854286307003349,-0.000107245446997695,0.0100821033120155));
#124=CARTESIAN_POINT('',(0.000427143153501675,0.00494682419957826,0.00504105165600777));
#125=VECTOR('',#159,1.0);
#126=CARTESIAN_POINT('',(0.000854286307003349,-0.000107245446997695,0.0100821033120155));
#127=CARTESIAN_POINT('',(0.00350676439905572,-0.000119195383636711,0.010065234966143));
#128=CARTESIAN_POINT('',(0.00884556249794881,-0.000143746097664682,0.0100721672477443));
#129=CARTESIAN_POINT('',(0.016681112581464,-0.000163915748463833,0.00874617109352897));
#130=CARTESIAN_POINT('',(0.0244786833489111,-0.000179710758538735,0.00705645272076017));
#131=CARTESIAN_POINT('',(0.0401143928742531,-0.000210431983379736,0.00417002190189543));
#132=CARTESIAN_POINT('',(0.0634366717320748,-0.000208367953856059,-0.00101804645093226));
#133=CARTESIAN_POINT('',(0.0943541922609809,-0.000166715943034044,-0.00857109597015296));
#134=CARTESIAN_POINT('',(0.135260496269632,-9.5778419082165E-05,-0.0199083571997125));
#135=CARTESIAN_POINT('',(0.185761713239385,-7.141029363117E-05,-0.0362214045196828));
#136=CARTESIAN_POINT('',(0.245177552357935,-7.66702131358364E-05,-0.0591498444904191));
#137=CARTESIAN_POINT('',(0.303261532096369,-4.98066775060368E-05,-0.0852635093682438));
#138=CARTESIAN_POINT('',(0.378754583947767,4.91742128032909E-06,-0.124132128899566));
#139=CARTESIAN_POINT('',(0.469180821131969,6.49425535404568E-05,-0.179894563962275));
#140=CARTESIAN_POINT('',(0.553640624599852,0.000128933674191453,-0.244329746140503));
#141=CARTESIAN_POINT('',(0.617090370523372,0.000187739906287363,-0.300753889143284));
#142=CARTESIAN_POINT('',(0.662507775615155,0.000235453925404352,-0.345391957370123));
#143=CARTESIAN_POINT('',(0.698452985789191,0.000280245357455161,-0.384432228785968));
#144=CARTESIAN_POINT('',(0.726013521107712,0.000318717216678182,-0.416711200804198));
#145=CARTESIAN_POINT('',(0.746083543597659,0.000348890429931935,-0.441420413369686));
#146=CARTESIAN_POINT('',(0.765516580875623,0.000383353473342539,-0.466634492564029));
#147=CARTESIAN_POINT('',(0.784428086872527,0.000429971401245801,-0.492235202758448));
#148=CARTESIAN_POINT('',(0.798007274564233,0.000461838726373278,-0.511892965327532));
#149=CARTESIAN_POINT('',(0.807225029967947,0.000483838164979019,-0.524840682956321));
#150=CARTESIAN_POINT('',(0.811453485781821,0.000492949787130989,-0.531624624258222));
#151=CARTESIAN_POINT('',(0.815985387916854,0.000503208034634293,-0.538140684786771));
#152=CARTESIAN_POINT('',(0.819992711474454,0.000514541543172313,-0.541715210379338));
#153=CARTESIAN_POINT('',(0.821952819824219,0.000520042143762112,-0.543502390384674));
#154=DIRECTION('',(0.960673923004418,0.00584880840244406,-0.277617371753953));
#155=DIRECTION('',(-0.578603570032535,0.711111963895499,-0.399421686379561));
#156=DIRECTION('',(0.00274938321480343,0.999996131685939,0.000421313536838494));
#157=DIRECTION('',(-0.0765596279508356,-0.713529706995011,-0.69642945127532));
#158=DIRECTION('',(-0.0,-1.0,-0.0));
#159=DIRECTION('',(0.0597310873435041,-0.706753866999762,0.704933449827461));
ENDSEC;
END-ISO-10303-21;
