ISO-10303-21;
HEADER;
FILE_DESCRIPTION(('STEP AP214'),'1');
FILE_NAME('SMAStripDeformed_04.stp','2026-05-01T23:18:44',(' '),(' '),'Spatial InterOp 3D',' ',' ');
FILE_SCHEMA(('AUTOMOTIVE_DESIGN { 1 0 10303 214 1 1 1 1 }'));
ENDSEC;
DATA;
#1=PRODUCT_DEFINITION_CONTEXT('',#9,'design');
#2=APPLICATION_PROTOCOL_DEFINITION('INTERNATIONAL STANDARD','automotive_design',1994,#9);
#3=PRODUCT_CATEGORY_RELATIONSHIP('NONE','NONE',#10,#11);
#4=SHAPE_DEFINITION_REPRESENTATION(#12,#13);
#5= (GEOMETRIC_REPRESENTATION_CONTEXT(3)GLOBAL_UNCERTAINTY_ASSIGNED_CONTEXT((#16))GLOBAL_UNIT_ASSIGNED_CONTEXT((#18,#19,#20))REPRESENTATION_CONTEXT('NONE','WORKSPACE'));
#9=APPLICATION_CONTEXT(' ');
#10=PRODUCT_CATEGORY('part','NONE');
#11=PRODUCT_RELATED_PRODUCT_CATEGORY('detail',' ',(#22));
#12=PRODUCT_DEFINITION_SHAPE('NONE','NONE',#23);
#13=MANIFOLD_SURFACE_SHAPE_REPRESENTATION('1',(#24,#25),#5);
#16=UNCERTAINTY_MEASURE_WITH_UNIT(LENGTH_MEASURE(1.0E-06),#18,'','');
#18= (CONVERSION_BASED_UNIT('MILLIMETRE',#28)LENGTH_UNIT()NAMED_UNIT(#31));
#19= (NAMED_UNIT(#33)PLANE_ANGLE_UNIT()SI_UNIT($,.RADIAN.));
#20= (NAMED_UNIT(#33)SOLID_ANGLE_UNIT()SI_UNIT($,.STERADIAN.));
#22=PRODUCT('1','','PART--DESC',(#39));
#23=PRODUCT_DEFINITION('','NONE',#40,#1);
#24=SHELL_BASED_SURFACE_MODEL('1',(#41));
#25=AXIS2_PLACEMENT_3D('',#42,#43,#44);
#28=LENGTH_MEASURE_WITH_UNIT(LENGTH_MEASURE(1.0),#45);
#31=DIMENSIONAL_EXPONENTS(1.0,0.0,0.0,0.0,0.0,0.0,0.0);
#33=DIMENSIONAL_EXPONENTS(0.0,0.0,0.0,0.0,0.0,0.0,0.0);
#39=PRODUCT_CONTEXT('',#9,'mechanical');
#40=PRODUCT_DEFINITION_FORMATION_WITH_SPECIFIED_SOURCE(' ','NONE',#22,.NOT_KNOWN.);
#41=CLOSED_SHELL('',(#46));
#42=CARTESIAN_POINT('',(0.0,0.0,0.0));
#43=DIRECTION('',(0.0,0.0,1.0));
#44=DIRECTION('',(1.0,0.0,0.0));
#45= (NAMED_UNIT(#31)LENGTH_UNIT()SI_UNIT(.MILLI.,.METRE.));
#46=FACE_SURFACE('',(#48),#49,.T.);
#48=FACE_BOUND('',#50,.T.);
#49=CYLINDRICAL_SURFACE('',#51,1.651167726267);
#50=EDGE_LOOP('',(#52,#53,#54,#55,#56,#57));
#51=AXIS2_PLACEMENT_3D('',#58,#59,#60);
#52=ORIENTED_EDGE('',*,*,#61,.T.);
#53=ORIENTED_EDGE('',*,*,#62,.T.);
#54=ORIENTED_EDGE('',*,*,#63,.T.);
#55=ORIENTED_EDGE('',*,*,#64,.T.);
#56=ORIENTED_EDGE('',*,*,#65,.T.);
#57=ORIENTED_EDGE('',*,*,#66,.T.);
#58=CARTESIAN_POINT('',(-0.0983707737690049,0.00320787243869944,-1.64354305761282));
#59=DIRECTION('',(0.00515111088756355,0.99998538243158,0.00164346578641746));
#60=DIRECTION('',(0.0,0.00164348759066543,-0.999998649473358));
#61=EDGE_CURVE('',#67,#68,#69,.T.);
#62=EDGE_CURVE('',#68,#70,#71,.T.);
#63=EDGE_CURVE('',#70,#72,#73,.T.);
#64=EDGE_CURVE('',#72,#74,#75,.T.);
#65=EDGE_CURVE('',#74,#76,#77,.T.);
#66=EDGE_CURVE('',#76,#67,#78,.T.);
#67=VERTEX_POINT('',#79);
#68=VERTEX_POINT('',#80);
#69=LINE('',#81,#82);
#70=VERTEX_POINT('',#83);
#71=LINE('',#84,#85);
#72=VERTEX_POINT('',#86);
#73=B_SPLINE_CURVE_WITH_KNOTS('',3,(#87,#88,#89,#90,#91,#92,#93,#94,#95,#96,#97,#98,#99,#100,#101,#102,#103,#104,#105,#106,#107,#108),.UNSPECIFIED.,.F.,.F.,(4,1,1,1,1,1,1,1,1,1,1,1,1,1,1,1,1,1,1,4),(0.0,0.127798101002368,0.255596202004735,0.383394303007103,0.511192404009471,0.575091454510654,0.638990505011838,0.702889555513022,0.766788606014206,0.83068765651539,0.862637181765982,0.894586707016574,0.926536232267166,0.958485757517757,0.974460520143053,0.990435282768349,0.998422664080997,1.00641004539365,1.01439742670629,1.02238480801894),.UNSPECIFIED.);
#74=VERTEX_POINT('',#109);
#75=CIRCLE('',#110,1.32287731515306);
#76=VERTEX_POINT('',#111);
#77=B_SPLINE_CURVE_WITH_KNOTS('',3,(#112,#113,#114,#115,#116,#117,#118,#119,#120,#121,#122),.UNSPECIFIED.,.F.,.F.,(4,1,1,1,1,1,1,1,4),(0.0,0.127767538376959,0.255535076753919,0.383302615130878,0.511070153507837,0.638837691884797,0.766605230261756,0.894372768638715,1.02214030701567),.UNSPECIFIED.);
#78=LINE('',#123,#124);
#79=CARTESIAN_POINT('',(-4.03751269109754E-34,0.0900080502033234,-6.97151548147565E-35));
#80=CARTESIAN_POINT('',(-9.77981453347892E-35,0.0100008938461542,-6.71870269204602E-35));
#81=CARTESIAN_POINT('',(4.28177261118124E-35,0.0500044720247388,8.12734699161273E-35));
#82=VECTOR('',#125,1.0);
#83=CARTESIAN_POINT('',(5.40629916940816E-05,-4.37533599324524E-05,0.00291043892502785));
#84=CARTESIAN_POINT('',(2.70314958470408E-05,0.00497857024311088,0.00145521946251392));
#85=VECTOR('',#126,1.0);
#86=CARTESIAN_POINT('',(0.940966427326202,0.000253421108936891,-0.354640692472458));
#87=CARTESIAN_POINT('',(5.40629916940816E-05,-4.37533599324524E-05,0.00291043892502785));
#88=CARTESIAN_POINT('',(0.0426196044253196,-0.000114461125440312,0.00121463476707422));
#89=CARTESIAN_POINT('',(0.127607182063374,-3.95442635667068E-05,-0.00583893325612747));
#90=CARTESIAN_POINT('',(0.253655145867834,-5.74951221614563E-05,-0.0276454981467024));
#91=CARTESIAN_POINT('',(0.377406845220722,-2.70670008643491E-05,-0.0599809038585636));
#92=CARTESIAN_POINT('',(0.478008166023203,-8.70800216181109E-07,-0.0951819993534678));
#93=CARTESIAN_POINT('',(0.556672703578268,2.75805714804117E-05,-0.127943677542855));
#94=CARTESIAN_POINT('',(0.614700136283846,5.18816081811098E-05,-0.154727089547789));
#95=CARTESIAN_POINT('',(0.671699117300723,7.91550070435817E-05,-0.183633308975115));
#96=CARTESIAN_POINT('',(0.727619913069765,0.000109551632449177,-0.214572870231384));
#97=CARTESIAN_POINT('',(0.773285716222021,0.00013754532346378,-0.241976709366778));
#98=CARTESIAN_POINT('',(0.80924004385509,0.000161501656798879,-0.264826686501846));
#99=CARTESIAN_POINT('',(0.835910289089371,0.000180426077891917,-0.282420954442951));
#100=CARTESIAN_POINT('',(0.862290202140075,0.000200192575562833,-0.300445401555952));
#101=CARTESIAN_POINT('',(0.884004182429971,0.000217090199469021,-0.315860151619178));
#102=CARTESIAN_POINT('',(0.901269338678738,0.000230275730265228,-0.328320105244451));
#103=CARTESIAN_POINT('',(0.911895356751204,0.000240252420363809,-0.336376544586435));
#104=CARTESIAN_POINT('',(0.920566512391468,0.000246292600892243,-0.342496463905766));
#105=CARTESIAN_POINT('',(0.926710386066634,0.000253928847992915,-0.347731689958628));
#106=CARTESIAN_POINT('',(0.933168781297233,0.000259092447454572,-0.352345262540854));
#107=CARTESIAN_POINT('',(0.938420311859284,0.000255165039736127,-0.353862239796093));
#108=CARTESIAN_POINT('',(0.940966427326202,0.000253421108936891,-0.354640692472458));
#109=CARTESIAN_POINT('',(0.939568161964417,0.100311607122421,-0.356450438499451));
#110=AXIS2_PLACEMENT_3D('',#127,#128,#129);
#111=CARTESIAN_POINT('',(0.000107198968180455,0.100005149841309,0.00305784493684769));
#112=CARTESIAN_POINT('',(0.939568161964417,0.100311607122421,-0.356450438499451));
#113=CARTESIAN_POINT('',(0.905778167939964,0.10024956598346,-0.330526112824241));
#114=CARTESIAN_POINT('',(0.836674983431043,0.100257436309898,-0.280652898813122));
#115=CARTESIAN_POINT('',(0.728168297664452,0.100184330011313,-0.213044843973617));
#116=CARTESIAN_POINT('',(0.615201953682844,0.100146025751097,-0.153178511396242));
#117=CARTESIAN_POINT('',(0.49811439909748,0.100111931602331,-0.101811440146217));
#118=CARTESIAN_POINT('',(0.377399684947802,0.100081102111359,-0.0596439659787531));
#119=CARTESIAN_POINT('',(0.253661727952791,0.100085326845176,-0.0273725096365049));
#120=CARTESIAN_POINT('',(0.127632800802463,0.0999959281597148,-0.00565271526202468));
#121=CARTESIAN_POINT('',(0.0426641764911172,0.10019614967671,0.00141303790716714));
#122=CARTESIAN_POINT('',(0.000107198968180455,0.100005149841309,0.00305784493684769));
#123=CARTESIAN_POINT('',(5.35994840902276E-05,0.095006600022316,0.00152892246842384));
#124=VECTOR('',#130,1.0);
#125=DIRECTION('',(-0.0,-1.0,-0.0));
#126=DIRECTION('',(0.00516956400710602,-0.960480451294525,0.278299439972564));
#127=CARTESIAN_POINT('',(0.104812119163616,0.0354178456365719,-1.37948820238943));
#128=DIRECTION('',(-0.774819657992647,0.00060177977137344,0.632182042966473));
#129=DIRECTION('',(0.000776670524119819,0.999999698391403,5.18122985812383E-20));
#130=DIRECTION('',(-0.0102535147237286,-0.956216371039216,-0.292480968940549));
ENDSEC;
END-ISO-10303-21;
