ISO-10303-21;
HEADER;
FILE_DESCRIPTION(('STEP AP214'),'1');
FILE_NAME('SMAStripDeformed_05.stp','2026-05-01T23:19:35',(' '),(' '),'Spatial InterOp 3D',' ',' ');
FILE_SCHEMA(('AUTOMOTIVE_DESIGN { 1 0 10303 214 1 1 1 1 }'));
ENDSEC;
DATA;
#1=PRODUCT_DEFINITION_CONTEXT('',#9,'design');
#2=APPLICATION_PROTOCOL_DEFINITION('INTERNATIONAL STANDARD','automotive_design',1994,#9);
#3=PRODUCT_CATEGORY_RELATIONSHIP('NONE','NONE',#10,#11);
#4=SHAPE_DEFINITION_REPRESENTATION(#12,#13);
#5= (GEOMETRIC_REPRESENTATION_CONTEXT(3)GLOBAL_UNCERTAINTY_ASSIGNED_CONTEXT((#16))GLOBAL_UNIT_ASSIGNED_CONTEXT((#18,#19,#20))REPRESENTATION_CONTEXT('NONE','WORKSPACE'));
#9=APPLICATION_CONTEXT(' ');
#10=PRODUCT_CATEGORY('part','NONE');
#11=PRODUCT_RELATED_PRODUCT_CATEGORY('detail',' ',(#22));
#12=PRODUCT_DEFINITION_SHAPE('NONE','NONE',#23);
#13=MANIFOLD_SURFACE_SHAPE_REPRESENTATION('1',(#24,#25),#5);
#16=UNCERTAINTY_MEASURE_WITH_UNIT(LENGTH_MEASURE(1.0E-06),#18,'','');
#18= (CONVERSION_BASED_UNIT('MILLIMETRE',#28)LENGTH_UNIT()NAMED_UNIT(#31));
#19= (NAMED_UNIT(#33)PLANE_ANGLE_UNIT()SI_UNIT($,.RADIAN.));
#20= (NAMED_UNIT(#33)SOLID_ANGLE_UNIT()SI_UNIT($,.STERADIAN.));
#22=PRODUCT('1','','PART--DESC',(#39));
#23=PRODUCT_DEFINITION('','NONE',#40,#1);
#24=SHELL_BASED_SURFACE_MODEL('1',(#41));
#25=AXIS2_PLACEMENT_3D('',#42,#43,#44);
#28=LENGTH_MEASURE_WITH_UNIT(LENGTH_MEASURE(1.0),#45);
#31=DIMENSIONAL_EXPONENTS(1.0,0.0,0.0,0.0,0.0,0.0,0.0);
#33=DIMENSIONAL_EXPONENTS(0.0,0.0,0.0,0.0,0.0,0.0,0.0);
#39=PRODUCT_CONTEXT('',#9,'mechanical');
#40=PRODUCT_DEFINITION_FORMATION_WITH_SPECIFIED_SOURCE(' ','NONE',#22,.NOT_KNOWN.);
#41=CLOSED_SHELL('',(#46));
#42=CARTESIAN_POINT('',(0.0,0.0,0.0));
#43=DIRECTION('',(0.0,0.0,1.0));
#44=DIRECTION('',(1.0,0.0,0.0));
#45= (NAMED_UNIT(#31)LENGTH_UNIT()SI_UNIT(.MILLI.,.METRE.));
#46=FACE_SURFACE('',(#48),#49,.T.);
#48=FACE_BOUND('',#50,.T.);
#49=CYLINDRICAL_SURFACE('',#51,1.48753527564348);
#50=EDGE_LOOP('',(#52,#53,#54,#55,#56,#57,#58));
#51=AXIS2_PLACEMENT_3D('',#59,#60,#61);
#52=ORIENTED_EDGE('',*,*,#62,.T.);
#53=ORIENTED_EDGE('',*,*,#63,.T.);
#54=ORIENTED_EDGE('',*,*,#64,.T.);
#55=ORIENTED_EDGE('',*,*,#65,.T.);
#56=ORIENTED_EDGE('',*,*,#66,.T.);
#57=ORIENTED_EDGE('',*,*,#67,.T.);
#58=ORIENTED_EDGE('',*,*,#68,.T.);
#59=CARTESIAN_POINT('',(-0.129537593967017,0.00336327862415956,-1.47521782505613));
#60=DIRECTION('',(0.00314630030179951,0.99999304324174,0.00200356246068321));
#61=DIRECTION('',(0.0,0.00200357237759519,-0.99999799284685));
#62=EDGE_CURVE('',#69,#70,#71,.T.);
#63=EDGE_CURVE('',#70,#72,#73,.T.);
#64=EDGE_CURVE('',#72,#74,#75,.T.);
#65=EDGE_CURVE('',#74,#76,#77,.T.);
#66=EDGE_CURVE('',#76,#78,#79,.T.);
#67=EDGE_CURVE('',#78,#80,#81,.T.);
#68=EDGE_CURVE('',#80,#69,#82,.T.);
#69=VERTEX_POINT('',#83);
#70=VERTEX_POINT('',#84);
#71=LINE('',#85,#86);
#72=VERTEX_POINT('',#87);
#73=B_SPLINE_CURVE_WITH_KNOTS('',3,(#88,#89,#90,#91,#92,#93,#94,#95,#96,#97),.UNSPECIFIED.,.F.,.F.,(4,1,1,1,1,1,1,4),(0.0,0.0251448487566944,0.0502896975133887,0.0628621218917359,0.0754345462700831,0.0817207584592567,0.0880069706484303,0.100579395026777),.UNSPECIFIED.);
#74=VERTEX_POINT('',#98);
#75=B_SPLINE_CURVE_WITH_KNOTS('',3,(#99,#100,#101,#102,#103,#104,#105,#106,#107,#108,#109,#110,#111,#112,#113,#114,#115,#116,#117,#118),.UNSPECIFIED.,.F.,.F.,(4,1,1,1,1,1,1,1,1,1,1,1,1,1,1,1,1,4),(0.0,0.128050732670161,0.256101465340321,0.384152198010482,0.512202930680643,0.640253663350804,0.704279029685884,0.768304396020964,0.832329762356045,0.864342445523585,0.896355128691125,0.928367811858665,0.960380495026205,0.992393178193746,1.00039634898563,1.00839951977752,1.0164026905694,1.02440586136129),.UNSPECIFIED.);
#76=VERTEX_POINT('',#119);
#77=LINE('',#120,#121);
#78=VERTEX_POINT('',#122);
#79=LINE('',#123,#124);
#80=VERTEX_POINT('',#125);
#81=LINE('',#126,#127);
#82=B_SPLINE_CURVE_WITH_KNOTS('',3,(#128,#129,#130,#131,#132,#133,#134,#135,#136,#137,#138,#139,#140,#141,#142,#143,#144,#145,#146,#147),.UNSPECIFIED.,.F.,.F.,(4,1,1,1,1,1,1,1,1,1,1,1,1,1,1,1,1,4),(0.0,0.00792684812734588,0.0158536962546918,0.0237805443820376,0.0317073925093835,0.063414785018767,0.0951221775281506,0.126829570037534,0.158536962546918,0.190244355056301,0.253659140075068,0.317073925093835,0.380488710112602,0.507318280150136,0.63414785018767,0.760977420225204,0.887806990262738,1.01463656030027),.UNSPECIFIED.);
#83=CARTESIAN_POINT('',(0.906379997730255,0.000408098800107837,-0.405644625425339));
#84=CARTESIAN_POINT('',(0.916310369968414,0.00040632562013343,-0.409033179283142));
#85=CARTESIAN_POINT('',(0.911345183849335,0.000407212210120633,-0.40733890235424));
#86=VECTOR('',#148,1.0);
#87=CARTESIAN_POINT('',(0.913670837879181,0.100466057658195,-0.41187646985054));
#88=CARTESIAN_POINT('',(0.916310369968414,0.00040632562013343,-0.409033179283142));
#89=CARTESIAN_POINT('',(0.916454360126645,0.00878543684532929,-0.408887395505581));
#90=CARTESIAN_POINT('',(0.916682085059391,0.0255481839159628,-0.408658946443603));
#91=CARTESIAN_POINT('',(0.91662829656524,0.0464967053744206,-0.408728349772053));
#92=CARTESIAN_POINT('',(0.916493705694452,0.0632711849370965,-0.408879402774193));
#93=CARTESIAN_POINT('',(0.916214747936753,0.0737184457553417,-0.409178928796764));
#94=CARTESIAN_POINT('',(0.916092669938508,0.0821163325918797,-0.409311482407401));
#95=CARTESIAN_POINT('',(0.916265679679937,0.0905794068552146,-0.409132118398495));
#96=CARTESIAN_POINT('',(0.91474557176845,0.0965781271534858,-0.410739888921736));
#97=CARTESIAN_POINT('',(0.913670837879181,0.100466057658195,-0.41187646985054));
#98=CARTESIAN_POINT('',(0.000103032543847803,0.100012503564358,0.00303596071898937));
#99=CARTESIAN_POINT('',(0.913670837879181,0.100466057658195,-0.41187646985054));
#100=CARTESIAN_POINT('',(0.882569481648077,0.100394546036424,-0.382643127248051));
#101=CARTESIAN_POINT('',(0.818272351449387,0.100376448257466,-0.326396116060124));
#102=CARTESIAN_POINT('',(0.715471339518119,0.100277291337277,-0.249881616743507));
#103=CARTESIAN_POINT('',(0.607096718611547,0.100217921133197,-0.181492685897625));
#104=CARTESIAN_POINT('',(0.493490007527887,0.100165648850066,-0.122166925818684));
#105=CARTESIAN_POINT('',(0.394919957096948,0.100127128461555,-0.0810222667383191));
#106=CARTESIAN_POINT('',(0.314077707944192,0.100115369364323,-0.0535272019210376));
#107=CARTESIAN_POINT('',(0.252559667574362,0.100100159388075,-0.0357220734576749));
#108=CARTESIAN_POINT('',(0.200651377113372,0.100068523749243,-0.0233187875598202));
#109=CARTESIAN_POINT('',(0.158802111928712,0.100062214459222,-0.0149022160937232));
#110=CARTESIAN_POINT('',(0.127271086289615,0.100074475856148,-0.00936194630886208));
#111=CARTESIAN_POINT('',(0.0956127499043596,0.100112108312003,-0.00457125570542338));
#112=CARTESIAN_POINT('',(0.0638489632049135,0.100138733701618,-0.00065945570621548));
#113=CARTESIAN_POINT('',(0.0399522430710798,0.100132289797511,0.00195460137958204));
#114=CARTESIAN_POINT('',(0.0240104564936149,0.100095038791678,0.0030476426591356));
#115=CARTESIAN_POINT('',(0.0160222930221134,0.100076493522307,0.003973282713384));
#116=CARTESIAN_POINT('',(0.00805188213120442,0.100053564715331,0.00440530299806627));
#117=CARTESIAN_POINT('',(0.00273509916315793,0.100025900814839,0.00347046620429146));
#118=CARTESIAN_POINT('',(0.000103032543847803,0.100012503564358,0.00303596071898937));
#119=CARTESIAN_POINT('',(-1.76020578911356E-34,0.0900080502033234,-8.03956517165234E-35));
#120=CARTESIAN_POINT('',(5.15162719239015E-05,0.0950102768838406,0.00151798035949469));
#121=VECTOR('',#149,1.0);
#122=CARTESIAN_POINT('',(-6.41408400690685E-34,0.0100008938461542,-3.71905565942544E-34));
#123=CARTESIAN_POINT('',(-7.03422477605528E-35,0.0500044720247388,-5.19828512311948E-35));
#124=VECTOR('',#150,1.0);
#125=CARTESIAN_POINT('',(4.95870444865432E-05,-5.09046840306837E-05,0.0028883230406791));
#126=CARTESIAN_POINT('',(2.47935222432716E-05,0.00497499458106176,0.00144416152033955));
#127=VECTOR('',#151,1.0);
#128=CARTESIAN_POINT('',(4.95870444865432E-05,-5.09046840306837E-05,0.0028883230406791));
#129=CARTESIAN_POINT('',(0.00265903316334613,-5.94828284901658E-05,0.00330350406516831));
#130=CARTESIAN_POINT('',(0.0079278106543866,-7.75166415281415E-05,0.00419629514553274));
#131=CARTESIAN_POINT('',(0.0158223662814196,-8.40889105046212E-05,0.00379247935552732));
#132=CARTESIAN_POINT('',(0.0237336091851072,-8.77413109418466E-05,0.00286712638257892));
#133=CARTESIAN_POINT('',(0.0395240152904626,-0.000105223120927395,0.00178219007530779));
#134=CARTESIAN_POINT('',(0.063192364708394,-0.000102182110588992,-0.000802842978997765));
#135=CARTESIAN_POINT('',(0.0946546239017672,-8.99659154166807E-05,-0.00466856310627403));
#136=CARTESIAN_POINT('',(0.12601350040173,-7.05266260528222E-05,-0.00939644778069993));
#137=CARTESIAN_POINT('',(0.157248002701623,-5.94437888967762E-05,-0.0148599874444398));
#138=CARTESIAN_POINT('',(0.19870632413278,-5.14658858264332E-05,-0.0231553011818641));
#139=CARTESIAN_POINT('',(0.250135404614386,-4.77535140931201E-05,-0.0353728392698091));
#140=CARTESIAN_POINT('',(0.3110967343212,-3.08356050630673E-05,-0.0529032564338507));
#141=CARTESIAN_POINT('',(0.391224954569355,1.47325860999864E-06,-0.0799669857523023));
#142=CARTESIAN_POINT('',(0.488961550872472,4.44919243547872E-05,-0.120458662256364));
#143=CARTESIAN_POINT('',(0.601678319614814,0.000112726785437502,-0.178843328260645));
#144=CARTESIAN_POINT('',(0.709279913961367,0.000195844147083457,-0.246162635511514));
#145=CARTESIAN_POINT('',(0.811437453181239,0.000292346309357768,-0.321490221579569));
#146=CARTESIAN_POINT('',(0.875412512643426,0.000363660074308349,-0.376864123018181));
#147=CARTESIAN_POINT('',(0.906379997730255,0.000408098800107837,-0.405644625425339));
#148=DIRECTION('',(0.946417000112544,-0.000168993430637805,-0.322947106101283));
#149=DIRECTION('',(-0.00985441950689295,-0.956863498414732,-0.290370686911925));
#150=DIRECTION('',(-0.0,-1.0,-0.0));
#151=DIRECTION('',(0.00474124362139457,-0.961098330385788,0.276165747221798));
ENDSEC;
END-ISO-10303-21;
