ISO-10303-21;
HEADER;
FILE_DESCRIPTION(('STEP AP214'),'1');
FILE_NAME('SMAStripDeformed_04.stp','2026-05-04T09:23:25',(' '),(' '),'Spatial InterOp 3D',' ',' ');
FILE_SCHEMA(('AUTOMOTIVE_DESIGN { 1 0 10303 214 1 1 1 1 }'));
ENDSEC;
DATA;
#1=PRODUCT_DEFINITION_CONTEXT('',#9,'design');
#2=APPLICATION_PROTOCOL_DEFINITION('INTERNATIONAL STANDARD','automotive_design',1994,#9);
#3=PRODUCT_CATEGORY_RELATIONSHIP('NONE','NONE',#10,#11);
#4=SHAPE_DEFINITION_REPRESENTATION(#12,#13);
#5= (GEOMETRIC_REPRESENTATION_CONTEXT(3)GLOBAL_UNCERTAINTY_ASSIGNED_CONTEXT((#16))GLOBAL_UNIT_ASSIGNED_CONTEXT((#18,#19,#20))REPRESENTATION_CONTEXT('NONE','WORKSPACE'));
#9=APPLICATION_CONTEXT(' ');
#10=PRODUCT_CATEGORY('part','NONE');
#11=PRODUCT_RELATED_PRODUCT_CATEGORY('detail',' ',(#22));
#12=PRODUCT_DEFINITION_SHAPE('NONE','NONE',#23);
#13=MANIFOLD_SURFACE_SHAPE_REPRESENTATION('1',(#24,#25),#5);
#16=UNCERTAINTY_MEASURE_WITH_UNIT(LENGTH_MEASURE(1.0E-06),#18,'','');
#18= (CONVERSION_BASED_UNIT('MILLIMETRE',#28)LENGTH_UNIT()NAMED_UNIT(#31));
#19= (NAMED_UNIT(#33)PLANE_ANGLE_UNIT()SI_UNIT($,.RADIAN.));
#20= (NAMED_UNIT(#33)SOLID_ANGLE_UNIT()SI_UNIT($,.STERADIAN.));
#22=PRODUCT('1','','PART--DESC',(#39));
#23=PRODUCT_DEFINITION('','NONE',#40,#1);
#24=SHELL_BASED_SURFACE_MODEL('1',(#41));
#25=AXIS2_PLACEMENT_3D('',#42,#43,#44);
#28=LENGTH_MEASURE_WITH_UNIT(LENGTH_MEASURE(1.0),#45);
#31=DIMENSIONAL_EXPONENTS(1.0,0.0,0.0,0.0,0.0,0.0,0.0);
#33=DIMENSIONAL_EXPONENTS(0.0,0.0,0.0,0.0,0.0,0.0,0.0);
#39=PRODUCT_CONTEXT('',#9,'mechanical');
#40=PRODUCT_DEFINITION_FORMATION_WITH_SPECIFIED_SOURCE(' ','NONE',#22,.NOT_KNOWN.);
#41=CLOSED_SHELL('',(#46));
#42=CARTESIAN_POINT('',(0.0,0.0,0.0));
#43=DIRECTION('',(0.0,0.0,1.0));
#44=DIRECTION('',(1.0,0.0,0.0));
#45= (NAMED_UNIT(#31)LENGTH_UNIT()SI_UNIT(.MILLI.,.METRE.));
#46=FACE_SURFACE('',(#48),#49,.T.);
#48=FACE_BOUND('',#50,.T.);
#49=PLANE('',#51);
#50=EDGE_LOOP('',(#52,#53,#54,#55,#56,#57));
#51=AXIS2_PLACEMENT_3D('',#58,#59,#60);
#52=ORIENTED_EDGE('',*,*,#61,.T.);
#53=ORIENTED_EDGE('',*,*,#62,.T.);
#54=ORIENTED_EDGE('',*,*,#63,.T.);
#55=ORIENTED_EDGE('',*,*,#64,.T.);
#56=ORIENTED_EDGE('',*,*,#65,.T.);
#57=ORIENTED_EDGE('',*,*,#66,.T.);
#58=CARTESIAN_POINT('',(0.4989284101257,0.0499695306207286,-0.0435340196199832));
#59=DIRECTION('',(0.0866682660835628,0.00365343118661061,0.996230527586177));
#60=DIRECTION('',(0.996237176275825,5.07015427782338E-20,-0.0866688444942694));
#61=EDGE_CURVE('',#67,#68,#69,.T.);
#62=EDGE_CURVE('',#68,#70,#71,.T.);
#63=EDGE_CURVE('',#70,#72,#73,.T.);
#64=EDGE_CURVE('',#72,#74,#75,.T.);
#65=EDGE_CURVE('',#74,#76,#77,.T.);
#66=EDGE_CURVE('',#76,#67,#78,.T.);
#67=VERTEX_POINT('',#79);
#68=VERTEX_POINT('',#80);
#69=LINE('',#81,#82);
#70=VERTEX_POINT('',#83);
#71=LINE('',#84,#85);
#72=VERTEX_POINT('',#86);
#73=CIRCLE('',#87,7.39570876639069);
#74=VERTEX_POINT('',#88);
#75=LINE('',#89,#90);
#76=VERTEX_POINT('',#91);
#77=CIRCLE('',#92,7.4452520717181);
#78=LINE('',#93,#94);
#79=CARTESIAN_POINT('',(-9.672440471371E-35,0.0900456383824348,2.2649609396608E-35));
#80=CARTESIAN_POINT('',(4.88068239115039E-35,0.009988515637815,-2.88825505276137E-35));
#81=CARTESIAN_POINT('',(2.95275284362868E-35,0.0500170770101249,-3.11647056550286E-36));
#82=VECTOR('',#95,1.0);
#83=CARTESIAN_POINT('',(2.2769572751713E-06,-4.62745265394915E-05,0.000146095393574797));
#84=CARTESIAN_POINT('',(1.13847863758565E-06,0.00497112055563775,7.30476967873983E-05));
#85=VECTOR('',#96,1.0);
#86=CARTESIAN_POINT('',(0.997791886329651,-0.000148576393257827,-0.0870174840092659));
#87=AXIS2_PLACEMENT_3D('',#97,#98,#99);
#88=CARTESIAN_POINT('',(0.997858822345734,0.0999774038791656,-0.0867006927728653));
#89=CARTESIAN_POINT('',(0.997816026210785,0.0499144137429539,-0.0869574137032032));
#90=VECTOR('',#100,1.0);
#91=CARTESIAN_POINT('',(-2.00209433387499E-06,0.100052781403065,-0.000153338594827801));
#92=AXIS2_PLACEMENT_3D('',#101,#102,#103);
#93=CARTESIAN_POINT('',(-1.0010471669375E-06,0.0950492098927498,-7.66692974139005E-05));
#94=VECTOR('',#104,1.0);
#95=DIRECTION('',(-0.0,-1.0,-0.0));
#96=DIRECTION('',(0.000226882267022447,-0.999894010489074,0.0145573456547589));
#97=CARTESIAN_POINT('',(-0.139038960677136,0.0271926687429346,-7.39392109308857));
#98=DIRECTION('',(0.000416518349797941,0.999993140413736,0.00368043991104774));
#99=DIRECTION('',(0.0,-0.00368044023030301,0.99999322715692));
#100=DIRECTION('',(0.000173421413072999,0.999999982482799,7.04231241304698E-05));
#101=CARTESIAN_POINT('',(-0.144539829821804,0.0706290968652656,-7.4436227336393));
#102=DIRECTION('',(0.000262620413435603,-0.999992147007187,0.00395435892090605));
#103=DIRECTION('',(0.0,-0.0039543590572711,-0.999992181491659));
#104=DIRECTION('',(0.000200043038608093,-0.999882604811152,0.0153211154570721));
ENDSEC;
END-ISO-10303-21;
