ISO-10303-21;
HEADER;
FILE_DESCRIPTION(('STEP AP214'),'1');
FILE_NAME('SMAStripDeformed_03.stp','2026-05-04T09:22:54',(' '),(' '),'Spatial InterOp 3D',' ',' ');
FILE_SCHEMA(('AUTOMOTIVE_DESIGN { 1 0 10303 214 1 1 1 1 }'));
ENDSEC;
DATA;
#1=PRODUCT_DEFINITION_CONTEXT('',#9,'design');
#2=APPLICATION_PROTOCOL_DEFINITION('INTERNATIONAL STANDARD','automotive_design',1994,#9);
#3=PRODUCT_CATEGORY_RELATIONSHIP('NONE','NONE',#10,#11);
#4=SHAPE_DEFINITION_REPRESENTATION(#12,#13);
#5= (GEOMETRIC_REPRESENTATION_CONTEXT(3)GLOBAL_UNCERTAINTY_ASSIGNED_CONTEXT((#16))GLOBAL_UNIT_ASSIGNED_CONTEXT((#18,#19,#20))REPRESENTATION_CONTEXT('NONE','WORKSPACE'));
#9=APPLICATION_CONTEXT(' ');
#10=PRODUCT_CATEGORY('part','NONE');
#11=PRODUCT_RELATED_PRODUCT_CATEGORY('detail',' ',(#22));
#12=PRODUCT_DEFINITION_SHAPE('NONE','NONE',#23);
#13=MANIFOLD_SURFACE_SHAPE_REPRESENTATION('1',(#24,#25),#5);
#16=UNCERTAINTY_MEASURE_WITH_UNIT(LENGTH_MEASURE(1.0E-06),#18,'','');
#18= (CONVERSION_BASED_UNIT('MILLIMETRE',#28)LENGTH_UNIT()NAMED_UNIT(#31));
#19= (NAMED_UNIT(#33)PLANE_ANGLE_UNIT()SI_UNIT($,.RADIAN.));
#20= (NAMED_UNIT(#33)SOLID_ANGLE_UNIT()SI_UNIT($,.STERADIAN.));
#22=PRODUCT('1','','PART--DESC',(#39));
#23=PRODUCT_DEFINITION('','NONE',#40,#1);
#24=SHELL_BASED_SURFACE_MODEL('1',(#41));
#25=AXIS2_PLACEMENT_3D('',#42,#43,#44);
#28=LENGTH_MEASURE_WITH_UNIT(LENGTH_MEASURE(1.0),#45);
#31=DIMENSIONAL_EXPONENTS(1.0,0.0,0.0,0.0,0.0,0.0,0.0);
#33=DIMENSIONAL_EXPONENTS(0.0,0.0,0.0,0.0,0.0,0.0,0.0);
#39=PRODUCT_CONTEXT('',#9,'mechanical');
#40=PRODUCT_DEFINITION_FORMATION_WITH_SPECIFIED_SOURCE(' ','NONE',#22,.NOT_KNOWN.);
#41=CLOSED_SHELL('',(#46));
#42=CARTESIAN_POINT('',(0.0,0.0,0.0));
#43=DIRECTION('',(0.0,0.0,1.0));
#44=DIRECTION('',(1.0,0.0,0.0));
#45= (NAMED_UNIT(#31)LENGTH_UNIT()SI_UNIT(.MILLI.,.METRE.));
#46=FACE_SURFACE('',(#48),#49,.T.);
#48=FACE_BOUND('',#50,.T.);
#49=PLANE('',#51);
#50=EDGE_LOOP('',(#52,#53,#54,#55,#56));
#51=AXIS2_PLACEMENT_3D('',#57,#58,#59);
#52=ORIENTED_EDGE('',*,*,#60,.T.);
#53=ORIENTED_EDGE('',*,*,#61,.T.);
#54=ORIENTED_EDGE('',*,*,#62,.T.);
#55=ORIENTED_EDGE('',*,*,#63,.T.);
#56=ORIENTED_EDGE('',*,*,#64,.T.);
#57=CARTESIAN_POINT('',(0.499306127815274,0.0499838575633476,-0.0375270582735538));
#58=DIRECTION('',(0.0745502091833666,0.00300481073688512,0.997212734286497));
#59=DIRECTION('',(0.99721723617781,4.17001258091343E-20,-0.074550545738374));
#60=EDGE_CURVE('',#65,#66,#67,.T.);
#61=EDGE_CURVE('',#66,#68,#69,.T.);
#62=EDGE_CURVE('',#68,#70,#71,.T.);
#63=EDGE_CURVE('',#70,#72,#73,.T.);
#64=EDGE_CURVE('',#72,#65,#74,.T.);
#65=VERTEX_POINT('',#75);
#66=VERTEX_POINT('',#76);
#67=LINE('',#77,#78);
#68=VERTEX_POINT('',#79);
#69=LINE('',#80,#81);
#70=VERTEX_POINT('',#82);
#71=CIRCLE('',#83,8.1477191290272);
#72=VERTEX_POINT('',#84);
#73=LINE('',#85,#86);
#74=CIRCLE('',#87,8.17802510857877);
#75=CARTESIAN_POINT('',(0.0,0.100025750696659,0.0));
#76=CARTESIAN_POINT('',(4.28128875291086E-35,0.0099999038502574,-2.81876542870602E-35));
#77=CARTESIAN_POINT('',(2.99886229830591E-35,0.0550128272734582,-3.04495654272908E-36));
#78=VECTOR('',#88,1.0);
#79=CARTESIAN_POINT('',(-3.27053015780621E-07,-1.86251636478119E-05,-6.07477668381762E-05));
#80=CARTESIAN_POINT('',(-1.6352650789031E-07,0.00499063934330479,-3.03738834190881E-05));
#81=VECTOR('',#89,1.0);
#82=CARTESIAN_POINT('',(0.998612582683563,-7.92197388364002E-05,-0.0748025998473167));
#83=AXIS2_PLACEMENT_3D('',#90,#91,#92);
#84=CARTESIAN_POINT('',(0.998586773872375,0.0999653339385986,-0.0750541165471077));
#85=CARTESIAN_POINT('',(0.998599678277969,0.0499430570998811,-0.0749255903065205));
#86=VECTOR('',#93,1.0);
#87=AXIS2_PLACEMENT_3D('',#94,#95,#96);
#88=DIRECTION('',(-0.0,-1.0,-0.0));
#89=DIRECTION('',(-3.26442138376784E-05,-0.99998161670609,-0.00606343007140177));
#90=CARTESIAN_POINT('',(-0.102801344840809,0.0222253351926889,-8.14689400493462));
#91=DIRECTION('',(0.00025764986110528,0.99999623913836,0.00273044422844331));
#92=DIRECTION('',(-1.09711995606028E-22,-0.00273044431907147,0.999996272329963));
#93=DIRECTION('',(-0.0002598125174353,0.999996802285651,-0.00251553491875117));
#94=CARTESIAN_POINT('',(-0.106515793953234,0.0709881503169973,-8.17743312688603));
#95=DIRECTION('',(0.00021926670083852,-0.999993669590116,0.00355143658367739));
#96=DIRECTION('',(-9.30217475232641E-23,-0.00355143666905017,-0.999993693628908));
ENDSEC;
END-ISO-10303-21;
