ISO-10303-21;
HEADER;
FILE_DESCRIPTION(('STEP AP214'),'1');
FILE_NAME('SMAStripDeformed_02.stp','2026-05-04T09:29:47',(' '),(' '),'Spatial InterOp 3D',' ',' ');
FILE_SCHEMA(('AUTOMOTIVE_DESIGN { 1 0 10303 214 1 1 1 1 }'));
ENDSEC;
DATA;
#1=PRODUCT_DEFINITION_CONTEXT('',#9,'design');
#2=APPLICATION_PROTOCOL_DEFINITION('INTERNATIONAL STANDARD','automotive_design',1994,#9);
#3=PRODUCT_CATEGORY_RELATIONSHIP('NONE','NONE',#10,#11);
#4=SHAPE_DEFINITION_REPRESENTATION(#12,#13);
#5= (GEOMETRIC_REPRESENTATION_CONTEXT(3)GLOBAL_UNCERTAINTY_ASSIGNED_CONTEXT((#16))GLOBAL_UNIT_ASSIGNED_CONTEXT((#18,#19,#20))REPRESENTATION_CONTEXT('NONE','WORKSPACE'));
#9=APPLICATION_CONTEXT(' ');
#10=PRODUCT_CATEGORY('part','NONE');
#11=PRODUCT_RELATED_PRODUCT_CATEGORY('detail',' ',(#22));
#12=PRODUCT_DEFINITION_SHAPE('NONE','NONE',#23);
#13=MANIFOLD_SURFACE_SHAPE_REPRESENTATION('1',(#24,#25),#5);
#16=UNCERTAINTY_MEASURE_WITH_UNIT(LENGTH_MEASURE(1.0E-06),#18,'','');
#18= (CONVERSION_BASED_UNIT('MILLIMETRE',#28)LENGTH_UNIT()NAMED_UNIT(#31));
#19= (NAMED_UNIT(#33)PLANE_ANGLE_UNIT()SI_UNIT($,.RADIAN.));
#20= (NAMED_UNIT(#33)SOLID_ANGLE_UNIT()SI_UNIT($,.STERADIAN.));
#22=PRODUCT('1','','PART--DESC',(#39));
#23=PRODUCT_DEFINITION('','NONE',#40,#1);
#24=SHELL_BASED_SURFACE_MODEL('1',(#41));
#25=AXIS2_PLACEMENT_3D('',#42,#43,#44);
#28=LENGTH_MEASURE_WITH_UNIT(LENGTH_MEASURE(1.0),#45);
#31=DIMENSIONAL_EXPONENTS(1.0,0.0,0.0,0.0,0.0,0.0,0.0);
#33=DIMENSIONAL_EXPONENTS(0.0,0.0,0.0,0.0,0.0,0.0,0.0);
#39=PRODUCT_CONTEXT('',#9,'mechanical');
#40=PRODUCT_DEFINITION_FORMATION_WITH_SPECIFIED_SOURCE(' ','NONE',#22,.NOT_KNOWN.);
#41=CLOSED_SHELL('',(#46));
#42=CARTESIAN_POINT('',(0.0,0.0,0.0));
#43=DIRECTION('',(0.0,0.0,1.0));
#44=DIRECTION('',(1.0,0.0,0.0));
#45= (NAMED_UNIT(#31)LENGTH_UNIT()SI_UNIT(.MILLI.,.METRE.));
#46=FACE_SURFACE('',(#48),#49,.F.);
#48=FACE_BOUND('',#50,.T.);
#49=CONICAL_SURFACE('',#51,0.153603507160862,0.00145446028445951);
#50=EDGE_LOOP('',(#52,#53,#54,#55,#56));
#51=AXIS2_PLACEMENT_3D('',#57,#58,#59);
#52=ORIENTED_EDGE('',*,*,#60,.T.);
#53=ORIENTED_EDGE('',*,*,#61,.T.);
#54=ORIENTED_EDGE('',*,*,#62,.T.);
#55=ORIENTED_EDGE('',*,*,#63,.T.);
#56=ORIENTED_EDGE('',*,*,#64,.T.);
#57=CARTESIAN_POINT('',(0.00964425303561779,0.0501125782130257,0.154260460160945));
#58=DIRECTION('',(0.998275694695344,0.00078774194132292,-0.0586942658456698));
#59=DIRECTION('',(0.000789102349433359,-0.999999688658693,-5.17862935867681E-21));
#60=EDGE_CURVE('',#65,#66,#67,.T.);
#61=EDGE_CURVE('',#66,#68,#69,.T.);
#62=EDGE_CURVE('',#68,#70,#71,.T.);
#63=EDGE_CURVE('',#70,#72,#73,.T.);
#64=EDGE_CURVE('',#72,#65,#74,.T.);
#65=VERTEX_POINT('',#75);
#66=VERTEX_POINT('',#76);
#67=CIRCLE('',#77,9.42223469110269);
#68=VERTEX_POINT('',#78);
#69=LINE('',#79,#80);
#70=VERTEX_POINT('',#81);
#71=LINE('',#82,#83);
#72=VERTEX_POINT('',#84);
#73=CIRCLE('',#85,9.41363095483007);
#74=LINE('',#86,#87);
#75=CARTESIAN_POINT('',(0.999334871768951,0.0999854654073715,-0.0608376264572144));
#76=CARTESIAN_POINT('',(0.0,0.100002877414227,0.0));
#77=AXIS2_PLACEMENT_3D('',#88,#89,#90);
#78=CARTESIAN_POINT('',(-1.04731162802304E-34,0.0100002875551581,1.84280435627361E-35));
#79=CARTESIAN_POINT('',(3.01859315465545E-35,0.0550015824846923,1.72735393625044E-37));
#80=VECTOR('',#91,1.0);
#81=CARTESIAN_POINT('',(-1.10798650254651E-08,-2.9673531116714E-06,-1.11306935650646E-05));
#82=CARTESIAN_POINT('',(-5.53993251273255E-09,0.00499866010102323,-5.56534678253229E-06));
#83=VECTOR('',#92,1.0);
#84=CARTESIAN_POINT('',(0.99939900636673,-3.23272797686514E-05,-0.0602842643857002));
#85=AXIS2_PLACEMENT_3D('',#93,#94,#95);
#86=CARTESIAN_POINT('',(0.999371707439423,0.0499765690638014,-0.0604915507137775));
#87=VECTOR('',#96,1.0);
#88=CARTESIAN_POINT('',(-0.0695753861298922,0.0838534752492443,-9.42200830828116));
#89=DIRECTION('',(8.29174085227564E-05,-0.999998524526321,0.00171582921212844));
#90=DIRECTION('',(0.0,0.00171582921802686,0.999998527963964));
#91=DIRECTION('',(-0.0,-1.0,-0.0));
#92=DIRECTION('',(0.0,-0.99999938094194,-0.00111270649174838));
#93=CARTESIAN_POINT('',(-0.0606596289620371,0.0156728003949072,-9.41348318501078));
#94=DIRECTION('',(0.000124127596699904,0.999998604320318,0.00166611816994715));
#95=DIRECTION('',(0.0,-0.00166611818278264,0.999998612024137));
#96=DIRECTION('',(-0.000263287856803025,0.9999967889852,-0.00252045606864515));
ENDSEC;
END-ISO-10303-21;
