ISO-10303-21;
HEADER;
FILE_DESCRIPTION(('STEP AP214'),'1');
FILE_NAME('SMAStripDeformed_05.stp','2026-07-28T15:29:17',(' '),(' '),'Spatial InterOp 3D',' ',' ');
FILE_SCHEMA(('AUTOMOTIVE_DESIGN { 1 0 10303 214 1 1 1 1 }'));
ENDSEC;
DATA;
#1=PRODUCT_DEFINITION_CONTEXT('',#9,'design');
#2=APPLICATION_PROTOCOL_DEFINITION('INTERNATIONAL STANDARD','automotive_design',1994,#9);
#3=PRODUCT_CATEGORY_RELATIONSHIP('NONE','NONE',#10,#11);
#4=SHAPE_DEFINITION_REPRESENTATION(#12,#13);
#5= (GEOMETRIC_REPRESENTATION_CONTEXT(3)GLOBAL_UNCERTAINTY_ASSIGNED_CONTEXT((#16))GLOBAL_UNIT_ASSIGNED_CONTEXT((#18,#19,#20))REPRESENTATION_CONTEXT('NONE','WORKSPACE'));
#9=APPLICATION_CONTEXT(' ');
#10=PRODUCT_CATEGORY('part','NONE');
#11=PRODUCT_RELATED_PRODUCT_CATEGORY('detail',' ',(#22));
#12=PRODUCT_DEFINITION_SHAPE('NONE','NONE',#23);
#13=MANIFOLD_SURFACE_SHAPE_REPRESENTATION('1',(#24,#25),#5);
#16=UNCERTAINTY_MEASURE_WITH_UNIT(LENGTH_MEASURE(1.0E-06),#18,'','');
#18= (CONVERSION_BASED_UNIT('MILLIMETRE',#28)LENGTH_UNIT()NAMED_UNIT(#31));
#19= (NAMED_UNIT(#33)PLANE_ANGLE_UNIT()SI_UNIT($,.RADIAN.));
#20= (NAMED_UNIT(#33)SOLID_ANGLE_UNIT()SI_UNIT($,.STERADIAN.));
#22=PRODUCT('1','','PART--DESC',(#39));
#23=PRODUCT_DEFINITION('','NONE',#40,#1);
#24=SHELL_BASED_SURFACE_MODEL('1',(#41));
#25=AXIS2_PLACEMENT_3D('',#42,#43,#44);
#28=LENGTH_MEASURE_WITH_UNIT(LENGTH_MEASURE(1.0),#45);
#31=DIMENSIONAL_EXPONENTS(1.0,0.0,0.0,0.0,0.0,0.0,0.0);
#33=DIMENSIONAL_EXPONENTS(0.0,0.0,0.0,0.0,0.0,0.0,0.0);
#39=PRODUCT_CONTEXT('',#9,'mechanical');
#40=PRODUCT_DEFINITION_FORMATION_WITH_SPECIFIED_SOURCE(' ','NONE',#22,.NOT_KNOWN.);
#41=CLOSED_SHELL('',(#46));
#42=CARTESIAN_POINT('',(0.0,0.0,0.0));
#43=DIRECTION('',(0.0,0.0,1.0));
#44=DIRECTION('',(1.0,0.0,0.0));
#45= (NAMED_UNIT(#31)LENGTH_UNIT()SI_UNIT(.MILLI.,.METRE.));
#46=FACE_SURFACE('',(#48),#49,.T.);
#48=FACE_BOUND('',#50,.T.);
#49=CYLINDRICAL_SURFACE('',#51,3.8813432765478);
#50=EDGE_LOOP('',(#52,#53,#54,#55));
#51=AXIS2_PLACEMENT_3D('',#56,#57,#58);
#52=ORIENTED_EDGE('',*,*,#59,.T.);
#53=ORIENTED_EDGE('',*,*,#60,.T.);
#54=ORIENTED_EDGE('',*,*,#61,.T.);
#55=ORIENTED_EDGE('',*,*,#62,.T.);
#56=CARTESIAN_POINT('',(-0.135216376167573,5.39077313060702E-05,-3.87640210170293));
#57=DIRECTION('',(9.95393284226995E-05,-0.99999999489495,-1.73787662361311E-05));
#58=DIRECTION('',(-3.4756252035129E-25,-1.73787663222262E-05,0.999999999848989));
#59=EDGE_CURVE('',#63,#64,#65,.T.);
#60=EDGE_CURVE('',#64,#66,#67,.T.);
#61=EDGE_CURVE('',#66,#68,#69,.T.);
#62=EDGE_CURVE('',#68,#63,#70,.T.);
#63=VERTEX_POINT('',#71);
#64=VERTEX_POINT('',#72);
#65=LINE('',#73,#74);
#66=VERTEX_POINT('',#75);
#67=B_SPLINE_CURVE_WITH_KNOTS('',3,(#76,#77,#78,#79,#80,#81,#82,#83,#84,#85,#86),.UNSPECIFIED.,.F.,.F.,(4,1,1,1,1,1,1,1,4),(0.0,0.125049054481574,0.250098108963147,0.375147163444721,0.500196217926294,0.625245272407868,0.750294326889441,0.875343381371015,1.00039243585259),.UNSPECIFIED.);
#68=VERTEX_POINT('',#87);
#69=LINE('',#88,#89);
#70=B_SPLINE_CURVE_WITH_KNOTS('',3,(#90,#91,#92,#93,#94,#95,#96,#97,#98,#99,#100),.UNSPECIFIED.,.F.,.F.,(4,1,1,1,1,1,1,1,4),(0.0,0.12504907056361,0.250098141127221,0.375147211690831,0.500196282254442,0.625245352818052,0.750294423381663,0.875343493945273,1.00039256450888),.UNSPECIFIED.);
#71=CARTESIAN_POINT('',(0.985050320625305,-8.11789868748747E-06,-0.157690033316612));
#72=CARTESIAN_POINT('',(0.985050201416016,0.100009053945541,-0.157689988613129));
#73=CARTESIAN_POINT('',(0.985068202018738,0.0500004680234269,-0.157620757818222));
#74=VECTOR('',#101,1.0);
#75=CARTESIAN_POINT('',(-1.19528829815769E-33,0.100000001490116,-3.84284990824641E-34));
#76=CARTESIAN_POINT('',(0.985050201416016,0.100009053945541,-0.157689988613129));
#77=CARTESIAN_POINT('',(0.944779980648606,0.100010315898949,-0.146929722783597));
#78=CARTESIAN_POINT('',(0.864109427717095,0.100011912296118,-0.1258931136536));
#79=CARTESIAN_POINT('',(0.742560263435784,0.100015245864533,-0.0964880501152253));
#80=CARTESIAN_POINT('',(0.620378918989793,0.100018001272086,-0.0698163068096967));
#81=CARTESIAN_POINT('',(0.49750838603556,0.100021663308951,-0.0465004658408326));
#82=CARTESIAN_POINT('',(0.373945377956867,0.100021693907625,-0.0271616388095766));
#83=CARTESIAN_POINT('',(0.24974562186765,0.100034847134656,-0.0123909114319861));
#84=CARTESIAN_POINT('',(0.125030992851048,0.0999989707432864,-0.00289221091562808));
#85=CARTESIAN_POINT('',(0.0416824144704853,0.100098940481391,-0.000201340401562674));
#86=CARTESIAN_POINT('',(-1.19528829815769E-33,0.100000001490116,-3.84284990824641E-34));
#87=CARTESIAN_POINT('',(-1.1952641454222E-33,-1.17702185062988E-33,-3.84327051481881E-34));
#88=CARTESIAN_POINT('',(3.70206617345145E-31,0.0500000007450581,5.57674268335187E-32));
#89=VECTOR('',#102,1.0);
#90=CARTESIAN_POINT('',(-1.1952641454222E-33,-1.17702185062988E-33,-3.84327051481881E-34));
#91=CARTESIAN_POINT('',(0.0416824196959257,-9.89625683543931E-05,-0.000201356827484878));
#92=CARTESIAN_POINT('',(0.125031009501177,1.04354976888391E-06,-0.00289224539811475));
#93=CARTESIAN_POINT('',(0.249745649764157,-3.48311506417215E-05,-0.0123909445398568));
#94=CARTESIAN_POINT('',(0.373945451607944,-2.16702691892055E-05,-0.0271614382202362));
#95=CARTESIAN_POINT('',(0.497508440781537,-2.14249540974664E-05,-0.0465005266316855));
#96=CARTESIAN_POINT('',(0.62037897680465,-1.76166861475161E-05,-0.0698164194990628));
#97=CARTESIAN_POINT('',(0.742560378484411,-1.47694038671812E-05,-0.0964879692553448));
#98=CARTESIAN_POINT('',(0.864109530168411,-1.11832878310395E-05,-0.125893161065357));
#99=CARTESIAN_POINT('',(0.944780077445929,-9.41509185099826E-06,-0.146929830601962));
#100=CARTESIAN_POINT('',(0.985050320625305,-8.11789868748747E-06,-0.157690033316612));
#101=DIRECTION('',(-9.20981026683459E-07,0.999999999999509,3.65781979392642E-07));
#102=DIRECTION('',(-0.0,-1.0,-0.0));
ENDSEC;
END-ISO-10303-21;
