ISO-10303-21;
HEADER;
FILE_DESCRIPTION(('STEP AP214'),'1');
FILE_NAME('SMAStripDeformed_04.stp','2026-07-28T15:28:50',(' '),(' '),'Spatial InterOp 3D',' ',' ');
FILE_SCHEMA(('AUTOMOTIVE_DESIGN { 1 0 10303 214 1 1 1 1 }'));
ENDSEC;
DATA;
#1=PRODUCT_DEFINITION_CONTEXT('',#9,'design');
#2=APPLICATION_PROTOCOL_DEFINITION('INTERNATIONAL STANDARD','automotive_design',1994,#9);
#3=PRODUCT_CATEGORY_RELATIONSHIP('NONE','NONE',#10,#11);
#4=SHAPE_DEFINITION_REPRESENTATION(#12,#13);
#5= (GEOMETRIC_REPRESENTATION_CONTEXT(3)GLOBAL_UNCERTAINTY_ASSIGNED_CONTEXT((#16))GLOBAL_UNIT_ASSIGNED_CONTEXT((#18,#19,#20))REPRESENTATION_CONTEXT('NONE','WORKSPACE'));
#9=APPLICATION_CONTEXT(' ');
#10=PRODUCT_CATEGORY('part','NONE');
#11=PRODUCT_RELATED_PRODUCT_CATEGORY('detail',' ',(#22));
#12=PRODUCT_DEFINITION_SHAPE('NONE','NONE',#23);
#13=MANIFOLD_SURFACE_SHAPE_REPRESENTATION('1',(#24,#25),#5);
#16=UNCERTAINTY_MEASURE_WITH_UNIT(LENGTH_MEASURE(1.0E-06),#18,'','');
#18= (CONVERSION_BASED_UNIT('MILLIMETRE',#28)LENGTH_UNIT()NAMED_UNIT(#31));
#19= (NAMED_UNIT(#33)PLANE_ANGLE_UNIT()SI_UNIT($,.RADIAN.));
#20= (NAMED_UNIT(#33)SOLID_ANGLE_UNIT()SI_UNIT($,.STERADIAN.));
#22=PRODUCT('1','','PART--DESC',(#39));
#23=PRODUCT_DEFINITION('','NONE',#40,#1);
#24=SHELL_BASED_SURFACE_MODEL('1',(#41));
#25=AXIS2_PLACEMENT_3D('',#42,#43,#44);
#28=LENGTH_MEASURE_WITH_UNIT(LENGTH_MEASURE(1.0),#45);
#31=DIMENSIONAL_EXPONENTS(1.0,0.0,0.0,0.0,0.0,0.0,0.0);
#33=DIMENSIONAL_EXPONENTS(0.0,0.0,0.0,0.0,0.0,0.0,0.0);
#39=PRODUCT_CONTEXT('',#9,'mechanical');
#40=PRODUCT_DEFINITION_FORMATION_WITH_SPECIFIED_SOURCE(' ','NONE',#22,.NOT_KNOWN.);
#41=CLOSED_SHELL('',(#46));
#42=CARTESIAN_POINT('',(0.0,0.0,0.0));
#43=DIRECTION('',(0.0,0.0,1.0));
#44=DIRECTION('',(1.0,0.0,0.0));
#45= (NAMED_UNIT(#31)LENGTH_UNIT()SI_UNIT(.MILLI.,.METRE.));
#46=FACE_SURFACE('',(#48),#49,.T.);
#48=FACE_BOUND('',#50,.T.);
#49=CYLINDRICAL_SURFACE('',#51,4.1714577292509);
#50=EDGE_LOOP('',(#52,#53,#54,#55));
#51=AXIS2_PLACEMENT_3D('',#56,#57,#58);
#52=ORIENTED_EDGE('',*,*,#59,.T.);
#53=ORIENTED_EDGE('',*,*,#60,.T.);
#54=ORIENTED_EDGE('',*,*,#61,.T.);
#55=ORIENTED_EDGE('',*,*,#62,.T.);
#56=CARTESIAN_POINT('',(-0.0920680312983732,4.64156102866003E-05,-4.16885567767527));
#57=DIRECTION('',(8.44076478667213E-05,-0.9999999963532,-1.29980241441039E-05));
#58=DIRECTION('',(-1.37114770679824E-25,-1.29980241904071E-05,0.999999999915526));
#59=EDGE_CURVE('',#63,#64,#65,.T.);
#60=EDGE_CURVE('',#64,#66,#67,.T.);
#61=EDGE_CURVE('',#66,#68,#69,.T.);
#62=EDGE_CURVE('',#68,#63,#70,.T.);
#63=VERTEX_POINT('',#71);
#64=VERTEX_POINT('',#72);
#65=LINE('',#73,#74);
#66=VERTEX_POINT('',#75);
#67=B_SPLINE_CURVE_WITH_KNOTS('',3,(#76,#77,#78,#79,#80,#81,#82,#83,#84,#85,#86),.UNSPECIFIED.,.F.,.F.,(4,1,1,1,1,1,1,1,4),(0.0,0.125046321359664,0.250092642719329,0.375138964078993,0.500185285438657,0.625231606798321,0.750277928157985,0.87532424951765,1.00037057087731),.UNSPECIFIED.);
#68=VERTEX_POINT('',#87);
#69=LINE('',#88,#89);
#70=B_SPLINE_CURVE_WITH_KNOTS('',3,(#90,#91,#92,#93,#94,#95,#96,#97,#98,#99,#100),.UNSPECIFIED.,.F.,.F.,(4,1,1,1,1,1,1,1,4),(0.0,0.125046322361169,0.250092644722339,0.375138967083508,0.500185289444677,0.625231611805847,0.750277934167016,0.875324256528185,1.00037057888935),.UNSPECIFIED.);
#71=CARTESIAN_POINT('',(0.988347232341766,-1.17922736535547E-05,-0.138274192810059));
#72=CARTESIAN_POINT('',(0.988347232341766,0.100011892616749,-0.138274222612381));
#73=CARTESIAN_POINT('',(0.988369584083557,0.0500000501715476,-0.138181209564209));
#74=VECTOR('',#101,1.0);
#75=CARTESIAN_POINT('',(-9.04635197631389E-34,0.100000001490116,-2.93002482106765E-34));
#76=CARTESIAN_POINT('',(0.988347232341766,0.100011892616749,-0.138274222612381));
#77=CARTESIAN_POINT('',(0.947885669011642,0.100013381542886,-0.12826123381686));
#78=CARTESIAN_POINT('',(0.866792590146127,0.100013749462069,-0.108918505586935));
#79=CARTESIAN_POINT('',(0.744555884237743,0.100016076430089,-0.0825207758546028));
#80=CARTESIAN_POINT('',(0.621719145377755,0.10001762154237,-0.0590637517905732));
#81=CARTESIAN_POINT('',(0.498289760608124,0.100020038541142,-0.0389391254760257));
#82=CARTESIAN_POINT('',(0.374310080464394,0.100019582726266,-0.022526374502692));
#83=CARTESIAN_POINT('',(0.249854888347641,0.100029631374978,-0.0101818384854006));
#84=CARTESIAN_POINT('',(0.125034657457736,0.100000126140299,-0.00235423762971279));
#85=CARTESIAN_POINT('',(0.0416817055192685,0.100080550382819,-0.000164288875745199));
#86=CARTESIAN_POINT('',(-9.04635197631389E-34,0.100000001490116,-2.93002482106765E-34));
#87=CARTESIAN_POINT('',(-9.04526097061953E-34,-8.93798884591235E-34,-2.92901692649732E-34));
#88=CARTESIAN_POINT('',(2.07937004318651E-31,0.0500000007450581,3.05139172915547E-32));
#89=VECTOR('',#102,1.0);
#90=CARTESIAN_POINT('',(-9.04526097061953E-34,-8.93798884591235E-34,-2.92901692649732E-34));
#91=CARTESIAN_POINT('',(0.0416817060458027,-8.0521503641112E-05,-0.000164253409296802));
#92=CARTESIAN_POINT('',(0.125034658952554,-1.51230777507222E-07,-0.00235417420014294));
#93=CARTESIAN_POINT('',(0.24985489683294,-2.96685380059458E-05,-0.0101817071354009));
#94=CARTESIAN_POINT('',(0.374310073313083,-1.95482890208032E-05,-0.0225263900790508));
#95=CARTESIAN_POINT('',(0.498289774932133,-2.00162294419134E-05,-0.0389389914042248));
#96=CARTESIAN_POINT('',(0.621719141464128,-1.75539464204308E-05,-0.0590637388642646));
#97=CARTESIAN_POINT('',(0.744555897071067,-1.59817033969329E-05,-0.0825206877171818));
#98=CARTESIAN_POINT('',(0.866792557886432,-1.36355293112133E-05,-0.108918606095433));
#99=CARTESIAN_POINT('',(0.947885755738052,-1.33100512773308E-05,-0.12826085218232));
#100=CARTESIAN_POINT('',(0.988347232341766,-1.17922736535547E-05,-0.138274192810059));
#101=DIRECTION('',(-5.41666405771022E-07,0.999999999999615,-6.90435962697799E-07));
#102=DIRECTION('',(-0.0,-1.0,-0.0));
ENDSEC;
END-ISO-10303-21;
