ISO-10303-21;
HEADER;
FILE_DESCRIPTION(('STEP AP214'),'1');
FILE_NAME('SMAStripDeformed_06.stp','2026-07-28T15:29:45',(' '),(' '),'Spatial InterOp 3D',' ',' ');
FILE_SCHEMA(('AUTOMOTIVE_DESIGN { 1 0 10303 214 1 1 1 1 }'));
ENDSEC;
DATA;
#1=PRODUCT_DEFINITION_CONTEXT('',#9,'design');
#2=APPLICATION_PROTOCOL_DEFINITION('INTERNATIONAL STANDARD','automotive_design',1994,#9);
#3=PRODUCT_CATEGORY_RELATIONSHIP('NONE','NONE',#10,#11);
#4=SHAPE_DEFINITION_REPRESENTATION(#12,#13);
#5= (GEOMETRIC_REPRESENTATION_CONTEXT(3)GLOBAL_UNCERTAINTY_ASSIGNED_CONTEXT((#16))GLOBAL_UNIT_ASSIGNED_CONTEXT((#18,#19,#20))REPRESENTATION_CONTEXT('NONE','WORKSPACE'));
#9=APPLICATION_CONTEXT(' ');
#10=PRODUCT_CATEGORY('part','NONE');
#11=PRODUCT_RELATED_PRODUCT_CATEGORY('detail',' ',(#22));
#12=PRODUCT_DEFINITION_SHAPE('NONE','NONE',#23);
#13=MANIFOLD_SURFACE_SHAPE_REPRESENTATION('1',(#24,#25),#5);
#16=UNCERTAINTY_MEASURE_WITH_UNIT(LENGTH_MEASURE(1.0E-06),#18,'','');
#18= (CONVERSION_BASED_UNIT('MILLIMETRE',#28)LENGTH_UNIT()NAMED_UNIT(#31));
#19= (NAMED_UNIT(#33)PLANE_ANGLE_UNIT()SI_UNIT($,.RADIAN.));
#20= (NAMED_UNIT(#33)SOLID_ANGLE_UNIT()SI_UNIT($,.STERADIAN.));
#22=PRODUCT('1','','PART--DESC',(#39));
#23=PRODUCT_DEFINITION('','NONE',#40,#1);
#24=SHELL_BASED_SURFACE_MODEL('1',(#41));
#25=AXIS2_PLACEMENT_3D('',#42,#43,#44);
#28=LENGTH_MEASURE_WITH_UNIT(LENGTH_MEASURE(1.0),#45);
#31=DIMENSIONAL_EXPONENTS(1.0,0.0,0.0,0.0,0.0,0.0,0.0);
#33=DIMENSIONAL_EXPONENTS(0.0,0.0,0.0,0.0,0.0,0.0,0.0);
#39=PRODUCT_CONTEXT('',#9,'mechanical');
#40=PRODUCT_DEFINITION_FORMATION_WITH_SPECIFIED_SOURCE(' ','NONE',#22,.NOT_KNOWN.);
#41=CLOSED_SHELL('',(#46));
#42=CARTESIAN_POINT('',(0.0,0.0,0.0));
#43=DIRECTION('',(0.0,0.0,1.0));
#44=DIRECTION('',(1.0,0.0,0.0));
#45= (NAMED_UNIT(#31)LENGTH_UNIT()SI_UNIT(.MILLI.,.METRE.));
#46=FACE_SURFACE('',(#48),#49,.T.);
#48=FACE_BOUND('',#50,.T.);
#49=CYLINDRICAL_SURFACE('',#51,3.78299586769145);
#50=EDGE_LOOP('',(#52,#53,#54,#55));
#51=AXIS2_PLACEMENT_3D('',#56,#57,#58);
#52=ORIENTED_EDGE('',*,*,#59,.T.);
#53=ORIENTED_EDGE('',*,*,#60,.T.);
#54=ORIENTED_EDGE('',*,*,#61,.T.);
#55=ORIENTED_EDGE('',*,*,#62,.T.);
#56=CARTESIAN_POINT('',(-0.183084989908923,6.02334861673636E-05,-3.7749042372607));
#57=DIRECTION('',(0.000117130072515216,-0.99999999290619,-2.16371632186829E-05));
#58=DIRECTION('',(0.0,-2.1637163367108E-05,0.999999999765917));
#59=EDGE_CURVE('',#63,#64,#65,.T.);
#60=EDGE_CURVE('',#64,#66,#67,.T.);
#61=EDGE_CURVE('',#66,#68,#69,.T.);
#62=EDGE_CURVE('',#68,#63,#70,.T.);
#63=VERTEX_POINT('',#71);
#64=VERTEX_POINT('',#72);
#65=CIRCLE('',#73,17.0506828061288);
#66=VERTEX_POINT('',#74);
#67=B_SPLINE_CURVE_WITH_KNOTS('',3,(#75,#76,#77,#78,#79,#80,#81,#82,#83,#84,#85),.UNSPECIFIED.,.F.,.F.,(4,1,1,1,1,1,1,1,4),(0.0,0.125049617787537,0.250099235575074,0.375148853362611,0.500198471150148,0.625248088937684,0.750297706725221,0.875347324512758,1.0003969423003),.UNSPECIFIED.);
#68=VERTEX_POINT('',#86);
#69=LINE('',#87,#88);
#70=B_SPLINE_CURVE_WITH_KNOTS('',3,(#89,#90,#91,#92,#93,#94,#95,#96,#97,#98,#99),.UNSPECIFIED.,.F.,.F.,(4,1,1,1,1,1,1,1,4),(0.0,0.125049626037328,0.250099252074657,0.375148878111985,0.500198504149313,0.625248130186641,0.75029775622397,0.875347382261298,1.00039700829863),.UNSPECIFIED.);
#71=CARTESIAN_POINT('',(0.982419788837433,-3.61936145054642E-06,-0.17217917740345));
#72=CARTESIAN_POINT('',(0.982419729232788,0.100004300475121,-0.172179132699966));
#73=AXIS2_PLACEMENT_3D('',#100,#101,#102);
#74=CARTESIAN_POINT('',(-1.45880951969908E-33,0.100000001490116,-4.66035893396279E-34));
#75=CARTESIAN_POINT('',(0.982419729232788,0.100004300475121,-0.172179132699966));
#76=CARTESIAN_POINT('',(0.942227502097346,0.100005398935093,-0.16113039823756));
#77=CARTESIAN_POINT('',(0.861783461392346,0.100008383751899,-0.139247970000576));
#78=CARTESIAN_POINT('',(0.740726906962905,0.100013068346272,-0.107884727521761));
#79=CARTESIAN_POINT('',(0.619087284967719,0.100017193177886,-0.0788470724651146));
#80=CARTESIAN_POINT('',(0.496723577678992,0.100022296000442,-0.0530010366377297));
#81=CARTESIAN_POINT('',(0.373564235363542,0.100023064014209,-0.0312248460424686));
#82=CARTESIAN_POINT('',(0.249625330153693,0.100039137800537,-0.0143600370123215));
#83=CARTESIAN_POINT('',(0.125024480733057,0.0999976542296982,-0.00337814690284768));
#84=CARTESIAN_POINT('',(0.0416823851236357,0.100115557829053,-0.000234677804197308));
#85=CARTESIAN_POINT('',(-1.45880951969908E-33,0.100000001490116,-4.66035893396279E-34));
#86=CARTESIAN_POINT('',(-1.45900944557421E-33,-1.4321858583499E-33,-4.66144993965715E-34));
#87=CARTESIAN_POINT('',(5.78588193627277E-31,0.0500000007450581,8.92494791158432E-32));
#88=VECTOR('',#103,1.0);
#89=CARTESIAN_POINT('',(-1.45900944557421E-33,-1.4321858583499E-33,-4.66144993965715E-34));
#90=CARTESIAN_POINT('',(0.0416823874440149,-0.000115595521789144,-0.000234734804734023));
#91=CARTESIAN_POINT('',(0.125024489205271,2.36270186330854E-06,-0.00337818940549155));
#92=CARTESIAN_POINT('',(0.249625353281172,-3.91760920224286E-05,-0.014360005550731));
#93=CARTESIAN_POINT('',(0.373564283958957,-2.30724975587567E-05,-0.0312246951057678));
#94=CARTESIAN_POINT('',(0.496723594947723,-2.21044415752955E-05,-0.0530011435783609));
#95=CARTESIAN_POINT('',(0.61908730276609,-1.69063448349094E-05,-0.0788471900062178));
#96=CARTESIAN_POINT('',(0.740726994120476,-1.27302282102444E-05,-0.107884591111723));
#97=CARTESIAN_POINT('',(0.861783492424806,-7.82637179944535E-06,-0.139248094751136));
#98=CARTESIAN_POINT('',(0.942227553478863,-4.7560417953724E-06,-0.161130462483812));
#99=CARTESIAN_POINT('',(0.982419788837433,-3.61936145054642E-06,-0.17217917740345));
#100=CARTESIAN_POINT('',(0.98242574750738,0.0500061537010362,-17.222788995492));
#101=DIRECTION('',(-0.999999999999793,-6.07535924652512E-07,2.11597373890737E-07));
#102=DIRECTION('',(6.07535924652525E-07,-0.999999999999815,2.10231988097881E-29));
#103=DIRECTION('',(-0.0,-1.0,-0.0));
ENDSEC;
END-ISO-10303-21;
