ISO-10303-21;
HEADER;
FILE_DESCRIPTION(('STEP AP214'),'1');
FILE_NAME('SMAStripDeformed_02.stp','2026-05-05T02:10:13',(' '),(' '),'Spatial InterOp 3D',' ',' ');
FILE_SCHEMA(('AUTOMOTIVE_DESIGN { 1 0 10303 214 1 1 1 1 }'));
ENDSEC;
DATA;
#1=PRODUCT_DEFINITION_CONTEXT('',#9,'design');
#2=APPLICATION_PROTOCOL_DEFINITION('INTERNATIONAL STANDARD','automotive_design',1994,#9);
#3=PRODUCT_CATEGORY_RELATIONSHIP('NONE','NONE',#10,#11);
#4=SHAPE_DEFINITION_REPRESENTATION(#12,#13);
#5= (GEOMETRIC_REPRESENTATION_CONTEXT(3)GLOBAL_UNCERTAINTY_ASSIGNED_CONTEXT((#16))GLOBAL_UNIT_ASSIGNED_CONTEXT((#18,#19,#20))REPRESENTATION_CONTEXT('NONE','WORKSPACE'));
#9=APPLICATION_CONTEXT(' ');
#10=PRODUCT_CATEGORY('part','NONE');
#11=PRODUCT_RELATED_PRODUCT_CATEGORY('detail',' ',(#22));
#12=PRODUCT_DEFINITION_SHAPE('NONE','NONE',#23);
#13=MANIFOLD_SURFACE_SHAPE_REPRESENTATION('1',(#24,#25),#5);
#16=UNCERTAINTY_MEASURE_WITH_UNIT(LENGTH_MEASURE(1.0E-06),#18,'','');
#18= (CONVERSION_BASED_UNIT('MILLIMETRE',#28)LENGTH_UNIT()NAMED_UNIT(#31));
#19= (NAMED_UNIT(#33)PLANE_ANGLE_UNIT()SI_UNIT($,.RADIAN.));
#20= (NAMED_UNIT(#33)SOLID_ANGLE_UNIT()SI_UNIT($,.STERADIAN.));
#22=PRODUCT('1','','PART--DESC',(#39));
#23=PRODUCT_DEFINITION('','NONE',#40,#1);
#24=SHELL_BASED_SURFACE_MODEL('1',(#41));
#25=AXIS2_PLACEMENT_3D('',#42,#43,#44);
#28=LENGTH_MEASURE_WITH_UNIT(LENGTH_MEASURE(1.0),#45);
#31=DIMENSIONAL_EXPONENTS(1.0,0.0,0.0,0.0,0.0,0.0,0.0);
#33=DIMENSIONAL_EXPONENTS(0.0,0.0,0.0,0.0,0.0,0.0,0.0);
#39=PRODUCT_CONTEXT('',#9,'mechanical');
#40=PRODUCT_DEFINITION_FORMATION_WITH_SPECIFIED_SOURCE(' ','NONE',#22,.NOT_KNOWN.);
#41=CLOSED_SHELL('',(#46));
#42=CARTESIAN_POINT('',(0.0,0.0,0.0));
#43=DIRECTION('',(0.0,0.0,1.0));
#44=DIRECTION('',(1.0,0.0,0.0));
#45= (NAMED_UNIT(#31)LENGTH_UNIT()SI_UNIT(.MILLI.,.METRE.));
#46=FACE_SURFACE('',(#48),#49,.T.);
#48=FACE_BOUND('',#50,.T.);
#49=CYLINDRICAL_SURFACE('',#51,2.02690572349986);
#50=EDGE_LOOP('',(#52,#53,#54,#55,#56));
#51=AXIS2_PLACEMENT_3D('',#57,#58,#59);
#52=ORIENTED_EDGE('',*,*,#60,.T.);
#53=ORIENTED_EDGE('',*,*,#61,.T.);
#54=ORIENTED_EDGE('',*,*,#62,.T.);
#55=ORIENTED_EDGE('',*,*,#63,.T.);
#56=ORIENTED_EDGE('',*,*,#64,.T.);
#57=CARTESIAN_POINT('',(-0.0430065541725021,-2.14931447994968E-05,-2.02512252704297));
#58=DIRECTION('',(-2.6187174763625E-05,-0.999999999594738,1.11694118550479E-05));
#59=DIRECTION('',(0.0,1.11694118588777E-05,0.999999999937622));
#60=EDGE_CURVE('',#65,#66,#67,.T.);
#61=EDGE_CURVE('',#66,#68,#69,.T.);
#62=EDGE_CURVE('',#68,#70,#71,.T.);
#63=EDGE_CURVE('',#70,#72,#73,.T.);
#64=EDGE_CURVE('',#72,#65,#74,.T.);
#65=VERTEX_POINT('',#75);
#66=VERTEX_POINT('',#76);
#67=B_SPLINE_CURVE_WITH_KNOTS('',3,(#77,#78,#79,#80,#81,#82,#83,#84,#85,#86,#87,#88),.UNSPECIFIED.,.F.,.F.,(4,1,1,1,1,1,1,1,1,4),(0.0,0.125083927901872,0.250167855803743,0.375251783705615,0.500335711607487,0.625419639509359,0.75050356741123,0.875587495313102,0.938129459264038,1.00067142321497),.UNSPECIFIED.);
#68=VERTEX_POINT('',#89);
#69=LINE('',#90,#91);
#70=VERTEX_POINT('',#92);
#71=LINE('',#93,#94);
#72=VERTEX_POINT('',#95);
#73=B_SPLINE_CURVE_WITH_KNOTS('',3,(#96,#97,#98,#99,#100,#101,#102,#103,#104,#105,#106),.UNSPECIFIED.,.F.,.F.,(4,1,1,1,1,1,1,1,4),(0.0,0.125084092622797,0.250168185245593,0.37525227786839,0.500336370491187,0.625420463113983,0.75050455573678,0.875588648359577,1.00067274098237),.UNSPECIFIED.);
#74=LINE('',#107,#108);
#75=CARTESIAN_POINT('',(0.955785691738129,0.100021779537201,-0.26027125120163));
#76=CARTESIAN_POINT('',(-1.66067526758882E-36,0.100011207163334,5.82577897480127E-38));
#77=CARTESIAN_POINT('',(0.955785691738129,0.100021779537201,-0.26027125120163));
#78=CARTESIAN_POINT('',(0.919165461127606,0.100027958407522,-0.240336309610868));
#79=CARTESIAN_POINT('',(0.844960971223755,0.100029011607277,-0.202229370788741));
#80=CARTESIAN_POINT('',(0.730638687783551,0.100035753554764,-0.151345458783255));
#81=CARTESIAN_POINT('',(0.613617307622038,0.100038986777731,-0.107017575067458));
#82=CARTESIAN_POINT('',(0.494164888264458,0.100040933767512,-0.0697131679605781));
#83=CARTESIAN_POINT('',(0.372637007699745,0.100041503519719,-0.0398425511578893));
#84=CARTESIAN_POINT('',(0.249443023280529,0.100039028289914,-0.0177904343243402));
#85=CARTESIAN_POINT('',(0.145785717849066,0.100040164395743,-0.00629362845924942));
#86=CARTESIAN_POINT('',(0.0625330185693487,0.100031369372252,-0.00126186035488119));
#87=CARTESIAN_POINT('',(0.020844994617247,0.100046710437651,-0.000309426918365903));
#88=CARTESIAN_POINT('',(-1.66067526758882E-36,0.100011207163334,5.82577897480127E-38));
#89=CARTESIAN_POINT('',(-2.00469890248088E-33,0.0100011210888624,2.98148598928348E-34));
#90=CARTESIAN_POINT('',(4.04762010580469E-34,0.0550061641260982,8.11054597457656E-35));
#91=VECTOR('',#109,1.0);
#92=CARTESIAN_POINT('',(-2.0124019783907E-07,-1.12057687147171E-05,-5.57948878849857E-05));
#93=CARTESIAN_POINT('',(-1.00620098919535E-07,0.00499495766007385,-2.78974439424928E-05));
#94=VECTOR('',#110,1.0);
#95=CARTESIAN_POINT('',(0.955787360668182,-2.14936771953944E-05,-0.260271579027176));
#96=CARTESIAN_POINT('',(-2.0124019783907E-07,-1.12057687147171E-05,-5.57948878849857E-05));
#97=CARTESIAN_POINT('',(0.0416931732741254,-8.19279164126814E-05,-0.000380329964609056));
#98=CARTESIAN_POINT('',(0.125054896332202,-1.53657563355941E-05,-0.00398034059805889));
#99=CARTESIAN_POINT('',(0.249443846040053,-4.54333160167028E-05,-0.0177938670006373));
#100=CARTESIAN_POINT('',(0.372637979236475,-3.93305654311531E-05,-0.0398414171861143));
#101=CARTESIAN_POINT('',(0.494166010514838,-4.09528153669528E-05,-0.069713354393964));
#102=CARTESIAN_POINT('',(0.613618586271174,-3.83555945529495E-05,-0.107017487074311));
#103=CARTESIAN_POINT('',(0.730640080889059,-3.52959401584592E-05,-0.15134561170954));
#104=CARTESIAN_POINT('',(0.844962566609427,-2.8610482334674E-05,-0.202229474724395));
#105=CARTESIAN_POINT('',(0.919166970616545,-2.76100785121054E-05,-0.240336815469877));
#106=CARTESIAN_POINT('',(0.955787360668182,-2.14936771953944E-05,-0.260271579027176));
#107=CARTESIAN_POINT('',(0.955865353345871,0.0500001429300028,-0.260121956467628));
#108=VECTOR('',#111,1.0);
#109=DIRECTION('',(-0.0,-1.0,-0.0));
#110=DIRECTION('',(-2.00989316537833E-05,-0.999984473115599,-0.00557253297438921));
#111=DIRECTION('',(-7.97353214065733E-06,0.999999999968188,-2.15894840459646E-07));
ENDSEC;
END-ISO-10303-21;
