ISO-10303-21;
HEADER;
FILE_DESCRIPTION(('STEP AP214'),'1');
FILE_NAME('SMAStripDeformed_Comparison.stp','2026-05-05T01:14:14',(' '),(' '),'Spatial InterOp 3D',' ',' ');
FILE_SCHEMA(('AUTOMOTIVE_DESIGN { 1 0 10303 214 1 1 1 1 }'));
ENDSEC;
DATA;
#1=PRODUCT_DEFINITION_CONTEXT('',#9,'design');
#2=APPLICATION_PROTOCOL_DEFINITION('INTERNATIONAL STANDARD','automotive_design',1994,#9);
#3=PRODUCT_CATEGORY_RELATIONSHIP('NONE','NONE',#10,#11);
#4=SHAPE_DEFINITION_REPRESENTATION(#12,#13);
#5= (GEOMETRIC_REPRESENTATION_CONTEXT(3)GLOBAL_UNCERTAINTY_ASSIGNED_CONTEXT((#16))GLOBAL_UNIT_ASSIGNED_CONTEXT((#18,#19,#20))REPRESENTATION_CONTEXT('NONE','WORKSPACE'));
#9=APPLICATION_CONTEXT(' ');
#10=PRODUCT_CATEGORY('part','NONE');
#11=PRODUCT_RELATED_PRODUCT_CATEGORY('detail',' ',(#22));
#12=PRODUCT_DEFINITION_SHAPE('NONE','NONE',#23);
#13=MANIFOLD_SURFACE_SHAPE_REPRESENTATION('1',(#24,#25),#5);
#16=UNCERTAINTY_MEASURE_WITH_UNIT(LENGTH_MEASURE(1.0E-06),#18,'','');
#18= (CONVERSION_BASED_UNIT('MILLIMETRE',#28)LENGTH_UNIT()NAMED_UNIT(#31));
#19= (NAMED_UNIT(#33)PLANE_ANGLE_UNIT()SI_UNIT($,.RADIAN.));
#20= (NAMED_UNIT(#33)SOLID_ANGLE_UNIT()SI_UNIT($,.STERADIAN.));
#22=PRODUCT('1','','PART--DESC',(#39));
#23=PRODUCT_DEFINITION('','NONE',#40,#1);
#24=SHELL_BASED_SURFACE_MODEL('1',(#41));
#25=AXIS2_PLACEMENT_3D('',#42,#43,#44);
#28=LENGTH_MEASURE_WITH_UNIT(LENGTH_MEASURE(1.0),#45);
#31=DIMENSIONAL_EXPONENTS(1.0,0.0,0.0,0.0,0.0,0.0,0.0);
#33=DIMENSIONAL_EXPONENTS(0.0,0.0,0.0,0.0,0.0,0.0,0.0);
#39=PRODUCT_CONTEXT('',#9,'mechanical');
#40=PRODUCT_DEFINITION_FORMATION_WITH_SPECIFIED_SOURCE(' ','NONE',#22,.NOT_KNOWN.);
#41=CLOSED_SHELL('',(#46));
#42=CARTESIAN_POINT('',(0.0,0.0,0.0));
#43=DIRECTION('',(0.0,0.0,1.0));
#44=DIRECTION('',(1.0,0.0,0.0));
#45= (NAMED_UNIT(#31)LENGTH_UNIT()SI_UNIT(.MILLI.,.METRE.));
#46=FACE_SURFACE('',(#48),#49,.T.);
#48=FACE_BOUND('',#50,.T.);
#49=PLANE('',#51);
#50=EDGE_LOOP('',(#52,#53,#54,#55));
#51=AXIS2_PLACEMENT_3D('',#56,#57,#58);
#52=ORIENTED_EDGE('',*,*,#59,.T.);
#53=ORIENTED_EDGE('',*,*,#60,.T.);
#54=ORIENTED_EDGE('',*,*,#61,.T.);
#55=ORIENTED_EDGE('',*,*,#62,.T.);
#56=CARTESIAN_POINT('',(0.497134208679199,0.0500000003339096,0.0535284541547298));
#57=DIRECTION('',(-0.107041247767657,1.3539088575002E-09,0.994254580716802));
#58=DIRECTION('',(0.994254580716802,-0.0,0.107041247767657));
#59=EDGE_CURVE('',#63,#64,#65,.T.);
#60=EDGE_CURVE('',#64,#66,#67,.T.);
#61=EDGE_CURVE('',#66,#68,#69,.T.);
#62=EDGE_CURVE('',#68,#63,#70,.T.);
#63=VERTEX_POINT('',#71);
#64=VERTEX_POINT('',#72);
#65=LINE('',#73,#74);
#66=VERTEX_POINT('',#75);
#67=CIRCLE('',#76,48.8997083369017);
#68=VERTEX_POINT('',#77);
#69=LINE('',#78,#79);
#70=CIRCLE('',#80,48.8997083372378);
#71=CARTESIAN_POINT('',(0.994268417358398,-1.50627056427766E-06,0.107032455503941));
#72=CARTESIAN_POINT('',(0.994268417358398,0.100001506507397,0.107032455503941));
#73=CARTESIAN_POINT('',(0.994267225265503,0.0500000001184162,0.1070446819067));
#74=VECTOR('',#81,1.0);
#75=CARTESIAN_POINT('',(-2.53159488631438E-32,0.100000001490116,-2.43702111280034E-33));
#76=AXIS2_PLACEMENT_3D('',#82,#83,#84);
#77=CARTESIAN_POINT('',(-2.53159459244079E-32,-7.75345127011239E-33,-2.43702074545836E-33));
#78=CARTESIAN_POINT('',(-2.51400772758455E-32,0.0500000007450581,-2.37380780205892E-33));
#79=VECTOR('',#85,1.0);
#80=AXIS2_PLACEMENT_3D('',#86,#87,#88);
#81=DIRECTION('',(0.0,1.0,0.0));
#82=CARTESIAN_POINT('',(5.7309777380861,0.0831458770499756,-48.5627188325732));
#83=DIRECTION('',(-3.67122971002453E-05,-0.999999940590346,0.000342741172521604));
#84=DIRECTION('',(-2.60474697305182E-24,0.000342741172752576,0.999999941264243));
#85=DIRECTION('',(-0.0,-1.0,-0.0));
#86=CARTESIAN_POINT('',(5.73097773842554,0.0168459765297866,-48.5627188356988));
#87=DIRECTION('',(-3.66941997775333E-05,0.999999940647768,0.000342575532786814));
#88=DIRECTION('',(0.0,0.000342575533017447,-0.999999941321));
ENDSEC;
END-ISO-10303-21;
