ISO-10303-21;
HEADER;
FILE_DESCRIPTION(('STEP AP214'),'1');
FILE_NAME('SMAStripDeformed_03.stp','2026-05-05T01:09:52',(' '),(' '),'Spatial InterOp 3D',' ',' ');
FILE_SCHEMA(('AUTOMOTIVE_DESIGN { 1 0 10303 214 1 1 1 1 }'));
ENDSEC;
DATA;
#1=PRODUCT_DEFINITION_CONTEXT('',#9,'design');
#2=APPLICATION_PROTOCOL_DEFINITION('INTERNATIONAL STANDARD','automotive_design',1994,#9);
#3=PRODUCT_CATEGORY_RELATIONSHIP('NONE','NONE',#10,#11);
#4=SHAPE_DEFINITION_REPRESENTATION(#12,#13);
#5= (GEOMETRIC_REPRESENTATION_CONTEXT(3)GLOBAL_UNCERTAINTY_ASSIGNED_CONTEXT((#16))GLOBAL_UNIT_ASSIGNED_CONTEXT((#18,#19,#20))REPRESENTATION_CONTEXT('NONE','WORKSPACE'));
#9=APPLICATION_CONTEXT(' ');
#10=PRODUCT_CATEGORY('part','NONE');
#11=PRODUCT_RELATED_PRODUCT_CATEGORY('detail',' ',(#22));
#12=PRODUCT_DEFINITION_SHAPE('NONE','NONE',#23);
#13=MANIFOLD_SURFACE_SHAPE_REPRESENTATION('1',(#24,#25),#5);
#16=UNCERTAINTY_MEASURE_WITH_UNIT(LENGTH_MEASURE(1.0E-06),#18,'','');
#18= (CONVERSION_BASED_UNIT('MILLIMETRE',#28)LENGTH_UNIT()NAMED_UNIT(#31));
#19= (NAMED_UNIT(#33)PLANE_ANGLE_UNIT()SI_UNIT($,.RADIAN.));
#20= (NAMED_UNIT(#33)SOLID_ANGLE_UNIT()SI_UNIT($,.STERADIAN.));
#22=PRODUCT('1','','PART--DESC',(#39));
#23=PRODUCT_DEFINITION('','NONE',#40,#1);
#24=SHELL_BASED_SURFACE_MODEL('1',(#41));
#25=AXIS2_PLACEMENT_3D('',#42,#43,#44);
#28=LENGTH_MEASURE_WITH_UNIT(LENGTH_MEASURE(1.0),#45);
#31=DIMENSIONAL_EXPONENTS(1.0,0.0,0.0,0.0,0.0,0.0,0.0);
#33=DIMENSIONAL_EXPONENTS(0.0,0.0,0.0,0.0,0.0,0.0,0.0);
#39=PRODUCT_CONTEXT('',#9,'mechanical');
#40=PRODUCT_DEFINITION_FORMATION_WITH_SPECIFIED_SOURCE(' ','NONE',#22,.NOT_KNOWN.);
#41=CLOSED_SHELL('',(#46));
#42=CARTESIAN_POINT('',(0.0,0.0,0.0));
#43=DIRECTION('',(0.0,0.0,1.0));
#44=DIRECTION('',(1.0,0.0,0.0));
#45= (NAMED_UNIT(#31)LENGTH_UNIT()SI_UNIT(.MILLI.,.METRE.));
#46=FACE_SURFACE('',(#48),#49,.T.);
#48=FACE_BOUND('',#50,.T.);
#49=CYLINDRICAL_SURFACE('',#51,1.56938812687745);
#50=EDGE_LOOP('',(#52,#53,#54,#55,#56));
#51=AXIS2_PLACEMENT_3D('',#57,#58,#59);
#52=ORIENTED_EDGE('',*,*,#60,.T.);
#53=ORIENTED_EDGE('',*,*,#61,.T.);
#54=ORIENTED_EDGE('',*,*,#62,.T.);
#55=ORIENTED_EDGE('',*,*,#63,.T.);
#56=ORIENTED_EDGE('',*,*,#64,.T.);
#57=CARTESIAN_POINT('',(-0.0794417130312792,-0.000875820484586774,-1.56382717454206));
#58=DIRECTION('',(0.0015150569492064,0.999998649407616,-0.000637012860082235));
#59=DIRECTION('',(2.09333562251056E-22,-0.000637013591182376,-0.999999797106822));
#60=EDGE_CURVE('',#65,#66,#67,.T.);
#61=EDGE_CURVE('',#66,#68,#69,.T.);
#62=EDGE_CURVE('',#68,#70,#71,.T.);
#63=EDGE_CURVE('',#70,#72,#73,.T.);
#64=EDGE_CURVE('',#72,#65,#74,.T.);
#65=VERTEX_POINT('',#75);
#66=VERTEX_POINT('',#76);
#67=LINE('',#77,#78);
#68=VERTEX_POINT('',#79);
#69=LINE('',#80,#81);
#70=VERTEX_POINT('',#82);
#71=B_SPLINE_CURVE_WITH_KNOTS('',3,(#83,#84,#85,#86,#87,#88,#89,#90,#91,#92,#93,#94,#95,#96,#97,#98,#99,#100,#101),.UNSPECIFIED.,.F.,.F.,(4,1,1,1,1,1,1,1,1,1,1,1,1,1,1,1,4),(0.0,0.125130864298245,0.25026172859649,0.375392592894735,0.50052345719298,0.625654321491225,0.688219753640347,0.75078518578947,0.813350617938592,0.875916050087715,0.907198766162276,0.938481482236837,0.969764198311399,0.977584877330039,0.985405556348679,0.99322623536732,1.00104691438596),.UNSPECIFIED.);
#72=VERTEX_POINT('',#102);
#73=LINE('',#103,#104);
#74=B_SPLINE_CURVE_WITH_KNOTS('',3,(#105,#106,#107,#108,#109,#110,#111,#112,#113,#114,#115,#116,#117,#118,#119,#120,#121,#122,#123,#124,#125,#126,#127,#128,#129,#130,#131),.UNSPECIFIED.,.F.,.F.,(4,1,1,1,1,1,1,1,1,1,1,1,1,1,1,1,1,1,1,1,1,1,1,1,4),(0.0,0.00782131872322893,0.0156426374464579,0.0234639561696868,0.0312852748929157,0.0625705497858315,0.0938558246787472,0.125141099571663,0.187711649357494,0.250282199143326,0.312852748929157,0.375423298714989,0.500564398286652,0.625705497858315,0.688276047644146,0.750846597429977,0.813417147215809,0.87598769700164,0.907272971894556,0.938558246787472,0.969843521680388,0.977664840403617,0.985486159126845,0.993307477850074,1.0011287965733),.UNSPECIFIED.);
#75=CARTESIAN_POINT('',(-1.23251926136581E-36,0.100011207163334,1.57198603400526E-37));
#76=CARTESIAN_POINT('',(-2.70568080585826E-34,0.00999103579670191,-3.32161390216147E-34));
#77=CARTESIAN_POINT('',(2.41725260389737E-35,0.0550011214800179,6.536433912962E-35));
#78=VECTOR('',#132,1.0);
#79=CARTESIAN_POINT('',(2.91431879304582E-05,-1.11903564175009E-05,0.0013262388529256));
#80=CARTESIAN_POINT('',(1.45715939652291E-05,0.0049899227201422,0.000663119426462799));
#81=VECTOR('',#133,1.0);
#82=CARTESIAN_POINT('',(0.919869899749756,-1.21123648568755E-05,-0.349404484033585));
#83=CARTESIAN_POINT('',(2.91431879304582E-05,-1.11903564175009E-05,0.0013262388529256));
#84=CARTESIAN_POINT('',(0.0417253319553043,-0.000155319576487939,0.000251435438504089));
#85=CARTESIAN_POINT('',(0.125015174468074,-1.30450734981429E-05,-0.0058206449072519));
#86=CARTESIAN_POINT('',(0.248585360176367,-7.04198385810626E-05,-0.0263130307244098));
#87=CARTESIAN_POINT('',(0.369858909356489,-5.3319906852191E-05,-0.0576121562066929));
#88=CARTESIAN_POINT('',(0.488068464397928,-5.32043245785934E-05,-0.0989712302315336));
#89=CARTESIAN_POINT('',(0.583506483997214,-4.66697669236461E-05,-0.141177510416434));
#90=CARTESIAN_POINT('',(0.657779973250047,-4.13297533046163E-05,-0.179188111504666));
#91=CARTESIAN_POINT('',(0.712402795091293,-3.65899345809628E-05,-0.209718181889369));
#92=CARTESIAN_POINT('',(0.765902554375443,-3.07569154226323E-05,-0.242174336217705));
#93=CARTESIAN_POINT('',(0.809531874245268,-2.6070704075328E-05,-0.27073378862788));
#94=CARTESIAN_POINT('',(0.843835377826494,-2.25721755889019E-05,-0.294464525430654));
#95=CARTESIAN_POINT('',(0.869300265881469,-1.91129975046101E-05,-0.312634577106588));
#96=CARTESIAN_POINT('',(0.888085260475163,-1.6726652618385E-05,-0.326701557520035));
#97=CARTESIAN_POINT('',(0.900657760697627,-1.49649803887181E-05,-0.335994812140649));
#98=CARTESIAN_POINT('',(0.906768123558164,-1.37985576511112E-05,-0.340897175379747));
#99=CARTESIAN_POINT('',(0.91303039110262,-1.26809442051185E-05,-0.345568084059799));
#100=CARTESIAN_POINT('',(0.917601624934642,-1.2308096673687E-05,-0.348119641447641));
#101=CARTESIAN_POINT('',(0.919869899749756,-1.21123648568755E-05,-0.349404484033585));
#102=CARTESIAN_POINT('',(0.919872045516968,0.100033104419708,-0.349399089813232));
#103=CARTESIAN_POINT('',(0.919875800609589,0.0500104960274257,-0.349395588040352));
#104=VECTOR('',#134,1.0);
#105=CARTESIAN_POINT('',(0.919872045516968,0.100033104419708,-0.349399089813232));
#106=CARTESIAN_POINT('',(0.91760388444174,0.100033289340422,-0.348113613926689));
#107=CARTESIAN_POINT('',(0.913032893525381,0.100033641853952,-0.345560789351481));
#108=CARTESIAN_POINT('',(0.90677124712554,0.100034678406865,-0.340887924983245));
#109=CARTESIAN_POINT('',(0.900660891484761,0.100035734611578,-0.335984582917278));
#110=CARTESIAN_POINT('',(0.888088456903463,0.100037239836663,-0.32668905867565));
#111=CARTESIAN_POINT('',(0.869302768668003,0.100039021792305,-0.312619807184347));
#112=CARTESIAN_POINT('',(0.84383347630402,0.100040088716261,-0.294451479412389));
#113=CARTESIAN_POINT('',(0.809525403966574,0.100041184844031,-0.270721383650801));
#114=CARTESIAN_POINT('',(0.765892324504525,0.10004328086134,-0.242159914997764));
#115=CARTESIAN_POINT('',(0.712387739419064,0.10004621057457,-0.209701828618822));
#116=CARTESIAN_POINT('',(0.657760050726439,0.100048379771015,-0.179169989139737));
#117=CARTESIAN_POINT('',(0.583479811330751,0.100050671000657,-0.141157538909047));
#118=CARTESIAN_POINT('',(0.488033171107286,0.100053065103291,-0.0989500130856638));
#119=CARTESIAN_POINT('',(0.389515575330957,0.10005478647365,-0.0644840595499135));
#120=CARTESIAN_POINT('',(0.309170811465895,0.100054969320627,-0.0419429681722261));
#121=CARTESIAN_POINT('',(0.24824031060173,0.100055332720216,-0.0276466269904716));
#122=CARTESIAN_POINT('',(0.186738237759764,0.100056935709383,-0.0160443124907385));
#123=CARTESIAN_POINT('',(0.135103079738402,0.100056542206675,-0.00870516203689551));
#124=CARTESIAN_POINT('',(0.0936241809451995,0.100055140006897,-0.00423334486495805));
#125=CARTESIAN_POINT('',(0.0624491706676493,0.100055650337463,-0.00166580467104055));
#126=CARTESIAN_POINT('',(0.0390211511921265,0.100065038055463,-7.7174110113146E-05));
#127=CARTESIAN_POINT('',(0.0234033081461435,0.100053032543702,0.000457346925631388));
#128=CARTESIAN_POINT('',(0.0155783333380835,0.10004750473018,0.00101281750337939));
#129=CARTESIAN_POINT('',(0.00777158749033007,0.100036680664688,0.00114424078968087));
#130=CARTESIAN_POINT('',(0.0025811835403927,0.100019514077407,0.000366640802753226));
#131=CARTESIAN_POINT('',(-1.23251926136581E-36,0.100011207163334,1.57198603400526E-37));
#132=DIRECTION('',(-0.0,-1.0,-0.0));
#133=DIRECTION('',(0.00288837796988296,-0.991319471960151,0.131443378628788));
#134=DIRECTION('',(2.52390107834732E-05,0.99999948386656,0.00101569168848065));
ENDSEC;
END-ISO-10303-21;
