ISO-10303-21;
HEADER;
FILE_DESCRIPTION(('STEP AP214'),'1');
FILE_NAME('SMAStripDeformed_05.stp','2026-05-05T01:12:08',(' '),(' '),'Spatial InterOp 3D',' ',' ');
FILE_SCHEMA(('AUTOMOTIVE_DESIGN { 1 0 10303 214 1 1 1 1 }'));
ENDSEC;
DATA;
#1=PRODUCT_DEFINITION_CONTEXT('',#9,'design');
#2=APPLICATION_PROTOCOL_DEFINITION('INTERNATIONAL STANDARD','automotive_design',1994,#9);
#3=PRODUCT_CATEGORY_RELATIONSHIP('NONE','NONE',#10,#11);
#4=SHAPE_DEFINITION_REPRESENTATION(#12,#13);
#5= (GEOMETRIC_REPRESENTATION_CONTEXT(3)GLOBAL_UNCERTAINTY_ASSIGNED_CONTEXT((#16))GLOBAL_UNIT_ASSIGNED_CONTEXT((#18,#19,#20))REPRESENTATION_CONTEXT('NONE','WORKSPACE'));
#9=APPLICATION_CONTEXT(' ');
#10=PRODUCT_CATEGORY('part','NONE');
#11=PRODUCT_RELATED_PRODUCT_CATEGORY('detail',' ',(#22));
#12=PRODUCT_DEFINITION_SHAPE('NONE','NONE',#23);
#13=MANIFOLD_SURFACE_SHAPE_REPRESENTATION('1',(#24,#25),#5);
#16=UNCERTAINTY_MEASURE_WITH_UNIT(LENGTH_MEASURE(1.0E-06),#18,'','');
#18= (CONVERSION_BASED_UNIT('MILLIMETRE',#28)LENGTH_UNIT()NAMED_UNIT(#31));
#19= (NAMED_UNIT(#33)PLANE_ANGLE_UNIT()SI_UNIT($,.RADIAN.));
#20= (NAMED_UNIT(#33)SOLID_ANGLE_UNIT()SI_UNIT($,.STERADIAN.));
#22=PRODUCT('1','','PART--DESC',(#39));
#23=PRODUCT_DEFINITION('','NONE',#40,#1);
#24=SHELL_BASED_SURFACE_MODEL('1',(#41));
#25=AXIS2_PLACEMENT_3D('',#42,#43,#44);
#28=LENGTH_MEASURE_WITH_UNIT(LENGTH_MEASURE(1.0),#45);
#31=DIMENSIONAL_EXPONENTS(1.0,0.0,0.0,0.0,0.0,0.0,0.0);
#33=DIMENSIONAL_EXPONENTS(0.0,0.0,0.0,0.0,0.0,0.0,0.0);
#39=PRODUCT_CONTEXT('',#9,'mechanical');
#40=PRODUCT_DEFINITION_FORMATION_WITH_SPECIFIED_SOURCE(' ','NONE',#22,.NOT_KNOWN.);
#41=CLOSED_SHELL('',(#46));
#42=CARTESIAN_POINT('',(0.0,0.0,0.0));
#43=DIRECTION('',(0.0,0.0,1.0));
#44=DIRECTION('',(1.0,0.0,0.0));
#45= (NAMED_UNIT(#31)LENGTH_UNIT()SI_UNIT(.MILLI.,.METRE.));
#46=FACE_SURFACE('',(#48),#49,.T.);
#48=FACE_BOUND('',#50,.T.);
#49=CYLINDRICAL_SURFACE('',#51,1.27584177685679);
#50=EDGE_LOOP('',(#52,#53,#54,#55,#56,#57,#58,#59,#60,#61));
#51=AXIS2_PLACEMENT_3D('',#62,#63,#64);
#52=ORIENTED_EDGE('',*,*,#65,.T.);
#53=ORIENTED_EDGE('',*,*,#66,.T.);
#54=ORIENTED_EDGE('',*,*,#67,.T.);
#55=ORIENTED_EDGE('',*,*,#68,.T.);
#56=ORIENTED_EDGE('',*,*,#69,.T.);
#57=ORIENTED_EDGE('',*,*,#70,.T.);
#58=ORIENTED_EDGE('',*,*,#71,.T.);
#59=ORIENTED_EDGE('',*,*,#72,.T.);
#60=ORIENTED_EDGE('',*,*,#73,.T.);
#61=ORIENTED_EDGE('',*,*,#74,.T.);
#62=CARTESIAN_POINT('',(-0.158020655828513,0.000107047705788113,-1.2572735650307));
#63=DIRECTION('',(0.00216440926164902,-0.999997593875783,-0.000357176697305545));
#64=DIRECTION('',(9.19650565687281E-23,-0.000357177533935509,0.999999936212103));
#65=EDGE_CURVE('',#75,#76,#77,.T.);
#66=EDGE_CURVE('',#76,#78,#79,.T.);
#67=EDGE_CURVE('',#78,#80,#81,.T.);
#68=EDGE_CURVE('',#80,#82,#83,.T.);
#69=EDGE_CURVE('',#82,#84,#85,.T.);
#70=EDGE_CURVE('',#84,#86,#87,.T.);
#71=EDGE_CURVE('',#86,#88,#89,.T.);
#72=EDGE_CURVE('',#88,#90,#91,.T.);
#73=EDGE_CURVE('',#90,#92,#93,.T.);
#74=EDGE_CURVE('',#92,#75,#94,.T.);
#75=VERTEX_POINT('',#95);
#76=VERTEX_POINT('',#96);
#77=LINE('',#97,#98);
#78=VERTEX_POINT('',#99);
#79=LINE('',#100,#101);
#80=VERTEX_POINT('',#102);
#81=LINE('',#103,#104);
#82=VERTEX_POINT('',#105);
#83=LINE('',#106,#107);
#84=VERTEX_POINT('',#108);
#85=LINE('',#109,#110);
#86=VERTEX_POINT('',#111);
#87=B_SPLINE_CURVE_WITH_KNOTS('',3,(#112,#113,#114,#115,#116,#117,#118,#119,#120,#121,#122,#123,#124,#125,#126,#127,#128,#129,#130,#131,#132,#133),.UNSPECIFIED.,.F.,.F.,(4,1,1,1,1,1,1,1,1,1,1,1,1,1,1,1,1,1,1,4),(0.0,0.125171714961927,0.250343429923853,0.37551514488578,0.500686859847706,0.56327271732867,0.625858574809633,0.688444432290596,0.75103028977156,0.813616147252523,0.844909075993005,0.876202004733486,0.907494933473968,0.93878786221445,0.95443432658469,0.970080790954931,0.977904023140052,0.985727255325172,0.993550487510293,1.00137371969541),.UNSPECIFIED.);
#88=VERTEX_POINT('',#134);
#89=LINE('',#135,#136);
#90=VERTEX_POINT('',#137);
#91=LINE('',#138,#139);
#92=VERTEX_POINT('',#140);
#93=LINE('',#141,#142);
#94=B_SPLINE_CURVE_WITH_KNOTS('',3,(#143,#144,#145,#146,#147,#148,#149,#150,#151,#152,#153,#154,#155,#156,#157,#158,#159,#160,#161,#162,#163,#164),.UNSPECIFIED.,.F.,.F.,(4,1,1,1,1,1,1,1,1,1,1,1,1,1,1,1,1,1,1,4),(0.0,0.00775057163572079,0.0155011432714416,0.0232517149071624,0.0310022865428831,0.0465034298143247,0.0620045730857663,0.0930068596286494,0.124009146171533,0.155011432714416,0.186013719257299,0.248018292343065,0.310022865428831,0.372027438514598,0.434032011600364,0.49603658468613,0.620045730857663,0.744054877029195,0.868064023200728,0.992073169372261),.UNSPECIFIED.);
#95=CARTESIAN_POINT('',(0.844063699245453,3.94390663132071E-05,-0.465376615524292));
#96=CARTESIAN_POINT('',(0.854217648506165,4.12949957535602E-05,-0.469214648008347));
#97=CARTESIAN_POINT('',(0.849140673875809,4.03670310333837E-05,-0.467295631766319));
#98=VECTOR('',#165,1.0);
#99=CARTESIAN_POINT('',(0.854227423667908,0.0300552304834127,-0.469176590442657));
#100=CARTESIAN_POINT('',(0.854222536087036,0.0150482627395832,-0.469195619225502));
#101=VECTOR('',#166,1.0);
#102=CARTESIAN_POINT('',(0.85423344373703,0.0500645004212856,-0.469151705503464));
#103=CARTESIAN_POINT('',(0.854230433702469,0.0400598654523492,-0.469164147973061));
#104=VECTOR('',#167,1.0);
#105=CARTESIAN_POINT('',(0.853904187679291,0.0903534963726997,-0.469391942024231));
#106=CARTESIAN_POINT('',(0.854291409254074,0.0702089983969927,-0.469067737460136));
#107=VECTOR('',#168,1.0);
#108=CARTESIAN_POINT('',(0.849901020526886,0.100087441504002,-0.472693502902985));
#109=CARTESIAN_POINT('',(0.851902604103088,0.0952204689383507,-0.471042722463608));
#110=VECTOR('',#169,1.0);
#111=CARTESIAN_POINT('',(0.000172022177139297,0.100021868944168,0.00345907150767744));
#112=CARTESIAN_POINT('',(0.849901020526886,0.100087441504002,-0.472693502902985));
#113=CARTESIAN_POINT('',(0.823631394649062,0.100083816354181,-0.440277596460508));
#114=CARTESIAN_POINT('',(0.768363329181357,0.100083545925668,-0.377647522770855));
#115=CARTESIAN_POINT('',(0.677087789581145,0.100076906751149,-0.291791947670205));
#116=CARTESIAN_POINT('',(0.578436527082596,0.100072921656581,-0.21454547819638));
#117=CARTESIAN_POINT('',(0.490722962330853,0.100076016773472,-0.157882442299583));
#118=CARTESIAN_POINT('',(0.417533631396833,0.100075304705395,-0.117743500276321));
#119=CARTESIAN_POINT('',(0.361210561655858,0.100077738329836,-0.0904082068237004));
#120=CARTESIAN_POINT('',(0.303557501787457,0.100088051724299,-0.0659990869821196));
#121=CARTESIAN_POINT('',(0.244691876674138,0.1000880717288,-0.0446760082409652));
#122=CARTESIAN_POINT('',(0.19474030693577,0.100064681646399,-0.029606439384054));
#123=CARTESIAN_POINT('',(0.154318935775548,0.10006609952895,-0.0192460145380536));
#124=CARTESIAN_POINT('',(0.123794252787926,0.100085934340345,-0.0123364970087459));
#125=CARTESIAN_POINT('',(0.0930842222401373,0.100132425664314,-0.00631969528980683));
#126=CARTESIAN_POINT('',(0.0673560891984639,0.10016232875914,-0.00200881558426429));
#127=CARTESIAN_POINT('',(0.0467093879712805,0.10015921543502,0.000900424674114931));
#128=CARTESIAN_POINT('',(0.0337712943444559,0.100147492837441,0.00272486593958398));
#129=CARTESIAN_POINT('',(0.023424380805334,0.100117516972648,0.00366213450002717));
#130=CARTESIAN_POINT('',(0.015624338898363,0.100099689928893,0.00502491527438757));
#131=CARTESIAN_POINT('',(0.00787415469690399,0.100073526490313,0.00545121505983877));
#132=CARTESIAN_POINT('',(0.00270280672191789,0.100038553551204,0.00408770518730722));
#133=CARTESIAN_POINT('',(0.000172022177139297,0.100021868944168,0.00345907150767744));
#134=CARTESIAN_POINT('',(-5.28800404067977E-34,0.0900089666247368,-2.12774051349309E-34));
#135=CARTESIAN_POINT('',(8.60110885696486E-05,0.0950154177844524,0.00172953575383872));
#136=VECTOR('',#170,1.0);
#137=CARTESIAN_POINT('',(-1.51237716460804E-33,0.00999103579670191,-9.69801941211588E-34));
#138=CARTESIAN_POINT('',(-1.32161013533942E-34,0.0500000012107193,-1.19645465487665E-34));
#139=VECTOR('',#171,1.0);
#140=CARTESIAN_POINT('',(0.000132918954477645,-3.18733509629965E-05,0.00348688382655382));
#141=CARTESIAN_POINT('',(6.64594772388227E-05,0.00497958122286946,0.00174344191327691));
#142=VECTOR('',#172,1.0);
#143=CARTESIAN_POINT('',(0.000132918954477645,-3.18733509629965E-05,0.00348688382655382));
#144=CARTESIAN_POINT('',(0.00264298832376348,-4.67141109394468E-05,0.00409837965186767));
#145=CARTESIAN_POINT('',(0.00776923517165935,-7.78710064774069E-05,0.00542265541522528));
#146=CARTESIAN_POINT('',(0.015447452795874,-9.95803534278053E-05,0.00503958924008453));
#147=CARTESIAN_POINT('',(0.0231747344194023,-0.000113203076508991,0.00368082736884073));
#148=CARTESIAN_POINT('',(0.0334266585251222,-0.000139755816724307,0.00275277538337551));
#149=CARTESIAN_POINT('',(0.0462449406523096,-0.000149405753411211,0.000955341819971691));
#150=CARTESIAN_POINT('',(0.0667017960986512,-0.000153332927782582,-0.0019153540141925));
#151=CARTESIAN_POINT('',(0.0921942678907562,-0.000129457745749521,-0.00616528804850611));
#152=CARTESIAN_POINT('',(0.122625420612568,-9.08436965216451E-05,-0.0120937299220863));
#153=CARTESIAN_POINT('',(0.152875599619543,-7.30046530087326E-05,-0.0188988544819227));
#154=CARTESIAN_POINT('',(0.192937615245241,-6.97609083608101E-05,-0.0290998821267276));
#155=CARTESIAN_POINT('',(0.242453741698442,-8.64940652644738E-05,-0.0439335485794212));
#156=CARTESIAN_POINT('',(0.300822487014415,-8.34022564250037E-05,-0.0649193829099539));
#157=CARTESIAN_POINT('',(0.358007335023456,-6.9338845769802E-05,-0.088941505498796));
#158=CARTESIAN_POINT('',(0.413892984778959,-6.0010233572218E-05,-0.115844899965399));
#159=CARTESIAN_POINT('',(0.486543357876143,-4.95671904975288E-05,-0.155352623812445));
#160=CARTESIAN_POINT('',(0.573664837405112,-2.90745802426815E-05,-0.211139998195666));
#161=CARTESIAN_POINT('',(0.671756467761405,-6.42374449577529E-06,-0.287208559539658));
#162=CARTESIAN_POINT('',(0.762663385362439,1.49365325192973E-05,-0.371749805980718));
#163=CARTESIAN_POINT('',(0.817817881512307,2.9915558221632E-05,-0.433441471209631));
#164=CARTESIAN_POINT('',(0.844063699245453,3.94390663132071E-05,-0.465376615524292));
#165=DIRECTION('',(0.935408227273723,0.000170973049320148,-0.353569539294391));
#166=DIRECTION('',(0.000325885719463562,0.999999142997376,0.00126799172341029));
#167=DIRECTION('',(0.000300863761265518,0.999999181374081,0.00124367687353853));
#168=DIRECTION('',(-0.00213963919982827,0.999997364943092,-0.000831896007434467));
#169=DIRECTION('',(-0.362912929819247,0.882444927181858,-0.299307794520985));
#170=DIRECTION('',(-0.0162362414065784,-0.945063607159968,-0.326483020824633));
#171=DIRECTION('',(-0.0,-1.0,-0.0));
#172=DIRECTION('',(0.012524221722617,-0.944403580093714,0.328549877151734));
ENDSEC;
END-ISO-10303-21;
