ISO-10303-21;
HEADER;
FILE_DESCRIPTION(('STEP AP214'),'1');
FILE_NAME('SMAStripDeformed_06.stp','2026-05-05T01:13:41',(' '),(' '),'Spatial InterOp 3D',' ',' ');
FILE_SCHEMA(('AUTOMOTIVE_DESIGN { 1 0 10303 214 1 1 1 1 }'));
ENDSEC;
DATA;
#1=PRODUCT_DEFINITION_CONTEXT('',#9,'design');
#2=APPLICATION_PROTOCOL_DEFINITION('INTERNATIONAL STANDARD','automotive_design',1994,#9);
#3=PRODUCT_CATEGORY_RELATIONSHIP('NONE','NONE',#10,#11);
#4=SHAPE_DEFINITION_REPRESENTATION(#12,#13);
#5= (GEOMETRIC_REPRESENTATION_CONTEXT(3)GLOBAL_UNCERTAINTY_ASSIGNED_CONTEXT((#16))GLOBAL_UNIT_ASSIGNED_CONTEXT((#18,#19,#20))REPRESENTATION_CONTEXT('NONE','WORKSPACE'));
#9=APPLICATION_CONTEXT(' ');
#10=PRODUCT_CATEGORY('part','NONE');
#11=PRODUCT_RELATED_PRODUCT_CATEGORY('detail',' ',(#22));
#12=PRODUCT_DEFINITION_SHAPE('NONE','NONE',#23);
#13=MANIFOLD_SURFACE_SHAPE_REPRESENTATION('1',(#24,#25),#5);
#16=UNCERTAINTY_MEASURE_WITH_UNIT(LENGTH_MEASURE(1.0E-06),#18,'','');
#18= (CONVERSION_BASED_UNIT('MILLIMETRE',#28)LENGTH_UNIT()NAMED_UNIT(#31));
#19= (NAMED_UNIT(#33)PLANE_ANGLE_UNIT()SI_UNIT($,.RADIAN.));
#20= (NAMED_UNIT(#33)SOLID_ANGLE_UNIT()SI_UNIT($,.STERADIAN.));
#22=PRODUCT('1','','PART--DESC',(#39));
#23=PRODUCT_DEFINITION('','NONE',#40,#1);
#24=SHELL_BASED_SURFACE_MODEL('1',(#41));
#25=AXIS2_PLACEMENT_3D('',#42,#43,#44);
#28=LENGTH_MEASURE_WITH_UNIT(LENGTH_MEASURE(1.0),#45);
#31=DIMENSIONAL_EXPONENTS(1.0,0.0,0.0,0.0,0.0,0.0,0.0);
#33=DIMENSIONAL_EXPONENTS(0.0,0.0,0.0,0.0,0.0,0.0,0.0);
#39=PRODUCT_CONTEXT('',#9,'mechanical');
#40=PRODUCT_DEFINITION_FORMATION_WITH_SPECIFIED_SOURCE(' ','NONE',#22,.NOT_KNOWN.);
#41=CLOSED_SHELL('',(#46));
#42=CARTESIAN_POINT('',(0.0,0.0,0.0));
#43=DIRECTION('',(0.0,0.0,1.0));
#44=DIRECTION('',(1.0,0.0,0.0));
#45= (NAMED_UNIT(#31)LENGTH_UNIT()SI_UNIT(.MILLI.,.METRE.));
#46=FACE_SURFACE('',(#48),#49,.T.);
#48=FACE_BOUND('',#50,.T.);
#49=CYLINDRICAL_SURFACE('',#51,1.21956043355795);
#50=EDGE_LOOP('',(#52,#53,#54,#55,#56,#57,#58,#59,#60,#61,#62,#63));
#51=AXIS2_PLACEMENT_3D('',#64,#65,#66);
#52=ORIENTED_EDGE('',*,*,#67,.T.);
#53=ORIENTED_EDGE('',*,*,#68,.T.);
#54=ORIENTED_EDGE('',*,*,#69,.T.);
#55=ORIENTED_EDGE('',*,*,#70,.T.);
#56=ORIENTED_EDGE('',*,*,#71,.T.);
#57=ORIENTED_EDGE('',*,*,#72,.T.);
#58=ORIENTED_EDGE('',*,*,#73,.T.);
#59=ORIENTED_EDGE('',*,*,#74,.T.);
#60=ORIENTED_EDGE('',*,*,#75,.T.);
#61=ORIENTED_EDGE('',*,*,#76,.T.);
#62=ORIENTED_EDGE('',*,*,#77,.T.);
#63=ORIENTED_EDGE('',*,*,#78,.T.);
#64=CARTESIAN_POINT('',(-0.193020302301334,-0.00144611568939435,-1.1932501031754));
#65=DIRECTION('',(0.00246501200776771,-0.999996631230682,0.000813168548860889));
#66=DIRECTION('',(-4.38284368775009E-22,0.00081317101939375,0.999999669376392));
#67=EDGE_CURVE('',#79,#80,#81,.T.);
#68=EDGE_CURVE('',#80,#82,#83,.T.);
#69=EDGE_CURVE('',#82,#84,#85,.T.);
#70=EDGE_CURVE('',#84,#86,#87,.T.);
#71=EDGE_CURVE('',#86,#88,#89,.T.);
#72=EDGE_CURVE('',#88,#90,#91,.T.);
#73=EDGE_CURVE('',#90,#92,#93,.T.);
#74=EDGE_CURVE('',#92,#94,#95,.T.);
#75=EDGE_CURVE('',#94,#96,#97,.T.);
#76=EDGE_CURVE('',#96,#98,#99,.T.);
#77=EDGE_CURVE('',#98,#100,#101,.T.);
#78=EDGE_CURVE('',#100,#79,#102,.T.);
#79=VERTEX_POINT('',#103);
#80=VERTEX_POINT('',#104);
#81=LINE('',#105,#106);
#82=VERTEX_POINT('',#107);
#83=LINE('',#108,#109);
#84=VERTEX_POINT('',#110);
#85=LINE('',#111,#112);
#86=VERTEX_POINT('',#113);
#87=LINE('',#114,#115);
#88=VERTEX_POINT('',#116);
#89=B_SPLINE_CURVE_WITH_KNOTS('',3,(#117,#118,#119,#120,#121,#122,#123,#124,#125),.UNSPECIFIED.,.F.,.F.,(4,1,1,1,1,1,4),(0.0,0.123920381063429,0.247840762126858,0.495681524253716,0.743522286380574,0.867442667444003,0.991363048507433),.UNSPECIFIED.);
#90=VERTEX_POINT('',#126);
#91=LINE('',#127,#128);
#92=VERTEX_POINT('',#129);
#93=LINE('',#130,#131);
#94=VERTEX_POINT('',#132);
#95=LINE('',#133,#134);
#96=VERTEX_POINT('',#135);
#97=LINE('',#136,#137);
#98=VERTEX_POINT('',#138);
#99=B_SPLINE_CURVE_WITH_KNOTS('',3,(#139,#140,#141,#142,#143,#144,#145,#146,#147),.UNSPECIFIED.,.F.,.F.,(4,1,1,1,1,1,4),(0.0,0.123962217639636,0.247924435279273,0.495848870558546,0.743773305837818,0.867735523477455,0.991697741117091),.UNSPECIFIED.);
#100=VERTEX_POINT('',#148);
#101=LINE('',#149,#150);
#102=LINE('',#151,#152);
#103=CARTESIAN_POINT('',(0.826793551445007,0.010071518830955,-0.510097801685333));
#104=CARTESIAN_POINT('',(0.826801955699921,0.0301413107663393,-0.510072350502014));
#105=CARTESIAN_POINT('',(0.826797753572464,0.0201064147986472,-0.510085076093674));
#106=VECTOR('',#153,1.0);
#107=CARTESIAN_POINT('',(0.826817750930786,0.0702808126807213,-0.510022163391113));
#108=CARTESIAN_POINT('',(0.826809853315353,0.0502110617235303,-0.510047256946564));
#109=VECTOR('',#154,1.0);
#110=CARTESIAN_POINT('',(0.826547741889954,0.0901588723063469,-0.510208368301392));
#111=CARTESIAN_POINT('',(0.826684653759003,0.0802198424935341,-0.510109066963196));
#112=VECTOR('',#155,1.0);
#113=CARTESIAN_POINT('',(0.820956468582153,0.100080825388432,-0.514229416847229));
#114=CARTESIAN_POINT('',(0.823752105236054,0.0951198488473892,-0.51221889257431));
#115=VECTOR('',#156,1.0);
#116=CARTESIAN_POINT('',(0.0103302011266351,0.100100494921207,0.00737651018425822));
#117=CARTESIAN_POINT('',(0.820956468582153,0.100080825388432,-0.514229416847229));
#118=CARTESIAN_POINT('',(0.797497423015195,0.100078682396877,-0.480230528905677));
#119=CARTESIAN_POINT('',(0.74753061657201,0.100078832097735,-0.414326089823426));
#120=CARTESIAN_POINT('',(0.63501435260588,0.100072926397853,-0.293045852153126));
#121=CARTESIAN_POINT('',(0.473448089202603,0.100056364882778,-0.162891367823583));
#122=CARTESIAN_POINT('',(0.289625995896746,0.100120332891271,-0.0663494994636678));
#123=CARTESIAN_POINT('',(0.132363756385027,0.100050698676809,-0.0146942700691117));
#124=CARTESIAN_POINT('',(0.0512282593641012,0.100195551563057,0.00158073574015309));
#125=CARTESIAN_POINT('',(0.0103302011266351,0.100100494921207,0.00737651018425822));
#126=CARTESIAN_POINT('',(0.000168398735695519,0.100028090178967,0.00343898055143654));
#127=CARTESIAN_POINT('',(0.0052492999311653,0.100064292550087,0.00540774536784738));
#128=VECTOR('',#157,1.0);
#129=CARTESIAN_POINT('',(-5.55914375131143E-34,0.0900089666247368,-2.48507288822131E-34));
#130=CARTESIAN_POINT('',(8.41993678477593E-05,0.0950185284018517,0.00171949027571827));
#131=VECTOR('',#158,1.0);
#132=CARTESIAN_POINT('',(-1.24596679835752E-33,0.00999103579670191,-1.00273938475712E-33));
#133=CARTESIAN_POINT('',(-7.49642594055624E-35,0.0500000012107193,-1.03083645480666E-34));
#134=VECTOR('',#159,1.0);
#135=CARTESIAN_POINT('',(0.000788402569014579,-4.85858436150011E-05,0.00862838514149189));
#136=CARTESIAN_POINT('',(0.00039420128450729,0.00497122497654345,0.00431419257074594));
#137=VECTOR('',#160,1.0);
#138=CARTESIAN_POINT('',(0.815758347511292,3.30039838445373E-05,-0.506458163261414));
#139=CARTESIAN_POINT('',(0.000788402569014579,-4.85858436150011E-05,0.00862838514149189));
#140=CARTESIAN_POINT('',(0.04176624363135,-0.000335335625525535,0.00332387710032161));
#141=CARTESIAN_POINT('',(0.123067529934974,-1.04525285831084E-05,-0.0122955885864919));
#142=CARTESIAN_POINT('',(0.280853327219073,-0.000146152355379212,-0.0624902194026891));
#143=CARTESIAN_POINT('',(0.465520830585913,-3.74854034556896E-05,-0.157602790672574));
#144=CARTESIAN_POINT('',(0.628099271805262,-1.93002164018163E-05,-0.286602080006019));
#145=CARTESIAN_POINT('',(0.741562992510647,1.15489932544877E-05,-0.407072528991912));
#146=CARTESIAN_POINT('',(0.792038814039366,2.42591568049602E-05,-0.472623460003833));
#147=CARTESIAN_POINT('',(0.815758347511292,3.30039838445373E-05,-0.506458163261414));
#148=CARTESIAN_POINT('',(0.826789200305939,3.66503372788429E-05,-0.51011073589325));
#149=CARTESIAN_POINT('',(0.821273773908615,3.48271605616901E-05,-0.508284449577332));
#150=VECTOR('',#161,1.0);
#151=CARTESIAN_POINT('',(0.826791375875473,0.00505408458411694,-0.510104268789291));
#152=VECTOR('',#162,1.0);
#153=DIRECTION('',(0.00041875109812146,0.999999108229657,0.00126814329162774));
#154=DIRECTION('',(0.000393805055131387,0.999999140785137,0.00125033858035131));
#155=DIRECTION('',(-0.01351691366633,0.999803351653111,-0.0145103779462582));
#156=DIRECTION('',(-0.462933191223474,0.821494702655844,-0.332925387995624));
#157=DIRECTION('',(-0.93242610452248,-0.00664371035367083,-0.361299627342417));
#158=DIRECTION('',(-0.0158953204744311,-0.945714818520703,-0.3246087195646));
#159=DIRECTION('',(-0.0,-1.0,-0.0));
#160=DIRECTION('',(0.0594509504784063,-0.757056194916306,0.650639302706237));
#161=DIRECTION('',(0.94931076829435,0.000313803714421193,-0.314338936066818));
#162=DIRECTION('',(0.000433601601055214,0.999999075330175,0.00128892530724632));
ENDSEC;
END-ISO-10303-21;
