ISO-10303-21;
HEADER;
FILE_DESCRIPTION(('STEP AP214'),'1');
FILE_NAME('SMAStripDeformed_04.stp','2026-05-05T01:10:49',(' '),(' '),'Spatial InterOp 3D',' ',' ');
FILE_SCHEMA(('AUTOMOTIVE_DESIGN { 1 0 10303 214 1 1 1 1 }'));
ENDSEC;
DATA;
#1=PRODUCT_DEFINITION_CONTEXT('',#9,'design');
#2=APPLICATION_PROTOCOL_DEFINITION('INTERNATIONAL STANDARD','automotive_design',1994,#9);
#3=PRODUCT_CATEGORY_RELATIONSHIP('NONE','NONE',#10,#11);
#4=SHAPE_DEFINITION_REPRESENTATION(#12,#13);
#5= (GEOMETRIC_REPRESENTATION_CONTEXT(3)GLOBAL_UNCERTAINTY_ASSIGNED_CONTEXT((#16))GLOBAL_UNIT_ASSIGNED_CONTEXT((#18,#19,#20))REPRESENTATION_CONTEXT('NONE','WORKSPACE'));
#9=APPLICATION_CONTEXT(' ');
#10=PRODUCT_CATEGORY('part','NONE');
#11=PRODUCT_RELATED_PRODUCT_CATEGORY('detail',' ',(#22));
#12=PRODUCT_DEFINITION_SHAPE('NONE','NONE',#23);
#13=MANIFOLD_SURFACE_SHAPE_REPRESENTATION('1',(#24,#25),#5);
#16=UNCERTAINTY_MEASURE_WITH_UNIT(LENGTH_MEASURE(1.0E-06),#18,'','');
#18= (CONVERSION_BASED_UNIT('MILLIMETRE',#28)LENGTH_UNIT()NAMED_UNIT(#31));
#19= (NAMED_UNIT(#33)PLANE_ANGLE_UNIT()SI_UNIT($,.RADIAN.));
#20= (NAMED_UNIT(#33)SOLID_ANGLE_UNIT()SI_UNIT($,.STERADIAN.));
#22=PRODUCT('1','','PART--DESC',(#39));
#23=PRODUCT_DEFINITION('','NONE',#40,#1);
#24=SHELL_BASED_SURFACE_MODEL('1',(#41));
#25=AXIS2_PLACEMENT_3D('',#42,#43,#44);
#28=LENGTH_MEASURE_WITH_UNIT(LENGTH_MEASURE(1.0),#45);
#31=DIMENSIONAL_EXPONENTS(1.0,0.0,0.0,0.0,0.0,0.0,0.0);
#33=DIMENSIONAL_EXPONENTS(0.0,0.0,0.0,0.0,0.0,0.0,0.0);
#39=PRODUCT_CONTEXT('',#9,'mechanical');
#40=PRODUCT_DEFINITION_FORMATION_WITH_SPECIFIED_SOURCE(' ','NONE',#22,.NOT_KNOWN.);
#41=CLOSED_SHELL('',(#46));
#42=CARTESIAN_POINT('',(0.0,0.0,0.0));
#43=DIRECTION('',(0.0,0.0,1.0));
#44=DIRECTION('',(1.0,0.0,0.0));
#45= (NAMED_UNIT(#31)LENGTH_UNIT()SI_UNIT(.MILLI.,.METRE.));
#46=FACE_SURFACE('',(#48),#49,.T.);
#48=FACE_BOUND('',#50,.T.);
#49=CYLINDRICAL_SURFACE('',#51,1.37510327249962);
#50=EDGE_LOOP('',(#52,#53,#54,#55,#56,#57,#58,#59));
#51=AXIS2_PLACEMENT_3D('',#60,#61,#62);
#52=ORIENTED_EDGE('',*,*,#63,.T.);
#53=ORIENTED_EDGE('',*,*,#64,.T.);
#54=ORIENTED_EDGE('',*,*,#65,.T.);
#55=ORIENTED_EDGE('',*,*,#66,.T.);
#56=ORIENTED_EDGE('',*,*,#67,.T.);
#57=ORIENTED_EDGE('',*,*,#68,.T.);
#58=ORIENTED_EDGE('',*,*,#69,.T.);
#59=ORIENTED_EDGE('',*,*,#70,.T.);
#60=CARTESIAN_POINT('',(-0.119637782499201,0.00018237214268714,-1.36367368441894));
#61=DIRECTION('',(0.00139945397935119,-0.999998987864402,-0.000256512634669317));
#62=DIRECTION('',(-5.51700761335534E-23,-0.000256512885856021,0.999999967100569));
#63=EDGE_CURVE('',#71,#72,#73,.T.);
#64=EDGE_CURVE('',#72,#74,#75,.T.);
#65=EDGE_CURVE('',#74,#76,#77,.T.);
#66=EDGE_CURVE('',#76,#78,#79,.T.);
#67=EDGE_CURVE('',#78,#80,#81,.T.);
#68=EDGE_CURVE('',#80,#82,#83,.T.);
#69=EDGE_CURVE('',#82,#84,#85,.T.);
#70=EDGE_CURVE('',#84,#71,#86,.T.);
#71=VERTEX_POINT('',#87);
#72=VERTEX_POINT('',#88);
#73=LINE('',#89,#90);
#74=VERTEX_POINT('',#91);
#75=LINE('',#92,#93);
#76=VERTEX_POINT('',#94);
#77=B_SPLINE_CURVE_WITH_KNOTS('',3,(#95,#96,#97,#98,#99,#100,#101,#102,#103,#104,#105,#106,#107,#108,#109,#110,#111,#112,#113,#114,#115,#116),.UNSPECIFIED.,.F.,.F.,(4,1,1,1,1,1,1,1,1,1,1,1,1,1,1,1,1,1,1,4),(0.0,0.125206073601697,0.250412147203393,0.37561822080509,0.500824294406786,0.563427331207635,0.626030368008483,0.688633404809331,0.751236441610179,0.813839478411028,0.845140996811452,0.876442515211876,0.9077440336123,0.939045552012724,0.954696311212936,0.970347070413148,0.978172450013254,0.985997829613361,0.993823209213467,1.00164858881357),.UNSPECIFIED.);
#78=VERTEX_POINT('',#117);
#79=LINE('',#118,#119);
#80=VERTEX_POINT('',#120);
#81=LINE('',#121,#122);
#82=VERTEX_POINT('',#123);
#83=CIRCLE('',#124,0.0586162813510483);
#84=VERTEX_POINT('',#125);
#85=B_SPLINE_CURVE_WITH_KNOTS('',3,(#126,#127,#128,#129,#130,#131,#132,#133,#134,#135,#136),.UNSPECIFIED.,.F.,.F.,(4,1,1,1,1,1,1,1,4),(0.0,0.125124875364987,0.250249750729973,0.37537462609496,0.500499501459946,0.625624376824933,0.75074925218992,0.875874127554906,1.00099900291989),.UNSPECIFIED.);
#86=LINE('',#137,#138);
#87=CARTESIAN_POINT('',(-5.40364100155451E-34,0.0900089666247368,-1.05376376039436E-34));
#88=CARTESIAN_POINT('',(-1.69179373981125E-34,0.00999103579670191,-8.42743124173192E-35));
#89=CARTESIAN_POINT('',(5.45450960123139E-35,0.0500000012107193,1.0598995768786E-34));
#90=VECTOR('',#139,1.0);
#91=CARTESIAN_POINT('',(0.000137473194627091,-2.31021185754798E-05,0.00351157132536173));
#92=CARTESIAN_POINT('',(6.87365973135456E-05,0.00498396683906321,0.00175578566268086));
#93=VECTOR('',#140,1.0);
#94=CARTESIAN_POINT('',(0.885352790355682,4.72550163976848E-05,-0.417127549648285));
#95=CARTESIAN_POINT('',(0.000137473194627091,-2.31021185754798E-05,0.00351157132536173));
#96=CARTESIAN_POINT('',(0.0418070837280748,-0.000205855755560845,0.00117699311829847));
#97=CARTESIAN_POINT('',(0.12489982016248,-1.84856499636079E-05,-0.00793396469790348));
#98=CARTESIAN_POINT('',(0.247339598345405,-8.76856824308921E-05,-0.0349360102296928));
#99=CARTESIAN_POINT('',(0.366385322936862,-5.81914648826537E-05,-0.0742163446358492));
#100=CARTESIAN_POINT('',(0.461964866336095,-5.07743074055319E-05,-0.116346243183895));
#101=CARTESIAN_POINT('',(0.535895845361515,-3.87500205566971E-05,-0.155140208042689));
#102=CARTESIAN_POINT('',(0.590011120356423,-2.83376486832945E-05,-0.186644852583124));
#103=CARTESIAN_POINT('',(0.64273679844416,-1.7142169028809E-05,-0.220421552374218));
#104=CARTESIAN_POINT('',(0.694029142905308,-4.79662695121739E-06,-0.256336108673046));
#105=CARTESIAN_POINT('',(0.73554033580067,6.26866404029028E-06,-0.287951462429214));
#106=CARTESIAN_POINT('',(0.767979853986161,1.37005218532009E-05,-0.31421340305645));
#107=CARTESIAN_POINT('',(0.791908405054001,2.00786047148E-05,-0.334395747424586));
#108=CARTESIAN_POINT('',(0.815439115751355,2.6359687842198E-05,-0.355038311004588));
#109=CARTESIAN_POINT('',(0.834673644932046,3.21103886253464E-05,-0.372666289084962));
#110=CARTESIAN_POINT('',(0.849909934085363,3.69282814996747E-05,-0.386910529054566));
#111=CARTESIAN_POINT('',(0.859208233110511,4.02354397469863E-05,-0.396095893123653));
#112=CARTESIAN_POINT('',(0.866875066361214,4.27010495110324E-05,-0.403104194813276));
#113=CARTESIAN_POINT('',(0.872097469672509,4.54135390551175E-05,-0.409094571675002));
#114=CARTESIAN_POINT('',(0.877896776587935,4.74112685499478E-05,-0.414221726724173));
#115=CARTESIAN_POINT('',(0.882933115516082,4.72818859234523E-05,-0.41615326193612));
#116=CARTESIAN_POINT('',(0.885352790355682,4.72550163976848E-05,-0.417127549648285));
#117=CARTESIAN_POINT('',(0.885362386703491,0.0500700511038303,-0.417064368724823));
#118=CARTESIAN_POINT('',(0.885357588529587,0.025058653060114,-0.417095959186554));
#119=VECTOR('',#141,1.0);
#120=CARTESIAN_POINT('',(0.885365664958954,0.0700791701674461,-0.41703987121582));
#121=CARTESIAN_POINT('',(0.885364025831223,0.0600746106356382,-0.417052119970322));
#122=VECTOR('',#142,0.999999999999999);
#123=CARTESIAN_POINT('',(0.883001506328583,0.100094929337502,-0.419350951910019));
#124=AXIS2_PLACEMENT_3D('',#143,#144,#145);
#125=CARTESIAN_POINT('',(0.000176629895577207,0.10001315921545,0.00348378391936421));
#126=CARTESIAN_POINT('',(0.883001506328583,0.100094929337502,-0.419350951910019));
#127=CARTESIAN_POINT('',(0.853589723423945,0.100089372261167,-0.389778522192632));
#128=CARTESIAN_POINT('',(0.792581715363325,0.100087337935977,-0.332797737435144));
#129=CARTESIAN_POINT('',(0.694420193546797,0.100076625587828,-0.255039132361111));
#130=CARTESIAN_POINT('',(0.590412247618936,0.100073915055423,-0.185294880640934));
#131=CARTESIAN_POINT('',(0.480836045090131,0.100073422808059,-0.124633056976301));
#132=CARTESIAN_POINT('',(0.366200101754825,0.100065986124445,-0.0741441855879458));
#133=CARTESIAN_POINT('',(0.247223356870738,0.100090058638546,-0.0349100637508553));
#134=CARTESIAN_POINT('',(0.124857211994243,0.100001865187857,-0.00797003253423118));
#135=CARTESIAN_POINT('',(0.0418210096654728,0.100230330371667,0.00118594272163078));
#136=CARTESIAN_POINT('',(0.000176629895577207,0.10001315921545,0.00348378391936421));
#137=CARTESIAN_POINT('',(8.83149477886036E-05,0.0950110629200935,0.00174189195968211));
#138=VECTOR('',#146,1.0);
#139=DIRECTION('',(-0.0,-1.0,-0.0));
#140=DIRECTION('',(0.0129534429862364,-0.943584419447913,0.330878605669733));
#141=DIRECTION('',(0.00019269041866996,0.999999182863862,0.00126378083979119));
#142=DIRECTION('',(0.0001638379442709,0.999999237069922,0.00122434337574907));
#143=CARTESIAN_POINT('',(0.843974757412064,0.0795013203646965,-0.457708389727163));
#144=DIRECTION('',(-0.700979200915029,-0.000345613466509356,0.713181632149805));
#145=DIRECTION('',(0.713181674744107,-2.04565619022088E-20,0.700979242780548));
#146=DIRECTION('',(-0.0166712252962624,-0.94424643145464,-0.328817193790559));
ENDSEC;
END-ISO-10303-21;
