ISO-10303-21;
HEADER;
FILE_DESCRIPTION(('STEP AP214'),'1');
FILE_NAME('SMAStripDeformed_07.stp','2026-01-09T03:13:51',(' '),(' '),'Spatial InterOp 3D',' ',' ');
FILE_SCHEMA(('AUTOMOTIVE_DESIGN { 1 0 10303 214 1 1 1 1 }'));
ENDSEC;
DATA;
#1=PRODUCT_DEFINITION_CONTEXT('',#9,'design');
#2=APPLICATION_PROTOCOL_DEFINITION('INTERNATIONAL STANDARD','automotive_design',1994,#9);
#3=PRODUCT_CATEGORY_RELATIONSHIP('NONE','NONE',#10,#11);
#4=SHAPE_DEFINITION_REPRESENTATION(#12,#13);
#5= (GEOMETRIC_REPRESENTATION_CONTEXT(3)GLOBAL_UNCERTAINTY_ASSIGNED_CONTEXT((#16))GLOBAL_UNIT_ASSIGNED_CONTEXT((#18,#19,#20))REPRESENTATION_CONTEXT('NONE','WORKSPACE'));
#9=APPLICATION_CONTEXT(' ');
#10=PRODUCT_CATEGORY('part','NONE');
#11=PRODUCT_RELATED_PRODUCT_CATEGORY('detail',' ',(#22));
#12=PRODUCT_DEFINITION_SHAPE('NONE','NONE',#23);
#13=MANIFOLD_SURFACE_SHAPE_REPRESENTATION('1',(#24,#25),#5);
#16=UNCERTAINTY_MEASURE_WITH_UNIT(LENGTH_MEASURE(1.0E-06),#18,'','');
#18= (CONVERSION_BASED_UNIT('MILLIMETRE',#28)LENGTH_UNIT()NAMED_UNIT(#31));
#19= (NAMED_UNIT(#33)PLANE_ANGLE_UNIT()SI_UNIT($,.RADIAN.));
#20= (NAMED_UNIT(#33)SOLID_ANGLE_UNIT()SI_UNIT($,.STERADIAN.));
#22=PRODUCT('1','','PART--DESC',(#39));
#23=PRODUCT_DEFINITION('','NONE',#40,#1);
#24=SHELL_BASED_SURFACE_MODEL('1',(#41));
#25=AXIS2_PLACEMENT_3D('',#42,#43,#44);
#28=LENGTH_MEASURE_WITH_UNIT(LENGTH_MEASURE(1.0),#45);
#31=DIMENSIONAL_EXPONENTS(1.0,0.0,0.0,0.0,0.0,0.0,0.0);
#33=DIMENSIONAL_EXPONENTS(0.0,0.0,0.0,0.0,0.0,0.0,0.0);
#39=PRODUCT_CONTEXT('',#9,'mechanical');
#40=PRODUCT_DEFINITION_FORMATION_WITH_SPECIFIED_SOURCE(' ','NONE',#22,.NOT_KNOWN.);
#41=CLOSED_SHELL('',(#46));
#42=CARTESIAN_POINT('',(0.0,0.0,0.0));
#43=DIRECTION('',(0.0,0.0,1.0));
#44=DIRECTION('',(1.0,0.0,0.0));
#45= (NAMED_UNIT(#31)LENGTH_UNIT()SI_UNIT(.MILLI.,.METRE.));
#46=FACE_SURFACE('',(#48),#49,.T.);
#48=FACE_BOUND('',#50,.T.);
#49=CYLINDRICAL_SURFACE('',#51,0.994524083986997);
#50=EDGE_LOOP('',(#52,#53,#54,#55,#56,#57));
#51=AXIS2_PLACEMENT_3D('',#58,#59,#60);
#52=ORIENTED_EDGE('',*,*,#61,.T.);
#53=ORIENTED_EDGE('',*,*,#62,.T.);
#54=ORIENTED_EDGE('',*,*,#63,.T.);
#55=ORIENTED_EDGE('',*,*,#64,.T.);
#56=ORIENTED_EDGE('',*,*,#65,.T.);
#57=ORIENTED_EDGE('',*,*,#66,.T.);
#58=CARTESIAN_POINT('',(-0.0300098697195921,-0.00185148660246216,-0.991902650455583));
#59=DIRECTION('',(0.00281069186389042,-0.99999446302347,0.0017815537173359));
#60=DIRECTION('',(-6.12827436576621E-22,0.00178156075450476,0.99999841301938));
#61=EDGE_CURVE('',#67,#68,#69,.T.);
#62=EDGE_CURVE('',#68,#70,#71,.T.);
#63=EDGE_CURVE('',#70,#72,#73,.T.);
#64=EDGE_CURVE('',#72,#74,#75,.T.);
#65=EDGE_CURVE('',#74,#76,#77,.T.);
#66=EDGE_CURVE('',#76,#67,#78,.T.);
#67=VERTEX_POINT('',#79);
#68=VERTEX_POINT('',#80);
#69=LINE('',#81,#82);
#70=VERTEX_POINT('',#83);
#71=LINE('',#84,#85);
#72=VERTEX_POINT('',#86);
#73=LINE('',#87,#88);
#74=VERTEX_POINT('',#89);
#75=B_SPLINE_CURVE_WITH_KNOTS('',3,(#90,#91,#92,#93,#94,#95,#96,#97,#98,#99,#100,#101,#102,#103,#104,#105,#106,#107),.UNSPECIFIED.,.F.,.F.,(4,1,1,1,1,1,1,1,1,1,1,1,1,1,1,4),(0.0,0.128636655726087,0.257273311452173,0.38590996717826,0.514546622904347,0.643183278630433,0.707501606493477,0.77181993435652,0.836138262219564,0.900456590082607,0.932615754014129,0.96477491794565,0.996934081877172,1.01301366384293,1.02105345482581,1.02909324580869),.UNSPECIFIED.);
#76=VERTEX_POINT('',#108);
#77=LINE('',#109,#110);
#78=B_SPLINE_CURVE_WITH_KNOTS('',3,(#111,#112,#113,#114,#115,#116,#117,#118,#119,#120,#121,#122,#123,#124,#125,#126,#127,#128,#129,#130,#131,#132,#133,#134,#135),.UNSPECIFIED.,.F.,.F.,(4,1,1,1,1,1,1,1,1,1,1,1,1,1,1,1,1,1,1,1,1,1,4),(0.0,0.00803733955115115,0.0160746791023023,0.0321493582046046,0.0642987164092092,0.0964480746138138,0.128597432818418,0.192896149227628,0.257194865636837,0.321493582046046,0.385792298455255,0.514389731273673,0.642987164092092,0.707285880501301,0.77158459691051,0.835883313319719,0.900182029728929,0.932331387933533,0.964480746138138,0.996630104342742,1.01270478344504,1.0207421229962,1.02877946254735),.UNSPECIFIED.);
#79=CARTESIAN_POINT('',(-1.58567909238627E-05,0.100112602114677,0.000591464282479137));
#80=CARTESIAN_POINT('',(-5.25014485738864E-34,0.0900259241461754,-2.00809929539712E-34));
#81=CARTESIAN_POINT('',(-7.92839546193136E-06,0.0950692631304264,0.000295732141239569));
#82=VECTOR('',#136,1.0);
#83=CARTESIAN_POINT('',(-5.42369247858002E-35,0.0100007485598326,-5.60902110160165E-35));
#84=CARTESIAN_POINT('',(-1.03947633828521E-34,0.050013336353004,-3.68701379563844E-35));
#85=VECTOR('',#137,1.0);
#86=CARTESIAN_POINT('',(-1.07999567262596E-05,-7.31275285943411E-05,0.00154385587666184));
#87=CARTESIAN_POINT('',(-5.39997836312978E-06,0.00496381051561912,0.000771927938330919));
#88=VECTOR('',#138,1.0);
#89=CARTESIAN_POINT('',(0.841326475143433,-0.000320877763442695,-0.50948691368103));
#90=CARTESIAN_POINT('',(-1.07999567262596E-05,-7.31275285943411E-05,0.00154385587666184));
#91=CARTESIAN_POINT('',(0.0428515361603957,-0.000101857440142024,0.0003530087940656));
#92=CARTESIAN_POINT('',(0.128444555694558,-8.05634943563744E-05,-0.00730855438730221));
#93=CARTESIAN_POINT('',(0.254169737568742,-0.000106569241916806,-0.0358659359657007));
#94=CARTESIAN_POINT('',(0.375078243331864,-0.000125889710036756,-0.0805723260321583));
#95=CARTESIAN_POINT('',(0.4891211031742,-0.000155279390187291,-0.140677387653786));
#96=CARTESIAN_POINT('',(0.576880650513216,-0.000184452832296933,-0.202622743522418));
#97=CARTESIAN_POINT('',(0.641905996325654,-0.000210695781581797,-0.258601834949143));
#98=CARTESIAN_POINT('',(0.687904805788655,-0.000231149213280375,-0.303603535675612));
#99=CARTESIAN_POINT('',(0.730964181452942,-0.000253238689278913,-0.351425265820133));
#100=CARTESIAN_POINT('',(0.764265236875891,-0.000272233869229553,-0.393457001639868));
#101=CARTESIAN_POINT('',(0.789302096926479,-0.00028800772450015,-0.428274138772468));
#102=CARTESIAN_POINT('',(0.807238565522566,-0.000300001995155244,-0.454971416980427));
#103=CARTESIAN_POINT('',(0.821553516840317,-0.000310051970162507,-0.477629453380907));
#104=CARTESIAN_POINT('',(0.83106712107404,-0.0003167432301091,-0.493805218184152));
#105=CARTESIAN_POINT('',(0.83647350340982,-0.000319599642651596,-0.503057523424917));
#106=CARTESIAN_POINT('',(0.83972173518044,-0.000320444888548617,-0.507340559557236));
#107=CARTESIAN_POINT('',(0.841326475143433,-0.000320877763442695,-0.50948691368103));
#108=CARTESIAN_POINT('',(0.840925216674805,0.0997963696718216,-0.509741246700287));
#109=CARTESIAN_POINT('',(0.841125845909119,0.0497377459541894,-0.509613156318665));
#110=VECTOR('',#139,1.0);
#111=CARTESIAN_POINT('',(0.840925216674805,0.0997963696718216,-0.509741246700287));
#112=CARTESIAN_POINT('',(0.839349787633514,0.0997982555440625,-0.507574297870593));
#113=CARTESIAN_POINT('',(0.836165367314838,0.0998020633562127,-0.503249900586849));
#114=CARTESIAN_POINT('',(0.83076095556616,0.0998081997869202,-0.493999310480162));
#115=CARTESIAN_POINT('',(0.821237450590279,0.0998169449480328,-0.477837672272548));
#116=CARTESIAN_POINT('',(0.806929620578412,0.0998298709854922,-0.455184137042152));
#117=CARTESIAN_POINT('',(0.788991268851251,0.0998431875889871,-0.428500141802265));
#118=CARTESIAN_POINT('',(0.76396396701869,0.099863920853496,-0.393692226721541));
#119=CARTESIAN_POINT('',(0.730670977571045,0.0998866551708424,-0.351674974377457));
#120=CARTESIAN_POINT('',(0.687625886213327,0.0999131753525254,-0.303866737496907));
#121=CARTESIAN_POINT('',(0.641639975026549,0.0999374802489947,-0.258880094989634));
#122=CARTESIAN_POINT('',(0.576641405961298,0.0999683375844343,-0.202910068419958));
#123=CARTESIAN_POINT('',(0.488917566799651,0.100001731362804,-0.140970193608662));
#124=CARTESIAN_POINT('',(0.393921141394073,0.100027788441076,-0.0908823980944089));
#125=CARTESIAN_POINT('',(0.314494723059131,0.100044453734799,-0.0584893544417931));
#126=CARTESIAN_POINT('',(0.253463218664835,0.100054474300457,-0.0381432985167476));
#127=CARTESIAN_POINT('',(0.191228136242825,0.100062056156956,-0.0218458877415874));
#128=CARTESIAN_POINT('',(0.138583792230027,0.100066723007505,-0.0117054547291629));
#129=CARTESIAN_POINT('',(0.0961364479529019,0.100070080314317,-0.00569294681713616));
#130=CARTESIAN_POINT('',(0.0641693147033981,0.100071325066776,-0.00221567751620316));
#131=CARTESIAN_POINT('',(0.0374514402218918,0.100074530261835,-0.000246292413500844));
#132=CARTESIAN_POINT('',(0.0187190189512392,0.100068355787142,0.000796062013709275));
#133=CARTESIAN_POINT('',(0.00801264153797205,0.10006849374453,0.00119556004725933));
#134=CARTESIAN_POINT('',(0.00265643983935311,0.100098457170518,0.000781932367815773));
#135=CARTESIAN_POINT('',(-1.58567909238627E-05,0.100112602114677,0.000591464282479137));
#136=DIRECTION('',(0.00156935517462777,-0.99828397439805,-0.058537539958307));
#137=DIRECTION('',(-0.0,-1.0,-0.0));
#138=DIRECTION('',(-0.00105970280681627,-0.988459031550455,0.151484718623032));
#139=DIRECTION('',(-0.00399704703640106,0.99998879824905,-0.00253515116105568));
ENDSEC;
END-ISO-10303-21;
