ISO-10303-21;
HEADER;
FILE_DESCRIPTION(('STEP AP214'),'1');
FILE_NAME('SMAStripDeformed_12.stp','2026-01-09T03:16:56',(' '),(' '),'Spatial InterOp 3D',' ',' ');
FILE_SCHEMA(('AUTOMOTIVE_DESIGN { 1 0 10303 214 1 1 1 1 }'));
ENDSEC;
DATA;
#1=PRODUCT_DEFINITION_CONTEXT('',#9,'design');
#2=APPLICATION_PROTOCOL_DEFINITION('INTERNATIONAL STANDARD','automotive_design',1994,#9);
#3=PRODUCT_CATEGORY_RELATIONSHIP('NONE','NONE',#10,#11);
#4=SHAPE_DEFINITION_REPRESENTATION(#12,#13);
#5= (GEOMETRIC_REPRESENTATION_CONTEXT(3)GLOBAL_UNCERTAINTY_ASSIGNED_CONTEXT((#16))GLOBAL_UNIT_ASSIGNED_CONTEXT((#18,#19,#20))REPRESENTATION_CONTEXT('NONE','WORKSPACE'));
#9=APPLICATION_CONTEXT(' ');
#10=PRODUCT_CATEGORY('part','NONE');
#11=PRODUCT_RELATED_PRODUCT_CATEGORY('detail',' ',(#22));
#12=PRODUCT_DEFINITION_SHAPE('NONE','NONE',#23);
#13=MANIFOLD_SURFACE_SHAPE_REPRESENTATION('1',(#24,#25),#5);
#16=UNCERTAINTY_MEASURE_WITH_UNIT(LENGTH_MEASURE(1.0E-06),#18,'','');
#18= (CONVERSION_BASED_UNIT('MILLIMETRE',#28)LENGTH_UNIT()NAMED_UNIT(#31));
#19= (NAMED_UNIT(#33)PLANE_ANGLE_UNIT()SI_UNIT($,.RADIAN.));
#20= (NAMED_UNIT(#33)SOLID_ANGLE_UNIT()SI_UNIT($,.STERADIAN.));
#22=PRODUCT('1','','PART--DESC',(#39));
#23=PRODUCT_DEFINITION('','NONE',#40,#1);
#24=SHELL_BASED_SURFACE_MODEL('1',(#41));
#25=AXIS2_PLACEMENT_3D('',#42,#43,#44);
#28=LENGTH_MEASURE_WITH_UNIT(LENGTH_MEASURE(1.0),#45);
#31=DIMENSIONAL_EXPONENTS(1.0,0.0,0.0,0.0,0.0,0.0,0.0);
#33=DIMENSIONAL_EXPONENTS(0.0,0.0,0.0,0.0,0.0,0.0,0.0);
#39=PRODUCT_CONTEXT('',#9,'mechanical');
#40=PRODUCT_DEFINITION_FORMATION_WITH_SPECIFIED_SOURCE(' ','NONE',#22,.NOT_KNOWN.);
#41=CLOSED_SHELL('',(#46));
#42=CARTESIAN_POINT('',(0.0,0.0,0.0));
#43=DIRECTION('',(0.0,0.0,1.0));
#44=DIRECTION('',(1.0,0.0,0.0));
#45= (NAMED_UNIT(#31)LENGTH_UNIT()SI_UNIT(.MILLI.,.METRE.));
#46=FACE_SURFACE('',(#48),#49,.T.);
#48=FACE_BOUND('',#50,.T.);
#49=CYLINDRICAL_SURFACE('',#51,0.639167298117486);
#50=EDGE_LOOP('',(#52,#53,#54,#55,#56,#57,#58));
#51=AXIS2_PLACEMENT_3D('',#59,#60,#61);
#52=ORIENTED_EDGE('',*,*,#62,.T.);
#53=ORIENTED_EDGE('',*,*,#63,.T.);
#54=ORIENTED_EDGE('',*,*,#64,.T.);
#55=ORIENTED_EDGE('',*,*,#65,.T.);
#56=ORIENTED_EDGE('',*,*,#66,.T.);
#57=ORIENTED_EDGE('',*,*,#67,.T.);
#58=ORIENTED_EDGE('',*,*,#68,.T.);
#59=CARTESIAN_POINT('',(-0.0604103961618781,-0.00146545758367117,-0.629136988885855));
#60=DIRECTION('',(0.00505191622173034,-0.999985538448336,0.00184418997932803));
#61=DIRECTION('',(0.0,0.00184421351335544,0.999998299436813));
#62=EDGE_CURVE('',#69,#70,#71,.T.);
#63=EDGE_CURVE('',#70,#72,#73,.T.);
#64=EDGE_CURVE('',#72,#74,#75,.T.);
#65=EDGE_CURVE('',#74,#76,#77,.T.);
#66=EDGE_CURVE('',#76,#78,#79,.T.);
#67=EDGE_CURVE('',#78,#80,#81,.T.);
#68=EDGE_CURVE('',#80,#69,#82,.T.);
#69=VERTEX_POINT('',#83);
#70=VERTEX_POINT('',#84);
#71=LINE('',#85,#86);
#72=VERTEX_POINT('',#87);
#73=LINE('',#88,#89);
#74=VERTEX_POINT('',#90);
#75=B_SPLINE_CURVE_WITH_KNOTS('',3,(#91,#92,#93,#94,#95,#96,#97,#98,#99,#100,#101),.UNSPECIFIED.,.F.,.F.,(4,1,1,1,1,1,1,1,4),(0.0,0.129529116947156,0.259058233894313,0.388587350841469,0.518116467788626,0.647645584735782,0.777174701682939,0.906703818630095,1.03623293557725),.UNSPECIFIED.);
#76=VERTEX_POINT('',#102);
#77=LINE('',#103,#104);
#78=VERTEX_POINT('',#105);
#79=B_SPLINE_CURVE_WITH_KNOTS('',3,(#106,#107,#108,#109,#110,#111,#112,#113,#114,#115),.UNSPECIFIED.,.F.,.F.,(4,1,1,1,1,1,1,4),(0.0,0.0252297307522213,0.0504594615044426,0.0630743268805532,0.0756891922566638,0.0819966249447192,0.0883040576327745,0.100918923008885),.UNSPECIFIED.);
#80=VERTEX_POINT('',#116);
#81=B_SPLINE_CURVE_WITH_KNOTS('',3,(#117,#118,#119,#120,#121,#122,#123,#124,#125,#126,#127,#128,#129),.UNSPECIFIED.,.F.,.F.,(4,1,1,1,1,1,1,1,1,1,4),(0.0,0.0653421602996473,0.130684320599295,0.261368641198589,0.392052961797884,0.522737282397178,0.653421602996473,0.784105923595768,0.914790244195062,0.98013240449471,1.04547456479436),.UNSPECIFIED.);
#82=LINE('',#130,#131);
#83=CARTESIAN_POINT('',(-5.06357966941124E-34,0.0900259241461754,-2.96668532154518E-34));
#84=CARTESIAN_POINT('',(-1.62743611286996E-34,0.0100007485598326,-6.59328410288675E-35));
#85=CARTESIAN_POINT('',(-5.54372089808666E-35,0.050013336353004,-3.72292377052361E-35));
#86=VECTOR('',#132,1.0);
#87=CARTESIAN_POINT('',(0.000227850090595894,-0.000102584956039209,0.00578903499990702));
#88=CARTESIAN_POINT('',(0.000113925045297947,0.00494908180189668,0.00289451749995351));
#89=VECTOR('',#133,1.0);
#90=CARTESIAN_POINT('',(0.573361277580261,-0.00125309103168547,-0.722233474254608));
#91=CARTESIAN_POINT('',(0.000227850090595894,-0.000102584956039209,0.00578903499990702));
#92=CARTESIAN_POINT('',(0.0432529118090371,-0.000265081944073425,0.00218115678705401));
#93=CARTESIAN_POINT('',(0.128617707026772,-0.000106139234482136,-0.0135807285911764));
#94=CARTESIAN_POINT('',(0.248834202963317,-0.000238724317758786,-0.0637590977129572));
#95=CARTESIAN_POINT('',(0.356077450169391,-0.00031697816768399,-0.137621350887947));
#96=CARTESIAN_POINT('',(0.445906296537468,-0.000449841369419618,-0.231889535926178));
#97=CARTESIAN_POINT('',(0.514848687146395,-0.000615563773871673,-0.342331063904262));
#98=CARTESIAN_POINT('',(0.560444593129686,-0.000791140440775297,-0.464239030991348));
#99=CARTESIAN_POINT('',(0.581488399157907,-0.00106488135667034,-0.59269941631386));
#100=CARTESIAN_POINT('',(0.578565658078333,-0.00109801843790649,-0.679372192163804));
#101=CARTESIAN_POINT('',(0.573361277580261,-0.00125309103168547,-0.722233474254608));
#102=CARTESIAN_POINT('',(0.576092302799225,-0.00133540853857994,-0.732463777065277));
#103=CARTESIAN_POINT('',(0.574726790189743,-0.00129424978513271,-0.727348625659943));
#104=VECTOR('',#134,1.0);
#105=CARTESIAN_POINT('',(0.571688830852509,0.0989079922437668,-0.732073187828064));
#106=CARTESIAN_POINT('',(0.576092302799225,-0.00133540853857994,-0.732463777065277));
#107=CARTESIAN_POINT('',(0.576203683733713,0.00707372854712516,-0.732488234922104));
#108=CARTESIAN_POINT('',(0.576373749626053,0.0238955720000071,-0.732533001436598));
#109=CARTESIAN_POINT('',(0.576229906152809,0.0449112343094386,-0.732553689535288));
#110=CARTESIAN_POINT('',(0.576085332783694,0.061748154813368,-0.732574461195643));
#111=CARTESIAN_POINT('',(0.575696059228777,0.0722211872558662,-0.732548933376991));
#112=CARTESIAN_POINT('',(0.575621540205048,0.0806604740673386,-0.732563839808951));
#113=CARTESIAN_POINT('',(0.576033993791992,0.0891755388205441,-0.732648574585838));
#114=CARTESIAN_POINT('',(0.573470521543612,0.0951065102891697,-0.732309748256886));
#115=CARTESIAN_POINT('',(0.571688830852509,0.0989079922437668,-0.732073187828064));
#116=CARTESIAN_POINT('',(0.000287972419755533,0.10026641190052,0.00551476934924722));
#117=CARTESIAN_POINT('',(0.571688830852509,0.0989079922437668,-0.732073187828064));
#118=CARTESIAN_POINT('',(0.574625011403024,0.0988944738790898,-0.710491287330239));
#119=CARTESIAN_POINT('',(0.578740916656827,0.0990399696568447,-0.667079919929396));
#120=CARTESIAN_POINT('',(0.578307842652918,0.0991793259110763,-0.579848167521413));
#121=CARTESIAN_POINT('',(0.562022258513708,0.0993956941624992,-0.471648669394501));
#122=CARTESIAN_POINT('',(0.51726367236939,0.099607455701844,-0.348166363142058));
#123=CARTESIAN_POINT('',(0.448696202232424,0.0997958068331664,-0.236120135004616));
#124=CARTESIAN_POINT('',(0.358733265656199,0.0999406451646409,-0.140369087985015));
#125=CARTESIAN_POINT('',(0.250926327950201,0.100071265566581,-0.0652320730170736));
#126=CARTESIAN_POINT('',(0.149982449261854,0.10007358944008,-0.0227866033956342));
#127=CARTESIAN_POINT('',(0.0652318042518607,0.100221460812648,-0.00203598021683164));
#128=CARTESIAN_POINT('',(0.0219898149335191,0.0999877080976348,0.00368388875033215));
#129=CARTESIAN_POINT('',(0.000287972419755533,0.10026641190052,0.00551476934924722));
#130=CARTESIAN_POINT('',(0.000143986209877767,0.0951461680233479,0.00275738467462361));
#131=VECTOR('',#135,1.0);
#132=DIRECTION('',(-0.0,-1.0,-0.0));
#133=DIRECTION('',(0.0195637366926785,-0.867495624451559,0.497059957916567));
#134=DIRECTION('',(0.257914465953865,-0.0077739581758229,-0.966136477846693));
#135=DIRECTION('',(-0.0247514469045763,-0.880177654317754,-0.473998589360586));
ENDSEC;
END-ISO-10303-21;
