ISO-10303-21;
HEADER;
FILE_DESCRIPTION(('STEP AP214'),'1');
FILE_NAME('SMAStripDeformed_08.stp','2026-01-09T03:14:28',(' '),(' '),'Spatial InterOp 3D',' ',' ');
FILE_SCHEMA(('AUTOMOTIVE_DESIGN { 1 0 10303 214 1 1 1 1 }'));
ENDSEC;
DATA;
#1=PRODUCT_DEFINITION_CONTEXT('',#9,'design');
#2=APPLICATION_PROTOCOL_DEFINITION('INTERNATIONAL STANDARD','automotive_design',1994,#9);
#3=PRODUCT_CATEGORY_RELATIONSHIP('NONE','NONE',#10,#11);
#4=SHAPE_DEFINITION_REPRESENTATION(#12,#13);
#5= (GEOMETRIC_REPRESENTATION_CONTEXT(3)GLOBAL_UNCERTAINTY_ASSIGNED_CONTEXT((#16))GLOBAL_UNIT_ASSIGNED_CONTEXT((#18,#19,#20))REPRESENTATION_CONTEXT('NONE','WORKSPACE'));
#9=APPLICATION_CONTEXT(' ');
#10=PRODUCT_CATEGORY('part','NONE');
#11=PRODUCT_RELATED_PRODUCT_CATEGORY('detail',' ',(#22));
#12=PRODUCT_DEFINITION_SHAPE('NONE','NONE',#23);
#13=MANIFOLD_SURFACE_SHAPE_REPRESENTATION('1',(#24,#25),#5);
#16=UNCERTAINTY_MEASURE_WITH_UNIT(LENGTH_MEASURE(1.0E-06),#18,'','');
#18= (CONVERSION_BASED_UNIT('MILLIMETRE',#28)LENGTH_UNIT()NAMED_UNIT(#31));
#19= (NAMED_UNIT(#33)PLANE_ANGLE_UNIT()SI_UNIT($,.RADIAN.));
#20= (NAMED_UNIT(#33)SOLID_ANGLE_UNIT()SI_UNIT($,.STERADIAN.));
#22=PRODUCT('1','','PART--DESC',(#39));
#23=PRODUCT_DEFINITION('','NONE',#40,#1);
#24=SHELL_BASED_SURFACE_MODEL('1',(#41));
#25=AXIS2_PLACEMENT_3D('',#42,#43,#44);
#28=LENGTH_MEASURE_WITH_UNIT(LENGTH_MEASURE(1.0),#45);
#31=DIMENSIONAL_EXPONENTS(1.0,0.0,0.0,0.0,0.0,0.0,0.0);
#33=DIMENSIONAL_EXPONENTS(0.0,0.0,0.0,0.0,0.0,0.0,0.0);
#39=PRODUCT_CONTEXT('',#9,'mechanical');
#40=PRODUCT_DEFINITION_FORMATION_WITH_SPECIFIED_SOURCE(' ','NONE',#22,.NOT_KNOWN.);
#41=CLOSED_SHELL('',(#46));
#42=CARTESIAN_POINT('',(0.0,0.0,0.0));
#43=DIRECTION('',(0.0,0.0,1.0));
#44=DIRECTION('',(1.0,0.0,0.0));
#45= (NAMED_UNIT(#31)LENGTH_UNIT()SI_UNIT(.MILLI.,.METRE.));
#46=FACE_SURFACE('',(#48),#49,.T.);
#48=FACE_BOUND('',#50,.T.);
#49=CYLINDRICAL_SURFACE('',#51,0.883574990005834);
#50=EDGE_LOOP('',(#52,#53,#54,#55,#56,#57));
#51=AXIS2_PLACEMENT_3D('',#58,#59,#60);
#52=ORIENTED_EDGE('',*,*,#61,.T.);
#53=ORIENTED_EDGE('',*,*,#62,.T.);
#54=ORIENTED_EDGE('',*,*,#63,.T.);
#55=ORIENTED_EDGE('',*,*,#64,.T.);
#56=ORIENTED_EDGE('',*,*,#65,.T.);
#57=ORIENTED_EDGE('',*,*,#66,.T.);
#58=CARTESIAN_POINT('',(-0.0345085642589124,-0.00139708361884268,-0.880078440264456));
#59=DIRECTION('',(0.00326333516855859,-0.999993610252482,0.00145948545221496));
#60=DIRECTION('',(8.00863564342446E-22,0.00145949322356742,0.999998934939198));
#61=EDGE_CURVE('',#67,#68,#69,.T.);
#62=EDGE_CURVE('',#68,#70,#71,.T.);
#63=EDGE_CURVE('',#70,#72,#73,.T.);
#64=EDGE_CURVE('',#72,#74,#75,.T.);
#65=EDGE_CURVE('',#74,#76,#77,.T.);
#66=EDGE_CURVE('',#76,#67,#78,.T.);
#67=VERTEX_POINT('',#79);
#68=VERTEX_POINT('',#80);
#69=LINE('',#81,#82);
#70=VERTEX_POINT('',#83);
#71=LINE('',#84,#85);
#72=VERTEX_POINT('',#86);
#73=B_SPLINE_CURVE_WITH_KNOTS('',3,(#87,#88,#89,#90,#91,#92,#93,#94,#95,#96,#97,#98,#99,#100,#101,#102,#103,#104,#105),.UNSPECIFIED.,.F.,.F.,(4,1,1,1,1,1,1,1,1,1,1,1,1,1,1,1,4),(0.0,0.129137806077538,0.258275612155077,0.387413418232615,0.516551224310154,0.645689030387693,0.710257933426462,0.774826836465231,0.839395739504,0.90396464254277,0.936249094062154,0.968533545581539,1.00081799710092,1.00888910998077,1.01696022286062,1.02503133574046,1.03310244862031),.UNSPECIFIED.);
#74=VERTEX_POINT('',#106);
#75=LINE('',#107,#108);
#76=VERTEX_POINT('',#109);
#77=CIRCLE('',#110,0.883827517700262);
#78=LINE('',#111,#112);
#79=CARTESIAN_POINT('',(-4.57361158346943E-34,0.0900259241461754,-2.02638971198942E-34));
#80=CARTESIAN_POINT('',(-5.85783789900471E-35,0.0100007485598326,-5.73247900291795E-35));
#81=CARTESIAN_POINT('',(-6.40963319958555E-35,0.050013336353004,-3.06931906493017E-35));
#82=VECTOR('',#113,1.0);
#83=CARTESIAN_POINT('',(3.83297174266772E-06,-7.84566946094856E-05,0.00214649457484484));
#84=CARTESIAN_POINT('',(1.91648587133386E-06,0.00496114593261154,0.00107324728742242));
#85=VECTOR('',#114,1.0);
#86=CARTESIAN_POINT('',(0.793752133846283,-0.000416089373175055,-0.565958201885223));
#87=CARTESIAN_POINT('',(3.83297174266772E-06,-7.84566946094856E-05,0.00214649457484484));
#88=CARTESIAN_POINT('',(0.0430229460783937,-0.00013070783377861,0.000628032101721318));
#89=CARTESIAN_POINT('',(0.128869204623591,-8.41769823931152E-05,-0.00840056207684894));
#90=CARTESIAN_POINT('',(0.254140267704158,-0.000122632969812858,-0.0412816381365453));
#91=CARTESIAN_POINT('',(0.373147904889091,-0.000144672638524561,-0.0923155415261322));
#92=CARTESIAN_POINT('',(0.483327093056512,-0.000183091637401351,-0.160349506916116));
#93=CARTESIAN_POINT('',(0.56587783460706,-0.000221728593725109,-0.229831666437342));
#94=CARTESIAN_POINT('',(0.625387142801119,-0.00025746997940847,-0.292122509738621));
#95=CARTESIAN_POINT('',(0.666549485792671,-0.000285876026074526,-0.341924343877216));
#96=CARTESIAN_POINT('',(0.704051605978719,-0.000316856986826663,-0.394536034809462));
#97=CARTESIAN_POINT('',(0.732130576682822,-0.000343601715537489,-0.440476628493301));
#98=CARTESIAN_POINT('',(0.752592701409054,-0.000366154544882059,-0.47835502737003));
#99=CARTESIAN_POINT('',(0.767001566591589,-0.000383562336836188,-0.507251789725513));
#100=CARTESIAN_POINT('',(0.776857727165386,-0.000396547965049514,-0.529378420756284));
#101=CARTESIAN_POINT('',(0.783388775288123,-0.000404821514251436,-0.544130670121172));
#102=CARTESIAN_POINT('',(0.78629720724427,-0.000407800265733965,-0.551678157854458));
#103=CARTESIAN_POINT('',(0.789409790189797,-0.00041071192121434,-0.559114510286084));
#104=CARTESIAN_POINT('',(0.792323026096731,-0.000414332928667021,-0.563678784447103));
#105=CARTESIAN_POINT('',(0.793752133846283,-0.000416089373175055,-0.565958201885223));
#106=CARTESIAN_POINT('',(0.792125225067139,0.0997091978788376,-0.566641330718994));
#107=CARTESIAN_POINT('',(0.792938679456711,0.0496465542528313,-0.566299766302109));
#108=VECTOR('',#115,1.0);
#109=CARTESIAN_POINT('',(2.03364979824983E-05,0.100119479000568,0.00196246360428631));
#110=AXIS2_PLACEMENT_3D('',#116,#117,#118);
#111=CARTESIAN_POINT('',(1.01682489912491E-05,0.0950727015733719,0.000981231802143157));
#112=VECTOR('',#119,1.0);
#113=DIRECTION('',(-0.0,-1.0,-0.0));
#114=DIRECTION('',(0.000371944200769011,-0.978066678921316,0.208291702286335));
#115=DIRECTION('',(-0.00957842486270805,0.999945297081289,-0.00420197836280391));
#116=CARTESIAN_POINT('',(-0.0351006073338327,0.0995322890673486,-0.880450354068456));
#117=DIRECTION('',(-2.2705043517885E-06,-0.999999794943418,0.000640396725643133));
#118=DIRECTION('',(0.0,0.000640396725644784,0.999999794945996));
#119=DIRECTION('',(-0.00197776149164838,-0.981616604886397,-0.190853162066508));
ENDSEC;
END-ISO-10303-21;
