ISO-10303-21;
HEADER;
FILE_DESCRIPTION(('STEP AP214'),'1');
FILE_NAME('SMAStripDeformed_02.stp','2026-01-09T03:10:36',(' '),(' '),'Spatial InterOp 3D',' ',' ');
FILE_SCHEMA(('AUTOMOTIVE_DESIGN { 1 0 10303 214 1 1 1 1 }'));
ENDSEC;
DATA;
#1=PRODUCT_DEFINITION_CONTEXT('',#9,'design');
#2=APPLICATION_PROTOCOL_DEFINITION('INTERNATIONAL STANDARD','automotive_design',1994,#9);
#3=PRODUCT_CATEGORY_RELATIONSHIP('NONE','NONE',#10,#11);
#4=SHAPE_DEFINITION_REPRESENTATION(#12,#13);
#5= (GEOMETRIC_REPRESENTATION_CONTEXT(3)GLOBAL_UNCERTAINTY_ASSIGNED_CONTEXT((#16))GLOBAL_UNIT_ASSIGNED_CONTEXT((#18,#19,#20))REPRESENTATION_CONTEXT('NONE','WORKSPACE'));
#9=APPLICATION_CONTEXT(' ');
#10=PRODUCT_CATEGORY('part','NONE');
#11=PRODUCT_RELATED_PRODUCT_CATEGORY('detail',' ',(#22));
#12=PRODUCT_DEFINITION_SHAPE('NONE','NONE',#23);
#13=MANIFOLD_SURFACE_SHAPE_REPRESENTATION('1',(#24,#25),#5);
#16=UNCERTAINTY_MEASURE_WITH_UNIT(LENGTH_MEASURE(1.0E-06),#18,'','');
#18= (CONVERSION_BASED_UNIT('MILLIMETRE',#28)LENGTH_UNIT()NAMED_UNIT(#31));
#19= (NAMED_UNIT(#33)PLANE_ANGLE_UNIT()SI_UNIT($,.RADIAN.));
#20= (NAMED_UNIT(#33)SOLID_ANGLE_UNIT()SI_UNIT($,.STERADIAN.));
#22=PRODUCT('1','','PART--DESC',(#39));
#23=PRODUCT_DEFINITION('','NONE',#40,#1);
#24=SHELL_BASED_SURFACE_MODEL('1',(#41));
#25=AXIS2_PLACEMENT_3D('',#42,#43,#44);
#28=LENGTH_MEASURE_WITH_UNIT(LENGTH_MEASURE(1.0),#45);
#31=DIMENSIONAL_EXPONENTS(1.0,0.0,0.0,0.0,0.0,0.0,0.0);
#33=DIMENSIONAL_EXPONENTS(0.0,0.0,0.0,0.0,0.0,0.0,0.0);
#39=PRODUCT_CONTEXT('',#9,'mechanical');
#40=PRODUCT_DEFINITION_FORMATION_WITH_SPECIFIED_SOURCE(' ','NONE',#22,.NOT_KNOWN.);
#41=CLOSED_SHELL('',(#46));
#42=CARTESIAN_POINT('',(0.0,0.0,0.0));
#43=DIRECTION('',(0.0,0.0,1.0));
#44=DIRECTION('',(1.0,0.0,0.0));
#45= (NAMED_UNIT(#31)LENGTH_UNIT()SI_UNIT(.MILLI.,.METRE.));
#46=FACE_SURFACE('',(#48),#49,.T.);
#48=FACE_BOUND('',#50,.T.);
#49=CYLINDRICAL_SURFACE('',#51,3.30981016667476);
#50=EDGE_LOOP('',(#52,#53,#54,#55,#56));
#51=AXIS2_PLACEMENT_3D('',#57,#58,#59);
#52=ORIENTED_EDGE('',*,*,#60,.T.);
#53=ORIENTED_EDGE('',*,*,#61,.T.);
#54=ORIENTED_EDGE('',*,*,#62,.T.);
#55=ORIENTED_EDGE('',*,*,#63,.T.);
#56=ORIENTED_EDGE('',*,*,#64,.T.);
#57=CARTESIAN_POINT('',(-0.0184057436193463,-0.0012941961135146,-3.30905635098388));
#58=DIRECTION('',(-0.000938761543942941,-0.999999480825022,0.000396328713769737));
#59=DIRECTION('',(0.0,0.000396328888406796,0.999999921461703));
#60=EDGE_CURVE('',#65,#66,#67,.T.);
#61=EDGE_CURVE('',#66,#68,#69,.T.);
#62=EDGE_CURVE('',#68,#70,#71,.T.);
#63=EDGE_CURVE('',#70,#72,#73,.T.);
#64=EDGE_CURVE('',#72,#65,#74,.T.);
#65=VERTEX_POINT('',#75);
#66=VERTEX_POINT('',#76);
#67=CIRCLE('',#77,3.3118290234463);
#68=VERTEX_POINT('',#78);
#69=LINE('',#79,#80);
#70=VERTEX_POINT('',#81);
#71=LINE('',#82,#83);
#72=VERTEX_POINT('',#84);
#73=CIRCLE('',#85,3.31533786927941);
#74=LINE('',#86,#87);
#75=CARTESIAN_POINT('',(0.99217301607132,0.0999894663691521,-0.1574726998806));
#76=CARTESIAN_POINT('',(-4.58922528547357E-38,0.100007481873035,1.36576615955447E-38));
#77=AXIS2_PLACEMENT_3D('',#88,#89,#90);
#78=CARTESIAN_POINT('',(-2.52590524570056E-34,0.0100007485598326,-1.87396629251446E-35));
#79=CARTESIAN_POINT('',(3.41067160414942E-35,0.055004115216434,1.83600020696608E-35));
#80=VECTOR('',#91,1.0);
#81=CARTESIAN_POINT('',(2.05899596039671E-06,-6.57748796584201E-06,0.000588588474784046));
#82=CARTESIAN_POINT('',(1.02949798019836E-06,0.00499708553593337,0.000294294237392023));
#83=VECTOR('',#92,1.0);
#84=CARTESIAN_POINT('',(0.992186486721039,-4.51009691460058E-05,-0.157463729381561));
#85=AXIS2_PLACEMENT_3D('',#93,#94,#95);
#86=CARTESIAN_POINT('',(0.992297649383545,0.049972182700003,-0.157025888562202));
#87=VECTOR('',#96,1.0);
#88=CARTESIAN_POINT('',(-0.0192408421468324,0.0992966899783298,-3.31120155333139));
#89=DIRECTION('',(4.54693233946432E-06,-0.9999999761361,0.000218419606556292));
#90=DIRECTION('',(0.0,0.000218419606558549,0.999999976146437));
#91=DIRECTION('',(-0.0,-1.0,-0.0));
#92=DIRECTION('',(0.000205393906903389,-0.998274806822513,0.0587142902266351));
#93=CARTESIAN_POINT('',(-0.0198937633752897,0.00107123428085176,-3.31464419639255));
#94=DIRECTION('',(8.33698757350123E-05,0.999999943350434,0.00032611132066425));
#95=DIRECTION('',(0.0,-0.000326111321797575,0.999999946825701));
#96=DIRECTION('',(-5.86554016900616E-05,0.999999991067021,-0.000120106214238981));
ENDSEC;
END-ISO-10303-21;
