ISO-10303-21;
HEADER;
FILE_DESCRIPTION(('STEP AP214'),'1');
FILE_NAME('SMAStripDeformed_04.stp','2026-01-09T03:11:56',(' '),(' '),'Spatial InterOp 3D',' ',' ');
FILE_SCHEMA(('AUTOMOTIVE_DESIGN { 1 0 10303 214 1 1 1 1 }'));
ENDSEC;
DATA;
#1=PRODUCT_DEFINITION_CONTEXT('',#9,'design');
#2=APPLICATION_PROTOCOL_DEFINITION('INTERNATIONAL STANDARD','automotive_design',1994,#9);
#3=PRODUCT_CATEGORY_RELATIONSHIP('NONE','NONE',#10,#11);
#4=SHAPE_DEFINITION_REPRESENTATION(#12,#13);
#5= (GEOMETRIC_REPRESENTATION_CONTEXT(3)GLOBAL_UNCERTAINTY_ASSIGNED_CONTEXT((#16))GLOBAL_UNIT_ASSIGNED_CONTEXT((#18,#19,#20))REPRESENTATION_CONTEXT('NONE','WORKSPACE'));
#9=APPLICATION_CONTEXT(' ');
#10=PRODUCT_CATEGORY('part','NONE');
#11=PRODUCT_RELATED_PRODUCT_CATEGORY('detail',' ',(#22));
#12=PRODUCT_DEFINITION_SHAPE('NONE','NONE',#23);
#13=MANIFOLD_SURFACE_SHAPE_REPRESENTATION('1',(#24,#25),#5);
#16=UNCERTAINTY_MEASURE_WITH_UNIT(LENGTH_MEASURE(1.0E-06),#18,'','');
#18= (CONVERSION_BASED_UNIT('MILLIMETRE',#28)LENGTH_UNIT()NAMED_UNIT(#31));
#19= (NAMED_UNIT(#33)PLANE_ANGLE_UNIT()SI_UNIT($,.RADIAN.));
#20= (NAMED_UNIT(#33)SOLID_ANGLE_UNIT()SI_UNIT($,.STERADIAN.));
#22=PRODUCT('1','','PART--DESC',(#39));
#23=PRODUCT_DEFINITION('','NONE',#40,#1);
#24=SHELL_BASED_SURFACE_MODEL('1',(#41));
#25=AXIS2_PLACEMENT_3D('',#42,#43,#44);
#28=LENGTH_MEASURE_WITH_UNIT(LENGTH_MEASURE(1.0),#45);
#31=DIMENSIONAL_EXPONENTS(1.0,0.0,0.0,0.0,0.0,0.0,0.0);
#33=DIMENSIONAL_EXPONENTS(0.0,0.0,0.0,0.0,0.0,0.0,0.0);
#39=PRODUCT_CONTEXT('',#9,'mechanical');
#40=PRODUCT_DEFINITION_FORMATION_WITH_SPECIFIED_SOURCE(' ','NONE',#22,.NOT_KNOWN.);
#41=CLOSED_SHELL('',(#46));
#42=CARTESIAN_POINT('',(0.0,0.0,0.0));
#43=DIRECTION('',(0.0,0.0,1.0));
#44=DIRECTION('',(1.0,0.0,0.0));
#45= (NAMED_UNIT(#31)LENGTH_UNIT()SI_UNIT(.MILLI.,.METRE.));
#46=FACE_SURFACE('',(#48),#49,.T.);
#48=FACE_BOUND('',#50,.T.);
#49=CYLINDRICAL_SURFACE('',#51,1.67901786568062);
#50=EDGE_LOOP('',(#52,#53,#54,#55,#56,#57));
#51=AXIS2_PLACEMENT_3D('',#58,#59,#60);
#52=ORIENTED_EDGE('',*,*,#61,.T.);
#53=ORIENTED_EDGE('',*,*,#62,.T.);
#54=ORIENTED_EDGE('',*,*,#63,.T.);
#55=ORIENTED_EDGE('',*,*,#64,.T.);
#56=ORIENTED_EDGE('',*,*,#65,.T.);
#57=ORIENTED_EDGE('',*,*,#66,.T.);
#58=CARTESIAN_POINT('',(-0.0206675653178143,-0.000179809432167118,-1.67792116234006));
#59=DIRECTION('',(0.000415493766046041,0.999999907379084,-0.000112279804655663));
#60=DIRECTION('',(0.0,-0.00011227981434738,-0.999999993696622));
#61=EDGE_CURVE('',#67,#68,#69,.T.);
#62=EDGE_CURVE('',#68,#70,#71,.T.);
#63=EDGE_CURVE('',#70,#72,#73,.T.);
#64=EDGE_CURVE('',#72,#74,#75,.T.);
#65=EDGE_CURVE('',#74,#76,#77,.T.);
#66=EDGE_CURVE('',#76,#67,#78,.T.);
#67=VERTEX_POINT('',#79);
#68=VERTEX_POINT('',#80);
#69=LINE('',#81,#82);
#70=VERTEX_POINT('',#83);
#71=LINE('',#84,#85);
#72=VERTEX_POINT('',#86);
#73=CIRCLE('',#87,1.68362709685449);
#74=VERTEX_POINT('',#88);
#75=LINE('',#89,#90);
#76=VERTEX_POINT('',#91);
#77=CIRCLE('',#92,1.68067007265952);
#78=LINE('',#93,#94);
#79=CARTESIAN_POINT('',(-2.00923782596074E-34,0.0900259241461754,1.52785036090386E-35));
#80=CARTESIAN_POINT('',(1.80335641889894E-35,0.0100007485598326,-4.45905931459869E-35));
#81=CARTESIAN_POINT('',(1.96385961142167E-35,0.050013336353004,3.06614758346754E-35));
#82=VECTOR('',#95,1.0);
#83=CARTESIAN_POINT('',(-1.02310277725337E-05,-2.52834943239577E-05,0.000712153501808643));
#84=CARTESIAN_POINT('',(-5.11551388626685E-06,0.00498773253275431,0.000356076750904322));
#85=VECTOR('',#96,1.0);
#86=CARTESIAN_POINT('',(0.952715218067169,-8.26631294330582E-05,-0.308986902236938));
#87=AXIS2_PLACEMENT_3D('',#97,#98,#99);
#88=CARTESIAN_POINT('',(0.952251434326172,0.0999832451343536,-0.309620797634125));
#89=CARTESIAN_POINT('',(0.952519446611404,0.0499502910024603,-0.309222757816315));
#90=VECTOR('',#100,1.0);
#91=CARTESIAN_POINT('',(5.75315880269045E-06,0.100029066205025,0.000641829974483699));
#92=AXIS2_PLACEMENT_3D('',#101,#102,#103);
#93=CARTESIAN_POINT('',(2.87657940134523E-06,0.0950274951756001,0.000320914987241849));
#94=VECTOR('',#104,1.0);
#95=DIRECTION('',(-0.0,-1.0,-0.0));
#96=DIRECTION('',(-0.0010178812774707,-0.997486327096512,0.0708518960453079));
#97=CARTESIAN_POINT('',(-0.0225373622193493,0.000504829520169595,-1.68257610127732));
#98=DIRECTION('',(0.000154523209945649,0.999999937622064,0.000317613673829247));
#99=DIRECTION('',(0.0,-0.000317613677621145,0.999999949560775));
#100=DIRECTION('',(-0.00213398840825951,0.999993827223547,-0.00279134524506417));
#101=CARTESIAN_POINT('',(-0.0215698431802727,0.0999474799008353,-1.67972531074078));
#102=DIRECTION('',(-3.83647458364246E-05,-0.99999999779443,5.42151907099234E-05));
#103=DIRECTION('',(3.09364263838566E-25,5.42151907498218E-05,0.999999998530357));
#104=DIRECTION('',(-0.000573954839519269,-0.997947734797516,-0.0640311579494686));
ENDSEC;
END-ISO-10303-21;
