ISO-10303-21;
HEADER;
FILE_DESCRIPTION(('STEP AP214'),'1');
FILE_NAME('SMAStripDeformed_10.stp','2026-01-09T03:15:41',(' '),(' '),'Spatial InterOp 3D',' ',' ');
FILE_SCHEMA(('AUTOMOTIVE_DESIGN { 1 0 10303 214 1 1 1 1 }'));
ENDSEC;
DATA;
#1=PRODUCT_DEFINITION_CONTEXT('',#9,'design');
#2=APPLICATION_PROTOCOL_DEFINITION('INTERNATIONAL STANDARD','automotive_design',1994,#9);
#3=PRODUCT_CATEGORY_RELATIONSHIP('NONE','NONE',#10,#11);
#4=SHAPE_DEFINITION_REPRESENTATION(#12,#13);
#5= (GEOMETRIC_REPRESENTATION_CONTEXT(3)GLOBAL_UNCERTAINTY_ASSIGNED_CONTEXT((#16))GLOBAL_UNIT_ASSIGNED_CONTEXT((#18,#19,#20))REPRESENTATION_CONTEXT('NONE','WORKSPACE'));
#9=APPLICATION_CONTEXT(' ');
#10=PRODUCT_CATEGORY('part','NONE');
#11=PRODUCT_RELATED_PRODUCT_CATEGORY('detail',' ',(#22));
#12=PRODUCT_DEFINITION_SHAPE('NONE','NONE',#23);
#13=MANIFOLD_SURFACE_SHAPE_REPRESENTATION('1',(#24,#25),#5);
#16=UNCERTAINTY_MEASURE_WITH_UNIT(LENGTH_MEASURE(1.0E-06),#18,'','');
#18= (CONVERSION_BASED_UNIT('MILLIMETRE',#28)LENGTH_UNIT()NAMED_UNIT(#31));
#19= (NAMED_UNIT(#33)PLANE_ANGLE_UNIT()SI_UNIT($,.RADIAN.));
#20= (NAMED_UNIT(#33)SOLID_ANGLE_UNIT()SI_UNIT($,.STERADIAN.));
#22=PRODUCT('1','','PART--DESC',(#39));
#23=PRODUCT_DEFINITION('','NONE',#40,#1);
#24=SHELL_BASED_SURFACE_MODEL('1',(#41));
#25=AXIS2_PLACEMENT_3D('',#42,#43,#44);
#28=LENGTH_MEASURE_WITH_UNIT(LENGTH_MEASURE(1.0),#45);
#31=DIMENSIONAL_EXPONENTS(1.0,0.0,0.0,0.0,0.0,0.0,0.0);
#33=DIMENSIONAL_EXPONENTS(0.0,0.0,0.0,0.0,0.0,0.0,0.0);
#39=PRODUCT_CONTEXT('',#9,'mechanical');
#40=PRODUCT_DEFINITION_FORMATION_WITH_SPECIFIED_SOURCE(' ','NONE',#22,.NOT_KNOWN.);
#41=CLOSED_SHELL('',(#46));
#42=CARTESIAN_POINT('',(0.0,0.0,0.0));
#43=DIRECTION('',(0.0,0.0,1.0));
#44=DIRECTION('',(1.0,0.0,0.0));
#45= (NAMED_UNIT(#31)LENGTH_UNIT()SI_UNIT(.MILLI.,.METRE.));
#46=FACE_SURFACE('',(#48),#49,.T.);
#48=FACE_BOUND('',#50,.T.);
#49=CYLINDRICAL_SURFACE('',#51,0.73318158590632);
#50=EDGE_LOOP('',(#52,#53,#54,#55,#56,#57));
#51=AXIS2_PLACEMENT_3D('',#58,#59,#60);
#52=ORIENTED_EDGE('',*,*,#61,.T.);
#53=ORIENTED_EDGE('',*,*,#62,.T.);
#54=ORIENTED_EDGE('',*,*,#63,.T.);
#55=ORIENTED_EDGE('',*,*,#64,.T.);
#56=ORIENTED_EDGE('',*,*,#65,.T.);
#57=ORIENTED_EDGE('',*,*,#66,.T.);
#58=CARTESIAN_POINT('',(-0.0458641407171157,-0.00149557040429857,-0.727113784485047));
#59=DIRECTION('',(0.00458177486341017,-0.99998794098626,0.00176782950545904));
#60=DIRECTION('',(0.0,0.00176784806147387,0.999998437355395));
#61=EDGE_CURVE('',#67,#68,#69,.T.);
#62=EDGE_CURVE('',#68,#70,#71,.T.);
#63=EDGE_CURVE('',#70,#72,#73,.T.);
#64=EDGE_CURVE('',#72,#74,#75,.T.);
#65=EDGE_CURVE('',#74,#76,#77,.T.);
#66=EDGE_CURVE('',#76,#67,#78,.T.);
#67=VERTEX_POINT('',#79);
#68=VERTEX_POINT('',#80);
#69=B_SPLINE_CURVE_WITH_KNOTS('',3,(#81,#82,#83,#84,#85,#86,#87,#88,#89,#90,#91,#92,#93,#94,#95,#96,#97,#98,#99),.UNSPECIFIED.,.F.,.F.,(4,1,1,1,1,1,1,1,1,1,1,1,1,1,1,1,4),(0.0,0.129957826996173,0.259915653992347,0.38987348098852,0.519831307984694,0.649789134980867,0.714768048478954,0.779746961977041,0.844725875475127,0.909704788973214,0.942194245722258,0.974683702471301,1.00717315922034,1.01529552340761,1.02341788759487,1.03154025178213,1.03966261596939),.UNSPECIFIED.);
#70=VERTEX_POINT('',#100);
#71=LINE('',#101,#102);
#72=VERTEX_POINT('',#103);
#73=LINE('',#104,#105);
#74=VERTEX_POINT('',#106);
#75=LINE('',#107,#108);
#76=VERTEX_POINT('',#109);
#77=B_SPLINE_CURVE_WITH_KNOTS('',3,(#110,#111,#112,#113,#114,#115,#116,#117,#118,#119,#120),.UNSPECIFIED.,.F.,.F.,(4,1,1,1,1,1,1,1,4),(0.0,0.129997808254301,0.259995616508601,0.389993424762902,0.519991233017203,0.649989041271503,0.779986849525804,0.909984657780105,1.03998246603441),.UNSPECIFIED.);
#78=CIRCLE('',#121,0.707321790387128);
#79=CARTESIAN_POINT('',(0.685218989849091,0.0993214845657349,-0.661698818206787));
#80=CARTESIAN_POINT('',(9.86887062026653E-06,0.100243404507637,0.00194403517525643));
#81=CARTESIAN_POINT('',(0.685218989849091,0.0993214845657349,-0.661698818206787));
#82=CARTESIAN_POINT('',(0.680447740906333,0.0993876044892775,-0.618643151264373));
#83=CARTESIAN_POINT('',(0.664339747225657,0.0994966440402857,-0.533224756457134));
#84=CARTESIAN_POINT('',(0.618485978955018,0.0996549792718976,-0.411090879442498));
#85=CARTESIAN_POINT('',(0.552491724804654,0.0997926400998877,-0.298578572379865));
#86=CARTESIAN_POINT('',(0.467861760164431,0.0999091184146393,-0.19928027053072));
#87=CARTESIAN_POINT('',(0.383818903482459,0.0999860274222074,-0.130292810544761));
#88=CARTESIAN_POINT('',(0.309993003812099,0.100035035077113,-0.0847788159654917));
#89=CARTESIAN_POINT('',(0.251771006301478,0.100065477499717,-0.0557769637342791));
#90=CARTESIAN_POINT('',(0.191159858238378,0.100089739414652,-0.0321652332388975));
#91=CARTESIAN_POINT('',(0.139071402554777,0.100104723117385,-0.0171740458271128));
#92=CARTESIAN_POINT('',(0.0967104171321614,0.100114108517857,-0.00803531791785386));
#93=CARTESIAN_POINT('',(0.0646629064611304,0.10011910203123,-0.00271129531801899));
#94=CARTESIAN_POINT('',(0.0404646382085446,0.100122697270541,0.000407453091597982));
#95=CARTESIAN_POINT('',(0.0242938165838784,0.100118391727324,0.00170390975906608));
#96=CARTESIAN_POINT('',(0.0161927041381416,0.100104005688451,0.00258813678218961));
#97=CARTESIAN_POINT('',(0.00809767822147177,0.100123520390356,0.00310328216966695));
#98=CARTESIAN_POINT('',(0.00269196064714007,0.100204567276446,0.0023117123187584));
#99=CARTESIAN_POINT('',(9.86887062026653E-06,0.100243404507637,0.00194403517525643));
#100=CARTESIAN_POINT('',(-1.2790435793096E-34,0.0900259241461754,-5.64905563820803E-35));
#101=CARTESIAN_POINT('',(4.93443531013327E-06,0.0951346643269062,0.000972017587628216));
#102=VECTOR('',#122,1.0);
#103=CARTESIAN_POINT('',(-5.35972802235665E-34,0.0100007485598326,-2.61481027117615E-34));
#104=CARTESIAN_POINT('',(-8.3379651013748E-35,0.050013336353004,-4.52933241023064E-35));
#105=VECTOR('',#123,1.0);
#106=CARTESIAN_POINT('',(7.05296624801122E-05,-8.96414931048639E-05,0.00360362627543509));
#107=CARTESIAN_POINT('',(3.52648312400561E-05,0.00495555353336385,0.00180181313771755));
#108=VECTOR('',#124,1.0);
#109=CARTESIAN_POINT('',(0.685711145401001,-0.000849183590617031,-0.661502718925476));
#110=CARTESIAN_POINT('',(7.05296624801122E-05,-8.96414931048639E-05,0.00360362627543509));
#111=CARTESIAN_POINT('',(0.0433364839534276,-0.00020469370963203,0.00120395473652325));
#112=CARTESIAN_POINT('',(0.129483227333628,-9.11897606208105E-05,-0.0110139392552456));
#113=CARTESIAN_POINT('',(0.253161424397635,-0.000177762988616033,-0.0528443990427478));
#114=CARTESIAN_POINT('',(0.367265717864985,-0.000222677571621936,-0.116218329086475));
#115=CARTESIAN_POINT('',(0.468176333311693,-0.000305680919083593,-0.199000744519937));
#116=CARTESIAN_POINT('',(0.552864203867677,-0.000410819440410626,-0.298301008998761));
#117=CARTESIAN_POINT('',(0.618909326038317,-0.00052386432186899,-0.410830722207709));
#118=CARTESIAN_POINT('',(0.664805224474267,-0.000711984142725148,-0.5329921843221));
#119=CARTESIAN_POINT('',(0.680928074482254,-0.000710412096181682,-0.618435127441019));
#120=CARTESIAN_POINT('',(0.685711145401001,-0.000849183590617031,-0.661502718925476));
#121=AXIS2_PLACEMENT_3D('',#125,#126,#127);
#122=DIRECTION('',(-0.00094885848151515,-0.982376127292417,-0.186912397110343));
#123=DIRECTION('',(-0.0,-1.0,-0.0));
#124=DIRECTION('',(0.00658244883811341,-0.941724005822344,0.336322119738222));
#125=CARTESIAN_POINT('',(-0.0149557117640209,0.0414547287285686,-0.741208654414301));
#126=DIRECTION('',(-0.112922777245268,0.00132808843814357,0.993602879706131));
#127=DIRECTION('',(-0.993603755975059,0.0,-0.112922876833064));
ENDSEC;
END-ISO-10303-21;
