ISO-10303-21;
HEADER;
FILE_DESCRIPTION(('STEP AP214'),'1');
FILE_NAME('SMAStripDeformed_03.stp','2026-01-09T03:11:17',(' '),(' '),'Spatial InterOp 3D',' ',' ');
FILE_SCHEMA(('AUTOMOTIVE_DESIGN { 1 0 10303 214 1 1 1 1 }'));
ENDSEC;
DATA;
#1=PRODUCT_DEFINITION_CONTEXT('',#9,'design');
#2=APPLICATION_PROTOCOL_DEFINITION('INTERNATIONAL STANDARD','automotive_design',1994,#9);
#3=PRODUCT_CATEGORY_RELATIONSHIP('NONE','NONE',#10,#11);
#4=SHAPE_DEFINITION_REPRESENTATION(#12,#13);
#5= (GEOMETRIC_REPRESENTATION_CONTEXT(3)GLOBAL_UNCERTAINTY_ASSIGNED_CONTEXT((#16))GLOBAL_UNIT_ASSIGNED_CONTEXT((#18,#19,#20))REPRESENTATION_CONTEXT('NONE','WORKSPACE'));
#9=APPLICATION_CONTEXT(' ');
#10=PRODUCT_CATEGORY('part','NONE');
#11=PRODUCT_RELATED_PRODUCT_CATEGORY('detail',' ',(#22));
#12=PRODUCT_DEFINITION_SHAPE('NONE','NONE',#23);
#13=MANIFOLD_SURFACE_SHAPE_REPRESENTATION('1',(#24,#25),#5);
#16=UNCERTAINTY_MEASURE_WITH_UNIT(LENGTH_MEASURE(1.0E-06),#18,'','');
#18= (CONVERSION_BASED_UNIT('MILLIMETRE',#28)LENGTH_UNIT()NAMED_UNIT(#31));
#19= (NAMED_UNIT(#33)PLANE_ANGLE_UNIT()SI_UNIT($,.RADIAN.));
#20= (NAMED_UNIT(#33)SOLID_ANGLE_UNIT()SI_UNIT($,.STERADIAN.));
#22=PRODUCT('1','','PART--DESC',(#39));
#23=PRODUCT_DEFINITION('','NONE',#40,#1);
#24=SHELL_BASED_SURFACE_MODEL('1',(#41));
#25=AXIS2_PLACEMENT_3D('',#42,#43,#44);
#28=LENGTH_MEASURE_WITH_UNIT(LENGTH_MEASURE(1.0),#45);
#31=DIMENSIONAL_EXPONENTS(1.0,0.0,0.0,0.0,0.0,0.0,0.0);
#33=DIMENSIONAL_EXPONENTS(0.0,0.0,0.0,0.0,0.0,0.0,0.0);
#39=PRODUCT_CONTEXT('',#9,'mechanical');
#40=PRODUCT_DEFINITION_FORMATION_WITH_SPECIFIED_SOURCE(' ','NONE',#22,.NOT_KNOWN.);
#41=CLOSED_SHELL('',(#46));
#42=CARTESIAN_POINT('',(0.0,0.0,0.0));
#43=DIRECTION('',(0.0,0.0,1.0));
#44=DIRECTION('',(1.0,0.0,0.0));
#45= (NAMED_UNIT(#31)LENGTH_UNIT()SI_UNIT(.MILLI.,.METRE.));
#46=FACE_SURFACE('',(#48),#49,.T.);
#48=FACE_BOUND('',#50,.T.);
#49=CYLINDRICAL_SURFACE('',#51,2.22057930291565);
#50=EDGE_LOOP('',(#52,#53,#54,#55,#56));
#51=AXIS2_PLACEMENT_3D('',#57,#58,#59);
#52=ORIENTED_EDGE('',*,*,#60,.T.);
#53=ORIENTED_EDGE('',*,*,#61,.T.);
#54=ORIENTED_EDGE('',*,*,#62,.T.);
#55=ORIENTED_EDGE('',*,*,#63,.T.);
#56=ORIENTED_EDGE('',*,*,#64,.T.);
#57=CARTESIAN_POINT('',(-0.0190908267371065,-0.000720793338133803,-2.2196881641217));
#58=DIRECTION('',(0.00155858348954548,0.9999987282414,-0.000338131761285467));
#59=DIRECTION('',(7.60981426399178E-23,-0.000338132171978093,-0.999999942833316));
#60=EDGE_CURVE('',#65,#66,#67,.T.);
#61=EDGE_CURVE('',#66,#68,#69,.T.);
#62=EDGE_CURVE('',#68,#70,#71,.T.);
#63=EDGE_CURVE('',#70,#72,#73,.T.);
#64=EDGE_CURVE('',#72,#65,#74,.T.);
#65=VERTEX_POINT('',#75);
#66=VERTEX_POINT('',#76);
#67=LINE('',#77,#78);
#68=VERTEX_POINT('',#79);
#69=LINE('',#80,#81);
#70=VERTEX_POINT('',#82);
#71=CIRCLE('',#83,2.2259390852566);
#72=VERTEX_POINT('',#84);
#73=LINE('',#85,#86);
#74=CIRCLE('',#87,2.22286711247269);
#75=CARTESIAN_POINT('',(2.31480128984216E-38,0.100020132958889,1.49431945898363E-38));
#76=CARTESIAN_POINT('',(-9.37823871525962E-36,0.0100007485598326,-5.91031442342494E-35));
#77=CARTESIAN_POINT('',(6.09030740411979E-35,0.0550104407593608,1.91858241592838E-35));
#78=VECTOR('',#88,1.0);
#79=CARTESIAN_POINT('',(-5.12689894094365E-06,-1.65418241522275E-05,0.000612170959357172));
#80=CARTESIAN_POINT('',(-2.56344947047182E-06,0.00499210336784017,0.000306085479678586));
#81=VECTOR('',#89,1.0);
#82=CARTESIAN_POINT('',(0.976350605487823,-6.89234948367812E-05,-0.234242856502533));
#83=AXIS2_PLACEMENT_3D('',#90,#91,#92);
#84=CARTESIAN_POINT('',(0.976351320743561,0.0999862849712372,-0.234227508306503));
#85=CARTESIAN_POINT('',(0.976377338171005,0.0499586807382002,-0.234152585268021));
#86=VECTOR('',#93,0.999999999999999);
#87=AXIS2_PLACEMENT_3D('',#94,#95,#96);
#88=DIRECTION('',(-0.0,-1.0,-0.0));
#89=DIRECTION('',(-0.000510851870328621,-0.998137780211766,0.0609976290055207));
#90=CARTESIAN_POINT('',(-0.0207948243898936,0.000632999129096365,-2.22511422903181));
#91=DIRECTION('',(0.000112240720040094,0.999999950655057,0.000293414218189549));
#92=DIRECTION('',(-5.46697945666283E-24,-0.000293414220037762,0.999999956954047));
#93=DIRECTION('',(2.93393364861296E-06,0.999999991761675,0.000128327867113157));
#94=CARTESIAN_POINT('',(-0.0199182149384357,0.0997156552697774,-2.2221359675313));
#95=DIRECTION('',(-8.58799806319278E-06,-0.999999990011612,0.000141078068251049));
#96=DIRECTION('',(2.09439559053472E-25,0.000141078068256252,0.999999990048489));
ENDSEC;
END-ISO-10303-21;
