ISO-10303-21;
HEADER;
FILE_DESCRIPTION(('STEP AP214'),'1');
FILE_NAME('SMAStripDeformed_09.stp','2026-01-09T03:15:04',(' '),(' '),'Spatial InterOp 3D',' ',' ');
FILE_SCHEMA(('AUTOMOTIVE_DESIGN { 1 0 10303 214 1 1 1 1 }'));
ENDSEC;
DATA;
#1=PRODUCT_DEFINITION_CONTEXT('',#9,'design');
#2=APPLICATION_PROTOCOL_DEFINITION('INTERNATIONAL STANDARD','automotive_design',1994,#9);
#3=PRODUCT_CATEGORY_RELATIONSHIP('NONE','NONE',#10,#11);
#4=SHAPE_DEFINITION_REPRESENTATION(#12,#13);
#5= (GEOMETRIC_REPRESENTATION_CONTEXT(3)GLOBAL_UNCERTAINTY_ASSIGNED_CONTEXT((#16))GLOBAL_UNIT_ASSIGNED_CONTEXT((#18,#19,#20))REPRESENTATION_CONTEXT('NONE','WORKSPACE'));
#9=APPLICATION_CONTEXT(' ');
#10=PRODUCT_CATEGORY('part','NONE');
#11=PRODUCT_RELATED_PRODUCT_CATEGORY('detail',' ',(#22));
#12=PRODUCT_DEFINITION_SHAPE('NONE','NONE',#23);
#13=MANIFOLD_SURFACE_SHAPE_REPRESENTATION('1',(#24,#25),#5);
#16=UNCERTAINTY_MEASURE_WITH_UNIT(LENGTH_MEASURE(1.0E-06),#18,'','');
#18= (CONVERSION_BASED_UNIT('MILLIMETRE',#28)LENGTH_UNIT()NAMED_UNIT(#31));
#19= (NAMED_UNIT(#33)PLANE_ANGLE_UNIT()SI_UNIT($,.RADIAN.));
#20= (NAMED_UNIT(#33)SOLID_ANGLE_UNIT()SI_UNIT($,.STERADIAN.));
#22=PRODUCT('1','','PART--DESC',(#39));
#23=PRODUCT_DEFINITION('','NONE',#40,#1);
#24=SHELL_BASED_SURFACE_MODEL('1',(#41));
#25=AXIS2_PLACEMENT_3D('',#42,#43,#44);
#28=LENGTH_MEASURE_WITH_UNIT(LENGTH_MEASURE(1.0),#45);
#31=DIMENSIONAL_EXPONENTS(1.0,0.0,0.0,0.0,0.0,0.0,0.0);
#33=DIMENSIONAL_EXPONENTS(0.0,0.0,0.0,0.0,0.0,0.0,0.0);
#39=PRODUCT_CONTEXT('',#9,'mechanical');
#40=PRODUCT_DEFINITION_FORMATION_WITH_SPECIFIED_SOURCE(' ','NONE',#22,.NOT_KNOWN.);
#41=CLOSED_SHELL('',(#46));
#42=CARTESIAN_POINT('',(0.0,0.0,0.0));
#43=DIRECTION('',(0.0,0.0,1.0));
#44=DIRECTION('',(1.0,0.0,0.0));
#45= (NAMED_UNIT(#31)LENGTH_UNIT()SI_UNIT(.MILLI.,.METRE.));
#46=FACE_SURFACE('',(#48),#49,.T.);
#48=FACE_BOUND('',#50,.T.);
#49=CYLINDRICAL_SURFACE('',#51,0.799139071369527);
#50=EDGE_LOOP('',(#52,#53,#54,#55,#56,#57));
#51=AXIS2_PLACEMENT_3D('',#58,#59,#60);
#52=ORIENTED_EDGE('',*,*,#61,.T.);
#53=ORIENTED_EDGE('',*,*,#62,.T.);
#54=ORIENTED_EDGE('',*,*,#63,.T.);
#55=ORIENTED_EDGE('',*,*,#64,.T.);
#56=ORIENTED_EDGE('',*,*,#65,.T.);
#57=ORIENTED_EDGE('',*,*,#66,.T.);
#58=CARTESIAN_POINT('',(-0.0397998478475852,-0.00109866925058459,-0.794521338904273));
#59=DIRECTION('',(0.00522006522442227,-0.999985746702498,0.00112129875622811));
#60=DIRECTION('',(0.0,0.00112131403372062,0.999999371327221));
#61=EDGE_CURVE('',#67,#68,#69,.T.);
#62=EDGE_CURVE('',#68,#70,#71,.T.);
#63=EDGE_CURVE('',#70,#72,#73,.T.);
#64=EDGE_CURVE('',#72,#74,#75,.T.);
#65=EDGE_CURVE('',#74,#76,#77,.T.);
#66=EDGE_CURVE('',#76,#67,#78,.T.);
#67=VERTEX_POINT('',#79);
#68=VERTEX_POINT('',#80);
#69=LINE('',#81,#82);
#70=VERTEX_POINT('',#83);
#71=B_SPLINE_CURVE_WITH_KNOTS('',3,(#84,#85,#86,#87,#88,#89,#90,#91,#92,#93,#94,#95,#96,#97,#98,#99,#100,#101),.UNSPECIFIED.,.F.,.F.,(4,1,1,1,1,1,1,1,1,1,1,1,1,1,1,4),(0.0,0.129525729102825,0.259051458205651,0.388577187308476,0.518102916411301,0.647628645514127,0.712391510065539,0.777154374616952,0.841917239168365,0.906680103719777,0.939061535995484,0.97144296827119,1.0038244005469,1.02001511668475,1.02811047475368,1.0362058328226),.UNSPECIFIED.);
#72=VERTEX_POINT('',#102);
#73=LINE('',#103,#104);
#74=VERTEX_POINT('',#105);
#75=LINE('',#106,#107);
#76=VERTEX_POINT('',#108);
#77=LINE('',#109,#110);
#78=B_SPLINE_CURVE_WITH_KNOTS('',3,(#111,#112,#113,#114,#115,#116,#117,#118,#119,#120,#121,#122,#123,#124,#125,#126,#127,#128,#129,#130,#131,#132,#133,#134,#135,#136,#137),.UNSPECIFIED.,.F.,.F.,(4,1,1,1,1,1,1,1,1,1,1,1,1,1,1,1,1,1,1,1,1,1,1,1,4),(0.0,0.00809994444024101,0.016199888880482,0.032399777760964,0.0647995555219281,0.0971993332828921,0.129599111043856,0.194398666565784,0.259198222087712,0.32399777760964,0.388797333131568,0.518396444175424,0.647995555219281,0.712795110741209,0.777594666263137,0.842394221785065,0.874793999546029,0.907193777306993,0.939593555067957,0.971993332828921,1.00439311058988,1.01249305503013,1.02059299947037,1.02869294391061,1.03679288835085),.UNSPECIFIED.);
#79=CARTESIAN_POINT('',(0.742245256900787,-0.000624713604338467,-0.616665363311768));
#80=CARTESIAN_POINT('',(0.740010499954224,0.0995361357927322,-0.617292821407318));
#81=CARTESIAN_POINT('',(0.741127878427505,0.0494557110941969,-0.616979092359543));
#82=VECTOR('',#138,1.0);
#83=CARTESIAN_POINT('',(1.56955393322278E-05,0.100238658487797,0.0019637041259557));
#84=CARTESIAN_POINT('',(0.740010499954224,0.0995361357927322,-0.617292821407318));
#85=CARTESIAN_POINT('',(0.729691708245862,0.0995801097111616,-0.575368816171145));
#86=CARTESIAN_POINT('',(0.703150564210911,0.099656039938564,-0.492945613077008));
#87=CARTESIAN_POINT('',(0.644305192515657,0.0997675912246015,-0.377089282877929));
#88=CARTESIAN_POINT('',(0.568074075413477,0.0998663365893138,-0.27187469226841));
#89=CARTESIAN_POINT('',(0.475990858711994,0.0999510826081833,-0.180177671532319));
#90=CARTESIAN_POINT('',(0.387905421744411,0.100007666807748,-0.117173661400156));
#91=CARTESIAN_POINT('',(0.311966835928065,0.100043940935961,-0.0759114027279312));
#92=CARTESIAN_POINT('',(0.252658344213682,0.100066517032866,-0.0497591449489112));
#93=CARTESIAN_POINT('',(0.191390032771949,0.100084679065078,-0.0286008341820508));
#94=CARTESIAN_POINT('',(0.139046735842005,0.100095489950812,-0.0152606394603278));
#95=CARTESIAN_POINT('',(0.0966161265609275,0.100103133585433,-0.00722889838880826));
#96=CARTESIAN_POINT('',(0.0645704974245238,0.100104675284443,-0.00251497736618922));
#97=CARTESIAN_POINT('',(0.0377271058017024,0.100114476082207,0.000257016677953658));
#98=CARTESIAN_POINT('',(0.0188876240151324,0.100098378097278,0.00172482616179838));
#99=CARTESIAN_POINT('',(0.00811335874197142,0.100101890108731,0.00233674620596782));
#100=CARTESIAN_POINT('',(0.00271135656204766,0.100194755884801,0.0020782952700289));
#101=CARTESIAN_POINT('',(1.56955393322278E-05,0.100238658487797,0.0019637041259557));
#102=CARTESIAN_POINT('',(-8.83873545234656E-35,0.0900259241461754,-5.3722967431552E-35));
#103=CARTESIAN_POINT('',(7.84776966611389E-06,0.0951322913169861,0.00098185206297785));
#104=VECTOR('',#139,1.0);
#105=CARTESIAN_POINT('',(-5.37671391572603E-34,0.0100007485598326,-2.35131242176853E-34));
#106=CARTESIAN_POINT('',(-9.89308558238389E-35,0.050013336353004,-3.95407945407179E-35));
#107=VECTOR('',#140,1.0);
#108=CARTESIAN_POINT('',(-1.45808780871448E-06,-8.39798740344122E-05,0.00212716846726835));
#109=CARTESIAN_POINT('',(-7.29043904357241E-07,0.00495838434289908,0.00106358423363417));
#110=VECTOR('',#141,1.0);
#111=CARTESIAN_POINT('',(-1.45808780871448E-06,-8.39798740344122E-05,0.00212716846726835));
#112=CARTESIAN_POINT('',(0.0026962907009453,-8.89820966940079E-05,0.00223683360904779));
#113=CARTESIAN_POINT('',(0.00810173922824975,-9.93765293228144E-05,0.0024846015333921));
#114=CARTESIAN_POINT('',(0.0188827425320209,-0.00010708735438731,0.00188086550234167));
#115=CARTESIAN_POINT('',(0.0377337000329074,-0.000122488299491844,0.000427354396609071));
#116=CARTESIAN_POINT('',(0.0645941780466088,-0.00012684852684671,-0.00233015636349376));
#117=CARTESIAN_POINT('',(0.0966607736137886,-0.000123000800524187,-0.00702710871734738));
#118=CARTESIAN_POINT('',(0.139120045569369,-0.000115100811586248,-0.0150391923500952));
#119=CARTESIAN_POINT('',(0.191499987178882,-0.000123411187785404,-0.0283596790437038));
#120=CARTESIAN_POINT('',(0.252812904786821,-0.000146022212905462,-0.0495016253141156));
#121=CARTESIAN_POINT('',(0.312165230738425,-0.000165841933739682,-0.07564572699844));
#122=CARTESIAN_POINT('',(0.388160252742043,-0.000194579803920436,-0.116906486672614));
#123=CARTESIAN_POINT('',(0.476312921324913,-0.000244373253999681,-0.179925298020942));
#124=CARTESIAN_POINT('',(0.553093701435486,-0.000305928611739022,-0.256376975526395));
#125=CARTESIAN_POINT('',(0.606602808286852,-0.000363026163201497,-0.324300511556262));
#126=CARTESIAN_POINT('',(0.642556860562469,-0.00040887138272519,-0.378272205823914));
#127=CARTESIAN_POINT('',(0.668876759436524,-0.000450428345805606,-0.425471613952339));
#128=CARTESIAN_POINT('',(0.687664848842175,-0.000484654674673391,-0.464380978235916));
#129=CARTESIAN_POINT('',(0.700614042064434,-0.000511126762469257,-0.49408785426015));
#130=CARTESIAN_POINT('',(0.712375082387508,-0.000538472356685578,-0.524283724398317));
#131=CARTESIAN_POINT('',(0.723053097490631,-0.000566827510098689,-0.554879271451326));
#132=CARTESIAN_POINT('',(0.729912951026068,-0.000587586454820601,-0.578207335001955));
#133=CARTESIAN_POINT('',(0.734500100061941,-0.000601668973452662,-0.593726809953648));
#134=CARTESIAN_POINT('',(0.736316561711855,-0.000605887223553186,-0.601651811215989));
#135=CARTESIAN_POINT('',(0.738427784004306,-0.000611428794459777,-0.60945440571152));
#136=CARTESIAN_POINT('',(0.740998825574119,-0.000620394708847906,-0.61427030792873));
#137=CARTESIAN_POINT('',(0.742245256900787,-0.000624713604338467,-0.616665363311768));
#138=DIRECTION('',(-0.0154942770078579,0.999869319711507,-0.00461203638878083));
#139=DIRECTION('',(-0.00150921212816909,-0.982010379120643,-0.188820914037834));
#140=DIRECTION('',(-0.0,-1.0,-0.0));
#141=DIRECTION('',(-0.000141470877579188,-0.978470139562307,0.206388386230694));
ENDSEC;
END-ISO-10303-21;
