ISO-10303-21;
HEADER;
FILE_DESCRIPTION(('STEP AP214'),'1');
FILE_NAME('SMAStripDeformed_06.stp','2026-01-09T03:13:16',(' '),(' '),'Spatial InterOp 3D',' ',' ');
FILE_SCHEMA(('AUTOMOTIVE_DESIGN { 1 0 10303 214 1 1 1 1 }'));
ENDSEC;
DATA;
#1=PRODUCT_DEFINITION_CONTEXT('',#9,'design');
#2=APPLICATION_PROTOCOL_DEFINITION('INTERNATIONAL STANDARD','automotive_design',1994,#9);
#3=PRODUCT_CATEGORY_RELATIONSHIP('NONE','NONE',#10,#11);
#4=SHAPE_DEFINITION_REPRESENTATION(#12,#13);
#5= (GEOMETRIC_REPRESENTATION_CONTEXT(3)GLOBAL_UNCERTAINTY_ASSIGNED_CONTEXT((#16))GLOBAL_UNIT_ASSIGNED_CONTEXT((#18,#19,#20))REPRESENTATION_CONTEXT('NONE','WORKSPACE'));
#9=APPLICATION_CONTEXT(' ');
#10=PRODUCT_CATEGORY('part','NONE');
#11=PRODUCT_RELATED_PRODUCT_CATEGORY('detail',' ',(#22));
#12=PRODUCT_DEFINITION_SHAPE('NONE','NONE',#23);
#13=MANIFOLD_SURFACE_SHAPE_REPRESENTATION('1',(#24,#25),#5);
#16=UNCERTAINTY_MEASURE_WITH_UNIT(LENGTH_MEASURE(1.0E-06),#18,'','');
#18= (CONVERSION_BASED_UNIT('MILLIMETRE',#28)LENGTH_UNIT()NAMED_UNIT(#31));
#19= (NAMED_UNIT(#33)PLANE_ANGLE_UNIT()SI_UNIT($,.RADIAN.));
#20= (NAMED_UNIT(#33)SOLID_ANGLE_UNIT()SI_UNIT($,.STERADIAN.));
#22=PRODUCT('1','','PART--DESC',(#39));
#23=PRODUCT_DEFINITION('','NONE',#40,#1);
#24=SHELL_BASED_SURFACE_MODEL('1',(#41));
#25=AXIS2_PLACEMENT_3D('',#42,#43,#44);
#28=LENGTH_MEASURE_WITH_UNIT(LENGTH_MEASURE(1.0),#45);
#31=DIMENSIONAL_EXPONENTS(1.0,0.0,0.0,0.0,0.0,0.0,0.0);
#33=DIMENSIONAL_EXPONENTS(0.0,0.0,0.0,0.0,0.0,0.0,0.0);
#39=PRODUCT_CONTEXT('',#9,'mechanical');
#40=PRODUCT_DEFINITION_FORMATION_WITH_SPECIFIED_SOURCE(' ','NONE',#22,.NOT_KNOWN.);
#41=CLOSED_SHELL('',(#46));
#42=CARTESIAN_POINT('',(0.0,0.0,0.0));
#43=DIRECTION('',(0.0,0.0,1.0));
#44=DIRECTION('',(1.0,0.0,0.0));
#45= (NAMED_UNIT(#31)LENGTH_UNIT()SI_UNIT(.MILLI.,.METRE.));
#46=FACE_SURFACE('',(#48),#49,.T.);
#48=FACE_BOUND('',#50,.T.);
#49=CYLINDRICAL_SURFACE('',#51,1.14387551330555);
#50=EDGE_LOOP('',(#52,#53,#54,#55,#56,#57));
#51=AXIS2_PLACEMENT_3D('',#58,#59,#60);
#52=ORIENTED_EDGE('',*,*,#61,.T.);
#53=ORIENTED_EDGE('',*,*,#62,.T.);
#54=ORIENTED_EDGE('',*,*,#63,.T.);
#55=ORIENTED_EDGE('',*,*,#64,.T.);
#56=ORIENTED_EDGE('',*,*,#65,.T.);
#57=ORIENTED_EDGE('',*,*,#66,.T.);
#58=CARTESIAN_POINT('',(-0.0258009127475068,-0.00336691050994775,-1.14185457372031));
#59=DIRECTION('',(0.00506035365549048,-0.999983179805263,0.00283424195096002));
#60=DIRECTION('',(0.0,0.00283427824012762,0.999995983425362));
#61=EDGE_CURVE('',#67,#68,#69,.T.);
#62=EDGE_CURVE('',#68,#70,#71,.T.);
#63=EDGE_CURVE('',#70,#72,#73,.T.);
#64=EDGE_CURVE('',#72,#74,#75,.T.);
#65=EDGE_CURVE('',#74,#76,#77,.T.);
#66=EDGE_CURVE('',#76,#67,#78,.T.);
#67=VERTEX_POINT('',#79);
#68=VERTEX_POINT('',#80);
#69=CIRCLE('',#81,1.14487676341014);
#70=VERTEX_POINT('',#82);
#71=LINE('',#83,#84);
#72=VERTEX_POINT('',#85);
#73=LINE('',#86,#87);
#74=VERTEX_POINT('',#88);
#75=LINE('',#89,#90);
#76=VERTEX_POINT('',#91);
#77=CIRCLE('',#92,1.14443745091337);
#78=LINE('',#93,#94);
#79=CARTESIAN_POINT('',(0.883486866950989,0.100065983831882,-0.448136657476425));
#80=CARTESIAN_POINT('',(-8.25176721264143E-06,0.100077629089355,0.000610898132435977));
#81=AXIS2_PLACEMENT_3D('',#95,#96,#97);
#82=CARTESIAN_POINT('',(-4.35057863476206E-35,0.0900259241461754,-5.92854721324341E-35));
#83=CARTESIAN_POINT('',(-4.12588360632071E-06,0.0950517766177654,0.000305449066217989));
#84=VECTOR('',#98,1.0);
#85=CARTESIAN_POINT('',(-5.20548204136465E-34,0.0100007485598326,-1.95005995059149E-34));
#86=CARTESIAN_POINT('',(-1.04787538317508E-34,0.050013336353004,-4.27249493018188E-35));
#87=VECTOR('',#99,1.0);
#88=CARTESIAN_POINT('',(-1.41413775054389E-05,-3.617502443376E-05,0.00116914429236203));
#89=CARTESIAN_POINT('',(-7.07068875271943E-06,0.00498228676769941,0.000584572146181017));
#90=VECTOR('',#100,1.0);
#91=CARTESIAN_POINT('',(0.883807778358459,-2.41176167037338E-05,-0.447931110858917));
#92=AXIS2_PLACEMENT_3D('',#101,#102,#103);
#93=CARTESIAN_POINT('',(0.883944123983383,0.0500209331075894,-0.447789579629898));
#94=VECTOR('',#104,0.999999999999999);
#95=CARTESIAN_POINT('',(-0.0269694939857252,0.100127749955018,-1.14316423915387));
#96=DIRECTION('',(-1.72021235520594E-05,-0.99999999818691,-5.77084610723133E-05));
#97=DIRECTION('',(0.0,5.77084610808517E-05,-0.999999998334867));
#98=DIRECTION('',(0.000819419882325745,-0.99815793023046,-0.0606636206395682));
#99=DIRECTION('',(-0.0,-1.0,-0.0));
#100=DIRECTION('',(-0.00139947163165072,-0.993282996640493,0.115701901730417));
#101=CARTESIAN_POINT('',(-0.026378042817653,0.000169443228667676,-1.14256931675788));
#102=DIRECTION('',(7.06271887365409E-05,0.999999976368866,0.000205606583012727));
#103=DIRECTION('',(1.67274654031087E-24,0.00020560658352553,-0.999999978862966));
#104=DIRECTION('',(-0.00409148513562672,0.999987655863207,-0.00281919679933334));
ENDSEC;
END-ISO-10303-21;
