ISO-10303-21;
HEADER;
FILE_DESCRIPTION(('STEP AP214'),'1');
FILE_NAME('SMAStripDeformed_05.stp','2026-01-09T03:12:35',(' '),(' '),'Spatial InterOp 3D',' ',' ');
FILE_SCHEMA(('AUTOMOTIVE_DESIGN { 1 0 10303 214 1 1 1 1 }'));
ENDSEC;
DATA;
#1=PRODUCT_DEFINITION_CONTEXT('',#9,'design');
#2=APPLICATION_PROTOCOL_DEFINITION('INTERNATIONAL STANDARD','automotive_design',1994,#9);
#3=PRODUCT_CATEGORY_RELATIONSHIP('NONE','NONE',#10,#11);
#4=SHAPE_DEFINITION_REPRESENTATION(#12,#13);
#5= (GEOMETRIC_REPRESENTATION_CONTEXT(3)GLOBAL_UNCERTAINTY_ASSIGNED_CONTEXT((#16))GLOBAL_UNIT_ASSIGNED_CONTEXT((#18,#19,#20))REPRESENTATION_CONTEXT('NONE','WORKSPACE'));
#9=APPLICATION_CONTEXT(' ');
#10=PRODUCT_CATEGORY('part','NONE');
#11=PRODUCT_RELATED_PRODUCT_CATEGORY('detail',' ',(#22));
#12=PRODUCT_DEFINITION_SHAPE('NONE','NONE',#23);
#13=MANIFOLD_SURFACE_SHAPE_REPRESENTATION('1',(#24,#25),#5);
#16=UNCERTAINTY_MEASURE_WITH_UNIT(LENGTH_MEASURE(1.0E-06),#18,'','');
#18= (CONVERSION_BASED_UNIT('MILLIMETRE',#28)LENGTH_UNIT()NAMED_UNIT(#31));
#19= (NAMED_UNIT(#33)PLANE_ANGLE_UNIT()SI_UNIT($,.RADIAN.));
#20= (NAMED_UNIT(#33)SOLID_ANGLE_UNIT()SI_UNIT($,.STERADIAN.));
#22=PRODUCT('1','','PART--DESC',(#39));
#23=PRODUCT_DEFINITION('','NONE',#40,#1);
#24=SHELL_BASED_SURFACE_MODEL('1',(#41));
#25=AXIS2_PLACEMENT_3D('',#42,#43,#44);
#28=LENGTH_MEASURE_WITH_UNIT(LENGTH_MEASURE(1.0),#45);
#31=DIMENSIONAL_EXPONENTS(1.0,0.0,0.0,0.0,0.0,0.0,0.0);
#33=DIMENSIONAL_EXPONENTS(0.0,0.0,0.0,0.0,0.0,0.0,0.0);
#39=PRODUCT_CONTEXT('',#9,'mechanical');
#40=PRODUCT_DEFINITION_FORMATION_WITH_SPECIFIED_SOURCE(' ','NONE',#22,.NOT_KNOWN.);
#41=CLOSED_SHELL('',(#46));
#42=CARTESIAN_POINT('',(0.0,0.0,0.0));
#43=DIRECTION('',(0.0,0.0,1.0));
#44=DIRECTION('',(1.0,0.0,0.0));
#45= (NAMED_UNIT(#31)LENGTH_UNIT()SI_UNIT(.MILLI.,.METRE.));
#46=FACE_SURFACE('',(#48),#49,.T.);
#48=FACE_BOUND('',#50,.T.);
#49=CYLINDRICAL_SURFACE('',#51,1.35704251931065);
#50=EDGE_LOOP('',(#52,#53,#54,#55,#56,#57));
#51=AXIS2_PLACEMENT_3D('',#58,#59,#60);
#52=ORIENTED_EDGE('',*,*,#61,.T.);
#53=ORIENTED_EDGE('',*,*,#62,.T.);
#54=ORIENTED_EDGE('',*,*,#63,.T.);
#55=ORIENTED_EDGE('',*,*,#64,.T.);
#56=ORIENTED_EDGE('',*,*,#65,.T.);
#57=ORIENTED_EDGE('',*,*,#66,.T.);
#58=CARTESIAN_POINT('',(-0.0228639616452688,0.000724341715594663,-1.35565984603247));
#59=DIRECTION('',(-0.000495255266103068,0.999999730120078,0.000542661951376712));
#60=DIRECTION('',(3.95681659051183E-23,0.000542662017928183,-0.999999852758956));
#61=EDGE_CURVE('',#67,#68,#69,.T.);
#62=EDGE_CURVE('',#68,#70,#71,.T.);
#63=EDGE_CURVE('',#70,#72,#73,.T.);
#64=EDGE_CURVE('',#72,#74,#75,.T.);
#65=EDGE_CURVE('',#74,#76,#77,.T.);
#66=EDGE_CURVE('',#76,#67,#78,.T.);
#67=VERTEX_POINT('',#79);
#68=VERTEX_POINT('',#80);
#69=LINE('',#81,#82);
#70=VERTEX_POINT('',#83);
#71=CIRCLE('',#84,1.35820210351977);
#72=VERTEX_POINT('',#85);
#73=LINE('',#86,#87);
#74=VERTEX_POINT('',#88);
#75=LINE('',#89,#90);
#76=VERTEX_POINT('',#91);
#77=LINE('',#92,#93);
#78=B_SPLINE_CURVE_WITH_KNOTS('',3,(#94,#95,#96,#97,#98,#99,#100,#101,#102,#103,#104,#105,#106,#107,#108,#109,#110,#111,#112,#113,#114),.UNSPECIFIED.,.F.,.F.,(4,1,1,1,1,1,1,1,1,1,1,1,1,1,1,1,1,1,4),(0.0,0.031907196419855,0.0638143928397099,0.12762878567942,0.19144317851913,0.25525757135884,0.38288635703826,0.510515142717679,0.638143928397099,0.701958321236809,0.765772714076519,0.829587106916229,0.893401499755939,0.925308696175794,0.957215892595649,0.989123089015504,1.00507668722543,1.0130534863304,1.02103028543536),.UNSPECIFIED.);
#79=CARTESIAN_POINT('',(0.921872437000275,2.77142244158313E-05,-0.380208224058151));
#80=CARTESIAN_POINT('',(0.921223402023315,0.100107163190842,-0.380834698677063));
#81=CARTESIAN_POINT('',(0.921550124883652,0.0500674387076288,-0.380501240491867));
#82=VECTOR('',#115,1.0);
#83=CARTESIAN_POINT('',(-1.06610877992352E-06,0.100049048662186,0.000631782866548747));
#84=AXIS2_PLACEMENT_3D('',#116,#117,#118);
#85=CARTESIAN_POINT('',(-3.48678213699887E-36,0.0900259241461754,-3.54962272763942E-35));
#86=CARTESIAN_POINT('',(-5.33054389961762E-07,0.0950374864041805,0.000315891433274373));
#87=VECTOR('',#119,0.999999999999999);
#88=CARTESIAN_POINT('',(-4.6885331458291E-34,0.0100007485598326,-1.88855760402011E-34));
#89=CARTESIAN_POINT('',(-1.13785304724579E-34,0.050013336353004,-4.13552113971853E-35));
#90=VECTOR('',#120,1.0);
#91=CARTESIAN_POINT('',(-1.65430574270431E-05,-3.04701625282178E-05,0.000689718930516392));
#92=CARTESIAN_POINT('',(-8.27152871352155E-06,0.00498513919865218,0.000344859465258196));
#93=VECTOR('',#121,1.0);
#94=CARTESIAN_POINT('',(-1.65430574270431E-05,-3.04701625282178E-05,0.000689718930516392));
#95=CARTESIAN_POINT('',(0.0106189454468077,-4.80626344522809E-05,0.000759525334403057));
#96=CARTESIAN_POINT('',(0.0318849130470397,-4.7697555040632E-05,0.000104164116005946));
#97=CARTESIAN_POINT('',(0.0743744752482456,-5.55037623969403E-05,-0.00204344668286648));
#98=CARTESIAN_POINT('',(0.127370103097473,-5.7671096201249E-05,-0.0066467626040704));
#99=CARTESIAN_POINT('',(0.190630544344607,-6.230547467006E-05,-0.015169451416194));
#100=CARTESIAN_POINT('',(0.274341882109472,-6.55447382674796E-05,-0.0305382402686016));
#101=CARTESIAN_POINT('',(0.37743395566619,-6.61728305598624E-05,-0.0571723269226717));
#102=CARTESIAN_POINT('',(0.497571092000545,-6.04652027798455E-05,-0.100675904171237));
#103=CARTESIAN_POINT('',(0.593838536576758,-5.03408197171864E-05,-0.146165439161879));
#104=CARTESIAN_POINT('',(0.668059368192454,-3.91965382186838E-05,-0.187816623260618));
#105=CARTESIAN_POINT('',(0.722214451946117,-2.89629736827622E-05,-0.221605660844819));
#106=CARTESIAN_POINT('',(0.774752763520816,-1.78796595638722E-05,-0.25785753597934));
#107=CARTESIAN_POINT('',(0.817094516119126,-6.54842829865624E-06,-0.290054286427428));
#108=CARTESIAN_POINT('',(0.850065007803136,2.74109929278996E-06,-0.316944821667496));
#109=CARTESIAN_POINT('',(0.874310858256563,1.00416402556576E-05,-0.337689617536239));
#110=CARTESIAN_POINT('',(0.894168347371515,1.6467815872941E-05,-0.35537271338523));
#111=CARTESIAN_POINT('',(0.907751100706917,2.22353694291872E-05,-0.368106047108438));
#112=CARTESIAN_POINT('',(0.915518131560089,2.62595865816508E-05,-0.375366986141226));
#113=CARTESIAN_POINT('',(0.919763830059511,2.72064027144965E-05,-0.378588439691012));
#114=CARTESIAN_POINT('',(0.921872437000275,2.77142244158313E-05,-0.380208224058151));
#115=DIRECTION('',(-0.00435667755967204,0.999982379723157,-0.00403231990960655));
#116=CARTESIAN_POINT('',(-0.0237552705311203,0.100291456916085,-1.356936985625));
#117=DIRECTION('',(-1.04878802465609E-05,-0.999999983658848,-0.000180477997462281));
#118=DIRECTION('',(4.18604216508772E-25,0.000180477997472207,-0.999999983713846));
#119=DIRECTION('',(0.000106154242043363,-0.998019344686053,-0.0629076812773987));
#120=DIRECTION('',(-0.0,-1.0,-0.0));
#121=DIRECTION('',(-0.0016452705816127,-0.997643218879442,0.0685951959584549));
ENDSEC;
END-ISO-10303-21;
