ISO-10303-21;
HEADER;
FILE_DESCRIPTION(('STEP AP214'),'1');
FILE_NAME('SMAStripDeformed_11.stp','2026-01-09T03:16:18',(' '),(' '),'Spatial InterOp 3D',' ',' ');
FILE_SCHEMA(('AUTOMOTIVE_DESIGN { 1 0 10303 214 1 1 1 1 }'));
ENDSEC;
DATA;
#1=PRODUCT_DEFINITION_CONTEXT('',#9,'design');
#2=APPLICATION_PROTOCOL_DEFINITION('INTERNATIONAL STANDARD','automotive_design',1994,#9);
#3=PRODUCT_CATEGORY_RELATIONSHIP('NONE','NONE',#10,#11);
#4=SHAPE_DEFINITION_REPRESENTATION(#12,#13);
#5= (GEOMETRIC_REPRESENTATION_CONTEXT(3)GLOBAL_UNCERTAINTY_ASSIGNED_CONTEXT((#16))GLOBAL_UNIT_ASSIGNED_CONTEXT((#18,#19,#20))REPRESENTATION_CONTEXT('NONE','WORKSPACE'));
#9=APPLICATION_CONTEXT(' ');
#10=PRODUCT_CATEGORY('part','NONE');
#11=PRODUCT_RELATED_PRODUCT_CATEGORY('detail',' ',(#22));
#12=PRODUCT_DEFINITION_SHAPE('NONE','NONE',#23);
#13=MANIFOLD_SURFACE_SHAPE_REPRESENTATION('1',(#24,#25),#5);
#16=UNCERTAINTY_MEASURE_WITH_UNIT(LENGTH_MEASURE(1.0E-06),#18,'','');
#18= (CONVERSION_BASED_UNIT('MILLIMETRE',#28)LENGTH_UNIT()NAMED_UNIT(#31));
#19= (NAMED_UNIT(#33)PLANE_ANGLE_UNIT()SI_UNIT($,.RADIAN.));
#20= (NAMED_UNIT(#33)SOLID_ANGLE_UNIT()SI_UNIT($,.STERADIAN.));
#22=PRODUCT('1','','PART--DESC',(#39));
#23=PRODUCT_DEFINITION('','NONE',#40,#1);
#24=SHELL_BASED_SURFACE_MODEL('1',(#41));
#25=AXIS2_PLACEMENT_3D('',#42,#43,#44);
#28=LENGTH_MEASURE_WITH_UNIT(LENGTH_MEASURE(1.0),#45);
#31=DIMENSIONAL_EXPONENTS(1.0,0.0,0.0,0.0,0.0,0.0,0.0);
#33=DIMENSIONAL_EXPONENTS(0.0,0.0,0.0,0.0,0.0,0.0,0.0);
#39=PRODUCT_CONTEXT('',#9,'mechanical');
#40=PRODUCT_DEFINITION_FORMATION_WITH_SPECIFIED_SOURCE(' ','NONE',#22,.NOT_KNOWN.);
#41=CLOSED_SHELL('',(#46));
#42=CARTESIAN_POINT('',(0.0,0.0,0.0));
#43=DIRECTION('',(0.0,0.0,1.0));
#44=DIRECTION('',(1.0,0.0,0.0));
#45= (NAMED_UNIT(#31)LENGTH_UNIT()SI_UNIT(.MILLI.,.METRE.));
#46=FACE_SURFACE('',(#48),#49,.T.);
#48=FACE_BOUND('',#50,.T.);
#49=CYLINDRICAL_SURFACE('',#51,0.681003790605946);
#50=EDGE_LOOP('',(#52,#53,#54,#55,#56,#57));
#51=AXIS2_PLACEMENT_3D('',#58,#59,#60);
#52=ORIENTED_EDGE('',*,*,#61,.T.);
#53=ORIENTED_EDGE('',*,*,#62,.T.);
#54=ORIENTED_EDGE('',*,*,#63,.T.);
#55=ORIENTED_EDGE('',*,*,#64,.T.);
#56=ORIENTED_EDGE('',*,*,#65,.T.);
#57=ORIENTED_EDGE('',*,*,#66,.T.);
#58=CARTESIAN_POINT('',(-0.0527695154183969,-0.00180109136323517,-0.673131759959625));
#59=DIRECTION('',(0.00401056114139898,-0.999989169875782,0.00236125612221852));
#60=DIRECTION('',(0.0,0.00236127511237851,0.999997212186036));
#61=EDGE_CURVE('',#67,#68,#69,.T.);
#62=EDGE_CURVE('',#68,#70,#71,.T.);
#63=EDGE_CURVE('',#70,#72,#73,.T.);
#64=EDGE_CURVE('',#72,#74,#75,.T.);
#65=EDGE_CURVE('',#74,#76,#77,.T.);
#66=EDGE_CURVE('',#76,#67,#78,.T.);
#67=VERTEX_POINT('',#79);
#68=VERTEX_POINT('',#80);
#69=LINE('',#81,#82);
#70=VERTEX_POINT('',#83);
#71=LINE('',#84,#85);
#72=VERTEX_POINT('',#86);
#73=LINE('',#87,#88);
#74=VERTEX_POINT('',#89);
#75=B_SPLINE_CURVE_WITH_KNOTS('',3,(#90,#91,#92,#93,#94,#95,#96,#97,#98,#99,#100,#101,#102,#103,#104,#105,#106,#107,#108,#109),.UNSPECIFIED.,.F.,.F.,(4,1,1,1,1,1,1,1,1,1,1,1,1,1,1,1,1,4),(0.0,0.130423346152586,0.260846692305171,0.391270038457757,0.521693384610342,0.652116730762928,0.71732840383922,0.782540076915513,0.847751749991806,0.880357586529952,0.912963423068099,0.945569259606245,0.978175096144392,1.01078093268254,1.01893239181707,1.02708385095161,1.03523531008615,1.04338676922068),.UNSPECIFIED.);
#76=VERTEX_POINT('',#110);
#77=CIRCLE('',#111,1.9985133029526);
#78=B_SPLINE_CURVE_WITH_KNOTS('',3,(#112,#113,#114,#115,#116,#117,#118,#119,#120,#121,#122,#123,#124,#125,#126,#127,#128,#129,#130,#131,#132,#133,#134,#135,#136,#137,#138,#139,#140,#141),.UNSPECIFIED.,.F.,.F.,(4,1,1,1,1,1,1,1,1,1,1,1,1,1,1,1,1,1,1,1,1,1,1,1,1,1,1,4),(0.0,0.00814909785039314,0.0162981957007863,0.0244472935511794,0.0325963914015726,0.0651927828031451,0.0977891742047177,0.13038556560629,0.195578348409435,0.260771131212581,0.325963914015726,0.391156696818871,0.521542262425161,0.586735045228306,0.651927828031451,0.717120610834596,0.782313393637742,0.847506176440887,0.880102567842459,0.912698959244032,0.945295350645604,0.977891742047177,0.994189937747963,1.01048813344875,1.01863723129914,1.02678632914954,1.03493542699993,1.04308452485032),.UNSPECIFIED.);
#79=CARTESIAN_POINT('',(3.75506351701915E-06,0.100247256457806,0.00192528427578509));
#80=CARTESIAN_POINT('',(-5.19388092231249E-34,0.0900259241461754,-2.72884585058663E-34));
#81=CARTESIAN_POINT('',(1.87753175850958E-06,0.0951365903019905,0.000962642137892544));
#82=VECTOR('',#142,0.999999999999999);
#83=CARTESIAN_POINT('',(-1.42861559272464E-34,0.0100007485598326,-5.8915742424902E-35));
#84=CARTESIAN_POINT('',(-6.51573763595909E-35,0.050013336353004,-3.83779964472394E-35));
#85=VECTOR('',#143,1.0);
#86=CARTESIAN_POINT('',(0.000133443798404187,-9.61980840656906E-05,0.00460509676486254));
#87=CARTESIAN_POINT('',(6.67218992020935E-05,0.00495227523788344,0.00230254838243127));
#88=VECTOR('',#144,1.0);
#89=CARTESIAN_POINT('',(0.631411015987396,-0.00111546728294343,-0.699772894382477));
#90=CARTESIAN_POINT('',(0.000133443798404187,-9.61980840656906E-05,0.00460509676486254));
#91=CARTESIAN_POINT('',(0.0435059326138829,-0.000236421085446213,0.00163268314053683));
#92=CARTESIAN_POINT('',(0.129725964105023,-9.70187919097345E-05,-0.0124008056021902));
#93=CARTESIAN_POINT('',(0.252316766740477,-0.000208022970272631,-0.0588215783712396));
#94=CARTESIAN_POINT('',(0.363493521177483,-0.00026781074257849,-0.128183149970658));
#95=CARTESIAN_POINT('',(0.459149117407126,-0.000376546738064719,-0.217745630524456));
#96=CARTESIAN_POINT('',(0.523142340984722,-0.000489260673085555,-0.306204094160166));
#97=CARTESIAN_POINT('',(0.563685034513744,-0.000586279920363485,-0.383231650308773));
#98=CARTESIAN_POINT('',(0.588555525039697,-0.000670910950162044,-0.4435917342368));
#99=CARTESIAN_POINT('',(0.604527717019159,-0.000757945482262426,-0.49559584285716));
#100=CARTESIAN_POINT('',(0.614396648311129,-0.000820359257162337,-0.537947086490681));
#101=CARTESIAN_POINT('',(0.620345480291195,-0.000859637144801993,-0.570015083274544));
#102=CARTESIAN_POINT('',(0.624798386637966,-0.000886501912709221,-0.602323303323222));
#103=CARTESIAN_POINT('',(0.627894480442506,-0.000920458102368023,-0.634789807774761));
#104=CARTESIAN_POINT('',(0.628804849486607,-0.000954190185774312,-0.659248024830475));
#105=CARTESIAN_POINT('',(0.629419375487748,-0.000998657971319017,-0.675517770348111));
#106=CARTESIAN_POINT('',(0.629153094647632,-0.00101246788041043,-0.68370433770505));
#107=CARTESIAN_POINT('',(0.629247123338227,-0.00103889199239573,-0.6918326356799));
#108=CARTESIAN_POINT('',(0.630718060720109,-0.0010906694889391,-0.697145706011601));
#109=CARTESIAN_POINT('',(0.631411015987396,-0.00111546728294343,-0.699772894382477));
#110=CARTESIAN_POINT('',(0.630333781242371,0.0991330444812775,-0.699935913085938));
#111=AXIS2_PLACEMENT_3D('',#145,#146,#147);
#112=CARTESIAN_POINT('',(0.630333781242371,0.0991330444812775,-0.699935913085938));
#113=CARTESIAN_POINT('',(0.629844656944929,0.0991282688650988,-0.697263951523681));
#114=CARTESIAN_POINT('',(0.628812296661163,0.0991177158951003,-0.691890441866904));
#115=CARTESIAN_POINT('',(0.628772622053808,0.0991320082353201,-0.683751335504798));
#116=CARTESIAN_POINT('',(0.628936271706609,0.0991514244790265,-0.675585561040006));
#117=CARTESIAN_POINT('',(0.628407069086248,0.0991762422573832,-0.659304857165122));
#118=CARTESIAN_POINT('',(0.627421680363678,0.0992211916955949,-0.634866696767621));
#119=CARTESIAN_POINT('',(0.624350417388415,0.0992735929294083,-0.602405216502244));
#120=CARTESIAN_POINT('',(0.618398944346597,0.0993426361196617,-0.559342583402521));
#121=CARTESIAN_POINT('',(0.607260593361022,0.0994277010647681,-0.506109473141126));
#122=CARTESIAN_POINT('',(0.588101599411136,0.099526040857697,-0.44372294845708));
#123=CARTESIAN_POINT('',(0.563235678829854,0.0996179642994311,-0.383381079243187));
#124=CARTESIAN_POINT('',(0.522704917726569,0.0997315754342152,-0.306376059121076));
#125=CARTESIAN_POINT('',(0.471524688696728,0.0998318699499971,-0.235629429319243));
#126=CARTESIAN_POINT('',(0.410925280121661,0.0999168527135001,-0.173168841228342));
#127=CARTESIAN_POINT('',(0.361169972638985,0.0999727479600366,-0.130925008896582));
#128=CARTESIAN_POINT('',(0.307547129201255,0.100020695226045,-0.0937108213164018));
#129=CARTESIAN_POINT('',(0.250547384061791,0.10006058899017,-0.0619080817800387));
#130=CARTESIAN_POINT('',(0.200676899702224,0.100087251722544,-0.0401912305294165));
#131=CARTESIAN_POINT('',(0.159643447687462,0.100104523622728,-0.0258263204951966));
#132=CARTESIAN_POINT('',(0.128374196214309,0.100115707273957,-0.0165809129204281));
#133=CARTESIAN_POINT('',(0.0966873577445325,0.100124824991976,-0.00890161692317814));
#134=CARTESIAN_POINT('',(0.0699959052545209,0.10013147614385,-0.00377782947702996));
#135=CARTESIAN_POINT('',(0.0485161948865283,0.100133656670809,-0.000547960883406556));
#136=CARTESIAN_POINT('',(0.0350353489892487,0.100137565133139,0.00131752949004856));
#137=CARTESIAN_POINT('',(0.0242478062093015,0.100128606897849,0.00224813659599205));
#138=CARTESIAN_POINT('',(0.0161131252400144,0.100116244194159,0.00340635612539605));
#139=CARTESIAN_POINT('',(0.00801495070756562,0.100144221855736,0.00398221611397001));
#140=CARTESIAN_POINT('',(0.00264095844361372,0.100213941016985,0.00257543225004995));
#141=CARTESIAN_POINT('',(3.75506351701915E-06,0.100247256457806,0.00192528427578509));
#142=DIRECTION('',(-0.000361026470872154,-0.982718804982749,-0.185104348930989));
#143=DIRECTION('',(-0.0,-1.0,-0.0));
#144=DIRECTION('',(0.0120237666425096,-0.909771242275235,0.414935797159876));
#145=CARTESIAN_POINT('',(-1.36645283121539,0.0274685789344298,-0.719969254249654));
#146=DIRECTION('',(-0.0100834372251159,0.00151807051586165,0.999948008526261));
#147=DIRECTION('',(-0.99994916073739,0.0,-0.0100834488439685));
ENDSEC;
END-ISO-10303-21;
