3100 0 2 0           
21 Abaqus/CAE 2025 - 310 14 ACIS 34.0.1 NT 24 Sun May  3 02:21:51 2026 
1 9.9999999999999995e-07 1e-10 
T @77 2PDS3E_66PG9U2F7SD8VCPRDF3M3XBPBH87VSE5W2C9CGC7UTASUPA6XTC54P674UANKE274FCNBK 
-0 body $2 -1 -1 $-1 0 $3 $-1 $-1 T -0.5 -0.25000000000009498 -0.43301270189216451 0.5 1.1160254037840949 0.93301270189216456 #
-1 collection $4 -1 0 0 0 0 0 0 0 1 1 0 1 1 #
-2 real_attrib-name_attrib-gen-attrib $-1 -1 $8 $-1 $0 2 1 1 1 1 1 1 1 1 1 1 1 1 1 0 1 1 1 @22 ATTRIB_XACIS_THICKNESS 0.10000000000000001 #
-3 lump $9 -1 -1 $-1 $-1 $10 $0 T -0.5 -0.25000000000009498 -0.43301270189216451 0.5 1.1160254037840949 0.93301270189216456 #
-4 integer_attrib-name_attrib-gen-attrib $-1 -1 $11 $-1 $1 2 1 1 1 1 1 1 1 1 1 1 1 1 1 0 1 1 1 @23 ATTRIB_XACIS_GROUP_TYPE 5 #
-5 collection $12 -1 0 0 0 0 0 0 0 1 1 0 1 1 #
-6 collection $13 -1 0 0 0 0 0 0 0 1 1 0 1 1 #
-7 collection $14 -1 0 0 0 0 0 0 0 1 1 0 1 1 #
-8 integer_attrib-name_attrib-gen-attrib $-1 -1 $15 $2 $0 2 1 1 1 1 1 1 1 1 1 1 1 1 1 0 1 1 1 @21 ATTRIB_XACIS_LINEFONT 1 #
-9 real_attrib-name_attrib-gen-attrib $-1 -1 $16 $-1 $3 2 1 1 1 1 1 1 1 1 1 1 1 1 1 0 1 1 1 @22 ATTRIB_XACIS_THICKNESS 0.10000000000000001 #
-10 shell $-1 -1 -1 $-1 $-1 $-1 $17 $-1 $3 T -0.5 -0.25000000000009498 -0.43301270189216451 0.5 1.1160254037840949 0.93301270189216456 #
-11 string_attrib-name_attrib-gen-attrib $-1 -1 $-1 $4 $1 2 1 1 1 1 1 1 1 1 1 1 1 1 1 0 1 1 1 @17 ATTRIB_XACIS_NAME @19 Cylinder (Aluminum) #
-12 group_ptr-ct-attrib $-1 -1 $18 $-1 $5 1 1 1 1 1 1 1 1 1 1 1 1 0 1 0 1 1 1 $1 #
-13 group_ptr-ct-attrib $-1 -1 $19 $-1 $6 1 1 1 1 1 1 1 1 1 1 1 1 0 1 0 1 1 1 $1 #
-14 group_ptr-ct-attrib $-1 -1 $20 $-1 $7 1 1 1 1 1 1 1 1 1 1 1 1 0 1 0 1 1 1 $1 #
-15 string_attrib-name_attrib-gen-attrib $-1 -1 $21 $8 $0 2 1 1 1 1 1 1 1 1 1 1 1 1 1 0 1 1 1 @15 ATTRIB_XACIS_ID @2 15 #
-16 integer_attrib-name_attrib-gen-attrib $-1 -1 $22 $9 $3 2 1 1 1 1 1 1 1 1 1 1 1 1 1 0 1 1 1 @21 ATTRIB_XACIS_LINEFONT 1 #
-17 face $23 -1 -1 $-1 $24 $25 $10 $-1 $26 forward single T -0.5 -0.25000000000009498 -0.43301270189216451 0.5 1.1160254037840949 0.93301270189216456 F #
-18 integer_attrib-name_attrib-gen-attrib $-1 -1 $27 $12 $5 2 1 1 1 1 1 1 1 1 1 1 1 1 1 0 1 1 1 @19 SPAATTRIB_VALUETYPE 1 #
-19 integer_attrib-name_attrib-gen-attrib $-1 -1 $28 $13 $6 2 1 1 1 1 1 1 1 1 1 1 1 1 1 0 1 1 1 @19 SPAATTRIB_VALUETYPE 1 #
-20 integer_attrib-name_attrib-gen-attrib $-1 -1 $29 $14 $7 2 1 1 1 1 1 1 1 1 1 1 1 1 1 0 1 1 1 @19 SPAATTRIB_VALUETYPE 1 #
-21 string_attrib-name_attrib-gen-attrib $-1 -1 $30 $15 $0 2 1 1 1 1 1 1 1 1 1 1 1 1 1 0 1 1 1 @23 ATTRIB_XSTEP_PRODUCT_ID @19 Cylinder (Aluminum) #
-22 string_attrib-name_attrib-gen-attrib $-1 -1 $31 $16 $3 2 1 1 1 1 1 1 1 1 1 1 1 1 1 0 1 1 1 @15 ATTRIB_XACIS_ID @2 15 #
-23 string_attrib-name_attrib-gen-attrib $-1 -1 $32 $-1 $17 2 1 1 1 1 1 1 1 1 1 1 1 1 1 0 1 1 1 @15 ATTRIB_XACIS_ID @2 17 #
-24 face $33 -1 -1 $-1 $34 $35 $10 $-1 $36 reversed single T -0.5 -0.25000000000009498 -0.43301270189216451 0.5 0.25000000000009498 0.43301270189216451 F #
-25 loop $37 -1 -1 $-1 $-1 $38 $17 T -0.5 -0.25000000000009498 -0.43301270189216451 0.5 1.1160254037840949 0.93301270189216456 periphery $26 F #
-26 cone-surface $-1 -1 -1 $-1 0 0 0 -0 0.86602540378432902 0.50000000000018996 0.5 0 0 1 I I -0 1 0.5 reversed I I I I #
-27 string_attrib-name_attrib-gen-attrib $-1 -1 $39 $18 $5 2 1 1 1 1 1 1 1 1 1 1 1 1 1 0 1 1 1 @15 SPAATTRIB_VALUE @6 design #
-28 string_attrib-name_attrib-gen-attrib $-1 -1 $40 $19 $6 2 1 1 1 1 1 1 1 1 1 1 1 1 1 0 1 1 1 @15 SPAATTRIB_VALUE @19 Cylinder (Aluminum) #
-29 string_attrib-name_attrib-gen-attrib $-1 -1 $41 $20 $7 2 1 1 1 1 1 1 1 1 1 1 1 1 1 0 1 1 1 @15 SPAATTRIB_VALUE @19 Cylinder (Aluminum) #
-30 string_attrib-name_attrib-gen-attrib $-1 -1 $42 $21 $0 2 1 1 1 1 1 1 1 1 1 1 1 1 1 0 1 1 1 @17 ATTRIB_XACIS_NAME @19 Cylinder (Aluminum) #
-31 string_attrib-name_attrib-gen-attrib $-1 -1 $43 $22 $3 2 1 1 1 1 1 1 1 1 1 1 1 1 1 0 1 1 1 @23 ATTRIB_XSTEP_PRODUCT_ID @19 Cylinder (Aluminum) #
-32 string_attrib-name_attrib-gen-attrib $-1 -1 $-1 $23 $17 2 1 1 1 1 1 1 1 1 1 1 1 1 1 0 1 1 1 @23 ATTRIB_XACIS_LAYER_NAME @0  #
-33 string_attrib-name_attrib-gen-attrib $-1 -1 $44 $-1 $24 2 1 1 1 1 1 1 1 1 1 1 1 1 1 0 1 1 1 @15 ATTRIB_XACIS_ID @2 50 #
-34 face $45 -1 -1 $-1 $-1 $46 $10 $-1 $47 forward single T -0.5 0.61602540378390502 0.066987298107835491 0.5 1.1160254037840949 0.93301270189216456 F #
-35 loop $48 -1 -1 $-1 $-1 $49 $24 T -0.5 -0.25000000000009498 -0.43301270189216451 0.5 0.25000000000009498 0.43301270189216451 periphery $36 T #
-36 plane-surface $-1 -1 -1 $-1 0 0 0 0 0.86602540378432902 0.50000000000018996 1 0 -0 forward_v I I I I #
-37 string_attrib-name_attrib-gen-attrib $-1 -1 $-1 $-1 $25 2 1 1 1 1 1 1 1 1 1 1 1 1 1 0 1 1 1 @15 ATTRIB_XACIS_ID @2 -1 #
-38 coedge $-1 -1 -1 $-1 $50 $51 $49 $52 forward $25 $-1 #
-39 string_attrib-name_attrib-gen-attrib $-1 -1 $-1 $27 $5 2 1 1 1 1 1 1 1 1 1 1 1 1 1 0 1 1 1 @17 ATTRIB_XACIS_NAME @10 Definition #
-40 string_attrib-name_attrib-gen-attrib $-1 -1 $-1 $28 $6 2 1 1 1 1 1 1 1 1 1 1 1 1 1 0 1 1 1 @17 ATTRIB_XACIS_NAME @11 Part Number #
-41 string_attrib-name_attrib-gen-attrib $-1 -1 $-1 $29 $7 2 1 1 1 1 1 1 1 1 1 1 1 1 1 0 1 1 1 @17 ATTRIB_XACIS_NAME @12 Nomenclature #
-42 string_attrib-name_attrib-gen-attrib $-1 -1 $53 $30 $0 2 1 1 1 1 1 1 1 1 1 1 1 1 1 0 1 1 1 @23 ATTRIB_XACIS_LAYER_NAME @0  #
-43 string_attrib-name_attrib-gen-attrib $-1 -1 $54 $31 $3 2 1 1 1 1 1 1 1 1 1 1 1 1 1 0 1 1 1 @17 ATTRIB_XACIS_NAME @19 Cylinder (Aluminum) #
-44 string_attrib-name_attrib-gen-attrib $-1 -1 $-1 $33 $24 2 1 1 1 1 1 1 1 1 1 1 1 1 1 0 1 1 1 @23 ATTRIB_XACIS_LAYER_NAME @0  #
-45 string_attrib-name_attrib-gen-attrib $-1 -1 $55 $-1 $34 2 1 1 1 1 1 1 1 1 1 1 1 1 1 0 1 1 1 @15 ATTRIB_XACIS_ID @2 59 #
-46 loop $56 -1 -1 $-1 $-1 $57 $34 T -0.5 0.61602540378390502 0.066987298107835491 0.5 1.1160254037840949 0.93301270189216456 periphery $47 F #
-47 plane-surface $-1 -1 -1 $-1 0 0.86602540378399995 0.5 0 0.86602540378432902 0.50000000000018996 1 0 -0 forward_v I I I I #
-48 string_attrib-name_attrib-gen-attrib $-1 -1 $-1 $-1 $35 2 1 1 1 1 1 1 1 1 1 1 1 1 1 0 1 1 1 @15 ATTRIB_XACIS_ID @2 -1 #
-49 coedge $-1 -1 -1 $-1 $49 $49 $38 $52 reversed $35 $-1 #
-50 coedge $-1 -1 -1 $-1 $58 $38 $51 $59 forward $25 $-1 #
-51 coedge $-1 -1 -1 $-1 $38 $58 $50 $59 reversed $25 $-1 #
-52 edge $60 -1 -1 $-1 $61 0 $61 6.2831853071795862 $38 $62 forward @7 unknown T -0.5 -0.25000000000009498 -0.43301270189216451 0.5 0.25000000000009498 0.43301270189216451 #
-53 rgb_color-st-attrib $-1 -1 $-1 $42 $0 2 1 2 1 1 1 1 1 1 1 1 1 1 1 0 1 1 1 0.44705882668495178 0.47450980544090271 0.50196081399917603 #
-54 string_attrib-name_attrib-gen-attrib $-1 -1 $63 $43 $3 2 1 1 1 1 1 1 1 1 1 1 1 1 1 0 1 1 1 @23 ATTRIB_XACIS_LAYER_NAME @0  #
-55 string_attrib-name_attrib-gen-attrib $-1 -1 $-1 $45 $34 2 1 1 1 1 1 1 1 1 1 1 1 1 1 0 1 1 1 @23 ATTRIB_XACIS_LAYER_NAME @0  #
-56 string_attrib-name_attrib-gen-attrib $-1 -1 $-1 $-1 $46 2 1 1 1 1 1 1 1 1 1 1 1 1 1 0 1 1 1 @15 ATTRIB_XACIS_ID @2 -1 #
-57 coedge $-1 -1 -1 $-1 $57 $57 $58 $64 forward $46 $-1 #
-58 coedge $-1 -1 -1 $-1 $51 $50 $57 $64 reversed $25 $-1 #
-59 edge $65 -1 -1 $-1 $61 -9.996346783347509e-30 $66 0.99999999999962019 $51 $67 forward @7 unknown T 0.5 -6.0000000000008654e-17 0 0.5 0.86602540378399995 0.50000000000000011 #
-60 string_attrib-name_attrib-gen-attrib $-1 -1 $68 $-1 $52 2 1 1 1 1 1 1 1 1 1 1 1 1 1 0 1 1 1 @15 ATTRIB_XACIS_ID @2 39 #
-61 vertex $69 -1 -1 $-1 $59 $70 #
-62 ellipse-curve $-1 -1 -1 $-1 0 0 0 -0 0.86602540378432902 0.50000000000018996 0.5 0 0 1 I I #
-63 rgb_color-st-attrib $-1 -1 $-1 $54 $3 2 1 2 1 1 1 1 1 1 1 1 1 1 1 0 1 1 1 0.44705882668495178 0.47450980544090271 0.50196081399917603 #
-64 edge $71 -1 -1 $-1 $66 0 $66 6.2831853071795862 $58 $72 forward @7 unknown T -0.5 0.61602540378390502 0.066987298107835491 0.5 1.1160254037840949 0.93301270189216456 #
-65 string_attrib-name_attrib-gen-attrib $-1 -1 $73 $-1 $59 2 1 1 1 1 1 1 1 1 1 1 1 1 1 0 1 1 1 @15 ATTRIB_XACIS_ID @2 21 #
-66 vertex $74 -1 -1 $-1 $59 $75 #
-67 straight-curve $-1 -1 -1 $-1 0.5 -6.0000000000000001e-17 1.039230484541e-16 0 0.86602540378432902 0.50000000000018996 F -9.996346783347509e-30 F 0.99999999999962019 #
-68 string_attrib-name_attrib-gen-attrib $-1 -1 $-1 $60 $52 2 1 1 1 1 1 1 1 1 1 1 1 1 1 0 1 1 1 @23 ATTRIB_XACIS_LAYER_NAME @0  #
-69 string_attrib-name_attrib-gen-attrib $-1 -1 $76 $-1 $61 2 1 1 1 1 1 1 1 1 1 1 1 1 1 0 1 1 1 @15 ATTRIB_XACIS_ID @2 22 #
-70 point $-1 -1 -1 $-1 0.5 0 0 #
-71 string_attrib-name_attrib-gen-attrib $-1 -1 $77 $-1 $64 2 1 1 1 1 1 1 1 1 1 1 1 1 1 0 1 1 1 @15 ATTRIB_XACIS_ID @2 31 #
-72 ellipse-curve $-1 -1 -1 $-1 0 0.86602540378399995 0.5 -0 0.86602540378432902 0.50000000000018996 0.5 0 0 1 I I #
-73 string_attrib-name_attrib-gen-attrib $-1 -1 $-1 $65 $59 2 1 1 1 1 1 1 1 1 1 1 1 1 1 0 1 1 1 @23 ATTRIB_XACIS_LAYER_NAME @0  #
-74 string_attrib-name_attrib-gen-attrib $-1 -1 $78 $-1 $66 2 1 1 1 1 1 1 1 1 1 1 1 1 1 0 1 1 1 @15 ATTRIB_XACIS_ID @2 24 #
-75 point $-1 -1 -1 $-1 0.5 0.86602540378399995 0.5 #
-76 string_attrib-name_attrib-gen-attrib $-1 -1 $-1 $69 $61 2 1 1 1 1 1 1 1 1 1 1 1 1 1 0 1 1 1 @23 ATTRIB_XACIS_LAYER_NAME @0  #
-77 string_attrib-name_attrib-gen-attrib $-1 -1 $-1 $71 $64 2 1 1 1 1 1 1 1 1 1 1 1 1 1 0 1 1 1 @23 ATTRIB_XACIS_LAYER_NAME @0  #
-78 string_attrib-name_attrib-gen-attrib $-1 -1 $-1 $74 $66 2 1 1 1 1 1 1 1 1 1 1 1 1 1 0 1 1 1 @23 ATTRIB_XACIS_LAYER_NAME @0  #
End-of-ACIS-data 
