3100 0 1 0           
21 Abaqus/CAE 2025 - 310 14 ACIS 34.0.1 NT 24 Mon May  4 03:34:35 2026 
1 9.9999999999999995e-07 1e-10 
T @77 KUWBG2XMSZ5E_RTE3KMQSF5ZH8DCYH73_AM3RVPBBDQBKZ7BKC7VERP87CNMKC5F3BTUMCQDBA9ME 
-0 body $1 -1 -1 $-1 0 $2 $-1 $-1 F #
-1 string_attrib-name_attrib-gen-attrib $-1 -1 $3 $-1 $0 2 1 1 1 1 1 1 1 1 1 1 1 1 1 0 1 1 1 @15 ATTRIB_XACIS_ID @2 24 #
-2 lump $-1 -1 -1 $-1 $-1 $4 $0 F #
-3 string_attrib-name_attrib-gen-attrib $-1 -1 $5 $1 $0 2 1 1 1 1 1 1 1 1 1 1 1 1 1 0 1 1 1 @23 ATTRIB_XSTEP_PRODUCT_ID @1 1 #
-4 shell $-1 -1 -1 $-1 $-1 $-1 $6 $-1 $2 F #
-5 string_attrib-name_attrib-gen-attrib $-1 -1 $7 $3 $0 2 1 1 1 1 1 1 1 1 1 1 1 1 1 0 1 1 1 @17 ATTRIB_XACIS_NAME @1 1 #
-6 face $8 -1 -1 $-1 $-1 $9 $4 $-1 $10 forward double out F F #
-7 string_attrib-name_attrib-gen-attrib $-1 -1 $-1 $5 $0 2 1 1 1 1 1 1 1 1 1 1 1 1 1 0 1 1 1 @23 ATTRIB_XACIS_LAYER_NAME @0  #
-8 string_attrib-name_attrib-gen-attrib $-1 -1 $11 $-1 $6 2 1 1 1 1 1 1 1 1 1 1 1 1 1 0 1 1 1 @15 ATTRIB_XACIS_ID @2 46 #
-9 loop $12 -1 -1 $-1 $-1 $13 $6 T -0.00032949746158738354 -0.00049831696650211039 -0.14685308350131773 1.0009643451591879 0.10049983275140587 0.00050789781592951774 periphery $10 F #
-10 cone-surface $-1 -1 -1 $-1 -0.021272043092428399 4.0935200986339801e-05 -3.63369351731837 5.8297081653516191e-05 -0.99999999823336705 -1.160673242995917e-05 -3.9503639111442019e-25 4.217984244343465e-05 -3.6340841510263653 1 I I -0 1 3.6340841512711504 reversed I I I I #
-11 string_attrib-name_attrib-gen-attrib $-1 -1 $-1 $8 $6 2 1 1 1 1 1 1 1 1 1 1 1 1 1 0 1 1 1 @23 ATTRIB_XACIS_LAYER_NAME @0  #
-12 string_attrib-name_attrib-gen-attrib $-1 -1 $-1 $-1 $9 2 1 1 1 1 1 1 1 1 1 1 1 1 1 0 1 1 1 @15 ATTRIB_XACIS_ID @2 -1 #
-13 tcoedge-coedge $-1 -1 -1 $-1 $14 $15 $-1 $16 forward $9 $17 -0.050013549671383072 0.050024363836200708 F #
-14 tcoedge-coedge $-1 -1 -1 $-1 $18 $13 $-1 $19 forward $9 $20 2.8568438756575025 3.1354615293437194 F #
-15 tcoedge-coedge $-1 -1 -1 $-1 $13 $18 $-1 $21 forward $9 $22 0.0061329293763628511 0.2847638764731889 F #
-16 tedge-edge $23 -1 -1 $-1 $24 -0.050013549671383072 $25 0.050024363836200708 $13 $26 forward @7 unknown T 0.99991672569350887 -0.00049831696650211039 -0.14685308350131773 1.0009643451591879 0.10049983275140587 -0.14541601973568113 0.00030193168686965628 #
-17 pcurve $-1 -1 -1 $-1 0 forward { exppc 0 nubs 1 open 2 
	-0.050013549671383072 1 0.050024363836200708 1 
	-2.0243756507064731e-05 2.8566137736326684 
	0.027507438368262027 2.8566121438841829 
	0.001 
	-1 
	cone -0.021272043092428399 4.0935200986339801e-05 -3.63369351731837 5.8297081653516191e-05 -0.99999999823336705 -1.160673242995917e-05 -3.9503639111442019e-25 4.217984244343465e-05 -3.6340841510263653 1 I I -0 1 3.6340841512711504 reversed I I I I 
	} 0 0 #
-18 tcoedge-coedge $-1 -1 -1 $-1 $15 $14 $-1 $27 forward $9 $28 -0.050011454033288896 0.050000000745058101 F #
-19 tedge-edge $29 -1 -1 $-1 $25 2.8568438756575025 $30 3.1354615293437194 $14 $31 forward @7 unknown T -0.00022654707407979575 0.099548897025930144 -0.14657533151320298 1.0009643451591879 0.10049983275140587 0.00040604054958981694 0.00022764019524754582 #
-20 pcurve $-1 -1 -1 $-1 0 forward { exppc 1 nubs 1 open 2 
	2.8568438756575025 1 3.1354615293437194 1 
	0.027504464422580546 2.8566121139155776 
	0.027520401965111674 3.1357369903486951 
	0.001 
	4.1103319055251277e-06 
	cone -0.021272043092428399 4.0935200986339801e-05 -3.63369351731837 5.8297081653516191e-05 -0.99999999823336705 -1.160673242995917e-05 -3.9503639111442019e-25 4.217984244343465e-05 -3.6340841510263653 1 I I -0 1 3.6340841512711504 reversed I I I I 
	} 0 0 #
-21 tedge-edge $32 -1 -1 $-1 $33 0.0061329293763628511 $24 0.2847638764731889 $15 $34 forward @7 unknown T -0.00032856940158581692 -0.00049831696650211039 -0.14685308350131773 1.0008862623886816 0.00047121972867055449 0.00040672361893580392 0.00023354611399286916 #
-22 pcurve $-1 -1 -1 $-1 0 forward { exppc 2 nubs 1 open 2 
	0.0061329293763628511 1 0.2847638764731889 1 
	-3.1508922880038491e-06 3.1357385971131118 
	-2.0243877643797378e-05 2.8565999606409607 
	0.001 
	4.0514819535941709e-06 
	cone -0.021272043092428399 4.0935200986339801e-05 -3.63369351731837 5.8297081653516191e-05 -0.99999999823336705 -1.160673242995917e-05 -3.9503639111442019e-25 4.217984244343465e-05 -3.6340841510263653 1 I I -0 1 3.6340841512711504 reversed I I I I 
	} 0 0 #
-23 string_attrib-name_attrib-gen-attrib $-1 -1 $35 $-1 $16 2 1 1 1 1 1 1 1 1 1 1 1 1 1 0 1 1 1 @23 ATTRIB_XACIS_LAYER_NAME @0  #
-24 tvertex-vertex $-1 -1 -1 $-1 $21 $36 0.00048476834758633244 #
-25 tvertex-vertex $-1 -1 -1 $-1 $16 $37 0.00047546786273785683 #
-26 straight-curve $-1 -1 -1 $-1 1.00048887729645 0.050000001052467297 -0.145891487598419 0 1 0 F -0.050013549671383072 F 0.050024363836200708 #
-27 tedge-edge $38 -1 -1 $-1 $30 -0.050011454033288896 $33 0.050000000745058101 $18 $39 forward @7 unknown T -0.00032949746158738354 -0.00032949746158738354 -0.00032949746158738354 0.00033059058275513361 0.10034095223993438 0.00050789781592951774 0.00032949746158738354 #
-28 pcurve $-1 -1 -1 $-1 0 forward { exppc 3 nubs 1 open 2 
	-0.050011454033288896 1 0.050000000745058101 1 
	0.027520401412862647 3.1357370036836958 
	2.5978685119872426e-12 3.13573861003084 
	0.001 
	-1 
	cone -0.021272043092428399 4.0935200986339801e-05 -3.63369351731837 5.8297081653516191e-05 -0.99999999823336705 -1.160673242995917e-05 -3.9503639111442019e-25 4.217984244343465e-05 -3.6340841510263653 1 I I -0 1 3.6340841512711504 reversed I I I I 
	} 0 0 #
-29 string_attrib-name_attrib-gen-attrib $-1 -1 $40 $-1 $19 2 1 1 1 1 1 1 1 1 1 1 1 1 1 0 1 1 1 @23 ATTRIB_XACIS_LAYER_NAME @0  #
-30 tvertex-vertex $-1 -1 -1 $-1 $19 $41 0.00017840370327794886 #
-31 ellipse-curve $-1 -1 -1 $-1 -0.0223190909824354 0.098497597944604706 -3.6402473428619602 6.2953491958617525e-05 -0.99999991171488656 0.00041546007891498651 1.3650862549416412e-23 -0.0015124801278229129 -3.6404941679196194 1 F 2.8568438756575025 F 3.1354615293437194 #
-32 string_attrib-name_attrib-gen-attrib $-1 -1 $42 $-1 $21 2 1 1 1 1 1 1 1 1 1 1 1 1 1 0 1 1 1 @23 ATTRIB_XACIS_LAYER_NAME @0  #
-33 tvertex-vertex $-1 -1 -1 $-1 $27 $43 0.00032856940158581692 #
-34 ellipse-curve $-1 -1 -1 $-1 -0.0223256941349954 0.0015021944306436599 -3.6402525254285001 6.2944533731412473e-05 0.99999991173941871 0.00041540238383307876 -1.3648920043536895e-23 -0.0015122700891638486 3.6404941679335359 1 F 0.0061329293763628511 F 0.2847638764731889 #
-35 string_attrib-name_attrib-gen-attrib $-1 -1 $-1 $23 $16 2 1 1 1 1 1 1 1 1 1 1 1 1 1 0 1 1 1 @15 ATTRIB_XACIS_ID @2 59 #
-36 point $-1 -1 -1 $-1 1.0004014940410952 -1.3548618915777948e-05 -0.14636831515373139 #
-37 point $-1 -1 -1 $-1 1.00048887729645 0.100024364888668 -0.145891487598419 #
-38 string_attrib-name_attrib-gen-attrib $-1 -1 $44 $-1 $27 2 1 1 1 1 1 1 1 1 1 1 1 1 1 0 1 1 1 @23 ATTRIB_XACIS_LAYER_NAME @0  #
-39 straight-curve $-1 -1 -1 $-1 9.5439947546696198e-35 0.050000000745058101 1.32528206285893e-35 -0 -1 -0 F -0.050011454033288896 F 0.050000000745058101 #
-40 string_attrib-name_attrib-gen-attrib $-1 -1 $-1 $29 $19 2 1 1 1 1 1 1 1 1 1 1 1 1 1 0 1 1 1 @15 ATTRIB_XACIS_ID @2 60 #
-41 point $-1 -1 -1 $-1 1.0931211677500663e-06 0.100011454778347 0.00017840035434213419 #
-42 string_attrib-name_attrib-gen-attrib $-1 -1 $-1 $32 $21 2 1 1 1 1 1 1 1 1 1 1 1 1 1 0 1 1 1 @15 ATTRIB_XACIS_ID @2 62 #
-43 point $-1 -1 -1 $-1 9.5439947546696198e-35 0 1.32528206285893e-35 #
-44 string_attrib-name_attrib-gen-attrib $-1 -1 $-1 $38 $27 2 1 1 1 1 1 1 1 1 1 1 1 1 1 0 1 1 1 @15 ATTRIB_XACIS_ID @2 61 #
End-of-ACIS-data 
