3100 0 1 0           
21 Abaqus/CAE 2025 - 310 14 ACIS 34.0.1 NT 24 Tue May  5 11:24:39 2026 
1 9.9999999999999995e-07 1e-10 
T @77 5U8H99B3Y7UE57_HTTZAYG9AB5QBYK5699UKJ8NEY8QCKCNWXDA4QA7F7AUVKMN2BAQBFC7X2BUBG 
-0 body $1 -1 -1 $-1 0 $2 $-1 $-1 T 0 0 0 1 0.10000000000000001 0 #
-1 string_attrib-name_attrib-gen-attrib $-1 -1 $3 $-1 $0 2 1 1 1 1 1 1 1 1 1 1 1 1 1 0 1 1 1 @15 ATTRIB_XACIS_ID @2 24 #
-2 lump $-1 -1 -1 $-1 $-1 $4 $0 T 0 0 0 1 0.10000000000000001 0 #
-3 string_attrib-name_attrib-gen-attrib $-1 -1 $5 $1 $0 2 1 1 1 1 1 1 1 1 1 1 1 1 1 0 1 1 1 @23 ATTRIB_XSTEP_PRODUCT_ID @1 1 #
-4 shell $-1 -1 -1 $-1 $-1 $-1 $6 $-1 $2 T 0 0 0 1 0.10000000000000001 0 #
-5 string_attrib-name_attrib-gen-attrib $-1 -1 $7 $3 $0 2 1 1 1 1 1 1 1 1 1 1 1 1 1 0 1 1 1 @17 ATTRIB_XACIS_NAME @1 1 #
-6 face $8 -1 -1 $-1 $-1 $9 $4 $-1 $10 forward double out T 0 0 0 1 0.10000000000000001 0 F #
-7 string_attrib-name_attrib-gen-attrib $-1 -1 $-1 $5 $0 2 1 1 1 1 1 1 1 1 1 1 1 1 1 0 1 1 1 @23 ATTRIB_XACIS_LAYER_NAME @0  #
-8 string_attrib-name_attrib-gen-attrib $-1 -1 $11 $-1 $6 2 1 1 1 1 1 1 1 1 1 1 1 1 1 0 1 1 1 @15 ATTRIB_XACIS_ID @2 46 #
-9 loop $12 -1 -1 $-1 $-1 $13 $6 T 0 0 0 1 0.10000000000000001 0 periphery $10 F #
-10 plane-surface $-1 -1 -1 $-1 0.5 0.050000000000000003 0 0 0 1 1 0 0 forward_v I I I I #
-11 string_attrib-name_attrib-gen-attrib $-1 -1 $-1 $8 $6 2 1 1 1 1 1 1 1 1 1 1 1 1 1 0 1 1 1 @23 ATTRIB_XACIS_LAYER_NAME @0  #
-12 string_attrib-name_attrib-gen-attrib $-1 -1 $-1 $-1 $9 2 1 1 1 1 1 1 1 1 1 1 1 1 1 0 1 1 1 @15 ATTRIB_XACIS_ID @2 -1 #
-13 coedge $-1 -1 -1 $-1 $14 $15 $-1 $16 forward $9 $-1 #
-14 coedge $-1 -1 -1 $-1 $17 $13 $-1 $18 forward $9 $-1 #
-15 coedge $-1 -1 -1 $-1 $13 $17 $-1 $19 forward $9 $-1 #
-16 edge $20 -1 -1 $-1 $21 -1 $22 0 $13 $23 forward @7 unknown T 0 0 0 1 0 0 #
-17 coedge $-1 -1 -1 $-1 $15 $14 $-1 $24 forward $9 $-1 #
-18 edge $25 -1 -1 $-1 $22 -0.10000000000000001 $26 0 $14 $27 forward @7 unknown T 1 0 0 1 0.10000000000000001 0 #
-19 edge $28 -1 -1 $-1 $29 -0.10000000000000001 $21 -0 $15 $30 forward @7 unknown T 0 0 0 0 0.10000000000000001 0 #
-20 string_attrib-name_attrib-gen-attrib $-1 -1 $31 $-1 $16 2 1 1 1 1 1 1 1 1 1 1 1 1 1 0 1 1 1 @15 ATTRIB_XACIS_ID @2 59 #
-21 vertex $-1 -1 -1 $-1 $19 $32 #
-22 vertex $-1 -1 -1 $-1 $16 $33 #
-23 straight-curve $-1 -1 -1 $-1 1 0 0 1 -0 -0 F -1 F 0 #
-24 edge $34 -1 -1 $-1 $26 -1 $29 -0 $17 $35 forward @7 unknown T 0 0.10000000000000001 0 1 0.10000000000000001 0 #
-25 string_attrib-name_attrib-gen-attrib $-1 -1 $36 $-1 $18 2 1 1 1 1 1 1 1 1 1 1 1 1 1 0 1 1 1 @15 ATTRIB_XACIS_ID @2 60 #
-26 vertex $-1 -1 -1 $-1 $18 $37 #
-27 straight-curve $-1 -1 -1 $-1 1 0.10000000000000001 0 -0 1 -0 F -0.10000000000000001 F 0 #
-28 string_attrib-name_attrib-gen-attrib $-1 -1 $38 $-1 $19 2 1 1 1 1 1 1 1 1 1 1 1 1 1 0 1 1 1 @15 ATTRIB_XACIS_ID @2 62 #
-29 vertex $-1 -1 -1 $-1 $24 $39 #
-30 straight-curve $-1 -1 -1 $-1 0 0 0 -0 -1 -0 F -0.10000000000000001 F -0 #
-31 string_attrib-name_attrib-gen-attrib $-1 -1 $-1 $20 $16 2 1 1 1 1 1 1 1 1 1 1 1 1 1 0 1 1 1 @23 ATTRIB_XACIS_LAYER_NAME @0  #
-32 point $-1 -1 -1 $-1 0 0 0 #
-33 point $-1 -1 -1 $-1 1 0 0 #
-34 string_attrib-name_attrib-gen-attrib $-1 -1 $40 $-1 $24 2 1 1 1 1 1 1 1 1 1 1 1 1 1 0 1 1 1 @15 ATTRIB_XACIS_ID @2 61 #
-35 straight-curve $-1 -1 -1 $-1 0 0.10000000000000001 0 -1 -0 -0 F -1 F -0 #
-36 string_attrib-name_attrib-gen-attrib $-1 -1 $-1 $25 $18 2 1 1 1 1 1 1 1 1 1 1 1 1 1 0 1 1 1 @23 ATTRIB_XACIS_LAYER_NAME @0  #
-37 point $-1 -1 -1 $-1 1 0.10000000000000001 0 #
-38 string_attrib-name_attrib-gen-attrib $-1 -1 $-1 $28 $19 2 1 1 1 1 1 1 1 1 1 1 1 1 1 0 1 1 1 @23 ATTRIB_XACIS_LAYER_NAME @0  #
-39 point $-1 -1 -1 $-1 0 0.10000000000000001 0 #
-40 string_attrib-name_attrib-gen-attrib $-1 -1 $-1 $34 $24 2 1 1 1 1 1 1 1 1 1 1 1 1 1 0 1 1 1 @23 ATTRIB_XACIS_LAYER_NAME @0  #
End-of-ACIS-data 
