3100 0 1 0           
21 Abaqus/CAE 2025 - 310 14 ACIS 34.0.1 NT 24 Tue May  5 10:57:05 2026 
1 9.9999999999999995e-07 1e-10 
T @77 4_P9JM6RWD639PTMJ_Y5F3QYT3PU_3QXCBFMF6QDKARUEM5AKCFMMZQEQ88VE4QEKCN3FZ7A79CCN 
-0 body $1 -1 -1 $-1 0 $2 $-1 $-1 F #
-1 string_attrib-name_attrib-gen-attrib $-1 -1 $3 $-1 $0 2 1 1 1 1 1 1 1 1 1 1 1 1 1 0 1 1 1 @15 ATTRIB_XACIS_ID @2 24 #
-2 lump $-1 -1 -1 $-1 $-1 $4 $0 F #
-3 string_attrib-name_attrib-gen-attrib $-1 -1 $5 $1 $0 2 1 1 1 1 1 1 1 1 1 1 1 1 1 0 1 1 1 @23 ATTRIB_XSTEP_PRODUCT_ID @1 1 #
-4 shell $-1 -1 -1 $-1 $-1 $-1 $6 $-1 $2 F #
-5 string_attrib-name_attrib-gen-attrib $-1 -1 $7 $3 $0 2 1 1 1 1 1 1 1 1 1 1 1 1 1 0 1 1 1 @17 ATTRIB_XACIS_NAME @1 1 #
-6 face $8 -1 -1 $-1 $-1 $9 $4 $-1 $10 forward double out F F #
-7 string_attrib-name_attrib-gen-attrib $-1 -1 $-1 $5 $0 2 1 1 1 1 1 1 1 1 1 1 1 1 1 0 1 1 1 @23 ATTRIB_XACIS_LAYER_NAME @0  #
-8 string_attrib-name_attrib-gen-attrib $-1 -1 $11 $-1 $6 2 1 1 1 1 1 1 1 1 1 1 1 1 1 0 1 1 1 @15 ATTRIB_XACIS_ID @2 46 #
-9 loop $12 -1 -1 $-1 $-1 $13 $6 T -0.013515504708609403 -0.011098311191265571 -0.58128743327851851 0.79010971171751976 0.11020550194406299 0.022287315912544702 periphery $10 F #
-10 cone-surface $-1 -1 -1 $-1 -0.267152157132728 -0.00642058741094741 -1.1429027163767 0.0042738843513034416 0.99996897657155825 -0.0066166310900771588 0 0.0078559876717768165 1.1872724722232977 1 I I -0 1 1.1872984628312799 reversed I I I I #
-11 string_attrib-name_attrib-gen-attrib $-1 -1 $-1 $8 $6 2 1 1 1 1 1 1 1 1 1 1 1 1 1 0 1 1 1 @23 ATTRIB_XACIS_LAYER_NAME @0  #
-12 string_attrib-name_attrib-gen-attrib $-1 -1 $-1 $-1 $9 2 1 1 1 1 1 1 1 1 1 1 1 1 1 0 1 1 1 @15 ATTRIB_XACIS_ID @2 -1 #
-13 tcoedge-coedge $-1 -1 -1 $-1 $14 $15 $-1 $16 forward $9 $17 -0.0066394444219448658 0.0066394444219449351 F #
-14 tcoedge-coedge $-1 -1 -1 $-1 $18 $13 $-1 $19 forward $9 $20 -0.040012356825172908 0.040012356825172901 F #
-15 coedge $-1 -1 -1 $-1 $13 $21 $-1 $22 forward $9 $-1 #
-16 tedge-edge $23 -1 -1 $-1 $24 -0.0066394444219448658 $25 0.0066394444219449351 $13 $26 forward @7 unknown T -0.013077625488040879 0.076941704894306226 -0.013077625488040884 0.013077625488040879 0.10992455878413779 0.018533234718512148 0.0098793993250237359 #
-17 pcurve $-1 -1 -1 $-1 0 forward { exppc 0 nubs 1 open 2 
	-0.0066394444219448658 1 0.0066394444219449351 1 
	-0.084215473319362716 0.22827107864457052 
	-0.075816267343110727 0.22919006551541554 
	0.001 
	8.4304272904333676e-07 
	cone -0.267152157132728 -0.00642058741094741 -1.1429027163767 0.0042738843513034416 0.99996897657155825 -0.0066166310900771588 0 0.0078559876717768165 1.1872724722232977 1 I I -0 1 1.1872984628312799 reversed I I I I 
	} 0 0 #
-18 tcoedge-coedge $-1 -1 -1 $-1 $27 $14 $-1 $28 forward $9 $29 -0.007951095790160647 0.0079510957901606366 F #
-19 tedge-edge $30 -1 -1 $-1 $25 -0.040012356825172908 $31 0.040012356825172901 $14 $32 forward @7 unknown T -0.013515504708609403 -0.0035208879766081055 -0.013515504708609403 0.013515504708609403 0.10353461930846461 0.013515504708609403 0.013515288926117497 #
-20 pcurve $-1 -1 -1 $-1 0 forward { exppc 1 nubs 1 open 2 
	-0.040012356825172908 1 0.040012356825172901 1 
	-0.075816267343110727 0.22919006551541554 
	-0.0084176868559903695 0.22957630543436436 
	0.001 
	1.8006576633559397e-08 
	cone -0.267152157132728 -0.00642058741094741 -1.1429027163767 0.0042738843513034416 0.99996897657155825 -0.0066166310900771588 0 0.0078559876717768165 1.1872724722232977 1 I I -0 1 1.1872984628312799 reversed I I I I 
	} 0 0 #
-21 tcoedge-coedge $-1 -1 -1 $-1 $15 $27 $-1 $33 forward $9 $34 -0.049953115519327913 0.049953114990592233 F #
-22 edge $35 -1 -1 $-1 $36 5.1577428339697436e-05 $24 1.0013657665211899 $15 $37 forward @7 unknown T -0.0090393891348503532 0.088836361933914518 -0.58128743327851851 0.79010971171751976 0.11020550194406299 0.020375545616338399 #
-23 string_attrib-name_attrib-gen-attrib $-1 -1 $38 $-1 $16 2 1 1 1 1 1 1 1 1 1 1 1 1 1 0 1 1 1 @23 ATTRIB_XACIS_LAYER_NAME @0  #
-24 tvertex-vertex $-1 -1 -1 $-1 $22 $39 0.004376604457690102 #
-25 tvertex-vertex $-1 -1 -1 $-1 $16 $40 0.013077625488040879 #
-26 straight-curve $-1 -1 -1 $-1 0.00048030543257482301 0.095032244920730605 0.0043269176967442001 -0.072341208397995002 -0.75502018238372903 -0.65169875998098903 F -0.0066394444219448658 F 0.0066394444219449351 #
-27 coedge $-1 -1 -1 $-1 $21 $18 $-1 $41 forward $9 $-1 #
-28 tedge-edge $42 -1 -1 $-1 $31 -0.007951095790160647 $43 0.0079510957901606366 $18 $44 forward @7 unknown T -0.013515504708609403 -0.0086052811396953085 -0.013515504708609403 0.013515504708609403 0.023510121440610703 0.020923742285656105 0.0086206015027492904 #
-29 pcurve $-1 -1 -1 $-1 0 forward { exppc 2 nubs 1 open 2 
	-0.007951095790160647 1 0.0079510957901606366 1 
	-0.0084010656111741643 0.22957793597409276 
	5.0663791046591904e-05 0.22840333125763063 
	0.001 
	1.5108810782246153e-06 
	cone -0.267152157132728 -0.00642058741094741 -1.1429027163767 0.0042738843513034416 0.99996897657155825 -0.0066166310900771588 0 0.0078559876717768165 1.1872724722232977 1 I I -0 1 1.1872984628312799 reversed I I I I 
	} 0 0 #
-30 string_attrib-name_attrib-gen-attrib $-1 -1 $45 $-1 $19 2 1 1 1 1 1 1 1 1 1 1 1 1 1 0 1 1 1 @23 ATTRIB_XACIS_LAYER_NAME @0  #
-31 tvertex-vertex $-1 -1 -1 $-1 $19 $46 0.013515504708609403 #
-32 straight-curve $-1 -1 -1 $-1 -1.4730728120316099e-34 0.050006973557174199 -1.1432141739227499e-35 -0 -1 -0 F -0.040012356825172908 F 0.040012356825172901 #
-33 tedge-edge $47 -1 -1 $-1 $48 -0.049953115519327913 $36 0.049953114990592233 $21 $49 forward @7 unknown T 0.77422053009299707 -0.0069471631103175963 -0.57713374812104334 0.78597527354927499 0.10462983247555083 -0.56523543983725999 0.005793618823762065 #
-34 pcurve $-1 -1 -1 $-1 0 forward { exppc 3 nubs 1 open 2 
	-0.049953115519327913 1 0.049953114990592233 1 
	-0.0050896450101623643 1.0709956839645924 
	-0.089234026964980742 1.0705104453788699 
	0.001 
	5.4682145417757066e-09 
	cone -0.267152157132728 -0.00642058741094741 -1.1429027163767 0.0042738843513034416 0.99996897657155825 -0.0066166310900771588 0 0.0078559876717768165 1.1872724722232977 1 I I -0 1 1.1872984628312799 reversed I I I I 
	} 0 0 #
-35 string_attrib-name_attrib-gen-attrib $-1 -1 $50 $-1 $22 2 1 1 1 1 1 1 1 1 1 1 1 1 1 0 1 1 1 @15 ATTRIB_XACIS_ID @2 66 #
-36 tvertex-vertex $-1 -1 -1 $-1 $33 $51 0.0056861279993451275 #
-37 intcurve-curve $-1 -1 -1 $-1 forward { surfcur 4 full nubs 3 open 31 
	5.1577428339697436e-05 3 0.0078231700509468101 1 0.015646340101893599 1 0.023469510152840399 1 0.031292680203787303 1 
	0.046939020305680902 1 0.062585360407574495 1 0.093878040611361804 1 0.12517072081514899 1 0.15646340101893599 1 
	0.187756081222724 1 0.25034144163029798 1 0.31292680203787299 1 0.375512162445447 1 0.438097522853022 1 
	0.50068288326059496 1 0.56326824366817096 1 0.62585360407574497 1 0.68843896448331998 1 0.75102432489089399 1 
	0.813609685298469 1 0.84490236550225595 1 0.87619504570604301 1 0.90748772590982996 1 0.93878040611361802 1 
	0.95442674621551105 1 0.97007308631740496 1 0.97789625636835198 1 0.98571942641929899 1 0.99354259647024501 1 
	1.0013657665211899 3 
	0.78010971171751975 0.098836361933914513 -0.5712874332785185 
	0.77804090258047576 0.098843827991113173 -0.5697266154832682 
	0.77371951662479321 0.098859788415993938 -0.56656401243881738 
	0.76934867722599998 0.098865806490240807 -0.56018793635659003 
	0.76569786964684305 0.098867835619545305 -0.55314587015961403 
	0.75995208080713395 0.098882547154023795 -0.54448990474803405 
	0.75312630863385099 0.098899883797591806 -0.53335157926570098 
	0.74175745828123196 0.098936919633950599 -0.51587028185392003 
	0.727309365678935 0.098988837732250798 -0.49415505840827101 
	0.70940337989675795 0.099056106688885204 -0.46849096990587402 
	0.69097556461254195 0.099117142483370196 -0.44319721599989398 
	0.66569103131919904 0.099190289995828601 -0.41000516632836498 
	0.63279382140718299 0.099292626803497597 -0.369516603632147 
	0.59091352668500297 0.099377290061849796 -0.32297999531614502 
	0.54666717148948496 0.099459797202433198 -0.27868678737417801 
	0.50014536026363599 0.099539059720789705 -0.236789269477723 
	0.451478246462373 0.099619308540117094 -0.197404028649006 
	0.40079610686321199 0.099701674319320699 -0.16064826728271001 
	0.348250285589769 0.099782277774272204 -0.12661006019561699 
	0.29397493682683001 0.099854573331657898 -0.095401954323309807 
	0.238082994519899 0.099921777343129306 -0.067188524592794396 
	0.190269125793429 0.099982673055791504 -0.046304935897746001 
	0.15134912573791301 0.10002631053446 -0.0312572001168318 
	0.121845490053805 0.100055345101944 -0.020814933735509401 
	0.092049010692113506 0.100079752445957 -0.0112540676123985 
	0.066996950819271095 0.100116885469911 -0.0039703275984214201 
	0.046829065276478198 0.100178685851512 0.0012998732301302701 
	0.034186637755671503 0.100205501944063 0.0046496775217006797 
	0.024024153257820102 0.100188643734463 0.0067122661215737898 
	0.016421921695775599 0.100187902230995 0.0090712631418356105 
	0.0087942268881724597 0.10015575734124101 0.0103755456163384 
	0.0035137153678526998 0.10008043816166 0.0091835842804199805 
	0.000960610865149647 0.10004515945911401 0.0086538353934884106 
	0.01 
	cone -0.267152157132728 -0.00642058741094741 -1.1429027163767 0.0042738843513034416 0.99996897657155825 -0.0066166310900771588 0 0.0078559876717768165 1.1872724722232977 1 I I -0 1 1.1872984628312799 reversed I I I I 
	null_surface 
	nubs 1 open 2 
	5.1577428339697436e-05 1 1.0013657665211899 1 
	-0.089234001297419929 1.070487674295673 
	-0.084215473319362688 0.22827107864457052 
	
	nullbs 
	-1 
	-1 
	I I 
	0 
	0 
	29 0.0078231700509468101 0.015646340101893599 0.023469510152840399 0.031292680203787303 0.046939020305680902 0.062585360407574495 0.093878040611361804 0.12517072081514899 0.15646340101893599 0.187756081222724 0.25034144163029798 0.31292680203787299 0.375512162445447 0.438097522853022 0.50068288326059496 0.56326824366817096 0.62585360407574497 0.68843896448331998 0.75102432489089399 0.813609685298469 0.84490236550225595 0.87619504570604301 0.90748772590982996 0.93878040611361802 0.95442674621551105 0.97007308631740496 0.97789625636835198 0.98571942641929899 0.99354259647024501 
	
	-1 
	none F surf1 
	F } I I #
-38 string_attrib-name_attrib-gen-attrib $-1 -1 $-1 $23 $16 2 1 1 1 1 1 1 1 1 1 1 1 1 1 0 1 1 1 @15 ATTRIB_XACIS_ID @2 61 #
-39 point $-1 -1 -1 $-1 0.000960610865149647 0.10004515945911401 0.0086538353934884106 #
-40 point $-1 -1 -1 $-1 -6.5052130349130266e-19 0.090019330382347107 -5.2041704279304213e-18 #
-41 edge $52 -1 -1 $-1 $43 0 $48 1.00116460011766 $27 $53 forward @7 unknown T -0.0086137860687449594 -0.011098311191265571 -0.58111281156539896 0.79009790182113604 0.0099954885588522304 0.022287315912544702 #
-42 string_attrib-name_attrib-gen-attrib $-1 -1 $54 $-1 $28 2 1 1 1 1 1 1 1 1 1 1 1 1 1 0 1 1 1 @23 ATTRIB_XACIS_LAYER_NAME @0  #
-43 tvertex-vertex $-1 -1 -1 $-1 $28 $55 0.0012733902905218545 #
-44 straight-curve $-1 -1 -1 $-1 0.00069310696562752095 0.00499505264542677 0.0061436579562723602 0.08740363222003282 -0.62629509363163915 0.77467093708727808 F -0.007951095790160647 F 0.0079510957901606366 #
-45 string_attrib-name_attrib-gen-attrib $-1 -1 $-1 $30 $19 2 1 1 1 1 1 1 1 1 1 1 1 1 1 0 1 1 1 @15 ATTRIB_XACIS_ID @2 62 #
-46 point $-1 -1 -1 $-1 -1.4730728120316099e-34 0.0099946167320012977 -1.1432141739227499e-35 #
-47 string_attrib-name_attrib-gen-attrib $-1 -1 $56 $-1 $33 2 1 1 1 1 1 1 1 1 1 1 1 1 1 0 1 1 1 @23 ATTRIB_XACIS_LAYER_NAME @0  #
-48 tvertex-vertex $-1 -1 -1 $-1 $41 $57 0.0058773717281389365 #
-49 straight-curve $-1 -1 -1 $-1 0.78004243969917297 0.048883210984058699 -0.571237832307816 0.00055081351951488016 0.99999775143427616 -0.0020478600680776306 F -0.049953115519327913 F 0.049953114990592233 #
-50 string_attrib-name_attrib-gen-attrib $-1 -1 $-1 $35 $22 2 1 1 1 1 1 1 1 1 1 1 1 1 1 0 1 1 1 @23 ATTRIB_XACIS_LAYER_NAME @0  #
-51 point $-1 -1 -1 $-1 0.78006995455025163 0.098836213651788768 -0.57134012929728129 #
-52 string_attrib-name_attrib-gen-attrib $-1 -1 $58 $-1 $41 2 1 1 1 1 1 1 1 1 1 1 1 1 1 0 1 1 1 @15 ATTRIB_XACIS_ID @2 64 #
-53 intcurve-curve $-1 -1 -1 $-1 forward { surfcur 5 full nubs 3 open 20 
	0 3 0.12514557501470699 1 0.25029115002941499 1 0.37543672504412201 1 0.50058230005882998 1 
	0.56315508756618304 1 0.625727875073537 1 0.68830066258089095 1 0.75087345008824502 1 0.81344623759559798 1 
	0.84473263134927501 1 0.87601902510295204 1 0.90730541885662896 1 0.938591812610306 1 0.95423500948714401 1 
	0.96987820636398203 1 0.97769980480240204 1 0.98552140324082105 1 0.99334300167923995 1 1.00116460011766 3 
	0.00138621393125504 -4.5114411477697996e-06 0.0122873159125447 
	0.042201490536508998 -0.00052542784884167097 0.0036850454024669002 
	0.12282653846472601 -3.2875114304644003e-05 -0.018332420373724699 
	0.239030532145664 -0.00033192885465999902 -0.065346299578902894 
	0.34928202990736601 -0.000370768746639451 -0.12494081128663 
	0.43538526996584498 -0.00048177113138706597 -0.184037496125147 
	0.50025220176058904 -0.00056873401137011903 -0.23655260315742899 
	0.54675065234952402 -0.00063725049775927804 -0.27845656649093098 
	0.59098617401212805 -0.00072105984813525498 -0.32274478741416501 
	0.63278241373155897 -0.00078207730100657096 -0.369338285236745 
	0.66573040289097296 -0.00083365298102767895 -0.40977132645872599 
	0.69100328914482301 -0.00088125958434413201 -0.442962210164561 
	0.70942395279639303 -0.00092902021880899199 -0.46825332177699203 
	0.72732318755077097 -0.00099019225329338495 -0.49391455902183101 
	0.74175925902492301 -0.0010389614750025899 -0.51563140543561004 
	0.75311892639395495 -0.0010680834982980201 -0.53311393769740001 
	0.75994123406167802 -0.0010840266089569401 -0.54425065583977295 
	0.76568126984058005 -0.0010879056453952599 -0.55290915088359704 
	0.76933769764650495 -0.00109831119126557 -0.55994272034819104 
	0.77370401640782804 -0.0010980684754937401 -0.56634429203790204 
	0.77802451743544299 -0.0010787553952817299 -0.56953215158887105 
	0.78009790182113603 -0.0010697913821786601 -0.57111281156539895 
	0.01 
	cone -0.267152157132728 -0.00642058741094741 -1.1429027163767 0.0042738843513034416 0.99996897657155825 -0.0066166310900771588 0 0.0078559876717768165 1.1872724722232977 1 I I -0 1 1.1872984628312799 reversed I I I I 
	null_surface 
	nubs 1 open 2 
	0 1 1.00116460011766 1 
	6.7285035862812927e-05 0.22840492920224142 
	-0.0050898177632759303 1.0710122976080245 
	
	nullbs 
	-1 
	-1 
	I I 
	0 
	0 
	18 0.12514557501470699 0.25029115002941499 0.37543672504412201 0.50058230005882998 0.56315508756618304 0.625727875073537 0.68830066258089095 0.75087345008824502 0.81344623759559798 0.84473263134927501 0.87601902510295204 0.90730541885662896 0.938591812610306 0.95423500948714401 0.96987820636398203 0.97769980480240204 0.98552140324082105 0.99334300167923995 
	
	-1 
	none F surf1 
	F } I I #
-54 string_attrib-name_attrib-gen-attrib $-1 -1 $-1 $42 $28 2 1 1 1 1 1 1 1 1 1 1 1 1 1 0 1 1 1 @15 ATTRIB_XACIS_ID @2 63 #
-55 point $-1 -1 -1 $-1 0.0013880616178169724 1.5320363053981934e-05 0.012303140782906813 #
-56 string_attrib-name_attrib-gen-attrib $-1 -1 $-1 $47 $33 2 1 1 1 1 1 1 1 1 1 1 1 1 1 0 1 1 1 @15 ATTRIB_XACIS_ID @2 65 #
-57 point $-1 -1 -1 $-1 0.78009790182113603 -0.0010697913821786601 -0.57111281156539895 #
-58 string_attrib-name_attrib-gen-attrib $-1 -1 $-1 $52 $41 2 1 1 1 1 1 1 1 1 1 1 1 1 1 0 1 1 1 @23 ATTRIB_XACIS_LAYER_NAME @0  #
End-of-ACIS-data 
