#OBJ File generated by Abaqus/CAE
#List of Vertices
v 0.0520037 0.769379 -0.0518588
v 0.0520743 0.794619 -0.0519194
v 0.0519361 0.744139 -0.0518002
v 0.0518684 0.718899 -0.0517422
v 0.0517981 0.69366 -0.0516829
v 0.0517296 0.668418 -0.0516227
v 0.051661 0.643178 -0.0515637
v 0.0515926 0.617939 -0.0515057
v 0.0515226 0.592699 -0.0514458
v 0.0514573 0.567457 -0.0513878
v 0.0513865 0.542217 -0.0513269
v 0.0513198 0.516976 -0.0512689
v 0.0512503 0.491737 -0.0512106
v 0.0511809 0.466495 -0.051149
v 0.0511143 0.441255 -0.0510923
v 0.051043 0.416016 -0.0510319
v 0.0509763 0.390776 -0.0509749
v 0.0509058 0.365535 -0.0509135
v 0.0508399 0.340294 -0.0508559
v 0.0507689 0.315054 -0.0507949
v 0.0507021 0.289815 -0.0507387
v 0.0506318 0.264574 -0.0506776
v -0.0616849 0.0607026 -0.335641
v -0.0786484 0.0607026 -0.335641
v -0.0786484 0.00671339 -0.335641
v -0.0616849 0.00671339 -0.335641
v -0.0771062 0.00984345 -0.335641
v -0.074793 0.00984345 -0.335641
v -0.074793 0.0129735 -0.335641
v -0.0771062 0.0129735 -0.335641
v -0.0771062 0.0129735 -0.335641
v -0.074793 0.0129735 -0.335641
v -0.074793 0.0161026 -0.335641
v -0.0771062 0.0161026 -0.335641
v -0.0771062 0.0161026 -0.335641
v -0.074793 0.0161026 -0.335641
v -0.074793 0.0192326 -0.335641
v -0.0771062 0.0192326 -0.335641
v -0.0771062 0.0192326 -0.335641
v -0.074793 0.0192326 -0.335641
v -0.074793 0.0223627 -0.335641
v -0.0771062 0.0223627 -0.335641
v -0.0771062 0.0223627 -0.335641
v -0.074793 0.0223627 -0.335641
v -0.074793 0.0254928 -0.335641
v -0.0771062 0.0254928 -0.335641
v -0.0771062 0.0254928 -0.335641
v -0.074793 0.0254928 -0.335641
v -0.074793 0.0286218 -0.335641
v -0.0771062 0.0286218 -0.335641
v -0.0771062 0.0286218 -0.335641
v -0.074793 0.0286218 -0.335641
v -0.074793 0.0317519 -0.335641
v -0.0771062 0.0317519 -0.335641
v -0.0771062 0.0317519 -0.335641
v -0.074793 0.0317519 -0.335641
v -0.074793 0.0348819 -0.335641
v -0.0771062 0.0348819 -0.335641
v -0.0771062 0.0348819 -0.335641
v -0.074793 0.0348819 -0.335641
v -0.074793 0.038012 -0.335641
v -0.0771062 0.038012 -0.335641
v -0.0771062 0.038012 -0.335641
v -0.074793 0.038012 -0.335641
v -0.074793 0.041141 -0.335641
v -0.0771062 0.041141 -0.335641
v -0.0771062 0.041141 -0.335641
v -0.074793 0.041141 -0.335641
v -0.074793 0.0442711 -0.335641
v -0.0771062 0.0442711 -0.335641
v -0.0771062 0.0442711 -0.335641
v -0.074793 0.0442711 -0.335641
v -0.074793 0.0474012 -0.335641
v -0.0771062 0.0474012 -0.335641
v -0.0771062 0.00984345 -0.335641
v -0.074022 0.00984345 -0.335641
v -0.0771062 0.0129735 -0.335641
v -0.074022 0.0129735 -0.335641
v -0.0771062 0.0161026 -0.335641
v -0.074022 0.0161026 -0.335641
v -0.0771062 0.0192326 -0.335641
v -0.074022 0.0192326 -0.335641
v -0.0771062 0.0223627 -0.335641
v -0.074022 0.0223627 -0.335641
v -0.0771062 0.0254928 -0.335641
v -0.074022 0.0254928 -0.335641
v -0.0771062 0.0286218 -0.335641
v -0.074022 0.0286218 -0.335641
v -0.0771062 0.0317519 -0.335641
v -0.074022 0.0317519 -0.335641
v -0.0771062 0.0348819 -0.335641
v -0.074022 0.0348819 -0.335641
v -0.0771062 0.038012 -0.335641
v -0.074022 0.038012 -0.335641
v -0.0771062 0.041141 -0.335641
v -0.074022 0.041141 -0.335641
v -0.0771062 0.0442711 -0.335641
v -0.074022 0.0442711 -0.335641
v -0.0771062 0.0474012 -0.335641
v -0.074022 0.0474012 -0.335641
v -0.074793 0.0474012 -0.335641
v -0.074793 0.00984345 -0.335641

#List of body lines
l 1 2
l 3 1
l 4 3
l 5 4
l 6 5
l 7 6
l 8 7
l 9 8
l 10 9
l 11 10
l 12 11
l 13 12
l 14 13
l 15 14
l 16 15
l 17 16
l 18 17
l 19 18
l 20 19
l 21 20
l 22 21


