ISO-10303-21;
HEADER;
FILE_DESCRIPTION(('STEP AP214'),'1');
FILE_NAME('SMAStripDeformed_05.stp','2026-05-02T03:59:43',(' '),(' '),'Spatial InterOp 3D',' ',' ');
FILE_SCHEMA(('AUTOMOTIVE_DESIGN { 1 0 10303 214 1 1 1 1 }'));
ENDSEC;
DATA;
#1=PRODUCT_DEFINITION_CONTEXT('',#9,'design');
#2=APPLICATION_PROTOCOL_DEFINITION('INTERNATIONAL STANDARD','automotive_design',1994,#9);
#3=PRODUCT_CATEGORY_RELATIONSHIP('NONE','NONE',#10,#11);
#4=SHAPE_DEFINITION_REPRESENTATION(#12,#13);
#5= (GEOMETRIC_REPRESENTATION_CONTEXT(3)GLOBAL_UNCERTAINTY_ASSIGNED_CONTEXT((#16))GLOBAL_UNIT_ASSIGNED_CONTEXT((#18,#19,#20))REPRESENTATION_CONTEXT('NONE','WORKSPACE'));
#9=APPLICATION_CONTEXT(' ');
#10=PRODUCT_CATEGORY('part','NONE');
#11=PRODUCT_RELATED_PRODUCT_CATEGORY('detail',' ',(#22));
#12=PRODUCT_DEFINITION_SHAPE('NONE','NONE',#23);
#13=MANIFOLD_SURFACE_SHAPE_REPRESENTATION('1',(#24,#25),#5);
#16=UNCERTAINTY_MEASURE_WITH_UNIT(LENGTH_MEASURE(1.0E-06),#18,'','');
#18= (CONVERSION_BASED_UNIT('MILLIMETRE',#28)LENGTH_UNIT()NAMED_UNIT(#31));
#19= (NAMED_UNIT(#33)PLANE_ANGLE_UNIT()SI_UNIT($,.RADIAN.));
#20= (NAMED_UNIT(#33)SOLID_ANGLE_UNIT()SI_UNIT($,.STERADIAN.));
#22=PRODUCT('1','','PART--DESC',(#39));
#23=PRODUCT_DEFINITION('','NONE',#40,#1);
#24=SHELL_BASED_SURFACE_MODEL('1',(#41));
#25=AXIS2_PLACEMENT_3D('',#42,#43,#44);
#28=LENGTH_MEASURE_WITH_UNIT(LENGTH_MEASURE(1.0),#45);
#31=DIMENSIONAL_EXPONENTS(1.0,0.0,0.0,0.0,0.0,0.0,0.0);
#33=DIMENSIONAL_EXPONENTS(0.0,0.0,0.0,0.0,0.0,0.0,0.0);
#39=PRODUCT_CONTEXT('',#9,'mechanical');
#40=PRODUCT_DEFINITION_FORMATION_WITH_SPECIFIED_SOURCE(' ','NONE',#22,.NOT_KNOWN.);
#41=CLOSED_SHELL('',(#46));
#42=CARTESIAN_POINT('',(0.0,0.0,0.0));
#43=DIRECTION('',(0.0,0.0,1.0));
#44=DIRECTION('',(1.0,0.0,0.0));
#45= (NAMED_UNIT(#31)LENGTH_UNIT()SI_UNIT(.MILLI.,.METRE.));
#46=FACE_SURFACE('',(#48),#49,.T.);
#48=FACE_BOUND('',#50,.T.);
#49=CYLINDRICAL_SURFACE('',#51,1.85203786335101);
#50=EDGE_LOOP('',(#52,#53,#54,#55,#56,#57));
#51=AXIS2_PLACEMENT_3D('',#58,#59,#60);
#52=ORIENTED_EDGE('',*,*,#61,.T.);
#53=ORIENTED_EDGE('',*,*,#62,.T.);
#54=ORIENTED_EDGE('',*,*,#63,.T.);
#55=ORIENTED_EDGE('',*,*,#64,.T.);
#56=ORIENTED_EDGE('',*,*,#65,.T.);
#57=ORIENTED_EDGE('',*,*,#66,.T.);
#58=CARTESIAN_POINT('',(-0.0818140216108172,-0.0106909113896015,-1.84676796031705));
#59=DIRECTION('',(-0.00939047664578762,-0.999936658768262,0.00620462728370472));
#60=DIRECTION('',(8.79565186566189E-21,0.00620490086707795,0.999980749417323));
#61=EDGE_CURVE('',#67,#68,#69,.T.);
#62=EDGE_CURVE('',#68,#70,#71,.T.);
#63=EDGE_CURVE('',#70,#72,#73,.T.);
#64=EDGE_CURVE('',#72,#74,#75,.T.);
#65=EDGE_CURVE('',#74,#76,#77,.T.);
#66=EDGE_CURVE('',#76,#67,#78,.T.);
#67=VERTEX_POINT('',#79);
#68=VERTEX_POINT('',#80);
#69=LINE('',#81,#82);
#70=VERTEX_POINT('',#83);
#71=B_SPLINE_CURVE_WITH_KNOTS('',3,(#84,#85,#86,#87,#88,#89,#90,#91,#92,#93,#94,#95,#96,#97,#98,#99,#100,#101),.UNSPECIFIED.,.F.,.F.,(4,1,1,1,1,1,1,1,1,1,1,1,1,1,1,4),(0.0,0.126663764550506,0.253327529101013,0.379991293651519,0.506655058202026,0.633318822752532,0.696650705027786,0.759982587303039,0.823314469578292,0.886646351853545,0.918312292991172,0.949978234128799,0.981644175266425,0.997477145835238,1.00539363111965,1.01331011640405),.UNSPECIFIED.);
#72=VERTEX_POINT('',#102);
#73=LINE('',#103,#104);
#74=VERTEX_POINT('',#105);
#75=LINE('',#106,#107);
#76=VERTEX_POINT('',#108);
#77=LINE('',#109,#110);
#78=B_SPLINE_CURVE_WITH_KNOTS('',3,(#111,#112,#113,#114,#115,#116,#117,#118,#119,#120,#121,#122,#123,#124,#125,#126,#127,#128,#129,#130,#131,#132,#133,#134,#135,#136,#137,#138),.UNSPECIFIED.,.F.,.F.,(4,1,1,1,1,1,1,1,1,1,1,1,1,1,1,1,1,1,1,1,1,1,1,1,1,4),(0.0,0.00791907942195124,0.0158381588439025,0.0237572382658537,0.0316763176878049,0.0633526353756099,0.0950289530634148,0.12670527075122,0.19005790612683,0.25341054150244,0.316763176878049,0.380115812253659,0.506821083004879,0.633526353756099,0.696878989131709,0.760231624507319,0.823584259882928,0.855260577570733,0.886936895258538,0.918613212946343,0.950289530634148,0.981965848321953,0.989884927743904,0.997804007165856,1.00572308658781,1.01364216600976),.UNSPECIFIED.);
#79=CARTESIAN_POINT('',(0.952365696430206,-5.46844094060361E-05,-0.307097494602203));
#80=CARTESIAN_POINT('',(0.951508283615112,0.0999985784292221,-0.30839341878891));
#81=CARTESIAN_POINT('',(0.951936990022659,0.049971947009908,-0.307745456695557));
#82=VECTOR('',#139,1.0);
#83=CARTESIAN_POINT('',(8.76464582688641E-06,0.100106380879879,0.0008741834317334));
#84=CARTESIAN_POINT('',(0.951508283615112,0.0999985784292221,-0.30839341878891));
#85=CARTESIAN_POINT('',(0.916082007649323,0.100000779783736,-0.285423583624662));
#86=CARTESIAN_POINT('',(0.843960136875461,0.10000382528697,-0.241432982549328));
#87=CARTESIAN_POINT('',(0.731824946237087,0.100009600508739,-0.182390019886228));
#88=CARTESIAN_POINT('',(0.616162045225001,0.100015480519105,-0.130597415035617));
#89=CARTESIAN_POINT('',(0.497319062602977,0.100021450474253,-0.0865707929775211));
#90=CARTESIAN_POINT('',(0.396007615661549,0.100026153922084,-0.0567228144628109));
#91=CARTESIAN_POINT('',(0.31384699472344,0.100029593793158,-0.0371661812423501));
#92=CARTESIAN_POINT('',(0.25174170095118,0.100031868152517,-0.024709335203478));
#93=CARTESIAN_POINT('',(0.189225356100757,0.100034014892351,-0.0145133142683833));
#94=CARTESIAN_POINT('',(0.136850968257619,0.100035111951374,-0.00793284737014067));
#95=CARTESIAN_POINT('',(0.0948266028963422,0.100036942889587,-0.00384880892825804));
#96=CARTESIAN_POINT('',(0.0632560819575937,0.100035932354646,-0.00134756245332468));
#97=CARTESIAN_POINT('',(0.0369151909707896,0.10004265945322,0.000163637071044326));
#98=CARTESIAN_POINT('',(0.0184600183585498,0.100030260266545,0.00113727689905587));
#99=CARTESIAN_POINT('',(0.0079152854722356,0.100034977350103,0.00149597955556716));
#100=CARTESIAN_POINT('',(0.00264022153281796,0.100083479397796,0.00106995280411337));
#101=CARTESIAN_POINT('',(8.76464582688641E-06,0.100106380879879,0.0008741834317334));
#102=CARTESIAN_POINT('',(-6.76131378829147E-35,0.0900215730071068,-5.07568416177671E-35));
#103=CARTESIAN_POINT('',(4.3823229134432E-06,0.0950639769434929,0.0004370917158667));
#104=VECTOR('',#140,1.0);
#105=CARTESIAN_POINT('',(-4.61007808146133E-34,0.0100006004795432,-2.02930434104874E-34));
#106=CARTESIAN_POINT('',(-7.40427590782391E-35,0.050011086743325,-3.70377090382801E-35));
#107=VECTOR('',#141,1.0);
#108=CARTESIAN_POINT('',(-1.02862386484048E-05,-3.75782219634857E-05,0.000910526141524315));
#109=CARTESIAN_POINT('',(-5.14311932420242E-06,0.00498151112878986,0.000455263070762157));
#110=VECTOR('',#142,1.0);
#111=CARTESIAN_POINT('',(-1.02862386484048E-05,-3.75782219634857E-05,0.000910526141524315));
#112=CARTESIAN_POINT('',(0.00260969875205502,-4.12781979842872E-05,0.00123246532128202));
#113=CARTESIAN_POINT('',(0.00787375867125159,-4.89598037533301E-05,0.00191737042938195));
#114=CARTESIAN_POINT('',(0.0157800680628372,-5.29360351901549E-05,0.00171480910548148));
#115=CARTESIAN_POINT('',(0.0236983270365308,-5.53332389047427E-05,0.00116115211961746));
#116=CARTESIAN_POINT('',(0.039512779705649,-6.29484013744587E-05,0.000574829223832989));
#117=CARTESIAN_POINT('',(0.0632325651958893,-6.35639575439182E-05,-0.000993674745548188));
#118=CARTESIAN_POINT('',(0.0948109827724695,-6.09202416717776E-05,-0.00342976402763416));
#119=CARTESIAN_POINT('',(0.136848805052502,-5.5010493502084E-05,-0.00754867611910022));
#120=CARTESIAN_POINT('',(0.189238254318166,-5.63793728060725E-05,-0.0141341097891326));
#121=CARTESIAN_POINT('',(0.251771892204959,-6.26213368208972E-05,-0.0243575362944939));
#122=CARTESIAN_POINT('',(0.313892894910796,-6.5185241585235E-05,-0.0368406399165021));
#123=CARTESIAN_POINT('',(0.396072171375908,-6.64884824382704E-05,-0.0564387516065942));
#124=CARTESIAN_POINT('',(0.497402611353413,-6.93919139032915E-05,-0.0863459748940862));
#125=CARTESIAN_POINT('',(0.596447907779794,-6.94779107839307E-05,-0.123107457256957));
#126=CARTESIAN_POINT('',(0.674092648025987,-6.83042065547759E-05,-0.156400424463016));
#127=CARTESIAN_POINT('',(0.731481807503609,-6.66414210823721E-05,-0.183253720891882));
#128=CARTESIAN_POINT('',(0.778565067151292,-6.4597795456228E-05,-0.207150729754711));
#129=CARTESIAN_POINT('',(0.815765103172201,-6.25415477768935E-05,-0.227152563694061));
#130=CARTESIAN_POINT('',(0.843430473524933,-6.08128891677393E-05,-0.242582170117124));
#131=CARTESIAN_POINT('',(0.870842634574313,-5.88296707688688E-05,-0.258458776108809));
#132=CARTESIAN_POINT('',(0.898049574225765,-5.686107947456E-05,-0.27467641101967));
#133=CARTESIAN_POINT('',(0.918151350216075,-5.47489111377099E-05,-0.287365248258485));
#134=CARTESIAN_POINT('',(0.931646244989911,-5.36938361096225E-05,-0.295624490541384));
#135=CARTESIAN_POINT('',(0.938189804757566,-5.2180412946674E-05,-0.300134841335514));
#136=CARTESIAN_POINT('',(0.944909331333199,-5.16323906482946E-05,-0.304293101296043));
#137=CARTESIAN_POINT('',(0.949900776740845,-5.37104354640774E-05,-0.306152957756351));
#138=CARTESIAN_POINT('',(0.952365696430206,-5.46844094060361E-05,-0.307097494602203));
#139=DIRECTION('',(-0.00505860155992757,0.999958680460458,-0.00755300748299534));
#140=DIRECTION('',(-0.000865846767058583,-0.996263678591645,-0.0863593250808435));
#141=DIRECTION('',(-0.0,-1.0,-0.0));
#142=DIRECTION('',(-0.00102052147640192,-0.995910876560942,0.090335399946708));
ENDSEC;
END-ISO-10303-21;
