ISO-10303-21;
HEADER;
FILE_DESCRIPTION(('STEP AP214'),'1');
FILE_NAME('SMAStripDeformed_17.stp','2026-05-02T04:11:11',(' '),(' '),'Spatial InterOp 3D',' ',' ');
FILE_SCHEMA(('AUTOMOTIVE_DESIGN { 1 0 10303 214 1 1 1 1 }'));
ENDSEC;
DATA;
#1=PRODUCT_DEFINITION_CONTEXT('',#9,'design');
#2=APPLICATION_PROTOCOL_DEFINITION('INTERNATIONAL STANDARD','automotive_design',1994,#9);
#3=PRODUCT_CATEGORY_RELATIONSHIP('NONE','NONE',#10,#11);
#4=SHAPE_DEFINITION_REPRESENTATION(#12,#13);
#5= (GEOMETRIC_REPRESENTATION_CONTEXT(3)GLOBAL_UNCERTAINTY_ASSIGNED_CONTEXT((#16))GLOBAL_UNIT_ASSIGNED_CONTEXT((#18,#19,#20))REPRESENTATION_CONTEXT('NONE','WORKSPACE'));
#9=APPLICATION_CONTEXT(' ');
#10=PRODUCT_CATEGORY('part','NONE');
#11=PRODUCT_RELATED_PRODUCT_CATEGORY('detail',' ',(#22));
#12=PRODUCT_DEFINITION_SHAPE('NONE','NONE',#23);
#13=MANIFOLD_SURFACE_SHAPE_REPRESENTATION('1',(#24,#25),#5);
#16=UNCERTAINTY_MEASURE_WITH_UNIT(LENGTH_MEASURE(1.0E-06),#18,'','');
#18= (CONVERSION_BASED_UNIT('MILLIMETRE',#28)LENGTH_UNIT()NAMED_UNIT(#31));
#19= (NAMED_UNIT(#33)PLANE_ANGLE_UNIT()SI_UNIT($,.RADIAN.));
#20= (NAMED_UNIT(#33)SOLID_ANGLE_UNIT()SI_UNIT($,.STERADIAN.));
#22=PRODUCT('1','','PART--DESC',(#39));
#23=PRODUCT_DEFINITION('','NONE',#40,#1);
#24=SHELL_BASED_SURFACE_MODEL('1',(#41));
#25=AXIS2_PLACEMENT_3D('',#42,#43,#44);
#28=LENGTH_MEASURE_WITH_UNIT(LENGTH_MEASURE(1.0),#45);
#31=DIMENSIONAL_EXPONENTS(1.0,0.0,0.0,0.0,0.0,0.0,0.0);
#33=DIMENSIONAL_EXPONENTS(0.0,0.0,0.0,0.0,0.0,0.0,0.0);
#39=PRODUCT_CONTEXT('',#9,'mechanical');
#40=PRODUCT_DEFINITION_FORMATION_WITH_SPECIFIED_SOURCE(' ','NONE',#22,.NOT_KNOWN.);
#41=CLOSED_SHELL('',(#46));
#42=CARTESIAN_POINT('',(0.0,0.0,0.0));
#43=DIRECTION('',(0.0,0.0,1.0));
#44=DIRECTION('',(1.0,0.0,0.0));
#45= (NAMED_UNIT(#31)LENGTH_UNIT()SI_UNIT(.MILLI.,.METRE.));
#46=FACE_SURFACE('',(#48),#49,.T.);
#48=FACE_BOUND('',#50,.T.);
#49=CYLINDRICAL_SURFACE('',#51,1.26950524127923);
#50=EDGE_LOOP('',(#52,#53,#54,#55,#56,#57,#58,#59,#60,#61));
#51=AXIS2_PLACEMENT_3D('',#62,#63,#64);
#52=ORIENTED_EDGE('',*,*,#65,.T.);
#53=ORIENTED_EDGE('',*,*,#66,.T.);
#54=ORIENTED_EDGE('',*,*,#67,.T.);
#55=ORIENTED_EDGE('',*,*,#68,.T.);
#56=ORIENTED_EDGE('',*,*,#69,.T.);
#57=ORIENTED_EDGE('',*,*,#70,.T.);
#58=ORIENTED_EDGE('',*,*,#71,.T.);
#59=ORIENTED_EDGE('',*,*,#72,.T.);
#60=ORIENTED_EDGE('',*,*,#73,.T.);
#61=ORIENTED_EDGE('',*,*,#74,.T.);
#62=CARTESIAN_POINT('',(-0.309989345475402,-0.0113640588222343,-1.21644823860925));
#63=DIRECTION('',(-0.0051936545844382,-0.999929640998189,0.0106648490514549));
#64=DIRECTION('',(-1.41938043905371E-20,0.0106649928914397,0.999943127346063));
#65=EDGE_CURVE('',#75,#76,#77,.T.);
#66=EDGE_CURVE('',#76,#78,#79,.T.);
#67=EDGE_CURVE('',#78,#80,#81,.T.);
#68=EDGE_CURVE('',#80,#82,#83,.T.);
#69=EDGE_CURVE('',#82,#84,#85,.T.);
#70=EDGE_CURVE('',#84,#86,#87,.T.);
#71=EDGE_CURVE('',#86,#88,#89,.T.);
#72=EDGE_CURVE('',#88,#90,#91,.T.);
#73=EDGE_CURVE('',#90,#92,#93,.T.);
#74=EDGE_CURVE('',#92,#75,#94,.T.);
#75=VERTEX_POINT('',#95);
#76=VERTEX_POINT('',#96);
#77=LINE('',#97,#98);
#78=VERTEX_POINT('',#99);
#79=LINE('',#100,#101);
#80=VERTEX_POINT('',#102);
#81=LINE('',#103,#104);
#82=VERTEX_POINT('',#105);
#83=LINE('',#106,#107);
#84=VERTEX_POINT('',#108);
#85=B_SPLINE_CURVE_WITH_KNOTS('',3,(#109,#110,#111,#112,#113,#114,#115,#116,#117,#118,#119,#120,#121,#122,#123,#124,#125),.UNSPECIFIED.,.F.,.F.,(4,1,1,1,1,1,1,1,1,1,1,1,1,1,4),(0.0,0.0157677926859628,0.0315355853719257,0.0630711707438514,0.0946067561157771,0.126142341487703,0.189213512231554,0.252284682975406,0.315355853719257,0.378427024463108,0.504569365950811,0.630711707438514,0.756854048926217,0.882996390413919,1.00913873190162),.UNSPECIFIED.);
#86=VERTEX_POINT('',#126);
#87=LINE('',#127,#128);
#88=VERTEX_POINT('',#129);
#89=LINE('',#130,#131);
#90=VERTEX_POINT('',#132);
#91=LINE('',#133,#134);
#92=VERTEX_POINT('',#135);
#93=LINE('',#136,#137);
#94=B_SPLINE_CURVE_WITH_KNOTS('',3,(#138,#139,#140,#141,#142,#143,#144,#145,#146,#147,#148,#149,#150,#151,#152,#153,#154,#155,#156,#157,#158,#159,#160,#161,#162),.UNSPECIFIED.,.F.,.F.,(4,1,1,1,1,1,1,1,1,1,1,1,1,1,1,1,1,1,1,1,1,1,4),(0.0,0.00795635850334441,0.0159127170066888,0.0238690755100332,0.0318254340133776,0.0636508680267553,0.0954763020401329,0.127301736053511,0.190952604080266,0.254603472107021,0.318254340133776,0.381905208160532,0.509206944214042,0.636508680267553,0.700159548294308,0.763810416321064,0.827461284347819,0.891112152374574,0.922937586387952,0.954763020401329,0.986588454414707,1.0025011714214,1.01841388842808),.UNSPECIFIED.);
#95=CARTESIAN_POINT('',(0.00159061222802848,0.100256539881229,0.0119088226929307));
#96=CARTESIAN_POINT('',(-0.0,0.0900215730071068,0.0));
#97=CARTESIAN_POINT('',(0.000795306114014238,0.0951390564441681,0.00595441134646535));
#98=VECTOR('',#163,1.0);
#99=CARTESIAN_POINT('',(1.3706845277087E-35,0.0199976600706577,5.88082948943971E-35));
#100=CARTESIAN_POINT('',(3.85073151751262E-35,0.0550096165388823,6.91622391211225E-35));
#101=VECTOR('',#164,1.0);
#102=CARTESIAN_POINT('',(-5.49806941307907E-07,0.00999424420297146,-5.3870885494689E-06));
#103=CARTESIAN_POINT('',(-2.74903470653953E-07,0.0149959521368146,-2.69354427473445E-06));
#104=VECTOR('',#165,1.0);
#105=CARTESIAN_POINT('',(0.00142080406658351,-4.12325498473365E-05,0.0127075249329209));
#106=CARTESIAN_POINT('',(0.000710127129821103,0.00497650582656206,0.00635106892218573));
#107=VECTOR('',#166,1.0);
#108=CARTESIAN_POINT('',(0.787971794605255,-0.00161659030709416,-0.576372146606445));
#109=CARTESIAN_POINT('',(0.00142080406658351,-4.12325498473365E-05,0.0127075249329209));
#110=CARTESIAN_POINT('',(0.0066218931129201,-7.39218604959543E-05,0.0119509446546714));
#111=CARTESIAN_POINT('',(0.0169334295637539,-0.000128081955483569,0.00990208862828923));
#112=CARTESIAN_POINT('',(0.0372195525731842,-0.000182095349392012,0.0043260578168048));
#113=CARTESIAN_POINT('',(0.0625531413412241,-0.000222795814352764,-0.00263995094651034));
#114=CARTESIAN_POINT('',(0.0926629046967958,-0.000228028702155819,-0.0120389286728687));
#115=CARTESIAN_POINT('',(0.132474463674467,-0.00022708816670911,-0.0255746381292882));
#116=CARTESIAN_POINT('',(0.181523963303318,-0.000280743884153804,-0.0445147024128543));
#117=CARTESIAN_POINT('',(0.23910313901187,-0.000383604647622115,-0.0703079476287277));
#118=CARTESIAN_POINT('',(0.295264640191526,-0.000467492732636223,-0.0990572192861314));
#119=CARTESIAN_POINT('',(0.368094454908843,-0.000573713848423963,-0.141156650749579));
#120=CARTESIAN_POINT('',(0.454989137803785,-0.000740950931404612,-0.200541680833211));
#121=CARTESIAN_POINT('',(0.551625125025712,-0.000967786121995504,-0.281877785276407));
#122=CARTESIAN_POINT('',(0.639490082752789,-0.00116757814005585,-0.372585157410187));
#123=CARTESIAN_POINT('',(0.718853455018202,-0.00149866514269712,-0.470792958931938));
#124=CARTESIAN_POINT('',(0.765850211658583,-0.00132837760336946,-0.540615464514005));
#125=CARTESIAN_POINT('',(0.787971794605255,-0.00161659030709416,-0.576372146606445));
#126=CARTESIAN_POINT('',(0.796136856079102,-0.00166584586258978,-0.582644104957581));
#127=CARTESIAN_POINT('',(0.792054325342178,-0.00164121808484197,-0.579508125782013));
#128=VECTOR('',#167,1.0);
#129=CARTESIAN_POINT('',(0.802214920520782,0.0084600867703557,-0.578142523765564));
#130=CARTESIAN_POINT('',(0.799175888299942,0.00339712045388296,-0.580393314361572));
#131=VECTOR('',#168,1.0);
#132=CARTESIAN_POINT('',(0.802072107791901,0.0882972329854965,-0.578516840934753));
#133=CARTESIAN_POINT('',(0.802143514156342,0.0483786598779261,-0.578329682350159));
#134=VECTOR('',#169,1.0);
#135=CARTESIAN_POINT('',(0.794167697429657,0.0984251648187637,-0.584250867366791));
#136=CARTESIAN_POINT('',(0.798119902610779,0.0933611989021301,-0.581383854150772));
#137=VECTOR('',#170,1.0);
#138=CARTESIAN_POINT('',(0.794167697429657,0.0984251648187637,-0.584250867366791));
#139=CARTESIAN_POINT('',(0.792432396490019,0.0984189127341349,-0.582245267853298));
#140=CARTESIAN_POINT('',(0.788913691022213,0.0984063696889591,-0.578238353057646));
#141=CARTESIAN_POINT('',(0.78465944724856,0.0983909891741981,-0.571525430702486));
#142=CARTESIAN_POINT('',(0.780607175205993,0.0983827917543085,-0.564660320910377));
#143=CARTESIAN_POINT('',(0.771944837274821,0.0983803088781769,-0.551322374482405));
#144=CARTESIAN_POINT('',(0.759027465701276,0.0984093644674366,-0.53124131513699));
#145=CARTESIAN_POINT('',(0.741032726314705,0.0984908049569844,-0.504990558335604));
#146=CARTESIAN_POINT('',(0.716363373195103,0.0986145364274879,-0.470461618075934));
#147=CARTESIAN_POINT('',(0.684126118323519,0.0987333522094346,-0.428323259012854));
#148=CARTESIAN_POINT('',(0.643251722193182,0.0988475338363056,-0.379511120582504));
#149=CARTESIAN_POINT('',(0.600239426468605,0.0989878176571087,-0.332568277891404));
#150=CARTESIAN_POINT('',(0.539886465670107,0.0991658932614392,-0.272863812963432));
#151=CARTESIAN_POINT('',(0.458907209927111,0.0993656681079342,-0.20412214658428));
#152=CARTESIAN_POINT('',(0.371390177823706,0.0995654655337062,-0.143925377919657));
#153=CARTESIAN_POINT('',(0.297989621343618,0.0997155342955676,-0.10126865154283));
#154=CARTESIAN_POINT('',(0.241368008415918,0.0998259873673523,-0.0721451551580727));
#155=CARTESIAN_POINT('',(0.183298512612139,0.0999362954797742,-0.0460271198537799));
#156=CARTESIAN_POINT('',(0.133817648126927,0.100018433345306,-0.0268623602091497));
#157=CARTESIAN_POINT('',(0.0936499754093422,0.100072361595729,-0.0131724666729546));
#158=CARTESIAN_POINT('',(0.0632664102609627,0.100116917773053,-0.00367999714399146));
#159=CARTESIAN_POINT('',(0.0377058146161746,0.100164958657747,0.00337702076620454));
#160=CARTESIAN_POINT('',(0.0172256075528445,0.100216158207837,0.00896472999152942));
#161=CARTESIAN_POINT('',(0.00683188541675277,0.100244228286968,0.0110940496088267));
#162=CARTESIAN_POINT('',(0.00159061222802848,0.100256539881229,0.0119088226929307));
#163=DIRECTION('',(-0.100779793560472,-0.64847823155876,-0.754532581406749));
#164=DIRECTION('',(-0.0,-1.0,-0.0));
#165=DIRECTION('',(-5.49619118134453E-05,-0.999999853485091,-0.000538524823063875));
#166=DIRECTION('',(0.0874205239713781,-0.617229436039015,0.781911424187886));
#167=DIRECTION('',(0.793030516442174,-0.00478393931723039,-0.609163125867011));
#168=DIRECTION('',(0.48090165156439,0.801172441249489,0.356168949945072));
#169=DIRECTION('',(-0.00178302616113329,0.999986344119801,-0.00491247306594727));
#170=DIRECTION('',(-0.561835963732523,0.719881190549147,-0.407567689286443));
ENDSEC;
END-ISO-10303-21;
