ISO-10303-21;
HEADER;
FILE_DESCRIPTION(('STEP AP214'),'1');
FILE_NAME('SMAStripDeformed_08.stp','2026-05-02T04:02:28',(' '),(' '),'Spatial InterOp 3D',' ',' ');
FILE_SCHEMA(('AUTOMOTIVE_DESIGN { 1 0 10303 214 1 1 1 1 }'));
ENDSEC;
DATA;
#1=PRODUCT_DEFINITION_CONTEXT('',#9,'design');
#2=APPLICATION_PROTOCOL_DEFINITION('INTERNATIONAL STANDARD','automotive_design',1994,#9);
#3=PRODUCT_CATEGORY_RELATIONSHIP('NONE','NONE',#10,#11);
#4=SHAPE_DEFINITION_REPRESENTATION(#12,#13);
#5= (GEOMETRIC_REPRESENTATION_CONTEXT(3)GLOBAL_UNCERTAINTY_ASSIGNED_CONTEXT((#16))GLOBAL_UNIT_ASSIGNED_CONTEXT((#18,#19,#20))REPRESENTATION_CONTEXT('NONE','WORKSPACE'));
#9=APPLICATION_CONTEXT(' ');
#10=PRODUCT_CATEGORY('part','NONE');
#11=PRODUCT_RELATED_PRODUCT_CATEGORY('detail',' ',(#22));
#12=PRODUCT_DEFINITION_SHAPE('NONE','NONE',#23);
#13=MANIFOLD_SURFACE_SHAPE_REPRESENTATION('1',(#24,#25),#5);
#16=UNCERTAINTY_MEASURE_WITH_UNIT(LENGTH_MEASURE(1.0E-06),#18,'','');
#18= (CONVERSION_BASED_UNIT('MILLIMETRE',#28)LENGTH_UNIT()NAMED_UNIT(#31));
#19= (NAMED_UNIT(#33)PLANE_ANGLE_UNIT()SI_UNIT($,.RADIAN.));
#20= (NAMED_UNIT(#33)SOLID_ANGLE_UNIT()SI_UNIT($,.STERADIAN.));
#22=PRODUCT('1','','PART--DESC',(#39));
#23=PRODUCT_DEFINITION('','NONE',#40,#1);
#24=SHELL_BASED_SURFACE_MODEL('1',(#41));
#25=AXIS2_PLACEMENT_3D('',#42,#43,#44);
#28=LENGTH_MEASURE_WITH_UNIT(LENGTH_MEASURE(1.0),#45);
#31=DIMENSIONAL_EXPONENTS(1.0,0.0,0.0,0.0,0.0,0.0,0.0);
#33=DIMENSIONAL_EXPONENTS(0.0,0.0,0.0,0.0,0.0,0.0,0.0);
#39=PRODUCT_CONTEXT('',#9,'mechanical');
#40=PRODUCT_DEFINITION_FORMATION_WITH_SPECIFIED_SOURCE(' ','NONE',#22,.NOT_KNOWN.);
#41=CLOSED_SHELL('',(#46));
#42=CARTESIAN_POINT('',(0.0,0.0,0.0));
#43=DIRECTION('',(0.0,0.0,1.0));
#44=DIRECTION('',(1.0,0.0,0.0));
#45= (NAMED_UNIT(#31)LENGTH_UNIT()SI_UNIT(.MILLI.,.METRE.));
#46=FACE_SURFACE('',(#48),#49,.T.);
#48=FACE_BOUND('',#50,.T.);
#49=CYLINDRICAL_SURFACE('',#51,1.46181502629976);
#50=EDGE_LOOP('',(#52,#53,#54,#55,#56,#57,#58,#59,#60,#61));
#51=AXIS2_PLACEMENT_3D('',#62,#63,#64);
#52=ORIENTED_EDGE('',*,*,#65,.T.);
#53=ORIENTED_EDGE('',*,*,#66,.T.);
#54=ORIENTED_EDGE('',*,*,#67,.T.);
#55=ORIENTED_EDGE('',*,*,#68,.T.);
#56=ORIENTED_EDGE('',*,*,#69,.T.);
#57=ORIENTED_EDGE('',*,*,#70,.T.);
#58=ORIENTED_EDGE('',*,*,#71,.T.);
#59=ORIENTED_EDGE('',*,*,#72,.T.);
#60=ORIENTED_EDGE('',*,*,#73,.T.);
#61=ORIENTED_EDGE('',*,*,#74,.T.);
#62=CARTESIAN_POINT('',(-0.141756256177569,-0.00930331943072028,-1.44784649709875));
#63=DIRECTION('',(-0.00615528517729344,-0.999956358895568,0.00702799891175424));
#64=DIRECTION('',(0.0,0.00702813205231706,0.999975302374941));
#65=EDGE_CURVE('',#75,#76,#77,.T.);
#66=EDGE_CURVE('',#76,#78,#79,.T.);
#67=EDGE_CURVE('',#78,#80,#81,.T.);
#68=EDGE_CURVE('',#80,#82,#83,.T.);
#69=EDGE_CURVE('',#82,#84,#85,.T.);
#70=EDGE_CURVE('',#84,#86,#87,.T.);
#71=EDGE_CURVE('',#86,#88,#89,.T.);
#72=EDGE_CURVE('',#88,#90,#91,.T.);
#73=EDGE_CURVE('',#90,#92,#93,.T.);
#74=EDGE_CURVE('',#92,#75,#94,.T.);
#75=VERTEX_POINT('',#95);
#76=VERTEX_POINT('',#96);
#77=LINE('',#97,#98);
#78=VERTEX_POINT('',#99);
#79=LINE('',#100,#101);
#80=VERTEX_POINT('',#102);
#81=B_SPLINE_CURVE_WITH_KNOTS('',3,(#103,#104,#105,#106,#107,#108,#109,#110,#111,#112,#113),.UNSPECIFIED.,.F.,.F.,(4,1,1,1,1,1,1,1,4),(0.0,0.125848788168318,0.251697576336636,0.377546364504954,0.503395152673271,0.629243940841589,0.755092729009907,0.880941517178225,1.00679030534654),.UNSPECIFIED.);
#82=VERTEX_POINT('',#114);
#83=LINE('',#115,#116);
#84=VERTEX_POINT('',#117);
#85=LINE('',#118,#119);
#86=VERTEX_POINT('',#120);
#87=LINE('',#121,#122);
#88=VERTEX_POINT('',#123);
#89=LINE('',#124,#125);
#90=VERTEX_POINT('',#126);
#91=LINE('',#127,#128);
#92=VERTEX_POINT('',#129);
#93=B_SPLINE_CURVE_WITH_KNOTS('',3,(#130,#131,#132,#133,#134,#135,#136,#137,#138,#139,#140,#141),.UNSPECIFIED.,.F.,.F.,(4,1,1,1,1,1,1,1,1,4),(0.0,0.127024870724345,0.25404974144869,0.381074612173036,0.508099482897381,0.635124353621726,0.762149224346071,0.889174095070416,0.952686530432589,1.01619896579476),.UNSPECIFIED.);
#94=LINE('',#142,#143);
#95=CARTESIAN_POINT('',(-4.14390640928398E-34,0.0900215730071068,-2.50250234703713E-34));
#96=CARTESIAN_POINT('',(-1.18430390037998E-34,0.0100006004795432,-5.54401764153362E-35));
#97=CARTESIAN_POINT('',(-4.12781499364718E-35,0.050011086743325,-2.99232762878242E-35));
#98=VECTOR('',#144,1.0);
#99=CARTESIAN_POINT('',(0.000273251469479874,-2.88417013507569E-05,0.0058437273837626));
#100=CARTESIAN_POINT('',(0.000136625734739937,0.00498587938909623,0.0029218636918813));
#101=VECTOR('',#145,1.0);
#102=CARTESIAN_POINT('',(0.893225193023682,-0.000614887801930308,-0.4144047498703));
#103=CARTESIAN_POINT('',(0.000273251469479874,-2.88417013507569E-05,0.0058437273837626));
#104=CARTESIAN_POINT('',(0.0420814500070707,-0.000189668812344818,0.00240610044760134));
#105=CARTESIAN_POINT('',(0.125384043792691,-5.33850129770393E-05,-0.00833004551764323));
#106=CARTESIAN_POINT('',(0.248235969310984,-0.000172772655305425,-0.036272779606074));
#107=CARTESIAN_POINT('',(0.368010704561333,-0.000222074020264856,-0.0753087561245456));
#108=CARTESIAN_POINT('',(0.483846492450818,-0.000300012680878253,-0.124809640029202));
#109=CARTESIAN_POINT('',(0.595010972618062,-0.00038066163251458,-0.184043045266654));
#110=CARTESIAN_POINT('',(0.700894169576343,-0.00046002741320197,-0.252251537052012));
#111=CARTESIAN_POINT('',(0.800959076580837,-0.000557499209076277,-0.328751898713936));
#112=CARTESIAN_POINT('',(0.863203748064404,-0.000569294718602442,-0.385104931217307));
#113=CARTESIAN_POINT('',(0.893225193023682,-0.000614887801930308,-0.4144047498703));
#114=CARTESIAN_POINT('',(0.902820467948914,-0.000660294143017381,-0.41847026348114));
#115=CARTESIAN_POINT('',(0.898022830486298,-0.000637590972473845,-0.41643750667572));
#116=VECTOR('',#146,1.0);
#117=CARTESIAN_POINT('',(0.902728021144867,0.0393854081630707,-0.41860818862915));
#118=CARTESIAN_POINT('',(0.90277424454689,0.0193625570100266,-0.418539226055145));
#119=VECTOR('',#147,1.0);
#120=CARTESIAN_POINT('',(0.902681231498718,0.059408251196146,-0.418677628040314));
#121=CARTESIAN_POINT('',(0.902704626321793,0.0493968296796083,-0.418642908334732));
#122=VECTOR('',#148,1.0);
#123=CARTESIAN_POINT('',(0.902610659599304,0.0894423425197601,-0.418782085180283));
#124=CARTESIAN_POINT('',(0.902645945549011,0.0744252968579531,-0.418729856610298));
#125=VECTOR('',#149,1.0);
#126=CARTESIAN_POINT('',(0.900274574756622,0.0994560867547989,-0.421147078275681));
#127=CARTESIAN_POINT('',(0.901442617177963,0.0944492146372795,-0.419964581727982));
#128=VECTOR('',#150,1.0);
#129=CARTESIAN_POINT('',(0.000330819631926715,0.100150026381016,0.00509568257257342));
#130=CARTESIAN_POINT('',(0.900274574756622,0.0994560867547989,-0.421147078275681));
#131=CARTESIAN_POINT('',(0.870133534172064,0.0993473145561502,-0.391409577909353));
#132=CARTESIAN_POINT('',(0.807592604629608,0.0995658324679736,-0.334213730867532));
#133=CARTESIAN_POINT('',(0.706913617831848,0.09959627182508,-0.256577243319684));
#134=CARTESIAN_POINT('',(0.600285863974147,0.0997171308729942,-0.1873499677644));
#135=CARTESIAN_POINT('',(0.488251591428514,0.0998111020996407,-0.127242019119173));
#136=CARTESIAN_POINT('',(0.371440794388899,0.0998988555586826,-0.0770253101537075));
#137=CARTESIAN_POINT('',(0.250602395492985,0.0999853655438455,-0.0374390269447136));
#138=CARTESIAN_POINT('',(0.147278881896705,0.100009672338864,-0.0139038082096326));
#139=CARTESIAN_POINT('',(0.0635572760697519,0.100107769376328,-0.00100658164393485));
#140=CARTESIAN_POINT('',(0.0214312172543898,0.100002568213289,0.00337674452835762));
#141=CARTESIAN_POINT('',(0.000330819631926715,0.100150026381016,0.00509568257257342));
#142=CARTESIAN_POINT('',(0.000165409815963358,0.0950857996940613,0.00254784128628671));
#143=VECTOR('',#151,1.0);
#144=DIRECTION('',(-0.0,-1.0,-0.0));
#145=DIRECTION('',(0.0235340012086866,-0.863793723989452,0.503295691600418));
#146=DIRECTION('',(0.920752661496023,-0.00435714554616668,-0.390122482857218));
#147=DIRECTION('',(-0.00230761938355513,0.999991405139371,-0.00344449418164701));
#148=DIRECTION('',(-0.00233679287719672,0.999991256214699,-0.0034679811415288));
#149=DIRECTION('',(-0.00234930895158762,0.999991191675403,-0.00347812004635357));
#150=DIRECTION('',(-0.22140690986075,0.949071766019651,-0.224146744812977));
#151=DIRECTION('',(-0.0291653927582193,-0.892934675499565,-0.449240520384956));
ENDSEC;
END-ISO-10303-21;
