ISO-10303-21;
HEADER;
FILE_DESCRIPTION(('STEP AP214'),'1');
FILE_NAME('SMAStripDeformed_10.stp','2026-05-02T04:04:21',(' '),(' '),'Spatial InterOp 3D',' ',' ');
FILE_SCHEMA(('AUTOMOTIVE_DESIGN { 1 0 10303 214 1 1 1 1 }'));
ENDSEC;
DATA;
#1=PRODUCT_DEFINITION_CONTEXT('',#9,'design');
#2=APPLICATION_PROTOCOL_DEFINITION('INTERNATIONAL STANDARD','automotive_design',1994,#9);
#3=PRODUCT_CATEGORY_RELATIONSHIP('NONE','NONE',#10,#11);
#4=SHAPE_DEFINITION_REPRESENTATION(#12,#13);
#5= (GEOMETRIC_REPRESENTATION_CONTEXT(3)GLOBAL_UNCERTAINTY_ASSIGNED_CONTEXT((#16))GLOBAL_UNIT_ASSIGNED_CONTEXT((#18,#19,#20))REPRESENTATION_CONTEXT('NONE','WORKSPACE'));
#9=APPLICATION_CONTEXT(' ');
#10=PRODUCT_CATEGORY('part','NONE');
#11=PRODUCT_RELATED_PRODUCT_CATEGORY('detail',' ',(#22));
#12=PRODUCT_DEFINITION_SHAPE('NONE','NONE',#23);
#13=MANIFOLD_SURFACE_SHAPE_REPRESENTATION('1',(#24,#25),#5);
#16=UNCERTAINTY_MEASURE_WITH_UNIT(LENGTH_MEASURE(1.0E-06),#18,'','');
#18= (CONVERSION_BASED_UNIT('MILLIMETRE',#28)LENGTH_UNIT()NAMED_UNIT(#31));
#19= (NAMED_UNIT(#33)PLANE_ANGLE_UNIT()SI_UNIT($,.RADIAN.));
#20= (NAMED_UNIT(#33)SOLID_ANGLE_UNIT()SI_UNIT($,.STERADIAN.));
#22=PRODUCT('1','','PART--DESC',(#39));
#23=PRODUCT_DEFINITION('','NONE',#40,#1);
#24=SHELL_BASED_SURFACE_MODEL('1',(#41));
#25=AXIS2_PLACEMENT_3D('',#42,#43,#44);
#28=LENGTH_MEASURE_WITH_UNIT(LENGTH_MEASURE(1.0),#45);
#31=DIMENSIONAL_EXPONENTS(1.0,0.0,0.0,0.0,0.0,0.0,0.0);
#33=DIMENSIONAL_EXPONENTS(0.0,0.0,0.0,0.0,0.0,0.0,0.0);
#39=PRODUCT_CONTEXT('',#9,'mechanical');
#40=PRODUCT_DEFINITION_FORMATION_WITH_SPECIFIED_SOURCE(' ','NONE',#22,.NOT_KNOWN.);
#41=CLOSED_SHELL('',(#46));
#42=CARTESIAN_POINT('',(0.0,0.0,0.0));
#43=DIRECTION('',(0.0,0.0,1.0));
#44=DIRECTION('',(1.0,0.0,0.0));
#45= (NAMED_UNIT(#31)LENGTH_UNIT()SI_UNIT(.MILLI.,.METRE.));
#46=FACE_SURFACE('',(#48),#49,.T.);
#48=FACE_BOUND('',#50,.T.);
#49=CYLINDRICAL_SURFACE('',#51,1.35336661956447);
#50=EDGE_LOOP('',(#52,#53,#54,#55,#56,#57,#58,#59,#60,#61,#62));
#51=AXIS2_PLACEMENT_3D('',#63,#64,#65);
#52=ORIENTED_EDGE('',*,*,#66,.T.);
#53=ORIENTED_EDGE('',*,*,#67,.T.);
#54=ORIENTED_EDGE('',*,*,#68,.T.);
#55=ORIENTED_EDGE('',*,*,#69,.T.);
#56=ORIENTED_EDGE('',*,*,#70,.T.);
#57=ORIENTED_EDGE('',*,*,#71,.T.);
#58=ORIENTED_EDGE('',*,*,#72,.T.);
#59=ORIENTED_EDGE('',*,*,#73,.T.);
#60=ORIENTED_EDGE('',*,*,#74,.T.);
#61=ORIENTED_EDGE('',*,*,#75,.T.);
#62=ORIENTED_EDGE('',*,*,#76,.T.);
#63=CARTESIAN_POINT('',(-0.179423759768468,-0.0074805757002336,-1.33228961051528));
#64=DIRECTION('',(-0.00162823447706814,-0.99998165645879,0.00583400363581019));
#65=DIRECTION('',(0.0,0.00583401136922768,0.999982982010866));
#66=EDGE_CURVE('',#77,#78,#79,.T.);
#67=EDGE_CURVE('',#78,#80,#81,.T.);
#68=EDGE_CURVE('',#80,#82,#83,.T.);
#69=EDGE_CURVE('',#82,#84,#85,.T.);
#70=EDGE_CURVE('',#84,#86,#87,.T.);
#71=EDGE_CURVE('',#86,#88,#89,.T.);
#72=EDGE_CURVE('',#88,#90,#91,.T.);
#73=EDGE_CURVE('',#90,#92,#93,.T.);
#74=EDGE_CURVE('',#92,#94,#95,.T.);
#75=EDGE_CURVE('',#94,#96,#97,.T.);
#76=EDGE_CURVE('',#96,#77,#98,.T.);
#77=VERTEX_POINT('',#99);
#78=VERTEX_POINT('',#100);
#79=LINE('',#101,#102);
#80=VERTEX_POINT('',#103);
#81=LINE('',#104,#105);
#82=VERTEX_POINT('',#106);
#83=LINE('',#107,#108);
#84=VERTEX_POINT('',#109);
#85=LINE('',#110,#111);
#86=VERTEX_POINT('',#112);
#87=LINE('',#113,#114);
#88=VERTEX_POINT('',#115);
#89=B_SPLINE_CURVE_WITH_KNOTS('',3,(#116,#117,#118,#119,#120,#121,#122,#123,#124,#125,#126,#127,#128,#129,#130,#131,#132,#133,#134,#135,#136,#137),.UNSPECIFIED.,.F.,.F.,(4,1,1,1,1,1,1,1,1,1,1,1,1,1,1,1,1,1,1,4),(0.0,0.127193907071243,0.254387814142486,0.38158172121373,0.508775628284973,0.572372581820594,0.635969535356216,0.699566488891838,0.763163442427459,0.826760395963081,0.858558872730892,0.890357349498703,0.922155826266513,0.953954303034324,0.96985354141823,0.985752779802135,0.993702398994088,1.00165201818604,1.00960163737799,1.01755125656995),.UNSPECIFIED.);
#90=VERTEX_POINT('',#138);
#91=LINE('',#139,#140);
#92=VERTEX_POINT('',#141);
#93=LINE('',#142,#143);
#94=VERTEX_POINT('',#144);
#95=LINE('',#145,#146);
#96=VERTEX_POINT('',#147);
#97=B_SPLINE_CURVE_WITH_KNOTS('',3,(#148,#149,#150,#151,#152,#153,#154,#155,#156,#157,#158),.UNSPECIFIED.,.F.,.F.,(4,1,1,1,1,1,1,1,4),(0.0,0.127189124260509,0.254378248521017,0.381567372781526,0.508756497042034,0.635945621302543,0.763134745563051,0.89032386982356,1.01751299408407),.UNSPECIFIED.);
#98=LINE('',#159,#160);
#99=CARTESIAN_POINT('',(0.872871100902557,0.00904291216284037,-0.471720367670059));
#100=CARTESIAN_POINT('',(0.872828364372253,0.0290659498423338,-0.47178640961647));
#101=CARTESIAN_POINT('',(0.872849732637405,0.0190544310025871,-0.471753388643265));
#102=VECTOR('',#161,1.0);
#103=CARTESIAN_POINT('',(0.87278538942337,0.0490889884531498,-0.471852600574493));
#104=CARTESIAN_POINT('',(0.872806876897812,0.0390774691477418,-0.471819505095482));
#105=VECTOR('',#162,1.0);
#106=CARTESIAN_POINT('',(0.8727205991745,0.0791234821081161,-0.471952170133591));
#107=CARTESIAN_POINT('',(0.872752994298935,0.064106235280633,-0.471902385354042));
#108=VECTOR('',#163,0.999999999999999);
#109=CARTESIAN_POINT('',(0.872694909572601,0.0891349464654922,-0.471988499164581));
#110=CARTESIAN_POINT('',(0.87270775437355,0.0841292142868042,-0.471970334649086));
#111=VECTOR('',#164,1.0);
#112=CARTESIAN_POINT('',(0.868720948696136,0.0991481021046638,-0.475408047437668));
#113=CARTESIAN_POINT('',(0.870707929134369,0.094141524285078,-0.473698273301125));
#114=VECTOR('',#165,1.0);
#115=CARTESIAN_POINT('',(0.00033095121034421,0.100161969661713,0.0050723422318697));
#116=CARTESIAN_POINT('',(0.868720948696136,0.0991481021046638,-0.475408047437668));
#117=CARTESIAN_POINT('',(0.841542950882614,0.0990718587255919,-0.442866713735222));
#118=CARTESIAN_POINT('',(0.784453406765479,0.0992913889063949,-0.380057200416635));
#119=CARTESIAN_POINT('',(0.690458040674758,0.0993805648592916,-0.294158987718777));
#120=CARTESIAN_POINT('',(0.589096778226156,0.0995416945917039,-0.217109962525728));
#121=CARTESIAN_POINT('',(0.499163214660297,0.09966220223278,-0.160802577879949));
#122=CARTESIAN_POINT('',(0.424332343118772,0.0997529424429873,-0.12086973758739));
#123=CARTESIAN_POINT('',(0.366860313793008,0.0998190423266247,-0.0935963573901866));
#124=CARTESIAN_POINT('',(0.308147102784209,0.0998839531107306,-0.069107338871036));
#125=CARTESIAN_POINT('',(0.248309052324325,0.0999404576308285,-0.0475101371923891));
#126=CARTESIAN_POINT('',(0.197612253959738,0.099974881106841,-0.0320068757226047));
#127=CARTESIAN_POINT('',(0.156624368185609,0.10000808935485,-0.0211504343889686));
#128=CARTESIAN_POINT('',(0.125686480275919,0.100039514632862,-0.0137887715351504));
#129=CARTESIAN_POINT('',(0.094570447751996,0.100080699967134,-0.00723228490004234));
#130=CARTESIAN_POINT('',(0.0685082742526641,0.100093644219291,-0.00240144471956156));
#131=CARTESIAN_POINT('',(0.0475897310651537,0.10007618721175,0.000980146353054669));
#132=CARTESIAN_POINT('',(0.0344886246580555,0.100073783222467,0.00310027835394624));
#133=CARTESIAN_POINT('',(0.023993917580545,0.100078223427284,0.00433145740676739));
#134=CARTESIAN_POINT('',(0.0161120052768678,0.100103808494079,0.00579297019832691));
#135=CARTESIAN_POINT('',(0.00824117587357423,0.100141217488378,0.00660483969382506));
#136=CARTESIAN_POINT('',(0.00293690370335741,0.100154845371268,0.00555274633663291));
#137=CARTESIAN_POINT('',(0.00033095121034421,0.100161969661713,0.0050723422318697));
#138=CARTESIAN_POINT('',(-1.29683119656044E-34,0.0900215730071068,-5.75449541517812E-35));
#139=CARTESIAN_POINT('',(0.000165475605172105,0.0950917713344097,0.00253617111593485));
#140=VECTOR('',#166,1.0);
#141=CARTESIAN_POINT('',(-3.4314188498527E-34,0.0100006004795432,-2.56205904382803E-34));
#142=CARTESIAN_POINT('',(-2.14822740556475E-35,0.050011086743325,-3.0480637393444E-35));
#143=VECTOR('',#167,1.0);
#144=CARTESIAN_POINT('',(0.000540540961083025,-3.03771521430463E-05,0.00807930435985327));
#145=CARTESIAN_POINT('',(0.000270270480541512,0.00498511166370008,0.00403965217992663));
#146=VECTOR('',#168,1.0);
#147=CARTESIAN_POINT('',(0.868674218654633,-0.000974013935774565,-0.475192487239838));
#148=CARTESIAN_POINT('',(0.000540540961083025,-3.03771521430463E-05,0.00807930435985327));
#149=CARTESIAN_POINT('',(0.0426378370608125,-0.000240228754870699,0.00305673373954418));
#150=CARTESIAN_POINT('',(0.126328452572058,-6.73978168545094E-05,-0.0112436917386223));
#151=CARTESIAN_POINT('',(0.24897993343107,-0.000240596256030016,-0.045536558672501));
#152=CARTESIAN_POINT('',(0.367628552652103,-0.000316607320138039,-0.0917732277504251));
#153=CARTESIAN_POINT('',(0.481291267793738,-0.000432907374969401,-0.149164061226553));
#154=CARTESIAN_POINT('',(0.589178564520022,-0.000561908581218063,-0.216775122004317));
#155=CARTESIAN_POINT('',(0.690498100861144,-0.00066302333708689,-0.29387225263947));
#156=CARTESIAN_POINT('',(0.784449869001635,-0.000906477001787668,-0.37980921211338));
#157=CARTESIAN_POINT('',(0.841517401311644,-0.000693122792475524,-0.442636674176659));
#158=CARTESIAN_POINT('',(0.868674218654633,-0.000974013935774565,-0.475192487239838));
#159=CARTESIAN_POINT('',(0.870772659778595,0.0040344491135329,-0.473456427454948));
#160=VECTOR('',#169,1.0);
#161=DIRECTION('',(-0.00213435150012405,0.999992282934108,-0.00329827468622671));
#162=DIRECTION('',(-0.00214625841438398,0.999992232887334,-0.00330571320951687));
#163=DIRECTION('',(-0.00215697915780756,0.999992178257388,-0.00331524734490901));
#164=DIRECTION('',(-0.00256599307269292,0.99999012403325,-0.00362870714108199));
#165=DIRECTION('',(-0.3515967875289,0.885915454429802,-0.302545048879989));
#166=DIRECTION('',(-0.0291764442389741,-0.89397079782991,-0.447174404152255));
#167=DIRECTION('',(-0.0,-1.0,-0.0));
#168=DIRECTION('',(0.0419303963235503,-0.77811469970112,0.626721114989104));
#169=DIRECTION('',(0.368079253289214,0.878514683240044,0.304515376672016));
ENDSEC;
END-ISO-10303-21;
