ISO-10303-21;
HEADER;
FILE_DESCRIPTION(('STEP AP214'),'1');
FILE_NAME('SMAStripDeformed_14.stp','2026-05-02T04:08:10',(' '),(' '),'Spatial InterOp 3D',' ',' ');
FILE_SCHEMA(('AUTOMOTIVE_DESIGN { 1 0 10303 214 1 1 1 1 }'));
ENDSEC;
DATA;
#1=PRODUCT_DEFINITION_CONTEXT('',#9,'design');
#2=APPLICATION_PROTOCOL_DEFINITION('INTERNATIONAL STANDARD','automotive_design',1994,#9);
#3=PRODUCT_CATEGORY_RELATIONSHIP('NONE','NONE',#10,#11);
#4=SHAPE_DEFINITION_REPRESENTATION(#12,#13);
#5= (GEOMETRIC_REPRESENTATION_CONTEXT(3)GLOBAL_UNCERTAINTY_ASSIGNED_CONTEXT((#16))GLOBAL_UNIT_ASSIGNED_CONTEXT((#18,#19,#20))REPRESENTATION_CONTEXT('NONE','WORKSPACE'));
#9=APPLICATION_CONTEXT(' ');
#10=PRODUCT_CATEGORY('part','NONE');
#11=PRODUCT_RELATED_PRODUCT_CATEGORY('detail',' ',(#22));
#12=PRODUCT_DEFINITION_SHAPE('NONE','NONE',#23);
#13=MANIFOLD_SURFACE_SHAPE_REPRESENTATION('1',(#24,#25),#5);
#16=UNCERTAINTY_MEASURE_WITH_UNIT(LENGTH_MEASURE(1.0E-06),#18,'','');
#18= (CONVERSION_BASED_UNIT('MILLIMETRE',#28)LENGTH_UNIT()NAMED_UNIT(#31));
#19= (NAMED_UNIT(#33)PLANE_ANGLE_UNIT()SI_UNIT($,.RADIAN.));
#20= (NAMED_UNIT(#33)SOLID_ANGLE_UNIT()SI_UNIT($,.STERADIAN.));
#22=PRODUCT('1','','PART--DESC',(#39));
#23=PRODUCT_DEFINITION('','NONE',#40,#1);
#24=SHELL_BASED_SURFACE_MODEL('1',(#41));
#25=AXIS2_PLACEMENT_3D('',#42,#43,#44);
#28=LENGTH_MEASURE_WITH_UNIT(LENGTH_MEASURE(1.0),#45);
#31=DIMENSIONAL_EXPONENTS(1.0,0.0,0.0,0.0,0.0,0.0,0.0);
#33=DIMENSIONAL_EXPONENTS(0.0,0.0,0.0,0.0,0.0,0.0,0.0);
#39=PRODUCT_CONTEXT('',#9,'mechanical');
#40=PRODUCT_DEFINITION_FORMATION_WITH_SPECIFIED_SOURCE(' ','NONE',#22,.NOT_KNOWN.);
#41=CLOSED_SHELL('',(#46));
#42=CARTESIAN_POINT('',(0.0,0.0,0.0));
#43=DIRECTION('',(0.0,0.0,1.0));
#44=DIRECTION('',(1.0,0.0,0.0));
#45= (NAMED_UNIT(#31)LENGTH_UNIT()SI_UNIT(.MILLI.,.METRE.));
#46=FACE_SURFACE('',(#48),#49,.T.);
#48=FACE_BOUND('',#50,.T.);
#49=CYLINDRICAL_SURFACE('',#51,1.25259626590908);
#50=EDGE_LOOP('',(#52,#53,#54,#55,#56,#57,#58,#59));
#51=AXIS2_PLACEMENT_3D('',#60,#61,#62);
#52=ORIENTED_EDGE('',*,*,#63,.T.);
#53=ORIENTED_EDGE('',*,*,#64,.T.);
#54=ORIENTED_EDGE('',*,*,#65,.T.);
#55=ORIENTED_EDGE('',*,*,#66,.T.);
#56=ORIENTED_EDGE('',*,*,#67,.T.);
#57=ORIENTED_EDGE('',*,*,#68,.T.);
#58=ORIENTED_EDGE('',*,*,#69,.T.);
#59=ORIENTED_EDGE('',*,*,#70,.T.);
#60=CARTESIAN_POINT('',(-0.244512962001645,-0.00536869282832062,-1.21653632382151));
#61=DIRECTION('',(0.00208354513511554,-0.999989852239053,0.00399427823114164));
#62=DIRECTION('',(-1.44275324680097E-21,0.00399428690107097,0.999992022804258));
#63=EDGE_CURVE('',#71,#72,#73,.T.);
#64=EDGE_CURVE('',#72,#74,#75,.T.);
#65=EDGE_CURVE('',#74,#76,#77,.T.);
#66=EDGE_CURVE('',#76,#78,#79,.T.);
#67=EDGE_CURVE('',#78,#80,#81,.T.);
#68=EDGE_CURVE('',#80,#82,#83,.T.);
#69=EDGE_CURVE('',#82,#84,#85,.T.);
#70=EDGE_CURVE('',#84,#71,#86,.T.);
#71=VERTEX_POINT('',#87);
#72=VERTEX_POINT('',#88);
#73=LINE('',#89,#90);
#74=VERTEX_POINT('',#91);
#75=LINE('',#92,#93);
#76=VERTEX_POINT('',#94);
#77=B_SPLINE_CURVE_WITH_KNOTS('',3,(#95,#96,#97,#98,#99,#100,#101,#102,#103,#104,#105,#106,#107,#108,#109,#110,#111,#112,#113),.UNSPECIFIED.,.F.,.F.,(4,1,1,1,1,1,1,1,1,1,1,1,1,1,1,1,4),(0.0,0.127295829670766,0.254591659341532,0.381887489012298,0.509183318683063,0.636479148353829,0.700127063189212,0.763774978024595,0.827422892859978,0.891070807695361,0.922894765113052,0.954718722530744,0.986542679948435,0.994498669302858,1.00245465865728,1.0104106480117,1.01836663736613),.UNSPECIFIED.);
#78=VERTEX_POINT('',#114);
#79=LINE('',#115,#116);
#80=VERTEX_POINT('',#117);
#81=LINE('',#118,#119);
#82=VERTEX_POINT('',#120);
#83=LINE('',#121,#122);
#84=VERTEX_POINT('',#123);
#85=B_SPLINE_CURVE_WITH_KNOTS('',3,(#124,#125,#126,#127,#128,#129,#130,#131,#132,#133,#134),.UNSPECIFIED.,.F.,.F.,(4,1,1,1,1,1,1,1,4),(0.0,0.127324155624267,0.254648311248533,0.3819724668728,0.509296622497067,0.636620778121333,0.7639449337456,0.891269089369867,1.01859324499413),.UNSPECIFIED.);
#86=LINE('',#135,#136);
#87=CARTESIAN_POINT('',(0.823647499084473,0.00866923201829195,-0.546151280403137));
#88=CARTESIAN_POINT('',(0.823490977287292,0.0886581689119339,-0.546442449092865));
#89=CARTESIAN_POINT('',(0.823569238185883,0.0486637004651129,-0.546296864748001));
#90=VECTOR('',#137,1.0);
#91=CARTESIAN_POINT('',(0.817350387573242,0.0987162739038467,-0.550839066505432));
#92=CARTESIAN_POINT('',(0.820420682430267,0.0936872214078903,-0.548640757799149));
#93=VECTOR('',#138,1.0);
#94=CARTESIAN_POINT('',(0.000971432309597731,0.100216627120972,0.00917128287255764));
#95=CARTESIAN_POINT('',(0.817350387573242,0.0987162739038467,-0.550839066505432));
#96=CARTESIAN_POINT('',(0.794039299560772,0.0986349094713733,-0.515384075866118));
#97=CARTESIAN_POINT('',(0.744773560791934,0.0989141800657323,-0.446191441863525));
#98=CARTESIAN_POINT('',(0.661445533835782,0.0990720183140469,-0.349752237564613));
#99=CARTESIAN_POINT('',(0.568832983664418,0.0992924475868769,-0.262180965812549));
#100=CARTESIAN_POINT('',(0.467914951816947,0.0994927268571792,-0.184332805641542));
#101=CARTESIAN_POINT('',(0.377734833936219,0.0996635784881476,-0.128214358994871));
#102=CARTESIAN_POINT('',(0.302451962666176,0.0997827362714335,-0.0889821327787272));
#103=CARTESIAN_POINT('',(0.244537559514533,0.099872456336408,-0.0625294630930622));
#104=CARTESIAN_POINT('',(0.185306965910951,0.0999741292766772,-0.039167424086026));
#105=CARTESIAN_POINT('',(0.134971384197214,0.100035880024876,-0.0223914059618921));
#106=CARTESIAN_POINT('',(0.0942011961027855,0.100053439038853,-0.0106062215580621));
#107=CARTESIAN_POINT('',(0.063384294076917,0.100069954251234,-0.00268464267459034));
#108=CARTESIAN_POINT('',(0.040139803147383,0.100110042732368,0.00283010408310833));
#109=CARTESIAN_POINT('',(0.0245491409105887,0.100142177196521,0.00591905825635295));
#110=CARTESIAN_POINT('',(0.0167798491378178,0.100169859429219,0.00774426432709998));
#111=CARTESIAN_POINT('',(0.00896819223537169,0.100201643097519,0.00918436036150976));
#112=CARTESIAN_POINT('',(0.00362340240000973,0.100211423406932,0.00916066498421797));
#113=CARTESIAN_POINT('',(0.000971432309597731,0.100216627120972,0.00917128287255764));
#114=CARTESIAN_POINT('',(-1.03218999522566E-34,0.0900215730071068,-5.52262456270362E-35));
#115=CARTESIAN_POINT('',(0.000485716154798865,0.0951191000640392,0.00458564143627882));
#116=VECTOR('',#139,1.0);
#117=CARTESIAN_POINT('',(-2.49010662135447E-34,0.0100006004795432,-2.23980025220373E-34));
#118=CARTESIAN_POINT('',(-5.97689515813948E-36,0.050011086743325,-2.30646398324793E-35));
#119=VECTOR('',#140,1.0);
#120=CARTESIAN_POINT('',(0.00106545863673091,-4.43764038209338E-05,0.0111811906099319));
#121=CARTESIAN_POINT('',(0.000532729318365455,0.00497811203786114,0.00559059530496597));
#122=VECTOR('',#141,1.0);
#123=CARTESIAN_POINT('',(0.817355275154114,-0.001398308086209,-0.55051201581955));
#124=CARTESIAN_POINT('',(0.00106545863673091,-4.43764038209338E-05,0.0111811906099319));
#125=CARTESIAN_POINT('',(0.04278048227565,-0.000288133733513211,0.00336655283521493));
#126=CARTESIAN_POINT('',(0.125370654473643,-0.000114989533852495,-0.0167686156585023));
#127=CARTESIAN_POINT('',(0.24517374811552,-0.000339415303882122,-0.0604391038360953));
#128=CARTESIAN_POINT('',(0.359694685758457,-0.000455844652922378,-0.11646870686968));
#129=CARTESIAN_POINT('',(0.467922555344267,-0.000622680867645137,-0.183846648904629));
#130=CARTESIAN_POINT('',(0.568846404254098,-0.000810246321545044,-0.261732181647964));
#131=CARTESIAN_POINT('',(0.661474203332815,-0.00097760425422451,-0.349331757668964));
#132=CARTESIAN_POINT('',(0.74474507305355,-0.00126034913761091,-0.445856771601782));
#133=CARTESIAN_POINT('',(0.794048895468703,-0.00111488165803334,-0.51504367058326));
#134=CARTESIAN_POINT('',(0.817355275154114,-0.001398308086209,-0.55051201581955));
#135=CARTESIAN_POINT('',(0.820501387119293,0.00363546196604148,-0.548331648111343));
#136=VECTOR('',#142,1.0);
#137=DIRECTION('',(-0.00193578643382554,0.999987649169952,-0.00457757997594545));
#138=DIRECTION('',(-0.488206237247843,0.799667429450609,-0.349552102251093));
#139=DIRECTION('',(-0.0706621931149029,-0.741590407785722,-0.667121069630093));
#140=DIRECTION('',(-0.0,-1.0,-0.0));
#141=DIRECTION('',(0.0707082855874313,-0.666626624161891,0.742030513057116));
#142=DIRECTION('',(0.497500792181466,0.79599982974895,0.344785778155737));
ENDSEC;
END-ISO-10303-21;
