ISO-10303-21;
HEADER;
FILE_DESCRIPTION(('STEP AP214'),'1');
FILE_NAME('SMAStripDeformed_16.stp','2026-05-02T04:10:10',(' '),(' '),'Spatial InterOp 3D',' ',' ');
FILE_SCHEMA(('AUTOMOTIVE_DESIGN { 1 0 10303 214 1 1 1 1 }'));
ENDSEC;
DATA;
#1=PRODUCT_DEFINITION_CONTEXT('',#9,'design');
#2=APPLICATION_PROTOCOL_DEFINITION('INTERNATIONAL STANDARD','automotive_design',1994,#9);
#3=PRODUCT_CATEGORY_RELATIONSHIP('NONE','NONE',#10,#11);
#4=SHAPE_DEFINITION_REPRESENTATION(#12,#13);
#5= (GEOMETRIC_REPRESENTATION_CONTEXT(3)GLOBAL_UNCERTAINTY_ASSIGNED_CONTEXT((#16))GLOBAL_UNIT_ASSIGNED_CONTEXT((#18,#19,#20))REPRESENTATION_CONTEXT('NONE','WORKSPACE'));
#9=APPLICATION_CONTEXT(' ');
#10=PRODUCT_CATEGORY('part','NONE');
#11=PRODUCT_RELATED_PRODUCT_CATEGORY('detail',' ',(#22));
#12=PRODUCT_DEFINITION_SHAPE('NONE','NONE',#23);
#13=MANIFOLD_SURFACE_SHAPE_REPRESENTATION('1',(#24,#25),#5);
#16=UNCERTAINTY_MEASURE_WITH_UNIT(LENGTH_MEASURE(1.0E-06),#18,'','');
#18= (CONVERSION_BASED_UNIT('MILLIMETRE',#28)LENGTH_UNIT()NAMED_UNIT(#31));
#19= (NAMED_UNIT(#33)PLANE_ANGLE_UNIT()SI_UNIT($,.RADIAN.));
#20= (NAMED_UNIT(#33)SOLID_ANGLE_UNIT()SI_UNIT($,.STERADIAN.));
#22=PRODUCT('1','','PART--DESC',(#39));
#23=PRODUCT_DEFINITION('','NONE',#40,#1);
#24=SHELL_BASED_SURFACE_MODEL('1',(#41));
#25=AXIS2_PLACEMENT_3D('',#42,#43,#44);
#28=LENGTH_MEASURE_WITH_UNIT(LENGTH_MEASURE(1.0),#45);
#31=DIMENSIONAL_EXPONENTS(1.0,0.0,0.0,0.0,0.0,0.0,0.0);
#33=DIMENSIONAL_EXPONENTS(0.0,0.0,0.0,0.0,0.0,0.0,0.0);
#39=PRODUCT_CONTEXT('',#9,'mechanical');
#40=PRODUCT_DEFINITION_FORMATION_WITH_SPECIFIED_SOURCE(' ','NONE',#22,.NOT_KNOWN.);
#41=CLOSED_SHELL('',(#46));
#42=CARTESIAN_POINT('',(0.0,0.0,0.0));
#43=DIRECTION('',(0.0,0.0,1.0));
#44=DIRECTION('',(1.0,0.0,0.0));
#45= (NAMED_UNIT(#31)LENGTH_UNIT()SI_UNIT(.MILLI.,.METRE.));
#46=FACE_SURFACE('',(#48),#49,.T.);
#48=FACE_BOUND('',#50,.T.);
#49=CYLINDRICAL_SURFACE('',#51,1.25609116381709);
#50=EDGE_LOOP('',(#52,#53,#54,#55,#56,#57,#58,#59,#60));
#51=AXIS2_PLACEMENT_3D('',#61,#62,#63);
#52=ORIENTED_EDGE('',*,*,#64,.T.);
#53=ORIENTED_EDGE('',*,*,#65,.T.);
#54=ORIENTED_EDGE('',*,*,#66,.T.);
#55=ORIENTED_EDGE('',*,*,#67,.T.);
#56=ORIENTED_EDGE('',*,*,#68,.T.);
#57=ORIENTED_EDGE('',*,*,#69,.T.);
#58=ORIENTED_EDGE('',*,*,#70,.T.);
#59=ORIENTED_EDGE('',*,*,#71,.T.);
#60=ORIENTED_EDGE('',*,*,#72,.T.);
#61=CARTESIAN_POINT('',(-0.286030397004435,-0.0100157985054332,-1.20927956188047));
#62=DIRECTION('',(-0.00398506449486089,-0.999949511564351,0.00922461832206291));
#63=DIRECTION('',(0.0,0.00922469156981344,0.999957451627539));
#64=EDGE_CURVE('',#73,#74,#75,.T.);
#65=EDGE_CURVE('',#74,#76,#77,.T.);
#66=EDGE_CURVE('',#76,#78,#79,.T.);
#67=EDGE_CURVE('',#78,#80,#81,.T.);
#68=EDGE_CURVE('',#80,#82,#83,.T.);
#69=EDGE_CURVE('',#82,#84,#85,.T.);
#70=EDGE_CURVE('',#84,#86,#87,.T.);
#71=EDGE_CURVE('',#86,#88,#89,.T.);
#72=EDGE_CURVE('',#88,#73,#90,.T.);
#73=VERTEX_POINT('',#91);
#74=VERTEX_POINT('',#92);
#75=LINE('',#93,#94);
#76=VERTEX_POINT('',#95);
#77=LINE('',#96,#97);
#78=VERTEX_POINT('',#98);
#79=LINE('',#99,#100);
#80=VERTEX_POINT('',#101);
#81=B_SPLINE_CURVE_WITH_KNOTS('',3,(#102,#103,#104,#105,#106,#107,#108,#109,#110,#111,#112,#113,#114,#115,#116,#117,#118,#119,#120,#121,#122,#123),.UNSPECIFIED.,.F.,.F.,(4,1,1,1,1,1,1,1,1,1,1,1,1,1,1,1,1,1,1,4),(0.0,0.127377883900824,0.254755767801647,0.382133651702471,0.509511535603295,0.573200477553707,0.636889419504118,0.70057836145453,0.764267303404942,0.827956245355354,0.85980071633056,0.891645187305766,0.923489658280972,0.955334129256178,0.971256364743781,0.987178600231384,0.995139717975185,1.00310083571899,1.01106195346279,1.01902307120659),.UNSPECIFIED.);
#82=VERTEX_POINT('',#124);
#83=LINE('',#125,#126);
#84=VERTEX_POINT('',#127);
#85=LINE('',#128,#129);
#86=VERTEX_POINT('',#130);
#87=LINE('',#131,#132);
#88=VERTEX_POINT('',#133);
#89=B_SPLINE_CURVE_WITH_KNOTS('',3,(#134,#135,#136,#137,#138,#139,#140,#141,#142,#143,#144),.UNSPECIFIED.,.F.,.F.,(4,1,1,1,1,1,1,1,4),(0.0,0.127289333280899,0.254578666561799,0.381867999842698,0.509157333123597,0.636446666404497,0.763735999685396,0.891025332966295,1.01831466624719),.UNSPECIFIED.);
#90=LINE('',#145,#146);
#91=CARTESIAN_POINT('',(-2.13282590409283E-34,0.0900215730071068,-2.04251510675981E-34));
#92=CARTESIAN_POINT('',(-1.72033870879471E-35,0.0200032219290733,4.65161797404129E-35));
#93=CARTESIAN_POINT('',(-8.40493384106061E-36,0.0550123974680901,-2.22519875269772E-35));
#94=VECTOR('',#147,1.0);
#95=CARTESIAN_POINT('',(-5.49806941307907E-07,0.00999424420297146,-5.3870885494689E-06));
#96=CARTESIAN_POINT('',(-2.74903470653953E-07,0.0149987330660224,-2.69354427473445E-06));
#97=VECTOR('',#148,1.0);
#98=CARTESIAN_POINT('',(0.00140899058897048,-5.2726343710674E-05,0.0126955499872565));
#99=CARTESIAN_POINT('',(0.000704220391014587,0.00497075892963039,0.00634508144935353));
#100=VECTOR('',#149,1.0);
#101=CARTESIAN_POINT('',(0.801677763462067,-0.00155988964252174,-0.573748469352722));
#102=CARTESIAN_POINT('',(0.00140899058897048,-5.2726343710674E-05,0.0126955499872565));
#103=CARTESIAN_POINT('',(0.0428576968700857,-0.000259653966342161,0.00348937654959219));
#104=CARTESIAN_POINT('',(0.124784792608536,-0.000158475666586854,-0.0193195918116172));
#105=CARTESIAN_POINT('',(0.243148018362887,-0.000376126998559933,-0.0669018022070624));
#106=CARTESIAN_POINT('',(0.35584713622606,-0.000512809474257439,-0.126622516572845));
#107=CARTESIAN_POINT('',(0.444216432003615,-0.000670239454244592,-0.185677349519567));
#108=CARTESIAN_POINT('',(0.511054673243148,-0.000803208742039938,-0.23810304370244));
#109=CARTESIAN_POINT('',(0.559124589806503,-0.000906194651048217,-0.279914664269651));
#110=CARTESIAN_POINT('',(0.605003715362634,-0.00100764177601906,-0.324118531267836));
#111=CARTESIAN_POINT('',(0.648601875020489,-0.00112311171900637,-0.370573726118008));
#112=CARTESIAN_POINT('',(0.682956614241976,-0.0012258675610389,-0.411048522136803));
#113=CARTESIAN_POINT('',(0.709323212508287,-0.00129094840948543,-0.44433224290533));
#114=CARTESIAN_POINT('',(0.728544798770256,-0.00131824712131956,-0.469723797288935));
#115=CARTESIAN_POINT('',(0.74721980426728,-0.00131263950831539,-0.495519222952789));
#116=CARTESIAN_POINT('',(0.762289852241041,-0.00131865407238373,-0.517366628439024));
#117=CARTESIAN_POINT('',(0.774124189229163,-0.0013483233078377,-0.534985754419656));
#118=CARTESIAN_POINT('',(0.781262817854494,-0.00138464693743473,-0.546188823333948));
#119=CARTESIAN_POINT('',(0.787187136563743,-0.00142388516211839,-0.554965604840267));
#120=CARTESIAN_POINT('',(0.791129069568574,-0.00146722369002502,-0.561952011915064));
#121=CARTESIAN_POINT('',(0.79550595761077,-0.00151750949104494,-0.568557872450191));
#122=CARTESIAN_POINT('',(0.799662451218078,-0.00154577193821876,-0.572022064901025));
#123=CARTESIAN_POINT('',(0.801677763462067,-0.00155988964252174,-0.573748469352722));
#124=CARTESIAN_POINT('',(0.807853639125824,0.00854946486651897,-0.569336831569672));
#125=CARTESIAN_POINT('',(0.804765701293945,0.00349478761199862,-0.571542650461197));
#126=VECTOR('',#150,1.0);
#127=CARTESIAN_POINT('',(0.8077073097229,0.0884395390748978,-0.56968367099762));
#128=CARTESIAN_POINT('',(0.807779967784882,0.0484945019707084,-0.569510251283646));
#129=VECTOR('',#151,1.0);
#130=CARTESIAN_POINT('',(0.799683690071106,0.0985460728406906,-0.575309157371521));
#131=CARTESIAN_POINT('',(0.803695499897003,0.0934928059577942,-0.57249641418457));
#132=VECTOR('',#152,1.0);
#133=CARTESIAN_POINT('',(0.00158510718028992,0.100250355899334,0.011913800612092));
#134=CARTESIAN_POINT('',(0.799683690071106,0.0985460728406906,-0.575309157371521));
#135=CARTESIAN_POINT('',(0.777322901127004,0.0984372877343878,-0.539249909953052));
#136=CARTESIAN_POINT('',(0.729881149644535,0.0987363130201891,-0.468810085445116));
#137=CARTESIAN_POINT('',(0.649622681365872,0.0989380796665619,-0.369825379565746));
#138=CARTESIAN_POINT('',(0.560141193574914,0.0991940185843374,-0.279073968525897));
#139=CARTESIAN_POINT('',(0.461819978970562,0.0994153874674115,-0.197966046917679));
#140=CARTESIAN_POINT('',(0.355824159766984,0.0996391792116633,-0.127194099697501));
#141=CARTESIAN_POINT('',(0.243178090558606,0.0998435590511915,-0.0675597420721834));
#142=CARTESIAN_POINT('',(0.124880690739487,0.100049302282163,-0.020058121494128));
#143=CARTESIAN_POINT('',(0.0430119095696362,0.100123398870939,0.00274374246094487));
#144=CARTESIAN_POINT('',(0.00158510718028992,0.100250355899334,0.011913800612092));
#145=CARTESIAN_POINT('',(0.000792553590144962,0.0951359644532204,0.00595690030604601));
#146=VECTOR('',#153,1.0);
#147=DIRECTION('',(-0.0,-1.0,-0.0));
#148=DIRECTION('',(-5.49313702046396E-05,-0.999999853647878,-0.000538225571929126));
#149=DIRECTION('',(0.086940808097772,-0.615758441669714,0.783123768889562));
#150=DIRECTION('',(0.488546639132496,0.799707027486691,0.348985460414534));
#151=DIRECTION('',(-0.00182251281351753,0.999987189111335,-0.00472229396110444));
#152=DIRECTION('',(-0.569974086073033,0.717938112287719,-0.399617827592762));
#153=DIRECTION('',(-0.100436112414821,-0.648119698910594,-0.754886377680137));
ENDSEC;
END-ISO-10303-21;
