ISO-10303-21;
HEADER;
FILE_DESCRIPTION(('STEP AP214'),'1');
FILE_NAME('SMAStripDeformed_15.stp','2026-05-02T04:09:04',(' '),(' '),'Spatial InterOp 3D',' ',' ');
FILE_SCHEMA(('AUTOMOTIVE_DESIGN { 1 0 10303 214 1 1 1 1 }'));
ENDSEC;
DATA;
#1=PRODUCT_DEFINITION_CONTEXT('',#9,'design');
#2=APPLICATION_PROTOCOL_DEFINITION('INTERNATIONAL STANDARD','automotive_design',1994,#9);
#3=PRODUCT_CATEGORY_RELATIONSHIP('NONE','NONE',#10,#11);
#4=SHAPE_DEFINITION_REPRESENTATION(#12,#13);
#5= (GEOMETRIC_REPRESENTATION_CONTEXT(3)GLOBAL_UNCERTAINTY_ASSIGNED_CONTEXT((#16))GLOBAL_UNIT_ASSIGNED_CONTEXT((#18,#19,#20))REPRESENTATION_CONTEXT('NONE','WORKSPACE'));
#9=APPLICATION_CONTEXT(' ');
#10=PRODUCT_CATEGORY('part','NONE');
#11=PRODUCT_RELATED_PRODUCT_CATEGORY('detail',' ',(#22));
#12=PRODUCT_DEFINITION_SHAPE('NONE','NONE',#23);
#13=MANIFOLD_SURFACE_SHAPE_REPRESENTATION('1',(#24,#25),#5);
#16=UNCERTAINTY_MEASURE_WITH_UNIT(LENGTH_MEASURE(1.0E-06),#18,'','');
#18= (CONVERSION_BASED_UNIT('MILLIMETRE',#28)LENGTH_UNIT()NAMED_UNIT(#31));
#19= (NAMED_UNIT(#33)PLANE_ANGLE_UNIT()SI_UNIT($,.RADIAN.));
#20= (NAMED_UNIT(#33)SOLID_ANGLE_UNIT()SI_UNIT($,.STERADIAN.));
#22=PRODUCT('1','','PART--DESC',(#39));
#23=PRODUCT_DEFINITION('','NONE',#40,#1);
#24=SHELL_BASED_SURFACE_MODEL('1',(#41));
#25=AXIS2_PLACEMENT_3D('',#42,#43,#44);
#28=LENGTH_MEASURE_WITH_UNIT(LENGTH_MEASURE(1.0),#45);
#31=DIMENSIONAL_EXPONENTS(1.0,0.0,0.0,0.0,0.0,0.0,0.0);
#33=DIMENSIONAL_EXPONENTS(0.0,0.0,0.0,0.0,0.0,0.0,0.0);
#39=PRODUCT_CONTEXT('',#9,'mechanical');
#40=PRODUCT_DEFINITION_FORMATION_WITH_SPECIFIED_SOURCE(' ','NONE',#22,.NOT_KNOWN.);
#41=CLOSED_SHELL('',(#46));
#42=CARTESIAN_POINT('',(0.0,0.0,0.0));
#43=DIRECTION('',(0.0,0.0,1.0));
#44=DIRECTION('',(1.0,0.0,0.0));
#45= (NAMED_UNIT(#31)LENGTH_UNIT()SI_UNIT(.MILLI.,.METRE.));
#46=FACE_SURFACE('',(#48),#49,.T.);
#48=FACE_BOUND('',#50,.T.);
#49=CYLINDRICAL_SURFACE('',#51,1.25489084734858);
#50=EDGE_LOOP('',(#52,#53,#54,#55,#56,#57,#58,#59));
#51=AXIS2_PLACEMENT_3D('',#60,#61,#62);
#52=ORIENTED_EDGE('',*,*,#63,.T.);
#53=ORIENTED_EDGE('',*,*,#64,.T.);
#54=ORIENTED_EDGE('',*,*,#65,.T.);
#55=ORIENTED_EDGE('',*,*,#66,.T.);
#56=ORIENTED_EDGE('',*,*,#67,.T.);
#57=ORIENTED_EDGE('',*,*,#68,.T.);
#58=ORIENTED_EDGE('',*,*,#69,.T.);
#59=ORIENTED_EDGE('',*,*,#70,.T.);
#60=CARTESIAN_POINT('',(-0.266655130091088,-0.00894504353270396,-1.21319535543092));
#61=DIRECTION('',(-0.00437348799353907,-0.999955706922496,0.00833407438776858));
#62=DIRECTION('',(1.2091557302095E-20,0.00833415409348768,0.999965270334698));
#63=EDGE_CURVE('',#71,#72,#73,.T.);
#64=EDGE_CURVE('',#72,#74,#75,.T.);
#65=EDGE_CURVE('',#74,#76,#77,.T.);
#66=EDGE_CURVE('',#76,#78,#79,.T.);
#67=EDGE_CURVE('',#78,#80,#81,.T.);
#68=EDGE_CURVE('',#80,#82,#83,.T.);
#69=EDGE_CURVE('',#82,#84,#85,.T.);
#70=EDGE_CURVE('',#84,#71,#86,.T.);
#71=VERTEX_POINT('',#87);
#72=VERTEX_POINT('',#88);
#73=LINE('',#89,#90);
#74=VERTEX_POINT('',#91);
#75=LINE('',#92,#93);
#76=VERTEX_POINT('',#94);
#77=LINE('',#95,#96);
#78=VERTEX_POINT('',#97);
#79=B_SPLINE_CURVE_WITH_KNOTS('',3,(#98,#99,#100,#101,#102,#103,#104,#105,#106,#107,#108,#109,#110,#111,#112,#113,#114,#115),.UNSPECIFIED.,.F.,.F.,(4,1,1,1,1,1,1,1,1,1,1,1,1,1,1,4),(0.0,0.1273407721257,0.254681544251401,0.382022316377101,0.509363088502802,0.636703860628502,0.700374246691353,0.764044632754203,0.827715018817053,0.891385404879903,0.923220597911329,0.955055790942754,0.986890983974179,1.00280858048989,1.01076737874775,1.0187261770056),.UNSPECIFIED.);
#80=VERTEX_POINT('',#116);
#81=LINE('',#117,#118);
#82=VERTEX_POINT('',#119);
#83=LINE('',#120,#121);
#84=VERTEX_POINT('',#122);
#85=LINE('',#123,#124);
#86=B_SPLINE_CURVE_WITH_KNOTS('',3,(#125,#126,#127,#128,#129,#130,#131,#132,#133,#134,#135,#136,#137,#138,#139,#140,#141,#142,#143,#144,#145,#146,#147,#148,#149,#150,#151,#152,#153),.UNSPECIFIED.,.F.,.F.,(4,1,1,1,1,1,1,1,1,1,1,1,1,1,1,1,1,1,1,1,1,1,1,1,1,1,4),(0.0,0.00795779831417331,0.0159155966283466,0.0238733949425199,0.0318311932566932,0.0636623865133865,0.0954935797700797,0.127324773026773,0.190987159540159,0.254649546053546,0.318311932566932,0.381974319080319,0.509299092107092,0.636623865133865,0.700286251647251,0.763948638160638,0.827611024674024,0.859442217930718,0.891273411187411,0.923104604444104,0.954935797700797,0.970851394329144,0.986766990957491,0.994724789271664,1.00268258758584,1.01064038590001,1.01859818421418),.UNSPECIFIED.);
#87=CARTESIAN_POINT('',(0.000975910923443735,0.1002227216959,0.00916419643908739));
#88=CARTESIAN_POINT('',(-2.33619583992345E-34,0.0900215730071068,-2.13244042459771E-34));
#89=CARTESIAN_POINT('',(0.000487955461721867,0.0951221473515034,0.0045820982195437));
#90=VECTOR('',#154,1.0);
#91=CARTESIAN_POINT('',(-1.28784612641071E-34,0.0100006004795432,-9.97161411514859E-35));
#92=CARTESIAN_POINT('',(-1.08175326811902E-35,0.050011086743325,-2.34915256569327E-35));
#93=VECTOR('',#155,1.0);
#94=CARTESIAN_POINT('',(0.00118264567572623,-5.11811231262982E-05,0.0117127671837807));
#95=CARTESIAN_POINT('',(0.000591322837863117,0.00497470967820846,0.00585638359189034));
#96=VECTOR('',#156,1.0);
#97=CARTESIAN_POINT('',(0.809320509433746,-0.00149650580715388,-0.562656402587891));
#98=CARTESIAN_POINT('',(0.00118264567572623,-5.11811231262982E-05,0.0117127671837807));
#99=CARTESIAN_POINT('',(0.042776211493012,-0.000274253440194801,0.00324713773504387));
#100=CARTESIAN_POINT('',(0.12506530270072,-0.000136440149971788,-0.0181279746576842));
#101=CARTESIAN_POINT('',(0.244170266272587,-0.000355000280550034,-0.0637264762642414));
#102=CARTESIAN_POINT('',(0.357766199762555,-0.000480130780631825,-0.121645764946014));
#103=CARTESIAN_POINT('',(0.464843360454723,-0.000656547941773775,-0.190876903361363));
#104=CARTESIAN_POINT('',(0.547730966152204,-0.000815201635087792,-0.257353292400338));
#105=CARTESIAN_POINT('',(0.6098230763525,-0.000944280402900136,-0.315284656459432));
#106=CARTESIAN_POINT('',(0.654146623379564,-0.00105031397632144,-0.361022234667061));
#107=CARTESIAN_POINT('',(0.696179849627426,-0.0011820330002799,-0.408869434817142));
#108=CARTESIAN_POINT('',(0.729372502629184,-0.00125713244830249,-0.450279874022876));
#109=CARTESIAN_POINT('',(0.754821887274888,-0.00125156419160479,-0.484254843036556));
#110=CARTESIAN_POINT('',(0.77333763016848,-0.00125909541211788,-0.510154209034105));
#111=CARTESIAN_POINT('',(0.788352486207021,-0.00130756910705048,-0.532025664048378));
#112=CARTESIAN_POINT('',(0.798488105599983,-0.0013849716099573,-0.547592762293221));
#113=CARTESIAN_POINT('',(0.804284425542611,-0.00144792682034501,-0.556477531839886));
#114=CARTESIAN_POINT('',(0.807652925654024,-0.00148028246097407,-0.560593164033926));
#115=CARTESIAN_POINT('',(0.809320509433746,-0.00149650580715388,-0.562656402587891));
#116=CARTESIAN_POINT('',(0.815555393695831,0.00859354808926582,-0.558274507522583));
#117=CARTESIAN_POINT('',(0.812437951564789,0.00354852114105597,-0.560465455055237));
#118=VECTOR('',#157,1.0);
#119=CARTESIAN_POINT('',(0.815408229827881,0.0885334983468056,-0.558607816696167));
#120=CARTESIAN_POINT('',(0.815480411052704,0.0485635232180357,-0.558441162109375));
#121=VECTOR('',#158,1.0);
#122=CARTESIAN_POINT('',(0.809325754642487,0.0986144617199898,-0.562988042831421));
#123=CARTESIAN_POINT('',(0.812366992235184,0.0935739800333977,-0.560797929763794));
#124=VECTOR('',#159,1.0);
#125=CARTESIAN_POINT('',(0.809325754642487,0.0986144617199898,-0.562988042831421));
#126=CARTESIAN_POINT('',(0.807604099436178,0.0986090061658664,-0.560970084118686));
#127=CARTESIAN_POINT('',(0.804123704710052,0.098598012104727,-0.556940658425749));
#128=CARTESIAN_POINT('',(0.799741386897527,0.0985866556887309,-0.550305284493903));
#129=CARTESIAN_POINT('',(0.795515213431295,0.0985821359514293,-0.543550274799949));
#130=CARTESIAN_POINT('',(0.786592782576088,0.0985843358923721,-0.530377583989636));
#131=CARTESIAN_POINT('',(0.773223612456517,0.0986163755925769,-0.51059240801128));
#132=CARTESIAN_POINT('',(0.75466605312437,0.0986948989610005,-0.484728457425515));
#133=CARTESIAN_POINT('',(0.72922942227965,0.0988080978255215,-0.450751127845744));
#134=CARTESIAN_POINT('',(0.696035522984597,0.0989097242376064,-0.409350205220452));
#135=CARTESIAN_POINT('',(0.654039754103818,0.0990208614562356,-0.361480615930712));
#136=CARTESIAN_POINT('',(0.609715459176046,0.0991313984460729,-0.315754749427765));
#137=CARTESIAN_POINT('',(0.547645498592311,0.0992860409227815,-0.25781551045434));
#138=CARTESIAN_POINT('',(0.464751267742923,0.0994599644206992,-0.191367551671351));
#139=CARTESIAN_POINT('',(0.375542353141094,0.0996382500888007,-0.133668106746535));
#140=CARTESIAN_POINT('',(0.30091714872083,0.0997653072963414,-0.0931580887975915));
#141=CARTESIAN_POINT('',(0.24343857400425,0.0998608279310152,-0.0657366696513374));
#142=CARTESIAN_POINT('',(0.194393563854926,0.0999504178158263,-0.0454600076001549));
#143=CARTESIAN_POINT('',(0.154542908826394,0.100008275231021,-0.0308469681087791));
#144=CARTESIAN_POINT('',(0.124367645006878,0.100040237065687,-0.0207028484047276));
#145=CARTESIAN_POINT('',(0.0939243521744853,0.100056089166501,-0.0114007839391309));
#146=CARTESIAN_POINT('',(0.0683532791078746,0.100072740445709,-0.00432162597146311));
#147=CARTESIAN_POINT('',(0.0477783635644201,0.100102980317771,0.000844731504461259));
#148=CARTESIAN_POINT('',(0.0348896927599935,0.100129498237101,0.00404940056022278));
#149=CARTESIAN_POINT('',(0.0245235725345768,0.100149619468386,0.00618616241462105));
#150=CARTESIAN_POINT('',(0.0167833541041515,0.100180838693981,0.00824636502978231));
#151=CARTESIAN_POINT('',(0.00899718661599913,0.100214607374512,0.00975225068567554));
#152=CARTESIAN_POINT('',(0.00362288899629147,0.100219713828812,0.00933677051994279));
#153=CARTESIAN_POINT('',(0.000975910923443735,0.1002227216959,0.00916419643908739));
#154=DIRECTION('',(-0.0709873873020205,-0.7420276538575,-0.666600143830443));
#155=DIRECTION('',(-0.0,-1.0,-0.0));
#156=DIRECTION('',(0.076470099770717,-0.648525225352411,0.757342297724524));
#157=DIRECTION('',(0.493089698269765,0.797978185668447,0.346544895587175));
#158=DIRECTION('',(-0.00183427281654741,0.999987934941151,-0.00455690853177901));
#159=DIRECTION('',(-0.484188938785782,0.802484319101101,-0.348683221784963));
ENDSEC;
END-ISO-10303-21;
