ISO-10303-21;
HEADER;
FILE_DESCRIPTION(('STEP AP214'),'1');
FILE_NAME('SMAStripDeformed_11.stp','2026-05-02T04:05:13',(' '),(' '),'Spatial InterOp 3D',' ',' ');
FILE_SCHEMA(('AUTOMOTIVE_DESIGN { 1 0 10303 214 1 1 1 1 }'));
ENDSEC;
DATA;
#1=PRODUCT_DEFINITION_CONTEXT('',#9,'design');
#2=APPLICATION_PROTOCOL_DEFINITION('INTERNATIONAL STANDARD','automotive_design',1994,#9);
#3=PRODUCT_CATEGORY_RELATIONSHIP('NONE','NONE',#10,#11);
#4=SHAPE_DEFINITION_REPRESENTATION(#12,#13);
#5= (GEOMETRIC_REPRESENTATION_CONTEXT(3)GLOBAL_UNCERTAINTY_ASSIGNED_CONTEXT((#16))GLOBAL_UNIT_ASSIGNED_CONTEXT((#18,#19,#20))REPRESENTATION_CONTEXT('NONE','WORKSPACE'));
#9=APPLICATION_CONTEXT(' ');
#10=PRODUCT_CATEGORY('part','NONE');
#11=PRODUCT_RELATED_PRODUCT_CATEGORY('detail',' ',(#22));
#12=PRODUCT_DEFINITION_SHAPE('NONE','NONE',#23);
#13=MANIFOLD_SURFACE_SHAPE_REPRESENTATION('1',(#24,#25),#5);
#16=UNCERTAINTY_MEASURE_WITH_UNIT(LENGTH_MEASURE(1.0E-06),#18,'','');
#18= (CONVERSION_BASED_UNIT('MILLIMETRE',#28)LENGTH_UNIT()NAMED_UNIT(#31));
#19= (NAMED_UNIT(#33)PLANE_ANGLE_UNIT()SI_UNIT($,.RADIAN.));
#20= (NAMED_UNIT(#33)SOLID_ANGLE_UNIT()SI_UNIT($,.STERADIAN.));
#22=PRODUCT('1','','PART--DESC',(#39));
#23=PRODUCT_DEFINITION('','NONE',#40,#1);
#24=SHELL_BASED_SURFACE_MODEL('1',(#41));
#25=AXIS2_PLACEMENT_3D('',#42,#43,#44);
#28=LENGTH_MEASURE_WITH_UNIT(LENGTH_MEASURE(1.0),#45);
#31=DIMENSIONAL_EXPONENTS(1.0,0.0,0.0,0.0,0.0,0.0,0.0);
#33=DIMENSIONAL_EXPONENTS(0.0,0.0,0.0,0.0,0.0,0.0,0.0);
#39=PRODUCT_CONTEXT('',#9,'mechanical');
#40=PRODUCT_DEFINITION_FORMATION_WITH_SPECIFIED_SOURCE(' ','NONE',#22,.NOT_KNOWN.);
#41=CLOSED_SHELL('',(#46));
#42=CARTESIAN_POINT('',(0.0,0.0,0.0));
#43=DIRECTION('',(0.0,0.0,1.0));
#44=DIRECTION('',(1.0,0.0,0.0));
#45= (NAMED_UNIT(#31)LENGTH_UNIT()SI_UNIT(.MILLI.,.METRE.));
#46=FACE_SURFACE('',(#48),#49,.T.);
#48=FACE_BOUND('',#50,.T.);
#49=CYLINDRICAL_SURFACE('',#51,1.31694761013856);
#50=EDGE_LOOP('',(#52,#53,#54,#55,#56,#57,#58,#59,#60,#61,#62));
#51=AXIS2_PLACEMENT_3D('',#63,#64,#65);
#52=ORIENTED_EDGE('',*,*,#66,.T.);
#53=ORIENTED_EDGE('',*,*,#67,.T.);
#54=ORIENTED_EDGE('',*,*,#68,.T.);
#55=ORIENTED_EDGE('',*,*,#69,.T.);
#56=ORIENTED_EDGE('',*,*,#70,.T.);
#57=ORIENTED_EDGE('',*,*,#71,.T.);
#58=ORIENTED_EDGE('',*,*,#72,.T.);
#59=ORIENTED_EDGE('',*,*,#73,.T.);
#60=ORIENTED_EDGE('',*,*,#74,.T.);
#61=ORIENTED_EDGE('',*,*,#75,.T.);
#62=ORIENTED_EDGE('',*,*,#76,.T.);
#63=CARTESIAN_POINT('',(-0.196737543637713,-0.00869119599040499,-1.29212509708186));
#64=DIRECTION('',(-0.0046055492852276,-0.999961811636076,0.00742725960750457));
#65=DIRECTION('',(0.0,0.00742733837887222,0.99997241694189));
#66=EDGE_CURVE('',#77,#78,#79,.T.);
#67=EDGE_CURVE('',#78,#80,#81,.T.);
#68=EDGE_CURVE('',#80,#82,#83,.T.);
#69=EDGE_CURVE('',#82,#84,#85,.T.);
#70=EDGE_CURVE('',#84,#86,#87,.T.);
#71=EDGE_CURVE('',#86,#88,#89,.T.);
#72=EDGE_CURVE('',#88,#90,#91,.T.);
#73=EDGE_CURVE('',#90,#92,#93,.T.);
#74=EDGE_CURVE('',#92,#94,#95,.T.);
#75=EDGE_CURVE('',#94,#96,#97,.T.);
#76=EDGE_CURVE('',#96,#77,#98,.T.);
#77=VERTEX_POINT('',#99);
#78=VERTEX_POINT('',#100);
#79=LINE('',#101,#102);
#80=VERTEX_POINT('',#103);
#81=LINE('',#104,#105);
#82=VERTEX_POINT('',#106);
#83=LINE('',#107,#108);
#84=VERTEX_POINT('',#109);
#85=B_SPLINE_CURVE_WITH_KNOTS('',3,(#110,#111,#112,#113,#114,#115,#116,#117,#118,#119,#120,#121,#122,#123,#124),.UNSPECIFIED.,.F.,.F.,(4,1,1,1,1,1,1,1,1,1,1,1,4),(0.0,0.127244136638211,0.254488273276422,0.381732409914632,0.508976546552843,0.636220683191054,0.763464819829265,0.827086888148371,0.890708956467476,0.922519990627029,0.954331024786581,0.986142058946134,1.01795309310569),.UNSPECIFIED.);
#86=VERTEX_POINT('',#125);
#87=LINE('',#126,#127);
#88=VERTEX_POINT('',#128);
#89=LINE('',#129,#130);
#90=VERTEX_POINT('',#131);
#91=LINE('',#132,#133);
#92=VERTEX_POINT('',#134);
#93=LINE('',#135,#136);
#94=VERTEX_POINT('',#137);
#95=LINE('',#138,#139);
#96=VERTEX_POINT('',#140);
#97=LINE('',#141,#142);
#98=B_SPLINE_CURVE_WITH_KNOTS('',3,(#143,#144,#145,#146,#147,#148,#149,#150,#151,#152,#153,#154,#155,#156,#157,#158,#159,#160,#161,#162,#163,#164,#165,#166,#167,#168,#169),.UNSPECIFIED.,.F.,.F.,(4,1,1,1,1,1,1,1,1,1,1,1,1,1,1,1,1,1,1,1,1,1,1,1,4),(0.0,0.0318193826120729,0.0636387652241458,0.0954581478362188,0.127277530448292,0.190916295672438,0.254555060896583,0.318193826120729,0.381832591344875,0.509110121793167,0.572748887017313,0.636387652241458,0.700026417465604,0.76366518268975,0.827303947913896,0.859123330525969,0.890942713138042,0.922762095750115,0.954581478362188,0.970491169668224,0.98640086097426,0.994355706627279,1.0023105522803,1.01026539793332,1.01822024358633),.UNSPECIFIED.);
#99=CARTESIAN_POINT('',(0.000330957380356267,0.100166767835617,0.00506225461140275));
#100=CARTESIAN_POINT('',(-3.13127060187213E-34,0.0900215730071068,-2.4498402001203E-34));
#101=CARTESIAN_POINT('',(0.000165478690178134,0.0950941704213619,0.00253112730570138));
#102=VECTOR('',#170,1.0);
#103=CARTESIAN_POINT('',(-1.1851951638702E-34,0.0100006004795432,-6.34924160334021E-35));
#104=CARTESIAN_POINT('',(-1.53820323467308E-35,0.050011086743325,-2.19409923589567E-35));
#105=VECTOR('',#171,1.0);
#106=CARTESIAN_POINT('',(0.000671781308483332,-3.36485463776626E-05,0.00901118572801352));
#107=CARTESIAN_POINT('',(0.000335890654241666,0.00498347596658277,0.00450559286400676));
#108=VECTOR('',#172,1.0);
#109=CARTESIAN_POINT('',(0.854727685451508,-0.001097192754969,-0.497294783592224));
#110=CARTESIAN_POINT('',(0.000671781308483332,-3.36485463776626E-05,0.00901118572801352));
#111=CARTESIAN_POINT('',(0.042691817885878,-0.000253612230018623,0.00324265436365492));
#112=CARTESIAN_POINT('',(0.126138088603324,-7.93116869870676E-05,-0.0126473882599046));
#113=CARTESIAN_POINT('',(0.248087810429009,-0.000267438775617984,-0.0495760189367424));
#114=CARTESIAN_POINT('',(0.365664109134346,-0.000355430137694166,-0.0986363520031452));
#115=CARTESIAN_POINT('',(0.477859360039862,-0.000485551438815785,-0.15897540816471));
#116=CARTESIAN_POINT('',(0.583860736698233,-0.000631625308099556,-0.229618787095848));
#117=CARTESIAN_POINT('',(0.666284119797437,-0.000730985548289302,-0.296514546861362));
#118=CARTESIAN_POINT('',(0.728238491799564,-0.000881875484613178,-0.354494878350652));
#119=CARTESIAN_POINT('',(0.76520994193919,-0.00093244220925792,-0.392515774046024));
#120=CARTESIAN_POINT('',(0.793702301645426,-0.000902014993737106,-0.42393993063155));
#121=CARTESIAN_POINT('',(0.814480504039284,-0.000890041684928398,-0.448030147922205));
#122=CARTESIAN_POINT('',(0.834807048250847,-0.000929526862915676,-0.472500625472451));
#123=CARTESIAN_POINT('',(0.847663950791565,-0.00103180669671538,-0.48938672658858));
#124=CARTESIAN_POINT('',(0.854727685451508,-0.001097192754969,-0.497294783592224));
#125=CARTESIAN_POINT('',(0.859035789966583,0.00891906674951315,-0.493955016136169));
#126=CARTESIAN_POINT('',(0.856881737709045,0.00391093699727207,-0.495624899864197));
#127=VECTOR('',#173,1.0);
#128=CARTESIAN_POINT('',(0.859015107154846,0.0189306251704693,-0.493987530469894));
#129=CARTESIAN_POINT('',(0.859025448560715,0.0139248459599912,-0.493971273303032));
#130=VECTOR('',#174,1.0);
#131=CARTESIAN_POINT('',(0.858973562717438,0.0389537438750267,-0.494052708148956));
#132=CARTESIAN_POINT('',(0.858994334936142,0.028942184522748,-0.494020119309425));
#133=VECTOR('',#175,1.0);
#134=CARTESIAN_POINT('',(0.858889937400818,0.0789999216794968,-0.494183361530304));
#135=CARTESIAN_POINT('',(0.858931750059128,0.0589768327772617,-0.49411803483963));
#136=VECTOR('',#176,0.999999999999999);
#137=CARTESIAN_POINT('',(0.858868896961212,0.0890114530920982,-0.494216114282608));
#138=CARTESIAN_POINT('',(0.858879417181015,0.0840056873857975,-0.494199737906456));
#139=VECTOR('',#177,1.0);
#140=CARTESIAN_POINT('',(0.854783296585083,0.0990250110626221,-0.497514724731445));
#141=CARTESIAN_POINT('',(0.856826096773148,0.0940182320773602,-0.495865419507027));
#142=VECTOR('',#178,1.0);
#143=CARTESIAN_POINT('',(0.854783296585083,0.0990250110626221,-0.497514724731445));
#144=CARTESIAN_POINT('',(0.847572916995232,0.099007363192886,-0.489736092015829));
#145=CARTESIAN_POINT('',(0.834758562587145,0.0989931960239297,-0.472798319548023));
#146=CARTESIAN_POINT('',(0.814400961067048,0.0990248716316174,-0.448346189865277));
#147=CARTESIAN_POINT('',(0.79361564345089,0.0990827952064149,-0.424250412420648));
#148=CARTESIAN_POINT('',(0.765105322221871,0.0991686798356107,-0.392827795463992));
#149=CARTESIAN_POINT('',(0.728114087179917,0.0992385113110019,-0.354806736402821));
#150=CARTESIAN_POINT('',(0.681622886594264,0.0993015946692913,-0.311324100394664));
#151=CARTESIAN_POINT('',(0.633140228530965,0.0993821151828703,-0.270074037739688));
#152=CARTESIAN_POINT('',(0.56598371831303,0.099499193198724,-0.218172195466638));
#153=CARTESIAN_POINT('',(0.4952796702583,0.0996062575919962,-0.171089830135047));
#154=CARTESIAN_POINT('',(0.421483686606979,0.09971009773431,-0.129160559732139));
#155=CARTESIAN_POINT('',(0.364685155950981,0.0997853864970061,-0.100416333889591));
#156=CARTESIAN_POINT('',(0.306545722951544,0.0998592613422391,-0.0744896587540689));
#157=CARTESIAN_POINT('',(0.24718452978804,0.0999243889036766,-0.0514958319915271));
#158=CARTESIAN_POINT('',(0.196807429961953,0.0999657188879696,-0.0348689357254643));
#159=CARTESIAN_POINT('',(0.156031011680467,0.100004340858655,-0.0231420628965588));
#160=CARTESIAN_POINT('',(0.125230059109644,0.100039849050482,-0.0151412570654264));
#161=CARTESIAN_POINT('',(0.0942307093080558,0.100084985382363,-0.00796624402266861));
#162=CARTESIAN_POINT('',(0.0682473153561285,0.100100772228969,-0.00261906767098373));
#163=CARTESIAN_POINT('',(0.0473861834133086,0.100085212365112,0.00113307589699187));
#164=CARTESIAN_POINT('',(0.0343083101188352,0.100085651477677,0.00355473193921394));
#165=CARTESIAN_POINT('',(0.023848182718139,0.100088604209335,0.00487173587850935));
#166=CARTESIAN_POINT('',(0.0159590742603774,0.100119482195035,0.0066518761959933));
#167=CARTESIAN_POINT('',(0.00812657721934332,0.100159075322198,0.00750323159257789));
#168=CARTESIAN_POINT('',(0.00287110046587117,0.100163806268697,0.00582299608971585));
#169=CARTESIAN_POINT('',(0.000330957380356267,0.100166767835617,0.00506225461140275));
#170=DIRECTION('',(-0.0291775433312028,-0.894410819283452,-0.446293577495644));
#171=DIRECTION('',(-0.0,-1.0,-0.0));
#172=DIRECTION('',(0.0497494445884351,-0.743096465468264,0.667332477683887));
#173=DIRECTION('',(0.377788711321079,0.878351432100618,0.292872756201651));
#174=DIRECTION('',(-0.00206587802394967,0.999992592413402,-0.00324765551027246));
#175=DIRECTION('',(-0.00207480805084312,0.999992549733284,-0.00325509592454864));
#176=DIRECTION('',(-0.0020879086790469,0.999992498193176,-0.0032625442094352));
#177=DIRECTION('',(-0.00210160460767889,0.999992440316329,-0.00327147799410637));
#178=DIRECTION('',(-0.361339294523762,0.88562062845952,-0.291736210779593));
ENDSEC;
END-ISO-10303-21;
