ISO-10303-21;
HEADER;
FILE_DESCRIPTION(('STEP AP214'),'1');
FILE_NAME('SMAStripDeformed_04.stp','2026-05-02T03:59:12',(' '),(' '),'Spatial InterOp 3D',' ',' ');
FILE_SCHEMA(('AUTOMOTIVE_DESIGN { 1 0 10303 214 1 1 1 1 }'));
ENDSEC;
DATA;
#1=PRODUCT_DEFINITION_CONTEXT('',#9,'design');
#2=APPLICATION_PROTOCOL_DEFINITION('INTERNATIONAL STANDARD','automotive_design',1994,#9);
#3=PRODUCT_CATEGORY_RELATIONSHIP('NONE','NONE',#10,#11);
#4=SHAPE_DEFINITION_REPRESENTATION(#12,#13);
#5= (GEOMETRIC_REPRESENTATION_CONTEXT(3)GLOBAL_UNCERTAINTY_ASSIGNED_CONTEXT((#16))GLOBAL_UNIT_ASSIGNED_CONTEXT((#18,#19,#20))REPRESENTATION_CONTEXT('NONE','WORKSPACE'));
#9=APPLICATION_CONTEXT(' ');
#10=PRODUCT_CATEGORY('part','NONE');
#11=PRODUCT_RELATED_PRODUCT_CATEGORY('detail',' ',(#22));
#12=PRODUCT_DEFINITION_SHAPE('NONE','NONE',#23);
#13=MANIFOLD_SURFACE_SHAPE_REPRESENTATION('1',(#24,#25),#5);
#16=UNCERTAINTY_MEASURE_WITH_UNIT(LENGTH_MEASURE(1.0E-06),#18,'','');
#18= (CONVERSION_BASED_UNIT('MILLIMETRE',#28)LENGTH_UNIT()NAMED_UNIT(#31));
#19= (NAMED_UNIT(#33)PLANE_ANGLE_UNIT()SI_UNIT($,.RADIAN.));
#20= (NAMED_UNIT(#33)SOLID_ANGLE_UNIT()SI_UNIT($,.STERADIAN.));
#22=PRODUCT('1','','PART--DESC',(#39));
#23=PRODUCT_DEFINITION('','NONE',#40,#1);
#24=SHELL_BASED_SURFACE_MODEL('1',(#41));
#25=AXIS2_PLACEMENT_3D('',#42,#43,#44);
#28=LENGTH_MEASURE_WITH_UNIT(LENGTH_MEASURE(1.0),#45);
#31=DIMENSIONAL_EXPONENTS(1.0,0.0,0.0,0.0,0.0,0.0,0.0);
#33=DIMENSIONAL_EXPONENTS(0.0,0.0,0.0,0.0,0.0,0.0,0.0);
#39=PRODUCT_CONTEXT('',#9,'mechanical');
#40=PRODUCT_DEFINITION_FORMATION_WITH_SPECIFIED_SOURCE(' ','NONE',#22,.NOT_KNOWN.);
#41=CLOSED_SHELL('',(#46));
#42=CARTESIAN_POINT('',(0.0,0.0,0.0));
#43=DIRECTION('',(0.0,0.0,1.0));
#44=DIRECTION('',(1.0,0.0,0.0));
#45= (NAMED_UNIT(#31)LENGTH_UNIT()SI_UNIT(.MILLI.,.METRE.));
#46=FACE_SURFACE('',(#48),#49,.T.);
#48=FACE_BOUND('',#50,.T.);
#49=CYLINDRICAL_SURFACE('',#51,2.14549982081406);
#50=EDGE_LOOP('',(#52,#53,#54,#55,#56,#57));
#51=AXIS2_PLACEMENT_3D('',#58,#59,#60);
#52=ORIENTED_EDGE('',*,*,#61,.T.);
#53=ORIENTED_EDGE('',*,*,#62,.T.);
#54=ORIENTED_EDGE('',*,*,#63,.T.);
#55=ORIENTED_EDGE('',*,*,#64,.T.);
#56=ORIENTED_EDGE('',*,*,#65,.T.);
#57=ORIENTED_EDGE('',*,*,#66,.T.);
#58=CARTESIAN_POINT('',(-0.0632919422566756,0.00017569946972534,-2.14240452594704));
#59=DIRECTION('',(0.000495565653276146,0.999999874937965,6.73701585608927E-05));
#60=DIRECTION('',(6.26070150040063E-24,6.73701668334551E-05,-0.99999999773063));
#61=EDGE_CURVE('',#67,#68,#69,.T.);
#62=EDGE_CURVE('',#68,#70,#71,.T.);
#63=EDGE_CURVE('',#70,#72,#73,.T.);
#64=EDGE_CURVE('',#72,#74,#75,.T.);
#65=EDGE_CURVE('',#74,#76,#77,.T.);
#66=EDGE_CURVE('',#76,#67,#78,.T.);
#67=VERTEX_POINT('',#79);
#68=VERTEX_POINT('',#80);
#69=LINE('',#81,#82);
#70=VERTEX_POINT('',#83);
#71=LINE('',#84,#85);
#72=VERTEX_POINT('',#86);
#73=B_SPLINE_CURVE_WITH_KNOTS('',3,(#87,#88,#89,#90,#91,#92,#93,#94,#95,#96,#97,#98,#99,#100,#101,#102,#103,#104),.UNSPECIFIED.,.F.,.F.,(4,1,1,1,1,1,1,1,1,1,1,1,1,1,1,4),(0.0,0.126469608568207,0.252939217136414,0.379408825704621,0.505878434272829,0.632348042841036,0.695582847125139,0.758817651409243,0.822052455693346,0.88528725997745,0.916904662119502,0.948522064261554,0.980139466403605,0.995948167474631,1.00385251801014,1.01175686854566),.UNSPECIFIED.);
#74=VERTEX_POINT('',#105);
#75=LINE('',#106,#107);
#76=VERTEX_POINT('',#108);
#77=CIRCLE('',#109,2.14831943731443);
#78=LINE('',#110,#111);
#79=CARTESIAN_POINT('',(-1.91833331214505E-34,0.0900215730071068,4.23663116003071E-36));
#80=CARTESIAN_POINT('',(-4.75631847526731E-35,0.0100006004795432,-4.94646243513281E-35));
#81=CARTESIAN_POINT('',(5.29912279378836E-35,0.050011086743325,3.17375525211881E-35));
#82=VECTOR('',#112,1.0);
#83=CARTESIAN_POINT('',(-4.24307927460177E-06,-3.41742379532661E-05,0.000928579072933644));
#84=CARTESIAN_POINT('',(-2.12153963730088E-06,0.00498321312079497,0.000464289536466822));
#85=VECTOR('',#113,1.0);
#86=CARTESIAN_POINT('',(0.968318939208984,-1.5884535969235E-05,-0.259050875902176));
#87=CARTESIAN_POINT('',(-4.24307927460177E-06,-3.41742379532661E-05,0.000928579072933644));
#88=CARTESIAN_POINT('',(0.0421433064750691,-6.12024743190072E-05,5.85908391214915E-05));
#89=CARTESIAN_POINT('',(0.12638717217489,-3.7191007939676E-05,-0.0042615011529459));
#90=CARTESIAN_POINT('',(0.252077105482443,-5.18484563029492E-05,-0.0188569527866722));
#91=CARTESIAN_POINT('',(0.376614899205519,-5.0233511069976E-05,-0.0412127870916903));
#92=CARTESIAN_POINT('',(0.499568535457485,-4.96618888737943E-05,-0.0710681427120122));
#93=CARTESIAN_POINT('',(0.600386386018663,-4.59615520015563E-05,-0.101929271363043));
#94=CARTESIAN_POINT('',(0.679883513095722,-4.17148823575597E-05,-0.130042031383761));
#95=CARTESIAN_POINT('',(0.738889356349493,-3.77724712091441E-05,-0.15279585802925));
#96=CARTESIAN_POINT('',(0.797242681298292,-3.31000750569982E-05,-0.177174048976331));
#97=CARTESIAN_POINT('',(0.845296427060199,-2.85978083115995E-05,-0.198811518937921));
#98=CARTESIAN_POINT('',(0.883384968254946,-2.46674675084791E-05,-0.216881101111015));
#99=CARTESIAN_POINT('',(0.911756610514523,-2.15063358716334E-05,-0.23083796780167));
#100=CARTESIAN_POINT('',(0.935281973047192,-1.88947764945922E-05,-0.242697661752111));
#101=CARTESIAN_POINT('',(0.951588556169015,-1.64047033640417E-05,-0.251330504022109));
#102=CARTESIAN_POINT('',(0.960935663173143,-1.49180374898965E-05,-0.256189509868045));
#103=CARTESIAN_POINT('',(0.965866332061561,-1.55912514782922E-05,-0.258088170210575));
#104=CARTESIAN_POINT('',(0.968318939208984,-1.5884535969235E-05,-0.259050875902176));
#105=CARTESIAN_POINT('',(0.967889726161957,0.100039146840572,-0.259813219308853));
#106=CARTESIAN_POINT('',(0.968114167451859,0.0500116311523016,-0.259394854307175));
#107=VECTOR('',#114,0.999999999999999);
#108=CARTESIAN_POINT('',(1.51335379996453E-05,0.100024193525314,0.000885146262589842));
#109=AXIS2_PLACEMENT_3D('',#115,#116,#117);
#110=CARTESIAN_POINT('',(7.56676899982267E-06,0.0950228832662106,0.000442573131294921));
#111=VECTOR('',#118,1.0);
#112=DIRECTION('',(-0.0,-1.0,-0.0));
#113=DIRECTION('',(-0.000421038664160594,-0.995745747079815,0.0921424435257949));
#114=DIRECTION('',(-0.00193824432705795,0.999992991420957,-0.00320317309769381));
#115=CARTESIAN_POINT('',(-0.0629827517144089,0.100113050872476,-2.14565652908348));
#116=DIRECTION('',(-3.75298573893042E-06,-0.999999999218924,-3.93454741177692E-05));
#117=DIRECTION('',(0.0,3.93454741180463E-05,-0.999999999225967));
#118=DIRECTION('',(-0.00150706639697558,-0.9961063477055,-0.0881468820304241));
ENDSEC;
END-ISO-10303-21;
