ISO-10303-21;
HEADER;
FILE_DESCRIPTION(('STEP AP214'),'1');
FILE_NAME('SMAStripDeformed_06.stp','2026-05-02T04:00:31',(' '),(' '),'Spatial InterOp 3D',' ',' ');
FILE_SCHEMA(('AUTOMOTIVE_DESIGN { 1 0 10303 214 1 1 1 1 }'));
ENDSEC;
DATA;
#1=PRODUCT_DEFINITION_CONTEXT('',#9,'design');
#2=APPLICATION_PROTOCOL_DEFINITION('INTERNATIONAL STANDARD','automotive_design',1994,#9);
#3=PRODUCT_CATEGORY_RELATIONSHIP('NONE','NONE',#10,#11);
#4=SHAPE_DEFINITION_REPRESENTATION(#12,#13);
#5= (GEOMETRIC_REPRESENTATION_CONTEXT(3)GLOBAL_UNCERTAINTY_ASSIGNED_CONTEXT((#16))GLOBAL_UNIT_ASSIGNED_CONTEXT((#18,#19,#20))REPRESENTATION_CONTEXT('NONE','WORKSPACE'));
#9=APPLICATION_CONTEXT(' ');
#10=PRODUCT_CATEGORY('part','NONE');
#11=PRODUCT_RELATED_PRODUCT_CATEGORY('detail',' ',(#22));
#12=PRODUCT_DEFINITION_SHAPE('NONE','NONE',#23);
#13=MANIFOLD_SURFACE_SHAPE_REPRESENTATION('1',(#24,#25),#5);
#16=UNCERTAINTY_MEASURE_WITH_UNIT(LENGTH_MEASURE(1.0E-06),#18,'','');
#18= (CONVERSION_BASED_UNIT('MILLIMETRE',#28)LENGTH_UNIT()NAMED_UNIT(#31));
#19= (NAMED_UNIT(#33)PLANE_ANGLE_UNIT()SI_UNIT($,.RADIAN.));
#20= (NAMED_UNIT(#33)SOLID_ANGLE_UNIT()SI_UNIT($,.STERADIAN.));
#22=PRODUCT('1','','PART--DESC',(#39));
#23=PRODUCT_DEFINITION('','NONE',#40,#1);
#24=SHELL_BASED_SURFACE_MODEL('1',(#41));
#25=AXIS2_PLACEMENT_3D('',#42,#43,#44);
#28=LENGTH_MEASURE_WITH_UNIT(LENGTH_MEASURE(1.0),#45);
#31=DIMENSIONAL_EXPONENTS(1.0,0.0,0.0,0.0,0.0,0.0,0.0);
#33=DIMENSIONAL_EXPONENTS(0.0,0.0,0.0,0.0,0.0,0.0,0.0);
#39=PRODUCT_CONTEXT('',#9,'mechanical');
#40=PRODUCT_DEFINITION_FORMATION_WITH_SPECIFIED_SOURCE(' ','NONE',#22,.NOT_KNOWN.);
#41=CLOSED_SHELL('',(#46));
#42=CARTESIAN_POINT('',(0.0,0.0,0.0));
#43=DIRECTION('',(0.0,0.0,1.0));
#44=DIRECTION('',(1.0,0.0,0.0));
#45= (NAMED_UNIT(#31)LENGTH_UNIT()SI_UNIT(.MILLI.,.METRE.));
#46=FACE_SURFACE('',(#48),#49,.T.);
#48=FACE_BOUND('',#50,.T.);
#49=CYLINDRICAL_SURFACE('',#51,1.66779207844207);
#50=EDGE_LOOP('',(#52,#53,#54,#55,#56,#57));
#51=AXIS2_PLACEMENT_3D('',#58,#59,#60);
#52=ORIENTED_EDGE('',*,*,#61,.T.);
#53=ORIENTED_EDGE('',*,*,#62,.T.);
#54=ORIENTED_EDGE('',*,*,#63,.T.);
#55=ORIENTED_EDGE('',*,*,#64,.T.);
#56=ORIENTED_EDGE('',*,*,#65,.T.);
#57=ORIENTED_EDGE('',*,*,#66,.T.);
#58=CARTESIAN_POINT('',(-0.101230501399287,-0.0105812362818325,-1.66007053956162));
#59=DIRECTION('',(-0.00934356119245749,-0.9999322419085,0.00694330296642456));
#60=DIRECTION('',(9.7185345579304E-21,0.00694360606885991,0.999975892876804));
#61=EDGE_CURVE('',#67,#68,#69,.T.);
#62=EDGE_CURVE('',#68,#70,#71,.T.);
#63=EDGE_CURVE('',#70,#72,#73,.T.);
#64=EDGE_CURVE('',#72,#74,#75,.T.);
#65=EDGE_CURVE('',#74,#76,#77,.T.);
#66=EDGE_CURVE('',#76,#67,#78,.T.);
#67=VERTEX_POINT('',#79);
#68=VERTEX_POINT('',#80);
#69=B_SPLINE_CURVE_WITH_KNOTS('',3,(#81,#82,#83,#84,#85,#86,#87,#88,#89,#90,#91,#92,#93,#94,#95,#96,#97,#98,#99,#100,#101),.UNSPECIFIED.,.F.,.F.,(4,1,1,1,1,1,1,1,1,1,1,1,1,1,1,1,1,1,4),(0.0,0.12684431258293,0.253688625165861,0.380532937748791,0.507377250331722,0.634221562914652,0.697643719206118,0.761065875497583,0.824488031789048,0.856199109934781,0.887910188080513,0.919621266226246,0.951332344371979,0.967187883444845,0.983043422517711,0.990971192054144,0.998898961590577,1.00682673112701,1.01475450066344),.UNSPECIFIED.);
#70=VERTEX_POINT('',#102);
#71=LINE('',#103,#104);
#72=VERTEX_POINT('',#105);
#73=LINE('',#106,#107);
#74=VERTEX_POINT('',#108);
#75=LINE('',#109,#110);
#76=VERTEX_POINT('',#111);
#77=B_SPLINE_CURVE_WITH_KNOTS('',3,(#112,#113,#114,#115,#116,#117,#118,#119,#120,#121,#122),.UNSPECIFIED.,.F.,.F.,(4,1,1,1,1,1,1,1,4),(0.0,0.126842420349423,0.253684840698845,0.380527261048268,0.507369681397691,0.634212101747113,0.761054522096536,0.887896942445959,1.01473936279538),.UNSPECIFIED.);
#78=CIRCLE('',#123,1.21342355479914);
#79=CARTESIAN_POINT('',(0.934320390224457,0.0998058170080185,-0.351099073886871));
#80=CARTESIAN_POINT('',(2.48293281401857E-06,0.100109033286572,0.000856737431604415));
#81=CARTESIAN_POINT('',(0.934320390224457,0.0998058170080185,-0.351099073886871));
#82=CARTESIAN_POINT('',(0.900710549987553,0.0998177711636228,-0.325445644179482));
#83=CARTESIAN_POINT('',(0.831872814972742,0.0998401955298575,-0.276251967375454));
#84=CARTESIAN_POINT('',(0.723710187942156,0.0998801898812412,-0.209838550745829));
#85=CARTESIAN_POINT('',(0.611134192526226,0.0999188183824413,-0.151214862215536));
#86=CARTESIAN_POINT('',(0.494547331941125,0.0999557114344072,-0.101018862594997));
#87=CARTESIAN_POINT('',(0.394493017052059,0.0999834071818591,-0.066680777407508));
#88=CARTESIAN_POINT('',(0.313016496380213,0.100003227936875,-0.0439800665088207));
#89=CARTESIAN_POINT('',(0.251279057095798,0.100016699720212,-0.0294032374342097));
#90=CARTESIAN_POINT('',(0.199381356142627,0.100026863582063,-0.0193472411307592));
#91=CARTESIAN_POINT('',(0.157641673227583,0.100034021943517,-0.0125867482445595));
#92=CARTESIAN_POINT('',(0.126238654392597,0.100039253760059,-0.00816199910431108));
#93=CARTESIAN_POINT('',(0.0947509616636229,0.10004479287705,-0.00440035269561644));
#94=CARTESIAN_POINT('',(0.068449868729481,0.100046949300282,-0.001784335625465));
#95=CARTESIAN_POINT('',(0.0473834899347838,0.100053441816275,-8.69810541918152E-05));
#96=CARTESIAN_POINT('',(0.0341987534482469,0.100052946101685,0.000981316244622905));
#97=CARTESIAN_POINT('',(0.0236612848557136,0.100048773448022,0.00145323344226903));
#98=CARTESIAN_POINT('',(0.0157279063517368,0.100042562493465,0.00226247213461537));
#99=CARTESIAN_POINT('',(0.00783062843456551,0.100056440772147,0.00250509561345085));
#100=CARTESIAN_POINT('',(0.00259227944802258,0.10009198375339,0.00138204154795382));
#101=CARTESIAN_POINT('',(2.48293281401857E-06,0.100109033286572,0.000856737431604415));
#102=CARTESIAN_POINT('',(-7.79003837106961E-35,0.0900215730071068,-5.13437852325869E-35));
#103=CARTESIAN_POINT('',(1.24146640700928E-06,0.0950653031468391,0.000428368715802208));
#104=VECTOR('',#124,1.0);
#105=CARTESIAN_POINT('',(-4.54934313525472E-34,0.0100006004795432,-2.28809562127826E-34));
#106=CARTESIAN_POINT('',(-7.13349435562726E-35,0.050011086743325,-4.12603510693727E-35));
#107=VECTOR('',#125,1.0);
#108=CARTESIAN_POINT('',(9.92970308288932E-05,-2.99638722935924E-05,0.00341043714433908));
#109=CARTESIAN_POINT('',(4.96485154144466E-05,0.00498531830362481,0.00170521857216954));
#110=VECTOR('',#126,0.999999999999999);
#111=CARTESIAN_POINT('',(0.934284448623657,-0.000246298935962841,-0.351097524166107));
#112=CARTESIAN_POINT('',(9.92970308288932E-05,-2.99638722935924E-05,0.00341043714433908));
#113=CARTESIAN_POINT('',(0.0423320997517836,-0.000153154242452408,0.00140000915534964));
#114=CARTESIAN_POINT('',(0.126640128763608,-2.92745061629718E-05,-0.00601264333625109));
#115=CARTESIAN_POINT('',(0.251720515247837,-0.000104462818732757,-0.027739848188471));
#116=CARTESIAN_POINT('',(0.374631955288448,-0.0001148438575972,-0.0594735869235118));
#117=CARTESIAN_POINT('',(0.494669510904186,-0.000145638860879669,-0.100754712212977));
#118=CARTESIAN_POINT('',(0.611224169064554,-0.000173111344357422,-0.151020447039603));
#119=CARTESIAN_POINT('',(0.723762302569925,-0.000198235264417608,-0.209712516348333));
#120=CARTESIAN_POINT('',(0.831885000371036,-0.000230933159905219,-0.276187712457799));
#121=CARTESIAN_POINT('',(0.90068810625259,-0.000223163742045003,-0.325427466388958));
#122=CARTESIAN_POINT('',(0.934284448623657,-0.000246298935962841,-0.351097524166107));
#123=AXIS2_PLACEMENT_3D('',#127,#128,#129);
#124=DIRECTION('',(-0.000245257557734134,-0.996412733326217,-0.0846262649187985));
#125=DIRECTION('',(-0.0,-1.0,-0.0));
#126=DIRECTION('',(0.00937210120295668,-0.946729861340727,0.321892425143572));
#127=CARTESIAN_POINT('',(0.188564054352876,0.0444619204107317,-1.30603241074245));
#128=DIRECTION('',(-0.788157510190575,0.000309281829540343,0.615473511594888));
#129=DIRECTION('',(0.000392411163668213,0.999999923006736,-2.74964877572746E-20));
ENDSEC;
END-ISO-10303-21;
