ISO-10303-21;
HEADER;
FILE_DESCRIPTION(('STEP AP214'),'1');
FILE_NAME('SMAStripDeformed_13.stp','2026-05-02T04:07:08',(' '),(' '),'Spatial InterOp 3D',' ',' ');
FILE_SCHEMA(('AUTOMOTIVE_DESIGN { 1 0 10303 214 1 1 1 1 }'));
ENDSEC;
DATA;
#1=PRODUCT_DEFINITION_CONTEXT('',#9,'design');
#2=APPLICATION_PROTOCOL_DEFINITION('INTERNATIONAL STANDARD','automotive_design',1994,#9);
#3=PRODUCT_CATEGORY_RELATIONSHIP('NONE','NONE',#10,#11);
#4=SHAPE_DEFINITION_REPRESENTATION(#12,#13);
#5= (GEOMETRIC_REPRESENTATION_CONTEXT(3)GLOBAL_UNCERTAINTY_ASSIGNED_CONTEXT((#16))GLOBAL_UNIT_ASSIGNED_CONTEXT((#18,#19,#20))REPRESENTATION_CONTEXT('NONE','WORKSPACE'));
#9=APPLICATION_CONTEXT(' ');
#10=PRODUCT_CATEGORY('part','NONE');
#11=PRODUCT_RELATED_PRODUCT_CATEGORY('detail',' ',(#22));
#12=PRODUCT_DEFINITION_SHAPE('NONE','NONE',#23);
#13=MANIFOLD_SURFACE_SHAPE_REPRESENTATION('1',(#24,#25),#5);
#16=UNCERTAINTY_MEASURE_WITH_UNIT(LENGTH_MEASURE(1.0E-06),#18,'','');
#18= (CONVERSION_BASED_UNIT('MILLIMETRE',#28)LENGTH_UNIT()NAMED_UNIT(#31));
#19= (NAMED_UNIT(#33)PLANE_ANGLE_UNIT()SI_UNIT($,.RADIAN.));
#20= (NAMED_UNIT(#33)SOLID_ANGLE_UNIT()SI_UNIT($,.STERADIAN.));
#22=PRODUCT('1','','PART--DESC',(#39));
#23=PRODUCT_DEFINITION('','NONE',#40,#1);
#24=SHELL_BASED_SURFACE_MODEL('1',(#41));
#25=AXIS2_PLACEMENT_3D('',#42,#43,#44);
#28=LENGTH_MEASURE_WITH_UNIT(LENGTH_MEASURE(1.0),#45);
#31=DIMENSIONAL_EXPONENTS(1.0,0.0,0.0,0.0,0.0,0.0,0.0);
#33=DIMENSIONAL_EXPONENTS(0.0,0.0,0.0,0.0,0.0,0.0,0.0);
#39=PRODUCT_CONTEXT('',#9,'mechanical');
#40=PRODUCT_DEFINITION_FORMATION_WITH_SPECIFIED_SOURCE(' ','NONE',#22,.NOT_KNOWN.);
#41=CLOSED_SHELL('',(#46));
#42=CARTESIAN_POINT('',(0.0,0.0,0.0));
#43=DIRECTION('',(0.0,0.0,1.0));
#44=DIRECTION('',(1.0,0.0,0.0));
#45= (NAMED_UNIT(#31)LENGTH_UNIT()SI_UNIT(.MILLI.,.METRE.));
#46=FACE_SURFACE('',(#48),#49,.T.);
#48=FACE_BOUND('',#50,.T.);
#49=CYLINDRICAL_SURFACE('',#51,1.26749509770136);
#50=EDGE_LOOP('',(#52,#53,#54,#55,#56,#57,#58,#59));
#51=AXIS2_PLACEMENT_3D('',#60,#61,#62);
#52=ORIENTED_EDGE('',*,*,#63,.T.);
#53=ORIENTED_EDGE('',*,*,#64,.T.);
#54=ORIENTED_EDGE('',*,*,#65,.T.);
#55=ORIENTED_EDGE('',*,*,#66,.T.);
#56=ORIENTED_EDGE('',*,*,#67,.T.);
#57=ORIENTED_EDGE('',*,*,#68,.T.);
#58=ORIENTED_EDGE('',*,*,#69,.T.);
#59=ORIENTED_EDGE('',*,*,#70,.T.);
#60=CARTESIAN_POINT('',(-0.228751362576098,-0.00703088995992488,-1.23527925074696));
#61=DIRECTION('',(-0.00169529171739533,-0.999980529380841,0.00600556785032116));
#62=DIRECTION('',(0.0,0.00600557648038283,0.999981966362963));
#63=EDGE_CURVE('',#71,#72,#73,.T.);
#64=EDGE_CURVE('',#72,#74,#75,.T.);
#65=EDGE_CURVE('',#74,#76,#77,.T.);
#66=EDGE_CURVE('',#76,#78,#79,.T.);
#67=EDGE_CURVE('',#78,#80,#81,.T.);
#68=EDGE_CURVE('',#80,#82,#83,.T.);
#69=EDGE_CURVE('',#82,#84,#85,.T.);
#70=EDGE_CURVE('',#84,#71,#86,.T.);
#71=VERTEX_POINT('',#87);
#72=VERTEX_POINT('',#88);
#73=LINE('',#89,#90);
#74=VERTEX_POINT('',#91);
#75=LINE('',#92,#93);
#76=VERTEX_POINT('',#94);
#77=LINE('',#95,#96);
#78=VERTEX_POINT('',#97);
#79=B_SPLINE_CURVE_WITH_KNOTS('',3,(#98,#99,#100,#101,#102,#103,#104,#105,#106,#107,#108,#109,#110,#111,#112,#113,#114,#115),.UNSPECIFIED.,.F.,.F.,(4,1,1,1,1,1,1,1,1,1,1,1,1,1,1,4),(0.0,0.127265805524552,0.254531611049105,0.381797416573657,0.50906322209821,0.636329027622762,0.699961930385038,0.763594833147314,0.82722773590959,0.890860638671867,0.922677090053005,0.954493541434143,0.986309992815281,1.00221821850585,1.01017233135113,1.01812644419642),.UNSPECIFIED.);
#80=VERTEX_POINT('',#116);
#81=LINE('',#117,#118);
#82=VERTEX_POINT('',#119);
#83=LINE('',#120,#121);
#84=VERTEX_POINT('',#122);
#85=LINE('',#123,#124);
#86=B_SPLINE_CURVE_WITH_KNOTS('',3,(#125,#126,#127,#128,#129,#130,#131,#132,#133,#134,#135,#136,#137,#138,#139,#140,#141,#142,#143,#144,#145,#146,#147,#148,#149),.UNSPECIFIED.,.F.,.F.,(4,1,1,1,1,1,1,1,1,1,1,1,1,1,1,1,1,1,1,1,1,1,4),(0.0,0.0159159555115103,0.0318319110230205,0.063663822046041,0.0954957330690615,0.127327644092082,0.190991466138123,0.254655288184164,0.318319110230205,0.381982932276246,0.509310576368328,0.63663822046041,0.700302042506451,0.763965864552492,0.827629686598533,0.891293508644574,0.923125419667595,0.954957330690615,0.986789241713636,0.994747219469391,1.00270519722515,1.0106631749809,1.01862115273666),.UNSPECIFIED.);
#87=CARTESIAN_POINT('',(0.829876363277435,-0.00128967792261392,-0.534133613109589));
#88=CARTESIAN_POINT('',(0.834269285202026,0.00875001959502697,-0.530990362167358));
#89=CARTESIAN_POINT('',(0.832072824239731,0.00373017083620653,-0.532561987638474));
#90=VECTOR('',#150,1.0);
#91=CARTESIAN_POINT('',(0.834107100963593,0.0887787938117981,-0.531248867511749));
#92=CARTESIAN_POINT('',(0.834188193082809,0.0487644067034125,-0.531119614839554));
#93=VECTOR('',#151,1.0);
#94=CARTESIAN_POINT('',(0.828486382961273,0.0988205000758171,-0.535362541675568));
#95=CARTESIAN_POINT('',(0.831296741962433,0.0937996469438076,-0.533305704593658));
#96=VECTOR('',#152,1.0);
#97=CARTESIAN_POINT('',(0.000966735708061606,0.100209929049015,0.00917892530560493));
#98=CARTESIAN_POINT('',(0.828486382961273,0.0988205000758171,-0.535362541675568));
#99=CARTESIAN_POINT('',(0.804454098249444,0.0987416296628258,-0.500404514629311));
#100=CARTESIAN_POINT('',(0.75378468214963,0.0990003154894531,-0.432249525455429));
#101=CARTESIAN_POINT('',(0.668149758558023,0.0991380729378575,-0.337887589439203));
#102=CARTESIAN_POINT('',(0.573617885039309,0.0993474172275569,-0.252449052618503));
#103=CARTESIAN_POINT('',(0.471130023321437,0.0995345151868546,-0.176738607197915));
#104=CARTESIAN_POINT('',(0.379923808860614,0.0996951900372128,-0.122360182516585));
#105=CARTESIAN_POINT('',(0.303953554055273,0.0998046102754974,-0.0845220915677855));
#106=CARTESIAN_POINT('',(0.245592286236355,0.099887479837309,-0.0591084445532747));
#107=CARTESIAN_POINT('',(0.185981438165616,0.0999822261682373,-0.0367814048907689));
#108=CARTESIAN_POINT('',(0.135386227213478,0.100038636547314,-0.0208399461879071));
#109=CARTESIAN_POINT('',(0.0944367317360283,0.10005121383108,-0.00974819774744863));
#110=CARTESIAN_POINT('',(0.0635124652712011,0.10006602152202,-0.00224403199377349));
#111=CARTESIAN_POINT('',(0.0375734461320099,0.100103065467966,0.00323226907006541));
#112=CARTESIAN_POINT('',(0.0193595684766509,0.100148594669689,0.00684476505666069));
#113=CARTESIAN_POINT('',(0.00892158479988812,0.100187979212096,0.00869929753451987));
#114=CARTESIAN_POINT('',(0.00361259225885706,0.100202475676655,0.00900817558811634));
#115=CARTESIAN_POINT('',(0.000966735708061606,0.100209929049015,0.00917892530560493));
#116=CARTESIAN_POINT('',(-1.09835356719891E-34,0.0900215730071068,-5.81676906512286E-35));
#117=CARTESIAN_POINT('',(0.000483367854030803,0.0951157510280609,0.00458946265280247));
#118=VECTOR('',#153,1.0);
#119=CARTESIAN_POINT('',(-2.67818525830855E-34,0.0100006004795432,-2.33327156813703E-34));
#120=CARTESIAN_POINT('',(-7.857605763396E-36,0.050011086743325,-2.41646741040522E-35));
#121=VECTOR('',#154,1.0);
#122=CARTESIAN_POINT('',(0.000816922751255333,-4.38218448834959E-05,0.00987711362540722));
#123=CARTESIAN_POINT('',(0.000408461375627667,0.00497838931732986,0.00493855681270361));
#124=VECTOR('',#155,1.0);
#125=CARTESIAN_POINT('',(0.000816922751255333,-4.38218448834959E-05,0.00987711362540722));
#126=CARTESIAN_POINT('',(0.00610314241173767,-7.1165892425989E-05,0.00942818330637466));
#127=CARTESIAN_POINT('',(0.0166177726444873,-0.000118062050867835,0.00799561916563801));
#128=CARTESIAN_POINT('',(0.0374161876323428,-0.000180657019424497,0.00371501376211198));
#129=CARTESIAN_POINT('',(0.0633826295183781,-0.000208560764576656,-0.00168359361599824));
#130=CARTESIAN_POINT('',(0.0943185703960485,-0.000197079485755226,-0.00921127543736999));
#131=CARTESIAN_POINT('',(0.135290921099646,-0.000171177539541884,-0.0202948875989749));
#132=CARTESIAN_POINT('',(0.185911820017968,-0.000210980373512913,-0.0362423912965384));
#133=CARTESIAN_POINT('',(0.245553722383756,-0.000303759412206089,-0.0585741210260549));
#134=CARTESIAN_POINT('',(0.303944833689902,-0.000371141713197285,-0.0839969978582276));
#135=CARTESIAN_POINT('',(0.379953217845258,-0.000451435059834545,-0.12185113142684));
#136=CARTESIAN_POINT('',(0.471203321255743,-0.000580422715982758,-0.176256923450896));
#137=CARTESIAN_POINT('',(0.556648861031128,-0.000727597163394872,-0.239383296731263));
#138=CARTESIAN_POINT('',(0.621020342139839,-0.00083072609621637,-0.294756832013771));
#139=CARTESIAN_POINT('',(0.667192630098568,-0.000923060593174079,-0.338616763613759));
#140=CARTESIAN_POINT('',(0.711141223810173,-0.00105075999716921,-0.384704066092929));
#141=CARTESIAN_POINT('',(0.745844576375023,-0.00111444091646074,-0.424854313533956));
#142=CARTESIAN_POINT('',(0.772393249706731,-0.00109003346152773,-0.457972507504876));
#143=CARTESIAN_POINT('',(0.791780359213997,-0.00107105571067673,-0.483219763754174));
#144=CARTESIAN_POINT('',(0.805740637108643,-0.00110223312833198,-0.502600291585423));
#145=CARTESIAN_POINT('',(0.815130559326892,-0.00115813553230822,-0.515435525821876));
#146=CARTESIAN_POINT('',(0.819519814119587,-0.00119811949509448,-0.522099361661073));
#147=CARTESIAN_POINT('',(0.824130810857309,-0.00124574384137406,-0.528570498553258));
#148=CARTESIAN_POINT('',(0.827981335092662,-0.00127500206930283,-0.532277473593002));
#149=CARTESIAN_POINT('',(0.829876363277435,-0.00128967792261392,-0.534133613109589));
#150=DIRECTION('',(0.385324288718098,0.880630107098921,0.275709642549611));
#151=DIRECTION('',(-0.00202237340991132,0.999990543685,-0.00385000602194171));
#152=DIRECTION('',(-0.459926292268883,0.821682341679077,-0.33660946964188));
#153=DIRECTION('',(-0.0703215644778105,-0.741113760823537,-0.667686506593765));
#154=DIRECTION('',(-0.0,-1.0,-0.0));
#155=DIRECTION('',(0.0578933701512505,-0.711824292676318,0.699967523566908));
ENDSEC;
END-ISO-10303-21;
