ISO-10303-21;
HEADER;
FILE_DESCRIPTION(('STEP AP214'),'1');
FILE_NAME('SMAStripDeformed_18.stp','2026-05-02T04:12:17',(' '),(' '),'Spatial InterOp 3D',' ',' ');
FILE_SCHEMA(('AUTOMOTIVE_DESIGN { 1 0 10303 214 1 1 1 1 }'));
ENDSEC;
DATA;
#1=PRODUCT_DEFINITION_CONTEXT('',#9,'design');
#2=APPLICATION_PROTOCOL_DEFINITION('INTERNATIONAL STANDARD','automotive_design',1994,#9);
#3=PRODUCT_CATEGORY_RELATIONSHIP('NONE','NONE',#10,#11);
#4=SHAPE_DEFINITION_REPRESENTATION(#12,#13);
#5= (GEOMETRIC_REPRESENTATION_CONTEXT(3)GLOBAL_UNCERTAINTY_ASSIGNED_CONTEXT((#16))GLOBAL_UNIT_ASSIGNED_CONTEXT((#18,#19,#20))REPRESENTATION_CONTEXT('NONE','WORKSPACE'));
#9=APPLICATION_CONTEXT(' ');
#10=PRODUCT_CATEGORY('part','NONE');
#11=PRODUCT_RELATED_PRODUCT_CATEGORY('detail',' ',(#22));
#12=PRODUCT_DEFINITION_SHAPE('NONE','NONE',#23);
#13=MANIFOLD_SURFACE_SHAPE_REPRESENTATION('1',(#24,#25),#5);
#16=UNCERTAINTY_MEASURE_WITH_UNIT(LENGTH_MEASURE(1.0E-06),#18,'','');
#18= (CONVERSION_BASED_UNIT('MILLIMETRE',#28)LENGTH_UNIT()NAMED_UNIT(#31));
#19= (NAMED_UNIT(#33)PLANE_ANGLE_UNIT()SI_UNIT($,.RADIAN.));
#20= (NAMED_UNIT(#33)SOLID_ANGLE_UNIT()SI_UNIT($,.STERADIAN.));
#22=PRODUCT('1','','PART--DESC',(#39));
#23=PRODUCT_DEFINITION('','NONE',#40,#1);
#24=SHELL_BASED_SURFACE_MODEL('1',(#41));
#25=AXIS2_PLACEMENT_3D('',#42,#43,#44);
#28=LENGTH_MEASURE_WITH_UNIT(LENGTH_MEASURE(1.0),#45);
#31=DIMENSIONAL_EXPONENTS(1.0,0.0,0.0,0.0,0.0,0.0,0.0);
#33=DIMENSIONAL_EXPONENTS(0.0,0.0,0.0,0.0,0.0,0.0,0.0);
#39=PRODUCT_CONTEXT('',#9,'mechanical');
#40=PRODUCT_DEFINITION_FORMATION_WITH_SPECIFIED_SOURCE(' ','NONE',#22,.NOT_KNOWN.);
#41=CLOSED_SHELL('',(#46));
#42=CARTESIAN_POINT('',(0.0,0.0,0.0));
#43=DIRECTION('',(0.0,0.0,1.0));
#44=DIRECTION('',(1.0,0.0,0.0));
#45= (NAMED_UNIT(#31)LENGTH_UNIT()SI_UNIT(.MILLI.,.METRE.));
#46=FACE_SURFACE('',(#48),#49,.T.);
#48=FACE_BOUND('',#50,.T.);
#49=CYLINDRICAL_SURFACE('',#51,1.29194594099419);
#50=EDGE_LOOP('',(#52,#53,#54,#55,#56,#57,#58,#59,#60));
#51=AXIS2_PLACEMENT_3D('',#61,#62,#63);
#52=ORIENTED_EDGE('',*,*,#64,.T.);
#53=ORIENTED_EDGE('',*,*,#65,.T.);
#54=ORIENTED_EDGE('',*,*,#66,.T.);
#55=ORIENTED_EDGE('',*,*,#67,.T.);
#56=ORIENTED_EDGE('',*,*,#68,.T.);
#57=ORIENTED_EDGE('',*,*,#69,.T.);
#58=ORIENTED_EDGE('',*,*,#70,.T.);
#59=ORIENTED_EDGE('',*,*,#71,.T.);
#60=ORIENTED_EDGE('',*,*,#72,.T.);
#61=CARTESIAN_POINT('',(-0.3363984735402,-0.0102263843072821,-1.23214746878355));
#62=DIRECTION('',(-0.00412798231461419,-0.999947051692946,0.00942621730048716));
#63=DIRECTION('',(-5.54273023534389E-21,0.00942629761400665,0.999955571469699));
#64=EDGE_CURVE('',#73,#74,#75,.T.);
#65=EDGE_CURVE('',#74,#76,#77,.T.);
#66=EDGE_CURVE('',#76,#78,#79,.T.);
#67=EDGE_CURVE('',#78,#80,#81,.T.);
#68=EDGE_CURVE('',#80,#82,#83,.T.);
#69=EDGE_CURVE('',#82,#84,#85,.T.);
#70=EDGE_CURVE('',#84,#86,#87,.T.);
#71=EDGE_CURVE('',#86,#88,#89,.T.);
#72=EDGE_CURVE('',#88,#73,#90,.T.);
#73=VERTEX_POINT('',#91);
#74=VERTEX_POINT('',#92);
#75=B_SPLINE_CURVE_WITH_KNOTS('',3,(#93,#94,#95,#96,#97,#98,#99,#100,#101,#102,#103,#104,#105,#106,#107,#108,#109,#110,#111,#112,#113,#114,#115,#116,#117,#118,#119),.UNSPECIFIED.,.F.,.F.,(4,1,1,1,1,1,1,1,1,1,1,1,1,1,1,1,1,1,1,1,1,1,1,1,4),(0.0,0.00788520510539448,0.015770410210789,0.0236556153161834,0.0315408204215779,0.0630816408431559,0.0946224612647338,0.126163281686312,0.189244922529468,0.252326563372623,0.315408204215779,0.378489845058935,0.504653126745247,0.630816408431559,0.693898049274714,0.75697969011787,0.820061330961026,0.883142971804182,0.91468379222576,0.946224612647338,0.977765433068916,0.98565063817431,0.993535843279705,1.0014210483851,1.00930625349049),.UNSPECIFIED.);
#76=VERTEX_POINT('',#120);
#77=LINE('',#121,#122);
#78=VERTEX_POINT('',#123);
#79=LINE('',#124,#125);
#80=VERTEX_POINT('',#126);
#81=LINE('',#127,#128);
#82=VERTEX_POINT('',#129);
#83=B_SPLINE_CURVE_WITH_KNOTS('',3,(#130,#131,#132,#133,#134,#135,#136,#137,#138,#139,#140,#141,#142,#143,#144,#145,#146,#147,#148,#149,#150,#151,#152,#153,#154,#155,#156,#157,#158,#159),.UNSPECIFIED.,.F.,.F.,(4,1,1,1,1,1,1,1,1,1,1,1,1,1,1,1,1,1,1,1,1,1,1,1,1,1,1,4),(0.0,0.00795887087292415,0.0159177417458483,0.0238766126187724,0.0318354834916966,0.0477532252375449,0.0636709669833932,0.0955064504750898,0.127341933966786,0.159177417458483,0.19101290095018,0.254683867933573,0.318354834916966,0.382025801900359,0.445696768883752,0.509367735867146,0.636709669833932,0.700380636817325,0.764051603800718,0.827722570784112,0.891393537767505,0.923229021259201,0.955064504750898,0.986899988242595,0.994858859115519,1.00281772998844,1.01077660086137,1.01873547173429),.UNSPECIFIED.);
#84=VERTEX_POINT('',#160);
#85=LINE('',#161,#162);
#86=VERTEX_POINT('',#163);
#87=LINE('',#164,#165);
#88=VERTEX_POINT('',#166);
#89=LINE('',#167,#168);
#90=LINE('',#169,#170);
#91=CARTESIAN_POINT('',(0.00142531690653414,-4.639359030989E-05,0.0127038741484284));
#92=CARTESIAN_POINT('',(0.784041106700897,-0.00159805081784725,-0.583440482616425));
#93=CARTESIAN_POINT('',(0.00142531690653414,-4.639359030989E-05,0.0127038741484284));
#94=CARTESIAN_POINT('',(0.00404776220386157,-5.93954065382015E-05,0.012527502038061));
#95=CARTESIAN_POINT('',(0.00933698097363236,-8.54189309242003E-05,0.0122167671927994));
#96=CARTESIAN_POINT('',(0.0169738874308665,-0.000123493976790252,0.0103139627969311));
#97=CARTESIAN_POINT('',(0.0245365285694645,-0.000152244394088354,0.00798888669750272));
#98=CARTESIAN_POINT('',(0.0397589612994715,-0.000189754861760774,0.00394027666116227));
#99=CARTESIAN_POINT('',(0.0623974423732656,-0.000232071793790083,-0.00299693871918034));
#100=CARTESIAN_POINT('',(0.0923823251991808,-0.000240193946062955,-0.0127633552357171));
#101=CARTESIAN_POINT('',(0.131981530687675,-0.000243714945094345,-0.0269436013654819));
#102=CARTESIAN_POINT('',(0.18075863356373,-0.000301578918288002,-0.0465879120571918));
#103=CARTESIAN_POINT('',(0.237982175126831,-0.000408500441465952,-0.0731871886510231));
#104=CARTESIAN_POINT('',(0.293771473739713,-0.000494869844574806,-0.102672392980178));
#105=CARTESIAN_POINT('',(0.366090800732095,-0.000604569670439656,-0.145668458215157));
#106=CARTESIAN_POINT('',(0.452320031250595,-0.000771562396554349,-0.20604448657744));
#107=CARTESIAN_POINT('',(0.532144040424212,-0.000964727540734299,-0.274668718308693));
#108=CARTESIAN_POINT('',(0.591677092258347,-0.00108711525275068,-0.334117853944074));
#109=CARTESIAN_POINT('',(0.634241277840461,-0.00119973639891356,-0.380696270712746));
#110=CARTESIAN_POINT('',(0.674694825170349,-0.00134036332341268,-0.429118407692641));
#111=CARTESIAN_POINT('',(0.70666053254562,-0.00141122783181592,-0.470865873995931));
#112=CARTESIAN_POINT('',(0.731134408063689,-0.00139263536168804,-0.505068437848085));
#113=CARTESIAN_POINT('',(0.749009943328687,-0.00138674924263383,-0.531055186693906));
#114=CARTESIAN_POINT('',(0.761839153804407,-0.0014197728408726,-0.55094092893205));
#115=CARTESIAN_POINT('',(0.770469979635106,-0.00147394480332459,-0.564127210810206));
#116=CARTESIAN_POINT('',(0.774477240130608,-0.00150766209020587,-0.570940691060092));
#117=CARTESIAN_POINT('',(0.778734503869066,-0.00154890802244469,-0.577563662426125));
#118=CARTESIAN_POINT('',(0.782289916170416,-0.00158177757356796,-0.581480492204843));
#119=CARTESIAN_POINT('',(0.784041106700897,-0.00159805081784725,-0.583440482616425));
#120=CARTESIAN_POINT('',(0.798306524753571,0.00849654525518417,-0.584891498088837));
#121=CARTESIAN_POINT('',(0.791173815727234,0.00344924721866846,-0.584165990352631));
#122=VECTOR('',#171,1.0);
#123=CARTESIAN_POINT('',(0.798172354698181,0.0882819071412086,-0.585256993770599));
#124=CARTESIAN_POINT('',(0.798239439725876,0.0483892261981964,-0.585074245929718));
#125=VECTOR('',#172,1.0);
#126=CARTESIAN_POINT('',(0.790418088436127,0.0984288826584816,-0.591148734092712));
#127=CARTESIAN_POINT('',(0.794295221567154,0.0933553948998451,-0.588202863931656));
#128=VECTOR('',#173,1.0);
#129=CARTESIAN_POINT('',(0.00159773591440171,0.100262589752674,0.0119047230109572));
#130=CARTESIAN_POINT('',(0.790418088436127,0.0984288826584816,-0.591148734092712));
#131=CARTESIAN_POINT('',(0.788322417545104,0.0984233006265593,-0.589521984887537));
#132=CARTESIAN_POINT('',(0.78396341899876,0.0984121568400325,-0.586247455126248));
#133=CARTESIAN_POINT('',(0.779605615394307,0.098391744571776,-0.579652104868746));
#134=CARTESIAN_POINT('',(0.775782942465958,0.0983781036064566,-0.572571916136313));
#135=CARTESIAN_POINT('',(0.769905699685113,0.0983747395224153,-0.563780767514386));
#136=CARTESIAN_POINT('',(0.762888115097068,0.0983802388904113,-0.552497584540896));
#137=CARTESIAN_POINT('',(0.75121358103297,0.0984103419817873,-0.534782542191394));
#138=CARTESIAN_POINT('',(0.736361585213049,0.0984748981102902,-0.512794024383771));
#139=CARTESIAN_POINT('',(0.717947088085579,0.0985640666653175,-0.486823690030106));
#140=CARTESIAN_POINT('',(0.698996544532227,0.098639399891122,-0.461240511870748));
#141=CARTESIAN_POINT('',(0.673003641649616,0.0987268474261306,-0.427679492883253));
#142=CARTESIAN_POINT('',(0.63916348721306,0.0988183741073759,-0.386795593955231));
#143=CARTESIAN_POINT('',(0.596407025370207,0.0989517934590078,-0.339595238183045));
#144=CARTESIAN_POINT('',(0.551544982660777,0.0990941983701722,-0.294387732286941));
#145=CARTESIAN_POINT('',(0.504470554382648,0.0992144648109532,-0.25148545400644));
#146=CARTESIAN_POINT('',(0.438920474620794,0.0993740545048156,-0.197496474633991));
#147=CARTESIAN_POINT('',(0.369429539099094,0.0995332988122336,-0.148545147234189));
#148=CARTESIAN_POINT('',(0.296536471883047,0.0996887516193739,-0.104976227467961));
#149=CARTESIAN_POINT('',(0.240279743411257,0.0998043559432457,-0.0751130811372275));
#150=CARTESIAN_POINT('',(0.18255885413807,0.0999211213936121,-0.0481848828438765));
#151=CARTESIAN_POINT('',(0.133344514149076,0.100009518559126,-0.028309634344526));
#152=CARTESIAN_POINT('',(0.093383094444867,0.100069822422678,-0.0139769296400212));
#153=CARTESIAN_POINT('',(0.0631221157735215,0.100117932841428,-0.00410198024952458));
#154=CARTESIAN_POINT('',(0.0402691359914721,0.10016845936235,0.00287713536617105));
#155=CARTESIAN_POINT('',(0.0249071821687969,0.100203160987761,0.00698902515340606));
#156=CARTESIAN_POINT('',(0.0172669972301725,0.100226584035082,0.00928980505059713));
#157=CARTESIAN_POINT('',(0.00956227202346467,0.100250683816376,0.0112436324137288));
#158=CARTESIAN_POINT('',(0.00424044966218033,0.100258482966093,0.0116718543769516));
#159=CARTESIAN_POINT('',(0.00159773591440171,0.100262589752674,0.0119047230109572));
#160=CARTESIAN_POINT('',(-1.22104423794234E-10,0.0900215730071068,-1.20139753700954E-09));
#161=CARTESIAN_POINT('',(0.000798867896148643,0.0951420813798904,0.00595236090477985));
#162=VECTOR('',#174,1.0);
#163=CARTESIAN_POINT('',(-2.79914707083927E-35,0.0199976600706577,2.73845987909067E-35));
#164=CARTESIAN_POINT('',(-6.10522118971168E-11,0.0550096165388823,-6.0069876850477E-10));
#165=VECTOR('',#175,1.0);
#166=CARTESIAN_POINT('',(-5.49806941307907E-07,0.00999424420297146,-5.3870885494689E-06));
#167=CARTESIAN_POINT('',(-2.74903470653953E-07,0.0149959521368146,-2.69354427473445E-06));
#168=VECTOR('',#176,1.0);
#169=CARTESIAN_POINT('',(0.000712383549796414,0.00497392530633078,0.00634924352993949));
#170=VECTOR('',#177,1.0);
#171=DIRECTION('',(0.813497014628613,0.575652514281127,-0.0827453321472042));
#172=DIRECTION('',(-0.00167391174148367,0.999987433580537,-0.0047255370586976));
#173=DIRECTION('',(-0.551346946247153,0.721474318269135,-0.418916880707886));
#174=DIRECTION('',(-0.101221178771137,-0.648798005646231,-0.754198528795738));
#175=DIRECTION('',(-0.0,-1.0,-0.0));
#176=DIRECTION('',(-5.49619118134453E-05,-0.999999853485091,-0.000538524823063875));
#177=DIRECTION('',(0.0876941349802696,-0.617522686517019,0.781649199018886));
ENDSEC;
END-ISO-10303-21;
