ISO-10303-21;
HEADER;
FILE_DESCRIPTION(('STEP AP214'),'1');
FILE_NAME('SMAStripDeformed_12.stp','2026-05-02T04:06:16',(' '),(' '),'Spatial InterOp 3D',' ',' ');
FILE_SCHEMA(('AUTOMOTIVE_DESIGN { 1 0 10303 214 1 1 1 1 }'));
ENDSEC;
DATA;
#1=PRODUCT_DEFINITION_CONTEXT('',#9,'design');
#2=APPLICATION_PROTOCOL_DEFINITION('INTERNATIONAL STANDARD','automotive_design',1994,#9);
#3=PRODUCT_CATEGORY_RELATIONSHIP('NONE','NONE',#10,#11);
#4=SHAPE_DEFINITION_REPRESENTATION(#12,#13);
#5= (GEOMETRIC_REPRESENTATION_CONTEXT(3)GLOBAL_UNCERTAINTY_ASSIGNED_CONTEXT((#16))GLOBAL_UNIT_ASSIGNED_CONTEXT((#18,#19,#20))REPRESENTATION_CONTEXT('NONE','WORKSPACE'));
#9=APPLICATION_CONTEXT(' ');
#10=PRODUCT_CATEGORY('part','NONE');
#11=PRODUCT_RELATED_PRODUCT_CATEGORY('detail',' ',(#22));
#12=PRODUCT_DEFINITION_SHAPE('NONE','NONE',#23);
#13=MANIFOLD_SURFACE_SHAPE_REPRESENTATION('1',(#24,#25),#5);
#16=UNCERTAINTY_MEASURE_WITH_UNIT(LENGTH_MEASURE(1.0E-06),#18,'','');
#18= (CONVERSION_BASED_UNIT('MILLIMETRE',#28)LENGTH_UNIT()NAMED_UNIT(#31));
#19= (NAMED_UNIT(#33)PLANE_ANGLE_UNIT()SI_UNIT($,.RADIAN.));
#20= (NAMED_UNIT(#33)SOLID_ANGLE_UNIT()SI_UNIT($,.STERADIAN.));
#22=PRODUCT('1','','PART--DESC',(#39));
#23=PRODUCT_DEFINITION('','NONE',#40,#1);
#24=SHELL_BASED_SURFACE_MODEL('1',(#41));
#25=AXIS2_PLACEMENT_3D('',#42,#43,#44);
#28=LENGTH_MEASURE_WITH_UNIT(LENGTH_MEASURE(1.0),#45);
#31=DIMENSIONAL_EXPONENTS(1.0,0.0,0.0,0.0,0.0,0.0,0.0);
#33=DIMENSIONAL_EXPONENTS(0.0,0.0,0.0,0.0,0.0,0.0,0.0);
#39=PRODUCT_CONTEXT('',#9,'mechanical');
#40=PRODUCT_DEFINITION_FORMATION_WITH_SPECIFIED_SOURCE(' ','NONE',#22,.NOT_KNOWN.);
#41=CLOSED_SHELL('',(#46));
#42=CARTESIAN_POINT('',(0.0,0.0,0.0));
#43=DIRECTION('',(0.0,0.0,1.0));
#44=DIRECTION('',(1.0,0.0,0.0));
#45= (NAMED_UNIT(#31)LENGTH_UNIT()SI_UNIT(.MILLI.,.METRE.));
#46=FACE_SURFACE('',(#48),#49,.T.);
#48=FACE_BOUND('',#50,.T.);
#49=CYLINDRICAL_SURFACE('',#51,1.28975528444235);
#50=EDGE_LOOP('',(#52,#53,#54,#55,#56,#57,#58,#59));
#51=AXIS2_PLACEMENT_3D('',#60,#61,#62);
#52=ORIENTED_EDGE('',*,*,#63,.T.);
#53=ORIENTED_EDGE('',*,*,#64,.T.);
#54=ORIENTED_EDGE('',*,*,#65,.T.);
#55=ORIENTED_EDGE('',*,*,#66,.T.);
#56=ORIENTED_EDGE('',*,*,#67,.T.);
#57=ORIENTED_EDGE('',*,*,#68,.T.);
#58=ORIENTED_EDGE('',*,*,#69,.T.);
#59=ORIENTED_EDGE('',*,*,#70,.T.);
#60=CARTESIAN_POINT('',(-0.213180590945069,-0.0063927300292858,-1.26129822771268));
#61=DIRECTION('',(0.000401623254515351,-0.999987417128803,0.00500042826427116));
#62=DIRECTION('',(0.0,0.00500042866755884,0.999987497778418));
#63=EDGE_CURVE('',#71,#72,#73,.T.);
#64=EDGE_CURVE('',#72,#74,#75,.T.);
#65=EDGE_CURVE('',#74,#76,#77,.T.);
#66=EDGE_CURVE('',#76,#78,#79,.T.);
#67=EDGE_CURVE('',#78,#80,#81,.T.);
#68=EDGE_CURVE('',#80,#82,#83,.T.);
#69=EDGE_CURVE('',#82,#84,#85,.T.);
#70=EDGE_CURVE('',#84,#71,#86,.T.);
#71=VERTEX_POINT('',#87);
#72=VERTEX_POINT('',#88);
#73=LINE('',#89,#90);
#74=VERTEX_POINT('',#91);
#75=LINE('',#92,#93);
#76=VERTEX_POINT('',#94);
#77=B_SPLINE_CURVE_WITH_KNOTS('',3,(#95,#96,#97,#98,#99,#100,#101,#102,#103,#104,#105,#106,#107,#108,#109,#110,#111,#112,#113),.UNSPECIFIED.,.F.,.F.,(4,1,1,1,1,1,1,1,1,1,1,1,1,1,1,1,4),(0.0,0.127287282486325,0.254574564972651,0.381861847458976,0.509149129945302,0.636436412431627,0.70008005367479,0.763723694917953,0.827367336161116,0.891010977404278,0.92283279802586,0.954654618647441,0.986476439269022,0.994431894424418,1.00238734957981,1.01034280473521,1.0182982598906),.UNSPECIFIED.);
#78=VERTEX_POINT('',#114);
#79=LINE('',#115,#116);
#80=VERTEX_POINT('',#117);
#81=LINE('',#118,#119);
#82=VERTEX_POINT('',#120);
#83=LINE('',#121,#122);
#84=VERTEX_POINT('',#123);
#85=B_SPLINE_CURVE_WITH_KNOTS('',3,(#124,#125,#126,#127,#128,#129,#130,#131,#132,#133,#134),.UNSPECIFIED.,.F.,.F.,(4,1,1,1,1,1,1,1,4),(0.0,0.127234794453909,0.254469588907818,0.381704383361727,0.508939177815636,0.636173972269545,0.763408766723453,0.890643561177362,1.01787835563127),.UNSPECIFIED.);
#86=LINE('',#135,#136);
#87=CARTESIAN_POINT('',(-2.89902299427464E-34,0.0900215730071068,-2.43512838322453E-34));
#88=CARTESIAN_POINT('',(-1.12476568548269E-34,0.0100006004795432,-6.42085320132866E-35));
#89=CARTESIAN_POINT('',(-1.28514019351642E-35,0.050011086743325,-2.3139778487492E-35));
#90=VECTOR('',#137,1.0);
#91=CARTESIAN_POINT('',(0.000811391568277031,-3.61548882210627E-05,0.00988502893596888));
#92=CARTESIAN_POINT('',(0.000405695784138516,0.00498222279566107,0.00494251446798444));
#93=VECTOR('',#138,1.0);
#94=CARTESIAN_POINT('',(0.841834247112274,-0.00121095683425665,-0.516766846179962));
#95=CARTESIAN_POINT('',(0.000811391568277031,-3.61548882210627E-05,0.00988502893596888));
#96=CARTESIAN_POINT('',(0.0427410335970961,-0.000264780544154769,0.00339805112950129));
#97=CARTESIAN_POINT('',(0.125919290936479,-9.22336268328272E-05,-0.0140028684447363));
#98=CARTESIAN_POINT('',(0.247152786570578,-0.000294678626474497,-0.0533801683793757));
#99=CARTESIAN_POINT('',(0.363673894536311,-0.000395161280039311,-0.10501647196903));
#100=CARTESIAN_POINT('',(0.474462725841484,-0.000539746503665044,-0.167998953550855));
#101=CARTESIAN_POINT('',(0.561308967083319,-0.000676087214756164,-0.229114236684493));
#102=CARTESIAN_POINT('',(0.627014466085346,-0.000770273319342263,-0.282853862820326));
#103=CARTESIAN_POINT('',(0.674289655785079,-0.000855709631881315,-0.325491337511951));
#104=CARTESIAN_POINT('',(0.71944824769864,-0.000976752446393181,-0.370364022555648));
#105=CARTESIAN_POINT('',(0.755237545079743,-0.00103357286441767,-0.409526113822182));
#106=CARTESIAN_POINT('',(0.782696821951794,-0.00100872665329149,-0.441875275230181));
#107=CARTESIAN_POINT('',(0.802744051000795,-0.000996643182181287,-0.466590893979171));
#108=CARTESIAN_POINT('',(0.817218432508569,-0.00102492694549795,-0.485574619805423));
#109=CARTESIAN_POINT('',(0.826889638191349,-0.00108149234809031,-0.498200807858868));
#110=CARTESIAN_POINT('',(0.831489718927544,-0.00111847538077505,-0.504705530823404));
#111=CARTESIAN_POINT('',(0.83624781193117,-0.00116321209869663,-0.511072906856965));
#112=CARTESIAN_POINT('',(0.839985255627805,-0.00119506450485773,-0.514866025653992));
#113=CARTESIAN_POINT('',(0.841834247112274,-0.00121095683425665,-0.516766846179962));
#114=CARTESIAN_POINT('',(0.846203207969666,0.00881383195519447,-0.513541638851166));
#115=CARTESIAN_POINT('',(0.84401872754097,0.00380143756046891,-0.515154242515564));
#116=VECTOR('',#139,1.0);
#117=CARTESIAN_POINT('',(0.846042513847351,0.0888836979866028,-0.513800382614136));
#118=CARTESIAN_POINT('',(0.846122860908508,0.0488487649708986,-0.513671010732651));
#119=VECTOR('',#140,1.0);
#120=CARTESIAN_POINT('',(0.840981841087341,0.0989081859588623,-0.517652153968811));
#121=CARTESIAN_POINT('',(0.843512177467346,0.0938959419727325,-0.515726268291473));
#122=VECTOR('',#141,1.0);
#123=CARTESIAN_POINT('',(0.000961879966780543,0.100202605128288,0.00918718613684177));
#124=CARTESIAN_POINT('',(0.840981841087341,0.0989081859588623,-0.517652153968811));
#125=CARTESIAN_POINT('',(0.816068396029304,0.0988350958922748,-0.483329296119705));
#126=CARTESIAN_POINT('',(0.763613990273743,0.099085195683656,-0.41656122971918));
#127=CARTESIAN_POINT('',(0.675331652749466,0.0992048468317966,-0.324711751513842));
#128=CARTESIAN_POINT('',(0.578682127078093,0.0994015546572862,-0.24174229995978));
#129=CARTESIAN_POINT('',(0.474471901465067,0.0995757939568182,-0.168483327030522));
#130=CARTESIAN_POINT('',(0.363709140045409,0.0997552557939234,-0.105563982015026));
#131=CARTESIAN_POINT('',(0.247218155468813,0.0998951021704867,-0.0539882839008105));
#132=CARTESIAN_POINT('',(0.126023068523073,0.100082792519961,-0.0146652084723751));
#133=CARTESIAN_POINT('',(0.0428765772399926,0.10003304308226,0.00271624656401799));
#134=CARTESIAN_POINT('',(0.000961879966780543,0.100202605128288,0.00918718613684177));
#135=CARTESIAN_POINT('',(0.000480939983390272,0.0951120890676975,0.00459359306842089));
#136=VECTOR('',#142,1.0);
#137=DIRECTION('',(-0.0,-1.0,-0.0));
#138=DIRECTION('',(0.0575023333869328,-0.711292643212701,0.700539975566382));
#139=DIRECTION('',(0.383203597327462,0.8792789068061,0.28288444114366));
#140=DIRECTION('',(-0.0020069418364214,0.999992239422835,-0.00339017382565488));
#141=DIRECTION('',(-0.426280907666131,0.844403112857012,-0.324450259295207));
#142=DIRECTION('',(-0.069969615998865,-0.740594390769453,-0.668299484660727));
ENDSEC;
END-ISO-10303-21;
