ISO-10303-21;
HEADER;
FILE_DESCRIPTION(('STEP AP214'),'1');
FILE_NAME('SMAStripDeformed_07.stp','2026-05-02T04:01:16',(' '),(' '),'Spatial InterOp 3D',' ',' ');
FILE_SCHEMA(('AUTOMOTIVE_DESIGN { 1 0 10303 214 1 1 1 1 }'));
ENDSEC;
DATA;
#1=PRODUCT_DEFINITION_CONTEXT('',#9,'design');
#2=APPLICATION_PROTOCOL_DEFINITION('INTERNATIONAL STANDARD','automotive_design',1994,#9);
#3=PRODUCT_CATEGORY_RELATIONSHIP('NONE','NONE',#10,#11);
#4=SHAPE_DEFINITION_REPRESENTATION(#12,#13);
#5= (GEOMETRIC_REPRESENTATION_CONTEXT(3)GLOBAL_UNCERTAINTY_ASSIGNED_CONTEXT((#16))GLOBAL_UNIT_ASSIGNED_CONTEXT((#18,#19,#20))REPRESENTATION_CONTEXT('NONE','WORKSPACE'));
#9=APPLICATION_CONTEXT(' ');
#10=PRODUCT_CATEGORY('part','NONE');
#11=PRODUCT_RELATED_PRODUCT_CATEGORY('detail',' ',(#22));
#12=PRODUCT_DEFINITION_SHAPE('NONE','NONE',#23);
#13=MANIFOLD_SURFACE_SHAPE_REPRESENTATION('1',(#24,#25),#5);
#16=UNCERTAINTY_MEASURE_WITH_UNIT(LENGTH_MEASURE(1.0E-06),#18,'','');
#18= (CONVERSION_BASED_UNIT('MILLIMETRE',#28)LENGTH_UNIT()NAMED_UNIT(#31));
#19= (NAMED_UNIT(#33)PLANE_ANGLE_UNIT()SI_UNIT($,.RADIAN.));
#20= (NAMED_UNIT(#33)SOLID_ANGLE_UNIT()SI_UNIT($,.STERADIAN.));
#22=PRODUCT('1','','PART--DESC',(#39));
#23=PRODUCT_DEFINITION('','NONE',#40,#1);
#24=SHELL_BASED_SURFACE_MODEL('1',(#41));
#25=AXIS2_PLACEMENT_3D('',#42,#43,#44);
#28=LENGTH_MEASURE_WITH_UNIT(LENGTH_MEASURE(1.0),#45);
#31=DIMENSIONAL_EXPONENTS(1.0,0.0,0.0,0.0,0.0,0.0,0.0);
#33=DIMENSIONAL_EXPONENTS(0.0,0.0,0.0,0.0,0.0,0.0,0.0);
#39=PRODUCT_CONTEXT('',#9,'mechanical');
#40=PRODUCT_DEFINITION_FORMATION_WITH_SPECIFIED_SOURCE(' ','NONE',#22,.NOT_KNOWN.);
#41=CLOSED_SHELL('',(#46));
#42=CARTESIAN_POINT('',(0.0,0.0,0.0));
#43=DIRECTION('',(0.0,0.0,1.0));
#44=DIRECTION('',(1.0,0.0,0.0));
#45= (NAMED_UNIT(#31)LENGTH_UNIT()SI_UNIT(.MILLI.,.METRE.));
#46=FACE_SURFACE('',(#48),#49,.T.);
#48=FACE_BOUND('',#50,.T.);
#49=CYLINDRICAL_SURFACE('',#51,1.54589658211708);
#50=EDGE_LOOP('',(#52,#53,#54,#55,#56,#57));
#51=AXIS2_PLACEMENT_3D('',#58,#59,#60);
#52=ORIENTED_EDGE('',*,*,#61,.T.);
#53=ORIENTED_EDGE('',*,*,#62,.T.);
#54=ORIENTED_EDGE('',*,*,#63,.T.);
#55=ORIENTED_EDGE('',*,*,#64,.T.);
#56=ORIENTED_EDGE('',*,*,#65,.T.);
#57=ORIENTED_EDGE('',*,*,#66,.T.);
#58=CARTESIAN_POINT('',(-0.121555016037555,-0.0113740202002923,-1.53519015258767));
#59=DIRECTION('',(-0.0111437062673442,-0.999903538044374,0.0082905016115451));
#60=DIRECTION('',(1.25048784601606E-20,0.00829101642581423,0.999965628932628));
#61=EDGE_CURVE('',#67,#68,#69,.T.);
#62=EDGE_CURVE('',#68,#70,#71,.T.);
#63=EDGE_CURVE('',#70,#72,#73,.T.);
#64=EDGE_CURVE('',#72,#74,#75,.T.);
#65=EDGE_CURVE('',#74,#76,#77,.T.);
#66=EDGE_CURVE('',#76,#67,#78,.T.);
#67=VERTEX_POINT('',#79);
#68=VERTEX_POINT('',#80);
#69=LINE('',#81,#82);
#70=VERTEX_POINT('',#83);
#71=LINE('',#84,#85);
#72=VERTEX_POINT('',#86);
#73=LINE('',#87,#88);
#74=VERTEX_POINT('',#89);
#75=B_SPLINE_CURVE_WITH_KNOTS('',3,(#90,#91,#92,#93,#94,#95,#96,#97,#98,#99,#100,#101,#102,#103,#104,#105,#106,#107,#108,#109,#110),.UNSPECIFIED.,.F.,.F.,(4,1,1,1,1,1,1,1,1,1,1,1,1,1,1,1,1,1,4),(0.0,0.126995353686597,0.253990707373194,0.38098606105979,0.507981414746387,0.634976768432984,0.698474445276283,0.761972122119581,0.825469798962879,0.857218637384529,0.888967475806178,0.920716314227827,0.952465152649476,0.968339571860301,0.984213991071125,0.992151200676538,1.00008841028195,1.00802561988736,1.01596282949277),.UNSPECIFIED.);
#76=VERTEX_POINT('',#111);
#77=LINE('',#112,#113);
#78=B_SPLINE_CURVE_WITH_KNOTS('',3,(#114,#115,#116,#117,#118,#119,#120,#121,#122,#123,#124,#125,#126,#127,#128,#129,#130,#131,#132,#133,#134,#135,#136,#137,#138,#139,#140,#141,#142,#143,#144),.UNSPECIFIED.,.F.,.F.,(4,1,1,1,1,1,1,1,1,1,1,1,1,1,1,1,1,1,1,1,1,1,1,1,1,1,1,1,4),(0.0,0.00793850927210727,0.0158770185442145,0.0238155278163218,0.0317540370884291,0.0635080741768582,0.0952621112652872,0.127016148353716,0.158770185442145,0.190524222530574,0.254032296707433,0.317540370884291,0.381048445061149,0.508064593414865,0.571572667591723,0.635080741768582,0.69858881594544,0.762096890122298,0.825604964299156,0.857359001387585,0.889113038476014,0.920867075564443,0.952621112652872,0.968498131197087,0.984375149741301,0.992313659013409,1.00025216828552,1.00819067755762,1.01612918682973),.UNSPECIFIED.);
#79=CARTESIAN_POINT('',(-3.87904719900689E-06,0.100110813975334,0.000840462220367044));
#80=CARTESIAN_POINT('',(-4.33529296080968E-34,0.0900215730071068,-2.32142295242273E-34));
#81=CARTESIAN_POINT('',(-1.93952359950345E-06,0.0950661934912205,0.000420231110183522));
#82=VECTOR('',#145,1.0);
#83=CARTESIAN_POINT('',(-1.01588379932222E-34,0.0100006004795432,-5.21483502747086E-35));
#84=CARTESIAN_POINT('',(-4.80199544215482E-35,0.050011086743325,-3.05487276741267E-35));
#85=VECTOR('',#146,1.0);
#86=CARTESIAN_POINT('',(0.000171669424162246,-3.00360170513159E-05,0.00458787847310305));
#87=CARTESIAN_POINT('',(8.58347120811231E-05,0.00498528223124595,0.00229393923655152));
#88=VECTOR('',#147,1.0);
#89=CARTESIAN_POINT('',(0.918461918830872,-0.000471782172098756,-0.386797428131104));
#90=CARTESIAN_POINT('',(0.000171669424162246,-3.00360170513159E-05,0.00458787847310305));
#91=CARTESIAN_POINT('',(0.0424162430830125,-0.000172973522060187,0.00187576684706974));
#92=CARTESIAN_POINT('',(0.126672061257742,-3.98261184946126E-05,-0.00724437113152818));
#93=CARTESIAN_POINT('',(0.251288392580117,-0.000138848761237872,-0.0323758129868246));
#94=CARTESIAN_POINT('',(0.373228266652869,-0.000167436535646207,-0.068264958157871));
#95=CARTESIAN_POINT('',(0.491684672443119,-0.000222543836372668,-0.114353754121095));
#96=CARTESIAN_POINT('',(0.586917829031404,-0.000267382057701254,-0.160706903814738));
#97=CARTESIAN_POINT('',(0.660725683365416,-0.000303065850919795,-0.202216676398377));
#98=CARTESIAN_POINT('',(0.714830508076348,-0.000330522660077525,-0.235475235354012));
#99=CARTESIAN_POINT('',(0.758826798714387,-0.000355679591806439,-0.264891447922315));
#100=CARTESIAN_POINT('',(0.793334890378772,-0.000373493396039316,-0.289413637114327));
#101=CARTESIAN_POINT('',(0.818859904383751,-0.000384751863822802,-0.308296460480353));
#102=CARTESIAN_POINT('',(0.844027119035001,-0.000393174421498431,-0.327652790188022));
#103=CARTESIAN_POINT('',(0.864670603189018,-0.000399949051811108,-0.344205739016383));
#104=CARTESIAN_POINT('',(0.881036821904755,-0.000408332382913941,-0.357620894580109));
#105=CARTESIAN_POINT('',(0.891093460025769,-0.000411975920603146,-0.366234805738073));
#106=CARTESIAN_POINT('',(0.899280784076717,-0.000421359959218481,-0.372907362335239));
#107=CARTESIAN_POINT('',(0.905077742469901,-0.000419493032229332,-0.378404776891011));
#108=CARTESIAN_POINT('',(0.911187641586828,-0.000428371775100636,-0.383419775704816));
#109=CARTESIAN_POINT('',(0.916071363035973,-0.000457808354543531,-0.385663863162847));
#110=CARTESIAN_POINT('',(0.918461918830872,-0.000471782172098756,-0.386797428131104));
#111=CARTESIAN_POINT('',(0.918221890926361,0.0996416285634041,-0.387152165174484));
#112=CARTESIAN_POINT('',(0.918622016906738,0.0495849231956527,-0.386670589447021));
#113=VECTOR('',#148,1.0);
#114=CARTESIAN_POINT('',(0.918221890926361,0.0996416285634041,-0.387152165174484));
#115=CARTESIAN_POINT('',(0.915899523170176,0.0996351563686176,-0.385883788061579));
#116=CARTESIAN_POINT('',(0.911184965106614,0.0996213978631855,-0.383367770706479));
#117=CARTESIAN_POINT('',(0.905099968581867,0.0996230479495284,-0.378299503879031));
#118=CARTESIAN_POINT('',(0.899253408970298,0.0996308622286899,-0.372883650924142));
#119=CARTESIAN_POINT('',(0.887013487669105,0.0996350863681855,-0.36279850698931));
#120=CARTESIAN_POINT('',(0.868812148694805,0.0996493791772706,-0.347416204259254));
#121=CARTESIAN_POINT('',(0.843960833327576,0.0996641626901609,-0.327652187567449));
#122=CARTESIAN_POINT('',(0.818791261915356,0.0996805912605729,-0.308288827955083));
#123=CARTESIAN_POINT('',(0.793243611965787,0.0996971531330115,-0.289428080194828));
#124=CARTESIAN_POINT('',(0.75871281324802,0.0997197718550686,-0.264925907271783));
#125=CARTESIAN_POINT('',(0.714686008224676,0.0997487162633897,-0.23553973234383));
#126=CARTESIAN_POINT('',(0.660547595349338,0.099784441056701,-0.202316009653194));
#127=CARTESIAN_POINT('',(0.586695650785031,0.0998308156525672,-0.160856489860456));
#128=CARTESIAN_POINT('',(0.510467232901861,0.0998756168601952,-0.123827447520133));
#129=CARTESIAN_POINT('',(0.432154447763063,0.0999171046956755,-0.0915704303350141));
#130=CARTESIAN_POINT('',(0.37246266926999,0.0999463771543499,-0.0698459275776592));
#131=CARTESIAN_POINT('',(0.31190346036549,0.0999736080136307,-0.0506699413476059));
#132=CARTESIAN_POINT('',(0.250574210058914,0.0999984909717812,-0.0341198026471361));
#133=CARTESIAN_POINT('',(0.198911536164775,0.100017427571977,-0.0225765966216567));
#134=CARTESIAN_POINT('',(0.15730434342341,0.100031097858388,-0.0147270133128591));
#135=CARTESIAN_POINT('',(0.125974679602572,0.10004111672453,-0.00953544616901078));
#136=CARTESIAN_POINT('',(0.094537542932622,0.10005094240626,-0.00506499673749842));
#137=CARTESIAN_POINT('',(0.0682579086220777,0.100057468930746,-0.00188651148637594));
#138=CARTESIAN_POINT('',(0.0472053764913102,0.100064979617093,0.000195600646228734));
#139=CARTESIAN_POINT('',(0.0340119061550925,0.100069029962405,0.00157441017971834));
#140=CARTESIAN_POINT('',(0.0234938955592878,0.100060010889228,0.0021170772875284));
#141=CARTESIAN_POINT('',(0.0155238809698267,0.100059186730688,0.00326869308654897));
#142=CARTESIAN_POINT('',(0.00765787949610199,0.100076946357087,0.00350931043911824));
#143=CARTESIAN_POINT('',(0.0025046300506394,0.100099805101472,0.00168276578534395));
#144=CARTESIAN_POINT('',(-3.87904719900689E-06,0.100110813975334,0.000840462220367044));
#145=DIRECTION('',(0.00038314651426238,-0.996548201197243,-0.083015275035915));
#146=DIRECTION('',(-0.0,-1.0,-0.0));
#147=DIRECTION('',(0.0155618903285102,-0.909280530571526,0.41589270766986));
#148=DIRECTION('',(-0.00240146248332584,0.999990833436885,-0.00354485826867006));
ENDSEC;
END-ISO-10303-21;
