ISO-10303-21;
HEADER;
FILE_DESCRIPTION(('STEP AP214'),'1');
FILE_NAME('SMAStripDeformed_02.stp','2026-05-02T03:58:11',(' '),(' '),'Spatial InterOp 3D',' ',' ');
FILE_SCHEMA(('AUTOMOTIVE_DESIGN { 1 0 10303 214 1 1 1 1 }'));
ENDSEC;
DATA;
#1=PRODUCT_DEFINITION_CONTEXT('',#9,'design');
#2=APPLICATION_PROTOCOL_DEFINITION('INTERNATIONAL STANDARD','automotive_design',1994,#9);
#3=PRODUCT_CATEGORY_RELATIONSHIP('NONE','NONE',#10,#11);
#4=SHAPE_DEFINITION_REPRESENTATION(#12,#13);
#5= (GEOMETRIC_REPRESENTATION_CONTEXT(3)GLOBAL_UNCERTAINTY_ASSIGNED_CONTEXT((#16))GLOBAL_UNIT_ASSIGNED_CONTEXT((#18,#19,#20))REPRESENTATION_CONTEXT('NONE','WORKSPACE'));
#9=APPLICATION_CONTEXT(' ');
#10=PRODUCT_CATEGORY('part','NONE');
#11=PRODUCT_RELATED_PRODUCT_CATEGORY('detail',' ',(#22));
#12=PRODUCT_DEFINITION_SHAPE('NONE','NONE',#23);
#13=MANIFOLD_SURFACE_SHAPE_REPRESENTATION('1',(#24,#25),#5);
#16=UNCERTAINTY_MEASURE_WITH_UNIT(LENGTH_MEASURE(1.0E-06),#18,'','');
#18= (CONVERSION_BASED_UNIT('MILLIMETRE',#28)LENGTH_UNIT()NAMED_UNIT(#31));
#19= (NAMED_UNIT(#33)PLANE_ANGLE_UNIT()SI_UNIT($,.RADIAN.));
#20= (NAMED_UNIT(#33)SOLID_ANGLE_UNIT()SI_UNIT($,.STERADIAN.));
#22=PRODUCT('1','','PART--DESC',(#39));
#23=PRODUCT_DEFINITION('','NONE',#40,#1);
#24=SHELL_BASED_SURFACE_MODEL('1',(#41));
#25=AXIS2_PLACEMENT_3D('',#42,#43,#44);
#28=LENGTH_MEASURE_WITH_UNIT(LENGTH_MEASURE(1.0),#45);
#31=DIMENSIONAL_EXPONENTS(1.0,0.0,0.0,0.0,0.0,0.0,0.0);
#33=DIMENSIONAL_EXPONENTS(0.0,0.0,0.0,0.0,0.0,0.0,0.0);
#39=PRODUCT_CONTEXT('',#9,'mechanical');
#40=PRODUCT_DEFINITION_FORMATION_WITH_SPECIFIED_SOURCE(' ','NONE',#22,.NOT_KNOWN.);
#41=CLOSED_SHELL('',(#46));
#42=CARTESIAN_POINT('',(0.0,0.0,0.0));
#43=DIRECTION('',(0.0,0.0,1.0));
#44=DIRECTION('',(1.0,0.0,0.0));
#45= (NAMED_UNIT(#31)LENGTH_UNIT()SI_UNIT(.MILLI.,.METRE.));
#46=FACE_SURFACE('',(#48),#49,.T.);
#48=FACE_BOUND('',#50,.T.);
#49=CYLINDRICAL_SURFACE('',#51,3.70264796135141);
#50=EDGE_LOOP('',(#52,#53,#54,#55,#56));
#51=AXIS2_PLACEMENT_3D('',#57,#58,#59);
#52=ORIENTED_EDGE('',*,*,#60,.T.);
#53=ORIENTED_EDGE('',*,*,#61,.T.);
#54=ORIENTED_EDGE('',*,*,#62,.T.);
#55=ORIENTED_EDGE('',*,*,#63,.T.);
#56=ORIENTED_EDGE('',*,*,#64,.T.);
#57=CARTESIAN_POINT('',(-0.0324585807015323,-0.000874184354738062,-3.70157592447095));
#58=DIRECTION('',(-0.00114688007457785,-0.999999312020146,0.000246222114331801));
#59=DIRECTION('',(-3.35827192165415E-23,0.000246222276264108,0.999999969687295));
#60=EDGE_CURVE('',#65,#66,#67,.T.);
#61=EDGE_CURVE('',#66,#68,#69,.T.);
#62=EDGE_CURVE('',#68,#70,#71,.T.);
#63=EDGE_CURVE('',#70,#72,#73,.T.);
#64=EDGE_CURVE('',#72,#65,#74,.T.);
#65=VERTEX_POINT('',#75);
#66=VERTEX_POINT('',#76);
#67=CIRCLE('',#77,3.70526955365328);
#68=VERTEX_POINT('',#78);
#69=LINE('',#79,#80);
#70=VERTEX_POINT('',#81);
#71=LINE('',#82,#83);
#72=VERTEX_POINT('',#84);
#73=CIRCLE('',#85,3.70954603636016);
#74=LINE('',#86,#87);
#75=CARTESIAN_POINT('',(0.99360191822052,0.1000125259161,-0.143792539834976));
#76=CARTESIAN_POINT('',(0.0,0.100005999207497,0.0));
#77=AXIS2_PLACEMENT_3D('',#88,#89,#90);
#78=CARTESIAN_POINT('',(-2.33022859897184E-34,0.0100006004795432,1.42830140053341E-35));
#79=CARTESIAN_POINT('',(3.57962710614979E-35,0.0550032998435199,1.75214923322717E-35));
#80=VECTOR('',#91,1.0);
#81=CARTESIAN_POINT('',(1.79483879492182E-06,-6.00226076130639E-06,0.000553255784325302));
#82=CARTESIAN_POINT('',(8.97419397460908E-07,0.00499729910939095,0.000276627892162651));
#83=VECTOR('',#92,0.999999999999999);
#84=CARTESIAN_POINT('',(0.993614912033081,-1.48071621879353E-05,-0.143797934055328));
#85=AXIS2_PLACEMENT_3D('',#93,#94,#95);
#86=CARTESIAN_POINT('',(0.99370488524437,0.0499988593769558,-0.14339704066515));
#87=VECTOR('',#96,1.0);
#88=CARTESIAN_POINT('',(-0.029546162884205,0.0990690817971646,-3.70484068907118));
#89=DIRECTION('',(3.39820124699749E-05,-0.999999966829294,0.000255316730751903));
#90=DIRECTION('',(-1.98870129213945E-24,0.00025531673089932,0.999999967406683));
#91=DIRECTION('',(-0.0,-1.0,-0.0));
#92=DIRECTION('',(0.000179091923742086,-0.998475038512875,0.0552047587875829));
#93=CARTESIAN_POINT('',(-0.030362604238333,0.00104500741061757,-3.70905324842839));
#94=DIRECTION('',(4.06257535891737E-05,0.999999958377841,0.000285646395892441));
#95=DIRECTION('',(-2.37476660855579E-24,0.000285646396128164,-0.999999959203067));
#96=DIRECTION('',(-5.7565791218133E-05,0.999999997755135,3.42915417687788E-05));
ENDSEC;
END-ISO-10303-21;
