ISO-10303-21;
HEADER;
FILE_DESCRIPTION(('STEP AP214'),'1');
FILE_NAME('SMAStripDeformed_03.stp','2026-05-02T03:58:44',(' '),(' '),'Spatial InterOp 3D',' ',' ');
FILE_SCHEMA(('AUTOMOTIVE_DESIGN { 1 0 10303 214 1 1 1 1 }'));
ENDSEC;
DATA;
#1=PRODUCT_DEFINITION_CONTEXT('',#9,'design');
#2=APPLICATION_PROTOCOL_DEFINITION('INTERNATIONAL STANDARD','automotive_design',1994,#9);
#3=PRODUCT_CATEGORY_RELATIONSHIP('NONE','NONE',#10,#11);
#4=SHAPE_DEFINITION_REPRESENTATION(#12,#13);
#5= (GEOMETRIC_REPRESENTATION_CONTEXT(3)GLOBAL_UNCERTAINTY_ASSIGNED_CONTEXT((#16))GLOBAL_UNIT_ASSIGNED_CONTEXT((#18,#19,#20))REPRESENTATION_CONTEXT('NONE','WORKSPACE'));
#9=APPLICATION_CONTEXT(' ');
#10=PRODUCT_CATEGORY('part','NONE');
#11=PRODUCT_RELATED_PRODUCT_CATEGORY('detail',' ',(#22));
#12=PRODUCT_DEFINITION_SHAPE('NONE','NONE',#23);
#13=MANIFOLD_SURFACE_SHAPE_REPRESENTATION('1',(#24,#25),#5);
#16=UNCERTAINTY_MEASURE_WITH_UNIT(LENGTH_MEASURE(1.0E-06),#18,'','');
#18= (CONVERSION_BASED_UNIT('MILLIMETRE',#28)LENGTH_UNIT()NAMED_UNIT(#31));
#19= (NAMED_UNIT(#33)PLANE_ANGLE_UNIT()SI_UNIT($,.RADIAN.));
#20= (NAMED_UNIT(#33)SOLID_ANGLE_UNIT()SI_UNIT($,.STERADIAN.));
#22=PRODUCT('1','','PART--DESC',(#39));
#23=PRODUCT_DEFINITION('','NONE',#40,#1);
#24=SHELL_BASED_SURFACE_MODEL('1',(#41));
#25=AXIS2_PLACEMENT_3D('',#42,#43,#44);
#28=LENGTH_MEASURE_WITH_UNIT(LENGTH_MEASURE(1.0),#45);
#31=DIMENSIONAL_EXPONENTS(1.0,0.0,0.0,0.0,0.0,0.0,0.0);
#33=DIMENSIONAL_EXPONENTS(0.0,0.0,0.0,0.0,0.0,0.0,0.0);
#39=PRODUCT_CONTEXT('',#9,'mechanical');
#40=PRODUCT_DEFINITION_FORMATION_WITH_SPECIFIED_SOURCE(' ','NONE',#22,.NOT_KNOWN.);
#41=CLOSED_SHELL('',(#46));
#42=CARTESIAN_POINT('',(0.0,0.0,0.0));
#43=DIRECTION('',(0.0,0.0,1.0));
#44=DIRECTION('',(1.0,0.0,0.0));
#45= (NAMED_UNIT(#31)LENGTH_UNIT()SI_UNIT(.MILLI.,.METRE.));
#46=FACE_SURFACE('',(#48),#49,.T.);
#48=FACE_BOUND('',#50,.T.);
#49=CYLINDRICAL_SURFACE('',#51,2.65406566806256);
#50=EDGE_LOOP('',(#52,#53,#54,#55,#56));
#51=AXIS2_PLACEMENT_3D('',#57,#58,#59);
#52=ORIENTED_EDGE('',*,*,#60,.T.);
#53=ORIENTED_EDGE('',*,*,#61,.T.);
#54=ORIENTED_EDGE('',*,*,#62,.T.);
#55=ORIENTED_EDGE('',*,*,#63,.T.);
#56=ORIENTED_EDGE('',*,*,#64,.T.);
#57=CARTESIAN_POINT('',(-0.0466896576602264,-0.000665614901997866,-2.65222923319238));
#58=DIRECTION('',(0.00235470250788604,0.999997184930637,-0.000292415630226281));
#59=DIRECTION('',(9.61910477697694E-23,-0.000292416440896998,-0.999999957246312));
#60=EDGE_CURVE('',#65,#66,#67,.T.);
#61=EDGE_CURVE('',#66,#68,#69,.T.);
#62=EDGE_CURVE('',#68,#70,#71,.T.);
#63=EDGE_CURVE('',#70,#72,#73,.T.);
#64=EDGE_CURVE('',#72,#65,#74,.T.);
#65=VERTEX_POINT('',#75);
#66=VERTEX_POINT('',#76);
#67=LINE('',#77,#78);
#68=VERTEX_POINT('',#79);
#69=LINE('',#80,#81);
#70=VERTEX_POINT('',#82);
#71=CIRCLE('',#83,2.66073811194085);
#72=VERTEX_POINT('',#84);
#73=LINE('',#85,#86);
#74=CIRCLE('',#87,2.65730757087817);
#75=CARTESIAN_POINT('',(0.0,0.100016072392464,0.0));
#76=CARTESIAN_POINT('',(-3.3053035736607E-35,0.0100006004795432,-5.299409205742E-35));
#77=CARTESIAN_POINT('',(6.34235451510021E-35,0.0550083364360034,2.41157114353037E-35));
#78=VECTOR('',#88,1.0);
#79=CARTESIAN_POINT('',(-7.76352408138337E-06,-1.89126494660741E-05,0.000349643232766539));
#80=CARTESIAN_POINT('',(-3.88176204069168E-06,0.00499084391503857,0.000174821616383269));
#81=VECTOR('',#89,1.0);
#82=CARTESIAN_POINT('',(0.982508361339569,-2.38854718190851E-05,-0.204670071601868));
#83=AXIS2_PLACEMENT_3D('',#90,#91,#92);
#84=CARTESIAN_POINT('',(0.982506573200226,0.100017622113228,-0.204642772674561));
#85=CARTESIAN_POINT('',(0.982519179582596,0.0499968683207044,-0.204619064927101));
#86=VECTOR('',#93,1.0);
#87=AXIS2_PLACEMENT_3D('',#94,#95,#96);
#88=DIRECTION('',(-0.0,-1.0,-0.0));
#89=DIRECTION('',(-0.000774368870476732,-0.999391382457743,0.0348749913556026));
#90=CARTESIAN_POINT('',(-0.046314368989396,0.000511082422476312,-2.65938814797343));
#91=DIRECTION('',(4.24437745575514E-05,0.999999978537528,0.000202789226312049));
#92=DIRECTION('',(-1.72950627411485E-24,-0.000202789226494708,0.999999979438265));
#93=DIRECTION('',(-1.77113592231617E-05,0.999999962597701,0.000272930217111195));
#94=CARTESIAN_POINT('',(-0.0454108873292878,0.0998770973376221,-2.65603411881451));
#95=DIRECTION('',(4.89295128565771E-06,-0.999999998460036,5.52809784345167E-05));
#96=DIRECTION('',(0.0,5.52809784351784E-05,0.999999998472007));
ENDSEC;
END-ISO-10303-21;
