ISO-10303-21;
HEADER;
FILE_DESCRIPTION(('STEP AP214'),'1');
FILE_NAME('SMAStripDeformed_09.stp','2026-05-02T04:03:08',(' '),(' '),'Spatial InterOp 3D',' ',' ');
FILE_SCHEMA(('AUTOMOTIVE_DESIGN { 1 0 10303 214 1 1 1 1 }'));
ENDSEC;
DATA;
#1=PRODUCT_DEFINITION_CONTEXT('',#9,'design');
#2=APPLICATION_PROTOCOL_DEFINITION('INTERNATIONAL STANDARD','automotive_design',1994,#9);
#3=PRODUCT_CATEGORY_RELATIONSHIP('NONE','NONE',#10,#11);
#4=SHAPE_DEFINITION_REPRESENTATION(#12,#13);
#5= (GEOMETRIC_REPRESENTATION_CONTEXT(3)GLOBAL_UNCERTAINTY_ASSIGNED_CONTEXT((#16))GLOBAL_UNIT_ASSIGNED_CONTEXT((#18,#19,#20))REPRESENTATION_CONTEXT('NONE','WORKSPACE'));
#9=APPLICATION_CONTEXT(' ');
#10=PRODUCT_CATEGORY('part','NONE');
#11=PRODUCT_RELATED_PRODUCT_CATEGORY('detail',' ',(#22));
#12=PRODUCT_DEFINITION_SHAPE('NONE','NONE',#23);
#13=MANIFOLD_SURFACE_SHAPE_REPRESENTATION('1',(#24,#25),#5);
#16=UNCERTAINTY_MEASURE_WITH_UNIT(LENGTH_MEASURE(1.0E-06),#18,'','');
#18= (CONVERSION_BASED_UNIT('MILLIMETRE',#28)LENGTH_UNIT()NAMED_UNIT(#31));
#19= (NAMED_UNIT(#33)PLANE_ANGLE_UNIT()SI_UNIT($,.RADIAN.));
#20= (NAMED_UNIT(#33)SOLID_ANGLE_UNIT()SI_UNIT($,.STERADIAN.));
#22=PRODUCT('1','','PART--DESC',(#39));
#23=PRODUCT_DEFINITION('','NONE',#40,#1);
#24=SHELL_BASED_SURFACE_MODEL('1',(#41));
#25=AXIS2_PLACEMENT_3D('',#42,#43,#44);
#28=LENGTH_MEASURE_WITH_UNIT(LENGTH_MEASURE(1.0),#45);
#31=DIMENSIONAL_EXPONENTS(1.0,0.0,0.0,0.0,0.0,0.0,0.0);
#33=DIMENSIONAL_EXPONENTS(0.0,0.0,0.0,0.0,0.0,0.0,0.0);
#39=PRODUCT_CONTEXT('',#9,'mechanical');
#40=PRODUCT_DEFINITION_FORMATION_WITH_SPECIFIED_SOURCE(' ','NONE',#22,.NOT_KNOWN.);
#41=CLOSED_SHELL('',(#46));
#42=CARTESIAN_POINT('',(0.0,0.0,0.0));
#43=DIRECTION('',(0.0,0.0,1.0));
#44=DIRECTION('',(1.0,0.0,0.0));
#45= (NAMED_UNIT(#31)LENGTH_UNIT()SI_UNIT(.MILLI.,.METRE.));
#46=FACE_SURFACE('',(#48),#49,.T.);
#48=FACE_BOUND('',#50,.T.);
#49=CYLINDRICAL_SURFACE('',#51,1.40007175478223);
#50=EDGE_LOOP('',(#52,#53,#54,#55,#56,#57,#58,#59,#60,#61));
#51=AXIS2_PLACEMENT_3D('',#62,#63,#64);
#52=ORIENTED_EDGE('',*,*,#65,.T.);
#53=ORIENTED_EDGE('',*,*,#66,.T.);
#54=ORIENTED_EDGE('',*,*,#67,.T.);
#55=ORIENTED_EDGE('',*,*,#68,.T.);
#56=ORIENTED_EDGE('',*,*,#69,.T.);
#57=ORIENTED_EDGE('',*,*,#70,.T.);
#58=ORIENTED_EDGE('',*,*,#71,.T.);
#59=ORIENTED_EDGE('',*,*,#72,.T.);
#60=ORIENTED_EDGE('',*,*,#73,.T.);
#61=ORIENTED_EDGE('',*,*,#74,.T.);
#62=CARTESIAN_POINT('',(-0.161175076924892,-0.00858160804876203,-1.38258535935499));
#63=DIRECTION('',(-0.00447972026769059,-0.999967326139411,0.00672894939202259));
#64=DIRECTION('',(0.0,0.00672901691095929,0.999977359909419));
#65=EDGE_CURVE('',#75,#76,#77,.T.);
#66=EDGE_CURVE('',#76,#78,#79,.T.);
#67=EDGE_CURVE('',#78,#80,#81,.T.);
#68=EDGE_CURVE('',#80,#82,#83,.T.);
#69=EDGE_CURVE('',#82,#84,#85,.T.);
#70=EDGE_CURVE('',#84,#86,#87,.T.);
#71=EDGE_CURVE('',#86,#88,#89,.T.);
#72=EDGE_CURVE('',#88,#90,#91,.T.);
#73=EDGE_CURVE('',#90,#92,#93,.T.);
#74=EDGE_CURVE('',#92,#75,#94,.T.);
#75=VERTEX_POINT('',#95);
#76=VERTEX_POINT('',#96);
#77=LINE('',#97,#98);
#78=VERTEX_POINT('',#99);
#79=LINE('',#100,#101);
#80=VERTEX_POINT('',#102);
#81=LINE('',#103,#104);
#82=VERTEX_POINT('',#105);
#83=LINE('',#106,#107);
#84=VERTEX_POINT('',#108);
#85=LINE('',#109,#110);
#86=VERTEX_POINT('',#111);
#87=B_SPLINE_CURVE_WITH_KNOTS('',3,(#112,#113,#114,#115,#116,#117,#118,#119,#120,#121,#122,#123,#124,#125,#126,#127,#128,#129,#130),.UNSPECIFIED.,.F.,.F.,(4,1,1,1,1,1,1,1,1,1,1,1,1,1,1,1,4),(0.0,0.127110042413781,0.254220084827562,0.381330127241343,0.508440169655124,0.635550212068905,0.699105233275795,0.762660254482686,0.826215275689576,0.889770296896467,0.921547807499912,0.953325318103357,0.985102828706802,0.993047206357664,1.00099158400852,1.00893596165939,1.01688033931025),.UNSPECIFIED.);
#88=VERTEX_POINT('',#131);
#89=LINE('',#132,#133);
#90=VERTEX_POINT('',#134);
#91=LINE('',#135,#136);
#92=VERTEX_POINT('',#137);
#93=LINE('',#138,#139);
#94=B_SPLINE_CURVE_WITH_KNOTS('',3,(#140,#141,#142,#143,#144,#145,#146,#147,#148,#149,#150,#151,#152,#153,#154,#155,#156,#157,#158,#159,#160,#161,#162,#163,#164,#165,#166,#167,#168,#169),.UNSPECIFIED.,.F.,.F.,(4,1,1,1,1,1,1,1,1,1,1,1,1,1,1,1,1,1,1,1,1,1,1,1,1,1,1,4),(0.0,0.00795280854737108,0.0159056170947422,0.0238584256421132,0.0318112341894843,0.0636224683789686,0.0954337025684529,0.127244936757937,0.190867405136906,0.254489873515874,0.318112341894843,0.381734810273812,0.508979747031749,0.572602215410718,0.636224683789686,0.699847152168655,0.763469620547623,0.827092088926592,0.858903323116076,0.890714557305561,0.922525791495045,0.954337025684529,0.970242642779272,0.986148259874014,0.994101068421385,1.00205387696876,1.01000668551613,1.0179594940635),.UNSPECIFIED.);
#95=CARTESIAN_POINT('',(0.88748425245285,-0.000824157265014946,-0.44670632481575));
#96=CARTESIAN_POINT('',(0.887439966201782,0.0191987715661526,-0.446773618459702));
#97=CARTESIAN_POINT('',(0.887462109327316,0.00918730715056881,-0.446739971637726));
#98=VECTOR('',#170,1.0);
#99=CARTESIAN_POINT('',(0.887373030185699,0.0492332056164742,-0.446875065565109));
#100=CARTESIAN_POINT('',(0.887406498193741,0.0342159885913134,-0.446824342012405));
#101=VECTOR('',#171,1.0);
#102=CARTESIAN_POINT('',(0.887305557727814,0.0792675465345383,-0.44697692990303));
#103=CARTESIAN_POINT('',(0.887339293956757,0.0642503760755062,-0.44692599773407));
#104=VECTOR('',#172,1.0);
#105=CARTESIAN_POINT('',(0.887281060218811,0.0892789661884308,-0.447012335062027));
#106=CARTESIAN_POINT('',(0.887293308973312,0.0842732563614845,-0.446994632482529));
#107=VECTOR('',#173,1.0);
#108=CARTESIAN_POINT('',(0.884039461612701,0.099292553961277,-0.450024008750916));
#109=CARTESIAN_POINT('',(0.885660260915756,0.0942857600748539,-0.448518171906471));
#110=VECTOR('',#174,1.0);
#111=CARTESIAN_POINT('',(0.000330926181050017,0.100156456232071,0.00508342543616891));
#112=CARTESIAN_POINT('',(0.884039461612701,0.099292553961277,-0.450024008750916));
#113=CARTESIAN_POINT('',(0.855452965333091,0.0992008266353471,-0.41875066683481));
#114=CARTESIAN_POINT('',(0.795766144505658,0.0994204725713433,-0.358492161180899));
#115=CARTESIAN_POINT('',(0.698571960397264,0.0994823295598902,-0.276379375548905));
#116=CARTESIAN_POINT('',(0.594655966736388,0.0996252717872901,-0.202975668035518));
#117=CARTESIAN_POINT('',(0.484749169196893,0.0997463675586726,-0.138873802650775));
#118=CARTESIAN_POINT('',(0.388733483866797,0.0998393456900772,-0.0938778328215919));
#119=CARTESIAN_POINT('',(0.309657532732227,0.0999122468796407,-0.0633503063609732));
#120=CARTESIAN_POINT('',(0.249333536700665,0.0999589522131458,-0.0432869710476787));
#121=CARTESIAN_POINT('',(0.188113502716765,0.0999909094321766,-0.0261455109256977));
#122=CARTESIAN_POINT('',(0.136458621363242,0.100027238344139,-0.0143832627478167));
#123=CARTESIAN_POINT('',(0.0948233255098016,0.100076477543157,-0.00649480679144863));
#124=CARTESIAN_POINT('',(0.063457069634584,0.100087296668147,-0.00142426040769922));
#125=CARTESIAN_POINT('',(0.0398508630070876,0.100056721150362,0.00198023880723296));
#126=CARTESIAN_POINT('',(0.0240720432242646,0.100067175276051,0.00371907639583991));
#127=CARTESIAN_POINT('',(0.0161869618769834,0.100087382349233,0.00483820646933616));
#128=CARTESIAN_POINT('',(0.00829015721118038,0.100121806341641,0.0056067459534145));
#129=CARTESIAN_POINT('',(0.00297415925753759,0.1001448530132,0.00524390896857824));
#130=CARTESIAN_POINT('',(0.000330926181050017,0.100156456232071,0.00508342543616891));
#131=CARTESIAN_POINT('',(-1.25056447359605E-34,0.0900215730071068,-5.41291099133107E-35));
#132=CARTESIAN_POINT('',(0.000165463090525009,0.0950890146195889,0.00254171271808445));
#133=VECTOR('',#175,1.0);
#134=CARTESIAN_POINT('',(-3.74932532772533E-34,0.0100006004795432,-2.54643484127794E-34));
#135=CARTESIAN_POINT('',(-2.90858283983594E-35,0.050011086743325,-3.25821664492124E-35));
#136=VECTOR('',#176,1.0);
#137=CARTESIAN_POINT('',(0.000274213991360739,-3.58243196387775E-05,0.00583204720169306));
#138=CARTESIAN_POINT('',(0.000137106995680369,0.00498238807995222,0.00291602360084653));
#139=VECTOR('',#177,1.0);
#140=CARTESIAN_POINT('',(0.000274213991360739,-3.58243196387775E-05,0.00583204720169306));
#141=CARTESIAN_POINT('',(0.00292208381683171,-4.48888606684183E-05,0.00595919225631987));
#142=CARTESIAN_POINT('',(0.00824357516402425,-6.33486991094286E-05,0.00625187467872325));
#143=CARTESIAN_POINT('',(0.0161491447722368,-8.3297023554427E-05,0.00546980293415847));
#144=CARTESIAN_POINT('',(0.024041729107741,-0.00010143575239787,0.00436329908790729));
#145=CARTESIAN_POINT('',(0.0398369031944625,-0.000134431116251669,0.00260220854762775));
#146=CARTESIAN_POINT('',(0.0634665585553438,-0.000148044138625472,-0.000803900402903412));
#147=CARTESIAN_POINT('',(0.0948639489231698,-0.000137295318564994,-0.00589777448353659));
#148=CARTESIAN_POINT('',(0.136539659427071,-0.000114236296939639,-0.0138131505556361));
#149=CARTESIAN_POINT('',(0.18824343021894,-0.00013840615130036,-0.0256147843328957));
#150=CARTESIAN_POINT('',(0.249518926555153,-0.000197683770629181,-0.0428081948130707));
#151=CARTESIAN_POINT('',(0.309894840540625,-0.000239050982757839,-0.0629293622157977));
#152=CARTESIAN_POINT('',(0.389034749753621,-0.000289460240558471,-0.0935411101450265));
#153=CARTESIAN_POINT('',(0.465903475916798,-0.000355681218135657,-0.129630234730203));
#154=CARTESIAN_POINT('',(0.540105451555945,-0.000423604651481435,-0.170785098574305));
#155=CARTESIAN_POINT('',(0.594340692797448,-0.00047528098819126,-0.204076501034739));
#156=CARTESIAN_POINT('',(0.647075437755878,-0.000527957711345919,-0.239696554157685));
#157=CARTESIAN_POINT('',(0.698211056617236,-0.000583375691475397,-0.277576555010692));
#158=CARTESIAN_POINT('',(0.739410700052603,-0.000632854706513933,-0.310967001683463));
#159=CARTESIAN_POINT('',(0.771475905024956,-0.000667606231378953,-0.338734894417306));
#160=CARTESIAN_POINT('',(0.795066458556134,-0.000689268139585483,-0.360079683556823));
#161=CARTESIAN_POINT('',(0.818186356892229,-0.000706760623724337,-0.381929385139945));
#162=CARTESIAN_POINT('',(0.837055074078196,-0.000722115402694175,-0.40056183263499));
#163=CARTESIAN_POINT('',(0.851898310727732,-0.000738822071459399,-0.415689381606254));
#164=CARTESIAN_POINT('',(0.861083940626207,-0.000748629155430096,-0.425293617875358));
#165=CARTESIAN_POINT('',(0.868350302756652,-0.000763218311044633,-0.432927978735913));
#166=CARTESIAN_POINT('',(0.873735170509448,-0.000766042825125888,-0.438937601505715));
#167=CARTESIAN_POINT('',(0.879902829840638,-0.000779248192526652,-0.443882813418488));
#168=CARTESIAN_POINT('',(0.885008325826793,-0.000809757523002468,-0.445759201469363));
#169=CARTESIAN_POINT('',(0.88748425245285,-0.000824157265014946,-0.44670632481575));
#170=DIRECTION('',(-0.00221175898066755,0.999991906519844,-0.00336080600728119));
#171=DIRECTION('',(-0.00222842576861884,0.999991812370507,-0.0033777670941683));
#172=DIRECTION('',(-0.00224629333842235,0.999991725005722,-0.0033917674329404));
#173=DIRECTION('',(-0.00244693393354534,0.999990752993981,-0.00353644466308013));
#174=DIRECTION('',(-0.296101135453524,0.914682867864905,-0.275098834635058));
#175=DIRECTION('',(-0.029174152014403,-0.893482114093104,-0.448150176447536));
#176=DIRECTION('',(-0.0,-1.0,-0.0));
#177=DIRECTION('',(0.0236165256902546,-0.864381437766878,0.502281783223705));
ENDSEC;
END-ISO-10303-21;
