ISO-10303-21;
HEADER;
FILE_DESCRIPTION(('STEP AP214'),'1');
FILE_NAME('SMAStripDeformed_11.stp','2026-05-05T08:36:18',(' '),(' '),'Spatial InterOp 3D',' ',' ');
FILE_SCHEMA(('AUTOMOTIVE_DESIGN { 1 0 10303 214 1 1 1 1 }'));
ENDSEC;
DATA;
#1=PRODUCT_DEFINITION_CONTEXT('',#9,'design');
#2=APPLICATION_PROTOCOL_DEFINITION('INTERNATIONAL STANDARD','automotive_design',1994,#9);
#3=PRODUCT_CATEGORY_RELATIONSHIP('NONE','NONE',#10,#11);
#4=SHAPE_DEFINITION_REPRESENTATION(#12,#13);
#5= (GEOMETRIC_REPRESENTATION_CONTEXT(3)GLOBAL_UNCERTAINTY_ASSIGNED_CONTEXT((#16))GLOBAL_UNIT_ASSIGNED_CONTEXT((#18,#19,#20))REPRESENTATION_CONTEXT('NONE','WORKSPACE'));
#9=APPLICATION_CONTEXT(' ');
#10=PRODUCT_CATEGORY('part','NONE');
#11=PRODUCT_RELATED_PRODUCT_CATEGORY('detail',' ',(#22));
#12=PRODUCT_DEFINITION_SHAPE('NONE','NONE',#23);
#13=MANIFOLD_SURFACE_SHAPE_REPRESENTATION('1',(#24,#25),#5);
#16=UNCERTAINTY_MEASURE_WITH_UNIT(LENGTH_MEASURE(1.0E-06),#18,'','');
#18= (CONVERSION_BASED_UNIT('MILLIMETRE',#28)LENGTH_UNIT()NAMED_UNIT(#31));
#19= (NAMED_UNIT(#33)PLANE_ANGLE_UNIT()SI_UNIT($,.RADIAN.));
#20= (NAMED_UNIT(#33)SOLID_ANGLE_UNIT()SI_UNIT($,.STERADIAN.));
#22=PRODUCT('1','','PART--DESC',(#39));
#23=PRODUCT_DEFINITION('','NONE',#40,#1);
#24=SHELL_BASED_SURFACE_MODEL('1',(#41));
#25=AXIS2_PLACEMENT_3D('',#42,#43,#44);
#28=LENGTH_MEASURE_WITH_UNIT(LENGTH_MEASURE(1.0),#45);
#31=DIMENSIONAL_EXPONENTS(1.0,0.0,0.0,0.0,0.0,0.0,0.0);
#33=DIMENSIONAL_EXPONENTS(0.0,0.0,0.0,0.0,0.0,0.0,0.0);
#39=PRODUCT_CONTEXT('',#9,'mechanical');
#40=PRODUCT_DEFINITION_FORMATION_WITH_SPECIFIED_SOURCE(' ','NONE',#22,.NOT_KNOWN.);
#41=CLOSED_SHELL('',(#46));
#42=CARTESIAN_POINT('',(0.0,0.0,0.0));
#43=DIRECTION('',(0.0,0.0,1.0));
#44=DIRECTION('',(1.0,0.0,0.0));
#45= (NAMED_UNIT(#31)LENGTH_UNIT()SI_UNIT(.MILLI.,.METRE.));
#46=FACE_SURFACE('',(#48),#49,.F.);
#48=FACE_BOUND('',#50,.T.);
#49=CYLINDRICAL_SURFACE('',#51,0.0681199657383935);
#50=EDGE_LOOP('',(#52,#53,#54,#55,#56,#57,#58));
#51=AXIS2_PLACEMENT_3D('',#59,#60,#61);
#52=ORIENTED_EDGE('',*,*,#62,.T.);
#53=ORIENTED_EDGE('',*,*,#63,.T.);
#54=ORIENTED_EDGE('',*,*,#64,.T.);
#55=ORIENTED_EDGE('',*,*,#65,.T.);
#56=ORIENTED_EDGE('',*,*,#66,.T.);
#57=ORIENTED_EDGE('',*,*,#67,.T.);
#58=ORIENTED_EDGE('',*,*,#68,.T.);
#59=CARTESIAN_POINT('',(0.0103125050057159,0.0503881122314808,0.0658943710740113));
#60=DIRECTION('',(0.988071099157092,-0.000833729464370589,-0.153996129515249));
#61=DIRECTION('',(-0.000843794711006586,-0.999999644005179,3.06376655443414E-20));
#62=EDGE_CURVE('',#69,#70,#71,.T.);
#63=EDGE_CURVE('',#70,#72,#73,.T.);
#64=EDGE_CURVE('',#72,#74,#75,.T.);
#65=EDGE_CURVE('',#74,#76,#77,.T.);
#66=EDGE_CURVE('',#76,#78,#79,.T.);
#67=EDGE_CURVE('',#78,#80,#81,.T.);
#68=EDGE_CURVE('',#80,#69,#82,.T.);
#69=VERTEX_POINT('',#83);
#70=VERTEX_POINT('',#84);
#71=LINE('',#85,#86);
#72=VERTEX_POINT('',#87);
#73=CIRCLE('',#88,3.96425520252901);
#74=VERTEX_POINT('',#89);
#75=LINE('',#90,#91);
#76=VERTEX_POINT('',#92);
#77=CIRCLE('',#93,3.96175171079297);
#78=VERTEX_POINT('',#94);
#79=LINE('',#95,#96);
#80=VERTEX_POINT('',#97);
#81=LINE('',#98,#99);
#82=LINE('',#100,#101);
#83=CARTESIAN_POINT('',(7.51289326217375E-06,0.0200123842805624,0.000711702276021242));
#84=CARTESIAN_POINT('',(-2.84772886516294E-06,-0.00014810313587077,-0.000253464851994067));
#85=CARTESIAN_POINT('',(2.33258219850541E-06,0.00993214057234582,0.000229118712013587));
#86=VECTOR('',#102,1.0);
#87=CARTESIAN_POINT('',(0.988769054412842,-0.000875770405400544,-0.152611941099167));
#88=AXIS2_PLACEMENT_3D('',#103,#104,#105);
#89=CARTESIAN_POINT('',(0.988787233829498,0.100012518465519,-0.152569606900215));
#90=CARTESIAN_POINT('',(0.988793134689331,0.0495683740300592,-0.15252260863781));
#91=VECTOR('',#106,1.0);
#92=CARTESIAN_POINT('',(-7.61142973715323E-06,0.100690931081772,-0.000579453189857304));
#93=AXIS2_PLACEMENT_3D('',#107,#108,#109);
#94=CARTESIAN_POINT('',(-2.40258771100343E-07,0.0906144753098488,-2.121409670508E-05));
#95=CARTESIAN_POINT('',(-3.92584425412679E-06,0.0956527031958103,-0.000300333643281192));
#96=VECTOR('',#110,1.0);
#97=CARTESIAN_POINT('',(3.49251204170287E-05,0.0402308702468872,0.00274576176889241));
#98=CARTESIAN_POINT('',(1.73424308229642E-05,0.065422672778368,0.00136227383609366));
#99=VECTOR('',#111,1.0);
#100=CARTESIAN_POINT('',(2.12190068396012E-05,0.0301216272637248,0.00172873202245682));
#101=VECTOR('',#112,1.0);
#102=DIRECTION('',(-0.000513319344177775,-0.998855865190025,-0.0478194215642267));
#103=CARTESIAN_POINT('',(-0.103246145819973,0.0736412072038972,-3.96267556158565));
#104=DIRECTION('',(0.0032137694750226,0.999820828274763,0.0186543033567927));
#105=DIRECTION('',(1.12505397758303E-20,-0.0186543996912924,0.999825991546608));
#106=DIRECTION('',(0.000228847586286462,0.999999866299462,0.000463713101855136));
#107=CARTESIAN_POINT('',(-0.102621106885349,0.0226374918449806,-3.96025477650449));
#108=DIRECTION('',(0.0028200969315681,-0.999802792954004,0.0196576258655338));
#109=DIRECTION('',(0.0,-0.0196577040340255,-0.999806768666881));
#110=DIRECTION('',(0.000730403958545837,-0.998468658211808,0.0553155048677103));
#111=DIRECTION('',(0.000696902521708923,-0.998495156818588,0.0548355371697918));
#112=DIRECTION('',(-0.00134999716655588,-0.994972724939845,-0.100137176580075));
ENDSEC;
END-ISO-10303-21;
