ISO-10303-21;
HEADER;
FILE_DESCRIPTION(('STEP AP214'),'1');
FILE_NAME('SMAStripDeformed_18.stp','2026-05-05T08:47:41',(' '),(' '),'Spatial InterOp 3D',' ',' ');
FILE_SCHEMA(('AUTOMOTIVE_DESIGN { 1 0 10303 214 1 1 1 1 }'));
ENDSEC;
DATA;
#1=PRODUCT_DEFINITION_CONTEXT('',#9,'design');
#2=APPLICATION_PROTOCOL_DEFINITION('INTERNATIONAL STANDARD','automotive_design',1994,#9);
#3=PRODUCT_CATEGORY_RELATIONSHIP('NONE','NONE',#10,#11);
#4=SHAPE_DEFINITION_REPRESENTATION(#12,#13);
#5= (GEOMETRIC_REPRESENTATION_CONTEXT(3)GLOBAL_UNCERTAINTY_ASSIGNED_CONTEXT((#16))GLOBAL_UNIT_ASSIGNED_CONTEXT((#18,#19,#20))REPRESENTATION_CONTEXT('NONE','WORKSPACE'));
#9=APPLICATION_CONTEXT(' ');
#10=PRODUCT_CATEGORY('part','NONE');
#11=PRODUCT_RELATED_PRODUCT_CATEGORY('detail',' ',(#22));
#12=PRODUCT_DEFINITION_SHAPE('NONE','NONE',#23);
#13=MANIFOLD_SURFACE_SHAPE_REPRESENTATION('1',(#24,#25),#5);
#16=UNCERTAINTY_MEASURE_WITH_UNIT(LENGTH_MEASURE(1.0E-06),#18,'','');
#18= (CONVERSION_BASED_UNIT('MILLIMETRE',#28)LENGTH_UNIT()NAMED_UNIT(#31));
#19= (NAMED_UNIT(#33)PLANE_ANGLE_UNIT()SI_UNIT($,.RADIAN.));
#20= (NAMED_UNIT(#33)SOLID_ANGLE_UNIT()SI_UNIT($,.STERADIAN.));
#22=PRODUCT('1','','PART--DESC',(#39));
#23=PRODUCT_DEFINITION('','NONE',#40,#1);
#24=SHELL_BASED_SURFACE_MODEL('1',(#41));
#25=AXIS2_PLACEMENT_3D('',#42,#43,#44);
#28=LENGTH_MEASURE_WITH_UNIT(LENGTH_MEASURE(1.0),#45);
#31=DIMENSIONAL_EXPONENTS(1.0,0.0,0.0,0.0,0.0,0.0,0.0);
#33=DIMENSIONAL_EXPONENTS(0.0,0.0,0.0,0.0,0.0,0.0,0.0);
#39=PRODUCT_CONTEXT('',#9,'mechanical');
#40=PRODUCT_DEFINITION_FORMATION_WITH_SPECIFIED_SOURCE(' ','NONE',#22,.NOT_KNOWN.);
#41=CLOSED_SHELL('',(#46));
#42=CARTESIAN_POINT('',(0.0,0.0,0.0));
#43=DIRECTION('',(0.0,0.0,1.0));
#44=DIRECTION('',(1.0,0.0,0.0));
#45= (NAMED_UNIT(#31)LENGTH_UNIT()SI_UNIT(.MILLI.,.METRE.));
#46=FACE_SURFACE('',(#48),#49,.F.);
#48=FACE_BOUND('',#50,.T.);
#49=CYLINDRICAL_SURFACE('',#51,0.0651501423807962);
#50=EDGE_LOOP('',(#52,#53,#54,#55,#56,#57,#58));
#51=AXIS2_PLACEMENT_3D('',#59,#60,#61);
#52=ORIENTED_EDGE('',*,*,#62,.T.);
#53=ORIENTED_EDGE('',*,*,#63,.T.);
#54=ORIENTED_EDGE('',*,*,#64,.T.);
#55=ORIENTED_EDGE('',*,*,#65,.T.);
#56=ORIENTED_EDGE('',*,*,#66,.T.);
#57=ORIENTED_EDGE('',*,*,#67,.T.);
#58=ORIENTED_EDGE('',*,*,#68,.T.);
#59=CARTESIAN_POINT('',(0.0105267817606685,0.0495464600507053,0.0604733734552021));
#60=DIRECTION('',(0.985042039035459,0.00102757547769591,-0.172311129708741));
#61=DIRECTION('',(0.00104317874553545,-0.999999455888904,0.0));
#62=EDGE_CURVE('',#69,#70,#71,.T.);
#63=EDGE_CURVE('',#70,#72,#73,.T.);
#64=EDGE_CURVE('',#72,#74,#75,.T.);
#65=EDGE_CURVE('',#74,#76,#77,.T.);
#66=EDGE_CURVE('',#76,#78,#79,.T.);
#67=EDGE_CURVE('',#78,#80,#81,.T.);
#68=EDGE_CURVE('',#80,#69,#82,.T.);
#69=VERTEX_POINT('',#83);
#70=VERTEX_POINT('',#84);
#71=LINE('',#85,#86);
#72=VERTEX_POINT('',#87);
#73=LINE('',#88,#89);
#74=VERTEX_POINT('',#90);
#75=LINE('',#91,#92);
#76=VERTEX_POINT('',#93);
#77=LINE('',#94,#95);
#78=VERTEX_POINT('',#96);
#79=CIRCLE('',#97,3.86027506845355);
#80=VERTEX_POINT('',#98);
#81=LINE('',#99,#100);
#82=CIRCLE('',#101,3.84558836021303);
#83=CARTESIAN_POINT('',(-1.5576009900542E-05,0.101377241313457,-0.000754615175537765));
#84=CARTESIAN_POINT('',(-4.66670235255151E-06,0.0911687463521957,-0.000133199369884096));
#85=CARTESIAN_POINT('',(-1.01213561265467E-05,0.0962729938328266,-0.000443907272710931));
#86=VECTOR('',#102,1.0);
#87=CARTESIAN_POINT('',(2.53262005571742E-05,0.0605463720858097,0.00178083602804691));
#88=CARTESIAN_POINT('',(1.03297491023113E-05,0.0758575592190027,0.000823818329081405));
#89=VECTOR('',#103,0.999999999999999);
#90=CARTESIAN_POINT('',(2.03373729164014E-05,0.0504294633865356,0.0014865305274725));
#91=CARTESIAN_POINT('',(2.28317867367878E-05,0.0554879177361727,0.0016336832777597));
#92=VECTOR('',#104,1.0);
#93=CARTESIAN_POINT('',(-1.54556494180724E-06,-0.000160197378136218,0.000220019981497899));
#94=CARTESIAN_POINT('',(9.39590398729706E-06,0.0251346330041997,0.000853275254485197));
#95=VECTOR('',#105,1.0);
#96=CARTESIAN_POINT('',(0.986767172813416,-0.00163520022761077,-0.171200931072235));
#97=AXIS2_PLACEMENT_3D('',#106,#107,#108);
#98=CARTESIAN_POINT('',(0.986781120300293,0.100012846291065,-0.171162515878677));
#99=CARTESIAN_POINT('',(0.986787289381027,0.0491888230317272,-0.171119600534439));
#100=VECTOR('',#109,1.0);
#101=AXIS2_PLACEMENT_3D('',#110,#111,#112);
#102=DIRECTION('',(0.00106667490521331,-0.998151839360348,0.0607599192412334));
#103=DIRECTION('',(0.000977535923215363,-0.998051823637815,0.0623827039871674));
#104=DIRECTION('',(-0.00049290920899007,-0.999577019584399,-0.0290781526112391));
#105=DIRECTION('',(-0.000432421967402389,-0.999686678971568,-0.0250271232473731));
#106=CARTESIAN_POINT('',(-0.158437281567324,0.136286900268281,-3.85501333254868));
#107=DIRECTION('',(0.00685787718970392,0.999352831251008,0.0353113040122496));
#108=DIRECTION('',(-4.93084885212019E-20,-0.0353121343953203,0.9993763321014));
#109=DIRECTION('',(0.000148117768485776,0.999999922480137,0.000364829886980188));
#110=CARTESIAN_POINT('',(-0.155214378045135,-0.0375941279581667,-3.840721114289));
#111=DIRECTION('',(0.00572080311536348,-0.999336670128877,0.0359651518479138));
#112=DIRECTION('',(-4.12899584088091E-20,-0.0359657403887011,-0.999353023469831));
ENDSEC;
END-ISO-10303-21;
