ISO-10303-21;
HEADER;
FILE_DESCRIPTION(('STEP AP214'),'1');
FILE_NAME('SMAStripDeformed_13.stp','2026-05-05T08:37:26',(' '),(' '),'Spatial InterOp 3D',' ',' ');
FILE_SCHEMA(('AUTOMOTIVE_DESIGN { 1 0 10303 214 1 1 1 1 }'));
ENDSEC;
DATA;
#1=PRODUCT_DEFINITION_CONTEXT('',#9,'design');
#2=APPLICATION_PROTOCOL_DEFINITION('INTERNATIONAL STANDARD','automotive_design',1994,#9);
#3=PRODUCT_CATEGORY_RELATIONSHIP('NONE','NONE',#10,#11);
#4=SHAPE_DEFINITION_REPRESENTATION(#12,#13);
#5= (GEOMETRIC_REPRESENTATION_CONTEXT(3)GLOBAL_UNCERTAINTY_ASSIGNED_CONTEXT((#16))GLOBAL_UNIT_ASSIGNED_CONTEXT((#18,#19,#20))REPRESENTATION_CONTEXT('NONE','WORKSPACE'));
#9=APPLICATION_CONTEXT(' ');
#10=PRODUCT_CATEGORY('part','NONE');
#11=PRODUCT_RELATED_PRODUCT_CATEGORY('detail',' ',(#22));
#12=PRODUCT_DEFINITION_SHAPE('NONE','NONE',#23);
#13=MANIFOLD_SURFACE_SHAPE_REPRESENTATION('1',(#24,#25),#5);
#16=UNCERTAINTY_MEASURE_WITH_UNIT(LENGTH_MEASURE(1.0E-06),#18,'','');
#18= (CONVERSION_BASED_UNIT('MILLIMETRE',#28)LENGTH_UNIT()NAMED_UNIT(#31));
#19= (NAMED_UNIT(#33)PLANE_ANGLE_UNIT()SI_UNIT($,.RADIAN.));
#20= (NAMED_UNIT(#33)SOLID_ANGLE_UNIT()SI_UNIT($,.STERADIAN.));
#22=PRODUCT('1','','PART--DESC',(#39));
#23=PRODUCT_DEFINITION('','NONE',#40,#1);
#24=SHELL_BASED_SURFACE_MODEL('1',(#41));
#25=AXIS2_PLACEMENT_3D('',#42,#43,#44);
#28=LENGTH_MEASURE_WITH_UNIT(LENGTH_MEASURE(1.0),#45);
#31=DIMENSIONAL_EXPONENTS(1.0,0.0,0.0,0.0,0.0,0.0,0.0);
#33=DIMENSIONAL_EXPONENTS(0.0,0.0,0.0,0.0,0.0,0.0,0.0);
#39=PRODUCT_CONTEXT('',#9,'mechanical');
#40=PRODUCT_DEFINITION_FORMATION_WITH_SPECIFIED_SOURCE(' ','NONE',#22,.NOT_KNOWN.);
#41=CLOSED_SHELL('',(#46));
#42=CARTESIAN_POINT('',(0.0,0.0,0.0));
#43=DIRECTION('',(0.0,0.0,1.0));
#44=DIRECTION('',(1.0,0.0,0.0));
#45= (NAMED_UNIT(#31)LENGTH_UNIT()SI_UNIT(.MILLI.,.METRE.));
#46=FACE_SURFACE('',(#48),#49,.F.);
#48=FACE_BOUND('',#50,.T.);
#49=CYLINDRICAL_SURFACE('',#51,0.0667261192335603);
#50=EDGE_LOOP('',(#52,#53,#54,#55,#56,#57,#58));
#51=AXIS2_PLACEMENT_3D('',#59,#60,#61);
#52=ORIENTED_EDGE('',*,*,#62,.T.);
#53=ORIENTED_EDGE('',*,*,#63,.T.);
#54=ORIENTED_EDGE('',*,*,#64,.T.);
#55=ORIENTED_EDGE('',*,*,#65,.T.);
#56=ORIENTED_EDGE('',*,*,#66,.T.);
#57=ORIENTED_EDGE('',*,*,#67,.T.);
#58=ORIENTED_EDGE('',*,*,#68,.T.);
#59=CARTESIAN_POINT('',(0.0102052938587255,0.0504123395396353,0.0631292598608745));
#60=DIRECTION('',(0.987280603775853,-0.000770575132518793,-0.158985583063222));
#61=DIRECTION('',(-0.000780502417307364,-0.999999695407942,0.0));
#62=EDGE_CURVE('',#69,#70,#71,.T.);
#63=EDGE_CURVE('',#70,#72,#73,.T.);
#64=EDGE_CURVE('',#72,#74,#75,.T.);
#65=EDGE_CURVE('',#74,#76,#77,.T.);
#66=EDGE_CURVE('',#76,#78,#79,.T.);
#67=EDGE_CURVE('',#78,#80,#81,.T.);
#68=EDGE_CURVE('',#80,#69,#82,.T.);
#69=VERTEX_POINT('',#83);
#70=VERTEX_POINT('',#84);
#71=CIRCLE('',#85,3.91569681356253);
#72=VERTEX_POINT('',#86);
#73=LINE('',#87,#88);
#74=VERTEX_POINT('',#89);
#75=LINE('',#90,#91);
#76=VERTEX_POINT('',#92);
#77=LINE('',#93,#94);
#78=VERTEX_POINT('',#95);
#79=LINE('',#96,#97);
#80=VERTEX_POINT('',#98);
#81=CIRCLE('',#99,3.92045400607619);
#82=LINE('',#100,#101);
#83=CARTESIAN_POINT('',(0.988123714923859,0.100017078220844,-0.158626809716225));
#84=CARTESIAN_POINT('',(-9.10300332179759E-06,0.100870825350285,-0.000618525024037808));
#85=AXIS2_PLACEMENT_3D('',#102,#103,#104);
#86=CARTESIAN_POINT('',(-3.54189808149385E-07,0.0907627046108246,-2.95628669846337E-05));
#87=CARTESIAN_POINT('',(-4.72859656497349E-06,0.0958167649805546,-0.000324043945511221));
#88=VECTOR('',#105,1.0);
#89=CARTESIAN_POINT('',(2.40992139879381E-05,0.0604366101324558,0.00170694128610194));
#90=CARTESIAN_POINT('',(1.18725120898944E-05,0.0755996573716402,0.000838689209558652));
#91=VECTOR('',#106,0.999999999999999);
#92=CARTESIAN_POINT('',(2.76762020803289E-05,0.0402043052017689,0.00214019953273237));
#93=CARTESIAN_POINT('',(2.66663437287207E-05,0.0503204576671124,0.00195892713963985));
#94=VECTOR('',#107,0.999999999999999);
#95=CARTESIAN_POINT('',(-3.38951053890924E-06,-0.000148519204230979,-0.000246422830969095));
#96=CARTESIAN_POINT('',(1.21433457707099E-05,0.0200278929987689,0.000946888350881636));
#97=VECTOR('',#108,1.0);
#98=CARTESIAN_POINT('',(0.98811286687851,-0.00106909999158233,-0.158663213253021));
#99=AXIS2_PLACEMENT_3D('',#109,#110,#111);
#100=CARTESIAN_POINT('',(0.988135188817978,0.049473989114631,-0.158575832843781));
#101=VECTOR('',#112,1.0);
#102=CARTESIAN_POINT('',(-0.119040999549967,0.00609826754341733,-3.91337505128208));
#103=DIRECTION('',(0.00360391861004717,-0.999702357848666,0.0241289759929912));
#104=DIRECTION('',(1.27728014011802E-20,-0.0241291326908547,-0.99970885009366));
#105=DIRECTION('',(0.000864057451832567,-0.998306460107834,0.0581675606475433));
#106=DIRECTION('',(0.000805029599749558,-0.998364282916868,0.0571673903832516));
#107=DIRECTION('',(0.000176888777881512,-0.99916781433699,0.0407878352380099));
#108=DIRECTION('',(-0.000768509076855005,-0.998255281468487,-0.0590406843970321));
#109=CARTESIAN_POINT('',(-0.120132255363652,0.0909480111116613,-3.91800241715169));
#110=DIRECTION('',(0.00416074998724682,0.999720587805261,0.0232687446555752));
#111=DIRECTION('',(-1.47283976179508E-20,-0.0232689460705879,0.999729241419278));
#112=DIRECTION('',(0.00015907155064737,0.999999919108954,0.000369429731368533));
ENDSEC;
END-ISO-10303-21;
