ISO-10303-21;
HEADER;
FILE_DESCRIPTION(('STEP AP214'),'1');
FILE_NAME('SMAStripDeformed_17.stp','2026-05-05T08:39:32',(' '),(' '),'Spatial InterOp 3D',' ',' ');
FILE_SCHEMA(('AUTOMOTIVE_DESIGN { 1 0 10303 214 1 1 1 1 }'));
ENDSEC;
DATA;
#1=PRODUCT_DEFINITION_CONTEXT('',#9,'design');
#2=APPLICATION_PROTOCOL_DEFINITION('INTERNATIONAL STANDARD','automotive_design',1994,#9);
#3=PRODUCT_CATEGORY_RELATIONSHIP('NONE','NONE',#10,#11);
#4=SHAPE_DEFINITION_REPRESENTATION(#12,#13);
#5= (GEOMETRIC_REPRESENTATION_CONTEXT(3)GLOBAL_UNCERTAINTY_ASSIGNED_CONTEXT((#16))GLOBAL_UNIT_ASSIGNED_CONTEXT((#18,#19,#20))REPRESENTATION_CONTEXT('NONE','WORKSPACE'));
#9=APPLICATION_CONTEXT(' ');
#10=PRODUCT_CATEGORY('part','NONE');
#11=PRODUCT_RELATED_PRODUCT_CATEGORY('detail',' ',(#22));
#12=PRODUCT_DEFINITION_SHAPE('NONE','NONE',#23);
#13=MANIFOLD_SURFACE_SHAPE_REPRESENTATION('1',(#24,#25),#5);
#16=UNCERTAINTY_MEASURE_WITH_UNIT(LENGTH_MEASURE(1.0E-06),#18,'','');
#18= (CONVERSION_BASED_UNIT('MILLIMETRE',#28)LENGTH_UNIT()NAMED_UNIT(#31));
#19= (NAMED_UNIT(#33)PLANE_ANGLE_UNIT()SI_UNIT($,.RADIAN.));
#20= (NAMED_UNIT(#33)SOLID_ANGLE_UNIT()SI_UNIT($,.STERADIAN.));
#22=PRODUCT('1','','PART--DESC',(#39));
#23=PRODUCT_DEFINITION('','NONE',#40,#1);
#24=SHELL_BASED_SURFACE_MODEL('1',(#41));
#25=AXIS2_PLACEMENT_3D('',#42,#43,#44);
#28=LENGTH_MEASURE_WITH_UNIT(LENGTH_MEASURE(1.0),#45);
#31=DIMENSIONAL_EXPONENTS(1.0,0.0,0.0,0.0,0.0,0.0,0.0);
#33=DIMENSIONAL_EXPONENTS(0.0,0.0,0.0,0.0,0.0,0.0,0.0);
#39=PRODUCT_CONTEXT('',#9,'mechanical');
#40=PRODUCT_DEFINITION_FORMATION_WITH_SPECIFIED_SOURCE(' ','NONE',#22,.NOT_KNOWN.);
#41=CLOSED_SHELL('',(#46));
#42=CARTESIAN_POINT('',(0.0,0.0,0.0));
#43=DIRECTION('',(0.0,0.0,1.0));
#44=DIRECTION('',(1.0,0.0,0.0));
#45= (NAMED_UNIT(#31)LENGTH_UNIT()SI_UNIT(.MILLI.,.METRE.));
#46=FACE_SURFACE('',(#48),#49,.F.);
#48=FACE_BOUND('',#50,.T.);
#49=CONICAL_SURFACE('',#51,0.0635228926006558,0.00359441191794664);
#50=EDGE_LOOP('',(#52,#53,#54,#55,#56));
#51=AXIS2_PLACEMENT_3D('',#57,#58,#59);
#52=ORIENTED_EDGE('',*,*,#60,.T.);
#53=ORIENTED_EDGE('',*,*,#61,.T.);
#54=ORIENTED_EDGE('',*,*,#62,.T.);
#55=ORIENTED_EDGE('',*,*,#63,.T.);
#56=ORIENTED_EDGE('',*,*,#64,.T.);
#57=CARTESIAN_POINT('',(0.0112318412371895,0.0503921738170876,0.0580320715851051));
#58=DIRECTION('',(0.986424559563673,-0.000620827516706966,-0.164213893635124));
#59=DIRECTION('',(-0.000629371387533261,-0.999999801945809,1.7517411139357E-20));
#60=EDGE_CURVE('',#65,#66,#67,.T.);
#61=EDGE_CURVE('',#66,#68,#69,.T.);
#62=EDGE_CURVE('',#68,#70,#71,.T.);
#63=EDGE_CURVE('',#70,#72,#73,.T.);
#64=EDGE_CURVE('',#72,#65,#74,.T.);
#65=VERTEX_POINT('',#75);
#66=VERTEX_POINT('',#76);
#67=LINE('',#77,#78);
#68=VERTEX_POINT('',#79);
#69=CIRCLE('',#80,3.85794103710547);
#70=VERTEX_POINT('',#81);
#71=LINE('',#82,#83);
#72=VERTEX_POINT('',#84);
#73=LINE('',#85,#86);
#74=CIRCLE('',#87,3.86906519583138);
#75=CARTESIAN_POINT('',(0.987024247646332,-0.00153649062849581,-0.168831422924995));
#76=CARTESIAN_POINT('',(0.987041532993317,0.0999960601329803,-0.168796584010124));
#77=CARTESIAN_POINT('',(0.987047046422958,0.0492297847522423,-0.168746680021286));
#78=VECTOR('',#88,1.0);
#79=CARTESIAN_POINT('',(-1.39453295560088E-05,0.101271353662014,-0.000723403529264033));
#80=AXIS2_PLACEMENT_3D('',#89,#90,#91);
#81=CARTESIAN_POINT('',(2.47124044108205E-05,0.0605438016355038,0.00173974258359522));
#82=CARTESIAN_POINT('',(5.38353742740583E-06,0.0809075776487589,0.000508169527165592));
#83=VECTOR('',#92,1.0);
#84=CARTESIAN_POINT('',(-1.54556494180724E-06,-0.000160197378136218,0.000220019981497899));
#85=CARTESIAN_POINT('',(1.15834197345066E-05,0.0301918021286838,0.000979881282546557));
#86=VECTOR('',#93,1.0);
#87=AXIS2_PLACEMENT_3D('',#94,#95,#96);
#88=DIRECTION('',(0.00014992561217725,0.999999964423992,0.00022062258771946));
#89=CARTESIAN_POINT('',(-0.148433138713171,-0.029875961405714,-3.85360471217874));
#90=DIRECTION('',(0.00531115976461526,-0.999413085315924,0.0338419337695243));
#91=DIRECTION('',(0.0,0.0338424110933303,0.999427181545204));
#92=DIRECTION('',(0.000977535914816211,-0.998051823616383,0.062382704330185));
#93=DIRECTION('',(-0.000432421960865741,-0.999686678985603,-0.0250271226868831));
#94=CARTESIAN_POINT('',(-0.150865870124318,0.127759900049093,-3.86443562628357));
#95=DIRECTION('',(0.0063367562724078,0.999433890191318,0.03304155954237));
#96=DIRECTION('',(-4.54580910309092E-20,-0.0330422229456708,0.999453956669745));
ENDSEC;
END-ISO-10303-21;
