ISO-10303-21;
HEADER;
FILE_DESCRIPTION(('STEP AP214'),'1');
FILE_NAME('SMAStripDeformed_10.stp','2026-05-05T08:35:46',(' '),(' '),'Spatial InterOp 3D',' ',' ');
FILE_SCHEMA(('AUTOMOTIVE_DESIGN { 1 0 10303 214 1 1 1 1 }'));
ENDSEC;
DATA;
#1=PRODUCT_DEFINITION_CONTEXT('',#9,'design');
#2=APPLICATION_PROTOCOL_DEFINITION('INTERNATIONAL STANDARD','automotive_design',1994,#9);
#3=PRODUCT_CATEGORY_RELATIONSHIP('NONE','NONE',#10,#11);
#4=SHAPE_DEFINITION_REPRESENTATION(#12,#13);
#5= (GEOMETRIC_REPRESENTATION_CONTEXT(3)GLOBAL_UNCERTAINTY_ASSIGNED_CONTEXT((#16))GLOBAL_UNIT_ASSIGNED_CONTEXT((#18,#19,#20))REPRESENTATION_CONTEXT('NONE','WORKSPACE'));
#9=APPLICATION_CONTEXT(' ');
#10=PRODUCT_CATEGORY('part','NONE');
#11=PRODUCT_RELATED_PRODUCT_CATEGORY('detail',' ',(#22));
#12=PRODUCT_DEFINITION_SHAPE('NONE','NONE',#23);
#13=MANIFOLD_SURFACE_SHAPE_REPRESENTATION('1',(#24,#25),#5);
#16=UNCERTAINTY_MEASURE_WITH_UNIT(LENGTH_MEASURE(1.0E-06),#18,'','');
#18= (CONVERSION_BASED_UNIT('MILLIMETRE',#28)LENGTH_UNIT()NAMED_UNIT(#31));
#19= (NAMED_UNIT(#33)PLANE_ANGLE_UNIT()SI_UNIT($,.RADIAN.));
#20= (NAMED_UNIT(#33)SOLID_ANGLE_UNIT()SI_UNIT($,.STERADIAN.));
#22=PRODUCT('1','','PART--DESC',(#39));
#23=PRODUCT_DEFINITION('','NONE',#40,#1);
#24=SHELL_BASED_SURFACE_MODEL('1',(#41));
#25=AXIS2_PLACEMENT_3D('',#42,#43,#44);
#28=LENGTH_MEASURE_WITH_UNIT(LENGTH_MEASURE(1.0),#45);
#31=DIMENSIONAL_EXPONENTS(1.0,0.0,0.0,0.0,0.0,0.0,0.0);
#33=DIMENSIONAL_EXPONENTS(0.0,0.0,0.0,0.0,0.0,0.0,0.0);
#39=PRODUCT_CONTEXT('',#9,'mechanical');
#40=PRODUCT_DEFINITION_FORMATION_WITH_SPECIFIED_SOURCE(' ','NONE',#22,.NOT_KNOWN.);
#41=CLOSED_SHELL('',(#46));
#42=CARTESIAN_POINT('',(0.0,0.0,0.0));
#43=DIRECTION('',(0.0,0.0,1.0));
#44=DIRECTION('',(1.0,0.0,0.0));
#45= (NAMED_UNIT(#31)LENGTH_UNIT()SI_UNIT(.MILLI.,.METRE.));
#46=FACE_SURFACE('',(#48),#49,.F.);
#48=FACE_BOUND('',#50,.T.);
#49=CYLINDRICAL_SURFACE('',#51,0.0689659586050547);
#50=EDGE_LOOP('',(#52,#53,#54,#55,#56,#57));
#51=AXIS2_PLACEMENT_3D('',#58,#59,#60);
#52=ORIENTED_EDGE('',*,*,#61,.T.);
#53=ORIENTED_EDGE('',*,*,#62,.T.);
#54=ORIENTED_EDGE('',*,*,#63,.T.);
#55=ORIENTED_EDGE('',*,*,#64,.T.);
#56=ORIENTED_EDGE('',*,*,#65,.T.);
#57=ORIENTED_EDGE('',*,*,#66,.T.);
#58=CARTESIAN_POINT('',(0.010207206713046,0.0507723319890252,0.0667441497352646));
#59=DIRECTION('',(0.988696253317058,-0.00168096961168572,-0.149922956941148));
#60=DIRECTION('',(-0.00170018565005452,-0.999998554683333,2.9461418159917E-20));
#61=EDGE_CURVE('',#67,#68,#69,.T.);
#62=EDGE_CURVE('',#68,#70,#71,.T.);
#63=EDGE_CURVE('',#70,#72,#73,.T.);
#64=EDGE_CURVE('',#72,#74,#75,.T.);
#65=EDGE_CURVE('',#74,#76,#77,.T.);
#66=EDGE_CURVE('',#76,#67,#78,.T.);
#67=VERTEX_POINT('',#79);
#68=VERTEX_POINT('',#80);
#69=LINE('',#81,#82);
#70=VERTEX_POINT('',#83);
#71=CIRCLE('',#84,3.9934655709186);
#72=VERTEX_POINT('',#85);
#73=LINE('',#86,#87);
#74=VERTEX_POINT('',#88);
#75=CIRCLE('',#89,3.99160181863094);
#76=VERTEX_POINT('',#90);
#77=LINE('',#91,#92);
#78=LINE('',#93,#94);
#79=CARTESIAN_POINT('',(1.26737459140713E-05,0.0300547629594803,0.0011924731079489));
#80=CARTESIAN_POINT('',(-2.84772886516294E-06,-0.00014810313587077,-0.000253464851994067));
#81=CARTESIAN_POINT('',(4.9130085244542E-06,0.0149533299118048,0.000469504127977416));
#82=VECTOR('',#95,1.0);
#83=CARTESIAN_POINT('',(0.989110052585602,-0.000740303192287683,-0.149433985352516));
#84=AXIS2_PLACEMENT_3D('',#96,#97,#98);
#85=CARTESIAN_POINT('',(0.989135205745697,0.100037351250648,-0.149350002408028));
#86=CARTESIAN_POINT('',(0.989136666059494,0.0496485240291804,-0.149327665567398));
#87=VECTOR('',#99,1.0);
#88=CARTESIAN_POINT('',(-7.21378137313877E-06,0.100605867803097,-0.000569923315197229));
#89=AXIS2_PLACEMENT_3D('',#100,#101,#102);
#90=CARTESIAN_POINT('',(-1.76995143874592E-07,0.0905238315463066,-1.62362193805166E-05));
#91=CARTESIAN_POINT('',(-3.69538825850668E-06,0.0955648496747017,-0.000293079767288873));
#92=VECTOR('',#103,1.0);
#93=CARTESIAN_POINT('',(9.7221790298363E-06,0.0602892972528934,0.000995274513115874));
#94=VECTOR('',#104,1.0);
#95=DIRECTION('',(-0.000513319360452004,-0.998855865157668,-0.0478194222399296));
#96=CARTESIAN_POINT('',(-0.0951100596631949,0.0643044272488996,-3.99226618104497));
#97=DIRECTION('',(0.00271299416796653,0.999865333810282,0.0161849901791134));
#98=DIRECTION('',(9.42799098133131E-21,-0.0161850497429361,0.999869013503678));
#99=DIRECTION('',(0.000282632781384035,0.999999672804868,0.000757963632700448));
#100=CARTESIAN_POINT('',(-0.0945662534889775,0.0322842696500191,-3.99047472387498));
#101=DIRECTION('',(0.0024210139706748,-0.999851108859695,0.0170850461922506));
#102=DIRECTION('',(-8.41725194330705E-21,-0.0170850962628352,-0.999854039090551));
#103=DIRECTION('',(0.000696902569100222,-0.998495156766096,0.0548355381250024));
#104=DIRECTION('',(0.000252164944642291,-0.999712191640223,0.023988962018874));
ENDSEC;
END-ISO-10303-21;
