ISO-10303-21;
HEADER;
FILE_DESCRIPTION(('STEP AP214'),'1');
FILE_NAME('SMAStripDeformed_09.stp','2026-05-05T08:35:14',(' '),(' '),'Spatial InterOp 3D',' ',' ');
FILE_SCHEMA(('AUTOMOTIVE_DESIGN { 1 0 10303 214 1 1 1 1 }'));
ENDSEC;
DATA;
#1=PRODUCT_DEFINITION_CONTEXT('',#9,'design');
#2=APPLICATION_PROTOCOL_DEFINITION('INTERNATIONAL STANDARD','automotive_design',1994,#9);
#3=PRODUCT_CATEGORY_RELATIONSHIP('NONE','NONE',#10,#11);
#4=SHAPE_DEFINITION_REPRESENTATION(#12,#13);
#5= (GEOMETRIC_REPRESENTATION_CONTEXT(3)GLOBAL_UNCERTAINTY_ASSIGNED_CONTEXT((#16))GLOBAL_UNIT_ASSIGNED_CONTEXT((#18,#19,#20))REPRESENTATION_CONTEXT('NONE','WORKSPACE'));
#9=APPLICATION_CONTEXT(' ');
#10=PRODUCT_CATEGORY('part','NONE');
#11=PRODUCT_RELATED_PRODUCT_CATEGORY('detail',' ',(#22));
#12=PRODUCT_DEFINITION_SHAPE('NONE','NONE',#23);
#13=MANIFOLD_SURFACE_SHAPE_REPRESENTATION('1',(#24,#25),#5);
#16=UNCERTAINTY_MEASURE_WITH_UNIT(LENGTH_MEASURE(1.0E-06),#18,'','');
#18= (CONVERSION_BASED_UNIT('MILLIMETRE',#28)LENGTH_UNIT()NAMED_UNIT(#31));
#19= (NAMED_UNIT(#33)PLANE_ANGLE_UNIT()SI_UNIT($,.RADIAN.));
#20= (NAMED_UNIT(#33)SOLID_ANGLE_UNIT()SI_UNIT($,.STERADIAN.));
#22=PRODUCT('1','','PART--DESC',(#39));
#23=PRODUCT_DEFINITION('','NONE',#40,#1);
#24=SHELL_BASED_SURFACE_MODEL('1',(#41));
#25=AXIS2_PLACEMENT_3D('',#42,#43,#44);
#28=LENGTH_MEASURE_WITH_UNIT(LENGTH_MEASURE(1.0),#45);
#31=DIMENSIONAL_EXPONENTS(1.0,0.0,0.0,0.0,0.0,0.0,0.0);
#33=DIMENSIONAL_EXPONENTS(0.0,0.0,0.0,0.0,0.0,0.0,0.0);
#39=PRODUCT_CONTEXT('',#9,'mechanical');
#40=PRODUCT_DEFINITION_FORMATION_WITH_SPECIFIED_SOURCE(' ','NONE',#22,.NOT_KNOWN.);
#41=CLOSED_SHELL('',(#46));
#42=CARTESIAN_POINT('',(0.0,0.0,0.0));
#43=DIRECTION('',(0.0,0.0,1.0));
#44=DIRECTION('',(1.0,0.0,0.0));
#45= (NAMED_UNIT(#31)LENGTH_UNIT()SI_UNIT(.MILLI.,.METRE.));
#46=FACE_SURFACE('',(#48),#49,.F.);
#48=FACE_BOUND('',#50,.T.);
#49=CYLINDRICAL_SURFACE('',#51,0.0699235078754047);
#50=EDGE_LOOP('',(#52,#53,#54,#55,#56,#57,#58));
#51=AXIS2_PLACEMENT_3D('',#59,#60,#61);
#52=ORIENTED_EDGE('',*,*,#62,.T.);
#53=ORIENTED_EDGE('',*,*,#63,.T.);
#54=ORIENTED_EDGE('',*,*,#64,.T.);
#55=ORIENTED_EDGE('',*,*,#65,.T.);
#56=ORIENTED_EDGE('',*,*,#66,.T.);
#57=ORIENTED_EDGE('',*,*,#67,.T.);
#58=ORIENTED_EDGE('',*,*,#68,.T.);
#59=CARTESIAN_POINT('',(0.0101201098032603,0.0496391163637584,0.0683470083334405));
#60=DIRECTION('',(0.989148634258716,0.000625328940276377,-0.146916943569598));
#61=DIRECTION('',(0.000632188928597799,-0.999999800168559,0.0));
#62=EDGE_CURVE('',#69,#70,#71,.T.);
#63=EDGE_CURVE('',#70,#72,#73,.T.);
#64=EDGE_CURVE('',#72,#74,#75,.T.);
#65=EDGE_CURVE('',#74,#76,#77,.T.);
#66=EDGE_CURVE('',#76,#78,#79,.T.);
#67=EDGE_CURVE('',#78,#80,#81,.T.);
#68=EDGE_CURVE('',#80,#69,#82,.T.);
#69=VERTEX_POINT('',#83);
#70=VERTEX_POINT('',#84);
#71=LINE('',#85,#86);
#72=VERTEX_POINT('',#87);
#73=LINE('',#88,#89);
#74=VERTEX_POINT('',#90);
#75=CIRCLE('',#91,0.114367099827163);
#76=VERTEX_POINT('',#92);
#77=LINE('',#93,#94);
#78=VERTEX_POINT('',#95);
#79=CIRCLE('',#96,4.02918429177645);
#80=VERTEX_POINT('',#97);
#81=LINE('',#98,#99);
#82=CIRCLE('',#100,4.02920271444911);
#83=CARTESIAN_POINT('',(-6.81714300299063E-06,0.100533440709114,-0.000557398016098887));
#84=CARTESIAN_POINT('',(-1.40690460170845E-07,0.0904691070318222,-1.32774439407513E-05));
#85=CARTESIAN_POINT('',(-3.47891673158074E-06,0.0955012738704681,-0.000285337730019819));
#86=VECTOR('',#101,1.0);
#87=CARTESIAN_POINT('',(1.78051468537888E-05,0.0602717623114586,0.00153428455814719));
#88=CARTESIAN_POINT('',(8.83222819680896E-06,0.0753704346716404,0.00076050355710322));
#89=VECTOR('',#102,1.0);
#90=CARTESIAN_POINT('',(1.78468490048544E-05,0.0401209816336632,0.00167438527569175));
#91=AXIS2_PLACEMENT_3D('',#103,#104,#105);
#92=CARTESIAN_POINT('',(-2.84772886516294E-06,-0.00014810313587077,-0.000253464851994067));
#93=CARTESIAN_POINT('',(7.49956006984576E-06,0.0199864392488962,0.00071046021184884));
#94=VECTOR('',#106,1.0);
#95=CARTESIAN_POINT('',(0.98948872089386,-0.000691459921654314,-0.145941063761711));
#96=AXIS2_PLACEMENT_3D('',#107,#108,#109);
#97=CARTESIAN_POINT('',(0.989509284496307,0.100005470216274,-0.145909130573273));
#98=CARTESIAN_POINT('',(0.989512771368027,0.04965700514731,-0.14585230499506));
#99=VECTOR('',#110,1.0);
#100=AXIS2_PLACEMENT_3D('',#111,#112,#113);
#101=DIRECTION('',(0.000662409970658415,-0.998541505854205,0.0539853896850562));
#102=DIRECTION('',(0.000593506269011041,-0.998689212165112,0.051181102521706));
#103=CARTESIAN_POINT('',(1.77119789018299E-05,0.0494039975701202,-0.11235755023325));
#104=DIRECTION('',(0.999999999833323,8.72118029323292E-06,-1.6040396951801E-05));
#105=DIRECTION('',(8.72118029435488E-06,-0.99999999996197,0.0));
#106=DIRECTION('',(-0.000513319352795641,-0.998855865077771,-0.0478194239089108));
#107=CARTESIAN_POINT('',(-0.0865550455242547,0.0565846868800227,-4.02829768778283));
#108=DIRECTION('',(0.00235105846520112,0.999897558153287,0.0141189844955922));
#109=DIRECTION('',(4.04889527768929E-21,-0.0141190235169273,0.999900321619575));
#110=DIRECTION('',(0.000275406877336065,0.999999908759857,0.000326544528799565));
#111=CARTESIAN_POINT('',(-0.08641543974233,0.0384784909004858,-4.02836687969968));
#112=DIRECTION('',(0.0020918501586306,-0.999879564619108,0.0153779198859047));
#113=DIRECTION('',(0.0,-0.0153779535316512,-0.999881752281328));
ENDSEC;
END-ISO-10303-21;
