ISO-10303-21;
HEADER;
FILE_DESCRIPTION(('STEP AP214'),'1');
FILE_NAME('SMAStripDeformed_06.stp','2026-05-05T08:33:36',(' '),(' '),'Spatial InterOp 3D',' ',' ');
FILE_SCHEMA(('AUTOMOTIVE_DESIGN { 1 0 10303 214 1 1 1 1 }'));
ENDSEC;
DATA;
#1=PRODUCT_DEFINITION_CONTEXT('',#9,'design');
#2=APPLICATION_PROTOCOL_DEFINITION('INTERNATIONAL STANDARD','automotive_design',1994,#9);
#3=PRODUCT_CATEGORY_RELATIONSHIP('NONE','NONE',#10,#11);
#4=SHAPE_DEFINITION_REPRESENTATION(#12,#13);
#5= (GEOMETRIC_REPRESENTATION_CONTEXT(3)GLOBAL_UNCERTAINTY_ASSIGNED_CONTEXT((#16))GLOBAL_UNIT_ASSIGNED_CONTEXT((#18,#19,#20))REPRESENTATION_CONTEXT('NONE','WORKSPACE'));
#9=APPLICATION_CONTEXT(' ');
#10=PRODUCT_CATEGORY('part','NONE');
#11=PRODUCT_RELATED_PRODUCT_CATEGORY('detail',' ',(#22));
#12=PRODUCT_DEFINITION_SHAPE('NONE','NONE',#23);
#13=MANIFOLD_SURFACE_SHAPE_REPRESENTATION('1',(#24,#25),#5);
#16=UNCERTAINTY_MEASURE_WITH_UNIT(LENGTH_MEASURE(1.0E-06),#18,'','');
#18= (CONVERSION_BASED_UNIT('MILLIMETRE',#28)LENGTH_UNIT()NAMED_UNIT(#31));
#19= (NAMED_UNIT(#33)PLANE_ANGLE_UNIT()SI_UNIT($,.RADIAN.));
#20= (NAMED_UNIT(#33)SOLID_ANGLE_UNIT()SI_UNIT($,.STERADIAN.));
#22=PRODUCT('1','','PART--DESC',(#39));
#23=PRODUCT_DEFINITION('','NONE',#40,#1);
#24=SHELL_BASED_SURFACE_MODEL('1',(#41));
#25=AXIS2_PLACEMENT_3D('',#42,#43,#44);
#28=LENGTH_MEASURE_WITH_UNIT(LENGTH_MEASURE(1.0),#45);
#31=DIMENSIONAL_EXPONENTS(1.0,0.0,0.0,0.0,0.0,0.0,0.0);
#33=DIMENSIONAL_EXPONENTS(0.0,0.0,0.0,0.0,0.0,0.0,0.0);
#39=PRODUCT_CONTEXT('',#9,'mechanical');
#40=PRODUCT_DEFINITION_FORMATION_WITH_SPECIFIED_SOURCE(' ','NONE',#22,.NOT_KNOWN.);
#41=CLOSED_SHELL('',(#46));
#42=CARTESIAN_POINT('',(0.0,0.0,0.0));
#43=DIRECTION('',(0.0,0.0,1.0));
#44=DIRECTION('',(1.0,0.0,0.0));
#45= (NAMED_UNIT(#31)LENGTH_UNIT()SI_UNIT(.MILLI.,.METRE.));
#46=FACE_SURFACE('',(#48),#49,.F.);
#48=FACE_BOUND('',#50,.T.);
#49=CYLINDRICAL_SURFACE('',#51,0.0738477898304029);
#50=EDGE_LOOP('',(#52,#53,#54,#55,#56,#57,#58));
#51=AXIS2_PLACEMENT_3D('',#59,#60,#61);
#52=ORIENTED_EDGE('',*,*,#62,.T.);
#53=ORIENTED_EDGE('',*,*,#63,.T.);
#54=ORIENTED_EDGE('',*,*,#64,.T.);
#55=ORIENTED_EDGE('',*,*,#65,.T.);
#56=ORIENTED_EDGE('',*,*,#66,.T.);
#57=ORIENTED_EDGE('',*,*,#67,.T.);
#58=ORIENTED_EDGE('',*,*,#68,.T.);
#59=CARTESIAN_POINT('',(0.0099569072366737,0.0499427710436788,0.0735275252612235));
#60=DIRECTION('',(0.990943256854035,0.000132855320855776,-0.134281212554037));
#61=DIRECTION('',(0.000134069553168504,-0.999999991012677,0.0));
#62=EDGE_CURVE('',#69,#70,#71,.T.);
#63=EDGE_CURVE('',#70,#72,#73,.T.);
#64=EDGE_CURVE('',#72,#74,#75,.T.);
#65=EDGE_CURVE('',#74,#76,#77,.T.);
#66=EDGE_CURVE('',#76,#78,#79,.T.);
#67=EDGE_CURVE('',#78,#80,#81,.T.);
#68=EDGE_CURVE('',#80,#69,#82,.T.);
#69=VERTEX_POINT('',#83);
#70=VERTEX_POINT('',#84);
#71=LINE('',#85,#86);
#72=VERTEX_POINT('',#87);
#73=CIRCLE('',#88,4.21821938790836);
#74=VERTEX_POINT('',#89);
#75=LINE('',#90,#91);
#76=VERTEX_POINT('',#92);
#77=LINE('',#93,#94);
#78=VERTEX_POINT('',#95);
#79=LINE('',#96,#97);
#80=VERTEX_POINT('',#98);
#81=LINE('',#99,#100);
#82=CIRCLE('',#101,4.21675264874865);
#83=CARTESIAN_POINT('',(0.990900218486786,-0.000388132582884282,-0.133058086037636));
#84=CARTESIAN_POINT('',(0.990948796272278,0.100067161023617,-0.132918655872345));
#85=CARTESIAN_POINT('',(0.990940034389496,0.0498395142203663,-0.132905013859272));
#86=VECTOR('',#102,1.0);
#87=CARTESIAN_POINT('',(-4.44017132394947E-06,0.100304409861565,-0.000426256534410641));
#88=AXIS2_PLACEMENT_3D('',#103,#104,#105);
#89=CARTESIAN_POINT('',(-3.85474159259047E-08,0.0902736485004425,-4.05354012400494E-06));
#90=CARTESIAN_POINT('',(-2.23935936993769E-06,0.0952890291810036,-0.000215155037267323));
#91=VECTOR('',#106,1.0);
#92=CARTESIAN_POINT('',(1.96418732230086E-05,0.0300712250173092,0.00199071527458727));
#93=CARTESIAN_POINT('',(9.80166290354134E-06,0.0601724367588758,0.000993330867231634));
#94=VECTOR('',#107,1.0);
#95=CARTESIAN_POINT('',(1.28063538795686E-05,0.0200066938996315,0.00139388826210052));
#96=CARTESIAN_POINT('',(1.62241135512886E-05,0.0250389594584703,0.0016923017683439));
#97=VECTOR('',#108,1.0);
#98=CARTESIAN_POINT('',(-1.78579341536533E-06,-0.000150517982547171,-0.000203034636797383));
#99=CARTESIAN_POINT('',(5.51028023210165E-06,0.00992808795854216,0.000595426812651567));
#100=VECTOR('',#109,1.0);
#101=AXIS2_PLACEMENT_3D('',#110,#111,#112);
#102=DIRECTION('',(0.000247608510991794,0.999999815610896,0.000554498151554617));
#103=CARTESIAN_POINT('',(-0.0598591484871908,0.0652282100645298,-4.21813756645118));
#104=DIRECTION('',(0.00103767167202214,-0.999964860823489,0.00831867512053804));
#105=DIRECTION('',(-3.41390192264132E-21,-0.00831867959916036,-0.999965399186255));
#106=DIRECTION('',(0.000438424308940052,-0.999115260591912,0.0420535829208669));
#107=DIRECTION('',(0.000326724813457402,-0.999451455267584,0.0331161865921242));
#108=DIRECTION('',(-0.000677978017023831,-0.998246147307928,-0.0591960279975444));
#109=DIRECTION('',(-0.000721655620629354,-0.996876262072907,-0.0789759287929808));
#110=CARTESIAN_POINT('',(-0.0596718600095723,0.0312646084654094,-4.21666223283423));
#111=DIRECTION('',(0.00111029809610273,0.999971401755315,0.00748083615974515));
#112=DIRECTION('',(-1.82705539838892E-21,-0.00748084077079417,0.999972018119188));
ENDSEC;
END-ISO-10303-21;
