ISO-10303-21;
HEADER;
FILE_DESCRIPTION(('STEP AP214'),'1');
FILE_NAME('SMAStripDeformed_15.stp','2026-05-05T08:38:29',(' '),(' '),'Spatial InterOp 3D',' ',' ');
FILE_SCHEMA(('AUTOMOTIVE_DESIGN { 1 0 10303 214 1 1 1 1 }'));
ENDSEC;
DATA;
#1=PRODUCT_DEFINITION_CONTEXT('',#9,'design');
#2=APPLICATION_PROTOCOL_DEFINITION('INTERNATIONAL STANDARD','automotive_design',1994,#9);
#3=PRODUCT_CATEGORY_RELATIONSHIP('NONE','NONE',#10,#11);
#4=SHAPE_DEFINITION_REPRESENTATION(#12,#13);
#5= (GEOMETRIC_REPRESENTATION_CONTEXT(3)GLOBAL_UNCERTAINTY_ASSIGNED_CONTEXT((#16))GLOBAL_UNIT_ASSIGNED_CONTEXT((#18,#19,#20))REPRESENTATION_CONTEXT('NONE','WORKSPACE'));
#9=APPLICATION_CONTEXT(' ');
#10=PRODUCT_CATEGORY('part','NONE');
#11=PRODUCT_RELATED_PRODUCT_CATEGORY('detail',' ',(#22));
#12=PRODUCT_DEFINITION_SHAPE('NONE','NONE',#23);
#13=MANIFOLD_SURFACE_SHAPE_REPRESENTATION('1',(#24,#25),#5);
#16=UNCERTAINTY_MEASURE_WITH_UNIT(LENGTH_MEASURE(1.0E-06),#18,'','');
#18= (CONVERSION_BASED_UNIT('MILLIMETRE',#28)LENGTH_UNIT()NAMED_UNIT(#31));
#19= (NAMED_UNIT(#33)PLANE_ANGLE_UNIT()SI_UNIT($,.RADIAN.));
#20= (NAMED_UNIT(#33)SOLID_ANGLE_UNIT()SI_UNIT($,.STERADIAN.));
#22=PRODUCT('1','','PART--DESC',(#39));
#23=PRODUCT_DEFINITION('','NONE',#40,#1);
#24=SHELL_BASED_SURFACE_MODEL('1',(#41));
#25=AXIS2_PLACEMENT_3D('',#42,#43,#44);
#28=LENGTH_MEASURE_WITH_UNIT(LENGTH_MEASURE(1.0),#45);
#31=DIMENSIONAL_EXPONENTS(1.0,0.0,0.0,0.0,0.0,0.0,0.0);
#33=DIMENSIONAL_EXPONENTS(0.0,0.0,0.0,0.0,0.0,0.0,0.0);
#39=PRODUCT_CONTEXT('',#9,'mechanical');
#40=PRODUCT_DEFINITION_FORMATION_WITH_SPECIFIED_SOURCE(' ','NONE',#22,.NOT_KNOWN.);
#41=CLOSED_SHELL('',(#46));
#42=CARTESIAN_POINT('',(0.0,0.0,0.0));
#43=DIRECTION('',(0.0,0.0,1.0));
#44=DIRECTION('',(1.0,0.0,0.0));
#45= (NAMED_UNIT(#31)LENGTH_UNIT()SI_UNIT(.MILLI.,.METRE.));
#46=FACE_SURFACE('',(#48),#49,.F.);
#48=FACE_BOUND('',#50,.T.);
#49=CYLINDRICAL_SURFACE('',#51,0.0657997828357171);
#50=EDGE_LOOP('',(#52,#53,#54,#55,#56,#57,#58,#59));
#51=AXIS2_PLACEMENT_3D('',#60,#61,#62);
#52=ORIENTED_EDGE('',*,*,#63,.T.);
#53=ORIENTED_EDGE('',*,*,#64,.T.);
#54=ORIENTED_EDGE('',*,*,#65,.T.);
#55=ORIENTED_EDGE('',*,*,#66,.T.);
#56=ORIENTED_EDGE('',*,*,#67,.T.);
#57=ORIENTED_EDGE('',*,*,#68,.T.);
#58=ORIENTED_EDGE('',*,*,#69,.T.);
#59=ORIENTED_EDGE('',*,*,#70,.T.);
#60=CARTESIAN_POINT('',(0.0103355665055525,0.0504612027203735,0.0616383082459855));
#61=DIRECTION('',(0.986345662737379,-0.000861500746986509,-0.164686038921405));
#62=DIRECTION('',(-0.00087342647808413,-0.999999618563021,0.0));
#63=EDGE_CURVE('',#71,#72,#73,.T.);
#64=EDGE_CURVE('',#72,#74,#75,.T.);
#65=EDGE_CURVE('',#74,#76,#77,.T.);
#66=EDGE_CURVE('',#76,#78,#79,.T.);
#67=EDGE_CURVE('',#78,#80,#81,.T.);
#68=EDGE_CURVE('',#80,#82,#83,.T.);
#69=EDGE_CURVE('',#82,#84,#85,.T.);
#70=EDGE_CURVE('',#84,#71,#86,.T.);
#71=VERTEX_POINT('',#87);
#72=VERTEX_POINT('',#88);
#73=CIRCLE('',#89,3.88911247111588);
#74=VERTEX_POINT('',#90);
#75=LINE('',#91,#92);
#76=VERTEX_POINT('',#93);
#77=CIRCLE('',#94,3.88340808549157);
#78=VERTEX_POINT('',#95);
#79=LINE('',#96,#97);
#80=VERTEX_POINT('',#98);
#81=LINE('',#99,#100);
#82=VERTEX_POINT('',#101);
#83=CIRCLE('',#102,0.077718494508297);
#84=VERTEX_POINT('',#103);
#85=LINE('',#104,#105);
#86=LINE('',#106,#107);
#87=CARTESIAN_POINT('',(-3.38951053890924E-06,-0.000148519204230979,-0.000246422830969095));
#88=CARTESIAN_POINT('',(0.987557709217072,-0.00129144173115492,-0.163902223110199));
#89=AXIS2_PLACEMENT_3D('',#108,#109,#110);
#90=CARTESIAN_POINT('',(0.987560153007507,0.100008748471737,-0.163915649056435));
#91=CARTESIAN_POINT('',(0.987576574087143,0.049358653370291,-0.163837172091007));
#92=VECTOR('',#111,1.0);
#93=CARTESIAN_POINT('',(-1.16258843263495E-05,0.101071327924728,-0.000678661279380322));
#94=AXIS2_PLACEMENT_3D('',#112,#113,#114);
#95=CARTESIAN_POINT('',(-5.07732579535514E-07,0.0909324735403061,-3.95711795135867E-05));
#96=CARTESIAN_POINT('',(-6.0668084529425E-06,0.0960019007325172,-0.000359116229446954));
#97=VECTOR('',#115,1.0);
#98=CARTESIAN_POINT('',(2.81571519735735E-05,0.0605097413063049,0.00177416275255382));
#99=CARTESIAN_POINT('',(1.3824709697019E-05,0.0757211074233055,0.000867295786520117));
#100=VECTOR('',#116,1.0);
#101=CARTESIAN_POINT('',(2.72719080385286E-05,0.0402565523982048,0.00195832969620824));
#102=AXIS2_PLACEMENT_3D('',#117,#118,#119);
#103=CARTESIAN_POINT('',(5.26165649716859E-06,0.00993665400892496,0.000689264794345945));
#104=CARTESIAN_POINT('',(1.62667822678486E-05,0.0250966032035649,0.00132379724527709));
#105=VECTOR('',#120,1.0);
#106=CARTESIAN_POINT('',(9.36072979129676E-07,0.00489406740234699,0.000221420981688425));
#107=VECTOR('',#121,1.0);
#108=CARTESIAN_POINT('',(-0.135354765579093,0.108425156168457,-3.8856900511781));
#109=DIRECTION('',(0.00518066836855479,0.999596447104048,0.0279303349822358));
#110=DIRECTION('',(0.0,-0.0279307098054463,0.999609861620904));
#111=DIRECTION('',(5.58961498507149E-05,0.99999999139557,-0.00011867805458432));
#112=CARTESIAN_POINT('',(-0.134070172131403,-0.0122619653049369,-3.88013593793136));
#113=DIRECTION('',(0.00446383372434283,-0.999567337818717,0.0290725188878676));
#114=DIRECTION('',(-3.190400589999E-20,-0.0290728085389621,-0.999577296562731));
#115=DIRECTION('',(0.00109441586387213,-0.998018675449447,0.0629088682782375));
#116=DIRECTION('',(0.00094054885862239,-0.998227145583809,0.0595120255700174));
#117=CARTESIAN_POINT('',(3.00661239902785E-05,0.0496829953214864,-0.0752550528814554));
#118=DIRECTION('',(0.999999998881355,-4.60262552645024E-05,-1.09028766422891E-05));
#119=DIRECTION('',(-4.6026255267238E-05,-0.999999998940792,0.0));
#120=DIRECTION('',(-0.000725298989188003,-0.999124930651427,-0.0418192167807854));
#121=DIRECTION('',(-0.000854141855008275,-0.995723296110369,-0.0923817515789423));
ENDSEC;
END-ISO-10303-21;
