ISO-10303-21;
HEADER;
FILE_DESCRIPTION(('STEP AP214'),'1');
FILE_NAME('SMAStripDeformed_12.stp','2026-05-05T08:36:54',(' '),(' '),'Spatial InterOp 3D',' ',' ');
FILE_SCHEMA(('AUTOMOTIVE_DESIGN { 1 0 10303 214 1 1 1 1 }'));
ENDSEC;
DATA;
#1=PRODUCT_DEFINITION_CONTEXT('',#9,'design');
#2=APPLICATION_PROTOCOL_DEFINITION('INTERNATIONAL STANDARD','automotive_design',1994,#9);
#3=PRODUCT_CATEGORY_RELATIONSHIP('NONE','NONE',#10,#11);
#4=SHAPE_DEFINITION_REPRESENTATION(#12,#13);
#5= (GEOMETRIC_REPRESENTATION_CONTEXT(3)GLOBAL_UNCERTAINTY_ASSIGNED_CONTEXT((#16))GLOBAL_UNIT_ASSIGNED_CONTEXT((#18,#19,#20))REPRESENTATION_CONTEXT('NONE','WORKSPACE'));
#9=APPLICATION_CONTEXT(' ');
#10=PRODUCT_CATEGORY('part','NONE');
#11=PRODUCT_RELATED_PRODUCT_CATEGORY('detail',' ',(#22));
#12=PRODUCT_DEFINITION_SHAPE('NONE','NONE',#23);
#13=MANIFOLD_SURFACE_SHAPE_REPRESENTATION('1',(#24,#25),#5);
#16=UNCERTAINTY_MEASURE_WITH_UNIT(LENGTH_MEASURE(1.0E-06),#18,'','');
#18= (CONVERSION_BASED_UNIT('MILLIMETRE',#28)LENGTH_UNIT()NAMED_UNIT(#31));
#19= (NAMED_UNIT(#33)PLANE_ANGLE_UNIT()SI_UNIT($,.RADIAN.));
#20= (NAMED_UNIT(#33)SOLID_ANGLE_UNIT()SI_UNIT($,.STERADIAN.));
#22=PRODUCT('1','','PART--DESC',(#39));
#23=PRODUCT_DEFINITION('','NONE',#40,#1);
#24=SHELL_BASED_SURFACE_MODEL('1',(#41));
#25=AXIS2_PLACEMENT_3D('',#42,#43,#44);
#28=LENGTH_MEASURE_WITH_UNIT(LENGTH_MEASURE(1.0),#45);
#31=DIMENSIONAL_EXPONENTS(1.0,0.0,0.0,0.0,0.0,0.0,0.0);
#33=DIMENSIONAL_EXPONENTS(0.0,0.0,0.0,0.0,0.0,0.0,0.0);
#39=PRODUCT_CONTEXT('',#9,'mechanical');
#40=PRODUCT_DEFINITION_FORMATION_WITH_SPECIFIED_SOURCE(' ','NONE',#22,.NOT_KNOWN.);
#41=CLOSED_SHELL('',(#46));
#42=CARTESIAN_POINT('',(0.0,0.0,0.0));
#43=DIRECTION('',(0.0,0.0,1.0));
#44=DIRECTION('',(1.0,0.0,0.0));
#45= (NAMED_UNIT(#31)LENGTH_UNIT()SI_UNIT(.MILLI.,.METRE.));
#46=FACE_SURFACE('',(#48),#49,.F.);
#48=FACE_BOUND('',#50,.T.);
#49=CYLINDRICAL_SURFACE('',#51,0.067330145103796);
#50=EDGE_LOOP('',(#52,#53,#54,#55,#56,#57));
#51=AXIS2_PLACEMENT_3D('',#58,#59,#60);
#52=ORIENTED_EDGE('',*,*,#61,.T.);
#53=ORIENTED_EDGE('',*,*,#62,.T.);
#54=ORIENTED_EDGE('',*,*,#63,.T.);
#55=ORIENTED_EDGE('',*,*,#64,.T.);
#56=ORIENTED_EDGE('',*,*,#65,.T.);
#57=ORIENTED_EDGE('',*,*,#66,.T.);
#58=CARTESIAN_POINT('',(0.0101036798241276,0.049970885353422,0.0640703256757791));
#59=DIRECTION('',(0.987775831056167,0.000143600935421289,-0.155881002563078));
#60=DIRECTION('',(0.000145378059868359,-0.99999998943261,0.0));
#61=EDGE_CURVE('',#67,#68,#69,.T.);
#62=EDGE_CURVE('',#68,#70,#71,.T.);
#63=EDGE_CURVE('',#70,#72,#73,.T.);
#64=EDGE_CURVE('',#72,#74,#75,.T.);
#65=EDGE_CURVE('',#74,#76,#77,.T.);
#66=EDGE_CURVE('',#76,#67,#78,.T.);
#67=VERTEX_POINT('',#79);
#68=VERTEX_POINT('',#80);
#69=CIRCLE('',#81,3.93666203929921);
#70=VERTEX_POINT('',#82);
#71=LINE('',#83,#84);
#72=VERTEX_POINT('',#85);
#73=LINE('',#86,#87);
#74=VERTEX_POINT('',#88);
#75=LINE('',#89,#90);
#76=VERTEX_POINT('',#91);
#77=CIRCLE('',#92,3.9402623095088);
#78=LINE('',#93,#94);
#79=CARTESIAN_POINT('',(0.988439500331879,0.100011810660362,-0.155726090073586));
#80=CARTESIAN_POINT('',(-8.43132238514954E-06,0.100779630243778,-0.000603142485488206));
#81=AXIS2_PLACEMENT_3D('',#95,#96,#97);
#82=CARTESIAN_POINT('',(-2.94964507929762E-07,0.0906892567873001,-2.53571142820874E-05));
#83=CARTESIAN_POINT('',(-4.36314344653965E-06,0.0957344435155392,-0.000314249799885147));
#84=VECTOR('',#98,1.0);
#85=CARTESIAN_POINT('',(2.92334734695032E-05,0.0503236204385757,0.00221091299317777));
#86=CARTESIAN_POINT('',(1.44692544807867E-05,0.0705064386129379,0.00109277793944784));
#87=VECTOR('',#99,1.0);
#88=CARTESIAN_POINT('',(-2.84772886516294E-06,-0.00014810313587077,-0.000253464851994067));
#89=CARTESIAN_POINT('',(1.60386957759329E-05,0.0250877586513525,0.00124614845844917));
#90=VECTOR('',#100,1.0);
#91=CARTESIAN_POINT('',(0.98842978477478,-0.000970463268458843,-0.155742570757866));
#92=AXIS2_PLACEMENT_3D('',#101,#102,#103);
#93=CARTESIAN_POINT('',(0.988450258970261,0.0495206736959517,-0.155663967132568));
#94=VECTOR('',#104,1.0);
#95=CARTESIAN_POINT('',(-0.111084750535493,0.0142764561895658,-3.93476031551961));
#96=DIRECTION('',(0.00321268491726387,-0.999754678096838,0.0219148871571389));
#97=DIRECTION('',(-1.13255745934164E-20,-0.021915000253563,-0.99975983754294));
#98=DIRECTION('',(0.000805029579386227,-0.998364283147068,0.0571673863633583));
#99=DIRECTION('',(0.000730403949796831,-0.998468658160503,0.0553155057938969));
#100=DIRECTION('',(-0.000768509115970971,-0.99825528131568,-0.0590406869801813));
#101=CARTESIAN_POINT('',(-0.111922334510606,0.0821025629649486,-3.93825808876703));
#102=DIRECTION('',(0.00368002571694849,0.999774565252594,0.0209111473790585));
#103=DIRECTION('',(0.0,-0.0209112889760368,0.999781335089509));
#104=DIRECTION('',(0.000150939271455148,0.999999961602613,0.000232405054517722));
ENDSEC;
END-ISO-10303-21;
