ISO-10303-21;
HEADER;
FILE_DESCRIPTION(('STEP AP214'),'1');
FILE_NAME('SMAStripDeformed_05.stp','2026-05-05T08:33:05',(' '),(' '),'Spatial InterOp 3D',' ',' ');
FILE_SCHEMA(('AUTOMOTIVE_DESIGN { 1 0 10303 214 1 1 1 1 }'));
ENDSEC;
DATA;
#1=PRODUCT_DEFINITION_CONTEXT('',#9,'design');
#2=APPLICATION_PROTOCOL_DEFINITION('INTERNATIONAL STANDARD','automotive_design',1994,#9);
#3=PRODUCT_CATEGORY_RELATIONSHIP('NONE','NONE',#10,#11);
#4=SHAPE_DEFINITION_REPRESENTATION(#12,#13);
#5= (GEOMETRIC_REPRESENTATION_CONTEXT(3)GLOBAL_UNCERTAINTY_ASSIGNED_CONTEXT((#16))GLOBAL_UNIT_ASSIGNED_CONTEXT((#18,#19,#20))REPRESENTATION_CONTEXT('NONE','WORKSPACE'));
#9=APPLICATION_CONTEXT(' ');
#10=PRODUCT_CATEGORY('part','NONE');
#11=PRODUCT_RELATED_PRODUCT_CATEGORY('detail',' ',(#22));
#12=PRODUCT_DEFINITION_SHAPE('NONE','NONE',#23);
#13=MANIFOLD_SURFACE_SHAPE_REPRESENTATION('1',(#24,#25),#5);
#16=UNCERTAINTY_MEASURE_WITH_UNIT(LENGTH_MEASURE(1.0E-06),#18,'','');
#18= (CONVERSION_BASED_UNIT('MILLIMETRE',#28)LENGTH_UNIT()NAMED_UNIT(#31));
#19= (NAMED_UNIT(#33)PLANE_ANGLE_UNIT()SI_UNIT($,.RADIAN.));
#20= (NAMED_UNIT(#33)SOLID_ANGLE_UNIT()SI_UNIT($,.STERADIAN.));
#22=PRODUCT('1','','PART--DESC',(#39));
#23=PRODUCT_DEFINITION('','NONE',#40,#1);
#24=SHELL_BASED_SURFACE_MODEL('1',(#41));
#25=AXIS2_PLACEMENT_3D('',#42,#43,#44);
#28=LENGTH_MEASURE_WITH_UNIT(LENGTH_MEASURE(1.0),#45);
#31=DIMENSIONAL_EXPONENTS(1.0,0.0,0.0,0.0,0.0,0.0,0.0);
#33=DIMENSIONAL_EXPONENTS(0.0,0.0,0.0,0.0,0.0,0.0,0.0);
#39=PRODUCT_CONTEXT('',#9,'mechanical');
#40=PRODUCT_DEFINITION_FORMATION_WITH_SPECIFIED_SOURCE(' ','NONE',#22,.NOT_KNOWN.);
#41=CLOSED_SHELL('',(#46));
#42=CARTESIAN_POINT('',(0.0,0.0,0.0));
#43=DIRECTION('',(0.0,0.0,1.0));
#44=DIRECTION('',(1.0,0.0,0.0));
#45= (NAMED_UNIT(#31)LENGTH_UNIT()SI_UNIT(.MILLI.,.METRE.));
#46=FACE_SURFACE('',(#48),#49,.F.);
#48=FACE_BOUND('',#50,.T.);
#49=CYLINDRICAL_SURFACE('',#51,0.0754755739518219);
#50=EDGE_LOOP('',(#52,#53,#54,#55,#56,#57));
#51=AXIS2_PLACEMENT_3D('',#58,#59,#60);
#52=ORIENTED_EDGE('',*,*,#61,.T.);
#53=ORIENTED_EDGE('',*,*,#62,.T.);
#54=ORIENTED_EDGE('',*,*,#63,.T.);
#55=ORIENTED_EDGE('',*,*,#64,.T.);
#56=ORIENTED_EDGE('',*,*,#65,.T.);
#57=ORIENTED_EDGE('',*,*,#66,.T.);
#58=CARTESIAN_POINT('',(0.00971396938546326,0.0502504662710906,0.0749541932128105));
#59=DIRECTION('',(0.991748353333731,-0.000492875258790064,-0.128198910813671));
#60=DIRECTION('',(-0.000496976068845313,-0.999999876507386,0.0));
#61=EDGE_CURVE('',#67,#68,#69,.T.);
#62=EDGE_CURVE('',#68,#70,#71,.T.);
#63=EDGE_CURVE('',#70,#72,#73,.T.);
#64=EDGE_CURVE('',#72,#74,#75,.T.);
#65=EDGE_CURVE('',#74,#76,#77,.T.);
#66=EDGE_CURVE('',#76,#67,#78,.T.);
#67=VERTEX_POINT('',#79);
#68=VERTEX_POINT('',#80);
#69=LINE('',#81,#82);
#70=VERTEX_POINT('',#83);
#71=LINE('',#84,#85);
#72=VERTEX_POINT('',#86);
#73=LINE('',#87,#88);
#74=VERTEX_POINT('',#89);
#75=CIRCLE('',#90,4.33072876648052);
#76=VERTEX_POINT('',#91);
#77=LINE('',#92,#93);
#78=CIRCLE('',#94,4.32970632266353);
#79=CARTESIAN_POINT('',(-3.29749764205189E-06,0.100242778658867,-0.00033437434467487));
#80=CARTESIAN_POINT('',(-1.95645828426905E-08,0.0902155786752701,-2.12947725231061E-06));
#81=CARTESIAN_POINT('',(-1.65853111244729E-06,0.0952291786670685,-0.00016825191096359));
#82=VECTOR('',#95,1.0);
#83=CARTESIAN_POINT('',(1.28063538795686E-05,0.0200066938996315,0.00139388826210052));
#84=CARTESIAN_POINT('',(6.39339464836297E-06,0.0551111362874508,0.000695879392424104));
#85=VECTOR('',#96,1.0);
#86=CARTESIAN_POINT('',(-1.78579341536533E-06,-0.000150517982547171,-0.000203034636797383));
#87=CARTESIAN_POINT('',(5.51028023210165E-06,0.00992808795854216,0.000595426812651567));
#88=VECTOR('',#97,1.0);
#89=CARTESIAN_POINT('',(0.991481006145477,-0.000274142803391442,-0.127746611833572));
#90=AXIS2_PLACEMENT_3D('',#98,#99,#100);
#91=CARTESIAN_POINT('',(0.991518318653107,0.100110188126564,-0.127596318721771));
#92=CARTESIAN_POINT('',(0.991525739431381,0.0499180226615863,-0.127561584115028));
#93=VECTOR('',#101,0.999999999999999);
#94=AXIS2_PLACEMENT_3D('',#102,#103,#104);
#95=DIRECTION('',(0.000326724805704228,-0.999451455298623,0.0331161856554359));
#96=DIRECTION('',(0.000182646167096967,-0.99980235965238,0.0198798459226921));
#97=DIRECTION('',(-0.000721655620629354,-0.996876262072907,-0.0789759287929808));
#98=CARTESIAN_POINT('',(-0.0520262228305892,0.0225589343583428,-4.33078222825164));
#99=DIRECTION('',(0.000717499990279693,0.999985854118183,0.00527036595422239));
#100=DIRECTION('',(0.0,-0.00527036731083154,0.99998611151776));
#101=DIRECTION('',(6.04011963279642E-05,0.999999977788227,0.000201928803503691));
#102=CARTESIAN_POINT('',(-0.0519344083528818,0.0752273190980491,-4.32974851971503));
#103=DIRECTION('',(0.000721725770838958,-0.999983014239927,0.00578362719600316));
#104=DIRECTION('',(5.78327740770002E-22,-0.005783628702315,-0.999983274679649));
ENDSEC;
END-ISO-10303-21;
