ISO-10303-21;
HEADER;
FILE_DESCRIPTION(('STEP AP214'),'1');
FILE_NAME('SMAStripDeformed_03.stp','2026-05-05T08:32:07',(' '),(' '),'Spatial InterOp 3D',' ',' ');
FILE_SCHEMA(('AUTOMOTIVE_DESIGN { 1 0 10303 214 1 1 1 1 }'));
ENDSEC;
DATA;
#1=PRODUCT_DEFINITION_CONTEXT('',#9,'design');
#2=APPLICATION_PROTOCOL_DEFINITION('INTERNATIONAL STANDARD','automotive_design',1994,#9);
#3=PRODUCT_CATEGORY_RELATIONSHIP('NONE','NONE',#10,#11);
#4=SHAPE_DEFINITION_REPRESENTATION(#12,#13);
#5= (GEOMETRIC_REPRESENTATION_CONTEXT(3)GLOBAL_UNCERTAINTY_ASSIGNED_CONTEXT((#16))GLOBAL_UNIT_ASSIGNED_CONTEXT((#18,#19,#20))REPRESENTATION_CONTEXT('NONE','WORKSPACE'));
#9=APPLICATION_CONTEXT(' ');
#10=PRODUCT_CATEGORY('part','NONE');
#11=PRODUCT_RELATED_PRODUCT_CATEGORY('detail',' ',(#22));
#12=PRODUCT_DEFINITION_SHAPE('NONE','NONE',#23);
#13=MANIFOLD_SURFACE_SHAPE_REPRESENTATION('1',(#24,#25),#5);
#16=UNCERTAINTY_MEASURE_WITH_UNIT(LENGTH_MEASURE(1.0E-06),#18,'','');
#18= (CONVERSION_BASED_UNIT('MILLIMETRE',#28)LENGTH_UNIT()NAMED_UNIT(#31));
#19= (NAMED_UNIT(#33)PLANE_ANGLE_UNIT()SI_UNIT($,.RADIAN.));
#20= (NAMED_UNIT(#33)SOLID_ANGLE_UNIT()SI_UNIT($,.STERADIAN.));
#22=PRODUCT('1','','PART--DESC',(#39));
#23=PRODUCT_DEFINITION('','NONE',#40,#1);
#24=SHELL_BASED_SURFACE_MODEL('1',(#41));
#25=AXIS2_PLACEMENT_3D('',#42,#43,#44);
#28=LENGTH_MEASURE_WITH_UNIT(LENGTH_MEASURE(1.0),#45);
#31=DIMENSIONAL_EXPONENTS(1.0,0.0,0.0,0.0,0.0,0.0,0.0);
#33=DIMENSIONAL_EXPONENTS(0.0,0.0,0.0,0.0,0.0,0.0,0.0);
#39=PRODUCT_CONTEXT('',#9,'mechanical');
#40=PRODUCT_DEFINITION_FORMATION_WITH_SPECIFIED_SOURCE(' ','NONE',#22,.NOT_KNOWN.);
#41=CLOSED_SHELL('',(#46));
#42=CARTESIAN_POINT('',(0.0,0.0,0.0));
#43=DIRECTION('',(0.0,0.0,1.0));
#44=DIRECTION('',(1.0,0.0,0.0));
#45= (NAMED_UNIT(#31)LENGTH_UNIT()SI_UNIT(.MILLI.,.METRE.));
#46=FACE_SURFACE('',(#48),#49,.F.);
#48=FACE_BOUND('',#50,.T.);
#49=CYLINDRICAL_SURFACE('',#51,0.0849159609112883);
#50=EDGE_LOOP('',(#52,#53,#54,#55,#56));
#51=AXIS2_PLACEMENT_3D('',#57,#58,#59);
#52=ORIENTED_EDGE('',*,*,#60,.T.);
#53=ORIENTED_EDGE('',*,*,#61,.T.);
#54=ORIENTED_EDGE('',*,*,#62,.T.);
#55=ORIENTED_EDGE('',*,*,#63,.T.);
#56=ORIENTED_EDGE('',*,*,#64,.T.);
#57=CARTESIAN_POINT('',(0.00958550704911954,0.0496214984199474,0.084311932999199));
#58=DIRECTION('',(0.993549573185439,0.000745110540690035,-0.113396165866903));
#59=DIRECTION('',(0.000749947814649967,-0.999999718789098,0.0));
#60=EDGE_CURVE('',#65,#66,#67,.T.);
#61=EDGE_CURVE('',#66,#68,#69,.T.);
#62=EDGE_CURVE('',#68,#70,#71,.T.);
#63=EDGE_CURVE('',#70,#72,#73,.T.);
#64=EDGE_CURVE('',#72,#65,#74,.T.);
#65=VERTEX_POINT('',#75);
#66=VERTEX_POINT('',#76);
#67=LINE('',#77,#78);
#68=VERTEX_POINT('',#79);
#69=LINE('',#80,#81);
#70=VERTEX_POINT('',#82);
#71=CIRCLE('',#83,4.78755642235723);
#72=VERTEX_POINT('',#84);
#73=LINE('',#85,#86);
#74=CIRCLE('',#87,4.78758545089786);
#75=CARTESIAN_POINT('',(-1.54899162303671E-37,0.100079439580441,-7.70485239261517E-38));
#76=CARTESIAN_POINT('',(-2.19020724756849E-34,0.0100027890875936,-8.75192852357507E-35));
#77=CARTESIAN_POINT('',(1.77411760404342E-34,0.055041114334017,7.91988113525629E-35));
#78=VECTOR('',#88,1.0);
#79=CARTESIAN_POINT('',(1.78841290221499E-07,-7.52458072383888E-05,1.08894564618822E-05));
#80=CARTESIAN_POINT('',(8.94206451107493E-08,0.00496377164017758,5.44472823094111E-06));
#81=VECTOR('',#89,1.0);
#82=CARTESIAN_POINT('',(0.99303662776947,-0.000100910037872382,-0.113417252898216));
#83=AXIS2_PLACEMENT_3D('',#90,#91,#92);
#84=CARTESIAN_POINT('',(0.99303662776947,0.100006595253944,-0.113418646156788));
#85=CARTESIAN_POINT('',(0.99305671453476,0.049952842608036,-0.113328047096729));
#86=VECTOR('',#93,1.0);
#87=AXIS2_PLACEMENT_3D('',#94,#95,#96);
#88=DIRECTION('',(-0.0,-1.0,-0.0));
#89=DIRECTION('',(1.77456406591353E-05,-0.999999416087948,0.001080513236661));
#90=CARTESIAN_POINT('',(-0.0434294898500719,0.0131100948297139,-4.78754412211842));
#91=DIRECTION('',(0.00034213546726944,0.999996113822246,0.00276681834017246));
#92=DIRECTION('',(0.0,-0.00276681850210975,0.999996172350363));
#93=DIRECTION('',(-2.15931585464158E-07,0.999999999889246,-1.48815512294709E-05));
#94=CARTESIAN_POINT('',(-0.0434821276352365,0.0803699267499102,-4.78754647332307));
#95=DIRECTION('',(0.000454160972919028,-0.999991396556334,0.00412317245856744));
#96=DIRECTION('',(3.29119431778436E-22,-0.0041231728837948,-0.999991499686558));
ENDSEC;
END-ISO-10303-21;
