ISO-10303-21;
HEADER;
FILE_DESCRIPTION(('STEP AP214'),'1');
FILE_NAME('SMAStripDeformed_04.stp','2026-05-05T08:32:34',(' '),(' '),'Spatial InterOp 3D',' ',' ');
FILE_SCHEMA(('AUTOMOTIVE_DESIGN { 1 0 10303 214 1 1 1 1 }'));
ENDSEC;
DATA;
#1=PRODUCT_DEFINITION_CONTEXT('',#9,'design');
#2=APPLICATION_PROTOCOL_DEFINITION('INTERNATIONAL STANDARD','automotive_design',1994,#9);
#3=PRODUCT_CATEGORY_RELATIONSHIP('NONE','NONE',#10,#11);
#4=SHAPE_DEFINITION_REPRESENTATION(#12,#13);
#5= (GEOMETRIC_REPRESENTATION_CONTEXT(3)GLOBAL_UNCERTAINTY_ASSIGNED_CONTEXT((#16))GLOBAL_UNIT_ASSIGNED_CONTEXT((#18,#19,#20))REPRESENTATION_CONTEXT('NONE','WORKSPACE'));
#9=APPLICATION_CONTEXT(' ');
#10=PRODUCT_CATEGORY('part','NONE');
#11=PRODUCT_RELATED_PRODUCT_CATEGORY('detail',' ',(#22));
#12=PRODUCT_DEFINITION_SHAPE('NONE','NONE',#23);
#13=MANIFOLD_SURFACE_SHAPE_REPRESENTATION('1',(#24,#25),#5);
#16=UNCERTAINTY_MEASURE_WITH_UNIT(LENGTH_MEASURE(1.0E-06),#18,'','');
#18= (CONVERSION_BASED_UNIT('MILLIMETRE',#28)LENGTH_UNIT()NAMED_UNIT(#31));
#19= (NAMED_UNIT(#33)PLANE_ANGLE_UNIT()SI_UNIT($,.RADIAN.));
#20= (NAMED_UNIT(#33)SOLID_ANGLE_UNIT()SI_UNIT($,.STERADIAN.));
#22=PRODUCT('1','','PART--DESC',(#39));
#23=PRODUCT_DEFINITION('','NONE',#40,#1);
#24=SHELL_BASED_SURFACE_MODEL('1',(#41));
#25=AXIS2_PLACEMENT_3D('',#42,#43,#44);
#28=LENGTH_MEASURE_WITH_UNIT(LENGTH_MEASURE(1.0),#45);
#31=DIMENSIONAL_EXPONENTS(1.0,0.0,0.0,0.0,0.0,0.0,0.0);
#33=DIMENSIONAL_EXPONENTS(0.0,0.0,0.0,0.0,0.0,0.0,0.0);
#39=PRODUCT_CONTEXT('',#9,'mechanical');
#40=PRODUCT_DEFINITION_FORMATION_WITH_SPECIFIED_SOURCE(' ','NONE',#22,.NOT_KNOWN.);
#41=CLOSED_SHELL('',(#46));
#42=CARTESIAN_POINT('',(0.0,0.0,0.0));
#43=DIRECTION('',(0.0,0.0,1.0));
#44=DIRECTION('',(1.0,0.0,0.0));
#45= (NAMED_UNIT(#31)LENGTH_UNIT()SI_UNIT(.MILLI.,.METRE.));
#46=FACE_SURFACE('',(#48),#49,.F.);
#48=FACE_BOUND('',#50,.T.);
#49=CYLINDRICAL_SURFACE('',#51,0.0778841746793867);
#50=EDGE_LOOP('',(#52,#53,#54,#55,#56,#57));
#51=AXIS2_PLACEMENT_3D('',#58,#59,#60);
#52=ORIENTED_EDGE('',*,*,#61,.T.);
#53=ORIENTED_EDGE('',*,*,#62,.T.);
#54=ORIENTED_EDGE('',*,*,#63,.T.);
#55=ORIENTED_EDGE('',*,*,#64,.T.);
#56=ORIENTED_EDGE('',*,*,#65,.T.);
#57=ORIENTED_EDGE('',*,*,#66,.T.);
#58=CARTESIAN_POINT('',(0.00946530750050595,0.0502494578466614,0.0770342912145543));
#59=DIRECTION('',(0.992576159871577,-0.000514434882685086,-0.12162360877455));
#60=DIRECTION('',(-0.000518282459714465,-0.999999865691637,2.11635710017021E-20));
#61=EDGE_CURVE('',#67,#68,#69,.T.);
#62=EDGE_CURVE('',#68,#70,#71,.T.);
#63=EDGE_CURVE('',#70,#72,#73,.T.);
#64=EDGE_CURVE('',#72,#74,#75,.T.);
#65=EDGE_CURVE('',#74,#76,#77,.T.);
#66=EDGE_CURVE('',#76,#67,#78,.T.);
#67=VERTEX_POINT('',#79);
#68=VERTEX_POINT('',#80);
#69=LINE('',#81,#82);
#70=VERTEX_POINT('',#83);
#71=LINE('',#84,#85);
#72=VERTEX_POINT('',#86);
#73=CIRCLE('',#87,4.49817939493916);
#74=VERTEX_POINT('',#88);
#75=LINE('',#89,#90);
#76=VERTEX_POINT('',#91);
#77=CIRCLE('',#92,4.49576031207337);
#78=LINE('',#93,#94);
#79=CARTESIAN_POINT('',(-2.4882110219194E-35,0.0901084840297699,1.82184520016295E-35));
#80=CARTESIAN_POINT('',(-2.71839405276889E-34,0.00994516909122467,-1.03208071098523E-34));
#81=CARTESIAN_POINT('',(1.28960064356481E-34,0.0500268265604973,7.9705731811918E-35));
#82=VECTOR('',#95,1.0);
#83=CARTESIAN_POINT('',(-1.78579341536533E-06,-0.000150517982547171,-0.000203034636797383));
#84=CARTESIAN_POINT('',(-8.92896707682667E-07,0.00489732555433875,-0.000101517318398692));
#85=VECTOR('',#96,1.0);
#86=CARTESIAN_POINT('',(0.992159187793732,-0.000167333404533565,-0.121678791940212));
#87=AXIS2_PLACEMENT_3D('',#97,#98,#99);
#88=CARTESIAN_POINT('',(0.992108166217804,0.100122958421707,-0.121886566281319));
#89=CARTESIAN_POINT('',(0.992154151201248,0.0499778125085868,-0.121692519634962));
#90=VECTOR('',#100,1.0);
#91=CARTESIAN_POINT('',(-1.83055306024471E-06,0.100128903985023,-0.000199243775568902));
#92=AXIS2_PLACEMENT_3D('',#101,#102,#103);
#93=CARTESIAN_POINT('',(-9.15276530122355E-07,0.0951186940073967,-9.96218877844512E-05));
#94=VECTOR('',#104,1.0);
#95=DIRECTION('',(-0.0,-1.0,-0.0));
#96=DIRECTION('',(-0.000176851000708218,-0.999797818981384,-0.0201069610779706));
#97=CARTESIAN_POINT('',(-0.0475654644229118,0.0134939880758112,-4.49824527842742));
#98=DIRECTION('',(0.000391144250208049,0.999995268798924,0.00305112863441466));
#99=DIRECTION('',(0.0,-0.00305112886781661,0.999995345295483));
#100=DIRECTION('',(-0.000226804767559985,0.999999577901818,-0.00089036834094891));
#101=CARTESIAN_POINT('',(-0.047371743948425,0.0849888689095218,-4.4958192572108));
#102=DIRECTION('',(0.000412570454359646,-0.999994172907978,0.00338879561337166));
#103=DIRECTION('',(1.59193462949992E-22,-0.00338879590178257,-0.999994258014683));
#104=DIRECTION('',(0.000182646164262849,-0.999802359667915,0.0198798451414696));
ENDSEC;
END-ISO-10303-21;
