ISO-10303-21;
HEADER;
FILE_DESCRIPTION(('STEP AP214'),'1');
FILE_NAME('SMAStripDeformed_08.stp','2026-05-05T08:34:38',(' '),(' '),'Spatial InterOp 3D',' ',' ');
FILE_SCHEMA(('AUTOMOTIVE_DESIGN { 1 0 10303 214 1 1 1 1 }'));
ENDSEC;
DATA;
#1=PRODUCT_DEFINITION_CONTEXT('',#9,'design');
#2=APPLICATION_PROTOCOL_DEFINITION('INTERNATIONAL STANDARD','automotive_design',1994,#9);
#3=PRODUCT_CATEGORY_RELATIONSHIP('NONE','NONE',#10,#11);
#4=SHAPE_DEFINITION_REPRESENTATION(#12,#13);
#5= (GEOMETRIC_REPRESENTATION_CONTEXT(3)GLOBAL_UNCERTAINTY_ASSIGNED_CONTEXT((#16))GLOBAL_UNIT_ASSIGNED_CONTEXT((#18,#19,#20))REPRESENTATION_CONTEXT('NONE','WORKSPACE'));
#9=APPLICATION_CONTEXT(' ');
#10=PRODUCT_CATEGORY('part','NONE');
#11=PRODUCT_RELATED_PRODUCT_CATEGORY('detail',' ',(#22));
#12=PRODUCT_DEFINITION_SHAPE('NONE','NONE',#23);
#13=MANIFOLD_SURFACE_SHAPE_REPRESENTATION('1',(#24,#25),#5);
#16=UNCERTAINTY_MEASURE_WITH_UNIT(LENGTH_MEASURE(1.0E-06),#18,'','');
#18= (CONVERSION_BASED_UNIT('MILLIMETRE',#28)LENGTH_UNIT()NAMED_UNIT(#31));
#19= (NAMED_UNIT(#33)PLANE_ANGLE_UNIT()SI_UNIT($,.RADIAN.));
#20= (NAMED_UNIT(#33)SOLID_ANGLE_UNIT()SI_UNIT($,.STERADIAN.));
#22=PRODUCT('1','','PART--DESC',(#39));
#23=PRODUCT_DEFINITION('','NONE',#40,#1);
#24=SHELL_BASED_SURFACE_MODEL('1',(#41));
#25=AXIS2_PLACEMENT_3D('',#42,#43,#44);
#28=LENGTH_MEASURE_WITH_UNIT(LENGTH_MEASURE(1.0),#45);
#31=DIMENSIONAL_EXPONENTS(1.0,0.0,0.0,0.0,0.0,0.0,0.0);
#33=DIMENSIONAL_EXPONENTS(0.0,0.0,0.0,0.0,0.0,0.0,0.0);
#39=PRODUCT_CONTEXT('',#9,'mechanical');
#40=PRODUCT_DEFINITION_FORMATION_WITH_SPECIFIED_SOURCE(' ','NONE',#22,.NOT_KNOWN.);
#41=CLOSED_SHELL('',(#46));
#42=CARTESIAN_POINT('',(0.0,0.0,0.0));
#43=DIRECTION('',(0.0,0.0,1.0));
#44=DIRECTION('',(1.0,0.0,0.0));
#45= (NAMED_UNIT(#31)LENGTH_UNIT()SI_UNIT(.MILLI.,.METRE.));
#46=FACE_SURFACE('',(#48),#49,.F.);
#48=FACE_BOUND('',#50,.T.);
#49=CYLINDRICAL_SURFACE('',#51,0.0710015858717122);
#50=EDGE_LOOP('',(#52,#53,#54,#55,#56,#57));
#51=AXIS2_PLACEMENT_3D('',#58,#59,#60);
#52=ORIENTED_EDGE('',*,*,#61,.T.);
#53=ORIENTED_EDGE('',*,*,#62,.T.);
#54=ORIENTED_EDGE('',*,*,#63,.T.);
#55=ORIENTED_EDGE('',*,*,#64,.T.);
#56=ORIENTED_EDGE('',*,*,#65,.T.);
#57=ORIENTED_EDGE('',*,*,#66,.T.);
#58=CARTESIAN_POINT('',(0.0103624147257498,0.0504784638448564,0.0705636865440162));
#59=DIRECTION('',(0.989489670348502,-0.000990136960296815,-0.144600179468814));
#60=DIRECTION('',(-0.00100065366446125,-0.999999499345997,-2.76007617993823E-20));
#61=EDGE_CURVE('',#67,#68,#69,.T.);
#62=EDGE_CURVE('',#68,#70,#71,.T.);
#63=EDGE_CURVE('',#70,#72,#73,.T.);
#64=EDGE_CURVE('',#72,#74,#75,.T.);
#65=EDGE_CURVE('',#74,#76,#77,.T.);
#66=EDGE_CURVE('',#76,#67,#78,.T.);
#67=VERTEX_POINT('',#79);
#68=VERTEX_POINT('',#80);
#69=CIRCLE('',#81,4.07483525312799);
#70=VERTEX_POINT('',#82);
#71=LINE('',#83,#84);
#72=VERTEX_POINT('',#85);
#73=CIRCLE('',#86,4.07578370938092);
#74=VERTEX_POINT('',#87);
#75=LINE('',#88,#89);
#76=VERTEX_POINT('',#90);
#77=LINE('',#91,#92);
#78=LINE('',#93,#94);
#79=CARTESIAN_POINT('',(-1.78579341536533E-06,-0.000150517982547171,-0.000203034636797383));
#80=CARTESIAN_POINT('',(0.989901065826416,-0.00056491419672966,-0.142136797308922));
#81=AXIS2_PLACEMENT_3D('',#95,#96,#97);
#82=CARTESIAN_POINT('',(0.989936411380768,0.100042380392551,-0.142061203718185));
#83=CARTESIAN_POINT('',(0.989930212497711,0.0497387330979109,-0.142030216753483));
#84=VECTOR('',#98,0.999999999999999);
#85=CARTESIAN_POINT('',(-6.07211495662341E-06,0.100449874997139,-0.000524774717632681));
#86=AXIS2_PLACEMENT_3D('',#99,#100,#101);
#87=CARTESIAN_POINT('',(-1.00225456378666E-07,0.0904010161757469,-9.78793832473457E-06));
#88=CARTESIAN_POINT('',(-3.08617020650104E-06,0.0954254455864429,-0.000267281327978708));
#89=VECTOR('',#102,1.0);
#90=CARTESIAN_POINT('',(2.1264959286782E-05,0.0501994453370571,0.00192260020412505));
#91=CARTESIAN_POINT('',(1.05823669152016E-05,0.070300230756402,0.000956406132900156));
#92=VECTOR('',#103,1.0);
#93=CARTESIAN_POINT('',(1.00886379073017E-05,0.025024463677255,0.000951651585637592));
#94=VECTOR('',#104,1.0);
#95=CARTESIAN_POINT('',(-0.0776508957028427,0.0472808482712296,-4.07427561865021));
#96=DIRECTION('',(0.00186443223762893,0.999930045074749,0.0116802760772882));
#97=DIRECTION('',(-3.17487620585408E-21,-0.0116802963782892,0.999931783011479));
#98=DIRECTION('',(0.000309793478974213,0.999999785825532,0.000576521370808496));
#99=CARTESIAN_POINT('',(-0.0776724276517559,0.0481862368981388,-4.07526483160253));
#100=DIRECTION('',(0.0017114849957793,-0.999916443303851,0.0128131662630915));
#101=DIRECTION('',(2.91374951435917E-21,-0.0128131850291736,-0.999917907775137));
#102=DIRECTION('',(0.000593506359686771,-0.998689211822536,0.0511811092052772));
#103=DIRECTION('',(0.000530838541496089,-0.998846615999691,0.0480120392860899));
#104=DIRECTION('',(-0.000513319355491166,-0.998855865136548,-0.0478194226811376));
ENDSEC;
END-ISO-10303-21;
