ISO-10303-21;
HEADER;
FILE_DESCRIPTION(('STEP AP214'),'1');
FILE_NAME('SMAStripDeformed_02.stp','2026-05-05T08:31:39',(' '),(' '),'Spatial InterOp 3D',' ',' ');
FILE_SCHEMA(('AUTOMOTIVE_DESIGN { 1 0 10303 214 1 1 1 1 }'));
ENDSEC;
DATA;
#1=PRODUCT_DEFINITION_CONTEXT('',#9,'design');
#2=APPLICATION_PROTOCOL_DEFINITION('INTERNATIONAL STANDARD','automotive_design',1994,#9);
#3=PRODUCT_CATEGORY_RELATIONSHIP('NONE','NONE',#10,#11);
#4=SHAPE_DEFINITION_REPRESENTATION(#12,#13);
#5= (GEOMETRIC_REPRESENTATION_CONTEXT(3)GLOBAL_UNCERTAINTY_ASSIGNED_CONTEXT((#16))GLOBAL_UNIT_ASSIGNED_CONTEXT((#18,#19,#20))REPRESENTATION_CONTEXT('NONE','WORKSPACE'));
#9=APPLICATION_CONTEXT(' ');
#10=PRODUCT_CATEGORY('part','NONE');
#11=PRODUCT_RELATED_PRODUCT_CATEGORY('detail',' ',(#22));
#12=PRODUCT_DEFINITION_SHAPE('NONE','NONE',#23);
#13=MANIFOLD_SURFACE_SHAPE_REPRESENTATION('1',(#24,#25),#5);
#16=UNCERTAINTY_MEASURE_WITH_UNIT(LENGTH_MEASURE(1.0E-06),#18,'','');
#18= (CONVERSION_BASED_UNIT('MILLIMETRE',#28)LENGTH_UNIT()NAMED_UNIT(#31));
#19= (NAMED_UNIT(#33)PLANE_ANGLE_UNIT()SI_UNIT($,.RADIAN.));
#20= (NAMED_UNIT(#33)SOLID_ANGLE_UNIT()SI_UNIT($,.STERADIAN.));
#22=PRODUCT('1','','PART--DESC',(#39));
#23=PRODUCT_DEFINITION('','NONE',#40,#1);
#24=SHELL_BASED_SURFACE_MODEL('1',(#41));
#25=AXIS2_PLACEMENT_3D('',#42,#43,#44);
#28=LENGTH_MEASURE_WITH_UNIT(LENGTH_MEASURE(1.0),#45);
#31=DIMENSIONAL_EXPONENTS(1.0,0.0,0.0,0.0,0.0,0.0,0.0);
#33=DIMENSIONAL_EXPONENTS(0.0,0.0,0.0,0.0,0.0,0.0,0.0);
#39=PRODUCT_CONTEXT('',#9,'mechanical');
#40=PRODUCT_DEFINITION_FORMATION_WITH_SPECIFIED_SOURCE(' ','NONE',#22,.NOT_KNOWN.);
#41=CLOSED_SHELL('',(#46));
#42=CARTESIAN_POINT('',(0.0,0.0,0.0));
#43=DIRECTION('',(0.0,0.0,1.0));
#44=DIRECTION('',(1.0,0.0,0.0));
#45= (NAMED_UNIT(#31)LENGTH_UNIT()SI_UNIT(.MILLI.,.METRE.));
#46=FACE_SURFACE('',(#48),#49,.F.);
#48=FACE_BOUND('',#50,.T.);
#49=CYLINDRICAL_SURFACE('',#51,0.105574127492314);
#50=EDGE_LOOP('',(#52,#53,#54,#55,#56));
#51=AXIS2_PLACEMENT_3D('',#57,#58,#59);
#52=ORIENTED_EDGE('',*,*,#60,.T.);
#53=ORIENTED_EDGE('',*,*,#61,.T.);
#54=ORIENTED_EDGE('',*,*,#62,.T.);
#55=ORIENTED_EDGE('',*,*,#63,.T.);
#56=ORIENTED_EDGE('',*,*,#64,.T.);
#57=CARTESIAN_POINT('',(0.0106951690392795,0.0501588466463522,0.104784363831089));
#58=DIRECTION('',(0.994846947601874,-0.000323386124417432,-0.101387604117315));
#59=DIRECTION('',(-0.000325061164545673,-0.999999947167618,0.0));
#60=EDGE_CURVE('',#65,#66,#67,.T.);
#61=EDGE_CURVE('',#66,#68,#69,.T.);
#62=EDGE_CURVE('',#68,#70,#71,.T.);
#63=EDGE_CURVE('',#70,#72,#73,.T.);
#64=EDGE_CURVE('',#72,#65,#74,.T.);
#65=VERTEX_POINT('',#75);
#66=VERTEX_POINT('',#76);
#67=CIRCLE('',#77,5.36272866056056);
#68=VERTEX_POINT('',#78);
#69=LINE('',#79,#80);
#70=VERTEX_POINT('',#81);
#71=LINE('',#82,#83);
#72=VERTEX_POINT('',#84);
#73=CIRCLE('',#85,5.36241917384821);
#74=LINE('',#86,#87);
#75=CARTESIAN_POINT('',(0.994247019290924,0.100013434886932,-0.10152692347765));
#76=CARTESIAN_POINT('',(-5.22727554448184E-37,0.100005723536015,-8.21303944641581E-38));
#77=AXIS2_PLACEMENT_3D('',#88,#89,#90);
#78=CARTESIAN_POINT('',(-3.83363283867451E-34,0.010000572539866,7.90799245630679E-35));
#79=CARTESIAN_POINT('',(1.18731908930759E-34,0.0550031480379403,-1.44091098812775E-35));
#80=VECTOR('',#91,1.0);
#81=CARTESIAN_POINT('',(-2.87770713924829E-08,-5.7280235523649E-06,-1.55669695232064E-05));
#82=CARTESIAN_POINT('',(-1.43885356962414E-08,0.0049974222581568,-7.78348476160318E-06));
#83=VECTOR('',#92,1.0);
#84=CARTESIAN_POINT('',(0.9942467212677,-2.38078137044795E-05,-0.101530998945236));
#85=AXIS2_PLACEMENT_3D('',#93,#94,#95);
#86=CARTESIAN_POINT('',(0.994267612695694,0.0499948135366139,-0.101404838263988));
#87=VECTOR('',#96,1.0);
#88=CARTESIAN_POINT('',(-0.0449362925865093,0.0900025041173463,-5.3625179481328));
#89=DIRECTION('',(0.000189267575250464,-0.999998219492322,0.00187754892614592));
#90=DIRECTION('',(0.0,-0.0018775489597749,-0.999998237403398));
#91=DIRECTION('',(-0.0,-1.0,-0.0));
#92=DIRECTION('',(-2.87589168305734E-06,-0.999998789870738,-0.00155571488048956));
#93=CARTESIAN_POINT('',(-0.0448968068907664,0.0107172778857664,-5.36220946951465));
#94=DIRECTION('',(0.000216894899668792,0.999997954663767,0.00201087664615961));
#95=DIRECTION('',(0.0,-0.00201087669345884,0.999997978185418));
#96=DIRECTION('',(1.60027694423763E-06,0.999999999757393,2.19693664879104E-05));
ENDSEC;
END-ISO-10303-21;
