ISO-10303-21;
HEADER;
FILE_DESCRIPTION(('STEP AP214'),'1');
FILE_NAME('SMAStripDeformed_16.stp','2026-05-05T08:39:02',(' '),(' '),'Spatial InterOp 3D',' ',' ');
FILE_SCHEMA(('AUTOMOTIVE_DESIGN { 1 0 10303 214 1 1 1 1 }'));
ENDSEC;
DATA;
#1=PRODUCT_DEFINITION_CONTEXT('',#9,'design');
#2=APPLICATION_PROTOCOL_DEFINITION('INTERNATIONAL STANDARD','automotive_design',1994,#9);
#3=PRODUCT_CATEGORY_RELATIONSHIP('NONE','NONE',#10,#11);
#4=SHAPE_DEFINITION_REPRESENTATION(#12,#13);
#5= (GEOMETRIC_REPRESENTATION_CONTEXT(3)GLOBAL_UNCERTAINTY_ASSIGNED_CONTEXT((#16))GLOBAL_UNIT_ASSIGNED_CONTEXT((#18,#19,#20))REPRESENTATION_CONTEXT('NONE','WORKSPACE'));
#9=APPLICATION_CONTEXT(' ');
#10=PRODUCT_CATEGORY('part','NONE');
#11=PRODUCT_RELATED_PRODUCT_CATEGORY('detail',' ',(#22));
#12=PRODUCT_DEFINITION_SHAPE('NONE','NONE',#23);
#13=MANIFOLD_SURFACE_SHAPE_REPRESENTATION('1',(#24,#25),#5);
#16=UNCERTAINTY_MEASURE_WITH_UNIT(LENGTH_MEASURE(1.0E-06),#18,'','');
#18= (CONVERSION_BASED_UNIT('MILLIMETRE',#28)LENGTH_UNIT()NAMED_UNIT(#31));
#19= (NAMED_UNIT(#33)PLANE_ANGLE_UNIT()SI_UNIT($,.RADIAN.));
#20= (NAMED_UNIT(#33)SOLID_ANGLE_UNIT()SI_UNIT($,.STERADIAN.));
#22=PRODUCT('1','','PART--DESC',(#39));
#23=PRODUCT_DEFINITION('','NONE',#40,#1);
#24=SHELL_BASED_SURFACE_MODEL('1',(#41));
#25=AXIS2_PLACEMENT_3D('',#42,#43,#44);
#28=LENGTH_MEASURE_WITH_UNIT(LENGTH_MEASURE(1.0),#45);
#31=DIMENSIONAL_EXPONENTS(1.0,0.0,0.0,0.0,0.0,0.0,0.0);
#33=DIMENSIONAL_EXPONENTS(0.0,0.0,0.0,0.0,0.0,0.0,0.0);
#39=PRODUCT_CONTEXT('',#9,'mechanical');
#40=PRODUCT_DEFINITION_FORMATION_WITH_SPECIFIED_SOURCE(' ','NONE',#22,.NOT_KNOWN.);
#41=CLOSED_SHELL('',(#46));
#42=CARTESIAN_POINT('',(0.0,0.0,0.0));
#43=DIRECTION('',(0.0,0.0,1.0));
#44=DIRECTION('',(1.0,0.0,0.0));
#45= (NAMED_UNIT(#31)LENGTH_UNIT()SI_UNIT(.MILLI.,.METRE.));
#46=FACE_SURFACE('',(#48),#49,.F.);
#48=FACE_BOUND('',#50,.T.);
#49=CYLINDRICAL_SURFACE('',#51,0.0653313974474197);
#50=EDGE_LOOP('',(#52,#53,#54,#55,#56,#57));
#51=AXIS2_PLACEMENT_3D('',#58,#59,#60);
#52=ORIENTED_EDGE('',*,*,#61,.T.);
#53=ORIENTED_EDGE('',*,*,#62,.T.);
#54=ORIENTED_EDGE('',*,*,#63,.T.);
#55=ORIENTED_EDGE('',*,*,#64,.T.);
#56=ORIENTED_EDGE('',*,*,#65,.T.);
#57=ORIENTED_EDGE('',*,*,#66,.T.);
#58=CARTESIAN_POINT('',(0.0101351949496134,0.0500897065156436,0.0601609914101661));
#59=DIRECTION('',(0.986123073236426,-0.000137171747549449,-0.16601585952751));
#60=DIRECTION('',(-0.000139102055255802,-0.999999990325309,4.30484907045552E-21));
#61=EDGE_CURVE('',#67,#68,#69,.T.);
#62=EDGE_CURVE('',#68,#70,#71,.T.);
#63=EDGE_CURVE('',#70,#72,#73,.T.);
#64=EDGE_CURVE('',#72,#74,#75,.T.);
#65=EDGE_CURVE('',#74,#76,#77,.T.);
#66=EDGE_CURVE('',#76,#67,#78,.T.);
#67=VERTEX_POINT('',#79);
#68=VERTEX_POINT('',#80);
#69=LINE('',#81,#82);
#70=VERTEX_POINT('',#83);
#71=LINE('',#84,#85);
#72=VERTEX_POINT('',#86);
#73=CIRCLE('',#87,3.87606822655426);
#74=VERTEX_POINT('',#88);
#75=LINE('',#89,#90);
#76=VERTEX_POINT('',#91);
#77=CIRCLE('',#92,3.86984731888118);
#78=LINE('',#93,#94);
#79=CARTESIAN_POINT('',(-5.90183844906278E-07,0.0910076647996902,-4.43106182501651E-05));
#80=CARTESIAN_POINT('',(2.17008237086702E-05,0.0706800669431686,0.00123701407574117));
#81=CARTESIAN_POINT('',(1.0555319931882E-05,0.0808438658714294,0.000596351728745503));
#82=VECTOR('',#95,1.0);
#83=CARTESIAN_POINT('',(-3.38951053890924E-06,-0.000148519204230979,-0.000246422830969095));
#84=CARTESIAN_POINT('',(1.37782034244083E-05,0.0352657738694688,0.00110690796282142));
#85=VECTOR('',#96,0.999999999999999);
#86=CARTESIAN_POINT('',(0.987270355224609,-0.00141491973772645,-0.166504755616188));
#87=AXIS2_PLACEMENT_3D('',#97,#98,#99);
#88=CARTESIAN_POINT('',(0.987278521060944,0.100001476705074,-0.166500717401505));
#89=CARTESIAN_POINT('',(0.987291723489761,0.0492932784836739,-0.16642801463604));
#90=VECTOR('',#100,1.0);
#91=CARTESIAN_POINT('',(-1.27223938761745E-05,0.101170487701893,-0.000700407137628645));
#92=AXIS2_PLACEMENT_3D('',#101,#102,#103);
#93=CARTESIAN_POINT('',(-6.65628886054037E-06,0.0960890762507915,-0.000372358877939405));
#94=VECTOR('',#104,1.0);
#95=DIRECTION('',(0.00109441568078995,-0.998018676073706,0.0629088583778488));
#96=DIRECTION('',(-0.000432421935830227,-0.999686679007618,-0.0250271218079383));
#97=CARTESIAN_POINT('',(-0.143145075132683,0.117715518581933,-3.87208913679283));
#98=DIRECTION('',(0.00574404494572206,0.999521097174292,0.0304069441272936));
#99=DIRECTION('',(0.0,0.0304074457638599,-0.999537586708033));
#100=DIRECTION('',(9.04996484404133E-05,0.999999995891569,-5.16480772408401E-06));
#101=CARTESIAN_POINT('',(-0.141723377611399,-0.0211729105091068,-3.86603634178331));
#102=DIRECTION('',(0.00489491688724354,-0.999492327462189,0.0314821716672138));
#103=DIRECTION('',(1.7553823781785E-20,-0.0314825488337348,-0.999504301701064));
#104=DIRECTION('',(0.00119130265342604,-0.997921883852132,0.0644243317931967));
ENDSEC;
END-ISO-10303-21;
