ISO-10303-21;
HEADER;
FILE_DESCRIPTION(('STEP AP214'),'1');
FILE_NAME('SMAStripDeformed_14.stp','2026-05-05T08:37:58',(' '),(' '),'Spatial InterOp 3D',' ',' ');
FILE_SCHEMA(('AUTOMOTIVE_DESIGN { 1 0 10303 214 1 1 1 1 }'));
ENDSEC;
DATA;
#1=PRODUCT_DEFINITION_CONTEXT('',#9,'design');
#2=APPLICATION_PROTOCOL_DEFINITION('INTERNATIONAL STANDARD','automotive_design',1994,#9);
#3=PRODUCT_CATEGORY_RELATIONSHIP('NONE','NONE',#10,#11);
#4=SHAPE_DEFINITION_REPRESENTATION(#12,#13);
#5= (GEOMETRIC_REPRESENTATION_CONTEXT(3)GLOBAL_UNCERTAINTY_ASSIGNED_CONTEXT((#16))GLOBAL_UNIT_ASSIGNED_CONTEXT((#18,#19,#20))REPRESENTATION_CONTEXT('NONE','WORKSPACE'));
#9=APPLICATION_CONTEXT(' ');
#10=PRODUCT_CATEGORY('part','NONE');
#11=PRODUCT_RELATED_PRODUCT_CATEGORY('detail',' ',(#22));
#12=PRODUCT_DEFINITION_SHAPE('NONE','NONE',#23);
#13=MANIFOLD_SURFACE_SHAPE_REPRESENTATION('1',(#24,#25),#5);
#16=UNCERTAINTY_MEASURE_WITH_UNIT(LENGTH_MEASURE(1.0E-06),#18,'','');
#18= (CONVERSION_BASED_UNIT('MILLIMETRE',#28)LENGTH_UNIT()NAMED_UNIT(#31));
#19= (NAMED_UNIT(#33)PLANE_ANGLE_UNIT()SI_UNIT($,.RADIAN.));
#20= (NAMED_UNIT(#33)SOLID_ANGLE_UNIT()SI_UNIT($,.STERADIAN.));
#22=PRODUCT('1','','PART--DESC',(#39));
#23=PRODUCT_DEFINITION('','NONE',#40,#1);
#24=SHELL_BASED_SURFACE_MODEL('1',(#41));
#25=AXIS2_PLACEMENT_3D('',#42,#43,#44);
#28=LENGTH_MEASURE_WITH_UNIT(LENGTH_MEASURE(1.0),#45);
#31=DIMENSIONAL_EXPONENTS(1.0,0.0,0.0,0.0,0.0,0.0,0.0);
#33=DIMENSIONAL_EXPONENTS(0.0,0.0,0.0,0.0,0.0,0.0,0.0);
#39=PRODUCT_CONTEXT('',#9,'mechanical');
#40=PRODUCT_DEFINITION_FORMATION_WITH_SPECIFIED_SOURCE(' ','NONE',#22,.NOT_KNOWN.);
#41=CLOSED_SHELL('',(#46));
#42=CARTESIAN_POINT('',(0.0,0.0,0.0));
#43=DIRECTION('',(0.0,0.0,1.0));
#44=DIRECTION('',(1.0,0.0,0.0));
#45= (NAMED_UNIT(#31)LENGTH_UNIT()SI_UNIT(.MILLI.,.METRE.));
#46=FACE_SURFACE('',(#48),#49,.F.);
#48=FACE_BOUND('',#50,.T.);
#49=CYLINDRICAL_SURFACE('',#51,0.0662177902686881);
#50=EDGE_LOOP('',(#52,#53,#54,#55,#56,#57,#58));
#51=AXIS2_PLACEMENT_3D('',#59,#60,#61);
#52=ORIENTED_EDGE('',*,*,#62,.T.);
#53=ORIENTED_EDGE('',*,*,#63,.T.);
#54=ORIENTED_EDGE('',*,*,#64,.T.);
#55=ORIENTED_EDGE('',*,*,#65,.T.);
#56=ORIENTED_EDGE('',*,*,#66,.T.);
#57=ORIENTED_EDGE('',*,*,#67,.T.);
#58=ORIENTED_EDGE('',*,*,#68,.T.);
#59=CARTESIAN_POINT('',(0.0102914032589919,0.0504774430207069,0.0624179662682701));
#60=DIRECTION('',(0.986792540454398,-0.000883514677986602,-0.161986732497971));
#61=DIRECTION('',(-0.000895339483872184,-0.999999599183524,0.0));
#62=EDGE_CURVE('',#69,#70,#71,.T.);
#63=EDGE_CURVE('',#70,#72,#73,.T.);
#64=EDGE_CURVE('',#72,#74,#75,.T.);
#65=EDGE_CURVE('',#74,#76,#77,.T.);
#66=EDGE_CURVE('',#76,#78,#79,.T.);
#67=EDGE_CURVE('',#78,#80,#81,.T.);
#68=EDGE_CURVE('',#80,#69,#82,.T.);
#69=VERTEX_POINT('',#83);
#70=VERTEX_POINT('',#84);
#71=LINE('',#85,#86);
#72=VERTEX_POINT('',#87);
#73=LINE('',#88,#89);
#74=VERTEX_POINT('',#90);
#75=LINE('',#91,#92);
#76=VERTEX_POINT('',#93);
#77=CIRCLE('',#94,3.90309477828443);
#78=VERTEX_POINT('',#95);
#79=LINE('',#96,#97);
#80=VERTEX_POINT('',#98);
#81=CIRCLE('',#99,3.89875219614952);
#82=LINE('',#100,#101);
#83=CARTESIAN_POINT('',(-4.26640610839968E-07,0.090846411883831,-3.44401887559798E-05));
#84=CARTESIAN_POINT('',(3.46104679920245E-05,0.050365574657917,0.00232422584667802));
#85=CARTESIAN_POINT('',(1.70919136905923E-05,0.070605993270874,0.00114489282896102));
#86=VECTOR('',#102,1.0);
#87=CARTESIAN_POINT('',(1.99230780708604E-05,0.030133381485939,0.00154456601012498));
#88=CARTESIAN_POINT('',(2.72667730314424E-05,0.040249478071928,0.00195803371025249));
#89=VECTOR('',#103,0.999999999999999);
#90=CARTESIAN_POINT('',(-3.38951053890924E-06,-0.000148519204230979,-0.000246422830969095));
#91=CARTESIAN_POINT('',(8.26678376597556E-06,0.014992431140854,0.000649071589577943));
#92=VECTOR('',#104,1.0);
#93=CARTESIAN_POINT('',(0.987847983837128,-0.00118117360398173,-0.161225140094757));
#94=AXIS2_PLACEMENT_3D('',#105,#106,#107);
#95=CARTESIAN_POINT('',(0.987850964069366,0.100014917552471,-0.161234870553017));
#96=CARTESIAN_POINT('',(0.987867057323456,0.0494168719742447,-0.161157719790936));
#97=VECTOR('',#108,1.0);
#98=CARTESIAN_POINT('',(-9.96134804154281E-06,0.100965827703476,-0.00063773657893762));
#99=AXIS2_PLACEMENT_3D('',#109,#110,#111);
#100=CARTESIAN_POINT('',(-5.19399432619139E-06,0.0959061197936535,-0.0003360883838468));
#101=VECTOR('',#112,1.0);
#102=DIRECTION('',(0.000864057551292088,-0.998306459969098,0.0581675630271434));
#103=DIRECTION('',(-0.000725298987193203,-0.999124930486318,-0.041819220725512));
#104=DIRECTION('',(-0.000768509044425116,-0.998255281643843,-0.0590406814325594));
#105=CARTESIAN_POINT('',(-0.127290166995556,0.0992907915138152,-3.90019953758933));
#106=DIRECTION('',(0.00464232788717848,0.99966400941612,0.0255013150616746));
#107=DIRECTION('',(3.30123888925291E-20,-0.0255015898581915,0.99967478157384));
#108=DIRECTION('',(7.95656259186886E-05,0.999999995972951,-4.15139631479711E-05));
#109=CARTESIAN_POINT('',(-0.126257348825169,-0.00330800272243944,-3.89598810463295));
#110=DIRECTION('',(0.00403745765472317,-0.999636523786339,0.0266555669241987));
#111=DIRECTION('',(1.43715162688774E-20,-0.0266557841839102,-0.999644671455583));
#112=DIRECTION('',(0.000940548738951977,-0.998227146168043,0.0595120157722338));
ENDSEC;
END-ISO-10303-21;
