ISO-10303-21;
HEADER;
FILE_DESCRIPTION(('STEP AP214'),'1');
FILE_NAME('SMAStripDeformed_07.stp','2026-05-05T08:34:07',(' '),(' '),'Spatial InterOp 3D',' ',' ');
FILE_SCHEMA(('AUTOMOTIVE_DESIGN { 1 0 10303 214 1 1 1 1 }'));
ENDSEC;
DATA;
#1=PRODUCT_DEFINITION_CONTEXT('',#9,'design');
#2=APPLICATION_PROTOCOL_DEFINITION('INTERNATIONAL STANDARD','automotive_design',1994,#9);
#3=PRODUCT_CATEGORY_RELATIONSHIP('NONE','NONE',#10,#11);
#4=SHAPE_DEFINITION_REPRESENTATION(#12,#13);
#5= (GEOMETRIC_REPRESENTATION_CONTEXT(3)GLOBAL_UNCERTAINTY_ASSIGNED_CONTEXT((#16))GLOBAL_UNIT_ASSIGNED_CONTEXT((#18,#19,#20))REPRESENTATION_CONTEXT('NONE','WORKSPACE'));
#9=APPLICATION_CONTEXT(' ');
#10=PRODUCT_CATEGORY('part','NONE');
#11=PRODUCT_RELATED_PRODUCT_CATEGORY('detail',' ',(#22));
#12=PRODUCT_DEFINITION_SHAPE('NONE','NONE',#23);
#13=MANIFOLD_SURFACE_SHAPE_REPRESENTATION('1',(#24,#25),#5);
#16=UNCERTAINTY_MEASURE_WITH_UNIT(LENGTH_MEASURE(1.0E-06),#18,'','');
#18= (CONVERSION_BASED_UNIT('MILLIMETRE',#28)LENGTH_UNIT()NAMED_UNIT(#31));
#19= (NAMED_UNIT(#33)PLANE_ANGLE_UNIT()SI_UNIT($,.RADIAN.));
#20= (NAMED_UNIT(#33)SOLID_ANGLE_UNIT()SI_UNIT($,.STERADIAN.));
#22=PRODUCT('1','','PART--DESC',(#39));
#23=PRODUCT_DEFINITION('','NONE',#40,#1);
#24=SHELL_BASED_SURFACE_MODEL('1',(#41));
#25=AXIS2_PLACEMENT_3D('',#42,#43,#44);
#28=LENGTH_MEASURE_WITH_UNIT(LENGTH_MEASURE(1.0),#45);
#31=DIMENSIONAL_EXPONENTS(1.0,0.0,0.0,0.0,0.0,0.0,0.0);
#33=DIMENSIONAL_EXPONENTS(0.0,0.0,0.0,0.0,0.0,0.0,0.0);
#39=PRODUCT_CONTEXT('',#9,'mechanical');
#40=PRODUCT_DEFINITION_FORMATION_WITH_SPECIFIED_SOURCE(' ','NONE',#22,.NOT_KNOWN.);
#41=CLOSED_SHELL('',(#46));
#42=CARTESIAN_POINT('',(0.0,0.0,0.0));
#43=DIRECTION('',(0.0,0.0,1.0));
#44=DIRECTION('',(1.0,0.0,0.0));
#45= (NAMED_UNIT(#31)LENGTH_UNIT()SI_UNIT(.MILLI.,.METRE.));
#46=FACE_SURFACE('',(#48),#49,.F.);
#48=FACE_BOUND('',#50,.T.);
#49=CYLINDRICAL_SURFACE('',#51,0.0722939901566249);
#50=EDGE_LOOP('',(#52,#53,#54,#55,#56,#57,#58,#59));
#51=AXIS2_PLACEMENT_3D('',#60,#61,#62);
#52=ORIENTED_EDGE('',*,*,#63,.T.);
#53=ORIENTED_EDGE('',*,*,#64,.T.);
#54=ORIENTED_EDGE('',*,*,#65,.T.);
#55=ORIENTED_EDGE('',*,*,#66,.T.);
#56=ORIENTED_EDGE('',*,*,#67,.T.);
#57=ORIENTED_EDGE('',*,*,#68,.T.);
#58=ORIENTED_EDGE('',*,*,#69,.T.);
#59=ORIENTED_EDGE('',*,*,#70,.T.);
#60=CARTESIAN_POINT('',(0.0100228350374281,0.0504161073990615,0.0713825720354941));
#61=DIRECTION('',(0.990369384683758,-0.000864086690845495,-0.138447590211264));
#62=DIRECTION('',(-0.000872488967572409,-0.999999619381428,0.0));
#63=EDGE_CURVE('',#71,#72,#73,.T.);
#64=EDGE_CURVE('',#72,#74,#75,.T.);
#65=EDGE_CURVE('',#74,#76,#77,.T.);
#66=EDGE_CURVE('',#76,#78,#79,.T.);
#67=EDGE_CURVE('',#78,#80,#81,.T.);
#68=EDGE_CURVE('',#80,#82,#83,.T.);
#69=EDGE_CURVE('',#82,#84,#85,.T.);
#70=EDGE_CURVE('',#84,#71,#86,.T.);
#71=VERTEX_POINT('',#87);
#72=VERTEX_POINT('',#88);
#73=LINE('',#89,#90);
#74=VERTEX_POINT('',#91);
#75=LINE('',#92,#93);
#76=VERTEX_POINT('',#94);
#77=LINE('',#95,#96);
#78=VERTEX_POINT('',#97);
#79=LINE('',#98,#99);
#80=VERTEX_POINT('',#100);
#81=CIRCLE('',#101,4.13545090994612);
#82=VERTEX_POINT('',#102);
#83=LINE('',#103,#104);
#84=VERTEX_POINT('',#105);
#85=CIRCLE('',#106,4.13601098609694);
#86=LINE('',#107,#108);
#87=CARTESIAN_POINT('',(-6.70243025524542E-08,0.0903385430574417,-6.78503784001805E-06));
#88=CARTESIAN_POINT('',(2.19630692299688E-05,0.0401346608996391,0.00210633780807257));
#89=CARTESIAN_POINT('',(1.09480224637082E-05,0.0652366019785404,0.00104977638511627));
#90=VECTOR('',#109,1.0);
#91=CARTESIAN_POINT('',(1.96418732230086E-05,0.0300712250173092,0.00199071527458727));
#92=CARTESIAN_POINT('',(2.08024712264887E-05,0.0351029429584742,0.00204852654132992));
#93=VECTOR('',#110,1.0);
#94=CARTESIAN_POINT('',(5.94734365222394E-06,0.00990757532417774,0.000795010186266154));
#95=CARTESIAN_POINT('',(1.27946084376163E-05,0.0199894001707435,0.00139286273042671));
#96=VECTOR('',#111,1.0);
#97=CARTESIAN_POINT('',(-1.78579341536533E-06,-0.000150517982547171,-0.000203034636797383));
#98=CARTESIAN_POINT('',(2.0807751184293E-06,0.00487852867081529,0.000295987774734385));
#99=VECTOR('',#112,1.0);
#100=CARTESIAN_POINT('',(0.990392923355103,-0.000461854273453355,-0.137702614068985));
#101=AXIS2_PLACEMENT_3D('',#113,#114,#115);
#102=CARTESIAN_POINT('',(0.990431785583496,0.100058168172836,-0.137586295604706));
#103=CARTESIAN_POINT('',(0.99042746424675,0.0497981569496915,-0.137571796774864));
#104=VECTOR('',#116,1.0);
#105=CARTESIAN_POINT('',(-5.40187102160417E-06,0.100376799702644,-0.000489298719912767));
#106=AXIS2_PLACEMENT_3D('',#117,#118,#119);
#107=CARTESIAN_POINT('',(-2.73444766207831E-06,0.095357671380043,-0.000248041878876393));
#108=VECTOR('',#120,1.0);
#109=DIRECTION('',(0.000438424306107314,-0.999115260531124,0.0420535843651039));
#110=DIRECTION('',(-0.000230641182800992,-0.999933977131939,-0.0114886109581147));
#111=DIRECTION('',(-0.000677978024327845,-0.998246147231827,-0.0591960292807826));
#112=DIRECTION('',(-0.000765089606667969,-0.995112667034472,-0.0987430734048436));
#113=CARTESIAN_POINT('',(-0.0679609814679976,0.0390745170547512,-4.13516443026069));
#114=DIRECTION('',(0.0014630415292356,0.999953586540193,0.00952282914313915));
#115=DIRECTION('',(0.0,-0.00952283933491825,0.999954656737495));
#116=DIRECTION('',(0.000311755479301571,0.999999646747489,0.00078058530578097));
#117=CARTESIAN_POINT('',(-0.0679422141318186,0.0570484354909161,-4.13575002526278));
#118=DIRECTION('',(0.00136237259142389,-0.999944232981028,0.0104725769944979));
#119=DIRECTION('',(0.0,-0.0104725867133722,-0.999945160960105));
#120=DIRECTION('',(0.000530838549052515,-0.998846616066099,0.0480120379044394));
ENDSEC;
END-ISO-10303-21;
