ISO-10303-21;
HEADER;
FILE_DESCRIPTION(('STEP AP214'),'1');
FILE_NAME('SMAStripDeformed_02.stp','2026-05-05T07:25:18',(' '),(' '),'Spatial InterOp 3D',' ',' ');
FILE_SCHEMA(('AUTOMOTIVE_DESIGN { 1 0 10303 214 1 1 1 1 }'));
ENDSEC;
DATA;
#1=PRODUCT_DEFINITION_CONTEXT('',#9,'design');
#2=APPLICATION_PROTOCOL_DEFINITION('INTERNATIONAL STANDARD','automotive_design',1994,#9);
#3=PRODUCT_CATEGORY_RELATIONSHIP('NONE','NONE',#10,#11);
#4=SHAPE_DEFINITION_REPRESENTATION(#12,#13);
#5= (GEOMETRIC_REPRESENTATION_CONTEXT(3)GLOBAL_UNCERTAINTY_ASSIGNED_CONTEXT((#16))GLOBAL_UNIT_ASSIGNED_CONTEXT((#18,#19,#20))REPRESENTATION_CONTEXT('NONE','WORKSPACE'));
#9=APPLICATION_CONTEXT(' ');
#10=PRODUCT_CATEGORY('part','NONE');
#11=PRODUCT_RELATED_PRODUCT_CATEGORY('detail',' ',(#22));
#12=PRODUCT_DEFINITION_SHAPE('NONE','NONE',#23);
#13=MANIFOLD_SURFACE_SHAPE_REPRESENTATION('1',(#24,#25),#5);
#16=UNCERTAINTY_MEASURE_WITH_UNIT(LENGTH_MEASURE(1.0E-06),#18,'','');
#18= (CONVERSION_BASED_UNIT('MILLIMETRE',#28)LENGTH_UNIT()NAMED_UNIT(#31));
#19= (NAMED_UNIT(#33)PLANE_ANGLE_UNIT()SI_UNIT($,.RADIAN.));
#20= (NAMED_UNIT(#33)SOLID_ANGLE_UNIT()SI_UNIT($,.STERADIAN.));
#22=PRODUCT('1','','PART--DESC',(#39));
#23=PRODUCT_DEFINITION('','NONE',#40,#1);
#24=SHELL_BASED_SURFACE_MODEL('1',(#41));
#25=AXIS2_PLACEMENT_3D('',#42,#43,#44);
#28=LENGTH_MEASURE_WITH_UNIT(LENGTH_MEASURE(1.0),#45);
#31=DIMENSIONAL_EXPONENTS(1.0,0.0,0.0,0.0,0.0,0.0,0.0);
#33=DIMENSIONAL_EXPONENTS(0.0,0.0,0.0,0.0,0.0,0.0,0.0);
#39=PRODUCT_CONTEXT('',#9,'mechanical');
#40=PRODUCT_DEFINITION_FORMATION_WITH_SPECIFIED_SOURCE(' ','NONE',#22,.NOT_KNOWN.);
#41=CLOSED_SHELL('',(#46));
#42=CARTESIAN_POINT('',(0.0,0.0,0.0));
#43=DIRECTION('',(0.0,0.0,1.0));
#44=DIRECTION('',(1.0,0.0,0.0));
#45= (NAMED_UNIT(#31)LENGTH_UNIT()SI_UNIT(.MILLI.,.METRE.));
#46=FACE_SURFACE('',(#48),#49,.T.);
#48=FACE_BOUND('',#50,.T.);
#49=CYLINDRICAL_SURFACE('',#51,3.66667799943215);
#50=EDGE_LOOP('',(#52,#53,#54,#55,#56));
#51=AXIS2_PLACEMENT_3D('',#57,#58,#59);
#52=ORIENTED_EDGE('',*,*,#60,.T.);
#53=ORIENTED_EDGE('',*,*,#61,.T.);
#54=ORIENTED_EDGE('',*,*,#62,.T.);
#55=ORIENTED_EDGE('',*,*,#63,.T.);
#56=ORIENTED_EDGE('',*,*,#64,.T.);
#57=CARTESIAN_POINT('',(-0.026453351467627,-0.000209224463928147,-3.66615127403024));
#58=DIRECTION('',(0.000388240452760933,0.999999922842427,-5.98706099742482E-05));
#59=DIRECTION('',(0.0,-5.98706144864166E-05,-0.999999998207755));
#60=EDGE_CURVE('',#65,#66,#67,.T.);
#61=EDGE_CURVE('',#66,#68,#69,.T.);
#62=EDGE_CURVE('',#68,#70,#71,.T.);
#63=EDGE_CURVE('',#70,#72,#73,.T.);
#64=EDGE_CURVE('',#72,#65,#74,.T.);
#65=VERTEX_POINT('',#75);
#66=VERTEX_POINT('',#76);
#67=CIRCLE('',#77,3.67310669793736);
#68=VERTEX_POINT('',#78);
#69=LINE('',#79,#80);
#70=VERTEX_POINT('',#81);
#71=LINE('',#82,#83);
#72=VERTEX_POINT('',#84);
#73=CIRCLE('',#85,3.67296063056795);
#74=LINE('',#86,#87);
#75=CARTESIAN_POINT('',(0.987143576145172,0.100014738738537,-0.142138808965683));
#76=CARTESIAN_POINT('',(-6.75960326249243E-37,0.100005723536015,-1.42072550571483E-38));
#77=AXIS2_PLACEMENT_3D('',#88,#89,#90);
#78=CARTESIAN_POINT('',(-6.19394467988905E-34,0.010000572539866,8.63779364703437E-35));
#79=CARTESIAN_POINT('',(1.34424184542386E-34,0.0550031480379403,2.65053542712531E-35));
#80=VECTOR('',#91,1.0);
#81=CARTESIAN_POINT('',(-2.87770713924829E-08,-5.7280235523649E-06,-1.55669695232064E-05));
#82=CARTESIAN_POINT('',(-1.43885356962414E-08,0.0049974222581568,-7.78348476160318E-06));
#83=VECTOR('',#92,1.0);
#84=CARTESIAN_POINT('',(0.987143099308014,-1.48349490700639E-05,-0.142142206430435));
#85=AXIS2_PLACEMENT_3D('',#93,#94,#95);
#86=CARTESIAN_POINT('',(0.987174183130264,0.0499999518947334,-0.142028905451298));
#87=VECTOR('',#96,1.0);
#88=CARTESIAN_POINT('',(-0.0271327721314117,0.099039576479721,-3.67274540136338));
#89=DIRECTION('',(3.76355428053234E-05,-0.999999964121441,0.000265218178919035));
#90=DIRECTION('',(1.11089986291759E-24,0.000265218179106867,0.999999964829658));
#91=DIRECTION('',(-0.0,-1.0,-0.0));
#92=DIRECTION('',(-2.87589168305734E-06,-0.999998789870738,-0.00155571488048956));
#93=CARTESIAN_POINT('',(-0.0271334542155648,0.000963821289751082,-3.67259739434951));
#94=DIRECTION('',(3.79110151509787E-05,0.999999963865186,0.000266143536087568));
#95=DIRECTION('',(0.0,0.000266143536278825,-0.999999964583808));
#96=DIRECTION('',(1.99282373849014E-06,0.9999999998798,1.53762224846216E-05));
ENDSEC;
END-ISO-10303-21;
