ISO-10303-21;
HEADER;
FILE_DESCRIPTION(('STEP AP214'),'1');
FILE_NAME('SMAStripDeformed_03.stp','2026-07-08T20:03:41',(' '),(' '),'Spatial InterOp 3D',' ',' ');
FILE_SCHEMA(('AUTOMOTIVE_DESIGN { 1 0 10303 214 1 1 1 1 }'));
ENDSEC;
DATA;
#1=PRODUCT_DEFINITION_CONTEXT('',#9,'design');
#2=APPLICATION_PROTOCOL_DEFINITION('INTERNATIONAL STANDARD','automotive_design',1994,#9);
#3=PRODUCT_CATEGORY_RELATIONSHIP('NONE','NONE',#10,#11);
#4=SHAPE_DEFINITION_REPRESENTATION(#12,#13);
#5= (GEOMETRIC_REPRESENTATION_CONTEXT(3)GLOBAL_UNCERTAINTY_ASSIGNED_CONTEXT((#16))GLOBAL_UNIT_ASSIGNED_CONTEXT((#18,#19,#20))REPRESENTATION_CONTEXT('NONE','WORKSPACE'));
#9=APPLICATION_CONTEXT(' ');
#10=PRODUCT_CATEGORY('part','NONE');
#11=PRODUCT_RELATED_PRODUCT_CATEGORY('detail',' ',(#22));
#12=PRODUCT_DEFINITION_SHAPE('NONE','NONE',#23);
#13=MANIFOLD_SURFACE_SHAPE_REPRESENTATION('1',(#24,#25),#5);
#16=UNCERTAINTY_MEASURE_WITH_UNIT(LENGTH_MEASURE(1.0E-06),#18,'','');
#18= (CONVERSION_BASED_UNIT('MILLIMETRE',#28)LENGTH_UNIT()NAMED_UNIT(#31));
#19= (NAMED_UNIT(#33)PLANE_ANGLE_UNIT()SI_UNIT($,.RADIAN.));
#20= (NAMED_UNIT(#33)SOLID_ANGLE_UNIT()SI_UNIT($,.STERADIAN.));
#22=PRODUCT('1','','PART--DESC',(#39));
#23=PRODUCT_DEFINITION('','NONE',#40,#1);
#24=SHELL_BASED_SURFACE_MODEL('1',(#41));
#25=AXIS2_PLACEMENT_3D('',#42,#43,#44);
#28=LENGTH_MEASURE_WITH_UNIT(LENGTH_MEASURE(1.0),#45);
#31=DIMENSIONAL_EXPONENTS(1.0,0.0,0.0,0.0,0.0,0.0,0.0);
#33=DIMENSIONAL_EXPONENTS(0.0,0.0,0.0,0.0,0.0,0.0,0.0);
#39=PRODUCT_CONTEXT('',#9,'mechanical');
#40=PRODUCT_DEFINITION_FORMATION_WITH_SPECIFIED_SOURCE(' ','NONE',#22,.NOT_KNOWN.);
#41=CLOSED_SHELL('',(#46));
#42=CARTESIAN_POINT('',(0.0,0.0,0.0));
#43=DIRECTION('',(0.0,0.0,1.0));
#44=DIRECTION('',(1.0,0.0,0.0));
#45= (NAMED_UNIT(#31)LENGTH_UNIT()SI_UNIT(.MILLI.,.METRE.));
#46=FACE_SURFACE('',(#48),#49,.T.);
#48=FACE_BOUND('',#50,.T.);
#49=CYLINDRICAL_SURFACE('',#51,1.91892264696695);
#50=EDGE_LOOP('',(#52,#53,#54,#55,#56));
#51=AXIS2_PLACEMENT_3D('',#57,#58,#59);
#52=ORIENTED_EDGE('',*,*,#60,.T.);
#53=ORIENTED_EDGE('',*,*,#61,.T.);
#54=ORIENTED_EDGE('',*,*,#62,.T.);
#55=ORIENTED_EDGE('',*,*,#63,.T.);
#56=ORIENTED_EDGE('',*,*,#64,.T.);
#57=CARTESIAN_POINT('',(-0.0596432629625565,-0.000343699012636447,-1.91595539600463));
#58=DIRECTION('',(0.000567137176359613,0.999999819764799,-0.000197042615625321));
#59=DIRECTION('',(1.60217859661588E-23,-0.000197042647314173,-0.999999980587097));
#60=EDGE_CURVE('',#65,#66,#67,.T.);
#61=EDGE_CURVE('',#66,#68,#69,.T.);
#62=EDGE_CURVE('',#68,#70,#71,.T.);
#63=EDGE_CURVE('',#70,#72,#73,.T.);
#64=EDGE_CURVE('',#72,#65,#74,.T.);
#65=VERTEX_POINT('',#75);
#66=VERTEX_POINT('',#76);
#67=LINE('',#77,#78);
#68=VERTEX_POINT('',#79);
#69=LINE('',#80,#81);
#70=VERTEX_POINT('',#82);
#71=B_SPLINE_CURVE_WITH_KNOTS('',3,(#83,#84,#85,#86,#87,#88,#89,#90,#91,#92,#93,#94,#95,#96,#97,#98,#99,#100),.UNSPECIFIED.,.F.,.F.,(4,1,1,1,1,1,1,1,1,1,1,1,1,1,1,4),(0.0,0.125091178029802,0.250182356059605,0.375273534089407,0.500364712119209,0.625455890149012,0.688001479163913,0.750547068178814,0.813092657193715,0.875638246208616,0.906911040716067,0.938183835223517,0.969456629730968,0.985093026984693,0.992911225611556,1.00072942423842),.UNSPECIFIED.);
#72=VERTEX_POINT('',#101);
#73=CIRCLE('',#102,19.3160200434868);
#74=B_SPLINE_CURVE_WITH_KNOTS('',3,(#103,#104,#105,#106,#107,#108,#109,#110,#111,#112,#113,#114,#115,#116,#117,#118,#119,#120,#121,#122,#123,#124,#125),.UNSPECIFIED.,.F.,.F.,(4,1,1,1,1,1,1,1,1,1,1,1,1,1,1,1,1,1,1,1,4),(0.0,0.00781831821629575,0.0156366364325915,0.031273272865183,0.062546545730366,0.093819818595549,0.125093091460732,0.187639637191098,0.250186182921464,0.31273272865183,0.375279274382196,0.500372365842928,0.62546545730366,0.750558548764392,0.813105094494758,0.875651640225124,0.906924913090307,0.93819818595549,0.969471458820673,0.985108095253264,1.00074473168586),.UNSPECIFIED.);
#75=CARTESIAN_POINT('',(-1.23195936976179E-36,0.100022383034229,9.84100970825227E-38));
#76=CARTESIAN_POINT('',(-3.22102097308985E-34,0.00999461300671101,-2.37368377822136E-34));
#77=CARTESIAN_POINT('',(1.13927167607269E-34,0.0550084980204701,5.52700913367331E-35));
#78=VECTOR('',#126,1.0);
#79=CARTESIAN_POINT('',(8.57415125210537E-06,-2.2523354346049E-05,0.000594431709032506));
#80=CARTESIAN_POINT('',(4.28707562605268E-06,0.00498604482618248,0.000297215854516253));
#81=VECTOR('',#127,1.0);
#82=CARTESIAN_POINT('',(0.948700785636902,-1.95797383639729E-05,-0.2810999751091));
#83=CARTESIAN_POINT('',(8.57415125210537E-06,-2.2523354346049E-05,0.000594431709032506));
#84=CARTESIAN_POINT('',(0.0416994339071593,-7.98089637316476E-05,-0.000122289330289046));
#85=CARTESIAN_POINT('',(0.125028209008913,-2.36177861752846E-05,-0.00460046962904577));
#86=CARTESIAN_POINT('',(0.24921168140863,-4.85321415098221E-05,-0.0202889062006866));
#87=CARTESIAN_POINT('',(0.371987376921547,-4.24996012791842E-05,-0.0446307612382276));
#88=CARTESIAN_POINT('',(0.49283392426529,-4.26188792405929E-05,-0.0772068247549585));
#89=CARTESIAN_POINT('',(0.591553937576458,-3.94840252448648E-05,-0.110851601330604));
#90=CARTESIAN_POINT('',(0.669147948167558,-3.64952570627489E-05,-0.141436051464552));
#91=CARTESIAN_POINT('',(0.72661158599012,-3.37683151504591E-05,-0.166150279190179));
#92=CARTESIAN_POINT('',(0.783306514749254,-3.06231435675253E-05,-0.192579720210454));
#93=CARTESIAN_POINT('',(0.829881178764843,-2.76188567505279E-05,-0.215989253623272));
#94=CARTESIAN_POINT('',(0.866729600850302,-2.50393547734093E-05,-0.235506613496213));
#95=CARTESIAN_POINT('',(0.89414142988669,-2.29603785434789E-05,-0.250561740512988));
#96=CARTESIAN_POINT('',(0.91684757721342,-2.13509450703956E-05,-0.26334876244501));
#97=CARTESIAN_POINT('',(0.932561136219176,-1.947104885207E-05,-0.272627871325379));
#98=CARTESIAN_POINT('',(0.941574687128608,-1.83613598936996E-05,-0.277856320713518));
#99=CARTESIAN_POINT('',(0.946333149326893,-1.92025330490984E-05,-0.280010994279748));
#100=CARTESIAN_POINT('',(0.948700785636902,-1.95797383639729E-05,-0.2810999751091));
#101=CARTESIAN_POINT('',(0.948700547218323,0.100027926266193,-0.281097531318665));
#102=AXIS2_PLACEMENT_3D('',#128,#129,#130);
#103=CARTESIAN_POINT('',(0.948700547218323,0.100027926266193,-0.281097531318665));
#104=CARTESIAN_POINT('',(0.946333008543239,0.100027381835368,-0.280008242934163));
#105=CARTESIAN_POINT('',(0.941574780229692,0.100026191764062,-0.27785293157842));
#106=CARTESIAN_POINT('',(0.932560884335697,0.100027079079106,-0.272624760727977));
#107=CARTESIAN_POINT('',(0.916847072833652,0.100028666544893,-0.263345543144822));
#108=CARTESIAN_POINT('',(0.894140465855318,0.100029744506021,-0.250558515779966));
#109=CARTESIAN_POINT('',(0.866728111203022,0.100031263522638,-0.235503355498834));
#110=CARTESIAN_POINT('',(0.829878999436141,0.100033097078973,-0.21598593341075));
#111=CARTESIAN_POINT('',(0.783303480042881,0.100035223819757,-0.192576327056691));
#112=CARTESIAN_POINT('',(0.726607552282448,0.100037411453984,-0.166146768276968));
#113=CARTESIAN_POINT('',(0.669142961963507,0.100039236430397,-0.141432333774413));
#114=CARTESIAN_POINT('',(0.591547683969274,0.100041244695137,-0.110847627037568));
#115=CARTESIAN_POINT('',(0.492826082939446,0.100042864240514,-0.0772025084207021));
#116=CARTESIAN_POINT('',(0.371977860146583,0.100043514681906,-0.0446257208547045));
#117=CARTESIAN_POINT('',(0.269662855334821,0.100042984990726,-0.024340579367711));
#118=CARTESIAN_POINT('',(0.18710814084561,0.100042003435862,-0.0124382078641209));
#119=CARTESIAN_POINT('',(0.13527939684179,0.100041170047533,-0.00683060914890517));
#120=CARTESIAN_POINT('',(0.0937154395348113,0.100040936527083,-0.00348490973950438));
#121=CARTESIAN_POINT('',(0.0625021782881025,0.100040738341441,-0.00148696279158213));
#122=CARTESIAN_POINT('',(0.0364660365083061,0.100039938740439,-0.000450130397887924));
#123=CARTESIAN_POINT('',(0.0156272218051453,0.100036468287223,0.000470399817443309));
#124=CARTESIAN_POINT('',(0.00520326128658508,0.100029227389965,0.000305254933516118));
#125=CARTESIAN_POINT('',(-1.23195936976179E-36,0.100022383034229,9.84100970825227E-38));
#126=DIRECTION('',(-0.0,-1.0,-0.0));
#127=DIRECTION('',(0.000854444924827991,-0.998243566430375,0.0592372518288545));
#128=CARTESIAN_POINT('',(0.948712425998304,0.0504765155882905,-19.5970541461099));
#129=DIRECTION('',(-0.999999999995728,-2.90531031219886E-06,3.19945081904867E-07));
#130=DIRECTION('',(2.90531031219901E-06,-0.99999999999578,-1.12240109536138E-28));
ENDSEC;
END-ISO-10303-21;
