ISO-10303-21;
HEADER;
FILE_DESCRIPTION(('STEP AP214'),'1');
FILE_NAME('SMAStripDeformed_04.stp','2026-07-08T20:04:26',(' '),(' '),'Spatial InterOp 3D',' ',' ');
FILE_SCHEMA(('AUTOMOTIVE_DESIGN { 1 0 10303 214 1 1 1 1 }'));
ENDSEC;
DATA;
#1=PRODUCT_DEFINITION_CONTEXT('',#9,'design');
#2=APPLICATION_PROTOCOL_DEFINITION('INTERNATIONAL STANDARD','automotive_design',1994,#9);
#3=PRODUCT_CATEGORY_RELATIONSHIP('NONE','NONE',#10,#11);
#4=SHAPE_DEFINITION_REPRESENTATION(#12,#13);
#5= (GEOMETRIC_REPRESENTATION_CONTEXT(3)GLOBAL_UNCERTAINTY_ASSIGNED_CONTEXT((#16))GLOBAL_UNIT_ASSIGNED_CONTEXT((#18,#19,#20))REPRESENTATION_CONTEXT('NONE','WORKSPACE'));
#9=APPLICATION_CONTEXT(' ');
#10=PRODUCT_CATEGORY('part','NONE');
#11=PRODUCT_RELATED_PRODUCT_CATEGORY('detail',' ',(#22));
#12=PRODUCT_DEFINITION_SHAPE('NONE','NONE',#23);
#13=MANIFOLD_SURFACE_SHAPE_REPRESENTATION('1',(#24,#25),#5);
#16=UNCERTAINTY_MEASURE_WITH_UNIT(LENGTH_MEASURE(1.0E-06),#18,'','');
#18= (CONVERSION_BASED_UNIT('MILLIMETRE',#28)LENGTH_UNIT()NAMED_UNIT(#31));
#19= (NAMED_UNIT(#33)PLANE_ANGLE_UNIT()SI_UNIT($,.RADIAN.));
#20= (NAMED_UNIT(#33)SOLID_ANGLE_UNIT()SI_UNIT($,.STERADIAN.));
#22=PRODUCT('1','','PART--DESC',(#39));
#23=PRODUCT_DEFINITION('','NONE',#40,#1);
#24=SHELL_BASED_SURFACE_MODEL('1',(#41));
#25=AXIS2_PLACEMENT_3D('',#42,#43,#44);
#28=LENGTH_MEASURE_WITH_UNIT(LENGTH_MEASURE(1.0),#45);
#31=DIMENSIONAL_EXPONENTS(1.0,0.0,0.0,0.0,0.0,0.0,0.0);
#33=DIMENSIONAL_EXPONENTS(0.0,0.0,0.0,0.0,0.0,0.0,0.0);
#39=PRODUCT_CONTEXT('',#9,'mechanical');
#40=PRODUCT_DEFINITION_FORMATION_WITH_SPECIFIED_SOURCE(' ','NONE',#22,.NOT_KNOWN.);
#41=CLOSED_SHELL('',(#46));
#42=CARTESIAN_POINT('',(0.0,0.0,0.0));
#43=DIRECTION('',(0.0,0.0,1.0));
#44=DIRECTION('',(1.0,0.0,0.0));
#45= (NAMED_UNIT(#31)LENGTH_UNIT()SI_UNIT(.MILLI.,.METRE.));
#46=FACE_SURFACE('',(#48),#49,.T.);
#48=FACE_BOUND('',#50,.T.);
#49=CYLINDRICAL_SURFACE('',#51,1.61303872136963);
#50=EDGE_LOOP('',(#52,#53,#54,#55,#56,#57));
#51=AXIS2_PLACEMENT_3D('',#58,#59,#60);
#52=ORIENTED_EDGE('',*,*,#61,.T.);
#53=ORIENTED_EDGE('',*,*,#62,.T.);
#54=ORIENTED_EDGE('',*,*,#63,.T.);
#55=ORIENTED_EDGE('',*,*,#64,.T.);
#56=ORIENTED_EDGE('',*,*,#65,.T.);
#57=ORIENTED_EDGE('',*,*,#66,.T.);
#58=CARTESIAN_POINT('',(-0.0879442103576742,0.000108350166936863,-1.60688216656335));
#59=DIRECTION('',(0.00135112759293773,-0.999999077233159,-0.000141375589804792));
#60=DIRECTION('',(0.0,-0.000141375718848774,0.999999990006453));
#61=EDGE_CURVE('',#67,#68,#69,.T.);
#62=EDGE_CURVE('',#68,#70,#71,.T.);
#63=EDGE_CURVE('',#70,#72,#73,.T.);
#64=EDGE_CURVE('',#72,#74,#75,.T.);
#65=EDGE_CURVE('',#74,#76,#77,.T.);
#66=EDGE_CURVE('',#76,#67,#78,.T.);
#67=VERTEX_POINT('',#79);
#68=VERTEX_POINT('',#80);
#69=LINE('',#81,#82);
#70=VERTEX_POINT('',#83);
#71=LINE('',#84,#85);
#72=VERTEX_POINT('',#86);
#73=B_SPLINE_CURVE_WITH_KNOTS('',3,(#87,#88,#89,#90,#91,#92,#93,#94,#95,#96,#97,#98,#99,#100,#101,#102,#103,#104,#105,#106,#107),.UNSPECIFIED.,.F.,.F.,(4,1,1,1,1,1,1,1,1,1,1,1,1,1,1,1,1,1,4),(0.0,0.125142032650423,0.250284065300846,0.375426097951269,0.500568130601692,0.625710163252115,0.688281179577327,0.750852195902539,0.81342321222775,0.844708720390356,0.875994228552962,0.907279736715567,0.938565244878173,0.954207998959476,0.969850753040779,0.97767213008143,0.985493507122082,0.993314884162733,1.00113626120338),.UNSPECIFIED.);
#74=VERTEX_POINT('',#108);
#75=CIRCLE('',#109,0.872344895694523);
#76=VERTEX_POINT('',#110);
#77=B_SPLINE_CURVE_WITH_KNOTS('',3,(#111,#112,#113,#114,#115,#116,#117,#118,#119,#120,#121),.UNSPECIFIED.,.F.,.F.,(4,1,1,1,1,1,1,1,4),(0.0,0.125115808557213,0.250231617114426,0.375347425671639,0.500463234228852,0.625579042786065,0.750694851343278,0.875810659900491,1.0009264684577),.UNSPECIFIED.);
#78=LINE('',#122,#123);
#79=CARTESIAN_POINT('',(-1.17608255717518E-33,0.0900193005800247,-9.0526650927029E-35));
#80=CARTESIAN_POINT('',(-1.20199520515423E-34,0.00999461300671101,-2.60568297080174E-34));
#81=CARTESIAN_POINT('',(-1.24719032267283E-34,0.0500069567933679,4.74628917812908E-35));
#82=VECTOR('',#124,1.0);
#83=CARTESIAN_POINT('',(5.35180224687792E-05,-2.22643138840795E-05,0.00203842995688319));
#84=CARTESIAN_POINT('',(2.67590112343896E-05,0.00498617434641346,0.0010192149784416));
#85=VECTOR('',#125,1.0);
#86=CARTESIAN_POINT('',(0.922467648983002,-2.66900315182284E-05,-0.344955861568451));
#87=CARTESIAN_POINT('',(5.35180224687792E-05,-2.22643138840795E-05,0.00203842995688319));
#88=CARTESIAN_POINT('',(0.0417419992111891,-0.000137923369188472,0.000583829273790832));
#89=CARTESIAN_POINT('',(0.124990852959195,-1.93164610757392E-05,-0.00599786607465415));
#90=CARTESIAN_POINT('',(0.248519431159353,-6.72608013462716E-05,-0.0267456179198544));
#91=CARTESIAN_POINT('',(0.369851064351531,-5.34622049965943E-05,-0.0578255128538297));
#92=CARTESIAN_POINT('',(0.488260405500659,-5.41569091517905E-05,-0.0986241503800391));
#93=CARTESIAN_POINT('',(0.58399322254109,-4.96003163921831E-05,-0.140172082936178));
#94=CARTESIAN_POINT('',(0.65857119067158,-4.58536031908152E-05,-0.177597656654354));
#95=CARTESIAN_POINT('',(0.71345126699643,-4.2425831547811E-05,-0.207673909597021));
#96=CARTESIAN_POINT('',(0.758269972078699,-3.93482543112729E-05,-0.234337704471463));
#97=CARTESIAN_POINT('',(0.79355710178193,-3.63615784224151E-05,-0.256586474331229));
#98=CARTESIAN_POINT('',(0.819733556241846,-3.35784121560462E-05,-0.273722727335807));
#99=CARTESIAN_POINT('',(0.845626205401288,-3.17966274007819E-05,-0.291284151501496));
#100=CARTESIAN_POINT('',(0.866944088436019,-3.02716670637674E-05,-0.306296656890331));
#101=CARTESIAN_POINT('',(0.883882737570503,-2.91421043565156E-05,-0.318460943707688));
#102=CARTESIAN_POINT('',(0.894334844050506,-2.80784052363955E-05,-0.326266248688914));
#103=CARTESIAN_POINT('',(0.90280869481119,-2.71546926523495E-05,-0.332318372169735));
#104=CARTESIAN_POINT('',(0.908891167880015,-2.61451861132522E-05,-0.337296876130741));
#105=CARTESIAN_POINT('',(0.915229699597663,-2.57107796819468E-05,-0.341837111374566));
#106=CARTESIAN_POINT('',(0.920080478590469,-2.63798901726218E-05,-0.34390775769322));
#107=CARTESIAN_POINT('',(0.922467648983002,-2.66900315182284E-05,-0.344955861568451));
#108=CARTESIAN_POINT('',(0.921311855316162,0.100019067525864,-0.346442073583603));
#109=AXIS2_PLACEMENT_3D('',#126,#127,#128);
#110=CARTESIAN_POINT('',(6.28276829957031E-05,0.100022748112679,0.00202019256539643));
#111=CARTESIAN_POINT('',(0.921311855316162,0.100019067525864,-0.346442073583603));
#112=CARTESIAN_POINT('',(0.888153820674024,0.100011354833617,-0.321146339064845));
#113=CARTESIAN_POINT('',(0.820344602223166,0.10003299924453,-0.272502501597519));
#114=CARTESIAN_POINT('',(0.713873991061809,0.100035035016119,-0.206643451208293));
#115=CARTESIAN_POINT('',(0.603035573336499,0.100043124662721,-0.148428159732202));
#116=CARTESIAN_POINT('',(0.48817355050109,0.100048817122997,-0.0985940752357327));
#117=CARTESIAN_POINT('',(0.369786242301752,0.10004972980364,-0.0578131738433831));
#118=CARTESIAN_POINT('',(0.248477866249779,0.100063546587184,-0.0267480092691531));
#119=CARTESIAN_POINT('',(0.124974199255898,0.100021893553811,-0.0060108830963845));
#120=CARTESIAN_POINT('',(0.0417426352291118,0.100129523542842,0.00056700724184365));
#121=CARTESIAN_POINT('',(6.28276829957031E-05,0.100022748112679,0.00202019256539643));
#122=CARTESIAN_POINT('',(3.14138414978515E-05,0.0950210243463516,0.00101009628269821));
#123=VECTOR('',#129,1.0);
#124=DIRECTION('',(-0.0,-1.0,-0.0));
#125=DIRECTION('',(0.00523540699006838,-0.979902229636647,0.199409655901557));
#126=CARTESIAN_POINT('',(0.391934870308819,0.0425580997565099,-1.03684295540454));
#127=DIRECTION('',(-0.793574759561953,-5.49861298788602E-05,0.608472758603632));
#128=DIRECTION('',(-6.92891615872691E-05,0.999999997599506,0.0));
#129=DIRECTION('',(-0.00615620231458334,-0.980192869097977,-0.197949590912785));
ENDSEC;
END-ISO-10303-21;
