ISO-10303-21;
HEADER;
FILE_DESCRIPTION(('STEP AP214'),'1');
FILE_NAME('SMAStripDeformed_05.stp','2026-07-17T20:20:31',(' '),(' '),'Spatial InterOp 3D',' ',' ');
FILE_SCHEMA(('AUTOMOTIVE_DESIGN { 1 0 10303 214 1 1 1 1 }'));
ENDSEC;
DATA;
#1=PRODUCT_DEFINITION_CONTEXT('',#9,'design');
#2=APPLICATION_PROTOCOL_DEFINITION('INTERNATIONAL STANDARD','automotive_design',1994,#9);
#3=PRODUCT_CATEGORY_RELATIONSHIP('NONE','NONE',#10,#11);
#4=SHAPE_DEFINITION_REPRESENTATION(#12,#13);
#5= (GEOMETRIC_REPRESENTATION_CONTEXT(3)GLOBAL_UNCERTAINTY_ASSIGNED_CONTEXT((#16))GLOBAL_UNIT_ASSIGNED_CONTEXT((#18,#19,#20))REPRESENTATION_CONTEXT('NONE','WORKSPACE'));
#9=APPLICATION_CONTEXT(' ');
#10=PRODUCT_CATEGORY('part','NONE');
#11=PRODUCT_RELATED_PRODUCT_CATEGORY('detail',' ',(#22));
#12=PRODUCT_DEFINITION_SHAPE('NONE','NONE',#23);
#13=MANIFOLD_SURFACE_SHAPE_REPRESENTATION('1',(#24,#25),#5);
#16=UNCERTAINTY_MEASURE_WITH_UNIT(LENGTH_MEASURE(1.0E-06),#18,'','');
#18= (CONVERSION_BASED_UNIT('MILLIMETRE',#28)LENGTH_UNIT()NAMED_UNIT(#31));
#19= (NAMED_UNIT(#33)PLANE_ANGLE_UNIT()SI_UNIT($,.RADIAN.));
#20= (NAMED_UNIT(#33)SOLID_ANGLE_UNIT()SI_UNIT($,.STERADIAN.));
#22=PRODUCT('1','','PART--DESC',(#39));
#23=PRODUCT_DEFINITION('','NONE',#40,#1);
#24=SHELL_BASED_SURFACE_MODEL('1',(#41));
#25=AXIS2_PLACEMENT_3D('',#42,#43,#44);
#28=LENGTH_MEASURE_WITH_UNIT(LENGTH_MEASURE(1.0),#45);
#31=DIMENSIONAL_EXPONENTS(1.0,0.0,0.0,0.0,0.0,0.0,0.0);
#33=DIMENSIONAL_EXPONENTS(0.0,0.0,0.0,0.0,0.0,0.0,0.0);
#39=PRODUCT_CONTEXT('',#9,'mechanical');
#40=PRODUCT_DEFINITION_FORMATION_WITH_SPECIFIED_SOURCE(' ','NONE',#22,.NOT_KNOWN.);
#41=CLOSED_SHELL('',(#46));
#42=CARTESIAN_POINT('',(0.0,0.0,0.0));
#43=DIRECTION('',(0.0,0.0,1.0));
#44=DIRECTION('',(1.0,0.0,0.0));
#45= (NAMED_UNIT(#31)LENGTH_UNIT()SI_UNIT(.MILLI.,.METRE.));
#46=FACE_SURFACE('',(#48),#49,.T.);
#48=FACE_BOUND('',#50,.T.);
#49=CYLINDRICAL_SURFACE('',#51,3.93635994322161);
#50=EDGE_LOOP('',(#52,#53,#54,#55));
#51=AXIS2_PLACEMENT_3D('',#56,#57,#58);
#52=ORIENTED_EDGE('',*,*,#59,.T.);
#53=ORIENTED_EDGE('',*,*,#60,.T.);
#54=ORIENTED_EDGE('',*,*,#61,.T.);
#55=ORIENTED_EDGE('',*,*,#62,.T.);
#56=CARTESIAN_POINT('',(-0.138704372448164,5.74453530797763E-05,-3.93156522592892));
#57=DIRECTION('',(9.62705720753897E-05,-0.99999999520385,-1.80077002604411E-05));
#58=DIRECTION('',(3.31450772084169E-25,-1.8007700343889E-05,0.999999999837861));
#59=EDGE_CURVE('',#63,#64,#65,.T.);
#60=EDGE_CURVE('',#64,#66,#67,.T.);
#61=EDGE_CURVE('',#66,#68,#69,.T.);
#62=EDGE_CURVE('',#68,#63,#70,.T.);
#63=VERTEX_POINT('',#71);
#64=VERTEX_POINT('',#72);
#65=LINE('',#73,#74);
#66=VERTEX_POINT('',#75);
#67=B_SPLINE_CURVE_WITH_KNOTS('',3,(#76,#77,#78,#79,#80,#81,#82,#83,#84,#85,#86),.UNSPECIFIED.,.F.,.F.,(4,1,1,1,1,1,1,1,4),(0.0,0.125050378762957,0.250100757525915,0.375151136288872,0.50020151505183,0.625251893814788,0.750302272577745,0.875352651340703,1.00040303010366),.UNSPECIFIED.);
#68=VERTEX_POINT('',#87);
#69=LINE('',#88,#89);
#70=B_SPLINE_CURVE_WITH_KNOTS('',3,(#90,#91,#92,#93,#94,#95,#96,#97,#98,#99,#100),.UNSPECIFIED.,.F.,.F.,(4,1,1,1,1,1,1,1,4),(0.0,0.125050364858955,0.250100729717911,0.375151094576866,0.500201459435822,0.625251824294777,0.750302189153733,0.875352554012688,1.00040291887164),.UNSPECIFIED.);
#71=CARTESIAN_POINT('',(0.985148072242737,-1.21000985018327E-05,-0.157320335507393));
#72=CARTESIAN_POINT('',(0.985148131847382,0.100011080503464,-0.157320454716682));
#73=CARTESIAN_POINT('',(0.985173225402832,0.049999490202481,-0.157226011157036));
#74=VECTOR('',#101,1.0);
#75=CARTESIAN_POINT('',(-1.24154648042095E-33,0.100000001490116,-3.9888449290861E-34));
#76=CARTESIAN_POINT('',(0.985148131847382,0.100011080503464,-0.157320454716682));
#77=CARTESIAN_POINT('',(0.944948290954614,0.100012647574556,-0.146298495138826));
#78=CARTESIAN_POINT('',(0.864358453344209,0.100013927173439,-0.124944175834499));
#79=CARTESIAN_POINT('',(0.742781111110314,0.100016165052806,-0.0956385873932717));
#80=CARTESIAN_POINT('',(0.620509235247711,0.100018163107323,-0.0693731579240727));
#81=CARTESIAN_POINT('',(0.497542240650317,0.100021385099113,-0.0465629693527794));
#82=CARTESIAN_POINT('',(0.373912556443582,0.100020182942491,-0.0276578212574145));
#83=CARTESIAN_POINT('',(0.249712129994067,0.100030617297347,-0.01293018646345));
#84=CARTESIAN_POINT('',(0.125034195519834,0.10000198163724,-0.00295762352382823));
#85=CARTESIAN_POINT('',(0.0416828212134346,0.100101504615141,-0.00020716177231922));
#86=CARTESIAN_POINT('',(-1.24154648042095E-33,0.100000001490116,-3.9888449290861E-34));
#87=CARTESIAN_POINT('',(-1.24161131628123E-33,-1.21534572153157E-33,-3.98949145097905E-34));
#88=CARTESIAN_POINT('',(3.26497787720553E-31,0.0500000007450581,4.89407433911183E-32));
#89=VECTOR('',#102,1.0);
#90=CARTESIAN_POINT('',(-1.24161131628123E-33,-1.21534572153157E-33,-3.98949145097905E-34));
#91=CARTESIAN_POINT('',(0.0416828164820683,-0.000101516708134689,-0.000207174558590428));
#92=CARTESIAN_POINT('',(0.125034221660527,-2.06426638480114E-06,-0.00295699180957804));
#93=CARTESIAN_POINT('',(0.249712015145164,-3.02104589034256E-05,-0.0129310748403813));
#94=CARTESIAN_POINT('',(0.373912566205016,-2.00660554204194E-05,-0.0276574855691042));
#95=CARTESIAN_POINT('',(0.497542085123371,-2.11049607783267E-05,-0.0465636301863596));
#96=CARTESIAN_POINT('',(0.620509171901711,-1.83092948685118E-05,-0.0693732616750188));
#97=CARTESIAN_POINT('',(0.742780964538491,-1.69286088030321E-05,-0.0956389117659234));
#98=CARTESIAN_POINT('',(0.864358719621751,-1.50879184102661E-05,-0.124942931524497));
#99=CARTESIAN_POINT('',(0.944947639263267,-1.43906715527988E-05,-0.146300553302923));
#100=CARTESIAN_POINT('',(0.985148072242737,-1.21000985018327E-05,-0.157320335507393));
#101=DIRECTION('',(3.57279019220352E-06,0.999999999980426,5.13650874781632E-06));
#102=DIRECTION('',(-0.0,-1.0,-0.0));
ENDSEC;
END-ISO-10303-21;
