ISO-10303-21;
HEADER;
FILE_DESCRIPTION(('STEP AP214'),'1');
FILE_NAME('SMAStripDeformed_07.stp','2026-07-17T20:21:23',(' '),(' '),'Spatial InterOp 3D',' ',' ');
FILE_SCHEMA(('AUTOMOTIVE_DESIGN { 1 0 10303 214 1 1 1 1 }'));
ENDSEC;
DATA;
#1=PRODUCT_DEFINITION_CONTEXT('',#9,'design');
#2=APPLICATION_PROTOCOL_DEFINITION('INTERNATIONAL STANDARD','automotive_design',1994,#9);
#3=PRODUCT_CATEGORY_RELATIONSHIP('NONE','NONE',#10,#11);
#4=SHAPE_DEFINITION_REPRESENTATION(#12,#13);
#5= (GEOMETRIC_REPRESENTATION_CONTEXT(3)GLOBAL_UNCERTAINTY_ASSIGNED_CONTEXT((#16))GLOBAL_UNIT_ASSIGNED_CONTEXT((#18,#19,#20))REPRESENTATION_CONTEXT('NONE','WORKSPACE'));
#9=APPLICATION_CONTEXT(' ');
#10=PRODUCT_CATEGORY('part','NONE');
#11=PRODUCT_RELATED_PRODUCT_CATEGORY('detail',' ',(#22));
#12=PRODUCT_DEFINITION_SHAPE('NONE','NONE',#23);
#13=MANIFOLD_SURFACE_SHAPE_REPRESENTATION('1',(#24,#25),#5);
#16=UNCERTAINTY_MEASURE_WITH_UNIT(LENGTH_MEASURE(1.0E-06),#18,'','');
#18= (CONVERSION_BASED_UNIT('MILLIMETRE',#28)LENGTH_UNIT()NAMED_UNIT(#31));
#19= (NAMED_UNIT(#33)PLANE_ANGLE_UNIT()SI_UNIT($,.RADIAN.));
#20= (NAMED_UNIT(#33)SOLID_ANGLE_UNIT()SI_UNIT($,.STERADIAN.));
#22=PRODUCT('1','','PART--DESC',(#39));
#23=PRODUCT_DEFINITION('','NONE',#40,#1);
#24=SHELL_BASED_SURFACE_MODEL('1',(#41));
#25=AXIS2_PLACEMENT_3D('',#42,#43,#44);
#28=LENGTH_MEASURE_WITH_UNIT(LENGTH_MEASURE(1.0),#45);
#31=DIMENSIONAL_EXPONENTS(1.0,0.0,0.0,0.0,0.0,0.0,0.0);
#33=DIMENSIONAL_EXPONENTS(0.0,0.0,0.0,0.0,0.0,0.0,0.0);
#39=PRODUCT_CONTEXT('',#9,'mechanical');
#40=PRODUCT_DEFINITION_FORMATION_WITH_SPECIFIED_SOURCE(' ','NONE',#22,.NOT_KNOWN.);
#41=CLOSED_SHELL('',(#46));
#42=CARTESIAN_POINT('',(0.0,0.0,0.0));
#43=DIRECTION('',(0.0,0.0,1.0));
#44=DIRECTION('',(1.0,0.0,0.0));
#45= (NAMED_UNIT(#31)LENGTH_UNIT()SI_UNIT(.MILLI.,.METRE.));
#46=FACE_SURFACE('',(#48),#49,.T.);
#48=FACE_BOUND('',#50,.T.);
#49=CYLINDRICAL_SURFACE('',#51,3.83952561445369);
#50=EDGE_LOOP('',(#52,#53,#54,#55));
#51=AXIS2_PLACEMENT_3D('',#56,#57,#58);
#52=ORIENTED_EDGE('',*,*,#59,.T.);
#53=ORIENTED_EDGE('',*,*,#60,.T.);
#54=ORIENTED_EDGE('',*,*,#61,.T.);
#55=ORIENTED_EDGE('',*,*,#62,.T.);
#56=CARTESIAN_POINT('',(-0.238612995112829,6.99949640829592E-05,-3.82760136036919));
#57=DIRECTION('',(0.000128875353036333,-0.999999991349174,-2.63210019366879E-05));
#58=DIRECTION('',(4.54896489086547E-25,-2.63210021552687E-05,0.999999999653602));
#59=EDGE_CURVE('',#63,#64,#65,.T.);
#60=EDGE_CURVE('',#64,#66,#67,.T.);
#61=EDGE_CURVE('',#66,#68,#69,.T.);
#62=EDGE_CURVE('',#68,#63,#70,.T.);
#63=VERTEX_POINT('',#71);
#64=VERTEX_POINT('',#72);
#65=CIRCLE('',#73,25.9766871364441);
#66=VERTEX_POINT('',#74);
#67=B_SPLINE_CURVE_WITH_KNOTS('',3,(#75,#76,#77,#78,#79,#80,#81,#82,#83,#84,#85),.UNSPECIFIED.,.F.,.F.,(4,1,1,1,1,1,1,1,4),(0.0,0.125050157602209,0.250100315204418,0.375150472806627,0.500200630408836,0.625250788011045,0.750300945613254,0.875351103215463,1.00040126081767),.UNSPECIFIED.);
#68=VERTEX_POINT('',#86);
#69=LINE('',#87,#88);
#70=B_SPLINE_CURVE_WITH_KNOTS('',3,(#89,#90,#91,#92,#93,#94,#95,#96,#97,#98,#99),.UNSPECIFIED.,.F.,.F.,(4,1,1,1,1,1,1,1,4),(0.0,0.125050147501108,0.250100295002216,0.375150442503324,0.500200590004432,0.62525073750554,0.750300885006648,0.875351032507757,1.00040118000886),.UNSPECIFIED.);
#71=CARTESIAN_POINT('',(0.980514764785767,-2.4375610792049E-06,-0.182614415884018));
#72=CARTESIAN_POINT('',(0.980514824390411,0.100001603364944,-0.182614341378212));
#73=AXIS2_PLACEMENT_3D('',#100,#101,#102);
#74=CARTESIAN_POINT('',(-1.74478993834537E-33,0.100000001490116,-5.53246232543517E-34));
#75=CARTESIAN_POINT('',(0.980514824390411,0.100001603364944,-0.182614341378212));
#76=CARTESIAN_POINT('',(0.940389736973765,0.100002883726298,-0.171323547981023));
#77=CARTESIAN_POINT('',(0.860107588458599,0.100006508864225,-0.14885440662451));
#78=CARTESIAN_POINT('',(0.739350387480456,0.100011515696315,-0.116358915493085));
#79=CARTESIAN_POINT('',(0.618041978420671,0.100016117994671,-0.0859698443986603));
#80=CARTESIAN_POINT('',(0.496010776915841,0.100022075231749,-0.058597889992454));
#81=CARTESIAN_POINT('',(0.373148761623317,0.100022299177373,-0.0352049613668753));
#82=CARTESIAN_POINT('',(0.24946360390831,0.100039556475336,-0.0165761973502072));
#83=CARTESIAN_POINT('',(0.125018737199273,0.0999984133974593,-0.00388622846808388));
#84=CARTESIAN_POINT('',(0.041682296398186,0.100133195150282,-0.00027034014402813));
#85=CARTESIAN_POINT('',(-1.74478993834537E-33,0.100000001490116,-5.53246232543517E-34));
#86=CARTESIAN_POINT('',(-1.74493595678426E-33,-1.70163588768775E-33,-5.53434678981633E-34));
#87=CARTESIAN_POINT('',(7.7674221674087E-31,0.0500000007450581,1.21732314180195E-31));
#88=VECTOR('',#103,1.0);
#89=CARTESIAN_POINT('',(-1.74493595678426E-33,-1.70163588768775E-33,-5.53434678981633E-34));
#90=CARTESIAN_POINT('',(0.0416822925957187,-0.000133231810772724,-0.000270388464240474));
#91=CARTESIAN_POINT('',(0.125018749587015,1.59241561030583E-06,-0.0038860324141694));
#92=CARTESIAN_POINT('',(0.249463506572198,-3.92449695389269E-05,-0.0165768987329381));
#93=CARTESIAN_POINT('',(0.373148770259317,-2.21722016266887E-05,-0.0352048423061576));
#94=CARTESIAN_POINT('',(0.49601065839164,-2.18634096698199E-05,-0.0585984243247277));
#95=CARTESIAN_POINT('',(0.618041952775487,-1.62216778765901E-05,-0.0859698995468027));
#96=CARTESIAN_POINT('',(0.739350254881805,-1.18685668046335E-05,-0.116359345653781));
#97=CARTESIAN_POINT('',(0.860107743680832,-7.40249898813278E-06,-0.14885374469068));
#98=CARTESIAN_POINT('',(0.940389507748229,-3.66294487008284E-06,-0.171324237725899));
#99=CARTESIAN_POINT('',(0.980514764785767,-2.4375610792049E-06,-0.182614415884018));
#100=CARTESIAN_POINT('',(0.98051894656012,0.0500498941397724,-26.1592537615709));
#101=DIRECTION('',(-0.999999999999145,1.30534762590858E-06,8.10951472763275E-08));
#102=DIRECTION('',(-1.30534762590859E-06,-0.999999999999148,0.0));
#103=DIRECTION('',(-0.0,-1.0,-0.0));
ENDSEC;
END-ISO-10303-21;
