ISO-10303-21;
HEADER;
FILE_DESCRIPTION(('STEP AP214'),'1');
FILE_NAME('SMAStripDeformed_06.stp','2026-07-17T20:20:58',(' '),(' '),'Spatial InterOp 3D',' ',' ');
FILE_SCHEMA(('AUTOMOTIVE_DESIGN { 1 0 10303 214 1 1 1 1 }'));
ENDSEC;
DATA;
#1=PRODUCT_DEFINITION_CONTEXT('',#9,'design');
#2=APPLICATION_PROTOCOL_DEFINITION('INTERNATIONAL STANDARD','automotive_design',1994,#9);
#3=PRODUCT_CATEGORY_RELATIONSHIP('NONE','NONE',#10,#11);
#4=SHAPE_DEFINITION_REPRESENTATION(#12,#13);
#5= (GEOMETRIC_REPRESENTATION_CONTEXT(3)GLOBAL_UNCERTAINTY_ASSIGNED_CONTEXT((#16))GLOBAL_UNIT_ASSIGNED_CONTEXT((#18,#19,#20))REPRESENTATION_CONTEXT('NONE','WORKSPACE'));
#9=APPLICATION_CONTEXT(' ');
#10=PRODUCT_CATEGORY('part','NONE');
#11=PRODUCT_RELATED_PRODUCT_CATEGORY('detail',' ',(#22));
#12=PRODUCT_DEFINITION_SHAPE('NONE','NONE',#23);
#13=MANIFOLD_SURFACE_SHAPE_REPRESENTATION('1',(#24,#25),#5);
#16=UNCERTAINTY_MEASURE_WITH_UNIT(LENGTH_MEASURE(1.0E-06),#18,'','');
#18= (CONVERSION_BASED_UNIT('MILLIMETRE',#28)LENGTH_UNIT()NAMED_UNIT(#31));
#19= (NAMED_UNIT(#33)PLANE_ANGLE_UNIT()SI_UNIT($,.RADIAN.));
#20= (NAMED_UNIT(#33)SOLID_ANGLE_UNIT()SI_UNIT($,.STERADIAN.));
#22=PRODUCT('1','','PART--DESC',(#39));
#23=PRODUCT_DEFINITION('','NONE',#40,#1);
#24=SHELL_BASED_SURFACE_MODEL('1',(#41));
#25=AXIS2_PLACEMENT_3D('',#42,#43,#44);
#28=LENGTH_MEASURE_WITH_UNIT(LENGTH_MEASURE(1.0),#45);
#31=DIMENSIONAL_EXPONENTS(1.0,0.0,0.0,0.0,0.0,0.0,0.0);
#33=DIMENSIONAL_EXPONENTS(0.0,0.0,0.0,0.0,0.0,0.0,0.0);
#39=PRODUCT_CONTEXT('',#9,'mechanical');
#40=PRODUCT_DEFINITION_FORMATION_WITH_SPECIFIED_SOURCE(' ','NONE',#22,.NOT_KNOWN.);
#41=CLOSED_SHELL('',(#46));
#42=CARTESIAN_POINT('',(0.0,0.0,0.0));
#43=DIRECTION('',(0.0,0.0,1.0));
#44=DIRECTION('',(1.0,0.0,0.0));
#45= (NAMED_UNIT(#31)LENGTH_UNIT()SI_UNIT(.MILLI.,.METRE.));
#46=FACE_SURFACE('',(#48),#49,.T.);
#48=FACE_BOUND('',#50,.T.);
#49=CYLINDRICAL_SURFACE('',#51,3.8202487061602);
#50=EDGE_LOOP('',(#52,#53,#54,#55));
#51=AXIS2_PLACEMENT_3D('',#56,#57,#58);
#52=ORIENTED_EDGE('',*,*,#59,.T.);
#53=ORIENTED_EDGE('',*,*,#60,.T.);
#54=ORIENTED_EDGE('',*,*,#61,.T.);
#55=ORIENTED_EDGE('',*,*,#62,.T.);
#56=CARTESIAN_POINT('',(-0.1854295408723,6.23036447080883E-05,-3.81233350806151));
#57=DIRECTION('',(0.000109070414945624,-0.999999993817509,-2.16477717385151E-05));
#58=DIRECTION('',(0.0,-2.16477718672799E-05,0.999999999765687));
#59=EDGE_CURVE('',#63,#64,#65,.T.);
#60=EDGE_CURVE('',#64,#66,#67,.T.);
#61=EDGE_CURVE('',#66,#68,#69,.T.);
#62=EDGE_CURVE('',#68,#63,#70,.T.);
#63=VERTEX_POINT('',#71);
#64=VERTEX_POINT('',#72);
#65=LINE('',#73,#74);
#66=VERTEX_POINT('',#75);
#67=B_SPLINE_CURVE_WITH_KNOTS('',3,(#76,#77,#78,#79,#80,#81,#82,#83,#84,#85,#86),.UNSPECIFIED.,.F.,.F.,(4,1,1,1,1,1,1,1,4),(0.0,0.12505113948808,0.250102278976159,0.375153418464239,0.500204557952319,0.625255697440399,0.750306836928479,0.875357976416558,1.00040911590464),.UNSPECIFIED.);
#68=VERTEX_POINT('',#87);
#69=LINE('',#88,#89);
#70=B_SPLINE_CURVE_WITH_KNOTS('',3,(#90,#91,#92,#93,#94,#95,#96,#97,#98,#99,#100),.UNSPECIFIED.,.F.,.F.,(4,1,1,1,1,1,1,1,4),(0.0,0.125051112898802,0.250102225797603,0.375153338696405,0.500204451595206,0.625255564494008,0.750306677392809,0.875357790291611,1.00040890319041),.UNSPECIFIED.);
#71=CARTESIAN_POINT('',(0.982472956180573,-8.00884936325019E-06,-0.172059163451195));
#72=CARTESIAN_POINT('',(0.982473134994507,0.100006729364395,-0.172059193253517));
#73=CARTESIAN_POINT('',(0.982489943504333,0.0499993602575159,-0.171997226774693));
#74=VECTOR('',#101,1.0);
#75=CARTESIAN_POINT('',(-1.50691515663854E-33,0.100000001490116,-4.80724338158277E-34));
#76=CARTESIAN_POINT('',(0.982473134994507,0.100006729364395,-0.172059193253517));
#77=CARTESIAN_POINT('',(0.942359921856872,0.100008187652547,-0.160725082230692));
#78=CARTESIAN_POINT('',(0.862013403760715,0.100010584028425,-0.138478930834979));
#79=CARTESIAN_POINT('',(0.740945029087226,0.100014255860865,-0.107146605482934));
#80=CARTESIAN_POINT('',(0.619220256821819,0.100017525293994,-0.0784561751876722));
#81=CARTESIAN_POINT('',(0.496758185435285,0.100022101414926,-0.0530710216496316));
#82=CARTESIAN_POINT('',(0.373528599431788,0.100021537674194,-0.0316973242815163));
#83=CARTESIAN_POINT('',(0.249589817282759,0.100035511182061,-0.0148636778723053));
#84=CARTESIAN_POINT('',(0.125027515128114,0.1000001922692,-0.00344796619491249));
#85=CARTESIAN_POINT('',(0.041682851126875,0.100118257319522,-0.000240583713651121));
#86=CARTESIAN_POINT('',(-1.50691515663854E-33,0.100000001490116,-4.80724338158277E-34));
#87=CARTESIAN_POINT('',(-1.50722106067624E-33,-1.47290828874025E-33,-4.80832015277522E-34));
#88=CARTESIAN_POINT('',(5.36901966602484E-31,0.0500000007450581,8.21401363018441E-32));
#89=VECTOR('',#102,1.0);
#90=CARTESIAN_POINT('',(-1.50722106067624E-33,-1.47290828874025E-33,-4.80832015277522E-34));
#91=CARTESIAN_POINT('',(0.0416828418826202,-0.000118301946202462,-0.000240627044492165));
#92=CARTESIAN_POINT('',(0.125027520818377,-2.28330599637083E-07,-0.0034475383148378));
#93=CARTESIAN_POINT('',(0.249589684976659,-3.51827492982483E-05,-0.0148644099354069));
#94=CARTESIAN_POINT('',(0.373528574153045,-2.1431694430665E-05,-0.0316970284482787));
#95=CARTESIAN_POINT('',(0.496757974780244,-2.180706567766E-05,-0.053071660426145));
#96=CARTESIAN_POINT('',(0.619220131037575,-1.76235839618093E-05,-0.0784562641848232));
#97=CARTESIAN_POINT('',(0.740944781712038,-1.47826534375921E-05,-0.107147049705901));
#98=CARTESIAN_POINT('',(0.862013509730033,-1.1825692122608E-05,-0.138477973713096));
#99=CARTESIAN_POINT('',(0.942359437078286,-9.4708035444405E-06,-0.160726167941194));
#100=CARTESIAN_POINT('',(0.982472956180573,-8.00884936325019E-06,-0.172059163451195));
#101=DIRECTION('',(2.76254760096663E-06,0.99999999999384,2.16518457709221E-06));
#102=DIRECTION('',(-0.0,-1.0,-0.0));
ENDSEC;
END-ISO-10303-21;
