ISO-10303-21;
HEADER;
FILE_DESCRIPTION(('STEP AP214'),'1');
FILE_NAME('SMAStripDeformed_09.stp','2026-07-21T15:41:19',(' '),(' '),'Spatial InterOp 3D',' ',' ');
FILE_SCHEMA(('AUTOMOTIVE_DESIGN { 1 0 10303 214 1 1 1 1 }'));
ENDSEC;
DATA;
#1=PRODUCT_DEFINITION_CONTEXT('',#9,'design');
#2=APPLICATION_PROTOCOL_DEFINITION('INTERNATIONAL STANDARD','automotive_design',1994,#9);
#3=PRODUCT_CATEGORY_RELATIONSHIP('NONE','NONE',#10,#11);
#4=SHAPE_DEFINITION_REPRESENTATION(#12,#13);
#5= (GEOMETRIC_REPRESENTATION_CONTEXT(3)GLOBAL_UNCERTAINTY_ASSIGNED_CONTEXT((#16))GLOBAL_UNIT_ASSIGNED_CONTEXT((#18,#19,#20))REPRESENTATION_CONTEXT('NONE','WORKSPACE'));
#9=APPLICATION_CONTEXT(' ');
#10=PRODUCT_CATEGORY('part','NONE');
#11=PRODUCT_RELATED_PRODUCT_CATEGORY('detail',' ',(#22));
#12=PRODUCT_DEFINITION_SHAPE('NONE','NONE',#23);
#13=MANIFOLD_SURFACE_SHAPE_REPRESENTATION('1',(#24,#25),#5);
#16=UNCERTAINTY_MEASURE_WITH_UNIT(LENGTH_MEASURE(1.0E-06),#18,'','');
#18= (CONVERSION_BASED_UNIT('MILLIMETRE',#28)LENGTH_UNIT()NAMED_UNIT(#31));
#19= (NAMED_UNIT(#33)PLANE_ANGLE_UNIT()SI_UNIT($,.RADIAN.));
#20= (NAMED_UNIT(#33)SOLID_ANGLE_UNIT()SI_UNIT($,.STERADIAN.));
#22=PRODUCT('1','','PART--DESC',(#39));
#23=PRODUCT_DEFINITION('','NONE',#40,#1);
#24=SHELL_BASED_SURFACE_MODEL('1',(#41));
#25=AXIS2_PLACEMENT_3D('',#42,#43,#44);
#28=LENGTH_MEASURE_WITH_UNIT(LENGTH_MEASURE(1.0),#45);
#31=DIMENSIONAL_EXPONENTS(1.0,0.0,0.0,0.0,0.0,0.0,0.0);
#33=DIMENSIONAL_EXPONENTS(0.0,0.0,0.0,0.0,0.0,0.0,0.0);
#39=PRODUCT_CONTEXT('',#9,'mechanical');
#40=PRODUCT_DEFINITION_FORMATION_WITH_SPECIFIED_SOURCE(' ','NONE',#22,.NOT_KNOWN.);
#41=CLOSED_SHELL('',(#46));
#42=CARTESIAN_POINT('',(0.0,0.0,0.0));
#43=DIRECTION('',(0.0,0.0,1.0));
#44=DIRECTION('',(1.0,0.0,0.0));
#45= (NAMED_UNIT(#31)LENGTH_UNIT()SI_UNIT(.MILLI.,.METRE.));
#46=FACE_SURFACE('',(#48),#49,.T.);
#48=FACE_BOUND('',#50,.T.);
#49=CYLINDRICAL_SURFACE('',#51,4.16052526131619);
#50=EDGE_LOOP('',(#52,#53,#54,#55));
#51=AXIS2_PLACEMENT_3D('',#56,#57,#58);
#52=ORIENTED_EDGE('',*,*,#59,.T.);
#53=ORIENTED_EDGE('',*,*,#60,.T.);
#54=ORIENTED_EDGE('',*,*,#61,.T.);
#55=ORIENTED_EDGE('',*,*,#62,.T.);
#56=CARTESIAN_POINT('',(-0.368904130811741,7.74015066393299E-05,-4.13722957919721));
#57=DIRECTION('',(0.000179740283226565,-0.99999998324344,-3.47354340089524E-05));
#58=DIRECTION('',(0.0,-3.47354345700438E-05,0.999999999396725));
#59=EDGE_CURVE('',#63,#64,#65,.T.);
#60=EDGE_CURVE('',#64,#66,#67,.T.);
#61=EDGE_CURVE('',#66,#68,#69,.T.);
#62=EDGE_CURVE('',#68,#63,#70,.T.);
#63=VERTEX_POINT('',#71);
#64=VERTEX_POINT('',#72);
#65=LINE('',#73,#74);
#66=VERTEX_POINT('',#75);
#67=B_SPLINE_CURVE_WITH_KNOTS('',3,(#76,#77,#78,#79,#80,#81,#82,#83,#84,#85,#86),.UNSPECIFIED.,.F.,.F.,(4,1,1,1,1,1,1,1,4),(0.0,0.12504234685174,0.250084693703479,0.375127040555219,0.500169387406959,0.625211734258698,0.750254081110438,0.875296427962178,1.00033877481392),.UNSPECIFIED.);
#68=VERTEX_POINT('',#87);
#69=LINE('',#88,#89);
#70=B_SPLINE_CURVE_WITH_KNOTS('',3,(#90,#91,#92,#93,#94,#95,#96,#97,#98,#99,#100),.UNSPECIFIED.,.F.,.F.,(4,1,1,1,1,1,1,1,4),(0.0,0.125042331012118,0.250084662024237,0.375126993036355,0.500169324048473,0.625211655060591,0.75025398607271,0.875296317084828,1.00033864809695),.UNSPECIFIED.);
#71=CARTESIAN_POINT('',(0.978552103042603,1.47929358718102E-05,-0.193569988012314));
#72=CARTESIAN_POINT('',(0.978552222251892,0.0999843999743462,-0.193570002913475));
#73=CARTESIAN_POINT('',(0.978529214859009,0.049999596455109,-0.193657450377941));
#74=VECTOR('',#101,1.0);
#75=CARTESIAN_POINT('',(-2.08016692550061E-33,0.100000001490116,-6.54233457317889E-34));
#76=CARTESIAN_POINT('',(0.978552222251892,0.0999843999743462,-0.193570002913475));
#77=CARTESIAN_POINT('',(0.93811746468393,0.0999870697338349,-0.183454767617573));
#78=CARTESIAN_POINT('',(0.857447830724883,0.0999921774711483,-0.162432474272181));
#79=CARTESIAN_POINT('',(0.736791757784391,0.100002495134184,-0.12960322872161));
#80=CARTESIAN_POINT('',(0.616014233722853,0.100011002955526,-0.0972201859734991));
#81=CARTESIAN_POINT('',(0.4946989027763,0.100020682543942,-0.0668824505001384));
#82=CARTESIAN_POINT('',(0.372509396767423,0.10002417299848,-0.0402320195290899));
#83=CARTESIAN_POINT('',(0.24926556633567,0.100047934858211,-0.0188550775671802));
#84=CARTESIAN_POINT('',(0.124995666637884,0.0999937044303447,-0.00451154474006234));
#85=CARTESIAN_POINT('',(0.0416793282888858,0.10015438778036,-0.000312041759463969));
#86=CARTESIAN_POINT('',(-2.08016692550061E-33,0.100000001490116,-6.54233457317889E-34));
#87=CARTESIAN_POINT('',(-2.07992043902892E-33,-2.02490711973945E-33,-6.54217110599573E-34));
#88=CARTESIAN_POINT('',(1.30012910161398E-30,0.0500000007450581,2.11943042046479E-31));
#89=VECTOR('',#102,1.0);
#90=CARTESIAN_POINT('',(-2.07992043902892E-33,-2.02490711973945E-33,-6.54217110599573E-34));
#91=CARTESIAN_POINT('',(0.0416793233281081,-0.000154343058112338,-0.000312020499167683));
#92=CARTESIAN_POINT('',(0.124995649117216,6.28618392545434E-06,-0.00451155408585308));
#93=CARTESIAN_POINT('',(0.249265522888233,-4.78866792829643E-05,-0.0188551615178941));
#94=CARTESIAN_POINT('',(0.372509336283395,-2.4195007190733E-05,-0.0402321190391629));
#95=CARTESIAN_POINT('',(0.49469884639957,-2.08551629340689E-05,-0.0668824406920607));
#96=CARTESIAN_POINT('',(0.616014153839986,-1.13162666363561E-05,-0.0972202117688497));
#97=CARTESIAN_POINT('',(0.736791692575611,-2.99726129022498E-06,-0.129603136584829));
#98=CARTESIAN_POINT('',(0.85744771249895,7.19250834388121E-06,-0.162432521795432));
#99=CARTESIAN_POINT('',(0.938117358197862,1.22012477015693E-05,-0.183454723592421));
#100=CARTESIAN_POINT('',(0.978552103042603,1.47929358718102E-05,-0.193569988012314));
#101=DIRECTION('',(9.75627686173619E-07,0.999999999999503,-2.0332729215211E-07));
#102=DIRECTION('',(-0.0,-1.0,-0.0));
ENDSEC;
END-ISO-10303-21;
