ISO-10303-21;
HEADER;
FILE_DESCRIPTION(('STEP AP214'),'1');
FILE_NAME('SMAStripDeformed_04.stp','2026-07-17T20:19:36',(' '),(' '),'Spatial InterOp 3D',' ',' ');
FILE_SCHEMA(('AUTOMOTIVE_DESIGN { 1 0 10303 214 1 1 1 1 }'));
ENDSEC;
DATA;
#1=PRODUCT_DEFINITION_CONTEXT('',#9,'design');
#2=APPLICATION_PROTOCOL_DEFINITION('INTERNATIONAL STANDARD','automotive_design',1994,#9);
#3=PRODUCT_CATEGORY_RELATIONSHIP('NONE','NONE',#10,#11);
#4=SHAPE_DEFINITION_REPRESENTATION(#12,#13);
#5= (GEOMETRIC_REPRESENTATION_CONTEXT(3)GLOBAL_UNCERTAINTY_ASSIGNED_CONTEXT((#16))GLOBAL_UNIT_ASSIGNED_CONTEXT((#18,#19,#20))REPRESENTATION_CONTEXT('NONE','WORKSPACE'));
#9=APPLICATION_CONTEXT(' ');
#10=PRODUCT_CATEGORY('part','NONE');
#11=PRODUCT_RELATED_PRODUCT_CATEGORY('detail',' ',(#22));
#12=PRODUCT_DEFINITION_SHAPE('NONE','NONE',#23);
#13=MANIFOLD_SURFACE_SHAPE_REPRESENTATION('1',(#24,#25),#5);
#16=UNCERTAINTY_MEASURE_WITH_UNIT(LENGTH_MEASURE(1.0E-06),#18,'','');
#18= (CONVERSION_BASED_UNIT('MILLIMETRE',#28)LENGTH_UNIT()NAMED_UNIT(#31));
#19= (NAMED_UNIT(#33)PLANE_ANGLE_UNIT()SI_UNIT($,.RADIAN.));
#20= (NAMED_UNIT(#33)SOLID_ANGLE_UNIT()SI_UNIT($,.STERADIAN.));
#22=PRODUCT('1','','PART--DESC',(#39));
#23=PRODUCT_DEFINITION('','NONE',#40,#1);
#24=SHELL_BASED_SURFACE_MODEL('1',(#41));
#25=AXIS2_PLACEMENT_3D('',#42,#43,#44);
#28=LENGTH_MEASURE_WITH_UNIT(LENGTH_MEASURE(1.0),#45);
#31=DIMENSIONAL_EXPONENTS(1.0,0.0,0.0,0.0,0.0,0.0,0.0);
#33=DIMENSIONAL_EXPONENTS(0.0,0.0,0.0,0.0,0.0,0.0,0.0);
#39=PRODUCT_CONTEXT('',#9,'mechanical');
#40=PRODUCT_DEFINITION_FORMATION_WITH_SPECIFIED_SOURCE(' ','NONE',#22,.NOT_KNOWN.);
#41=CLOSED_SHELL('',(#46,#47));
#42=CARTESIAN_POINT('',(0.0,0.0,0.0));
#43=DIRECTION('',(0.0,0.0,1.0));
#44=DIRECTION('',(1.0,0.0,0.0));
#45= (NAMED_UNIT(#31)LENGTH_UNIT()SI_UNIT(.MILLI.,.METRE.));
#46=FACE_SURFACE('',(#49),#50,.T.);
#47=FACE_SURFACE('',(#51),#52,.T.);
#49=FACE_BOUND('',#53,.T.);
#50=CONICAL_SURFACE('',#54,289.491288725799,1.49214403002878);
#51=FACE_BOUND('',#55,.T.);
#52=CONICAL_SURFACE('',#56,289.491288725799,1.49214403002878);
#53=EDGE_LOOP('',(#57,#58,#59,#60,#61));
#54=AXIS2_PLACEMENT_3D('',#62,#63,#64);
#55=EDGE_LOOP('',(#65,#66,#67,#68,#69));
#56=AXIS2_PLACEMENT_3D('',#70,#71,#72);
#57=ORIENTED_EDGE('',*,*,#73,.T.);
#58=ORIENTED_EDGE('',*,*,#74,.T.);
#59=ORIENTED_EDGE('',*,*,#75,.T.);
#60=ORIENTED_EDGE('',*,*,#76,.T.);
#61=ORIENTED_EDGE('',*,*,#77,.T.);
#62=CARTESIAN_POINT('',(-1.69277561112582,0.0543540189473178,-22.7349472184742));
#63=DIRECTION('',(-0.0829977900750122,0.000233156872286734,-0.996549703968918));
#64=DIRECTION('',(0.996549731056199,-2.86136281725565E-21,-0.0829977923309805));
#65=ORIENTED_EDGE('',*,*,#73,.F.);
#66=ORIENTED_EDGE('',*,*,#78,.T.);
#67=ORIENTED_EDGE('',*,*,#79,.T.);
#68=ORIENTED_EDGE('',*,*,#80,.T.);
#69=ORIENTED_EDGE('',*,*,#74,.F.);
#70=CARTESIAN_POINT('',(-1.69277561112582,0.0543540189473178,-22.7349472184742));
#71=DIRECTION('',(-0.0829977900750122,0.000233156872286734,-0.996549703968918));
#72=DIRECTION('',(0.996549731056199,-2.86136281725565E-21,-0.0829977923309805));
#73=EDGE_CURVE('',#81,#82,#83,.T.);
#74=EDGE_CURVE('',#82,#84,#85,.T.);
#75=EDGE_CURVE('',#84,#86,#87,.T.);
#76=EDGE_CURVE('',#86,#88,#89,.T.);
#77=EDGE_CURVE('',#88,#81,#90,.T.);
#78=EDGE_CURVE('',#81,#91,#92,.T.);
#79=EDGE_CURVE('',#91,#93,#94,.T.);
#80=EDGE_CURVE('',#93,#84,#95,.T.);
#81=VERTEX_POINT('',#96);
#82=VERTEX_POINT('',#97);
#83=LINE('',#98,#99);
#84=VERTEX_POINT('',#100);
#85=LINE('',#101,#102);
#86=VERTEX_POINT('',#103);
#87=LINE('',#104,#105);
#88=VERTEX_POINT('',#106);
#89=B_SPLINE_CURVE_WITH_KNOTS('',3,(#107,#108,#109,#110,#111,#112,#113,#114,#115,#116,#117),.UNSPECIFIED.,.F.,.F.,(4,1,1,1,1,1,1,1,4),(0.0,0.125046413797218,0.250092827594436,0.375139241391654,0.500185655188872,0.62523206898609,0.750278482783308,0.875324896580526,1.00037131037774),.UNSPECIFIED.);
#90=LINE('',#118,#119);
#91=VERTEX_POINT('',#120);
#92=LINE('',#121,#122);
#93=VERTEX_POINT('',#123);
#94=B_SPLINE_CURVE_WITH_KNOTS('',3,(#124,#125,#126,#127,#128,#129,#130,#131,#132,#133,#134),.UNSPECIFIED.,.F.,.F.,(4,1,1,1,1,1,1,1,4),(0.0,0.125046373518823,0.250092747037646,0.37513912055647,0.500185494075293,0.625231867594116,0.750278241112939,0.875324614631762,1.00037098815059),.UNSPECIFIED.);
#95=LINE('',#135,#136);
#96=CARTESIAN_POINT('',(2.07895391818632E-31,0.0490387410782567,3.04899959815155E-32));
#97=CARTESIAN_POINT('',(0.200920443834242,0.0490342598448505,0.00255267485995248));
#98=CARTESIAN_POINT('',(-290.185241533933,0.0543540189472823,1.29219064481761));
#99=VECTOR('',#137,1.0);
#100=CARTESIAN_POINT('',(0.98829355553792,0.0490518153839642,-0.13857946441001));
#101=CARTESIAN_POINT('',(286.799690311682,0.0543540189473532,-46.7620850817659));
#102=VECTOR('',#138,1.0);
#103=CARTESIAN_POINT('',(0.988271594047546,0.10001040995121,-0.138671517372131));
#104=CARTESIAN_POINT('',(0.988293558359146,0.0499986935551533,-0.138579465448856));
#105=VECTOR('',#139,1.0);
#106=CARTESIAN_POINT('',(-9.05472553685358E-34,0.100000001490116,-2.93224976555082E-34));
#107=CARTESIAN_POINT('',(0.988271594047546,0.10001040995121,-0.138671517372131));
#108=CARTESIAN_POINT('',(0.947814939880524,0.100011983716217,-0.128638583915294));
#109=CARTESIAN_POINT('',(0.866733157794372,0.100012665915362,-0.109248627331813));
#110=CARTESIAN_POINT('',(0.744516882422691,0.1000152409708,-0.082756536434421));
#111=CARTESIAN_POINT('',(0.621701250812622,0.100017264137865,-0.0591893778555371));
#112=CARTESIAN_POINT('',(0.498287774490157,0.100020610756724,-0.038963998313786));
#113=CARTESIAN_POINT('',(0.374309958043819,0.100019350257314,-0.0225330481937753));
#114=CARTESIAN_POINT('',(0.249854751296921,0.100029621632323,-0.0101877754648934));
#115=CARTESIAN_POINT('',(0.125034756559071,0.100000129587901,-0.00235538726244385));
#116=CARTESIAN_POINT('',(0.0416817359645703,0.100080582197793,-0.000164366497561552));
#117=CARTESIAN_POINT('',(-9.05472553685358E-34,0.100000001490116,-2.93224976555082E-34));
#118=CARTESIAN_POINT('',(2.07895391818632E-31,0.0500000007450581,3.04899959815155E-32));
#119=VECTOR('',#140,1.0);
#120=CARTESIAN_POINT('',(-9.05372085652561E-34,-8.9440876412122E-34,-2.93114911712937E-34));
#121=CARTESIAN_POINT('',(2.07895391818632E-31,0.0500000007450581,3.04899959815155E-32));
#122=VECTOR('',#141,1.0);
#123=CARTESIAN_POINT('',(0.988271296024323,-1.30228409034316E-05,-0.138671398162842));
#124=CARTESIAN_POINT('',(-9.05372085652561E-34,-8.9440876412122E-34,-2.93114911712937E-34));
#125=CARTESIAN_POINT('',(0.041681722692987,-8.0563543861742E-05,-0.000164335683562331));
#126=CARTESIAN_POINT('',(0.125034721316068,-1.51141248682054E-07,-0.00235528223091492));
#127=CARTESIAN_POINT('',(0.249854655703538,-2.96699218666703E-05,-0.0101878943090175));
#128=CARTESIAN_POINT('',(0.37430989738505,-1.9679097999988E-05,-0.0225325343583779));
#129=CARTESIAN_POINT('',(0.498287505508726,-2.06949734833899E-05,-0.0389646747578373));
#130=CARTESIAN_POINT('',(0.621701028280192,-1.78498058814374E-05,-0.0591894943700568));
#131=CARTESIAN_POINT('',(0.744516689760838,-1.65918156984138E-05,-0.0827562954108998));
#132=CARTESIAN_POINT('',(0.866732867407136,-1.45335784193276E-05,-0.109248655570509));
#133=CARTESIAN_POINT('',(0.94781464000108,-1.43956552145473E-05,-0.128638527940967));
#134=CARTESIAN_POINT('',(0.988271296024323,-1.30228409034316E-05,-0.138671398162842));
#135=CARTESIAN_POINT('',(0.988293558359146,0.0499986935551533,-0.138579465448856));
#136=VECTOR('',#142,1.0);
#137=DIRECTION('',(0.999990138232514,-1.83194219861337E-05,-0.00444106992931222));
#138=DIRECTION('',(0.986947661505163,1.83194219863778E-05,-0.161041339766811));
#139=DIRECTION('',(2.97950245508215E-06,0.999999999994959,-1.09712820025782E-06));
#140=DIRECTION('',(-0.0,-1.0,-0.0));
#141=DIRECTION('',(-0.0,-1.0,-0.0));
#142=DIRECTION('',(2.97950245508215E-06,0.999999999994959,-1.09712820025782E-06));
ENDSEC;
END-ISO-10303-21;
