ISO-10303-21;
HEADER;
FILE_DESCRIPTION(('STEP AP214'),'1');
FILE_NAME('SMAStripDeformed_08.stp','2026-07-17T20:21:48',(' '),(' '),'Spatial InterOp 3D',' ',' ');
FILE_SCHEMA(('AUTOMOTIVE_DESIGN { 1 0 10303 214 1 1 1 1 }'));
ENDSEC;
DATA;
#1=PRODUCT_DEFINITION_CONTEXT('',#9,'design');
#2=APPLICATION_PROTOCOL_DEFINITION('INTERNATIONAL STANDARD','automotive_design',1994,#9);
#3=PRODUCT_CATEGORY_RELATIONSHIP('NONE','NONE',#10,#11);
#4=SHAPE_DEFINITION_REPRESENTATION(#12,#13);
#5= (GEOMETRIC_REPRESENTATION_CONTEXT(3)GLOBAL_UNCERTAINTY_ASSIGNED_CONTEXT((#16))GLOBAL_UNIT_ASSIGNED_CONTEXT((#18,#19,#20))REPRESENTATION_CONTEXT('NONE','WORKSPACE'));
#9=APPLICATION_CONTEXT(' ');
#10=PRODUCT_CATEGORY('part','NONE');
#11=PRODUCT_RELATED_PRODUCT_CATEGORY('detail',' ',(#22));
#12=PRODUCT_DEFINITION_SHAPE('NONE','NONE',#23);
#13=MANIFOLD_SURFACE_SHAPE_REPRESENTATION('1',(#24,#25),#5);
#16=UNCERTAINTY_MEASURE_WITH_UNIT(LENGTH_MEASURE(1.0E-06),#18,'','');
#18= (CONVERSION_BASED_UNIT('MILLIMETRE',#28)LENGTH_UNIT()NAMED_UNIT(#31));
#19= (NAMED_UNIT(#33)PLANE_ANGLE_UNIT()SI_UNIT($,.RADIAN.));
#20= (NAMED_UNIT(#33)SOLID_ANGLE_UNIT()SI_UNIT($,.STERADIAN.));
#22=PRODUCT('1','','PART--DESC',(#39));
#23=PRODUCT_DEFINITION('','NONE',#40,#1);
#24=SHELL_BASED_SURFACE_MODEL('1',(#41));
#25=AXIS2_PLACEMENT_3D('',#42,#43,#44);
#28=LENGTH_MEASURE_WITH_UNIT(LENGTH_MEASURE(1.0),#45);
#31=DIMENSIONAL_EXPONENTS(1.0,0.0,0.0,0.0,0.0,0.0,0.0);
#33=DIMENSIONAL_EXPONENTS(0.0,0.0,0.0,0.0,0.0,0.0,0.0);
#39=PRODUCT_CONTEXT('',#9,'mechanical');
#40=PRODUCT_DEFINITION_FORMATION_WITH_SPECIFIED_SOURCE(' ','NONE',#22,.NOT_KNOWN.);
#41=CLOSED_SHELL('',(#46));
#42=CARTESIAN_POINT('',(0.0,0.0,0.0));
#43=DIRECTION('',(0.0,0.0,1.0));
#44=DIRECTION('',(1.0,0.0,0.0));
#45= (NAMED_UNIT(#31)LENGTH_UNIT()SI_UNIT(.MILLI.,.METRE.));
#46=FACE_SURFACE('',(#48),#49,.T.);
#48=FACE_BOUND('',#50,.T.);
#49=CYLINDRICAL_SURFACE('',#51,3.96109835751422);
#50=EDGE_LOOP('',(#52,#53,#54,#55,#56,#57,#58,#59));
#51=AXIS2_PLACEMENT_3D('',#60,#61,#62);
#52=ORIENTED_EDGE('',*,*,#63,.T.);
#53=ORIENTED_EDGE('',*,*,#64,.T.);
#54=ORIENTED_EDGE('',*,*,#65,.T.);
#55=ORIENTED_EDGE('',*,*,#66,.T.);
#56=ORIENTED_EDGE('',*,*,#67,.T.);
#57=ORIENTED_EDGE('',*,*,#68,.T.);
#58=ORIENTED_EDGE('',*,*,#69,.T.);
#59=ORIENTED_EDGE('',*,*,#70,.T.);
#60=CARTESIAN_POINT('',(-0.299263353102212,7.32138832789024E-05,-3.94419031127033));
#61=DIRECTION('',(0.000150537657255829,-0.999999988219674,-2.99844315317412E-05));
#62=DIRECTION('',(5.15050499591963E-25,-2.99844318714886E-05,0.999999999550467));
#63=EDGE_CURVE('',#71,#72,#73,.T.);
#64=EDGE_CURVE('',#72,#74,#75,.T.);
#65=EDGE_CURVE('',#74,#76,#77,.T.);
#66=EDGE_CURVE('',#76,#78,#79,.T.);
#67=EDGE_CURVE('',#78,#80,#81,.T.);
#68=EDGE_CURVE('',#80,#82,#83,.T.);
#69=EDGE_CURVE('',#82,#84,#85,.T.);
#70=EDGE_CURVE('',#84,#71,#86,.T.);
#71=VERTEX_POINT('',#87);
#72=VERTEX_POINT('',#88);
#73=LINE('',#89,#90);
#74=VERTEX_POINT('',#91);
#75=LINE('',#92,#93);
#76=VERTEX_POINT('',#94);
#77=CIRCLE('',#95,35.7612256570806);
#78=VERTEX_POINT('',#96);
#79=LINE('',#97,#98);
#80=VERTEX_POINT('',#99);
#81=LINE('',#100,#101);
#82=VERTEX_POINT('',#102);
#83=B_SPLINE_CURVE_WITH_KNOTS('',3,(#103,#104,#105,#106,#107,#108,#109,#110),.UNSPECIFIED.,.F.,.F.,(4,1,1,1,1,4),(0.0,0.22509672264739,0.450193445294781,0.675290167942171,0.787838529265866,0.900386890589561),.UNSPECIFIED.);
#84=VERTEX_POINT('',#111);
#85=LINE('',#112,#113);
#86=B_SPLINE_CURVE_WITH_KNOTS('',3,(#114,#115,#116,#117,#118,#119,#120,#121),.UNSPECIFIED.,.F.,.F.,(4,1,1,1,1,4),(0.0,0.112548343293082,0.225096686586165,0.450193373172329,0.675290059758494,0.900386746344658),.UNSPECIFIED.);
#87=CARTESIAN_POINT('',(0.882792890071869,-1.12020472897711E-06,-0.163253635168076));
#88=CARTESIAN_POINT('',(0.902076303958893,-6.56761898198965E-08,-0.16855925321579));
#89=CARTESIAN_POINT('',(0.892434597015381,-5.92940459398505E-07,-0.165906444191933));
#90=VECTOR('',#122,1.0);
#91=CARTESIAN_POINT('',(0.979223847389221,3.44188379131083E-06,-0.189715072512627));
#92=CARTESIAN_POINT('',(0.940650075674057,1.68810380074547E-06,-0.179137162864208));
#93=VECTOR('',#123,1.0);
#94=CARTESIAN_POINT('',(0.979223906993866,0.0999951362609863,-0.189715072512627));
#95=AXIS2_PLACEMENT_3D('',#124,#125,#126);
#96=CARTESIAN_POINT('',(0.902076363563538,0.0999987125396729,-0.168559461832047));
#97=CARTESIAN_POINT('',(0.940650135278702,0.0999969244003296,-0.179137267172337));
#98=VECTOR('',#127,1.0);
#99=CARTESIAN_POINT('',(0.882792949676514,0.0999998226761818,-0.163253873586655));
#100=CARTESIAN_POINT('',(0.892434656620026,0.0999992676079273,-0.165906667709351));
#101=VECTOR('',#128,1.0);
#102=CARTESIAN_POINT('',(-1.95360732621933E-33,0.100000001490116,-6.16195148891501E-34));
#103=CARTESIAN_POINT('',(0.882792949676514,0.0999998226761818,-0.163253873586655));
#104=CARTESIAN_POINT('',(0.81044832138654,0.100003960629894,-0.143351815594906));
#105=CARTESIAN_POINT('',(0.6657321567357,0.100013884302805,-0.103617870534978));
#106=CARTESIAN_POINT('',(0.446788308445146,0.100015950072207,-0.0511264001034733));
#107=CARTESIAN_POINT('',(0.261864132038189,0.100051048090835,-0.0187419024922577));
#108=CARTESIAN_POINT('',(0.112516104094922,0.100005650352078,-0.00356801312472996));
#109=CARTESIAN_POINT('',(0.0375149419407521,0.100131630298651,-0.000266642081758761));
#110=CARTESIAN_POINT('',(-1.95360732621933E-33,0.100000001490116,-6.16195148891501E-34));
#111=CARTESIAN_POINT('',(-1.95340914521862E-33,-1.90062265303999E-33,-6.16237209548741E-34));
#112=CARTESIAN_POINT('',(1.02425599996188E-30,0.0500000007450581,1.6404000155838E-31));
#113=VECTOR('',#129,1.0);
#114=CARTESIAN_POINT('',(-1.95340914521862E-33,-1.90062265303999E-33,-6.16237209548741E-34));
#115=CARTESIAN_POINT('',(0.0375149359303986,-0.000131625499237329,-0.000266643709812121));
#116=CARTESIAN_POINT('',(0.112516094262797,-5.66331705621351E-06,-0.00356792438710118));
#117=CARTESIAN_POINT('',(0.261864054261515,-5.09176106482445E-05,-0.0187422432032115));
#118=CARTESIAN_POINT('',(0.446788226066474,-1.5931913190631E-05,-0.0511264612341252));
#119=CARTESIAN_POINT('',(0.665732010256628,-1.42583144014019E-05,-0.103618103792588));
#120=CARTESIAN_POINT('',(0.810448265430094,-5.04862549608739E-06,-0.143351609190401));
#121=CARTESIAN_POINT('',(0.882792890071869,-1.12020472897711E-06,-0.163253635168076));
#122=DIRECTION('',(0.964171134110404,5.27264505935017E-05,-0.265281023384975));
#123=DIRECTION('',(0.96438724796552,4.40730232615E-05,-0.264494298651329));
#124=CARTESIAN_POINT('',(0.979220401415247,0.0499692437748055,35.5714752329511));
#125=DIRECTION('',(0.999999999999285,-1.19444414268249E-06,-5.11468456782475E-08));
#126=DIRECTION('',(-1.19444414268249E-06,-0.999999999999287,0.0));
#127=DIRECTION('',(-0.96438819111496,4.48924176854964E-05,0.264490859620301));
#128=DIRECTION('',(-0.964171515099664,5.55068738477031E-05,0.265279638097998));
#129=DIRECTION('',(-0.0,-1.0,-0.0));
ENDSEC;
END-ISO-10303-21;
