#OBJ File generated by Abaqus/CAE
#List of Vertices
v -2.7333e-06 1.95152e-06 -0.000198846
v 3.60247e-06 -1.01153e-05 0.0348064
v 1.63544e-05 -1.45043e-05 0.0697982
v 0.0350043 -1.01153e-05 -0.000194379
v 0.0699982 -1.45043e-05 -0.000183597
v 7.82005e-06 -2.13713e-06 -0.0352057
v 3.95694e-06 5.3623e-07 -0.0702045
v -0.0349915 -2.13713e-06 -0.000206386
v -0.069992 5.3623e-07 -0.00020863
v 0.00189522 0.264575 -0.00277874
v 0.02606 0.264695 0.0225331
v 0.0495679 0.264971 0.0484527
v 0.0234508 0.264481 -0.0242541
v 0.0267071 0.264458 -0.0274893
v 0.0516376 0.265021 -0.0520357
v -0.0235186 0.264658 -0.0268513
v -0.0496059 0.264755 -0.0501781
v -0.0227731 0.264948 0.0220344
v -0.0473144 0.265293 0.0469691
v 0.00327391 0.527304 -0.00441419
v 0.00316303 0.528355 0.0257076
v 0.00313242 0.528526 0.0305694
v 0.00260196 0.530492 0.0655025
v 0.0117282 0.52713 -0.00415119
v 0.0366601 0.526567 -0.00335114
v 0.038226 0.526536 -0.00330227
v 0.050814 0.526876 -0.0024541
v 0.0642399 0.527233 -0.00153641
v 0.0731223 0.527476 -0.000914402
v 0.00238599 0.527256 -0.0280236
v 0.00196633 0.527247 -0.0393946
v -0.000171861 0.527706 -0.074317
v -0.0117 0.527917 -0.00416081
v -0.0316998 0.528732 -0.00384545
v -0.0644391 0.530292 -0.00279713
v -0.0666434 0.530413 -0.00273081
v 0.0141832 0.794736 -0.00965727
v 0.0373514 0.794459 0.0165808
v 0.0597605 0.794064 0.043445
v 0.0211277 0.793043 -0.0161202
v 0.028499 0.791243 -0.0229805
v 0.0358531 0.789444 -0.0298236
v 0.0393822 0.788573 -0.0330951
v 0.0428659 0.786681 -0.0364188
v 0.049561 0.783043 -0.0427823
v 0.0562415 0.779404 -0.0491297
v 0.0629339 0.775786 -0.0555091
v 0.00670521 0.794632 -0.0170778
v -0.0107013 0.794359 -0.0342621
v -0.021031 0.793823 -0.0435258
v -0.036716 0.793037 -0.057625
v 0.0129971 0.79482 -0.00856564
v 0.00230875 0.795637 0.00120784
v -0.00838784 0.796433 0.0110108
v -0.0115902 0.796685 0.0139322
v -0.019308 0.796582 0.0209294
v -0.030328 0.796453 0.0309019
v -0.037523 0.796365 0.0374176
v 0.0628136 0.79351 0.0416587
v 0.0682459 0.793925 -0.0180813
v 0.127602 0.786933 -0.0127271
v 0.122161 0.786523 0.0470155
v 0.0034572 0.800478 0.0363301
v 0.00889095 0.800917 -0.023436
v 0.0573604 0.793086 0.101428
v -0.00198245 0.80007 0.0960699
v 0.116719 0.786107 0.106768
v 0.122161 0.786523 0.0468155
v 0.127602 0.786933 -0.0129271
v 0.0682459 0.793925 -0.0182813
v 0.0628136 0.79351 0.0414587
v 0.0573604 0.793086 0.101228
v 0.116719 0.786107 0.106568
v 0.0034572 0.800478 0.0361301
v -0.00198245 0.80007 0.0958699
v 0.00889095 0.800917 -0.023636
v -0.0353027 0.796275 0.0403666
v -0.0325869 0.798514 -0.0195101
v 0.0273316 0.799833 -0.0167408
v 0.0246162 0.797588 0.0431435
v -0.0952477 0.794982 0.0375978
v -0.0925111 0.797211 -0.0222902
v -0.0380556 0.794045 0.100273
v -0.0979742 0.792738 0.0974914
v 0.0218825 0.795351 0.103036
v 0.0246162 0.797588 0.0429435
v 0.0273316 0.799833 -0.0169408
v -0.0325869 0.798514 -0.0197101
v -0.0353027 0.796275 0.0401666
v -0.0380556 0.794045 0.100073
v 0.0218825 0.795351 0.102836
v -0.0952477 0.794982 0.0373978
v -0.0979742 0.792738 0.0972914
v -0.0925111 0.797211 -0.0224902
v 0.0615799 0.776067 -0.0586071
v 0.060251 0.756701 -0.115371
v 0.113988 0.731063 -0.107891
v 0.115312 0.750449 -0.051116
v 0.00785987 0.801713 -0.0660943
v 0.00652122 0.782331 -0.122854
v 0.0629202 0.795445 -0.00184499
v 0.00918885 0.821073 -0.00931974
v 0.116648 0.769791 0.00565705
v 0.115312 0.750449 -0.051316
v 0.113988 0.731063 -0.108091
v 0.060251 0.756701 -0.115571
v 0.0615799 0.776067 -0.0588071
v 0.0629202 0.795445 -0.00204499
v 0.116648 0.769791 0.00545705
v 0.00785987 0.801713 -0.0662943
v 0.00918885 0.821073 -0.00951974
v 0.00652122 0.782331 -0.123054
v -0.0388572 0.793885 -0.0549374
v -0.0425563 0.785282 -0.114209
v 0.017307 0.783428 -0.117676
v 0.0210252 0.792025 -0.0584185
v -0.0987201 0.795745 -0.0514753
v -0.102435 0.787135 -0.110724
v -0.0351364 0.802483 0.00431622
v -0.0950209 0.804348 0.00779494
v 0.0247167 0.800641 0.000846323
v 0.0210252 0.792025 -0.0586185
v 0.017307 0.783428 -0.117876
v -0.0425563 0.785282 -0.114409
v -0.0388572 0.793885 -0.0551374
v -0.0351364 0.802483 0.00411622
v 0.0247167 0.800641 0.000646323
v -0.0987201 0.795745 -0.0516753
v -0.0950209 0.804348 0.00759494
v -0.102435 0.787135 -0.110924
v 0.0673501 0.745527 -0.0603061
v 0.068041 0.77016 -0.0606223
v 0.0666516 0.720854 -0.0599932
v 0.0659778 0.696802 -0.0596826
v 0.0652973 0.672807 -0.0593739
v 0.0646139 0.648811 -0.0590637
v 0.0639282 0.624816 -0.0587513
v 0.0632695 0.600801 -0.0584454
v 0.0625777 0.576808 -0.0581302
v 0.0619019 0.552817 -0.0578326
v 0.0612337 0.528806 -0.0575232
v 0.0605622 0.504798 -0.0572126
v 0.0598571 0.480814 -0.0568932
v 0.0591974 0.456812 -0.0566005
v 0.0585143 0.432813 -0.0562886
v 0.0578387 0.408796 -0.0559649
v 0.0571667 0.384805 -0.0556718
v 0.0564825 0.360796 -0.0553481
v 0.0558016 0.336815 -0.0550554
v 0.0551189 0.312794 -0.0547217
v 0.0544396 0.288802 -0.0544189
v 0.0537552 0.264815 -0.0541172
v -0.0309107 0.742535 0.0411982
v -0.0326517 0.758276 0.040461
v -0.0338933 0.769336 0.0399467
v -0.0350131 0.789782 0.0400859
v -0.0352888 0.794724 0.0401161
v -0.0219837 0.689609 0.0469415
v -0.0234742 0.697846 0.0459057
v -0.0268107 0.715958 0.043658
v -0.0285764 0.727435 0.0425902
v -0.0117948 0.637142 0.0546971
v -0.0124222 0.640419 0.054208
v -0.0168259 0.663362 0.0507341
v -0.00367855 0.58425 0.0617817
v -0.00718541 0.610155 0.058582
v -0.00727476 0.610804 0.05849
v -0.000907844 0.530504 0.0655006
v -0.00128387 0.550304 0.0645652
v -0.00142557 0.557459 0.0642345
v -0.00325263 0.579336 0.0622303
v -0.00621252 0.476831 0.0643843
v -0.00573894 0.480378 0.0645284
v -0.00294784 0.500885 0.0653516
v -0.00256623 0.503549 0.0654489
v -0.0170441 0.424104 0.0603498
v -0.016201 0.427859 0.0606637
v -0.011209 0.450365 0.062603
v -0.0104045 0.454592 0.0628784
v -0.0294655 0.371787 0.0553439
v -0.0232777 0.397944 0.0578725
v -0.0400442 0.319013 0.0510765
v -0.0355881 0.343479 0.0528742
v -0.0352283 0.345511 0.0530228
v -0.0298541 0.370004 0.0552023
v -0.0448055 0.265315 0.0494015
v -0.0441488 0.278085 0.049567
v -0.0434451 0.292272 0.0497689
v -0.0428508 0.296987 0.0500114
v -0.0402594 0.317304 0.0509921
v -0.0403254 0.211628 0.0518579
v -0.0408805 0.216046 0.051588
v -0.0430317 0.2337 0.0504591
v -0.0436118 0.238369 0.0501619
v -0.0442174 0.252256 0.0497702
v -0.0301665 0.158839 0.0569001
v -0.0313216 0.164325 0.0563439
v -0.0356782 0.185132 0.0541899
v -0.0367572 0.191217 0.0536639
v -0.0183154 0.106466 0.0626456
v -0.0242384 0.132646 0.0597793
v -0.00811386 0.0536884 0.0675913
v -0.0119373 0.0753076 0.0657503
v -0.0128056 0.0801851 0.0653303
v -0.017432 0.102258 0.0630775
v -0.00349756 -1.6458e-05 0.0698141
v -0.00419332 0.0146845 0.0694703
v -0.00476184 0.0269351 0.0691879
v -0.0054351 0.0322328 0.0688822
v -0.00764452 0.0499957 0.0678039
v 0.0484007 0.740859 0.0472035
v 0.0494949 0.746373 0.0469542
v 0.0536087 0.767331 0.0460419
v 0.0549174 0.776279 0.0460135
v 0.0572852 0.792479 0.0459353
v 0.0356312 0.68859 0.0516385
v 0.0416651 0.712267 0.049371
v 0.0422732 0.714632 0.0491547
v 0.0222964 0.636567 0.0573553
v 0.0242074 0.644178 0.0564961
v 0.0288598 0.662594 0.0544467
v 0.0113216 0.583987 0.062616
v 0.0163249 0.610392 0.0601438
v 0.0166639 0.611887 0.0599865
v 0.00609265 0.530372 0.0656387
v 0.00640136 0.53538 0.0654286
v 0.00772543 0.557046 0.064559
v 0.00774711 0.557288 0.0645417
v 0.0109691 0.581386 0.0628046
v 0.00975686 0.476591 0.0645066
v 0.00835916 0.489521 0.0650281
v 0.00683426 0.503399 0.0656043
v 0.00633134 0.52219 0.0656151
v 0.0201452 0.423779 0.0601883
v 0.0164637 0.440562 0.0617169
v 0.0143764 0.450052 0.0626073
v 0.0120119 0.463595 0.0635803
v 0.0328424 0.37156 0.0549661
v 0.031744 0.376106 0.0553908
v 0.0264755 0.397693 0.0575359
v 0.0216058 0.417764 0.059567
v 0.0432946 0.31876 0.0511469
v 0.0413816 0.329654 0.0517958
v 0.0386423 0.345302 0.0527209
v 0.036964 0.352849 0.0533714
v 0.0470983 0.264971 0.0509223
v 0.0462833 0.291938 0.0504684
v 0.0450659 0.302877 0.0507424
v 0.0421629 0.211347 0.0542912
v 0.0455961 0.238043 0.0523452
v 0.0456741 0.239615 0.0522668
v 0.0312026 0.158718 0.0592201
v 0.0363808 0.181349 0.0569884
v 0.0372065 0.184906 0.0566405
v 0.0411654 0.206052 0.0547756
v 0.0182673 0.106545 0.0643478
v 0.0202412 0.114525 0.0635897
v 0.0247016 0.13265 0.0618478
v 0.0305842 0.15624 0.0594657
v 0.00772202 0.0537393 0.0682906
v 0.00971882 0.0650343 0.067557
v 0.0124367 0.080268 0.0665497
v 0.0145989 0.0900368 0.0657256
v 0.00350949 -1.19503e-05 0.0698027
v 0.00460467 0.0269657 0.0694097
v 0.00529459 0.0328013 0.0691617
v 0.05887 0.739765 0.038424
v 0.0602453 0.766639 0.0404951
v 0.0626236 0.791938 0.0414522
v 0.0593297 0.686235 0.0315364
v 0.0586165 0.712942 0.035382
v 0.0586803 0.719798 0.036163
v 0.063052 0.633202 0.0220986
v 0.0610439 0.657753 0.0266807
v 0.0608963 0.659655 0.0270246
v 0.0682957 0.580447 0.0118421
v 0.0655959 0.60682 0.0169654
v 0.0731257 0.527466 0.00259306
v 0.0725606 0.534143 0.00369044
v 0.0717115 0.544196 0.00535079
v 0.0708778 0.554017 0.00698372
v 0.0707655 0.555233 0.00721723
v 0.0743484 0.473683 1.92152e-05
v 0.0744452 0.500657 -0.000131115
v 0.0743992 0.501711 -1.95713e-05
v 0.0738536 0.512747 0.00108578
v 0.0733167 0.52377 0.00219717
v 0.0701793 0.420607 0.00852045
v 0.0703199 0.421903 0.00824553
v 0.0724771 0.443375 0.00380512
v 0.0728407 0.446898 0.00307714
v 0.0739062 0.465887 0.000911601
v 0.0628203 0.369349 0.0237525
v 0.0646249 0.381144 0.020027
v 0.0666995 0.394824 0.0157044
v 0.0669456 0.396687 0.0151904
v 0.0686235 0.40902 0.0117418
v 0.0557324 0.317937 0.0386725
v 0.0563009 0.32241 0.0374754
v 0.0579122 0.335103 0.034064
v 0.0590188 0.343818 0.0317245
v 0.0596025 0.347718 0.0305092
v 0.0614446 0.360207 0.0266156
v 0.0522834 0.264699 0.046229
v 0.0533877 0.291545 0.0437079
v 0.0543568 0.302359 0.0416372
v 0.0533812 0.210844 0.0437733
v 0.0523544 0.237706 0.0461507
v 0.0523563 0.241731 0.0461519
v 0.0577299 0.15806 0.0334092
v 0.0558727 0.177759 0.0378711
v 0.0552553 0.184269 0.0393554
v 0.054204 0.199298 0.0418419
v 0.0634362 0.106185 0.0195434
v 0.062575 0.113882 0.0216347
v 0.0605575 0.132092 0.0265698
v 0.0596139 0.140836 0.0288794
v 0.0578491 0.156978 0.0331378
v 0.0681739 0.0536907 0.00787679
v 0.0666759 0.0724555 0.0115922
v 0.0660736 0.080087 0.0130947
v 0.0649137 0.0915735 0.0159298
v 0.0700049 -1.19503e-05 0.00330736
v 0.0699589 0.00266109 0.00343059
v 0.0695399 0.0269412 0.00449297
v 0.0682338 0.0522484 0.00769531
v 0.0444059 0.730591 -0.0330928
v 0.0475751 0.737832 -0.0366724
v 0.0515081 0.746739 -0.0410817
v 0.0543026 0.753102 -0.0442396
v 0.0555087 0.755384 -0.0451872
v 0.0596874 0.763333 -0.0485035
v 0.063865 0.771275 -0.0518105
v 0.065396 0.774213 -0.0530186
v 0.0359284 0.682689 -0.0102758
v 0.0359824 0.68342 -0.0105966
v 0.036625 0.691095 -0.0140365
v 0.0372687 0.698765 -0.0174724
v 0.0379023 0.706453 -0.0209153
v 0.0379836 0.707234 -0.0212827
v 0.0413516 0.719518 -0.0274855
v 0.0448703 0.631616 0.00359692
v 0.0424426 0.641413 0.00159675
v 0.0385208 0.657288 -0.00166397
v 0.0378055 0.664263 -0.0040256
v 0.0622846 0.580637 0.00362703
v 0.0605766 0.585534 0.00393382
v 0.056044 0.598553 0.00471842
v 0.0534258 0.606082 0.00517314
v 0.0514625 0.611965 0.00480452
v 0.0467788 0.625929 0.00395169
v 0.073586 0.528572 -0.00432717
v 0.0733314 0.530242 -0.00404218
v 0.0710045 0.54522 -0.00159534
v 0.0695288 0.554898 -3.46212e-05
v 0.0680898 0.559981 0.000702666
v 0.065883 0.567852 0.00181515
v 0.0636808 0.575717 0.00292885
v 0.0746813 0.475775 -0.0154455
v 0.0747389 0.486071 -0.0130263
v 0.0748383 0.502061 -0.00923669
v 0.0738577 0.522851 -0.00537919
v 0.0707097 0.42387 -0.0296877
v 0.073201 0.449754 -0.0224456
v 0.0739158 0.462221 -0.0191055
v 0.0639114 0.371883 -0.0425593
v 0.06704 0.394672 -0.0373223
v 0.0674986 0.397946 -0.0365629
v 0.0700434 0.418532 -0.0310944
v 0.0573427 0.318855 -0.0500407
v 0.0586531 0.330166 -0.0488227
v 0.0603944 0.345522 -0.047176
v 0.0636468 0.369783 -0.0429207
v 0.0541168 0.265016 -0.0495608
v 0.0551473 0.291964 -0.0508644
v 0.0554319 0.21165 -0.0417331
v 0.0552476 0.215818 -0.0424417
v 0.054317 0.23822 -0.0463324
v 0.0543019 0.240534 -0.0466062
v 0.0541423 0.261455 -0.0491295
v 0.0593017 0.159027 -0.0302485
v 0.0574488 0.181787 -0.0354442
v 0.0571594 0.185261 -0.0362263
v 0.0640257 0.106604 -0.0181321
v 0.0639964 0.106885 -0.0181997
v 0.0616419 0.132835 -0.0240991
v 0.0681513 0.0537276 -0.00812262
v 0.0665337 0.076413 -0.0120109
v 0.0662481 0.0802715 -0.012674
v 0.0700119 -1.6458e-05 -0.00369534
v 0.0698418 0.00899085 -0.00410156
v 0.0694908 0.0269626 -0.00492412
v 0.0694142 0.0286035 -0.00511228
v 0.0684147 0.0484753 -0.00748746
v 0.0354268 0.731073 -0.0444673
v 0.0488128 0.753603 -0.0509715
v 0.0501307 0.755889 -0.0517698
v 0.0551288 0.764657 -0.0548194
v 0.0601143 0.773437 -0.0578682
v 0.0608755 0.774736 -0.0583278
v 0.0114354 0.683172 -0.0392234
v 0.013308 0.687321 -0.0394076
v 0.0179241 0.697507 -0.03987
v 0.0225499 0.707701 -0.0403491
v 0.0225552 0.707734 -0.0403437
v 0.0280576 0.717703 -0.0421194
v 0.0335637 0.727691 -0.0438758
v -0.0018056 0.631585 -0.0464303
v 0.00231255 0.653309 -0.0422309
v 0.00312624 0.657613 -0.0414012
v -0.00222572 0.579749 -0.0612614
v -0.00250893 0.586226 -0.0593025
v -0.00307395 0.59953 -0.0552759
v -0.00334161 0.605579 -0.0534637
v -0.00288658 0.613164 -0.0514182
v -0.00206643 0.627018 -0.0476569
v 0.00333714 0.527696 -0.0743163
v 0.00303871 0.530477 -0.0737177
v 0.00172946 0.542284 -0.0711332
v 0.000454676 0.553912 -0.0685991
v -0.000603247 0.564099 -0.0657062
v -0.00168982 0.574454 -0.062772
v 0.0116651 0.474708 -0.0800173
v 0.00676038 0.501179 -0.0780576
v 0.00580747 0.508554 -0.0770111
v 0.0243077 0.422284 -0.0784882
v 0.018659 0.444505 -0.0798698
v 0.0176714 0.448402 -0.0801076
v 0.0129728 0.468976 -0.0800453
v 0.0372221 0.37037 -0.0712081
v 0.0365671 0.373028 -0.0716193
v 0.0309847 0.396311 -0.0753611
v 0.0308709 0.396796 -0.0754342
v 0.046411 0.318028 -0.0617639
v 0.0432806 0.33897 -0.0655269
v 0.0424842 0.344324 -0.0664902
v 0.0492052 0.264654 -0.0545441
v 0.0488126 0.284498 -0.056797
v 0.0486869 0.291462 -0.0576174
v 0.0437251 0.211037 -0.0534789
v 0.0440247 0.213142 -0.0534368
v 0.0465011 0.230589 -0.0532467
v 0.0475329 0.237735 -0.0531728
v 0.0324271 0.158357 -0.0571311
v 0.0335444 0.163234 -0.0567213
v 0.0385154 0.184568 -0.0549105
v 0.0392907 0.188539 -0.0546914
v 0.0194921 0.106239 -0.0626717
v 0.0259428 0.13229 -0.0598098
v 0.0084467 0.0536407 -0.06782
v 0.00879654 0.0554812 -0.0676568
v 0.0134925 0.0800515 -0.0654169
v 0.0136712 0.0807682 -0.065352
v 0.0193776 0.105724 -0.0627109
v 0.00350763 -1.81489e-05 -0.0701893
v 0.00369072 0.00369974 -0.070107
v 0.00455071 0.0206406 -0.0696786
v 0.00486481 0.0269446 -0.0695313
v 0.00632115 0.037731 -0.0688475
v -0.0330439 0.739384 -0.0545248
v -0.0342359 0.76624 -0.0568628
v -0.0342483 0.791461 -0.0600883
v -0.0274466 0.685717 -0.0535963
v -0.0302867 0.709044 -0.053458
v -0.0307128 0.712511 -0.0534268
v -0.019123 0.632519 -0.05747
v -0.0234913 0.659051 -0.0549877
v -0.0236618 0.660232 -0.0549286
v -0.0104041 0.579769 -0.0649406
v -0.0106138 0.581157 -0.0647256
v -0.0146523 0.606103 -0.0608678
v -0.00361664 0.526968 -0.0740234
v -0.0045923 0.535499 -0.0725437
v -0.0060431 0.548199 -0.0703371
v -0.00661747 0.553402 -0.0694346
v -0.0035134 0.473414 -0.0798152
v -0.00228292 0.500283 -0.0778189
v -0.00267097 0.507912 -0.0767448
v -0.00338094 0.522251 -0.0746936
v -0.0131264 0.420427 -0.0775849
v -0.01028 0.433264 -0.0786195
v -0.00729444 0.446696 -0.0796961
v -0.0061402 0.454829 -0.0797324
v -0.0280645 0.369288 -0.0689075
v -0.0250173 0.379322 -0.0708411
v -0.0203403 0.394689 -0.0737931
v -0.0179543 0.403233 -0.0750553
v -0.0144787 0.415584 -0.07687
v -0.0414298 0.318005 -0.0586879
v -0.0397534 0.325148 -0.0600474
v -0.0364534 0.339153 -0.0627317
v -0.0353711 0.343849 -0.0636282
v -0.0327536 0.352904 -0.0655088
v -0.0288481 0.366529 -0.0683382
v -0.047139 0.264755 -0.0526447
v -0.0454921 0.2916 -0.0548338
v -0.0443487 0.299047 -0.0559163
v -0.0432193 0.210967 -0.0528
v -0.0439595 0.217515 -0.0526364
v -0.0462703 0.237795 -0.052123
v -0.0465958 0.248391 -0.052333
v -0.0324494 0.158258 -0.056937
v -0.0353131 0.170806 -0.0557698
v -0.0384275 0.184455 -0.0545047
v -0.0399939 0.193025 -0.0539426
v -0.0191369 0.106248 -0.0628209
v -0.0208451 0.112929 -0.062063
v -0.025822 0.132248 -0.0598133
v -0.0300135 0.148713 -0.0579823
v -0.00799659 0.0536764 -0.0680316
v -0.0106769 0.0677783 -0.066779
v -0.0130141 0.08012 -0.0656708
v -0.0153075 0.0899139 -0.0646108
v -0.00348925 -3.20736e-06 -0.0702075
v -0.0038768 0.00844125 -0.0700033
v -0.00468215 0.0269426 -0.0696208
v -0.00652013 0.0417163 -0.0687415
v -0.0422155 0.740929 -0.0453075
v -0.0400155 0.767283 -0.0506931
v -0.0397611 0.772681 -0.0516061
v -0.0388971 0.792341 -0.0549146
v -0.048493 0.688704 -0.0330754
v -0.0451038 0.714739 -0.0393355
v -0.0427976 0.735698 -0.0441124
v -0.0557756 0.636617 -0.020804
v -0.0547053 0.64425 -0.0225688
v -0.0521099 0.662701 -0.0268192
v -0.062446 0.583986 -0.0108249
v -0.0596579 0.607341 -0.0148428
v -0.059288 0.610406 -0.0153608
v -0.0666339 0.5304 -0.00622741
v -0.0662176 0.537522 -0.00657588
v -0.0651927 0.554113 -0.00743431
v -0.0649926 0.557301 -0.0075944
v -0.0632052 0.576016 -0.00986865
v -0.0663045 0.47666 -0.0106405
v -0.0667165 0.491561 -0.00878626
v -0.0670467 0.503428 -0.00729966
v -0.0668314 0.516852 -0.00677306
v -0.0625631 0.423925 -0.0215327
v -0.0626558 0.425033 -0.0212822
v -0.0645083 0.44763 -0.0161712
v -0.0647178 0.45017 -0.0155831
v -0.0659151 0.470329 -0.0118341
v -0.0575535 0.371699 -0.0342781
v -0.0582435 0.378813 -0.0325429
v -0.0600972 0.397822 -0.0279436
v -0.0532694 0.318866 -0.0444779
v -0.0543142 0.333451 -0.041999
v -0.0551837 0.345399 -0.0399706
v -0.0561428 0.355987 -0.0376851
v -0.0517871 0.265044 -0.0474268
v -0.0519951 0.286901 -0.0472257
v -0.0520289 0.292035 -0.0471865
v -0.0529463 0.311623 -0.0451983
v -0.0540236 0.211475 -0.0414423
v -0.0536562 0.218057 -0.0423804
v -0.0525329 0.238151 -0.0452847
v -0.0523064 0.246353 -0.0459298
v -0.0518706 0.262132 -0.0471944
v -0.0586275 0.158868 -0.0302046
v -0.0581985 0.163158 -0.0312045
v -0.0561185 0.185062 -0.0362586
v -0.0557668 0.189339 -0.0370953
v -0.0639768 0.10665 -0.0175541
v -0.0628702 0.117557 -0.0201611
v -0.0613226 0.132781 -0.0237962
v -0.0682999 0.0537795 -0.00755945
v -0.0676432 0.0627035 -0.00904559
v -0.0663716 0.0803263 -0.0119721
v -0.0653767 0.0910959 -0.014267
v -0.0699971 -3.20736e-06 -0.00369969
v -0.0697223 0.0164317 -0.00430746
v -0.0695478 0.0269637 -0.00470492
v -0.0416458 0.742646 0.0301465
v -0.0415412 0.744511 0.0303505
v -0.0401374 0.769427 0.0332595
v -0.0401017 0.774935 0.0336323
v -0.0399934 0.794782 0.0349516
v -0.0474463 0.68969 0.0214403
v -0.0453016 0.707145 0.0245061
v -0.0441852 0.716074 0.0260799
v -0.0549229 0.63709 0.0117954
v -0.0510902 0.663377 0.0165642
v -0.0619913 0.584149 0.00389383
v -0.0601327 0.598824 0.00587705
v -0.058631 0.610698 0.0074469
v -0.0554244 0.633507 0.0112066
v -0.0663812 0.530465 0.000765876
v -0.0661929 0.533571 0.000858466
v -0.0652072 0.549083 0.00128931
v -0.0646777 0.557395 0.00150039
v -0.0634805 0.569364 0.00257946
v -0.065772 0.476776 0.00587484
v -0.0659005 0.480776 0.00534213
v -0.0665038 0.498199 0.00300212
v -0.066684 0.503506 0.00229732
v -0.0664515 0.524437 0.00111136
v -0.061684 0.424004 0.0165497
v -0.062162 0.429461 0.0153537
v -0.0639901 0.450291 0.0107775
v -0.0643811 0.456087 0.00970545
v -0.0564473 0.371694 0.0288505
v -0.0591127 0.397856 0.0227068
v -0.0518038 0.318972 0.0394897
v -0.0536281 0.341651 0.0352976
v -0.0539263 0.34543 0.0345924
v -0.0561238 0.368379 0.0295763
v -0.0497913 0.265299 0.0444909
v -0.050079 0.280415 0.0436697
v -0.0503164 0.292241 0.0430391
v -0.050662 0.298535 0.0421895
v -0.0516372 0.316126 0.039867
v -0.05211 0.211581 0.0402469
v -0.0509177 0.231172 0.0425548
v -0.0504881 0.238333 0.0434275
v -0.0501993 0.250125 0.0438941
v -0.0571094 0.15879 0.030099
v -0.05704 0.159595 0.0302787
v -0.0544102 0.185072 0.0356495
v -0.0543826 0.185316 0.0356749
v -0.0521536 0.211293 0.0402061
v -0.0629229 0.106467 0.0181091
v -0.0600331 0.132635 0.0241152
v -0.0678311 0.0536975 0.00781593
v -0.0658779 0.0768751 0.011925
v -0.0655852 0.0801876 0.0125078
v -0.0632918 0.102833 0.0173372
v -0.0699945 -1.81489e-05 0.00331281
v -0.0697408 0.0113408 0.00381331
v -0.0693998 0.026958 0.00453234
v -0.0691447 0.0313088 0.00507454
v -0.0679647 0.0513793 0.00754027
v -0.0575725 0.0607029 -0.335641
v -0.0786484 0.0607029 -0.335641
v -0.0786484 -0.00585062 -0.335641
v -0.0575725 -0.00585062 -0.335641
v -0.0771062 -0.00225295 -0.335641
v -0.074793 -0.00225295 -0.335641
v -0.074793 0.00134473 -0.335641
v -0.0771062 0.00134473 -0.335641
v -0.0771062 0.00134473 -0.335641
v -0.074793 0.00134473 -0.335641
v -0.074793 0.00494124 -0.335641
v -0.0771062 0.00494124 -0.335641
v -0.0771062 0.00494124 -0.335641
v -0.074793 0.00494124 -0.335641
v -0.074793 0.00853892 -0.335641
v -0.0771062 0.00853892 -0.335641
v -0.0771062 0.00853892 -0.335641
v -0.074793 0.00853892 -0.335641
v -0.074793 0.0121366 -0.335641
v -0.0771062 0.0121366 -0.335641
v -0.0771062 0.0121366 -0.335641
v -0.074793 0.0121366 -0.335641
v -0.074793 0.0157343 -0.335641
v -0.0771062 0.0157343 -0.335641
v -0.0771062 0.0157343 -0.335641
v -0.074793 0.0157343 -0.335641
v -0.074793 0.019332 -0.335641
v -0.0771062 0.019332 -0.335641
v -0.0771062 0.019332 -0.335641
v -0.074793 0.019332 -0.335641
v -0.074793 0.0229296 -0.335641
v -0.0771062 0.0229296 -0.335641
v -0.0771062 0.0229296 -0.335641
v -0.074793 0.0229296 -0.335641
v -0.074793 0.0265261 -0.335641
v -0.0771062 0.0265261 -0.335641
v -0.0771062 0.0265261 -0.335641
v -0.074793 0.0265261 -0.335641
v -0.074793 0.0301238 -0.335641
v -0.0771062 0.0301238 -0.335641
v -0.0771062 0.0301238 -0.335641
v -0.074793 0.0301238 -0.335641
v -0.074793 0.0337215 -0.335641
v -0.0771062 0.0337215 -0.335641
v -0.0771062 0.0337215 -0.335641
v -0.074793 0.0337215 -0.335641
v -0.074793 0.0373192 -0.335641
v -0.0771062 0.0373192 -0.335641
v -0.0771062 0.0373192 -0.335641
v -0.074793 0.0373192 -0.335641
v -0.074793 0.0409168 -0.335641
v -0.0771062 0.0409168 -0.335641
v -0.0771062 -0.00225295 -0.335641
v -0.074022 -0.00225295 -0.335641
v -0.0771062 0.00134473 -0.335641
v -0.074022 0.00134473 -0.335641
v -0.0771062 0.00494124 -0.335641
v -0.074022 0.00494124 -0.335641
v -0.0771062 0.00853892 -0.335641
v -0.074022 0.00853892 -0.335641
v -0.0771062 0.0121366 -0.335641
v -0.074022 0.0121366 -0.335641
v -0.0771062 0.0157343 -0.335641
v -0.074022 0.0157343 -0.335641
v -0.0771062 0.019332 -0.335641
v -0.074022 0.019332 -0.335641
v -0.0771062 0.0229296 -0.335641
v -0.074022 0.0229296 -0.335641
v -0.0771062 0.0265261 -0.335641
v -0.074022 0.0265261 -0.335641
v -0.0771062 0.0301238 -0.335641
v -0.074022 0.0301238 -0.335641
v -0.0771062 0.0337215 -0.335641
v -0.074022 0.0337215 -0.335641
v -0.0771062 0.0373192 -0.335641
v -0.074022 0.0373192 -0.335641
v -0.0771062 0.0409168 -0.335641
v -0.074022 0.0409168 -0.335641
v -0.074793 0.0409168 -0.335641
v -0.074793 -0.00225295 -0.335641

#List of body polygons
f 59 60 61
f 59 61 62
f 59 63 64
f 59 64 60
f 63 59 65
f 63 65 66
f 59 62 67
f 59 67 65
f 77 78 79
f 77 79 80
f 77 81 82
f 77 82 78
f 81 77 83
f 81 83 84
f 77 80 85
f 77 85 83
f 95 96 97
f 95 97 98
f 95 99 100
f 95 100 96
f 99 95 101
f 99 101 102
f 95 98 103
f 95 103 101
f 113 114 115
f 113 115 116
f 113 117 118
f 113 118 114
f 117 113 119
f 117 119 120
f 113 116 121
f 113 121 119

#List of body lines
l 1 2
l 2 3
l 1 4
l 4 5
l 1 6
l 6 7
l 1 8
l 8 9
l 10 11
l 11 12
l 10 13
l 10 16
l 16 17
l 10 18
l 18 19
l 21 22
l 22 23
l 20 24
l 33 34
l 34 35
l 37 38
l 38 39
l 50 51
l 57 58
l 131 132
l 133 131
l 134 133
l 135 134
l 136 135
l 137 136
l 138 137
l 139 138
l 140 139
l 141 140
l 142 141
l 143 142
l 144 143
l 145 144
l 146 145
l 147 146
l 148 147
l 149 148
l 150 149
l 151 150
l 152 151
l 158 159
l 163 164
l 164 158
l 176 177
l 180 181
l 181 176
l 185 180
l 196 197
l 200 201
l 201 196
l 205 200
l 216 217
l 220 221
l 221 216
l 239 240
l 240 241
l 257 258
l 258 259
l 273 274
l 276 277
l 277 273
l 282 276
l 293 294
l 303 293
l 315 316
l 316 317
l 363 364
l 364 365
l 369 363
l 381 382
l 385 386
l 386 381
l 426 427
l 433 426
l 444 445
l 448 449
l 449 444
l 454 448
l 466 467
l 467 468
l 470 471
l 471 466
l 484 485
l 494 484
l 507 508
l 508 509
l 522 523
l 523 524
l 526 527
l 527 522
l 540 541
l 546 547
l 547 540
l 561 562
l 566 567
l 567 561
l 580 581
l 583 584
l 584 580
l 588 583
l 599 600
l 603 604
l 604 599
l 608 603
l 618 619
l 623 624
l 624 618
l 628 623

#List of body lines
l 13 14
l 14 15
l 20 21
l 24 25
l 30 31
l 31 32
l 20 33
l 35 36
l 48 49
l 49 50
l 56 57
l 159 160
l 160 161
l 162 163
l 166 167
l 167 162
l 177 178
l 178 179
l 183 184
l 184 185
l 197 198
l 198 199
l 203 204
l 204 205
l 211 212
l 217 218
l 218 211
l 219 220
l 224 219
l 234 235
l 238 239
l 241 234
l 245 238
l 252 253
l 256 257
l 259 252
l 263 256
l 270 271
l 271 272
l 274 275
l 275 270
l 280 281
l 281 282
l 294 295
l 295 296
l 302 303
l 314 315
l 317 318
l 322 314
l 327 328
l 341 327
l 354 355
l 355 356
l 359 360
l 365 359
l 367 368
l 368 369
l 376 377
l 382 383
l 383 376
l 384 385
l 388 389
l 389 384
l 395 396
l 396 397
l 407 395
l 419 420
l 420 421
l 427 428
l 428 429
l 431 432
l 432 433
l 445 446
l 446 447
l 453 454
l 463 464
l 468 463
l 469 470
l 474 475
l 475 469
l 485 486
l 486 487
l 493 494
l 502 503
l 506 507
l 509 502
l 513 506
l 518 519
l 519 520
l 524 518
l 525 526
l 529 530
l 530 525
l 541 542
l 545 546
l 551 545
l 562 563
l 563 564
l 565 566
l 571 565
l 575 576
l 581 582
l 582 575
l 586 587
l 587 588
l 600 601
l 601 602
l 606 607
l 607 608
l 619 620
l 620 621
l 626 627
l 627 628

#List of body lines
l 25 26
l 26 27
l 20 30
l 37 48
l 54 55
l 55 56
l 153 154
l 161 153
l 165 166
l 171 165
l 172 173
l 179 172
l 182 183
l 190 182
l 191 192
l 199 191
l 202 203
l 210 202
l 212 213
l 213 214
l 222 223
l 223 224
l 229 222
l 235 236
l 236 237
l 243 244
l 244 245
l 253 254
l 254 255
l 261 262
l 262 263
l 267 268
l 268 269
l 272 267
l 279 280
l 296 297
l 300 301
l 301 302
l 310 311
l 318 310
l 320 321
l 321 322
l 328 329
l 339 340
l 340 341
l 353 354
l 356 357
l 360 361
l 361 362
l 366 367
l 373 366
l 377 378
l 378 379
l 387 388
l 394 387
l 397 398
l 406 407
l 418 419
l 421 422
l 423 424
l 424 425
l 429 423
l 430 431
l 435 436
l 436 430
l 440 441
l 447 440
l 451 452
l 452 453
l 460 461
l 461 462
l 464 465
l 465 460
l 473 474
l 487 488
l 491 492
l 492 493
l 503 504
l 504 505
l 511 512
l 512 513
l 520 521
l 528 529
l 535 528
l 542 543
l 543 544
l 549 550
l 550 551
l 556 557
l 564 556
l 569 570
l 570 571
l 576 577
l 577 578
l 585 586
l 593 585
l 594 595
l 602 594
l 605 606
l 613 605
l 621 622
l 625 626
l 633 625

#List of body lines
l 27 28
l 53 54
l 154 155
l 155 156
l 169 170
l 170 171
l 173 174
l 189 190
l 192 193
l 209 210
l 214 215
l 227 228
l 228 229
l 230 231
l 237 230
l 242 243
l 248 242
l 249 250
l 250 251
l 255 249
l 260 261
l 266 260
l 278 279
l 287 278
l 288 289
l 297 288
l 299 300
l 311 312
l 312 313
l 319 320
l 326 319
l 329 330
l 330 331
l 338 339
l 352 353
l 357 358
l 362 352
l 371 372
l 372 373
l 379 380
l 393 394
l 398 399
l 404 405
l 405 406
l 411 412
l 417 418
l 422 411
l 425 417
l 434 435
l 438 439
l 439 434
l 441 442
l 450 451
l 459 450
l 472 473
l 479 472
l 480 481
l 488 480
l 490 491
l 498 499
l 505 498
l 510 511
l 517 510
l 533 534
l 534 535
l 536 537
l 544 536
l 548 549
l 555 548
l 557 558
l 558 559
l 568 569
l 573 574
l 574 568
l 578 579
l 591 592
l 592 593
l 595 596
l 612 613
l 614 615
l 622 614
l 632 633

#List of body lines
l 28 29
l 52 53
l 156 157
l 168 169
l 174 175
l 175 168
l 187 188
l 188 189
l 193 194
l 194 195
l 207 208
l 208 209
l 226 227
l 231 232
l 232 233
l 246 247
l 247 248
l 251 246
l 264 265
l 265 266
l 286 287
l 289 290
l 298 299
l 306 298
l 307 308
l 308 309
l 313 307
l 324 325
l 325 326
l 331 332
l 337 338
l 346 347
l 358 346
l 370 371
l 374 375
l 375 370
l 380 374
l 391 392
l 392 393
l 399 400
l 403 404
l 412 413
l 437 438
l 442 443
l 443 437
l 457 458
l 458 459
l 478 479
l 481 482
l 482 483
l 489 490
l 497 489
l 499 500
l 500 501
l 515 516
l 516 517
l 532 533
l 537 538
l 538 539
l 553 554
l 554 555
l 559 560
l 572 573
l 590 591
l 596 597
l 597 598
l 610 611
l 611 612
l 615 616
l 616 617
l 630 631
l 631 632

#List of body lines
l 37 40
l 37 52
l 186 187
l 195 186
l 206 207
l 225 226
l 233 225
l 285 286
l 290 291
l 291 292
l 304 305
l 305 306
l 309 304
l 323 324
l 332 333
l 336 337
l 347 348
l 390 391
l 402 403
l 413 414
l 414 415
l 456 457
l 476 477
l 477 478
l 483 476
l 495 496
l 496 497
l 501 495
l 514 515
l 531 532
l 539 531
l 552 553
l 560 552
l 589 590
l 598 589
l 609 610
l 617 609
l 629 630

#List of body lines
l 40 41
l 283 284
l 284 285
l 292 283
l 333 334
l 335 336
l 345 335
l 348 349
l 349 350
l 401 402
l 409 410
l 410 401
l 415 416
l 455 456

#List of body lines
l 41 42
l 343 344
l 344 345
l 350 351
l 408 409
l 416 408

#List of body lines
l 42 43
l 43 44
l 342 343
l 351 342

#List of body lines
l 44 45

#List of body lines
l 45 46

#List of body lines
l 46 47

#List of body lines
l 68 69
l 69 70
l 70 71
l 71 72
l 72 73
l 73 68
l 68 71
l 71 74
l 74 75
l 75 72
l 76 70
l 74 76
l 86 87
l 87 88
l 88 89
l 89 90
l 90 91
l 91 86
l 86 89
l 89 92
l 92 93
l 93 90
l 94 88
l 92 94
l 104 105
l 105 106
l 106 107
l 107 108
l 108 109
l 109 104
l 104 107
l 107 110
l 110 111
l 111 108
l 112 106
l 110 112
l 122 123
l 123 124
l 124 125
l 125 126
l 126 127
l 127 122
l 122 125
l 125 128
l 128 129
l 129 126
l 130 124
l 128 130


