#OBJ File generated by Abaqus/CAE
#List of Vertices
v -1.36673e-06 1.27019e-06 -0.000199191
v 4.45031e-06 -1.07507e-05 0.0348065
v 1.66835e-05 -1.50938e-05 0.0697988
v 0.0350054 -1.07507e-05 -0.000194441
v 0.0699989 -1.50938e-05 -0.000183376
v 9.88333e-06 -2.71292e-06 -0.0352063
v 6.3611e-06 -2.37042e-07 -0.0702058
v -0.0349896 -2.71292e-06 -0.000206838
v -0.0699899 -2.37042e-07 -0.000209543
v 0.00188526 0.264586 -0.00274553
v 0.0260607 0.264684 0.0225779
v 0.0495878 0.26496 0.0484793
v 0.0229454 0.264469 -0.0237057
v 0.0266759 0.264468 -0.0274387
v 0.051598 0.265023 -0.0519938
v -0.023516 0.264647 -0.0268065
v -0.0495936 0.264767 -0.0501638
v -0.0228069 0.264955 0.0220828
v -0.0473547 0.265296 0.0470114
v 0.00326699 0.527398 -0.00441081
v 0.0031287 0.528416 0.0255706
v 0.00312978 0.528563 0.030578
v 0.00256822 0.53049 0.0655192
v 0.0119427 0.527197 -0.0041166
v 0.0369635 0.526659 -0.00334012
v 0.038225 0.526634 -0.00329214
v 0.0510536 0.526979 -0.00243008
v 0.0645779 0.527338 -0.00152653
v 0.0731291 0.527567 -0.000933617
v 0.00242782 0.527369 -0.0267096
v 0.00197124 0.527349 -0.0393802
v -0.00014 0.527814 -0.0743146
v -0.0114736 0.527978 -0.00415362
v -0.031696 0.528773 -0.00383203
v -0.0652917 0.530344 -0.00271738
v -0.0666435 0.530404 -0.00268351
v 0.0136964 0.794991 -0.00938075
v 0.0369037 0.794655 0.0168203
v 0.0594031 0.794126 0.0436252
v 0.0139096 0.794938 -0.00957839
v 0.021198 0.793222 -0.0163696
v 0.0284956 0.791526 -0.0231916
v 0.0357763 0.789831 -0.0299958
v 0.038875 0.789092 -0.0328756
v 0.0426574 0.787112 -0.0364987
v 0.0492814 0.783639 -0.0428203
v 0.0559018 0.780144 -0.0491144
v 0.0625149 0.776669 -0.0554221
v 0.00361388 0.794819 -0.0192989
v -0.0112248 0.794587 -0.0339456
v -0.0220782 0.79401 -0.0436582
v -0.0372802 0.793206 -0.057272
v 0.0134608 0.795012 -0.00916835
v 0.00255285 0.795758 0.000871098
v -0.00833626 0.796505 0.0108924
v -0.0120394 0.796775 0.014284
v -0.0194628 0.796637 0.0210527
v -0.0307121 0.79646 0.0312817
v -0.0379151 0.79635 0.0378269
v 0.0624463 0.793594 0.0418288
v 0.0677175 0.79421 -0.0179234
v 0.127114 0.78734 -0.0127531
v 0.121816 0.78673 0.047021
v 0.00305688 0.80046 0.0366551
v 0.00833984 0.801079 -0.0231115
v 0.0571417 0.792992 0.1016
v -0.00222252 0.799852 0.0964064
v 0.116521 0.786134 0.106775
v 0.121816 0.78673 0.046821
v 0.127114 0.78734 -0.0129531
v 0.0677175 0.79421 -0.0181234
v 0.0624463 0.793594 0.0416288
v 0.0571417 0.792992 0.1014
v 0.116521 0.786134 0.106575
v 0.00305688 0.80046 0.0364551
v -0.00222252 0.799852 0.0962064
v 0.00833984 0.801079 -0.0233115
v -0.0356947 0.79626 0.0407758
v -0.033106 0.798625 -0.019114
v 0.0268091 0.800047 -0.0164634
v 0.0242202 0.797675 0.0434344
v -0.0956355 0.794863 0.0381263
v -0.0930269 0.797218 -0.0217744
v -0.038303 0.793905 0.100677
v -0.0982165 0.792493 0.0980138
v 0.0216305 0.795314 0.103322
v 0.0242202 0.797675 0.0432344
v 0.0268091 0.800047 -0.0166634
v -0.033106 0.798625 -0.019314
v -0.0356947 0.79626 0.0405758
v -0.038303 0.793905 0.100477
v 0.0216305 0.795314 0.103122
v -0.0956355 0.794863 0.0379263
v -0.0982165 0.792493 0.0978138
v -0.0930269 0.797218 -0.0219744
v 0.0611334 0.777002 -0.0585098
v 0.0599526 0.758263 -0.115491
v 0.113892 0.733025 -0.108325
v 0.115099 0.751761 -0.0513394
v 0.00719528 0.802271 -0.0656926
v 0.00600643 0.783513 -0.12267
v 0.0623337 0.795738 -0.0015218
v 0.00838265 0.820991 -0.0086926
v 0.116286 0.770481 0.00564938
v 0.115099 0.751761 -0.0515394
v 0.113892 0.733025 -0.108525
v 0.0599526 0.758263 -0.115691
v 0.0611334 0.777002 -0.0587098
v 0.0623337 0.795738 -0.0017218
v 0.116286 0.770481 0.00544938
v 0.00719528 0.802271 -0.0658927
v 0.00838265 0.820991 -0.0088926
v 0.00600643 0.783513 -0.12287
v -0.0393935 0.794002 -0.0545942
v -0.043111 0.785623 -0.113881
v 0.01677 0.784046 -0.117406
v 0.0204889 0.792419 -0.0581146
v -0.0992767 0.795583 -0.0510726
v -0.10299 0.787197 -0.110356
v -0.0356932 0.802377 0.00471212
v -0.0955802 0.803964 0.00823241
v 0.0241798 0.800812 0.00118348
v 0.0204889 0.792419 -0.0583146
v 0.01677 0.784046 -0.117606
v -0.043111 0.785623 -0.114081
v -0.0393935 0.794002 -0.0547942
v -0.0356932 0.802377 0.00451212
v 0.0241798 0.800812 0.000983475
v -0.0992767 0.795583 -0.0512726
v -0.0955802 0.803964 0.00803241
v -0.10299 0.787197 -0.110556
v 0.0669767 0.746347 -0.0602859
v 0.0676663 0.771152 -0.0606021
v 0.066297 0.721307 -0.0599571
v 0.065619 0.69681 -0.0596547
v 0.0649551 0.672796 -0.0593291
v 0.0642975 0.648804 -0.0590305
v 0.0636476 0.624791 -0.0587199
v 0.0629845 0.600802 -0.0584182
v 0.0623295 0.576791 -0.058104
v 0.0616607 0.552805 -0.0577993
v 0.060999 0.528799 -0.0574831
v 0.0603346 0.504795 -0.0571654
v 0.0596855 0.480794 -0.0568663
v 0.0590134 0.456796 -0.0565477
v 0.0583567 0.432802 -0.0562477
v 0.0576961 0.408812 -0.0559476
v 0.0570421 0.384804 -0.0556366
v 0.056384 0.360801 -0.0553254
v 0.0557213 0.336802 -0.0550148
v 0.0550537 0.312809 -0.0547049
v 0.0543926 0.288799 -0.0543843
v 0.0537344 0.264817 -0.0540954
v -0.0312137 0.742517 0.0415109
v -0.0328927 0.757426 0.0408398
v -0.0342312 0.76932 0.0402988
v -0.0353009 0.788569 0.0404575
v -0.0356621 0.794709 0.0405067
v -0.0221806 0.689586 0.0471358
v -0.0236869 0.697765 0.0461219
v -0.0270525 0.715959 0.0438822
v -0.0287797 0.727008 0.0428922
v -0.0119325 0.637135 0.0548
v -0.0126558 0.640936 0.0542132
v -0.0169994 0.663357 0.0508766
v -0.00374061 0.584243 0.0618089
v -0.00737582 0.610797 0.0585541
v -0.00741931 0.611062 0.0585096
v -0.000941743 0.530502 0.0655171
v -0.000953538 0.530975 0.0655028
v -0.00135444 0.551445 0.0645395
v -0.00146506 0.557454 0.064246
v -0.00345886 0.58073 0.0621447
v -0.00623749 0.476834 0.0644085
v -0.00586972 0.479542 0.0645287
v -0.00311411 0.499755 0.0653188
v -0.00259467 0.503551 0.0654703
v -0.000980445 0.529735 0.0655209
v -0.0170541 0.424087 0.0603876
v -0.0162952 0.427456 0.060659
v -0.0112017 0.450347 0.0626206
v -0.0105589 0.453857 0.0628546
v -0.0294727 0.371772 0.0553829
v -0.0232861 0.397928 0.0579111
v -0.0400824 0.319018 0.0511219
v -0.0355088 0.344011 0.0529557
v -0.0352356 0.345495 0.0530611
v -0.0298169 0.370223 0.0552453
v -0.0448265 0.265318 0.0494244
v -0.0441302 0.279182 0.0496209
v -0.0434842 0.292276 0.049813
v -0.0427653 0.297932 0.0500944
v -0.0401918 0.317953 0.0510603
v -0.0403687 0.211627 0.0518965
v -0.0408164 0.215342 0.0516603
v -0.0429524 0.232822 0.0505481
v -0.0436232 0.238347 0.0501939
v -0.0442031 0.251124 0.0498362
v -0.0301895 0.158838 0.0569193
v -0.0312724 0.163954 0.0563981
v -0.0357019 0.185131 0.0542088
v -0.0366425 0.190472 0.0537472
v -0.0183363 0.106466 0.062666
v -0.0242603 0.132645 0.0597992
v -0.00811334 0.0536889 0.0675931
v -0.0120677 0.0760044 0.0656969
v -0.0128058 0.0801855 0.0653319
v -0.0175234 0.1026 0.063065
v -0.00349702 -1.69017e-05 0.0698148
v -0.00424932 0.0156916 0.0694487
v -0.00477289 0.0269578 0.0691776
v -0.0055305 0.033075 0.0688229
v -0.00772143 0.050658 0.0677642
v 0.0481465 0.740915 0.0472647
v 0.0490052 0.745349 0.0470782
v 0.0533017 0.767389 0.0461616
v 0.0543856 0.774895 0.0461309
v 0.0569169 0.792562 0.0461046
v 0.0354475 0.688627 0.0516583
v 0.0412734 0.711589 0.0494826
v 0.0420568 0.714688 0.0491791
v 0.0221725 0.636589 0.0573594
v 0.0241148 0.644268 0.0564938
v 0.0287185 0.662633 0.0544338
v 0.0112553 0.583977 0.0626392
v 0.0162203 0.610398 0.0601667
v 0.016678 0.612387 0.0599379
v 0.00606093 0.530372 0.0656575
v 0.0064188 0.53635 0.0654158
v 0.00767809 0.557305 0.0645616
v 0.00775493 0.557919 0.0645217
v 0.0109775 0.582045 0.0627859
v 0.00975265 0.47658 0.0645516
v 0.00845433 0.488408 0.0650258
v 0.00681036 0.503404 0.0656303
v 0.00633216 0.520604 0.0656363
v 0.020139 0.42378 0.0602683
v 0.0165406 0.440126 0.0617674
v 0.0143812 0.450047 0.0626608
v 0.0121135 0.462938 0.0635811
v 0.0328462 0.371569 0.0550553
v 0.0316741 0.37641 0.0555206
v 0.0264864 0.397676 0.0576326
v 0.0216406 0.417568 0.0596502
v 0.0433072 0.318743 0.051244
v 0.041252 0.330439 0.0519421
v 0.0386385 0.345288 0.0528405
v 0.0368453 0.353392 0.0535286
v 0.0470989 0.26496 0.0509682
v 0.0470963 0.265145 0.0509654
v 0.0462771 0.291937 0.0505464
v 0.0449176 0.304147 0.0508697
v 0.042169 0.21134 0.054264
v 0.045611 0.238043 0.0523275
v 0.0456122 0.238358 0.0523283
v 0.0470931 0.264861 0.0509624
v 0.0312221 0.158705 0.059166
v 0.0362461 0.180734 0.0570153
v 0.0371968 0.184917 0.0565968
v 0.0410066 0.205152 0.0548176
v 0.0182727 0.106535 0.0643172
v 0.0202925 0.114776 0.0635261
v 0.0247227 0.132637 0.0617946
v 0.030498 0.155854 0.0594628
v 0.00770558 0.0537579 0.0682758
v 0.00987678 0.0659062 0.067477
v 0.012416 0.0802836 0.0665314
v 0.0147321 0.0905809 0.0656628
v 0.00350978 -1.25351e-05 0.0698034
v 0.0046035 0.0269644 0.0694095
v 0.00550232 0.0345434 0.0690854
v 0.0586248 0.739859 0.0384194
v 0.0599335 0.766739 0.0405727
v 0.0622637 0.792044 0.0415927
v 0.0592222 0.686365 0.0313323
v 0.0584476 0.713053 0.0352668
v 0.0584948 0.719881 0.0360686
v 0.0630352 0.633358 0.0217953
v 0.0608356 0.659808 0.0267538
v 0.0607717 0.66092 0.0269547
v 0.0683111 0.580581 0.0116061
v 0.0656203 0.606963 0.0166642
v 0.0731212 0.527578 0.00256258
v 0.0724894 0.535181 0.00378739
v 0.071639 0.545368 0.00540895
v 0.0708922 0.554148 0.00682127
v 0.0701689 0.561612 0.00817296
v 0.0742997 0.47377 0.000286781
v 0.0744209 0.500735 8.45024e-06
v 0.0743647 0.501933 0.000110386
v 0.073806 0.513322 0.00120438
v 0.0732749 0.524697 0.00228525
v 0.0701111 0.420708 0.00892173
v 0.0703988 0.423443 0.00834069
v 0.0725433 0.44458 0.00392543
v 0.0727955 0.446987 0.00342477
v 0.0739076 0.466761 0.00111889
v 0.0627669 0.369433 0.0240916
v 0.064563 0.381206 0.0203959
v 0.0666281 0.394923 0.0161024
v 0.0669878 0.397602 0.01536
v 0.0686615 0.409961 0.0119077
v 0.0557282 0.317969 0.0388299
v 0.0563404 0.322882 0.037523
v 0.0579487 0.33568 0.0341475
v 0.0589916 0.343878 0.0319744
v 0.0596639 0.348391 0.03058
v 0.0615256 0.360957 0.0267068
v 0.0522856 0.264689 0.0462763
v 0.0533911 0.291552 0.0437955
v 0.054389 0.302857 0.041677
v 0.0534078 0.210838 0.0437277
v 0.0523706 0.237707 0.0461342
v 0.0523554 0.240854 0.0461572
v 0.0577397 0.15807 0.033345
v 0.0558962 0.177702 0.0377824
v 0.0552663 0.184281 0.0392934
v 0.0542294 0.199021 0.0417558
v 0.0634312 0.106197 0.0195017
v 0.0625394 0.114239 0.0216807
v 0.0605687 0.132103 0.026506
v 0.0596104 0.14101 0.0288405
v 0.0578603 0.157085 0.0330751
v 0.0681694 0.0536868 0.00787316
v 0.0681618 0.0537128 0.00786566
v 0.0666322 0.0729854 0.0116694
v 0.0660729 0.0801026 0.0130565
v 0.0648621 0.0920309 0.0159989
v 0.0700055 -1.25351e-05 0.00330763
v 0.0699126 0.00469468 0.00351088
v 0.0695276 0.0269625 0.00448086
v 0.0443654 0.731075 -0.0335312
v 0.0472872 0.737899 -0.0367975
v 0.051187 0.746985 -0.0411642
v 0.0540777 0.75379 -0.04441
v 0.0551431 0.755859 -0.0452379
v 0.0593624 0.764116 -0.0485483
v 0.0635807 0.772365 -0.0518489
v 0.064985 0.775117 -0.052961
v 0.0361826 0.682921 -0.0111366
v 0.0367225 0.689797 -0.0141545
v 0.0373265 0.697631 -0.0175923
v 0.0379614 0.705438 -0.0210337
v 0.0381179 0.707548 -0.0219612
v 0.0412022 0.719146 -0.0276611
v 0.0451351 0.631824 0.00274394
v 0.043676 0.637741 0.00151917
v 0.0388281 0.657488 -0.00258587
v 0.0385016 0.66058 -0.00362313
v 0.036429 0.680522 -0.0103301
v 0.0624081 0.580784 0.00315799
v 0.0607496 0.585616 0.00340096
v 0.0560557 0.599262 0.00410184
v 0.0536492 0.606269 0.00446571
v 0.0512662 0.613415 0.00398158
v 0.0463797 0.62809 0.0030029
v 0.0735833 0.528625 -0.00435631
v 0.0733705 0.529921 -0.0041453
v 0.0709648 0.545804 -0.00169675
v 0.0695652 0.554986 -0.000251411
v 0.0682894 0.559627 0.000344797
v 0.0660677 0.567624 0.00140544
v 0.063851 0.575615 0.00246768
v 0.0746294 0.475784 -0.0152197
v 0.0746697 0.483067 -0.0135253
v 0.0748084 0.502074 -0.00910314
v 0.073849 0.522913 -0.00537636
v 0.0706416 0.423849 -0.0293629
v 0.0731355 0.449752 -0.0221568
v 0.0737295 0.460086 -0.0194135
v 0.0638407 0.371876 -0.0422754
v 0.0668434 0.393779 -0.0372112
v 0.0674174 0.397946 -0.036251
v 0.0697853 0.417027 -0.0311655
v 0.0573058 0.318844 -0.0498782
v 0.0587427 0.331458 -0.0484831
v 0.0603481 0.345504 -0.0469451
v 0.063515 0.369417 -0.0427014
v 0.0540774 0.265019 -0.0495186
v 0.0551185 0.29196 -0.050772
v 0.0554104 0.211634 -0.0417521
v 0.0552958 0.214494 -0.0422418
v 0.0542834 0.238211 -0.046324
v 0.0542896 0.238991 -0.0464299
v 0.0541263 0.25963 -0.0488807
v 0.0592984 0.159009 -0.0302892
v 0.0575317 0.180693 -0.0352468
v 0.0571547 0.185243 -0.0362679
v 0.0640192 0.106615 -0.0181767
v 0.0639762 0.107158 -0.0182961
v 0.0616617 0.13282 -0.0241562
v 0.0681468 0.0537235 -0.00812667
v 0.0664719 0.0771357 -0.0121476
v 0.0662585 0.0802638 -0.0127021
v 0.0700128 -1.69017e-05 -0.00369499
v 0.0698092 0.0103477 -0.00416799
v 0.0694898 0.026961 -0.00492516
v 0.0693526 0.0296876 -0.00524834
v 0.0683603 0.0492554 -0.00757771
v 0.0353775 0.731623 -0.0448775
v 0.0485717 0.754322 -0.0511207
v 0.0496776 0.756343 -0.0517961
v 0.0546162 0.76518 -0.0547548
v 0.0595239 0.774029 -0.0576938
v 0.0604426 0.775668 -0.0582545
v 0.0116692 0.683533 -0.0399586
v 0.0132376 0.687024 -0.0401101
v 0.0177974 0.697241 -0.040515
v 0.022378 0.707444 -0.0409258
v 0.0226776 0.708156 -0.0409609
v 0.0277572 0.71755 -0.0425227
v 0.0332168 0.727634 -0.0442125
v -0.00149305 0.631899 -0.0471315
v 0.00208227 0.650734 -0.0435591
v 0.00343461 0.657956 -0.0421787
v -0.00206867 0.579978 -0.0616286
v -0.00231334 0.586248 -0.0597843
v -0.00283618 0.599782 -0.0558276
v -0.00308175 0.605863 -0.0540307
v -0.00261086 0.613609 -0.0519678
v -0.00175012 0.627705 -0.0482395
v 0.00336909 0.527804 -0.0743137
v 0.00307216 0.530512 -0.0737524
v 0.00177836 0.542393 -0.0712285
v 0.000530241 0.554089 -0.0687819
v -0.000480236 0.564194 -0.0659945
v -0.00151264 0.574473 -0.0631585
v 0.0115954 0.474792 -0.079732
v 0.00673055 0.501266 -0.0778866
v 0.00621645 0.50533 -0.077341
v 0.0241853 0.422341 -0.078062
v 0.0187781 0.443733 -0.0794375
v 0.0175824 0.448455 -0.0797256
v 0.013134 0.467996 -0.0797264
v 0.0371016 0.370431 -0.070857
v 0.0364566 0.373065 -0.0712584
v 0.0308739 0.396363 -0.0749618
v 0.0308252 0.396495 -0.0749713
v 0.0463239 0.318071 -0.061574
v 0.0430603 0.339781 -0.0653884
v 0.0423778 0.344365 -0.066203
v 0.0491688 0.264659 -0.054499
v 0.0487389 0.285795 -0.0568584
v 0.0486322 0.291483 -0.0575121
v 0.0437088 0.211026 -0.0534931
v 0.0439159 0.212514 -0.0534701
v 0.0463578 0.229793 -0.0532767
v 0.0474921 0.237751 -0.0531718
v 0.0324185 0.158367 -0.0571783
v 0.0334648 0.162913 -0.0568028
v 0.0385057 0.184577 -0.054958
v 0.0391659 0.187911 -0.0547806
v 0.0195011 0.10623 -0.062703
v 0.0259369 0.132301 -0.0598552
v 0.00844377 0.0536366 -0.0678252
v 0.00895527 0.0562966 -0.0675744
v 0.0135055 0.0800448 -0.065445
v 0.0137832 0.0813147 -0.0653169
v 0.019444 0.105972 -0.0627225
v 0.00351 -1.89177e-05 -0.0701905
v 0.00374822 0.00477967 -0.0700874
v 0.00460109 0.0215484 -0.0696665
v 0.00486551 0.0269429 -0.0695336
v 0.00640978 0.0384731 -0.068797
v -0.0333453 0.739523 -0.0544356
v -0.0346619 0.766384 -0.0566345
v -0.0347934 0.791631 -0.059754
v -0.0275221 0.685872 -0.0537737
v -0.0305663 0.710003 -0.0534975
v -0.030888 0.712646 -0.0534761
v -0.0190847 0.632702 -0.0577634
v -0.0234881 0.659207 -0.0552391
v -0.0239414 0.662168 -0.0550804
v -0.0103295 0.579932 -0.065162
v -0.0109525 0.583829 -0.0645882
v -0.0146 0.606296 -0.0611484
v -0.00360791 0.527103 -0.0740058
v -0.00465287 0.536399 -0.0724385
v -0.00607069 0.54914 -0.0703138
v -0.00656482 0.55356 -0.0695641
v -0.00358581 0.47351 -0.0794941
v -0.00231486 0.500399 -0.07765
v -0.00271585 0.508657 -0.0765087
v -0.00340347 0.523181 -0.0745498
v -0.0132248 0.420533 -0.0771344
v -0.0103852 0.433303 -0.0781763
v -0.00738691 0.446791 -0.0792787
v -0.00625988 0.454595 -0.0793442
v -0.0281305 0.369375 -0.068541
v -0.025223 0.378939 -0.0703439
v -0.0204238 0.394792 -0.0733662
v -0.0179961 0.403445 -0.0746251
v -0.0145501 0.415758 -0.0764309
v -0.0414496 0.318038 -0.0585094
v -0.0396775 0.325633 -0.0599285
v -0.0363979 0.33962 -0.0625547
v -0.0354009 0.343887 -0.0633424
v -0.0327087 0.35333 -0.0652642
v -0.0288273 0.366934 -0.0680395
v -0.0471269 0.264767 -0.0526305
v -0.045486 0.291606 -0.0547468
v -0.044156 0.300352 -0.0559938
v -0.0432187 0.210984 -0.0528378
v -0.0438038 0.216242 -0.0527154
v -0.0462506 0.237797 -0.052141
v -0.0465615 0.247184 -0.0522968
v -0.0324226 0.158248 -0.0569894
v -0.0352043 0.170399 -0.0558583
v -0.0384308 0.184469 -0.0545471
v -0.0398605 0.1924 -0.054045
v -0.0191175 0.106263 -0.062882
v -0.0209005 0.11319 -0.0620797
v -0.025794 0.132238 -0.0598652
v -0.0299716 0.14857 -0.0580595
v -0.0080098 0.0536961 -0.0680474
v -0.0107895 0.0684645 -0.0667331
v -0.0129994 0.0801144 -0.0656977
v -0.0154002 0.0903713 -0.0645853
v -0.00350673 -3.98524e-06 -0.0701889
v -0.00393566 0.0101942 -0.069979
v -0.00468117 0.0269411 -0.0696229
v -0.00669547 0.0431036 -0.0686764
v -0.0425627 0.741001 -0.0451128
v -0.0404484 0.767377 -0.050434
v -0.0403246 0.770243 -0.0509128
v -0.0394336 0.792458 -0.0545716
v -0.0486989 0.688736 -0.0329658
v -0.0453923 0.714812 -0.039195
v -0.0433568 0.73365 -0.0434487
v -0.0559021 0.636635 -0.0207289
v -0.0548527 0.644266 -0.0224765
v -0.0522808 0.662714 -0.0267124
v -0.0625096 0.583991 -0.0107636
v -0.0596917 0.607925 -0.0148679
v -0.0593886 0.610428 -0.0152981
v -0.0666455 0.530414 -0.00619173
v -0.0661811 0.538238 -0.00657219
v -0.0651879 0.554788 -0.0074232
v -0.0650298 0.55731 -0.00754544
v -0.0631951 0.57671 -0.0098898
v -0.0662728 0.47666 -0.0106014
v -0.0666889 0.490859 -0.00882383
v -0.0670323 0.503446 -0.00727698
v -0.0668588 0.515625 -0.00678513
v -0.0625436 0.423929 -0.0214685
v -0.0625947 0.424686 -0.0212909
v -0.0644509 0.447114 -0.0162204
v -0.0647011 0.450172 -0.0155211
v -0.0658668 0.469625 -0.0118904
v -0.0575216 0.371681 -0.0342027
v -0.0582314 0.378888 -0.0324486
v -0.0600653 0.397804 -0.0278676
v -0.0532421 0.318843 -0.0444082
v -0.0543349 0.333873 -0.041861
v -0.0551841 0.345401 -0.0398892
v -0.0561542 0.356229 -0.0375374
v -0.0517801 0.265051 -0.0474177
v -0.0520038 0.289886 -0.0471566
v -0.052039 0.292029 -0.0471158
v -0.0529475 0.312079 -0.04508
v -0.0540199 0.211463 -0.0414768
v -0.0537992 0.215493 -0.0420475
v -0.0525395 0.238147 -0.0452898
v -0.0523305 0.245417 -0.0458728
v -0.051884 0.261364 -0.0471267
v -0.0586099 0.158851 -0.0302656
v -0.0582769 0.162374 -0.0310838
v -0.0561005 0.185046 -0.0363186
v -0.0558649 0.188127 -0.036915
v -0.0639709 0.106638 -0.0175885
v -0.0628477 0.11764 -0.0202186
v -0.0613021 0.132766 -0.0238549
v -0.0683027 0.0537756 -0.00756409
v -0.0675632 0.0638537 -0.00924993
v -0.0663713 0.0803415 -0.0120127
v -0.0653328 0.0917284 -0.0144246
v -0.069995 -3.98524e-06 -0.00370064
v -0.0696652 0.0195441 -0.00442847
v -0.0695472 0.0269622 -0.00470674
v -0.0419554 0.742652 0.0304531
v -0.0418839 0.743751 0.0305916
v -0.0404927 0.769412 0.0336319
v -0.0404617 0.77393 0.0339318
v -0.0403963 0.794788 0.0353504
v -0.0476507 0.689674 0.0216649
v -0.0455747 0.706859 0.0247017
v -0.0444381 0.71608 0.026331
v -0.0550514 0.637073 0.0119447
v -0.0512681 0.663382 0.0167399
v -0.0620512 0.584156 0.00395903
v -0.0600366 0.600214 0.00612697
v -0.0587316 0.610704 0.00754789
v -0.0554334 0.63429 0.0114696
v -0.0663807 0.530457 0.0008139
v -0.066119 0.534601 0.000935091
v -0.0651741 0.550034 0.00136464
v -0.0647028 0.557382 0.00156169
v -0.0633769 0.570709 0.00276075
v -0.0657455 0.476772 0.00590927
v -0.0658448 0.480138 0.00544749
v -0.0664716 0.49736 0.00316194
v -0.0666788 0.503501 0.00234934
v -0.0664672 0.52249 0.00126847
v -0.0616583 0.423999 0.0165826
v -0.0621287 0.429122 0.0154729
v -0.0639827 0.450287 0.0108309
v -0.0643092 0.455411 0.00986501
v -0.0564459 0.371684 0.028897
v -0.0590891 0.397849 0.0227372
v -0.0518278 0.318957 0.0395489
v -0.0536991 0.342284 0.0352293
v -0.0539391 0.34544 0.0346244
v -0.0561589 0.368698 0.0295461
v -0.0498316 0.265301 0.0445331
v -0.0501309 0.281489 0.0436542
v -0.0503352 0.292246 0.0430643
v -0.0507253 0.299333 0.0421266
v -0.0517071 0.316745 0.0398378
v -0.0521527 0.21158 0.0402858
v -0.0509999 0.230258 0.0424845
v -0.0505103 0.238334 0.0434484
v -0.0502397 0.249027 0.0438669
v -0.0571324 0.158788 0.0301171
v -0.0570825 0.15937 0.0302402
v -0.0544642 0.184808 0.0356007
v -0.0544335 0.18507 0.035668
v -0.0522374 0.210485 0.0400941
v -0.0629224 0.106467 0.0181098
v -0.0600342 0.132635 0.0241151
v -0.0678487 0.053698 0.00783646
v -0.0658396 0.077391 0.0120375
v -0.0656033 0.0801882 0.0125286
v -0.0632678 0.103062 0.0173987
v -0.0699925 -1.89177e-05 0.00331194
v -0.0697229 0.0125622 0.00390036
v -0.0694178 0.0269577 0.00455193
v -0.0690881 0.0322337 0.00520192
v -0.0679452 0.0520111 0.00763303
v -0.0575725 0.0607029 -0.335641
v -0.0786484 0.0607029 -0.335641
v -0.0786484 -0.00585062 -0.335641
v -0.0575725 -0.00585062 -0.335641
v -0.0771062 -0.00225295 -0.335641
v -0.074793 -0.00225295 -0.335641
v -0.074793 0.00134473 -0.335641
v -0.0771062 0.00134473 -0.335641
v -0.0771062 0.00134473 -0.335641
v -0.074793 0.00134473 -0.335641
v -0.074793 0.00494124 -0.335641
v -0.0771062 0.00494124 -0.335641
v -0.0771062 0.00494124 -0.335641
v -0.074793 0.00494124 -0.335641
v -0.074793 0.00853892 -0.335641
v -0.0771062 0.00853892 -0.335641
v -0.0771062 0.00853892 -0.335641
v -0.074793 0.00853892 -0.335641
v -0.074793 0.0121366 -0.335641
v -0.0771062 0.0121366 -0.335641
v -0.0771062 0.0121366 -0.335641
v -0.074793 0.0121366 -0.335641
v -0.074793 0.0157343 -0.335641
v -0.0771062 0.0157343 -0.335641
v -0.0771062 0.0157343 -0.335641
v -0.074793 0.0157343 -0.335641
v -0.074793 0.019332 -0.335641
v -0.0771062 0.019332 -0.335641
v -0.0771062 0.019332 -0.335641
v -0.074793 0.019332 -0.335641
v -0.074793 0.0229296 -0.335641
v -0.0771062 0.0229296 -0.335641
v -0.0771062 0.0229296 -0.335641
v -0.074793 0.0229296 -0.335641
v -0.074793 0.0265261 -0.335641
v -0.0771062 0.0265261 -0.335641
v -0.0771062 0.0265261 -0.335641
v -0.074793 0.0265261 -0.335641
v -0.074793 0.0301238 -0.335641
v -0.0771062 0.0301238 -0.335641
v -0.0771062 0.0301238 -0.335641
v -0.074793 0.0301238 -0.335641
v -0.074793 0.0337215 -0.335641
v -0.0771062 0.0337215 -0.335641
v -0.0771062 0.0337215 -0.335641
v -0.074793 0.0337215 -0.335641
v -0.074793 0.0373192 -0.335641
v -0.0771062 0.0373192 -0.335641
v -0.0771062 0.0373192 -0.335641
v -0.074793 0.0373192 -0.335641
v -0.074793 0.0409168 -0.335641
v -0.0771062 0.0409168 -0.335641
v -0.0771062 -0.00225295 -0.335641
v -0.074022 -0.00225295 -0.335641
v -0.0771062 0.00134473 -0.335641
v -0.074022 0.00134473 -0.335641
v -0.0771062 0.00494124 -0.335641
v -0.074022 0.00494124 -0.335641
v -0.0771062 0.00853892 -0.335641
v -0.074022 0.00853892 -0.335641
v -0.0771062 0.0121366 -0.335641
v -0.074022 0.0121366 -0.335641
v -0.0771062 0.0157343 -0.335641
v -0.074022 0.0157343 -0.335641
v -0.0771062 0.019332 -0.335641
v -0.074022 0.019332 -0.335641
v -0.0771062 0.0229296 -0.335641
v -0.074022 0.0229296 -0.335641
v -0.0771062 0.0265261 -0.335641
v -0.074022 0.0265261 -0.335641
v -0.0771062 0.0301238 -0.335641
v -0.074022 0.0301238 -0.335641
v -0.0771062 0.0337215 -0.335641
v -0.074022 0.0337215 -0.335641
v -0.0771062 0.0373192 -0.335641
v -0.074022 0.0373192 -0.335641
v -0.0771062 0.0409168 -0.335641
v -0.074022 0.0409168 -0.335641
v -0.074793 0.0409168 -0.335641
v -0.074793 -0.00225295 -0.335641

#List of body polygons
f 60 61 62
f 60 62 63
f 60 64 65
f 60 65 61
f 64 60 66
f 64 66 67
f 60 63 68
f 60 68 66
f 78 79 80
f 78 80 81
f 78 82 83
f 78 83 79
f 82 78 84
f 82 84 85
f 78 81 86
f 78 86 84
f 96 97 98
f 96 98 99
f 96 100 101
f 96 101 97
f 100 96 102
f 100 102 103
f 96 99 104
f 96 104 102
f 114 115 116
f 114 116 117
f 114 118 119
f 114 119 115
f 118 114 120
f 118 120 121
f 114 117 122
f 114 122 120

#List of body lines
l 1 2
l 2 3
l 1 4
l 4 5
l 1 6
l 6 7
l 1 8
l 8 9
l 10 11
l 11 12
l 10 13
l 10 16
l 16 17
l 10 18
l 18 19
l 21 22
l 22 23
l 20 24
l 33 34
l 34 35
l 37 38
l 38 39
l 51 52
l 58 59
l 132 133
l 134 132
l 135 134
l 136 135
l 137 136
l 138 137
l 139 138
l 140 139
l 141 140
l 142 141
l 143 142
l 144 143
l 145 144
l 146 145
l 147 146
l 148 147
l 149 148
l 150 149
l 151 150
l 152 151
l 153 152
l 159 160
l 164 165
l 165 159
l 179 180
l 183 184
l 184 179
l 188 183
l 199 200
l 203 204
l 204 199
l 208 203
l 219 220
l 223 224
l 224 219
l 242 243
l 243 244
l 262 263
l 263 264
l 278 279
l 279 280
l 281 282
l 282 278
l 287 281
l 298 299
l 308 298
l 320 321
l 321 322
l 368 369
l 369 370
l 374 368
l 386 387
l 390 391
l 391 386
l 431 432
l 438 431
l 449 450
l 453 454
l 454 449
l 459 453
l 471 472
l 472 473
l 475 476
l 476 471
l 489 490
l 499 489
l 512 513
l 513 514
l 527 528
l 528 529
l 531 532
l 532 527
l 545 546
l 551 552
l 552 545
l 566 567
l 571 572
l 572 566
l 585 586
l 588 589
l 589 585
l 593 588
l 604 605
l 608 609
l 609 604
l 613 608
l 623 624
l 628 629
l 629 623
l 633 628

#List of body lines
l 13 14
l 14 15
l 20 21
l 24 25
l 30 31
l 31 32
l 20 33
l 35 36
l 49 50
l 50 51
l 57 58
l 160 161
l 161 162
l 163 164
l 168 163
l 180 181
l 181 182
l 186 187
l 187 188
l 200 201
l 201 202
l 206 207
l 207 208
l 214 215
l 220 221
l 221 214
l 222 223
l 227 222
l 237 238
l 241 242
l 244 237
l 248 241
l 257 258
l 261 262
l 264 257
l 268 261
l 275 276
l 276 277
l 280 275
l 285 286
l 286 287
l 299 300
l 300 301
l 307 308
l 319 320
l 322 323
l 328 319
l 332 333
l 345 332
l 359 360
l 360 361
l 364 365
l 370 364
l 372 373
l 373 374
l 381 382
l 387 388
l 388 381
l 389 390
l 393 394
l 394 389
l 400 401
l 401 402
l 412 400
l 424 425
l 425 426
l 432 433
l 433 434
l 436 437
l 437 438
l 450 451
l 451 452
l 458 459
l 468 469
l 473 468
l 474 475
l 479 480
l 480 474
l 490 491
l 491 492
l 498 499
l 507 508
l 511 512
l 514 507
l 518 511
l 523 524
l 524 525
l 529 523
l 530 531
l 534 535
l 535 530
l 546 547
l 550 551
l 556 550
l 567 568
l 568 569
l 570 571
l 576 570
l 580 581
l 586 587
l 587 580
l 591 592
l 592 593
l 605 606
l 606 607
l 611 612
l 612 613
l 624 625
l 631 632
l 632 633

#List of body lines
l 25 26
l 26 27
l 20 30
l 37 49
l 55 56
l 56 57
l 154 155
l 162 154
l 166 167
l 167 168
l 173 166
l 174 175
l 182 174
l 185 186
l 193 185
l 194 195
l 202 194
l 205 206
l 213 205
l 215 216
l 216 217
l 225 226
l 226 227
l 232 225
l 238 239
l 239 240
l 246 247
l 247 248
l 258 259
l 259 260
l 266 267
l 267 268
l 272 273
l 273 274
l 277 272
l 284 285
l 301 302
l 305 306
l 306 307
l 315 316
l 323 315
l 326 327
l 327 328
l 333 334
l 343 344
l 344 345
l 358 359
l 361 362
l 365 366
l 366 367
l 371 372
l 378 371
l 382 383
l 383 384
l 392 393
l 399 392
l 402 403
l 411 412
l 423 424
l 426 427
l 428 429
l 429 430
l 434 428
l 435 436
l 440 441
l 441 435
l 445 446
l 452 445
l 456 457
l 457 458
l 465 466
l 466 467
l 469 470
l 470 465
l 478 479
l 492 493
l 496 497
l 497 498
l 508 509
l 509 510
l 516 517
l 517 518
l 525 526
l 533 534
l 540 533
l 547 548
l 548 549
l 554 555
l 555 556
l 561 562
l 569 561
l 574 575
l 575 576
l 581 582
l 582 583
l 590 591
l 598 590
l 599 600
l 607 599
l 610 611
l 618 610
l 625 626
l 626 627
l 630 631
l 638 630

#List of body lines
l 27 28
l 54 55
l 155 156
l 156 157
l 171 172
l 172 173
l 175 176
l 192 193
l 195 196
l 212 213
l 217 218
l 231 232
l 233 234
l 240 233
l 245 246
l 252 245
l 253 254
l 254 255
l 260 253
l 265 266
l 271 265
l 283 284
l 292 283
l 293 294
l 302 293
l 304 305
l 316 317
l 317 318
l 325 326
l 334 335
l 335 336
l 342 343
l 357 358
l 362 363
l 367 357
l 376 377
l 377 378
l 384 385
l 398 399
l 403 404
l 409 410
l 410 411
l 416 417
l 422 423
l 427 416
l 430 422
l 439 440
l 443 444
l 444 439
l 446 447
l 455 456
l 464 455
l 477 478
l 484 477
l 485 486
l 493 485
l 495 496
l 503 504
l 510 503
l 515 516
l 522 515
l 538 539
l 539 540
l 541 542
l 549 541
l 553 554
l 560 553
l 562 563
l 563 564
l 573 574
l 578 579
l 579 573
l 583 584
l 596 597
l 597 598
l 600 601
l 617 618
l 619 620
l 627 619
l 637 638

#List of body lines
l 28 29
l 37 40
l 53 54
l 157 158
l 170 171
l 176 177
l 177 178
l 190 191
l 191 192
l 196 197
l 197 198
l 210 211
l 211 212
l 229 230
l 230 231
l 234 235
l 235 236
l 250 251
l 251 252
l 255 256
l 269 270
l 270 271
l 291 292
l 294 295
l 303 304
l 311 303
l 312 313
l 313 314
l 318 312
l 324 325
l 330 331
l 331 324
l 336 337
l 341 342
l 351 352
l 363 351
l 375 376
l 379 380
l 380 375
l 385 379
l 396 397
l 397 398
l 404 405
l 408 409
l 417 418
l 442 443
l 447 448
l 448 442
l 462 463
l 463 464
l 483 484
l 486 487
l 487 488
l 494 495
l 502 494
l 504 505
l 505 506
l 520 521
l 521 522
l 537 538
l 542 543
l 543 544
l 558 559
l 559 560
l 564 565
l 577 578
l 595 596
l 601 602
l 602 603
l 615 616
l 616 617
l 620 621
l 621 622
l 635 636
l 636 637

#List of body lines
l 40 41
l 37 53
l 169 170
l 178 169
l 189 190
l 198 189
l 209 210
l 228 229
l 236 228
l 249 250
l 256 249
l 290 291
l 295 296
l 296 297
l 309 310
l 310 311
l 314 309
l 329 330
l 337 338
l 340 341
l 350 340
l 352 353
l 395 396
l 407 408
l 418 419
l 419 420
l 461 462
l 481 482
l 482 483
l 488 481
l 500 501
l 501 502
l 506 500
l 519 520
l 536 537
l 544 536
l 557 558
l 565 557
l 594 595
l 603 594
l 614 615
l 622 614
l 634 635

#List of body lines
l 41 42
l 288 289
l 289 290
l 297 288
l 338 339
l 349 350
l 353 354
l 354 355
l 406 407
l 414 415
l 415 406
l 420 421
l 460 461

#List of body lines
l 42 43
l 347 348
l 348 349
l 355 356
l 413 414
l 421 413

#List of body lines
l 43 44
l 44 45
l 346 347
l 356 346

#List of body lines
l 45 46

#List of body lines
l 46 47

#List of body lines
l 47 48

#List of body lines
l 69 70
l 70 71
l 71 72
l 72 73
l 73 74
l 74 69
l 69 72
l 72 75
l 75 76
l 76 73
l 77 71
l 75 77
l 87 88
l 88 89
l 89 90
l 90 91
l 91 92
l 92 87
l 87 90
l 90 93
l 93 94
l 94 91
l 95 89
l 93 95
l 105 106
l 106 107
l 107 108
l 108 109
l 109 110
l 110 105
l 105 108
l 108 111
l 111 112
l 112 109
l 113 107
l 111 113
l 123 124
l 124 125
l 125 126
l 126 127
l 127 128
l 128 123
l 123 126
l 126 129
l 129 130
l 130 127
l 131 125
l 129 131


