#OBJ File generated by Abaqus/CAE
#List of Vertices
v 2.81333e-07 -2.02865e-05 -0.000180704
v 7.18304e-06 -1.37101e-06 0.0347932
v -7.04813e-06 2.63367e-06 0.0698041
v 0.0350048 -1.37392e-06 -0.000204481
v 0.070007 2.62785e-06 -0.000209923
v 7.48306e-06 -9.35205e-06 -0.0351991
v 1.21759e-05 -1.4236e-05 -0.0701985
v -0.0349897 -9.34914e-06 -0.000201974
v -0.0700002 -1.42302e-05 -0.000186187
v -0.000825565 0.265439 0.00103358
v -0.000489012 0.265456 0.0013702
v 0.02422 0.265335 0.0254671
v 0.0496877 0.265035 0.0494819
v 0.0096571 0.265464 -0.00946384
v 0.0239152 0.265491 -0.0237339
v 0.03636 0.265224 -0.0362971
v 0.0485482 0.264938 -0.0485762
v -0.0252386 0.265305 -0.024045
v -0.0493742 0.265096 -0.0493969
v -0.0256398 0.265172 0.0257291
v -0.0504327 0.264846 0.0504105
v -0.00210784 0.529766 0.00251115
v -0.00180851 0.529626 0.0375185
v -0.00101524 0.529579 0.0724931
v 0.03288 0.530023 0.00179785
v 0.0678454 0.530391 0.000186438
v -0.00140444 0.530023 -0.0324737
v -0.000206795 0.530381 -0.0674485
v -0.0370985 0.529631 0.00207834
v -0.0720867 0.529711 0.00129883
v -0.00359981 0.79596 0.00419046
v 0.0215053 0.795714 0.0285745
v 0.0289108 0.795419 0.0354947
v 0.0470475 0.794749 0.0524781
v 0.00319179 0.796008 -0.00263083
v 0.0210901 0.796149 -0.0206242
v 0.0456296 0.796072 -0.0455555
v -0.0279168 0.795647 -0.0209679
v -0.0517771 0.794939 -0.0465756
v -0.0283335 0.795367 0.0289639
v -0.0530227 0.794302 0.0537521
v 0.0494136 0.79496 0.0501715
v 0.0472657 0.800356 -0.00952971
v 0.107158 0.797649 -0.0119251
v 0.109297 0.79224 0.0477978
v -0.0104899 0.797672 0.0525729
v -0.0126179 0.803075 -0.00715474
v 0.0515448 0.789545 0.109907
v -0.00835225 0.792271 0.112289
v 0.111446 0.786836 0.107506
v 0.109297 0.79224 0.0475978
v 0.107158 0.797649 -0.0121251
v 0.0472657 0.800356 -0.00972971
v 0.0494136 0.79496 0.0499715
v 0.0515448 0.789545 0.109707
v 0.111446 0.786836 0.107306
v -0.0104899 0.797672 0.0523729
v -0.00835225 0.792271 0.112089
v -0.0126179 0.803075 -0.00735474
v -0.0506221 0.794166 0.0565373
v -0.0508529 0.799397 -0.00322644
v 0.00902343 0.803057 -0.00313068
v 0.00925849 0.797823 0.0566332
v -0.11051 0.790504 0.0564553
v -0.110735 0.795729 -0.00330898
v -0.050394 0.788926 0.116315
v -0.110288 0.785267 0.116235
v 0.00949027 0.792581 0.116407
v 0.00925849 0.797823 0.0564332
v 0.00902343 0.803057 -0.00333068
v -0.0508529 0.799397 -0.00342644
v -0.0506221 0.794166 0.0563373
v -0.050394 0.788926 0.116115
v 0.00949027 0.792581 0.116207
v -0.11051 0.790504 0.0562553
v -0.110288 0.785267 0.116035
v -0.110735 0.795729 -0.00350898
v 0.043116 0.796077 -0.0477933
v 0.0424912 0.796329 -0.107768
v 0.102488 0.796842 -0.108391
v 0.103111 0.796609 -0.0484034
v -0.0168754 0.795587 -0.0471767
v -0.0174912 0.79582 -0.107168
v 0.0437177 0.795848 0.0122077
v -0.0162704 0.795341 0.0128182
v 0.103709 0.796342 0.0116055
v 0.103111 0.796609 -0.0486034
v 0.102488 0.796842 -0.108591
v 0.0424912 0.796329 -0.107968
v 0.043116 0.796077 -0.0479933
v 0.0437177 0.795848 0.0120077
v 0.103709 0.796342 0.0114055
v -0.0168754 0.795587 -0.0473767
v -0.0162704 0.795341 0.0126182
v -0.0174912 0.79582 -0.107368
v -0.0545059 0.794956 -0.0441943
v -0.0522292 0.790851 -0.104019
v 0.00761325 0.794513 -0.101979
v 0.00534944 0.798629 -0.0421781
v -0.11436 0.791304 -0.0462324
v -0.112076 0.787185 -0.10605
v -0.056783 0.799083 0.0156084
v -0.116634 0.795421 0.0135772
v 0.00305951 0.802746 0.0176474
v 0.00534944 0.798629 -0.0423781
v 0.00761325 0.794513 -0.102179
v -0.0522292 0.790851 -0.104219
v -0.0545059 0.794956 -0.0443943
v -0.056783 0.799083 0.0154084
v 0.00305951 0.802746 0.0174474
v -0.11436 0.791304 -0.0464324
v -0.116634 0.795421 0.0133772
v -0.112076 0.787185 -0.10625
v 0.0520123 0.769363 -0.0518515
v 0.0520815 0.794602 -0.05191
v 0.0519464 0.744116 -0.0517883
v 0.0518729 0.718883 -0.0517315
v 0.0518018 0.693643 -0.051671
v 0.0517337 0.668397 -0.0516062
v 0.0516759 0.643166 -0.0515674
v 0.0516014 0.61793 -0.0515065
v 0.0515291 0.592688 -0.0514421
v 0.0514586 0.567441 -0.0513746
v 0.0513979 0.542212 -0.0513339
v 0.0513307 0.516956 -0.0512605
v 0.0512536 0.491718 -0.0511958
v 0.0511967 0.466477 -0.0511477
v 0.0511219 0.441233 -0.0510782
v 0.0510555 0.416009 -0.0510372
v 0.0509816 0.390759 -0.0509643
v 0.0509273 0.365508 -0.0509088
v 0.0508428 0.340278 -0.0508439
v 0.0507775 0.315047 -0.0507971
v 0.0507038 0.289793 -0.0507188
v 0.0506379 0.26456 -0.0506702
v -0.0439201 0.740668 0.0547284
v -0.0459277 0.753535 0.0547299
v -0.0481056 0.767322 0.0547752
v -0.0481556 0.767893 0.0547956
v -0.0494731 0.781682 0.0555728
v -0.0505322 0.792594 0.0562168
v -0.032354 0.688031 0.0580359
v -0.0345152 0.697209 0.0572921
v -0.0378271 0.711306 0.0561581
v -0.0385008 0.714231 0.055919
v -0.0407716 0.725269 0.0554211
v -0.0436107 0.739192 0.0547846
v -0.0195811 0.635894 0.0637522
v -0.0211571 0.642356 0.0630138
v -0.0246776 0.656865 0.0613478
v -0.025914 0.661959 0.0607654
v -0.0291435 0.675027 0.0593923
v -0.0091022 0.583244 0.069411
v -0.00946938 0.585272 0.0692236
v -0.0120188 0.59954 0.0677809
v -0.0138264 0.609669 0.0667576
v -0.0147339 0.613792 0.0662848
v -0.0178482 0.628004 0.0646538
v -0.00450511 0.529566 0.0724959
v -0.00461917 0.531771 0.0724084
v -0.00521928 0.543988 0.0719348
v -0.00582252 0.556212 0.0714577
v -0.00584404 0.556525 0.0714347
v -0.00757137 0.570746 0.0703589
v -0.00873628 0.475824 0.0712498
v -0.00699799 0.490347 0.0718679
v -0.00555764 0.502611 0.0723947
v -0.00540919 0.506347 0.0724077
v -0.00464743 0.526027 0.0724874
v -0.0196169 0.423155 0.0666718
v -0.0181931 0.429366 0.0672824
v -0.0155621 0.440797 0.0684117
v -0.0135947 0.449348 0.0692456
v -0.0130773 0.452277 0.0694751
v -0.0109468 0.463827 0.0703418
v -0.00882049 0.475383 0.0712069
v -0.0327839 0.371128 0.060693
v -0.0313732 0.37666 0.0613249
v -0.0285575 0.387812 0.0626232
v -0.0261883 0.39713 0.0637235
v -0.0238047 0.406643 0.0648011
v -0.0209301 0.417969 0.0660894
v -0.0436823 0.31852 0.0554188
v -0.0434427 0.319777 0.0555315
v -0.0413346 0.331249 0.0565739
v -0.0392196 0.342706 0.0576253
v -0.0387965 0.344964 0.0578362
v -0.0366973 0.354075 0.0588143
v -0.0340864 0.365415 0.0600555
v -0.0479555 0.264817 0.0528909
v -0.0477006 0.271571 0.0530939
v -0.0469641 0.290105 0.0536491
v -0.0468983 0.291774 0.0537021
v -0.0452725 0.305307 0.054557
v -0.0433211 0.211111 0.0542186
v -0.0453647 0.227414 0.053555
v -0.046664 0.237854 0.0531249
v -0.0469803 0.244148 0.0530765
v -0.0477029 0.259303 0.0529487
v -0.0322133 0.158444 0.0583816
v -0.0334986 0.16394 0.05789
v -0.0361787 0.175403 0.0568717
v -0.0383273 0.184643 0.0560429
v -0.0387628 0.18688 0.0559074
v -0.0409531 0.198501 0.055097
v -0.0431368 0.210111 0.0542915
v -0.0188675 0.106386 0.0636271
v -0.0203915 0.112341 0.0630176
v -0.0229909 0.122554 0.0619788
v -0.0255372 0.132416 0.0609932
v -0.0281126 0.142498 0.0599759
v -0.0308019 0.152983 0.0589197
v -0.00787809 0.0537091 0.0680218
v -0.00812535 0.0549815 0.0679262
v -0.0102916 0.0666981 0.0670439
v -0.0124707 0.078403 0.066186
v -0.0128008 0.0801954 0.0660441
v -0.0150745 0.0899955 0.0651402
v -0.0177378 0.101539 0.0640729
v -0.00349108 -2.31559e-06 0.0697934
v -0.00431192 0.0188939 0.0694707
v -0.00464485 0.0269442 0.0693341
v -0.0059124 0.0374252 0.0688054
v 0.0386793 0.741152 0.0534295
v 0.0400498 0.750807 0.0534562
v 0.0422797 0.766534 0.0534887
v 0.0424918 0.767876 0.0534778
v 0.0436244 0.781723 0.0543054
v 0.0445784 0.79317 0.0549565
v 0.0278432 0.688384 0.0569173
v 0.0294935 0.695854 0.0562795
v 0.0324456 0.709264 0.0551501
v 0.0336327 0.714655 0.0546923
v 0.0351505 0.722658 0.054303
v 0.0376918 0.736011 0.0536717
v 0.0157793 0.636106 0.0630456
v 0.0176638 0.644439 0.0620194
v 0.0206697 0.657595 0.0603847
v 0.0217296 0.662244 0.0598244
v 0.0244564 0.673857 0.0585247
v 0.00614324 0.583348 0.0690847
v 0.00711461 0.58933 0.0684495
v 0.00938718 0.603271 0.066942
v 0.0104432 0.609836 0.0662441
v 0.0119291 0.617184 0.0653368
v 0.0147365 0.631023 0.0636688
v 0.00248402 0.52962 0.0723135
v 0.00262178 0.534279 0.0721262
v 0.00301072 0.545575 0.0716673
v 0.00336827 0.556574 0.0712175
v 0.00340969 0.557054 0.0711812
v 0.00516104 0.573795 0.0698395
v 0.00744887 0.475935 0.0708254
v 0.00665396 0.481995 0.0711036
v 0.00515383 0.493265 0.0716748
v 0.00391138 0.502673 0.0721307
v 0.00375796 0.505515 0.0721531
v 0.00285764 0.522599 0.0722677
v 0.0185695 0.423344 0.0659225
v 0.0159771 0.43455 0.0670967
v 0.0132306 0.446433 0.0683366
v 0.0124993 0.449525 0.0686576
v 0.010816 0.458406 0.0693703
v 0.00851475 0.470385 0.0703598
v 0.0315928 0.371307 0.0597932
v 0.0308999 0.374051 0.0601256
v 0.0278668 0.386216 0.0615689
v 0.0250979 0.397314 0.0628908
v 0.0220783 0.40937 0.0642963
v 0.0187526 0.422591 0.0658417
v 0.0425364 0.318721 0.0544404
v 0.0411084 0.326381 0.0551505
v 0.0388619 0.338342 0.0562596
v 0.0375842 0.345145 0.056886
v 0.0364053 0.350266 0.0574589
v 0.0336937 0.362118 0.0587793
v 0.0472092 0.265035 0.0519605
v 0.0468725 0.272116 0.0521607
v 0.0464119 0.282153 0.0524279
v 0.0459515 0.291988 0.0526942
v 0.0459207 0.292227 0.0527017
v 0.0444813 0.30346 0.0534439
v 0.0430693 0.31468 0.0541717
v 0.0424311 0.211359 0.0537489
v 0.0434371 0.219087 0.0533615
v 0.044626 0.228319 0.0528885
v 0.0458184 0.237542 0.0524213
v 0.0458949 0.238089 0.0523822
v 0.0463651 0.247667 0.0522343
v 0.046857 0.257856 0.0520705
v 0.0316739 0.158635 0.0581424
v 0.0318378 0.15937 0.0580724
v 0.0345993 0.171816 0.0569386
v 0.0373847 0.184244 0.055798
v 0.0375245 0.184878 0.0557437
v 0.0397285 0.196794 0.0548422
v 0.0420753 0.209325 0.0538962
v 0.0190717 0.106382 0.0633544
v 0.0223736 0.12011 0.0619821
v 0.0253753 0.132501 0.060751
v 0.028143 0.144045 0.0596071
v 0.00827978 0.0536692 0.0678312
v 0.00830363 0.0538335 0.0678153
v 0.0106575 0.0664737 0.0668309
v 0.0129975 0.0790968 0.0658784
v 0.0131949 0.0801404 0.0657985
v 0.0157616 0.0916321 0.0647326
v 0.0185742 0.104154 0.0635654
v 0.0035069 -1.45312e-05 0.0698072
v 0.00385805 0.00727025 0.0696532
v 0.00431008 0.0165221 0.0694738
v 0.00475489 0.0257878 0.069288
v 0.00481846 0.0269377 0.0692679
v 0.00586848 0.0351126 0.06883
v 0.00708707 0.0444479 0.0683225
v 0.0495419 0.741569 0.0421872
v 0.0495368 0.74194 0.0422566
v 0.0491341 0.756201 0.0447192
v 0.0488064 0.768155 0.0468048
v 0.0488501 0.770315 0.0470714
v 0.0491381 0.783852 0.0486957
v 0.0493283 0.793391 0.0498488
v 0.0537471 0.689041 0.0303959
v 0.0532715 0.694001 0.0315705
v 0.0517611 0.710152 0.0353766
v 0.0512829 0.71522 0.03658
v 0.0505651 0.726121 0.0388877
v 0.0596086 0.636841 0.0179099
v 0.058625 0.645439 0.0199139
v 0.0566935 0.662049 0.0238309
v 0.0565989 0.662971 0.0240379
v 0.0650548 0.584088 0.00782191
v 0.0650561 0.584119 0.00782332
v 0.0636031 0.599312 0.0104251
v 0.0625142 0.610592 0.0123516
v 0.0620798 0.614495 0.0131721
v 0.0604106 0.629573 0.0163625
v 0.067854 0.530382 0.00368678
v 0.0675336 0.539453 0.00405415
v 0.0672118 0.54896 0.0044214
v 0.0669324 0.557349 0.00474919
v 0.0668357 0.558812 0.00492389
v 0.065954 0.571463 0.00636511
v 0.066471 0.4767 0.00864164
v 0.0666039 0.479977 0.00822002
v 0.0670002 0.488947 0.0070263
v 0.0673697 0.497932 0.00584558
v 0.0676011 0.50344 0.005118
v 0.067647 0.507885 0.00488259
v 0.0677451 0.519394 0.0042799
v 0.0626043 0.423922 0.0193547
v 0.0629473 0.428171 0.018418
v 0.0640151 0.441424 0.0155007
v 0.0647147 0.450218 0.0135727
v 0.0650329 0.454722 0.0127308
v 0.0659047 0.468166 0.0102398
v 0.0579152 0.371572 0.0317156
v 0.0589582 0.383069 0.0290061
v 0.0602656 0.397754 0.0255456
v 0.0616036 0.412668 0.0220113
v 0.0538333 0.318777 0.0422705
v 0.0545346 0.32849 0.0404946
v 0.0554504 0.3417 0.0380999
v 0.0557116 0.345276 0.0374488
v 0.0564994 0.354752 0.0353855
v 0.0576029 0.36775 0.0325408
v 0.0520017 0.265058 0.0468386
v 0.0520826 0.27005 0.0466152
v 0.0522803 0.280067 0.0461667
v 0.0524525 0.290096 0.0457318
v 0.0525047 0.292033 0.0456321
v 0.0528509 0.299054 0.0447564
v 0.0532772 0.307776 0.043657
v 0.0537364 0.316469 0.0425541
v 0.0538979 0.211395 0.0419848
v 0.0538685 0.212142 0.042072
v 0.0533248 0.222648 0.0434301
v 0.0527688 0.233141 0.0448113
v 0.0525141 0.238118 0.0454467
v 0.0524159 0.242811 0.0456987
v 0.0522423 0.251738 0.0461473
v 0.0520847 0.260634 0.0466112
v 0.0583375 0.158679 0.0312036
v 0.0581385 0.160896 0.0317077
v 0.0569677 0.173707 0.0345557
v 0.0559258 0.184919 0.0370571
v 0.0557987 0.186537 0.0373583
v 0.054819 0.199412 0.0397621
v 0.0635911 0.106417 0.0186113
v 0.0635616 0.106584 0.0186604
v 0.0620683 0.121493 0.0222426
v 0.0609595 0.13255 0.0249026
v 0.0597173 0.144907 0.0278919
v 0.068061 0.0536862 0.007938
v 0.0678951 0.0557454 0.00832989
v 0.0669154 0.0685007 0.010656
v 0.0660097 0.0801638 0.0128105
v 0.0659146 0.0812432 0.0130325
v 0.0647322 0.0939071 0.0158446
v 0.0700092 -1.45367e-05 0.00330491
v 0.0699318 0.0039219 0.00348356
v 0.0697328 0.0141866 0.00396543
v 0.0695094 0.0244637 0.00446114
v 0.069459 0.02695 0.00458022
v 0.0690595 0.0347534 0.0055535
v 0.0685026 0.0450684 0.00685001
v 0.0501264 0.742354 -0.0388292
v 0.0498573 0.74733 -0.0394049
v 0.0493848 0.755726 -0.0403875
v 0.0489156 0.764114 -0.0413662
v 0.048646 0.769121 -0.0419788
v 0.0485769 0.772275 -0.0421011
v 0.0484027 0.780097 -0.0424461
v 0.0482506 0.787912 -0.042806
v 0.0481091 0.794506 -0.0430887
v 0.0546984 0.689439 -0.0291026
v 0.05426 0.694276 -0.0300795
v 0.0529171 0.708423 -0.0328886
v 0.0522298 0.715793 -0.0343627
v 0.0516961 0.722542 -0.0354967
v 0.0505699 0.736641 -0.037856
v 0.060091 0.636888 -0.017831
v 0.0592475 0.645127 -0.0196152
v 0.0573982 0.663153 -0.0234864
v 0.0560346 0.676422 -0.0263274
v 0.0649145 0.58403 -0.00797384
v 0.0637387 0.597922 -0.0103687
v 0.0626562 0.610547 -0.0125236
v 0.0624668 0.612525 -0.0129302
v 0.0610579 0.626904 -0.0158184
v 0.0675112 0.530343 -0.00330337
v 0.0673503 0.534823 -0.00351682
v 0.0670961 0.542761 -0.00391895
v 0.0668451 0.550693 -0.0043176
v 0.0666227 0.557303 -0.00465677
v 0.0665471 0.558702 -0.00483898
v 0.0660134 0.566997 -0.00586208
v 0.0654721 0.575307 -0.00689233
v 0.0649336 0.58361 -0.00791915
v 0.0661028 0.476611 -0.00766263
v 0.0661666 0.478219 -0.00747421
v 0.0665755 0.487533 -0.0063583
v 0.0669898 0.496836 -0.00523792
v 0.0672507 0.503385 -0.00444177
v 0.0672821 0.506185 -0.00431798
v 0.0673641 0.515608 -0.00391528
v 0.0674405 0.525042 -0.00351869
v 0.0621658 0.423748 -0.0178599
v 0.0623004 0.425166 -0.0175612
v 0.0633849 0.438553 -0.0147319
v 0.0643476 0.450068 -0.012309
v 0.0644711 0.451941 -0.0119815
v 0.0653624 0.465439 -0.00962277
v 0.0573874 0.371322 -0.0299308
v 0.0584767 0.383167 -0.0272046
v 0.059788 0.397522 -0.0238558
v 0.0607876 0.408323 -0.0213888
v 0.0531472 0.31856 -0.0405983
v 0.05341 0.322222 -0.0399173
v 0.0544606 0.336347 -0.0372777
v 0.0551164 0.345033 -0.0356609
v 0.055563 0.350462 -0.0344737
v 0.0568052 0.364511 -0.0314167
v 0.0510243 0.264937 -0.0461022
v 0.0511993 0.272045 -0.0456378
v 0.0514308 0.281554 -0.0449817
v 0.0516757 0.291076 -0.0443514
v 0.0516976 0.291859 -0.0442845
v 0.0521946 0.301065 -0.0430125
v 0.0527446 0.311124 -0.0416429
v 0.0526692 0.211153 -0.0426819
v 0.0522785 0.219167 -0.0435282
v 0.0514972 0.234934 -0.0451818
v 0.0513575 0.237958 -0.0454965
v 0.0511803 0.251987 -0.0458063
v 0.0573636 0.158387 -0.0322631
v 0.0571859 0.160182 -0.0326662
v 0.056049 0.171459 -0.0351519
v 0.0549247 0.182748 -0.0376624
v 0.0547574 0.184627 -0.0380929
v 0.0540033 0.194128 -0.0397297
v 0.0531006 0.20554 -0.0416983
v 0.0631414 0.106327 -0.0192162
v 0.0627513 0.109826 -0.0200997
v 0.0612825 0.12301 -0.0234272
v 0.0602463 0.132354 -0.0257898
v 0.0594349 0.139595 -0.0275843
v 0.0583017 0.149799 -0.0301158
v 0.0680238 0.0536931 -0.00822271
v 0.0680017 0.053868 -0.00824406
v 0.0670727 0.0650179 -0.0103386
v 0.0661485 0.0761577 -0.012427
v 0.065821 0.0801407 -0.0131671
v 0.0650983 0.0872073 -0.0147992
v 0.0639794 0.0982327 -0.0173576
v 0.0699972 -2.3217e-06 -0.00369484
v 0.0698257 0.00886875 -0.00409465
v 0.0695328 0.0241259 -0.00477804
v 0.0694714 0.0269574 -0.00490293
v 0.068817 0.0390625 -0.0064022
v 0.03879 0.742357 -0.0500253
v 0.0396044 0.749159 -0.0496403
v 0.0405983 0.757615 -0.0491736
v 0.0416068 0.76604 -0.0486914
v 0.0419638 0.769123 -0.0485324
v 0.0421915 0.774119 -0.0484156
v 0.0425513 0.781983 -0.0482563
v 0.0428963 0.78984 -0.0480742
v 0.0430998 0.794513 -0.0479836
v 0.0289922 0.689465 -0.0546226
v 0.0305972 0.69745 -0.0538503
v 0.0334436 0.711566 -0.0525316
v 0.0342952 0.715816 -0.0521298
v 0.0359563 0.725626 -0.0513585
v 0.0383363 0.739644 -0.0502411
v 0.0176466 0.636936 -0.0600042
v 0.0201965 0.648749 -0.0587926
v 0.0233394 0.663184 -0.0573017
v 0.0268272 0.679477 -0.0556333
v 0.00778604 0.584081 -0.064849
v 0.00851706 0.588242 -0.0645056
v 0.0109719 0.602607 -0.0632735
v 0.0123237 0.610594 -0.0625827
v 0.0136058 0.616849 -0.0619716
v 0.0164591 0.630952 -0.0605967
v 0.00331041 0.530375 -0.0674595
v 0.00366208 0.538199 -0.0672137
v 0.00402807 0.545994 -0.0669533
v 0.00438616 0.553803 -0.0667006
v 0.00453315 0.557334 -0.0665705
v 0.005094 0.561821 -0.0662842
v 0.00609469 0.570034 -0.0657611
v 0.00709884 0.578239 -0.0652338
v 0.00810233 0.476684 -0.0658381
v 0.00800302 0.477508 -0.0658953
v 0.006885 0.486234 -0.0663218
v 0.00574074 0.494976 -0.0667369
v 0.00465887 0.503421 -0.0671683
v 0.0046232 0.503743 -0.0671641
v 0.00418598 0.512607 -0.0672491
v 0.00375007 0.521506 -0.0673714
v 0.0187362 0.423938 -0.0614468
v 0.0181615 0.426624 -0.061703
v 0.0153604 0.43938 -0.0628776
v 0.0129864 0.450212 -0.0638648
v 0.0126384 0.452131 -0.0640127
v 0.0102553 0.465 -0.0649604
v 0.0310566 0.371616 -0.0563072
v 0.0278973 0.385086 -0.0576374
v 0.0249155 0.397778 -0.0588725
v 0.0219253 0.410445 -0.0601183
v 0.0415692 0.318826 -0.0521476
v 0.0394425 0.330619 -0.052977
v 0.0371036 0.343468 -0.0538604
v 0.0367719 0.345332 -0.0539896
v 0.0344169 0.356177 -0.0549444
v 0.0316543 0.368884 -0.0560687
v 0.0460329 0.265096 -0.0510108
v 0.0455148 0.277217 -0.0510176
v 0.0448933 0.291863 -0.0510335
v 0.0448847 0.292075 -0.0510407
v 0.0438275 0.300656 -0.0513886
v 0.0427436 0.309392 -0.0517633
v 0.041644 0.318122 -0.0521156
v 0.0414945 0.211422 -0.0538219
v 0.0422997 0.218045 -0.0533875
v 0.0445101 0.23627 -0.0521844
v 0.0447288 0.238167 -0.0520656
v 0.0451606 0.247028 -0.0517181
v 0.0456499 0.256913 -0.0513433
v 0.0308571 0.158717 -0.058737
v 0.0326838 0.166919 -0.0579306
v 0.0353957 0.179069 -0.0567081
v 0.03671 0.184949 -0.0561194
v 0.037848 0.191284 -0.0555484
v 0.0400743 0.203593 -0.0544964
v 0.0181389 0.10652 -0.0641912
v 0.0193661 0.111576 -0.0636678
v 0.0220581 0.122642 -0.0625302
v 0.0244823 0.132635 -0.0615095
v 0.0270699 0.143195 -0.0603954
v 0.0299344 0.154892 -0.0591471
v 0.00769424 0.0537347 -0.0685007
v 0.00929785 0.0627933 -0.0678581
v 0.0114874 0.0752238 -0.0669576
v 0.0123681 0.0802581 -0.0665912
v 0.0139641 0.0875786 -0.0659223
v 0.0166774 0.0998482 -0.0648027
v 0.00349424 -6.86985e-06 -0.0701878
v 0.00394454 0.0106859 -0.0700316
v 0.00460186 0.0269642 -0.0697534
v 0.00495869 0.0299026 -0.0696148
v 0.00709632 0.0486566 -0.0687376
v -0.0427066 0.741403 -0.0485183
v -0.043059 0.743691 -0.0484933
v -0.0450938 0.756638 -0.0482663
v -0.0468848 0.768064 -0.0480626
v -0.0470231 0.769512 -0.0481254
v -0.0481889 0.781826 -0.0486124
v -0.0493034 0.79337 -0.0490495
v -0.031246 0.688813 -0.052638
v -0.0339471 0.700454 -0.0515492
v -0.0373319 0.714998 -0.0501669
v -0.0373416 0.715021 -0.0501766
v -0.0402895 0.729493 -0.04927
v -0.0186074 0.636683 -0.0588305
v -0.0194932 0.640392 -0.0583805
v -0.0231525 0.655606 -0.0565127
v -0.0248603 0.662751 -0.0556323
v -0.0293344 0.681022 -0.0535332
v -0.00817611 0.584041 -0.064672
v -0.0106668 0.597909 -0.0632322
v -0.0129049 0.610477 -0.0619311
v -0.0132304 0.612034 -0.061758
v -0.016306 0.626077 -0.0600849
v -0.00369238 0.530374 -0.0676722
v -0.00375715 0.531669 -0.0676161
v -0.0041665 0.540902 -0.0672932
v -0.00460092 0.550147 -0.0669583
v -0.00493395 0.557318 -0.0666851
v -0.0052531 0.559977 -0.066497
v -0.00671234 0.571887 -0.0655808
v -0.00815393 0.583803 -0.0646889
v -0.00843484 0.476658 -0.0663023
v -0.00821138 0.478388 -0.0663768
v -0.0070407 0.487409 -0.0667693
v -0.00589644 0.496444 -0.0671477
v -0.00497556 0.503409 -0.0674521
v -0.00485704 0.505992 -0.0674734
v -0.00432171 0.517392 -0.0675673
v -0.00378031 0.528778 -0.067654
v -0.0191526 0.42389 -0.0623957
v -0.0182803 0.427835 -0.0627392
v -0.0154705 0.440557 -0.06376
v -0.0133457 0.450178 -0.0645505
v -0.0127642 0.453343 -0.064761
v -0.0103619 0.466251 -0.0656361
v -0.0316334 0.371576 -0.057686
v -0.0285466 0.384525 -0.0588537
v -0.0253914 0.397736 -0.0600586
v -0.0218683 0.41249 -0.0613808
v -0.0422997 0.318813 -0.0536085
v -0.04225 0.31904 -0.0536362
v -0.0398951 0.331859 -0.0545242
v -0.0375261 0.344682 -0.0554301
v -0.0374191 0.345296 -0.055477
v -0.0347663 0.357358 -0.0564799
v -0.0319721 0.370038 -0.0575645
v -0.0468982 0.265096 -0.0518729
v -0.0465619 0.272817 -0.0519994
v -0.0461098 0.282473 -0.0521641
v -0.0456805 0.292051 -0.0523118
v -0.0456847 0.292142 -0.0523159
v -0.0445415 0.301087 -0.05276
v -0.0434145 0.310023 -0.0531792
v -0.0419988 0.211429 -0.0539705
v -0.0422221 0.213088 -0.053879
v -0.0434596 0.222528 -0.0533472
v -0.0446723 0.231958 -0.0528319
v -0.0454985 0.23815 -0.0524813
v -0.0456414 0.241114 -0.0524268
v -0.0461028 0.249688 -0.0522185
v -0.0465402 0.258254 -0.0520261
v -0.0312698 0.158702 -0.0584907
v -0.0318833 0.161399 -0.0582351
v -0.0347483 0.174406 -0.057035
v -0.0370996 0.184971 -0.0560368
v -0.0375479 0.187441 -0.0558543
v -0.0399785 0.200574 -0.05482
v -0.0188367 0.106423 -0.0637292
v -0.0218187 0.118927 -0.0624612
v -0.0250576 0.132562 -0.0610999
v -0.0282639 0.145988 -0.0597536
v -0.00820381 0.0536732 -0.0682017
v -0.0102367 0.0646773 -0.0673454
v -0.012608 0.0776815 -0.0663506
v -0.0130588 0.0801565 -0.0661608
v -0.0153589 0.0905748 -0.06519
v -0.0181846 0.10343 -0.0639925
v -0.00349077 -2.10003e-05 -0.0701887
v -0.00380047 0.00613098 -0.0700718
v -0.00423907 0.015289 -0.0698713
v -0.0046652 0.0244613 -0.0696987
v -0.00478446 0.0269374 -0.0696477
v -0.00566788 0.0337134 -0.0692732
v -0.00683927 0.0429759 -0.0687813
v -0.00803616 0.0522534 -0.0682773
v -0.0540305 0.741434 -0.0376135
v -0.053952 0.746324 -0.0383664
v -0.0536677 0.76329 -0.0409878
v -0.0535861 0.76811 -0.0417353
v -0.0539805 0.779869 -0.0429242
v -0.0544066 0.793396 -0.0442943
v -0.0579638 0.68874 -0.0266306
v -0.0566977 0.702751 -0.0297267
v -0.055586 0.714991 -0.0324396
v -0.0554608 0.717069 -0.0328445
v -0.0546214 0.731304 -0.0356363
v -0.063964 0.636386 -0.0148062
v -0.0626633 0.647448 -0.0172489
v -0.0610045 0.661466 -0.0203564
v -0.0608697 0.662582 -0.0206026
v -0.0586009 0.682934 -0.0252935
v -0.069515 0.583493 -0.00558886
v -0.0691358 0.587282 -0.00617607
v -0.0676652 0.602641 -0.0085289
v -0.0669491 0.610046 -0.00966344
v -0.0660431 0.61793 -0.011214
v -0.064332 0.633177 -0.014179
v -0.0720937 0.529718 -0.00220123
v -0.0720511 0.53156 -0.00224416
v -0.0717367 0.542124 -0.0025543
v -0.0714281 0.552698 -0.00286933
v -0.0713013 0.556673 -0.00299051
v -0.0704902 0.56883 -0.00417778
v -0.070183 0.476046 -0.00725167
v -0.0706228 0.483915 -0.006197
v -0.0711979 0.494406 -0.00479523
v -0.0716458 0.502758 -0.00367924
v -0.0717105 0.506728 -0.00345796
v -0.0720376 0.526313 -0.00239472
v -0.0653062 0.423441 -0.0183209
v -0.065325 0.423732 -0.0182638
v -0.0665775 0.43598 -0.0154463
v -0.0678285 0.448233 -0.0126357
v -0.0679686 0.449614 -0.0123208
v -0.0688928 0.460597 -0.0102221
v -0.0699224 0.472961 -0.00785765
v -0.0594068 0.37134 -0.0312534
v -0.0594395 0.371669 -0.0311708
v -0.0609313 0.384704 -0.0279393
v -0.0623765 0.397391 -0.0247863
v -0.0638289 0.410411 -0.0215745
v -0.0543171 0.318728 -0.0422106
v -0.0546631 0.322624 -0.0414724
v -0.0557468 0.334942 -0.0391532
v -0.0566642 0.345165 -0.0372142
v -0.0568753 0.347228 -0.0367307
v -0.0581534 0.359442 -0.033962
v -0.0519653 0.265068 -0.0470359
v -0.0521058 0.270628 -0.0467484
v -0.0523707 0.280711 -0.0462359
v -0.0526211 0.290807 -0.0457492
v -0.0526647 0.292009 -0.0456763
v -0.0532229 0.301177 -0.0444873
v -0.0538831 0.311608 -0.0431315
v -0.0537553 0.211355 -0.0424793
v -0.0533829 0.218706 -0.0434019
v -0.0528747 0.228723 -0.0446573
v -0.0523923 0.23809 -0.0458189
v -0.0523848 0.238743 -0.0458506
v -0.052225 0.249064 -0.0463178
v -0.05206 0.259374 -0.0467789
v -0.058211 0.158637 -0.0317886
v -0.0581843 0.158914 -0.0318408
v -0.0570466 0.17116 -0.0345665
v -0.0559052 0.183392 -0.0372825
v -0.055768 0.184871 -0.0376172
v -0.0549529 0.195721 -0.0395942
v -0.0540115 0.208071 -0.0418726
v -0.0634983 0.106388 -0.0191525
v -0.062084 0.120457 -0.0225373
v -0.0608509 0.132499 -0.0254616
v -0.0596456 0.14455 -0.0283682
v -0.0680137 0.0536744 -0.00838897
v -0.0678072 0.0565584 -0.00890442
v -0.0668414 0.0690054 -0.0112216
v -0.0659747 0.0801447 -0.0132734
v -0.0658442 0.0814271 -0.013581
v -0.0646921 0.093763 -0.0163311
v -0.0635355 0.106085 -0.0190707
v -0.0699895 -2.09948e-05 -0.00369
v -0.0698989 0.00532936 -0.00394029
v -0.0696772 0.0154504 -0.00443679
v -0.0694821 0.0255842 -0.00491927
v -0.0694531 0.0269389 -0.00497541
v -0.0689921 0.0357321 -0.0060938
v -0.0684318 0.0458753 -0.0073934
v -0.0550727 0.740892 0.0437357
v -0.0548873 0.751772 0.0455822
v -0.0546324 0.767237 0.0482368
v -0.0546248 0.767487 0.0482794
v -0.0551291 0.782067 0.0500014
v -0.0554804 0.79272 0.0512717
v -0.0588254 0.688331 0.0319866
v -0.0587063 0.689727 0.0323189
v -0.0573492 0.705379 0.0360139
v -0.0565493 0.714507 0.0381553
v -0.0561909 0.720934 0.0395059
v -0.055333 0.73632 0.0427696
v -0.0644795 0.63612 0.0194336
v -0.0635857 0.644161 0.021356
v -0.0618194 0.660015 0.0251009
v -0.0615566 0.662241 0.0256084
v -0.0697362 0.583355 0.00927579
v -0.0684465 0.597392 0.0117158
v -0.0673002 0.609837 0.0138695
v -0.0669617 0.612968 0.0145246
v -0.0653075 0.628477 0.0178351
v -0.0722321 0.529648 0.00479835
v -0.0719281 0.540672 0.00534173
v -0.0715998 0.552445 0.00590445
v -0.0714787 0.556598 0.00611476
v -0.070829 0.566513 0.00726968
v -0.0698454 0.581844 0.00910086
v -0.0705973 0.475908 0.00891843
v -0.0711521 0.487366 0.00758237
v -0.0718911 0.502689 0.00577767
v -0.0719217 0.504892 0.00569729
v -0.065929 0.423246 0.0197867
v -0.0663626 0.427439 0.0188369
v -0.0674668 0.438598 0.0162678
v -0.0685324 0.449421 0.0137784
v -0.0685575 0.449754 0.0137135
v -0.0694374 0.461062 0.0116351
v -0.0703122 0.47236 0.00956311
v -0.0601099 0.371223 0.0330429
v -0.0607998 0.377466 0.0314417
v -0.0620117 0.388048 0.0287629
v -0.0630403 0.397222 0.0264281
v -0.0640457 0.406282 0.024118
v -0.0652112 0.416731 0.0214515
v -0.0551122 0.31857 0.0438815
v -0.0554028 0.321803 0.0433041
v -0.0563707 0.333096 0.0412368
v -0.0573339 0.344378 0.0391754
v -0.0573837 0.345051 0.0390452
v -0.0584677 0.355518 0.0366421
v -0.0596266 0.366657 0.0340853
v -0.0529067 0.264847 0.0479333
v -0.053083 0.271545 0.0477118
v -0.0535291 0.289893 0.0470642
v -0.05356 0.291814 0.0469817
v -0.0544303 0.306715 0.0452507
v -0.0544633 0.211154 0.0430362
v -0.0542374 0.216352 0.0437254
v -0.0535689 0.231036 0.0456329
v -0.0532586 0.237899 0.0465073
v -0.0531476 0.245459 0.0469101
v -0.0529817 0.259666 0.0476657
v -0.0586816 0.158497 0.0319
v -0.0578407 0.167901 0.0340678
v -0.0567798 0.179683 0.0368222
v -0.0563506 0.184708 0.0379875
v -0.0558691 0.191556 0.0393076
v -0.0550133 0.203455 0.0415802
v -0.0638542 0.106405 0.0186896
v -0.0633243 0.111851 0.0200804
v -0.0622075 0.122951 0.022875
v -0.0612579 0.132456 0.0252765
v -0.060186 0.143287 0.0280213
v -0.0589367 0.155924 0.0312371
v -0.0682006 0.0537036 0.00778507
v -0.0673871 0.0645842 0.00978887
v -0.0665001 0.0765683 0.0120136
v -0.0662368 0.0801822 0.0126855
v -0.0654859 0.0884724 0.0145964
v -0.0644046 0.100343 0.0173203
v -0.0699903 -6.86374e-06 0.00329674
v -0.0698655 0.00719664 0.00362074
v -0.0695893 0.0224142 0.0042903
v -0.0695176 0.0269537 0.00449578
v -0.0690024 0.0374214 0.00577876
v -0.0682711 0.0523359 0.00760463
v -0.0575725 0.0607029 -0.335641
v -0.0786484 0.0607029 -0.335641
v -0.0786484 -0.00585062 -0.335641
v -0.0575725 -0.00585062 -0.335641
v -0.0771062 -0.00225295 -0.335641
v -0.074793 -0.00225295 -0.335641
v -0.074793 0.00134473 -0.335641
v -0.0771062 0.00134473 -0.335641
v -0.0771062 0.00134473 -0.335641
v -0.074793 0.00134473 -0.335641
v -0.074793 0.00494124 -0.335641
v -0.0771062 0.00494124 -0.335641
v -0.0771062 0.00494124 -0.335641
v -0.074793 0.00494124 -0.335641
v -0.074793 0.00853892 -0.335641
v -0.0771062 0.00853892 -0.335641
v -0.0771062 0.00853892 -0.335641
v -0.074793 0.00853892 -0.335641
v -0.074793 0.0121366 -0.335641
v -0.0771062 0.0121366 -0.335641
v -0.0771062 0.0121366 -0.335641
v -0.074793 0.0121366 -0.335641
v -0.074793 0.0157343 -0.335641
v -0.0771062 0.0157343 -0.335641
v -0.0771062 0.0157343 -0.335641
v -0.074793 0.0157343 -0.335641
v -0.074793 0.019332 -0.335641
v -0.0771062 0.019332 -0.335641
v -0.0771062 0.019332 -0.335641
v -0.074793 0.019332 -0.335641
v -0.074793 0.0229296 -0.335641
v -0.0771062 0.0229296 -0.335641
v -0.0771062 0.0229296 -0.335641
v -0.074793 0.0229296 -0.335641
v -0.074793 0.0265261 -0.335641
v -0.0771062 0.0265261 -0.335641
v -0.0771062 0.0265261 -0.335641
v -0.074793 0.0265261 -0.335641
v -0.074793 0.0301238 -0.335641
v -0.0771062 0.0301238 -0.335641
v -0.0771062 0.0301238 -0.335641
v -0.074793 0.0301238 -0.335641
v -0.074793 0.0337215 -0.335641
v -0.0771062 0.0337215 -0.335641
v -0.0771062 0.0337215 -0.335641
v -0.074793 0.0337215 -0.335641
v -0.074793 0.0373192 -0.335641
v -0.0771062 0.0373192 -0.335641
v -0.0771062 0.0373192 -0.335641
v -0.074793 0.0373192 -0.335641
v -0.074793 0.0409168 -0.335641
v -0.0771062 0.0409168 -0.335641
v -0.0771062 -0.00225295 -0.335641
v -0.074022 -0.00225295 -0.335641
v -0.0771062 0.00134473 -0.335641
v -0.074022 0.00134473 -0.335641
v -0.0771062 0.00494124 -0.335641
v -0.074022 0.00494124 -0.335641
v -0.0771062 0.00853892 -0.335641
v -0.074022 0.00853892 -0.335641
v -0.0771062 0.0121366 -0.335641
v -0.074022 0.0121366 -0.335641
v -0.0771062 0.0157343 -0.335641
v -0.074022 0.0157343 -0.335641
v -0.0771062 0.019332 -0.335641
v -0.074022 0.019332 -0.335641
v -0.0771062 0.0229296 -0.335641
v -0.074022 0.0229296 -0.335641
v -0.0771062 0.0265261 -0.335641
v -0.074022 0.0265261 -0.335641
v -0.0771062 0.0301238 -0.335641
v -0.074022 0.0301238 -0.335641
v -0.0771062 0.0337215 -0.335641
v -0.074022 0.0337215 -0.335641
v -0.0771062 0.0373192 -0.335641
v -0.074022 0.0373192 -0.335641
v -0.0771062 0.0409168 -0.335641
v -0.074022 0.0409168 -0.335641
v -0.074793 0.0409168 -0.335641
v -0.074793 -0.00225295 -0.335641

#List of body polygons
f 42 43 44
f 42 44 45
f 42 46 47
f 42 47 43
f 46 42 48
f 46 48 49
f 42 45 50
f 42 50 48
f 60 61 62
f 60 62 63
f 60 64 65
f 60 65 61
f 64 60 66
f 64 66 67
f 60 63 68
f 60 68 66
f 78 79 80
f 78 80 81
f 78 82 83
f 78 83 79
f 82 78 84
f 82 84 85
f 78 81 86
f 78 86 84
f 96 97 98
f 96 98 99
f 96 100 101
f 96 101 97
f 100 96 102
f 100 102 103
f 96 99 104
f 96 104 102

#List of body lines
l 1 2
l 2 3
l 1 4
l 4 5
l 1 6
l 6 7
l 1 8
l 8 9
l 11 12
l 12 13
l 10 14
l 10 18
l 18 19
l 10 20
l 20 21
l 22 23
l 23 24
l 22 25
l 25 26
l 22 27
l 27 28
l 22 29
l 29 30
l 35 36
l 36 37
l 114 115
l 116 114
l 117 116
l 118 117
l 119 118
l 120 119
l 121 120
l 122 121
l 123 122
l 124 123
l 125 124
l 126 125
l 127 126
l 128 127
l 129 128
l 130 129
l 131 130
l 132 131
l 133 132
l 134 133
l 135 134
l 150 151
l 151 152
l 179 180
l 180 181
l 209 210
l 210 211
l 238 239
l 239 240
l 267 268
l 268 269
l 299 300
l 300 301
l 323 324
l 330 331
l 331 323
l 358 359
l 359 360
l 391 392
l 392 393
l 423 424
l 424 425
l 455 456
l 456 457
l 485 486
l 486 487
l 517 518
l 518 519
l 549 550
l 550 551
l 579 580
l 580 581
l 608 609
l 609 610
l 639 640
l 640 641
l 671 672
l 672 673
l 701 702
l 702 703
l 731 732
l 732 733
l 762 763
l 763 764
l 785 786
l 793 794
l 794 785
l 819 820
l 820 821
l 849 850
l 850 851

#List of body lines
l 10 11
l 14 15
l 15 16
l 33 34
l 31 35
l 31 38
l 38 39
l 31 40
l 40 41
l 142 143
l 149 150
l 152 142
l 178 179
l 181 182
l 208 209
l 211 212
l 230 231
l 237 238
l 240 230
l 266 267
l 269 270
l 291 292
l 298 299
l 301 291
l 308 298
l 324 325
l 329 330
l 351 352
l 357 358
l 360 351
l 366 357
l 383 384
l 390 391
l 393 383
l 416 417
l 422 423
l 425 416
l 430 422
l 448 449
l 454 455
l 457 448
l 463 454
l 484 485
l 487 488
l 510 511
l 516 517
l 519 510
l 525 516
l 542 543
l 548 549
l 551 542
l 557 548
l 578 579
l 581 582
l 601 602
l 607 608
l 610 601
l 632 633
l 638 639
l 641 632
l 648 638
l 664 665
l 670 671
l 673 664
l 679 670
l 694 695
l 700 701
l 703 694
l 722 723
l 730 731
l 733 722
l 754 755
l 761 762
l 764 754
l 771 761
l 786 787
l 792 793
l 818 819
l 821 822
l 848 849
l 851 852

#List of body lines
l 16 17
l 31 32
l 32 33
l 143 144
l 148 149
l 158 148
l 170 171
l 177 178
l 182 170
l 189 177
l 200 201
l 207 208
l 212 200
l 219 207
l 231 232
l 236 237
l 246 236
l 259 260
l 265 266
l 270 259
l 276 265
l 292 293
l 307 308
l 325 326
l 326 327
l 328 329
l 337 328
l 352 353
l 365 366
l 384 385
l 389 390
l 399 389
l 417 418
l 429 430
l 449 450
l 462 463
l 476 477
l 483 484
l 488 476
l 495 483
l 511 512
l 524 525
l 543 544
l 556 557
l 571 572
l 577 578
l 582 571
l 588 577
l 602 603
l 603 604
l 606 607
l 615 606
l 633 634
l 647 648
l 665 666
l 678 679
l 695 696
l 696 697
l 699 700
l 709 699
l 723 724
l 729 730
l 739 729
l 755 756
l 770 771
l 787 788
l 788 789
l 791 792
l 799 791
l 810 811
l 817 818
l 822 810
l 829 817
l 841 842
l 847 848
l 852 841
l 858 847

#List of body lines
l 51 52
l 52 53
l 53 54
l 54 55
l 55 56
l 56 51
l 51 54
l 54 57
l 57 58
l 58 55
l 59 53
l 57 59
l 69 70
l 70 71
l 71 72
l 72 73
l 73 74
l 74 69
l 69 72
l 72 75
l 75 76
l 76 73
l 77 71
l 75 77
l 87 88
l 88 89
l 89 90
l 90 91
l 91 92
l 92 87
l 87 90
l 90 93
l 93 94
l 94 91
l 95 89
l 93 95
l 105 106
l 106 107
l 107 108
l 108 109
l 109 110
l 110 105
l 105 108
l 108 111
l 111 112
l 112 109
l 113 107
l 111 113

#List of body lines
l 136 137
l 147 136
l 154 155
l 174 175
l 185 186
l 204 205
l 215 216
l 224 225
l 235 224
l 242 243
l 263 264
l 272 273
l 296 297
l 303 304
l 318 319
l 319 320
l 333 334
l 344 345
l 356 344
l 361 362
l 374 361
l 375 376
l 388 375
l 395 396
l 407 408
l 421 407
l 438 439
l 440 441
l 453 440
l 458 459
l 470 458
l 479 480
l 480 481
l 491 492
l 501 502
l 515 501
l 520 521
l 533 520
l 534 535
l 547 534
l 552 553
l 564 552
l 575 576
l 584 585
l 595 596
l 611 612
l 623 611
l 624 625
l 637 624
l 643 644
l 656 657
l 669 656
l 674 675
l 687 674
l 689 690
l 705 706
l 727 728
l 735 736
l 759 760
l 766 767
l 780 781
l 795 796
l 805 795
l 814 815
l 825 826
l 845 846
l 854 855

#List of body lines
l 137 138
l 138 139
l 153 154
l 164 153
l 175 176
l 184 185
l 205 206
l 214 215
l 225 226
l 241 242
l 252 241
l 253 254
l 264 253
l 271 272
l 283 271
l 284 285
l 297 284
l 302 303
l 315 302
l 320 321
l 332 333
l 343 332
l 345 346
l 373 374
l 376 377
l 394 395
l 406 394
l 408 409
l 437 438
l 441 442
l 469 470
l 481 482
l 490 491
l 502 503
l 532 533
l 535 536
l 563 564
l 565 566
l 576 565
l 583 584
l 593 583
l 596 597
l 597 598
l 622 623
l 625 626
l 642 643
l 655 642
l 657 658
l 686 687
l 690 691
l 691 692
l 704 705
l 715 704
l 716 717
l 728 716
l 734 735
l 746 734
l 747 748
l 760 747
l 765 766
l 778 765
l 781 782
l 782 783
l 804 805
l 815 816
l 824 825
l 835 836
l 846 835
l 853 854
l 864 853

#List of body lines
l 139 140
l 162 163
l 163 164
l 165 166
l 176 165
l 183 184
l 194 183
l 195 196
l 206 195
l 213 214
l 223 213
l 226 227
l 227 228
l 251 252
l 254 255
l 282 283
l 285 286
l 314 315
l 321 322
l 342 343
l 346 347
l 372 373
l 377 378
l 405 406
l 409 410
l 436 437
l 442 443
l 467 468
l 468 469
l 471 472
l 482 471
l 489 490
l 500 489
l 503 504
l 531 532
l 536 537
l 562 563
l 566 567
l 592 593
l 598 599
l 621 622
l 626 627
l 654 655
l 658 659
l 685 686
l 692 693
l 713 714
l 714 715
l 717 718
l 745 746
l 748 749
l 777 778
l 783 784
l 802 803
l 803 804
l 806 807
l 816 806
l 823 824
l 834 823
l 836 837
l 863 864

#List of body lines
l 140 141
l 161 162
l 166 167
l 167 168
l 192 193
l 193 194
l 196 197
l 197 198
l 221 222
l 222 223
l 228 229
l 249 250
l 250 251
l 255 256
l 256 257
l 281 282
l 286 287
l 312 313
l 313 314
l 340 341
l 341 342
l 347 348
l 348 349
l 370 371
l 371 372
l 378 379
l 379 380
l 403 404
l 404 405
l 410 411
l 411 412
l 434 435
l 435 436
l 443 444
l 444 445
l 466 467
l 472 473
l 498 499
l 499 500
l 504 505
l 505 506
l 529 530
l 530 531
l 537 538
l 538 539
l 560 561
l 561 562
l 567 568
l 568 569
l 590 591
l 591 592
l 599 600
l 619 620
l 620 621
l 627 628
l 628 629
l 653 654
l 659 660
l 660 661
l 683 684
l 684 685
l 712 713
l 718 719
l 719 720
l 743 744
l 744 745
l 749 750
l 750 751
l 775 776
l 776 777
l 801 802
l 807 808
l 808 809
l 832 833
l 833 834
l 837 838
l 838 839
l 861 862
l 862 863

#List of body lines
l 144 145
l 145 146
l 157 158
l 171 172
l 188 189
l 201 202
l 218 219
l 232 233
l 233 234
l 245 246
l 260 261
l 275 276
l 293 294
l 305 306
l 306 307
l 316 317
l 327 316
l 336 337
l 353 354
l 354 355
l 363 364
l 364 365
l 385 386
l 386 387
l 398 399
l 418 419
l 419 420
l 427 428
l 428 429
l 450 451
l 451 452
l 460 461
l 461 462
l 477 478
l 494 495
l 512 513
l 513 514
l 522 523
l 523 524
l 544 545
l 545 546
l 554 555
l 555 556
l 572 573
l 587 588
l 604 605
l 614 615
l 634 635
l 635 636
l 645 646
l 646 647
l 666 667
l 667 668
l 676 677
l 677 678
l 697 698
l 708 709
l 724 725
l 738 739
l 756 757
l 769 770
l 789 790
l 798 799
l 811 812
l 828 829
l 842 843
l 857 858

#List of body lines
l 146 147
l 155 156
l 156 157
l 172 173
l 173 174
l 186 187
l 187 188
l 202 203
l 203 204
l 216 217
l 217 218
l 234 235
l 243 244
l 244 245
l 261 262
l 262 263
l 273 274
l 274 275
l 294 295
l 295 296
l 304 305
l 317 318
l 334 335
l 335 336
l 355 356
l 362 363
l 387 388
l 396 397
l 397 398
l 420 421
l 426 427
l 439 426
l 452 453
l 459 460
l 478 479
l 492 493
l 493 494
l 514 515
l 521 522
l 546 547
l 553 554
l 573 574
l 574 575
l 585 586
l 586 587
l 594 595
l 605 594
l 612 613
l 613 614
l 636 637
l 644 645
l 668 669
l 675 676
l 688 689
l 698 688
l 706 707
l 707 708
l 725 726
l 726 727
l 736 737
l 737 738
l 757 758
l 758 759
l 767 768
l 768 769
l 779 780
l 790 779
l 796 797
l 797 798
l 812 813
l 813 814
l 826 827
l 827 828
l 843 844
l 844 845
l 855 856
l 856 857

#List of body lines
l 159 160
l 169 159
l 190 191
l 199 190
l 220 220
l 247 248
l 258 247
l 278 279
l 289 290
l 310 311
l 338 339
l 350 338
l 368 369
l 381 382
l 401 402
l 413 414
l 432 433
l 446 447
l 464 465
l 475 464
l 496 497
l 507 508
l 527 528
l 540 541
l 558 559
l 570 558
l 617 618
l 630 631
l 650 651
l 662 663
l 681 682
l 710 711
l 721 710
l 741 742
l 752 753
l 773 774
l 830 831
l 840 830
l 859 860

#List of body lines
l 160 161
l 168 169
l 191 192
l 198 199
l 220 221
l 248 249
l 257 258
l 279 280
l 280 281
l 287 288
l 288 289
l 311 312
l 339 340
l 349 350
l 369 370
l 380 381
l 402 403
l 412 413
l 433 434
l 445 446
l 465 466
l 473 474
l 474 475
l 497 498
l 506 507
l 528 529
l 539 540
l 559 560
l 569 570
l 589 590
l 618 619
l 629 630
l 651 652
l 652 653
l 661 662
l 682 683
l 711 712
l 720 721
l 742 743
l 751 752
l 774 775
l 800 801
l 809 800
l 831 832
l 839 840
l 860 861

#List of body lines
l 277 278
l 290 277
l 309 310
l 367 368
l 382 367
l 400 401
l 414 415
l 431 432
l 447 431
l 508 509
l 526 527
l 541 526
l 616 617
l 631 616
l 649 650
l 663 649
l 680 681
l 740 741
l 753 740
l 772 773


