#OBJ File generated by Abaqus/CAE
#List of Vertices
v 4.91121e-06 -1.55383e-05 -0.00018985
v 1.16783e-06 -4.29083e-06 0.0348031
v -4.76615e-06 -8.59236e-06 0.0698136
v 0.0350009 -4.29083e-06 -0.000196566
v 0.0699947 -8.59236e-06 -0.00018586
v 1.48192e-05 -1.94714e-05 -0.0351953
v 9.95542e-06 -1.69457e-05 -0.070193
v -0.0349835 -1.94714e-05 -0.000196932
v -0.0699839 -1.69457e-05 -0.000199074
v 0.00191025 0.264583 -0.00284827
v 0.0260564 0.264702 0.0224823
v 0.0495753 0.264955 0.0484115
v 0.0241395 0.264468 -0.0249703
v 0.0267356 0.264446 -0.0275439
v 0.0516767 0.265017 -0.0520783
v -0.0235133 0.264643 -0.0268903
v -0.0496219 0.264739 -0.050198
v -0.0227511 0.26496 0.0219704
v -0.0472833 0.265312 0.0469127
v 0.00327645 0.527197 -0.00442664
v 0.00317365 0.528293 0.0258911
v 0.00315669 0.528481 0.0305386
v 0.00263485 0.530512 0.0654778
v 0.0114643 0.527014 -0.00416363
v 0.0362843 0.52644 -0.00336295
v 0.0382418 0.526378 -0.00330183
v 0.0505188 0.526719 -0.00246214
v 0.063821 0.527071 -0.00151764
v 0.0731329 0.527329 -0.000881625
v 0.00232347 0.52714 -0.0297068
v 0.00196229 0.527105 -0.0394119
v -0.00017634 0.527533 -0.074333
v -0.011981 0.527849 -0.00418919
v -0.0316857 0.52868 -0.00388438
v -0.0634706 0.530241 -0.00288227
v -0.0666302 0.53039 -0.00277076
v 0.0148834 0.794378 -0.010063
v 0.0379431 0.794208 0.0162551
v 0.0602579 0.793958 0.0432121
v 0.0210116 0.792792 -0.015736
v 0.0284948 0.79086 -0.0226709
v 0.0359907 0.788906 -0.0295962
v 0.0400668 0.787849 -0.0333671
v 0.043174 0.7861 -0.0363195
v 0.0499616 0.782242 -0.0427408
v 0.0567429 0.778404 -0.0491755
v 0.0635206 0.774542 -0.0555835
v 0.0116144 0.794343 -0.0133025
v -0.00994216 0.794029 -0.0347238
v -0.0194839 0.793598 -0.0432742
v -0.0359658 0.792815 -0.0580987
v 0.0124548 0.79459 -0.00786173
v 0.00201797 0.795458 0.00164003
v -0.0084001 0.796327 0.0111234
v -0.01096 0.796539 0.0134549
v -0.0190614 0.79649 0.0207402
v -0.0297736 0.796413 0.0303848
v -0.0369712 0.796368 0.0368601
v 0.0633316 0.793361 0.0414465
v 0.0689798 0.793529 -0.0182993
v 0.128281 0.786376 -0.0126985
v 0.122644 0.786213 0.0470304
v 0.00401802 0.800513 0.0358594
v 0.0096721 0.800662 -0.023873
v 0.0576908 0.793204 0.101174
v -0.00161816 0.800352 0.0955872
v 0.116997 0.786063 0.106758
v 0.122644 0.786213 0.0468304
v 0.128281 0.786376 -0.0128985
v 0.0689798 0.793529 -0.0184993
v 0.0633316 0.793361 0.0412465
v 0.0576908 0.793204 0.100974
v 0.116997 0.786063 0.106558
v 0.00401802 0.800513 0.0356594
v -0.00161816 0.800352 0.0953872
v 0.0096721 0.800662 -0.024073
v -0.0347802 0.7963 0.0398174
v -0.031858 0.79837 -0.0200785
v 0.0280491 0.799546 -0.0171278
v 0.0251469 0.797468 0.0427559
v -0.0946854 0.795131 0.0368585
v -0.0917706 0.797212 -0.0230414
v -0.0376904 0.794215 0.0997162
v -0.0975996 0.793053 0.0967532
v 0.0222386 0.795378 0.102659
v 0.0251469 0.797468 0.0425559
v 0.0280491 0.799546 -0.0173278
v -0.031858 0.79837 -0.0202785
v -0.0347802 0.7963 0.0396174
v -0.0376904 0.794215 0.0995162
v 0.0222386 0.795378 0.102459
v -0.0946854 0.795131 0.0366585
v -0.0975996 0.793053 0.0965532
v -0.0917706 0.797212 -0.0232414
v 0.0621964 0.774788 -0.0587269
v 0.0606748 0.754597 -0.115207
v 0.114116 0.728456 -0.107283
v 0.115639 0.748691 -0.0508212
v 0.00877727 0.800935 -0.0666611
v 0.00725471 0.780707 -0.123128
v 0.063723 0.795006 -0.00225554
v 0.0102939 0.821133 -0.0101766
v 0.117148 0.768898 0.00564938
v 0.115639 0.748691 -0.0510212
v 0.114116 0.728456 -0.107483
v 0.0606748 0.754597 -0.115407
v 0.0621964 0.774788 -0.0589269
v 0.063723 0.795006 -0.00245554
v 0.117148 0.768898 0.00544938
v 0.00877727 0.800935 -0.0668611
v 0.0102939 0.821133 -0.0103766
v 0.00725471 0.780707 -0.123328
v -0.0380919 0.793719 -0.0554337
v -0.0417833 0.78481 -0.114664
v 0.0180738 0.78257 -0.11806
v 0.0217826 0.791475 -0.0588434
v -0.0979467 0.795965 -0.0520464
v -0.101655 0.78705 -0.111253
v -0.0343766 0.802622 0.00377818
v -0.0942511 0.804872 0.00718168
v 0.0254675 0.800397 0.000380889
v 0.0217826 0.791475 -0.0590434
v 0.0180738 0.78257 -0.11826
v -0.0417833 0.78481 -0.114864
v -0.0380919 0.793719 -0.0556337
v -0.0343766 0.802622 0.00357818
v 0.0254675 0.800397 0.000180889
v -0.0979467 0.795965 -0.0522464
v -0.0942511 0.804872 0.00698168
v -0.101655 0.78705 -0.111453
v 0.0678716 0.744801 -0.0603294
v 0.0685751 0.768801 -0.0606384
v 0.0671668 0.720771 -0.0600173
v 0.0664681 0.696792 -0.0597318
v 0.0657592 0.67279 -0.0594144
v 0.0650478 0.64879 -0.0590948
v 0.0643524 0.624789 -0.0587925
v 0.0636541 0.600789 -0.0584886
v 0.0629532 0.576791 -0.0581829
v 0.0622491 0.552795 -0.0578758
v 0.0615528 0.528778 -0.0575565
v 0.0608421 0.504787 -0.0572472
v 0.0601278 0.480797 -0.0569369
v 0.0594397 0.456789 -0.0566344
v 0.0587287 0.432785 -0.056312
v 0.0580329 0.408784 -0.0560083
v 0.0573327 0.384787 -0.0557048
v 0.0566282 0.360795 -0.0554012
v 0.0559188 0.336808 -0.0550982
v 0.0552163 0.312804 -0.054784
v 0.0545083 0.288805 -0.0544709
v 0.0538068 0.26479 -0.0541471
v -0.0305028 0.742544 0.0407944
v -0.0323291 0.759303 0.0399669
v -0.0334136 0.769342 0.0394656
v -0.0345514 0.791241 0.0395414
v -0.0347371 0.794727 0.0395587
v -0.0216877 0.689605 0.0466878
v -0.0231787 0.697915 0.0456136
v -0.0264549 0.715971 0.043314
v -0.0282817 0.727932 0.0421831
v -0.0116046 0.637145 0.0545632
v -0.0121108 0.639785 0.0541601
v -0.0165932 0.663383 0.0505297
v -0.00356516 0.584255 0.0617225
v -0.0068965 0.609039 0.0586273
v -0.00712149 0.610809 0.0583948
v -0.000864283 0.530502 0.0654865
v -0.00119188 0.548837 0.0646068
v -0.00135472 0.557462 0.064209
v -0.00300799 0.577569 0.0623485
v -0.00619204 0.476845 0.064349
v -0.00557867 0.481438 0.0645491
v -0.00270868 0.502334 0.0653722
v -0.00255971 0.503565 0.0654367
v -0.0170193 0.424093 0.0603206
v -0.016081 0.428365 0.0606871
v -0.0111812 0.450355 0.0625759
v -0.0102169 0.455527 0.0629273
v -0.0294555 0.371799 0.0553017
v -0.0232468 0.397956 0.0578119
v -0.0400153 0.319028 0.0510163
v -0.0356894 0.342833 0.0527663
v -0.0351998 0.345524 0.0529614
v -0.02989 0.369764 0.0551166
v -0.0447626 0.265312 0.0493567
v -0.0441819 0.276722 0.0494957
v -0.043404 0.292266 0.0497216
v -0.0429692 0.295826 0.0498925
v -0.0403383 0.316487 0.0509087
v -0.0402996 0.211629 0.0518362
v -0.0409277 0.216904 0.0514879
v -0.0431235 0.234788 0.0503514
v -0.0435676 0.238368 0.050119
v -0.0442461 0.253689 0.049683
v -0.0301415 0.158843 0.0568789
v -0.0313895 0.164809 0.0562663
v -0.0356521 0.185135 0.0541691
v -0.0368672 0.192139 0.053541
v -0.018314 0.106469 0.0626412
v -0.0242154 0.132649 0.0597567
v -0.00809538 0.0536917 0.067566
v -0.0117661 0.0744391 0.0658028
v -0.0127862 0.0801879 0.0653053
v -0.0173274 0.101833 0.0630999
v -0.00349913 -1.06901e-05 0.0698096
v -0.00413739 0.0134557 0.0694905
v -0.00476311 0.0269397 0.0691829
v -0.00530015 0.0311857 0.0689397
v -0.00754734 0.049161 0.0678616
v 0.0487681 0.740784 0.047099
v 0.0501384 0.747685 0.0467903
v 0.0540388 0.767231 0.0458891
v 0.0556564 0.778062 0.0457987
v 0.0577826 0.792373 0.045702
v 0.0358901 0.688537 0.0516116
v 0.0422134 0.713121 0.0492217
v 0.0425738 0.71458 0.0490948
v 0.0224792 0.636546 0.0573274
v 0.0243809 0.644075 0.0564967
v 0.0290711 0.662579 0.0544097
v 0.0114143 0.583975 0.0626118
v 0.0164482 0.610387 0.0601319
v 0.016655 0.611319 0.0600333
v 0.00615236 0.530368 0.065603
v 0.00636843 0.534221 0.0654577
v 0.00772633 0.55611 0.0645819
v 0.0077984 0.55729 0.0645345
v 0.0109615 0.580579 0.0628551
v 0.00979329 0.476572 0.0644493
v 0.00823964 0.490862 0.0650363
v 0.00688322 0.503389 0.0655587
v 0.00631168 0.524097 0.0656044
v 0.0201357 0.423789 0.0600871
v 0.0163517 0.441053 0.0617014
v 0.0143894 0.450047 0.0625276
v 0.0119026 0.46439 0.0635649
v 0.0328372 0.371561 0.0548325
v 0.0318297 0.375702 0.0552338
v 0.0264869 0.397674 0.0574182
v 0.021545 0.417978 0.0594903
v 0.0433029 0.318743 0.051028
v 0.0415543 0.328652 0.0516119
v 0.0386357 0.345303 0.0525865
v 0.037121 0.352146 0.0531714
v 0.047106 0.264955 0.0508812
v 0.0462824 0.29193 0.0503796
v 0.0452403 0.301297 0.0505992
v 0.0421419 0.211358 0.0543388
v 0.0455826 0.238043 0.0523609
v 0.0457537 0.241151 0.0521804
v 0.031201 0.158716 0.0592888
v 0.0365458 0.182084 0.0569881
v 0.0371727 0.184924 0.056715
v 0.0413538 0.207181 0.0547207
v 0.018258 0.10654 0.0644105
v 0.0201421 0.114237 0.0636809
v 0.0246976 0.132648 0.0619149
v 0.0306911 0.156709 0.0594857
v 0.00770817 0.0537485 0.0683113
v 0.00952679 0.063961 0.0676404
v 0.0124098 0.0802813 0.0665957
v 0.0144296 0.0893381 0.065828
v 0.00350806 -6.0447e-06 0.0697984
v 0.00461702 0.0269495 0.0694182
v 0.00503525 0.0306329 0.0692647
v 0.0591867 0.739634 0.038456
v 0.0606703 0.76652 0.040375
v 0.0631314 0.791812 0.0412299
v 0.0595034 0.686049 0.0318004
v 0.0588399 0.712796 0.0355451
v 0.0589315 0.71944 0.0362787
v 0.0630757 0.63299 0.0225161
v 0.0614759 0.653027 0.0262199
v 0.0609742 0.65947 0.0273817
v 0.0682561 0.580251 0.0122003
v 0.0655842 0.606597 0.0173873
v 0.0731364 0.527318 0.00262572
v 0.0726604 0.532831 0.0035791
v 0.0718127 0.542719 0.00527822
v 0.0709728 0.552597 0.00698101
v 0.0708561 0.55384 0.00721034
v 0.0744009 0.473561 -0.000324464
v 0.0744795 0.500533 -0.00030238
v 0.0744314 0.501494 -0.000193522
v 0.0738987 0.51207 0.000960654
v 0.0733626 0.522656 0.00210869
v 0.0702716 0.420459 0.00798684
v 0.0724166 0.441602 0.00364656
v 0.0729353 0.446766 0.00258441
v 0.0739057 0.464533 0.000661615
v 0.0628865 0.369225 0.0233076
v 0.0646858 0.381032 0.0195384
v 0.0667772 0.394679 0.0151943
v 0.0668767 0.395437 0.0149897
v 0.0685335 0.40774 0.0115575
v 0.0702018 0.420049 0.00810664
v 0.0557616 0.317907 0.0384213
v 0.0562568 0.321901 0.0373428
v 0.057866 0.334406 0.0339286
v 0.0590585 0.34375 0.0313683
v 0.0595261 0.346889 0.0303814
v 0.0613895 0.359226 0.0264699
v 0.0522893 0.264682 0.0461864
v 0.0534035 0.291504 0.0435975
v 0.0543296 0.301847 0.0415606
v 0.0533806 0.210809 0.0438422
v 0.0523697 0.237682 0.046157
v 0.0523479 0.242677 0.0461727
v 0.0577176 0.158034 0.033508
v 0.0558615 0.177765 0.0379698
v 0.0552414 0.184241 0.0394511
v 0.0541773 0.199559 0.0419628
v 0.0634366 0.106157 0.0196188
v 0.0626306 0.113401 0.0215683
v 0.0605426 0.132066 0.0266675
v 0.0596184 0.140601 0.0289176
v 0.0578611 0.156813 0.0331829
v 0.0681583 0.0537001 0.00789961
v 0.0667121 0.0718275 0.0115067
v 0.066045 0.0801003 0.0131425
v 0.0649603 0.0910197 0.0158547
v 0.0700015 -6.0447e-06 0.00330497
v 0.070006 0.000291771 0.0033108
v 0.069539 0.0269477 0.0044921
v 0.0683441 0.0504648 0.00748354
v 0.0444841 0.729952 -0.032509
v 0.0479667 0.737558 -0.0364483
v 0.0519732 0.746303 -0.0409723
v 0.0546436 0.752145 -0.0439955
v 0.0560217 0.754663 -0.0451064
v 0.0601399 0.762216 -0.0484115
v 0.064246 0.769784 -0.051719
v 0.0659906 0.772991 -0.0531225
v 0.0356278 0.682381 -0.00912822
v 0.0358873 0.685326 -0.01048
v 0.0365711 0.692779 -0.0139165
v 0.0372367 0.700227 -0.0173307
v 0.0378333 0.70681 -0.0203623
v 0.0382372 0.708169 -0.021081
v 0.0415802 0.719826 -0.0271976
v 0.0445354 0.631331 0.00475163
v 0.0407094 0.646799 0.00162317
v 0.0381811 0.656996 -0.000440672
v 0.0369191 0.669633 -0.00477153
v 0.0621445 0.580417 0.00426404
v 0.0604006 0.585374 0.00461032
v 0.0560727 0.597619 0.00552149
v 0.0531934 0.605811 0.00609335
v 0.0516924 0.610192 0.00588224
v 0.0472395 0.623345 0.005183
v 0.0735837 0.52849 -0.00426878
v 0.0732571 0.530645 -0.00390166
v 0.0710659 0.544642 -0.00147585
v 0.0694863 0.554747 0.000285711
v 0.0678717 0.560352 0.00115178
v 0.0656725 0.568076 0.00234637
v 0.0634781 0.575794 0.00354244
v 0.0747305 0.475788 -0.0157533
v 0.0748215 0.489908 -0.0123208
v 0.0748881 0.50201 -0.00939158
v 0.0738697 0.52272 -0.00538261
v 0.0707975 0.423886 -0.03011
v 0.0732774 0.449776 -0.0228409
v 0.0741269 0.465083 -0.0186555
v 0.0640047 0.371889 -0.0429378
v 0.0673026 0.395952 -0.0374424
v 0.0675779 0.397988 -0.0369939
v 0.0703871 0.420636 -0.0309728
v 0.0574159 0.31883 -0.0502452
v 0.0585172 0.328507 -0.0492514
v 0.0604789 0.345522 -0.0474857
v 0.0638148 0.370453 -0.0431797
v 0.0541561 0.265013 -0.0496033
v 0.0552194 0.291939 -0.0509915
v 0.0554518 0.211649 -0.0416765
v 0.0552064 0.21756 -0.0427103
v 0.0543355 0.238232 -0.0463169
v 0.0542988 0.242554 -0.0468341
v 0.0541561 0.263814 -0.0494551
v 0.0593231 0.15903 -0.0301894
v 0.0573452 0.183232 -0.0356996
v 0.0571822 0.185264 -0.0361662
v 0.0640239 0.106623 -0.0180955
v 0.0616581 0.132835 -0.0240448
v 0.0681469 0.0537144 -0.00808762
v 0.0665943 0.0755171 -0.0118363
v 0.0662505 0.0802628 -0.0126327
v 0.0640308 0.106564 -0.0180889
v 0.0700081 -1.06901e-05 -0.00369765
v 0.0698585 0.0072856 -0.00401234
v 0.069501 0.0269464 -0.00491326
v 0.0694726 0.0272475 -0.00494047
v 0.0684672 0.0474893 -0.00736012
v 0.0355302 0.730336 -0.0439326
v 0.0491637 0.752609 -0.0507551
v 0.0507215 0.755241 -0.0517227
v 0.0558365 0.763912 -0.054918
v 0.060939 0.772595 -0.0581123
v 0.06147 0.773484 -0.0584322
v 0.0111516 0.682691 -0.0382408
v 0.0134394 0.687641 -0.0384973
v 0.0181275 0.697794 -0.0390391
v 0.0224527 0.707142 -0.0395227
v 0.0228907 0.707918 -0.0396828
v 0.0284831 0.717794 -0.041557
v 0.0340522 0.727701 -0.0434388
v -0.00217955 0.631144 -0.0454911
v 0.00271542 0.656903 -0.0404286
v 0.00276515 0.657147 -0.0403779
v -0.00243828 0.579447 -0.0607622
v -0.00274902 0.58611 -0.0586782
v -0.00336453 0.599177 -0.0545904
v -0.00363413 0.605162 -0.0527049
v -0.00322084 0.61252 -0.0506651
v -0.00245349 0.626125 -0.0468835
v 0.00332143 0.527546 -0.0743436
v 0.00298775 0.530435 -0.0736647
v 0.00165626 0.542176 -0.0709883
v 0.000330843 0.553701 -0.0683528
v -0.000761642 0.563918 -0.065342
v -0.00189264 0.57434 -0.0622617
v 0.0117444 0.47461 -0.0804107
v 0.00678321 0.501064 -0.0782765
v 0.00548108 0.511057 -0.076797
v 0.02445 0.422208 -0.0790508
v 0.0185494 0.445402 -0.080448
v 0.0177932 0.448309 -0.0806131
v 0.0127651 0.470143 -0.0804503
v 0.0373517 0.370298 -0.0716673
v 0.0366994 0.373005 -0.0721144
v 0.0311479 0.39622 -0.0759029
v 0.0309193 0.397111 -0.0760116
v 0.0464882 0.317991 -0.0620031
v 0.0435497 0.337945 -0.0656958
v 0.0426013 0.344256 -0.0668453
v 0.0492517 0.264625 -0.0545792
v 0.0489186 0.282894 -0.0567443
v 0.0487525 0.291431 -0.0577509
v 0.0437491 0.211008 -0.0534176
v 0.0441518 0.213912 -0.0533837
v 0.0466752 0.231585 -0.0532233
v 0.0475463 0.237743 -0.0531622
v 0.0324403 0.158354 -0.0570784
v 0.0336605 0.163635 -0.0566412
v 0.0385299 0.184565 -0.0548576
v 0.0394593 0.189315 -0.0545959
v 0.0194968 0.106232 -0.0626256
v 0.0259524 0.132285 -0.0597597
v 0.00845964 0.0536264 -0.0678032
v 0.00861062 0.0544371 -0.0677265
v 0.013511 0.0800406 -0.0653955
v 0.0135153 0.0801091 -0.0653908
v 0.0193094 0.105414 -0.0627004
v 0.0035021 -1.25971e-05 -0.0701893
v 0.00362687 0.00235894 -0.0701323
v 0.00448697 0.0195317 -0.0697033
v 0.00487321 0.0269278 -0.0695182
v 0.00619549 0.0368171 -0.0688946
v -0.0326253 0.739198 -0.0546533
v -0.0336585 0.766046 -0.0571715
v -0.0334978 0.79124 -0.0605618
v -0.0273142 0.685499 -0.0533669
v -0.029872 0.707428 -0.0533649
v -0.0304435 0.712311 -0.0533643
v -0.0191653 0.632271 -0.0570706
v -0.0232496 0.657501 -0.0547637
v -0.0234646 0.65881 -0.0546351
v -0.0104852 0.579512 -0.0646146
v -0.0147332 0.605842 -0.0604671
v -0.00363026 0.526788 -0.0740487
v -0.00451046 0.534377 -0.0726695
v -0.00598358 0.547014 -0.0703704
v -0.0066902 0.553186 -0.0692516
v -0.0101699 0.57741 -0.064994
v -0.00342505 0.473278 -0.0802384
v -0.00225308 0.500158 -0.0780693
v -0.00260484 0.506993 -0.0770397
v -0.00334151 0.521143 -0.0749006
v -0.0130191 0.420294 -0.0781835
v -0.0101503 0.433179 -0.079195
v -0.00717698 0.446554 -0.0802452
v -0.00598595 0.455084 -0.0802424
v -0.0279813 0.36918 -0.0694142
v -0.0248048 0.37966 -0.07145
v -0.0202468 0.39456 -0.0743671
v -0.0179125 0.402939 -0.0756041
v -0.0143955 0.415354 -0.0774545
v -0.0413945 0.317951 -0.0589307
v -0.0398461 0.324568 -0.0602238
v -0.0365419 0.33861 -0.0629824
v -0.0353201 0.343777 -0.0640115
v -0.0328357 0.352398 -0.0658316
v -0.0288909 0.366041 -0.0687387
v -0.0471355 0.264739 -0.052684
v -0.0454902 0.291581 -0.0549535
v -0.0445827 0.297503 -0.0558426
v -0.0432479 0.210974 -0.052752
v -0.0441576 0.219119 -0.0525618
v -0.0462783 0.23777 -0.0520946
v -0.0466599 0.24984 -0.0523615
v -0.0324605 0.158251 -0.0568693
v -0.0354607 0.171312 -0.0556418
v -0.0384595 0.184445 -0.0544196
v -0.0401515 0.193807 -0.0538259
v -0.0191344 0.106238 -0.0627769
v -0.0207823 0.112613 -0.0620388
v -0.0258353 0.132241 -0.0597467
v -0.0300813 0.148917 -0.0578917
v -0.00801558 0.0536846 -0.0680071
v -0.0105176 0.0668918 -0.0668173
v -0.0130165 0.080108 -0.0656306
v -0.0151706 0.0893188 -0.0646312
v -0.00348323 -2.06888e-05 -0.070196
v -0.00377452 0.00627149 -0.0700637
v -0.00468555 0.0269486 -0.0696195
v -0.00631918 0.040013 -0.0688205
v -0.0417137 0.740811 -0.04558
v -0.0393897 0.767141 -0.0510669
v -0.0389426 0.776076 -0.0526146
v -0.0381208 0.792154 -0.0554001
v -0.0481828 0.688648 -0.0332383
v -0.0447206 0.714664 -0.0395384
v -0.0419811 0.738517 -0.0450537
v -0.0555985 0.636595 -0.0209106
v -0.0545008 0.644293 -0.0226863
v -0.0518638 0.66264 -0.0269327
v -0.0623567 0.583975 -0.0109047
v -0.0596169 0.606659 -0.0148162
v -0.0591697 0.610401 -0.01545
v -0.0666319 0.5304 -0.0062785
v -0.066238 0.536671 -0.00660687
v -0.0651998 0.553303 -0.00745286
v -0.0649622 0.557306 -0.00765611
v -0.0632272 0.575165 -0.00982661
v -0.0663317 0.476671 -0.0107188
v -0.0667617 0.492376 -0.00873386
v -0.0670651 0.503444 -0.00737014
v -0.0668294 0.518336 -0.00675502
v -0.0626005 0.423931 -0.0216189
v -0.0627138 0.425437 -0.0212749
v -0.064578 0.448235 -0.0161009
v -0.0647513 0.450177 -0.0156665
v -0.066002 0.471176 -0.0117452
v -0.0575631 0.371683 -0.0343732
v -0.0582457 0.378726 -0.0326694
v -0.0601175 0.397827 -0.0280504
v -0.0532732 0.318857 -0.0445654
v -0.054295 0.332976 -0.0421801
v -0.0552029 0.345408 -0.0400744
v -0.0561323 0.355677 -0.0378367
v -0.0518071 0.265055 -0.0474508
v -0.0519638 0.282718 -0.0473121
v -0.0520444 0.292034 -0.0472459
v -0.0529191 0.311075 -0.045332
v -0.0540409 0.211491 -0.0413839
v -0.0534835 0.221326 -0.0428041
v -0.0525435 0.238155 -0.0452595
v -0.0522775 0.247498 -0.0460232
v -0.0518433 0.263019 -0.0472893
v -0.0586261 0.15887 -0.0301262
v -0.0581196 0.164215 -0.0313664
v -0.0561178 0.185062 -0.0361816
v -0.0556539 0.190946 -0.0373418
v -0.0639665 0.106645 -0.0175053
v -0.0628689 0.117433 -0.0200816
v -0.0613053 0.132782 -0.0237409
v -0.068285 0.0537652 -0.00754438
v -0.0677511 0.0612427 -0.00878995
v -0.0663807 0.0803398 -0.011942
v -0.0654524 0.0903115 -0.0140632
v -0.0699892 -2.06888e-05 -0.00369
v -0.0697965 0.0125095 -0.00416074
v -0.0695493 0.0269697 -0.0047055
v -0.0412255 0.74265 0.0297171
v -0.0410717 0.745423 0.0300387
v -0.0396411 0.769432 0.0327571
v -0.0396015 0.776188 0.0332006
v -0.0394522 0.794806 0.0343832
v -0.0471283 0.689674 0.0211329
v -0.0449228 0.707482 0.0242196
v -0.0438217 0.716079 0.0257056
v -0.0547376 0.637076 0.0116198
v -0.0508589 0.663383 0.0163209
v -0.0619069 0.584133 0.00380847
v -0.0602618 0.597039 0.00551443
v -0.0585043 0.610684 0.00732709
v -0.0554013 0.632454 0.0108767
v -0.06638 0.530464 0.000713707
v -0.0662653 0.532229 0.000778952
v -0.0652634 0.547891 0.00118647
v -0.0646381 0.557376 0.00144738
v -0.0635999 0.56762 0.00234064
v -0.0657808 0.47677 0.00581396
v -0.0659652 0.481598 0.00518282
v -0.0665577 0.499255 0.00281373
v -0.066709 0.5035 0.00225805
v -0.066424 0.526943 0.00091865
v -0.061711 0.424001 0.0165102
v -0.0622371 0.429898 0.0152255
v -0.0640188 0.450285 0.0107358
v -0.0644732 0.456922 0.00951933
v -0.0564491 0.371698 0.0287984
v -0.0591181 0.397856 0.0226507
v -0.0517866 0.318962 0.0394572
v -0.0535601 0.34087 0.0353971
v -0.0539242 0.345437 0.0345445
v -0.0560852 0.367996 0.0296051
v -0.0497491 0.265295 0.0444456
v -0.0500161 0.279065 0.0436931
v -0.0502877 0.292257 0.0429798
v -0.0505654 0.29751 0.0422818
v -0.051573 0.315357 0.039925
v -0.052084 0.211582 0.0402261
v -0.0520513 0.212099 0.0402933
v -0.0508212 0.2323 0.0426716
v -0.050444 0.238332 0.0433848
v -0.0501 0.251487 0.0438953
v -0.0570858 0.158792 0.0300779
v -0.056975 0.159887 0.0302964
v -0.0543651 0.185075 0.0356096
v -0.0542942 0.185957 0.0357509
v -0.0629034 0.106469 0.0180861
v -0.0600114 0.132638 0.0240934
v -0.0678345 0.0537002 0.00781185
v -0.0659246 0.0762264 0.0118027
v -0.0655877 0.0801896 0.0125036
v -0.0632968 0.102542 0.017253
v -0.0699979 -1.25971e-05 0.00331072
v -0.0697788 0.00976541 0.00374649
v -0.069392 0.026939 0.00454061
v -0.0692124 0.0301192 0.00493609
v -0.0680243 0.0506051 0.00744615
v -0.0575725 0.0607029 -0.335641
v -0.0786484 0.0607029 -0.335641
v -0.0786484 -0.00585062 -0.335641
v -0.0575725 -0.00585062 -0.335641
v -0.0771062 -0.00225295 -0.335641
v -0.074793 -0.00225295 -0.335641
v -0.074793 0.00134473 -0.335641
v -0.0771062 0.00134473 -0.335641
v -0.0771062 0.00134473 -0.335641
v -0.074793 0.00134473 -0.335641
v -0.074793 0.00494124 -0.335641
v -0.0771062 0.00494124 -0.335641
v -0.0771062 0.00494124 -0.335641
v -0.074793 0.00494124 -0.335641
v -0.074793 0.00853892 -0.335641
v -0.0771062 0.00853892 -0.335641
v -0.0771062 0.00853892 -0.335641
v -0.074793 0.00853892 -0.335641
v -0.074793 0.0121366 -0.335641
v -0.0771062 0.0121366 -0.335641
v -0.0771062 0.0121366 -0.335641
v -0.074793 0.0121366 -0.335641
v -0.074793 0.0157343 -0.335641
v -0.0771062 0.0157343 -0.335641
v -0.0771062 0.0157343 -0.335641
v -0.074793 0.0157343 -0.335641
v -0.074793 0.019332 -0.335641
v -0.0771062 0.019332 -0.335641
v -0.0771062 0.019332 -0.335641
v -0.074793 0.019332 -0.335641
v -0.074793 0.0229296 -0.335641
v -0.0771062 0.0229296 -0.335641
v -0.0771062 0.0229296 -0.335641
v -0.074793 0.0229296 -0.335641
v -0.074793 0.0265261 -0.335641
v -0.0771062 0.0265261 -0.335641
v -0.0771062 0.0265261 -0.335641
v -0.074793 0.0265261 -0.335641
v -0.074793 0.0301238 -0.335641
v -0.0771062 0.0301238 -0.335641
v -0.0771062 0.0301238 -0.335641
v -0.074793 0.0301238 -0.335641
v -0.074793 0.0337215 -0.335641
v -0.0771062 0.0337215 -0.335641
v -0.0771062 0.0337215 -0.335641
v -0.074793 0.0337215 -0.335641
v -0.074793 0.0373192 -0.335641
v -0.0771062 0.0373192 -0.335641
v -0.0771062 0.0373192 -0.335641
v -0.074793 0.0373192 -0.335641
v -0.074793 0.0409168 -0.335641
v -0.0771062 0.0409168 -0.335641
v -0.0771062 -0.00225295 -0.335641
v -0.074022 -0.00225295 -0.335641
v -0.0771062 0.00134473 -0.335641
v -0.074022 0.00134473 -0.335641
v -0.0771062 0.00494124 -0.335641
v -0.074022 0.00494124 -0.335641
v -0.0771062 0.00853892 -0.335641
v -0.074022 0.00853892 -0.335641
v -0.0771062 0.0121366 -0.335641
v -0.074022 0.0121366 -0.335641
v -0.0771062 0.0157343 -0.335641
v -0.074022 0.0157343 -0.335641
v -0.0771062 0.019332 -0.335641
v -0.074022 0.019332 -0.335641
v -0.0771062 0.0229296 -0.335641
v -0.074022 0.0229296 -0.335641
v -0.0771062 0.0265261 -0.335641
v -0.074022 0.0265261 -0.335641
v -0.0771062 0.0301238 -0.335641
v -0.074022 0.0301238 -0.335641
v -0.0771062 0.0337215 -0.335641
v -0.074022 0.0337215 -0.335641
v -0.0771062 0.0373192 -0.335641
v -0.074022 0.0373192 -0.335641
v -0.0771062 0.0409168 -0.335641
v -0.074022 0.0409168 -0.335641
v -0.074793 0.0409168 -0.335641
v -0.074793 -0.00225295 -0.335641

#List of body polygons
f 59 60 61
f 59 61 62
f 59 63 64
f 59 64 60
f 63 59 65
f 63 65 66
f 59 62 67
f 59 67 65
f 77 78 79
f 77 79 80
f 77 81 82
f 77 82 78
f 81 77 83
f 81 83 84
f 77 80 85
f 77 85 83
f 95 96 97
f 95 97 98
f 95 99 100
f 95 100 96
f 99 95 101
f 99 101 102
f 95 98 103
f 95 103 101
f 113 114 115
f 113 115 116
f 113 117 118
f 113 118 114
f 117 113 119
f 117 119 120
f 113 116 121
f 113 121 119

#List of body lines
l 1 2
l 2 3
l 1 4
l 4 5
l 1 6
l 6 7
l 1 8
l 8 9
l 10 11
l 11 12
l 10 13
l 10 16
l 16 17
l 10 18
l 18 19
l 21 22
l 22 23
l 20 24
l 33 34
l 34 35
l 37 38
l 38 39
l 50 51
l 57 58
l 131 132
l 133 131
l 134 133
l 135 134
l 136 135
l 137 136
l 138 137
l 139 138
l 140 139
l 141 140
l 142 141
l 143 142
l 144 143
l 145 144
l 146 145
l 147 146
l 148 147
l 149 148
l 150 149
l 151 150
l 152 151
l 158 159
l 163 164
l 164 158
l 176 177
l 180 181
l 181 176
l 185 180
l 196 197
l 200 201
l 201 196
l 205 200
l 216 217
l 220 221
l 221 216
l 239 240
l 240 241
l 257 258
l 258 259
l 273 274
l 276 277
l 277 273
l 281 282
l 282 276
l 292 293
l 303 292
l 315 316
l 316 317
l 363 364
l 364 365
l 369 363
l 381 382
l 384 385
l 385 381
l 389 384
l 426 427
l 433 426
l 444 445
l 448 449
l 449 444
l 454 448
l 466 467
l 469 470
l 470 466
l 475 469
l 484 485
l 494 484
l 507 508
l 508 509
l 522 523
l 523 524
l 526 527
l 527 522
l 540 541
l 546 547
l 547 540
l 561 562
l 566 567
l 567 561
l 580 581
l 583 584
l 584 580
l 588 583
l 599 600
l 603 604
l 604 599
l 608 603
l 619 620
l 623 624
l 624 619
l 628 623

#List of body lines
l 13 14
l 14 15
l 20 21
l 24 25
l 30 31
l 31 32
l 20 33
l 35 36
l 48 49
l 49 50
l 56 57
l 159 160
l 160 161
l 162 163
l 166 167
l 167 162
l 177 178
l 178 179
l 183 184
l 184 185
l 197 198
l 198 199
l 203 204
l 204 205
l 211 212
l 217 218
l 218 211
l 219 220
l 224 219
l 234 235
l 238 239
l 241 234
l 245 238
l 252 253
l 256 257
l 259 252
l 263 256
l 270 271
l 271 272
l 274 275
l 275 270
l 280 281
l 293 294
l 294 295
l 302 303
l 314 315
l 317 318
l 322 314
l 327 328
l 341 327
l 354 355
l 355 356
l 359 360
l 365 359
l 367 368
l 368 369
l 376 377
l 382 383
l 383 376
l 387 388
l 388 389
l 395 396
l 396 397
l 407 395
l 419 420
l 420 421
l 427 428
l 428 429
l 431 432
l 432 433
l 445 446
l 446 447
l 453 454
l 463 464
l 467 468
l 468 463
l 473 474
l 474 475
l 485 486
l 486 487
l 493 494
l 502 503
l 506 507
l 509 502
l 513 506
l 518 519
l 519 520
l 524 518
l 525 526
l 529 530
l 530 525
l 541 542
l 545 546
l 551 545
l 562 563
l 563 564
l 565 566
l 571 565
l 575 576
l 581 582
l 582 575
l 586 587
l 587 588
l 600 601
l 601 602
l 606 607
l 607 608
l 620 621
l 621 622
l 626 627
l 627 628

#List of body lines
l 25 26
l 26 27
l 20 30
l 37 48
l 54 55
l 55 56
l 153 154
l 161 153
l 165 166
l 171 165
l 172 173
l 179 172
l 182 183
l 190 182
l 191 192
l 199 191
l 202 203
l 210 202
l 212 213
l 213 214
l 222 223
l 223 224
l 229 222
l 235 236
l 236 237
l 243 244
l 244 245
l 253 254
l 254 255
l 261 262
l 262 263
l 267 268
l 268 269
l 272 267
l 279 280
l 295 296
l 300 301
l 301 302
l 310 311
l 318 310
l 320 321
l 321 322
l 328 329
l 340 341
l 353 354
l 356 357
l 360 361
l 361 362
l 366 367
l 373 366
l 377 378
l 378 379
l 386 387
l 394 386
l 397 398
l 406 407
l 418 419
l 421 422
l 423 424
l 424 425
l 429 423
l 430 431
l 435 436
l 436 430
l 440 441
l 447 440
l 451 452
l 452 453
l 460 461
l 461 462
l 464 465
l 465 460
l 472 473
l 487 488
l 491 492
l 492 493
l 503 504
l 504 505
l 511 512
l 512 513
l 520 521
l 528 529
l 535 528
l 542 543
l 543 544
l 549 550
l 550 551
l 556 557
l 564 556
l 569 570
l 570 571
l 576 577
l 577 578
l 585 586
l 593 585
l 594 595
l 602 594
l 605 606
l 613 605
l 614 615
l 622 614
l 625 626
l 633 625

#List of body lines
l 27 28
l 53 54
l 154 155
l 155 156
l 169 170
l 170 171
l 173 174
l 189 190
l 192 193
l 209 210
l 214 215
l 227 228
l 228 229
l 230 231
l 237 230
l 242 243
l 248 242
l 249 250
l 250 251
l 255 249
l 260 261
l 266 260
l 278 279
l 287 278
l 296 297
l 299 300
l 311 312
l 312 313
l 319 320
l 326 319
l 329 330
l 330 331
l 338 339
l 339 340
l 352 353
l 357 358
l 362 352
l 371 372
l 372 373
l 379 380
l 393 394
l 398 399
l 405 406
l 411 412
l 417 418
l 422 411
l 425 417
l 434 435
l 438 439
l 439 434
l 441 442
l 450 451
l 459 450
l 471 472
l 479 471
l 480 481
l 488 480
l 490 491
l 498 499
l 505 498
l 510 511
l 517 510
l 533 534
l 534 535
l 536 537
l 544 536
l 548 549
l 555 548
l 557 558
l 558 559
l 568 569
l 573 574
l 574 568
l 578 579
l 591 592
l 592 593
l 595 596
l 612 613
l 615 616
l 632 633

#List of body lines
l 28 29
l 52 53
l 156 157
l 168 169
l 174 175
l 175 168
l 187 188
l 188 189
l 193 194
l 194 195
l 207 208
l 208 209
l 226 227
l 231 232
l 232 233
l 246 247
l 247 248
l 251 246
l 264 265
l 265 266
l 286 287
l 288 289
l 297 288
l 298 299
l 306 298
l 307 308
l 308 309
l 313 307
l 324 325
l 325 326
l 331 332
l 337 338
l 346 347
l 358 346
l 370 371
l 374 375
l 375 370
l 380 374
l 391 392
l 392 393
l 399 400
l 403 404
l 404 405
l 412 413
l 437 438
l 442 443
l 443 437
l 457 458
l 458 459
l 478 479
l 481 482
l 482 483
l 489 490
l 497 489
l 499 500
l 500 501
l 515 516
l 516 517
l 532 533
l 537 538
l 538 539
l 553 554
l 554 555
l 559 560
l 572 573
l 590 591
l 596 597
l 597 598
l 610 611
l 611 612
l 616 617
l 617 618
l 630 631
l 631 632

#List of body lines
l 37 40
l 37 52
l 186 187
l 195 186
l 206 207
l 225 226
l 233 225
l 285 286
l 289 290
l 290 291
l 304 305
l 305 306
l 309 304
l 323 324
l 332 333
l 336 337
l 347 348
l 390 391
l 402 403
l 413 414
l 414 415
l 456 457
l 476 477
l 477 478
l 483 476
l 495 496
l 496 497
l 501 495
l 514 515
l 531 532
l 539 531
l 552 553
l 560 552
l 589 590
l 598 589
l 609 610
l 618 609
l 629 630

#List of body lines
l 40 41
l 283 284
l 284 285
l 291 283
l 333 334
l 335 336
l 345 335
l 348 349
l 349 350
l 401 402
l 409 410
l 410 401
l 415 416
l 455 456

#List of body lines
l 41 42
l 343 344
l 344 345
l 350 351
l 408 409
l 416 408

#List of body lines
l 42 43
l 43 44
l 342 343
l 351 342

#List of body lines
l 44 45

#List of body lines
l 45 46

#List of body lines
l 46 47

#List of body lines
l 68 69
l 69 70
l 70 71
l 71 72
l 72 73
l 73 68
l 68 71
l 71 74
l 74 75
l 75 72
l 76 70
l 74 76
l 86 87
l 87 88
l 88 89
l 89 90
l 90 91
l 91 86
l 86 89
l 89 92
l 92 93
l 93 90
l 94 88
l 92 94
l 104 105
l 105 106
l 106 107
l 107 108
l 108 109
l 109 104
l 104 107
l 107 110
l 110 111
l 111 108
l 112 106
l 110 112
l 122 123
l 123 124
l 124 125
l 125 126
l 126 127
l 127 122
l 122 125
l 125 128
l 128 129
l 129 126
l 130 124
l 128 130


