#OBJ File generated by Abaqus/CAE
#List of Vertices
v 8.00892e-06 -1.41811e-05 -0.00019389
v 2.38257e-06 -2.40563e-06 0.0348005
v -5.61263e-06 -6.33091e-06 0.0698123
v 0.0350016 -2.40273e-06 -0.00019868
v 0.0700126 -6.3251e-06 -0.000205938
v -6.46068e-08 -1.86437e-05 -0.0351808
v 1.68136e-05 -1.66492e-05 -0.0701998
v -0.0349979 -1.86466e-05 -0.000183039
v -0.0699959 -1.6655e-05 -0.000187061
v 0.00184292 0.264586 -0.00262191
v 0.0260166 0.264684 0.0227018
v 0.0495823 0.264962 0.0485666
v 0.0215268 0.264488 -0.0222353
v 0.0266274 0.264464 -0.0273186
v 0.0515364 0.265025 -0.0519234
v -0.0235466 0.26467 -0.0267123
v -0.0495703 0.264768 -0.0500964
v -0.0228588 0.264946 0.0221944
v -0.0474306 0.265298 0.0470967
v 0.00325755 0.527584 -0.0043572
v 0.00310068 0.528524 0.0251882
v 0.00308008 0.528673 0.0306294
v 0.00247654 0.530493 0.0655672
v 0.0125656 0.527402 -0.00407682
v 0.0377758 0.526908 -0.00329518
v 0.0382155 0.526899 -0.0032725
v 0.0517507 0.527246 -0.0023833
v 0.0655304 0.527609 -0.00148569
v 0.0731272 0.52781 -0.000978381
v 0.00258203 0.527593 -0.0231269
v 0.00199719 0.527577 -0.039329
v -0.000108871 0.528075 -0.0742577
v -0.0108509 0.528119 -0.00411884
v -0.0317183 0.528871 -0.0037568
v -0.0666708 0.530419 -0.00257833
v 0.0125197 0.795558 -0.00868737
v 0.0358839 0.79508 0.0173685
v 0.0585569 0.794293 0.0440101
v 0.0143079 0.795187 -0.0103719
v 0.021399 0.793728 -0.017061
v 0.0284834 0.792247 -0.0237217
v 0.0355583 0.790788 -0.0303942
v 0.0376784 0.790339 -0.0323838
v 0.0421726 0.788186 -0.0367146
v 0.0486265 0.785079 -0.0429045
v 0.055065 0.78197 -0.049078
v 0.0615065 0.778861 -0.0552539
v -0.00258001 0.795288 -0.023519
v -0.0124602 0.795097 -0.0331942
v -0.0243705 0.794402 -0.0438136
v -0.0385273 0.793548 -0.0564902
v 0.00338415 0.796061 -0.000199676
v -0.00808927 0.796684 0.0104685
v -0.0130866 0.796966 0.0151047
v -0.0198026 0.796806 0.0212731
v -0.0316608 0.796485 0.0321995
v -0.038846 0.796313 0.0387992
v 0.0615508 0.793826 0.0422016
v 0.0664797 0.79489 -0.0175913
v 0.125925 0.788329 -0.0128196
v 0.120996 0.787249 0.0469892
v 0.00210362 0.800402 0.0374178
v 0.00702325 0.801469 -0.02237
v 0.0566229 0.79278 0.101977
v -0.00281597 0.79935 0.0971902
v 0.116069 0.786189 0.106778
v 0.120996 0.787249 0.0467892
v 0.125925 0.788329 -0.0130196
v 0.0664797 0.79489 -0.0177913
v 0.0615508 0.793826 0.0420016
v 0.0566229 0.79278 0.101777
v 0.116069 0.786189 0.106578
v 0.00210362 0.800402 0.0372178
v -0.00281597 0.79935 0.0969902
v 0.00702325 0.801469 -0.02257
v -0.0366069 0.796224 0.0417291
v -0.0343411 0.798879 -0.0181761
v 0.0256043 0.800523 -0.0158357
v 0.0233255 0.797883 0.044068
v -0.0965279 0.79458 0.0393641
v -0.0942622 0.797226 -0.0205312
v -0.0388765 0.79358 0.101626
v -0.0988165 0.791943 0.0992729
v 0.0210542 0.795234 0.103972
v 0.0233255 0.797883 0.043868
v 0.0256043 0.800523 -0.0160357
v -0.0343411 0.798879 -0.0183761
v -0.0366069 0.796224 0.0415291
v -0.0388765 0.79358 0.101426
v 0.0210542 0.795234 0.103772
v -0.0965279 0.79458 0.0391641
v -0.0988165 0.791943 0.0990729
v -0.0942622 0.797226 -0.0207312
v 0.0600764 0.779258 -0.0582769
v 0.0591996 0.762107 -0.115752
v 0.113721 0.737885 -0.109365
v 0.114597 0.755049 -0.051878
v 0.00555683 0.803494 -0.0646637
v 0.00468403 0.786342 -0.122163
v 0.0609451 0.796419 -0.000783092
v 0.00642762 0.820645 -0.00717715
v 0.115458 0.77219 0.00561862
v 0.114597 0.755049 -0.052078
v 0.113721 0.737885 -0.109565
v 0.0591996 0.762107 -0.115952
v 0.0600764 0.779258 -0.0584769
v 0.0609451 0.796419 -0.000983092
v 0.115458 0.77219 0.00541862
v 0.00555683 0.803494 -0.0648637
v 0.00642762 0.820645 -0.00737715
v 0.00468403 0.786342 -0.122363
v -0.0406776 0.794257 -0.0537744
v -0.0443796 0.786413 -0.113148
v 0.0154953 0.785506 -0.11675
v 0.0191911 0.793366 -0.0573842
v -0.100559 0.795165 -0.0501692
v -0.104272 0.787313 -0.109522
v -0.0369881 0.802124 0.00558877
v -0.0968654 0.803018 0.00920526
v 0.0228959 0.801206 0.00199075
v 0.0191911 0.793366 -0.0575842
v 0.0154953 0.785506 -0.11695
v -0.0443796 0.786413 -0.113348
v -0.0406776 0.794257 -0.0539744
v -0.0369881 0.802124 0.00538877
v 0.0228959 0.801206 0.00179075
v -0.100559 0.795165 -0.0503692
v -0.0968654 0.803018 0.00900526
v -0.104272 0.787313 -0.109722
v 0.0661331 0.748355 -0.0602517
v 0.0667728 0.773599 -0.060577
v 0.0654655 0.723125 -0.0599122
v 0.064818 0.697888 -0.0595853
v 0.0641796 0.673141 -0.0592781
v 0.0635521 0.648875 -0.0589511
v 0.0629339 0.624842 -0.0586464
v 0.0623147 0.600841 -0.0583382
v 0.061693 0.576842 -0.0580283
v 0.0610872 0.552845 -0.0577365
v 0.0604702 0.528828 -0.0574136
v 0.0598387 0.504835 -0.0571011
v 0.0592342 0.480823 -0.0567957
v 0.0585954 0.456837 -0.0564822
v 0.0579833 0.432832 -0.0561762
v 0.0573667 0.408831 -0.0558707
v 0.0567576 0.384813 -0.0555536
v 0.056133 0.360821 -0.0552481
v 0.0555147 0.336811 -0.0549321
v 0.0548919 0.312808 -0.0546167
v 0.0542643 0.288809 -0.054302
v 0.053651 0.264817 -0.0540079
v -0.0318867 0.742497 0.0421832
v -0.0333631 0.755025 0.0416893
v -0.0350178 0.769281 0.041118
v -0.0359829 0.785209 0.041326
v -0.036556 0.794672 0.041441
v -0.0226562 0.689578 0.0475566
v -0.0241458 0.697443 0.0466358
v -0.0276401 0.715935 0.0444534
v -0.0292114 0.725745 0.0436247
v -0.0122342 0.63712 0.0550187
v -0.0132508 0.642215 0.0542843
v -0.0173891 0.663345 0.0511956
v -0.00392909 0.584229 0.0619134
v -0.00394497 0.584366 0.061897
v -0.00760432 0.61078 0.0586947
v -0.00807328 0.613395 0.0583289
v -0.00102223 0.530483 0.0655759
v -0.00110814 0.534828 0.0653536
v -0.00152927 0.554491 0.0644513
v -0.00158878 0.557446 0.0643008
v -0.00626907 0.476808 0.0644748
v -0.00619963 0.477362 0.0645024
v -0.00358246 0.496764 0.0652741
v -0.00266328 0.503541 0.0655394
v -0.00143121 0.523684 0.065549
v -0.0170766 0.424068 0.0604592
v -0.016561 0.426424 0.0606491
v -0.0112583 0.450348 0.0626983
v -0.0109584 0.451903 0.0627953
v -0.0295291 0.371757 0.0554938
v -0.0233055 0.397912 0.0579839
v -0.0401206 0.319003 0.0512091
v -0.0399559 0.319972 0.0512876
v -0.035272 0.345481 0.0531518
v -0.0352807 0.345505 0.053143
v -0.0297414 0.370836 0.0554055
v -0.0448921 0.265297 0.0495203
v -0.0440539 0.282152 0.049758
v -0.0435456 0.292258 0.0499143
v -0.0424973 0.300467 0.0503094
v -0.0404425 0.211601 0.0519824
v -0.040664 0.213429 0.0518669
v -0.0427443 0.230438 0.0507752
v -0.0437238 0.238346 0.0502927
v -0.0441349 0.248005 0.0500091
v -0.0302557 0.158837 0.0569723
v -0.0311155 0.162909 0.0565621
v -0.0357773 0.185105 0.0542924
v -0.0363767 0.188488 0.0539875
v -0.018378 0.10647 0.062703
v -0.024305 0.132647 0.059834
v -0.00810295 0.0536744 0.0676019
v -0.0124002 0.0778764 0.0655512
v -0.0128148 0.0801702 0.0653615
v -0.0177483 0.103544 0.0629929
v -0.00349953 -8.30103e-06 0.0698083
v -0.003572 0.00160533 0.0697664
v -0.00437749 0.0184494 0.0693809
v -0.00478301 0.0269434 0.0692041
v -0.00583854 0.0354 0.0686978
v -0.00796538 0.0524979 0.0676667
v 0.0475167 0.74105 0.0474212
v 0.0478247 0.742593 0.0473559
v 0.0525737 0.767549 0.0464057
v 0.0530728 0.771154 0.0464215
v 0.056071 0.792729 0.0464898
v 0.0350378 0.688684 0.051698
v 0.0403133 0.709821 0.0497222
v 0.0415431 0.714782 0.0492651
v 0.0218898 0.636625 0.0573739
v 0.023888 0.644643 0.0564882
v 0.0283699 0.662678 0.0544588
v 0.0110716 0.583999 0.0626741
v 0.0160052 0.610427 0.0601721
v 0.0167575 0.613816 0.0598176
v 0.00597429 0.530379 0.0657107
v 0.00649298 0.539173 0.0653506
v 0.00755503 0.557298 0.0646178
v 0.00798091 0.560461 0.0643844
v 0.0110762 0.583943 0.062679
v 0.00971492 0.476595 0.064651
v 0.00875922 0.485225 0.0649885
v 0.00677132 0.503403 0.0656917
v 0.00639366 0.515964 0.0657081
v 0.0201233 0.423783 0.0604644
v 0.0167921 0.438921 0.0618157
v 0.0143366 0.450057 0.0628286
v 0.0124282 0.461042 0.063583
v 0.0328446 0.371569 0.0553029
v 0.0314648 0.377199 0.0558653
v 0.0264654 0.39769 0.0578612
v 0.0217557 0.417047 0.0597876
v 0.0432858 0.318762 0.051471
v 0.040872 0.332603 0.0523073
v 0.0386373 0.34529 0.0530882
v 0.0365113 0.354889 0.0539015
v 0.0471128 0.264962 0.051036
v 0.0468905 0.271886 0.0509623
v 0.0462751 0.291942 0.0507152
v 0.0445277 0.307713 0.0511476
v 0.0421952 0.211322 0.0541862
v 0.0450627 0.233691 0.0526102
v 0.0456204 0.238043 0.0523121
v 0.0468866 0.260848 0.051238
v 0.0312403 0.158696 0.0590371
v 0.0359066 0.179055 0.0570395
v 0.0372297 0.184889 0.0564849
v 0.0405683 0.202655 0.0549382
v 0.018284 0.106537 0.0642156
v 0.0204743 0.11543 0.0633586
v 0.0247254 0.132632 0.0616868
v 0.0302715 0.154802 0.0594423
v 0.00771111 0.0537562 0.0682423
v 0.0103077 0.0683016 0.0672691
v 0.0124304 0.0802726 0.0664696
v 0.015083 0.0921314 0.0654614
v 0.00350694 -3.76045e-06 0.0697972
v 0.00358009 0.00204103 0.0697803
v 0.00462833 0.026947 0.0693933
v 0.00605373 0.0393949 0.0688621
v 0.0580737 0.740091 0.0383571
v 0.0592064 0.766961 0.0407436
v 0.061386 0.792275 0.0419463
v 0.0590126 0.68665 0.0308248
v 0.0580483 0.71332 0.0349825
v 0.0580719 0.719546 0.0357604
v 0.0630286 0.633701 0.0210731
v 0.0607394 0.66014 0.0260951
v 0.0602555 0.667528 0.0274263
v 0.0683949 0.580932 0.0109688
v 0.0656779 0.607326 0.0159282
v 0.0731195 0.527822 0.00251807
v 0.0722963 0.538075 0.00401878
v 0.0714413 0.548585 0.00556076
v 0.0709594 0.554436 0.00642987
v 0.0687489 0.577177 0.0103262
v 0.0741567 0.47397 0.00097588
v 0.0743472 0.500947 0.00034761
v 0.0742621 0.502667 0.000499195
v 0.0737043 0.515102 0.00148492
v 0.0731373 0.527519 0.00249648
v 0.069934 0.420974 0.00988231
v 0.0705329 0.426876 0.00863118
v 0.0726044 0.447163 0.00433288
v 0.0726108 0.447245 0.0043015
v 0.0738414 0.468517 0.00166335
v 0.0626371 0.369635 0.0249061
v 0.0643817 0.381196 0.0213505
v 0.0664711 0.395162 0.017044
v 0.0670808 0.399845 0.015754
v 0.0687415 0.412204 0.0123288
v 0.055669 0.31805 0.0392515
v 0.0564356 0.324222 0.0376775
v 0.0580467 0.337283 0.0343449
v 0.0588818 0.344023 0.0326157
v 0.0598058 0.350212 0.0307464
v 0.0616687 0.363006 0.026915
v 0.0522911 0.264717 0.0463364
v 0.0533626 0.291598 0.0440156
v 0.0545087 0.304673 0.0416617
v 0.053422 0.210889 0.0436001
v 0.0523905 0.237731 0.0460914
v 0.0523927 0.238047 0.0460936
v 0.0577773 0.15811 0.0331596
v 0.0559488 0.177372 0.0375354
v 0.0553073 0.184323 0.0391132
v 0.0543269 0.198113 0.0414389
v 0.0634508 0.106224 0.019373
v 0.0624707 0.115124 0.0217791
v 0.0605897 0.132145 0.0263413
v 0.0596033 0.141365 0.0287658
v 0.0578618 0.157255 0.0329316
v 0.0681802 0.0537077 0.00781128
v 0.0680234 0.0554756 0.00817229
v 0.0665278 0.0744948 0.0118909
v 0.0660738 0.0801144 0.0129859
v 0.0647457 0.0932675 0.0162073
v 0.0699995 -3.75493e-06 0.00330471
v 0.0698242 0.0106071 0.00376686
v 0.0695298 0.0269452 0.00448762
v 0.0444121 0.732251 -0.0346818
v 0.0465333 0.737621 -0.0370311
v 0.0503383 0.747277 -0.041264
v 0.053599 0.755484 -0.0448791
v 0.0542285 0.75685 -0.0453621
v 0.05857 0.765941 -0.0486547
v 0.0629076 0.775066 -0.0519767
v 0.0639583 0.777309 -0.0527739
v 0.0369627 0.683475 -0.0132929
v 0.0371381 0.686202 -0.0144276
v 0.0376887 0.694428 -0.0178804
v 0.03824 0.702647 -0.0213292
v 0.0386095 0.708299 -0.0236868
v 0.0406821 0.716898 -0.0276295
v 0.0459467 0.632326 0.000573558
v 0.041364 0.6512 -0.0034527
v 0.0397142 0.657993 -0.00490388
v 0.0383187 0.670884 -0.00913818
v 0.0627708 0.581154 0.00196609
v 0.0613388 0.585428 0.00209449
v 0.0561611 0.601014 0.0025443
v 0.0542392 0.606753 0.00271117
v 0.0507557 0.617485 0.00181287
v 0.0735638 0.528765 -0.00441926
v 0.0735441 0.528855 -0.00440063
v 0.0707429 0.548106 -0.00180057
v 0.0697011 0.555227 -0.000840185
v 0.0688642 0.558317 -0.000491979
v 0.0666279 0.5667 0.000405075
v 0.0643963 0.575075 0.00130354
v 0.0744911 0.475791 -0.0146404
v 0.0747327 0.502013 -0.00884351
v 0.07473 0.502147 -0.00880722
v 0.0704492 0.423782 -0.02853
v 0.072967 0.449718 -0.0214158
v 0.0732755 0.45473 -0.02011
v 0.0744486 0.475333 -0.0147629
v 0.0636551 0.371833 -0.0415496
v 0.0663789 0.391787 -0.0368602
v 0.0672072 0.397897 -0.0354349
v 0.0691818 0.413522 -0.0312747
v 0.0571588 0.318852 -0.0494628
v 0.0589581 0.334843 -0.047597
v 0.0601712 0.345502 -0.0463651
v 0.0632653 0.368906 -0.0420827
v 0.0539959 0.265021 -0.0494291
v 0.0549971 0.291976 -0.0505264
v 0.0553831 0.211619 -0.0418454
v 0.0543926 0.234458 -0.0457153
v 0.0542353 0.238209 -0.0463585
v 0.0540888 0.254883 -0.0482713
v 0.0592864 0.158991 -0.0304089
v 0.0577304 0.177962 -0.0347369
v 0.0571404 0.185223 -0.0363887
v 0.0554192 0.211076 -0.041734
v 0.0640178 0.106591 -0.0182488
v 0.0638953 0.107951 -0.0185623
v 0.0616376 0.132808 -0.02425
v 0.0681489 0.0537208 -0.00815822
v 0.0663342 0.0790799 -0.0125458
v 0.0662494 0.0802509 -0.0127437
v 0.0700067 -8.29492e-06 -0.00369795
v 0.0697441 0.0139399 -0.00433144
v 0.0694921 0.0269435 -0.00491839
v 0.0692185 0.0325421 -0.00560233
v 0.0682605 0.0513375 -0.00785994
v 0.0353485 0.73296 -0.0459178
v 0.0480533 0.756104 -0.0515545
v 0.0486419 0.757243 -0.0518928
v 0.0533831 0.766303 -0.0545974
v 0.0581014 0.775395 -0.0573122
v 0.0594028 0.777894 -0.0580423
v 0.01241 0.684387 -0.0418273
v 0.0131048 0.686005 -0.0418795
v 0.0175405 0.69629 -0.0421425
v 0.021986 0.706581 -0.0424229
v 0.0230976 0.709156 -0.0425006
v 0.027095 0.716915 -0.0436103
v 0.032421 0.727261 -0.0450935
v -0.000605046 0.632666 -0.0489089
v 0.00169298 0.644715 -0.0467119
v 0.00433838 0.658756 -0.0441208
v -0.0015801 0.580539 -0.0626007
v -0.00175878 0.586055 -0.0610743
v -0.00216944 0.600204 -0.0571901
v -0.00236075 0.606553 -0.0554507
v -0.00180482 0.614709 -0.0534131
v -0.000819008 0.629497 -0.0497052
v 0.00338879 0.528088 -0.0742678
v 0.00314931 0.530568 -0.0738035
v 0.00192191 0.542777 -0.071441
v 0.000747392 0.554458 -0.0691883
v -0.000104044 0.564165 -0.06674
v -0.00101954 0.574329 -0.0641682
v 0.0113968 0.474957 -0.0789808
v 0.00737516 0.497388 -0.0776969
v 0.00663904 0.501472 -0.0774525
v 0.0238741 0.422482 -0.0770351
v 0.0191081 0.441506 -0.0783207
v 0.0173277 0.448607 -0.0787978
v 0.0135953 0.465159 -0.0789065
v 0.0367935 0.370551 -0.0699809
v 0.0361467 0.373215 -0.070384
v 0.0307149 0.395789 -0.0738623
v 0.0305321 0.396514 -0.0739647
v 0.0461309 0.31812 -0.0610881
v 0.0424964 0.342002 -0.0651066
v 0.0421152 0.344464 -0.0655141
v 0.0490831 0.264689 -0.054414
v 0.0490019 0.267921 -0.0547475
v 0.0485489 0.289327 -0.0570093
v 0.0484911 0.29153 -0.0572475
v 0.043664 0.211043 -0.0535661
v 0.0459832 0.227527 -0.0533448
v 0.047442 0.237779 -0.0532089
v 0.0486254 0.257151 -0.0540697
v 0.0324102 0.158382 -0.0572975
v 0.0332408 0.161981 -0.0569878
v 0.0384758 0.184591 -0.0550573
v 0.0387818 0.18615 -0.0549739
v 0.043594 0.21062 -0.0536006
v 0.0194984 0.106234 -0.0627817
v 0.0196272 0.106793 -0.0627278
v 0.0259457 0.132298 -0.0599596
v 0.00845112 0.0536329 -0.0678583
v 0.00938724 0.0586349 -0.0674056
v 0.013492 0.080056 -0.065497
v 0.014122 0.0828037 -0.0652039
v 0.00350868 -1.22775e-05 -0.0701959
v 0.00389532 0.00776701 -0.0700084
v 0.00472096 0.0240793 -0.0696159
v 0.00486074 0.0269461 -0.0695409
v 0.00668159 0.0405371 -0.0686736
v -0.034021 0.739832 -0.0542484
v -0.0356544 0.766723 -0.0561234
v -0.0359915 0.787015 -0.0584008
v -0.0360594 0.791973 -0.0589531
v -0.0276982 0.686238 -0.0541852
v -0.0311209 0.711688 -0.0536416
v -0.0312953 0.712991 -0.0536255
v -0.0189516 0.633134 -0.0584775
v -0.0234889 0.659623 -0.0558566
v -0.0245892 0.666645 -0.0554272
v -0.0101354 0.580378 -0.0657435
v -0.0118142 0.590796 -0.0642189
v -0.0143963 0.606752 -0.0618707
v -0.00356088 0.527423 -0.0739716
v -0.00481337 0.538967 -0.0721799
v -0.00618856 0.551785 -0.0702045
v -0.00643087 0.553938 -0.0698635
v -0.00377167 0.473729 -0.0786923
v -0.00241145 0.500645 -0.0771833
v -0.00284541 0.510904 -0.0759497
v -0.00349654 0.525925 -0.0741448
v -0.013487 0.420784 -0.0760214
v -0.0106761 0.433377 -0.0770932
v -0.00763394 0.447037 -0.0782671
v -0.00662832 0.453948 -0.0783821
v -0.0283089 0.36956 -0.0676168
v -0.0259812 0.377309 -0.0690342
v -0.0206777 0.395038 -0.0722839
v -0.0181514 0.404078 -0.0735975
v -0.0147506 0.416229 -0.0753714
v -0.041487 0.318094 -0.0580698
v -0.0394416 0.326988 -0.0596427
v -0.036235 0.340912 -0.0621065
v -0.0355041 0.344013 -0.0626556
v -0.0325425 0.354511 -0.0646943
v -0.0287232 0.368047 -0.0673358
v -0.0471037 0.264768 -0.052563
v -0.0454881 0.291648 -0.0545467
v -0.0435958 0.304128 -0.0562058
v -0.04317 0.210992 -0.0529437
v -0.0433626 0.212652 -0.0529003
v -0.0462106 0.237797 -0.0521757
v -0.0464135 0.243674 -0.0522617
v -0.0323986 0.15827 -0.0571224
v -0.0349298 0.169294 -0.0560958
v -0.0384038 0.184492 -0.0546759
v -0.039505 0.190629 -0.0542785
v -0.0191139 0.106269 -0.0629583
v -0.0210653 0.113898 -0.0620855
v -0.0257678 0.132262 -0.059997
v -0.0298094 0.14811 -0.0582525
v -0.00799982 0.0536936 -0.0680795
v -0.0111553 0.0704442 -0.066619
v -0.0129886 0.0801277 -0.0657677
v -0.0156973 0.0917033 -0.0645239
v -0.00349601 -2.04153e-05 -0.070183
v -0.00416209 0.0150633 -0.0698714
v -0.00468471 0.0269447 -0.06963
v -0.00716893 0.046912 -0.0684638
v -0.043371 0.741172 -0.0446813
v -0.0417175 0.764241 -0.0491822
v -0.0414685 0.767589 -0.0498379
v -0.0406989 0.792714 -0.0537705
v -0.049221 0.688833 -0.0327015
v -0.046041 0.714945 -0.038868
v -0.0446342 0.728791 -0.0419337
v -0.0562108 0.636687 -0.0205562
v -0.0551402 0.644545 -0.022359
v -0.0526729 0.662777 -0.0265083
v -0.0626488 0.584025 -0.0106525
v -0.0596973 0.609624 -0.0150091
v -0.0596019 0.610449 -0.0151453
v -0.0666613 0.530407 -0.00607502
v -0.0660828 0.540348 -0.00658125
v -0.065138 0.556704 -0.00740177
v -0.0651032 0.557335 -0.00744648
v -0.063129 0.578696 -0.0100025
v -0.0662399 0.476676 -0.0104772
v -0.0665941 0.488751 -0.00897174
v -0.067013 0.503451 -0.00716507
v -0.0668898 0.511998 -0.00681867
v -0.0624731 0.423914 -0.0213089
v -0.0642658 0.44563 -0.0164013
v -0.0646474 0.450174 -0.0153774
v -0.0656853 0.467625 -0.0121468
v -0.0574898 0.371667 -0.0340061
v -0.0582157 0.37914 -0.032191
v -0.0600123 0.397791 -0.0276878
v -0.0624596 0.423679 -0.0213717
v -0.0532363 0.318843 -0.0442391
v -0.0544097 0.33515 -0.0414626
v -0.0551571 0.345385 -0.0396981
v -0.0561963 0.357028 -0.0371836
v -0.0517709 0.265041 -0.0473646
v -0.0520097 0.292017 -0.0470023
v -0.0520788 0.293204 -0.0468771
v -0.0529975 0.313585 -0.0447737
v -0.0539803 0.211432 -0.0415927
v -0.0525155 0.238134 -0.0453409
v -0.0523867 0.242645 -0.0456873
v -0.0519363 0.258996 -0.0468983
v -0.0585967 0.158831 -0.0304113
v -0.0584348 0.160324 -0.0307652
v -0.0560982 0.184968 -0.0364341
v -0.0560733 0.185004 -0.0364487
v -0.0541184 0.209728 -0.041257
v -0.0639472 0.106611 -0.0176881
v -0.062796 0.117941 -0.0204089
v -0.0612707 0.132728 -0.0239843
v -0.068292 0.0537713 -0.00760123
v -0.0673369 0.0668779 -0.00979753
v -0.066373 0.0803264 -0.0120604
v -0.0651595 0.0933741 -0.0148568
v -0.069981 -2.04208e-05 -0.003698
v -0.0695479 0.0269655 -0.00471728
v -0.0695183 0.0279183 -0.0048115
v -0.0426634 0.742617 0.0312038
v -0.0413136 0.769375 0.0344926
v -0.0413036 0.771138 0.0346029
v -0.0413278 0.794751 0.0363227
v -0.0481371 0.689684 0.0221506
v -0.0462262 0.705999 0.0251413
v -0.0450444 0.716069 0.0269595
v -0.0427577 0.741518 0.0310055
v -0.0553509 0.637084 0.0122392
v -0.0516618 0.663392 0.0171298
v -0.0621981 0.584152 0.00413847
v -0.0597944 0.603748 0.0068235
v -0.0589528 0.610717 0.00776834
v -0.055453 0.636343 0.0121048
v -0.0663758 0.530452 0.000912956
v -0.0659703 0.537439 0.0011227
v -0.0650695 0.552575 0.00154924
v -0.0647813 0.557387 0.00169363
v -0.0631366 0.574296 0.00322681
v -0.0656858 0.476781 0.00598345
v -0.0657447 0.478418 0.00576282
v -0.0663366 0.495075 0.00355374
v -0.0666429 0.503505 0.00243951
v -0.0665102 0.517438 0.0016529
v -0.061622 0.424006 0.0166695
v -0.0619867 0.428194 0.0157469
v -0.0639234 0.450295 0.0109034
v -0.0641374 0.453602 0.0102893
v -0.0564415 0.371684 0.0289887
v -0.0590584 0.397853 0.0228175
v -0.051871 0.318968 0.0396299
v -0.053853 0.344027 0.0349976
v -0.0539625 0.345434 0.0347261
v -0.0562358 0.369581 0.0294363
v -0.0498962 0.265281 0.0446295
v -0.0499315 0.266932 0.0445438
v -0.0502613 0.284421 0.0435874
v -0.0503942 0.292229 0.0431674
v -0.0509112 0.30156 0.0419345
v -0.0518402 0.318447 0.0397024
v -0.0522173 0.211577 0.0403408
v -0.0512302 0.227805 0.0422792
v -0.0505908 0.238333 0.0435277
v -0.050399 0.246023 0.0438529
v -0.0499426 0.263629 0.0445575
v -0.0571962 0.158786 0.03017
v -0.0546777 0.183383 0.0353621
v -0.054499 0.185067 0.0357207
v -0.0525018 0.208282 0.0397743
v -0.0629604 0.106471 0.0181459
v -0.0600756 0.132636 0.0241496
v -0.0572121 0.15871 0.0301549
v -0.0678324 0.0536827 0.00784455
v -0.0678575 0.0537432 0.00785877
v -0.0657343 0.0788555 0.0123225
v -0.0656191 0.0801949 0.012546
v -0.0632371 0.103734 0.0175767
v -0.0699902 -1.22836e-05 0.00330292
v -0.0696353 0.0159043 0.004036
v -0.0694029 0.0269416 0.00455697
v -0.068949 0.0347794 0.0055124
v -0.0575725 0.0607029 -0.335641
v -0.0786484 0.0607029 -0.335641
v -0.0786484 -0.00585062 -0.335641
v -0.0575725 -0.00585062 -0.335641
v -0.0771062 -0.00225295 -0.335641
v -0.074793 -0.00225295 -0.335641
v -0.074793 0.00134473 -0.335641
v -0.0771062 0.00134473 -0.335641
v -0.0771062 0.00134473 -0.335641
v -0.074793 0.00134473 -0.335641
v -0.074793 0.00494124 -0.335641
v -0.0771062 0.00494124 -0.335641
v -0.0771062 0.00494124 -0.335641
v -0.074793 0.00494124 -0.335641
v -0.074793 0.00853892 -0.335641
v -0.0771062 0.00853892 -0.335641
v -0.0771062 0.00853892 -0.335641
v -0.074793 0.00853892 -0.335641
v -0.074793 0.0121366 -0.335641
v -0.0771062 0.0121366 -0.335641
v -0.0771062 0.0121366 -0.335641
v -0.074793 0.0121366 -0.335641
v -0.074793 0.0157343 -0.335641
v -0.0771062 0.0157343 -0.335641
v -0.0771062 0.0157343 -0.335641
v -0.074793 0.0157343 -0.335641
v -0.074793 0.019332 -0.335641
v -0.0771062 0.019332 -0.335641
v -0.0771062 0.019332 -0.335641
v -0.074793 0.019332 -0.335641
v -0.074793 0.0229296 -0.335641
v -0.0771062 0.0229296 -0.335641
v -0.0771062 0.0229296 -0.335641
v -0.074793 0.0229296 -0.335641
v -0.074793 0.0265261 -0.335641
v -0.0771062 0.0265261 -0.335641
v -0.0771062 0.0265261 -0.335641
v -0.074793 0.0265261 -0.335641
v -0.074793 0.0301238 -0.335641
v -0.0771062 0.0301238 -0.335641
v -0.0771062 0.0301238 -0.335641
v -0.074793 0.0301238 -0.335641
v -0.074793 0.0337215 -0.335641
v -0.0771062 0.0337215 -0.335641
v -0.0771062 0.0337215 -0.335641
v -0.074793 0.0337215 -0.335641
v -0.074793 0.0373192 -0.335641
v -0.0771062 0.0373192 -0.335641
v -0.0771062 0.0373192 -0.335641
v -0.074793 0.0373192 -0.335641
v -0.074793 0.0409168 -0.335641
v -0.0771062 0.0409168 -0.335641
v -0.0771062 -0.00225295 -0.335641
v -0.074022 -0.00225295 -0.335641
v -0.0771062 0.00134473 -0.335641
v -0.074022 0.00134473 -0.335641
v -0.0771062 0.00494124 -0.335641
v -0.074022 0.00494124 -0.335641
v -0.0771062 0.00853892 -0.335641
v -0.074022 0.00853892 -0.335641
v -0.0771062 0.0121366 -0.335641
v -0.074022 0.0121366 -0.335641
v -0.0771062 0.0157343 -0.335641
v -0.074022 0.0157343 -0.335641
v -0.0771062 0.019332 -0.335641
v -0.074022 0.019332 -0.335641
v -0.0771062 0.0229296 -0.335641
v -0.074022 0.0229296 -0.335641
v -0.0771062 0.0265261 -0.335641
v -0.074022 0.0265261 -0.335641
v -0.0771062 0.0301238 -0.335641
v -0.074022 0.0301238 -0.335641
v -0.0771062 0.0337215 -0.335641
v -0.074022 0.0337215 -0.335641
v -0.0771062 0.0373192 -0.335641
v -0.074022 0.0373192 -0.335641
v -0.0771062 0.0409168 -0.335641
v -0.074022 0.0409168 -0.335641
v -0.074793 0.0409168 -0.335641
v -0.074793 -0.00225295 -0.335641

#List of body polygons
f 58 59 60
f 58 60 61
f 58 62 63
f 58 63 59
f 62 58 64
f 62 64 65
f 58 61 66
f 58 66 64
f 76 77 78
f 76 78 79
f 76 80 81
f 76 81 77
f 80 76 82
f 80 82 83
f 76 79 84
f 76 84 82
f 94 95 96
f 94 96 97
f 94 98 99
f 94 99 95
f 98 94 100
f 98 100 101
f 94 97 102
f 94 102 100
f 112 113 114
f 112 114 115
f 112 116 117
f 112 117 113
f 116 112 118
f 116 118 119
f 112 115 120
f 112 120 118

#List of body lines
l 1 2
l 2 3
l 1 4
l 4 5
l 1 6
l 6 7
l 1 8
l 8 9
l 10 11
l 11 12
l 10 13
l 10 16
l 16 17
l 10 18
l 18 19
l 21 22
l 22 23
l 20 24
l 33 34
l 34 35
l 36 37
l 37 38
l 50 51
l 56 57
l 130 131
l 132 130
l 133 132
l 134 133
l 135 134
l 136 135
l 137 136
l 138 137
l 139 138
l 140 139
l 141 140
l 142 141
l 143 142
l 144 143
l 145 144
l 146 145
l 147 146
l 148 147
l 149 148
l 150 149
l 151 150
l 157 158
l 162 163
l 163 157
l 177 178
l 181 182
l 182 177
l 187 181
l 197 198
l 201 202
l 202 197
l 206 201
l 218 219
l 222 223
l 223 218
l 241 242
l 242 243
l 261 262
l 262 263
l 278 279
l 279 280
l 281 282
l 282 278
l 287 281
l 298 299
l 308 298
l 320 321
l 321 322
l 365 366
l 366 367
l 372 365
l 383 384
l 388 389
l 389 383
l 429 430
l 435 436
l 436 429
l 448 449
l 454 455
l 455 448
l 472 473
l 473 474
l 476 477
l 477 472
l 490 491
l 500 490
l 513 514
l 514 515
l 528 529
l 529 530
l 532 533
l 533 528
l 551 552
l 552 553
l 566 567
l 572 573
l 573 566
l 585 586
l 589 590
l 590 585
l 594 589
l 605 606
l 609 610
l 610 605
l 614 609
l 630 631
l 631 632
l 637 630

#List of body lines
l 13 14
l 14 15
l 20 21
l 24 25
l 30 31
l 31 32
l 20 33
l 48 49
l 49 50
l 55 56
l 158 159
l 159 160
l 161 162
l 167 161
l 178 179
l 179 180
l 186 187
l 198 199
l 199 200
l 204 205
l 205 206
l 213 214
l 219 220
l 220 213
l 221 222
l 226 221
l 236 237
l 240 241
l 243 236
l 247 240
l 256 257
l 260 261
l 263 256
l 267 260
l 275 276
l 276 277
l 280 275
l 285 286
l 286 287
l 299 300
l 300 301
l 307 308
l 319 320
l 322 323
l 328 319
l 332 333
l 345 332
l 357 358
l 358 359
l 367 368
l 370 371
l 371 372
l 384 385
l 385 386
l 387 388
l 391 392
l 392 387
l 398 399
l 399 400
l 410 398
l 422 423
l 423 424
l 430 431
l 431 432
l 434 435
l 449 450
l 450 451
l 453 454
l 459 453
l 469 470
l 474 469
l 475 476
l 480 481
l 481 475
l 491 492
l 492 493
l 499 500
l 508 509
l 512 513
l 515 508
l 519 512
l 524 525
l 530 524
l 531 532
l 535 536
l 536 531
l 546 547
l 550 551
l 553 546
l 557 550
l 567 568
l 571 572
l 577 571
l 586 587
l 587 588
l 592 593
l 593 594
l 606 607
l 607 608
l 612 613
l 613 614
l 626 627
l 632 626
l 635 636
l 636 637

#List of body lines
l 25 26
l 26 27
l 20 30
l 36 48
l 53 54
l 54 55
l 152 153
l 160 152
l 165 166
l 166 167
l 172 173
l 180 172
l 184 185
l 185 186
l 192 193
l 200 192
l 203 204
l 212 203
l 214 215
l 215 216
l 224 225
l 225 226
l 231 224
l 237 238
l 238 239
l 245 246
l 246 247
l 257 258
l 258 259
l 265 266
l 266 267
l 272 273
l 273 274
l 277 272
l 284 285
l 301 302
l 305 306
l 306 307
l 315 316
l 323 315
l 326 327
l 327 328
l 333 334
l 343 344
l 344 345
l 356 357
l 359 360
l 362 363
l 368 362
l 369 370
l 376 369
l 379 380
l 386 379
l 390 391
l 397 390
l 400 401
l 409 410
l 421 422
l 424 425
l 426 427
l 432 426
l 433 434
l 438 439
l 439 433
l 451 452
l 457 458
l 458 459
l 465 466
l 466 467
l 470 471
l 471 465
l 479 480
l 493 494
l 497 498
l 498 499
l 509 510
l 510 511
l 517 518
l 518 519
l 525 526
l 526 527
l 534 535
l 541 534
l 547 548
l 548 549
l 555 556
l 556 557
l 568 569
l 569 570
l 575 576
l 576 577
l 581 582
l 582 583
l 588 581
l 591 592
l 599 591
l 600 601
l 608 600
l 611 612
l 620 611
l 627 628
l 628 629
l 634 635

#List of body lines
l 27 28
l 52 53
l 153 154
l 154 155
l 164 165
l 170 171
l 171 164
l 173 174
l 183 184
l 191 183
l 193 194
l 211 212
l 216 217
l 230 231
l 232 233
l 239 232
l 244 245
l 251 244
l 252 253
l 259 252
l 264 265
l 271 264
l 283 284
l 292 283
l 293 294
l 302 293
l 304 305
l 316 317
l 317 318
l 325 326
l 334 335
l 335 336
l 342 343
l 355 356
l 360 361
l 363 364
l 364 355
l 374 375
l 375 376
l 380 381
l 381 382
l 396 397
l 401 402
l 407 408
l 408 409
l 414 415
l 420 421
l 425 414
l 427 428
l 428 420
l 437 438
l 442 443
l 443 437
l 444 445
l 452 444
l 456 457
l 464 456
l 467 468
l 478 479
l 485 478
l 486 487
l 494 486
l 496 497
l 504 505
l 511 504
l 516 517
l 523 516
l 539 540
l 540 541
l 542 543
l 549 542
l 554 555
l 561 554
l 562 563
l 563 564
l 570 562
l 574 575
l 580 574
l 583 584
l 597 598
l 598 599
l 601 602
l 619 620
l 621 622
l 629 621
l 633 634
l 641 633

#List of body lines
l 28 29
l 36 39
l 36 52
l 155 156
l 169 170
l 174 175
l 175 176
l 189 190
l 190 191
l 194 195
l 195 196
l 209 210
l 210 211
l 228 229
l 229 230
l 233 234
l 234 235
l 249 250
l 250 251
l 253 254
l 254 255
l 269 270
l 270 271
l 291 292
l 294 295
l 303 304
l 311 303
l 312 313
l 313 314
l 318 312
l 324 325
l 330 331
l 331 324
l 336 337
l 341 342
l 350 351
l 361 350
l 373 374
l 377 378
l 378 373
l 382 377
l 394 395
l 395 396
l 402 403
l 406 407
l 415 416
l 441 442
l 445 446
l 446 447
l 462 463
l 463 464
l 484 485
l 487 488
l 488 489
l 495 496
l 503 495
l 505 506
l 506 507
l 521 522
l 522 523
l 538 539
l 543 544
l 544 545
l 560 561
l 564 565
l 578 579
l 579 580
l 596 597
l 602 603
l 603 604
l 617 618
l 618 619
l 622 623
l 623 624
l 639 640
l 640 641

#List of body lines
l 39 40
l 168 169
l 176 168
l 188 189
l 196 188
l 208 209
l 227 228
l 235 227
l 248 249
l 255 248
l 268 269
l 290 291
l 295 296
l 296 297
l 309 310
l 310 311
l 314 309
l 329 330
l 337 338
l 340 341
l 349 340
l 351 352
l 393 394
l 405 406
l 416 417
l 417 418
l 440 441
l 447 440
l 461 462
l 482 483
l 483 484
l 489 482
l 501 502
l 502 503
l 507 501
l 520 521
l 537 538
l 545 537
l 558 559
l 559 560
l 565 558
l 595 596
l 604 595
l 616 617
l 624 625
l 638 639

#List of body lines
l 40 41
l 207 208
l 288 289
l 289 290
l 297 288
l 338 339
l 347 348
l 348 349
l 352 353
l 353 354
l 404 405
l 412 413
l 413 404
l 418 419
l 460 461
l 615 616
l 625 615

#List of body lines
l 41 42
l 346 347
l 354 346
l 411 412
l 419 411

#List of body lines
l 42 43
l 43 44

#List of body lines
l 44 45

#List of body lines
l 45 46

#List of body lines
l 46 47

#List of body lines
l 67 68
l 68 69
l 69 70
l 70 71
l 71 72
l 72 67
l 67 70
l 70 73
l 73 74
l 74 71
l 75 69
l 73 75
l 85 86
l 86 87
l 87 88
l 88 89
l 89 90
l 90 85
l 85 88
l 88 91
l 91 92
l 92 89
l 93 87
l 91 93
l 103 104
l 104 105
l 105 106
l 106 107
l 107 108
l 108 103
l 103 106
l 106 109
l 109 110
l 110 107
l 111 105
l 109 111
l 121 122
l 122 123
l 123 124
l 124 125
l 125 126
l 126 121
l 121 124
l 124 127
l 127 128
l 128 125
l 129 123
l 127 129


