#OBJ File generated by Abaqus/CAE
#List of Vertices
v -6.99035e-06 1.47728e-06 -0.000194176
v -1.07507e-06 -1.00364e-05 0.034812
v 1.07241e-05 -1.43257e-05 0.0698044
v 0.0349995 -1.00364e-05 -0.000188527
v 0.0700119 -1.43257e-05 -0.000196806
v 4.6922e-06 -2.56063e-06 -0.0352013
v 1.60262e-06 -1.39618e-07 -0.0702008
v -0.0349945 -2.56063e-06 -0.000202192
v -0.0699939 -1.39618e-07 -0.000205266
v 0.00186247 0.264573 -0.00267386
v 0.0260454 0.264693 0.0226191
v 0.0495724 0.26497 0.0485213
v 0.0223457 0.264476 -0.0230832
v 0.02667 0.264453 -0.0273884
v 0.0515722 0.265024 -0.051963
v -0.023529 0.264657 -0.0267649
v -0.0495859 0.264777 -0.0501417
v -0.0228147 0.264938 0.0221301
v -0.0473796 0.265296 0.0470412
v 0.00325928 0.527489 -0.00439576
v 0.00313485 0.528447 0.0254101
v 0.0030949 0.528618 0.0306043
v 0.00253147 0.530483 0.0655443
v 0.0121957 0.527292 -0.00410698
v 0.0373005 0.52676 -0.00332038
v 0.0382312 0.526752 -0.00329979
v 0.0513448 0.52709 -0.002417
v 0.0649542 0.527456 -0.00150264
v 0.073142 0.527676 -0.000971153
v 0.0025058 0.527459 -0.0252321
v 0.00197564 0.527449 -0.0393532
v -0.000128027 0.527919 -0.0742802
v -0.0112186 0.528043 -0.00414379
v -0.0317235 0.528833 -0.00379981
v -0.0662852 0.530393 -0.0026513
v -0.0666571 0.530413 -0.00263834
v 0.0131878 0.795237 -0.00907607
v 0.0364521 0.794842 0.0170684
v 0.0590291 0.794198 0.0438012
v 0.0140865 0.795048 -0.00993245
v 0.0212837 0.793436 -0.0166654
v 0.0284712 0.791845 -0.0234106
v 0.0356709 0.790233 -0.0301459
v 0.0383469 0.789648 -0.0326635
v 0.0424595 0.787561 -0.0365915
v 0.0489965 0.784254 -0.0428496
v 0.0555183 0.780947 -0.0490914
v 0.0620622 0.777638 -0.0553545
v 0.000744277 0.795023 -0.0213222
v -0.0117706 0.794805 -0.0336014
v -0.0230978 0.794179 -0.0437503
v -0.0378301 0.793364 -0.0569297
v 0.00287779 0.795893 0.000440867
v -0.00826086 0.796589 0.0107352
v -0.0124921 0.796856 0.0146442
v -0.0196302 0.796705 0.0211753
v -0.0311283 0.796479 0.0316782
v -0.0383271 0.796326 0.0382648
v 0.0620513 0.79371 0.0419838
v 0.0671721 0.794506 -0.017769
v 0.126581 0.78778 -0.0127739
v 0.121461 0.786968 0.0469938
v 0.00263999 0.800452 0.0369755
v 0.00777158 0.801252 -0.0227913
v 0.0569178 0.792886 0.101778
v -0.00248622 0.799623 0.0967673
v 0.116336 0.786152 0.106771
v 0.121461 0.786968 0.0467938
v 0.126581 0.78778 -0.0129739
v 0.0671721 0.794506 -0.017969
v 0.0620513 0.79371 0.0417838
v 0.0569178 0.792886 0.101578
v 0.116336 0.786152 0.106571
v 0.00263999 0.800452 0.0367755
v -0.00248622 0.799623 0.0965673
v 0.00777158 0.801252 -0.0229913
v -0.0360988 0.796258 0.0411841
v -0.0336393 0.798748 -0.0187198
v 0.0262815 0.80025 -0.0161781
v 0.0238285 0.797775 0.0437047
v -0.096023 0.794736 0.0386654
v -0.093563 0.797216 -0.02123
v -0.0385495 0.793757 0.101091
v -0.098475 0.792242 0.0985664
v 0.0213668 0.79529 0.103607
v 0.0238285 0.797775 0.0435047
v 0.0262815 0.80025 -0.0163781
v -0.0336393 0.798748 -0.0189198
v -0.0360988 0.796258 0.0409842
v -0.0385495 0.793757 0.100891
v 0.0213668 0.79529 0.103407
v -0.096023 0.794736 0.0384654
v -0.098475 0.792242 0.0983664
v -0.093563 0.797216 -0.02143
v 0.0606752 0.777981 -0.0584097
v 0.0596246 0.759944 -0.115625
v 0.113831 0.735097 -0.108782
v 0.114869 0.753171 -0.0515651
v 0.00648746 0.802818 -0.0652459
v 0.00543065 0.784761 -0.122456
v 0.0617304 0.796042 -0.00120202
v 0.00752867 0.820866 -0.00802605
v 0.115913 0.771215 0.0056443
v 0.114869 0.753171 -0.0517651
v 0.113831 0.735097 -0.108982
v 0.0596246 0.759944 -0.115825
v 0.0606752 0.777981 -0.0586097
v 0.0617304 0.796042 -0.00140202
v 0.115913 0.771215 0.0054443
v 0.00648746 0.802818 -0.0654459
v 0.00752867 0.820866 -0.00822605
v 0.00543065 0.784761 -0.122656
v -0.0399652 0.794129 -0.0542362
v -0.0436788 0.785977 -0.113553
v 0.0162065 0.784681 -0.11711
v 0.0199227 0.792827 -0.0577896
v -0.0998433 0.795406 -0.0506683
v -0.103551 0.787246 -0.109982
v -0.0362593 0.802258 0.00511054
v -0.0961429 0.803541 0.00867755
v 0.0236203 0.800974 0.00154798
v 0.0199227 0.792827 -0.0579896
v 0.0162065 0.784681 -0.11731
v -0.0436788 0.785977 -0.113753
v -0.0399652 0.794129 -0.0544362
v -0.0362593 0.802258 0.00491054
v 0.0236203 0.800974 0.00134798
v -0.0998433 0.795406 -0.0508683
v -0.0961429 0.803541 0.00847755
v -0.103551 0.787246 -0.110182
v 0.066611 0.7473 -0.0602801
v 0.0672713 0.772212 -0.0605873
v 0.065936 0.72206 -0.0599482
v 0.0652572 0.697046 -0.0596134
v 0.0646169 0.672799 -0.0593037
v 0.0639651 0.648812 -0.058999
v 0.0633413 0.624804 -0.0586998
v 0.062696 0.600797 -0.0583802
v 0.0620368 0.576814 -0.05807
v 0.0614045 0.55281 -0.0577666
v 0.0607689 0.528809 -0.0574624
v 0.0601111 0.50481 -0.0571381
v 0.0594686 0.480814 -0.0568323
v 0.0588335 0.456799 -0.056515
v 0.0581836 0.43281 -0.0562083
v 0.0575598 0.408803 -0.0559099
v 0.0569127 0.3848 -0.0555921
v 0.0562805 0.360802 -0.0552938
v 0.0556242 0.336808 -0.0549769
v 0.054994 0.312798 -0.0546686
v 0.0543476 0.288815 -0.0543723
v 0.053688 0.264816 -0.0540463
v -0.0315106 0.742512 0.0418035
v -0.0331149 0.756452 0.0412119
v -0.0345703 0.769295 0.0406608
v -0.035618 0.787195 0.0408494
v -0.0360556 0.794685 0.0409257
v -0.0224016 0.689598 0.0473172
v -0.0238999 0.69765 0.0463494
v -0.0273151 0.715952 0.0441345
v -0.0289742 0.726492 0.0432147
v -0.0120545 0.637122 0.0548923
v -0.0129108 0.641476 0.0542459
v -0.0171864 0.663367 0.0510169
v -0.00382454 0.584229 0.0618634
v -0.00747975 0.610782 0.0586266
v -0.00769788 0.612036 0.0584414
v -0.000978601 0.530495 0.065542
v -0.0010235 0.532583 0.0654482
v -0.00142037 0.552723 0.0644912
v -0.00152669 0.557443 0.0642846
v -0.00365878 0.58226 0.0620383
v -0.00624694 0.476834 0.0644213
v -0.00599946 0.478631 0.0645038
v -0.00332101 0.498514 0.0652954
v -0.00262628 0.503548 0.0654998
v -0.00116277 0.527195 0.0655292
v -0.0170591 0.424089 0.0604031
v -0.0164193 0.427014 0.060674
v -0.0112277 0.450348 0.0626542
v -0.0107191 0.453024 0.0628366
v -0.0294946 0.371775 0.0554184
v -0.0232897 0.397931 0.0579273
v -0.0400935 0.318999 0.0511668
v -0.035413 0.344633 0.0530253
v -0.035257 0.345498 0.0530963
v -0.029797 0.370475 0.0553202
v -0.0448712 0.265318 0.0494732
v -0.0441074 0.28041 0.049689
v -0.0434969 0.292255 0.0498556
v -0.0426477 0.298981 0.0501807
v -0.0401264 0.318693 0.0511366
v -0.0403972 0.211625 0.0519219
v -0.0407501 0.214547 0.0517463
v -0.042878 0.231846 0.0506437
v -0.0436697 0.238346 0.0502407
v -0.0441868 0.249838 0.0499159
v -0.0302181 0.158836 0.0569439
v -0.0311866 0.163504 0.0564611
v -0.0357505 0.185128 0.0542528
v -0.0365229 0.189639 0.0538467
v -0.0183426 0.106466 0.0626731
v -0.0242881 0.132644 0.0598243
v -0.00811905 0.0536898 0.0675998
v -0.012215 0.0767887 0.0656373
v -0.0128113 0.0801864 0.0653393
v -0.0176131 0.102996 0.0630261
v -0.00348336 -1.62894e-05 0.0698005
v -0.00429276 0.0168287 0.0694108
v -0.0047675 0.0269357 0.069195
v -0.00566428 0.0340369 0.0687752
v -0.00783227 0.0514109 0.0677407
v 0.0478577 0.740982 0.0473408
v 0.048502 0.744192 0.0472013
v 0.0529779 0.767458 0.046277
v 0.0538243 0.773323 0.0462687
v 0.0565429 0.792635 0.0462808
v 0.0352769 0.688654 0.0516658
v 0.040856 0.710857 0.0495808
v 0.0418349 0.714735 0.0492104
v 0.0220635 0.636603 0.0573527
v 0.0240121 0.644406 0.0564931
v 0.0285645 0.662642 0.0544577
v 0.0111743 0.583982 0.0626592
v 0.0161195 0.610418 0.0601677
v 0.0166899 0.612969 0.0598984
v 0.00601535 0.530389 0.0656738
v 0.00644869 0.537493 0.0653882
v 0.00763574 0.557294 0.0645818
v 0.00785627 0.558949 0.0644533
v 0.011019 0.582817 0.062736
v 0.00973505 0.476588 0.0645947
v 0.0085897 0.487113 0.0649999
v 0.00680282 0.503405 0.065646
v 0.00636247 0.518721 0.0656616
v 0.020119 0.423801 0.0603464
v 0.0166535 0.439626 0.0617895
v 0.0143535 0.450062 0.0627313
v 0.0122422 0.462164 0.0635829
v 0.0328478 0.371576 0.0551542
v 0.0315803 0.376741 0.0556766
v 0.0264842 0.39768 0.057728
v 0.0217007 0.417361 0.0596942
v 0.0433053 0.318748 0.0513389
v 0.0410878 0.331337 0.0521041
v 0.0386405 0.345296 0.0529395
v 0.0367112 0.354017 0.0536825
v 0.047103 0.26497 0.0509911
v 0.0470235 0.267927 0.0509476
v 0.0462865 0.291936 0.0506138
v 0.0447483 0.305621 0.0509879
v 0.0421884 0.211331 0.0542235
v 0.0454246 0.2365 0.0524318
v 0.0456207 0.238042 0.0523168
v 0.0470072 0.263217 0.0510899
v 0.0312236 0.158712 0.059106
v 0.0361121 0.180045 0.0570164
v 0.0372109 0.184903 0.0565502
v 0.0408365 0.20412 0.0548606
v 0.0182714 0.106524 0.0642915
v 0.02037 0.115038 0.0634612
v 0.0247176 0.132624 0.061766
v 0.0303951 0.155426 0.0594552
v 0.00771387 0.0537544 0.0682579
v 0.0100601 0.0668852 0.067394
v 0.0124394 0.0802765 0.0664903
v 0.014864 0.0912412 0.0655709
v 0.00350357 -1.1912e-05 0.0698088
v 0.00461537 0.0269638 0.0693943
v 0.00572446 0.0365457 0.0689945
v 0.0583813 0.739965 0.0383919
v 0.0596052 0.76685 0.0406464
v 0.0618792 0.792138 0.0417583
v 0.0591275 0.686486 0.0311163
v 0.0582622 0.713176 0.0351478
v 0.0583055 0.719826 0.0359457
v 0.0630314 0.633507 0.0214803
v 0.0607883 0.659952 0.0264717
v 0.0605486 0.663958 0.0271779
v 0.0683487 0.580729 0.0113299
v 0.0656285 0.60712 0.0163599
v 0.0731343 0.527687 0.00252539
v 0.0724004 0.536385 0.00388057
v 0.0715627 0.546685 0.00547733
v 0.0709219 0.554273 0.0066496
v 0.0695588 0.568362 0.00912861
v 0.0742335 0.473858 0.000588581
v 0.074386 0.500834 0.000150938
v 0.0743124 0.502215 0.000274354
v 0.0737752 0.514015 0.0013159
v 0.0732171 0.525822 0.00237164
v 0.0700461 0.420812 0.00933951
v 0.070459 0.424983 0.00846874
v 0.0725748 0.445756 0.00410081
v 0.072704 0.4471 0.00381595
v 0.0738812 0.467598 0.00134962
v 0.0627148 0.369518 0.0244451
v 0.0644846 0.381239 0.0207997
v 0.0665591 0.395025 0.0165159
v 0.0670432 0.398575 0.0155178
v 0.0687028 0.410936 0.0120905
v 0.0557025 0.318001 0.0390168
v 0.0563645 0.32342 0.0376065
v 0.0579892 0.336324 0.034248
v 0.0589449 0.343939 0.0322561
v 0.0597178 0.349153 0.0306562
v 0.0615899 0.361818 0.0267944
v 0.0522907 0.2647 0.0463005
v 0.0533912 0.291559 0.0438922
v 0.0544262 0.303532 0.0416958
v 0.0534172 0.210852 0.0436774
v 0.05237 0.237729 0.0461134
v 0.0523757 0.239777 0.0461188
v 0.0577621 0.158079 0.0332672
v 0.0559137 0.177579 0.0377002
v 0.0552786 0.184313 0.0392063
v 0.0542763 0.198671 0.0416262
v 0.0634385 0.10621 0.0194461
v 0.0625141 0.114626 0.021711
v 0.0605728 0.132112 0.0264481
v 0.0595989 0.141183 0.0288065
v 0.057857 0.157184 0.0330106
v 0.0681656 0.0537059 0.00784429
v 0.0681087 0.0544213 0.0079867
v 0.0665811 0.0736121 0.0117528
v 0.0660646 0.0801179 0.0130237
v 0.0648167 0.0925318 0.0160876
v 0.0699987 -1.1912e-05 0.00331374
v 0.0698772 0.00707102 0.00361717
v 0.0695193 0.026962 0.00448619
v 0.0443728 0.731577 -0.0340205
v 0.0469729 0.737884 -0.0369361
v 0.0508091 0.747183 -0.0412151
v 0.0538562 0.754519 -0.0446004
v 0.0547482 0.756338 -0.0453042
v 0.0590149 0.764936 -0.0486014
v 0.0632993 0.773525 -0.0519071
v 0.0645432 0.776065 -0.0528825
v 0.0364796 0.683169 -0.0120543
v 0.036871 0.688326 -0.0142841
v 0.0374509 0.696305 -0.0177081
v 0.0380401 0.704301 -0.0211572
v 0.0382967 0.707878 -0.0226944
v 0.0410207 0.718537 -0.0277812
v 0.0454595 0.632046 0.00181264
v 0.0449571 0.634087 0.00138869
v 0.0394323 0.656657 -0.00335011
v 0.0391771 0.657702 -0.00356623
v 0.0372085 0.676277 -0.00975762
v 0.0625528 0.580946 0.00264781
v 0.0609647 0.585608 0.00284772
v 0.056086 0.600013 0.00344173
v 0.0538938 0.606469 0.00371705
v 0.0510547 0.615062 0.00308145
v 0.0459405 0.630624 0.0019146
v 0.0735663 0.528696 -0.00438611
v 0.073451 0.529511 -0.00426961
v 0.0708873 0.546596 -0.00174572
v 0.0696239 0.55509 -0.000508226
v 0.0685086 0.559151 -1.85491e-05
v 0.0662978 0.567279 0.00097829
v 0.0640512 0.575444 0.00197382
v 0.0745766 0.475792 -0.0149809
v 0.0745866 0.47976 -0.0140651
v 0.0747851 0.502107 -0.0089874
v 0.0738215 0.522869 -0.00537937
v 0.0705538 0.423828 -0.0290057
v 0.0730808 0.449727 -0.0218433
v 0.0735317 0.457788 -0.0197204
v 0.0637797 0.371846 -0.0419677
v 0.0666478 0.392887 -0.0370851
v 0.0673271 0.397923 -0.0358958
v 0.0695199 0.415486 -0.0312303
v 0.0572349 0.318854 -0.049697
v 0.0588432 0.332884 -0.0481174
v 0.0602691 0.345507 -0.0466941
v 0.0634001 0.369128 -0.0424503
v 0.0540512 0.265019 -0.0494881
v 0.0550538 0.291976 -0.0506628
v 0.0554011 0.211617 -0.041784
v 0.0553328 0.213101 -0.0420396
v 0.0543109 0.237147 -0.0461684
v 0.0542705 0.238222 -0.0463588
v 0.0541027 0.257643 -0.0486268
v 0.0592957 0.159013 -0.0303546
v 0.0576228 0.179514 -0.0350278
v 0.0571511 0.185246 -0.0363338
v 0.0640168 0.106603 -0.0182036
v 0.0639355 0.107483 -0.0183992
v 0.0616428 0.132826 -0.0241992
v 0.0681546 0.0537198 -0.00814424
v 0.0664106 0.0779454 -0.0123092
v 0.0662612 0.0802558 -0.0127243
v 0.070006 -1.62894e-05 -0.00368889
v 0.0697746 0.0118406 -0.00422219
v 0.0694817 0.0269605 -0.00491983
v 0.0693044 0.0308709 -0.00539625
v 0.06833 0.0501267 -0.00770852
v 0.0353473 0.732213 -0.04533
v 0.0483233 0.755105 -0.0513004
v 0.0492355 0.756756 -0.0518354
v 0.0540609 0.765709 -0.0546817
v 0.0589143 0.77463 -0.0575246
v 0.0599788 0.776643 -0.0581602
v 0.011968 0.683911 -0.0407668
v 0.0131549 0.68664 -0.04085
v 0.0176783 0.696888 -0.0412151
v 0.0222041 0.707123 -0.041567
v 0.022828 0.708594 -0.0416122
v 0.0274581 0.717337 -0.0429872
v 0.0328591 0.727521 -0.0445846
v -0.00111479 0.63223 -0.0479057
v 0.00187099 0.648081 -0.0449321
v 0.00380036 0.658295 -0.0429995
v -0.00186581 0.580226 -0.0620512
v -0.00208284 0.586219 -0.0603326
v -0.00256465 0.599996 -0.0564087
v -0.0027943 0.606165 -0.0546329
v -0.00227747 0.614097 -0.0525986
v -0.00135411 0.628449 -0.048881
v 0.00337003 0.527931 -0.0742902
v 0.00311319 0.530518 -0.073766
v 0.00184608 0.542529 -0.0713295
v 0.000615173 0.554239 -0.0689419
v -0.000340762 0.564224 -0.0662914
v -0.00131092 0.574448 -0.0635837
v 0.0115182 0.474854 -0.0794019
v 0.0068188 0.500649 -0.0777408
v 0.00670052 0.501351 -0.077702
v 0.0240631 0.422398 -0.0776215
v 0.0189215 0.442826 -0.0789675
v 0.0174833 0.44853 -0.0793397
v 0.0133361 0.466847 -0.0793921
v 0.0369717 0.370469 -0.0704628
v 0.0363365 0.373127 -0.070893
v 0.03079 0.396172 -0.0744838
v 0.0307323 0.396437 -0.0745405
v 0.046244 0.318089 -0.061363
v 0.042819 0.340702 -0.0652563
v 0.0422686 0.344406 -0.0659043
v 0.0491456 0.264662 -0.0544657
v 0.0491131 0.265377 -0.0545328
v 0.0486475 0.287269 -0.0569224
v 0.0485725 0.291503 -0.0573979
v 0.043694 0.211035 -0.0535311
v 0.0438029 0.211808 -0.0535336
v 0.0462038 0.228865 -0.0533045
v 0.0474636 0.237766 -0.0531836
v 0.0490425 0.262953 -0.0543865
v 0.0324222 0.158375 -0.0572388
v 0.0333773 0.162525 -0.0568789
v 0.038489 0.184585 -0.0549987
v 0.0389958 0.187203 -0.0548629
v 0.0194914 0.106243 -0.0627395
v 0.019502 0.106284 -0.0627285
v 0.0259432 0.132311 -0.059914
v 0.0084537 0.0536326 -0.0678437
v 0.00912209 0.057271 -0.0675091
v 0.0134998 0.0800605 -0.0654784
v 0.0139325 0.0819139 -0.06527
v 0.00350517 -1.88146e-05 -0.0701855
v 0.00380975 0.00600113 -0.0700495
v 0.004647 0.0225899 -0.0696446
v 0.00485888 0.0269416 -0.0695297
v 0.00652153 0.0393223 -0.0687489
v -0.033632 0.739653 -0.0543567
v -0.0351033 0.76654 -0.0564089
v -0.0353432 0.791789 -0.0594115
v -0.0276115 0.68604 -0.0539521
v -0.0308201 0.710858 -0.0535741
v -0.0310778 0.712793 -0.0535273
v -0.0190408 0.632901 -0.0580763
v -0.0235098 0.659399 -0.0555024
v -0.0242314 0.66415 -0.0552295
v -0.0102404 0.580134 -0.0654319
v -0.0113203 0.58676 -0.0644279
v -0.0145114 0.606483 -0.0614559
v -0.00358 0.527236 -0.0739939
v -0.00472058 0.537443 -0.0723263
v -0.00612534 0.550224 -0.0702653
v -0.0065238 0.553736 -0.0696919
v -0.00365609 0.473607 -0.0791571
v -0.00236471 0.500513 -0.0774471
v -0.00277822 0.50957 -0.0762759
v -0.00345144 0.524286 -0.0743788
v -0.0133196 0.420641 -0.0766669
v -0.0104919 0.433339 -0.0777211
v -0.00747636 0.446887 -0.0788448
v -0.00641503 0.454348 -0.0789396
v -0.0281832 0.36944 -0.0681481
v -0.025493 0.378412 -0.0698207
v -0.0205233 0.394897 -0.0729035
v -0.0180489 0.403711 -0.0741924
v -0.0146252 0.415959 -0.075982
v -0.0414594 0.318047 -0.0583082
v -0.0395758 0.326185 -0.0598101
v -0.0363264 0.340131 -0.062349
v -0.0354413 0.343949 -0.0630545
v -0.0326416 0.35382 -0.0650233
v -0.0287743 0.367381 -0.0677344
v -0.0471189 0.264777 -0.052608
v -0.0454941 0.291634 -0.0546617
v -0.0439206 0.301879 -0.0560941
v -0.043193 0.210977 -0.0528773
v -0.0436156 0.214759 -0.0527888
v -0.0462363 0.237796 -0.052152
v -0.0464858 0.24576 -0.0522852
v -0.0324139 0.158259 -0.0570471
v -0.0350887 0.169952 -0.0559668
v -0.0384211 0.18448 -0.0546032
v -0.0396972 0.191658 -0.0541444
v -0.0191134 0.106253 -0.0629059
v -0.0209627 0.113482 -0.0620901
v -0.0257842 0.13225 -0.0599224
v -0.029902 0.148374 -0.0581356
v -0.00799896 0.0536926 -0.0680655
v -0.0109546 0.0692916 -0.0666865
v -0.0129919 0.0801081 -0.0657187
v -0.0155131 0.0909144 -0.0645667
v -0.00349149 -3.89326e-06 -0.0702039
v -0.00403072 0.0122019 -0.0699366
v -0.00468723 0.0269401 -0.0696188
v -0.0068915 0.0446593 -0.0685783
v -0.0429142 0.741063 -0.0449101
v -0.0408977 0.767481 -0.0501786
v -0.0408909 0.767708 -0.0502094
v -0.0399755 0.792563 -0.0542213
v -0.0489387 0.688781 -0.03284
v -0.0456741 0.714854 -0.0390356
v -0.0439254 0.73153 -0.0427815
v -0.0560428 0.636666 -0.0206561
v -0.0549787 0.644354 -0.0224272
v -0.0524473 0.66274 -0.0266272
v -0.0625674 0.584011 -0.0107233
v -0.0596976 0.608616 -0.01493
v -0.0594921 0.610443 -0.0152266
v -0.0666476 0.5304 -0.00613512
v -0.0661355 0.539095 -0.00658688
v -0.0651577 0.555555 -0.00741407
v -0.0650694 0.557314 -0.00748741
v -0.0631731 0.577515 -0.00992607
v -0.0662734 0.476678 -0.0105446
v -0.066635 0.490024 -0.00889982
v -0.0670276 0.503437 -0.0072142
v -0.0668824 0.514155 -0.00678089
v -0.0625258 0.42393 -0.0213943
v -0.062546 0.424297 -0.0213002
v -0.0643768 0.446502 -0.0162795
v -0.0646668 0.450171 -0.0154685
v -0.0657958 0.468815 -0.0119889
v -0.0575227 0.371682 -0.0341096
v -0.0582233 0.378989 -0.0323464
v -0.0600465 0.397806 -0.027793
v -0.0532493 0.31884 -0.0443219
v -0.0543656 0.334366 -0.041682
v -0.0551677 0.345401 -0.0398179
v -0.056148 0.356532 -0.0373989
v -0.0517671 0.265033 -0.0473904
v -0.0520135 0.292021 -0.0470753
v -0.0520246 0.292217 -0.0470476
v -0.0529653 0.312679 -0.0449661
v -0.0540031 0.211449 -0.0415254
v -0.0539319 0.212621 -0.0416915
v -0.0525123 0.238141 -0.0453273
v -0.0523485 0.244297 -0.0457972
v -0.0518887 0.260415 -0.047038
v -0.0585996 0.158831 -0.030322
v -0.0583488 0.161502 -0.0309445
v -0.0560891 0.185027 -0.0363733
v -0.0559596 0.186793 -0.0367192
v -0.0639521 0.106624 -0.0176378
v -0.062829 0.117771 -0.0203076
v -0.0612887 0.132748 -0.0239088
v -0.0682922 0.0537714 -0.0075837
v -0.0674766 0.0651274 -0.00947628
v -0.066366 0.0803331 -0.0120367
v -0.0652562 0.0924243 -0.0146171
v -0.069999 -3.89326e-06 -0.00369637
v -0.0696197 0.0230426 -0.00455135
v -0.069553 0.0269608 -0.0047036
v -0.0422553 0.742628 0.0307806
v -0.0422526 0.742906 0.0308188
v -0.0408603 0.769409 0.0340033
v -0.0408555 0.772791 0.0342471
v -0.0408085 0.794764 0.0357883
v -0.0478679 0.689672 0.021888
v -0.0458532 0.706504 0.0249035
v -0.0447115 0.716079 0.0266105
v -0.0551856 0.637093 0.0120617
v -0.051448 0.66338 0.0169249
v -0.0621134 0.584157 0.00403322
v -0.0599366 0.601707 0.00642927
v -0.0588346 0.610703 0.00765789
v -0.0554429 0.635157 0.0117428
v -0.0663934 0.530466 0.000859911
v -0.0660629 0.535796 0.00100465
v -0.0651244 0.551101 0.00142895
v -0.0647411 0.557387 0.00162105
v -0.0632789 0.572226 0.00294681
v -0.0657209 0.476764 0.00595309
v -0.0658115 0.479433 0.00558035
v -0.0664087 0.496405 0.00332576
v -0.0666672 0.503514 0.00238074
v -0.0664954 0.520377 0.00142531
v -0.0616462 0.424012 0.0166129
v -0.0620666 0.428728 0.0155936
v -0.0639387 0.450279 0.010855
v -0.0642396 0.45467 0.0100338
v -0.0564389 0.371695 0.0289216
v -0.0590683 0.397839 0.0227759
v -0.0518474 0.318962 0.0395847
v -0.0537643 0.342999 0.0351386
v -0.0539439 0.345425 0.0346754
v -0.0561884 0.369067 0.0294937
v -0.0498564 0.265302 0.0445629
v -0.050197 0.282708 0.0436345
v -0.0503581 0.292248 0.0430965
v -0.0508043 0.300244 0.0420584
v -0.05175 0.317448 0.0397686
v -0.0521807 0.211578 0.0403112
v -0.0511008 0.229236 0.0424074
v -0.0505369 0.238333 0.0434758
v -0.0503017 0.247771 0.043869
v -0.0571598 0.158786 0.0301418
v -0.0571356 0.159108 0.0302024
v -0.0545466 0.184222 0.0354983
v -0.054462 0.185068 0.0356923
v -0.0523541 0.20959 0.039961
v -0.0629472 0.106467 0.0181357
v -0.0600603 0.132634 0.0241404
v -0.0678519 0.053699 0.00784292
v -0.0657878 0.0780033 0.0121345
v -0.0656072 0.0801889 0.0125352
v -0.0632555 0.103349 0.0174592
v -0.0699965 -1.88146e-05 0.00331622
v -0.0696842 0.0139692 0.00393903
v -0.0694018 0.026958 0.00453717
v -0.069035 0.0332911 0.00533625
v -0.0679001 0.0527177 0.0077224
v -0.0575725 0.0607029 -0.335641
v -0.0786484 0.0607029 -0.335641
v -0.0786484 -0.00585062 -0.335641
v -0.0575725 -0.00585062 -0.335641
v -0.0771062 -0.00225295 -0.335641
v -0.074793 -0.00225295 -0.335641
v -0.074793 0.00134473 -0.335641
v -0.0771062 0.00134473 -0.335641
v -0.0771062 0.00134473 -0.335641
v -0.074793 0.00134473 -0.335641
v -0.074793 0.00494124 -0.335641
v -0.0771062 0.00494124 -0.335641
v -0.0771062 0.00494124 -0.335641
v -0.074793 0.00494124 -0.335641
v -0.074793 0.00853892 -0.335641
v -0.0771062 0.00853892 -0.335641
v -0.0771062 0.00853892 -0.335641
v -0.074793 0.00853892 -0.335641
v -0.074793 0.0121366 -0.335641
v -0.0771062 0.0121366 -0.335641
v -0.0771062 0.0121366 -0.335641
v -0.074793 0.0121366 -0.335641
v -0.074793 0.0157343 -0.335641
v -0.0771062 0.0157343 -0.335641
v -0.0771062 0.0157343 -0.335641
v -0.074793 0.0157343 -0.335641
v -0.074793 0.019332 -0.335641
v -0.0771062 0.019332 -0.335641
v -0.0771062 0.019332 -0.335641
v -0.074793 0.019332 -0.335641
v -0.074793 0.0229296 -0.335641
v -0.0771062 0.0229296 -0.335641
v -0.0771062 0.0229296 -0.335641
v -0.074793 0.0229296 -0.335641
v -0.074793 0.0265261 -0.335641
v -0.0771062 0.0265261 -0.335641
v -0.0771062 0.0265261 -0.335641
v -0.074793 0.0265261 -0.335641
v -0.074793 0.0301238 -0.335641
v -0.0771062 0.0301238 -0.335641
v -0.0771062 0.0301238 -0.335641
v -0.074793 0.0301238 -0.335641
v -0.074793 0.0337215 -0.335641
v -0.0771062 0.0337215 -0.335641
v -0.0771062 0.0337215 -0.335641
v -0.074793 0.0337215 -0.335641
v -0.074793 0.0373192 -0.335641
v -0.0771062 0.0373192 -0.335641
v -0.0771062 0.0373192 -0.335641
v -0.074793 0.0373192 -0.335641
v -0.074793 0.0409168 -0.335641
v -0.0771062 0.0409168 -0.335641
v -0.0771062 -0.00225295 -0.335641
v -0.074022 -0.00225295 -0.335641
v -0.0771062 0.00134473 -0.335641
v -0.074022 0.00134473 -0.335641
v -0.0771062 0.00494124 -0.335641
v -0.074022 0.00494124 -0.335641
v -0.0771062 0.00853892 -0.335641
v -0.074022 0.00853892 -0.335641
v -0.0771062 0.0121366 -0.335641
v -0.074022 0.0121366 -0.335641
v -0.0771062 0.0157343 -0.335641
v -0.074022 0.0157343 -0.335641
v -0.0771062 0.019332 -0.335641
v -0.074022 0.019332 -0.335641
v -0.0771062 0.0229296 -0.335641
v -0.074022 0.0229296 -0.335641
v -0.0771062 0.0265261 -0.335641
v -0.074022 0.0265261 -0.335641
v -0.0771062 0.0301238 -0.335641
v -0.074022 0.0301238 -0.335641
v -0.0771062 0.0337215 -0.335641
v -0.074022 0.0337215 -0.335641
v -0.0771062 0.0373192 -0.335641
v -0.074022 0.0373192 -0.335641
v -0.0771062 0.0409168 -0.335641
v -0.074022 0.0409168 -0.335641
v -0.074793 0.0409168 -0.335641
v -0.074793 -0.00225295 -0.335641

#List of body polygons
f 59 60 61
f 59 61 62
f 59 63 64
f 59 64 60
f 63 59 65
f 63 65 66
f 59 62 67
f 59 67 65
f 77 78 79
f 77 79 80
f 77 81 82
f 77 82 78
f 81 77 83
f 81 83 84
f 77 80 85
f 77 85 83
f 95 96 97
f 95 97 98
f 95 99 100
f 95 100 96
f 99 95 101
f 99 101 102
f 95 98 103
f 95 103 101
f 113 114 115
f 113 115 116
f 113 117 118
f 113 118 114
f 117 113 119
f 117 119 120
f 113 116 121
f 113 121 119

#List of body lines
l 1 2
l 2 3
l 1 4
l 4 5
l 1 6
l 6 7
l 1 8
l 8 9
l 10 11
l 11 12
l 10 13
l 10 16
l 16 17
l 10 18
l 18 19
l 21 22
l 22 23
l 20 24
l 33 34
l 34 35
l 37 38
l 38 39
l 51 52
l 57 58
l 131 132
l 133 131
l 134 133
l 135 134
l 136 135
l 137 136
l 138 137
l 139 138
l 140 139
l 141 140
l 142 141
l 143 142
l 144 143
l 145 144
l 146 145
l 147 146
l 148 147
l 149 148
l 150 149
l 151 150
l 152 151
l 158 159
l 163 164
l 164 158
l 178 179
l 182 183
l 183 178
l 187 182
l 198 199
l 202 203
l 203 198
l 207 202
l 218 219
l 222 223
l 223 218
l 241 242
l 242 243
l 261 262
l 262 263
l 277 278
l 278 279
l 280 281
l 281 277
l 286 280
l 297 298
l 307 297
l 319 320
l 320 321
l 367 368
l 368 369
l 373 367
l 385 386
l 389 390
l 390 385
l 430 431
l 436 437
l 437 430
l 450 451
l 455 456
l 456 450
l 472 473
l 473 474
l 476 477
l 477 472
l 490 491
l 500 490
l 513 514
l 514 515
l 528 529
l 529 530
l 532 533
l 533 528
l 546 547
l 552 553
l 553 546
l 567 568
l 572 573
l 573 567
l 586 587
l 589 590
l 590 586
l 594 589
l 605 606
l 609 610
l 610 605
l 614 609
l 624 625
l 629 630
l 630 624
l 634 629

#List of body lines
l 13 14
l 14 15
l 20 21
l 24 25
l 30 31
l 31 32
l 20 33
l 35 36
l 49 50
l 50 51
l 56 57
l 159 160
l 160 161
l 162 163
l 167 162
l 179 180
l 180 181
l 185 186
l 186 187
l 199 200
l 200 201
l 205 206
l 206 207
l 213 214
l 219 220
l 220 213
l 221 222
l 226 221
l 236 237
l 240 241
l 243 236
l 247 240
l 256 257
l 260 261
l 263 256
l 267 260
l 274 275
l 275 276
l 279 274
l 284 285
l 285 286
l 298 299
l 299 300
l 306 307
l 318 319
l 321 322
l 327 318
l 331 332
l 344 331
l 358 359
l 359 360
l 363 364
l 369 363
l 371 372
l 372 373
l 380 381
l 386 387
l 387 380
l 388 389
l 392 393
l 393 388
l 399 400
l 400 401
l 411 399
l 423 424
l 424 425
l 431 432
l 432 433
l 435 436
l 451 452
l 452 453
l 454 455
l 460 454
l 469 470
l 474 469
l 475 476
l 480 481
l 481 475
l 491 492
l 492 493
l 499 500
l 508 509
l 512 513
l 515 508
l 519 512
l 524 525
l 525 526
l 530 524
l 531 532
l 535 536
l 536 531
l 547 548
l 551 552
l 557 551
l 568 569
l 569 570
l 571 572
l 577 571
l 581 582
l 587 588
l 588 581
l 592 593
l 593 594
l 606 607
l 607 608
l 612 613
l 613 614
l 625 626
l 632 633
l 633 634

#List of body lines
l 25 26
l 26 27
l 20 30
l 37 49
l 54 55
l 55 56
l 153 154
l 161 153
l 165 166
l 166 167
l 172 165
l 173 174
l 181 173
l 184 185
l 192 184
l 193 194
l 201 193
l 204 205
l 212 204
l 214 215
l 215 216
l 224 225
l 225 226
l 231 224
l 237 238
l 238 239
l 245 246
l 246 247
l 257 258
l 258 259
l 265 266
l 266 267
l 271 272
l 272 273
l 276 271
l 283 284
l 300 301
l 304 305
l 305 306
l 314 315
l 322 314
l 325 326
l 326 327
l 332 333
l 342 343
l 343 344
l 357 358
l 360 361
l 364 365
l 365 366
l 370 371
l 377 370
l 381 382
l 391 392
l 398 391
l 401 402
l 410 411
l 422 423
l 425 426
l 427 428
l 433 427
l 434 435
l 439 440
l 440 434
l 445 446
l 453 445
l 458 459
l 459 460
l 466 467
l 467 468
l 470 471
l 471 466
l 479 480
l 493 494
l 497 498
l 498 499
l 509 510
l 510 511
l 517 518
l 518 519
l 526 527
l 534 535
l 541 534
l 548 549
l 549 550
l 555 556
l 556 557
l 562 563
l 570 562
l 575 576
l 576 577
l 582 583
l 583 584
l 591 592
l 599 591
l 600 601
l 608 600
l 611 612
l 619 611
l 626 627
l 627 628
l 631 632
l 639 631

#List of body lines
l 27 28
l 53 54
l 154 155
l 155 156
l 170 171
l 171 172
l 174 175
l 191 192
l 194 195
l 211 212
l 216 217
l 230 231
l 232 233
l 239 232
l 244 245
l 251 244
l 252 253
l 259 252
l 264 265
l 270 264
l 282 283
l 291 282
l 292 293
l 301 292
l 303 304
l 315 316
l 316 317
l 324 325
l 333 334
l 334 335
l 341 342
l 356 357
l 361 362
l 366 356
l 375 376
l 376 377
l 382 383
l 383 384
l 397 398
l 402 403
l 408 409
l 409 410
l 415 416
l 421 422
l 426 415
l 428 429
l 429 421
l 438 439
l 443 444
l 444 438
l 446 447
l 457 458
l 465 457
l 478 479
l 485 478
l 486 487
l 494 486
l 496 497
l 504 505
l 511 504
l 516 517
l 523 516
l 539 540
l 540 541
l 542 543
l 550 542
l 554 555
l 561 554
l 563 564
l 564 565
l 574 575
l 579 580
l 580 574
l 584 585
l 597 598
l 598 599
l 601 602
l 618 619
l 620 621
l 628 620
l 638 639

#List of body lines
l 28 29
l 37 40
l 37 53
l 156 157
l 169 170
l 175 176
l 176 177
l 189 190
l 190 191
l 195 196
l 196 197
l 209 210
l 210 211
l 228 229
l 229 230
l 233 234
l 234 235
l 249 250
l 250 251
l 253 254
l 254 255
l 268 269
l 269 270
l 290 291
l 293 294
l 302 303
l 310 302
l 311 312
l 312 313
l 317 311
l 323 324
l 329 330
l 330 323
l 335 336
l 340 341
l 350 351
l 362 350
l 374 375
l 378 379
l 379 374
l 384 378
l 395 396
l 396 397
l 403 404
l 407 408
l 416 417
l 442 443
l 447 448
l 448 449
l 463 464
l 464 465
l 484 485
l 487 488
l 488 489
l 495 496
l 503 495
l 505 506
l 506 507
l 521 522
l 522 523
l 538 539
l 543 544
l 544 545
l 560 561
l 565 566
l 578 579
l 596 597
l 602 603
l 603 604
l 616 617
l 617 618
l 621 622
l 622 623
l 636 637
l 637 638

#List of body lines
l 40 41
l 168 169
l 177 168
l 188 189
l 197 188
l 208 209
l 227 228
l 235 227
l 248 249
l 255 248
l 289 290
l 294 295
l 295 296
l 308 309
l 309 310
l 313 308
l 328 329
l 336 337
l 339 340
l 349 339
l 351 352
l 394 395
l 406 407
l 417 418
l 418 419
l 441 442
l 449 441
l 462 463
l 482 483
l 483 484
l 489 482
l 501 502
l 502 503
l 507 501
l 520 521
l 537 538
l 545 537
l 558 559
l 559 560
l 566 558
l 595 596
l 604 595
l 615 616
l 623 615
l 635 636

#List of body lines
l 41 42
l 287 288
l 288 289
l 296 287
l 337 338
l 347 348
l 348 349
l 352 353
l 353 354
l 405 406
l 413 414
l 414 405
l 419 420
l 461 462

#List of body lines
l 42 43
l 346 347
l 354 355
l 412 413
l 420 412

#List of body lines
l 43 44
l 44 45
l 345 346
l 355 345

#List of body lines
l 45 46

#List of body lines
l 46 47

#List of body lines
l 47 48

#List of body lines
l 68 69
l 69 70
l 70 71
l 71 72
l 72 73
l 73 68
l 68 71
l 71 74
l 74 75
l 75 72
l 76 70
l 74 76
l 86 87
l 87 88
l 88 89
l 89 90
l 90 91
l 91 86
l 86 89
l 89 92
l 92 93
l 93 90
l 94 88
l 92 94
l 104 105
l 105 106
l 106 107
l 107 108
l 108 109
l 109 104
l 104 107
l 107 110
l 110 111
l 111 108
l 112 106
l 110 112
l 122 123
l 123 124
l 124 125
l 125 126
l 126 127
l 127 122
l 122 125
l 125 128
l 128 129
l 129 126
l 130 124
l 128 130


