#OBJ File generated by Abaqus/CAE
#List of Vertices
v 3.86201e-07 -1.61736e-05 -0.000184144
v -7.9303e-06 1.50942e-06 0.0348062
v 1.31852e-05 -1.85868e-05 0.0698055
v 0.034998 1.51233e-06 -0.00019975
v 0.0700046 -1.8581e-05 -0.000185925
v 3.12907e-06 -3.99269e-06 -0.0351993
v 3.19274e-06 -7.77847e-06 -0.0701955
v -0.0350023 -3.9956e-06 -0.0001939
v -0.0700057 -7.78428e-06 -0.000186596
v 0.001193 0.264616 -0.00152482
v 0.0255531 0.264703 0.0236057
v 0.0495351 0.264952 0.0490826
v 0.0104103 0.264586 -0.0107392
v 0.0259337 0.264551 -0.026271
v 0.0410002 0.264853 -0.0413675
v 0.0506556 0.265037 -0.0510328
v -0.0239407 0.264737 -0.02588
v -0.0495224 0.264909 -0.0497805
v -0.0235521 0.264896 0.0232158
v -0.0482333 0.26521 0.0480555
v 0.00268296 0.529151 -0.00330688
v 0.00251761 0.529384 0.0139362
v 0.002333 0.529602 0.0316816
v 0.00159785 0.530363 0.066665
v 0.0267651 0.529006 -0.00275411
v 0.0376802 0.528926 -0.00249525
v 0.0525796 0.529086 -0.00181058
v 0.0726428 0.529298 -0.000885636
v 0.0018413 0.529166 -0.0383054
v 0.00175199 0.529187 -0.040037
v 0.000158926 0.529441 -0.0732621
v -0.0323055 0.529643 -0.00278817
v -0.0672774 0.530327 -0.00161847
v 0.00521147 0.797545 -0.00473665
v 0.0191689 0.797092 0.00971808
v 0.02951 0.79674 0.0204399
v 0.0419913 0.795811 0.0338575
v 0.0533261 0.794975 0.0460136
v 0.00989981 0.797327 -0.0093855
v 0.0157546 0.797076 -0.0152119
v 0.0216017 0.796804 -0.0210092
v 0.027449 0.796532 -0.0268066
v 0.0300226 0.796421 -0.0293672
v 0.033046 0.795907 -0.0323729
v 0.0384566 0.794991 -0.0377562
v 0.04386 0.794053 -0.0431109
v 0.0492535 0.793136 -0.0484771
v 0.0546666 0.79222 -0.0538623
v -0.00503696 0.797246 -0.0146606
v -0.0165833 0.796917 -0.0258079
v -0.0199392 0.796803 -0.0290549
v -0.0286542 0.79618 -0.037105
v -0.0409453 0.795285 -0.0484695
v -0.0456161 0.794934 -0.0527686
v -0.00423596 0.797404 0.00463885
v -0.0196165 0.797165 0.019912
v -0.0258036 0.796855 0.0260399
v -0.0444597 0.795882 0.0445562
v 0.0560963 0.794893 0.0440362
v 0.0584661 0.798567 -0.0158093
v 0.118274 0.794188 -0.0137116
v 0.115898 0.790522 0.046131
v -0.00371435 0.799286 0.0419292
v -0.0013377 0.802945 -0.0179085
v 0.0537178 0.791237 0.103873
v -0.00608965 0.795621 0.101771
v 0.113525 0.786855 0.105973
v 0.115898 0.790522 0.045931
v 0.118274 0.794188 -0.0139116
v 0.0584661 0.798567 -0.0160093
v 0.0560963 0.794893 0.0438362
v 0.0537178 0.791237 0.103673
v 0.113525 0.786855 0.105773
v -0.00371435 0.799286 0.0417292
v -0.00608965 0.795621 0.101571
v -0.0013377 0.802945 -0.0181085
v -0.0420608 0.795775 0.0473438
v -0.0419886 0.79984 -0.0125098
v 0.0179489 0.802771 -0.0122372
v 0.0178606 0.7987 0.0476378
v -0.10199 0.792848 0.0470579
v -0.101913 0.796906 -0.0127929
v -0.0421572 0.791715 0.107215
v -0.10208 0.788773 0.10694
v 0.0177855 0.794637 0.107491
v 0.0178606 0.7987 0.0474378
v 0.0179489 0.802771 -0.0124372
v -0.0419886 0.79984 -0.0127098
v -0.0420608 0.795775 0.0471438
v -0.0421572 0.791715 0.107015
v 0.0177855 0.794637 0.107291
v -0.10199 0.792848 0.0468579
v -0.10208 0.788773 0.10674
v -0.101913 0.796906 -0.0129929
v 0.0525612 0.792622 -0.0563617
v 0.0525762 0.786871 -0.116065
v 0.111594 0.776032 -0.115017
v 0.11157 0.781771 -0.0552882
v -0.00645242 0.803458 -0.0574092
v -0.00642005 0.797712 -0.117139
v 0.052537 0.798355 0.00337176
v -0.00645815 0.809182 0.0023128
v 0.111542 0.787513 0.00443646
v 0.11157 0.781771 -0.0554882
v 0.111594 0.776032 -0.115217
v 0.0525762 0.786871 -0.116265
v 0.0525612 0.792622 -0.0565617
v 0.052537 0.798355 0.00317176
v 0.111542 0.787513 0.00423646
v -0.00645242 0.803458 -0.0576092
v -0.00645815 0.809182 0.0021128
v -0.00642005 0.797712 -0.117339
v -0.0479489 0.795121 -0.0500279
v -0.0504131 0.789934 -0.109761
v 0.00945609 0.792711 -0.112463
v 0.0119216 0.797908 -0.0527407
v -0.107827 0.792339 -0.0473138
v -0.110276 0.787139 -0.107048
v -0.0454791 0.800322 0.00968593
v -0.105361 0.79753 0.0124141
v 0.0143852 0.803098 0.00698971
v 0.0119216 0.797908 -0.0529407
v 0.00945609 0.792711 -0.112663
v -0.0504131 0.789934 -0.109961
v -0.0479489 0.795121 -0.0502279
v -0.0454791 0.800322 0.00948593
v 0.0143852 0.803098 0.00678971
v -0.107827 0.792339 -0.0475138
v -0.105361 0.79753 0.0122141
v -0.110276 0.787139 -0.107248
v 0.0604156 0.763919 -0.0596049
v 0.0608021 0.789149 -0.0599226
v 0.0600313 0.738682 -0.0592814
v 0.0596489 0.713437 -0.0589524
v 0.0592571 0.688207 -0.0586292
v 0.0588668 0.66297 -0.0583009
v 0.0584798 0.637788 -0.0579652
v 0.0581052 0.612805 -0.0576494
v 0.0577258 0.587963 -0.0573339
v 0.0573504 0.563121 -0.057011
v 0.0569655 0.538271 -0.0566943
v 0.0565788 0.513418 -0.056376
v 0.0561961 0.488566 -0.0560502
v 0.0558183 0.463688 -0.0557162
v 0.0554247 0.438827 -0.0553947
v 0.0550528 0.41397 -0.0550862
v 0.0546656 0.389116 -0.0547514
v 0.0542889 0.364287 -0.0544409
v 0.0539172 0.339434 -0.0541222
v 0.0535179 0.314577 -0.0537895
v 0.0531443 0.289697 -0.0534664
v 0.0527666 0.264817 -0.0531441
v -0.0362283 0.742153 0.046488
v -0.0369145 0.747187 0.0464082
v -0.0390886 0.762867 0.0461596
v -0.0399196 0.768882 0.0460767
v -0.0406668 0.778114 0.0464237
v -0.0418914 0.793122 0.046997
v -0.0419855 0.794205 0.0470444
v -0.0259069 0.689316 0.0505843
v -0.0285458 0.701948 0.0493887
v -0.0314223 0.715644 0.0480983
v -0.0316544 0.716993 0.0480092
v -0.0343885 0.731989 0.0471083
v -0.0145285 0.636929 0.056955
v -0.0155985 0.641958 0.0563165
v -0.0188196 0.656943 0.0544266
v -0.0201518 0.663136 0.0536332
v -0.0243008 0.681995 0.0514335
v -0.00539043 0.584084 0.0631435
v -0.00733526 0.596756 0.0617499
v -0.00945076 0.610602 0.0602176
v -0.00971576 0.611902 0.0600606
v -0.0125942 0.626947 0.0581768
v -0.0019039 0.530373 0.0666569
v -0.00197053 0.532915 0.0665397
v -0.00227696 0.542971 0.0660699
v -0.00258931 0.553037 0.0655943
v -0.00272416 0.557312 0.0654005
v -0.00359945 0.566178 0.064637
v -0.00512667 0.581573 0.0633431
v -0.00693279 0.476682 0.0656699
v -0.00660713 0.478986 0.0657525
v -0.00531114 0.488908 0.0661487
v -0.00400178 0.498841 0.0665218
v -0.00338981 0.503416 0.0666876
v -0.00293303 0.511508 0.0666811
v -0.00210866 0.526545 0.0666629
v -0.0177065 0.423933 0.0616879
v -0.0170846 0.426636 0.0619067
v -0.0141662 0.439865 0.0630434
v -0.011867 0.45018 0.0639298
v -0.0113179 0.453104 0.064115
v -0.00883241 0.466461 0.0649827
v -0.0301873 0.371618 0.0566922
v -0.0271195 0.384513 0.0579219
v -0.0239357 0.397778 0.0591921
v -0.0208266 0.410789 0.0604327
v -0.0408644 0.318881 0.0523259
v -0.0390771 0.328625 0.0530633
v -0.0366065 0.341976 0.0540694
v -0.0359895 0.345374 0.0543109
v -0.0338075 0.355262 0.0552126
v -0.0308785 0.368498 0.0564119
v -0.045723 0.265208 0.0504909
v -0.0455955 0.267338 0.0505242
v -0.0451205 0.276948 0.0506922
v -0.0446101 0.286525 0.0508573
v -0.044346 0.292163 0.0509619
v -0.0437927 0.296269 0.0511709
v -0.042505 0.306228 0.0516791
v -0.0412231 0.316199 0.0521826
v -0.0412575 0.211491 0.0526984
v -0.0414794 0.213342 0.0525822
v -0.0426872 0.223156 0.0520157
v -0.0439014 0.232983 0.0514419
v -0.0445302 0.238235 0.0511309
v -0.0447488 0.242886 0.0510359
v -0.0451671 0.252914 0.050782
v -0.0456106 0.262955 0.0505412
v -0.0308436 0.158741 0.0574601
v -0.0314614 0.161613 0.0571796
v -0.0342774 0.174632 0.0558992
v -0.0365197 0.185 0.0548918
v -0.0369972 0.187661 0.054673
v -0.0393442 0.200813 0.0535798
v -0.0186097 0.106432 0.0630141
v -0.0214113 0.118447 0.0617243
v -0.0247356 0.132579 0.060252
v -0.0280815 0.14694 0.0587156
v -0.00811293 0.0536907 0.0677136
v -0.0100824 0.0645634 0.0668328
v -0.0124603 0.0777428 0.0657667
v -0.0129137 0.0801703 0.0655764
v -0.0152128 0.0908307 0.0645233
v -0.0180586 0.103885 0.0632636
v -0.00350329 -8.28164e-07 0.0698041
v -0.00362196 0.00278171 0.0697495
v -0.00409099 0.0125801 0.0695438
v -0.00455517 0.0223691 0.0693426
v -0.00476611 0.0269533 0.0692255
v -0.00542381 0.0322086 0.0689356
v -0.00666857 0.0420749 0.0683898
v -0.00790062 0.0519547 0.0678166
v 0.0439127 0.741473 0.0480805
v 0.0454537 0.751006 0.0479104
v 0.047738 0.765158 0.0476704
v 0.0482151 0.768115 0.0476286
v 0.0493169 0.778763 0.0479885
v 0.0507327 0.792212 0.048442
v 0.0508569 0.793395 0.0484923
v 0.0324977 0.688851 0.0519422
v 0.0360932 0.704523 0.0505569
v 0.038525 0.715065 0.049626
v 0.0396217 0.72044 0.0493036
v 0.0428451 0.736297 0.0483895
v 0.0200493 0.636643 0.0577898
v 0.0205814 0.638866 0.0575282
v 0.024476 0.655437 0.05561
v 0.0261928 0.662752 0.0547654
v 0.0322445 0.687838 0.0520638
v 0.00976154 0.583945 0.0634727
v 0.0113366 0.592935 0.0625639
v 0.0140489 0.608261 0.0610053
v 0.0144374 0.610398 0.0607847
v 0.0172308 0.623486 0.059289
v 0.00510346 0.53031 0.0667918
v 0.00510536 0.530551 0.0667925
v 0.00569698 0.542061 0.0662712
v 0.00628426 0.553577 0.0657474
v 0.00647644 0.557235 0.065583
v 0.00753785 0.565919 0.0649072
v 0.0091033 0.578676 0.0638914
v 0.00911099 0.476538 0.0660812
v 0.00865122 0.480495 0.0662113
v 0.00692485 0.495666 0.0666924
v 0.00605814 0.503326 0.0669274
v 0.00575128 0.512137 0.0668822
v 0.00511407 0.529929 0.0668042
v 0.0196142 0.423709 0.0623399
v 0.0179378 0.431223 0.0629603
v 0.0152986 0.443268 0.0639301
v 0.0137987 0.449989 0.0644961
v 0.0128511 0.455366 0.0648198
v 0.0107052 0.467528 0.0655496
v 0.032338 0.371476 0.0573957
v 0.03156 0.374613 0.0577185
v 0.0285861 0.386817 0.0588773
v 0.0259721 0.397587 0.0598976
v 0.0234894 0.407788 0.0608554
v 0.0206539 0.419354 0.0619467
v 0.0428922 0.318706 0.05319
v 0.0415688 0.326129 0.0537353
v 0.0393924 0.338306 0.054606
v 0.038166 0.345199 0.0550913
v 0.0369973 0.350439 0.055559
v 0.0343259 0.362514 0.0566126
v 0.047056 0.264953 0.0515621
v 0.04647 0.280347 0.051774
v 0.0460253 0.291924 0.0519361
v 0.0453514 0.297574 0.0522173
v 0.0435827 0.312778 0.0529283
v 0.042445 0.211249 0.0535447
v 0.0434047 0.218956 0.0531455
v 0.0455873 0.236594 0.0522286
v 0.0457736 0.237982 0.0521441
v 0.0464467 0.252116 0.0518451
v 0.0315775 0.158557 0.058091
v 0.0336377 0.167569 0.0572236
v 0.0364179 0.179748 0.0560681
v 0.0375515 0.184761 0.0556061
v 0.0388869 0.192015 0.0550347
v 0.0411668 0.204312 0.0540897
v 0.0185359 0.106451 0.0635194
v 0.0200194 0.112344 0.0629162
v 0.0228927 0.12391 0.0617014
v 0.0250589 0.132496 0.0608068
v 0.0274708 0.142177 0.0598096
v 0.0307209 0.155179 0.058445
v 0.00782649 0.0537249 0.0679952
v 0.00965161 0.0637624 0.0672293
v 0.0118768 0.0760715 0.0663104
v 0.0126225 0.0802264 0.0659833
v 0.0144466 0.088308 0.0652347
v 0.0172007 0.1005 0.0640777
v 0.00349741 -1.31708e-05 0.0698157
v 0.00412458 0.0146654 0.0695434
v 0.00463809 0.0269606 0.0693279
v 0.00532837 0.0327264 0.0690477
v 0.00743414 0.0504423 0.0681667
v 0.0549541 0.741325 0.0376055
v 0.0548968 0.752969 0.0392675
v 0.0548368 0.768053 0.0414077
v 0.0550206 0.771789 0.0417429
v 0.0558346 0.790052 0.0434229
v 0.0559834 0.793346 0.043722
v 0.0582364 0.688403 0.0274058
v 0.0571863 0.701846 0.0301476
v 0.0561594 0.71478 0.0328286
v 0.0560139 0.718395 0.03347
v 0.0552391 0.734926 0.0364721
v 0.0638172 0.635887 0.0161677
v 0.0636814 0.637077 0.0164105
v 0.0618795 0.653226 0.0198268
v 0.0608779 0.662142 0.0217304
v 0.0589105 0.681704 0.0259386
v 0.0693833 0.582975 0.00695469
v 0.0690715 0.586107 0.00744712
v 0.0673864 0.603168 0.0101211
v 0.0667459 0.609527 0.0111215
v 0.0655552 0.620175 0.0131627
v 0.0726322 0.52929 0.00263318
v 0.0721495 0.540231 0.00318692
v 0.0716669 0.551242 0.00373943
v 0.0714494 0.556221 0.00399868
v 0.0706219 0.566954 0.00518264
v 0.0716358 0.475495 0.00622868
v 0.0717204 0.477732 0.00598194
v 0.0726823 0.501774 0.00338034
v 0.0727069 0.502307 0.00333183
v 0.0726551 0.523439 0.00277846
v 0.0668229 0.422851 0.0170174
v 0.0677959 0.431945 0.0149015
v 0.0689693 0.442945 0.0123509
v 0.0696022 0.449002 0.010955
v 0.0700002 0.454057 0.0100437
v 0.0708681 0.465295 0.00803465
v 0.0603057 0.371014 0.0306815
v 0.0611502 0.377571 0.0289436
v 0.062628 0.389149 0.0258696
v 0.0636306 0.396909 0.0238035
v 0.064378 0.403032 0.0222045
v 0.0655105 0.41214 0.0198208
v 0.0666338 0.421261 0.017432
v 0.0546327 0.318566 0.0421085
v 0.0551668 0.324075 0.0410384
v 0.0562199 0.334762 0.0389631
v 0.0572071 0.344949 0.0369786
v 0.0572769 0.345453 0.0368579
v 0.0585112 0.355967 0.0343227
v 0.0597676 0.36647 0.0317768
v 0.0521528 0.264892 0.0467802
v 0.0527567 0.287616 0.0456994
v 0.0528918 0.291844 0.0454905
v 0.0539808 0.308619 0.0433659
v 0.0537244 0.211146 0.0426296
v 0.0530694 0.225472 0.0442969
v 0.0525011 0.237924 0.0457372
v 0.0524054 0.245608 0.0460286
v 0.0581601 0.158438 0.0318334
v 0.0578786 0.161253 0.0324876
v 0.0568014 0.172779 0.0351104
v 0.0557159 0.18429 0.0377564
v 0.0556757 0.184652 0.0378327
v 0.0548247 0.195999 0.0398939
v 0.053962 0.207691 0.0420154
v 0.0636337 0.106395 0.0185923
v 0.0630233 0.112184 0.0200651
v 0.0617984 0.123789 0.0230395
v 0.06089 0.132409 0.0252265
v 0.0600754 0.140137 0.0271898
v 0.0589756 0.150561 0.0298403
v 0.0681959 0.0537322 0.00764324
v 0.0681534 0.0542143 0.0077595
v 0.0672624 0.0659034 0.00989178
v 0.0663732 0.0775548 0.0120592
v 0.0661494 0.0802011 0.0125487
v 0.0653117 0.0891074 0.0145949
v 0.0641959 0.100609 0.0172645
v 0.0700155 -1.31653e-05 0.00329757
v 0.0697624 0.0137212 0.00389411
v 0.0695349 0.0269618 0.0044339
v 0.0691542 0.034425 0.00534255
v 0.0505822 0.739366 -0.0431208
v 0.0515518 0.749439 -0.0450362
v 0.0531578 0.765746 -0.0481706
v 0.0542978 0.772962 -0.0490983
v 0.0571448 0.790653 -0.051394
v 0.0514947 0.687144 -0.0296237
v 0.0513276 0.690271 -0.0304899
v 0.0506808 0.702043 -0.033709
v 0.0500455 0.713142 -0.0367293
v 0.0500677 0.713737 -0.0368912
v 0.0502579 0.723717 -0.0393054
v 0.05047 0.733687 -0.0417319
v 0.0589472 0.63547 -0.0158957
v 0.0584072 0.638729 -0.0167256
v 0.0567921 0.648477 -0.0192102
v 0.0551801 0.658217 -0.021691
v 0.0546553 0.661316 -0.0224681
v 0.0535455 0.670361 -0.0249717
v 0.0519446 0.683621 -0.028662
v 0.0680302 0.583077 -0.0066977
v 0.065198 0.600143 -0.00916508
v 0.0636579 0.609449 -0.0105202
v 0.0614402 0.621662 -0.0130356
v 0.0729491 0.52943 -0.00437255
v 0.0715449 0.552481 -0.00463873
v 0.0713043 0.556358 -0.00467088
v 0.0707388 0.561007 -0.00502735
v 0.0719482 0.475793 -0.00980808
v 0.0719801 0.476604 -0.0096947
v 0.0726704 0.494033 -0.00721595
v 0.0730097 0.502483 -0.00602397
v 0.072947 0.526633 -0.00454251
v 0.0672037 0.423368 -0.0217503
v 0.0672337 0.42359 -0.02168
v 0.0683314 0.434067 -0.0190817
v 0.0694184 0.44453 -0.016459
v 0.0699412 0.449419 -0.0152485
v 0.0703548 0.455072 -0.0140679
v 0.0711651 0.46568 -0.0118832
v 0.0608253 0.371516 -0.0354544
v 0.061506 0.377043 -0.0340309
v 0.0627028 0.386521 -0.0315568
v 0.0638957 0.39601 -0.0290888
v 0.0640747 0.397454 -0.0287052
v 0.0644909 0.400953 -0.0277595
v 0.0553395 0.318852 -0.0458476
v 0.0554781 0.320441 -0.0455788
v 0.0565751 0.332102 -0.0436052
v 0.0576699 0.343769 -0.0416354
v 0.0578105 0.345353 -0.0413651
v 0.0589501 0.355261 -0.0391323
v 0.0602735 0.366716 -0.0365495
v 0.0531321 0.265036 -0.0485591
v 0.0532806 0.272345 -0.0485108
v 0.0537052 0.292033 -0.0483635
v 0.0540925 0.298642 -0.0477274
v 0.0550325 0.211481 -0.0424459
v 0.0549959 0.211831 -0.0424805
v 0.0544756 0.22222 -0.0440298
v 0.0539487 0.232622 -0.0455845
v 0.0536664 0.238149 -0.0464171
v 0.0535739 0.242771 -0.04679
v 0.053389 0.252588 -0.0475702
v 0.0531856 0.26244 -0.0483678
v 0.0591911 0.158818 -0.031303
v 0.0583666 0.168192 -0.0334096
v 0.0571436 0.182674 -0.0367072
v 0.0569189 0.185061 -0.0372321
v 0.0560454 0.1973 -0.0396392
v 0.0640197 0.106494 -0.0188512
v 0.0627259 0.120502 -0.022158
v 0.0615987 0.132663 -0.02503
v 0.0599656 0.150398 -0.0292788
v 0.0681717 0.05369 -0.00834404
v 0.0675094 0.0629738 -0.0100258
v 0.0664952 0.0769521 -0.0125474
v 0.0662546 0.0802051 -0.0131264
v 0.065358 0.0907694 -0.0154277
v 0.064187 0.104536 -0.0184184
v 0.0700024 -8.22057e-07 -0.00370167
v 0.0699506 0.00265353 -0.00381928
v 0.0697748 0.0121513 -0.00426362
v 0.0695922 0.0216633 -0.00471415
v 0.0694992 0.0269474 -0.00497772
v 0.0692936 0.0312218 -0.00551783
v 0.0688003 0.0408415 -0.00671425
v 0.068319 0.0504756 -0.00793685
v 0.0403862 0.740122 -0.053642
v 0.0439666 0.754246 -0.0540881
v 0.047029 0.766279 -0.054501
v 0.0477007 0.769452 -0.0547345
v 0.0509097 0.784635 -0.0559021
v 0.0522816 0.791073 -0.0564082
v 0.0256846 0.688227 -0.0558118
v 0.0262115 0.690078 -0.0556835
v 0.0324168 0.711868 -0.0542531
v 0.0330697 0.714143 -0.0541056
v 0.0334212 0.715389 -0.0540812
v 0.0367884 0.72733 -0.0538724
v 0.0401317 0.739274 -0.0536423
v 0.0128058 0.636156 -0.0619314
v 0.0154752 0.647889 -0.0604218
v 0.0186541 0.66178 -0.0586093
v 0.0187542 0.662283 -0.0585432
v 0.0223125 0.675597 -0.0571412
v 0.00515661 0.5832 -0.0689204
v 0.00820462 0.609803 -0.0655447
v 0.011168 0.626812 -0.0632194
v 0.00367785 0.529434 -0.073274
v 0.00369523 0.54257 -0.072455
v 0.00372787 0.556383 -0.0716185
v 0.00441611 0.569224 -0.0703174
v 0.0088585 0.475746 -0.0731483
v 0.00695005 0.490037 -0.0734551
v 0.00529974 0.502492 -0.0737447
v 0.0043103 0.518773 -0.0734618
v 0.0200642 0.4231 -0.0692692
v 0.0172465 0.435197 -0.0703453
v 0.0143464 0.447549 -0.0714283
v 0.0139443 0.449292 -0.071593
v 0.0118909 0.46001 -0.072217
v 0.00946299 0.472517 -0.0729412
v 0.033237 0.371053 -0.0632762
v 0.0311649 0.379282 -0.0642734
v 0.0283353 0.390524 -0.0656314
v 0.0266832 0.397072 -0.0664097
v 0.0242652 0.406547 -0.067442
v 0.0201432 0.422776 -0.0692299
v 0.0439002 0.3185 -0.0573013
v 0.0419045 0.329613 -0.0585066
v 0.039591 0.342387 -0.0598677
v 0.0391378 0.344919 -0.060154
v 0.0368457 0.355048 -0.0613585
v 0.0339987 0.367672 -0.0628765
v 0.0481786 0.26485 -0.0535085
v 0.0478955 0.271391 -0.0538648
v 0.0474353 0.282473 -0.0544844
v 0.0470381 0.291788 -0.0550138
v 0.0466561 0.295113 -0.0552991
v 0.0442236 0.315794 -0.0570708
v 0.0433636 0.211158 -0.0540842
v 0.0444675 0.219512 -0.053807
v 0.0457185 0.229065 -0.0534883
v 0.0468706 0.237892 -0.0531952
v 0.046924 0.239134 -0.0532103
v 0.0477096 0.255304 -0.0533904
v 0.0323263 0.158457 -0.0580836
v 0.0326797 0.160025 -0.0579517
v 0.0355201 0.17234 -0.0568817
v 0.0383366 0.18466 -0.0557923
v 0.0383286 0.184685 -0.0558002
v 0.0407074 0.197131 -0.0549923
v 0.0430655 0.209584 -0.0541623
v 0.0193941 0.106292 -0.063369
v 0.0226108 0.119231 -0.0620529
v 0.025867 0.132369 -0.0606904
v 0.0292587 0.146008 -0.05934
v 0.0083585 0.0536582 -0.0680865
v 0.00880328 0.0559284 -0.0679027
v 0.0111698 0.0684069 -0.0668716
v 0.0134083 0.0800917 -0.0659314
v 0.0135745 0.0808768 -0.0658382
v 0.016402 0.093238 -0.0646514
v 0.0192364 0.105581 -0.0634537
v 0.00350633 -5.50483e-07 -0.0702058
v 0.00388515 0.00761124 -0.0700233
v 0.00435067 0.0171477 -0.0698226
v 0.00482083 0.0266747 -0.0696169
v 0.00482938 0.0269426 -0.0696069
v 0.00605315 0.0362577 -0.0690777
v 0.00732162 0.0458406 -0.0685404
v -0.0376305 0.741291 -0.0537138
v -0.0385919 0.748508 -0.053729
v -0.0410966 0.767781 -0.0538149
v -0.0411334 0.768061 -0.0538139
v -0.042584 0.786332 -0.0548403
v -0.0431415 0.793364 -0.0552436
v -0.0278387 0.6883 -0.0569175
v -0.029792 0.698155 -0.0561372
v -0.0330687 0.714604 -0.0548282
v -0.0330807 0.714713 -0.0548401
v -0.0358717 0.73102 -0.0541474
v -0.0168434 0.63576 -0.0628004
v -0.0199288 0.650594 -0.0610351
v -0.0223098 0.662035 -0.0596797
v -0.0258607 0.678871 -0.0579028
v -0.00770398 0.582924 -0.0689586
v -0.0079227 0.584404 -0.0687908
v -0.0105688 0.601188 -0.0669236
v -0.0118468 0.609426 -0.0660063
v -0.0134637 0.6179 -0.0649754
v -0.0166158 0.634566 -0.0629554
v -0.00331601 0.529279 -0.0729361
v -0.00385268 0.539141 -0.0723551
v -0.0044134 0.550176 -0.0717178
v -0.00474574 0.556203 -0.0713732
v -0.0057252 0.565108 -0.0705594
v -0.00672256 0.47547 -0.0725606
v -0.0043382 0.498586 -0.0732372
v -0.0039377 0.502304 -0.0733527
v -0.00360154 0.516757 -0.0731334
v -0.0174093 0.422771 -0.0679239
v -0.0161028 0.428414 -0.0685198
v -0.0135705 0.439393 -0.069673
v -0.0113785 0.448938 -0.0706668
v -0.0111408 0.450427 -0.0707681
v -0.00915758 0.461689 -0.0715734
v -0.00716954 0.472936 -0.0723686
v -0.0310625 0.370978 -0.0611666
v -0.0293739 0.377243 -0.0620154
v -0.0258598 0.390545 -0.0637978
v -0.0241813 0.396848 -0.0646483
v -0.0231001 0.401006 -0.0651745
v -0.0208111 0.40977 -0.0662883
v -0.0185205 0.418525 -0.0673954
v -0.0424491 0.318568 -0.0550714
v -0.0414258 0.323801 -0.0556361
v -0.0393983 0.334349 -0.0567417
v -0.0373483 0.344885 -0.0578582
v -0.0373437 0.344919 -0.0578536
v -0.0348721 0.355216 -0.0591629
v -0.0323741 0.365534 -0.060478
v -0.0470457 0.264909 -0.0522572
v -0.0461209 0.284755 -0.052887
v -0.0457832 0.291846 -0.0531314
v -0.0439201 0.306862 -0.0542182
v -0.0427865 0.211157 -0.0537217
v -0.0428101 0.211344 -0.0537061
v -0.0447508 0.227613 -0.0529791
v -0.0459677 0.237935 -0.052512
v -0.0462553 0.245171 -0.0524463
v -0.0319805 0.15845 -0.0581441
v -0.0333151 0.164298 -0.0575854
v -0.0359755 0.176001 -0.0565026
v -0.0379503 0.184675 -0.0556835
v -0.0385016 0.187698 -0.0554477
v -0.0406643 0.199509 -0.0545831
v -0.0188686 0.106378 -0.063668
v -0.0201764 0.11157 -0.0631108
v -0.0232116 0.123605 -0.0618254
v -0.0254401 0.132412 -0.060887
v -0.0275825 0.140941 -0.0599843
v -0.0305121 0.152626 -0.0587667
v -0.0079386 0.053703 -0.0682989
v -0.00993747 0.0644612 -0.0674526
v -0.0121223 0.0762627 -0.0665162
v -0.0128596 0.0801844 -0.0662144
v -0.0146505 0.0880194 -0.0654555
v -0.0173346 0.0997244 -0.0643198
v -0.003501 -1.44044e-05 -0.0701845
v -0.0036247 0.00272877 -0.0701373
v -0.00435207 0.0194711 -0.0698391
v -0.00467365 0.0269496 -0.0696921
v -0.00578086 0.0359503 -0.0692181
v -0.00777157 0.0522499 -0.0683747
v -0.04807 0.741695 -0.0427848
v -0.0479304 0.74684 -0.0436259
v -0.0475004 0.761914 -0.0461335
v -0.0473268 0.768322 -0.047201
v -0.0475108 0.776541 -0.0481374
v -0.0478062 0.790814 -0.049785
v -0.0478646 0.793563 -0.050106
v -0.0523393 0.689062 -0.0315104
v -0.0518087 0.694814 -0.0328001
v -0.0501138 0.712511 -0.0367845
v -0.0498653 0.715293 -0.0374058
v -0.0488525 0.730129 -0.0404363
v -0.0583573 0.636759 -0.019489
v -0.058027 0.639733 -0.0201518
v -0.0558211 0.658233 -0.0243516
v -0.0552723 0.662916 -0.0254019
v -0.0640801 0.584011 -0.0095843
v -0.0634553 0.590035 -0.0106179
v -0.0617802 0.606561 -0.0134108
v -0.0613818 0.610492 -0.0140891
v -0.0599567 0.623001 -0.0166504
v -0.0672841 0.530334 -0.00511882
v -0.0672608 0.530548 -0.00513474
v -0.066835 0.540936 -0.00563637
v -0.0663852 0.551311 -0.00615081
v -0.0661349 0.557264 -0.00642386
v -0.0657017 0.562777 -0.00708169
v -0.0647089 0.575766 -0.00861919
v -0.0663637 0.476569 -0.00932508
v -0.0666061 0.483641 -0.0084908
v -0.0670663 0.49678 -0.00694919
v -0.0673064 0.503361 -0.00615195
v -0.0672792 0.512194 -0.0058247
v -0.0672777 0.529963 -0.00514868
v -0.0625613 0.423772 -0.019887
v -0.0634183 0.434197 -0.0175914
v -0.0644285 0.446386 -0.0148859
v -0.064713 0.450042 -0.0140727
v -0.0652551 0.458636 -0.0125416
v -0.0660261 0.470922 -0.0103398
v -0.0576648 0.371508 -0.0325382
v -0.057924 0.374263 -0.031876
v -0.0590574 0.386222 -0.0289832
v -0.060127 0.397638 -0.0262262
v -0.0612471 0.409526 -0.0233359
v -0.0623983 0.421975 -0.0203331
v -0.0534695 0.318736 -0.0430576
v -0.0539379 0.325413 -0.0418641
v -0.0548092 0.337694 -0.0396867
v -0.0553564 0.345248 -0.0383459
v -0.0557709 0.349937 -0.037296
v -0.0568324 0.362134 -0.0346252
v -0.0517925 0.264962 -0.0471363
v -0.0520777 0.283716 -0.0464587
v -0.0522015 0.291937 -0.0461597
v -0.0525602 0.299627 -0.045279
v -0.0531844 0.312743 -0.0437377
v -0.0537323 0.211263 -0.0424315
v -0.0533428 0.219231 -0.043419
v -0.0523733 0.238014 -0.0457485
v -0.0523476 0.238635 -0.0458014
v -0.0520766 0.252168 -0.0464766
v -0.0582818 0.158607 -0.0315348
v -0.0574938 0.166936 -0.033432
v -0.0563079 0.179163 -0.0362291
v -0.0557838 0.184809 -0.0375171
v -0.0552736 0.191488 -0.0387409
v -0.0543128 0.203877 -0.0410467
v -0.0637273 0.106465 -0.0185201
v -0.0630804 0.112659 -0.0200583
v -0.061874 0.12421 -0.0229394
v -0.0610082 0.13254 -0.0250066
v -0.06004 0.14176 -0.0273243
v -0.058708 0.154509 -0.0304997
v -0.0681915 0.0537252 -0.00791489
v -0.0674675 0.0634131 -0.00964108
v -0.066531 0.0759399 -0.011873
v -0.0661969 0.0802419 -0.0126602
v -0.0654411 0.0883629 -0.0144583
v -0.0642772 0.100747 -0.0172392
v -0.0699954 -1.441e-05 -0.00369006
v -0.0698538 0.00780401 -0.00402279
v -0.0695214 0.0269628 -0.00481291
v -0.0694367 0.0288006 -0.00501394
v -0.0684241 0.0491193 -0.0073764
v -0.0471297 0.742302 0.0356904
v -0.0466698 0.758317 0.0380432
v -0.0463796 0.768998 0.0396293
v -0.0464819 0.774186 0.0401228
v -0.0468198 0.789571 0.0416079
v -0.0469332 0.7943 0.0420915
v -0.0515125 0.689502 0.0253236
v -0.051273 0.692008 0.0258439
v -0.0496284 0.708834 0.0293428
v -0.048951 0.715826 0.0307881
v -0.0482787 0.725563 0.0325818
v -0.0471499 0.742201 0.0356712
v -0.0577982 0.637042 0.0142098
v -0.0571994 0.641894 0.0152252
v -0.0551087 0.658928 0.01877
v -0.0545565 0.663288 0.0196652
v -0.0637297 0.584127 0.00532053
v -0.062778 0.593235 0.00670349
v -0.0610613 0.609419 0.00910502
v -0.0609351 0.610668 0.00929833
v -0.0591611 0.625528 0.0120621
v -0.0670141 0.530379 0.00186791
v -0.0669181 0.532951 0.00194912
v -0.0665001 0.542262 0.00223695
v -0.0661073 0.551585 0.00253782
v -0.0658616 0.557336 0.00271231
v -0.0654036 0.562991 0.00324874
v -0.0642372 0.577694 0.00470198
v -0.0658731 0.476687 0.0068635
v -0.0659861 0.479601 0.006469
v -0.0663887 0.489169 0.00521844
v -0.0667687 0.498729 0.00395332
v -0.0669532 0.503432 0.00332689
v -0.0669803 0.511119 0.00291636
v -0.0670049 0.526235 0.00208898
v -0.0618328 0.42395 0.0176065
v -0.0621719 0.427956 0.0167131
v -0.0632893 0.441067 0.0138142
v -0.0640846 0.450212 0.0117925
v -0.0643519 0.454228 0.0110477
v -0.0652431 0.46748 0.00856653
v -0.0568217 0.371643 0.0300678
v -0.0581572 0.385577 0.0267471
v -0.0593322 0.397798 0.0238276
v -0.0606176 0.411348 0.0206019
v -0.0524952 0.318899 0.0407447
v -0.0533286 0.330072 0.038695
v -0.0543049 0.343366 0.0362232
v -0.0544603 0.345366 0.0358648
v -0.0554579 0.356553 0.0333885
v -0.0566382 0.369716 0.0304911
v -0.0507078 0.265212 0.0455785
v -0.0507642 0.269634 0.045337
v -0.0509318 0.279083 0.0448728
v -0.0510758 0.288523 0.0443939
v -0.0511353 0.292166 0.0441938
v -0.0514405 0.298107 0.043428
v -0.0519294 0.307739 0.0421868
v -0.052414 0.317363 0.0409506
v -0.0529462 0.211509 0.0410592
v -0.0528598 0.212837 0.0412121
v -0.052293 0.222411 0.0423979
v -0.0517399 0.231974 0.0436077
v -0.0513605 0.238251 0.0443605
v -0.051286 0.241554 0.0445257
v -0.0510576 0.251147 0.044951
v -0.0508044 0.260731 0.045362
v -0.0577129 0.158747 0.0306374
v -0.0575249 0.160789 0.0310812
v -0.0562388 0.173846 0.0338923
v -0.0551335 0.185021 0.0363017
v -0.0549684 0.186909 0.0366452
v -0.0538836 0.200124 0.0390166
v -0.0632317 0.106433 0.0184332
v -0.0620528 0.117627 0.0210509
v -0.0604748 0.132585 0.0245419
v -0.0590436 0.14616 0.0276966
v -0.0679279 0.0536852 0.00795428
v -0.0671835 0.0627011 0.00958078
v -0.0661103 0.0759701 0.0119762
v -0.0657841 0.0801675 0.0127442
v -0.0649133 0.0891347 0.0146869
v -0.0636348 0.102256 0.0175134
v -0.0699954 -5.56589e-07 0.00329598
v -0.0699335 0.00262494 0.00342175
v -0.0697319 0.0121677 0.0038843
v -0.0695362 0.0217241 0.00434039
v -0.0694235 0.0269477 0.00458057
v -0.0691861 0.0313157 0.00514532
v -0.0686301 0.0409519 0.00634944
v -0.0680993 0.0506008 0.00756662
v -0.0575725 0.0607029 -0.335641
v -0.0786484 0.0607029 -0.335641
v -0.0786484 -0.00585062 -0.335641
v -0.0575725 -0.00585062 -0.335641
v -0.0771062 -0.00225295 -0.335641
v -0.074793 -0.00225295 -0.335641
v -0.074793 0.00134473 -0.335641
v -0.0771062 0.00134473 -0.335641
v -0.0771062 0.00134473 -0.335641
v -0.074793 0.00134473 -0.335641
v -0.074793 0.00494124 -0.335641
v -0.0771062 0.00494124 -0.335641
v -0.0771062 0.00494124 -0.335641
v -0.074793 0.00494124 -0.335641
v -0.074793 0.00853892 -0.335641
v -0.0771062 0.00853892 -0.335641
v -0.0771062 0.00853892 -0.335641
v -0.074793 0.00853892 -0.335641
v -0.074793 0.0121366 -0.335641
v -0.0771062 0.0121366 -0.335641
v -0.0771062 0.0121366 -0.335641
v -0.074793 0.0121366 -0.335641
v -0.074793 0.0157343 -0.335641
v -0.0771062 0.0157343 -0.335641
v -0.0771062 0.0157343 -0.335641
v -0.074793 0.0157343 -0.335641
v -0.074793 0.019332 -0.335641
v -0.0771062 0.019332 -0.335641
v -0.0771062 0.019332 -0.335641
v -0.074793 0.019332 -0.335641
v -0.074793 0.0229296 -0.335641
v -0.0771062 0.0229296 -0.335641
v -0.0771062 0.0229296 -0.335641
v -0.074793 0.0229296 -0.335641
v -0.074793 0.0265261 -0.335641
v -0.0771062 0.0265261 -0.335641
v -0.0771062 0.0265261 -0.335641
v -0.074793 0.0265261 -0.335641
v -0.074793 0.0301238 -0.335641
v -0.0771062 0.0301238 -0.335641
v -0.0771062 0.0301238 -0.335641
v -0.074793 0.0301238 -0.335641
v -0.074793 0.0337215 -0.335641
v -0.0771062 0.0337215 -0.335641
v -0.0771062 0.0337215 -0.335641
v -0.074793 0.0337215 -0.335641
v -0.074793 0.0373192 -0.335641
v -0.0771062 0.0373192 -0.335641
v -0.0771062 0.0373192 -0.335641
v -0.074793 0.0373192 -0.335641
v -0.074793 0.0409168 -0.335641
v -0.0771062 0.0409168 -0.335641
v -0.0771062 -0.00225295 -0.335641
v -0.074022 -0.00225295 -0.335641
v -0.0771062 0.00134473 -0.335641
v -0.074022 0.00134473 -0.335641
v -0.0771062 0.00494124 -0.335641
v -0.074022 0.00494124 -0.335641
v -0.0771062 0.00853892 -0.335641
v -0.074022 0.00853892 -0.335641
v -0.0771062 0.0121366 -0.335641
v -0.074022 0.0121366 -0.335641
v -0.0771062 0.0157343 -0.335641
v -0.074022 0.0157343 -0.335641
v -0.0771062 0.019332 -0.335641
v -0.074022 0.019332 -0.335641
v -0.0771062 0.0229296 -0.335641
v -0.074022 0.0229296 -0.335641
v -0.0771062 0.0265261 -0.335641
v -0.074022 0.0265261 -0.335641
v -0.0771062 0.0301238 -0.335641
v -0.074022 0.0301238 -0.335641
v -0.0771062 0.0337215 -0.335641
v -0.074022 0.0337215 -0.335641
v -0.0771062 0.0373192 -0.335641
v -0.074022 0.0373192 -0.335641
v -0.0771062 0.0409168 -0.335641
v -0.074022 0.0409168 -0.335641
v -0.074793 0.0409168 -0.335641
v -0.074793 -0.00225295 -0.335641

#List of body polygons
f 59 60 61
f 59 61 62
f 59 63 64
f 59 64 60
f 63 59 65
f 63 65 66
f 59 62 67
f 59 67 65
f 77 78 79
f 77 79 80
f 77 81 82
f 77 82 78
f 81 77 83
f 81 83 84
f 77 80 85
f 77 85 83
f 95 96 97
f 95 97 98
f 95 99 100
f 95 100 96
f 99 95 101
f 99 101 102
f 95 98 103
f 95 103 101
f 113 114 115
f 113 115 116
f 113 117 118
f 113 118 114
f 117 113 119
f 117 119 120
f 113 116 121
f 113 121 119

#List of body lines
l 1 2
l 2 3
l 1 4
l 4 5
l 1 6
l 6 7
l 1 8
l 8 9
l 10 11
l 11 12
l 10 13
l 10 17
l 17 18
l 10 19
l 19 20
l 22 23
l 23 24
l 21 25
l 30 31
l 21 32
l 32 33
l 53 54
l 131 132
l 133 131
l 134 133
l 135 134
l 136 135
l 137 136
l 138 137
l 139 138
l 140 139
l 141 140
l 142 141
l 143 142
l 144 143
l 145 144
l 146 145
l 147 146
l 148 147
l 149 148
l 150 149
l 151 150
l 152 151
l 167 168
l 168 169
l 196 197
l 197 198
l 228 229
l 229 230
l 259 260
l 260 261
l 288 289
l 289 290
l 316 317
l 317 318
l 344 345
l 345 346
l 370 371
l 371 372
l 399 400
l 400 401
l 419 420
l 432 419
l 456 457
l 457 458
l 484 485
l 485 486
l 509 510
l 510 511
l 538 539
l 539 540
l 568 569
l 569 570
l 597 598
l 598 599
l 624 625
l 625 626
l 653 654
l 654 655
l 676 677
l 683 684
l 684 676
l 711 712
l 712 713
l 739 740
l 740 741
l 760 761
l 768 769
l 769 760
l 796 797
l 797 798
l 828 829
l 829 830

#List of body lines
l 13 14
l 14 15
l 21 22
l 25 26
l 26 27
l 21 29
l 29 30
l 37 38
l 52 53
l 57 58
l 160 161
l 166 167
l 169 160
l 189 190
l 195 196
l 198 189
l 204 195
l 221 222
l 227 228
l 230 221
l 236 227
l 252 253
l 258 259
l 261 252
l 287 288
l 290 291
l 315 316
l 318 319
l 337 338
l 343 344
l 346 337
l 369 370
l 372 373
l 398 399
l 401 402
l 420 421
l 431 432
l 446 447
l 455 456
l 458 446
l 478 479
l 483 484
l 486 478
l 492 483
l 508 509
l 511 512
l 537 538
l 540 541
l 560 561
l 567 568
l 570 560
l 577 567
l 591 592
l 596 597
l 599 591
l 605 596
l 623 624
l 626 627
l 652 653
l 655 656
l 677 678
l 682 683
l 710 711
l 713 714
l 738 739
l 741 742
l 761 762
l 767 768
l 789 790
l 795 796
l 798 789
l 804 795
l 821 822
l 827 828
l 830 821
l 836 827

#List of body lines
l 15 16
l 27 28
l 35 36
l 36 37
l 50 51
l 51 52
l 55 56
l 56 57
l 161 162
l 162 163
l 165 166
l 174 165
l 190 191
l 203 204
l 222 223
l 235 236
l 253 254
l 254 255
l 257 258
l 266 257
l 280 281
l 286 287
l 291 280
l 297 286
l 308 309
l 314 315
l 319 308
l 325 314
l 338 339
l 339 340
l 342 343
l 351 342
l 368 369
l 373 374
l 381 368
l 390 391
l 397 398
l 402 390
l 409 397
l 421 422
l 422 423
l 429 430
l 430 431
l 447 448
l 454 455
l 479 480
l 491 492
l 507 508
l 512 513
l 518 507
l 530 531
l 536 537
l 541 530
l 547 536
l 561 562
l 576 577
l 592 593
l 604 605
l 622 623
l 627 628
l 635 622
l 645 646
l 651 652
l 656 645
l 662 651
l 678 679
l 679 680
l 681 682
l 689 681
l 703 704
l 709 710
l 714 703
l 720 709
l 731 732
l 737 738
l 742 731
l 748 737
l 762 763
l 763 764
l 766 767
l 774 766
l 790 791
l 803 804
l 822 823
l 835 836

#List of body lines
l 34 35
l 34 39
l 49 50
l 34 55
l 163 164
l 173 174
l 191 192
l 192 193
l 201 202
l 202 203
l 223 224
l 224 225
l 233 234
l 234 235
l 255 256
l 264 265
l 265 266
l 281 282
l 296 297
l 309 310
l 324 325
l 340 341
l 349 350
l 350 351
l 362 363
l 374 362
l 380 381
l 391 392
l 408 409
l 423 424
l 428 429
l 448 449
l 453 454
l 465 453
l 480 481
l 481 482
l 489 490
l 490 491
l 501 502
l 513 501
l 516 517
l 517 518
l 531 532
l 546 547
l 562 563
l 575 576
l 593 594
l 594 595
l 602 603
l 603 604
l 615 616
l 628 615
l 634 635
l 646 647
l 661 662
l 669 670
l 680 669
l 687 688
l 688 689
l 704 705
l 719 720
l 732 733
l 747 748
l 764 765
l 772 773
l 773 774
l 791 792
l 792 793
l 801 802
l 802 803
l 823 824
l 824 825
l 833 834
l 834 835

#List of body lines
l 39 40
l 34 49
l 153 154
l 164 153
l 171 172
l 172 173
l 193 194
l 200 201
l 225 226
l 232 233
l 245 246
l 256 245
l 263 264
l 282 283
l 283 284
l 294 295
l 295 296
l 310 311
l 311 312
l 322 323
l 323 324
l 331 332
l 341 331
l 348 349
l 363 364
l 379 380
l 392 393
l 406 407
l 407 408
l 424 425
l 427 428
l 449 450
l 450 451
l 464 465
l 470 471
l 482 470
l 488 489
l 502 503
l 503 504
l 515 516
l 532 533
l 533 534
l 544 545
l 545 546
l 563 564
l 564 565
l 573 574
l 574 575
l 585 586
l 595 585
l 601 602
l 616 617
l 632 633
l 633 634
l 647 648
l 648 649
l 659 660
l 660 661
l 670 671
l 686 687
l 705 706
l 706 707
l 717 718
l 718 719
l 733 734
l 734 735
l 745 746
l 746 747
l 754 755
l 765 754
l 771 772
l 793 794
l 800 801
l 825 826
l 832 833

#List of body lines
l 40 41
l 154 155
l 170 171
l 181 170
l 182 183
l 194 182
l 199 200
l 212 199
l 213 214
l 226 213
l 231 232
l 244 231
l 246 247
l 262 263
l 273 262
l 284 285
l 293 294
l 312 313
l 321 322
l 332 333
l 333 334
l 347 348
l 356 347
l 364 365
l 365 366
l 377 378
l 378 379
l 393 394
l 394 395
l 405 406
l 414 415
l 425 414
l 426 427
l 436 426
l 451 452
l 462 463
l 463 464
l 471 472
l 487 488
l 500 487
l 504 505
l 514 515
l 521 514
l 523 524
l 524 525
l 534 535
l 543 544
l 565 566
l 572 573
l 586 587
l 600 601
l 610 600
l 617 618
l 618 619
l 631 632
l 649 650
l 658 659
l 671 672
l 672 673
l 685 686
l 696 685
l 707 708
l 716 717
l 735 736
l 744 745
l 755 756
l 756 757
l 770 771
l 781 770
l 782 783
l 794 782
l 799 800
l 812 799
l 813 814
l 826 813
l 831 832
l 844 831

#List of body lines
l 41 42
l 155 156
l 156 157
l 180 181
l 183 184
l 211 212
l 214 215
l 243 244
l 247 248
l 248 249
l 272 273
l 274 275
l 285 274
l 292 293
l 302 292
l 303 304
l 313 303
l 320 321
l 330 320
l 334 335
l 354 355
l 355 356
l 366 367
l 376 377
l 395 396
l 404 405
l 415 416
l 416 417
l 434 435
l 435 436
l 438 439
l 439 440
l 441 442
l 452 441
l 461 462
l 472 473
l 499 500
l 505 506
l 519 520
l 520 521
l 522 523
l 525 519
l 526 527
l 529 522
l 535 526
l 542 543
l 553 542
l 554 555
l 566 554
l 571 572
l 584 571
l 587 588
l 588 589
l 608 609
l 609 610
l 619 620
l 630 631
l 640 641
l 650 640
l 657 658
l 668 657
l 673 674
l 695 696
l 697 698
l 708 697
l 715 716
l 725 715
l 726 727
l 736 726
l 743 744
l 753 743
l 757 758
l 780 781
l 783 784
l 811 812
l 814 815
l 843 844

#List of body lines
l 42 43
l 43 44
l 157 158
l 178 179
l 179 180
l 184 185
l 210 211
l 215 216
l 242 243
l 249 250
l 270 271
l 271 272
l 275 276
l 301 302
l 304 305
l 329 330
l 335 336
l 353 354
l 357 358
l 367 357
l 375 376
l 385 375
l 386 387
l 396 386
l 403 404
l 413 403
l 417 418
l 433 434
l 437 438
l 440 433
l 442 443
l 445 437
l 460 461
l 473 474
l 474 475
l 498 499
l 527 528
l 528 529
l 552 553
l 555 556
l 583 584
l 589 590
l 607 608
l 620 621
l 629 630
l 639 629
l 641 642
l 667 668
l 674 675
l 693 694
l 694 695
l 698 699
l 724 725
l 727 728
l 728 729
l 752 753
l 758 759
l 778 779
l 779 780
l 784 785
l 810 811
l 815 816
l 842 843

#List of body lines
l 44 45
l 158 159
l 177 178
l 185 186
l 186 187
l 208 209
l 209 210
l 216 217
l 217 218
l 240 241
l 241 242
l 250 251
l 269 270
l 276 277
l 277 278
l 299 300
l 300 301
l 305 306
l 306 307
l 327 328
l 328 329
l 352 353
l 358 359
l 361 352
l 383 384
l 384 385
l 387 388
l 388 389
l 411 412
l 412 413
l 443 444
l 444 445
l 459 460
l 469 459
l 475 476
l 496 497
l 497 498
l 550 551
l 551 552
l 556 557
l 557 558
l 581 582
l 582 583
l 606 607
l 611 612
l 614 606
l 621 611
l 637 638
l 638 639
l 642 643
l 643 644
l 665 666
l 666 667
l 692 693
l 699 700
l 700 701
l 722 723
l 723 724
l 729 730
l 750 751
l 751 752
l 777 778
l 785 786
l 786 787
l 808 809
l 809 810
l 816 817
l 817 818
l 840 841
l 841 842

#List of body lines
l 45 46
l 176 177
l 187 188
l 207 208
l 218 219
l 239 240
l 268 269
l 278 279
l 298 299
l 307 298
l 326 327
l 359 360
l 360 361
l 382 383
l 389 382
l 410 411
l 467 468
l 468 469
l 476 477
l 495 496
l 549 550
l 558 559
l 580 581
l 612 613
l 613 614
l 636 637
l 644 636
l 664 665
l 691 692
l 701 702
l 721 722
l 730 721
l 749 750
l 776 777
l 787 788
l 807 808
l 818 819
l 839 840

#List of body lines
l 46 47
l 175 176
l 188 175
l 206 207
l 219 220
l 238 239
l 267 268
l 279 267
l 466 467
l 477 466
l 494 495
l 548 549
l 559 548
l 579 580
l 663 664
l 690 691
l 702 690
l 775 776
l 788 775
l 806 807
l 819 820
l 838 839

#List of body lines
l 47 48
l 205 206
l 220 205
l 237 238
l 493 494
l 578 579
l 805 806
l 820 805
l 837 838

#List of body lines
l 68 69
l 69 70
l 70 71
l 71 72
l 72 73
l 73 68
l 68 71
l 71 74
l 74 75
l 75 72
l 76 70
l 74 76
l 86 87
l 87 88
l 88 89
l 89 90
l 90 91
l 91 86
l 86 89
l 89 92
l 92 93
l 93 90
l 94 88
l 92 94
l 104 105
l 105 106
l 106 107
l 107 108
l 108 109
l 109 104
l 104 107
l 107 110
l 110 111
l 111 108
l 112 106
l 110 112
l 122 123
l 123 124
l 124 125
l 125 126
l 126 127
l 127 122
l 122 125
l 125 128
l 128 129
l 129 126
l 130 124
l 128 130


