#OBJ File generated by Abaqus/CAE
#List of Vertices
v -5.47348e-06 1.96525e-06 -0.0001964
v 1.40243e-06 -9.97142e-06 0.0348085
v 1.4517e-05 -1.43815e-05 0.0697999
v 0.0350018 -9.97348e-06 -0.000191897
v 0.0700154 -1.43856e-05 -0.000200969
v 4.71654e-06 -2.10263e-06 -0.0352028
v 6.68579e-07 7.43331e-07 -0.070201
v -0.0349943 -2.10058e-06 -0.0002038
v -0.0699946 7.47443e-07 -0.000205726
v 0.00189625 0.264589 -0.00281513
v 0.0260727 0.264687 0.0225078
v 0.0495805 0.264962 0.0484268
v 0.023775 0.264474 -0.0245888
v 0.0267205 0.264451 -0.0275128
v 0.0516558 0.265017 -0.0520539
v -0.0235071 0.264649 -0.0268767
v -0.0496145 0.264746 -0.050184
v -0.0227576 0.264942 0.022012
v -0.0473063 0.265313 0.0469388
v 0.00326919 0.527263 -0.00442121
v 0.00316367 0.528345 0.0257811
v 0.00315816 0.528493 0.030554
v 0.00263029 0.53049 0.0654887
v 0.0116086 0.527076 -0.00415898
v 0.0365024 0.526498 -0.00335973
v 0.0382287 0.526469 -0.00330216
v 0.0506763 0.526791 -0.00244308
v 0.064055 0.527158 -0.00153527
v 0.0731312 0.527415 -0.000908357
v 0.00236068 0.527218 -0.0288159
v 0.00196509 0.527178 -0.0393975
v -0.000178285 0.527633 -0.0743244
v -0.0118268 0.527888 -0.00417512
v -0.031709 0.528718 -0.00385674
v -0.0640059 0.530282 -0.00282774
v -0.0666287 0.530402 -0.00275637
v 0.0144866 0.794591 -0.00984536
v 0.0376004 0.794344 0.0164511
v 0.0599743 0.794009 0.0433549
v 0.0210778 0.792928 -0.0159519
v 0.0284922 0.791074 -0.0228438
v 0.0359191 0.789199 -0.0297262
v 0.0396823 0.788248 -0.0332121
v 0.0429979 0.786413 -0.0363673
v 0.0497322 0.78269 -0.0427668
v 0.0564517 0.778965 -0.0491505
v 0.0631946 0.775238 -0.055555
v 0.00878007 0.794487 -0.0154906
v -0.0103733 0.794216 -0.0344641
v -0.0203467 0.793724 -0.0434465
v -0.0363946 0.792947 -0.0578349
v 0.0127365 0.794717 -0.00823494
v 0.00217362 0.79556 0.00140248
v -0.00839761 0.796381 0.0110692
v -0.0113066 0.796613 0.0137238
v -0.0192023 0.796548 0.0208417
v -0.0300782 0.796445 0.0306592
v -0.0372731 0.796356 0.0371748
v 0.0630376 0.793434 0.0415788
v 0.0685727 0.793736 -0.0181694
v 0.127908 0.786684 -0.0127222
v 0.122366 0.786387 0.0470286
v 0.00369767 0.800505 0.0361165
v 0.00922714 0.80081 -0.0236287
v 0.0575088 0.793143 0.101309
v -0.00181512 0.800188 0.0958571
v 0.116841 0.786082 0.10677
v 0.122366 0.786387 0.0468286
v 0.127908 0.786684 -0.0129222
v 0.0685727 0.793736 -0.0183694
v 0.0630376 0.793434 0.0413788
v 0.0575088 0.793143 0.101109
v 0.116841 0.786082 0.10657
v 0.00369767 0.800505 0.0359165
v -0.00181512 0.800188 0.0956571
v 0.00922714 0.80081 -0.0238287
v -0.0350822 0.796289 0.0401319
v -0.0322748 0.798464 -0.0197661
v 0.0276524 0.7997 -0.0169109
v 0.0248347 0.797539 0.042983
v -0.094996 0.795036 0.0372799
v -0.0921781 0.797223 -0.0226408
v -0.0378891 0.794121 0.100022
v -0.097806 0.792876 0.0971659
v 0.0220295 0.795365 0.102878
v 0.0248347 0.797539 0.042783
v 0.0276524 0.7997 -0.0171109
v -0.0322748 0.798464 -0.0199661
v -0.0350822 0.796289 0.0399319
v -0.0378891 0.794121 0.0998222
v 0.0220295 0.795365 0.102678
v -0.094996 0.795036 0.0370799
v -0.097806 0.792876 0.0969659
v -0.0921781 0.797223 -0.0228408
v 0.0618618 0.775492 -0.0586694
v 0.0604425 0.755755 -0.115304
v 0.114038 0.729901 -0.107632
v 0.115452 0.749659 -0.0509862
v 0.00825559 0.801374 -0.0663417
v 0.00685512 0.7816 -0.122981
v 0.0632655 0.795259 -0.00202665
v 0.00967783 0.821101 -0.00969442
v 0.116869 0.769392 0.00564786
v 0.115452 0.749659 -0.0511862
v 0.114038 0.729901 -0.107832
v 0.0604425 0.755755 -0.115504
v 0.0618618 0.775492 -0.0588694
v 0.0632655 0.795259 -0.00222665
v 0.116869 0.769392 0.00544786
v 0.00825559 0.801374 -0.0665417
v 0.00967783 0.821101 -0.00989442
v 0.00685512 0.7816 -0.123181
v -0.0385088 0.793801 -0.055158
v -0.0422139 0.785059 -0.1144
v 0.0176601 0.783038 -0.117856
v 0.0213652 0.791775 -0.0586083
v -0.0983817 0.795828 -0.051709
v -0.102076 0.787102 -0.110977
v -0.0348098 0.802559 0.00407457
v -0.0946742 0.804569 0.0075316
v 0.0250634 0.80053 0.000627692
v 0.0213652 0.791775 -0.0588083
v 0.0176601 0.783038 -0.118056
v -0.0422139 0.785059 -0.1146
v -0.0385088 0.793801 -0.055358
v -0.0348098 0.802559 0.00387457
v 0.0250634 0.80053 0.000427692
v -0.0983817 0.795828 -0.051909
v -0.0946742 0.804569 0.0073316
v -0.102076 0.787102 -0.111177
v 0.0675752 0.745125 -0.0603116
v 0.0682866 0.769556 -0.0606466
v 0.0668755 0.720775 -0.0599971
v 0.0661927 0.696776 -0.0596953
v 0.0655078 0.672778 -0.0593914
v 0.0648205 0.64878 -0.0590852
v 0.0641304 0.624782 -0.0587774
v 0.0634378 0.600786 -0.0584677
v 0.0627423 0.576791 -0.0581563
v 0.0620441 0.552798 -0.0578432
v 0.0613723 0.528785 -0.0575374
v 0.0606668 0.504796 -0.0572226
v 0.0599883 0.480788 -0.0569148
v 0.0593057 0.456784 -0.0566067
v 0.0586084 0.432805 -0.0563089
v 0.0579292 0.408785 -0.0559889
v 0.0572342 0.384792 -0.0556801
v 0.056535 0.360803 -0.0553713
v 0.0558617 0.336797 -0.0550709
v 0.0551642 0.312796 -0.0547518
v 0.0544814 0.288801 -0.0544526
v 0.0537739 0.264812 -0.0541349
v -0.0307331 0.742529 0.0410321
v -0.0325204 0.758762 0.0402462
v -0.033661 0.769329 0.0397233
v -0.0348002 0.790457 0.0398393
v -0.035039 0.794715 0.0398734
v -0.0218397 0.689607 0.0468166
v -0.0233622 0.697893 0.0457861
v -0.0266495 0.715954 0.0435127
v -0.0284488 0.727671 0.0424103
v -0.0117038 0.637143 0.0546318
v -0.012284 0.640128 0.0541912
v -0.0167175 0.663361 0.0506486
v -0.00362564 0.584252 0.0617541
v -0.00704855 0.609638 0.0586026
v -0.0072023 0.610806 0.058444
v -0.000879845 0.530502 0.0654865
v -0.00123223 0.549629 0.0645781
v -0.00139379 0.557459 0.0642238
v -0.00314851 0.578522 0.0622955
v -0.0062088 0.476826 0.0643848
v -0.00565457 0.48086 0.0645299
v -0.00285097 0.501556 0.0653643
v -0.00257135 0.503567 0.0654401
v -0.0170242 0.424098 0.0603291
v -0.0161479 0.428092 0.0606742
v -0.0111878 0.450359 0.0625832
v -0.0103104 0.455023 0.06289
v -0.029466 0.371782 0.0553419
v -0.0232588 0.397938 0.0578512
v -0.040026 0.319008 0.0510555
v -0.035641 0.343186 0.0528232
v -0.03521 0.345506 0.0530015
v -0.0298801 0.369886 0.0551761
v -0.0447856 0.265312 0.0493829
v -0.0441779 0.277464 0.0495431
v -0.0434261 0.292268 0.0497491
v -0.0429031 0.296443 0.0499639
v -0.0402986 0.316927 0.0509558
v -0.0403047 0.211626 0.0518406
v -0.0408894 0.216431 0.0515386
v -0.0430751 0.234199 0.0504134
v -0.0435915 0.238367 0.0501439
v -0.0442258 0.252922 0.0497189
v -0.0301459 0.158839 0.0568833
v -0.0313567 0.16455 0.0563093
v -0.0356572 0.185131 0.0541732
v -0.0368125 0.191646 0.0536076
v -0.0183162 0.106465 0.062647
v -0.0242381 0.132646 0.0597816
v -0.00809605 0.0536875 0.0675726
v -0.0118452 0.0749014 0.0657683
v -0.0127874 0.0801841 0.0653118
v -0.0173825 0.102058 0.063091
v -0.0034994 -1.63329e-05 0.0698158
v -0.00415805 0.0141149 0.0694727
v -0.00477497 0.0269576 0.0691779
v -0.00537435 0.0317505 0.068909
v -0.0075891 0.0496066 0.0678248
v 0.0485531 0.74083 0.0471628
v 0.0497669 0.746988 0.046884
v 0.0538072 0.767279 0.0459732
v 0.0552395 0.777102 0.04592
v 0.0575067 0.792446 0.0458157
v 0.0357633 0.688561 0.0516147
v 0.0419124 0.712647 0.0493125
v 0.0424069 0.714604 0.0491325
v 0.0223725 0.636555 0.0573506
v 0.0242802 0.644134 0.0564882
v 0.0289592 0.662584 0.0544277
v 0.0113692 0.583969 0.0626208
v 0.0163668 0.610399 0.0601426
v 0.0166551 0.611617 0.0600111
v 0.00611961 0.53037 0.0656236
v 0.00638493 0.534832 0.0654486
v 0.00772623 0.556618 0.0645575
v 0.00775944 0.557288 0.0645494
v 0.0109649 0.580999 0.062835
v 0.00977348 0.476581 0.0644819
v 0.00830395 0.490136 0.0650426
v 0.00685623 0.503393 0.0655846
v 0.00630903 0.523083 0.0656222
v 0.0201402 0.423785 0.0601428
v 0.0164221 0.440782 0.06171
v 0.0143764 0.450061 0.0625665
v 0.0119678 0.463964 0.0635697
v 0.0328499 0.371561 0.0548954
v 0.0317925 0.375909 0.0553232
v 0.0264964 0.397673 0.0574784
v 0.0215789 0.417859 0.0595376
v 0.0433033 0.318763 0.0510778
v 0.04146 0.329186 0.0517202
v 0.0386299 0.345303 0.052669
v 0.0370313 0.352527 0.0532845
v 0.0470917 0.264962 0.0509156
v 0.0462773 0.291945 0.0504236
v 0.0451554 0.302135 0.0506781
v 0.0421503 0.21135 0.0543179
v 0.0455974 0.238041 0.0523467
v 0.0457102 0.240332 0.052225
v 0.0311936 0.158726 0.0592512
v 0.036455 0.181693 0.056985
v 0.0371971 0.184913 0.0566708
v 0.0412519 0.206578 0.0547455
v 0.0182546 0.106551 0.0643761
v 0.0201989 0.114394 0.063628
v 0.0247029 0.132635 0.0618897
v 0.0306332 0.156454 0.0594763
v 0.00772318 0.0537409 0.0682944
v 0.00963654 0.0645317 0.0675976
v 0.0124216 0.080272 0.0665761
v 0.0145281 0.0897056 0.0657759
v 0.00350765 -1.18298e-05 0.0698044
v 0.00460381 0.0269662 0.0694119
v 0.00517595 0.0317975 0.069209
v 0.0590113 0.739697 0.0384471
v 0.0604265 0.766588 0.0404465
v 0.0628557 0.791884 0.0413434
v 0.0594124 0.686149 0.031651
v 0.0587054 0.712876 0.0354649
v 0.0587848 0.719672 0.0362239
v 0.0630551 0.633114 0.0222851
v 0.0612266 0.655699 0.0264793
v 0.0609218 0.65957 0.0271951
v 0.0682805 0.580347 0.0120121
v 0.0655918 0.606728 0.0171457
v 0.0731345 0.527404 0.0025989
v 0.072619 0.533533 0.00362957
v 0.0717635 0.543505 0.00532114
v 0.0709047 0.553488 0.00700543
v 0.0708738 0.553928 0.00708994
v 0.0743801 0.473627 -0.000142196
v 0.0744745 0.500598 -0.000218556
v 0.0744195 0.501615 -0.000116393
v 0.0738762 0.512425 0.0010283
v 0.0733296 0.523244 0.002167
v 0.0702204 0.420529 0.00829185
v 0.070267 0.420935 0.00818706
v 0.0724466 0.442596 0.00373091
v 0.0728805 0.44685 0.0028473
v 0.0739116 0.465292 0.000797591
v 0.0628566 0.369282 0.0235575
v 0.0646464 0.381097 0.019817
v 0.0667428 0.394748 0.015478
v 0.0669095 0.396115 0.0151128
v 0.0685818 0.408444 0.0116581
v 0.0557404 0.317924 0.0385646
v 0.0562752 0.322184 0.0374105
v 0.0578893 0.334786 0.0340015
v 0.0590439 0.343789 0.0315567
v 0.0595768 0.347337 0.0304436
v 0.0614269 0.35974 0.0265576
v 0.0522762 0.26469 0.0462218
v 0.053406 0.291525 0.0436489
v 0.0543304 0.302116 0.0416103
v 0.0533983 0.210824 0.0437913
v 0.0523549 0.237703 0.0461517
v 0.0523337 0.242197 0.0461682
v 0.0577311 0.158044 0.0334512
v 0.0558719 0.177773 0.0379106
v 0.0552558 0.184252 0.0393961
v 0.0541937 0.199414 0.0419103
v 0.0634343 0.106168 0.0195836
v 0.0625948 0.113658 0.0216177
v 0.0605577 0.132076 0.0266114
v 0.0596176 0.140742 0.0288852
v 0.057856 0.156919 0.0331466
v 0.0681749 0.0536928 0.00788179
v 0.0667047 0.0721568 0.0115451
v 0.0660578 0.0800908 0.0131216
v 0.0649279 0.0913117 0.0159072
v 0.0700024 -1.18337e-05 0.00330965
v 0.0699743 0.00156523 0.00336709
v 0.0695388 0.0269419 0.00449619
v 0.0682865 0.0514176 0.00759158
v 0.0444419 0.730303 -0.0328365
v 0.0477561 0.737716 -0.03657
v 0.051731 0.746554 -0.0410503
v 0.0544482 0.752682 -0.0441373
v 0.0557301 0.755081 -0.0451581
v 0.0598906 0.762826 -0.0484566
v 0.0640282 0.770607 -0.051768
v 0.0656567 0.773665 -0.0530644
v 0.0357992 0.682548 -0.00976976
v 0.035928 0.684267 -0.0105403
v 0.0365879 0.691836 -0.013963
v 0.0372457 0.699443 -0.0174223
v 0.0379153 0.707024 -0.020867
v 0.0379087 0.707049 -0.0208734
v 0.0414455 0.719675 -0.0273569
v 0.0447212 0.631476 0.00412248
v 0.0416791 0.643749 0.00162385
v 0.0383625 0.657155 -0.00111081
v 0.0374061 0.666552 -0.00431249
v 0.0622297 0.580534 0.00390911
v 0.0605015 0.585459 0.00423338
v 0.0560649 0.598117 0.00507501
v 0.0533217 0.605952 0.00559394
v 0.051576 0.611133 0.00529058
v 0.0469991 0.624715 0.00450602
v 0.0735885 0.52852 -0.00428942
v 0.0732909 0.530427 -0.00397048
v 0.0710275 0.544942 -0.00153833
v 0.0694917 0.554842 0.000114732
v 0.0679894 0.56016 0.000902959
v 0.065786 0.567958 0.00205617
v 0.063576 0.575771 0.00319948
v 0.0746988 0.475784 -0.0155826
v 0.0747833 0.487812 -0.0127048
v 0.0748545 0.502037 -0.00929894
v 0.0738654 0.522788 -0.00537426
v 0.0707536 0.423871 -0.029875
v 0.073248 0.449757 -0.0226296
v 0.0740203 0.463516 -0.0189161
v 0.0639613 0.371889 -0.0427407
v 0.0671621 0.395243 -0.0373876
v 0.0675324 0.39797 -0.0367603
v 0.0702019 0.419467 -0.0310434
v 0.0573958 0.318832 -0.0501413
v 0.058587 0.329408 -0.0490108
v 0.0604446 0.345513 -0.0473184
v 0.063717 0.370068 -0.0430407
v 0.0541351 0.265013 -0.0495791
v 0.0551739 0.291952 -0.0509136
v 0.0554353 0.211635 -0.0416875
v 0.0552296 0.216611 -0.0425696
v 0.054324 0.238223 -0.0463225
v 0.0542992 0.241463 -0.0467175
v 0.0541465 0.262529 -0.0492718
v 0.059314 0.159037 -0.0302326
v 0.0573999 0.182447 -0.0355651
v 0.0571722 0.185271 -0.0362101
v 0.0640327 0.10661 -0.0181212
v 0.0640123 0.106722 -0.0181412
v 0.0616519 0.132843 -0.0240853
v 0.0681323 0.0537295 -0.00809792
v 0.0665452 0.0760043 -0.0119183
v 0.0662519 0.0802755 -0.0126662
v 0.0700093 -1.63372e-05 -0.00369295
v 0.0698388 0.0082242 -0.00406381
v 0.0694892 0.0269631 -0.00492112
v 0.0694403 0.0279938 -0.00504469
v 0.0684344 0.0480236 -0.0074259
v 0.0354724 0.730748 -0.0442386
v 0.0489603 0.753154 -0.0508674
v 0.050379 0.755621 -0.0517509
v 0.0554334 0.764331 -0.0548568
v 0.0604942 0.773053 -0.0579802
v 0.0611315 0.774185 -0.0583787
v 0.0112815 0.682971 -0.0387766
v 0.0133713 0.687476 -0.0390064
v 0.0180296 0.697635 -0.0395023
v 0.0225141 0.707458 -0.0399744
v 0.0227078 0.707797 -0.0400423
v 0.028239 0.717759 -0.0418646
v 0.0337692 0.727707 -0.0436724
v -0.00197591 0.631373 -0.0459959
v 0.00247666 0.654898 -0.0414194
v 0.00294929 0.657409 -0.0409376
v -0.00233061 0.579609 -0.0610246
v -0.00263277 0.58619 -0.0590083
v -0.0032115 0.599377 -0.0549585
v -0.00348992 0.605402 -0.0531194
v -0.00303395 0.612868 -0.0510739
v -0.0022486 0.626621 -0.0473107
v 0.00333056 0.527623 -0.0743239
v 0.00301571 0.530467 -0.0737031
v 0.0017081 0.542228 -0.071079
v 0.000411203 0.553807 -0.0684909
v -0.000692487 0.564033 -0.0655292
v -0.00178931 0.574408 -0.0625291
v 0.0117053 0.474676 -0.0802087
v 0.00677017 0.501137 -0.0781639
v 0.00564337 0.509867 -0.0768999
v 0.0243731 0.422242 -0.078732
v 0.0185953 0.444931 -0.0801248
v 0.0177397 0.448362 -0.0803483
v 0.0128757 0.469511 -0.0802173
v 0.0372833 0.370339 -0.0714173
v 0.0366382 0.373021 -0.0718573
v 0.0310542 0.396272 -0.0756008
v 0.0308862 0.396947 -0.0756886
v 0.0464463 0.318023 -0.0618824
v 0.043406 0.338489 -0.0655965
v 0.0425222 0.344305 -0.0666451
v 0.049222 0.26465 -0.0545637
v 0.0488653 0.283766 -0.0567857
v 0.0487104 0.291446 -0.0576696
v 0.043725 0.21102 -0.0534366
v 0.0440746 0.213515 -0.0534198
v 0.0465882 0.231039 -0.053231
v 0.0475378 0.237737 -0.0531649
v 0.0324354 0.158364 -0.0571185
v 0.0336145 0.163403 -0.0566847
v 0.0385243 0.184575 -0.0548977
v 0.0393653 0.188902 -0.0546492
v 0.0195081 0.106221 -0.0626505
v 0.0259496 0.132296 -0.0597983
v 0.00844631 0.0536423 -0.0678143
v 0.00871262 0.0550055 -0.0676981
v 0.0134945 0.0800546 -0.0654093
v 0.0136017 0.0804683 -0.0653784
v 0.019361 0.105582 -0.0627234
v 0.00350417 -1.80958e-05 -0.0701859
v 0.00366355 0.00308849 -0.0701305
v 0.00452628 0.0201311 -0.0696991
v 0.00486252 0.0269451 -0.0695272
v 0.00625994 0.0373062 -0.0688652
v -0.0328647 0.7393 -0.0545761
v -0.033986 0.766153 -0.0569941
v -0.0339266 0.791372 -0.0602981
v -0.0273829 0.685617 -0.0534978
v -0.0301016 0.708371 -0.0534283
v -0.0306046 0.712431 -0.0533978
v -0.0191496 0.632393 -0.0572707
v -0.0234745 0.658928 -0.0548218
v -0.0234795 0.659014 -0.0548266
v -0.0104431 0.579652 -0.0647902
v -0.0146984 0.605993 -0.0606871
v -0.00362704 0.526892 -0.0740348
v -0.00455018 0.534994 -0.0726196
v -0.00601586 0.547651 -0.0703512
v -0.00665586 0.553317 -0.0693594
v -0.0104256 0.57959 -0.0648111
v -0.00347194 0.473352 -0.0800055
v -0.00227873 0.500236 -0.0779308
v -0.00263953 0.507475 -0.0768697
v -0.00335763 0.521731 -0.0747886
v -0.0130819 0.420369 -0.0778499
v -0.0102191 0.433219 -0.0788678
v -0.00723038 0.446622 -0.0799412
v -0.00606382 0.454949 -0.0799641
v -0.0280239 0.369241 -0.0691377
v -0.0249133 0.379497 -0.0711237
v -0.0202931 0.394633 -0.0740555
v -0.0179249 0.403085 -0.075297
v -0.0144403 0.41549 -0.0771413
v -0.0414242 0.317992 -0.0587971
v -0.0397956 0.324877 -0.0601267
v -0.0364923 0.338901 -0.0628469
v -0.0353379 0.343795 -0.0637879
v -0.0327881 0.352672 -0.0656589
v -0.0288663 0.366295 -0.0685111
v -0.0471279 0.264746 -0.0526699
v -0.045486 0.291602 -0.0549033
v -0.0444447 0.298323 -0.0558929
v -0.0432358 0.210968 -0.0527736
v -0.044048 0.218253 -0.0526035
v -0.0462602 0.23777 -0.0521096
v -0.0466379 0.249068 -0.0523329
v -0.0324514 0.15824 -0.0568952
v -0.0353741 0.171029 -0.0557082
v -0.0384417 0.184458 -0.0544755
v -0.0400693 0.193394 -0.0538959
v -0.0191332 0.106252 -0.0628118
v -0.0208077 0.112783 -0.0620603
v -0.0258053 0.13223 -0.0597917
v -0.0300522 0.14881 -0.0579374
v -0.00799717 0.0536779 -0.0680261
v -0.0105951 0.0673757 -0.0668115
v -0.0130125 0.0801228 -0.0656634
v -0.015245 0.0896423 -0.0646227
v -0.00349254 -2.9979e-06 -0.070204
v -0.00382788 0.00743453 -0.0700313
v -0.00468444 0.0269432 -0.0696166
v -0.00643208 0.040926 -0.0687692
v -0.0419895 0.740869 -0.0454255
v -0.0397327 0.767222 -0.0508671
v -0.0394074 0.774192 -0.0520477
v -0.0385483 0.792258 -0.0551349
v -0.0483485 0.688686 -0.0331621
v -0.0449383 0.714722 -0.0394387
v -0.0424202 0.736939 -0.044533
v -0.055706 0.636617 -0.0208517
v -0.054607 0.644256 -0.022626
v -0.0520065 0.66268 -0.0268711
v -0.0624041 0.58398 -0.0108621
v -0.0596391 0.607016 -0.0148258
v -0.0592417 0.610403 -0.0153937
v -0.0666385 0.530389 -0.00623394
v -0.0662255 0.537115 -0.00658378
v -0.0651994 0.553738 -0.00744136
v -0.0649849 0.557315 -0.00762726
v -0.063219 0.57562 -0.00984516
v -0.0663091 0.476666 -0.0106846
v -0.0667344 0.491951 -0.00876907
v -0.0670474 0.503436 -0.00734017
v -0.0668236 0.517548 -0.00677068
v -0.062572 0.423929 -0.0215801
v -0.0626915 0.425231 -0.0212799
v -0.0645416 0.447904 -0.0161291
v -0.0647251 0.450174 -0.0156294
v -0.0659696 0.470722 -0.011776
v -0.0575522 0.371681 -0.0343146
v -0.058259 0.378782 -0.0325961
v -0.0601073 0.397825 -0.0279919
v -0.0532654 0.318851 -0.0445109
v -0.0543146 0.333229 -0.0420752
v -0.0551931 0.345404 -0.0400174
v -0.0561341 0.355835 -0.0377525
v -0.0517922 0.265037 -0.0474291
v -0.0519686 0.285031 -0.0472732
v -0.052041 0.292023 -0.0471962
v -0.0529284 0.311353 -0.045256
v -0.0540346 0.211481 -0.0414107
v -0.0535812 0.219563 -0.042579
v -0.0525499 0.238151 -0.0452594
v -0.0522993 0.24688 -0.0459595
v -0.0518704 0.262557 -0.0472309
v -0.0586159 0.158877 -0.0301892
v -0.0581653 0.163648 -0.0312869
v -0.0561267 0.18507 -0.0362239
v -0.055723 0.190076 -0.0372066
v -0.0639697 0.106656 -0.0175427
v -0.0628653 0.117481 -0.0201123
v -0.0613125 0.13279 -0.023782
v -0.0682995 0.0537813 -0.00755418
v -0.0676972 0.0620445 -0.0089332
v -0.0663678 0.0803304 -0.0119637
v -0.0654275 0.0907322 -0.0141537
v -0.0699998 -2.994e-06 -0.00369673
v -0.0697462 0.0146187 -0.004237
v -0.0695499 0.0269639 -0.00470171
v -0.0414631 0.742659 0.0299479
v -0.0413336 0.744935 0.0302111
v -0.0399247 0.769419 0.0330537
v -0.0398771 0.775516 0.0334347
v -0.0397543 0.794795 0.0346979
v -0.0473091 0.689682 0.0213084
v -0.0451244 0.7073 0.0243754
v -0.0440401 0.716088 0.0259184
v -0.0548425 0.637083 0.01172
v -0.050991 0.663369 0.0164697
v -0.0619515 0.584141 0.00385429
v -0.060188 0.598015 0.00571003
v -0.0585704 0.610691 0.00738981
v -0.0554181 0.63303 0.0110607
v -0.0663671 0.530454 0.000739594
v -0.0662313 0.53296 0.000821697
v -0.0652241 0.548535 0.00123522
v -0.0646601 0.557385 0.00147729
v -0.0635265 0.568572 0.00245965
v -0.0657622 0.476762 0.00584483
v -0.0659327 0.481158 0.0052682
v -0.0665324 0.498674 0.00293115
v -0.0667032 0.503515 0.00227642
v -0.0664492 0.525584 0.00102886
v -0.0617042 0.424014 0.0165287
v -0.0621901 0.429665 0.0152854
v -0.0639998 0.450277 0.0107667
v -0.0644208 0.456464 0.00962433
v -0.056434 0.371685 0.0288248
v -0.0591013 0.397845 0.022679
v -0.0517871 0.318966 0.0394675
v -0.0535944 0.3413 0.0353329
v -0.0539306 0.345422 0.0345878
v -0.0561075 0.368201 0.029593
v -0.0497721 0.265296 0.0444717
v -0.0500633 0.279798 0.0436901
v -0.0503092 0.292259 0.0430076
v -0.0506207 0.298064 0.0422337
v -0.0516093 0.31577 0.039897
v -0.0520888 0.21158 0.0402304
v -0.0521023 0.211711 0.0402549
v -0.0508639 0.231685 0.0426049
v -0.0504679 0.238331 0.0434096
v -0.05015 0.250743 0.0439002
v -0.0571093 0.158789 0.0301015
v -0.0570035 0.159735 0.0302772
v -0.0543893 0.185071 0.035633
v -0.0543387 0.185604 0.0357179
v -0.0629046 0.106466 0.0180914
v -0.0600139 0.132634 0.0240981
v -0.0678338 0.0536966 0.00781779
v -0.0658924 0.0765567 0.0118775
v -0.0655873 0.0801867 0.0125099
v -0.0632913 0.102689 0.0173029
v -0.0699972 -1.80915e-05 0.00331549
v -0.0697633 0.0106057 0.00380065
v -0.0694027 0.0269575 0.00453453
v -0.0691828 0.030774 0.00500557
v -0.0679847 0.051023 0.00748785
v -0.0575725 0.0607029 -0.335641
v -0.0786484 0.0607029 -0.335641
v -0.0786484 -0.00585062 -0.335641
v -0.0575725 -0.00585062 -0.335641
v -0.0771062 -0.00225295 -0.335641
v -0.074793 -0.00225295 -0.335641
v -0.074793 0.00134473 -0.335641
v -0.0771062 0.00134473 -0.335641
v -0.0771062 0.00134473 -0.335641
v -0.074793 0.00134473 -0.335641
v -0.074793 0.00494124 -0.335641
v -0.0771062 0.00494124 -0.335641
v -0.0771062 0.00494124 -0.335641
v -0.074793 0.00494124 -0.335641
v -0.074793 0.00853892 -0.335641
v -0.0771062 0.00853892 -0.335641
v -0.0771062 0.00853892 -0.335641
v -0.074793 0.00853892 -0.335641
v -0.074793 0.0121366 -0.335641
v -0.0771062 0.0121366 -0.335641
v -0.0771062 0.0121366 -0.335641
v -0.074793 0.0121366 -0.335641
v -0.074793 0.0157343 -0.335641
v -0.0771062 0.0157343 -0.335641
v -0.0771062 0.0157343 -0.335641
v -0.074793 0.0157343 -0.335641
v -0.074793 0.019332 -0.335641
v -0.0771062 0.019332 -0.335641
v -0.0771062 0.019332 -0.335641
v -0.074793 0.019332 -0.335641
v -0.074793 0.0229296 -0.335641
v -0.0771062 0.0229296 -0.335641
v -0.0771062 0.0229296 -0.335641
v -0.074793 0.0229296 -0.335641
v -0.074793 0.0265261 -0.335641
v -0.0771062 0.0265261 -0.335641
v -0.0771062 0.0265261 -0.335641
v -0.074793 0.0265261 -0.335641
v -0.074793 0.0301238 -0.335641
v -0.0771062 0.0301238 -0.335641
v -0.0771062 0.0301238 -0.335641
v -0.074793 0.0301238 -0.335641
v -0.074793 0.0337215 -0.335641
v -0.0771062 0.0337215 -0.335641
v -0.0771062 0.0337215 -0.335641
v -0.074793 0.0337215 -0.335641
v -0.074793 0.0373192 -0.335641
v -0.0771062 0.0373192 -0.335641
v -0.0771062 0.0373192 -0.335641
v -0.074793 0.0373192 -0.335641
v -0.074793 0.0409168 -0.335641
v -0.0771062 0.0409168 -0.335641
v -0.0771062 -0.00225295 -0.335641
v -0.074022 -0.00225295 -0.335641
v -0.0771062 0.00134473 -0.335641
v -0.074022 0.00134473 -0.335641
v -0.0771062 0.00494124 -0.335641
v -0.074022 0.00494124 -0.335641
v -0.0771062 0.00853892 -0.335641
v -0.074022 0.00853892 -0.335641
v -0.0771062 0.0121366 -0.335641
v -0.074022 0.0121366 -0.335641
v -0.0771062 0.0157343 -0.335641
v -0.074022 0.0157343 -0.335641
v -0.0771062 0.019332 -0.335641
v -0.074022 0.019332 -0.335641
v -0.0771062 0.0229296 -0.335641
v -0.074022 0.0229296 -0.335641
v -0.0771062 0.0265261 -0.335641
v -0.074022 0.0265261 -0.335641
v -0.0771062 0.0301238 -0.335641
v -0.074022 0.0301238 -0.335641
v -0.0771062 0.0337215 -0.335641
v -0.074022 0.0337215 -0.335641
v -0.0771062 0.0373192 -0.335641
v -0.074022 0.0373192 -0.335641
v -0.0771062 0.0409168 -0.335641
v -0.074022 0.0409168 -0.335641
v -0.074793 0.0409168 -0.335641
v -0.074793 -0.00225295 -0.335641

#List of body polygons
f 59 60 61
f 59 61 62
f 59 63 64
f 59 64 60
f 63 59 65
f 63 65 66
f 59 62 67
f 59 67 65
f 77 78 79
f 77 79 80
f 77 81 82
f 77 82 78
f 81 77 83
f 81 83 84
f 77 80 85
f 77 85 83
f 95 96 97
f 95 97 98
f 95 99 100
f 95 100 96
f 99 95 101
f 99 101 102
f 95 98 103
f 95 103 101
f 113 114 115
f 113 115 116
f 113 117 118
f 113 118 114
f 117 113 119
f 117 119 120
f 113 116 121
f 113 121 119

#List of body lines
l 1 2
l 2 3
l 1 4
l 4 5
l 1 6
l 6 7
l 1 8
l 8 9
l 10 11
l 11 12
l 10 13
l 10 16
l 16 17
l 10 18
l 18 19
l 21 22
l 22 23
l 20 24
l 33 34
l 34 35
l 37 38
l 38 39
l 50 51
l 57 58
l 131 132
l 133 131
l 134 133
l 135 134
l 136 135
l 137 136
l 138 137
l 139 138
l 140 139
l 141 140
l 142 141
l 143 142
l 144 143
l 145 144
l 146 145
l 147 146
l 148 147
l 149 148
l 150 149
l 151 150
l 152 151
l 158 159
l 163 164
l 164 158
l 176 177
l 180 181
l 181 176
l 185 180
l 196 197
l 200 201
l 201 196
l 205 200
l 216 217
l 220 221
l 221 216
l 239 240
l 240 241
l 257 258
l 258 259
l 273 274
l 276 277
l 277 273
l 281 282
l 282 276
l 293 294
l 303 293
l 315 316
l 316 317
l 363 364
l 364 365
l 369 363
l 381 382
l 385 386
l 386 381
l 426 427
l 433 426
l 444 445
l 448 449
l 449 444
l 454 448
l 466 467
l 467 468
l 469 470
l 470 466
l 475 469
l 484 485
l 494 484
l 507 508
l 508 509
l 522 523
l 523 524
l 526 527
l 527 522
l 540 541
l 546 547
l 547 540
l 561 562
l 566 567
l 567 561
l 580 581
l 583 584
l 584 580
l 588 583
l 599 600
l 603 604
l 604 599
l 608 603
l 619 620
l 623 624
l 624 619
l 628 623

#List of body lines
l 13 14
l 14 15
l 20 21
l 24 25
l 30 31
l 31 32
l 20 33
l 35 36
l 48 49
l 49 50
l 56 57
l 159 160
l 160 161
l 162 163
l 166 167
l 167 162
l 177 178
l 178 179
l 183 184
l 184 185
l 197 198
l 198 199
l 203 204
l 204 205
l 211 212
l 217 218
l 218 211
l 219 220
l 224 219
l 234 235
l 238 239
l 241 234
l 245 238
l 252 253
l 256 257
l 259 252
l 263 256
l 270 271
l 271 272
l 274 275
l 275 270
l 280 281
l 294 295
l 295 296
l 302 303
l 314 315
l 317 318
l 322 314
l 327 328
l 341 327
l 354 355
l 355 356
l 359 360
l 365 359
l 367 368
l 368 369
l 376 377
l 382 383
l 383 376
l 384 385
l 388 389
l 389 384
l 395 396
l 396 397
l 407 395
l 419 420
l 420 421
l 427 428
l 428 429
l 431 432
l 432 433
l 445 446
l 446 447
l 453 454
l 463 464
l 468 463
l 473 474
l 474 475
l 485 486
l 486 487
l 493 494
l 502 503
l 506 507
l 509 502
l 513 506
l 518 519
l 519 520
l 524 518
l 525 526
l 529 530
l 530 525
l 541 542
l 545 546
l 551 545
l 562 563
l 563 564
l 565 566
l 571 565
l 575 576
l 581 582
l 582 575
l 586 587
l 587 588
l 600 601
l 601 602
l 606 607
l 607 608
l 620 621
l 621 622
l 626 627
l 627 628

#List of body lines
l 25 26
l 26 27
l 20 30
l 37 48
l 54 55
l 55 56
l 153 154
l 161 153
l 165 166
l 171 165
l 172 173
l 179 172
l 182 183
l 190 182
l 191 192
l 199 191
l 202 203
l 210 202
l 212 213
l 213 214
l 222 223
l 223 224
l 229 222
l 235 236
l 236 237
l 243 244
l 244 245
l 253 254
l 254 255
l 261 262
l 262 263
l 267 268
l 268 269
l 272 267
l 279 280
l 296 297
l 300 301
l 301 302
l 310 311
l 318 310
l 320 321
l 321 322
l 328 329
l 339 340
l 340 341
l 353 354
l 356 357
l 360 361
l 361 362
l 366 367
l 373 366
l 377 378
l 378 379
l 387 388
l 394 387
l 397 398
l 406 407
l 418 419
l 421 422
l 423 424
l 424 425
l 429 423
l 430 431
l 435 436
l 436 430
l 440 441
l 447 440
l 451 452
l 452 453
l 460 461
l 461 462
l 464 465
l 465 460
l 472 473
l 487 488
l 491 492
l 492 493
l 503 504
l 504 505
l 511 512
l 512 513
l 520 521
l 528 529
l 535 528
l 542 543
l 543 544
l 549 550
l 550 551
l 556 557
l 564 556
l 569 570
l 570 571
l 576 577
l 577 578
l 585 586
l 593 585
l 594 595
l 602 594
l 605 606
l 613 605
l 614 615
l 622 614
l 625 626
l 633 625

#List of body lines
l 27 28
l 53 54
l 154 155
l 155 156
l 169 170
l 170 171
l 173 174
l 189 190
l 192 193
l 209 210
l 214 215
l 227 228
l 228 229
l 230 231
l 237 230
l 242 243
l 248 242
l 249 250
l 250 251
l 255 249
l 260 261
l 266 260
l 278 279
l 287 278
l 288 289
l 297 288
l 299 300
l 311 312
l 312 313
l 319 320
l 326 319
l 329 330
l 330 331
l 338 339
l 352 353
l 357 358
l 362 352
l 371 372
l 372 373
l 379 380
l 393 394
l 398 399
l 405 406
l 411 412
l 417 418
l 422 411
l 425 417
l 434 435
l 438 439
l 439 434
l 441 442
l 450 451
l 459 450
l 471 472
l 479 471
l 480 481
l 488 480
l 490 491
l 498 499
l 505 498
l 510 511
l 517 510
l 533 534
l 534 535
l 536 537
l 544 536
l 548 549
l 555 548
l 557 558
l 558 559
l 568 569
l 573 574
l 574 568
l 578 579
l 591 592
l 592 593
l 595 596
l 612 613
l 615 616
l 632 633

#List of body lines
l 28 29
l 52 53
l 156 157
l 168 169
l 174 175
l 175 168
l 187 188
l 188 189
l 193 194
l 194 195
l 207 208
l 208 209
l 226 227
l 231 232
l 232 233
l 246 247
l 247 248
l 251 246
l 264 265
l 265 266
l 286 287
l 289 290
l 298 299
l 306 298
l 307 308
l 308 309
l 313 307
l 324 325
l 325 326
l 331 332
l 337 338
l 346 347
l 358 346
l 370 371
l 374 375
l 375 370
l 380 374
l 391 392
l 392 393
l 399 400
l 403 404
l 404 405
l 412 413
l 437 438
l 442 443
l 443 437
l 457 458
l 458 459
l 478 479
l 481 482
l 482 483
l 489 490
l 497 489
l 499 500
l 500 501
l 515 516
l 516 517
l 532 533
l 537 538
l 538 539
l 553 554
l 554 555
l 559 560
l 572 573
l 590 591
l 596 597
l 597 598
l 610 611
l 611 612
l 616 617
l 617 618
l 630 631
l 631 632

#List of body lines
l 37 40
l 37 52
l 186 187
l 195 186
l 206 207
l 225 226
l 233 225
l 285 286
l 290 291
l 291 292
l 304 305
l 305 306
l 309 304
l 323 324
l 332 333
l 336 337
l 347 348
l 390 391
l 402 403
l 413 414
l 414 415
l 456 457
l 476 477
l 477 478
l 483 476
l 495 496
l 496 497
l 501 495
l 514 515
l 531 532
l 539 531
l 552 553
l 560 552
l 589 590
l 598 589
l 609 610
l 618 609
l 629 630

#List of body lines
l 40 41
l 283 284
l 284 285
l 292 283
l 333 334
l 335 336
l 345 335
l 348 349
l 349 350
l 401 402
l 409 410
l 410 401
l 415 416
l 455 456

#List of body lines
l 41 42
l 343 344
l 344 345
l 350 351
l 408 409
l 416 408

#List of body lines
l 42 43
l 43 44
l 342 343
l 351 342

#List of body lines
l 44 45

#List of body lines
l 45 46

#List of body lines
l 46 47

#List of body lines
l 68 69
l 69 70
l 70 71
l 71 72
l 72 73
l 73 68
l 68 71
l 71 74
l 74 75
l 75 72
l 76 70
l 74 76
l 86 87
l 87 88
l 88 89
l 89 90
l 90 91
l 91 86
l 86 89
l 89 92
l 92 93
l 93 90
l 94 88
l 92 94
l 104 105
l 105 106
l 106 107
l 107 108
l 108 109
l 109 104
l 104 107
l 107 110
l 110 111
l 111 108
l 112 106
l 110 112
l 122 123
l 123 124
l 124 125
l 125 126
l 126 127
l 127 122
l 122 125
l 125 128
l 128 129
l 129 126
l 130 124
l 128 130


