#OBJ File generated by Abaqus/CAE
#List of Vertices
v 1.35689e-05 -1.8049e-05 -0.000194844
v -6.06047e-06 -1.38892e-06 0.0348081
v -8.10569e-06 -2.91003e-07 0.0698086
v 0.0349913 -1.39183e-06 -0.000189284
v 0.0700063 -2.9682e-07 -0.000205741
v 7.74285e-06 -4.75795e-06 -0.0352022
v -1.24156e-06 -7.79397e-06 -0.0701903
v -0.0349883 -4.75505e-06 -0.000206209
v -0.0699906 -7.78816e-06 -0.000200932
v 0.00171257 0.264578 -0.00229416
v 0.0259381 0.264683 0.0229696
v 0.0495906 0.264949 0.0487708
v 0.017212 0.264499 -0.0177543
v 0.0264795 0.26447 -0.027016
v 0.0512998 0.265036 -0.0516793
v -0.0236168 0.264683 -0.0264472
v -0.0495342 0.264822 -0.0499668
v -0.0229985 0.264918 0.0224818
v -0.0476361 0.265268 0.0473658
v 0.00323163 0.52813 -0.00420146
v 0.00302133 0.528813 0.0236441
v 0.00296618 0.528983 0.0307927
v 0.0022478 0.53047 0.0657507
v 0.0150006 0.527956 -0.00384863
v 0.0382185 0.527591 -0.00317452
v 0.0398015 0.527618 -0.00306843
v 0.054705 0.527976 -0.00215765
v 0.0696355 0.528321 -0.00126144
v 0.0731275 0.528414 -0.00104661
v 0.00303042 0.528138 -0.0100818
v 0.00206974 0.528186 -0.0391708
v 1.83456e-05 0.528696 -0.0741036
v -0.00834273 0.528472 -0.00399678
v -0.0317368 0.529148 -0.00358273
v -0.0666903 0.530418 -0.0023168
v 0.00971759 0.796812 -0.00716143
v 0.0334581 0.79603 0.0185533
v 0.0464314 0.795261 0.033326
v 0.0565202 0.794648 0.044834
v 0.0152137 0.796042 -0.0124501
v 0.0218339 0.795113 -0.0188176
v 0.0284359 0.794184 -0.0251674
v 0.0347843 0.793305 -0.0312868
v 0.0350117 0.793221 -0.0315075
v 0.041018 0.791014 -0.0373435
v 0.0470157 0.788829 -0.0431918
v 0.0530261 0.786622 -0.0490311
v 0.0590282 0.784436 -0.0548824
v 0.00108787 0.796605 -0.0155067
v -0.0137539 0.796227 -0.029886
v -0.0154056 0.796183 -0.0315028
v -0.0294129 0.795182 -0.0439926
v -0.0414661 0.794292 -0.054783
v 0.00701054 0.79686 -0.00456988
v -0.00647108 0.79714 0.00829302
v -0.0155937 0.797319 0.0170079
v -0.0201579 0.797118 0.0213265
v -0.0342763 0.796507 0.0346815
v -0.0409885 0.79621 0.0410362
v 0.0594418 0.794335 0.0429559
v 0.0634951 0.796464 -0.0168906
v 0.123084 0.790665 -0.0130641
v 0.119052 0.788543 0.0467539
v -0.000145171 0.80014 0.0391225
v 0.0038868 0.802252 -0.0206859
v 0.0554104 0.792211 0.102777
v -0.00418231 0.798009 0.0989555
v 0.115016 0.786406 0.106591
v 0.119052 0.788543 0.0465539
v 0.123084 0.790665 -0.0132641
v 0.0634951 0.796464 -0.0170906
v 0.0594418 0.794335 0.0427559
v 0.0554104 0.792211 0.102577
v 0.115016 0.786406 0.106391
v -0.000145171 0.80014 0.0389225
v -0.00418231 0.798009 0.0987555
v 0.0038868 0.802252 -0.0208859
v -0.0387118 0.796121 0.0439277
v -0.0372745 0.799386 -0.0159696
v 0.0226737 0.801601 -0.0144288
v 0.0212292 0.79833 0.0454823
v -0.0986305 0.793899 0.0423643
v -0.0971985 0.797155 -0.0175192
v -0.0401181 0.792831 0.103819
v -0.100069 0.790615 0.102282
v 0.0198056 0.795058 0.105374
v 0.0212292 0.79833 0.0452823
v 0.0226737 0.801601 -0.0146288
v -0.0372745 0.799386 -0.0161696
v -0.0387118 0.796121 0.0437277
v -0.0401181 0.792831 0.103619
v 0.0198056 0.795058 0.105174
v -0.0986305 0.793899 0.0421643
v -0.100069 0.790615 0.102082
v -0.0971985 0.797155 -0.0177192
v 0.0574149 0.784954 -0.0577121
v 0.0572158 0.772099 -0.116319
v 0.113331 0.751366 -0.111974
v 0.113559 0.764218 -0.0533759
v 0.00128311 0.805713 -0.0620552
v 0.0010853 0.792844 -0.120664
v 0.0576395 0.797809 0.000884271
v 0.001509 0.818552 -0.00345427
v 0.113761 0.777062 0.00523422
v 0.113559 0.764218 -0.0535759
v 0.113331 0.751366 -0.112174
v 0.0572158 0.772099 -0.116519
v 0.0574149 0.784954 -0.0579121
v 0.0576395 0.797809 0.000684271
v 0.113761 0.777062 0.00503422
v 0.00128311 0.805713 -0.0622552
v 0.001509 0.818552 -0.00365427
v 0.0010853 0.792844 -0.120864
v -0.0436815 0.794789 -0.0520225
v -0.0472411 0.788146 -0.111542
v 0.0126461 0.788862 -0.115198
v 0.0162184 0.795496 -0.0556821
v -0.103558 0.79405 -0.0483532
v -0.107113 0.787417 -0.107887
v -0.0401195 0.801419 0.00750735
v -0.0999924 0.800689 0.0111635
v 0.0197633 0.80214 0.00385112
v 0.0162184 0.795496 -0.0558821
v 0.0126461 0.788862 -0.115398
v -0.0472411 0.788146 -0.111742
v -0.0436815 0.794789 -0.0522225
v -0.0401195 0.801419 0.00730735
v 0.0197633 0.80214 0.00365112
v -0.103558 0.79405 -0.0485532
v -0.0999924 0.800689 0.0109635
v -0.107113 0.787417 -0.108087
v 0.0640661 0.754648 -0.0601997
v 0.0646224 0.77988 -0.0605339
v 0.0635114 0.729409 -0.0598594
v 0.062977 0.704163 -0.0595321
v 0.0624344 0.678963 -0.0592085
v 0.0618873 0.654198 -0.0588814
v 0.0613565 0.629608 -0.05857
v 0.0608076 0.605167 -0.0582337
v 0.0603026 0.580821 -0.0579243
v 0.0597684 0.55653 -0.0576019
v 0.0592272 0.532235 -0.0572828
v 0.058718 0.507893 -0.056966
v 0.0581757 0.483574 -0.0566403
v 0.0576529 0.459258 -0.0563294
v 0.0571117 0.434948 -0.0559947
v 0.0565891 0.410642 -0.0556759
v 0.0560574 0.386365 -0.0553621
v 0.0555218 0.362091 -0.0550486
v 0.0549964 0.33777 -0.0547213
v 0.0544832 0.31345 -0.0544167
v 0.0539481 0.289135 -0.0540916
v 0.0534083 0.264824 -0.0537674
v -0.0334984 0.74243 0.0438014
v -0.0339448 0.745985 0.0437102
v -0.0368601 0.769187 0.0430249
v -0.0371261 0.772881 0.0431097
v -0.0386326 0.794548 0.0436311
v -0.0238228 0.689537 0.048613
v -0.0250141 0.695625 0.0479596
v -0.0289944 0.715871 0.0457701
v -0.0298132 0.720711 0.0454162
v -0.0129948 0.637085 0.0555807
v -0.0148574 0.646218 0.054324
v -0.0183365 0.663306 0.0519841
v -0.00436629 0.584203 0.0621564
v -0.00599164 0.595406 0.0608631
v -0.00820567 0.610756 0.0590767
v -0.0100466 0.620931 0.0577247
v -0.00124948 0.53046 0.0657584
v -0.00166881 0.547453 0.0649495
v -0.00192343 0.557428 0.0644929
v -0.00296547 0.568792 0.0635132
v -0.00641935 0.4768 0.0646868
v -0.0050265 0.487106 0.0650968
v -0.00283657 0.50353 0.0657335
v -0.00279267 0.504062 0.0657362
v -0.0172009 0.424031 0.0607238
v -0.0124329 0.445546 0.0625286
v -0.0113791 0.450315 0.0629341
v -0.0080472 0.46812 0.0641125
v -0.0296596 0.371727 0.0557786
v -0.0292219 0.373532 0.055931
v -0.0234466 0.397891 0.058264
v -0.017485 0.422834 0.0606028
v -0.0402943 0.318967 0.0515175
v -0.0385808 0.32825 0.0521812
v -0.0354272 0.34546 0.0534449
v -0.0342511 0.350759 0.053917
v -0.0451308 0.265289 0.0497955
v -0.0445156 0.276907 0.0499694
v -0.0437355 0.292225 0.0502025
v -0.0437276 0.292419 0.0502088
v -0.0415652 0.309133 0.0510269
v -0.0406681 0.211577 0.0521903
v -0.0419269 0.221972 0.051532
v -0.0437914 0.237203 0.0505883
v -0.0439317 0.238318 0.0505192
v -0.0445852 0.253209 0.0501134
v -0.0304259 0.158816 0.057118
v -0.0305216 0.159358 0.0570587
v -0.0352629 0.181736 0.0547878
v -0.0359744 0.185091 0.0544504
v -0.0393971 0.204386 0.0527982
v -0.0184441 0.106446 0.0627958
v -0.0185358 0.106867 0.0627416
v -0.0244235 0.132624 0.059953
v -0.00811652 0.0536825 0.0676282
v -0.00953015 0.0615961 0.0669651
v -0.0128426 0.080164 0.0654138
v -0.0137386 0.0843215 0.06501
v -0.0035003 -2.62511e-06 0.0698038
v -0.00412173 0.013178 0.0695056
v -0.00477553 0.0269388 0.0692106
v -0.00494071 0.0283217 0.0691176
v -0.00686205 0.0436579 0.0682239
v 0.046126 0.741288 0.0476599
v 0.049178 0.758338 0.0471709
v 0.0508699 0.767863 0.046892
v 0.0527037 0.782351 0.047129
v 0.0540536 0.793086 0.0472933
v 0.0340711 0.688822 0.051715
v 0.0377435 0.704057 0.0503529
v 0.040379 0.714976 0.0493527
v 0.0442001 0.732472 0.0482349
v 0.021241 0.636676 0.0573932
v 0.023654 0.646651 0.0562806
v 0.0275581 0.66277 0.0544732
v 0.0106751 0.584 0.0627795
v 0.0123246 0.593118 0.0618979
v 0.0154768 0.610463 0.0602285
v 0.0174227 0.619359 0.059278
v 0.00574529 0.530388 0.0658962
v 0.00579315 0.531327 0.0658635
v 0.00685564 0.550185 0.0650533
v 0.00724656 0.557306 0.0647666
v 0.00890987 0.570327 0.0637964
v 0.00958444 0.476591 0.0650076
v 0.00708867 0.498978 0.0657954
v 0.0066139 0.503393 0.065946
v 0.00579124 0.528845 0.0659117
v 0.0200365 0.423788 0.0610212
v 0.017706 0.434309 0.061938
v 0.0142312 0.45006 0.0632877
v 0.0135398 0.454033 0.0635338
v 0.010071 0.473881 0.0648208
v 0.0327578 0.371552 0.0560203
v 0.0307652 0.379705 0.056806
v 0.0263972 0.397669 0.0585166
v 0.0221903 0.414901 0.0601856
v 0.0432465 0.318732 0.0520885
v 0.0429969 0.320068 0.0521833
v 0.0394863 0.340043 0.0534481
v 0.0385712 0.345264 0.0537917
v 0.0353429 0.359869 0.055026
v 0.0471227 0.264949 0.0512387
v 0.0462353 0.291932 0.0511787
v 0.0459683 0.294287 0.0512564
v 0.0422786 0.21129 0.0539478
v 0.042917 0.21627 0.0536117
v 0.0456779 0.238022 0.0522484
v 0.0460642 0.245541 0.0519713
v 0.0313367 0.158653 0.0586765
v 0.0346187 0.173036 0.0572965
v 0.0373374 0.184842 0.0561455
v 0.0390019 0.193762 0.0553881
v 0.0183522 0.106495 0.0639621
v 0.0211213 0.117699 0.0628584
v 0.0248209 0.132584 0.0613537
v 0.0294783 0.151201 0.0594462
v 0.00773435 0.0537374 0.0681605
v 0.00808361 0.0556714 0.0680287
v 0.0118369 0.0767248 0.0665406
v 0.0124654 0.080265 0.0662905
v 0.0163382 0.0975807 0.0647615
v 0.00350307 2.94342e-06 0.0697948
v 0.00450737 0.0240712 0.0694116
v 0.00460952 0.0269574 0.0693806
v 0.0568208 0.740631 0.0380745
v 0.0572567 0.757982 0.039979
v 0.057507 0.767463 0.0410183
v 0.0593046 0.792763 0.0426912
v 0.058596 0.687378 0.0294727
v 0.0572434 0.713926 0.0341408
v 0.057206 0.715951 0.034442
v 0.0631967 0.634585 0.019137
v 0.06067 0.660938 0.0243755
v 0.0592435 0.679034 0.0278591
v 0.0687202 0.581769 0.0093717
v 0.0659765 0.608207 0.0140436
v 0.065714 0.6106 0.0145051
v 0.0731314 0.528404 0.00245958
v 0.072468 0.537563 0.00347007
v 0.0716429 0.54897 0.00474335
v 0.071193 0.555176 0.00541916
v 0.0694394 0.574176 0.00824708
v 0.0736474 0.474515 0.00283035
v 0.074063 0.50145 0.00136105
v 0.0738399 0.508206 0.00162727
v 0.0732368 0.525078 0.00232132
v 0.0692479 0.421641 0.0125087
v 0.0704544 0.433285 0.00994119
v 0.0719724 0.447855 0.00671201
v 0.0721677 0.451221 0.00623556
v 0.0733459 0.469748 0.00353452
v 0.062107 0.370148 0.0270997
v 0.0625956 0.373554 0.0261018
v 0.065819 0.395801 0.0195832
v 0.0671145 0.405464 0.0169309
v 0.0686883 0.41749 0.0136531
v 0.0554202 0.31826 0.0403675
v 0.0568455 0.330223 0.0375776
v 0.0584123 0.343585 0.0344772
v 0.0584967 0.344381 0.0342942
v 0.0602182 0.356688 0.030857
v 0.062054 0.369766 0.0271992
v 0.0522734 0.264778 0.0465178
v 0.0529921 0.284475 0.0451185
v 0.0532762 0.291678 0.0445954
v 0.0552113 0.315402 0.04081
v 0.0535222 0.210955 0.0432755
v 0.0533822 0.214312 0.0436012
v 0.0524273 0.237807 0.0459765
v 0.0523277 0.253937 0.0463021
v 0.0578842 0.158215 0.0326853
v 0.0562966 0.174852 0.0364837
v 0.0554089 0.184423 0.0386726
v 0.054771 0.193405 0.040214
v 0.0635157 0.106281 0.0190533
v 0.062255 0.117688 0.0220831
v 0.060669 0.132245 0.0259178
v 0.0596314 0.141928 0.0284476
v 0.058029 0.15682 0.0323223
v 0.0681776 0.0537141 0.00773849
v 0.0674805 0.0626302 0.00943283
v 0.0660988 0.0801573 0.0127836
v 0.0660781 0.0803664 0.0128421
v 0.0643586 0.09776 0.0170153
v 0.0699939 2.9379e-06 0.00330399
v 0.0695305 0.026956 0.00445645
v 0.0691984 0.0334461 0.00525442
v 0.0454229 0.735188 -0.0379119
v 0.0481209 0.744119 -0.0409305
v 0.0518726 0.756579 -0.0451474
v 0.0528306 0.759777 -0.0462254
v 0.0563017 0.769016 -0.0486995
v 0.0609715 0.781443 -0.052028
v 0.0614902 0.782863 -0.0523925
v 0.0403492 0.684905 -0.0193764
v 0.0405481 0.692173 -0.0220129
v 0.0408231 0.701987 -0.0255774
v 0.0410805 0.710242 -0.0285976
v 0.0443405 0.72892 -0.0355748
v 0.0491306 0.633643 -0.005477
v 0.0457614 0.648556 -0.00892918
v 0.0433112 0.659311 -0.0113953
v 0.0426431 0.665056 -0.0131797
v 0.0408169 0.68081 -0.0180915
v 0.0641634 0.582026 -0.0012488
v 0.0572779 0.60564 -0.00206667
v 0.0566289 0.607907 -0.00214379
v 0.0735417 0.52905 -0.0045096
v 0.0702147 0.555743 -0.00232754
v 0.069145 0.560338 -0.0021308
v 0.0668396 0.570396 -0.00171325
v 0.0645 0.580488 -0.00129545
v 0.0739868 0.475796 -0.0130012
v 0.0744221 0.501151 -0.00812556
v 0.0744371 0.502296 -0.00791277
v 0.074388 0.503392 -0.00776515
v 0.0735557 0.528082 -0.00461507
v 0.069745 0.423627 -0.0262385
v 0.0713574 0.439689 -0.021957
v 0.072345 0.449597 -0.0193161
v 0.0728556 0.457839 -0.0173256
v 0.07398 0.475563 -0.0130478
v 0.0629924 0.371735 -0.0395539
v 0.0652048 0.388063 -0.0355666
v 0.0665163 0.397741 -0.0332016
v 0.0676097 0.40655 -0.030834
v 0.0566844 0.318869 -0.048322
v 0.0567712 0.319595 -0.0482286
v 0.0595471 0.345145 -0.0447955
v 0.0595797 0.345482 -0.04476
v 0.0627791 0.370034 -0.0398989
v 0.0537783 0.265032 -0.0492043
v 0.0546613 0.291999 -0.0498708
v 0.0553068 0.211573 -0.0420748
v 0.054856 0.22123 -0.0436423
v 0.0540923 0.238188 -0.0464152
v 0.054073 0.240149 -0.0466168
v 0.0538745 0.257398 -0.0484183
v 0.0592786 0.158939 -0.0307362
v 0.0583218 0.170358 -0.0333232
v 0.0571015 0.185176 -0.0367031
v 0.0562323 0.197843 -0.0392671
v 0.0640327 0.10656 -0.0184845
v 0.0636327 0.110835 -0.0194556
v 0.0616372 0.132763 -0.0245355
v 0.0681503 0.0536982 -0.00821964
v 0.067646 0.0606606 -0.00944298
v 0.0662631 0.0802362 -0.0129065
v 0.065813 0.0854813 -0.0140033
v 0.07 -2.63121e-06 -0.00369649
v 0.069811 0.00984614 -0.00415522
v 0.0695135 0.0258179 -0.00489033
v 0.0694902 0.0269521 -0.00494772
v 0.0687265 0.0420238 -0.00678903
v 0.0361174 0.736204 -0.0488699
v 0.0363472 0.736701 -0.0489364
v 0.0447531 0.755213 -0.0519237
v 0.0471568 0.760517 -0.0527672
v 0.0501829 0.767694 -0.0542809
v 0.0544248 0.777731 -0.056377
v 0.0568489 0.78353 -0.0575954
v 0.0155493 0.686386 -0.0470641
v 0.0172797 0.690878 -0.0470414
v 0.021357 0.701448 -0.0469291
v 0.0252663 0.711569 -0.0468662
v 0.0254922 0.712107 -0.0469001
v 0.0307254 0.723988 -0.0478609
v 0.0359683 0.735871 -0.048834
v 0.00276985 0.634483 -0.0538542
v 0.00789451 0.660625 -0.0495391
v 0.0100475 0.667865 -0.048859
v 0.000182964 0.581812 -0.0651588
v 0.000165232 0.581873 -0.0651381
v 0.000288957 0.59944 -0.0613027
v 0.000343853 0.608189 -0.0593775
v 0.00119443 0.617495 -0.057414
v 0.00351434 0.528709 -0.0741124
v 0.00338321 0.530668 -0.0738495
v 0.00223944 0.546331 -0.0716157
v 0.00157107 0.555355 -0.0703246
v 0.00125054 0.561279 -0.0691605
v 0.000718846 0.571557 -0.0671553
v 0.0107465 0.475319 -0.0769811
v 0.0106819 0.475636 -0.0769672
v 0.00633049 0.501939 -0.0762702
v 0.0228237 0.422798 -0.074306
v 0.0202745 0.433164 -0.0750742
v 0.0164007 0.448936 -0.0762597
v 0.0152645 0.454246 -0.0764081
v 0.0357812 0.370812 -0.0676326
v 0.0349931 0.374077 -0.0680972
v 0.0302288 0.393614 -0.0708454
v 0.029457 0.39679 -0.0712948
v 0.0455098 0.31828 -0.0598221
v 0.0447624 0.322927 -0.0605071
v 0.0412852 0.344681 -0.0636801
v 0.0403131 0.34926 -0.0643601
v 0.0488529 0.264735 -0.0541637
v 0.048338 0.282892 -0.0557672
v 0.0480981 0.291614 -0.056533
v 0.0435914 0.21109 -0.0537947
v 0.0447078 0.219179 -0.0536294
v 0.0467697 0.234143 -0.0533195
v 0.0472832 0.237821 -0.0532438
v 0.0323736 0.158421 -0.0575832
v 0.032425 0.158575 -0.0575697
v 0.0373149 0.179785 -0.0557572
v 0.0384278 0.18464 -0.0553468
v 0.0416654 0.2012 -0.0543584
v 0.0194808 0.10625 -0.0629845
v 0.0203761 0.109867 -0.0626137
v 0.0259297 0.132335 -0.0602322
v 0.00842666 0.0536393 -0.0679226
v 0.0109906 0.0670396 -0.0667753
v 0.0134848 0.0800784 -0.0656568
v 0.0153487 0.0882596 -0.0648013
v 0.00350898 -2.90646e-06 -0.0702053
v 0.00370412 0.00398554 -0.0701086
v 0.0044529 0.018612 -0.0697599
v 0.00487575 0.0269352 -0.069571
v 0.00571608 0.0333286 -0.0691692
v 0.00768075 0.0481437 -0.068266
v -0.0355284 0.740559 -0.0539666
v -0.0367127 0.7538 -0.0544989
v -0.0379096 0.767418 -0.0550447
v -0.0390111 0.79274 -0.0572556
v -0.0278876 0.687137 -0.0553466
v -0.0317996 0.711902 -0.054194
v -0.032095 0.713777 -0.0541092
v -0.0183516 0.634243 -0.0603718
v -0.0232051 0.660631 -0.0574947
v -0.0259593 0.676234 -0.0562391
v -0.00940697 0.58143 -0.0672092
v -0.0136388 0.607847 -0.0636863
v -0.0144063 0.612081 -0.0631461
v -0.00345459 0.528177 -0.0737641
v -0.00419666 0.536196 -0.0728203
v -0.00539489 0.549113 -0.0713174
v -0.00591296 0.554877 -0.070662
v -0.00896205 0.578028 -0.0676554
v -0.00451445 0.474361 -0.0765247
v -0.00277265 0.501279 -0.0759059
v -0.00284384 0.504164 -0.0756933
v -0.00329024 0.52158 -0.0742848
v -0.0144894 0.421486 -0.0730339
v -0.0118333 0.433255 -0.074148
v -0.00859336 0.44771 -0.0755055
v -0.00804913 0.451243 -0.0756373
v -0.00517508 0.469982 -0.0763626
v -0.0290219 0.370086 -0.0651658
v -0.0215737 0.39569 -0.0694269
v -0.018721 0.406065 -0.0708715
v -0.0155565 0.417584 -0.0724946
v -0.0417233 0.318283 -0.0569088
v -0.0415782 0.3189 -0.0569971
v -0.0386182 0.332442 -0.0590098
v -0.0359865 0.344356 -0.0607982
v -0.0355643 0.345942 -0.0610735
v -0.0319876 0.359084 -0.0633028
v -0.0470692 0.264822 -0.0524318
v -0.0462144 0.279831 -0.0532973
v -0.0455402 0.291723 -0.0539888
v -0.0430686 0.211044 -0.0532206
v -0.045051 0.228324 -0.052609
v -0.046142 0.23785 -0.0522877
v -0.0467585 0.256145 -0.0523948
v -0.0323038 0.158321 -0.057483
v -0.0338778 0.165215 -0.056843
v -0.0382214 0.184228 -0.0550685
v -0.0382748 0.184536 -0.055043
v -0.0416952 0.203397 -0.0537353
v -0.0190204 0.106293 -0.063237
v -0.0216217 0.116467 -0.0621005
v -0.0256837 0.132308 -0.0603268
v -0.0292693 0.146412 -0.0588004
v -0.00796874 0.0537049 -0.0681798
v -0.00887848 0.0585058 -0.0677642
v -0.0124688 0.0775851 -0.0661407
v -0.0129408 0.0801337 -0.0659316
v -0.0167582 0.0965374 -0.0642419
v -0.00349261 -1.20765e-05 -0.0701945
v -0.0036429 0.00352272 -0.0701308
v -0.00469361 0.026958 -0.0696514
v -0.00537094 0.0325424 -0.0693533
v -0.0452274 0.741493 -0.0437783
v -0.0448526 0.748522 -0.0450664
v -0.0438283 0.768035 -0.0486072
v -0.0437743 0.774878 -0.0495327
v -0.0436538 0.793226 -0.0520447
v -0.0503674 0.689004 -0.0321939
v -0.0475 0.715188 -0.0382135
v -0.0473767 0.716574 -0.0385073
v -0.0568878 0.63677 -0.0201996
v -0.0555853 0.646914 -0.0224959
v -0.0535676 0.662902 -0.0260965
v -0.0629942 0.584044 -0.0103213
v -0.0626285 0.58734 -0.0108843
v -0.0601089 0.610511 -0.0148162
v -0.0593813 0.616303 -0.0160117
v -0.0667009 0.530405 -0.00579347
v -0.0665389 0.533559 -0.00595344
v -0.0657158 0.548952 -0.00673638
v -0.0652811 0.557332 -0.007145
v -0.0645137 0.566396 -0.00821439
v -0.0661269 0.476672 -0.0101241
v -0.0662278 0.479743 -0.00974074
v -0.0668104 0.499258 -0.0073896
v -0.0669331 0.503452 -0.00688225
v -0.0667402 0.524842 -0.00603343
v -0.0623835 0.423895 -0.0208224
v -0.0636922 0.440032 -0.0172199
v -0.0645146 0.450157 -0.0149653
v -0.0651054 0.459871 -0.013175
v -0.0574395 0.371623 -0.0334757
v -0.0582836 0.380465 -0.0313568
v -0.059938 0.397763 -0.027175
v -0.0619463 0.419285 -0.0219508
v -0.0532349 0.318814 -0.0437927
v -0.0533824 0.320743 -0.0434361
v -0.054794 0.34069 -0.0400111
v -0.055131 0.345341 -0.0391894
v -0.0564615 0.360498 -0.0358874
v -0.0517505 0.265018 -0.0472536
v -0.0520287 0.291991 -0.0466545
v -0.0524396 0.301142 -0.0456686
v -0.0538982 0.211367 -0.0419019
v -0.0532637 0.223165 -0.0434788
v -0.0524366 0.238082 -0.0454898
v -0.0521824 0.248279 -0.0461457
v -0.0584893 0.158735 -0.03083
v -0.0568819 0.175558 -0.0346897
v -0.0559885 0.184924 -0.0368417
v -0.0550408 0.196858 -0.0391364
v -0.0639157 0.106578 -0.0179641
v -0.0625888 0.119236 -0.0210623
v -0.0612085 0.132658 -0.0243389
v -0.0591236 0.152741 -0.0293233
v -0.068281 0.0537522 -0.00767645
v -0.0682621 0.0540271 -0.007738
v -0.066609 0.0765486 -0.0116079
v -0.0663241 0.0802903 -0.0122486
v -0.0646259 0.0988084 -0.0162759
v -0.0699963 -1.2071e-05 -0.00369088
v -0.0698284 0.010336 -0.00409259
v -0.0695469 0.0269543 -0.00472926
v -0.0443066 0.742565 0.0329051
v -0.0435688 0.760529 0.0353068
v -0.0432152 0.769307 0.0364546
v -0.0433852 0.786006 0.037849
v -0.0434601 0.794627 0.0385711
v -0.0492896 0.689656 0.023335
v -0.0478826 0.702726 0.0258458
v -0.0464314 0.71603 0.0283957
v -0.0450652 0.733029 0.0312834
v -0.0560918 0.637119 0.0129304
v -0.0552402 0.643505 0.0141886
v -0.0526104 0.663395 0.0180669
v -0.0625628 0.584184 0.00451874
v -0.0622728 0.586611 0.00486819
v -0.059501 0.610724 0.0083097
v -0.0589962 0.614618 0.00897631
v -0.0664098 0.530454 0.00119655
v -0.0662483 0.533327 0.00126448
v -0.0655106 0.547284 0.00169
v -0.0649627 0.557412 0.00198698
v -0.0644089 0.563594 0.00257715
v -0.0655557 0.476778 0.00623051
v -0.0659617 0.487221 0.00485326
v -0.0664997 0.502092 0.00286421
v -0.0665617 0.503523 0.00268057
v -0.0664367 0.525479 0.00146363
v -0.0615362 0.424004 0.0169404
v -0.0616165 0.425021 0.0167018
v -0.0635429 0.447399 0.0117931
v -0.0637867 0.450285 0.0111525
v -0.0651021 0.470021 0.00748164
v -0.0564546 0.371687 0.0292685
v -0.0565886 0.373086 0.0289352
v -0.0590103 0.397855 0.0230852
v -0.051986 0.318942 0.0399169
v -0.0526583 0.32748 0.0383476
v -0.0540294 0.345412 0.0350258
v -0.0544729 0.350209 0.0339792
v -0.0501121 0.265273 0.0448877
v -0.0503468 0.279201 0.0441299
v -0.0505682 0.292222 0.0434313
v -0.0506859 0.294441 0.043145
v -0.0514906 0.309512 0.0411652
v -0.0524294 0.211574 0.0405207
v -0.0519501 0.219472 0.0414784
v -0.0509614 0.235576 0.0434191
v -0.0507948 0.238304 0.0437566
v -0.0504702 0.251169 0.0442912
v -0.0573484 0.158784 0.0302885
v -0.0553779 0.17821 0.0343951
v -0.0547 0.185073 0.0358708
v -0.0533802 0.200267 0.03854
v -0.063025 0.106458 0.0182299
v -0.060194 0.132627 0.0242606
v -0.0576525 0.155955 0.0296181
v -0.0678606 0.0536971 0.00788092
v -0.0671741 0.0619007 0.00933778
v -0.065652 0.0801739 0.0126197
v -0.0652473 0.0841563 0.0134666
v -0.063042 0.106235 0.0181753
v -0.0700042 -2.90036e-06 0.00330786
v -0.0697577 0.0109188 0.00380601
v -0.0694086 0.0269415 0.00457336
v -0.0694045 0.0270752 0.00457674
v -0.0684585 0.0433807 0.00660146
v -0.0575725 0.0607029 -0.335641
v -0.0786484 0.0607029 -0.335641
v -0.0786484 -0.00585062 -0.335641
v -0.0575725 -0.00585062 -0.335641
v -0.0771062 -0.00225295 -0.335641
v -0.074793 -0.00225295 -0.335641
v -0.074793 0.00134473 -0.335641
v -0.0771062 0.00134473 -0.335641
v -0.0771062 0.00134473 -0.335641
v -0.074793 0.00134473 -0.335641
v -0.074793 0.00494124 -0.335641
v -0.0771062 0.00494124 -0.335641
v -0.0771062 0.00494124 -0.335641
v -0.074793 0.00494124 -0.335641
v -0.074793 0.00853892 -0.335641
v -0.0771062 0.00853892 -0.335641
v -0.0771062 0.00853892 -0.335641
v -0.074793 0.00853892 -0.335641
v -0.074793 0.0121366 -0.335641
v -0.0771062 0.0121366 -0.335641
v -0.0771062 0.0121366 -0.335641
v -0.074793 0.0121366 -0.335641
v -0.074793 0.0157343 -0.335641
v -0.0771062 0.0157343 -0.335641
v -0.0771062 0.0157343 -0.335641
v -0.074793 0.0157343 -0.335641
v -0.074793 0.019332 -0.335641
v -0.0771062 0.019332 -0.335641
v -0.0771062 0.019332 -0.335641
v -0.074793 0.019332 -0.335641
v -0.074793 0.0229296 -0.335641
v -0.0771062 0.0229296 -0.335641
v -0.0771062 0.0229296 -0.335641
v -0.074793 0.0229296 -0.335641
v -0.074793 0.0265261 -0.335641
v -0.0771062 0.0265261 -0.335641
v -0.0771062 0.0265261 -0.335641
v -0.074793 0.0265261 -0.335641
v -0.074793 0.0301238 -0.335641
v -0.0771062 0.0301238 -0.335641
v -0.0771062 0.0301238 -0.335641
v -0.074793 0.0301238 -0.335641
v -0.074793 0.0337215 -0.335641
v -0.0771062 0.0337215 -0.335641
v -0.0771062 0.0337215 -0.335641
v -0.074793 0.0337215 -0.335641
v -0.074793 0.0373192 -0.335641
v -0.0771062 0.0373192 -0.335641
v -0.0771062 0.0373192 -0.335641
v -0.074793 0.0373192 -0.335641
v -0.074793 0.0409168 -0.335641
v -0.0771062 0.0409168 -0.335641
v -0.0771062 -0.00225295 -0.335641
v -0.074022 -0.00225295 -0.335641
v -0.0771062 0.00134473 -0.335641
v -0.074022 0.00134473 -0.335641
v -0.0771062 0.00494124 -0.335641
v -0.074022 0.00494124 -0.335641
v -0.0771062 0.00853892 -0.335641
v -0.074022 0.00853892 -0.335641
v -0.0771062 0.0121366 -0.335641
v -0.074022 0.0121366 -0.335641
v -0.0771062 0.0157343 -0.335641
v -0.074022 0.0157343 -0.335641
v -0.0771062 0.019332 -0.335641
v -0.074022 0.019332 -0.335641
v -0.0771062 0.0229296 -0.335641
v -0.074022 0.0229296 -0.335641
v -0.0771062 0.0265261 -0.335641
v -0.074022 0.0265261 -0.335641
v -0.0771062 0.0301238 -0.335641
v -0.074022 0.0301238 -0.335641
v -0.0771062 0.0337215 -0.335641
v -0.074022 0.0337215 -0.335641
v -0.0771062 0.0373192 -0.335641
v -0.074022 0.0373192 -0.335641
v -0.0771062 0.0409168 -0.335641
v -0.074022 0.0409168 -0.335641
v -0.074793 0.0409168 -0.335641
v -0.074793 -0.00225295 -0.335641

#List of body polygons
f 60 61 62
f 60 62 63
f 60 64 65
f 60 65 61
f 64 60 66
f 64 66 67
f 60 63 68
f 60 68 66
f 78 79 80
f 78 80 81
f 78 82 83
f 78 83 79
f 82 78 84
f 82 84 85
f 78 81 86
f 78 86 84
f 96 97 98
f 96 98 99
f 96 100 101
f 96 101 97
f 100 96 102
f 100 102 103
f 96 99 104
f 96 104 102
f 114 115 116
f 114 116 117
f 114 118 119
f 114 119 115
f 118 114 120
f 118 120 121
f 114 117 122
f 114 122 120

#List of body lines
l 1 2
l 2 3
l 1 4
l 4 5
l 1 6
l 6 7
l 1 8
l 8 9
l 10 11
l 11 12
l 10 13
l 10 16
l 16 17
l 10 18
l 18 19
l 21 22
l 22 23
l 20 24
l 33 34
l 34 35
l 38 39
l 52 53
l 58 59
l 132 133
l 134 132
l 135 134
l 136 135
l 137 136
l 138 137
l 139 138
l 140 139
l 141 140
l 142 141
l 143 142
l 144 143
l 145 144
l 146 145
l 147 146
l 148 147
l 149 148
l 150 149
l 151 150
l 152 151
l 153 152
l 159 160
l 164 165
l 165 159
l 183 184
l 184 185
l 200 201
l 206 207
l 207 200
l 222 223
l 227 228
l 228 222
l 248 249
l 249 250
l 268 269
l 269 270
l 286 287
l 287 288
l 291 286
l 306 307
l 316 306
l 330 331
l 331 332
l 372 373
l 380 372
l 393 394
l 398 399
l 399 393
l 409 410
l 422 409
l 440 441
l 446 447
l 447 440
l 459 460
l 465 466
l 466 459
l 484 485
l 485 486
l 489 484
l 527 528
l 528 529
l 544 545
l 545 546
l 548 549
l 549 544
l 569 570
l 570 571
l 589 590
l 590 591
l 605 606
l 610 611
l 611 605
l 626 627
l 632 633
l 633 626
l 652 653
l 653 654
l 659 652

#List of body lines
l 13 14
l 14 15
l 20 21
l 24 25
l 25 26
l 30 31
l 31 32
l 20 33
l 36 37
l 37 38
l 50 51
l 51 52
l 57 58
l 160 161
l 161 162
l 163 164
l 169 163
l 178 179
l 182 183
l 185 178
l 189 182
l 201 202
l 205 206
l 211 205
l 223 224
l 224 225
l 226 227
l 232 226
l 242 243
l 247 248
l 250 242
l 255 247
l 263 264
l 267 268
l 270 263
l 275 267
l 283 284
l 284 285
l 288 283
l 289 290
l 290 291
l 296 289
l 307 308
l 308 309
l 315 316
l 329 330
l 332 333
l 338 329
l 351 352
l 352 353
l 373 374
l 374 375
l 378 379
l 379 380
l 394 395
l 395 396
l 397 398
l 403 397
l 410 411
l 421 422
l 433 434
l 434 435
l 441 442
l 442 443
l 445 446
l 460 461
l 464 465
l 470 464
l 481 482
l 486 481
l 487 488
l 488 489
l 494 487
l 504 505
l 505 506
l 513 504
l 521 522
l 526 527
l 529 521
l 534 526
l 539 540
l 546 539
l 547 548
l 553 547
l 564 565
l 568 569
l 571 564
l 576 568
l 584 585
l 588 589
l 591 584
l 596 588
l 606 607
l 607 608
l 609 610
l 615 609
l 627 628
l 631 632
l 637 631
l 648 649
l 654 648
l 658 659

#List of body lines
l 26 27
l 20 30
l 49 50
l 55 56
l 56 57
l 154 155
l 162 154
l 167 168
l 168 169
l 179 180
l 180 181
l 187 188
l 188 189
l 202 203
l 203 204
l 209 210
l 210 211
l 217 218
l 225 217
l 230 231
l 231 232
l 243 244
l 244 245
l 253 254
l 254 255
l 264 265
l 265 266
l 273 274
l 274 275
l 279 280
l 285 279
l 294 295
l 295 296
l 309 310
l 313 314
l 314 315
l 325 326
l 333 325
l 337 338
l 342 343
l 350 351
l 353 342
l 362 363
l 363 364
l 371 362
l 375 376
l 377 378
l 385 377
l 388 389
l 396 388
l 401 402
l 402 403
l 411 412
l 412 413
l 420 421
l 432 433
l 435 436
l 437 438
l 443 437
l 444 445
l 451 444
l 461 462
l 462 463
l 468 469
l 469 470
l 477 478
l 482 483
l 483 477
l 492 493
l 493 494
l 506 507
l 512 513
l 522 523
l 532 533
l 533 534
l 540 541
l 541 542
l 551 552
l 552 553
l 565 566
l 566 567
l 574 575
l 575 576
l 585 586
l 586 587
l 594 595
l 595 596
l 600 601
l 608 600
l 613 614
l 614 615
l 628 629
l 629 630
l 635 636
l 636 637
l 649 650
l 650 651
l 656 657
l 657 658

#List of body lines
l 27 28
l 36 49
l 54 55
l 155 156
l 156 157
l 166 167
l 173 166
l 174 175
l 181 174
l 186 187
l 194 186
l 195 196
l 204 195
l 208 209
l 216 208
l 218 219
l 219 220
l 229 230
l 237 229
l 245 246
l 252 253
l 259 260
l 266 259
l 272 273
l 280 281
l 281 282
l 293 294
l 301 302
l 310 301
l 312 313
l 326 327
l 327 328
l 335 336
l 336 337
l 343 344
l 349 350
l 358 349
l 364 365
l 367 368
l 370 371
l 376 367
l 383 384
l 384 385
l 389 390
l 390 391
l 400 401
l 408 400
l 413 414
l 418 419
l 419 420
l 426 427
l 431 432
l 436 426
l 438 439
l 439 431
l 449 450
l 450 451
l 455 456
l 463 455
l 467 468
l 476 467
l 478 479
l 479 480
l 491 492
l 499 500
l 507 499
l 510 511
l 511 512
l 523 524
l 524 525
l 531 532
l 542 543
l 550 551
l 558 550
l 559 560
l 567 559
l 573 574
l 580 581
l 587 580
l 593 594
l 601 602
l 602 603
l 612 613
l 620 612
l 621 622
l 630 621
l 634 635
l 642 634
l 643 644
l 651 643
l 655 656
l 664 655

#List of body lines
l 28 29
l 36 40
l 36 54
l 157 158
l 171 172
l 172 173
l 175 176
l 176 177
l 193 194
l 196 197
l 215 216
l 220 221
l 235 236
l 236 237
l 238 239
l 246 238
l 251 252
l 258 251
l 260 261
l 261 262
l 271 272
l 277 278
l 278 271
l 292 293
l 300 292
l 302 303
l 303 304
l 311 312
l 320 311
l 321 322
l 328 321
l 334 335
l 341 334
l 344 345
l 345 346
l 357 358
l 365 366
l 368 369
l 369 370
l 382 383
l 391 392
l 406 407
l 407 408
l 414 415
l 417 418
l 427 428
l 448 449
l 453 454
l 454 448
l 456 457
l 475 476
l 490 491
l 498 490
l 500 501
l 501 502
l 509 510
l 517 518
l 525 517
l 530 531
l 538 530
l 556 557
l 557 558
l 560 561
l 572 573
l 579 572
l 581 582
l 582 583
l 592 593
l 598 599
l 599 592
l 603 604
l 618 619
l 619 620
l 622 623
l 641 642
l 644 645
l 663 664

#List of body lines
l 40 41
l 170 171
l 177 170
l 191 192
l 192 193
l 197 198
l 198 199
l 213 214
l 214 215
l 234 235
l 239 240
l 240 241
l 256 257
l 257 258
l 262 256
l 276 277
l 299 300
l 304 305
l 318 319
l 319 320
l 322 323
l 323 324
l 339 340
l 340 341
l 346 347
l 355 356
l 356 357
l 359 360
l 366 359
l 381 382
l 386 387
l 387 381
l 392 386
l 405 406
l 416 417
l 425 416
l 428 429
l 429 430
l 452 453
l 457 458
l 458 452
l 473 474
l 474 475
l 497 498
l 502 503
l 508 509
l 515 516
l 516 508
l 518 519
l 519 520
l 536 537
l 537 538
l 555 556
l 561 562
l 562 563
l 577 578
l 578 579
l 583 577
l 597 598
l 617 618
l 623 624
l 624 625
l 639 640
l 640 641
l 645 646
l 646 647
l 661 662
l 662 663

#List of body lines
l 41 42
l 190 191
l 199 190
l 212 213
l 233 234
l 241 233
l 297 298
l 298 299
l 305 297
l 317 318
l 324 317
l 347 348
l 354 355
l 360 361
l 361 354
l 404 405
l 423 424
l 424 425
l 430 423
l 472 473
l 495 496
l 496 497
l 503 495
l 514 515
l 520 514
l 535 536
l 554 555
l 563 554
l 616 617
l 625 616
l 638 639
l 647 638
l 660 661

#List of body lines
l 42 43
l 43 44
l 471 472

#List of body lines
l 44 45

#List of body lines
l 45 46

#List of body lines
l 46 47

#List of body lines
l 47 48

#List of body lines
l 69 70
l 70 71
l 71 72
l 72 73
l 73 74
l 74 69
l 69 72
l 72 75
l 75 76
l 76 73
l 77 71
l 75 77
l 87 88
l 88 89
l 89 90
l 90 91
l 91 92
l 92 87
l 87 90
l 90 93
l 93 94
l 94 91
l 95 89
l 93 95
l 105 106
l 106 107
l 107 108
l 108 109
l 109 110
l 110 105
l 105 108
l 108 111
l 111 112
l 112 109
l 113 107
l 111 113
l 123 124
l 124 125
l 125 126
l 126 127
l 127 128
l 128 123
l 123 126
l 126 129
l 129 130
l 130 127
l 131 125
l 129 131


