ISO-10303-21;
HEADER;
FILE_DESCRIPTION(('STEP AP214'),'1');
FILE_NAME('SMAStripDeformed_02.stp','2026-05-02T01:36:47',(' '),(' '),'Spatial InterOp 3D',' ',' ');
FILE_SCHEMA(('AUTOMOTIVE_DESIGN { 1 0 10303 214 1 1 1 1 }'));
ENDSEC;
DATA;
#1=PRODUCT_DEFINITION_CONTEXT('',#9,'design');
#2=APPLICATION_PROTOCOL_DEFINITION('INTERNATIONAL STANDARD','automotive_design',1994,#9);
#3=PRODUCT_CATEGORY_RELATIONSHIP('NONE','NONE',#10,#11);
#4=SHAPE_DEFINITION_REPRESENTATION(#12,#13);
#5= (GEOMETRIC_REPRESENTATION_CONTEXT(3)GLOBAL_UNCERTAINTY_ASSIGNED_CONTEXT((#16))GLOBAL_UNIT_ASSIGNED_CONTEXT((#18,#19,#20))REPRESENTATION_CONTEXT('NONE','WORKSPACE'));
#9=APPLICATION_CONTEXT(' ');
#10=PRODUCT_CATEGORY('part','NONE');
#11=PRODUCT_RELATED_PRODUCT_CATEGORY('detail',' ',(#22));
#12=PRODUCT_DEFINITION_SHAPE('NONE','NONE',#23);
#13=MANIFOLD_SURFACE_SHAPE_REPRESENTATION('1',(#24,#25),#5);
#16=UNCERTAINTY_MEASURE_WITH_UNIT(LENGTH_MEASURE(1.0E-06),#18,'','');
#18= (CONVERSION_BASED_UNIT('MILLIMETRE',#28)LENGTH_UNIT()NAMED_UNIT(#31));
#19= (NAMED_UNIT(#33)PLANE_ANGLE_UNIT()SI_UNIT($,.RADIAN.));
#20= (NAMED_UNIT(#33)SOLID_ANGLE_UNIT()SI_UNIT($,.STERADIAN.));
#22=PRODUCT('1','','PART--DESC',(#39));
#23=PRODUCT_DEFINITION('','NONE',#40,#1);
#24=SHELL_BASED_SURFACE_MODEL('1',(#41));
#25=AXIS2_PLACEMENT_3D('',#42,#43,#44);
#28=LENGTH_MEASURE_WITH_UNIT(LENGTH_MEASURE(1.0),#45);
#31=DIMENSIONAL_EXPONENTS(1.0,0.0,0.0,0.0,0.0,0.0,0.0);
#33=DIMENSIONAL_EXPONENTS(0.0,0.0,0.0,0.0,0.0,0.0,0.0);
#39=PRODUCT_CONTEXT('',#9,'mechanical');
#40=PRODUCT_DEFINITION_FORMATION_WITH_SPECIFIED_SOURCE(' ','NONE',#22,.NOT_KNOWN.);
#41=CLOSED_SHELL('',(#46));
#42=CARTESIAN_POINT('',(0.0,0.0,0.0));
#43=DIRECTION('',(0.0,0.0,1.0));
#44=DIRECTION('',(1.0,0.0,0.0));
#45= (NAMED_UNIT(#31)LENGTH_UNIT()SI_UNIT(.MILLI.,.METRE.));
#46=FACE_SURFACE('',(#48),#49,.T.);
#48=FACE_BOUND('',#50,.T.);
#49=CYLINDRICAL_SURFACE('',#51,2.09351539944269);
#50=EDGE_LOOP('',(#52,#53,#54,#55,#56));
#51=AXIS2_PLACEMENT_3D('',#57,#58,#59);
#52=ORIENTED_EDGE('',*,*,#60,.T.);
#53=ORIENTED_EDGE('',*,*,#61,.T.);
#54=ORIENTED_EDGE('',*,*,#62,.T.);
#55=ORIENTED_EDGE('',*,*,#63,.T.);
#56=ORIENTED_EDGE('',*,*,#64,.T.);
#57=CARTESIAN_POINT('',(-0.0536308822005792,-6.59092840856789E-05,-2.09106972317629));
#58=DIRECTION('',(0.000349433950744991,0.999999938128577,-4.04815463755248E-05));
#59=DIRECTION('',(0.0,-4.04815488470061E-05,-0.999999999180622));
#60=EDGE_CURVE('',#65,#66,#67,.T.);
#61=EDGE_CURVE('',#66,#68,#69,.T.);
#62=EDGE_CURVE('',#68,#70,#71,.T.);
#63=EDGE_CURVE('',#70,#72,#73,.T.);
#64=EDGE_CURVE('',#72,#65,#74,.T.);
#65=VERTEX_POINT('',#75);
#66=VERTEX_POINT('',#76);
#67=B_SPLINE_CURVE_WITH_KNOTS('',3,(#77,#78,#79,#80,#81,#82,#83,#84,#85,#86,#87,#88,#89,#90),.UNSPECIFIED.,.F.,.F.,(4,1,1,1,1,1,1,1,1,1,1,4),(0.0,0.128001746726461,0.256003493452922,0.384005240179382,0.512006986905843,0.640008733632304,0.768010480358765,0.832011353721995,0.896012227085226,0.960013100448456,0.992013537130071,1.02401397381169),.UNSPECIFIED.);
#68=VERTEX_POINT('',#91);
#69=LINE('',#92,#93);
#70=VERTEX_POINT('',#94);
#71=LINE('',#95,#96);
#72=VERTEX_POINT('',#97);
#73=B_SPLINE_CURVE_WITH_KNOTS('',3,(#98,#99,#100,#101,#102,#103,#104,#105,#106,#107,#108),.UNSPECIFIED.,.F.,.F.,(4,1,1,1,1,1,1,1,4),(0.0,0.128007746983339,0.256015493966677,0.384023240950016,0.512030987933355,0.640038734916694,0.768046481900032,0.896054228883371,1.02406197586671),.UNSPECIFIED.);
#74=LINE('',#109,#110);
#75=CARTESIAN_POINT('',(0.977785408496857,0.100024871528149,-0.267904758453369));
#76=CARTESIAN_POINT('',(8.30842919599872E-38,0.100011453032494,3.39099206447068E-38));
#77=CARTESIAN_POINT('',(0.977785408496857,0.100024871528149,-0.267904758453369));
#78=CARTESIAN_POINT('',(0.940267434207884,0.100031143827622,-0.24758492343048));
#79=CARTESIAN_POINT('',(0.864282265339369,0.100032486172979,-0.208689759211238));
#80=CARTESIAN_POINT('',(0.747305290870058,0.100038889637741,-0.156598023711502));
#81=CARTESIAN_POINT('',(0.627621177649286,0.100041967687228,-0.111065029671788));
#82=CARTESIAN_POINT('',(0.505474806652717,0.100043750588741,-0.0726012491128773));
#83=CARTESIAN_POINT('',(0.381204303846654,0.100043788094748,-0.0416617266352621));
#84=CARTESIAN_POINT('',(0.276207997031298,0.100042381595864,-0.0225313212447339));
#85=CARTESIAN_POINT('',(0.191586277308709,0.100040555130269,-0.0114285496639336));
#86=CARTESIAN_POINT('',(0.127874910803045,0.100038573602451,-0.0052559727665545));
#87=CARTESIAN_POINT('',(0.074636346295519,0.10003825230019,-0.0019167322581403));
#88=CARTESIAN_POINT('',(0.031997597492296,0.100035385005426,-0.000367074647229054));
#89=CARTESIAN_POINT('',(0.010665997347887,0.100029879408994,0.000130553184439572));
#90=CARTESIAN_POINT('',(8.30842919599872E-38,0.100011453032494,3.39099206447068E-38));
#91=CARTESIAN_POINT('',(-4.16900505038396E-34,0.0100011453032494,4.66044996589836E-35));
#92=CARTESIAN_POINT('',(8.30223420570713E-35,0.0550062991678715,2.49831120458122E-35));
#93=VECTOR('',#111,1.0);
#94=CARTESIAN_POINT('',(1.06141146716254E-06,-1.14525655590114E-05,0.000173177511896938));
#95=CARTESIAN_POINT('',(5.30705733581271E-07,0.00499484636884517,8.6588755948469E-05));
#96=VECTOR('',#112,1.0);
#97=CARTESIAN_POINT('',(0.977827370166779,-2.00683025468607E-05,-0.267936527729034));
#98=CARTESIAN_POINT('',(1.06141146716254E-06,-1.14525655590114E-05,0.000173177511896938));
#99=CARTESIAN_POINT('',(0.0426679863700371,-8.61474030038932E-05,-0.000265849834711324));
#100=CARTESIAN_POINT('',(0.127968505480672,-1.6177803244402E-05,-0.00418218276033525));
#101=CARTESIAN_POINT('',(0.255221559395236,-4.85305765868985E-05,-0.0187075654227171));
#102=CARTESIAN_POINT('',(0.381222201485076,-4.20556563938621E-05,-0.0416743232284335));
#103=CARTESIAN_POINT('',(0.505498293414057,-4.35942314681758E-05,-0.0726147965871313));
#104=CARTESIAN_POINT('',(0.627649762805853,-4.04535513309198E-05,-0.111082814338496));
#105=CARTESIAN_POINT('',(0.747338705809371,-3.65792996499411E-05,-0.156619887591992));
#106=CARTESIAN_POINT('',(0.864320132959801,-2.89827280687341E-05,-0.208716406625895));
#107=CARTESIAN_POINT('',(0.940308144526971,-2.68727941267301E-05,-0.247614803618168));
#108=CARTESIAN_POINT('',(0.977827370166779,-2.00683025468607E-05,-0.267936527729034));
#109=CARTESIAN_POINT('',(0.977924734354019,0.0500024016128009,-0.267622277140617));
#110=VECTOR('',#113,1.0);
#111=DIRECTION('',(-0.0,-1.0,-0.0));
#112=DIRECTION('',(0.00010599174659146,-0.999850452784314,0.0172933754007662));
#113=DIRECTION('',(-0.000191463001966574,0.999999970238077,0.000151214301499237));
ENDSEC;
END-ISO-10303-21;
