ISO-10303-21;
HEADER;
FILE_DESCRIPTION(('STEP AP214'),'1');
FILE_NAME('SMAStripDeformed_04.stp','2026-04-23T09:29:42',(' '),(' '),'Spatial InterOp 3D',' ',' ');
FILE_SCHEMA(('AUTOMOTIVE_DESIGN { 1 0 10303 214 1 1 1 1 }'));
ENDSEC;
DATA;
#1=PRODUCT_DEFINITION_CONTEXT('',#9,'design');
#2=APPLICATION_PROTOCOL_DEFINITION('INTERNATIONAL STANDARD','automotive_design',1994,#9);
#3=PRODUCT_CATEGORY_RELATIONSHIP('NONE','NONE',#10,#11);
#4=SHAPE_DEFINITION_REPRESENTATION(#12,#13);
#5= (GEOMETRIC_REPRESENTATION_CONTEXT(3)GLOBAL_UNCERTAINTY_ASSIGNED_CONTEXT((#16))GLOBAL_UNIT_ASSIGNED_CONTEXT((#18,#19,#20))REPRESENTATION_CONTEXT('NONE','WORKSPACE'));
#9=APPLICATION_CONTEXT(' ');
#10=PRODUCT_CATEGORY('part','NONE');
#11=PRODUCT_RELATED_PRODUCT_CATEGORY('detail',' ',(#22));
#12=PRODUCT_DEFINITION_SHAPE('NONE','NONE',#23);
#13=MANIFOLD_SURFACE_SHAPE_REPRESENTATION('1',(#24,#25),#5);
#16=UNCERTAINTY_MEASURE_WITH_UNIT(LENGTH_MEASURE(1.0E-06),#18,'','');
#18= (CONVERSION_BASED_UNIT('MILLIMETRE',#28)LENGTH_UNIT()NAMED_UNIT(#31));
#19= (NAMED_UNIT(#33)PLANE_ANGLE_UNIT()SI_UNIT($,.RADIAN.));
#20= (NAMED_UNIT(#33)SOLID_ANGLE_UNIT()SI_UNIT($,.STERADIAN.));
#22=PRODUCT('1','','PART--DESC',(#39));
#23=PRODUCT_DEFINITION('','NONE',#40,#1);
#24=SHELL_BASED_SURFACE_MODEL('1',(#41));
#25=AXIS2_PLACEMENT_3D('',#42,#43,#44);
#28=LENGTH_MEASURE_WITH_UNIT(LENGTH_MEASURE(1.0),#45);
#31=DIMENSIONAL_EXPONENTS(1.0,0.0,0.0,0.0,0.0,0.0,0.0);
#33=DIMENSIONAL_EXPONENTS(0.0,0.0,0.0,0.0,0.0,0.0,0.0);
#39=PRODUCT_CONTEXT('',#9,'mechanical');
#40=PRODUCT_DEFINITION_FORMATION_WITH_SPECIFIED_SOURCE(' ','NONE',#22,.NOT_KNOWN.);
#41=CLOSED_SHELL('',(#46));
#42=CARTESIAN_POINT('',(0.0,0.0,0.0));
#43=DIRECTION('',(0.0,0.0,1.0));
#44=DIRECTION('',(1.0,0.0,0.0));
#45= (NAMED_UNIT(#31)LENGTH_UNIT()SI_UNIT(.MILLI.,.METRE.));
#46=FACE_SURFACE('',(#48),#49,.T.);
#48=FACE_BOUND('',#50,.T.);
#49=CYLINDRICAL_SURFACE('',#51,1.42894742410693);
#50=EDGE_LOOP('',(#52,#53,#54,#55,#56,#57,#58,#59,#60,#61,#62,#63));
#51=AXIS2_PLACEMENT_3D('',#64,#65,#66);
#52=ORIENTED_EDGE('',*,*,#67,.T.);
#53=ORIENTED_EDGE('',*,*,#68,.T.);
#54=ORIENTED_EDGE('',*,*,#69,.T.);
#55=ORIENTED_EDGE('',*,*,#70,.T.);
#56=ORIENTED_EDGE('',*,*,#71,.T.);
#57=ORIENTED_EDGE('',*,*,#72,.T.);
#58=ORIENTED_EDGE('',*,*,#73,.T.);
#59=ORIENTED_EDGE('',*,*,#74,.T.);
#60=ORIENTED_EDGE('',*,*,#75,.T.);
#61=ORIENTED_EDGE('',*,*,#76,.T.);
#62=ORIENTED_EDGE('',*,*,#77,.T.);
#63=ORIENTED_EDGE('',*,*,#78,.T.);
#64=CARTESIAN_POINT('',(-0.13532076217254,-2.83081768167605E-05,-1.41547637418267));
#65=DIRECTION('',(0.00108569211230602,-0.99999940712542,-8.37940651360662E-05));
#66=DIRECTION('',(0.0,-8.37941145212886E-05,0.999999996489273));
#67=EDGE_CURVE('',#79,#80,#81,.T.);
#68=EDGE_CURVE('',#80,#82,#83,.T.);
#69=EDGE_CURVE('',#82,#84,#85,.T.);
#70=EDGE_CURVE('',#84,#86,#87,.T.);
#71=EDGE_CURVE('',#86,#88,#89,.T.);
#72=EDGE_CURVE('',#88,#90,#91,.T.);
#73=EDGE_CURVE('',#90,#92,#93,.T.);
#74=EDGE_CURVE('',#92,#94,#95,.T.);
#75=EDGE_CURVE('',#94,#96,#97,.T.);
#76=EDGE_CURVE('',#96,#98,#99,.T.);
#77=EDGE_CURVE('',#98,#100,#101,.T.);
#78=EDGE_CURVE('',#100,#79,#102,.T.);
#79=VERTEX_POINT('',#103);
#80=VERTEX_POINT('',#104);
#81=LINE('',#105,#106);
#82=VERTEX_POINT('',#107);
#83=LINE('',#108,#109);
#84=VERTEX_POINT('',#110);
#85=B_SPLINE_CURVE_WITH_KNOTS('',3,(#111,#112,#113,#114,#115,#116,#117,#118,#119,#120,#121),.UNSPECIFIED.,.F.,.F.,(4,1,1,1,1,1,1,1,4),(0.0,0.128004074779556,0.256008149559112,0.384012224338668,0.512016299118225,0.640020373897781,0.768024448677337,0.896028523456893,1.02403259823645),.UNSPECIFIED.);
#86=VERTEX_POINT('',#122);
#87=LINE('',#123,#124);
#88=VERTEX_POINT('',#125);
#89=LINE('',#126,#127);
#90=VERTEX_POINT('',#128);
#91=LINE('',#129,#130);
#92=VERTEX_POINT('',#131);
#93=LINE('',#132,#133);
#94=VERTEX_POINT('',#134);
#95=LINE('',#135,#136);
#96=VERTEX_POINT('',#137);
#97=LINE('',#138,#139);
#98=VERTEX_POINT('',#140);
#99=LINE('',#141,#142);
#100=VERTEX_POINT('',#143);
#101=B_SPLINE_CURVE_WITH_KNOTS('',3,(#144,#145,#146,#147,#148,#149,#150,#151,#152,#153,#154),.UNSPECIFIED.,.F.,.F.,(4,1,1,1,1,1,1,1,4),(0.0,0.129229178850049,0.258458357700097,0.387687536550146,0.516916715400195,0.646145894250243,0.775375073100292,0.904604251950341,1.03383343080039),.UNSPECIFIED.);
#102=LINE('',#155,#156);
#103=CARTESIAN_POINT('',(-5.71405370294066E-34,0.0900091603398323,-1.24009522703404E-34));
#104=CARTESIAN_POINT('',(-1.83157333427097E-34,0.00999083835631609,-9.5519442648058E-35));
#105=CARTESIAN_POINT('',(5.04299933472223E-35,0.0499999993480742,1.02072198024575E-34));
#106=VECTOR('',#157,1.0);
#107=CARTESIAN_POINT('',(0.000176641930011101,-2.39335386140738E-05,0.00413202028721571));
#108=CARTESIAN_POINT('',(8.83209650055505E-05,0.00498345240885101,0.00206601014360785));
#109=VECTOR('',#158,1.0);
#110=CARTESIAN_POINT('',(0.902909815311432,3.27547750202939E-05,-0.43065470457077));
#111=CARTESIAN_POINT('',(0.000176641930011101,-2.39335386140738E-05,0.00413202028721571));
#112=CARTESIAN_POINT('',(0.0427626512100066,-0.000216706080149039,0.00149478622832273));
#113=CARTESIAN_POINT('',(0.127654486800632,-1.88800411022757E-05,-0.00832597675559795));
#114=CARTESIAN_POINT('',(0.252686332058962,-9.36086335078422E-05,-0.0365603143628787));
#115=CARTESIAN_POINT('',(0.374222147336152,-6.60082328864451E-05,-0.0772208740924394));
#116=CARTESIAN_POINT('',(0.491324876069452,-5.94793511341833E-05,-0.129250207602797));
#117=CARTESIAN_POINT('',(0.603298390851232,-4.20057549864594E-05,-0.191523820628497));
#118=CARTESIAN_POINT('',(0.709648533930115,-2.17127001837403E-05,-0.262943290613711));
#119=CARTESIAN_POINT('',(0.810124432109854,3.97137469746805E-06,-0.342413018397418));
#120=CARTESIAN_POINT('',(0.872715590355166,1.86208453854583E-05,-0.400507251433689));
#121=CARTESIAN_POINT('',(0.902909815311432,3.27547750202939E-05,-0.43065470457077));
#122=CARTESIAN_POINT('',(0.912633240222931,3.20943436236121E-05,-0.434938549995422));
#123=CARTESIAN_POINT('',(0.907771527767181,3.2424559321953E-05,-0.432796627283096));
#124=VECTOR('',#159,1.0);
#125=CARTESIAN_POINT('',(0.912631511688232,0.0200417432934046,-0.434933871030807));
#126=CARTESIAN_POINT('',(0.912632375955582,0.0100369188185141,-0.434936210513115));
#127=VECTOR('',#160,0.999999999999999);
#128=CARTESIAN_POINT('',(0.912629306316376,0.0400513708591461,-0.434929817914963));
#129=CARTESIAN_POINT('',(0.912630409002304,0.0300465570762753,-0.434931844472885));
#130=VECTOR('',#161,1.0);
#131=CARTESIAN_POINT('',(0.91262811422348,0.0500561818480492,-0.434927970170975));
#132=CARTESIAN_POINT('',(0.912628710269928,0.0450537763535976,-0.434928894042969));
#133=VECTOR('',#162,1.0);
#134=CARTESIAN_POINT('',(0.912625551223755,0.0700658112764359,-0.434924513101578));
#135=CARTESIAN_POINT('',(0.912626832723618,0.0600609965622425,-0.434926241636276));
#136=VECTOR('',#163,1.0);
#137=CARTESIAN_POINT('',(0.912622570991516,0.0900754705071449,-0.434921503067017));
#138=CARTESIAN_POINT('',(0.912624061107635,0.0800706408917904,-0.434923008084297));
#139=VECTOR('',#164,1.0);
#140=CARTESIAN_POINT('',(0.90991222858429,0.100083641707897,-0.437579184770584));
#141=CARTESIAN_POINT('',(0.911267399787903,0.095079556107521,-0.4362503439188));
#142=VECTOR('',#165,1.0);
#143=CARTESIAN_POINT('',(0.000231647441978566,0.100014567375183,0.00408193375915289));
#144=CARTESIAN_POINT('',(0.90991222858429,0.100083641707897,-0.437579184770584));
#145=CARTESIAN_POINT('',(0.87961040900713,0.100074016216627,-0.40696259993087));
#146=CARTESIAN_POINT('',(0.816745293566585,0.100075914554998,-0.347961615254124));
#147=CARTESIAN_POINT('',(0.71567831573861,0.100065488909208,-0.267262180261047));
#148=CARTESIAN_POINT('',(0.608611311937277,0.100066499623111,-0.194711048735274));
#149=CARTESIAN_POINT('',(0.495793875353316,0.100069173124144,-0.13142978006413));
#150=CARTESIAN_POINT('',(0.377726721171566,0.100064677003487,-0.0785485243241724));
#151=CARTESIAN_POINT('',(0.255118846708395,0.100092332002159,-0.0372141378987818));
#152=CARTESIAN_POINT('',(0.128925946393454,0.100002182712845,-0.0085559925090421));
#153=CARTESIAN_POINT('',(0.043227418658412,0.100239098524244,0.00145726752295844));
#154=CARTESIAN_POINT('',(0.000231647441978566,0.100014567375183,0.00408193375915289));
#155=CARTESIAN_POINT('',(0.000115823720989283,0.0950118638575077,0.00204096687957644));
#156=VECTOR('',#166,1.0);
#157=DIRECTION('',(-0.0,-1.0,-0.0));
#158=DIRECTION('',(0.0163026768537436,-0.924285586987977,0.381353348502007));
#159=DIRECTION('',(0.915122775200383,-6.21566801885218E-05,-0.403175275092727));
#160=DIRECTION('',(-8.63850574390147E-05,0.999999969091199,0.000233142066031465));
#161=DIRECTION('',(-0.00011021553356641,0.999999973419492,0.000202518027445064));
#162=DIRECTION('',(-0.000119151962794445,0.99999997584703,0.000184685542331389));
#163=DIRECTION('',(-0.000128088312441436,0.99999997687789,0.000172735644713426));
#164=DIRECTION('',(-0.000148939677573344,0.999999977616427,0.000150280132437307));
#165=DIRECTION('',(-0.253211572813171,0.935005394141004,-0.248291788669511));
#166=DIRECTION('',(-0.0214319381465852,-0.925696665939818,-0.377659045562511));
ENDSEC;
END-ISO-10303-21;
