ISO-10303-21;
HEADER;
FILE_DESCRIPTION(('STEP AP214'),'1');
FILE_NAME('SMAStripDeformed_08.stp','2026-05-02T01:42:35',(' '),(' '),'Spatial InterOp 3D',' ',' ');
FILE_SCHEMA(('AUTOMOTIVE_DESIGN { 1 0 10303 214 1 1 1 1 }'));
ENDSEC;
DATA;
#1=PRODUCT_DEFINITION_CONTEXT('',#9,'design');
#2=APPLICATION_PROTOCOL_DEFINITION('INTERNATIONAL STANDARD','automotive_design',1994,#9);
#3=PRODUCT_CATEGORY_RELATIONSHIP('NONE','NONE',#10,#11);
#4=SHAPE_DEFINITION_REPRESENTATION(#12,#13);
#5= (GEOMETRIC_REPRESENTATION_CONTEXT(3)GLOBAL_UNCERTAINTY_ASSIGNED_CONTEXT((#16))GLOBAL_UNIT_ASSIGNED_CONTEXT((#18,#19,#20))REPRESENTATION_CONTEXT('NONE','WORKSPACE'));
#9=APPLICATION_CONTEXT(' ');
#10=PRODUCT_CATEGORY('part','NONE');
#11=PRODUCT_RELATED_PRODUCT_CATEGORY('detail',' ',(#22));
#12=PRODUCT_DEFINITION_SHAPE('NONE','NONE',#23);
#13=MANIFOLD_SURFACE_SHAPE_REPRESENTATION('1',(#24,#25),#5);
#16=UNCERTAINTY_MEASURE_WITH_UNIT(LENGTH_MEASURE(1.0E-06),#18,'','');
#18= (CONVERSION_BASED_UNIT('MILLIMETRE',#28)LENGTH_UNIT()NAMED_UNIT(#31));
#19= (NAMED_UNIT(#33)PLANE_ANGLE_UNIT()SI_UNIT($,.RADIAN.));
#20= (NAMED_UNIT(#33)SOLID_ANGLE_UNIT()SI_UNIT($,.STERADIAN.));
#22=PRODUCT('1','','PART--DESC',(#39));
#23=PRODUCT_DEFINITION('','NONE',#40,#1);
#24=SHELL_BASED_SURFACE_MODEL('1',(#41));
#25=AXIS2_PLACEMENT_3D('',#42,#43,#44);
#28=LENGTH_MEASURE_WITH_UNIT(LENGTH_MEASURE(1.0),#45);
#31=DIMENSIONAL_EXPONENTS(1.0,0.0,0.0,0.0,0.0,0.0,0.0);
#33=DIMENSIONAL_EXPONENTS(0.0,0.0,0.0,0.0,0.0,0.0,0.0);
#39=PRODUCT_CONTEXT('',#9,'mechanical');
#40=PRODUCT_DEFINITION_FORMATION_WITH_SPECIFIED_SOURCE(' ','NONE',#22,.NOT_KNOWN.);
#41=CLOSED_SHELL('',(#46));
#42=CARTESIAN_POINT('',(0.0,0.0,0.0));
#43=DIRECTION('',(0.0,0.0,1.0));
#44=DIRECTION('',(1.0,0.0,0.0));
#45= (NAMED_UNIT(#31)LENGTH_UNIT()SI_UNIT(.MILLI.,.METRE.));
#46=FACE_SURFACE('',(#48),#49,.T.);
#48=FACE_BOUND('',#50,.T.);
#49=CYLINDRICAL_SURFACE('',#51,1.24800727978821);
#50=EDGE_LOOP('',(#52,#53,#54,#55,#56,#57,#58,#59));
#51=AXIS2_PLACEMENT_3D('',#60,#61,#62);
#52=ORIENTED_EDGE('',*,*,#63,.T.);
#53=ORIENTED_EDGE('',*,*,#64,.T.);
#54=ORIENTED_EDGE('',*,*,#65,.T.);
#55=ORIENTED_EDGE('',*,*,#66,.T.);
#56=ORIENTED_EDGE('',*,*,#67,.T.);
#57=ORIENTED_EDGE('',*,*,#68,.T.);
#58=ORIENTED_EDGE('',*,*,#69,.T.);
#59=ORIENTED_EDGE('',*,*,#70,.T.);
#60=CARTESIAN_POINT('',(-0.291867146767675,-0.0163120622658117,-1.19696785881207));
#61=DIRECTION('',(0.0225637771109152,0.999562482778588,-0.0191237805884249));
#62=DIRECTION('',(0.0,-0.0191286506362905,-0.999817030623521));
#63=EDGE_CURVE('',#71,#72,#73,.T.);
#64=EDGE_CURVE('',#72,#74,#75,.T.);
#65=EDGE_CURVE('',#74,#76,#77,.T.);
#66=EDGE_CURVE('',#76,#78,#79,.T.);
#67=EDGE_CURVE('',#78,#80,#81,.T.);
#68=EDGE_CURVE('',#80,#82,#83,.T.);
#69=EDGE_CURVE('',#82,#84,#85,.T.);
#70=EDGE_CURVE('',#84,#71,#86,.T.);
#71=VERTEX_POINT('',#87);
#72=VERTEX_POINT('',#88);
#73=LINE('',#89,#90);
#74=VERTEX_POINT('',#91);
#75=LINE('',#92,#93);
#76=VERTEX_POINT('',#94);
#77=LINE('',#95,#96);
#78=VERTEX_POINT('',#97);
#79=B_SPLINE_CURVE_WITH_KNOTS('',3,(#98,#99,#100,#101,#102,#103,#104,#105,#106,#107,#108,#109,#110,#111,#112,#113,#114,#115,#116,#117,#118,#119,#120,#121,#122,#123,#124,#125,#126,#127,#128,#129),.UNSPECIFIED.,.F.,.F.,(4,1,1,1,1,1,1,1,1,1,1,1,1,1,1,1,1,1,1,1,1,1,1,1,1,1,1,1,1,4),(0.0,0.00812081556881498,0.01624163113763,0.0243624467064449,0.0324832622752599,0.0649665245505198,0.0974497868257797,0.12993304910104,0.1624163113763,0.194899573651559,0.259866098202079,0.324832622752599,0.389799147303119,0.454765671853639,0.519732196404159,0.584698720954678,0.649665245505198,0.714631770055718,0.779598294606238,0.844564819156758,0.877048081432018,0.909531343707278,0.942014605982537,0.974497868257797,0.990739499395427,1.00698113053306,1.01510194610187,1.02322276167069,1.0313435772395,1.03946439280832),.UNSPECIFIED.);
#80=VERTEX_POINT('',#130);
#81=LINE('',#131,#132);
#82=VERTEX_POINT('',#133);
#83=LINE('',#134,#135);
#84=VERTEX_POINT('',#136);
#85=LINE('',#137,#138);
#86=B_SPLINE_CURVE_WITH_KNOTS('',3,(#139,#140,#141,#142,#143,#144,#145,#146,#147,#148,#149,#150,#151,#152,#153,#154,#155,#156,#157,#158,#159,#160,#161,#162,#163,#164,#165,#166,#167,#168,#169,#170,#171),.UNSPECIFIED.,.F.,.F.,(4,1,1,1,1,1,1,1,1,1,1,1,1,1,1,1,1,1,1,1,1,1,1,1,1,1,1,1,1,1,4),(0.0,0.00804653481683698,0.016093069633674,0.0241396044505109,0.0321861392673479,0.0482792089010219,0.0643722785346958,0.0965584178020437,0.128744557069392,0.16093069633674,0.193116835604087,0.257489114138783,0.321861392673479,0.386233671208175,0.450605949742871,0.514978228277567,0.579350506812262,0.643722785346958,0.708095063881654,0.77246734241635,0.836839620951046,0.869025760218394,0.901211899485742,0.93339803875309,0.965584178020437,0.981677247654111,0.997770317287785,1.00581685210462,1.01386338692146,1.0219099217383,1.02995645655513),.UNSPECIFIED.);
#87=CARTESIAN_POINT('',(0.0103718154132366,0.100132711231709,0.0081463074311614));
#88=CARTESIAN_POINT('',(-2.14510775376026E-34,0.0900091603398323,-4.64647386612118E-34));
#89=CARTESIAN_POINT('',(0.00518590770661831,0.0950709357857704,0.0040731537155807));
#90=VECTOR('',#172,1.0);
#91=CARTESIAN_POINT('',(-1.79270074627973E-34,0.00999083835631609,-1.28247432385732E-34));
#92=CARTESIAN_POINT('',(1.9970696227198E-35,0.0499999993480742,-1.22742273212482E-35));
#93=VECTOR('',#173,1.0);
#94=CARTESIAN_POINT('',(0.00132640032097697,-7.73802166804671E-05,0.0117504615336657));
#95=CARTESIAN_POINT('',(0.000663200160488486,0.00495672906981781,0.00587523076683283));
#96=VECTOR('',#174,1.0);
#97=CARTESIAN_POINT('',(0.809449195861816,-7.82628630986437E-05,-0.593928456306458));
#98=CARTESIAN_POINT('',(0.00132640032097697,-7.73802166804671E-05,0.0117504615336657));
#99=CARTESIAN_POINT('',(0.00402896772316664,-9.12624476217971E-05,0.0119036048889031));
#100=CARTESIAN_POINT('',(0.00951745569808316,-0.000119218020887441,0.0122826947446536));
#101=CARTESIAN_POINT('',(0.0174442891769019,-0.000163022690470386,0.0106325704441132));
#102=CARTESIAN_POINT('',(0.0253255684233791,-0.000200192355542223,0.00848288465372718));
#103=CARTESIAN_POINT('',(0.0411518743967335,-0.000251971176495441,0.00499894476970089));
#104=CARTESIAN_POINT('',(0.0647112926620032,-0.000268085724750385,-0.00136216864097714));
#105=CARTESIAN_POINT('',(0.0959020528688924,-0.0002135177711333,-0.0103919018369866));
#106=CARTESIAN_POINT('',(0.126790311367132,-0.00014345503852699,-0.0204736017771109));
#107=CARTESIAN_POINT('',(0.157365567518848,-0.0001170432673668,-0.0314490568237256));
#108=CARTESIAN_POINT('',(0.197680075583154,-0.000121504973067632,-0.0472937801789645));
#109=CARTESIAN_POINT('',(0.247174744682335,-0.000165988505076378,-0.0692866632087933));
#110=CARTESIAN_POINT('',(0.304984623312412,-0.000168189349792336,-0.0989842782687622));
#111=CARTESIAN_POINT('',(0.361091280688631,-0.000150768937797337,-0.131782497357462));
#112=CARTESIAN_POINT('',(0.415393326650448,-0.000147076459779254,-0.167487388682926));
#113=CARTESIAN_POINT('',(0.467761615220461,-0.000146774762923573,-0.205972358325573));
#114=CARTESIAN_POINT('',(0.518051385701078,-0.000142895631153233,-0.24713686046684));
#115=CARTESIAN_POINT('',(0.566118715008641,-0.000136097459042456,-0.290875049970399));
#116=CARTESIAN_POINT('',(0.611846067559915,-0.000132824740274024,-0.33705624816372));
#117=CARTESIAN_POINT('',(0.655074128506936,-0.000113841628290839,-0.385579979383587));
#118=CARTESIAN_POINT('',(0.689230011821644,-0.000111548978253341,-0.42759978890461));
#119=CARTESIAN_POINT('',(0.715562190878012,-9.3946645091561E-05,-0.461988951799395));
#120=CARTESIAN_POINT('',(0.734813855155083,-7.9405264024497E-05,-0.488154948446242));
#121=CARTESIAN_POINT('',(0.753567613096403,-5.93591578407964E-05,-0.514677765184227));
#122=CARTESIAN_POINT('',(0.768749342448943,-4.4829694818397E-05,-0.537096949857791));
#123=CARTESIAN_POINT('',(0.780730330965523,-3.77018208599143E-05,-0.555122190313357));
#124=CARTESIAN_POINT('',(0.787930706602117,-4.14248055214242E-05,-0.566622053221475));
#125=CARTESIAN_POINT('',(0.794010213189436,-4.54998811498263E-05,-0.575516632912278));
#126=CARTESIAN_POINT('',(0.797923056391467,-6.07020649200354E-05,-0.582769876551533));
#127=CARTESIAN_POINT('',(0.802425487457763,-7.8379584619866E-05,-0.589438738430412));
#128=CARTESIAN_POINT('',(0.807187326896972,-7.80589085248657E-05,-0.592441356810376));
#129=CARTESIAN_POINT('',(0.809449195861816,-7.82628630986437E-05,-0.593928456306458));
#130=CARTESIAN_POINT('',(0.815752625465393,0.0100229363888502,-0.589556455612183));
#131=CARTESIAN_POINT('',(0.812600910663605,0.00497233676287579,-0.59174245595932));
#132=VECTOR('',#175,1.0);
#133=CARTESIAN_POINT('',(0.815727591514587,0.0898541882634163,-0.589761555194855));
#134=CARTESIAN_POINT('',(0.815697550773621,0.0499385623261333,-0.589606761932373));
#135=VECTOR('',#176,1.0);
#136=CARTESIAN_POINT('',(0.809440851211548,0.0999372601509094,-0.594115674495697));
#137=CARTESIAN_POINT('',(0.812584221363068,0.0948957242071629,-0.591938614845276));
#138=VECTOR('',#177,1.0);
#139=CARTESIAN_POINT('',(0.809440851211548,0.0999372601509094,-0.594115674495697));
#140=CARTESIAN_POINT('',(0.807279422644702,0.0999412088243957,-0.592527502199412));
#141=CARTESIAN_POINT('',(0.802770862605102,0.09995046021932,-0.589329524113398));
#142=CARTESIAN_POINT('',(0.798329628013532,0.0999337155076189,-0.582686285464691));
#143=CARTESIAN_POINT('',(0.794406935944633,0.0999174078729714,-0.575554420876968));
#144=CARTESIAN_POINT('',(0.788401196107572,0.0999168319084836,-0.56671403569056));
#145=CARTESIAN_POINT('',(0.781245163529875,0.0999115816239052,-0.555341816359926));
#146=CARTESIAN_POINT('',(0.76936812025748,0.0999123830979467,-0.53748189367806));
#147=CARTESIAN_POINT('',(0.75431105602927,0.0999160656743833,-0.515278983972741));
#148=CARTESIAN_POINT('',(0.735720771917199,0.0999224765456975,-0.489004043988657));
#149=CARTESIAN_POINT('',(0.716642978088107,0.0999310078056477,-0.463079158853809));
#150=CARTESIAN_POINT('',(0.690550706608332,0.0999441070973466,-0.429005302584207));
#151=CARTESIAN_POINT('',(0.65672752928745,0.0999491401100629,-0.387353785301372));
#152=CARTESIAN_POINT('',(0.613941279658932,0.0999656049344684,-0.339233174768408));
#153=CARTESIAN_POINT('',(0.568708978978568,0.0999672229166662,-0.293399268634579));
#154=CARTESIAN_POINT('',(0.521175527036476,0.0999756230591121,-0.249958476305399));
#155=CARTESIAN_POINT('',(0.471454451709994,0.0999853064927615,-0.209038453192443));
#156=CARTESIAN_POINT('',(0.41967785986875,0.0999937187723601,-0.170753465357923));
#157=CARTESIAN_POINT('',(0.366003932705603,0.100011721615895,-0.135177078121069));
#158=CARTESIAN_POINT('',(0.310547550784705,0.10004080151356,-0.102446319696271));
#159=CARTESIAN_POINT('',(0.253410502235945,0.100062724333147,-0.0727434092927372));
#160=CARTESIAN_POINT('',(0.204491535989027,0.100062053902255,-0.0506771804779716));
#161=CARTESIAN_POINT('',(0.164642725089992,0.10007428991809,-0.0347355618936489));
#162=CARTESIAN_POINT('',(0.134419526010859,0.100096032093432,-0.0236543806463711));
#163=CARTESIAN_POINT('',(0.103879961445715,0.10013581733015,-0.0134891970989485));
#164=CARTESIAN_POINT('',(0.0781896521146011,0.10016824807117,-0.0057418957711634));
#165=CARTESIAN_POINT('',(0.0574981738837415,0.100178382297923,-0.000114349037126572));
#166=CARTESIAN_POINT('',(0.0445268445891965,0.100180274156782,0.00343045828187241));
#167=CARTESIAN_POINT('',(0.0340920824420202,0.100174942671961,0.00568304464669764));
#168=CARTESIAN_POINT('',(0.0262921374301627,0.100168585926116,0.00805550653983735));
#169=CARTESIAN_POINT('',(0.0184619585351587,0.100156361089254,0.00964200144181061));
#170=CARTESIAN_POINT('',(0.0130147688040759,0.100140344879933,0.00860327502908454));
#171=CARTESIAN_POINT('',(0.0103718154132366,0.100132711231709,0.0081463074311614));
#172=DIRECTION('',(-0.623831979160464,-0.608899507702128,-0.489974541478274));
#173=DIRECTION('',(-0.0,-1.0,-0.0));
#174=DIRECTION('',(0.0854056848801399,-0.648280681704704,0.756596343315667));
#175=DIRECTION('',(0.496962241765602,0.796378311565681,0.344688431960085));
#176=DIRECTION('',(-7.91174656762295E-05,0.999941218817458,0.0108421699988107));
#177=DIRECTION('',(-0.496777964937337,0.796763933475011,-0.344062331367657));
ENDSEC;
END-ISO-10303-21;
