ISO-10303-21;
HEADER;
FILE_DESCRIPTION(('STEP AP214'),'1');
FILE_NAME('SMAStripDeformed_09.stp','2026-05-02T01:44:48',(' '),(' '),'Spatial InterOp 3D',' ',' ');
FILE_SCHEMA(('AUTOMOTIVE_DESIGN { 1 0 10303 214 1 1 1 1 }'));
ENDSEC;
DATA;
#1=PRODUCT_DEFINITION_CONTEXT('',#9,'design');
#2=APPLICATION_PROTOCOL_DEFINITION('INTERNATIONAL STANDARD','automotive_design',1994,#9);
#3=PRODUCT_CATEGORY_RELATIONSHIP('NONE','NONE',#10,#11);
#4=SHAPE_DEFINITION_REPRESENTATION(#12,#13);
#5= (GEOMETRIC_REPRESENTATION_CONTEXT(3)GLOBAL_UNCERTAINTY_ASSIGNED_CONTEXT((#16))GLOBAL_UNIT_ASSIGNED_CONTEXT((#18,#19,#20))REPRESENTATION_CONTEXT('NONE','WORKSPACE'));
#9=APPLICATION_CONTEXT(' ');
#10=PRODUCT_CATEGORY('part','NONE');
#11=PRODUCT_RELATED_PRODUCT_CATEGORY('detail',' ',(#22));
#12=PRODUCT_DEFINITION_SHAPE('NONE','NONE',#23);
#13=MANIFOLD_SURFACE_SHAPE_REPRESENTATION('1',(#24,#25),#5);
#16=UNCERTAINTY_MEASURE_WITH_UNIT(LENGTH_MEASURE(1.0E-06),#18,'','');
#18= (CONVERSION_BASED_UNIT('MILLIMETRE',#28)LENGTH_UNIT()NAMED_UNIT(#31));
#19= (NAMED_UNIT(#33)PLANE_ANGLE_UNIT()SI_UNIT($,.RADIAN.));
#20= (NAMED_UNIT(#33)SOLID_ANGLE_UNIT()SI_UNIT($,.STERADIAN.));
#22=PRODUCT('1','','PART--DESC',(#39));
#23=PRODUCT_DEFINITION('','NONE',#40,#1);
#24=SHELL_BASED_SURFACE_MODEL('1',(#41));
#25=AXIS2_PLACEMENT_3D('',#42,#43,#44);
#28=LENGTH_MEASURE_WITH_UNIT(LENGTH_MEASURE(1.0),#45);
#31=DIMENSIONAL_EXPONENTS(1.0,0.0,0.0,0.0,0.0,0.0,0.0);
#33=DIMENSIONAL_EXPONENTS(0.0,0.0,0.0,0.0,0.0,0.0,0.0);
#39=PRODUCT_CONTEXT('',#9,'mechanical');
#40=PRODUCT_DEFINITION_FORMATION_WITH_SPECIFIED_SOURCE(' ','NONE',#22,.NOT_KNOWN.);
#41=CLOSED_SHELL('',(#46));
#42=CARTESIAN_POINT('',(0.0,0.0,0.0));
#43=DIRECTION('',(0.0,0.0,1.0));
#44=DIRECTION('',(1.0,0.0,0.0));
#45= (NAMED_UNIT(#31)LENGTH_UNIT()SI_UNIT(.MILLI.,.METRE.));
#46=FACE_SURFACE('',(#48),#49,.T.);
#48=FACE_BOUND('',#50,.T.);
#49=CYLINDRICAL_SURFACE('',#51,1.26898112428905);
#50=EDGE_LOOP('',(#52,#53,#54,#55,#56,#57,#58,#59,#60));
#51=AXIS2_PLACEMENT_3D('',#61,#62,#63);
#52=ORIENTED_EDGE('',*,*,#64,.T.);
#53=ORIENTED_EDGE('',*,*,#65,.T.);
#54=ORIENTED_EDGE('',*,*,#66,.T.);
#55=ORIENTED_EDGE('',*,*,#67,.T.);
#56=ORIENTED_EDGE('',*,*,#68,.T.);
#57=ORIENTED_EDGE('',*,*,#69,.T.);
#58=ORIENTED_EDGE('',*,*,#70,.T.);
#59=ORIENTED_EDGE('',*,*,#71,.T.);
#60=ORIENTED_EDGE('',*,*,#72,.T.);
#61=CARTESIAN_POINT('',(-0.33410981668235,-0.0161324623810511,-1.20647925482342));
#62=DIRECTION('',(0.0227363461868868,0.999548133098362,-0.0196618458352672));
#63=DIRECTION('',(0.0,-0.0196669298178723,-0.99980658723152));
#64=EDGE_CURVE('',#73,#74,#75,.T.);
#65=EDGE_CURVE('',#74,#76,#77,.T.);
#66=EDGE_CURVE('',#76,#78,#79,.T.);
#67=EDGE_CURVE('',#78,#80,#81,.T.);
#68=EDGE_CURVE('',#80,#82,#83,.T.);
#69=EDGE_CURVE('',#82,#84,#85,.T.);
#70=EDGE_CURVE('',#84,#86,#87,.T.);
#71=EDGE_CURVE('',#86,#88,#89,.T.);
#72=EDGE_CURVE('',#88,#73,#90,.T.);
#73=VERTEX_POINT('',#91);
#74=VERTEX_POINT('',#92);
#75=B_SPLINE_CURVE_WITH_KNOTS('',3,(#93,#94,#95,#96,#97,#98,#99,#100,#101,#102,#103),.UNSPECIFIED.,.F.,.F.,(4,1,1,1,1,1,1,1,4),(0.0,0.127448692716877,0.254897385433754,0.382346078150631,0.509794770867508,0.637243463584385,0.764692156301262,0.892140849018139,1.01958954173502),.UNSPECIFIED.);
#76=VERTEX_POINT('',#104);
#77=LINE('',#105,#106);
#78=VERTEX_POINT('',#107);
#79=LINE('',#108,#109);
#80=VERTEX_POINT('',#110);
#81=LINE('',#111,#112);
#82=VERTEX_POINT('',#113);
#83=B_SPLINE_CURVE_WITH_KNOTS('',3,(#114,#115,#116,#117,#118,#119,#120,#121,#122,#123,#124),.UNSPECIFIED.,.F.,.F.,(4,1,1,1,1,1,1,1,4),(0.0,0.126259598306367,0.252519196612734,0.378778794919101,0.505038393225468,0.631297991531835,0.757557589838202,0.883817188144569,1.01007678645094),.UNSPECIFIED.);
#84=VERTEX_POINT('',#125);
#85=LINE('',#126,#127);
#86=VERTEX_POINT('',#128);
#87=LINE('',#129,#130);
#88=VERTEX_POINT('',#131);
#89=LINE('',#132,#133);
#90=LINE('',#134,#135);
#91=CARTESIAN_POINT('',(0.0117511507123709,-0.000118855750770308,0.0134156690910459));
#92=CARTESIAN_POINT('',(0.787399172782898,-0.00028897327138111,-0.60657149553299));
#93=CARTESIAN_POINT('',(0.0117511507123709,-0.000118855750770308,0.0134156690910459));
#94=CARTESIAN_POINT('',(0.0528811911439724,-0.000369009996634736,0.00278299383568406));
#95=CARTESIAN_POINT('',(0.133948567230858,-7.17922458527336E-05,-0.023122003607546));
#96=CARTESIAN_POINT('',(0.250202887123001,-0.000266758854810742,-0.0758567062681161));
#97=CARTESIAN_POINT('',(0.360120352404709,-0.00024046818304572,-0.140693077761741));
#98=CARTESIAN_POINT('',(0.462984108039778,-0.000279848390347651,-0.216206608285238));
#99=CARTESIAN_POINT('',(0.557765085193934,-0.000302497473303353,-0.301672853504508));
#100=CARTESIAN_POINT('',(0.643094141291781,-0.000302403796255065,-0.396546379455124));
#101=CARTESIAN_POINT('',(0.719533118191759,-0.000317865894609789,-0.498664498458119));
#102=CARTESIAN_POINT('',(0.7655259214629,-0.000190105863086839,-0.570152438872147));
#103=CARTESIAN_POINT('',(0.787399172782898,-0.00028897327138111,-0.60657149553299));
#104=CARTESIAN_POINT('',(0.80456280708313,0.009790756739676,-0.606087505817413));
#105=CARTESIAN_POINT('',(0.795980989933014,0.00475089173414744,-0.606329500675201));
#106=VECTOR('',#136,1.0);
#107=CARTESIAN_POINT('',(0.804539859294891,0.0895219594240189,-0.605733036994934));
#108=CARTESIAN_POINT('',(0.804513990879059,0.0496563580818474,-0.606102526187897));
#109=VECTOR('',#137,1.0);
#110=CARTESIAN_POINT('',(0.788347125053406,0.0996882915496826,-0.606066167354584));
#111=CARTESIAN_POINT('',(0.796443492174149,0.0946051254868507,-0.605899602174759));
#112=VECTOR('',#138,1.0);
#113=CARTESIAN_POINT('',(0.0205241944640875,0.100180365145206,0.00980054493993521));
#114=CARTESIAN_POINT('',(0.788347125053406,0.0996882915496826,-0.606066167354584));
#115=CARTESIAN_POINT('',(0.766589325309014,0.0995649361401152,-0.570040354744398));
#116=CARTESIAN_POINT('',(0.720905397100135,0.0997095282890601,-0.499296809037638));
#117=CARTESIAN_POINT('',(0.645027518615277,0.0997420346231008,-0.398250085189779));
#118=CARTESIAN_POINT('',(0.560537916543192,0.09981056135831,-0.304229304419465));
#119=CARTESIAN_POINT('',(0.466728741373531,0.0998516759210802,-0.219466026817643));
#120=CARTESIAN_POINT('',(0.364976368476957,0.0999002393949493,-0.144456490488024));
#121=CARTESIAN_POINT('',(0.256283723724002,0.100007016790806,-0.0798974683119329));
#122=CARTESIAN_POINT('',(0.141357251259372,0.10001333476467,-0.0271301545304113));
#123=CARTESIAN_POINT('',(0.0611965143663652,0.100218686463688,-0.00101782673706297));
#124=CARTESIAN_POINT('',(0.0205241944640875,0.100180365145206,0.00980054493993521));
#125=CARTESIAN_POINT('',(0.0103771463036537,0.10014558583498,0.00812607537955046));
#126=CARTESIAN_POINT('',(0.0154506703838706,0.100162975490093,0.00896331015974283));
#127=VECTOR('',#139,1.0);
#128=CARTESIAN_POINT('',(-8.42210745588545E-10,0.0900091603398323,6.09867267797881E-10));
#129=CARTESIAN_POINT('',(0.00518857273072149,0.0950773730874062,0.00406303799470886));
#130=VECTOR('',#140,1.0);
#131=CARTESIAN_POINT('',(-3.75981317097532E-34,0.00999083835631609,-5.32137568245115E-34));
#132=CARTESIAN_POINT('',(-4.21105372794273E-10,0.0499999993480742,3.04933633898941E-10));
#133=VECTOR('',#141,1.0);
#134=CARTESIAN_POINT('',(0.00587557535618544,0.00493599130277289,0.00670783454552293));
#135=VECTOR('',#142,1.0);
#136=DIRECTION('',(0.862042020859866,0.506253551926127,0.0243083408322815));
#137=DIRECTION('',(-9.68872433413162E-05,0.999973422650507,0.00729003467011563));
#138=DIRECTION('',(-0.846789697867778,0.531642474997138,-0.017420860022244));
#139=DIRECTION('',(-0.986650421726962,-0.00338177374934462,-0.162817409733468));
#140=DIRECTION('',(-0.62410501087954,-0.609627277977069,-0.488720285379397));
#141=DIRECTION('',(-0.0,-1.0,-0.0));
#142=DIRECTION('',(0.573209381457106,-0.493140769588034,0.654402923572079));
ENDSEC;
END-ISO-10303-21;
