ISO-10303-21;
HEADER;
FILE_DESCRIPTION(('STEP AP214'),'1');
FILE_NAME('SMAStripDeformed_03.stp','2026-04-23T09:28:39',(' '),(' '),'Spatial InterOp 3D',' ',' ');
FILE_SCHEMA(('AUTOMOTIVE_DESIGN { 1 0 10303 214 1 1 1 1 }'));
ENDSEC;
DATA;
#1=PRODUCT_DEFINITION_CONTEXT('',#9,'design');
#2=APPLICATION_PROTOCOL_DEFINITION('INTERNATIONAL STANDARD','automotive_design',1994,#9);
#3=PRODUCT_CATEGORY_RELATIONSHIP('NONE','NONE',#10,#11);
#4=SHAPE_DEFINITION_REPRESENTATION(#12,#13);
#5= (GEOMETRIC_REPRESENTATION_CONTEXT(3)GLOBAL_UNCERTAINTY_ASSIGNED_CONTEXT((#16))GLOBAL_UNIT_ASSIGNED_CONTEXT((#18,#19,#20))REPRESENTATION_CONTEXT('NONE','WORKSPACE'));
#9=APPLICATION_CONTEXT(' ');
#10=PRODUCT_CATEGORY('part','NONE');
#11=PRODUCT_RELATED_PRODUCT_CATEGORY('detail',' ',(#22));
#12=PRODUCT_DEFINITION_SHAPE('NONE','NONE',#23);
#13=MANIFOLD_SURFACE_SHAPE_REPRESENTATION('1',(#24,#25),#5);
#16=UNCERTAINTY_MEASURE_WITH_UNIT(LENGTH_MEASURE(1.0E-06),#18,'','');
#18= (CONVERSION_BASED_UNIT('MILLIMETRE',#28)LENGTH_UNIT()NAMED_UNIT(#31));
#19= (NAMED_UNIT(#33)PLANE_ANGLE_UNIT()SI_UNIT($,.RADIAN.));
#20= (NAMED_UNIT(#33)SOLID_ANGLE_UNIT()SI_UNIT($,.STERADIAN.));
#22=PRODUCT('1','','PART--DESC',(#39));
#23=PRODUCT_DEFINITION('','NONE',#40,#1);
#24=SHELL_BASED_SURFACE_MODEL('1',(#41));
#25=AXIS2_PLACEMENT_3D('',#42,#43,#44);
#28=LENGTH_MEASURE_WITH_UNIT(LENGTH_MEASURE(1.0),#45);
#31=DIMENSIONAL_EXPONENTS(1.0,0.0,0.0,0.0,0.0,0.0,0.0);
#33=DIMENSIONAL_EXPONENTS(0.0,0.0,0.0,0.0,0.0,0.0,0.0);
#39=PRODUCT_CONTEXT('',#9,'mechanical');
#40=PRODUCT_DEFINITION_FORMATION_WITH_SPECIFIED_SOURCE(' ','NONE',#22,.NOT_KNOWN.);
#41=CLOSED_SHELL('',(#46));
#42=CARTESIAN_POINT('',(0.0,0.0,0.0));
#43=DIRECTION('',(0.0,0.0,1.0));
#44=DIRECTION('',(1.0,0.0,0.0));
#45= (NAMED_UNIT(#31)LENGTH_UNIT()SI_UNIT(.MILLI.,.METRE.));
#46=FACE_SURFACE('',(#48),#49,.T.);
#48=FACE_BOUND('',#50,.T.);
#49=CYLINDRICAL_SURFACE('',#51,1.62467104551596);
#50=EDGE_LOOP('',(#52,#53,#54,#55,#56));
#51=AXIS2_PLACEMENT_3D('',#57,#58,#59);
#52=ORIENTED_EDGE('',*,*,#60,.T.);
#53=ORIENTED_EDGE('',*,*,#61,.T.);
#54=ORIENTED_EDGE('',*,*,#62,.T.);
#55=ORIENTED_EDGE('',*,*,#63,.T.);
#56=ORIENTED_EDGE('',*,*,#64,.T.);
#57=CARTESIAN_POINT('',(-0.0920472029353441,-0.00123347428695253,-1.61788960887554));
#58=DIRECTION('',(0.00227788895718662,0.999997007781986,-0.000891991576871979));
#59=DIRECTION('',(3.04023656096876E-22,-0.000891993891054165,-0.99999960217337));
#60=EDGE_CURVE('',#65,#66,#67,.T.);
#61=EDGE_CURVE('',#66,#68,#69,.T.);
#62=EDGE_CURVE('',#68,#70,#71,.T.);
#63=EDGE_CURVE('',#70,#72,#73,.T.);
#64=EDGE_CURVE('',#72,#65,#74,.T.);
#65=VERTEX_POINT('',#75);
#66=VERTEX_POINT('',#76);
#67=LINE('',#77,#78);
#68=VERTEX_POINT('',#79);
#69=LINE('',#80,#81);
#70=VERTEX_POINT('',#82);
#71=B_SPLINE_CURVE_WITH_KNOTS('',3,(#83,#84,#85,#86,#87,#88,#89,#90,#91,#92,#93,#94,#95,#96,#97,#98,#99,#100,#101),.UNSPECIFIED.,.F.,.F.,(4,1,1,1,1,1,1,1,1,1,1,1,1,1,1,1,4),(0.0,0.128798730359213,0.257597460718426,0.386396191077639,0.515194921436852,0.643993651796065,0.708393016975672,0.772792382155278,0.837191747334885,0.901591112514491,0.933790795104295,0.965990477694098,0.998190160283901,1.00624008093135,1.0142900015788,1.02233992222625,1.0303898428737),.UNSPECIFIED.);
#72=VERTEX_POINT('',#102);
#73=LINE('',#103,#104);
#74=B_SPLINE_CURVE_WITH_KNOTS('',3,(#105,#106,#107,#108,#109,#110,#111,#112,#113,#114,#115,#116,#117,#118,#119,#120,#121,#122,#123,#124,#125,#126,#127,#128,#129,#130,#131,#132),.UNSPECIFIED.,.F.,.F.,(4,1,1,1,1,1,1,1,1,1,1,1,1,1,1,1,1,1,1,1,1,1,1,1,1,4),(0.0,0.00805082156277401,0.016101643125548,0.024152464688322,0.032203286251096,0.064406572502192,0.0966098587532881,0.128813145004384,0.193219717506576,0.257626290008768,0.32203286251096,0.386439435013152,0.515252580017536,0.64406572502192,0.708472297524113,0.772878870026305,0.837285442528497,0.869488728779593,0.901692015030689,0.933895301281785,0.966098587532881,0.998301873783977,1.00635269534675,1.01440351690952,1.0224543384723,1.03050516003507),.UNSPECIFIED.);
#75=CARTESIAN_POINT('',(1.38499542167923E-37,0.100011453032494,7.25790096066676E-38));
#76=CARTESIAN_POINT('',(-6.02590718846715E-35,0.00999083835631609,-1.14498487708305E-34));
#77=CARTESIAN_POINT('',(1.96107355205698E-35,0.0550011456944048,2.290524784946E-35));
#78=VECTOR('',#133,1.0);
#79=CARTESIAN_POINT('',(4.16897237300873E-05,-1.14030026452383E-05,0.00175745249725878));
#80=CARTESIAN_POINT('',(2.08448618650436E-05,0.00498971767683543,0.000878726248629391));
#81=VECTOR('',#134,1.0);
#82=CARTESIAN_POINT('',(0.945714592933655,-1.28737756313058E-05,-0.362844944000244));
#83=CARTESIAN_POINT('',(4.16897237300873E-05,-1.14030026452383E-05,0.00175745249725878));
#84=CARTESIAN_POINT('',(0.0429548660834494,-0.00016572189227135,0.000465070297827514));
#85=CARTESIAN_POINT('',(0.128656820575332,-1.22732511968488E-05,-0.00619176291206692));
#86=CARTESIAN_POINT('',(0.255740938334616,-7.62367669848007E-05,-0.0279297987947869));
#87=CARTESIAN_POINT('',(0.380399947289123,-5.78083812348288E-05,-0.0607951830094436));
#88=CARTESIAN_POINT('',(0.501861913660743,-5.83863186558205E-05,-0.103965779868964));
#89=CARTESIAN_POINT('',(0.599905289182648,-5.15071495805597E-05,-0.147837670553451));
#90=CARTESIAN_POINT('',(0.67620671908619,-4.5826070608271E-05,-0.187251839676924));
#91=CARTESIAN_POINT('',(0.73232420918888,-4.0702802265935E-05,-0.218865995785789));
#92=CARTESIAN_POINT('',(0.787293599514394,-3.44678428751185E-05,-0.252435010708751));
#93=CARTESIAN_POINT('',(0.832129678237631,-2.91852197244842E-05,-0.281940815960065));
#94=CARTESIAN_POINT('',(0.867385046610552,-2.53702583803262E-05,-0.306445142370266));
#95=CARTESIAN_POINT('',(0.893568071995414,-2.22345904063626E-05,-0.32518492797774));
#96=CARTESIAN_POINT('',(0.912856721270567,-1.87552122155048E-05,-0.339734936137082));
#97=CARTESIAN_POINT('',(0.925803130834747,-1.63495264109333E-05,-0.349283842224391));
#98=CARTESIAN_POINT('',(0.932063040507081,-1.47042734447953E-05,-0.354379646374708));
#99=CARTESIAN_POINT('',(0.938494279228096,-1.32058176125884E-05,-0.359200189857917));
#100=CARTESIAN_POINT('',(0.943325968340417,-1.29972761114907E-05,-0.361622402236985));
#101=CARTESIAN_POINT('',(0.945714592933655,-1.28737756313058E-05,-0.362844944000244));
#102=CARTESIAN_POINT('',(0.945699214935303,0.100034512579441,-0.362818479537964));
#103=CARTESIAN_POINT('',(0.945708423852921,0.0500108194019049,-0.362828075885773));
#104=VECTOR('',#135,1.0);
#105=CARTESIAN_POINT('',(0.945699214935303,0.100034512579441,-0.362818479537964));
#106=CARTESIAN_POINT('',(0.943312794597422,0.100034639485431,-0.361590983919995));
#107=CARTESIAN_POINT('',(0.938486364431705,0.10003487197258,-0.359158717843465));
#108=CARTESIAN_POINT('',(0.932050356535199,0.100035846816933,-0.354343357533692));
#109=CARTESIAN_POINT('',(0.925789865520574,0.100036823463693,-0.349247205202842));
#110=CARTESIAN_POINT('',(0.912842555566294,0.100038083514406,-0.33969601432107));
#111=CARTESIAN_POINT('',(0.893550351357698,0.100039651887625,-0.3251466510618));
#112=CARTESIAN_POINT('',(0.867363967319526,0.100040618918545,-0.306405238501318));
#113=CARTESIAN_POINT('',(0.832103647087472,0.100041601706384,-0.281899654600593));
#114=CARTESIAN_POINT('',(0.787261444643444,0.100043658274254,-0.252392212370673));
#115=CARTESIAN_POINT('',(0.732284445179205,0.100046497538818,-0.218821822077131));
#116=CARTESIAN_POINT('',(0.676159139009375,0.100048707526323,-0.187206860574402));
#117=CARTESIAN_POINT('',(0.599847091182762,0.10005115137848,-0.147792233422519));
#118=CARTESIAN_POINT('',(0.501790186218029,0.100053916191673,-0.103921636396935));
#119=CARTESIAN_POINT('',(0.40055738736988,0.100055820456261,-0.0679487339627133));
#120=CARTESIAN_POINT('',(0.317974139986531,0.10005683626015,-0.0443264372708468));
#121=CARTESIAN_POINT('',(0.255331935764371,0.100057400027343,-0.0292883770206671));
#122=CARTESIAN_POINT('',(0.202627503499945,0.100057647906568,-0.0190720476462481));
#123=CARTESIAN_POINT('',(0.16021894713281,0.100057750260998,-0.0123310615572405));
#124=CARTESIAN_POINT('',(0.128305779568028,0.100057873535267,-0.00800931115304214));
#125=CARTESIAN_POINT('',(0.0962999644708058,0.100059159277113,-0.0043987609776339));
#126=CARTESIAN_POINT('',(0.0642249732590948,0.100058335639922,-0.00162254347943988));
#127=CARTESIAN_POINT('',(0.040111143069673,0.100060187830157,0.00016546542587432));
#128=CARTESIAN_POINT('',(0.0240449602293193,0.100050333447704,0.000737887851281043));
#129=CARTESIAN_POINT('',(0.0159848656162586,0.100046281037214,0.00138473663200906));
#130=CARTESIAN_POINT('',(0.00795485296480482,0.100037506417486,0.00157961513923278));
#131=CARTESIAN_POINT('',(0.00263569799517016,0.100019902797428,0.000504749657771322));
#132=CARTESIAN_POINT('',(1.38499542167923E-37,0.100011453032494,7.25790096066676E-38));
#133=DIRECTION('',(-0.0,-1.0,-0.0));
#134=DIRECTION('',(0.00410511700089151,-0.984903889398032,0.173053392521034));
#135=DIRECTION('',(-0.000153490466508936,0.999999986833576,-5.26642727735814E-05));
ENDSEC;
END-ISO-10303-21;
