ISO-10303-21;
HEADER;
FILE_DESCRIPTION(('STEP AP214'),'1');
FILE_NAME('SMAStripDeformed_07.stp','2026-04-23T09:33:12',(' '),(' '),'Spatial InterOp 3D',' ',' ');
FILE_SCHEMA(('AUTOMOTIVE_DESIGN { 1 0 10303 214 1 1 1 1 }'));
ENDSEC;
DATA;
#1=PRODUCT_DEFINITION_CONTEXT('',#9,'design');
#2=APPLICATION_PROTOCOL_DEFINITION('INTERNATIONAL STANDARD','automotive_design',1994,#9);
#3=PRODUCT_CATEGORY_RELATIONSHIP('NONE','NONE',#10,#11);
#4=SHAPE_DEFINITION_REPRESENTATION(#12,#13);
#5= (GEOMETRIC_REPRESENTATION_CONTEXT(3)GLOBAL_UNCERTAINTY_ASSIGNED_CONTEXT((#16))GLOBAL_UNIT_ASSIGNED_CONTEXT((#18,#19,#20))REPRESENTATION_CONTEXT('NONE','WORKSPACE'));
#9=APPLICATION_CONTEXT(' ');
#10=PRODUCT_CATEGORY('part','NONE');
#11=PRODUCT_RELATED_PRODUCT_CATEGORY('detail',' ',(#22));
#12=PRODUCT_DEFINITION_SHAPE('NONE','NONE',#23);
#13=MANIFOLD_SURFACE_SHAPE_REPRESENTATION('1',(#24,#25),#5);
#16=UNCERTAINTY_MEASURE_WITH_UNIT(LENGTH_MEASURE(1.0E-06),#18,'','');
#18= (CONVERSION_BASED_UNIT('MILLIMETRE',#28)LENGTH_UNIT()NAMED_UNIT(#31));
#19= (NAMED_UNIT(#33)PLANE_ANGLE_UNIT()SI_UNIT($,.RADIAN.));
#20= (NAMED_UNIT(#33)SOLID_ANGLE_UNIT()SI_UNIT($,.STERADIAN.));
#22=PRODUCT('1','','PART--DESC',(#39));
#23=PRODUCT_DEFINITION('','NONE',#40,#1);
#24=SHELL_BASED_SURFACE_MODEL('1',(#41));
#25=AXIS2_PLACEMENT_3D('',#42,#43,#44);
#28=LENGTH_MEASURE_WITH_UNIT(LENGTH_MEASURE(1.0),#45);
#31=DIMENSIONAL_EXPONENTS(1.0,0.0,0.0,0.0,0.0,0.0,0.0);
#33=DIMENSIONAL_EXPONENTS(0.0,0.0,0.0,0.0,0.0,0.0,0.0);
#39=PRODUCT_CONTEXT('',#9,'mechanical');
#40=PRODUCT_DEFINITION_FORMATION_WITH_SPECIFIED_SOURCE(' ','NONE',#22,.NOT_KNOWN.);
#41=CLOSED_SHELL('',(#46));
#42=CARTESIAN_POINT('',(0.0,0.0,0.0));
#43=DIRECTION('',(0.0,0.0,1.0));
#44=DIRECTION('',(1.0,0.0,0.0));
#45= (NAMED_UNIT(#31)LENGTH_UNIT()SI_UNIT(.MILLI.,.METRE.));
#46=FACE_SURFACE('',(#48),#49,.T.);
#48=FACE_BOUND('',#50,.T.);
#49=CYLINDRICAL_SURFACE('',#51,1.24060437561889);
#50=EDGE_LOOP('',(#52,#53,#54,#55,#56,#57,#58,#59));
#51=AXIS2_PLACEMENT_3D('',#60,#61,#62);
#52=ORIENTED_EDGE('',*,*,#63,.T.);
#53=ORIENTED_EDGE('',*,*,#64,.T.);
#54=ORIENTED_EDGE('',*,*,#65,.T.);
#55=ORIENTED_EDGE('',*,*,#66,.T.);
#56=ORIENTED_EDGE('',*,*,#67,.T.);
#57=ORIENTED_EDGE('',*,*,#68,.T.);
#58=ORIENTED_EDGE('',*,*,#69,.T.);
#59=ORIENTED_EDGE('',*,*,#70,.T.);
#60=CARTESIAN_POINT('',(-0.247705948391532,-0.00836139805465643,-1.20148388087126));
#61=DIRECTION('',(-0.00903578482067849,-0.999920264253527,0.00882154906071892));
#62=DIRECTION('',(1.26346386973578E-20,0.00882190920225515,0.999961086201872));
#63=EDGE_CURVE('',#71,#72,#73,.T.);
#64=EDGE_CURVE('',#72,#74,#75,.T.);
#65=EDGE_CURVE('',#74,#76,#77,.T.);
#66=EDGE_CURVE('',#76,#78,#79,.T.);
#67=EDGE_CURVE('',#78,#80,#81,.T.);
#68=EDGE_CURVE('',#80,#82,#83,.T.);
#69=EDGE_CURVE('',#82,#84,#85,.T.);
#70=EDGE_CURVE('',#84,#71,#86,.T.);
#71=VERTEX_POINT('',#87);
#72=VERTEX_POINT('',#88);
#73=LINE('',#89,#90);
#74=VERTEX_POINT('',#91);
#75=LINE('',#92,#93);
#76=VERTEX_POINT('',#94);
#77=LINE('',#95,#96);
#78=VERTEX_POINT('',#97);
#79=B_SPLINE_CURVE_WITH_KNOTS('',3,(#98,#99,#100,#101,#102,#103,#104,#105,#106,#107,#108,#109,#110,#111,#112,#113,#114,#115),.UNSPECIFIED.,.F.,.F.,(4,1,1,1,1,1,1,1,1,1,1,1,1,1,1,4),(0.0,0.129792973677343,0.259585947354687,0.38937892103203,0.519171894709374,0.648964868386718,0.713861355225389,0.778757842064061,0.843654328902733,0.908550815741405,0.94099905916074,0.973447302580076,1.00589554599941,1.02211966770908,1.03023172856391,1.03834378941875),.UNSPECIFIED.);
#80=VERTEX_POINT('',#116);
#81=LINE('',#117,#118);
#82=VERTEX_POINT('',#119);
#83=LINE('',#120,#121);
#84=VERTEX_POINT('',#122);
#85=LINE('',#123,#124);
#86=B_SPLINE_CURVE_WITH_KNOTS('',3,(#125,#126,#127,#128,#129,#130,#131,#132,#133,#134,#135,#136,#137,#138,#139,#140,#141,#142,#143,#144,#145,#146,#147,#148,#149,#150,#151,#152),.UNSPECIFIED.,.F.,.F.,(4,1,1,1,1,1,1,1,1,1,1,1,1,1,1,1,1,1,1,1,1,1,1,1,1,4),(0.0,0.00803907300605871,0.0160781460121174,0.0241172190181761,0.0321562920242348,0.0643125840484697,0.0964688760727045,0.128625168096939,0.192937752145409,0.257250336193879,0.321562920242348,0.385875504290818,0.514500672387758,0.643125840484697,0.707438424533167,0.771751008581636,0.836063592630106,0.868219884654341,0.900376176678576,0.93253246870281,0.964688760727045,0.99684505275128,1.00488412575734,1.0129231987634,1.02096227176946,1.02900134477552),.UNSPECIFIED.);
#87=CARTESIAN_POINT('',(0.0103677567094564,0.100121051073074,0.008198750205338));
#88=CARTESIAN_POINT('',(1.35967620050642E-37,0.0900091603398323,1.68958535531282E-37));
#89=CARTESIAN_POINT('',(0.00518387835472822,0.0950651057064533,0.004099375102669));
#90=VECTOR('',#153,1.0);
#91=CARTESIAN_POINT('',(-2.25232431799228E-34,0.00999083835631609,-1.42344732058961E-34));
#92=CARTESIAN_POINT('',(1.04084193211308E-34,0.0499999993480742,1.17159822989778E-34));
#93=VECTOR('',#154,1.0);
#94=CARTESIAN_POINT('',(0.00131065689492971,-6.22337684035301E-05,0.0117476582527161));
#95=CARTESIAN_POINT('',(0.000655328447464854,0.00496430229395628,0.00587382912635803));
#96=VECTOR('',#155,1.0);
#97=CARTESIAN_POINT('',(0.824583292007446,-0.000129234133055434,-0.571028470993042));
#98=CARTESIAN_POINT('',(0.00131065689492971,-6.22337684035301E-05,0.0117476582527161));
#99=CARTESIAN_POINT('',(0.0439288745750969,-0.000385037860927123,0.00430554169624299));
#100=CARTESIAN_POINT('',(0.128217756243314,-1.0914770161697E-05,-0.0159717577329542));
#101=CARTESIAN_POINT('',(0.250065373495615,-0.000159107749172687,-0.0613282833185639));
#102=CARTESIAN_POINT('',(0.365985953675072,-0.000110249641771994,-0.120138240469583));
#103=CARTESIAN_POINT('',(0.475075210671788,-0.000111764640547987,-0.190780269400639));
#104=CARTESIAN_POINT('',(0.559543268027395,-0.000106477961960679,-0.258559789604782));
#105=CARTESIAN_POINT('',(0.622703872358036,-0.000103773100683353,-0.317745503444238));
#106=CARTESIAN_POINT('',(0.66775611862092,-0.000104178271317711,-0.364484422884217));
#107=CARTESIAN_POINT('',(0.71037760973589,-0.000114244640786311,-0.413452542076253));
#108=CARTESIAN_POINT('',(0.743744181249186,-9.66127024099249E-05,-0.45603211361183));
#109=CARTESIAN_POINT('',(0.769340282693423,-8.60317944371321E-05,-0.490914915805502));
#110=CARTESIAN_POINT('',(0.787996346038505,-8.06360013682336E-05,-0.517466290420134));
#111=CARTESIAN_POINT('',(0.80317209420106,-8.57113793112045E-05,-0.539845071353419));
#112=CARTESIAN_POINT('',(0.813471899712898,-0.00010352378801223,-0.555733059034815));
#113=CARTESIAN_POINT('',(0.819340999925959,-0.000123291989588979,-0.564814798661361));
#114=CARTESIAN_POINT('',(0.822849362373607,-0.000127113284325751,-0.568953571181416));
#115=CARTESIAN_POINT('',(0.824583292007446,-0.000129234133055434,-0.571028470993042));
#116=CARTESIAN_POINT('',(0.831058144569397,0.00994204450398684,-0.566767394542694));
#117=CARTESIAN_POINT('',(0.827820718288422,0.0049064051854657,-0.568897932767868));
#118=VECTOR('',#156,1.0);
#119=CARTESIAN_POINT('',(0.831050753593445,0.0898782685399055,-0.56678307056427));
#120=CARTESIAN_POINT('',(0.831015199422836,0.0499101565219462,-0.566797286272049));
#121=VECTOR('',#157,1.0);
#122=CARTESIAN_POINT('',(0.82454925775528,0.0999230667948723,-0.571260750293732));
#123=CARTESIAN_POINT('',(0.827800005674362,0.0949006676673889,-0.569021910429001));
#124=VECTOR('',#158,1.0);
#125=CARTESIAN_POINT('',(0.82454925775528,0.0999230667948723,-0.571260750293732));
#126=CARTESIAN_POINT('',(0.822808743329328,0.0999223291298657,-0.56922326339679));
#127=CARTESIAN_POINT('',(0.819289243808007,0.099921086787711,-0.565154765588928));
#128=CARTESIAN_POINT('',(0.814888671318679,0.0999142400642493,-0.558433404750912));
#129=CARTESIAN_POINT('',(0.810630604940295,0.0999106895641617,-0.551602613041686));
#130=CARTESIAN_POINT('',(0.80167067221911,0.0999131724817135,-0.538259768664465));
#131=CARTESIAN_POINT('',(0.788284185908677,0.0999190534797852,-0.518192198965295));
#132=CARTESIAN_POINT('',(0.769786007698945,0.0999347516837589,-0.49188837477545));
#133=CARTESIAN_POINT('',(0.744512056890496,0.0999655251813681,-0.457251717555598));
#134=CARTESIAN_POINT('',(0.71141896478535,0.0999724308836551,-0.415075519134325));
#135=CARTESIAN_POINT('',(0.669273447728825,0.0999806974342196,-0.366470415149843));
#136=CARTESIAN_POINT('',(0.624730910258731,0.099989491939221,-0.320051380148857));
#137=CARTESIAN_POINT('',(0.562298461528007,0.10000253667186,-0.261229236016549));
#138=CARTESIAN_POINT('',(0.478828757708262,0.100020607854551,-0.193767625934513));
#139=CARTESIAN_POINT('',(0.388991390233723,0.100038249110038,-0.135043564814497));
#140=CARTESIAN_POINT('',(0.313758834935639,0.100070007971756,-0.0938323315765934));
#141=CARTESIAN_POINT('',(0.255746537549619,0.100085178406184,-0.0660144430940641));
#142=CARTESIAN_POINT('',(0.206184259055458,0.100077739619663,-0.0455648506567634));
#143=CARTESIAN_POINT('',(0.165876587906105,0.100083584120016,-0.0309359100993014));
#144=CARTESIAN_POINT('',(0.135337142200355,0.100099878874248,-0.0208600673012063));
#145=CARTESIAN_POINT('',(0.104514274590484,0.100133765921086,-0.0116693583461792));
#146=CARTESIAN_POINT('',(0.0734209570625231,0.100165476780602,-0.00350373743132964));
#147=CARTESIAN_POINT('',(0.0499498617229158,0.100168089676572,0.0021799197499541));
#148=CARTESIAN_POINT('',(0.0342004237995913,0.100158859662527,0.00527254201645868));
#149=CARTESIAN_POINT('',(0.0263508264028569,0.100149949860201,0.00717562121458749));
#150=CARTESIAN_POINT('',(0.0184611293760945,0.100135515714449,0.00861363951615561));
#151=CARTESIAN_POINT('',(0.0130448391345935,0.100125877694162,0.00831686142011404));
#152=CARTESIAN_POINT('',(0.0103677567094564,0.100121051073074,0.008198750205338));
#153=DIRECTION('',(-0.622982864098221,-0.607608263482647,-0.492650534545108));
#154=DIRECTION('',(-0.0,-1.0,-0.0));
#155=DIRECTION('',(0.0844637179487112,-0.647858224181477,0.757063802932556));
#156=DIRECTION('',(0.509481759733553,0.792470981180361,0.33528805598446));
#157=DIRECTION('',(-7.40189409211882E-05,0.999906820177332,-0.0136508418807697));
#158=DIRECTION('',(-0.508897767446516,0.786246047624292,-0.350485684277021));
ENDSEC;
END-ISO-10303-21;
