ISO-10303-21;
HEADER;
FILE_DESCRIPTION(('STEP AP214'),'1');
FILE_NAME('SMAStripDeformed_05.stp','2026-04-23T09:30:29',(' '),(' '),'Spatial InterOp 3D',' ',' ');
FILE_SCHEMA(('AUTOMOTIVE_DESIGN { 1 0 10303 214 1 1 1 1 }'));
ENDSEC;
DATA;
#1=PRODUCT_DEFINITION_CONTEXT('',#9,'design');
#2=APPLICATION_PROTOCOL_DEFINITION('INTERNATIONAL STANDARD','automotive_design',1994,#9);
#3=PRODUCT_CATEGORY_RELATIONSHIP('NONE','NONE',#10,#11);
#4=SHAPE_DEFINITION_REPRESENTATION(#12,#13);
#5= (GEOMETRIC_REPRESENTATION_CONTEXT(3)GLOBAL_UNCERTAINTY_ASSIGNED_CONTEXT((#16))GLOBAL_UNIT_ASSIGNED_CONTEXT((#18,#19,#20))REPRESENTATION_CONTEXT('NONE','WORKSPACE'));
#9=APPLICATION_CONTEXT(' ');
#10=PRODUCT_CATEGORY('part','NONE');
#11=PRODUCT_RELATED_PRODUCT_CATEGORY('detail',' ',(#22));
#12=PRODUCT_DEFINITION_SHAPE('NONE','NONE',#23);
#13=MANIFOLD_SURFACE_SHAPE_REPRESENTATION('1',(#24,#25),#5);
#16=UNCERTAINTY_MEASURE_WITH_UNIT(LENGTH_MEASURE(1.0E-06),#18,'','');
#18= (CONVERSION_BASED_UNIT('MILLIMETRE',#28)LENGTH_UNIT()NAMED_UNIT(#31));
#19= (NAMED_UNIT(#33)PLANE_ANGLE_UNIT()SI_UNIT($,.RADIAN.));
#20= (NAMED_UNIT(#33)SOLID_ANGLE_UNIT()SI_UNIT($,.STERADIAN.));
#22=PRODUCT('1','','PART--DESC',(#39));
#23=PRODUCT_DEFINITION('','NONE',#40,#1);
#24=SHELL_BASED_SURFACE_MODEL('1',(#41));
#25=AXIS2_PLACEMENT_3D('',#42,#43,#44);
#28=LENGTH_MEASURE_WITH_UNIT(LENGTH_MEASURE(1.0),#45);
#31=DIMENSIONAL_EXPONENTS(1.0,0.0,0.0,0.0,0.0,0.0,0.0);
#33=DIMENSIONAL_EXPONENTS(0.0,0.0,0.0,0.0,0.0,0.0,0.0);
#39=PRODUCT_CONTEXT('',#9,'mechanical');
#40=PRODUCT_DEFINITION_FORMATION_WITH_SPECIFIED_SOURCE(' ','NONE',#22,.NOT_KNOWN.);
#41=CLOSED_SHELL('',(#46));
#42=CARTESIAN_POINT('',(0.0,0.0,0.0));
#43=DIRECTION('',(0.0,0.0,1.0));
#44=DIRECTION('',(1.0,0.0,0.0));
#45= (NAMED_UNIT(#31)LENGTH_UNIT()SI_UNIT(.MILLI.,.METRE.));
#46=FACE_SURFACE('',(#48),#49,.T.);
#48=FACE_BOUND('',#50,.T.);
#49=CYLINDRICAL_SURFACE('',#51,1.32959172679903);
#50=EDGE_LOOP('',(#52,#53,#54,#55,#56,#57,#58,#59,#60,#61));
#51=AXIS2_PLACEMENT_3D('',#62,#63,#64);
#52=ORIENTED_EDGE('',*,*,#65,.T.);
#53=ORIENTED_EDGE('',*,*,#66,.T.);
#54=ORIENTED_EDGE('',*,*,#67,.T.);
#55=ORIENTED_EDGE('',*,*,#68,.T.);
#56=ORIENTED_EDGE('',*,*,#69,.T.);
#57=ORIENTED_EDGE('',*,*,#70,.T.);
#58=ORIENTED_EDGE('',*,*,#71,.T.);
#59=ORIENTED_EDGE('',*,*,#72,.T.);
#60=ORIENTED_EDGE('',*,*,#73,.T.);
#61=ORIENTED_EDGE('',*,*,#74,.T.);
#62=CARTESIAN_POINT('',(-0.176383114074341,-0.000442741082433736,-1.30809534141705));
#63=DIRECTION('',(0.00206747389305728,-0.99999786099246,5.96842149224085E-05));
#64=DIRECTION('',(0.0,5.96843424813629E-05,0.99999999821889));
#65=EDGE_CURVE('',#75,#76,#77,.T.);
#66=EDGE_CURVE('',#76,#78,#79,.T.);
#67=EDGE_CURVE('',#78,#80,#81,.T.);
#68=EDGE_CURVE('',#80,#82,#83,.T.);
#69=EDGE_CURVE('',#82,#84,#85,.T.);
#70=EDGE_CURVE('',#84,#86,#87,.T.);
#71=EDGE_CURVE('',#86,#88,#89,.T.);
#72=EDGE_CURVE('',#88,#90,#91,.T.);
#73=EDGE_CURVE('',#90,#92,#93,.T.);
#74=EDGE_CURVE('',#92,#75,#94,.T.);
#75=VERTEX_POINT('',#95);
#76=VERTEX_POINT('',#96);
#77=LINE('',#97,#98);
#78=VERTEX_POINT('',#99);
#79=LINE('',#100,#101);
#80=VERTEX_POINT('',#102);
#81=LINE('',#103,#104);
#82=VERTEX_POINT('',#105);
#83=LINE('',#106,#107);
#84=VERTEX_POINT('',#108);
#85=LINE('',#109,#110);
#86=VERTEX_POINT('',#111);
#87=B_SPLINE_CURVE_WITH_KNOTS('',3,(#112,#113,#114,#115,#116,#117,#118,#119,#120,#121,#122,#123,#124,#125,#126,#127,#128,#129,#130,#131,#132,#133),.UNSPECIFIED.,.F.,.F.,(4,1,1,1,1,1,1,1,1,1,1,1,1,1,1,1,1,1,1,4),(0.0,0.129561533680348,0.259123067360696,0.388684601041044,0.518246134721392,0.583026901561566,0.64780766840174,0.712588435241915,0.777369202082088,0.842149968922262,0.87454035234235,0.906930735762437,0.939321119182524,0.971711502602611,0.987906694312654,1.0041018860227,1.01219948187772,1.02029707773274,1.02839467358776,1.03649226944278),.UNSPECIFIED.);
#88=VERTEX_POINT('',#134);
#89=LINE('',#135,#136);
#90=VERTEX_POINT('',#137);
#91=LINE('',#138,#139);
#92=VERTEX_POINT('',#140);
#93=LINE('',#141,#142);
#94=B_SPLINE_CURVE_WITH_KNOTS('',3,(#143,#144,#145,#146,#147,#148,#149,#150,#151,#152,#153,#154,#155,#156,#157,#158,#159,#160,#161,#162,#163,#164,#165,#166,#167,#168,#169,#170,#171,#172,#173),.UNSPECIFIED.,.F.,.F.,(4,1,1,1,1,1,1,1,1,1,1,1,1,1,1,1,1,1,1,1,1,1,1,1,1,1,1,1,4),(0.0,0.00810615465150861,0.0162123093030172,0.0243184639545258,0.0324246186060344,0.0486369279090517,0.0648492372120689,0.0972738558181033,0.129698474424138,0.162123093030172,0.194547711636207,0.259396948848276,0.324246186060344,0.389095423272413,0.453944660484482,0.518793897696551,0.58364313490862,0.648492372120689,0.713341609332758,0.778190846544827,0.843040083756896,0.87546470236293,0.907889320968965,0.940313939574999,0.972738558181033,0.988950867484051,1.00516317678707,1.02137548609008,1.0375877953931),.UNSPECIFIED.);
#95=CARTESIAN_POINT('',(0.88179486989975,1.99927562789526E-05,-0.490304857492447));
#96=CARTESIAN_POINT('',(0.881794035434723,0.0300347153097391,-0.490297138690948));
#97=CARTESIAN_POINT('',(0.881794452667236,0.015027354033009,-0.490300998091698));
#98=VECTOR('',#174,1.0);
#99=CARTESIAN_POINT('',(0.881793081760406,0.0500445105135441,-0.490292400121689));
#100=CARTESIAN_POINT('',(0.881793558597565,0.0400396129116416,-0.490294769406319));
#101=VECTOR('',#175,1.0);
#102=CARTESIAN_POINT('',(0.881791889667511,0.0700543001294136,-0.490287899971008));
#103=CARTESIAN_POINT('',(0.881792485713959,0.0600494053214788,-0.490290150046349));
#104=VECTOR('',#176,1.0);
#105=CARTESIAN_POINT('',(0.881787240505219,0.0900640934705734,-0.490287363529205));
#106=CARTESIAN_POINT('',(0.881789565086365,0.0800591967999935,-0.490286812186241));
#107=VECTOR('',#177,1.0);
#108=CARTESIAN_POINT('',(0.876924991607666,0.100070230662823,-0.494295954704285));
#109=CARTESIAN_POINT('',(0.879356116056442,0.0950671620666981,-0.492291659116745));
#110=VECTOR('',#178,1.0);
#111=CARTESIAN_POINT('',(0.000229101438890211,0.100024119019508,0.00405836291611195));
#112=CARTESIAN_POINT('',(0.876924991607666,0.100070230662823,-0.494295954704285));
#113=CARTESIAN_POINT('',(0.849862293747066,0.100062911582838,-0.460639712113387));
#114=CARTESIAN_POINT('',(0.792916443027879,0.100066141854211,-0.39558562965788));
#115=CARTESIAN_POINT('',(0.69885887143126,0.100059915797482,-0.306278059045347));
#116=CARTESIAN_POINT('',(0.597153972940112,0.100060273537335,-0.225809336062126));
#117=CARTESIAN_POINT('',(0.506717084492121,0.100068099931579,-0.166621392469697));
#118=CARTESIAN_POINT('',(0.431237320481185,0.100069835585312,-0.124575642906142));
#119=CARTESIAN_POINT('',(0.373139270956111,0.100074321229707,-0.095873425771864));
#120=CARTESIAN_POINT('',(0.313651950790987,0.100086840452423,-0.0701702059035904));
#121=CARTESIAN_POINT('',(0.25289212279109,0.100088646712046,-0.0476355294510864));
#122=CARTESIAN_POINT('',(0.20131223472883,0.1000654650015,-0.0316341578984507));
#123=CARTESIAN_POINT('',(0.159559125502484,0.100067391123785,-0.0205809562805846));
#124=CARTESIAN_POINT('',(0.128021453669561,0.100088190192087,-0.0131794510699413));
#125=CARTESIAN_POINT('',(0.0962847950078252,0.100136630495888,-0.00670053598985961));
#126=CARTESIAN_POINT('',(0.0696900767184784,0.100167892120639,-0.0020277944359642));
#127=CARTESIAN_POINT('',(0.0483444320177295,0.100165210327979,0.00115055790667431));
#128=CARTESIAN_POINT('',(0.0349658859782872,0.100152926401958,0.00315387198318929));
#129=CARTESIAN_POINT('',(0.0242674750640906,0.100122532303486,0.00420078507901538));
#130=CARTESIAN_POINT('',(0.0162007737950415,0.100103030028459,0.00564162222772666));
#131=CARTESIAN_POINT('',(0.00818441461991935,0.100077715297625,0.00626362011093052));
#132=CARTESIAN_POINT('',(0.00283782321906903,0.100041367257923,0.00475114452177424));
#133=CARTESIAN_POINT('',(0.000229101438890211,0.100024119019508,0.00405836291611195));
#134=CARTESIAN_POINT('',(-2.71096387236349E-34,0.0900091603398323,-1.16732719056022E-34));
#135=CARTESIAN_POINT('',(0.000114550719445106,0.0950166396796703,0.00202918145805597));
#136=VECTOR('',#179,1.0);
#137=CARTESIAN_POINT('',(-7.22496113226818E-34,0.00999083835631609,-5.10225894368306E-34));
#138=CARTESIAN_POINT('',(-5.04650745067547E-35,0.0499999993480742,-5.84279926253699E-35));
#139=VECTOR('',#180,1.0);
#140=CARTESIAN_POINT('',(0.000174191183759831,-3.35679651470855E-05,0.00410853326320648));
#141=CARTESIAN_POINT('',(8.70955918799154E-05,0.0049786351955845,0.00205426663160324));
#142=VECTOR('',#181,1.0);
#143=CARTESIAN_POINT('',(0.000174191183759831,-3.35679651470855E-05,0.00410853326320648));
#144=CARTESIAN_POINT('',(0.00278904119543193,-4.91501912775407E-05,0.00478926756692724));
#145=CARTESIAN_POINT('',(0.00814478156235324,-8.20451712188857E-05,0.00627504957484134));
#146=CARTESIAN_POINT('',(0.016171256595152,-0.000103130408908167,0.00564150840629607));
#147=CARTESIAN_POINT('',(0.0242451365067674,-0.000119496980230581,0.00421023870307664));
#148=CARTESIAN_POINT('',(0.0349557970952975,-0.000146675329211823,0.00315823857464345));
#149=CARTESIAN_POINT('',(0.0483482019707174,-0.000156959014125462,0.00115650540899837));
#150=CARTESIAN_POINT('',(0.0697168065830241,-0.000159602474697416,-0.00202492453838042));
#151=CARTESIAN_POINT('',(0.0963397511466133,-0.000132806602956144,-0.00670093790468062));
#152=CARTESIAN_POINT('',(0.128110069461787,-9.23445444563048E-05,-0.0131865413479731));
#153=CARTESIAN_POINT('',(0.159680944885283,-7.59597647673003E-05,-0.0205963816693696));
#154=CARTESIAN_POINT('',(0.201477697864969,-7.52893040974736E-05,-0.031663163336822));
#155=CARTESIAN_POINT('',(0.253110770476867,-9.45339267104086E-05,-0.047685868706931));
#156=CARTESIAN_POINT('',(0.313931751182362,-9.05280197918895E-05,-0.0702527713916224));
#157=CARTESIAN_POINT('',(0.373477209589436,-7.76358481371688E-05,-0.0959941744039491));
#158=CARTESIAN_POINT('',(0.431629980893448,-7.0365936754882E-05,-0.124740514826351));
#159=CARTESIAN_POINT('',(0.48829132609786,-6.39304420403781E-05,-0.156322395689862));
#160=CARTESIAN_POINT('',(0.543380741265306,-5.41531596231903E-05,-0.190570097865682));
#161=CARTESIAN_POINT('',(0.596837183374117,-4.45119762122878E-05,-0.227312453182053));
#162=CARTESIAN_POINT('',(0.648585738385016,-3.59952883777862E-05,-0.26642341472142));
#163=CARTESIAN_POINT('',(0.698513508678868,-2.58809484709587E-05,-0.307833742681284));
#164=CARTESIAN_POINT('',(0.738515351775344,-1.62848135380233E-05,-0.344190132901484));
#165=CARTESIAN_POINT('',(0.76950469667964,-9.90317681018992E-06,-0.374339727605084));
#166=CARTESIAN_POINT('',(0.792228589202645,-3.86071528104291E-06,-0.397471711950228));
#167=CARTESIAN_POINT('',(0.814412698568667,1.0614782622844E-06,-0.421125452513992));
#168=CARTESIAN_POINT('',(0.832486671369929,5.61953321311475E-06,-0.441203265326119));
#169=CARTESIAN_POINT('',(0.846585446821337,1.01039776243121E-05,-0.457612877728762));
#170=CARTESIAN_POINT('',(0.857235303417027,1.33613044626057E-05,-0.469765545839892));
#171=CARTESIAN_POINT('',(0.867064071844054,1.95140674368886E-05,-0.482956015897912));
#172=CARTESIAN_POINT('',(0.876938674279376,2.13331611262519E-05,-0.487933846605445));
#173=CARTESIAN_POINT('',(0.88179486989975,1.99927562789526E-05,-0.490304857492447));
#174=DIRECTION('',(-2.80004392454512E-05,0.999999967006104,0.000255350281893415));
#175=DIRECTION('',(-4.7660372276107E-05,0.99999997082417,0.000236812474746908));
#176=DIRECTION('',(-5.95754821079926E-05,0.99999997293595,0.000224897444957676));
#177=DIRECTION('',(-0.000232344370109821,0.999999972949438,-1.08266947798384E-05));
#178=DIRECTION('',(-0.411180275084421,0.846177628897729,-0.338989972911467));
#179=DIRECTION('',(-0.0211965479036318,-0.926587595586319,-0.375481203341169));
#180=DIRECTION('',(-0.0,-1.0,-0.0));
#181=DIRECTION('',(0.0160765837691636,-0.925180049211537,0.379187842625856));
ENDSEC;
END-ISO-10303-21;
