ISO-10303-21;
HEADER;
FILE_DESCRIPTION(('STEP AP214'),'1');
FILE_NAME('SMAStripDeformed_06.stp','2026-04-23T09:32:19',(' '),(' '),'Spatial InterOp 3D',' ',' ');
FILE_SCHEMA(('AUTOMOTIVE_DESIGN { 1 0 10303 214 1 1 1 1 }'));
ENDSEC;
DATA;
#1=PRODUCT_DEFINITION_CONTEXT('',#9,'design');
#2=APPLICATION_PROTOCOL_DEFINITION('INTERNATIONAL STANDARD','automotive_design',1994,#9);
#3=PRODUCT_CATEGORY_RELATIONSHIP('NONE','NONE',#10,#11);
#4=SHAPE_DEFINITION_REPRESENTATION(#12,#13);
#5= (GEOMETRIC_REPRESENTATION_CONTEXT(3)GLOBAL_UNCERTAINTY_ASSIGNED_CONTEXT((#16))GLOBAL_UNIT_ASSIGNED_CONTEXT((#18,#19,#20))REPRESENTATION_CONTEXT('NONE','WORKSPACE'));
#9=APPLICATION_CONTEXT(' ');
#10=PRODUCT_CATEGORY('part','NONE');
#11=PRODUCT_RELATED_PRODUCT_CATEGORY('detail',' ',(#22));
#12=PRODUCT_DEFINITION_SHAPE('NONE','NONE',#23);
#13=MANIFOLD_SURFACE_SHAPE_REPRESENTATION('1',(#24,#25),#5);
#16=UNCERTAINTY_MEASURE_WITH_UNIT(LENGTH_MEASURE(1.0E-06),#18,'','');
#18= (CONVERSION_BASED_UNIT('MILLIMETRE',#28)LENGTH_UNIT()NAMED_UNIT(#31));
#19= (NAMED_UNIT(#33)PLANE_ANGLE_UNIT()SI_UNIT($,.RADIAN.));
#20= (NAMED_UNIT(#33)SOLID_ANGLE_UNIT()SI_UNIT($,.STERADIAN.));
#22=PRODUCT('1','','PART--DESC',(#39));
#23=PRODUCT_DEFINITION('','NONE',#40,#1);
#24=SHELL_BASED_SURFACE_MODEL('1',(#41));
#25=AXIS2_PLACEMENT_3D('',#42,#43,#44);
#28=LENGTH_MEASURE_WITH_UNIT(LENGTH_MEASURE(1.0),#45);
#31=DIMENSIONAL_EXPONENTS(1.0,0.0,0.0,0.0,0.0,0.0,0.0);
#33=DIMENSIONAL_EXPONENTS(0.0,0.0,0.0,0.0,0.0,0.0,0.0);
#39=PRODUCT_CONTEXT('',#9,'mechanical');
#40=PRODUCT_DEFINITION_FORMATION_WITH_SPECIFIED_SOURCE(' ','NONE',#22,.NOT_KNOWN.);
#41=CLOSED_SHELL('',(#46));
#42=CARTESIAN_POINT('',(0.0,0.0,0.0));
#43=DIRECTION('',(0.0,0.0,1.0));
#44=DIRECTION('',(1.0,0.0,0.0));
#45= (NAMED_UNIT(#31)LENGTH_UNIT()SI_UNIT(.MILLI.,.METRE.));
#46=FACE_SURFACE('',(#48),#49,.T.);
#48=FACE_BOUND('',#50,.T.);
#49=CYLINDRICAL_SURFACE('',#51,1.27318385014773);
#50=EDGE_LOOP('',(#52,#53,#54,#55,#56,#57,#58,#59,#60));
#51=AXIS2_PLACEMENT_3D('',#61,#62,#63);
#52=ORIENTED_EDGE('',*,*,#64,.T.);
#53=ORIENTED_EDGE('',*,*,#65,.T.);
#54=ORIENTED_EDGE('',*,*,#66,.T.);
#55=ORIENTED_EDGE('',*,*,#67,.T.);
#56=ORIENTED_EDGE('',*,*,#68,.T.);
#57=ORIENTED_EDGE('',*,*,#69,.T.);
#58=ORIENTED_EDGE('',*,*,#70,.T.);
#59=ORIENTED_EDGE('',*,*,#71,.T.);
#60=ORIENTED_EDGE('',*,*,#72,.T.);
#61=CARTESIAN_POINT('',(-0.213357253304294,-0.00105942169169287,-1.243196550655));
#62=DIRECTION('',(0.00260477898477406,-0.999996525487691,0.000405140699553155));
#63=DIRECTION('',(0.0,0.000405142073974359,0.999999917929947));
#64=EDGE_CURVE('',#73,#74,#75,.T.);
#65=EDGE_CURVE('',#74,#76,#77,.T.);
#66=EDGE_CURVE('',#76,#78,#79,.T.);
#67=EDGE_CURVE('',#78,#80,#81,.T.);
#68=EDGE_CURVE('',#80,#82,#83,.T.);
#69=EDGE_CURVE('',#82,#84,#85,.T.);
#70=EDGE_CURVE('',#84,#86,#87,.T.);
#71=EDGE_CURVE('',#86,#88,#89,.T.);
#72=EDGE_CURVE('',#88,#73,#90,.T.);
#73=VERTEX_POINT('',#91);
#74=VERTEX_POINT('',#92);
#75=LINE('',#93,#94);
#76=VERTEX_POINT('',#95);
#77=LINE('',#96,#97);
#78=VERTEX_POINT('',#98);
#79=B_SPLINE_CURVE_WITH_KNOTS('',3,(#99,#100,#101,#102,#103,#104,#105,#106,#107,#108,#109),.UNSPECIFIED.,.F.,.F.,(4,1,1,1,1,1,1,1,4),(0.0,0.128494071274062,0.256988142548123,0.385482213822185,0.513976285096246,0.642470356370308,0.770964427644369,0.899458498918431,1.02795257019249),.UNSPECIFIED.);
#80=VERTEX_POINT('',#110);
#81=LINE('',#111,#112);
#82=VERTEX_POINT('',#113);
#83=LINE('',#114,#115);
#84=VERTEX_POINT('',#116);
#85=LINE('',#117,#118);
#86=VERTEX_POINT('',#119);
#87=LINE('',#120,#121);
#88=VERTEX_POINT('',#122);
#89=B_SPLINE_CURVE_WITH_KNOTS('',3,(#123,#124,#125,#126,#127,#128,#129,#130,#131,#132,#133),.UNSPECIFIED.,.F.,.F.,(4,1,1,1,1,1,1,1,4),(0.0,0.129675686088236,0.259351372176473,0.389027058264709,0.518702744352945,0.648378430441182,0.778054116529418,0.907729802617654,1.03740548870589),.UNSPECIFIED.);
#90=LINE('',#134,#135);
#91=CARTESIAN_POINT('',(0.854257345199585,0.0100008007138968,-0.533482134342194));
#92=CARTESIAN_POINT('',(0.854239583015442,0.0900270640850067,-0.533485889434814));
#93=CARTESIAN_POINT('',(0.854248464107513,0.0500139323994517,-0.533484071493149));
#94=VECTOR('',#136,1.0);
#95=CARTESIAN_POINT('',(0.847783923149109,0.100030779838562,-0.538129329681396));
#96=CARTESIAN_POINT('',(0.851011753082275,0.0950289219617844,-0.535807609558105));
#97=VECTOR('',#137,1.0);
#98=CARTESIAN_POINT('',(0.0103559829294682,0.10010377317667,0.00824168790131807));
#99=CARTESIAN_POINT('',(0.847783923149109,0.100030779838562,-0.538129329681396));
#100=CARTESIAN_POINT('',(0.823583835593245,0.100027583400116,-0.502789820596544));
#101=CARTESIAN_POINT('',(0.772037321335365,0.100036666350473,-0.434254504717663));
#102=CARTESIAN_POINT('',(0.684979062770124,0.10003790768151,-0.339532640642337));
#103=CARTESIAN_POINT('',(0.589238917625727,0.100044985678923,-0.253613220020998));
#104=CARTESIAN_POINT('',(0.485697300562028,0.100055719277261,-0.177273105798562));
#105=CARTESIAN_POINT('',(0.375296053222589,0.100065588107408,-0.111219115145759));
#106=CARTESIAN_POINT('',(0.258640052548701,0.100105047352379,-0.0569179431701494));
#107=CARTESIAN_POINT('',(0.13669512891762,0.100048951596131,-0.0157315204686711));
#108=CARTESIAN_POINT('',(0.0527107272968068,0.100201874469492,0.00187056900423139));
#109=CARTESIAN_POINT('',(0.0103559829294682,0.10010377317667,0.00824168790131807));
#110=CARTESIAN_POINT('',(0.000227384065510705,0.10003100335598,0.0040394808165729));
#111=CARTESIAN_POINT('',(0.00529168349748943,0.100067388266325,0.00614058435894549));
#112=VECTOR('',#138,1.0);
#113=CARTESIAN_POINT('',(-2.73323099552817E-34,0.0900091603398323,-1.34172107584869E-34));
#114=CARTESIAN_POINT('',(0.000113692032755353,0.0950200818479061,0.00201974040828645));
#115=VECTOR('',#139,1.0);
#116=CARTESIAN_POINT('',(-5.8274030416061E-34,0.00999083835631609,-5.20230453319758E-34));
#117=CARTESIAN_POINT('',(-2.61941008158996E-35,0.0499999993480742,-5.07353693308217E-35));
#118=VECTOR('',#140,1.0);
#119=CARTESIAN_POINT('',(0.00092683982802555,-4.850795812672E-05,0.00960456300526857));
#120=CARTESIAN_POINT('',(0.000463419914012775,0.00497116519909468,0.00480228150263429));
#121=VECTOR('',#141,1.0);
#122=CARTESIAN_POINT('',(0.847825407981873,-3.09109782392625E-05,-0.537908673286438));
#123=CARTESIAN_POINT('',(0.00092683982802555,-4.850795812672E-05,0.00960456300526857));
#124=CARTESIAN_POINT('',(0.0437432131871202,-0.00035806771944175,0.00368149446294244));
#125=CARTESIAN_POINT('',(0.128634434412029,6.33263908870396E-07,-0.0134926221783087));
#126=CARTESIAN_POINT('',(0.252002545856524,-0.000135736112323524,-0.0541396239210841));
#127=CARTESIAN_POINT('',(0.37003880410055,-8.44647297329531E-05,-0.10829526997663));
#128=CARTESIAN_POINT('',(0.481749695871605,-7.7915477822961E-05,-0.174468391726964));
#129=CARTESIAN_POINT('',(0.586484003561004,-5.94658964795136E-05,-0.251186722486927));
#130=CARTESIAN_POINT('',(0.683336320905542,-4.4912538578578E-05,-0.337644631837096));
#131=CARTESIAN_POINT('',(0.771302534615141,-4.75535077890731E-05,-0.43313392865331));
#132=CARTESIAN_POINT('',(0.823467743354197,6.09887245951363E-06,-0.502199806040543));
#133=CARTESIAN_POINT('',(0.847825407981873,-3.09109782392625E-05,-0.537908673286438));
#134=CARTESIAN_POINT('',(0.851041376590729,0.00498494486782874,-0.535695403814316));
#135=VECTOR('',#142,1.0);
#136=DIRECTION('',(-0.000118536932481869,0.999999989747114,-8.03415701197403E-05));
#137=DIRECTION('',(-0.505163979088729,0.782804075861126,-0.363355381199248));
#138=DIRECTION('',(-0.923639668662983,-0.00663597146788949,-0.383204548974581));
#139=DIRECTION('',(-0.0210390740272458,-0.927287040244422,-0.373759417752672));
#140=DIRECTION('',(-0.0,-1.0,-0.0));
#141=DIRECTION('',(0.0665612132532776,-0.720977941121359,0.689753878790586));
#142=DIRECTION('',(0.505966840130464,0.789142259037034,0.348212652972748));
ENDSEC;
END-ISO-10303-21;
